<?xml version="1.0" encoding="UTF-8" standalone="no"?>
<svg
   xmlns:dc="http://purl.org/dc/elements/1.1/"
   xmlns:cc="http://creativecommons.org/ns#"
   xmlns:rdf="http://www.w3.org/1999/02/22-rdf-syntax-ns#"
   xmlns:svg="http://www.w3.org/2000/svg"
   xmlns="http://www.w3.org/2000/svg"
   xmlns:sodipodi="http://sodipodi.sourceforge.net/DTD/sodipodi-0.dtd"
   xmlns:inkscape="http://www.inkscape.org/namespaces/inkscape"
   enable-background="new 0 0 128 128"
   height="32"
   viewBox="0 0 32 32"
   width="32"
   version="1.1"
   id="svg139"
   sodipodi:docname="document-close.svg"
   inkscape:version="0.92.3 (2405546, 2018-03-11)"
   inkscape:export-filename="/home/rizmut/Dokumen/Rizmut/Github/karasa-jaga-icon-theme/build/Karasa-Jaga/32x32/actions/document-close.png"
   inkscape:export-xdpi="96"
   inkscape:export-ydpi="96">
  <metadata
     id="metadata145">
    <rdf:RDF>
      <cc:Work
         rdf:about="">
        <dc:format>image/svg+xml</dc:format>
        <dc:type
           rdf:resource="http://purl.org/dc/dcmitype/StillImage" />
        <dc:title></dc:title>
      </cc:Work>
    </rdf:RDF>
  </metadata>
  <defs
     id="defs143" />
  <sodipodi:namedview
     pagecolor="#ffffff"
     bordercolor="#666666"
     borderopacity="1"
     objecttolerance="10"
     gridtolerance="10"
     guidetolerance="10"
     inkscape:pageopacity="0"
     inkscape:pageshadow="2"
     inkscape:window-width="1366"
     inkscape:window-height="693"
     id="namedview141"
     showgrid="false"
     inkscape:zoom="7.375"
     inkscape:cx="-1.1525424"
     inkscape:cy="16"
     inkscape:window-x="0"
     inkscape:window-y="0"
     inkscape:window-maximized="1"
     inkscape:current-layer="svg139" />
  <filter
     id="a"
     color-interpolation-filters="sRGB"
     height="1.12"
     width="1.12"
     x="-.06"
     y="-.06">
    <feGaussianBlur
       stdDeviation="1.9753136"
       id="feGaussianBlur2" />
  </filter>
  <radialGradient
     id="b"
     cx="-65.04158"
     cy="84.778641"
     gradientUnits="userSpaceOnUse"
     r="36.458652">
    <stop
       offset="0"
       stop-color="#e18a28"
       id="stop5" />
    <stop
       offset="1"
       stop-color="#9b0a0a"
       stop-opacity=".996078"
       id="stop7" />
  </radialGradient>
  <filter
     id="c"
     color-interpolation-filters="sRGB"
     height="1.048"
     width="1.048"
     x="-.024"
     y="-.024">
    <feGaussianBlur
       stdDeviation=".72917305"
       id="feGaussianBlur10" />
  </filter>
  <filter
     id="d"
     color-interpolation-filters="sRGB"
     height="1.096"
     width="1.096"
     x="-.048"
     y="-.048">
    <feGaussianBlur
       stdDeviation=".78129363"
       id="feGaussianBlur13" />
  </filter>
  <linearGradient
     id="e"
     gradientTransform="matrix(.65842372 0 0 .5325216 222.71127 293.93821)"
     gradientUnits="userSpaceOnUse"
     x1="-67.976425"
     x2="-66.816696"
     y1="24.103317"
     y2="72.311111">
    <stop
       offset="0"
       stop-color="#fff"
       id="stop16" />
    <stop
       offset="1"
       stop-color="#fff"
       stop-opacity="0"
       id="stop18" />
  </linearGradient>
  <filter
     id="f">
    <feGaussianBlur
       stdDeviation="1.0394514"
       id="feGaussianBlur21" />
  </filter>
  <filter
     id="g">
    <feGaussianBlur
       stdDeviation=".50063244"
       id="feGaussianBlur24" />
  </filter>
  <radialGradient
     id="h"
     cx="102"
     cy="112.3047"
     gradientUnits="userSpaceOnUse"
     r="139.5585">
    <stop
       offset="0"
       stop-color="#00537d"
       id="stop27" />
    <stop
       offset=".0151"
       stop-color="#186389"
       id="stop29" />
    <stop
       offset=".0558"
       stop-color="#558ca8"
       id="stop31" />
    <stop
       offset=".0964"
       stop-color="#89afc3"
       id="stop33" />
    <stop
       offset=".1357"
       stop-color="#b3ccd8"
       id="stop35" />
    <stop
       offset=".1737"
       stop-color="#d4e2e9"
       id="stop37" />
    <stop
       offset=".2099"
       stop-color="#ecf2f5"
       id="stop39" />
    <stop
       offset=".2435"
       stop-color="#fafcfd"
       id="stop41" />
    <stop
       offset=".2722"
       stop-color="#fff"
       id="stop43" />
  </radialGradient>
  <radialGradient
     id="i"
     cx="102"
     cy="112.3047"
     gradientTransform="matrix(.9787234 0 0 .9818182 1.361705 1.163636)"
     gradientUnits="userSpaceOnUse"
     r="139.55859">
    <stop
       offset="0"
       stop-color="#535557"
       id="stop46" />
    <stop
       offset=".11366145"
       stop-color="#898a8c"
       id="stop48" />
    <stop
       offset=".20296688"
       stop-color="#ececec"
       id="stop50" />
    <stop
       offset=".2363"
       stop-color="#fafafa"
       id="stop52" />
    <stop
       offset=".2722"
       stop-color="#fff"
       id="stop54" />
    <stop
       offset=".5313"
       stop-color="#fafafa"
       id="stop56" />
    <stop
       offset=".8449"
       stop-color="#ebecec"
       id="stop58" />
    <stop
       offset="1"
       stop-color="#e1e2e3"
       id="stop60" />
  </radialGradient>
  <linearGradient
     id="j"
     gradientUnits="userSpaceOnUse"
     x1="88.591797"
     x2="71.262016"
     y1="96.592697"
     y2="79.262917">
    <stop
       offset="0"
       stop-color="#fff"
       id="stop63" />
    <stop
       offset="1"
       stop-color="#555753"
       id="stop65" />
  </linearGradient>
  <filter
     id="k">
    <feGaussianBlur
       stdDeviation=".40750996"
       id="feGaussianBlur68" />
  </filter>
  <filter
     id="l">
    <feGaussianBlur
       stdDeviation=".90565481"
       id="feGaussianBlur71" />
  </filter>
  <linearGradient
     id="m"
     gradientUnits="userSpaceOnUse"
     x1="85.219681"
     x2="61.336319"
     y1="93.219681"
     y2="69.336319">
    <stop
       offset="0"
       id="stop74" />
    <stop
       offset="1"
       stop-color="#393b38"
       id="stop76" />
  </linearGradient>
  <filter
     id="n">
    <feGaussianBlur
       stdDeviation=".4901192"
       id="feGaussianBlur79" />
  </filter>
  <linearGradient
     id="o"
     gradientUnits="userSpaceOnUse"
     x1="96"
     x2="88.000198"
     y1="104"
     y2="96.000198">
    <stop
       offset="0"
       stop-color="#888a85"
       id="stop82" />
    <stop
       offset=".0072"
       stop-color="#8c8e89"
       id="stop84" />
    <stop
       offset=".0673"
       stop-color="#abaca9"
       id="stop86" />
    <stop
       offset=".1347"
       stop-color="#c5c6c4"
       id="stop88" />
    <stop
       offset=".2115"
       stop-color="#dbdbda"
       id="stop90" />
    <stop
       offset=".3012"
       stop-color="#ebebeb"
       id="stop92" />
    <stop
       offset=".4122"
       stop-color="#f7f7f6"
       id="stop94" />
    <stop
       offset=".5679"
       stop-color="#fdfdfd"
       id="stop96" />
    <stop
       offset="1"
       stop-color="#fff"
       id="stop98" />
  </linearGradient>
  <g
     transform="matrix(.25 0 0 .25 0 .000025)"
     id="g111">
    <path
       d="m23 9 .04082 112h61.13118c.53 0 1.039-.211 1.414-.586l32.828-32.828c.375-.375.586-.884.586-1.414v-77.172z"
       filter="url(#f)"
       opacity=".306849"
       transform="matrix(1.0416667 0 0 1.0357143 -9.958333 -3.321534)"
       id="path101" />
    <path
       d="m24.919999 10.931136v108.137934l58.676001-.0001c.53 0 1.039-.211 1.414-.586l31.484-31.765936c.375-.375.586-.884.586-1.414v-74.371898z"
       filter="url(#g)"
       opacity=".89589"
       transform="matrix(1.0416667 0 0 1.0357143 -9.958333 -3.321534)"
       id="path103" />
    <path
       d="m23 9.9655172.040816 111.0344828h61.131184c.53 0 1.039-.211 1.414-.586l32.828-32.828c.375-.375.586-.884.586-1.414v-76.2064828z"
       filter="url(#f)"
       opacity=".306849"
       transform="matrix(1.0416667 0 0 1.0357143 -9.958333 -3.321534)"
       id="path105" />
    <path
       d="m16.000002 8v112h61.172c.53 0 1.039-.211 1.414-.586l32.827998-32.828c.375-.375.586-.884.586-1.414v-77.172z"
       fill="url(#h)"
       id="path107" />
    <path
       d="m19.678725 10.7c-.539276 0-.978723.440836-.978723.981818l-.7 105.336362c0 .54197.439447.98182.978723.98182h57.913022c.257404 0 .509915-.10407.691957-.28767l32.129526-32.23113c.18303-.1836.28677-.435927.28677-.694145v-73.805237c0-.540982-.43847-.981818-.97872-.981818z"
       fill="url(#i)"
       id="path109" />
  </g>
  <g
     transform="matrix(.25 0 0 .25 .000001 .000025)"
     id="g121">
    <path
       d="m111.414 86.586c.25-.25-26.379-1.586-31.414-1.586-1.654 0-3 1.346-3 3 0 5.035 1.336 31.664 1.586 31.414z"
       fill="url(#j)"
       filter="url(#k)"
       opacity=".1"
       id="path113" />
    <path
       d="m111.414 86.586c.375-.375-21.97-.586-31.414-.586-1.103 0-2 .897-2 2 0 9.444.211 31.789.586 31.414z"
       filter="url(#l)"
       opacity=".2"
       id="path115" />
    <path
       d="m111.414 86.586c.239-.239-21.607.414-31.414.414-.553 0-1 .447-1 1 0 9.807-.653 31.653-.414 31.414z"
       fill="url(#m)"
       filter="url(#n)"
       opacity=".1"
       id="path117" />
    <path
       d="m78.586 119.414s11.914-9.914 17.414-15.414 15.414-17.414 15.414-17.414-21.164 1.414-31.414 1.414c0 10.25-1.414 31.414-1.414 31.414z"
       fill="url(#o)"
       id="path119" />
  </g>
  <g
     transform="matrix(.25 0 0 .25 -19.907163 -59.218999)"
     id="g137">
    <circle
       cx="-65.04158"
       cy="63.78297"
       fill="#858585"
       filter="url(#a)"
       opacity=".759"
       r="39.506271"
       transform="matrix(.65842372 0 0 .65842372 222.71127 293.75855)"
       id="circle123" />
    <circle
       cx="179.88635"
       cy="334.43793"
       fill="#844329"
       r="25.282183"
       id="circle125" />
    <circle
       cx="-65.04158"
       cy="61.78297"
       fill="url(#b)"
       filter="url(#c)"
       r="36.458652"
       transform="matrix(.65842372 0 0 .65842372 222.71127 293.75855)"
       id="circle127" />
    <g
       transform="matrix(.46557588 -.46557588 .46557588 .46557588 160.06463 296.97986)"
       id="g133">
      <path
         d="m-24.261029 43.91386v15.625872h-15.625873v7.812937h15.625873v15.625872h7.812936v-15.625872h15.62587315v-7.812937h-15.62587315v-15.625872z"
         fill="#742424"
         filter="url(#d)"
         transform="matrix(1.2 0 0 1.2 4.070912 -12.585841)"
         id="path129" />
      <path
         d="m-23.628113 38.076173v18.751046h-18.751048v9.375524h18.751048v18.751047h9.375523v-18.751047h18.751047v-9.375524h-18.751047v-18.751046z"
         fill="#fff"
         id="path131" />
    </g>
    <ellipse
       cx="179.88635"
       cy="326.83899"
       fill="url(#e)"
       rx="19.079889"
       ry="15.43148"
       id="ellipse135" />
  </g>
</svg>
