<?xml version="1.0" encoding="UTF-8" standalone="no"?>
<svg
   xmlns:dc="http://purl.org/dc/elements/1.1/"
   xmlns:cc="http://creativecommons.org/ns#"
   xmlns:rdf="http://www.w3.org/1999/02/22-rdf-syntax-ns#"
   xmlns:svg="http://www.w3.org/2000/svg"
   xmlns="http://www.w3.org/2000/svg"
   xmlns:sodipodi="http://sodipodi.sourceforge.net/DTD/sodipodi-0.dtd"
   xmlns:inkscape="http://www.inkscape.org/namespaces/inkscape"
   height="32"
   width="32"
   version="1.1"
   id="svg39"
   sodipodi:docname="view-fullscreen.svg"
   inkscape:version="0.92.3 (2405546, 2018-03-11)"
   inkscape:export-filename="/home/rizmut/Dokumen/Rizmut/Github/karasa-jaga-icon-theme/build/Karasa-Jaga/32x32/actions/view-fullscreen.png"
   inkscape:export-xdpi="96"
   inkscape:export-ydpi="96">
  <metadata
     id="metadata45">
    <rdf:RDF>
      <cc:Work
         rdf:about="">
        <dc:format>image/svg+xml</dc:format>
        <dc:type
           rdf:resource="http://purl.org/dc/dcmitype/StillImage" />
        <dc:title></dc:title>
      </cc:Work>
    </rdf:RDF>
  </metadata>
  <defs
     id="defs43" />
  <sodipodi:namedview
     pagecolor="#ffffff"
     bordercolor="#666666"
     borderopacity="1"
     objecttolerance="10"
     gridtolerance="10"
     guidetolerance="10"
     inkscape:pageopacity="0"
     inkscape:pageshadow="2"
     inkscape:window-width="1366"
     inkscape:window-height="693"
     id="namedview41"
     showgrid="false"
     inkscape:zoom="7.375"
     inkscape:cx="16"
     inkscape:cy="16"
     inkscape:window-x="0"
     inkscape:window-y="0"
     inkscape:window-maximized="1"
     inkscape:current-layer="g35" />
  <filter
     id="a">
    <feGaussianBlur
       stdDeviation="1.177891"
       id="feGaussianBlur2" />
  </filter>
  <linearGradient
     id="b"
     gradientTransform="matrix(.121457 0 0 .1756605 195.18891 511.66043)"
     gradientUnits="userSpaceOnUse"
     x1="-333.0289"
     x2="-333.0289"
     y1="-1473.6504"
     y2="-776.61371">
    <stop
       offset="0"
       stop-color="#fff"
       id="stop5" />
    <stop
       offset=".49140647"
       stop-color="#fff"
       id="stop7" />
    <stop
       offset="1"
       stop-color="#dcdcdc"
       id="stop9" />
  </linearGradient>
  <linearGradient
     id="c"
     gradientTransform="matrix(.121457 0 0 .1756605 75.745932 156.34633)"
     gradientUnits="userSpaceOnUse"
     x1="399.77466"
     x2="399.77466"
     y1="727.07941"
     y2="480.60214">
    <stop
       offset="0"
       stop-color="#cbcbcd"
       id="stop12" />
    <stop
       offset=".5"
       stop-color="#e0e0e2"
       id="stop14" />
    <stop
       offset="1"
       stop-color="#f2f2f2"
       id="stop16" />
  </linearGradient>
  <g
     transform="matrix(.25 0 0 .25 -19.891538 -59.21903)"
     id="g37">
    <path
       d="m83.772 239.27611h119.71329c1.18742 0 2.14336 1.12849 2.14336 2.53025v100.56093c0 1.40175-.95594 2.53025-2.14336 2.53025h-119.71329c-1.187418 0-2.143353-1.1285-2.143353-2.53025v-100.56093c0-1.40176.955935-2.53025 2.143353-2.53025z"
       filter="url(#a)"
       opacity=".5"
       transform="matrix(1 0 0 .9846487 0 15.273201)"
       id="path19" />
    <path
       d="m87.702859 252.87612h111.851551c1.14912 0 4.07421 3.09209 4.07421 4.44863v93.10272c0 1.35654-.92509 2.44863-2.07421 2.44863h-115.851551c-1.149113 0-2.074212-1.09209-2.074212-2.44863v-93.10272c0-1.35654 2.925099-4.44863 4.074212-4.44863z"
       fill="url(#c)"
       id="path21" />
    <path
       d="m87.69115 252.87613c-1.434341-.245-4.815401 2.43424-4.0625 4.43749v93.12498c0 1.35655.913386 2.4375 2.0625 2.4375h115.875c1.14913 0 2.0625-1.08095 2.0625-2.4375v-93.12498c.31358-1.56559-2.52167-4.69862-4.0625-4.43749zm-.59375 3.65625h113.0625c1.09166 0 1.96875 1.02406 1.96875 2.29688v90.24997c0 1.2728-.87709 2.29687-1.96875 2.29687h-113.0625c-1.091657 0-1.96875-1.02407-1.96875-2.29687v-90.24997c0-1.27282.877093-2.29688 1.96875-2.29688z"
       fill="url(#b)"
       id="path23" />
    <path
       d="m83.62865 288.8761h120v64h-120z"
       fill="#fff"
       id="path25" />
    <g
       fill="#c41abb"
       id="g35">
      <path
         d="m92.96165 290.2115 5.802661 23.28183 5.528929-6.7183 10.10244 10.10245 5.23197-5.23197-10.10246-10.10243 6.7183-5.52892z"
         id="path27"
         style="fill:#c41abb;fill-opacity:1" />
      <path
         d="m92.961672 348.97793 23.281828-5.80266-6.7183-5.52893 10.10245-10.10244-5.23197-5.23197-10.10243 10.10246-5.528918-6.7183z"
         id="path29"
         style="fill:#c41abb;fill-opacity:1" />
      <path
         d="m194.29245 290.2115-5.80266 23.28183-5.52893-6.7183-10.10244 10.10245-5.23197-5.23197 10.10246-10.10243-6.7183-5.52892z"
         id="path31"
         style="fill:#c41abb;fill-opacity:1" />
      <path
         d="m194.29243 348.97793-23.28183-5.80266 6.7183-5.52893-10.10245-10.10244 5.23197-5.23197 10.10243 10.10246 5.52892-6.7183z"
         id="path33"
         style="fill:#c41abb;fill-opacity:1" />
    </g>
  </g>
</svg>
