<?xml version="1.0" encoding="UTF-8" standalone="no"?>
<svg
   xmlns:dc="http://purl.org/dc/elements/1.1/"
   xmlns:cc="http://creativecommons.org/ns#"
   xmlns:rdf="http://www.w3.org/1999/02/22-rdf-syntax-ns#"
   xmlns:svg="http://www.w3.org/2000/svg"
   xmlns="http://www.w3.org/2000/svg"
   xmlns:sodipodi="http://sodipodi.sourceforge.net/DTD/sodipodi-0.dtd"
   xmlns:inkscape="http://www.inkscape.org/namespaces/inkscape"
   height="32"
   width="32"
   version="1.1"
   id="svg64"
   sodipodi:docname="window-new.svg"
   inkscape:version="0.92.3 (2405546, 2018-03-11)"
   inkscape:export-filename="/home/rizmut/Dokumen/Rizmut/Github/karasa-jaga-icon-theme/build/Karasa-Jaga/32x32/actions/window-new.png"
   inkscape:export-xdpi="96"
   inkscape:export-ydpi="96">
  <metadata
     id="metadata70">
    <rdf:RDF>
      <cc:Work
         rdf:about="">
        <dc:format>image/svg+xml</dc:format>
        <dc:type
           rdf:resource="http://purl.org/dc/dcmitype/StillImage" />
        <dc:title></dc:title>
      </cc:Work>
    </rdf:RDF>
  </metadata>
  <defs
     id="defs68" />
  <sodipodi:namedview
     pagecolor="#ffffff"
     bordercolor="#666666"
     borderopacity="1"
     objecttolerance="10"
     gridtolerance="10"
     guidetolerance="10"
     inkscape:pageopacity="0"
     inkscape:pageshadow="2"
     inkscape:window-width="1366"
     inkscape:window-height="693"
     id="namedview66"
     showgrid="false"
     inkscape:zoom="7.375"
     inkscape:cx="-1.1525424"
     inkscape:cy="16"
     inkscape:window-x="0"
     inkscape:window-y="0"
     inkscape:window-maximized="1"
     inkscape:current-layer="svg64" />
  <filter
     id="a">
    <feGaussianBlur
       stdDeviation="1.177891"
       id="feGaussianBlur2" />
  </filter>
  <linearGradient
     id="b"
     gradientTransform="matrix(.121457 0 0 .1756605 195.18891 511.66043)"
     gradientUnits="userSpaceOnUse"
     x1="-333.0289"
     x2="-333.0289"
     y1="-1473.6504"
     y2="-776.61371">
    <stop
       offset="0"
       stop-color="#fff"
       id="stop5" />
    <stop
       offset=".49140647"
       stop-color="#fff"
       id="stop7" />
    <stop
       offset="1"
       stop-color="#dcdcdc"
       id="stop9" />
  </linearGradient>
  <linearGradient
     id="c"
     gradientTransform="matrix(.121457 0 0 .1756605 75.745932 156.34633)"
     gradientUnits="userSpaceOnUse"
     x1="399.77466"
     x2="399.77466"
     y1="727.07941"
     y2="480.60214">
    <stop
       offset="0"
       stop-color="#cbcbcd"
       id="stop12" />
    <stop
       offset=".5"
       stop-color="#e0e0e2"
       id="stop14" />
    <stop
       offset="1"
       stop-color="#f2f2f2"
       id="stop16" />
  </linearGradient>
  <filter
     id="d"
     color-interpolation-filters="sRGB"
     height="1.12"
     width="1.12"
     x="-.06"
     y="-.06">
    <feGaussianBlur
       stdDeviation="1.9753136"
       id="feGaussianBlur19" />
  </filter>
  <radialGradient
     id="e"
     cx="-65.04158"
     cy="84.778641"
     gradientUnits="userSpaceOnUse"
     r="36.458652">
    <stop
       offset="0"
       stop-color="#92e128"
       id="stop22" />
    <stop
       offset="1"
       stop-color="#569d0a"
       stop-opacity=".996078"
       id="stop24" />
  </radialGradient>
  <filter
     id="f"
     color-interpolation-filters="sRGB"
     height="1.048"
     width="1.048"
     x="-.024"
     y="-.024">
    <feGaussianBlur
       stdDeviation=".72917305"
       id="feGaussianBlur27" />
  </filter>
  <filter
     id="g"
     color-interpolation-filters="sRGB"
     height="1.096"
     width="1.096"
     x="-.048"
     y="-.048">
    <feGaussianBlur
       stdDeviation=".78129363"
       id="feGaussianBlur30" />
  </filter>
  <linearGradient
     id="h"
     gradientTransform="matrix(1 0 0 .80878252 0 .272859)"
     gradientUnits="userSpaceOnUse"
     x1="-67.976425"
     x2="-66.816696"
     y1="24.103317"
     y2="72.311111">
    <stop
       offset="0"
       stop-color="#fff"
       id="stop33" />
    <stop
       offset="1"
       stop-color="#fff"
       stop-opacity="0"
       id="stop35" />
  </linearGradient>
  <g
     transform="matrix(.25 0 0 .25 -19.907163 -59.219025)"
     id="g62">
    <path
       d="m83.772 239.27611h119.71329c1.18742 0 2.14336 1.12849 2.14336 2.53025v100.56093c0 1.40175-.95594 2.53025-2.14336 2.53025h-119.71329c-1.187418 0-2.143353-1.1285-2.143353-2.53025v-100.56093c0-1.40176.955935-2.53025 2.143353-2.53025z"
       filter="url(#a)"
       opacity=".5"
       transform="matrix(1 0 0 .9846487 0 15.273201)"
       id="path38" />
    <path
       d="m87.702859 252.87612h111.851551c1.14912 0 4.07421 3.09209 4.07421 4.44863v93.10272c0 1.35654-.92509 2.44863-2.07421 2.44863h-115.851551c-1.149113 0-2.074212-1.09209-2.074212-2.44863v-93.10272c0-1.35654 2.925099-4.44863 4.074212-4.44863z"
       fill="url(#c)"
       id="path40" />
    <path
       d="m87.69115 252.87613c-1.434341-.245-4.815401 2.43424-4.0625 4.43749v93.12498c0 1.35655.913386 2.4375 2.0625 2.4375h115.875c1.14913 0 2.0625-1.08095 2.0625-2.4375v-93.12498c.31358-1.56559-2.52167-4.69862-4.0625-4.43749zm-.59375 3.65625h113.0625c1.09166 0 1.96875 1.02406 1.96875 2.29688v90.24997c0 1.2728-.87709 2.29687-1.96875 2.29687h-113.0625c-1.091657 0-1.96875-1.02407-1.96875-2.29687v-90.24997c0-1.27282.877093-2.29688 1.96875-2.29688z"
       fill="url(#b)"
       id="path42" />
    <path
       d="m83.62865 288.8761h120v64h-120z"
       fill="#fff"
       id="path44" />
    <g
       transform="matrix(.65842371 0 0 .65842371 224.71127 295.74659)"
       id="g60">
      <circle
         cx="-65.04158"
         cy="63.78297"
         fill="#858585"
         filter="url(#d)"
         opacity=".759"
         r="39.506271"
         id="circle46" />
      <circle
         cx="-65.04158"
         cy="61.78297"
         fill="#588429"
         r="38.398045"
         id="circle48" />
      <circle
         cx="-65.04158"
         cy="61.78297"
         fill="url(#e)"
         filter="url(#f)"
         r="36.458652"
         id="circle50" />
      <g
         transform="translate(-44.687018 .853764)"
         id="g56">
        <path
           d="m-24.261029 43.91386v15.625872h-11.790573v7.812937h11.790573v13.708222h7.812936v-13.708222h11.790573v-7.812937h-11.790573v-15.625872z"
           fill="#4d7424"
           filter="url(#g)"
           transform="matrix(1.584 0 0 1.584 11.887064 -36.949182)"
           id="path52" />
        <path
           d="m-26.542405 35.149244v18.37251h-18.372512v12.375691h18.372512v18.37251h12.375689v-18.37251h18.3725123v-12.375691h-18.3725123v-18.37251z"
           fill="#fff"
           id="path54" />
      </g>
      <ellipse
         cx="-65.04158"
         cy="50.241848"
         fill="url(#h)"
         rx="28.978132"
         ry="23.437006"
         id="ellipse58" />
    </g>
  </g>
</svg>
