<svg height="110" viewBox="0 0 154 110" width="154" xmlns="http://www.w3.org/2000/svg" xmlns:xlink="http://www.w3.org/1999/xlink"><linearGradient id="a"><stop offset="0" stop-color="#eaf9fe"/><stop offset="1" stop-color="#0ec0f3"/></linearGradient><linearGradient id="b"><stop offset="0" stop-color="#0ec0f3"/><stop offset=".5" stop-color="#0ec0f3"/><stop offset="1" stop-color="#0ec0f3" stop-opacity="0"/></linearGradient><linearGradient id="c" gradientUnits="userSpaceOnUse" x1="10.175781" x2="18.382812" xlink:href="#b" y1="6.914063" y2="9.476563"/><linearGradient id="d" gradientUnits="userSpaceOnUse" x1="10.095703" x2="3.175828" xlink:href="#b" y1="13.504883" y2="10.067383"/><filter id="e" color-interpolation-filters="sRGB" height="1.889236" width="1.889236" x="-.444618" y="-.444618"><feGaussianBlur stdDeviation=".76101006"/></filter><radialGradient id="f" cx="10.176751" cy="2.278982" gradientUnits="userSpaceOnUse" r="1.579942" xlink:href="#a"/><radialGradient id="g" cx="10.176751" cy="17.478979" gradientUnits="userSpaceOnUse" r="1.579942" xlink:href="#a"/><clipPath id="h"><path d="m.107789-.189987h20.137936v20.137936h-20.137936z"/></clipPath><path d="m10.9968 2.0340204c-4.9536522 0-8.961631 4.016515-8.961631 8.9701656 0 4.953652 4.0079382 8.961632 8.961631 8.961632 4.953692 0 8.968032-4.00798 8.968032-8.961632 0-4.9536506-4.014382-8.9701656-8.968032-8.9701656zm0 1.3165063c4.222886 0 7.651526 3.4308228 7.651526 7.6536593 0 4.222838-3.428689 7.651527-7.651526 7.651527-4.2228384 0-7.6451248-3.428689-7.6451248-7.651527 0-4.2228365 3.4222366-7.6536593 7.6451248-7.6536593zm-4.6067051 3.8342979-1.4808028 3.3350074h1.4808028l3.335007 3.328605h.7404011l-3.3350066-3.328605h.3734013l3.3286063 3.328605h1.807261l-.01493.0085h-6.2880769l-.7404014 1.84567h1.1138027 5.5476766l1.107401-2.221205-.693459.352064-3.3200711-3.31367.7404011-1.1138023h5.556212l1.480802-2.2212043h-10.7390209z" fill="#fff" fill-opacity=".36612" stroke="#b8b8b8" stroke-width=".2"/><g clip-path="url(#h)" transform="matrix(1.0924655 0 0 1.0924655 -.117756 .207555)"><path d="m2.0117188 9.0488281c-.027595.274139-.041016.5525583-.041016.8339844 0 4.5343785 3.6687092 8.2031255 8.2031252 8.2031255h.002v-1.199219h-.002c-3.8654206 0-6.9980471-3.138487-6.9980471-7.0039065 0-.2014334.012625-.4005077.029297-.5976563z" fill="url(#d)"/><path d="m10.175781 1.671875v1.2050781c3.864559.00107 7.001953 3.1410987 7.001953 7.0058594 0 .7100805-.107765 1.3948975-.304687 2.0410155l1.183594.232422c.208132-.722426.326171-1.483686.326171-2.2734375 0-4.5337186-3.673562-8.2098694-8.207031-8.2109375z" fill="url(#c)"/><circle cx="10.176751" cy="2.278982" fill="#0ec0f3" r="1.579942"/><circle cx="10.176751" cy="17.478979" fill="#53d2f6" filter="url(#e)" r="2.053924"/><circle cx="10.176751" cy="17.478979" fill="url(#g)" r="1.579942"/><circle cx="10.176751" cy="2.278982" fill="#53d2f6" filter="url(#e)" r="2.053924"/><circle cx="10.176751" cy="2.278982" fill="url(#f)" r="1.579942"/></g><path d="m32.9968 2.0340204c-4.953652 0-8.961631 4.016515-8.961631 8.9701656 0 4.953652 4.007938 8.961632 8.961631 8.961632 4.953692 0 8.968032-4.00798 8.968032-8.961632 0-4.9536506-4.014382-8.9701656-8.968032-8.9701656zm0 1.3165063c4.222886 0 7.651526 3.4308228 7.651526 7.6536593 0 4.222838-3.428689 7.651527-7.651526 7.651527-4.222838 0-7.645125-3.428689-7.645125-7.651527 0-4.2228365 3.422237-7.6536593 7.645125-7.6536593zm-4.606705 3.8342979-1.480803 3.3350074h1.480803l3.335007 3.328605h.740401l-3.335007-3.328605h.373402l3.328606 3.328605h1.807261l-.01493.0085h-6.288077l-.740401 1.84567h1.113802 5.547677l1.107401-2.221205-.693459.352064-3.320071-3.31367.740401-1.1138023h5.556212l1.480802-2.2212043h-10.739021z" fill="#fff" fill-opacity=".36612" stroke="#b8b8b8" stroke-width=".2"/><g clip-path="url(#h)" transform="matrix(1.0749082 -.19507261 .19507261 1.0749082 20.133802 2.36621)"><path d="m2.0117188 9.0488281c-.027595.274139-.041016.5525583-.041016.8339844 0 4.5343785 3.6687092 8.2031255 8.2031252 8.2031255h.002v-1.199219h-.002c-3.8654206 0-6.9980471-3.138487-6.9980471-7.0039065 0-.2014334.012625-.4005077.029297-.5976563z" fill="url(#d)"/><path d="m10.175781 1.671875v1.2050781c3.864559.00107 7.001953 3.1410987 7.001953 7.0058594 0 .7100805-.107765 1.3948975-.304687 2.0410155l1.183594.232422c.208132-.722426.326171-1.483686.326171-2.2734375 0-4.5337186-3.673562-8.2098694-8.207031-8.2109375z" fill="url(#c)"/><circle cx="10.176751" cy="2.278982" fill="#0ec0f3" r="1.579942"/><circle cx="10.176751" cy="17.478979" fill="#53d2f6" filter="url(#e)" r="2.053924"/><circle cx="10.176751" cy="17.478979" fill="url(#g)" r="1.579942"/><circle cx="10.176751" cy="2.278982" fill="#53d2f6" filter="url(#e)" r="2.053924"/><circle cx="10.176751" cy="2.278982" fill="url(#f)" r="1.579942"/></g><path d="m54.9968 2.0340204c-4.953652 0-8.961631 4.016515-8.961631 8.9701656 0 4.953652 4.007938 8.961632 8.961631 8.961632 4.953692 0 8.968032-4.00798 8.968032-8.961632 0-4.9536506-4.014382-8.9701656-8.968032-8.9701656zm0 1.3165063c4.222886 0 7.651526 3.4308228 7.651526 7.6536593 0 4.222838-3.428689 7.651527-7.651526 7.651527-4.222838 0-7.645125-3.428689-7.645125-7.651527 0-4.2228365 3.422237-7.6536593 7.645125-7.6536593zm-4.606705 3.8342979-1.480803 3.3350074h1.480803l3.335007 3.328605h.740401l-3.335007-3.328605h.373402l3.328606 3.328605h1.807261l-.01493.0085h-6.288077l-.740401 1.84567h1.113802 5.547677l1.107401-2.221205-.693459.352064-3.320071-3.31367.740401-1.1138023h5.556212l1.480802-2.2212043h-10.739021z" fill="#fff" fill-opacity=".36612" stroke="#b8b8b8" stroke-width=".2"/><g clip-path="url(#h)" transform="matrix(1.0228005 -.38387508 .38387508 1.0228005 40.799101 4.804467)"><path d="m2.0117188 9.0488281c-.027595.274139-.041016.5525583-.041016.8339844 0 4.5343785 3.6687092 8.2031255 8.2031252 8.2031255h.002v-1.199219h-.002c-3.8654206 0-6.9980471-3.138487-6.9980471-7.0039065 0-.2014334.012625-.4005077.029297-.5976563z" fill="url(#d)"/><path d="m10.175781 1.671875v1.2050781c3.864559.00107 7.001953 3.1410987 7.001953 7.0058594 0 .7100805-.107765 1.3948975-.304687 2.0410155l1.183594.232422c.208132-.722426.326171-1.483686.326171-2.2734375 0-4.5337186-3.673562-8.2098694-8.207031-8.2109375z" fill="url(#c)"/><circle cx="10.176751" cy="2.278982" fill="#0ec0f3" r="1.579942"/><circle cx="10.176751" cy="17.478979" fill="#53d2f6" filter="url(#e)" r="2.053924"/><circle cx="10.176751" cy="17.478979" fill="url(#g)" r="1.579942"/><circle cx="10.176751" cy="2.278982" fill="#53d2f6" filter="url(#e)" r="2.053924"/><circle cx="10.176751" cy="2.278982" fill="url(#f)" r="1.579942"/></g><path d="m76.9968 2.0340204c-4.953652 0-8.961631 4.016515-8.961631 8.9701656 0 4.953652 4.007938 8.961632 8.961631 8.961632 4.953692 0 8.968032-4.00798 8.968032-8.961632 0-4.9536506-4.014382-8.9701656-8.968032-8.9701656zm0 1.3165063c4.222886 0 7.651526 3.4308228 7.651526 7.6536593 0 4.222838-3.428689 7.651527-7.651526 7.651527-4.222838 0-7.645125-3.428689-7.645125-7.651527 0-4.2228365 3.422237-7.6536593 7.645125-7.6536593zm-4.606705 3.8342979-1.480803 3.3350074h1.480803l3.335007 3.328605h.740401l-3.335007-3.328605h.373402l3.328606 3.328605h1.807261l-.01493.0085h-6.288077l-.740401 1.84567h1.113802 5.547677l1.107401-2.221205-.693459.352064-3.320071-3.31367.740401-1.1138023h5.556212l1.480802-2.2212043h-10.739021z" fill="#fff" fill-opacity=".36612" stroke="#b8b8b8" stroke-width=".2"/><g clip-path="url(#h)" transform="matrix(.93781734 -.56033881 .56033881 .93781734 61.922792 7.4634)"><path d="m2.0117188 9.0488281c-.027595.274139-.041016.5525583-.041016.8339844 0 4.5343785 3.6687092 8.2031255 8.2031252 8.2031255h.002v-1.199219h-.002c-3.8654206 0-6.9980471-3.138487-6.9980471-7.0039065 0-.2014334.012625-.4005077.029297-.5976563z" fill="url(#d)"/><path d="m10.175781 1.671875v1.2050781c3.864559.00107 7.001953 3.1410987 7.001953 7.0058594 0 .7100805-.107765 1.3948975-.304687 2.0410155l1.183594.232422c.208132-.722426.326171-1.483686.326171-2.2734375 0-4.5337186-3.673562-8.2098694-8.207031-8.2109375z" fill="url(#c)"/><circle cx="10.176751" cy="2.278982" fill="#0ec0f3" r="1.579942"/><circle cx="10.176751" cy="17.478979" fill="#53d2f6" filter="url(#e)" r="2.053924"/><circle cx="10.176751" cy="17.478979" fill="url(#g)" r="1.579942"/><circle cx="10.176751" cy="2.278982" fill="#53d2f6" filter="url(#e)" r="2.053924"/><circle cx="10.176751" cy="2.278982" fill="url(#f)" r="1.579942"/></g><path d="m98.9968 2.0340204c-4.953652 0-8.961631 4.016515-8.961631 8.9701656 0 4.953652 4.007938 8.961632 8.961631 8.961632 4.95369 0 8.96803-4.00798 8.96803-8.961632 0-4.9536506-4.01438-8.9701656-8.96803-8.9701656zm0 1.3165063c4.22289 0 7.65153 3.4308228 7.65153 7.6536593 0 4.222838-3.42869 7.651527-7.65153 7.651527-4.222838 0-7.645125-3.428689-7.645125-7.651527 0-4.2228365 3.422237-7.6536593 7.645125-7.6536593zm-4.606705 3.8342979-1.480803 3.3350074h1.480803l3.335007 3.328605h.740401l-3.335007-3.328605h.373402l3.328606 3.328605h1.807256l-.0149.0085h-6.288082l-.740401 1.84567h1.113802 5.547681l1.1074-2.221205-.69346.352064-3.320073-3.31367.740401-1.1138023h5.556212l1.4808-2.2212043h-10.739019z" fill="#fff" fill-opacity=".36612" stroke="#b8b8b8" stroke-width=".2"/><g clip-path="url(#h)" transform="matrix(.82269029 -.71879179 .71879179 .82269029 83.533425 10.261795)"><path d="m2.0117188 9.0488281c-.027595.274139-.041016.5525583-.041016.8339844 0 4.5343785 3.6687092 8.2031255 8.2031252 8.2031255h.002v-1.199219h-.002c-3.8654206 0-6.9980471-3.138487-6.9980471-7.0039065 0-.2014334.012625-.4005077.029297-.5976563z" fill="url(#d)"/><path d="m10.175781 1.671875v1.2050781c3.864559.00107 7.001953 3.1410987 7.001953 7.0058594 0 .7100805-.107765 1.3948975-.304687 2.0410155l1.183594.232422c.208132-.722426.326171-1.483686.326171-2.2734375 0-4.5337186-3.673562-8.2098694-8.207031-8.2109375z" fill="url(#c)"/><circle cx="10.176751" cy="2.278982" fill="#0ec0f3" r="1.579942"/><circle cx="10.176751" cy="17.478979" fill="#53d2f6" filter="url(#e)" r="2.053924"/><circle cx="10.176751" cy="17.478979" fill="url(#g)" r="1.579942"/><circle cx="10.176751" cy="2.278982" fill="#53d2f6" filter="url(#e)" r="2.053924"/><circle cx="10.176751" cy="2.278982" fill="url(#f)" r="1.579942"/></g><path d="m120.9968 2.0340204c-4.95365 0-8.96163 4.016515-8.96163 8.9701656 0 4.953652 4.00794 8.961632 8.96163 8.961632s8.96803-4.00798 8.96803-8.961632c0-4.9536506-4.01438-8.9701656-8.96803-8.9701656zm0 1.3165063c4.22289 0 7.65153 3.4308228 7.65153 7.6536593 0 4.222838-3.42869 7.651527-7.65153 7.651527s-7.64512-3.428689-7.64512-7.651527c0-4.2228365 3.42223-7.6536593 7.64512-7.6536593zm-4.60671 3.8342979-1.4808 3.3350074h1.4808l3.33501 3.328605h.7404l-3.335-3.328605h.3734l3.3286 3.328605h1.80726l-.0149.0085h-6.28808l-.7404 1.84567h1.1138 5.54768l1.1074-2.221205-.69346.352064-3.32007-3.31367.7404-1.1138023h5.55621l1.4808-2.2212043h-10.73902z" fill="#fff" fill-opacity=".36612" stroke="#b8b8b8" stroke-width=".2"/><g clip-path="url(#h)" transform="matrix(.68111983 -.85414093 .85414093 .68111983 105.6399 13.074689)"><path d="m2.0117188 9.0488281c-.027595.274139-.041016.5525583-.041016.8339844 0 4.5343785 3.6687092 8.2031255 8.2031252 8.2031255h.002v-1.199219h-.002c-3.8654206 0-6.9980471-3.138487-6.9980471-7.0039065 0-.2014334.012625-.4005077.029297-.5976563z" fill="url(#d)"/><path d="m10.175781 1.671875v1.2050781c3.864559.00107 7.001953 3.1410987 7.001953 7.0058594 0 .7100805-.107765 1.3948975-.304687 2.0410155l1.183594.232422c.208132-.722426.326171-1.483686.326171-2.2734375 0-4.5337186-3.673562-8.2098694-8.207031-8.2109375z" fill="url(#c)"/><circle cx="10.176751" cy="2.278982" fill="#0ec0f3" r="1.579942"/><circle cx="10.176751" cy="17.478979" fill="#53d2f6" filter="url(#e)" r="2.053924"/><circle cx="10.176751" cy="17.478979" fill="url(#g)" r="1.579942"/><circle cx="10.176751" cy="2.278982" fill="#53d2f6" filter="url(#e)" r="2.053924"/><circle cx="10.176751" cy="2.278982" fill="url(#f)" r="1.579942"/></g><path d="m142.9968 2.0340204c-4.95365 0-8.96163 4.016515-8.96163 8.9701656 0 4.953652 4.00794 8.961632 8.96163 8.961632s8.96803-4.00798 8.96803-8.961632c0-4.9536506-4.01438-8.9701656-8.96803-8.9701656zm0 1.3165063c4.22289 0 7.65153 3.4308228 7.65153 7.6536593 0 4.222838-3.42869 7.651527-7.65153 7.651527s-7.64512-3.428689-7.64512-7.651527c0-4.2228365 3.42223-7.6536593 7.64512-7.6536593zm-4.60671 3.8342979-1.4808 3.3350074h1.4808l3.33501 3.328605h.7404l-3.335-3.328605h.3734l3.3286 3.328605h1.80726l-.0149.0085h-6.28807l-.7404 1.84567h1.1138 5.54768l1.1074-2.221205-.69346.352064-3.32007-3.31367.7404-1.1138023h5.55621l1.4808-2.2212043h-10.73902z" fill="#fff" fill-opacity=".36612" stroke="#b8b8b8" stroke-width=".2"/><g clip-path="url(#h)" transform="matrix(.5176564 -.96203576 .96203576 .5176564 128.23708 15.787601)"><path d="m2.0117188 9.0488281c-.027595.274139-.041016.5525583-.041016.8339844 0 4.5343785 3.6687092 8.2031255 8.2031252 8.2031255h.002v-1.199219h-.002c-3.8654206 0-6.9980471-3.138487-6.9980471-7.0039065 0-.2014334.012625-.4005077.029297-.5976563z" fill="url(#d)"/><path d="m10.175781 1.671875v1.2050781c3.864559.00107 7.001953 3.1410987 7.001953 7.0058594 0 .7100805-.107765 1.3948975-.304687 2.0410155l1.183594.232422c.208132-.722426.326171-1.483686.326171-2.2734375 0-4.5337186-3.673562-8.2098694-8.207031-8.2109375z" fill="url(#c)"/><circle cx="10.176751" cy="2.278982" fill="#0ec0f3" r="1.579942"/><circle cx="10.176751" cy="17.478979" fill="#53d2f6" filter="url(#e)" r="2.053924"/><circle cx="10.176751" cy="17.478979" fill="url(#g)" r="1.579942"/><circle cx="10.176751" cy="2.278982" fill="#53d2f6" filter="url(#e)" r="2.053924"/><circle cx="10.176751" cy="2.278982" fill="url(#f)" r="1.579942"/></g><path d="m10.9968 24.03402c-4.9536522 0-8.961631 4.016515-8.961631 8.970166 0 4.953652 4.0079382 8.961632 8.961631 8.961632 4.953692 0 8.968032-4.00798 8.968032-8.961632 0-4.953651-4.014382-8.970166-8.968032-8.970166zm0 1.316507c4.222886 0 7.651526 3.430822 7.651526 7.653659 0 4.222838-3.428689 7.651527-7.651526 7.651527-4.2228384 0-7.6451248-3.428689-7.6451248-7.651527 0-4.222837 3.4222366-7.653659 7.6451248-7.653659zm-4.6067051 3.834298-1.4808028 3.335007h1.4808028l3.335007 3.328605h.7404011l-3.3350066-3.328605h.3734013l3.3286063 3.328605h1.807261l-.01493.0085h-6.2880769l-.7404014 1.84567h1.1138027 5.5476766l1.107401-2.221205-.693459.352064-3.3200711-3.31367.7404011-1.113802h5.556212l1.480802-2.221205h-10.7390209z" fill="#fff" fill-opacity=".36612" stroke="#b8b8b8" stroke-width=".2"/><g clip-path="url(#h)" transform="matrix(.33755415 -1.0390083 1.0390083 .33755415 -2.690854 40.350192)"><path d="m2.0117188 9.0488281c-.027595.274139-.041016.5525583-.041016.8339844 0 4.5343785 3.6687092 8.2031255 8.2031252 8.2031255h.002v-1.199219h-.002c-3.8654206 0-6.9980471-3.138487-6.9980471-7.0039065 0-.2014334.012625-.4005077.029297-.5976563z" fill="url(#d)"/><path d="m10.175781 1.671875v1.2050781c3.864559.00107 7.001953 3.1410987 7.001953 7.0058594 0 .7100805-.107765 1.3948975-.304687 2.0410155l1.183594.232422c.208132-.722426.326171-1.483686.326171-2.2734375 0-4.5337186-3.673562-8.2098694-8.207031-8.2109375z" fill="url(#c)"/><circle cx="10.176751" cy="2.278982" fill="#0ec0f3" r="1.579942"/><circle cx="10.176751" cy="17.478979" fill="#53d2f6" filter="url(#e)" r="2.053924"/><circle cx="10.176751" cy="17.478979" fill="url(#g)" r="1.579942"/><circle cx="10.176751" cy="2.278982" fill="#53d2f6" filter="url(#e)" r="2.053924"/><circle cx="10.176751" cy="2.278982" fill="url(#f)" r="1.579942"/></g><path d="m32.9968 24.03402c-4.953652 0-8.961631 4.016515-8.961631 8.970166 0 4.953652 4.007938 8.961632 8.961631 8.961632 4.953692 0 8.968032-4.00798 8.968032-8.961632 0-4.953651-4.014382-8.970166-8.968032-8.970166zm0 1.316507c4.222886 0 7.651526 3.430822 7.651526 7.653659 0 4.222838-3.428689 7.651527-7.651526 7.651527-4.222838 0-7.645125-3.428689-7.645125-7.651527 0-4.222837 3.422237-7.653659 7.645125-7.653659zm-4.606705 3.834298-1.480803 3.335007h1.480803l3.335007 3.328605h.740401l-3.335007-3.328605h.373402l3.328606 3.328605h1.807261l-.01493.0085h-6.288077l-.740401 1.84567h1.113802 5.547677l1.107401-2.221205-.693459.352064-3.320071-3.31367.740401-1.113802h5.556212l1.480802-2.221205h-10.739021z" fill="#fff" fill-opacity=".36612" stroke="#b8b8b8" stroke-width=".2"/><g clip-path="url(#h)" transform="matrix(.14660202 -1.0825844 1.0825844 .14660202 20.82167 42.680091)"><path d="m2.0117188 9.0488281c-.027595.274139-.041016.5525583-.041016.8339844 0 4.5343785 3.6687092 8.2031255 8.2031252 8.2031255h.002v-1.199219h-.002c-3.8654206 0-6.9980471-3.138487-6.9980471-7.0039065 0-.2014334.012625-.4005077.029297-.5976563z" fill="url(#d)"/><path d="m10.175781 1.671875v1.2050781c3.864559.00107 7.001953 3.1410987 7.001953 7.0058594 0 .7100805-.107765 1.3948975-.304687 2.0410155l1.183594.232422c.208132-.722426.326171-1.483686.326171-2.2734375 0-4.5337186-3.673562-8.2098694-8.207031-8.2109375z" fill="url(#c)"/><circle cx="10.176751" cy="2.278982" fill="#0ec0f3" r="1.579942"/><circle cx="10.176751" cy="17.478979" fill="#53d2f6" filter="url(#e)" r="2.053924"/><circle cx="10.176751" cy="17.478979" fill="url(#g)" r="1.579942"/><circle cx="10.176751" cy="2.278982" fill="#53d2f6" filter="url(#e)" r="2.053924"/><circle cx="10.176751" cy="2.278982" fill="url(#f)" r="1.579942"/></g><path d="m54.9968 24.03402c-4.953652 0-8.961631 4.016515-8.961631 8.970166 0 4.953652 4.007938 8.961632 8.961631 8.961632 4.953692 0 8.968032-4.00798 8.968032-8.961632 0-4.953651-4.014382-8.970166-8.968032-8.970166zm0 1.316507c4.222886 0 7.651526 3.430822 7.651526 7.653659 0 4.222838-3.428689 7.651527-7.651526 7.651527-4.222838 0-7.645125-3.428689-7.645125-7.651527 0-4.222837 3.422237-7.653659 7.645125-7.653659zm-4.606705 3.834298-1.480803 3.335007h1.480803l3.335007 3.328605h.740401l-3.335007-3.328605h.373402l3.328606 3.328605h1.807261l-.01493.0085h-6.288077l-.740401 1.84567h1.113802 5.547677l1.107401-2.221205-.693459.352064-3.320071-3.31367.740401-1.113802h5.556212l1.480802-2.221205h-10.739021z" fill="#fff" fill-opacity=".36612" stroke="#b8b8b8" stroke-width=".2"/><g clip-path="url(#h)" transform="matrix(-.04906229 -1.0913634 1.0913634 -.04906229 44.726061 44.702406)"><path d="m2.0117188 9.0488281c-.027595.274139-.041016.5525583-.041016.8339844 0 4.5343785 3.6687092 8.2031255 8.2031252 8.2031255h.002v-1.199219h-.002c-3.8654206 0-6.9980471-3.138487-6.9980471-7.0039065 0-.2014334.012625-.4005077.029297-.5976563z" fill="url(#d)"/><path d="m10.175781 1.671875v1.2050781c3.864559.00107 7.001953 3.1410987 7.001953 7.0058594 0 .7100805-.107765 1.3948975-.304687 2.0410155l1.183594.232422c.208132-.722426.326171-1.483686.326171-2.2734375 0-4.5337186-3.673562-8.2098694-8.207031-8.2109375z" fill="url(#c)"/><circle cx="10.176751" cy="2.278982" fill="#0ec0f3" r="1.579942"/><circle cx="10.176751" cy="17.478979" fill="#53d2f6" filter="url(#e)" r="2.053924"/><circle cx="10.176751" cy="17.478979" fill="url(#g)" r="1.579942"/><circle cx="10.176751" cy="2.278982" fill="#53d2f6" filter="url(#e)" r="2.053924"/><circle cx="10.176751" cy="2.278982" fill="url(#f)" r="1.579942"/></g><path d="m76.9968 24.03402c-4.953652 0-8.961631 4.016515-8.961631 8.970166 0 4.953652 4.007938 8.961632 8.961631 8.961632 4.953692 0 8.968032-4.00798 8.968032-8.961632 0-4.953651-4.014382-8.970166-8.968032-8.970166zm0 1.316507c4.222886 0 7.651526 3.430822 7.651526 7.653659 0 4.222838-3.428689 7.651527-7.651526 7.651527-4.222838 0-7.645125-3.428689-7.645125-7.651527 0-4.222837 3.422237-7.653659 7.645125-7.653659zm-4.606705 3.834298-1.480803 3.335007h1.480803l3.335007 3.328605h.740401l-3.335007-3.328605h.373402l3.328606 3.328605h1.807261l-.01493.0085h-6.288077l-.740401 1.84567h1.113802 5.547677l1.107401-2.221205-.693459.352064-3.320071-3.31367.740401-1.113802h5.556212l1.480802-2.221205h-10.739021z" fill="#fff" fill-opacity=".36612" stroke="#b8b8b8" stroke-width=".2"/><g clip-path="url(#h)" transform="matrix(-.24314961 -1.0650631 1.0650631 -.24314961 68.96102 46.352143)"><path d="m2.0117188 9.0488281c-.027595.274139-.041016.5525583-.041016.8339844 0 4.5343785 3.6687092 8.2031255 8.2031252 8.2031255h.002v-1.199219h-.002c-3.8654206 0-6.9980471-3.138487-6.9980471-7.0039065 0-.2014334.012625-.4005077.029297-.5976563z" fill="url(#d)"/><path d="m10.175781 1.671875v1.2050781c3.864559.00107 7.001953 3.1410987 7.001953 7.0058594 0 .7100805-.107765 1.3948975-.304687 2.0410155l1.183594.232422c.208132-.722426.326171-1.483686.326171-2.2734375 0-4.5337186-3.673562-8.2098694-8.207031-8.2109375z" fill="url(#c)"/><circle cx="10.176751" cy="2.278982" fill="#0ec0f3" r="1.579942"/><circle cx="10.176751" cy="17.478979" fill="#53d2f6" filter="url(#e)" r="2.053924"/><circle cx="10.176751" cy="17.478979" fill="url(#g)" r="1.579942"/><circle cx="10.176751" cy="2.278982" fill="#53d2f6" filter="url(#e)" r="2.053924"/><circle cx="10.176751" cy="2.278982" fill="url(#f)" r="1.579942"/></g><path d="m98.9968 24.03402c-4.953652 0-8.961631 4.016515-8.961631 8.970166 0 4.953652 4.007938 8.961632 8.961631 8.961632 4.95369 0 8.96803-4.00798 8.96803-8.961632 0-4.953651-4.01438-8.970166-8.96803-8.970166zm0 1.316507c4.22289 0 7.65153 3.430822 7.65153 7.653659 0 4.222838-3.42869 7.651527-7.65153 7.651527-4.222838 0-7.645125-3.428689-7.645125-7.651527 0-4.222837 3.422237-7.653659 7.645125-7.653659zm-4.606705 3.834298-1.480803 3.335007h1.480803l3.335007 3.328605h.740401l-3.335007-3.328605h.373402l3.328606 3.328605h1.807256l-.0149.0085h-6.288082l-.740401 1.84567h1.113802 5.547681l1.1074-2.221205-.69346.352064-3.320073-3.31367.740401-1.113802h5.556212l1.4808-2.221205h-10.739019z" fill="#fff" fill-opacity=".36612" stroke="#b8b8b8" stroke-width=".2"/><g clip-path="url(#h)" transform="matrix(-.42942146 -1.0045289 1.0045289 -.42942146 93.4603 47.575772)"><path d="m2.0117188 9.0488281c-.027595.274139-.041016.5525583-.041016.8339844 0 4.5343785 3.6687092 8.2031255 8.2031252 8.2031255h.002v-1.199219h-.002c-3.8654206 0-6.9980471-3.138487-6.9980471-7.0039065 0-.2014334.012625-.4005077.029297-.5976563z" fill="url(#d)"/><path d="m10.175781 1.671875v1.2050781c3.864559.00107 7.001953 3.1410987 7.001953 7.0058594 0 .7100805-.107765 1.3948975-.304687 2.0410155l1.183594.232422c.208132-.722426.326171-1.483686.326171-2.2734375 0-4.5337186-3.673562-8.2098694-8.207031-8.2109375z" fill="url(#c)"/><circle cx="10.176751" cy="2.278982" fill="#0ec0f3" r="1.579942"/><circle cx="10.176751" cy="17.478979" fill="#53d2f6" filter="url(#e)" r="2.053924"/><circle cx="10.176751" cy="17.478979" fill="url(#g)" r="1.579942"/><circle cx="10.176751" cy="2.278982" fill="#53d2f6" filter="url(#e)" r="2.053924"/><circle cx="10.176751" cy="2.278982" fill="url(#f)" r="1.579942"/></g><path d="m120.9968 24.03402c-4.95365 0-8.96163 4.016515-8.96163 8.970166 0 4.953652 4.00794 8.961632 8.96163 8.961632s8.96803-4.00798 8.96803-8.961632c0-4.953651-4.01438-8.970166-8.96803-8.970166zm0 1.316507c4.22289 0 7.65153 3.430822 7.65153 7.653659 0 4.222838-3.42869 7.651527-7.65153 7.651527s-7.64512-3.428689-7.64512-7.651527c0-4.222837 3.42223-7.653659 7.64512-7.653659zm-4.60671 3.834298-1.4808 3.335007h1.4808l3.33501 3.328605h.7404l-3.335-3.328605h.3734l3.3286 3.328605h1.80726l-.0149.0085h-6.28808l-.7404 1.84567h1.1138 5.54768l1.1074-2.221205-.69346.352064-3.32007-3.31367.7404-1.113802h5.55621l1.4808-2.221205h-10.73902z" fill="#fff" fill-opacity=".36612" stroke="#b8b8b8" stroke-width=".2"/><g clip-path="url(#h)" transform="matrix(-.60189059 -.91170654 .91170654 -.60189059 118.16236 48.332269)"><path d="m2.0117188 9.0488281c-.027595.274139-.041016.5525583-.041016.8339844 0 4.5343785 3.6687092 8.2031255 8.2031252 8.2031255h.002v-1.199219h-.002c-3.8654206 0-6.9980471-3.138487-6.9980471-7.0039065 0-.2014334.012625-.4005077.029297-.5976563z" fill="url(#d)"/><path d="m10.175781 1.671875v1.2050781c3.864559.00107 7.001953 3.1410987 7.001953 7.0058594 0 .7100805-.107765 1.3948975-.304687 2.0410155l1.183594.232422c.208132-.722426.326171-1.483686.326171-2.2734375 0-4.5337186-3.673562-8.2098694-8.207031-8.2109375z" fill="url(#c)"/><circle cx="10.176751" cy="2.278982" fill="#0ec0f3" r="1.579942"/><circle cx="10.176751" cy="17.478979" fill="#53d2f6" filter="url(#e)" r="2.053924"/><circle cx="10.176751" cy="17.478979" fill="url(#g)" r="1.579942"/><circle cx="10.176751" cy="2.278982" fill="#53d2f6" filter="url(#e)" r="2.053924"/><circle cx="10.176751" cy="2.278982" fill="url(#f)" r="1.579942"/></g><path d="m142.9968 24.03402c-4.95365 0-8.96163 4.016515-8.96163 8.970166 0 4.953652 4.00794 8.961632 8.96163 8.961632s8.96803-4.00798 8.96803-8.961632c0-4.953651-4.01438-8.970166-8.96803-8.970166zm0 1.316507c4.22289 0 7.65153 3.430822 7.65153 7.653659 0 4.222838-3.42869 7.651527-7.65153 7.651527s-7.64512-3.428689-7.64512-7.651527c0-4.222837 3.42223-7.653659 7.64512-7.653659zm-4.60671 3.834298-1.4808 3.335007h1.4808l3.33501 3.328605h.7404l-3.335-3.328605h.3734l3.3286 3.328605h1.80726l-.0149.0085h-6.28807l-.7404 1.84567h1.1138 5.54768l1.1074-2.221205-.69346.352064-3.32007-3.31367.7404-1.113802h5.55621l1.4808-2.221205h-10.73902z" fill="#fff" fill-opacity=".36612" stroke="#b8b8b8" stroke-width=".2"/><g clip-path="url(#h)" transform="matrix(-.75501339 -.78957956 .78957956 -.75501339 142.9817 48.5972)"><path d="m2.0117188 9.0488281c-.027595.274139-.041016.5525583-.041016.8339844 0 4.5343785 3.6687092 8.2031255 8.2031252 8.2031255h.002v-1.199219h-.002c-3.8654206 0-6.9980471-3.138487-6.9980471-7.0039065 0-.2014334.012625-.4005077.029297-.5976563z" fill="url(#d)"/><path d="m10.175781 1.671875v1.2050781c3.864559.00107 7.001953 3.1410987 7.001953 7.0058594 0 .7100805-.107765 1.3948975-.304687 2.0410155l1.183594.232422c.208132-.722426.326171-1.483686.326171-2.2734375 0-4.5337186-3.673562-8.2098694-8.207031-8.2109375z" fill="url(#c)"/><circle cx="10.176751" cy="2.278982" fill="#0ec0f3" r="1.579942"/><circle cx="10.176751" cy="17.478979" fill="#53d2f6" filter="url(#e)" r="2.053924"/><circle cx="10.176751" cy="17.478979" fill="url(#g)" r="1.579942"/><circle cx="10.176751" cy="2.278982" fill="#53d2f6" filter="url(#e)" r="2.053924"/><circle cx="10.176751" cy="2.278982" fill="url(#f)" r="1.579942"/></g><path d="m10.9968 46.03402c-4.9536522 0-8.961631 4.016515-8.961631 8.970166 0 4.953652 4.0079382 8.961632 8.961631 8.961632 4.953692 0 8.968032-4.00798 8.968032-8.961632 0-4.953651-4.014382-8.970166-8.968032-8.970166zm0 1.316507c4.222886 0 7.651526 3.430822 7.651526 7.653659 0 4.222838-3.428689 7.651527-7.651526 7.651527-4.2228384 0-7.6451248-3.428689-7.6451248-7.651527 0-4.222837 3.4222366-7.653659 7.6451248-7.653659zm-4.6067051 3.834298-1.4808028 3.335007h1.4808028l3.335007 3.328605h.7404011l-3.3350066-3.328605h.3734013l3.3286063 3.328605h1.807261l-.01493.0085h-6.2880769l-.7404014 1.84567h1.1138027 5.5476766l1.107401-2.221205-.693459.352064-3.3200711-3.31367.7404011-1.113802h5.556212l1.480802-2.221205h-10.7390209z" fill="#fff" fill-opacity=".36612" stroke="#b8b8b8" stroke-width=".2"/><g clip-path="url(#h)" transform="matrix(-.88386809 -.64207344 .64207344 -.88386809 13.750285 70.36948)"><path d="m2.0117188 9.0488281c-.027595.274139-.041016.5525583-.041016.8339844 0 4.5343785 3.6687092 8.2031255 8.2031252 8.2031255h.002v-1.199219h-.002c-3.8654206 0-6.9980471-3.138487-6.9980471-7.0039065 0-.2014334.012625-.4005077.029297-.5976563z" fill="url(#d)"/><path d="m10.175781 1.671875v1.2050781c3.864559.00107 7.001953 3.1410987 7.001953 7.0058594 0 .7100805-.107765 1.3948975-.304687 2.0410155l1.183594.232422c.208132-.722426.326171-1.483686.326171-2.2734375 0-4.5337186-3.673562-8.2098694-8.207031-8.2109375z" fill="url(#c)"/><circle cx="10.176751" cy="2.278982" fill="#0ec0f3" r="1.579942"/><circle cx="10.176751" cy="17.478979" fill="#53d2f6" filter="url(#e)" r="2.053924"/><circle cx="10.176751" cy="17.478979" fill="url(#g)" r="1.579942"/><circle cx="10.176751" cy="2.278982" fill="#53d2f6" filter="url(#e)" r="2.053924"/><circle cx="10.176751" cy="2.278982" fill="url(#f)" r="1.579942"/></g><path d="m32.9968 46.03402c-4.953652 0-8.961631 4.016515-8.961631 8.970166 0 4.953652 4.007938 8.961632 8.961631 8.961632 4.953692 0 8.968032-4.00798 8.968032-8.961632 0-4.953651-4.014382-8.970166-8.968032-8.970166zm0 1.316507c4.222886 0 7.651526 3.430822 7.651526 7.653659 0 4.222838-3.428689 7.651527-7.651526 7.651527-4.222838 0-7.645125-3.428689-7.645125-7.651527 0-4.222837 3.422237-7.653659 7.645125-7.653659zm-4.606705 3.834298-1.480803 3.335007h1.480803l3.335007 3.328605h.740401l-3.335007-3.328605h.373402l3.328606 3.328605h1.807261l-.01493.0085h-6.288077l-.740401 1.84567h1.113802 5.547677l1.107401-2.221205-.693459.352064-3.320071-3.31367.740401-1.113802h5.556212l1.480802-2.221205h-10.739021z" fill="#fff" fill-opacity=".36612" stroke="#b8b8b8" stroke-width=".2"/><g clip-path="url(#h)" transform="matrix(-.98431297 -.47392941 .47392941 -.98431297 38.433619 69.651058)"><path d="m2.0117188 9.0488281c-.027595.274139-.041016.5525583-.041016.8339844 0 4.5343785 3.6687092 8.2031255 8.2031252 8.2031255h.002v-1.199219h-.002c-3.8654206 0-6.9980471-3.138487-6.9980471-7.0039065 0-.2014334.012625-.4005077.029297-.5976563z" fill="url(#d)"/><path d="m10.175781 1.671875v1.2050781c3.864559.00107 7.001953 3.1410987 7.001953 7.0058594 0 .7100805-.107765 1.3948975-.304687 2.0410155l1.183594.232422c.208132-.722426.326171-1.483686.326171-2.2734375 0-4.5337186-3.673562-8.2098694-8.207031-8.2109375z" fill="url(#c)"/><circle cx="10.176751" cy="2.278982" fill="#0ec0f3" r="1.579942"/><circle cx="10.176751" cy="17.478979" fill="#53d2f6" filter="url(#e)" r="2.053924"/><circle cx="10.176751" cy="17.478979" fill="url(#g)" r="1.579942"/><circle cx="10.176751" cy="2.278982" fill="#53d2f6" filter="url(#e)" r="2.053924"/><circle cx="10.176751" cy="2.278982" fill="url(#f)" r="1.579942"/></g><path d="m54.9968 46.03402c-4.953652 0-8.961631 4.016515-8.961631 8.970166 0 4.953652 4.007938 8.961632 8.961631 8.961632 4.953692 0 8.968032-4.00798 8.968032-8.961632 0-4.953651-4.014382-8.970166-8.968032-8.970166zm0 1.316507c4.222886 0 7.651526 3.430822 7.651526 7.653659 0 4.222838-3.428689 7.651527-7.651526 7.651527-4.222838 0-7.645125-3.428689-7.645125-7.651527 0-4.222837 3.422237-7.653659 7.645125-7.653659zm-4.606705 3.834298-1.480803 3.335007h1.480803l3.335007 3.328605h.740401l-3.335007-3.328605h.373402l3.328606 3.328605h1.807261l-.01493.0085h-6.288077l-.740401 1.84567h1.113802 5.547677l1.107401-2.221205-.693459.352064-3.320071-3.31367.740401-1.113802h5.556212l1.480802-2.221205h-10.739021z" fill="#fff" fill-opacity=".36612" stroke="#b8b8b8" stroke-width=".2"/><g clip-path="url(#h)" transform="matrix(-1.0531195 -.29055205 .29055205 -1.0531195 62.945459 68.46497)"><path d="m2.0117188 9.0488281c-.027595.274139-.041016.5525583-.041016.8339844 0 4.5343785 3.6687092 8.2031255 8.2031252 8.2031255h.002v-1.199219h-.002c-3.8654206 0-6.9980471-3.138487-6.9980471-7.0039065 0-.2014334.012625-.4005077.029297-.5976563z" fill="url(#d)"/><path d="m10.175781 1.671875v1.2050781c3.864559.00107 7.001953 3.1410987 7.001953 7.0058594 0 .7100805-.107765 1.3948975-.304687 2.0410155l1.183594.232422c.208132-.722426.326171-1.483686.326171-2.2734375 0-4.5337186-3.673562-8.2098694-8.207031-8.2109375z" fill="url(#c)"/><circle cx="10.176751" cy="2.278982" fill="#0ec0f3" r="1.579942"/><circle cx="10.176751" cy="17.478979" fill="#53d2f6" filter="url(#e)" r="2.053924"/><circle cx="10.176751" cy="17.478979" fill="url(#g)" r="1.579942"/><circle cx="10.176751" cy="2.278982" fill="#53d2f6" filter="url(#e)" r="2.053924"/><circle cx="10.176751" cy="2.278982" fill="url(#f)" r="1.579942"/></g><path d="m76.9968 46.03402c-4.953652 0-8.961631 4.016515-8.961631 8.970166 0 4.953652 4.007938 8.961632 8.961631 8.961632 4.953692 0 8.968032-4.00798 8.968032-8.961632 0-4.953651-4.014382-8.970166-8.968032-8.970166zm0 1.316507c4.222886 0 7.651526 3.430822 7.651526 7.653659 0 4.222838-3.428689 7.651527-7.651526 7.651527-4.222838 0-7.645125-3.428689-7.645125-7.651527 0-4.222837 3.422237-7.653659 7.645125-7.653659zm-4.606705 3.834298-1.480803 3.335007h1.480803l3.335007 3.328605h.740401l-3.335007-3.328605h.373402l3.328606 3.328605h1.807261l-.01493.0085h-6.288077l-.740401 1.84567h1.113802 5.547677l1.107401-2.221205-.693459.352064-3.320071-3.31367.740401-1.113802h5.556212l1.480802-2.221205h-10.739021z" fill="#fff" fill-opacity=".36612" stroke="#b8b8b8" stroke-width=".2"/><g clip-path="url(#h)" transform="matrix(-1.088076 -.09783559 .09783559 -1.088076 87.205065 66.849301)"><path d="m2.0117188 9.0488281c-.027595.274139-.041016.5525583-.041016.8339844 0 4.5343785 3.6687092 8.2031255 8.2031252 8.2031255h.002v-1.199219h-.002c-3.8654206 0-6.9980471-3.138487-6.9980471-7.0039065 0-.2014334.012625-.4005077.029297-.5976563z" fill="url(#d)"/><path d="m10.175781 1.671875v1.2050781c3.864559.00107 7.001953 3.1410987 7.001953 7.0058594 0 .7100805-.107765 1.3948975-.304687 2.0410155l1.183594.232422c.208132-.722426.326171-1.483686.326171-2.2734375 0-4.5337186-3.673562-8.2098694-8.207031-8.2109375z" fill="url(#c)"/><circle cx="10.176751" cy="2.278982" fill="#0ec0f3" r="1.579942"/><circle cx="10.176751" cy="17.478979" fill="#53d2f6" filter="url(#e)" r="2.053924"/><circle cx="10.176751" cy="17.478979" fill="url(#g)" r="1.579942"/><circle cx="10.176751" cy="2.278982" fill="#53d2f6" filter="url(#e)" r="2.053924"/><circle cx="10.176751" cy="2.278982" fill="url(#f)" r="1.579942"/></g><path d="m98.9968 46.03402c-4.953652 0-8.961631 4.016515-8.961631 8.970166 0 4.953652 4.007938 8.961632 8.961631 8.961632 4.95369 0 8.96803-4.00798 8.96803-8.961632 0-4.953651-4.01438-8.970166-8.96803-8.970166zm0 1.316507c4.22289 0 7.65153 3.430822 7.65153 7.653659 0 4.222838-3.42869 7.651527-7.65153 7.651527-4.222838 0-7.645125-3.428689-7.645125-7.651527 0-4.222837 3.422237-7.653659 7.645125-7.653659zm-4.606705 3.834298-1.480803 3.335007h1.480803l3.335007 3.328605h.740401l-3.335007-3.328605h.373402l3.328606 3.328605h1.807256l-.0149.0085h-6.288082l-.740401 1.84567h1.113802 5.547681l1.1074-2.221205-.69346.352064-3.320073-3.31367.740401-1.113802h5.556212l1.4808-2.221205h-10.739019z" fill="#fff" fill-opacity=".36612" stroke="#b8b8b8" stroke-width=".2"/><g clip-path="url(#h)" transform="matrix(-1.0880589 .09802557 -.09802557 -1.0880589 111.1398 64.855972)"><path d="m2.0117188 9.0488281c-.027595.274139-.041016.5525583-.041016.8339844 0 4.5343785 3.6687092 8.2031255 8.2031252 8.2031255h.002v-1.199219h-.002c-3.8654206 0-6.9980471-3.138487-6.9980471-7.0039065 0-.2014334.012625-.4005077.029297-.5976563z" fill="url(#d)"/><path d="m10.175781 1.671875v1.2050781c3.864559.00107 7.001953 3.1410987 7.001953 7.0058594 0 .7100805-.107765 1.3948975-.304687 2.0410155l1.183594.232422c.208132-.722426.326171-1.483686.326171-2.2734375 0-4.5337186-3.673562-8.2098694-8.207031-8.2109375z" fill="url(#c)"/><circle cx="10.176751" cy="2.278982" fill="#0ec0f3" r="1.579942"/><circle cx="10.176751" cy="17.478979" fill="#53d2f6" filter="url(#e)" r="2.053924"/><circle cx="10.176751" cy="17.478979" fill="url(#g)" r="1.579942"/><circle cx="10.176751" cy="2.278982" fill="#53d2f6" filter="url(#e)" r="2.053924"/><circle cx="10.176751" cy="2.278982" fill="url(#f)" r="1.579942"/></g><path d="m120.9968 46.03402c-4.95365 0-8.96163 4.016515-8.96163 8.970166 0 4.953652 4.00794 8.961632 8.96163 8.961632s8.96803-4.00798 8.96803-8.961632c0-4.953651-4.01438-8.970166-8.96803-8.970166zm0 1.316507c4.22289 0 7.65153 3.430822 7.65153 7.653659 0 4.222838-3.42869 7.651527-7.65153 7.651527s-7.64512-3.428689-7.64512-7.651527c0-4.222837 3.42223-7.653659 7.64512-7.653659zm-4.60671 3.834298-1.4808 3.335007h1.4808l3.33501 3.328605h.7404l-3.335-3.328605h.3734l3.3286 3.328605h1.80726l-.0149.0085h-6.28808l-.7404 1.84567h1.1138 5.54768l1.1074-2.221205-.69346.352064-3.32007-3.31367.7404-1.113802h5.55621l1.4808-2.221205h-10.73902z" fill="#fff" fill-opacity=".36612" stroke="#b8b8b8" stroke-width=".2"/><g clip-path="url(#h)" transform="matrix(-1.0530688 .29073593 -.29073593 -1.0530688 134.6875 62.549299)"><path d="m2.0117188 9.0488281c-.027595.274139-.041016.5525583-.041016.8339844 0 4.5343785 3.6687092 8.2031255 8.2031252 8.2031255h.002v-1.199219h-.002c-3.8654206 0-6.9980471-3.138487-6.9980471-7.0039065 0-.2014334.012625-.4005077.029297-.5976563z" fill="url(#d)"/><path d="m10.175781 1.671875v1.2050781c3.864559.00107 7.001953 3.1410987 7.001953 7.0058594 0 .7100805-.107765 1.3948975-.304687 2.0410155l1.183594.232422c.208132-.722426.326171-1.483686.326171-2.2734375 0-4.5337186-3.673562-8.2098694-8.207031-8.2109375z" fill="url(#c)"/><circle cx="10.176751" cy="2.278982" fill="#0ec0f3" r="1.579942"/><circle cx="10.176751" cy="17.478979" fill="#53d2f6" filter="url(#e)" r="2.053924"/><circle cx="10.176751" cy="17.478979" fill="url(#g)" r="1.579942"/><circle cx="10.176751" cy="2.278982" fill="#53d2f6" filter="url(#e)" r="2.053924"/><circle cx="10.176751" cy="2.278982" fill="url(#f)" r="1.579942"/></g><path d="m142.9968 46.03402c-4.95365 0-8.96163 4.016515-8.96163 8.970166 0 4.953652 4.00794 8.961632 8.96163 8.961632s8.96803-4.00798 8.96803-8.961632c0-4.953651-4.01438-8.970166-8.96803-8.970166zm0 1.316507c4.22289 0 7.65153 3.430822 7.65153 7.653659 0 4.222838-3.42869 7.651527-7.65153 7.651527s-7.64512-3.428689-7.64512-7.651527c0-4.222837 3.42223-7.653659 7.64512-7.653659zm-4.60671 3.834298-1.4808 3.335007h1.4808l3.33501 3.328605h.7404l-3.335-3.328605h.3734l3.3286 3.328605h1.80726l-.0149.0085h-6.28807l-.7404 1.84567h1.1138 5.54768l1.1074-2.221205-.69346.352064-3.32007-3.31367.7404-1.113802h5.55621l1.4808-2.221205h-10.73902z" fill="#fff" fill-opacity=".36612" stroke="#b8b8b8" stroke-width=".2"/><g clip-path="url(#h)" transform="matrix(-.98423028 .47410129 -.47410129 -.98423028 157.79744 59.992374)"><path d="m2.0117188 9.0488281c-.027595.274139-.041016.5525583-.041016.8339844 0 4.5343785 3.6687092 8.2031255 8.2031252 8.2031255h.002v-1.199219h-.002c-3.8654206 0-6.9980471-3.138487-6.9980471-7.0039065 0-.2014334.012625-.4005077.029297-.5976563z" fill="url(#d)"/><path d="m10.175781 1.671875v1.2050781c3.864559.00107 7.001953 3.1410987 7.001953 7.0058594 0 .7100805-.107765 1.3948975-.304687 2.0410155l1.183594.232422c.208132-.722426.326171-1.483686.326171-2.2734375 0-4.5337186-3.673562-8.2098694-8.207031-8.2109375z" fill="url(#c)"/><circle cx="10.176751" cy="2.278982" fill="#0ec0f3" r="1.579942"/><circle cx="10.176751" cy="17.478979" fill="#53d2f6" filter="url(#e)" r="2.053924"/><circle cx="10.176751" cy="17.478979" fill="url(#g)" r="1.579942"/><circle cx="10.176751" cy="2.278982" fill="#53d2f6" filter="url(#e)" r="2.053924"/><circle cx="10.176751" cy="2.278982" fill="url(#f)" r="1.579942"/></g><path d="m10.9968 68.03402c-4.9536522 0-8.961631 4.016515-8.961631 8.970166 0 4.953652 4.0079382 8.961632 8.961631 8.961632 4.953692 0 8.968032-4.00798 8.968032-8.961632 0-4.953651-4.014382-8.970166-8.968032-8.970166zm0 1.316507c4.222886 0 7.651526 3.430823 7.651526 7.653659 0 4.222838-3.428689 7.651527-7.651526 7.651527-4.2228384 0-7.6451248-3.428689-7.6451248-7.651527 0-4.222836 3.4222366-7.653659 7.6451248-7.653659zm-4.6067051 3.834298-1.4808028 3.335007h1.4808028l3.335007 3.328605h.7404011l-3.3350066-3.328605h.3734013l3.3286063 3.328605h1.807261l-.01493.0085h-6.2880769l-.7404014 1.84567h1.1138027 5.5476766l1.107401-2.221205-.693459.352064-3.3200711-3.31367.7404011-1.113802h5.556212l1.480802-2.221205h-10.7390209z" fill="#fff" fill-opacity=".36612" stroke="#b8b8b8" stroke-width=".2"/><g clip-path="url(#h)" transform="matrix(-.88375604 .6422278 -.6422278 -.88375604 26.432613 79.252612)"><path d="m2.0117188 9.0488281c-.027595.274139-.041016.5525583-.041016.8339844 0 4.5343785 3.6687092 8.2031255 8.2031252 8.2031255h.002v-1.199219h-.002c-3.8654206 0-6.9980471-3.138487-6.9980471-7.0039065 0-.2014334.012625-.4005077.029297-.5976563z" fill="url(#d)"/><path d="m10.175781 1.671875v1.2050781c3.864559.00107 7.001953 3.1410987 7.001953 7.0058594 0 .7100805-.107765 1.3948975-.304687 2.0410155l1.183594.232422c.208132-.722426.326171-1.483686.326171-2.2734375 0-4.5337186-3.673562-8.2098694-8.207031-8.2109375z" fill="url(#c)"/><circle cx="10.176751" cy="2.278982" fill="#0ec0f3" r="1.579942"/><circle cx="10.176751" cy="17.478979" fill="#53d2f6" filter="url(#e)" r="2.053924"/><circle cx="10.176751" cy="17.478979" fill="url(#g)" r="1.579942"/><circle cx="10.176751" cy="2.278982" fill="#53d2f6" filter="url(#e)" r="2.053924"/><circle cx="10.176751" cy="2.278982" fill="url(#f)" r="1.579942"/></g><path d="m32.9968 68.03402c-4.953652 0-8.961631 4.016515-8.961631 8.970166 0 4.953652 4.007938 8.961632 8.961631 8.961632 4.953692 0 8.968032-4.00798 8.968032-8.961632 0-4.953651-4.014382-8.970166-8.968032-8.970166zm0 1.316507c4.222886 0 7.651526 3.430823 7.651526 7.653659 0 4.222838-3.428689 7.651527-7.651526 7.651527-4.222838 0-7.645125-3.428689-7.645125-7.651527 0-4.222836 3.422237-7.653659 7.645125-7.653659zm-4.606705 3.834298-1.480803 3.335007h1.480803l3.335007 3.328605h.740401l-3.335007-3.328605h.373402l3.328606 3.328605h1.807261l-.01493.0085h-6.288077l-.740401 1.84567h1.113802 5.547677l1.107401-2.221205-.693459.352064-3.320071-3.31367.740401-1.113802h5.556212l1.480802-2.221205h-10.739021z" fill="#fff" fill-opacity=".36612" stroke="#b8b8b8" stroke-width=".2"/><g clip-path="url(#h)" transform="matrix(-.75487558 .78971143 -.78971143 -.75487558 48.572996 76.417985)"><path d="m2.0117188 9.0488281c-.027595.274139-.041016.5525583-.041016.8339844 0 4.5343785 3.6687092 8.2031255 8.2031252 8.2031255h.002v-1.199219h-.002c-3.8654206 0-6.9980471-3.138487-6.9980471-7.0039065 0-.2014334.012625-.4005077.029297-.5976563z" fill="url(#d)"/><path d="m10.175781 1.671875v1.2050781c3.864559.00107 7.001953 3.1410987 7.001953 7.0058594 0 .7100805-.107765 1.3948975-.304687 2.0410155l1.183594.232422c.208132-.722426.326171-1.483686.326171-2.2734375 0-4.5337186-3.673562-8.2098694-8.207031-8.2109375z" fill="url(#c)"/><circle cx="10.176751" cy="2.278982" fill="#0ec0f3" r="1.579942"/><circle cx="10.176751" cy="17.478979" fill="#53d2f6" filter="url(#e)" r="2.053924"/><circle cx="10.176751" cy="17.478979" fill="url(#g)" r="1.579942"/><circle cx="10.176751" cy="2.278982" fill="#53d2f6" filter="url(#e)" r="2.053924"/><circle cx="10.176751" cy="2.278982" fill="url(#f)" r="1.579942"/></g><path d="m54.9968 68.03402c-4.953652 0-8.961631 4.016515-8.961631 8.970166 0 4.953652 4.007938 8.961632 8.961631 8.961632 4.953692 0 8.968032-4.00798 8.968032-8.961632 0-4.953651-4.014382-8.970166-8.968032-8.970166zm0 1.316507c4.222886 0 7.651526 3.430823 7.651526 7.653659 0 4.222838-3.428689 7.651527-7.651526 7.651527-4.222838 0-7.645125-3.428689-7.645125-7.651527 0-4.222836 3.422237-7.653659 7.645125-7.653659zm-4.606705 3.834298-1.480803 3.335007h1.480803l3.335007 3.328605h.740401l-3.335007-3.328605h.373402l3.328606 3.328605h1.807261l-.01493.0085h-6.288077l-.740401 1.84567h1.113802 5.547677l1.107401-2.221205-.693459.352064-3.320071-3.31367.740401-1.113802h5.556212l1.480802-2.221205h-10.739021z" fill="#fff" fill-opacity=".36612" stroke="#b8b8b8" stroke-width=".2"/><g clip-path="url(#h)" transform="matrix(-.60173145 .91181168 -.91181168 -.60173145 70.221176 73.662452)"><path d="m2.0117188 9.0488281c-.027595.274139-.041016.5525583-.041016.8339844 0 4.5343785 3.6687092 8.2031255 8.2031252 8.2031255h.002v-1.199219h-.002c-3.8654206 0-6.9980471-3.138487-6.9980471-7.0039065 0-.2014334.012625-.4005077.029297-.5976563z" fill="url(#d)"/><path d="m10.175781 1.671875v1.2050781c3.864559.00107 7.001953 3.1410987 7.001953 7.0058594 0 .7100805-.107765 1.3948975-.304687 2.0410155l1.183594.232422c.208132-.722426.326171-1.483686.326171-2.2734375 0-4.5337186-3.673562-8.2098694-8.207031-8.2109375z" fill="url(#c)"/><circle cx="10.176751" cy="2.278982" fill="#0ec0f3" r="1.579942"/><circle cx="10.176751" cy="17.478979" fill="#53d2f6" filter="url(#e)" r="2.053924"/><circle cx="10.176751" cy="17.478979" fill="url(#g)" r="1.579942"/><circle cx="10.176751" cy="2.278982" fill="#53d2f6" filter="url(#e)" r="2.053924"/><circle cx="10.176751" cy="2.278982" fill="url(#f)" r="1.579942"/></g><path d="m76.9968 68.03402c-4.953652 0-8.961631 4.016515-8.961631 8.970166 0 4.953652 4.007938 8.961632 8.961631 8.961632 4.953692 0 8.968032-4.00798 8.968032-8.961632 0-4.953651-4.014382-8.970166-8.968032-8.970166zm0 1.316507c4.222886 0 7.651526 3.430823 7.651526 7.653659 0 4.222838-3.428689 7.651527-7.651526 7.651527-4.222838 0-7.645125-3.428689-7.645125-7.651527 0-4.222836 3.422237-7.653659 7.645125-7.653659zm-4.606705 3.834298-1.480803 3.335007h1.480803l3.335007 3.328605h.740401l-3.335007-3.328605h.373402l3.328606 3.328605h1.807261l-.01493.0085h-6.288077l-.740401 1.84567h1.113802 5.547677l1.107401-2.221205-.693459.352064-3.320071-3.31367.740401-1.113802h5.556212l1.480802-2.221205h-10.739021z" fill="#fff" fill-opacity=".36612" stroke="#b8b8b8" stroke-width=".2"/><g clip-path="url(#h)" transform="matrix(-.42924611 1.0046039 -1.0046039 -.42924611 91.382958 71.01411)"><path d="m2.0117188 9.0488281c-.027595.274139-.041016.5525583-.041016.8339844 0 4.5343785 3.6687092 8.2031255 8.2031252 8.2031255h.002v-1.199219h-.002c-3.8654206 0-6.9980471-3.138487-6.9980471-7.0039065 0-.2014334.012625-.4005077.029297-.5976563z" fill="url(#d)"/><path d="m10.175781 1.671875v1.2050781c3.864559.00107 7.001953 3.1410987 7.001953 7.0058594 0 .7100805-.107765 1.3948975-.304687 2.0410155l1.183594.232422c.208132-.722426.326171-1.483686.326171-2.2734375 0-4.5337186-3.673562-8.2098694-8.207031-8.2109375z" fill="url(#c)"/><circle cx="10.176751" cy="2.278982" fill="#0ec0f3" r="1.579942"/><circle cx="10.176751" cy="17.478979" fill="#53d2f6" filter="url(#e)" r="2.053924"/><circle cx="10.176751" cy="17.478979" fill="url(#g)" r="1.579942"/><circle cx="10.176751" cy="2.278982" fill="#53d2f6" filter="url(#e)" r="2.053924"/><circle cx="10.176751" cy="2.278982" fill="url(#f)" r="1.579942"/></g><path d="m98.9968 68.03402c-4.953652 0-8.961631 4.016515-8.961631 8.970166 0 4.953652 4.007938 8.961632 8.961631 8.961632 4.95369 0 8.96803-4.00798 8.96803-8.961632 0-4.953651-4.01438-8.970166-8.96803-8.970166zm0 1.316507c4.22289 0 7.65153 3.430823 7.65153 7.653659 0 4.222838-3.42869 7.651527-7.65153 7.651527-4.222838 0-7.645125-3.428689-7.645125-7.651527 0-4.222836 3.422237-7.653659 7.645125-7.653659zm-4.606705 3.834298-1.480803 3.335007h1.480803l3.335007 3.328605h.740401l-3.335007-3.328605h.373402l3.328606 3.328605h1.807256l-.0149.0085h-6.288082l-.740401 1.84567h1.113802 5.547681l1.1074-2.221205-.69346.352064-3.320073-3.31367.740401-1.113802h5.556212l1.4808-2.221205h-10.739019z" fill="#fff" fill-opacity=".36612" stroke="#b8b8b8" stroke-width=".2"/><g clip-path="url(#h)" transform="matrix(-.24296368 1.0651056 -1.0651056 -.24296368 112.08522 68.558089)"><path d="m2.0117188 9.0488281c-.027595.274139-.041016.5525583-.041016.8339844 0 4.5343785 3.6687092 8.2031255 8.2031252 8.2031255h.002v-1.199219h-.002c-3.8654206 0-6.9980471-3.138487-6.9980471-7.0039065 0-.2014334.012625-.4005077.029297-.5976563z" fill="url(#d)"/><path d="m10.175781 1.671875v1.2050781c3.864559.00107 7.001953 3.1410987 7.001953 7.0058594 0 .7100805-.107765 1.3948975-.304687 2.0410155l1.183594.232422c.208132-.722426.326171-1.483686.326171-2.2734375 0-4.5337186-3.673562-8.2098694-8.207031-8.2109375z" fill="url(#c)"/><circle cx="10.176751" cy="2.278982" fill="#0ec0f3" r="1.579942"/><circle cx="10.176751" cy="17.478979" fill="#53d2f6" filter="url(#e)" r="2.053924"/><circle cx="10.176751" cy="17.478979" fill="url(#g)" r="1.579942"/><circle cx="10.176751" cy="2.278982" fill="#53d2f6" filter="url(#e)" r="2.053924"/><circle cx="10.176751" cy="2.278982" fill="url(#f)" r="1.579942"/></g><path d="m120.9968 68.03402c-4.95365 0-8.96163 4.016515-8.96163 8.970166 0 4.953652 4.00794 8.961632 8.96163 8.961632s8.96803-4.00798 8.96803-8.961632c0-4.953651-4.01438-8.970166-8.96803-8.970166zm0 1.316507c4.22289 0 7.65153 3.430823 7.65153 7.653659 0 4.222838-3.42869 7.651527-7.65153 7.651527s-7.64512-3.428689-7.64512-7.651527c0-4.222836 3.42223-7.653659 7.64512-7.653659zm-4.60671 3.834298-1.4808 3.335007h1.4808l3.33501 3.328605h.7404l-3.335-3.328605h.3734l3.3286 3.328605h1.80726l-.0149.0085h-6.28808l-.7404 1.84567h1.1138 5.54768l1.1074-2.221205-.69346.352064-3.32007-3.31367.7404-1.113802h5.55621l1.4808-2.221205h-10.73902z" fill="#fff" fill-opacity=".36612" stroke="#b8b8b8" stroke-width=".2"/><g clip-path="url(#h)" transform="matrix(-.04887176 1.091372 -1.091372 -.04887176 132.36966 66.373335)"><path d="m2.0117188 9.0488281c-.027595.274139-.041016.5525583-.041016.8339844 0 4.5343785 3.6687092 8.2031255 8.2031252 8.2031255h.002v-1.199219h-.002c-3.8654206 0-6.9980471-3.138487-6.9980471-7.0039065 0-.2014334.012625-.4005077.029297-.5976563z" fill="url(#d)"/><path d="m10.175781 1.671875v1.2050781c3.864559.00107 7.001953 3.1410987 7.001953 7.0058594 0 .7100805-.107765 1.3948975-.304687 2.0410155l1.183594.232422c.208132-.722426.326171-1.483686.326171-2.2734375 0-4.5337186-3.673562-8.2098694-8.207031-8.2109375z" fill="url(#c)"/><circle cx="10.176751" cy="2.278982" fill="#0ec0f3" r="1.579942"/><circle cx="10.176751" cy="17.478979" fill="#53d2f6" filter="url(#e)" r="2.053924"/><circle cx="10.176751" cy="17.478979" fill="url(#g)" r="1.579942"/><circle cx="10.176751" cy="2.278982" fill="#53d2f6" filter="url(#e)" r="2.053924"/><circle cx="10.176751" cy="2.278982" fill="url(#f)" r="1.579942"/></g><path d="m142.9968 68.03402c-4.95365 0-8.96163 4.016515-8.96163 8.970166 0 4.953652 4.00794 8.961632 8.96163 8.961632s8.96803-4.00798 8.96803-8.961632c0-4.953651-4.01438-8.970166-8.96803-8.970166zm0 1.316507c4.22289 0 7.65153 3.430823 7.65153 7.653659 0 4.222838-3.42869 7.651527-7.65153 7.651527s-7.64512-3.428689-7.64512-7.651527c0-4.222836 3.42223-7.653659 7.64512-7.653659zm-4.60671 3.834298-1.4808 3.335007h1.4808l3.33501 3.328605h.7404l-3.335-3.328605h.3734l3.3286 3.328605h1.80726l-.0149.0085h-6.28807l-.7404 1.84567h1.1138 5.54768l1.1074-2.221205-.69346.352064-3.32007-3.31367.7404-1.113802h5.55621l1.4808-2.221205h-10.73902z" fill="#fff" fill-opacity=".36612" stroke="#b8b8b8" stroke-width=".2"/><g clip-path="url(#h)" transform="matrix(.14679102 1.0825589 -1.0825589 .14679102 152.29142 64.530072)"><path d="m2.0117188 9.0488281c-.027595.274139-.041016.5525583-.041016.8339844 0 4.5343785 3.6687092 8.2031255 8.2031252 8.2031255h.002v-1.199219h-.002c-3.8654206 0-6.9980471-3.138487-6.9980471-7.0039065 0-.2014334.012625-.4005077.029297-.5976563z" fill="url(#d)"/><path d="m10.175781 1.671875v1.2050781c3.864559.00107 7.001953 3.1410987 7.001953 7.0058594 0 .7100805-.107765 1.3948975-.304687 2.0410155l1.183594.232422c.208132-.722426.326171-1.483686.326171-2.2734375 0-4.5337186-3.673562-8.2098694-8.207031-8.2109375z" fill="url(#c)"/><circle cx="10.176751" cy="2.278982" fill="#0ec0f3" r="1.579942"/><circle cx="10.176751" cy="17.478979" fill="#53d2f6" filter="url(#e)" r="2.053924"/><circle cx="10.176751" cy="17.478979" fill="url(#g)" r="1.579942"/><circle cx="10.176751" cy="2.278982" fill="#53d2f6" filter="url(#e)" r="2.053924"/><circle cx="10.176751" cy="2.278982" fill="url(#f)" r="1.579942"/></g><path d="m10.9968 90.03402c-4.9536522 0-8.961631 4.016515-8.961631 8.970166 0 4.953654 4.0079382 8.961634 8.961631 8.961634 4.953692 0 8.968032-4.00798 8.968032-8.961634 0-4.953651-4.014382-8.970166-8.968032-8.970166zm0 1.316507c4.222886 0 7.651526 3.430823 7.651526 7.653659 0 4.222834-3.428689 7.651524-7.651526 7.651524-4.2228384 0-7.6451248-3.42869-7.6451248-7.651524 0-4.222836 3.4222366-7.653659 7.6451248-7.653659zm-4.6067051 3.834298-1.4808028 3.335007h1.4808028l3.335007 3.328608h.7404011l-3.3350066-3.328608h.3734013l3.3286063 3.328608h1.807261l-.01493.008h-6.2880769l-.7404014 1.84567h1.1138027 5.5476766l1.107401-2.22121-.693459.35207-3.3200711-3.313674.7404011-1.113802h5.556212l1.480802-2.221205h-10.7390209z" fill="#fff" fill-opacity=".36612" stroke="#b8b8b8" stroke-width=".2"/><g clip-path="url(#h)" transform="matrix(.33773556 1.0389495 -1.0389495 .33773556 17.917234 85.087572)"><path d="m2.0117188 9.0488281c-.027595.274139-.041016.5525583-.041016.8339844 0 4.5343785 3.6687092 8.2031255 8.2031252 8.2031255h.002v-1.199219h-.002c-3.8654206 0-6.9980471-3.138487-6.9980471-7.0039065 0-.2014334.012625-.4005077.029297-.5976563z" fill="url(#d)"/><path d="m10.175781 1.671875v1.2050781c3.864559.00107 7.001953 3.1410987 7.001953 7.0058594 0 .7100805-.107765 1.3948975-.304687 2.0410155l1.183594.232422c.208132-.722426.326171-1.483686.326171-2.2734375 0-4.5337186-3.673562-8.2098694-8.207031-8.2109375z" fill="url(#c)"/><circle cx="10.176751" cy="2.278982" fill="#0ec0f3" r="1.579942"/><circle cx="10.176751" cy="17.478979" fill="#53d2f6" filter="url(#e)" r="2.053924"/><circle cx="10.176751" cy="17.478979" fill="url(#g)" r="1.579942"/><circle cx="10.176751" cy="2.278982" fill="#53d2f6" filter="url(#e)" r="2.053924"/><circle cx="10.176751" cy="2.278982" fill="url(#f)" r="1.579942"/></g><path d="m32.9968 90.03402c-4.953652 0-8.961631 4.016515-8.961631 8.970166 0 4.953654 4.007938 8.961634 8.961631 8.961634 4.953692 0 8.968032-4.00798 8.968032-8.961634 0-4.953651-4.014382-8.970166-8.968032-8.970166zm0 1.316507c4.222886 0 7.651526 3.430823 7.651526 7.653659 0 4.222834-3.428689 7.651524-7.651526 7.651524-4.222838 0-7.645125-3.42869-7.645125-7.651524 0-4.222836 3.422237-7.653659 7.645125-7.653659zm-4.606705 3.834298-1.480803 3.335007h1.480803l3.335007 3.328608h.740401l-3.335007-3.328608h.373402l3.328606 3.328608h1.807261l-.01493.008h-6.288077l-.740401 1.84567h1.113802 5.547677l1.107401-2.22121-.693459.35207-3.320071-3.313674.740401-1.113802h5.556212l1.480802-2.221205h-10.739021z" fill="#fff" fill-opacity=".36612" stroke="#b8b8b8" stroke-width=".2"/><g clip-path="url(#h)" transform="matrix(.5178244 .96194556 -.96194556 .5178244 37.306608 84.093675)"><path d="m2.0117188 9.0488281c-.027595.274139-.041016.5525583-.041016.8339844 0 4.5343785 3.6687092 8.2031255 8.2031252 8.2031255h.002v-1.199219h-.002c-3.8654206 0-6.9980471-3.138487-6.9980471-7.0039065 0-.2014334.012625-.4005077.029297-.5976563z" fill="url(#d)"/><path d="m10.175781 1.671875v1.2050781c3.864559.00107 7.001953 3.1410987 7.001953 7.0058594 0 .7100805-.107765 1.3948975-.304687 2.0410155l1.183594.232422c.208132-.722426.326171-1.483686.326171-2.2734375 0-4.5337186-3.673562-8.2098694-8.207031-8.2109375z" fill="url(#c)"/><circle cx="10.176751" cy="2.278982" fill="#0ec0f3" r="1.579942"/><circle cx="10.176751" cy="17.478979" fill="#53d2f6" filter="url(#e)" r="2.053924"/><circle cx="10.176751" cy="17.478979" fill="url(#g)" r="1.579942"/><circle cx="10.176751" cy="2.278982" fill="#53d2f6" filter="url(#e)" r="2.053924"/><circle cx="10.176751" cy="2.278982" fill="url(#f)" r="1.579942"/></g><path d="m54.9968 90.03402c-4.953652 0-8.961631 4.016515-8.961631 8.970166 0 4.953654 4.007938 8.961634 8.961631 8.961634 4.953692 0 8.968032-4.00798 8.968032-8.961634 0-4.953651-4.014382-8.970166-8.968032-8.970166zm0 1.316507c4.222886 0 7.651526 3.430823 7.651526 7.653659 0 4.222834-3.428689 7.651524-7.651526 7.651524-4.222838 0-7.645125-3.42869-7.645125-7.651524 0-4.222836 3.422237-7.653659 7.645125-7.653659zm-4.606705 3.834298-1.480803 3.335007h1.480803l3.335007 3.328608h.740401l-3.335007-3.328608h.373402l3.328606 3.328608h1.807261l-.01493.008h-6.288077l-.740401 1.84567h1.113802 5.547677l1.107401-2.22121-.693459.35207-3.320071-3.313674.740401-1.113802h5.556212l1.480802-2.221205h-10.739021z" fill="#fff" fill-opacity=".36612" stroke="#b8b8b8" stroke-width=".2"/><g clip-path="url(#h)" transform="matrix(.68126902 .85402218 -.85402218 .68126902 56.534686 83.581136)"><path d="m2.0117188 9.0488281c-.027595.274139-.041016.5525583-.041016.8339844 0 4.5343785 3.6687092 8.2031255 8.2031252 8.2031255h.002v-1.199219h-.002c-3.8654206 0-6.9980471-3.138487-6.9980471-7.0039065 0-.2014334.012625-.4005077.029297-.5976563z" fill="url(#d)"/><path d="m10.175781 1.671875v1.2050781c3.864559.00107 7.001953 3.1410987 7.001953 7.0058594 0 .7100805-.107765 1.3948975-.304687 2.0410155l1.183594.232422c.208132-.722426.326171-1.483686.326171-2.2734375 0-4.5337186-3.673562-8.2098694-8.207031-8.2109375z" fill="url(#c)"/><circle cx="10.176751" cy="2.278982" fill="#0ec0f3" r="1.579942"/><circle cx="10.176751" cy="17.478979" fill="#53d2f6" filter="url(#e)" r="2.053924"/><circle cx="10.176751" cy="17.478979" fill="url(#g)" r="1.579942"/><circle cx="10.176751" cy="2.278982" fill="#53d2f6" filter="url(#e)" r="2.053924"/><circle cx="10.176751" cy="2.278982" fill="url(#f)" r="1.579942"/></g><path d="m76.9968 90.03402c-4.953652 0-8.961631 4.016515-8.961631 8.970166 0 4.953654 4.007938 8.961634 8.961631 8.961634 4.953692 0 8.968032-4.00798 8.968032-8.961634 0-4.953651-4.014382-8.970166-8.968032-8.970166zm0 1.316507c4.222886 0 7.651526 3.430823 7.651526 7.653659 0 4.222834-3.428689 7.651524-7.651526 7.651524-4.222838 0-7.645125-3.42869-7.645125-7.651524 0-4.222836 3.422237-7.653659 7.645125-7.653659zm-4.606705 3.834298-1.480803 3.335007h1.480803l3.335007 3.328608h.740401l-3.335007-3.328608h.373402l3.328606 3.328608h1.807261l-.01493.008h-6.288077l-.740401 1.84567h1.113802 5.547677l1.107401-2.22121-.693459.35207-3.320071-3.313674.740401-1.113802h5.556212l1.480802-2.221205h-10.739021z" fill="#fff" fill-opacity=".36612" stroke="#b8b8b8" stroke-width=".2"/><g clip-path="url(#h)" transform="matrix(.82281588 .71864831 -.71864831 .82281588 75.690525 83.565989)"><path d="m2.0117188 9.0488281c-.027595.274139-.041016.5525583-.041016.8339844 0 4.5343785 3.6687092 8.2031255 8.2031252 8.2031255h.002v-1.199219h-.002c-3.8654206 0-6.9980471-3.138487-6.9980471-7.0039065 0-.2014334.012625-.4005077.029297-.5976563z" fill="url(#d)"/><path d="m10.175781 1.671875v1.2050781c3.864559.00107 7.001953 3.1410987 7.001953 7.0058594 0 .7100805-.107765 1.3948975-.304687 2.0410155l1.183594.232422c.208132-.722426.326171-1.483686.326171-2.2734375 0-4.5337186-3.673562-8.2098694-8.207031-8.2109375z" fill="url(#c)"/><circle cx="10.176751" cy="2.278982" fill="#0ec0f3" r="1.579942"/><circle cx="10.176751" cy="17.478979" fill="#53d2f6" filter="url(#e)" r="2.053924"/><circle cx="10.176751" cy="17.478979" fill="url(#g)" r="1.579942"/><circle cx="10.176751" cy="2.278982" fill="#53d2f6" filter="url(#e)" r="2.053924"/><circle cx="10.176751" cy="2.278982" fill="url(#f)" r="1.579942"/></g><path d="m98.9968 90.03402c-4.953652 0-8.961631 4.016515-8.961631 8.970166 0 4.953654 4.007938 8.961634 8.961631 8.961634 4.95369 0 8.96803-4.00798 8.96803-8.961634 0-4.953651-4.01438-8.970166-8.96803-8.970166zm0 1.316507c4.22289 0 7.65153 3.430823 7.65153 7.653659 0 4.222834-3.42869 7.651524-7.65153 7.651524-4.222838 0-7.645125-3.42869-7.645125-7.651524 0-4.222836 3.422237-7.653659 7.645125-7.653659zm-4.606705 3.834298-1.480803 3.335007h1.480803l3.335007 3.328608h.740401l-3.335007-3.328608h.373402l3.328606 3.328608h1.807256l-.0149.008h-6.288082l-.740401 1.84567h1.113802 5.547681l1.1074-2.22121-.69346.35207-3.320073-3.313674.740401-1.113802h5.556212l1.4808-2.221205h-10.739019z" fill="#fff" fill-opacity=".36612" stroke="#b8b8b8" stroke-width=".2"/><g clip-path="url(#h)" transform="matrix(.93791529 .56017521 -.56017521 .93791529 94.953587 84.041204)"><path d="m2.0117188 9.0488281c-.027595.274139-.041016.5525583-.041016.8339844 0 4.5343785 3.6687092 8.2031255 8.2031252 8.2031255h.002v-1.199219h-.002c-3.8654206 0-6.9980471-3.138487-6.9980471-7.0039065 0-.2014334.012625-.4005077.029297-.5976563z" fill="url(#d)"/><path d="m10.175781 1.671875v1.2050781c3.864559.00107 7.001953 3.1410987 7.001953 7.0058594 0 .7100805-.107765 1.3948975-.304687 2.0410155l1.183594.232422c.208132-.722426.326171-1.483686.326171-2.2734375 0-4.5337186-3.673562-8.2098694-8.207031-8.2109375z" fill="url(#c)"/><circle cx="10.176751" cy="2.278982" fill="#0ec0f3" r="1.579942"/><circle cx="10.176751" cy="17.478979" fill="#53d2f6" filter="url(#e)" r="2.053924"/><circle cx="10.176751" cy="17.478979" fill="url(#g)" r="1.579942"/><circle cx="10.176751" cy="2.278982" fill="#53d2f6" filter="url(#e)" r="2.053924"/><circle cx="10.176751" cy="2.278982" fill="url(#f)" r="1.579942"/></g><path d="m120.9968 90.03402c-4.95365 0-8.96163 4.016515-8.96163 8.970166 0 4.953654 4.00794 8.961634 8.96163 8.961634s8.96803-4.00798 8.96803-8.961634c0-4.953651-4.01438-8.970166-8.96803-8.970166zm0 1.316507c4.22289 0 7.65153 3.430823 7.65153 7.653659 0 4.222834-3.42869 7.651524-7.65153 7.651524s-7.64512-3.42869-7.64512-7.651524c0-4.222836 3.42223-7.653659 7.64512-7.653659zm-4.60671 3.834298-1.4808 3.335007h1.4808l3.33501 3.328608h.7404l-3.335-3.328608h.3734l3.3286 3.328608h1.80726l-.0149.008h-6.28808l-.7404 1.84567h1.1138 5.54768l1.1074-2.22121-.69346.35207-3.32007-3.313674.7404-1.113802h5.55621l1.4808-2.221205h-10.73902z" fill="#fff" fill-opacity=".36612" stroke="#b8b8b8" stroke-width=".2"/><g clip-path="url(#h)" transform="matrix(1.0228677 .38369662 -.38369662 1.0228677 114.34558 84.99753)"><path d="m2.0117188 9.0488281c-.027595.274139-.041016.5525583-.041016.8339844 0 4.5343785 3.6687092 8.2031255 8.2031252 8.2031255h.002v-1.199219h-.002c-3.8654206 0-6.9980471-3.138487-6.9980471-7.0039065 0-.2014334.012625-.4005077.029297-.5976563z" fill="url(#d)"/><path d="m10.175781 1.671875v1.2050781c3.864559.00107 7.001953 3.1410987 7.001953 7.0058594 0 .7100805-.107765 1.3948975-.304687 2.0410155l1.183594.232422c.208132-.722426.326171-1.483686.326171-2.2734375 0-4.5337186-3.673562-8.2098694-8.207031-8.2109375z" fill="url(#c)"/><circle cx="10.176751" cy="2.278982" fill="#0ec0f3" r="1.579942"/><circle cx="10.176751" cy="17.478979" fill="#53d2f6" filter="url(#e)" r="2.053924"/><circle cx="10.176751" cy="17.478979" fill="url(#g)" r="1.579942"/><circle cx="10.176751" cy="2.278982" fill="#53d2f6" filter="url(#e)" r="2.053924"/><circle cx="10.176751" cy="2.278982" fill="url(#f)" r="1.579942"/></g><path d="m142.9968 90.03402c-4.95365 0-8.96163 4.016515-8.96163 8.970166 0 4.953654 4.00794 8.961634 8.96163 8.961634s8.96803-4.00798 8.96803-8.961634c0-4.953651-4.01438-8.970166-8.96803-8.970166zm0 1.316507c4.22289 0 7.65153 3.430823 7.65153 7.653659 0 4.222834-3.42869 7.651524-7.65153 7.651524s-7.64512-3.42869-7.64512-7.651524c0-4.222836 3.42223-7.653659 7.64512-7.653659zm-4.60671 3.834298-1.4808 3.335007h1.4808l3.33501 3.328608h.7404l-3.335-3.328608h.3734l3.3286 3.328608h1.80726l-.0149.008h-6.28807l-.7404 1.84567h1.1138 5.54768l1.1074-2.22121-.69346.35207-3.32007-3.313674.7404-1.113802h5.55621l1.4808-2.221205h-10.73902z" fill="#fff" fill-opacity=".36612" stroke="#b8b8b8" stroke-width=".2"/><g clip-path="url(#h)" transform="matrix(1.0749424 .19488502 -.19488502 1.0749424 133.95034 86.404277)"><path d="m2.0117188 9.0488281c-.027595.274139-.041016.5525583-.041016.8339844 0 4.5343785 3.6687092 8.2031255 8.2031252 8.2031255h.002v-1.199219h-.002c-3.8654206 0-6.9980471-3.138487-6.9980471-7.0039065 0-.2014334.012625-.4005077.029297-.5976563z" fill="url(#d)"/><path d="m10.175781 1.671875v1.2050781c3.864559.00107 7.001953 3.1410987 7.001953 7.0058594 0 .7100805-.107765 1.3948975-.304687 2.0410155l1.183594.232422c.208132-.722426.326171-1.483686.326171-2.2734375 0-4.5337186-3.673562-8.2098694-8.207031-8.2109375z" fill="url(#c)"/><circle cx="10.176751" cy="2.278982" fill="#0ec0f3" r="1.579942"/><circle cx="10.176751" cy="17.478979" fill="#53d2f6" filter="url(#e)" r="2.053924"/><circle cx="10.176751" cy="17.478979" fill="url(#g)" r="1.579942"/><circle cx="10.176751" cy="2.278982" fill="#53d2f6" filter="url(#e)" r="2.053924"/><circle cx="10.176751" cy="2.278982" fill="url(#f)" r="1.579942"/></g></svg>