<svg height="32" viewBox="0 0 8.4666665 8.4666669" width="32" xmlns="http://www.w3.org/2000/svg" xmlns:xlink="http://www.w3.org/1999/xlink"><filter id="a" color-interpolation-filters="sRGB" height="1.048" width="1.048" x="-.024" y="-.024"><feGaussianBlur stdDeviation="2.1770482"/></filter><linearGradient id="b" gradientUnits="userSpaceOnUse" x1="71.01985611564" x2="69.00462016907" xlink:href="#c" y1="297.89796485837" y2="298.04797517267"/><linearGradient id="c"><stop offset="0" stop-color="#8c8c8b" stop-opacity=".537255"/><stop offset="1" stop-color="#5b6f4c" stop-opacity="0"/></linearGradient><linearGradient id="d" gradientUnits="userSpaceOnUse" x1="73.67482648002" x2="76.19488603485" xlink:href="#c" y1="297.6429469513" y2="297.6429469513"/><radialGradient id="e" cx="-291.85776" cy="340.35464" gradientTransform="matrix(1.977608 -2.8185828 .7081881 .49688747 353.68017 -541.93)" gradientUnits="userSpaceOnUse" r="9.755338"><stop offset="0" stop-color="#242b2d"/><stop offset="1" stop-color="#242b2d" stop-opacity="0"/></radialGradient><linearGradient id="f" gradientUnits="userSpaceOnUse" x1="-5.19709150644" x2="35.63129703063" y1="420.14348196307" y2="420.14348196307"><stop offset="0" stop-color="#e72c00"/><stop offset=".8035748" stop-color="#b62200"/><stop offset="1" stop-color="#fd3100"/></linearGradient><linearGradient id="g" gradientUnits="userSpaceOnUse" x1=".94980516081" x2="30.05346763347" y1="415.66773194308" y2="415.66773194308"><stop offset="0" stop-color="#921901"/><stop offset="1" stop-color="#fd330b"/></linearGradient><linearGradient id="h" gradientUnits="userSpaceOnUse" x1="2.38603225048" x2="8.04642983333" y1="397.8017127184" y2="405.9551657753"><stop offset="0" stop-color="#fffdfd"/><stop offset="1" stop-color="#eea2a0" stop-opacity="0"/></linearGradient><radialGradient id="i" cx="93.60704" cy="1441.4597" gradientTransform="matrix(.36542727 -.1374419 .14227704 .37828281 -214.1987 -109.41505)" gradientUnits="userSpaceOnUse" r="16.134117"><stop offset="0" stop-color="#fef9f9"/><stop offset="1" stop-color="#f5c7c6" stop-opacity="0"/></radialGradient><filter id="j" color-interpolation-filters="sRGB" height="1.048" width="1.048" x="-.024" y="-.024"><feGaussianBlur stdDeviation=".21759741"/></filter><g transform="translate(-68.38361 -293.481762)"><path d="m69.030074 294.81601v6.50649l2.172596-.36147 2.534695.36147 2.534695-.72294-.0021-6.48983-.07979-.0638-2.452821.77011-2.534695-.36147z" fill="#ab9861"/><path d="m19.147587 83.439862-.000001 195.934328 65.311451-10.88523 76.196683 10.88523 76.19669-21.77047v-195.934342l-76.19669 21.770482-76.196682-10.88524z" fill="#525252" filter="url(#a)" transform="matrix(.03369153 0 0 .03369153 68.354036 292.01956)"/><path d="m68.994717 294.76288v6.48015l2.16005-.36001 2.520059.36001 2.52006-.72001v-6.48016l-2.52006.72002-2.520058-.36001z" fill="#fff"/><path d="m71.154765 294.40287-2.160045.36001v2.03285l2.160045-.66415zm0 2.54246-2.160045.66415v3.63357l2.160045-.36002z" fill="#8ece5f"/><path d="m71.154765 296.13158-2.160045.66415v.81375l2.160045-.66415z" fill="#fff"/><path d="m73.674826 301.24303 2.52006-.72001v-6.48016l-2.52006.72002z" fill="#e5dfce"/><path d="m71.154767 300.88302 2.520059.36001v-6.48015l-2.520058-.36001z" fill="#e9e3d3"/><path d="m70.667826 297.09505-1.673106.51443v3.63357l2.160045-.36002v-2.6206z" fill="#e9e3d3"/><g fill="#fff"><path d="m71.154765 295.61589v2.64654l.842791 2.741.851149.12159z"/><path d="m70.62156 294.49175-.687772.11338 1.220977 3.6573v-2.64654z"/><path d="m73.674833 295.51421-2.520068.61737v.81375l2.520068-.61736z"/><path d="m76.194883 294.58185-2.52005.93236v.81376l2.52005-.93237z"/></g><path d="m71.154765 294.40287v1.21302l.147461.47955 2.372607-.58123v-.75133z" fill="#a4d77e"/><path d="m76.194883 294.04287-2.52005.72001v.75133l2.52005-.93236z" fill="#96d16a"/><path d="m70.7518 297.06853-1.75708.54095v3.63357l2.160045-.36002.842791.1204-.842791-2.741z" fill="#4ac7fd"/><path d="m71.154765 298.26243v2.6206l.842791.1204z" fill="#72d3fd"/><path d="m76.194883 297.80207-2.52005.93238v.1137l.361508-.13375.811549 2.19348.102854-.0294-.814386-2.2011 2.058525-.76161z" fill="#fff"/><path d="m132.50977 183.86328c-1.79208.003-3.58461.023-5.37891.0586-14.35233.28377-28.803171 1.52601-43.833985 2.65234-.156122.0117-.319082.0286-.486328.0547l-63.90625 9.72851c-.755902.11569-1.372888.83295-1.373047 1.59766v19.22265c.000331.84422.767122 1.61367 1.611328 1.61719.323914.001.653426-.0219.984375-.0723a1.0993533 1.0993533 0 0 0 .0059 0l65.072266-10.23243c21.351352-.4771 31.378962-2.98473 69.082032.51954 8.0914 1.56913 9.88456 2.52821 13.89648 3.83789 4.09016 1.33522 9.63233 2.65807 23.47657 4.35351.3582.0442.71622.0554 1.07031.0391 23.52476-1.09857 34.50704-5.31058 44.51758-7.84375.69112-.1751 1.22074-.85539 1.2207-1.56836v-21.93359c-.00034-.84563-.76972-1.61573-1.61523-1.61719h-.002c-.72663-.00098-1.4453.12146-2.12304.36524a1.0993533 1.0993533 0 0 0 -.004.002c-6.54897 2.37444-18.79028 7.40119-39.83008 8.67188-7.8451.007-12.79487-1.11289-17.58594-2.62891-4.81377-1.52322-9.59719-3.62026-16.10937-5.07031a1.0993533 1.0993533 0 0 0 -.002 0c-.0342-.008-.0709-.0125-.10547-.0195a1.0993533 1.0993533 0 0 0 -.008 0c-.14331-.0291-.28833-.0587-.4375-.0781h-.002c-6.42273-.83491-12.80349-1.30982-19.17578-1.52148-2.98729-.0992-5.97249-.14012-8.95898-.13477zm-112.382817 34.85938-.162109.0137a1.0993533 1.0993533 0 0 0 .162109-.0137z" fill="#f6b532" transform="matrix(.03307308 0 0 .03307308 68.361447 292.05327)"/><path d="m76.194879 298.30615c-.206825.075-.651695.25612-1.380644.29928-.569792.002-.777879-.17321-1.166819-.25981-.819721-.10657-1.629113-.0304-2.515349.036l-2.134186.32487-.0032.0434v.38141l2.163361-.34012c.706031-.0144 1.05483-.10189 2.33685.0181.577509.11066.327246.16007 1.23091.27073.784008-.0366 1.10652-.17527 1.469039-.26292z" fill="#fee333"/><path d="m76.196981 294.04382-.0078.002.0018.53568.07838.0187v-.48342z" fill="#71ba3a"/><path d="m71.154765 294.40287-2.160045.36001v2.99542l2.160045-.66416zm0 2.54246-2.160045.66415v3.63357l2.160045-.36002z" fill="url(#b)"/><path d="m73.674826 301.24303 2.52006-.72001v-6.48016l-2.52006.72002z" fill="url(#d)"/><g transform="matrix(-.0790042 0 0 .0790042 75.409792 264.04499)"><path d="m41.70559 422.38496c3.171744 3.41541-12.320824 19.87462-16.854035 24.08438s-8.209864 7.93702-11.381592 4.52158c-3.171727-3.41543-2.06803-9.59687 2.465172-13.80661 4.533202-4.20975 22.598727-18.21478 25.770455-14.79935z" fill="url(#e)"/><path d="m35.631297 414.9239c.000003 5.93077-2.332176 10.44408-5.407732 15.00054l-15.006461 22.23218-14.37289323-21.6708c-3.19589677-4.81863-6.04130507-9.32678-6.04130247-15.56192.0000048-11.27446 9.1397475-20.4142 20.4141957-20.4142 11.274447 0 20.414189 9.13976 20.414193 20.4142z" fill="url(#f)"/><circle cx="15.501635" cy="415.66769" fill="url(#g)" r="14.551829"/><circle cx="15.501635" cy="415.66769" fill="#242b2d" r="11.541328"/><path d="m9.7537197 398.27027a16.363499 12.835884 49.535329 0 0 -6.1662878 2.12333 16.363499 12.835884 49.535329 0 0 -4.05761488 12.01991 16.257549 16.257549 0 0 1 15.85004098-12.70341 16.257549 16.257549 0 0 1 1.43927.0722 16.363499 12.835884 49.535329 0 0 -7.0654083-1.51208z" fill="url(#h)"/><path d="m27.764961 414.70417c-.00031 6.07487-4.046187 11.40611-9.896821 13.04135 2.06396-.24852 3.943413-.98556 5.510496-2.16102 2.557064-2.46339 5.095997-4.94603 4.386325-10.88033z" fill="url(#i)"/><circle cx="15.501635" cy="415.66769" fill="#374346" filter="url(#j)" r="10.87987" transform="matrix(.84382133 0 0 .84382133 2.421025 64.918428)"/></g></g><path d="m0 .000002h8.466666v8.466666h-8.466666z" fill="none"/></svg>