<svg height="32" viewBox="0 0 8.4666665 8.466667" width="32" xmlns="http://www.w3.org/2000/svg" xmlns:xlink="http://www.w3.org/1999/xlink"><linearGradient id="a" gradientUnits="userSpaceOnUse" x1="16.97045802091" x2="17.0291022116" y1="29.59623147388" y2="1.76604537276"><stop offset="0" stop-color="#cdcdcd"/><stop offset=".38350943" stop-color="#d9dbde"/><stop offset="1" stop-color="#f5f5f5"/></linearGradient><linearGradient id="b" gradientUnits="userSpaceOnUse" x1="24" x2="24" y1="64" y2="16"><stop offset="0" stop-color="#0b0b0b"/><stop offset="1" stop-color="#1d1d1d"/></linearGradient><linearGradient id="c" gradientTransform="matrix(1 0 0 1.1111111 -40 -37.777778)" gradientUnits="userSpaceOnUse" x1="64" x2="64" y1="88" y2="56"><stop offset="0" stop-color="#7f7f81"/><stop offset=".44999999" stop-color="#b6b6b7"/><stop offset=".67499995" stop-color="#f5f5f5"/><stop offset="1" stop-color="#cfcfcf"/></linearGradient><linearGradient id="d" gradientUnits="userSpaceOnUse" x1="28" x2="28" y1="-28" y2="16"><stop offset="0" stop-color="#fff"/><stop offset=".54545456" stop-color="#ebebeb"/><stop offset=".90909094" stop-color="#bababa"/><stop offset="1" stop-color="#7e7e7f"/></linearGradient><linearGradient id="e" gradientTransform="matrix(.90905844 0 0 1 -33.45304 -31.999993)" gradientUnits="userSpaceOnUse" x1="64" x2="64" y1="48" y2="72"><stop offset="0" stop-color="#6e4388"/><stop offset=".21062189" stop-color="#651d8d"/><stop offset=".5" stop-color="#ac7ec6"/><stop offset=".66666639" stop-color="#ca87dc"/><stop offset="1" stop-color="#ebeaeb"/></linearGradient><linearGradient id="f" gradientUnits="userSpaceOnUse" x1="28" x2="27.435677" y1="88" y2="61.627121"><stop offset="0" stop-color="#fefefe"/><stop offset=".5" stop-color="#f7f7f7"/><stop offset=".91002578" stop-color="#8c8c8c"/><stop offset="1" stop-color="#666"/></linearGradient><linearGradient id="g" gradientTransform="matrix(1 0 0 .62584105 -40 -6.55719)" gradientUnits="userSpaceOnUse" x1="52" x2="76" y1="72" y2="72"><stop offset="0"/><stop offset=".66666669" stop-color="#a6a6a6" stop-opacity=".866667"/><stop offset="1" stop-opacity=".737089"/></linearGradient><linearGradient id="h" gradientUnits="userSpaceOnUse" x1="24.254238" x2="24.254238" y1="12" y2="32"><stop offset="0" stop-color="#baaac4"/><stop offset="1" stop-color="#baaac4" stop-opacity="0"/></linearGradient><path d="m5.203125 2c-.05748 0-.1016051.040887-.1503906.042969-.4682519-.0230567-.8896742.2822511-1.0136719.734375.00207-.00847.00194-.024659.00391-.03125.017787-.059501-.00855.015458-.025391.1035156-.0033.021394-.0059.04289-.00781.064453-.00426.033052-.00687.066297-.00781.099609-.0007457.0078-.0014.015618-.00196.023438v.019531c.0004659.011078.00112.022147.00195.033203l-.0019515 25.8573854c.0004494.337219.1708101.651505.453125.835937v.002c.012197.0081.024569.0159.037109.02344.1116829.06602.00957.0035-.03125-.02148.3064573.203495.4581662.21289.7421875.21289h20.5976565c.283648 0 .439347-.01224.742188-.21289.0013-.000664.0026-.0013.0039-.002.283644-.184356.454865-.499606.455084-.837897v-17.447229c-.000096-.29648-.131731-.577635-.359375-.767578l-9-8.5000001c-.179747-.1500837-.406459-.2323359-.640625-.2324219zm15.796875 0c-.945781-.0004656-1.363721 1.1906624-.625 1.78125l5 5c.654951.5241539 1.625347.0576173 1.625-.78125l.002-4.9453125c.000285-.2305252-.07908-.454071-.224656-.6328125.000004.0000055-.0056-.00564-.0059-.00586-.000255-.0003414-.0034-.00525-.0039-.00586-.01564-.018157-.03193-.035747-.04883-.052734-.0027-.00277-.0032-.00125-.0059-.00391-.04749-.048827-.09985-.092674-.15625-.1308594-.0018-.00116-.0062-.00671-.0078-.00781h-.002c-.0013-.0006528-.0026-.0013-.0039-.00195-.01787-.011648-.03611-.022721-.05469-.033203-.000048-.0000269.02657.021778.0332.027344-.288268-.1861766-.446465-.2070326-.720593-.2070326z" fill="#6e7792" stroke-width=".229587" transform="matrix(.26458333159 0 0 .26458333159 .00000011753 .00000020038)"/><path d="m5.203125 3c-.086876 0-.1601403.025951-.1914062.046875-.01.00671-.00806.00693-.00977.00781l-.0019488 25.892544c.00203.0012.0009507-.000022.00977.0059.031146.02083.104183.04687.1914063.04687h19.7988247.798827c.08722 0 .159915-.0259.191406-.04687.0089-.0059.0077-.0046.0098-.0059l-.000033-17.44723-9-8.5000005zm20.796875 25.947229v.02539c0-.02357.0052-.02869 0-.02539zm-20.9980469-25.8925415v-.027344c0 .00507-.00121.0059-.00195.00977v.019531c.0001181.000071.00158-.00176.00195-.00195zm15.9980479-.054689 5 5.0000002.002-4.9453112c-.0017-.0009445.000339-.00106-.0098-.00781-.031591-.0211184-.104542-.0468775-.19142-.0468775zm5.001952.054689c.0036.00201 0-.00499 0-.027344z" fill="url(#a)" stroke-width=".229587" transform="matrix(.26458333159 0 0 .26458333159 .00000011753 .00000020038)"/><path d="m20.685546 10.667955c-.802354.000077-1.561233.207485-2.18164.623047-.632985.424085-1.169922 1.143919-1.169922 2.039062v105.337896 1.34181c0 .89652.541482 1.61304 1.173828 2.03515.619469.41347 1.375768.62311 2.177734.62305h8.648438v-112.000015z" transform="matrix(.06614583353 0 0 .06614583353 -.08823738375 -.17647429429)"/><g transform="matrix(.04960937483 0 0 .04960937483 4.32957455168 3.94461141476)"><rect height="4.037014" rx=".206393" ry=".409933" width="88" x="-19.273298" y="80"/><rect fill="#1d1d1d" height="26.181" rx="8" transform="scale(1 -1)" width="117.57526" x="-34.1819" y="-32.0009"/><rect fill="url(#b)" height="49.4552" rx=".222269" ry=".304689" width="117.57526" x="-34.1819" y="20.3647"/><rect fill="#b6b6b6" height="22.180099" rx="7.428572" ry="8" transform="scale(1 -1)" width="106.06004" x="-28" y="-28"/><rect fill="url(#c)" height="44.486568" rx=".206393" ry=".27699" width="106.06004" x="-28" y="20"/><rect fill="#111012" height="32" rx=".206393" ry=".298754" width="85.333336" x="-17.939966" y="-15.513433"/><rect fill="#3e3c41" height="26.666668" rx=".18346" ry=".249291" width="74.666664" x="-12.606633" y="-10.1801"/><rect fill="#28232c" height="15.2715" rx=".208005" ry=".274643" width="93.179428" x="-22.5457" y="8.728499"/><rect fill="#9f9f9f" fill-opacity=".996078" height="53.333332" rx=".240792" ry=".294617" width="53.333332" x="-1.939967" y="-31.513433"/><rect fill="url(#d)" height="42.666668" rx=".206393" ry=".249291" width="42.666668" x="3.393367" y="-26.180099"/><path d="m-19.084247 8.835999h87.6219c.10394 0 .18762.155157.18762.347885v16.468231c0 .192728-.12556.264562-.18762.347885l-7.44861 9.999997.36376 5.999998h-73.452206l.363766-5.999998-7.44861-9.999997c-.06776-.09097-.187624-.155157-.187624-.347885v-16.468231c0-.192728.08368-.347885.187624-.347885z" style="stroke:#1f1f1f;stroke-width:3;stroke-linecap:square;stroke-linejoin:round;stroke-opacity:.924883;fill:url(#e)"/><g fill-rule="evenodd"><path d="m-17.273299 60-2 20h88l-2-20z" fill="#424245"/><path d="m-13.628569 62.561443-4.311398 28.59179h85.333334l-4.311402-28.59179z" fill="#434343"/><path d="m-8.6090723 59.82276-3.9975607 25.99714h74.666666l-3.997561-25.99714z" fill="url(#f)"/></g><rect height="15.999998" rx=".206393" ry=".266329" width="74.666679" x="-12.606633" y="48.486568"/><rect fill="url(#g)" height="10.666665" rx=".206393" ry=".156017" width="32" x="8.7267" y="32.486568"/><rect fill="url(#h)" height="23.2724" opacity=".92" rx=".30959" ry="1.007805" width="46.5448" x=".7267" y="8.728499"/><rect fill="#986aae" height="15.118958" rx=".281181" ry=".640315" width="45.170921" x="2.100578" y="8.728499"/><rect fill="#c9b1d5" height="11.6362" rx=".257991" ry=".525472" width="40.775043" x="3.841286" y="8.728499"/><rect fill="#1d1d1d" height="5.8181" rx=".257991" ry=".266553" width="34.9077" x="6.5457" y="8.728499"/><path d="m-12 52-.537056-10.000005h73.452206l-.91515 10.000005z" fill="#545156" fill-rule="evenodd"/></g></svg>