<svg height="22" viewBox="0 0 22 22" width="22" xmlns="http://www.w3.org/2000/svg" xmlns:xlink="http://www.w3.org/1999/xlink"><linearGradient id="a" gradientUnits="userSpaceOnUse" x1="7.739838" x2="8" y1="1.357724" y2="14"><stop offset="0" stop-color="#587bcb"/><stop offset=".94117647" stop-color="#3f59ae"/><stop offset="1" stop-color="#3d7cdb"/></linearGradient><linearGradient id="b" gradientTransform="matrix(1.375 0 0 1 -1.375 0)" gradientUnits="userSpaceOnUse" x1="6.5" x2="6.5" y1="11" y2="12"><stop offset="0" stop-color="#2a3674"/><stop offset="1" stop-color="#174072" stop-opacity="0"/></linearGradient><linearGradient id="c" gradientUnits="userSpaceOnUse" x1="9" x2="9" y1="-7" y2="4"><stop offset="0" stop-color="#102134"/><stop offset="1" stop-color="#102134" stop-opacity="0"/></linearGradient><filter id="d" color-interpolation-filters="sRGB" height="1.267833" width="1.129187" x="-.064594" y="-.133917"><feGaussianBlur stdDeviation="3.1247207"/></filter><linearGradient id="e" gradientUnits="userSpaceOnUse" x1=".37740994" x2=".37740994" y1="5.21465188477" y2="3.30908843966"><stop offset="0" stop-color="#34608f"/><stop offset="1" stop-color="#34608f" stop-opacity="0"/></linearGradient><linearGradient id="f" gradientTransform="matrix(.21345221 0 0 .1138394 -5.411169 -103.22724)" gradientUnits="userSpaceOnUse" x1="124.01234" x2="124.01234" y1="966.51019" y2="935.34326"><stop offset="0"/><stop offset="1" stop-color="#34608f" stop-opacity="0"/></linearGradient><linearGradient id="g" gradientUnits="userSpaceOnUse" x1="55" x2="55" y1="1036.4132" y2="1032.4822"><stop offset="0" stop-color="#003d7b"/><stop offset="1" stop-color="#003d7b" stop-opacity="0"/></linearGradient><filter id="h" color-interpolation-filters="sRGB" height="1.697208" width="1.027888" x="-.013944" y="-.348604"><feGaussianBlur stdDeviation=".70882694"/></filter><filter id="i" color-interpolation-filters="sRGB" height="1.869989" width="1.027669" x="-.013834" y="-.434994"><feGaussianBlur stdDeviation=".70324038"/></filter><clipPath id="j"><rect height="31.444271" rx="4" width="141.60004" x="4" y="941.36218"/></clipPath><g transform="translate(1 7)"><rect fill="url(#g)" filter="url(#h)" height="4.39197" opacity=".577143" rx="2.439995" ry="2.195984" transform="matrix(.125 0 0 .25614775 -.125 -251.09298)" width="169.99997" x="3.000028" y="1032.4822"/><path d="m-46.991242 13.13992h108.224874c2.216 0 4 .8652 4 1.94 0 1.0747-1.78433 1.902-4 1.94-36.945183.6329-68.9279165.7782-108.224874 0-2.215566-.044-4-.8653-4-1.94 0-1.0748 1.784-1.94 4-1.94z" filter="url(#i)" opacity=".554286" transform="matrix(.17315572 0 0 .125 9.204424 12.35751)"/><path d="m1-5c-.5 0-.46290449.3887135-.5.5l-.5 1.5v9c0 .554.446 1 1 1h18c.554 0 1-.446 1-1v-9c0-.554-.446-1-1-1h-11.0957031c-.0842007-.4859507-.178001-1-.4042969-1z" fill="#3b6ca9"/><path d="m1-5c-.5 0-.46290449.3887135-.5.5l-.5 1.5v9c0 .554.446 1 1 1v-10l.5-1h5.3828125c.013345.068527.023996.094239.037109.1699219.0826732.4792195.4980774.8295107.9843754.8300781h1.0957031 10v10c.554 0 1-.446 1-1v-9c0-.554-.446-1-1-1h-11.0957031c-.0842007-.4859507-.178001-1-.4042969-1z" fill="url(#c)" opacity=".25"/><path clip-path="url(#j)" d="m30.012982 956.41796-26.0129821-.46865.0000002 50.59179 138.2286099-.02v-53.82893c0-2.54081-2.0596-4.59219-4.62097-4.58387l-95.594658.31046c-9.375263 0-5.067235 7.84799-12 8z" fill="#16375b" fill-opacity=".801471" filter="url(#d)" transform="matrix(.14830504 0 0 .14830504 -.59322 -138.2721)"/><path d="m1 5h4.5l1-1h13.5c.554 0 1 .446 1 1v8c0 .554-.446 1-1 1h-19c-.554 0-1-.446-1-1v-7c0-.554.4937484-.7749993 1-1z" fill="url(#a)"/><path d="m0 11h21v1h-21z" fill="#385da4"/><path d="m0 11h21v1h-21z" fill="url(#b)"/><path d="m0 12h21v.5h-21z" fill="#a4c0e8"/><path d="m6.5 4-1 1h-4.5c-.554 0-1 .446-1 1v1c0-.554.49374843-.7749993 1-1h4.5l1-1h13.5c.554 0 1 .446 1 1v-1c0-.554-.446-1-1-1z" fill="#a4c0e8"/><path d="m5-3h1v.9999999h-1z" fill="#fbc66d"/><path d="m2-3h4v.9999999h-4z" fill="#fcf9e9"/><path d="m1 4c-.5505375 0-.9925198.4410516-.9980469.9902344v8.0195316c.00023.02285.0119482.042.0136719.06445.038109.321065.7510484.923754.984375.925784.0003916.000003.00156 0 .00195 0v-10z" fill="url(#e)" opacity=".594286"/><path d="m20 3v11c.554 0 1-.446 1-1v-9c0-.554-.446-1-1-1z" fill="url(#f)" opacity=".405714"/></g></svg>