<svg height="22" width="22" xmlns="http://www.w3.org/2000/svg" xmlns:xlink="http://www.w3.org/1999/xlink"><radialGradient id="a" cx="10.873831" cy="2.48757" gradientTransform="matrix(1.5548807 -.05553145 .03569153 .99936285 -6.496295 .617855)" gradientUnits="userSpaceOnUse" r="9.003906"><stop offset="0" stop-color="#fff"/><stop offset="1" stop-color="#fff" stop-opacity=".944444"/></radialGradient><filter id="b" color-interpolation-filters="sRGB" height="1.144" width="1.144" x="-.072" y="-.072"><feGaussianBlur stdDeviation=".60000003"/></filter><g stroke-width="1.125383"><path d="m10.998047 1c-2.7584902.0038233-5.426627 1.2805235-7.3007814 3.296875l-.8105468-1.6191406c-.470602-.9385916-1.8854647-.6046488-1.8867188.4453125v6.1894531c.0004675.3432207.1775832.6620289.46875.84375-.2911668.181721-.4682825.500529-.46875.84375-.00024449 2.618085 1.0764687 5.221 2.9277344 7.072266 1.8512657 1.851265 4.4541806 2.927979 7.0722656 2.927734h.001953c2.75809-.0052 5.425708-1.282058 7.298828-3.298828l.8125 1.621094c.470652.938447 1.885367.604542 1.886719-.445313v-6.751953c-.000376-.353894-.188475-.681023-.494141-.859375.307308-.193858.484697-.539654.462891-.902344-.159833-2.5045871-1.303534-4.9341344-3.132812-6.6523435-1.82928-1.7182091-4.324304-2.7080998-6.833985-2.7109375-.0013-.00000254-.002606-.00000254-.003906 0zm.001953 4a6 6 0 0 1 6 6 6 6 0 0 1 -1.015625 3.335938 1.0001 1.0001 0 0 0 -.056641-.207032l-.371093-.927734c.26459-.339832.443359-.743292.443359-1.201172 0-1.090703-.909297-2-2-2h.277344l-1.34961-3.3710938a1.0001 1.0001 0 0 0 -.927734-.6289062h-2a1.0001 1.0001 0 0 0 -.9277344.6289062l-1.3496094 3.3710938h.2773438c-1.0907028 0-2 .909297-2 2 0 .45788.1787686.86134.4433594 1.201172l-.3710938.927734a1.0001 1.0001 0 0 0 -.0566406.203125 6 6 0 0 1 -1.015625-3.332031 6 6 0 0 1 6-6zm-.798828 9h1.542969l.298828.835938a1.0001 1.0001 0 0 0 .941406.664062h1.972656a6 6 0 0 1 -3.957031 1.5 6 6 0 0 1 -3.9609375-1.5h1.9160156a1.0001 1.0001 0 0 0 .9394531-.658203z" fill="#0a0a0a" filter="url(#b)"/><path d="m11 1.9960938a9.0030653 9.0030653 0 0 0 -7.5253906 4.0800781l-1.4785156-2.953125v6.1894531h.1679687a9.0030653 9.0030653 0 0 0 -.0136719.0605469l1.9082032.7656251a7 7 0 0 1 6.9414062-6.138672 7 7 0 0 1 6.845703 5.5722656l2.128906.8535154a9.0030653 9.0030653 0 0 0 -8.974609-8.4296872zm-1 5.0039062-1.5996094 4h-.4003906c-.5540001 0-1 .446-1 1 0 .422425.2601348.778783.6289062.925781l-.6289062 1.574219h1.9550781l.5449219-1.5h2.949219l.535156 1.5h2.015625l-.628906-1.574219c.368771-.146998.628906-.503356.628906-.925781 0-.554-.446-1-1-1h-.400391l-1.599609-4zm.984375 1.9042969.75 2.0957031h-1.509766zm-8.9882812 2.0957031a9.0030653 9.0030653 0 0 0 9.0039062 9.003906 9.0030653 9.0030653 0 0 0 7.523438-4.083984l1.480468 2.957031v-6.751953l-.080078-.03125-1.939453-.775391a7 7 0 0 1 -6.984375 6.681641 7 7 0 0 1 -6.9433594-6.175781z" fill="url(#a)"/></g></svg>