<svg enable-background="new 0 0 128 128" height="8" viewBox="0 0 8 8" width="8" xmlns="http://www.w3.org/2000/svg" xmlns:xlink="http://www.w3.org/1999/xlink"><radialGradient id="a" cx="19.796871" cy="20.327793" fx="19.796871" fy="20.327793" gradientTransform="matrix(.03808639 .7490324 -.6914062 .03515625 56.300772 72.456754)" gradientUnits="userSpaceOnUse" r="16" xlink:href="#b"/><radialGradient id="b" cx="48" cy="-.2148" gradientTransform="matrix(.9792 0 0 .9725 133.0002 20.8762)" gradientUnits="userSpaceOnUse" r="55.147999"><stop offset="0" stop-color="#72d13d"/><stop offset=".3553" stop-color="#35ac1c"/><stop offset=".6194" stop-color="#0f9508"/><stop offset=".7574" stop-color="#008c00"/><stop offset="1" stop-color="#007a00"/></radialGradient><radialGradient id="c" cx="19.796871" cy="20.327793" fx="19.796871" fy="20.327793" gradientTransform="matrix(-.03808639 .7490324 .6914063 .03515625 3.699228 72.456754)" gradientUnits="userSpaceOnUse" r="16" xlink:href="#b"/><filter id="d"><feGaussianBlur stdDeviation="1.0394514"/></filter><filter id="e"><feGaussianBlur stdDeviation=".50063244"/></filter><radialGradient id="f" cx="153.32799" cy="156.18817" gradientUnits="userSpaceOnUse" r="139.5585"><stop offset="0" stop-color="#00537d"/><stop offset=".0151" stop-color="#186389"/><stop offset=".0558" stop-color="#558ca8"/><stop offset=".0964" stop-color="#89afc3"/><stop offset=".1357" stop-color="#b3ccd8"/><stop offset=".1737" stop-color="#d4e2e9"/><stop offset=".2099" stop-color="#ecf2f5"/><stop offset=".2435" stop-color="#fafcfd"/><stop offset=".2722" stop-color="#fff"/></radialGradient><radialGradient id="g" cx="125.30434" cy="133.25926" gradientTransform="matrix(.9787234 0 0 .9818182 1.361705 1.163636)" gradientUnits="userSpaceOnUse" r="139.55859"><stop offset="0" stop-color="#e3e4e4"/><stop offset=".11366145" stop-color="#ececed"/><stop offset=".20296688" stop-color="#ececec"/><stop offset=".2363" stop-color="#fafafa"/><stop offset=".2722" stop-color="#fff"/><stop offset=".5313" stop-color="#fafafa"/><stop offset=".8449" stop-color="#ebecec"/><stop offset="1" stop-color="#e1e2e3"/></radialGradient><g transform="matrix(.125 0 0 .125 -1 -7.999988)"><path d="m23 70.793103.04082 50.206897h61.131184l-11.838003-.10366c.375-.375.586-.884.586-1.414v-48.689237z" filter="url(#d)" opacity=".715069" transform="matrix(1.0416667 0 0 1.0357143 -9.958333 -3.321534)"/><path d="m24.919999 72.724239v46.344831l45.494002.0893c.375-.375.414964-.91269.586-1.414v-45.020171h-46.080002z" filter="url(#e)" opacity=".89589" transform="matrix(1.0416667 0 0 1.0357143 -9.958333 -3.321534)"/><path d="m23 71.75862.040816 49.24138h61.131184l-11.837999-.10366c.375-.375.586-.884.586-1.414v-47.72372z" filter="url(#d)" opacity=".835616" transform="matrix(1.0416667 0 0 1.0357143 -9.958333 -3.321534)"/><path d="m16.000002 72v48h61.172l-13.758002.086c.375-.375.414126-.91264.586-1.414v-46.672z" fill="url(#f)"/><path d="m24.678725 80c-.539276 0-.978723.440836-.978723.981818l.3 30.036362c0 .54197.439447.98182.978723.98182l30.734505-.1188c.18303-.1836.28677-.43593.28677-.69414v-30.205242c0-.540982-.43847-.981818-.97872-.981818z" fill="url(#g)"/><g fill-rule="evenodd"><path d="m24 71.999908v47.999992h8v-47.999996z" fill="#042cff"/><path d="m40 87.999904 12 12v-24z" fill="url(#a)"/><path d="m20 87.999904-12 12v-24z" fill="url(#c)"/><path d="m64 107.9999h-48v8h48z" fill="#042cff"/></g></g></svg>