<svg enable-background="new 0 0 128 128" height="8" viewBox="0 0 8 8" width="8" xmlns="http://www.w3.org/2000/svg" xmlns:xlink="http://www.w3.org/1999/xlink"><filter id="a"><feGaussianBlur stdDeviation=".72"/></filter><filter id="b"><feGaussianBlur stdDeviation="1.0394514"/></filter><filter id="c"><feGaussianBlur stdDeviation=".50063244"/></filter><radialGradient id="d" cx="153.32799" cy="156.18817" gradientUnits="userSpaceOnUse" r="139.5585"><stop offset="0" stop-color="#00537d"/><stop offset=".0151" stop-color="#186389"/><stop offset=".0558" stop-color="#558ca8"/><stop offset=".0964" stop-color="#89afc3"/><stop offset=".1357" stop-color="#b3ccd8"/><stop offset=".1737" stop-color="#d4e2e9"/><stop offset=".2099" stop-color="#ecf2f5"/><stop offset=".2435" stop-color="#fafcfd"/><stop offset=".2722" stop-color="#fff"/></radialGradient><radialGradient id="e" cx="125.30434" cy="133.25926" gradientTransform="matrix(.9787234 0 0 .9818182 1.361705 1.163636)" gradientUnits="userSpaceOnUse" r="139.55859"><stop offset="0" stop-color="#e3e4e4"/><stop offset=".11366145" stop-color="#ececed"/><stop offset=".20296688" stop-color="#ececec"/><stop offset=".2363" stop-color="#fafafa"/><stop offset=".2722" stop-color="#fff"/><stop offset=".5313" stop-color="#fafafa"/><stop offset=".8449" stop-color="#ebecec"/><stop offset="1" stop-color="#e1e2e3"/></radialGradient><g transform="matrix(.125 0 0 .125 -1 -7.999988)"><path d="m23 70.793103.04082 50.206897 49.293181-.10366.586-1.414v-48.689237z" filter="url(#b)" opacity=".715069" transform="matrix(1.0416667 0 0 1.0357143 -9.958333 -3.321534)"/><path d="m24.919999 72.724239v46.344831l45.494002.0893.586-1.414v-45.020171h-46.080002z" filter="url(#c)" opacity=".89589" transform="matrix(1.0416667 0 0 1.0357143 -9.958333 -3.321534)"/><path d="m23 71.75862.040816 49.24138 49.293185-.10366.586-1.414v-47.72372z" filter="url(#b)" opacity=".835616" transform="matrix(1.0416667 0 0 1.0357143 -9.958333 -3.321534)"/><path d="m16.000002 72v48l47.413998.086.586-1.414v-46.672z" fill="url(#d)"/><path d="m24.678725 80c-.539276 0-.978723.440836-.978723.981818l.3 30.036362c0 .54197.439447.98182.978723.98182l30.734505-.1188c.18303-.1836.28677-.43593.28677-.69414v-30.205242c0-.540982-.43847-.981818-.97872-.981818z" fill="url(#e)"/><g fill-rule="evenodd"><g fill="#258aff" fill-opacity=".454902"><path d="m24 71.999904v47.999996h4v-47.999996z"/><path d="m40 71.999904v47.999996h4v-47.999996z"/><path d="m56 71.999904v47.999996h4v-47.999996z"/><path d="m16 83.999904v4h48v-4z"/><path d="m16 96v4h48v-4z"/><path d="m16 107.9999v4h48v-4z"/></g><g fill-rule="evenodd" transform="translate(0 -4)"><g fill="#fff" filter="url(#a)" stroke="#fff" stroke-width="6"><path d="m20 79.999904v8h8v-8z"/><path d="m36 79.999904v8h8v-8z"/><path d="m52 79.999904v8h8v-8z"/><path d="m20 95.999904v7.999996h8v-7.999996z"/><path d="m36 95.999904v7.999996h8v-7.999996z"/><path d="m52 95.999904v7.999996h8v-7.999996z"/><path d="m20 111.99991v7.99999h8v-7.99999z"/><path d="m36 111.99991v7.99999h8v-7.99999z"/><path d="m52 111.99991v7.99999h8v-7.99999z"/></g><g fill="#258aff"><path d="m20 79.999904v8h8v-8z"/><path d="m36 79.999904v8h8v-8z"/><path d="m52 79.999904v8h8v-8z"/><path d="m20 95.999904v7.999996h8v-7.999996z"/><path d="m36 95.999904v7.999996h8v-7.999996z"/><path d="m52 95.999904v7.999996h8v-7.999996z"/><path d="m20 111.99991v7.99999h8v-7.99999z"/><path d="m36 111.99991v7.99999h8v-7.99999z"/><path d="m52 111.99991v7.99999h8v-7.99999z"/></g></g></g></g></svg>