<svg height="16" width="16" xmlns="http://www.w3.org/2000/svg"><path d="m4.7695312 2.0097656c-2.08183 0-3.7695312 1.6809094-3.7695312 3.7558594 0 1.07968.4576931 2.0530112 1.1894531 2.7382812l5.7246094 5.4960938 5.8964845-5.4960938c.73186-.6851699 1.189453-1.6585012 1.189453-2.7382812 0-2.07495-1.687701-3.7558594-3.769531-3.7558594-1.3713203 0-2.571049.7289725-3.230469 1.8203125-.65942-1.09135-1.8591488-1.8203125-3.2304688-1.8203125zm0 .9980469c1.0175001 0 1.8910101.5368906 2.375 1.3378906a.99850458.99850458 0 0 0 1.7109376 0c.4839899-.801 1.3575002-1.3378906 2.3750002-1.3378906 1.54441 0 2.771484 1.2242625 2.771484 2.7578125 0 .79706-.334777 1.5032325-.873047 2.0078125l-5.2050779 4.8515625-5.0429687-4.8417969a.99850458.99850458 0 0 0 -.0097656-.0078125c-.53908-.50483-.8730469-1.2122256-.8730469-2.0097656 0-1.53355 1.2270744-2.7578125 2.7714843-2.7578125z" fill="#bebebe"/></svg>