<svg height="16" width="16" xmlns="http://www.w3.org/2000/svg"><g fill="#babdb6"><path d="m547 644c.55833 0 1.0312.47292 1.0312 1.0312v.96875c0 .55833-.47292 1-1.0312 1s-1-.44167-1-1v-.96875c0-.55833.44167-1.0312 1-1.0312zm4 0c.55833 0 1 .47292 1 1.0312v.96875c0 .55833-.44167 1-1 1s-1-.44167-1-1v-.96875c0-.55833.44167-1.0312 1-1.0312zm-2 4.5938c1.0592 0 1.9291.9211 1.9375 2.0312 0 1.1164-.87235 2.0312-1.9375 2.0312s-1.9375-.91484-1.9375-2.0312.87235-2.0312 1.9375-2.0312z" transform="translate(-541 -639)"/><path d="m8 0a8 8 0 0 0 -8 8 8 8 0 0 0 8 8 8 8 0 0 0 8-8 8 8 0 0 0 -8-8zm0 1a7 7 0 0 1 7 7 7 7 0 0 1 -7 7 7 7 0 0 1 -7-7 7 7 0 0 1 7-7z"/></g></svg>