<svg height="16" width="16" xmlns="http://www.w3.org/2000/svg"><g fill="#babdb6"><path d="m627 524c.55833 0 1.0312.40972 1.0312.875v.78125c0 .46528-.47292.84375-1.0312.84375s-1-.37847-1-.84375v-.78125c0-.46528.44167-.875 1-.875zm4 0c.55833 0 1 .37848 1 .84375v.8125c0 .46527-.44167.84375-1 .84375s-1-.37848-1-.84375v-.8125c0-.46527.44167-.84375 1-.84375zm1.75 2.2812c1.2078.44874 2.0463.93632 2.2188 1.5625.17247.62616-.30586 1.2416-.9375 1.25-.51878.007-.7686-.2154-.9375-.875-.16672-.66017.0828-1.2924-.34375-1.9375zm-3.7812 2.6875c2.5883 0 3.9688.98014 3.9688 1.5625v.53125c-.79224-.69651-3.1869-1-3.9688-1-.78187 0-3.0184-.059-3.9688 1v-.53125c0-.74472 1.3804-1.5625 3.9688-1.5625z" transform="translate(-621 -519)"/><path d="m8 0a8 8 0 0 0 -8 8 8 8 0 0 0 8 8 8 8 0 0 0 8-8 8 8 0 0 0 -8-8zm0 1a7 7 0 0 1 7 7 7 7 0 0 1 -7 7 7 7 0 0 1 -7-7 7 7 0 0 1 7-7z"/></g></svg>