<svg height="16" width="16" xmlns="http://www.w3.org/2000/svg"><g fill="#bebebe"><path d="m2.03125 3.9375c-.7953961 1.1621411-1.28125 2.5479008-1.28125 4.0625 0 3.997042 3.2529578 7.25 7.25 7.25 3.997042 0 7.25-3.252958 7.25-7.25 0-1.5145992-.485854-2.9003589-1.28125-4.0625-.248049.191452-.490057.3795133-.75.5-.846522.3923493-1.867433.59375-2.96875.59375h-4.5c-1.1012999 0-2.1222213-.2013744-2.96875-.59375-.2599488-.1204854-.5019525-.3085478-.75-.5zm4.4375 1.15625c.3520298 0 .625.4523975.625 1 0 .1711258-.013443.3282582-.0625.46875-.087595.3498906-.3065837.59375-.5625.59375-.2559171 0-.4749049-.2438594-.5625-.59375-.049065-.1404918-.09375-.2976242-.09375-.46875 0-.5476025.3042194-1 .65625-1zm3.0625 0c.3520298 0 .65625.4523975.65625 1 0 .1711258-.04469.3282582-.09375.46875-.0876.3498906-.3065837.59375-.5625.59375-.2559171 0-.4749048-.2438594-.5625-.59375-.0490613-.1404918-.0625-.2976242-.0625-.46875 0-.5476025.2729694-1 .625-1zm-5.75 3.1875c.2128055 0 .40625.1621944.40625.375 0 .080851-.019944.1567821-.0625.21875.4975503.5376091 1.1165737.9179277 1.78125 1.1875 1.9781576.778986 4.447058.42165 5.96875-1.1875-.04997-.064986-.09375-.1304309-.09375-.21875 0-.2128056.162194-.375.375-.375.212805 0 .40625.1621944.40625.375 0 .2128058-.193445.375-.40625.375-.01845 0-.01349.00251-.03125 0-.543021.8852544-1.383584 1.546096-2.3125 1.90625-2.0758672.842512-4.7057638.117366-5.9375-1.90625-.026313.00567-.065743 0-.09375 0-.2128046 0-.375-.1621944-.375-.375 0-.2128057.1621954-.375.375-.375z"/><path d="m5.7500002-.07176902c-.9586199 0-1.8265999.18789-2.4999999.5-.67336.31211-1.25.79502002-1.25 1.50000002s.57664 1.1879 1.25 1.5c.67336.31211 1.5414.5 2.4999999.5h4.4999998c.95862 0 1.8266-.18789 2.5-.5.67336-.31211 1.25-.79502 1.25-1.5s-.57664-1.18790002-1.25-1.50000002c-.67336-.31211-1.5414-.5-2.5-.5h-4.4999998zm0 1h4.4999998c.83424 0 1.5972.17611002 2.0938.40625002.5.23.66.46.66.59 0 .12602-.15972.36361-.65625.59375-.49.23-1.26.41-2.09.41h-4.4999997c-.8342401 0-1.5972-.17611-2.0938-.40625-.5-.23-.66-.46-.66-.59 0-.12602.15972-.36361.65625-.59375.49-.23 1.2599999-.41000002 2.0899999-.41000002z"/></g></svg>