<svg height="16" width="16" xmlns="http://www.w3.org/2000/svg"><path d="m8 .75c-3.9970422 0-7.25 3.2529581-7.25 7.25 0 3.997042 3.2529578 7.25 7.25 7.25 3.997042 0 7.25-3.252958 7.25-7.25 0-3.9970419-3.252958-7.25-7.25-7.25zm0 10.125c3.2558 0 3 .37217 3 .75v.25h-6.03125v-.28125c0-.34953-.22455-.71875 3.03125-.71875z" fill="#bebebe"/><path d="m4.9999998 5.7061869c-.4254445.2600879-.71875.714846-.71875 1.25 0 .8176603.6823397 1.46875 1.5 1.46875.6916043 0 1.2435943-.4839844 1.40625-1.125l-.375-.0625zm6.0000002 0-1.8125001 1.53125-.375.0625c.1626558.6410156.7146461 1.125 1.4062501 1.125.81766 0 1.5-.6510897 1.5-1.46875 0-.535154-.293306-.9899121-.71875-1.25z" fill="#fff"/></svg>