<svg height="16" width="16" xmlns="http://www.w3.org/2000/svg"><g fill="#babdb6"><path d="m667.5312 545.1768c.73437 0 1.4688.44603 1.4688 1.3125-1.5-.33848-3.125 1.7329-3 0 .0625-.86647.79688-1.3125 1.5312-1.3125zm4.9375 0c.73437 0 1.4688.44603 1.5312 1.3125.125 1.7329-1.5-.33848-3 0 0-.86647.73438-1.3125 1.4688-1.3125zm-5.9991 2.558c.41493 0 .75.33507.75.75s-.33507.75-.75.75-.75-.33507-.75-.75.33507-.75.75-.75zm7.0165 0c.41493 0 .75.33507.75.75s-.33507.75-.75.75-.75-.33507-.75-.75.33507-.75.75-.75zm-4.0902 2.2625h1.1719c.20621 0 .54688.223.54688.5s-.34067.51562-.54688.51562h-1.1719c-.20621 0-.48438-.23862-.48438-.51562s.27817-.5.48438-.5z" transform="translate(-662 -539)"/><path d="m8 0a8 8 0 0 0 -8 8 8 8 0 0 0 8 8 8 8 0 0 0 8-8 8 8 0 0 0 -8-8zm0 1a7 7 0 0 1 7 7 7 7 0 0 1 -7 7 7 7 0 0 1 -7-7 7 7 0 0 1 7-7z"/></g></svg>