<svg height="16" width="16" xmlns="http://www.w3.org/2000/svg"><g fill="#babdb6"><path d="m567 524c.55833 0 1.0312.47292 1.0312 1.0312v.96875c0 .55833-.47292 1-1.0312 1s-1-.44167-1-1v-.96875c0-.55833.44167-1.0312 1-1.0312zm3.4375 1h.90625c.5224 0 .96875.21617.96875.5 0 .28382-.44635.5-.96875.5h-.90625c-.52241 0-.9375-.21618-.9375-.5 0-.28383.41509-.5.9375-.5zm-6.4375 3.0625c.71531 1.0744 2.2352 1.9375 5 1.9375 2.4523 0 4.2108-.75041 5-1.9375v.5c0 .68098-.8379 2.4062-5 2.4062-3.8808 0-5-1.8737-5-2.4062z" transform="translate(-561 -519)"/><path d="m8 0a8 8 0 0 0 -8 8 8 8 0 0 0 8 8 8 8 0 0 0 8-8 8 8 0 0 0 -8-8zm0 1a7 7 0 0 1 7 7 7 7 0 0 1 -7 7 7 7 0 0 1 -7-7 7 7 0 0 1 7-7z"/></g></svg>