<svg height="16" width="16" xmlns="http://www.w3.org/2000/svg"><g fill="#babdb6"><path d="m587 544c.55833 0 1.0312.47292 1.0312 1.0312v.96875c0 .55833-.47292 1-1.0312 1s-1-.44167-1-1v-.96875c0-.55833.44167-1.0312 1-1.0312zm4 0c.55833 0 1 .47292 1 1.0312v.96875c0 .55833-.44167 1-1 1s-1-.44167-1-1v-.96875c0-.55833.44167-1.0312 1-1.0312zm-7 4.0625c.99656.6369 4.0165.9375 5 .9375.49176 0 1.4286.0145 2.4062-.0937.97763-.10827 1.996-.35958 2.5938-.84375v.5c0 .44149-.75339.91906-2.1562 1.1875l.25.53125c.27902.60331.0833 1.2756-.4375 1.5312l-.25.125c-.52084.25561-1.1749-.0293-1.4688-.625l-.625-1.2812c-.0171-.0347-.0191-.0351-.0312-.0625-.0961.001-.18233 0-.28125 0-3.2558 0-5-.87374-5-1.4062v-.5z" transform="translate(-581 -539)"/><path d="m8 0a8 8 0 0 0 -8 8 8 8 0 0 0 8 8 8 8 0 0 0 8-8 8 8 0 0 0 -8-8zm0 1a7 7 0 0 1 7 7 7 7 0 0 1 -7 7 7 7 0 0 1 -7-7 7 7 0 0 1 7-7z"/></g></svg>