<svg height="16" width="16" xmlns="http://www.w3.org/2000/svg"><g fill="#babdb6"><path d="m5 5.7070312 1.8125 1.53125.375.0625c-.1626557.6410157-.7146457 1.125-1.40625 1.125-.8176603 0-1.5-.6510896-1.5-1.46875 0-.535154.2933055-.989912.71875-1.25zm6 0c.425444.2600879.71875.714846.71875 1.25 0 .8176604-.68234 1.46875-1.5 1.46875-.691604.0000001-1.2435942-.4839843-1.40625-1.125l.375-.0625zm-3 5.1679688c3.2558 0 3 .37217 3 .75v.25h-6.03125v-.28125c0-.34953-.22455-.71875 3.03125-.71875z"/><path d="m8 0a8 8 0 0 0 -8 8 8 8 0 0 0 8 8 8 8 0 0 0 8-8 8 8 0 0 0 -8-8zm0 1a7 7 0 0 1 7 7 7 7 0 0 1 -7 7 7 7 0 0 1 -7-7 7 7 0 0 1 7-7z"/></g></svg>