<svg height="16" width="16" xmlns="http://www.w3.org/2000/svg"><path d="m10.25 5.03125c-6.8333333 7.3125-3.4166667 3.65625 0 0zm-3.78125.0625c.3520298 0 .625.4523975.625 1 0 .1711258-.013443.3282582-.0625.46875-.087595.3498906-.3065837.59375-.5625.59375-.2559171 0-.4749049-.2438594-.5625-.59375-.049065-.1404918-.09375-.2976242-.09375-.46875 0-.5476025.3042194-1 .65625-1zm3.0625 0c.3520298 0 .65625.4523975.65625 1 0 .1711258-.04469.3282582-.09375.46875-.0876.3498906-.3065837.59375-.5625.59375-.2559171 0-.4749048-.2438594-.5625-.59375-.049061-.1404918-.0625-.2976242-.0625-.46875 0-.5476025.2729694-1 .625-1zm-5.75 3.1875c.2128055 0 .40625.1621944.40625.375 0 .080851-.019944.1567821-.0625.21875.4975503.5376091 1.1165737.9179277 1.78125 1.1875 1.9781576.778986 4.447058.42165 5.96875-1.1875-.04997-.064986-.09375-.1304309-.09375-.21875 0-.2128056.162194-.375.375-.375.212805 0 .40625.1621944.40625.375 0 .2128058-.193445.375-.40625.375-.01845 0-.01349.00251-.03125 0-.543021.8852544-1.383584 1.546096-2.3125 1.90625-2.0758672.842512-4.7057638.117366-5.9375-1.90625-.026313.00567-.065743 0-.09375 0-.2128046 0-.375-.1621944-.375-.375 0-.2128057.1621954-.375.375-.375z" fill="#bebebe"/><path d="m3.7500002-.07176902c-.9586199 0-1.8265999.18789-2.4999999.5-.67336.31211-1.25.79502002-1.25 1.50000002s.57664 1.1879 1.25 1.5c.67336.31211 1.5414.5 2.4999999.5h8.4999998c.95862 0 1.8266-.18789 2.5-.5.67336-.31211 1.25-.79502 1.25-1.5s-.57664-1.18790002-1.25-1.50000002c-.67336-.31211-1.5414-.5-2.5-.5zm0 1h8.4999998c.83424 0 1.5972.17611002 2.0938.40625002.5.23.66.46.66.59 0 .12602-.15972.36361-.65625.59375-.49.23-1.26.41-2.09.41h-8.4999997c-.8342401 0-1.5972-.17611-2.0938-.40625-.5-.23-.66-.46-.66-.59 0-.12602.15972-.36361.65625-.59375.49-.23 1.2599999-.41000002 2.0899999-.41000002z" fill="#bebebe"/><g fill="#babdb6"><path d="m2.6582031 3.4785156c-1.7721354 8.3476564-.8860677 4.1738281 0 0zm0 0c-.1947723.2328851-.3741876.4781948-.5371093.734375.166736.099643.3486188.1879394.5371093.265625.7572562.31211 1.7325118.5 2.8105469.5h5.0625c1.078058 0 2.053246-.18789 2.810547-.5.19024-.078409.373015-.1687501.541015-.2695312-.16628-.2544547-.348959-.4978084-.546874-.7285156-.756525.3107637-1.729221.4980468-2.804688.4980468h-5.0625c-1.0780351 0-2.0532907-.18789-2.8105469-.5z" stroke-width="1.060468"/><path d="m0 8c0 4.418278 3.581722 8 8 8s8-3.581722 8-8c-.000115-1.6066874-.484011-3.1761141-1.388672-4.5039062-.125491-.1811949-.258417-.3571263-.398437-.5273438-.242926.2034587-.543131.374593-.871094.5097656-.0018.0007502-.004.0012-.0059.00195.197915.2307072.380594.4740609.546874.7285156.728848 1.1301325 1.116704 2.4462698 1.117229 3.7910188 0 3.865993-3.134007 7-7 7-3.8659932 0-7-3.134007-7-7 .0024392-1.3438106.3916308-2.6585188 1.1210938-3.7871094.1629217-.2561802.342337-.5014899.5371093-.734375-1.96489849-1.4239589-2.64171801 3.2731423-2.6582031 4.5214844z"/></g></svg>