<svg height="16" width="16" xmlns="http://www.w3.org/2000/svg"><g fill="#babdb6"><path d="m5.53125 5c-.73432 0-1.85151.50497-1.53125 1.3125.5821 1.46773.4393-.8243531 3-.2207031 0-.86644-.73438-1.0917969-1.46875-1.0917969zm4.9375 0c-.73442 0-1.46875.2253269-1.46875 1.0917969 2.47227-.73623 2.68306 1.7769031 3 .2207031.1734-.85125-.79688-1.3125-1.53125-1.3125zm-3.46875 3c-.47125.0115-1 .362965-1 1.171875 0 .60945-.336735.766275-1.015625.859375.67884.175 1.03225 1.358205 1.03125 1.765625-.0028.98319.898975 1.230375 1.984375 1.234375 1.08532.0059 2.020625-.27789 2.015625-1.25-.00273-.5407.350245-1.614405.984375-1.765625-.52468-.063-1.00055-.053155-1-.828125.00031-.4275-.27464-1.1676-.90625-1.1875-.41034-.01295-.78058.13366-1.0625.34375-.28193-.21009-.62086-.35375-1.03125-.34375zm1.0410156 1.9941406c.322975.0071234.6555344.1062204.9589844.2753904-.16971.0801-.3211056.159705-.3222656.271485-.0182.26976-.374065.482088-.671875.480468-.29781-.00078-.59373-.210708-.59375-.480468.00078-.11178-.1109244-.189165-.2714844-.271485.26455-.197665.5774156-.2825141.9003906-.2753904z"/><path d="m8 0a8 8 0 0 0 -8 8 8 8 0 0 0 8 8 8 8 0 0 0 8-8 8 8 0 0 0 -8-8zm0 1a7 7 0 0 1 7 7 7 7 0 0 1 -7 7 7 7 0 0 1 -7-7 7 7 0 0 1 7-7z"/></g></svg>