<svg height="16" width="16" xmlns="http://www.w3.org/2000/svg"><g fill="#babdb6"><path d="m527 544c.55833 0 1.0312.47292 1.0312 1.0312v.96875c0 .55833-.47292 1-1.0312 1s-1-.44167-1-1v-.96875c0-.55833.44167-1.0312 1-1.0312zm4 0c.55833 0 1 .47292 1 1.0312v.96875c0 .55833-.44167 1-1 1s-1-.44167-1-1v-.96875c0-.55833.44167-1.0312 1-1.0312zm-6 4 4 1 4-1c.0825.59047-.16081 1.054-.67132 1.1678l-1.3287.33217 1.3088.32721c.71468.1915.69117.74919.69117 1.1728l-4-1-4 1c-.0655-.63125.0374-.98324.52023-1.1301l1.4798-.36994-1.5041-.33502c-.47451-.12796-.57901-.68121-.49587-1.165z" transform="translate(-521 -539)"/><path d="m8 0a8 8 0 0 0 -8 8 8 8 0 0 0 8 8 8 8 0 0 0 8-8 8 8 0 0 0 -8-8zm0 1a7 7 0 0 1 7 7 7 7 0 0 1 -7 7 7 7 0 0 1 -7-7 7 7 0 0 1 7-7z"/></g></svg>