<svg height="16" width="16" xmlns="http://www.w3.org/2000/svg"><path d="m6.46875 5.09375c.3520298 0 .625.4523975.625 1 0 .1711258-.013443.3282582-.0625.46875-.087595.3498906-.3065837.59375-.5625.59375-.2559171 0-.4749049-.2438594-.5625-.59375-.049065-.1404918-.09375-.2976242-.09375-.46875 0-.5476025.3042248-1 .65625-1zm3.0625 0c.3520298 0 .65625.4523975.65625 1 0 .1711258-.04469.3282582-.09375.46875-.0876.3498906-.3065837.59375-.5625.59375-.2559171 0-.4749048-.2438594-.5625-.59375-.049061-.1404918-.0625-.2976242-.0625-.46875 0-.5476025.2729734-1 .625-1zm-1.34375 3.625c.558048.018344 1.106033.133122 1.625.34375.928916.360154 1.769479 1.020996 2.3125 1.90625.01776-.0025.04405 0 .0625 0 .212805 0 .375.162194.375.375s-.162195.375-.375.375c-.212806 0-.375-.162194-.375-.375 0-.08832.01253-.15376.0625-.21875-1.521692-1.6091502-3.959343-1.966486-5.9375-1.1875-.664677.269572-1.31495.649891-1.8125 1.1875.04255.06197.0625.1379.0625.21875 0 .212806-.162194.375-.375.375-.212805 0-.375-.162194-.375-.375s.162195-.375.375-.375c.02801 0 .03619-.0057.0625 0 .923802-1.517712 2.638356-2.305032 4.3125-2.25z" fill="#bebebe"/><path d="m8 0a8 8 0 0 0 -8 8 8 8 0 0 0 8 8 8 8 0 0 0 8-8 8 8 0 0 0 -8-8zm0 1a7 7 0 0 1 7 7 7 7 0 0 1 -7 7 7 7 0 0 1 -7-7 7 7 0 0 1 7-7z" fill="#babdb6"/></svg>