<svg height="16" width="16" xmlns="http://www.w3.org/2000/svg"><g fill="#babdb6"><path d="m447 544c.55833 0 1.0312.47292 1.0312 1.0312v.96875c0 .55833-.47292 1-1.0312 1s-1-.44167-1-1v-.96875c0-.55833.44167-1.0312 1-1.0312zm4 0c.55833 0 1 .47292 1 1.0312v.96875c0 .55833-.44167 1-1 1s-1-.44167-1-1v-.96875c0-.55833.44167-1.0312 1-1.0312zm2 4.9781c-.0291.34377-.92509 3.0032-4 3.0094-2.7886.006-4-2.5584-4-2.9844z" transform="translate(-441 -539)"/><path d="m8 0a8 8 0 0 0 -8 8 8 8 0 0 0 8 8 8 8 0 0 0 8-8 8 8 0 0 0 -8-8zm0 1a7 7 0 0 1 7 7 7 7 0 0 1 -7 7 7 7 0 0 1 -7-7 7 7 0 0 1 7-7z"/><path d="m.9375 1.0625-.09375.59375c-.02525111.2047608.04940575.9642644.5410156 1.8574219.8787452 1.0285348 2.8896137 1.2191377 2.0014061-.7487697-.688154-.3272503-2.0418568-1.3465538-2.4486717-1.7024022zm14.15625.15625c-.388264.3396068-.967912.655005-1.613281.9609375-.281274.3641866-.571417.4756179-.695245.7256093-.733629 1.4810946 1.100961 1.2866722 1.865167.6552501.466041-.8473588.561677-1.549419.537109-1.7480469z"/></g></svg>