<svg height="16" width="16" xmlns="http://www.w3.org/2000/svg"><path d="m6.4587268 5.0996414c.3520298 0 .636613.4429171.636613.9905196 0 .1711258-.026329.3327797-.075386.4732715-.087595.3498906-.305308.5989188-.5612243.5989188-.2559171 0-.47363-.2490282-.5612251-.5989188-.049065-.1404918-.075386-.3021457-.075386-.4732715 0-.5476025.2845832-.9905196.6366138-.9905196zm3.0825472 0c.3520298 0 .636613.4429171.636613.9905196 0 .1711258-.02633.3327797-.07539.4732715-.0876.3498906-.3053083.5989188-.5612246.5989188-.2559171 0-.4736299-.2490282-.5612251-.5989188-.0490613-.1404918-.0753822-.3021457-.0753822-.4732715 0-.5476025.2845823-.9905196.6366129-.9905196zm-5.7462707 3.1684062c.2128055 0 .3853188.1725128.3853188.3853184 0 .080851-.024456.1558208-.067012.2177887.4975503.5376091 1.1195152.936642 1.7841915 1.2062143 1.9781576.778986 4.4465554.419689 5.9682474-1.1894612-.04997-.064986-.07957-.1462227-.07957-.2345418 0-.2128056.172513-.3853184.385319-.3853184.212805 0 .385319.1725128.385319.3853184 0 .2128058-.172514.3853185-.385319.3853185-.01845 0-.03669-.00168-.05445-.00419-.543021.8852544-1.37043 1.5475905-2.299346 1.9077445-2.0758672.842512-4.7092882.111683-5.9410244-1.9119328-.026313.00567-.053663.00838-.08167.00838-.2128046 0-.3853187-.1725128-.3853187-.3853184 0-.2128057.1725141-.3853185.3853187-.3853185z" fill="#bebebe"/><path d="m8 0a8 8 0 0 0 -8 8 8 8 0 0 0 8 8 8 8 0 0 0 8-8 8 8 0 0 0 -8-8zm0 1a7 7 0 0 1 7 7 7 7 0 0 1 -7 7 7 7 0 0 1 -7-7 7 7 0 0 1 7-7z" fill="#babdb6"/></svg>