<svg height="16" width="16" xmlns="http://www.w3.org/2000/svg"><g fill="#babdb6"><path d="m507 544c.55833 0 1.0312.47292 1.0312 1.0312v.96875c0 .55833-.47292 1-1.0312 1s-1-.44167-1-1v-.96875c0-.55833.44167-1.0312 1-1.0312zm4 0c.55833 0 1 .47292 1 1.0312v.96875c0 .55833-.44167 1-1 1s-1-.44167-1-1v-.96875c0-.55833.44167-1.0312 1-1.0312zm-6 4 8 2v1l-8-2z" transform="translate(-501 -539)"/><path d="m8 0a8 8 0 0 0 -8 8 8 8 0 0 0 8 8 8 8 0 0 0 8-8 8 8 0 0 0 -8-8zm0 1a7 7 0 0 1 7 7 7 7 0 0 1 -7 7 7 7 0 0 1 -7-7 7 7 0 0 1 7-7z"/></g></svg>