<svg height="16" width="16" xmlns="http://www.w3.org/2000/svg"><path d="m9.28125 5.1875.84375.53125c.03218.1185301.0625.2380994.0625.375 0 .1711258-.04469.3282582-.09375.46875-.0876.3498906-.3065837.59375-.5625.59375-.2559171 0-.4749048-.2438594-.5625-.59375-.049061-.1404918-.0625-.2976242-.0625-.46875 0-.4107019.14645-.7560107.375-.90625zm-2.53125.03125c.2084018.1626299.34375.4871149.34375.875 0 .1711258-.013443.3282582-.0625.46875-.087595.3498906-.3065837.59375-.5625.59375-.2559171 0-.4749049-.2438594-.5625-.59375-.049065-.1404918-.09375-.2976242-.09375-.46875 0-.1369006.03032-.2564699.0625-.375zm-1.59375 4.84375h5.6875c.34625 0 .625.27875.625.625v.8125c0 .34625-.27875.625-.625.625h-5.6875c-.34625 0-.625-.27875-.625-.625v-.8125c0-.34625.27875-.625.625-.625z" fill="#bebebe"/><path d="m8 0a8 8 0 0 0 -8 8 8 8 0 0 0 8 8 8 8 0 0 0 8-8 8 8 0 0 0 -8-8zm0 1a7 7 0 0 1 7 7 7 7 0 0 1 -7 7 7 7 0 0 1 -7-7 7 7 0 0 1 7-7z" fill="#babdb6"/></svg>