<svg height="16" width="16" xmlns="http://www.w3.org/2000/svg"><g fill="#babdb6"><path d="m13.433594 1.21875c-.97487.0013511-2.159939.2160467-3.394532.5371094 1.812228.232229 3.342838 1.2548683 4.273438 3.2441406h-2.59375c-.3504-.58405-.99227-.96875-1.71875-.96875-.56579 0-1.07266.24358-1.4375.625-.19962-.13435-.42813-.15625-.59375-.15625-.15012 0-.36185.0238-.5625.15625-.3648-.38142-.87171-.625-1.4375-.625-.72653 0-1.36838.3847-1.71875.96875h-1.8867188c-.0114055.0077007-.0180404.0138128-.0292968.0214844l-.6464844-.0214844-.40625 1h2.6875c-.00016.0104 0 .02075 0 .03125v.96875c0 1.09935.90065 2 2 2s2-.9006 2-2v-.96875c0-.06386-.02525-.1251-.03125-.1875-.001-.0094.03225-.02225.03125-.03125.0099.0108.02035.02125.03125.03125-.001.0208-.001.0417 0 .0625-.003.0414 0 .083 0 .125v.96875c0 1.09935.90065 2 2 2s2-.9006 2-2v-.96875c0-.0105.00016-.02075 0-.03125h2.71875c2.296568-3.5748863 1.127938-4.7845943-1.285156-4.78125zm-11.746094 3.78125h.6757812c1.6413418-1.1081813 4.8035315-2.4971957 7.6757808-3.2441406-2.5134381-.3220862-5.5717029.8871482-8.351562 3.2441406zm4.28125.03125c.56265 0 1 .43735 1 1v.96875c0 .56265-.43735 1-1 1s-1-.43735-1-1v-.96875c0-.56265.43735-1 1-1zm4.03125 0c.56265 0 1 .43735 1 1v.96875c0 .56265-.43735 1-1 1s-1-.43735-1-1v-.96875c0-.56265.43735-1 1-1zm-7 5.03125v.5c0 .53246 1.7442 1.40625 5 1.40625s5-.72527 5-1.40625v-.5c-1.1954.9683-4.0165.9375-5 .9375s-4.00344-.3006-5-.9375z"/><path d="m8 0a8 8 0 0 0 -8 8 8 8 0 0 0 8 8 8 8 0 0 0 8-8 8 8 0 0 0 -8-8zm0 1a7 7 0 0 1 7 7 7 7 0 0 1 -7 7 7 7 0 0 1 -7-7 7 7 0 0 1 7-7z"/></g></svg>