<svg height="16" width="16" xmlns="http://www.w3.org/2000/svg"><g fill="#babdb6"><path d="m626.5312 543c.73437 0 1.4688.44603 1.4688 1.3125-1.5-.33848-3.125 1.7329-3 0 .0625-.86647.79688-1.3125 1.5312-1.3125zm4.9375 0c.73437 0 1.4688.44603 1.5312 1.3125.125 1.7329-1.5-.33848-3 0 0-.86647.73438-1.3125 1.4688-1.3125zm-2.4688 3c1.3807 0 2.5 1.3432 2.5 3s-1.1193 3-2.5 3-2.5-1.3432-2.5-3 1.1193-3 2.5-3z" transform="translate(-621 -539)"/><path d="m8 0a8 8 0 0 0 -8 8 8 8 0 0 0 8 8 8 8 0 0 0 8-8 8 8 0 0 0 -8-8zm0 1a7 7 0 0 1 7 7 7 7 0 0 1 -7 7 7 7 0 0 1 -7-7 7 7 0 0 1 7-7z"/></g></svg>