<svg height="16" width="16.000017" xmlns="http://www.w3.org/2000/svg"><g fill="#babdb6" transform="translate(-641.00018 -659)"><path d="m647.46895 664.0625c.37988 0 .71875.64637.71875 1.46875s-.33887 1.5-.71875 1.5-.65625-.67762-.65625-1.5.27637-1.46875.65625-1.46875zm3 0c.37988 0 .71875.64637.71875 1.46875s-.33887 1.5-.71875 1.5-.65625-.67762-.65625-1.5.27637-1.46875.65625-1.46875z"/><path d="m644.0002 670.03125s.36695 2.03125 4.96875 2.03125c4.38662 0 5.09375-2 5.09375-2s-.0395 2.97659-5.09375 2.9375c-5.1481-.0398-4.96875-2.96875-4.96875-2.96875z"/><g fill="#babdb6" transform="translate(641.00018 659)"><path d="m7.84375.03125c-1.22726.73385-1.06237 1.63247-.90625 2.03125-1.80729.26848-3.54878 1.31123-4.125 3.1875-.28347-.21168-.58797-.34375-.9375-.34375-1.03385 0-1.875 1.08269-1.875 2.375s.84115 2.34375 1.875 2.34375c.46667 0 .88574-.21164 1.21875-.5625.3789745-.1775159.7959982-.3290237 1.2304688-.4628906a4 4 0 0 1 -.3242188-1.5664063 4 4 0 0 1 4-4 4 4 0 0 1 4 4 4 4 0 0 1 -.306641 1.53125c.449225.1460991.880884.3169844 1.275391.5292969.31962.32225.71112.53125 1.15625.53125 1.03385 0 1.875-1.05144 1.875-2.34375s-.84115-2.375-1.875-2.375c-.42839 0-.81111.19311-1.125.5-.50745-1.70199-1.83978-2.91021-3.8125-3.28125-.17036-.63874-.28432-1.91587 1.625-1.78125-2.16948-.79311-2.71875 1.625-2.71875 1.625-.26551-.11722-.96537-.6383-.25-1.9375zm-5.84375 5.9375c.25587 0 .47396.14945.65625.34375-.0332.52908-.0185 1.11829.125 1.75-.19168.29374-.45209.5-.78125.5-.57176 0-1.03125-.56655-1.03125-1.28125s.45949-1.3125 1.03125-1.3125zm12.03125 0c.57182 0 1.0625.59772 1.0625 1.3125s-.49068 1.28125-1.0625 1.28125c-.37247 0-.65921-.26193-.84375-.625.055-.48001.0368-.93512 0-1.375.18776-.35024.48432-.59375.84375-.59375z"/><path d="m8 8a8 4 0 0 0 -8 4 8 4 0 0 0 8 4 8 4 0 0 0 8-4 8 4 0 0 0 -8-4zm0 1a7 3 0 0 1 7 3 7 3 0 0 1 -7 3 7 3 0 0 1 -7-3 7 3 0 0 1 7-3z"/></g></g></svg>