<svg height="22" viewBox="0 0 5.8208332 5.8208336" width="22" xmlns="http://www.w3.org/2000/svg"><g fill="#555"><path d="m.79378.79378h4.231303v.264576h-4.231303z"/><path d="m.785851 1.58751h2.914202v.264576h-2.914202z"/><path d="m.785851 2.38127h4.239232v.264576h-4.239232z"/><path d="m.789954 3.17501h2.914202v.264576h-2.914202z"/><path d="m.78388 3.96874h3.449436v.264576h-3.449436z"/><path d="m.78388 4.76247h4.239232v.264576h-4.239232z"/></g><g fill="#fff" fill-opacity=".392157"><path d="m.79375.52916h4.231303v.264576h-4.231303z"/><path d="m.785821 1.32289h2.914202v.264576h-2.914202z"/><path d="m.785821 2.11666h4.239232v.264576h-4.239232z"/><path d="m.789924 2.91039h2.914202v.264576h-2.914202z"/><path d="m.78385 3.70412h3.449436v.264576h-3.449436z"/><path d="m.78385 4.49785h4.239232v.264576h-4.239232z"/></g></svg>