<svg height="22" viewBox="0 0 5.8208332 5.8208336" width="22" xmlns="http://www.w3.org/2000/svg"><g fill="#555"><path d="m.794765.79378h4.231303v.264576h-4.231303z"/><path d="m1.5875 1.58751h2.645833v.264571h-2.645833z"/><path d="m.790801 2.38127h4.239232v.264576h-4.239232z"/><path d="m1.5875 3.17501h2.645834v.264594h-2.645834z"/><path d="m1.322917 3.96874h3.175v.264595h-3.175z"/><path d="m.790801 4.76247h4.239232v.264576h-4.239232z"/></g><path d="m.794765.52916h4.231303v.264576h-4.231303z" fill="#fff" fill-opacity=".392157"/><path d="m1.5875 1.32293h2.645833v.264575h-2.645833z" fill="#fff" fill-opacity=".392157"/><path d="m.790801 2.11666h4.239232v.264576h-4.239232z" fill="#fff" fill-opacity=".392157"/><path d="m1.5875 2.91042h2.645834v.26459h-2.645834z" fill="#fff" fill-opacity=".392157"/><path d="m1.322917 3.70418h3.175v.264569h-3.175z" fill="#fff" fill-opacity=".392157"/><path d="m.790801 4.49785h4.239232v.264576h-4.239232z" fill="#fff" fill-opacity=".392157"/></svg>