<svg height="22" viewBox="0 0 5.8208332 5.8208336" width="22" xmlns="http://www.w3.org/2000/svg"><g fill="#555" transform="matrix(-1 0 0 1 0 -291.17915)"><path d="m-5.015153 291.97293h4.231303v.264576h-4.231303z"/><path d="m-5.023082 292.76666h2.914202v.264576h-2.914202z"/><path d="m-5.023082 293.56042h4.239232v.264576h-4.239232z"/><path d="m-5.018979 294.35416h2.914202v.264576h-2.914202z"/><path d="m-5.025053 295.14789h3.449436v.264576h-3.449436z"/><path d="m-5.025053 295.94162h4.239232v.264576h-4.239232z"/></g><g fill="#fff" fill-opacity=".392157" transform="matrix(-1 0 0 1 5.808933 -291.17915)"><path d="m.79375 291.70831h4.231303v.264576h-4.231303z"/><path d="m.785821 292.50204h2.914202v.264576h-2.914202z"/><path d="m.785821 293.29581h4.239232v.264576h-4.239232z"/><path d="m.789924 294.08954h2.914202v.264576h-2.914202z"/><path d="m.78385 294.88327h3.449436v.264576h-3.449436z"/><path d="m.78385 295.677h4.239232v.264576h-4.239232z"/></g></svg>