<svg height="22" viewBox="0 0 5.8208332 5.8208336" width="22" xmlns="http://www.w3.org/2000/svg"><g fill="#555"><path d="m.79377985938.79378125h4.23130296875v.26457646875h-4.23130296875z"/><path d="m.79377985938 1.58751890625h4.23327385938v.26457646875h-4.23327385938z"/><path d="m.78585057813 2.38126h4.23923173438v.26457646875h-4.23923173438z"/><path d="m.79377985938 3.1749959375h4.23327385938v.26457646875h-4.23327385938z"/><path d="m.79377985938 3.96873359375h4.23327351563v.26457646875h-4.23327351563z"/><path d="m.78387951562 4.7624746875h4.23923207813v.26457646875h-4.23923207813z"/></g><g fill="#fff" fill-opacity=".392157"><path d="m.79374985938.52916125h4.23130296875v.26457646875h-4.23130296875z"/><path d="m.79374985938 1.32289890625h4.23327385938v.26457646875h-4.23327385938z"/><path d="m.78582057813 2.11664h4.23923173438v.26457646875h-4.23923173438z"/><path d="m.79374985938 2.9103759375h4.23327385938v.26457646875h-4.23327385938z"/><path d="m.79374985938 3.70411359375h4.23327351563v.26457646875h-4.23327351563z"/><path d="m.78384951563 4.4978546875h4.23923207813v.26457646875h-4.23923207813z"/></g></svg>