<svg height="22" viewBox="0 0 5.8208332 5.8208335" width="22" xmlns="http://www.w3.org/2000/svg" xmlns:xlink="http://www.w3.org/1999/xlink"><filter id="a"><feGaussianBlur stdDeviation="1.92"/></filter><linearGradient id="b" gradientTransform="matrix(.18898809 0 0 .19108795 -6.963889 282.77557)" gradientUnits="userSpaceOnUse" x1="101.09873" x2="101.09873" y1="31.740467" y2="95.845909"><stop offset="0" stop-color="#e5edf8"/><stop offset="1" stop-color="#fafafa"/></linearGradient><linearGradient id="c" gradientTransform="matrix(.18898809 0 0 .19108795 -6.963889 282.77557)" gradientUnits="userSpaceOnUse" x1="101.09873" x2="101.09873" y1="32.7673" y2="84.340691"><stop offset="0" stop-color="#cfdff4"/><stop offset="1" stop-color="#fafafa"/></linearGradient><clipPath id="d"><path d="m8 30.477533h112v71.191017h-112z"/></clipPath><filter id="e"><feGaussianBlur stdDeviation="1.5362957"/></filter><linearGradient id="f" gradientTransform="matrix(.18898809 0 0 .21647727 -6.963889 280.23664)" gradientUnits="userSpaceOnUse" x1="68.019264" x2="68.019264" xlink:href="#g" y1="48.347881" y2="98.134933"/><linearGradient id="g"><stop offset="0" stop-color="#e0e0e0"/><stop offset="1" stop-color="#fff"/></linearGradient><clipPath id="h"><path d="m8 28.500002h112v71.191017h-112z"/></clipPath><filter id="i"><feGaussianBlur stdDeviation="1.56"/></filter><linearGradient id="j" gradientTransform="matrix(.18898809 0 0 .19242423 -6.963889 282.73815)" gradientUnits="userSpaceOnUse" x1="87.53772" x2="87.53772" xlink:href="#g" y1="86.377098" y2="23.310532"/><linearGradient id="k" gradientTransform="matrix(.18898809 0 0 .26458333 -6.963889 275.42603)" gradientUnits="userSpaceOnUse" x1="88.56501" x2="88.56501" y1="100.00008" y2="98"><stop offset="0"/><stop offset="1" stop-opacity="0"/></linearGradient><linearGradient id="l" gradientTransform="matrix(.18898809 0 0 .26458333 -6.963889 280.7177)" gradientUnits="userSpaceOnUse" x1="70.382027" x2="70.382027" y1="28" y2="31"><stop offset="0" stop-color="#fff"/><stop offset="1" stop-color="#fff" stop-opacity="0"/></linearGradient><g opacity=".5" transform="matrix(.22720049 0 0 .22720049 1.410473 -64.93049)"><path d="m6 28.5h112v72h-112z" style="opacity:.5;stroke:#000;stroke-width:5.599081;stroke-linecap:round;stroke-linejoin:round;filter:url(#a)" transform="matrix(.18898809 0 0 .18905014 -6.585913 282.87039)"/><path d="m-5.451984 288.12604h21.166666v13.758333h-21.166666z" fill="url(#b)" opacity="1"/><path d="m-5.451984 288.12604h21.166666v13.758333h-21.166666z" fill="url(#c)" opacity="1"/><path clip-path="url(#d)" d="m8 34.596413 56 37.903587 56-37.903587v-4h-112z" fill="#00438a" filter="url(#e)" opacity=".5" transform="matrix(.18898809 0 0 -.25241533 -6.963889 309.60114)"/><path d="m-5.4519843 301.01845 10.5833334-8.65909 10.5833329 8.65909v.86591h-21.1666663z" fill="url(#f)" opacity="1"/><path clip-path="url(#h)" d="m8 32.5 56 40 56-40v-4h-112z" fill="#00438a" filter="url(#i)" opacity=".6" transform="matrix(.18898809 0 0 .20445074 -6.963889 282.29918)"/><path d="m-5.4519843 288.89573 10.5833334 7.69697 10.5833329-7.69697v-.7697h-21.1666663z" fill="url(#j)" opacity="1"/><path d="m-5.4519843 300.82603v1.05833h21.1666663v-1.05833z" fill="url(#k)" opacity=".2"/><path d="m-5.4519843 288.12603v.79375h21.1666663v-.79375z" fill="url(#l)" opacity="1"/></g><g transform="matrix(.22720049 0 0 .22720049 2.073438 -63.04767)"><path d="m6 28.5h112v72h-112z" style="opacity:.5;stroke:#000;stroke-width:5.599081;stroke-linecap:round;stroke-linejoin:round;filter:url(#a)" transform="matrix(.18898809 0 0 .18905014 -6.585913 282.87039)"/><path d="m-5.451984 288.12604h21.166666v13.758333h-21.166666z" fill="url(#b)"/><path d="m-5.451984 288.12604h21.166666v13.758333h-21.166666z" fill="url(#c)"/><path clip-path="url(#d)" d="m8 34.596413 56 37.903587 56-37.903587v-4h-112z" fill="#00438a" filter="url(#e)" opacity=".5" transform="matrix(.18898809 0 0 -.25241533 -6.963889 309.60114)"/><path d="m-5.4519843 301.01845 10.5833334-8.65909 10.5833329 8.65909v.86591h-21.1666663z" fill="url(#f)"/><path clip-path="url(#h)" d="m8 32.5 56 40 56-40v-4h-112z" fill="#00438a" filter="url(#i)" opacity=".6" transform="matrix(.18898809 0 0 .20445074 -6.963889 282.29918)"/><path d="m-5.4519843 288.89573 10.5833334 7.69697 10.5833329-7.69697v-.7697h-21.1666663z" fill="url(#j)"/><path d="m-5.4519843 300.82603v1.05833h21.1666663v-1.05833z" fill="url(#k)" opacity=".2"/><path d="m-5.4519843 288.12603v.79375h21.1666663v-.79375z" fill="url(#l)"/></g></svg>