<svg height="22" width="22" xmlns="http://www.w3.org/2000/svg" xmlns:xlink="http://www.w3.org/1999/xlink"><linearGradient id="a" gradientTransform="matrix(.09253752 0 0 .14870594 30.566011 -45.145524)" gradientUnits="userSpaceOnUse" x1="399.77466" x2="399.77466" y1="1164.6696" y2="549.06134"><stop offset="0" stop-color="#717174"/><stop offset=".5" stop-color="#9c9ca1"/><stop offset="1" stop-color="#cdcdd1"/></linearGradient><radialGradient id="b" cx="-33.5" cy="194.5" gradientTransform="matrix(6.6492665 0 0 6.6492656 305.03583 -1210.9967)" gradientUnits="userSpaceOnUse" r="5.5"><stop offset="0" stop-color="#a9cbfc"/><stop offset="1" stop-color="#aecffc"/></radialGradient><radialGradient id="c" cx="82.2854592" cy="82.2855324" gradientUnits="userSpaceOnUse" r="36.5709608"><stop offset="0" stop-color="#8fbcff"/><stop offset="1" stop-color="#80b3ff"/></radialGradient><linearGradient id="d" gradientTransform="matrix(.09253752 0 0 .14870594 -6.00486 -81.716489)" gradientUnits="userSpaceOnUse" x1="399.77466" x2="399.77466" y1="1164.6696" y2="549.06134"><stop offset="0" stop-color="#717174"/><stop offset=".5" stop-color="#9c9ca1"/><stop offset="1" stop-color="#bdbdc2"/></linearGradient><linearGradient id="e" gradientTransform="matrix(.76189483 0 0 1.0158609 -3.046726 -19.300523)" gradientUnits="userSpaceOnUse" x1="119.57646" x2="15.999996" y1="23.792561" y2="109.6508"><stop offset="0" stop-color="#fff"/><stop offset=".42597079" stop-color="#fff"/><stop offset=".5892781" stop-color="#e5e5e5"/><stop offset=".80219781" stop-color="#eaeaea"/><stop offset="1" stop-color="#eee"/></linearGradient><linearGradient id="f" gradientTransform="matrix(0 -1.8256937 -2.2856842 0 118.85641 200.15699)" gradientUnits="userSpaceOnUse" x1="102.31124" x2="74.330322" y1="-5.830213" y2="32"><stop offset="0" stop-color="#fff"/><stop offset="1" stop-color="#fff" stop-opacity="0"/></linearGradient><g transform="matrix(.171875 0 0 .171875 .000069 -.00007)"><g><rect fill="url(#d)" height="93.088768" opacity=".75" rx="3.628262" ry="4.219727" transform="matrix(0 1 1 0 0 0)" width="93.090576" x=".000823" y=".000834"/><g fill-rule="evenodd"><rect fill="url(#e)" height="81.4534" rx="1.687967" ry="2.031721" transform="matrix(0 1 1 0 0 0)" width="81.453384" x="5.819876" y="5.818101"/><path d="m87.271501 29.782112c-21.549668 19.505031-53.169498 40.282458-81.4534014 51.673124v-49.693172c27.0784584-2.783233 59.8518024-13.964988 81.4534014-25.9421605z" fill="url(#f)"/></g></g><g><rect fill="url(#a)" height="93.090599" opacity=".75" rx="3.628262" ry="4.219727" transform="matrix(0 1 1 0 0 0)" width="93.088783" x="34.910397" y="34.9086"/><g fill-rule="evenodd"><rect fill="url(#b)" height="81.453392" rx="1.687967" ry="2.031721" transform="matrix(0 1 1 0 0 0)" width="81.45343" x="40.72847" y="40.726704"/><path d="m122.1801 62.061746c-21.54967 19.505031-53.169413 48.729524-81.4534 60.120154v-49.693224c27.078544-2.783233 59.85172-19.783062 81.4534-31.760144z" fill="url(#c)"/></g></g></g></svg>