<svg height="22" width="22" xmlns="http://www.w3.org/2000/svg" xmlns:xlink="http://www.w3.org/1999/xlink"><linearGradient id="a"><stop offset="0" stop-color="#fff"/><stop offset="1" stop-color="#fff" stop-opacity="0"/></linearGradient><linearGradient id="b"><stop offset="0" stop-color="#b4b4b6"/><stop offset=".5" stop-color="#9c9ca1"/><stop offset="1" stop-color="#cdcdd1"/></linearGradient><linearGradient id="c"><stop offset="0" stop-color="#fff"/><stop offset=".42597079" stop-color="#fff"/><stop offset=".5892781" stop-color="#f1f1f1"/><stop offset=".80219781" stop-color="#eaeaea"/><stop offset="1" stop-color="#dfdfdf"/></linearGradient><linearGradient id="d" gradientTransform="matrix(.04048566 0 0 .09108347 -62.26377 -147.87058)" gradientUnits="userSpaceOnUse" x1="262.41599" x2="1053.0587" xlink:href="#b" y1="895.66272" y2="895.66272"/><linearGradient id="e" gradientTransform="matrix(.2500001 0 0 .5555557 -55.636204 -105.37365)" gradientUnits="userSpaceOnUse" x1="3.188257" x2="111.99998" xlink:href="#c" y1="112.81035" y2="27.99999"/><linearGradient id="f" gradientTransform="matrix(1.0017897 0 0 .60016843 -17.845657 18.033508)" gradientUnits="userSpaceOnUse" x1="102.31124" x2="74.330322" xlink:href="#a" y1="-5.830213" y2="32"/><linearGradient id="g" gradientTransform="matrix(.04048566 0 0 .09108347 -62.263769 -83.871483)" gradientUnits="userSpaceOnUse" x1="262.41599" x2="1053.0587" xlink:href="#b" y1="895.66272" y2="895.66272"/><linearGradient id="h" gradientTransform="matrix(.2500001 0 0 .5555557 -55.636199 -41.374555)" gradientUnits="userSpaceOnUse" x1="3.188257" x2="111.99998" xlink:href="#c" y1="112.81035" y2="27.99999"/><linearGradient id="i" gradientTransform="matrix(1.0017897 0 0 .60016843 -81.844757 18.033509)" gradientUnits="userSpaceOnUse" x1="102.31124" x2="74.330322" xlink:href="#a" y1="-5.830213" y2="32"/><linearGradient id="j" gradientTransform="matrix(.72532124 -.00035579 .00035579 .72532124 23.399659 75.680108)" gradientUnits="userSpaceOnUse" x1="113.15723" x2="-32.268856" y1="25.786163" y2="23.967684"><stop offset="0" stop-color="#0968ef"/><stop offset="1" stop-color="#aecffc"/></linearGradient><g transform="matrix(.171875 0 0 .171875 .000155 -.00015)"><g transform="translate(23.2724)"><rect fill="url(#d)" height="52.3629" rx="3.823639" transform="matrix(0 -1 -1 0 0 0)" width="34.9086" x="-52.3647" y="-98.9077"/><path d="m-46.5466-93.0896h23.2724v40.7267h-23.2724z" fill="url(#e)" fill-rule="evenodd" transform="matrix(0 -1 -1 0 0 0)"/><path d="m72.669612 23.636199c-10.702687 5.65844-19.586978 15.77867-25.837222 23.20539h27.267464c1.527198-7.11018 5.146196-17.53329 11.718247-23.20539z" fill="url(#f)" fill-rule="evenodd"/><rect fill="url(#g)" height="52.3629" rx="3.823639" transform="matrix(0 -1 -1 0 0 0)" width="34.9086" x="-52.3647" y="-34.908604"/><g fill-rule="evenodd"><path d="m-46.5466-29.090502h23.2724v40.7267h-23.2724z" fill="url(#h)" transform="matrix(0 -1 -1 0 0 0)"/><path d="m8.6705116 23.636199c-10.7026868 5.65844-19.5869776 15.77867-25.8372216 23.20539h27.267464c1.527198-7.11018 5.146196-17.53329 11.718247-23.20539z" fill="url(#i)"/></g></g><path d="m110.44816 95.94641-17.414832-14.49789-2.881616 2.884455 5.660871 8.719325-78.358283.0391.003 5.80256 78.358283-.0391-5.652444 8.5789 2.884524 3.02761 17.400587-14.514971z" fill="url(#j)" fill-rule="evenodd"/></g></svg>