<svg height="22" width="22" xmlns="http://www.w3.org/2000/svg" xmlns:xlink="http://www.w3.org/1999/xlink"><linearGradient id="a" gradientTransform="matrix(.04048566 0 0 .09108347 -50.62757 -142.05248)" gradientUnits="userSpaceOnUse" x1="262.41599" x2="1053.0587" y1="895.66272" y2="895.66272"><stop offset="0" stop-color="#b4b4b6"/><stop offset=".5" stop-color="#9c9ca1"/><stop offset="1" stop-color="#cdcdd1"/></linearGradient><linearGradient id="b" gradientTransform="matrix(.2500001 0 0 .5555557 -44.000004 -99.55555)" gradientUnits="userSpaceOnUse" x1="3.188257" x2="111.99998" y1="112.81035" y2="27.99999"><stop offset="0" stop-color="#fff"/><stop offset=".42597079" stop-color="#fff"/><stop offset=".5892781" stop-color="#f1f1f1"/><stop offset=".80219781" stop-color="#eaeaea"/><stop offset="1" stop-color="#dfdfdf"/></linearGradient><linearGradient id="c" gradientTransform="matrix(1.0017897 0 0 .60016843 -28.028457 6.035309)" gradientUnits="userSpaceOnUse" x1="102.31124" x2="74.330322" y1="-5.830213" y2="32"><stop offset="0" stop-color="#fff"/><stop offset="1" stop-color="#fff" stop-opacity="0"/></linearGradient><linearGradient id="d" gradientTransform="matrix(.72532124 -.00035579 .00035579 .72532124 23.399659 69.862008)" gradientUnits="userSpaceOnUse" x1="63.999786" x2="71.962173" y1="-8.049313" y2="112.27576"><stop offset="0" stop-color="#0968ef"/><stop offset="1" stop-color="#aecffc"/></linearGradient><g transform="matrix(.171875 0 0 .171875 .000155 -.00015)"><g transform="translate(34.9086)"><rect fill="url(#a)" height="40.7267" rx="3.823639" transform="matrix(0 -1 -1 0 0 0)" width="110.5439" x="-116.3638" y="-81.4534"/><g fill-rule="evenodd"><path d="m-110.5457-75.6353h98.9077v29.0905h-98.9077z" fill="url(#b)" transform="matrix(0 -1 -1 0 0 0)"/><path d="m62.486812 11.638c-10.702687 5.65844-9.691768 15.84568-15.942012 23.2724l17.372254-.06701c1.527198-7.11018 5.146196-17.53329 11.718246-23.20539z" fill="url(#c)"/></g></g><g transform="translate(-34.9086)"><rect fill="url(#a)" height="40.7267" rx="3.823639" transform="matrix(0 -1 -1 0 0 0)" width="110.5439" x="-116.3638" y="-81.4534"/><g fill-rule="evenodd"><path d="m-110.5457-75.6353h98.9077v29.0905h-98.9077z" fill="url(#b)" transform="matrix(0 -1 -1 0 0 0)"/><path d="m62.486812 11.638c-10.702687 5.65844-9.691768 15.84568-15.942012 23.2724l17.372254-.06701c1.527198-7.11018 5.146196-17.53329 11.718246-23.20539z" fill="url(#c)"/></g></g><rect fill="url(#a)" height="40.7267" rx="3.823639" transform="matrix(0 -1 -1 0 0 0)" width="110.5439" x="-116.3638" y="-81.4534"/><g fill-rule="evenodd"><path d="m-110.5457-75.6353h98.9077v29.0905h-98.9077z" fill="url(#b)" transform="matrix(0 -1 -1 0 0 0)"/><path d="m62.486812 11.638c-10.702687 5.65844-9.691768 15.84568-15.942012 23.2724l17.372254-.06701c1.527198-7.11018 5.146196-17.53329 11.718246-23.20539z" fill="url(#c)"/><path d="m93.033203 75.631119-2.880859 2.882812 5.660156 8.720703-50.392578.02539-19.048828-.0098 5.660156-8.720703-2.880859-2.882812-17.416016 14.498047 17.400391 14.513664 2.884765-3.02733-5.640625-8.5586 19.041016-.0098 50.363281.02539-5.619141 8.52734 2.882813 3.02735 17.400395-14.513674z" fill="url(#d)"/></g></g></svg>