<svg height="22" width="22" xmlns="http://www.w3.org/2000/svg" xmlns:xlink="http://www.w3.org/1999/xlink"><linearGradient id="a"><stop offset="0" stop-color="#fff"/><stop offset="1" stop-color="#fff" stop-opacity="0"/></linearGradient><linearGradient id="b"><stop offset="0" stop-color="#b4b4b6"/><stop offset=".5" stop-color="#9c9ca1"/><stop offset="1" stop-color="#cdcdd1"/></linearGradient><linearGradient id="c"><stop offset="0" stop-color="#fff"/><stop offset=".42597079" stop-color="#fff"/><stop offset=".5892781" stop-color="#f1f1f1"/><stop offset=".80219781" stop-color="#eaeaea"/><stop offset="1" stop-color="#dfdfdf"/></linearGradient><linearGradient id="d" gradientTransform="matrix(.04048566 0 0 .09108347 -50.627571 -142.05248)" gradientUnits="userSpaceOnUse" x1="262.41599" x2="1053.0587" xlink:href="#b" y1="895.66272" y2="895.66272"/><linearGradient id="e" gradientTransform="matrix(.2500001 0 0 .5555557 -44.000005 -99.555552)" gradientUnits="userSpaceOnUse" x1="3.188257" x2="111.99998" xlink:href="#c" y1="112.81035" y2="27.99999"/><linearGradient id="f" gradientTransform="matrix(1.0017897 0 0 .60016843 -23.66376 6.39731)" gradientUnits="userSpaceOnUse" x1="102.31124" x2="74.330322" xlink:href="#a" y1="-5.830213" y2="32"/><linearGradient id="g" gradientTransform="matrix(.04048566 0 0 .09108347 -126.26287 -142.05248)" gradientUnits="userSpaceOnUse" x1="262.41599" x2="1053.0587" xlink:href="#b" y1="895.66272" y2="895.66272"/><linearGradient id="h" gradientTransform="matrix(.2500001 0 0 .5555557 -119.6353 -99.555552)" gradientUnits="userSpaceOnUse" x1="3.188257" x2="111.99998" xlink:href="#c" y1="112.81035" y2="27.99999"/><linearGradient id="i" gradientTransform="matrix(1.0017897 0 0 .60016843 -23.66376 82.03261)" gradientUnits="userSpaceOnUse" x1="102.31124" x2="74.330322" xlink:href="#a" y1="-5.830213" y2="32"/><linearGradient id="j" gradientTransform="matrix(-.00035579 -.72532124 .72532124 -.00035579 11.694748 104.60334)" gradientUnits="userSpaceOnUse" x1="113.15723" x2="-32.268856" y1="25.786163" y2="23.967684"><stop offset="0" stop-color="#0968ef"/><stop offset="1" stop-color="#aecffc"/></linearGradient><g transform="matrix(.171875 0 0 .171875 .000155 -.00015)"><g transform="translate(23.2724)"><rect fill="url(#d)" height="52.3629" rx="3.823639" transform="matrix(0 -1 -1 0 0 0)" width="34.9086" x="-40.7285" y="-93.0896"/><path d="m-34.9104-87.2715h23.2724v40.7267h-23.2724z" fill="url(#e)" fill-rule="evenodd" transform="matrix(0 -1 -1 0 0 0)"/><path d="m66.851509 12c-10.702687 5.65844-19.586978 15.77867-25.837222 23.20539h27.267464c1.527198-7.11018 5.146196-17.53329 11.718247-23.20539z" fill="url(#f)" fill-rule="evenodd"/><rect fill="url(#g)" height="52.3629" rx="3.823639" transform="matrix(0 -1 -1 0 0 0)" width="34.9086" x="-116.3638" y="-93.0896"/><g fill-rule="evenodd"><path d="m-110.5457-87.2715h23.2724v40.7267h-23.2724z" fill="url(#h)" transform="matrix(0 -1 -1 0 0 0)"/><path d="m66.851509 87.6353c-10.702687 5.65844-19.586978 15.77867-25.837222 23.20539h27.267464c1.527198-7.11018 5.146196-17.53329 11.718247-23.20539z" fill="url(#i)"/></g></g><path d="m31.96105 17.554843-14.49789 17.414829 2.884455 2.881616 8.719325-5.660872.0391 78.358284 5.80256-.003-.0391-78.358283 8.5789 5.652444 3.02761-2.884524-14.51497-17.400592z" fill="url(#j)" fill-rule="evenodd"/></g></svg>