<svg height="22" width="22" xmlns="http://www.w3.org/2000/svg" xmlns:xlink="http://www.w3.org/1999/xlink"><filter id="a"><feGaussianBlur stdDeviation="1.5999062"/></filter><linearGradient id="b" gradientTransform="matrix(.08097133 0 0 .117107 -1.25515 -48.3532)" gradientUnits="userSpaceOnUse" x1="399.77466" x2="399.77466" y1="731.09662" y2="480.60214"><stop offset="0" stop-color="#cbcbcd"/><stop offset=".5" stop-color="#e0e0e2"/><stop offset="1" stop-color="#f2f2f2"/></linearGradient><linearGradient id="c" gradientTransform="matrix(.08097133 0 0 .117107 78.3735 188.5229)" gradientUnits="userSpaceOnUse" x1="-333.0289" x2="-333.0289" y1="-1473.6504" y2="-776.61371"><stop offset="0" stop-color="#fff"/><stop offset=".49140647" stop-color="#fff"/><stop offset="1" stop-color="#dcdcdc"/></linearGradient><g transform="matrix(.25 0 0 .25 2 -2)"><path d="m-2.611641 15.99895h77.223281c.76597 0 1.38261.72808 1.38261 1.63246v68.73718c0 .90439-.61664 1.63247-1.38261 1.63247h-77.223281c-.765966 0-1.38261-.72808-1.38261-1.63247v-68.73718c0-.90438.616644-1.63246 1.38261-1.63246z" style="opacity:.4;fill:none;stroke:#000;stroke-width:4;stroke-linecap:round;stroke-linejoin:round;stroke-dashoffset:4;filter:url(#a)"/><path d="m-2.617195 16h77.234385c.76607 0 1.38281.72806 1.38281 1.63242v68.73516h-80.000003v-68.73516c0-.90436.616732-1.63242 1.382808-1.63242z" fill="url(#b)"/><path d="m-2.625 16c-.766076 0-1.375.72064-1.375 1.625v68.75c0 .90436.608924 1.625 1.375 1.625h77.25c.76608 0 1.375-.72064 1.375-1.625v-68.75c0-.90436-.60892-1.625-1.375-1.625zm.9375 2.4375h75.375c.72777 0 1.3125.68271 1.3125 1.53125v65.5c0 .84854-.58473 1.53125-1.3125 1.53125h-75.375c-.727772 0-1.3125-.68271-1.3125-1.53125v-65.5c0-.84854.584728-1.53125 1.3125-1.53125z" fill="url(#c)"/><path d="m-4 36h80v52h-80z" fill="#fff"/><g fill="#c41abb" transform="matrix(.015625 0 0 .015625 -7.875 94.4999985625)"><path d="m504-3487.9999 1102.1331 274.6905-318.0358 261.7325 478.2374 478.2374-247.6749 247.6749-478.2368-478.2381-261.7318 318.0365z"/><path d="m504-671.99992 274.69043-1102.13318 261.73317 318.0359 478.2369-478.2368 247.6749 247.6749-478.2382 478.2368 318.0359 261.73178z"/><path d="m5112-3487.9999-1102.1325 274.6912 318.0359 261.7318-478.2375 478.2368 247.6749 247.6755 478.2362-478.2374 261.7324 318.0358z"/><path d="m5112-671.99992-274.6906-1102.13248-261.7331 318.0358-478.2368-478.2368-247.6742 247.6743 478.2374 478.2368-318.0358 261.73178z"/></g></g></svg>