<svg height="24" width="24" xmlns="http://www.w3.org/2000/svg" xmlns:xlink="http://www.w3.org/1999/xlink"><linearGradient id="a"><stop offset="0" stop-color="#fd0000"/><stop offset="1" stop-color="#8f0000"/></linearGradient><linearGradient id="b" gradientTransform="matrix(-.3718129 .71530105 -.5698763 -.46669452 105.28828 25.876431)" gradientUnits="userSpaceOnUse" x1="85.148071" x2="65.476692" y1="55.43787" y2="25.287628"><stop offset="0" stop-color="#0968ef"/><stop offset="1" stop-color="#aecffc"/></linearGradient><radialGradient id="c" cx="72.631729" cy="22.787588" gradientTransform="matrix(5.297908 0 0 5.2979189 -342.76495 -88.461166)" gradientUnits="userSpaceOnUse" r="1.265237" xlink:href="#a"/><linearGradient id="d" gradientUnits="userSpaceOnUse" x1="43.750008" x2="46.499989" xlink:href="#a" y1="11.999999" y2="36.749998"/><linearGradient id="e" gradientUnits="userSpaceOnUse" x1="39.579626" x2="42.679225" y1="21.1977" y2="32.765563"><stop offset="0" stop-color="#fff"/><stop offset="1" stop-color="#fff" stop-opacity="0"/></linearGradient><g transform="matrix(.25 0 0 .25 -.00397 1)"><path d="m2.0143842-1.9891626c11.9999998 13.9999996 75.8999998 6.3952 69.9999998 29.9999996-4 16-67.9999998 4-69.9999998 34-1.46400004 21.9512 67.9999998 10 91.9999998 26" style="fill:none;stroke:#969696;stroke-width:4;stroke-linecap:round;stroke-linejoin:round;stroke-miterlimit:0"/><path d="m47.974826-4h-3.958946v96h3.958947z" fill="url(#b)"/><g transform="translate(4.222355 7.993022)"><rect fill="url(#d)" height="12" rx="1.546875" width="12" x="36" y="24"/><rect fill="url(#c)" height="8.937499" rx=".837891" width="8.937503" x="37.562511" y="25.562502"/><path d="m38.428317 25.562501c-.464192 0-.837891.3737-.837891.837891v4.224364c.679121.06455 1.378207.104736 2.094726.104736 2.578772 0 4.95135-.434878 6.842772-1.169555v-3.159545c0-.464191-.373698-.837891-.837891-.837891z" fill="url(#e)"/></g><path d="m96.03176 6.896364v-2.794709z" fill="#fff" fill-opacity=".756881"/><g transform="translate(4.14677 -19.974815)"><rect fill="url(#d)" height="12" rx="1.546875" width="12" x="36" y="24"/><rect fill="url(#c)" height="8.937499" rx=".837891" width="8.937503" x="37.562511" y="25.562502"/><path d="m38.428317 25.562501c-.464192 0-.837891.3737-.837891.837891v4.224364c.679121.06455 1.378207.104736 2.094726.104736 2.578772 0 4.95135-.434878 6.842772-1.169555v-3.159545c0-.464191-.373698-.837891-.837891-.837891z" fill="url(#e)"/></g><g transform="translate(3.957554 47.993025)"><rect fill="url(#d)" height="12" rx="1.546875" width="12" x="36" y="24"/><rect fill="url(#c)" height="8.937499" rx=".837891" width="8.937503" x="37.562511" y="25.562502"/><path d="m38.428317 25.562501c-.464192 0-.837891.3737-.837891.837891v4.224364c.679121.06455 1.378207.104736 2.094726.104736 2.578772 0 4.95135-.434878 6.842772-1.169555v-3.159545c0-.464191-.373698-.837891-.837891-.837891z" fill="url(#e)"/></g></g></svg>