<svg height="24" viewBox="0 0 6.3499999 6.3500002" width="24" xmlns="http://www.w3.org/2000/svg" xmlns:xlink="http://www.w3.org/1999/xlink"><radialGradient id="a" cx="102" cy="112.3047" gradientTransform="matrix(.5846529 0 0 .5190255 23.045068 -12.698347)" gradientUnits="userSpaceOnUse" r="139.55859" xlink:href="#b"/><linearGradient id="b"><stop offset="0" stop-color="#f082b0"/><stop offset="1" stop-color="#e85290"/></linearGradient><linearGradient id="c" gradientTransform="matrix(.5846528 0 0 .5190255 30.11937 -12.698347)" gradientUnits="userSpaceOnUse" x1="72.703102" x2="91.985603" xlink:href="#b" y1="53.358898" y2="72.641403"/><linearGradient id="d" gradientTransform="matrix(.9461857 0 0 .3693188 3.912473 -3.266902)" gradientUnits="userSpaceOnUse" x1="54.5298" x2="72.467102" xlink:href="#b" y1="54.024399" y2="71.9617"/><filter id="e" color-interpolation-filters="sRGB" height="1.077086" width="1.067544" x="-.033772" y="-.038543"><feGaussianBlur stdDeviation="1.7187398"/></filter><linearGradient id="f" gradientUnits="userSpaceOnUse" x1="92.093342" x2="92.633811" y1="152.150743" y2="12.995338"><stop offset="0" stop-color="#f7f7f7"/><stop offset=".86046815" stop-color="#c3c3c3"/><stop offset="1" stop-color="#ececec"/></linearGradient><g transform="matrix(.03219235 0 0 .03219235 .427976 .44166)"><path d="m258.37825 73.04211c-3.89026 0-7.02161 3.754433-7.02161 8.419091v90.185029c0 .36285.0256.7172.0623 1.0677v7.16438h5.48337c.47628.12143.96855.187 1.4759.187h108.09896c.50736 0 .99963-.0656 1.47591-.187h5.48337v-7.16438c.0368-.3505.0623-.70485.0623-1.0677v-90.185029c0-4.664658-3.13135-8.419091-7.02162-8.419091z" fill="#b2b2b2" fill-opacity=".757353" filter="url(#e)" transform="matrix(1.3635562 0 0 1.3647434 -340.67939 -86.317507)"/><path d="m12.657152 10.93707c-5.2344815 0-9.4452661 5.212197-9.447815 11.68804l-.049028 124.56024c.1672994 3.72744.00821 7.86715.00821 11.68524l9.439693.003h145.450938l9.44221-.001.005-11.68683.049-124.56065c.003-6.475843-4.21358-11.73899-9.44783-11.68804h-7.02532z" fill="#999"/><rect fill="url(#f)" height="131.50122" rx="9.03485" ry="10.833339" width="147.93887" x="11.362163" y="19.155897"/><path d="m11.362163 47.921787h147.93886v102.73533h-147.93886z" fill="#ececec"/><path d="m11.362163 43.812374h147.93887v8.218828h-147.93887z" fill="#6d6d6d"/><circle cx="149.63034" cy="28.19635" fill="#818181" r="6.158165"/><g transform="matrix(2.1446413 0 0 2.6808016 -53.004911 45.288948)"><path d="m52.000002 28-12-6.63678v-2.725921l12-6.63678v3.432316l-8.38626 4.57521 8.38626 4.559639z" fill="url(#a)"/><path d="m88 21.36322-12 6.63678v-3.432316l8.372229-4.567424-8.372229-4.567425v-3.432835l12 6.637299z" fill="url(#c)"/><path d="m72 12-11.536842 16h-4.463158l11.512241-16z" fill="url(#d)"/></g></g></svg>