<svg height="24" width="24" xmlns="http://www.w3.org/2000/svg" xmlns:xlink="http://www.w3.org/1999/xlink"><linearGradient id="a"><stop offset="0" stop-color="#0968ef"/><stop offset="1" stop-color="#aecffc"/></linearGradient><linearGradient id="b" gradientTransform="matrix(.33279053 0 0 .19542461 109.06106 .99481)" gradientUnits="userSpaceOnUse" x1="16.263456" x2="28.913122" xlink:href="#a" y1="67.869316" y2="-12.523698"/><linearGradient id="c" gradientTransform="matrix(.00006115 -.12466459 -.12466459 -.00006115 6.992566 128.97799)" gradientUnits="userSpaceOnUse" x1="113.15723" x2="39.268185" xlink:href="#a" y1="25.786163" y2="25.786163"/><linearGradient id="d" gradientTransform="matrix(.33279053 0 0 .19542461 122.57669 .99481)" gradientUnits="userSpaceOnUse" x1="16.263456" x2="28.913122" xlink:href="#a" y1="67.869316" y2="-12.523698"/><linearGradient id="e" gradientTransform="matrix(.00006115 .12466459 -.12466459 .00006115 6.989881 112.02152)" gradientUnits="userSpaceOnUse" x1="113.15723" x2="39.268185" xlink:href="#a" y1="25.786163" y2="25.786163"/><g transform="translate(0 -104)"><rect fill="url(#d)" height="17.999746" rx=".439893" transform="matrix(0 1 1 0 0 0)" width=".999986" x="126.99986" y="4.000098"/><rect fill="url(#b)" height="17.999746" rx=".219725" ry=".486745" transform="matrix(0 1 1 0 0 0)" width=".999986" x="113.00003" y="4.000098"/><path d="m3.5092949 114.01653 2.4918248 2.99317-.4957657.49528-1.498634-.97296-.00672 3.46798-.997315-.00049.00672-3.46799-1.4744984.97151-.5203705-.49577 2.4947605-2.99073z" fill="url(#c)" fill-rule="evenodd"/><path d="m3.5066099 126.98298 2.4918248-2.99317-.4957657-.49528-1.498634.97296-.004035-3.46749-.997315.00049.00404 3.4675-1.4744984-.97152-.5203705.49578 2.4947605 2.99073z" fill="url(#e)" fill-rule="evenodd"/><g fill="#555753"><path d="m9.7081152 106.94203c.6603108-.53274 1.7817358-.34176 2.2826908.2743.826447.93299 1.065481 2.12647 1.369783 3.24323.225472.95241.389066 1.49922.446705 2.4701.667939-1.22771 1.416404-2.12613 1.429966-3.50871.01865-.69879-.433991-1.29121-.736598-1.90913-.250053-.518.438229-1.05701 1.027338-.89079.723035.13045.8434.87044.822209 1.40106-.07629 1.57814-.773046 3.1277-1.478281 4.57005-1.000213 1.90464-2.431026 3.67095-4.302612 5.01115-.7365979.49112-2.5980115 1.06073-3.517699.76491-1.6952764-.78314-1.6952764-2.3494 0-2.3494.6094519-.25506 2.1530011.97885 2.7768629.95935 1.0298811-.007 1.7639361-.82729 2.0419611-1.60864.282264-1.0337.0178-2.10164-.156813-3.13228-.283959-1.33969-.604366-2.70659-1.352831-3.91863-.153423-.4707-1.3545262-.7505-.6526818-1.37657z" stroke-width=".847638"/><path d="m14.368958 119.64918q1.751132 0 2.674457.60704.939244.5944.939244 1.83379v4.60343h-1.655616l-.461663-.93586h-.06368q-.557178.55646-1.178034.80939-.620857.25294-1.703375.25294-1.162115 0-1.926246-.53117-.764131-.53116-.764131-1.65672 0-1.10028.971083-1.61879.971083-.51852 2.913248-.58176l1.512342-.038v-.30352q0-.54381-.366146-.79674-.350226-.25294-.987003-.25294-.636775 0-1.241711.15175-.604937.13912-1.209874.35412l-.78005-1.27733q.684533-.27823 1.54418-.44263.859648-.17706 1.782972-.17706zm1.257631 3.84462-.923324.0253q-1.146196.0253-1.591939.32882-.445743.30352-.445743.79675 0 .42999.318388.61969.318388.17706.827808.17706.764131 0 1.28947-.35412.52534-.36675.52534-1.02438z"/></g></g></svg>