<svg height="24" width="24" xmlns="http://www.w3.org/2000/svg" xmlns:xlink="http://www.w3.org/1999/xlink"><linearGradient id="a"><stop offset="0" stop-color="#fff"/><stop offset=".42597079" stop-color="#fff"/><stop offset=".5892781" stop-color="#ffe0e0"/><stop offset=".80219781" stop-color="#ffd5d5"/><stop offset="1" stop-color="#fccaca"/></linearGradient><linearGradient id="b"><stop offset="0" stop-color="#fff"/><stop offset="1" stop-color="#fff" stop-opacity="0"/></linearGradient><linearGradient id="c"><stop offset="0" stop-color="#06f"/><stop offset="1" stop-color="#80b3ff"/></linearGradient><linearGradient id="d" gradientTransform="matrix(.06503009 0 0 .1431311 -19.783613 -145.67798)" gradientUnits="userSpaceOnUse" x1="399.77466" x2="399.77466" y1="1164.6696" y2="549.06134"><stop offset="0" stop-color="#d48888"/><stop offset=".5" stop-color="#d08080" stop-opacity=".945098"/><stop offset="1" stop-color="#d28181" stop-opacity=".443137"/></linearGradient><linearGradient id="e" gradientTransform="matrix(.4947918 0 0 1.0000001 -63.353587 -87.024094)" gradientUnits="userSpaceOnUse" x1="63.365482" x2="105.66395" xlink:href="#a" y1="81.206779" y2="46.06414"/><linearGradient id="f" gradientTransform="matrix(.65712462 0 0 .90939753 -34.935852 -3.714158)" gradientUnits="userSpaceOnUse" x1="102.31124" x2="74.330322" xlink:href="#b" y1="-5.830213" y2="32"/><linearGradient id="g" gradientTransform="matrix(.4947918 0 0 1.0000001 -63.353587 -87.024094)" gradientUnits="userSpaceOnUse" x1="63.365482" x2="104.52145" xlink:href="#a" y1="81.206779" y2="43.388664"/><linearGradient id="h" gradientTransform="matrix(.4947918 0 0 1.0000001 -63.353587 -87.024094)" gradientUnits="userSpaceOnUse" x1="39.846077" x2="105.66395" xlink:href="#a" y1="72.479675" y2="46.06414"/><linearGradient id="i" gradientTransform="matrix(.65712462 0 0 .90939753 -34.935852 -3.714158)" gradientUnits="userSpaceOnUse" x1="110.71415" x2="88.579147" xlink:href="#b" y1="4.086079" y2="42.473133"/><linearGradient id="j" gradientTransform="matrix(1.9362358 0 0 1.1370159 -145.09857 -174.57562)" gradientUnits="userSpaceOnUse" x1="11.83619" x2="20.85087" y1="107.48409" y2="40.962265"><stop offset="0" stop-color="#0968ef"/><stop offset="1" stop-color="#aecffc"/></linearGradient><linearGradient id="k" gradientUnits="userSpaceOnUse" x1="61.054436" x2="96.034676" xlink:href="#c" y1="84.36451" y2="84.36451"/><linearGradient id="l" gradientUnits="userSpaceOnUse" x1="61.050308" x2="96.038803" xlink:href="#c" y1="27.637236" y2="27.637236"/><g transform="matrix(.171875 0 0 .171875 .000155 1.99985)"><g transform="translate(93.09091 81.454546)"><rect fill="url(#d)" height="40.727135" rx="3.632653" transform="rotate(90)" width="34.908253" x="5.819893" y="-46.544415"/><g fill-rule="evenodd"><path d="m-34.909962-40.726372h23.272734v29.090925h-23.272734z" fill="url(#e)" transform="matrix(0 -1 -1 0 0 0)"/><path d="m24.982424 11.637993c-7.020435 8.573875-6.769583 6.200556-10.869435 17.453789h17.886111c1.001767-10.773613-2.702856-8.859216 1.608085-17.453789z" fill="url(#f)"/></g></g><g transform="translate(.000037 29.090917)"><rect fill="url(#d)" height="58.18182" rx="3.632653" transform="rotate(90)" width="46.545456" x=".000865" y="-58.180882"/><g fill-rule="evenodd"><path d="m-40.728138-52.362698h34.909092v46.545452h-34.909092z" fill="url(#g)" transform="matrix(0 -1 -1 0 0 0)"/><path d="m37.919756 5.8190466c-7.020435 8.5738754-19.706915 12.0195024-23.806767 23.2727354h17.886111c1.001767-10.773613 10.234476-14.678162 14.545417-23.2727354z" fill="url(#f)"/></g></g><g transform="translate(93.091049 -5.819021)"><rect fill="url(#d)" height="40.727272" rx="3.632653" transform="rotate(90)" width="46.545456" x="5.819893" y="-46.544415"/><g fill-rule="evenodd"><path d="m-46.547165-40.726234h34.909088v29.09091h-34.909088z" fill="url(#h)" transform="matrix(0 -1 -1 0 0 0)"/><path d="m29.089869 11.638075c-7.020435 8.573875-7.968077 23.655858-12.067929 34.909091h17.886111c1.001767-10.773613 1.507241-26.314518 5.818182-34.909091z" fill="url(#i)"/></g></g><rect fill="url(#j)" height="29.090916" rx="1.2784" ry="2.83197" transform="scale(-1)" width="5.818083" x="-122.18092" y="-81.455421"/><g fill="none" stroke-linecap="round" stroke-width="5.818187"><path d="m93.090009 23.2736-29.090909 8.727273" stroke="url(#l)"/><path d="m93.090009 93.09178-29.090909-17.454543" stroke="url(#k)"/></g></g></svg>