<svg height="24" width="24" xmlns="http://www.w3.org/2000/svg" xmlns:xlink="http://www.w3.org/1999/xlink"><linearGradient id="a"><stop offset="0" stop-color="#fd0000"/><stop offset="1" stop-color="#8f0000"/></linearGradient><linearGradient id="b"><stop offset="0" stop-color="#0968ef"/><stop offset="1" stop-color="#aecffc"/></linearGradient><linearGradient id="c" gradientTransform="matrix(-.71530105 -.3718129 .46669452 -.5698763 58.139449 101.2724)" gradientUnits="userSpaceOnUse" x1="85.148071" x2="65.476692" xlink:href="#b" y1="55.43787" y2="25.287628"/><radialGradient id="d" cx="72.631729" cy="22.787588" gradientTransform="matrix(5.297908 0 0 5.2979189 -342.76495 -88.461166)" gradientUnits="userSpaceOnUse" r="1.265237" xlink:href="#a"/><linearGradient id="e" gradientUnits="userSpaceOnUse" x1="43.750008" x2="46.499989" xlink:href="#a" y1="11.999999" y2="36.749998"/><linearGradient id="f" gradientUnits="userSpaceOnUse" x1="39.579626" x2="42.679225" y1="21.1977" y2="32.765563"><stop offset="0" stop-color="#fff"/><stop offset="1" stop-color="#fff" stop-opacity="0"/></linearGradient><linearGradient id="g" gradientTransform="matrix(-.71530105 -.3718129 .46669452 -.5698763 54.13945 137.3545)" gradientUnits="userSpaceOnUse" x1="85.148071" x2="65.476692" xlink:href="#b" y1="55.43787" y2="25.287628"/><linearGradient id="h" gradientTransform="matrix(-.71530105 -.3718129 .46669452 -.5698763 54.13945 65.31345)" gradientUnits="userSpaceOnUse" x1="85.148071" x2="65.476692" xlink:href="#b" y1="55.43787" y2="25.287628"/><linearGradient id="i" gradientTransform="matrix(-.00024461 -.49865836 .49865836 -.00024461 72.170205 103.90503)" gradientUnits="userSpaceOnUse" x1="113.15723" x2="71.989624" xlink:href="#b" y1="25.786163" y2="27.801167"/><linearGradient id="j" gradientTransform="matrix(.00024461 .49865836 -.49865836 .00024461 99.986141 16.088046)" gradientUnits="userSpaceOnUse" x1="113.15723" x2="80.026878" xlink:href="#b" y1="25.786163" y2="24.044189"/><linearGradient id="k" gradientTransform="matrix(.00024461 .49865836 -.49865836 .00024461 99.986141 -19.911954)" gradientUnits="userSpaceOnUse" x1="113.15723" x2="80.026878" xlink:href="#b" y1="25.786163" y2="24.044189"/><linearGradient id="l" gradientTransform="matrix(-.00024461 -.49865836 .49865836 -.00024461 72.170205 67.90503)" gradientUnits="userSpaceOnUse" x1="113.15723" x2="71.989624" xlink:href="#b" y1="25.786163" y2="27.801167"/><g transform="matrix(.25 0 0 .25 -.994675 .983474)"><path d="m9.174519-2.0033538c22 13.9999998 54.8508 10.6000002 50 29.9999998-4 16.000002-47.0768 16.308002-52 36.000002-4 16 20 4 38 26" style="fill:none;stroke:#969696;stroke-width:4.000001;stroke-linecap:round;stroke-linejoin:round;stroke-miterlimit:0"/><path d="m92.01588 44v-3.958946l-44-.000001v3.958947z" fill="url(#c)"/><g transform="translate(.022771 11.993021)"><rect fill="url(#e)" height="12" rx="1.546875" width="12" x="36" y="24"/><rect fill="url(#d)" height="8.937499" rx=".837891" width="8.937503" x="37.562511" y="25.562502"/><path d="m38.428317 25.562501c-.464192 0-.837891.3737-.837891.837891v4.224364c.679121.06455 1.378207.104736 2.094726.104736 2.578772 0 4.95135-.434878 6.842772-1.169555v-3.159545c0-.464191-.373698-.837891-.837891-.837891z" fill="url(#f)"/></g><path d="m96.03176 6.896364v-2.794709z" fill="#fff" fill-opacity=".756881"/><g transform="translate(-7.853229 -23.933765)"><rect fill="url(#e)" height="12" rx="1.546875" width="12" x="36" y="24"/><rect fill="url(#d)" height="8.937499" rx=".837891" width="8.937503" x="37.562511" y="25.562502"/><path d="m38.428317 25.562501c-.464192 0-.837891.3737-.837891.837891v4.224364c.679121.06455 1.378207.104736 2.094726.104736 2.578772 0 4.95135-.434878 6.842772-1.169555v-3.159545c0-.464191-.373698-.837891-.837891-.837891z" fill="url(#f)"/></g><g transform="translate(-8.042447 48.034079)"><rect fill="url(#e)" height="12" rx="1.546875" width="12" x="36" y="24"/><rect fill="url(#d)" height="8.937499" rx=".837891" width="8.937503" x="37.562511" y="25.562502"/><path d="m38.428317 25.562501c-.464192 0-.837891.3737-.837891.837891v4.224364c.679121.06455 1.378207.104736 2.094726.104736 2.578772 0 4.95135-.434878 6.842772-1.169555v-3.159545c0-.464191-.373698-.837891-.837891-.837891z" fill="url(#f)"/></g><path d="m92.01588 80v-3.958946l-52 .04105v3.95895z" fill="url(#g)"/><path d="m92.01588 7.958946v-3.958946l-52 .04105v3.95895z" fill="url(#h)"/><g fill-rule="evenodd" stroke-width=".6875"><path d="m86.053059 75.933896 9.967299-11.972689-1.983063-1.981113-5.994535 3.891846-.02688-5.87194-3.98926.0021.02688 5.871942-5.897994-3.886052-2.081482 1.983107 9.979043 11.962905z" fill="url(#j)"/><path d="m85.978701 44.066102-9.9673 11.972696 1.983063 1.981113 5.994536-3.891854.03762 5.873943 3.98926-.002-.03762-5.87393 5.897994 3.886052 2.081482-1.983107-9.979042-11.962913z" fill="url(#i)"/><path d="m86.053059 39.933896 9.967299-11.972689-1.983063-1.981113-5.994535 3.891846-.02688-5.87194-3.98926.0021.02688 5.871942-5.897994-3.886052-2.081482 1.983107 9.979043 11.962905z" fill="url(#k)"/><path d="m85.978701 8.066102-9.9673 11.972696 1.983063 1.981113 5.994536-3.891854.03762 5.873943 3.98926-.002-.03762-5.87393 5.897994 3.886052 2.081482-1.983107-9.979042-11.962913z" fill="url(#l)"/></g></g></svg>