<svg height="24" width="24" xmlns="http://www.w3.org/2000/svg" xmlns:xlink="http://www.w3.org/1999/xlink"><linearGradient id="a"><stop offset="0" stop-color="#fff"/><stop offset="1" stop-color="#fff" stop-opacity="0"/></linearGradient><linearGradient id="b"><stop offset="0" stop-color="#b4b4b6"/><stop offset=".5" stop-color="#9c9ca1"/><stop offset="1" stop-color="#cdcdd1"/></linearGradient><linearGradient id="c"><stop offset="0" stop-color="#fff"/><stop offset=".42597079" stop-color="#fff"/><stop offset=".5892781" stop-color="#f1f1f1"/><stop offset=".80219781" stop-color="#eaeaea"/><stop offset="1" stop-color="#dfdfdf"/></linearGradient><linearGradient id="d"><stop offset="0" stop-color="#0968ef"/><stop offset="1" stop-color="#aecffc"/></linearGradient><linearGradient id="e" gradientTransform="matrix(1.9362358 0 0 1.1370159 .354737 5.788889)" gradientUnits="userSpaceOnUse" x1="16.263456" x2="28.913122" xlink:href="#d" y1="67.869316" y2="-12.523698"/><linearGradient id="f" gradientTransform="matrix(.06503009 0 0 .1431311 -19.875909 -52.76887)" gradientUnits="userSpaceOnUse" x1="399.77466" x2="399.77466" xlink:href="#b" y1="1164.6696" y2="549.06134"/><linearGradient id="g" gradientTransform="matrix(.4947918 0 0 1.0000001 -11.079394 5.88502)" gradientUnits="userSpaceOnUse" x1="42.728634" x2="105.66395" xlink:href="#c" y1="99.999985" y2="46.06414"/><linearGradient id="h" gradientTransform="matrix(0 -.65712462 -.90939753 0 55.988351 116.2086)" gradientUnits="userSpaceOnUse" x1="102.31124" x2="74.330322" xlink:href="#a" y1="-5.830213" y2="32"/><linearGradient id="i" gradientTransform="matrix(.72532124 -.00035579 .00035579 .72532124 17.581713 -11.592237)" gradientUnits="userSpaceOnUse" x1="113.15723" x2="39.268185" xlink:href="#d" y1="25.786163" y2="25.786163"/><linearGradient id="j" gradientTransform="matrix(.06503009 0 0 .1431311 63.851616 -44.587161)" gradientUnits="userSpaceOnUse" x1="399.77466" x2="399.77466" xlink:href="#b" y1="1164.6696" y2="549.06134"/><linearGradient id="k" gradientTransform="matrix(.65972239 0 0 1.0000001 49.810295 14.066729)" gradientUnits="userSpaceOnUse" x1="42.728634" x2="109.83713" xlink:href="#c" y1="99.999985" y2="38.297775"/><linearGradient id="l" gradientTransform="matrix(0 -.72259344 -1.0000001 0 139.60779 123.07032)" gradientUnits="userSpaceOnUse" x1="102.31124" x2="74.330322" xlink:href="#a" y1="-5.830213" y2="32"/><linearGradient id="m" gradientTransform="matrix(1.9362358 0 0 1.1370159 78.901261 5.788698)" gradientUnits="userSpaceOnUse" x1="16.263456" x2="28.913122" xlink:href="#d" y1="67.869316" y2="-12.523698"/><linearGradient id="n" gradientTransform="matrix(-.72532124 .00035579 -.00035579 -.72532124 116.2275 28.851689)" gradientUnits="userSpaceOnUse" x1="113.15723" x2="39.268185" xlink:href="#d" y1="25.786163" y2="25.786163"/><g transform="matrix(.171875 0 0 .171875 .000155 1.99985)"><rect fill="url(#j)" height="75.635551" rx="3.632653" width="40.72718" x="87.271828" y="34.909966"/><path d="m93.090012 40.728146h29.090914v63.999264h-29.090914z" fill="url(#k)" fill-rule="evenodd"/><path d="m122.18092 56.182445c-9.42808 7.719875-18.19874 15.727125-30.57313 20.235441v-19.668089c11.84698-1.101572 21.12229-5.310954 30.57313-10.05139z" fill="url(#l)" fill-rule="evenodd"/><rect fill="url(#m)" height="116.36258" rx="2.559378" width="5.727851" x="104.72637" y="11.637237"/><rect fill="url(#f)" height="69.635735" rx="3.632653" width="40.637028" x="5.817282" y="34.909966"/><path d="m11.635464 40.728146h29.000732v57.999454h-29.000732z" fill="url(#g)" fill-rule="evenodd"/><path d="m40.6362 56.290326c-8.573875 7.020435-17.045693 13.392809-28.298926 17.492661v-17.886111c10.773613-1.001767 19.704353-3.92037 28.298926-8.231311z" fill="url(#h)" fill-rule="evenodd"/><rect fill="url(#e)" height="116.36276" rx="2.780485" ry="2.90905" width="5.818673" x="23.271828" y="11.637237"/><g fill-rule="evenodd"><path d="m104.63022 8.6740645-17.414819-14.4978894-2.881618 2.884455 5.660869 8.7193244-20.17737.0391.003 5.8025605 20.177369-.0391-5.652438 8.578901 2.884518 3.02761 17.400589-14.5149715z" fill="url(#i)"/><path d="m29.189058 8.7666045 17.41483 14.4978905 2.88162-2.884455-5.66088-8.719325 20.177372-.0391-.0029-5.8025605-20.177362.0391 5.65244-8.5789004-2.88452-3.02761-17.4006 14.5149704z" fill="url(#n)"/></g></g></svg>