<svg height="24" width="24" xmlns="http://www.w3.org/2000/svg" xmlns:xlink="http://www.w3.org/1999/xlink"><linearGradient id="a"><stop offset="0" stop-color="#0968ef"/><stop offset="1" stop-color="#aecffc"/></linearGradient><linearGradient id="b" gradientTransform="matrix(1.9362358 0 0 1.1370159 -11.281627 5.788889)" gradientUnits="userSpaceOnUse" x1="16.263456" x2="28.913122" xlink:href="#a" y1="67.869316" y2="-12.523698"/><linearGradient id="c" gradientTransform="matrix(.72532124 -.00035579 .00035579 .72532124 5.945349 -11.592237)" gradientUnits="userSpaceOnUse" x1="113.15723" x2="39.268185" xlink:href="#a" y1="25.786163" y2="25.786163"/><linearGradient id="d" gradientTransform="matrix(1.9362358 0 0 1.1370159 67.264897 5.788698)" gradientUnits="userSpaceOnUse" x1="16.263456" x2="28.913122" xlink:href="#a" y1="67.869316" y2="-12.523698"/><linearGradient id="e" gradientTransform="matrix(-.72532124 .00035579 -.00035579 -.72532124 104.59114 28.851689)" gradientUnits="userSpaceOnUse" x1="113.15723" x2="39.268185" xlink:href="#a" y1="25.786163" y2="25.786163"/><g transform="matrix(.171875 0 0 .171875 .000155 1.99985)"><rect fill="url(#d)" height="116.36258" rx="2.559378" width="5.727851" x="93.090004" y="11.637237"/><rect fill="url(#b)" height="116.36276" rx="2.780485" ry="2.90905" width="5.818673" x="11.635464" y="11.637237"/><path d="m92.993856 8.6740643-17.414819-14.4978894-2.881618 2.884455 5.660869 8.7193244-20.17737.0391.003 5.8025607 20.177369-.0391-5.652438 8.578901 2.884518 3.02761 17.400589-14.5149717z" fill="url(#c)" fill-rule="evenodd"/><path d="m17.552694 8.7666043 17.41483 14.4978907 2.88162-2.884455-5.66088-8.719325 20.177372-.0391-.0029-5.8025607-20.177362.0391 5.65244-8.5789004-2.88452-3.02761-17.4006 14.5149704z" fill="url(#e)" fill-rule="evenodd"/><g fill="#555753"><path d="m87.838043 19.991738c3.841808-3.099578 10.36646-1.988421 13.281107 1.595928 4.80842 5.428305 6.19916 12.372189 7.96965 18.869702 1.31183 5.541294 2.26365 8.722734 2.59901 14.37149 3.88619-7.143039 8.24089-12.37021 8.3198-20.414312.10851-4.065687-2.52504-7.512495-4.28566-11.107666-1.45486-3.013818 2.54969-6.149876 5.97724-5.182778 4.20675.758982 4.90705 5.064378 4.78376 8.151622-.44387 9.181905-4.49772 18.197527-8.60091 26.589382-5.81942 11.081542-14.14415 21.358254-25.033377 29.155781-4.285658 2.857426-15.1157 6.17152-20.466609 4.450386-9.863427-4.556451-9.863427-13.669236 0-13.669236 3.545901-1.483986 12.526551 5.695127 16.156293 5.581672 5.992036-.04073 10.262896-4.813323 11.880493-9.35936 1.64227-6.014254.10357-12.227723-.912357-18.224174-1.65213-7.79456-3.51631-15.747433-7.871019-22.799302-.892643-2.738618-7.880879-4.366545-3.797421-8.009135z" stroke-width="4.931712"/><path d="m37.054855 23.050645q10.188404 0 15.560477 3.53187 5.464693 3.458327 5.464693 10.669323v26.783596h-9.632676l-2.686039-5.44501h-.370502q-3.241763 3.23759-6.854016 4.70918-3.612259 1.47165-9.910545 1.47165-6.761397 0-11.20725-3.09044-4.445853-3.09039-4.445853-9.6391 0-6.40163 5.649938-9.418414 5.649937-3.016844 16.949806-3.384785l8.799081-.221091v-1.765935q0-3.163985-2.130304-4.635578-2.037679-1.471651-5.742563-1.471651-3.704873 0-7.2245.882909-3.519634.809426-7.039267 2.060335l-4.538473-7.431739q3.982738-1.618792 8.98432-2.575301 5.001588-1.030168 10.373655-1.030168zm7.317126 22.368699-5.372067.1472q-6.668777.1472-9.262191 1.91313-2.593414 1.76594-2.593414 4.63564 0 2.50176 1.85244 3.60547 1.852439 1.03017 4.816337 1.03017 4.445853 0 7.502371-2.06034 3.056524-2.13382 3.056524-5.96003z" stroke-width="5.818182"/></g></g></svg>