<svg height="24" width="24" xmlns="http://www.w3.org/2000/svg" xmlns:xlink="http://www.w3.org/1999/xlink"><linearGradient id="a" gradientTransform="matrix(.04048566 0 0 .09108347 -50.62757 -142.05248)" gradientUnits="userSpaceOnUse" x1="262.41599" x2="1053.0587" xlink:href="#d" y1="895.66272" y2="895.66272"/><linearGradient id="b" gradientTransform="matrix(.2500001 0 0 .5555557 -44.000004 -99.55555)" gradientUnits="userSpaceOnUse" x1="3.188257" x2="111.99998" xlink:href="#e" y1="112.81035" y2="27.99999"/><linearGradient id="c" gradientTransform="matrix(1.0017897 0 0 .60016843 -28.028457 6.035309)" gradientUnits="userSpaceOnUse" x1="102.31124" x2="74.330322" xlink:href="#f" y1="-5.830213" y2="32"/><linearGradient id="d" gradientTransform="matrix(.04048566 0 0 .09108347 -50.62757 -142.05248)" gradientUnits="userSpaceOnUse" x1="262.41599" x2="1053.0587" y1="895.66272" y2="895.66272"><stop offset="0" stop-color="#b4b4b6"/><stop offset=".5" stop-color="#9c9ca1"/><stop offset="1" stop-color="#cdcdd1"/></linearGradient><linearGradient id="e" gradientTransform="matrix(.2500001 0 0 .5555557 -44.000004 -99.55555)" gradientUnits="userSpaceOnUse" x1="3.188257" x2="111.99998" y1="112.81035" y2="27.99999"><stop offset="0" stop-color="#fff"/><stop offset=".42597079" stop-color="#fff"/><stop offset=".5892781" stop-color="#f1f1f1"/><stop offset=".80219781" stop-color="#eaeaea"/><stop offset="1" stop-color="#dfdfdf"/></linearGradient><linearGradient id="f" gradientTransform="matrix(1.0017897 0 0 .60016843 -28.028457 6.035309)" gradientUnits="userSpaceOnUse" x1="102.31124" x2="74.330322" y1="-5.830213" y2="32"><stop offset="0" stop-color="#fff"/><stop offset="1" stop-color="#fff" stop-opacity="0"/></linearGradient><g transform="matrix(.171875 0 0 .171875 8.000197 .999705)"><rect fill="url(#d)" height="29.09091" rx="3.823639" transform="matrix(0 -1 -1 0 0 0)" width="116.36364" x="-122.18354" y="-81.4534"/><g fill-rule="evenodd"><path d="m-116.36536-75.635218 104.72736-.000082-.000082 17.454628-104.727358.000082z" fill="url(#e)" transform="matrix(0 -1 -1 0 0 0)"/><path d="m68.222702 14.480081c-10.702687 5.65844-3.791786 15.9131-10.04203 23.33982l11.636364-2.909091c1.527198-7.11018-.753786-17.60071 5.818264-23.27281z" fill="url(#f)"/></g></g><g transform="matrix(.171875 0 0 .171875 1.000183 .999719)"><rect fill="url(#d)" height="46.545448" rx="3.823639" transform="matrix(0 -1 -1 0 0 0)" width="116.36356" x="-122.18346" y="-87.27166"/><g fill-rule="evenodd"><path d="m-116.36536-81.453399 104.727359-.000082v34.909091l-104.727359.000082z" fill="url(#e)" transform="matrix(0 -1 -1 0 0 0)"/><path d="m62.486812 11.638c-10.702687 5.65844-3.791786 15.9131-10.04203 23.33982l17.372254-.06701c1.527198-7.11018-.753786-17.60071 5.818264-23.27281z" fill="url(#f)"/></g></g><g transform="matrix(.171875 0 0 .171875 -6.999817 .999719)"><rect fill="url(#a)" height="40.727272" rx="3.823639" transform="matrix(0 -1 -1 0 0 0)" width="52.363636" x="-58.183456" y="-81.453484"/><g fill-rule="evenodd"><path d="m-52.365274-75.635299 40.727274-.000001-.000001 29.09091-40.727273.000001z" fill="url(#b)" transform="matrix(0 -1 -1 0 0 0)"/><path d="m62.486812 11.638c-10.702687 5.65844-3.791786 15.9131-10.04203 23.33982l17.372254-.06701c1.527198-7.11018-.753786-17.60071 5.818264-23.27281z" fill="url(#c)"/></g></g><g transform="matrix(.171875 0 0 .171875 -6.999817 10.999719)"><rect fill="url(#a)" height="40.727272" rx="3.823639" transform="matrix(0 -1 -1 0 0 0)" width="58.181808" x="-64.001633" y="-81.453484"/><g fill-rule="evenodd"><path d="m-58.183453-75.635301 46.545453.000001-.000001 29.09091-46.545452-.000001z" fill="url(#b)" transform="matrix(0 -1 -1 0 0 0)"/><path d="m62.486812 11.638c-10.702687 5.65844-3.791786 15.9131-10.04203 23.33982l17.372254-.06701c1.527198-7.11018-.753786-17.60071 5.818264-23.27281z" fill="url(#c)"/></g></g></svg>