<svg height="24" width="24.069053" xmlns="http://www.w3.org/2000/svg" xmlns:xlink="http://www.w3.org/1999/xlink"><linearGradient id="a" gradientTransform="matrix(1.004126 0 0 .991974 339.8742 1.209495)" gradientUnits="userSpaceOnUse" x1="110" x2="117.8272" xlink:href="#c" y1="174.4991" y2="183.3223"/><linearGradient id="b" gradientUnits="userSpaceOnUse" x1="98.531143" x2="101.695" xlink:href="#c" y1="191.0442" y2="195.8891"/><linearGradient id="c"><stop offset="0" stop-color="#7c9fcf"/><stop offset=".5" stop-color="#7c9ece"/><stop offset="1" stop-color="#7b9dcf"/></linearGradient><linearGradient id="d"><stop offset="0" stop-color="#fff"/><stop offset=".50643778" stop-color="#fff"/><stop offset=".82296139" stop-color="#f1f1f1"/><stop offset=".90625" stop-color="#eaeaea"/><stop offset="1" stop-color="#dfdfdf"/></linearGradient><linearGradient id="e" gradientUnits="userSpaceOnUse" x1="97.272636" x2="109.45141" xlink:href="#d" y1="194.76695" y2="194.76695"/><linearGradient id="f" gradientUnits="userSpaceOnUse" x1="456.66666" x2="459.33334" xlink:href="#d" y1="191.33333" y2="176.66667"/><g transform="translate(-450 -174)"><path d="m462.8716 190.3459h-9.368l-2.6767-8.8692 7.3607-5.7017 7.3608 5.7017-2.6767 8.8692z" style="stroke-width:.999999;stroke-linecap:round;stroke-linejoin:round;stroke-miterlimit:0;fill:url(#f);stroke:url(#a)"/><path d="m450 174h24v24h-24z" fill="none"/><path d="m109.11231 194.24583-3.48759 2.20705-.0186 4.12722-3.17675-2.63488-3.930991 1.25764 1.524251-3.83549-2.410831-3.34996 4.118791.26442 2.44101-3.32803 1.0213 3.99891z" style="fill-rule:evenodd;stroke-width:.678293;stroke-linecap:round;stroke-linejoin:round;stroke-miterlimit:0;fill:url(#e);stroke:url(#b)" transform="matrix(1.492696 -.0409829 .0399483 1.455015 302.9314 -91.01218)"/></g></svg>