<?xml version="1.0" encoding="UTF-8" standalone="no"?>
<svg
   xmlns:dc="http://purl.org/dc/elements/1.1/"
   xmlns:cc="http://creativecommons.org/ns#"
   xmlns:rdf="http://www.w3.org/1999/02/22-rdf-syntax-ns#"
   xmlns:svg="http://www.w3.org/2000/svg"
   xmlns="http://www.w3.org/2000/svg"
   xmlns:xlink="http://www.w3.org/1999/xlink"
   xmlns:sodipodi="http://sodipodi.sourceforge.net/DTD/sodipodi-0.dtd"
   xmlns:inkscape="http://www.inkscape.org/namespaces/inkscape"
   height="24"
   viewBox="0 0 6.3499999 6.3500002"
   width="24"
   version="1.1"
   id="svg102"
   sodipodi:docname="draw-highlight.svg"
   inkscape:version="0.92.5 (2060ec1f9f, 2020-04-08)"
   inkscape:export-filename="/home/rizmut/Dokumen/Rizmut/Github/karasa-jaga-icon-theme/build/Karasa-Jaga/24x24/actions/draw-highlight.png"
   inkscape:export-xdpi="96"
   inkscape:export-ydpi="96">
  <metadata
     id="metadata108">
    <rdf:RDF>
      <cc:Work
         rdf:about="">
        <dc:format>image/svg+xml</dc:format>
        <dc:type
           rdf:resource="http://purl.org/dc/dcmitype/StillImage" />
        <dc:title></dc:title>
      </cc:Work>
    </rdf:RDF>
  </metadata>
  <defs
     id="defs106" />
  <sodipodi:namedview
     pagecolor="#ffffff"
     bordercolor="#666666"
     borderopacity="1"
     objecttolerance="10"
     gridtolerance="10"
     guidetolerance="10"
     inkscape:pageopacity="0"
     inkscape:pageshadow="2"
     inkscape:window-width="1366"
     inkscape:window-height="711"
     id="namedview104"
     showgrid="true"
     inkscape:zoom="13.906433"
     inkscape:cx="8.2198089"
     inkscape:cy="15.097718"
     inkscape:window-x="0"
     inkscape:window-y="0"
     inkscape:window-maximized="1"
     inkscape:current-layer="g100">
    <inkscape:grid
       type="xygrid"
       id="grid915" />
  </sodipodi:namedview>
  <linearGradient
     id="a">
    <stop
       offset="0"
       stop-color="#07265b"
       id="stop2" />
    <stop
       offset=".34029821"
       stop-color="#254a7b"
       stop-opacity=".996078"
       id="stop4" />
    <stop
       offset=".68983138"
       stop-color="#3066af"
       stop-opacity=".996078"
       id="stop6" />
    <stop
       offset=".78474706"
       stop-color="#6897d9"
       stop-opacity=".996078"
       id="stop8" />
    <stop
       offset=".89468229"
       stop-color="#78a3e1"
       stop-opacity=".996078"
       id="stop10" />
    <stop
       offset="1"
       stop-color="#07265b"
       id="stop12" />
  </linearGradient>
  <linearGradient
     id="b"
     gradientUnits="userSpaceOnUse"
     x1="64.719795"
     x2="70.545692"
     y1="272.79059"
     y2="277.75809">
    <stop
       offset="0"
       stop-color="#262626"
       id="stop15" />
    <stop
       offset=".19744514"
       stop-color="#262626"
       id="stop17" />
    <stop
       offset=".42606577"
       stop-color="#1e1e1e"
       id="stop19" />
    <stop
       offset=".6397509"
       stop-color="#4e4e4e"
       id="stop21" />
    <stop
       offset=".85343605"
       stop-color="#a7a7a7"
       id="stop23" />
    <stop
       offset="1"
       stop-color="#262626"
       id="stop25" />
  </linearGradient>
  <linearGradient
     id="c"
     gradientUnits="userSpaceOnUse"
     x1="56.703594"
     x2="62.300526"
     xlink:href="#a"
     y1="281.46518"
     y2="286.82559" />
  <linearGradient
     id="d"
     gradientUnits="userSpaceOnUse"
     x1="56.045506"
     x2="58.09845"
     y1="285.7522"
     y2="288.1142">
    <stop
       offset="0"
       stop-color="#1f4375"
       stop-opacity=".996078"
       id="stop29" />
    <stop
       offset="1"
       stop-color="#2f63ab"
       stop-opacity=".996078"
       id="stop31" />
  </linearGradient>
  <linearGradient
     id="e"
     gradientUnits="userSpaceOnUse"
     x1="225.25"
     x2="224.72266"
     y1="94.132812"
     y2="92.070312">
    <stop
       offset="0"
       stop-color="#1a3b72"
       id="stop34" />
    <stop
       offset="1"
       stop-color="#1a3b72"
       stop-opacity="0"
       id="stop36" />
  </linearGradient>
  <filter
     id="f"
     color-interpolation-filters="sRGB"
     height="1.208843"
     width="1.109883"
     x="-.054941"
     y="-.104422">
    <feGaussianBlur
       stdDeviation=".48131835"
       id="feGaussianBlur39" />
  </filter>
  <linearGradient
     id="g"
     gradientUnits="userSpaceOnUse"
     x1="52.800537"
     x2="54.721642"
     y1="289.1893"
     y2="291.10693">
    <stop
       offset="0"
       stop-color="#af9a1c"
       id="stop42" />
    <stop
       offset=".375525"
       stop-color="#d8c722"
       id="stop44" />
    <stop
       offset=".89346695"
       stop-color="#e6ec84"
       id="stop46" />
    <stop
       offset="1"
       stop-color="#d8bb22"
       id="stop48" />
  </linearGradient>
  <linearGradient
     id="h"
     gradientUnits="userSpaceOnUse"
     x1="191.87305"
     x2="205.5957"
     y1="105.80078"
     y2="105.80078">
    <stop
       offset="0"
       stop-color="#aea722"
       id="stop51" />
    <stop
       offset="1"
       stop-color="#d1b229"
       id="stop53" />
  </linearGradient>
  <linearGradient
     id="i"
     gradientUnits="userSpaceOnUse"
     x1="244.61024"
     x2="266.62939"
     xlink:href="#a"
     y1="36.499935"
     y2="55.274738" />
  <linearGradient
     id="j"
     gradientUnits="userSpaceOnUse"
     x1="9.167345"
     x2="10.102788"
     y1="264.5401"
     y2="276.23315">
    <stop
       offset="0"
       stop-color="#e2b823"
       id="stop57" />
    <stop
       offset="1"
       stop-color="#e2db47"
       id="stop59" />
  </linearGradient>
  <g
     transform="matrix(.1875 0 0 .1875 0 -49.337498)"
     id="g100">
    <path
       d="m-.00000007 288.49362 33.86666707.0397v8.46663l-33.866667-.0397z"
       fill="#f00"
       id="path64" />
    <g
       transform="matrix(0.95538975,0,0,0.95538975,-40.626175,9.919122)"
       id="g98">
      <g
         id="g92"
         style="fill-rule:evenodd">
        <path
           d="m 54.127844,286.96549 v 0.49082 l -3.537291,4.16729 3.68813,-0.0118 2.313845,-2.5242 z"
           id="path72"
           style="fill:url(#g)"
           inkscape:connector-curvature="0" />
        <path
           d="m 55.901417,281.99593 5.821878,5.46667 1.232041,-1.22021 -5.976866,-5.28096 z"
           id="path74"
           style="fill:url(#c)"
           inkscape:connector-curvature="0" />
        <path
           d="m 70.949595,267.54307 4.263236,3.6543 c -0.89243,3.23727 -8.098601,10.44672 -12.257495,15.04502 l -5.976866,-5.28096 c 4.612944,-4.35152 12.125923,-14.2948 13.971125,-13.41836 z"
           id="path76"
           style="fill:url(#b)"
           inkscape:connector-curvature="0" />
        <path
           d="m 55.901417,281.99593 c -0.76758,3.52722 -1.005993,4.06235 -1.773573,4.96956 l 2.464684,2.12204 c 1.544092,-1.17015 3.027982,-1.24691 5.130767,-1.62493 z"
           id="path78"
           style="fill:url(#d)"
           inkscape:connector-curvature="0" />
        <g
           transform="matrix(0.26458333,0,0,0.26458333,0,263.13332)"
           id="g90">
          <path
             d="m 211.28125,71.291016 c -2.90109,13.331225 -3.80204,15.354378 -6.70313,18.783203 l 1.7168,1.478515 c 1.34838,-1.382434 2.8848,-2.993314 3.36133,-3.68164 0.7621,-1.100779 5.17069,-10.28923 6.24609,-12.240235 z"
             id="path80"
             inkscape:connector-curvature="0"
             style="fill:#16386b" />
          <path
             d="m 231.38281,90.171875 c -6.458,2.494116 -13.25795,3.478263 -18.00781,7.476563 l 0.51758,0.445312 c 5.83594,-4.422614 11.44504,-4.711888 19.39258,-6.140625 l -0.37891,-0.355469 c -0.13527,-0.08747 -1.52344,-1.425781 -1.52344,-1.425781 z"
             id="path82"
             style="fill:url(#e)"
             inkscape:connector-curvature="0" />
          <g
             id="g88"
             style="fill-opacity:0.99607801">
            <path
               d="m 227.57031,86.585938 -0.23633,0.136718 c -0.76502,0.458997 -12.0202,7.493444 -15.45312,9.638672 l 1.49414,1.28711 c 4.74986,-3.9983 11.54981,-4.982447 18.00781,-7.476563 0,0 1.38817,1.338311 1.52344,1.425781 z"
               id="path84"
               inkscape:connector-curvature="0"
               style="fill:#73a0df;filter:url(#f)" />
            <path
               d="m 204.57812,90.074219 v 1.855469 l -0.11718,0.134765 c 2.43773,2.032389 5.50415,4.592589 8.43359,7.119141 l 0.99805,-1.087891 z"
               id="path86"
               inkscape:connector-curvature="0"
               style="fill:#997337" />
          </g>
        </g>
      </g>
      <path
         d="m 198.875,103.92383 a 7.3749994,5.4519225 0 0 0 -7.00195,3.7539 l 13.27539,-0.043 0.44726,-0.48829 a 7.3749994,5.4519225 0 0 0 -6.7207,-3.22265 z"
         transform="matrix(0.26458333,0,0,0.26458333,0,263.13332)"
         id="path94"
         style="fill:url(#h)"
         inkscape:connector-curvature="0" />
      <path
         d="m 267.03711,16.464844 c -2.00658,0.08668 -5.03028,2.113143 -8.68555,5.34375 l 20.79883,18.335937 c 2.54824,-3.735286 4.39955,-7.055726 5.11914,-9.666015 l -16.11328,-13.8125 c -0.32691,-0.155275 -0.70143,-0.219216 -1.11914,-0.201172 z"
         transform="matrix(0.26458333,0,0,0.26458333,0,263.13332)"
         id="path96"
         style="fill:url(#i);fill-rule:evenodd"
         inkscape:connector-curvature="0" />
    </g>
  </g>
</svg>
