<svg height="24" viewBox="0 0 24 24" width="24" xmlns="http://www.w3.org/2000/svg" xmlns:xlink="http://www.w3.org/1999/xlink"><linearGradient id="a" gradientTransform="matrix(1.124777 0 0 1.399469 339.507 -41.54364)" gradientUnits="userSpaceOnUse" x1="22.514324" x2="22.042749" y1="212.72124" y2="218.3974"><stop offset="0" stop-color="#717174"/><stop offset=".5" stop-color="#9c9ca1"/><stop offset="1" stop-color="#bdbdc2"/></linearGradient><linearGradient id="b" gradientTransform="matrix(1.165669 0 0 1.655559 338.7499 -97.1359)" gradientUnits="userSpaceOnUse" x1="17.483259" x2="20.989229" y1="215.0097" y2="218.8156"><stop offset="0" stop-color="#a9cbfc"/><stop offset="1" stop-color="#aecffc"/></linearGradient><linearGradient id="c" gradientTransform="matrix(.72504783 0 0 .72997973 286.88268 103.85517)" gradientUnits="userSpaceOnUse" x1="101.80236" x2="111.6865" y1="214.18378" y2="210.5"><stop offset="0" stop-color="#b4b4b6"/><stop offset=".5" stop-color="#9c9ca1"/><stop offset="1" stop-color="#cdcdd1"/></linearGradient><linearGradient id="d" gradientTransform="matrix(.13034628 0 0 .1308149 353.49306 250.68079)" gradientUnits="userSpaceOnUse" x1="47.994141" x2="103.82617" y1="56.083008" y2="56.083008"><stop offset="0" stop-color="#fff"/><stop offset="1" stop-color="#fff" stop-opacity="0"/></linearGradient><linearGradient id="e" gradientUnits="userSpaceOnUse" x1="360.69427" x2="367.69644" y1="260.20499" y2="257.51593"><stop offset="0" stop-color="#fff"/><stop offset=".42597079" stop-color="#fff"/><stop offset=".5892781" stop-color="#e5e5e5"/><stop offset=".80219781" stop-color="#eaeaea"/><stop offset="1" stop-color="#eee"/></linearGradient><g fill="none" fill-opacity=".952941" stroke="#8c0000" stroke-linecap="square" stroke-width=".666625" transform="matrix(1.5 0 0 1.5 -1018.7012 -148.67456)"><path d="m679.46743 99.449694h1.33334"/><path d="m682.80077 99.449694h1.33334"/><path d="m686.13411 99.449694h1.33334"/><path d="m689.46745 99.449694h1.33334"/><path d="m692.80078 99.449694h1.33334"/><g transform="matrix(0 1 -1 0 794.25048 -580.01774)"><path d="m679.46743 99.449694h1.33334"/><path d="m682.80077 99.449694h1.33334"/><path d="m686.13411 99.449694h1.33334"/><path d="m689.46745 99.449694h1.33334"/><path d="m692.80078 99.449694h1.33334"/></g><g transform="matrix(0 1 -1 0 778.91712 -578.6844)"><path d="m679.46743 99.449694h1.33334"/><path d="m682.80077 99.449694h1.33334"/><path d="m686.13411 99.449694h1.33334"/><path d="m689.46745 99.449694h1.33334"/><path d="m692.80078 99.449694.66667-.000008"/></g><g transform="matrix(-1 0 0 -1 1374.26822 214.23274)"><path d="m679.46743 99.449694h1.33334"/><path d="m682.80077 99.449694h1.33334"/><path d="m686.13411 99.449694h1.33334"/><path d="m689.46745 99.449694h1.33334"/><path d="m692.80078 99.449694h1.33334"/></g></g><g transform="matrix(1.5 0 0 1.5 -529.995889 -378.22969)"><path d="m355.66394 258.48645h8.666667v7.333344h-8.666667z" fill="none" stroke="url(#a)" stroke-linejoin="round" stroke-miterlimit="0" stroke-width=".666625"/><g fill-rule="evenodd"><path d="m355.99725 258.81979h8.00002v6.666667h-8.00002z" fill="url(#b)"/><path d="m363.99727 260.48645c-2.02027 1.8286-5.3484 3.93214-8.00001 5.00001v-4.65872c2.5386-.26093 5.97487-.6785 8.00001-1.80136z" fill="#80b3ff"/></g></g><g transform="matrix(1.50029865 0 0 1.494924075 -531.649099 -375.4867)"><ellipse cx="363.37521" cy="257.51593" rx="3.987763" ry="4.014889" style="stroke-width:.666952;stroke-linecap:round;stroke-linejoin:round;stroke-miterlimit:0;fill:url(#e);stroke:url(#c)"/><path d="m366.13996 255.0664c-1.95343 1.00901-4.30281 2.05177-6.38799 2.34854a3.650484 3.6570764 0 0 0 -.003.0601 3.650484 3.6570764 0 0 0 2.57001 3.49317c1.69373-1.17495 3.33181-2.62395 4.70749-3.87029a3.650484 3.6570764 0 0 0 -.88646-2.03146z" fill="url(#d)" fill-rule="evenodd"/></g></svg>