<svg height="24" width="24" xmlns="http://www.w3.org/2000/svg" xmlns:xlink="http://www.w3.org/1999/xlink"><linearGradient id="a" gradientUnits="userSpaceOnUse" x1="29.33334" x2="16.000004" xlink:href="#l" y1="7.999999" y2="45.333334"/><linearGradient id="b" gradientTransform="matrix(.1053583 0 0 .07807154 1.162114 -34.902122)" gradientUnits="userSpaceOnUse" x1="399.77466" x2="399.77466" xlink:href="#j" y1="1164.6696" y2="549.06134"/><linearGradient id="c" gradientTransform="matrix(.9166667 0 0 .4444445 1.333334 3.555557)" gradientUnits="userSpaceOnUse" x1="15.999999" x2="112" xlink:href="#i" y1="100" y2="27.999998"/><linearGradient id="d" gradientUnits="userSpaceOnUse" x1="22.0625" x2="53.125" xlink:href="#l" y1="32" y2="32"/><linearGradient id="e" gradientTransform="matrix(.1053583 0 0 .07807154 -14.837886 -40.235455)" gradientUnits="userSpaceOnUse" x1="399.77466" x2="399.77466" xlink:href="#j" y1="1164.6696" y2="549.06134"/><linearGradient id="f" gradientTransform="matrix(.9166667 0 0 .4444445 -14.666666 -1.777777)" gradientUnits="userSpaceOnUse" x1="15.999999" x2="112" xlink:href="#i" y1="100" y2="27.999998"/><linearGradient id="g" gradientTransform="matrix(.43327178 .66145728 -.66145728 .43327178 23.290928 6.239064)" gradientUnits="userSpaceOnUse" x1="113.15723" x2="39.268185" xlink:href="#k" y1="25.786163" y2="25.786163"/><linearGradient id="h" gradientTransform="matrix(-.43327178 -.66145728 .66145728 -.43327178 38.042416 191.09427)" gradientUnits="userSpaceOnUse" x1="113.15723" x2="39.268185" xlink:href="#k" y1="25.786163" y2="25.786163"/><linearGradient id="i" gradientTransform="matrix(.9166667 0 0 .4444445 1.333334 3.555557)" gradientUnits="userSpaceOnUse" x1="15.999999" x2="112" y1="100" y2="27.999998"><stop offset="0" stop-color="#fff"/><stop offset=".42597079" stop-color="#fff"/><stop offset=".5892781" stop-color="#f1f1f1"/><stop offset=".80219781" stop-color="#eaeaea"/><stop offset="1" stop-color="#dfdfdf"/></linearGradient><linearGradient id="j" gradientTransform="matrix(.1053583 0 0 .07807154 1.162114 -34.902122)" gradientUnits="userSpaceOnUse" x1="399.77466" x2="399.77466" y1="1164.6696" y2="549.06134"><stop offset="0" stop-color="#b4b4b6"/><stop offset=".5" stop-color="#9c9ca1"/><stop offset="1" stop-color="#cdcdd1"/></linearGradient><linearGradient id="k"><stop offset="0" stop-color="#0968ef"/><stop offset="1" stop-color="#aecffc"/></linearGradient><linearGradient id="l" gradientUnits="userSpaceOnUse" x1="22.0625" x2="53.125" y1="32" y2="32"><stop offset="0" stop-color="#fff"/><stop offset="1" stop-color="#fff" stop-opacity="0"/></linearGradient><linearGradient id="m" gradientTransform="matrix(-.12331698 .19191107 .19191107 .12331698 11.703936 248.42568)" gradientUnits="userSpaceOnUse" x1="113.15723" x2="39.268185" xlink:href="#k" y1="25.786163" y2="25.786163"/><linearGradient id="n" gradientTransform="matrix(.09972696 -.18391508 -.18391508 -.09972696 24.215808 310.28697)" gradientUnits="userSpaceOnUse" x1="113.15723" x2="39.268185" xlink:href="#k" y1="25.786163" y2="25.786163"/><g transform="matrix(.1875 0 0 .1875 -.000001 0)"><g transform="translate(-.000067 -5.333297)"><rect fill="url(#e)" height="48" rx="2.857143" ry="2.769231" width="48" x=".000005" y="5.333334"/><g fill-rule="evenodd"><rect fill="url(#f)" height="37.333336" rx="1.5" ry="1.444445" width="37.333332" x="5.333338" y="10.666667"/><path d="m20 10.666667c-10.6835659 9.428082-8.427583 24.958949-14.6666609 37.333333h27.2187499c1.52447-11.846983-5.987395-27.882487.572911-37.333333z" fill="url(#a)"/></g></g><g transform="translate(66.666672 40)"><rect fill="url(#b)" height="48" rx="2.857143" ry="2.769231" width="48" x="13.333339" y="8"/><g fill-rule="evenodd"><rect fill="url(#c)" height="37.33334" rx="1.5" ry="1.444445" width="37.333328" x="18.666672" y="13.333333"/><path d="m37.5416 13.33337c-10.683566 9.428082-13.187933 24.958913-19.427011 37.333297h27.21875c1.52447-11.846983-1.227045-27.882451 5.333261-37.333297z" fill="url(#d)"/></g></g><g fill-rule="evenodd" transform="matrix(.99655491 -.08293553 .08293553 .99655491 -15.007942 -1.130526)"><g transform="matrix(-3.7795276 0 0 3.7795276 113.54034 -984.82491)"><path d="m12.363281 263.58594c-2.7315087.0806-5.5534955 1.59957-8.1093748 4.8457l-.5976562-1.32226a1.0989086 1.0989086 0 0 0 -1.2363281-.6211l-1.2539063.27344a1.0989086 1.0989086 0 0 0 -.85546872 1.20898l.87890622 7.07227a1.0989086 1.0989086 0 0 0 1.4199219.91406l6.7988281-2.14062a1.0989086 1.0989086 0 0 0 .7363279-1.31055l-.3124998-1.27734a1.0989086 1.0989086 0 0 0 -1.0800781-.8379l-.7460937.01c1.5906492-1.76419 3.0735616-2.69494 4.4101566-2.71875a1.0989086 1.0989086 0 0 0 1.080078-1.09766v-1.90039a1.0989086 1.0989086 0 0 0 -1.132813-1.09765z" fill="#fff" fill-opacity=".838235"/><path d="m12.397113 264.68455c-2.7612822.0815-5.6882779 1.64196-8.3974205 5.85804l-1.3461711-2.97967-1.2526367.27285.8784993 7.07192 6.7980347-2.1394-.3116091-1.27796-3.2308104.0388c2.3687987-3.68642 4.6944028-4.90578 6.8621138-4.9444z" fill="url(#m)"/></g><g transform="matrix(-3.7795276 0 0 3.7795276 167.96966 -1027.2391)"><path d="m31.005859 284.45117a.97297127.97297127 0 0 0 -.332031.0684l-6.072266 2.41992a.97297127.97297127 0 0 0 -.566406 1.20508l.373047 1.14844a.97297127.97297127 0 0 0 1.009766.66797l.96875-.084c-1.591253 2.23643-3.097483 2.90241-4.566407 2.90039a.97297127.97297127 0 0 0 -.974609.97263v1.75195a.97297127.97297127 0 0 0 .984375.97266c2.716639-.0351 5.501968-1.59289 7.835938-5.07422l.671875 1.23242a.97297127.97297127 0 0 0 1.130859.46875l1.126953-.33398a.97297127.97297127 0 0 0 .675781-1.125l-1.285156-6.41016a.97297127.97297127 0 0 0 -.980469-.78125z" fill="#fff" fill-opacity=".915441"/><path d="m31.03335 285.42463-6.071464 2.41949.371553 1.14773 2.952274-.25528c-2.086339 3.84759-4.325027 5.01659-6.467304 5.01365v1.75079c2.726261-.0352 5.556783-1.57416 7.938533-5.96656l1.43402 2.63344 1.127064-.33435z" fill="url(#n)"/></g></g><circle cx="32.000004" cy="101.33334" fill="none" r="24" stroke="#0968ef" stroke-dasharray="10.666667 10.666667" stroke-linecap="square" stroke-width="5.333333"/><g fill-rule="evenodd" stroke-width="3.779528"><path d="m56.762523 97.746233-23.626618-7.209883 1.039693-4.439398 11.19978.0361 5.291294-3.466385 4.575776-10.368373 4.349898.906045z" fill="url(#g)"/><path d="m4.570821 99.587101 23.626618 7.209879-1.039693 4.4394-11.19978-.0361-5.291294 3.46639-4.575776 10.36837-4.349898-.90605z" fill="url(#h)"/></g></g></svg>