<svg height="24" viewBox="0 0 6.3499999 6.3500002" width="24" xmlns="http://www.w3.org/2000/svg" xmlns:xlink="http://www.w3.org/1999/xlink"><linearGradient id="a" gradientTransform="matrix(.51229575 0 0 .30083547 10.869486 263.12543)" gradientUnits="userSpaceOnUse" x1="16.263456" x2="28.913122" y1="67.869316" y2="-12.523698"><stop offset="0" stop-color="#0968ef"/><stop offset="1" stop-color="#aecffc"/></linearGradient><g transform="matrix(.171875 0 0 .171875 .264624 -44.9615)"><path d="m15.393703 285.83393v.39056h-5.241706v-.39056q.822228-.0205 1.130563-.16444.308337-.14389.308337-.53445 0-.49334-.390559-1.37723l-.842784-1.97336h-5.385597l-.9455624 2.40503q-.1644465.43167-.1644465.80167 0 .84278 1.3977885.84278v.39056h-4.0700303v-.39056q.7605613-.0411 1.1716749-.57556.4316704-.555 1.3772328-2.79557l4.2755881-10.09286h.4111147l5.1183712 11.67565q.493338 1.13056.82223 1.4389.328891.30833 1.027785.34944zm-10.0722984-4.89226h4.7483684l-2.3844618-5.65282z" stroke-width="1.046623"/><rect fill="url(#a)" height="30.78754" rx=".613138" stroke-width=".264583" width="1.539395" x="16.933096" y="264.67297"/><path d="m34.215882 285.83393v.39056h-5.241706v-.39056q.822228-.0205 1.130563-.16444.308337-.14389.308337-.53445 0-.49334-.390559-1.37723l-.842784-1.97336h-5.385597l-.945562 2.40503q-.164447.43167-.164447.80167 0 .84278 1.397789.84278v.39056h-4.070031v-.39056q.760562-.0411 1.171675-.57556.431671-.555 1.377233-2.79557l4.275588-10.09286h.411115l5.118371 11.67565q.493338 1.13056.82223 1.4389.328891.30833 1.027785.34944zm-10.072298-4.89226h4.748368l-2.384462-5.65282z" stroke-width="1.046623"/></g></svg>