<svg height="24" viewBox="0 0 6.3499999 6.3500002" width="24" xmlns="http://www.w3.org/2000/svg"><g stroke-width="1.046623" transform="matrix(.171875 0 0 .171875 .264624 -44.9615)"><path d="m24.035095 295.07029v.39056h-5.241706v-.39056q.822228-.0205 1.130563-.16444.308337-.14389.308337-.53445 0-.49334-.390559-1.37723l-.842784-1.97336h-5.385597l-.945562 2.40503q-.164447.43167-.164447.80167 0 .84278 1.397789.84278v.39056h-4.0700305v-.39056q.7605615-.0411 1.1716745-.57556.431671-.555 1.377233-2.79557l4.275588-10.09286h.411115l5.118371 11.67565q.493338 1.13056.82223 1.4389.328891.30833 1.027785.34944zm-10.072298-4.89226h4.748368l-2.384462-5.65282z"/><path d="m24.035095 278.13695v.39056h-5.241706v-.39056q.822228-.0205 1.130563-.16444.308337-.14389.308337-.53445 0-.49334-.390559-1.37723l-.842784-1.97336h-5.385597l-.945562 2.40503q-.164447.43167-.164447.80167 0 .84278 1.397789.84278v.39056h-4.0700305v-.39056q.7605615-.0411 1.1716745-.57556.431671-.555 1.377233-2.79557l4.275588-10.09286h.411115l5.118371 11.67565q.493338 1.13056.82223 1.4389.328891.30833 1.027785.34944zm-10.072298-4.89226h4.748368l-2.384462-5.65282z"/></g></svg>