<svg height="24" viewBox="0 0 6.3499999 6.3500002" width="24" xmlns="http://www.w3.org/2000/svg" xmlns:xlink="http://www.w3.org/1999/xlink"><linearGradient id="a" gradientTransform="matrix(.12466459 -.00006115 .00006115 .12466459 8.553913 14.014066)" gradientUnits="userSpaceOnUse" x1="43.666183" x2="43.607162" y1="40.015331" y2="160.33647"><stop offset="0" stop-color="#0968ef"/><stop offset="1" stop-color="#aecffc"/></linearGradient><g transform="matrix(.171875 0 0 .171875 .264624 -44.9615)"><path d="m-1.5396305 276.85185q0-.31925.070945-.58529.070945-.28378.2483071-.51435.1773623-.24831.33698815-.44341.15962604-.1951.47887802-.3902.31925199-.21283.53208664-.33698.21283466-.14189.63850397-.31926.44340552-.19509.67397642-.28378.2305709-.10641.7271851-.30151.4966142-.1951.7271851-.28378v-1.08191q0-1.47211-1.3479528-1.47211-.5320867 0-.90454737.26605-.37246065.2483-.37246065.60303 0 .14189.0354724.39019.0532087.24831.0532087.31926 0 .30151-.2483071.53208-.23057088.21284-.54982286.21284-.30151576 0-.53208668-.23057-.23057075-.23057-.23057075-.53209 0-.8336.85133854-1.40116.86907484-.5853 2.12834656-.5853 1.4543702 0 2.0041931.70945.5498228.69172.5498228 2.12835v3.45856q0 .5853.1064173.81587.1241536.21283.4256694.21283.3724606 0 .7803937-.33698v.46114q-.4611418.51435-.8158662.70945-.3369882.17736-.7803937.17736-.5498229 0-.8158662-.30152-.2483071-.30151-.319252-.99323-1.525315 1.29475-2.58948835 1.29475-.81586618 0-1.34795275-.53209-.5143504-.53209-.5143506-1.36569zm4.4340553-.46114v-2.57175q-1.5962599.58529-2.23476395 1.13512-.63850397.54982-.63850397 1.33021 0 .72719.35472443 1.08191.35472443.35473.76265749.35473.6030316 0 1.2947442-.40794.2837796-.15962.3724607-.33698.088681-.17737.088681-.5853z"/><path d="m7.7854143 266.24787v5.42728q.2660433-.65624.9577559-1.08191.6917127-.42567 1.5075788-.42567 1.330217 0 2.217028 1.11739.904547 1.09964.904547 2.73137 0 1.89778-1.206063 3.19252-1.188327 1.29475-2.9442128 1.29475-1.0641733 0-2.004193-.35473-.9222835-.37246-.9222835-.78039v-9.2051q0-.54982-.1773622-.72718-.159626-.17737-.6917126-.17737-.1950985 0-.3015158.0177v-.28378q1.365689-.33699 2.5717521-.78039zm0 6.3673v4.46953q0 .33699.5143504.60303.5143504.24831 1.2060631.24831 1.0996452 0 1.7026772-.81587.603031-.81586.603031-2.28797 0-1.614-.620767-2.57175-.603032-.97549-1.6494688-.97549-.6917126 0-1.2237993.40793-.5320866.40793-.5320866.92228z"/><path d="m14.200887 266.58258h1.188327l4.061594 12.23799h-1.206063z"/><path d="m23.090673 266.17296v5.42728q.266044-.65624.957756-1.08191.691713-.42567 1.507579-.42567 1.330217 0 2.217028 1.11739.904547 1.09964.904547 2.73137 0 1.89778-1.206063 3.19252-1.188327 1.29475-2.944213 1.29475-1.064173 0-2.004193-.35473-.922283-.37246-.922283-.78039v-9.2051q0-.54982-.177363-.72718-.159626-.17737-.691712-.17737-.195099 0-.301516.0177v-.28378q1.365689-.33699 2.571752-.78039zm0 6.3673v4.46953q0 .33699.514351.60303.51435.24831 1.206063.24831 1.099645 0 1.702677-.81587.603032-.81586.603032-2.28797 0-1.614-.620768-2.57175-.603032-.97549-1.649469-.97549-.691712 0-1.223799.40793-.532087.40793-.532087.92228z"/><path d="m28.777845 274.79445q0-1.96872 1.152854-3.17478 1.170591-1.20607 2.731379-1.20607 1.117381 0 1.915511.54983.815867.53208.815867 1.277 0 .30152-.248307.53209-.248308.21284-.603032.21284-.603032 0-.833602-.81587l-.106418-.3902q-.14189-.49661-.354724-.67397-.212835-.17737-.691713-.17737-1.081909 0-1.755886.86908-.65624.85134-.65624 2.21703 0 1.52531.762658 2.5008.780393.95776 1.986456.95776.762658 0 1.312481-.35472.549823-.37247 1.188327-1.31248l.248307.15962q-.177363.35473-.319252.5853-.124154.23057-.478878.69171-.336988.46114-.673977.74492-.336988.28378-.886811.53209-.549823.23057-1.135118.23057-1.472106 0-2.429862-1.09965-.94002-1.11738-.94002-2.85553z"/><path d="m20.521484 15.005859-.49414.496094.972656 1.498047-2 .001953v-.001953l-8.3125.005859v.001953l-5.6875-.005859v.001953l-2-.001953.9726562-1.498047-.4941406-.496094-2.9941406 2.492188 2.9921875 2.494141.4960937-.519532-.9726562-1.474609 7.96875.005859v-.001953l2 .001953v-.001953l8.03125-.005859-.970703 1.472656.496094.521485 2.990234-2.494141z" fill="url(#a)" fill-rule="evenodd" transform="matrix(1.5393939 0 0 1.5393939 -1.539633 261.59418)"/></g></svg>