<svg height="24" width="24" xmlns="http://www.w3.org/2000/svg" xmlns:xlink="http://www.w3.org/1999/xlink"><linearGradient id="a"><stop offset="0" stop-color="#0968ef"/><stop offset="1" stop-color="#aecffc"/></linearGradient><linearGradient id="b" gradientTransform="matrix(.1295541 0 0 .06505961 -8.40824 36.248233)" gradientUnits="userSpaceOnUse" x1="399.77466" x2="399.77466" y1="1322.7012" y2="675.8042"><stop offset="0" stop-color="#b4b4b6"/><stop offset=".5" stop-color="#9696a7"/><stop offset="1" stop-color="#eaecec"/></linearGradient><linearGradient id="c" gradientTransform="matrix(.1295541 0 0 -.00650596 -8.609498 73.716389)" gradientUnits="userSpaceOnUse" x1="382.31287" x2="382.31287" y1="609.79565" y2="-1187.3558"><stop offset="0" stop-color="#fff"/><stop offset=".42597079" stop-color="#fff"/><stop offset=".5892781" stop-color="#f1f1f1"/><stop offset=".80219781" stop-color="#eaeaea"/><stop offset="1" stop-color="#dfdfdf"/></linearGradient><linearGradient id="d" gradientTransform="matrix(.1295541 0 0 .01301192 -8.40824 -111.15035)" gradientUnits="userSpaceOnUse" x1="433.9509" x2="433.9509" y1="549.52295" y2="857.27325"><stop offset="0"/><stop offset="1" stop-opacity="0"/></linearGradient><linearGradient id="e" gradientUnits="userSpaceOnUse" x1="58.75" x2="58.75" y1="96.02787" y2="67.984985"><stop offset="0" stop-opacity=".361386"/><stop offset="1" stop-opacity="0"/></linearGradient><linearGradient id="f" gradientTransform="matrix(.00000003 -.70268153 -.41263578 -.00000002 61.401439 52.133494)" gradientUnits="userSpaceOnUse" x1="12.131731" x2="12.131735" xlink:href="#a" y1="120.57536" y2="-48.434216"/><linearGradient id="g" gradientTransform="matrix(-.00000003 -.70268153 .41263578 -.00000002 78.233778 52.132976)" gradientUnits="userSpaceOnUse" x1="12.131731" x2="12.131735" xlink:href="#a" y1="120.57536" y2="-48.434216"/><g transform="matrix(.171875 0 0 .171875 .000155 .99985)"><rect fill="url(#b)" height="34.909145" opacity=".544554" rx="5.856155" width="116.3629" x="11.6362" y="69.819"/><path d="m17.4543 69.803469c-2.216 0-5.8181 3.6021-5.8181 5.8181h104.7258c0-2.216-3.6021-5.8181-5.8181-5.8181z" fill="url(#c)"/><rect fill="url(#d)" height="5.817637" opacity=".70297" rx="2.90905" ry="2.727232" transform="scale(1 -1)" width="116.3629" x="11.6362" y="-104.7276"/><g fill-opacity=".285714"><path d="m29.0905 69.819h5.818102v17.454302h-5.818102z"/><path d="m40.7267 69.819h5.8181v11.6362h-5.8181z"/><path d="m52.3629 69.819h5.8181v17.4543h-5.8181z"/><path d="m63.9991 69.819h5.818101v11.6362h-5.818101z"/><path d="m75.6353 69.819h5.818101v17.4543h-5.818101z"/><path d="m87.2715 69.819h5.818101v11.6362h-5.818101z"/><path d="m98.9077 69.819h5.818101v17.4543h-5.818101z"/></g><path d="m15.7 70c-2.216 0-4 1.784-4 4l-.0638 24.9095c0 2.216 2.1478 5.8181 4.3638 5.8181h4c-2.216 0-2.5457-3.6021-2.5457-5.8181v-23.2724h104.72596v23.2724c0 2.216-.3279 5.8181-2.5439 5.8181h4c2.216 0 4.362-3.6021 4.362-5.8181v-23.2724c0-2.216-2.03062-5.825328-5.8181-5.8181z" fill="url(#e)" opacity=".871287"/><path d="m40.680618 29.0923-8.709869 11.613159h26.236186v5.80658h-26.236186l8.709869 11.613159h-5.80658l-11.613159-12.066798v-4.899302l11.613159-12.066798zm-23.226318 0v29.032898h-5.806579v-29.032898z" fill="url(#f)"/><path d="m98.954599 29.091782 8.709871 11.613159h-26.036188v5.80658h26.036188l-8.709871 11.613159h5.806581l11.61316-12.066798v-4.899302l-11.61316-12.066798zm23.226321 0v29.032898h5.80658v-29.032898z" fill="url(#g)"/><path d="m110.54464 69.819221h5.818101v11.6362h-5.818101z" fill-opacity=".285714"/></g></svg>