<svg height="24" viewBox="0 0 6.3499999 6.3500002" width="24" xmlns="http://www.w3.org/2000/svg" xmlns:xlink="http://www.w3.org/1999/xlink"><linearGradient id="a" gradientUnits="userSpaceOnUse" x1="2.910417" x2="2.910417" xlink:href="#d" y1="3.307292" y2="5.291667"/><radialGradient id="b" cx="3.042708" cy="4.894792" gradientUnits="userSpaceOnUse" r=".529167" xlink:href="#d"/><linearGradient id="c" gradientUnits="userSpaceOnUse" x1="11" x2="11.5" y1="14" y2="18"><stop offset="0" stop-color="#fff"/><stop offset="1" stop-color="#fff" stop-opacity="0"/></linearGradient><linearGradient id="d"><stop offset="0" stop-color="#fd0000"/><stop offset="1" stop-color="#8f0000"/></linearGradient><path d="m.99804688 7c.00010031 7.29153 4.42567832 13.202576 10.50195312 13.203128 6.076275-.000552 10.499899-5.911595 10.499999-13.2031241h-1.001953c0 6.6274171-3.975199 11.9999991-9.498046 11.9999991-5.5228473 0-9.4999995-5.372586-9.5-12.000003z" fill="#4d4d4d" fill-opacity=".992157" transform="matrix(.26458334 0 0 .26458334 0 -.533313)"/><path d="m3.7041668 4.6302085a.66145837.66145837 0 0 1 -.6614584.6614584.66145837.66145837 0 0 1 -.6614584-.6614584.66145837.66145837 0 0 1 .6614584-.6614584.66145837.66145837 0 0 1 .6614584.6614584z" fill="url(#a)"/><circle cx="3.042708" cy="4.630209" fill="url(#b)" r=".529167"/><path d="m11.5 15.5a2.0000001 2.0000001 0 0 0 -2 2 2.0000001 2.0000001 0 0 0 .0507812.4375 5.25 2.2500001 0 0 0 1.1992188.0625 5.25 2.2500001 0 0 0 2.742188-.333984 2.0000001 2.0000001 0 0 0 .007812-.166016 2.0000001 2.0000001 0 0 0 -2-2z" fill="url(#c)" transform="scale(.26458334)"/></svg>