<svg height="24" viewBox="0 0 6.3499999 6.3500002" width="24" xmlns="http://www.w3.org/2000/svg" xmlns:xlink="http://www.w3.org/1999/xlink"><linearGradient id="a" gradientUnits="userSpaceOnUse" x1="31.750008" x2="34.499989" xlink:href="#e" y1="48.000015" y2="72.750015"/><radialGradient id="b" cx="72.631729" cy="22.787588" gradientTransform="matrix(5.297908 0 0 5.2979189 -354.76495 -52.461151)" gradientUnits="userSpaceOnUse" r="1.265237" xlink:href="#e"/><linearGradient id="c" gradientUnits="userSpaceOnUse" x1="27.579626" x2="30.679226" xlink:href="#d" y1="57.197716" y2="68.765579"/><linearGradient id="d" gradientUnits="userSpaceOnUse" x1="27.579626" x2="30.679226" y1="57.197716" y2="68.765579"><stop offset="0" stop-color="#fff"/><stop offset="1" stop-color="#fff" stop-opacity="0"/></linearGradient><linearGradient id="e"><stop offset="0" stop-color="#fd0000"/><stop offset="1" stop-color="#8f0000"/></linearGradient><rect fill="#646464" height="6.35" rx=".125565" ry=".151188" transform="matrix(.70710678 .70710678 -.70710678 .70710678 0 0)" width=".264583" x="4.357837" y="-3.175"/><g transform="matrix(.06614604 0 0 .06614604 -.791919 .793349)"><rect fill="url(#a)" height="12" rx="1.546875" width="12" x="24" y="60"/><rect fill="url(#b)" height="8.937499" rx=".837891" width="8.937503" x="25.562511" y="61.5625"/><path d="m26.428317 61.562516c-.464192 0-.837891.3737-.837891.837891v4.224364c.679121.06455 1.378207.104736 2.094726.104736 2.578772 0 4.95135-.434878 6.842772-1.169555v-3.159545c0-.464191-.373698-.837891-.837891-.837891z" fill="url(#d)"/></g><g transform="matrix(.06614604 0 0 .06614604 3.174938 -3.174947)"><rect fill="url(#a)" height="12" rx="1.546875" width="12" x="24" y="60"/><rect fill="url(#b)" height="8.937499" rx=".837891" width="8.937503" x="25.562511" y="61.5625"/><path d="m26.428317 61.562516c-.464192 0-.837891.3737-.837891.837891v4.224364c.679121.06455 1.378207.104736 2.094726.104736 2.578772 0 4.95135-.434878 6.842772-1.169555v-3.159545c0-.464191-.373698-.837891-.837891-.837891z" fill="url(#c)"/></g></svg>