<svg height="32" viewBox="0 0 32 32" width="32" xmlns="http://www.w3.org/2000/svg" xmlns:xlink="http://www.w3.org/1999/xlink"><filter id="a" color-interpolation-filters="sRGB" height="1.12" width="1.12" x="-.06" y="-.06"><feGaussianBlur stdDeviation="1.9753136"/></filter><radialGradient id="b" cx="-65.04158" cy="84.778641" gradientUnits="userSpaceOnUse" r="36.458652"><stop offset="0" stop-color="#92e128"/><stop offset="1" stop-color="#569d0a" stop-opacity=".996078"/></radialGradient><filter id="c" color-interpolation-filters="sRGB" height="1.048" width="1.048" x="-.024" y="-.024"><feGaussianBlur stdDeviation=".72917305"/></filter><filter id="d" color-interpolation-filters="sRGB" height="1.096" width="1.096" x="-.048" y="-.048"><feGaussianBlur stdDeviation=".78129363"/></filter><linearGradient id="e" gradientTransform="matrix(1 0 0 .80878252 0 .272859)" gradientUnits="userSpaceOnUse" x1="-67.976425" x2="-66.816696" y1="24.103317" y2="72.311111"><stop offset="0" stop-color="#fff"/><stop offset="1" stop-color="#fff" stop-opacity="0"/></linearGradient><radialGradient id="f" cx="8" cy="8.201889" gradientTransform="matrix(2.4327881 0 0 2.4240172 -3.821134 920.00488)" gradientUnits="userSpaceOnUse" r="56"><stop offset=".0765" stop-color="#f3c300"/><stop offset=".1887" stop-color="#f7d21f"/><stop offset=".3467" stop-color="#fde446"/><stop offset=".4294" stop-color="#ffeb55"/><stop offset=".6882" stop-color="#ffeb55"/><stop offset=".7281" stop-color="#fee951"/><stop offset=".7641" stop-color="#fde446"/><stop offset=".7987" stop-color="#fadb34"/><stop offset=".8322" stop-color="#f7cf1a"/><stop offset=".8588" stop-color="#f3c300"/><stop offset=".9208" stop-color="#fbd400"/><stop offset=".9706" stop-color="#fd0"/></radialGradient><linearGradient id="g" gradientUnits="userSpaceOnUse" x1="69.627274" x2="96.710617" y1="933.27747" y2="976.61078"><stop offset="0" stop-color="#fff" stop-opacity=".462094"/><stop offset=".5" stop-color="#fff"/><stop offset="1" stop-color="#fff" stop-opacity=".350181"/></linearGradient><filter id="h" color-interpolation-filters="sRGB" height="1.048087" width="1.047914" x="-.023957" y="-.024043"><feGaussianBlur stdDeviation="1.1727546"/></filter><filter id="i" color-interpolation-filters="sRGB" height="1.07213" width="1.07187" x="-.035935" y="-.036065"><feGaussianBlur stdDeviation="1.657823"/></filter><g transform="matrix(.25 0 0 .25 0 -231.09054)"><path d="m10.76134 931.03388h110.55338v110.52542h-110.55338z" fill="#453500" filter="url(#i)" transform="matrix(.93196255 0 0 .93196255 4.45503 67.170662)"/><path d="m6.8689672 2.9363508 117.3047628-.0000002v117.2850194h-117.3047628z" filter="url(#h)" opacity=".77" transform="matrix(.85262441 0 0 .85262441 10.134893 933.85856)"/><path d="m16 936.36216h100v100.00004h-100z" fill="#e3ad00"/><path d="m16.855659 937.2502h98.288681v98.224h-98.288681z" fill="#fff"/><path d="m17.083333 937.63958 97.833317-.19796v97.84118h-97.833317z" fill="url(#f)"/><path d="m16 936.24936h99.68402v21.30556h-99.68402z" fill="url(#g)"/><g fill="#fff" fill-opacity=".756881"><path d="m62.383255 1016.6146v-2.4994z"/><path d="m102.37121 933.16372v-2.49935z"/></g></g><g transform="matrix(.16460593 0 0 .16460593 36.316018 -3.715733)"><circle cx="-65.04158" cy="63.78297" fill="#858585" filter="url(#a)" opacity=".759" r="39.506271"/><circle cx="-65.04158" cy="61.78297" fill="#588429" r="38.398045"/><circle cx="-65.04158" cy="61.78297" fill="url(#b)" filter="url(#c)" r="36.458652"/><g transform="translate(-44.687018 .853764)"><path d="m-24.261029 43.91386v15.625872h-15.625873v7.812937h15.625873v15.625872h7.812936v-15.625872h15.62587315v-7.812937h-15.62587315v-15.625872z" fill="#4d7424" filter="url(#d)" transform="matrix(1.2 0 0 1.2 4.070912 -12.585841)"/><path d="m-25.042322 36.619882v18.751046h-18.751048v9.375524h18.751048v18.751047h9.375523v-18.751047h18.7510475v-9.375524h-18.7510475v-18.751046z" fill="#fff"/></g><ellipse cx="-65.04158" cy="50.241848" fill="url(#e)" rx="28.978132" ry="23.437006"/></g></svg>