<svg height="24" width="24" xmlns="http://www.w3.org/2000/svg" xmlns:xlink="http://www.w3.org/1999/xlink"><linearGradient id="a" gradientTransform="matrix(.04048566 0 0 .09108347 -50.62757 -142.05248)" gradientUnits="userSpaceOnUse" x1="262.41599" x2="1053.0587" y1="895.66272" y2="895.66272"><stop offset="0" stop-color="#b4b4b6"/><stop offset=".5" stop-color="#9c9ca1"/><stop offset="1" stop-color="#cdcdd1"/></linearGradient><linearGradient id="b" gradientTransform="matrix(.2500001 0 0 .5555557 -44.000004 -99.55555)" gradientUnits="userSpaceOnUse" x1="3.188257" x2="111.99998" y1="112.81035" y2="27.99999"><stop offset="0" stop-color="#fff"/><stop offset=".42597079" stop-color="#fff"/><stop offset=".5892781" stop-color="#f1f1f1"/><stop offset=".80219781" stop-color="#eaeaea"/><stop offset="1" stop-color="#dfdfdf"/></linearGradient><linearGradient id="c" gradientTransform="matrix(1.0017897 0 0 .60016843 -28.028457 6.035309)" gradientUnits="userSpaceOnUse" x1="102.31124" x2="74.330322" y1="-5.830213" y2="32"><stop offset="0" stop-color="#fff"/><stop offset="1" stop-color="#fff" stop-opacity="0"/></linearGradient><g transform="matrix(.171875 0 0 .171875 8.00019698438 .99970459375)"><rect fill="url(#a)" height="34.909092" rx="3.823639" transform="matrix(0 -1 -1 0 0 0)" width="116.36364" x="-122.18354" y="-81.4534"/><g fill-rule="evenodd"><path d="m-116.36536-75.635218 104.72736-.000082-.000082 23.27281-104.727358.000082z" fill="url(#b)" transform="matrix(0 -1 -1 0 0 0)"/><path d="m62.486812 11.638c-10.702687 5.65844-3.791786 15.9131-10.04203 23.33982l17.372254-.06701c1.527198-7.11018-.753786-17.60071 5.818264-23.27281z" fill="url(#c)"/></g></g><g transform="matrix(.171875 0 0 .171875 1.00018298437 .99971859375)"><rect fill="url(#a)" height="34.909176" rx="3.823639" transform="matrix(0 -1 -1 0 0 0)" width="116.36356" x="-122.18346" y="-81.453484"/><g fill-rule="evenodd"><path d="m-116.36536-75.635218 104.72736-.000082-.000082 23.27281-104.727358.000082z" fill="url(#b)" transform="matrix(0 -1 -1 0 0 0)"/><path d="m62.486812 11.638c-10.702687 5.65844-3.791786 15.9131-10.04203 23.33982l17.372254-.06701c1.527198-7.11018-.753786-17.60071 5.818264-23.27281z" fill="url(#c)"/></g></g><g transform="matrix(.171875 0 0 .171875 -5.99981701563 .99971859375)"><rect fill="url(#a)" height="34.909168" rx="3.823639" transform="matrix(0 -1 -1 0 0 0)" width="116.36356" x="-122.18346" y="-81.453484"/><g fill-rule="evenodd"><path d="m-116.36536-75.635218 104.72736-.000082-.000082 23.27281-104.727358.000082z" fill="url(#b)" transform="matrix(0 -1 -1 0 0 0)"/><path d="m62.486812 11.638c-10.702687 5.65844-3.791786 15.9131-10.04203 23.33982l17.372254-.06701c1.527198-7.11018-.753786-17.60071 5.818264-23.27281z" fill="url(#c)"/></g></g></svg>