<svg height="24" viewBox="0 0 6.3499999 6.3500002" width="24" xmlns="http://www.w3.org/2000/svg" xmlns:xlink="http://www.w3.org/1999/xlink"><linearGradient id="a" gradientUnits="userSpaceOnUse" x1="27.579626" x2="30.679226" y1="57.197716" y2="68.765579"><stop offset="0" stop-color="#fff"/><stop offset="1" stop-color="#fff" stop-opacity="0"/></linearGradient><linearGradient id="b" gradientUnits="userSpaceOnUse" x1="31.750008" x2="34.499989" xlink:href="#d" y1="48.000015" y2="72.750015"/><radialGradient id="c" cx="72.631729" cy="22.787588" gradientTransform="matrix(5.297908 0 0 5.2979189 -354.76495 -52.461151)" gradientUnits="userSpaceOnUse" r="1.265237" xlink:href="#d"/><linearGradient id="d"><stop offset="0" stop-color="#fd0000"/><stop offset="1" stop-color="#8f0000"/></linearGradient><path d="m3.0500902 4.6405269c.5291667 1.0583333 2.4345662-.1792817 1.9053996-.9730317-.3426751-.514006-2.4950209.0965729-3.3756071-.4904845-.79375005-.5291667-.6749389-2.24353447.6657948-2.093357 1.2269497.1386152.3777853 2.7036184.8044127 3.5568732z" style="fill:none;stroke:#646464;stroke-width:.264583;stroke-linecap:round;stroke-linejoin:round;stroke-miterlimit:0"/><g transform="matrix(.06614604 0 0 .06614604 .804244 -2.898899)"><rect fill="url(#b)" height="12" rx="1.546875" width="12" x="24" y="60"/><rect fill="url(#c)" height="8.937499" rx=".837891" width="8.937503" x="25.562511" y="61.5625"/><path d="m26.428317 61.562516c-.464192 0-.837891.3737-.837891.837891v4.224364c.679121.06455 1.378207.104736 2.094726.104736 2.578772 0 4.95135-.434878 6.842772-1.169555v-3.159545c0-.464191-.373698-.837891-.837891-.837891z" fill="url(#a)"/></g><g transform="matrix(.06614604 0 0 .06614604 -.261471 -1.059689)"><rect fill="url(#b)" height="12" rx="1.546875" width="12" x="24" y="60"/><rect fill="url(#c)" height="8.937499" rx=".837891" width="8.937503" x="25.562511" y="61.5625"/><path d="m26.428317 61.562516c-.464192 0-.837891.3737-.837891.837891v4.224364c.679121.06455 1.378207.104736 2.094726.104736 2.578772 0 4.95135-.434878 6.842772-1.169555v-3.159545c0-.464191-.373698-.837891-.837891-.837891z" fill="url(#a)"/></g><g transform="matrix(.06614604 0 0 .06614604 2.642707 .263229)"><rect fill="url(#b)" height="12" rx="1.546875" width="12" x="24" y="60"/><rect fill="url(#c)" height="8.937499" rx=".837891" width="8.937503" x="25.562511" y="61.5625"/><path d="m26.428317 61.562516c-.464192 0-.837891.3737-.837891.837891v4.224364c.679121.06455 1.378207.104736 2.094726.104736 2.578772 0 4.95135-.434878 6.842772-1.169555v-3.159545c0-.464191-.373698-.837891-.837891-.837891z" fill="url(#a)"/></g></svg>