<svg height="24" viewBox="0 0 6.3499999 6.3500002" width="24" xmlns="http://www.w3.org/2000/svg" xmlns:xlink="http://www.w3.org/1999/xlink"><linearGradient id="a" gradientTransform="matrix(.06071576 0 0 .09758953 24.201706 -45.627655)" gradientUnits="userSpaceOnUse" x1="399.77466" x2="399.77466" y1="1164.6696" y2="549.06134"><stop offset="0" stop-color="#b4b4b6"/><stop offset=".5" stop-color="#9c9ca1"/><stop offset="1" stop-color="#cdcdd1"/></linearGradient><linearGradient id="b" gradientTransform="matrix(.5415355 0 0 .7222225 23.477667 -8.222219)" gradientUnits="userSpaceOnUse" x1="119.57646" x2="21.94787" y1="23.792561" y2="66.056725"><stop offset="0" stop-color="#fff"/><stop offset=".42597079" stop-color="#fff"/><stop offset=".5892781" stop-color="#f1f1f1"/><stop offset=".80219781" stop-color="#eaeaea"/><stop offset="1" stop-color="#dfdfdf"/></linearGradient><linearGradient id="c" gradientTransform="matrix(0 -1.5249022 -1.9091062 0 94.5457 193.12684)" gradientUnits="userSpaceOnUse" x1="102.31124" x2="57.639416" xlink:href="#d" y1="-5.830213" y2="55.972313"/><linearGradient id="d"><stop offset="0" stop-color="#fff"/><stop offset="1" stop-color="#fff" stop-opacity="0"/></linearGradient><linearGradient id="e" gradientUnits="userSpaceOnUse" x1="101.47505829036" x2="101.47505829036" xlink:href="#f" y1="-30.67737585652" y2="-22.39680490935"/><linearGradient id="f"><stop offset="0" stop-color="#06f"/><stop offset="1" stop-color="#80b3ff"/></linearGradient><mask id="g" maskUnits="userSpaceOnUse"><rect fill="#fff" filter="url(#h)" height="100" rx="1.199764" ry="1.444445" transform="matrix(1.1453342 0 0 1.1453342 -3.237549 -15.52592)" width="112" x="12" y="4"/></mask><filter id="h"><feGaussianBlur stdDeviation="3.0486726"/></filter><radialGradient id="i" cx="53.235302" cy="106.0573" gradientTransform="matrix(.9728905 -8.15107 -18.526373 -2.211261 1957.2342 725.31677)" gradientUnits="userSpaceOnUse" r="9.102521" xlink:href="#j"/><linearGradient id="j"><stop offset="0" stop-color="#323232"/><stop offset=".07692308" stop-color="#dfe1e1"/><stop offset=".26289096" stop-color="#b6b1b1"/><stop offset=".5" stop-color="#8d8282"/><stop offset=".78201604" stop-color="#fff"/><stop offset=".9005897" stop-color="#dfd9df"/><stop offset="1" stop-color="#3a3a3a"/></linearGradient><radialGradient id="k" cx="53.347126" cy="104.68401" gradientTransform="matrix(.5808473 -2.8009276 -6.4965168 -1.3472267 701.00301 348.75795)" gradientUnits="userSpaceOnUse" r="9.102521"><stop offset="0" stop-color="#fafafa"/><stop offset="1" stop-color="#fafafa" stop-opacity="0"/></radialGradient><radialGradient id="l" cx="49.110855" cy="105.43803" gradientTransform="matrix(-2.9339535 -1.0170467 -1.1904108 3.4340702 323.071 -252.78281)" gradientUnits="userSpaceOnUse" r="10.20672" xlink:href="#d"/><linearGradient id="m" gradientTransform="matrix(2.2608955 0 0 1.9345479 -550.58555 -317.90247)" gradientUnits="userSpaceOnUse" x1="190.03462" x2="208.7153" xlink:href="#j" y1="90.22673" y2="90.22673"/><linearGradient id="n" gradientTransform="matrix(2.2608955 0 0 1.9345479 -497.11778 -432.24104)" gradientUnits="userSpaceOnUse" x1="98.411324" x2="166.32983" y1="185.68851" y2="155.59846"><stop offset="0"/><stop offset="1" stop-opacity="0"/></linearGradient><clipPath id="o"><path d="m-128.2008-3.392377 23.74522 9.7284442 2.01792-.1602995-1.38146-10.7435849-1.93542-1.2638437-19.21468 1.3857215z"/></clipPath><filter id="p" height="1.420946" width="1.422764" x="-.211382" y="-.210473"><feGaussianBlur stdDeviation="1.4336041"/></filter><linearGradient id="q" gradientTransform="matrix(1.0874736 0 0 1.0955525 .000007 -110.5457)" gradientUnits="userSpaceOnUse" x1="8.238619" x2="8.238619" xlink:href="#f" y1="-13.864992" y2="-1.404765"/><linearGradient id="r" gradientTransform="matrix(1.0874736 0 0 1.0955525 93.0896 -110.5457)" gradientUnits="userSpaceOnUse" x1="8.238619" x2="8.238619" xlink:href="#f" y1="-13.864992" y2="-1.404765"/><linearGradient id="s" gradientTransform="matrix(1.0874736 0 0 1.0955525 .000008 -17.326431)" gradientUnits="userSpaceOnUse" x1="8.238619" x2="8.238619" xlink:href="#f" y1="-13.864992" y2="-1.404765"/><g transform="scale(.04960937)"><rect fill="#618fd2" fill-opacity=".091954" height="87.2715" rx=".145854" ry=".177436" width="87.2715" x="11.6362" y="29.0923"/><g transform="matrix(1.2500001 0 0 1.2444487 15.273075 -7.272923)"><rect fill="url(#a)" height="72.532875" opacity=".75" rx="3.961678" transform="matrix(0 1 1 0 0 0)" width="72.856438" x="27.2733" y="-3.68518"/><g fill-rule="evenodd"><rect fill="url(#b)" height="55.466316" rx="1.199764" ry="1.444445" transform="matrix(0 1 1 0 0 0)" width="55.713745" x="35.844646" y="4.8481"/><path d="m64 53.598296c-17.999212 16.291393-37.467386 31.56307-61.0914 41.077058v-41.505935c22.617143-2.324668 43.048733-9.581633 61.0914-19.585465z" fill="url(#c)"/></g></g><rect fill="url(#e)" height="10.6664" rx=".13759" ry=".166188" transform="scale(1 -1)" width="10.6664" x="96" y="-32.129654"/><rect fill="#bfd9ff" height="5.3334" rx=".206393" ry=".249291" transform="scale(1 -1)" width="5.3334" x="98.666603" y="-29.463055"/><g fill="#7193c6"><path d="m-21.333199 37.333897h10.666598v10.666603h-10.666598z" transform="matrix(0 -1 -1 0 133.333304 16.0007)"/><path d="m-21.333199 58.667095h10.666598v10.666603h-10.666598z" transform="matrix(0 -1 -1 0 133.333304 16.0007)"/><path d="m-21.333199 80.000298h10.666598v10.666603h-10.666598z" transform="matrix(0 -1 -1 0 133.333304 16.0007)"/><path d="m-21.333199 101.3335h10.666598v10.666603h-10.666598z" transform="matrix(0 -1 -1 0 133.333304 16.0007)"/><path d="m-21.333199 37.333897h10.666598v10.666603h-10.666598z" transform="matrix(1 0 0 -1 111.9993 144.000704)"/><path d="m-21.333199 58.667095h10.666598v10.666603h-10.666598z" transform="matrix(1 0 0 -1 111.9993 144.000704)"/><path d="m-21.333199 80.000298h10.666598v10.666603h-10.666598z" transform="matrix(1 0 0 -1 111.9993 144.000704)"/><path d="m-21.333199 101.3335h10.666598v10.666603h-10.666598z" transform="matrix(1 0 0 -1 111.9993 144.000704)"/></g><g mask="url(#g)" transform="matrix(.9432247 0 0 .9432247 -8.337819 15.497227)"><path d="m29.733826 93.557578 76.565594-35.724313 3.74271-5.050163-27.964957-18.69067-6.907623 1.950856-41.307066 47.80066z" fill="url(#i)"/><path d="m107.32508 50.938663-74.427424 35.613119-3.008197 6.986785 76.368201-35.710168 3.7845-5.046004z" fill="#555753"/><path d="m29.733826 93.557578 76.565594-35.724313 3.74271-5.050163-27.964957-18.69067-6.907623 1.950856-41.307066 47.80066z" fill="url(#k)" opacity=".106888"/><path d="m29.733826 93.557578 76.565594-35.724313 3.74271-5.050163-27.964957-18.69067-6.907623 1.950856-41.307066 47.80066z" style="fill:none;stroke-width:.86455;stroke-linecap:round;stroke-linejoin:round;stroke-dashoffset:4;stroke:url(#l)"/><rect fill="#2e3436" height="37.454777" rx="3.877173" transform="matrix(.65716951 -.75374282 .75374282 .65716951 0 0)" width="39.714981" x="27.310663" y="81.415123"/><path d="m-120.93575-101.55096h40.499767v65.715439h-40.499767z" fill="url(#m)" transform="matrix(-.7651682 -.6438304 -.6438304 .7651682 0 0)"/><path d="m-119.89533-98.376152h39.223221v62.538834h-39.223221z" fill="url(#n)" transform="matrix(-.7651682 -.6438304 -.6438304 .7651682 0 0)"/><path d="m-103.70446 80.243172h48.50209v40.591759h-48.50209z" fill="#e0e0e0" opacity=".52459" transform="matrix(-.6438304 .7651682 .7651682 .6438304 0 0)"/><rect clip-path="url(#o)" fill="#2e3436" filter="url(#p)" height="12.061829" rx="1.248594" transform="matrix(2.0406638 -2.3405465 2.3405465 2.0406638 304.62828 -199.57966)" width="12.789698" x="-104.11894" y="-5.487061"/></g><rect fill="url(#q)" height="21.333206" rx=".22515" ry=".273967" transform="scale(1 -1)" width="21.3332" y="-128"/><rect fill="#bfd9ff" height="10.666573" rx=".22515" ry=".271947" transform="scale(1 -1)" width="10.666565" x="5.333334" y="-122.66668"/><path d="m-21.333199 37.333897h10.666598v10.666603h-10.666598z" fill="#7193c6" transform="matrix(0 -1 -1 0 133.333302 96.000198)"/><path d="m-21.333199 58.667095h10.666598v10.666603h-10.666598z" fill="#7193c6" transform="matrix(0 -1 -1 0 133.333302 96.000198)"/><path d="m-21.333199 80.000298h10.666598v10.666603h-10.666598z" fill="#7193c6" transform="matrix(0 -1 -1 0 133.333302 96.000198)"/><path d="m-21.333199 101.3335h10.666598v10.666603h-10.666598z" fill="#7193c6" transform="matrix(0 -1 -1 0 133.333302 96.000198)"/><rect fill="url(#r)" height="21.333153" rx=".22515" ry=".273967" transform="scale(1 -1)" width="21.333199" x="90.6661" y="-128"/><rect fill="#bfd9ff" height="10.666601" rx=".22515" ry=".271947" transform="scale(1 -1)" width="10.6666" x="95.999397" y="-122.6667"/><rect fill="url(#s)" height="21.333185" rx=".22515" ry=".273967" transform="scale(1 -1)" width="21.3332" y="-37.3339"/><rect fill="#bfd9ff" height="10.6666" rx=".22515" ry=".271947" transform="scale(1 -1)" width="10.666601" x="5.3333" y="-32.000599"/><path d="m-21.333199 37.333897h10.666598v10.666603h-10.666598z" fill="#7193c6" transform="scale(-1 1)"/><path d="m-21.333199 58.667095h10.666598v10.666603h-10.666598z" fill="#7193c6" transform="scale(-1 1)"/><path d="m-21.333199 80.000298h10.666598v10.666603h-10.666598z" fill="#7193c6" transform="scale(-1 1)"/><path d="m-21.333199 101.3335h10.666598v10.666603h-10.666598z" fill="#7193c6" transform="scale(-1 1)"/></g></svg>