<svg height="24" width="24" xmlns="http://www.w3.org/2000/svg" xmlns:xlink="http://www.w3.org/1999/xlink"><linearGradient id="a"><stop offset="0" stop-color="#fff"/><stop offset="1" stop-color="#fff" stop-opacity="0"/></linearGradient><linearGradient id="b" gradientTransform="matrix(1.4408955 0 0 1.1022283 -45.972872 5.8279)" gradientUnits="userSpaceOnUse" x1="63.741604" x2="63.741604" xlink:href="#a" y1="116.41339" y2="128.04443"/><mask id="c" maskUnits="userSpaceOnUse"><rect fill="url(#b)" height="139.63637" rx="1.700911" ry="2.196026" stroke-width="1.102228" transform="matrix(0 1 1 0 0 0)" width="139.47626" x="-11.391377" y="5.829875"/></mask><linearGradient id="d"><stop offset="0" stop-color="#0968ef"/><stop offset="1" stop-color="#aecffc"/></linearGradient><linearGradient id="e" gradientUnits="userSpaceOnUse" x1="26.19351" x2="55.039051" xlink:href="#a" y1="-31.915113" y2="85.979202"/><linearGradient id="f" gradientTransform="matrix(.89605873 0 0 1.0138249 8.321173 2.148125)" gradientUnits="userSpaceOnUse" x1="44.492756" x2="44.492756" xlink:href="#d" y1="143.22504" y2="70.334091"/><linearGradient id="g" gradientTransform="matrix(.69612174 0 0 .98928901 21.117143 5.346121)" gradientUnits="userSpaceOnUse" x1="71.754753" x2="63.999992" xlink:href="#d" y1="39.122932" y2="154.62848"/><linearGradient id="h" gradientTransform="matrix(.87271096 0 0 .99978402 8.145597 .188904)" gradientUnits="userSpaceOnUse" x1="66.103683" x2="66.103683" y1="5.944947" y2="99.655617"><stop offset="0" stop-color="#2e2e2e"/><stop offset="1" stop-color="#8f8f8f"/></linearGradient><linearGradient id="i" gradientUnits="userSpaceOnUse" x1="5.951269" x2="4.914892" xlink:href="#d" y1="124.460547" y2="100.623881"/><linearGradient id="j" gradientTransform="matrix(.90542984 0 0 .89668553 .720984 104.76391)" gradientUnits="userSpaceOnUse" x1="6" x2="8" xlink:href="#a" y1="-6.525262" y2="11"/><g mask="url(#c)" transform="matrix(.171875 0 0 .171875 -1.00201 1.98541)"><path d="m31.925 14.49375-.05 139.5375c0 17.80328 13.965353 32.15625 31.34375 32.15625h1.5625c17.378397 0 31.34375-14.35297 31.34375-32.15625v-75.25625h81.1875c17.80328 0 32.125-13.996603 32.125-31.375v-1.53125c0-17.378397-14.32172-31.375-32.125-31.375h-142.25621z" style="stroke-width:5.544727;stroke-linecap:round;stroke-linejoin:round;stroke-dashoffset:1.0878;fill:url(#f);stroke:url(#g)"/><path d="m55.28125 129.4375c0 4.83482 3.883931 8.71875 8.71875 8.71875s8.71875-3.88393 8.71875-8.71875v-74.05h85.75c4.83482 0 8.71875-3.583931 8.71875-8.41875s-3.88393-9.01875-8.71875-9.01875h-103.00625z" style="opacity:.7;fill:#fff;stroke-width:5.818181;stroke-linecap:round;stroke-linejoin:round;stroke-dashoffset:1.0878;stroke:url(#h)"/><path d="m158 48.992351v10.015298c0 1.103762-.88859 1.992351-1.99235 1.992351-22.34159 3.541365-96.703255 12.200888-119.415299 7-1.103762 0-1.992351-.888589-1.992351-1.992351l.320374-48.468525s94.830636-.300249 94.956656-.298524c14.567.202814 28.12297 11.623536 28.12297 31.751751z" fill="url(#e)"/><path d="m55.28125 55.09375v74.34375c0 4.83482 3.883931 8.71875 8.71875 8.71875s8.71875-3.88393 8.71875-8.71875v-74.05h85.75c4.83482 0 8.71875-3.583931 8.71875-8.41875s-3.88393-9.01875-8.71875-9.01875h-103.10625z" style="opacity:.7;fill:#fff;stroke-width:5.818181;stroke-linecap:round;stroke-linejoin:round;stroke-dashoffset:1.0878;stroke:url(#h)"/><path d="m75.648058 58.26671h69.818172v69.81817h-69.818172z" fill="#0000bf" stroke-width="1.5"/><g transform="matrix(7.616297 0 0 7.616297 5.829874 -803.64636)"><path d="m16.040767 112.02038a8.0203837 8.0203837 0 0 1 -8.0203833 8.02039 8.0203837 8.0203837 0 0 1 -8.0203837-8.02039 8.0203837 8.0203837 0 0 1 8.0203837-8.02038 8.0203837 8.0203837 0 0 1 8.0203833 8.02038z" fill="#0968ef"/><path d="m15.27866 112.02402a7.2546374 7.2546374 0 0 1 -7.2546376 7.25463 7.2546374 7.2546374 0 0 1 -7.25463739-7.25463 7.2546374 7.2546374 0 0 1 7.25463739-7.25463 7.2546374 7.2546374 0 0 1 7.2546376 7.25463z" fill="url(#i)"/><path d="m7.9644223 104.76391a7.2434387 7.1734842 0 0 0 -7.24343872 7.17348 7.2434387 7.1734842 0 0 0 .34307302 2.15766 12.676017 6.2767986 0 0 0 5.089506.53239 12.676017 6.2767986 0 0 0 9.0012464-1.86517 7.2434387 7.1734842 0 0 0 .05305-.82488 7.2434387 7.1734842 0 0 0 -7.2434407-7.17348z" fill="url(#j)"/></g></g></svg>