<svg height="24" width="24" xmlns="http://www.w3.org/2000/svg" xmlns:xlink="http://www.w3.org/1999/xlink"><linearGradient id="a"><stop offset="0" stop-color="#fd0000"/><stop offset="1" stop-color="#8f0000"/></linearGradient><linearGradient id="b"><stop offset="0" stop-color="#fff"/><stop offset="1" stop-color="#fff" stop-opacity="0"/></linearGradient><linearGradient id="c" gradientUnits="userSpaceOnUse" x1="43.750008" x2="46.499989" xlink:href="#a" y1="8.099999" y2="32.849998"/><radialGradient id="d" cx="72.631729" cy="22.787588" gradientTransform="matrix(5.297908 0 0 5.2979189 -342.76495 -92.361166)" gradientUnits="userSpaceOnUse" r="1.265237" xlink:href="#a"/><linearGradient id="e" gradientUnits="userSpaceOnUse" x1="39.579626" x2="42.679225" xlink:href="#b" y1="17.2977" y2="28.865563"/><linearGradient id="f" gradientUnits="userSpaceOnUse" x1="31.750008" x2="34.499989" xlink:href="#a" y1="48.000014" y2="72.750013"/><radialGradient id="g" cx="72.631729" cy="22.787588" gradientTransform="matrix(5.6861997 0 0 5.6862116 -382.96828 -61.145643)" gradientUnits="userSpaceOnUse" r="1.265237" xlink:href="#a"/><linearGradient id="h" gradientUnits="userSpaceOnUse" x1="27.398917" x2="30.725691" xlink:href="#b" y1="56.550288" y2="68.965978"/><linearGradient id="i" gradientUnits="userSpaceOnUse" x1="55.750008" x2="58.499989" xlink:href="#a" y1="48.000014" y2="72.750013"/><radialGradient id="j" cx="72.631729" cy="22.787588" gradientTransform="matrix(5.297908 0 0 5.2979189 -330.76495 -52.461151)" gradientUnits="userSpaceOnUse" r="1.265237" xlink:href="#a"/><linearGradient id="k" gradientUnits="userSpaceOnUse" x1="51.579626" x2="54.679225" xlink:href="#b" y1="57.197715" y2="68.765578"/><g transform="scale(.25)"><path d="m88 8a80.004913 80.004913 0 0 0 -57.144531 23.115234 80.004913 80.004913 0 0 0 -23.746094 56.884766h4.042969a76.004662 76.004662 0 0 1 22.560547-54.041016 76.004662 76.004662 0 0 1 54.242187-21.957031z" fill="#4d4d4d" fill-opacity=".992157"/><g transform="matrix(2.0731913 0 0 2.0731913 -30.723663 -104.39058)"><rect fill="url(#f)" height="12" rx="1.546875" width="12" x="24" y="60"/><g stroke-width="1.073292"><rect fill="url(#g)" height="9.592542" rx=".899301" width="9.592547" x="25.233967" y="61.234982"/><path d="m26.16323 61.234996c-.498215 0-.899302.401088-.899302.899301v4.533974c.728895.06928 1.479218.112413 2.248251.112413 2.767774 0 5.314242-.466751 7.34429-1.255274v-3.391113c0-.498213-.401088-.899301-.899302-.899301z" fill="url(#h)"/></g></g><g transform="translate(-36 63.900017)"><rect fill="url(#c)" height="12" rx="1.546875" width="12" x="36" y="20.099985"/><rect fill="url(#d)" height="8.937499" rx=".837891" width="8.937503" x="37.562511" y="21.662485"/><path d="m38.428317 21.662501c-.464192 0-.837891.3737-.837891.837891v4.224364c.679121.06455 1.378207.104736 2.094726.104736 2.578772 0 4.95135-.434878 6.842772-1.169555v-3.159545c0-.464191-.373698-.837891-.837891-.837891z" fill="url(#e)"/></g><g transform="translate(36 -56)"><rect fill="url(#i)" height="12" rx="1.546875" width="12" x="48" y="60"/><rect fill="url(#j)" height="8.937499" rx=".837891" width="8.937503" x="49.562511" y="61.5625"/><path d="m50.428317 61.562516c-.464192 0-.837891.3737-.837891.837891v4.224364c.679121.06455 1.378207.104736 2.094726.104736 2.578772 0 4.95135-.434878 6.842772-1.169555v-3.159545c0-.464191-.373698-.837891-.837891-.837891z" fill="url(#k)"/></g></g></svg>