<svg height="24" width="24" xmlns="http://www.w3.org/2000/svg" xmlns:xlink="http://www.w3.org/1999/xlink"><linearGradient id="a" gradientTransform="matrix(0 .01301305 .02091171 0 -8.491465 7.64369)" gradientUnits="userSpaceOnUse" x1="399.77466" x2="399.77466" y1="1164.6696" y2="549.06134"><stop offset="0" stop-color="#717174"/><stop offset=".5" stop-color="#9c9ca1"/><stop offset="1" stop-color="#bdbdc2"/></linearGradient><circle cx="16" cy="8" fill="none" r="6.5" stroke="#06f" stroke-dasharray="2 1"/><path d="m2.59375 8c-.3287422 0-.59375.2271022-.59375.5097656v12.9804684c0 .282664.2650078.509766.59375.509766h12.8125c.328742 0 .59375-.227102.59375-.509766v-7.578125a5.9358197 5.9358197 0 0 1 -.007812 0 5.9358197 5.9358197 0 0 1 -5.935547-5.912109zm.6914062 1h5.7929688a6.9963484 6.9963484 0 0 0 5.921875 5.892578v5.869141c0 .131503-.126873.238281-.285156.238281h-11.4296878c-.1582833 0-.2851562-.106778-.2851562-.238281v-11.5234378c0-.1315027.1268729-.2382812.2851562-.2382812z" fill="url(#a)" stroke-width=".140625" transform="scale(.99999999375)"/></svg>