<svg height="24" viewBox="0 0 6.3499999 6.3500002" width="24" xmlns="http://www.w3.org/2000/svg" xmlns:xlink="http://www.w3.org/1999/xlink"><linearGradient id="a" gradientUnits="userSpaceOnUse" x1="27.579626" x2="30.679226" y1="57.197716" y2="68.765579"><stop offset="0" stop-color="#fff"/><stop offset="1" stop-color="#fff" stop-opacity="0"/></linearGradient><linearGradient id="b" gradientUnits="userSpaceOnUse" x1="31.750008" x2="34.499989" xlink:href="#d" y1="48.000015" y2="72.750015"/><radialGradient id="c" cx="72.631729" cy="22.787588" gradientTransform="matrix(5.297908 0 0 5.2979189 -354.76495 -52.461151)" gradientUnits="userSpaceOnUse" r="1.265237" xlink:href="#d"/><linearGradient id="d"><stop offset="0" stop-color="#fd0000"/><stop offset="1" stop-color="#8f0000"/></linearGradient><path d="m15 6v9h-4v-5-1h-8-1v7h1 7v5h1 5v-1-4h3v-1h-3v-9zm-12 4h7v5h-7zm8 6h4v4h-4z" fill="#646464" transform="scale(.26458334)"/><g transform="matrix(.06614604 0 0 .06614604 .804244 -1.840566)"><rect fill="url(#b)" height="12" rx="1.546875" width="12" x="24" y="60"/><rect fill="url(#c)" height="8.937499" rx=".837891" width="8.937503" x="25.562511" y="61.5625"/><path d="m26.428317 61.562516c-.464192 0-.837891.3737-.837891.837891v4.224364c.679121.06455 1.378207.104736 2.094726.104736 2.578772 0 4.95135-.434878 6.842772-1.169555v-3.159545c0-.464191-.373698-.837891-.837891-.837891z" fill="url(#a)"/></g><g transform="matrix(.06614604 0 0 .06614604 2.113541 -3.176356)"><rect fill="url(#b)" height="12" rx="1.546875" width="12" x="24" y="60"/><rect fill="url(#c)" height="8.937499" rx=".837891" width="8.937503" x="25.562511" y="61.5625"/><path d="m26.428317 61.562516c-.464192 0-.837891.3737-.837891.837891v4.224364c.679121.06455 1.378207.104736 2.094726.104736 2.578772 0 4.95135-.434878 6.842772-1.169555v-3.159545c0-.464191-.373698-.837891-.837891-.837891z" fill="url(#a)"/></g><g transform="matrix(.06614604 0 0 .06614604 2.113541 1.056979)"><rect fill="url(#b)" height="12" rx="1.546875" width="12" x="24" y="60"/><rect fill="url(#c)" height="8.937499" rx=".837891" width="8.937503" x="25.562511" y="61.5625"/><path d="m26.428317 61.562516c-.464192 0-.837891.3737-.837891.837891v4.224364c.679121.06455 1.378207.104736 2.094726.104736 2.578772 0 4.95135-.434878 6.842772-1.169555v-3.159545c0-.464191-.373698-.837891-.837891-.837891z" fill="url(#a)"/></g><g transform="matrix(.06614604 0 0 .06614604 -1.312422 -1.840566)"><rect fill="url(#b)" height="12" rx="1.546875" width="12" x="24" y="60"/><rect fill="url(#c)" height="8.937499" rx=".837891" width="8.937503" x="25.562511" y="61.5625"/><path d="m26.428317 61.562516c-.464192 0-.837891.3737-.837891.837891v4.224364c.679121.06455 1.378207.104736 2.094726.104736 2.578772 0 4.95135-.434878 6.842772-1.169555v-3.159545c0-.464191-.373698-.837891-.837891-.837891z" fill="url(#a)"/></g><g transform="matrix(.06614604 0 0 .06614604 -1.312422 -.253066)"><rect fill="url(#b)" height="12" rx="1.546875" width="12" x="24" y="60"/><rect fill="url(#c)" height="8.937499" rx=".837891" width="8.937503" x="25.562511" y="61.5625"/><path d="m26.428317 61.562516c-.464192 0-.837891.3737-.837891.837891v4.224364c.679121.06455 1.378207.104736 2.094726.104736 2.578772 0 4.95135-.434878 6.842772-1.169555v-3.159545c0-.464191-.373698-.837891-.837891-.837891z" fill="url(#a)"/></g><g transform="matrix(.06614604 0 0 .06614604 3.450078 -.253066)"><rect fill="url(#b)" height="12" rx="1.546875" width="12" x="24" y="60"/><rect fill="url(#c)" height="8.937499" rx=".837891" width="8.937503" x="25.562511" y="61.5625"/><path d="m26.428317 61.562516c-.464192 0-.837891.3737-.837891.837891v4.224364c.679121.06455 1.378207.104736 2.094726.104736 2.578772 0 4.95135-.434878 6.842772-1.169555v-3.159545c0-.464191-.373698-.837891-.837891-.837891z" fill="url(#a)"/></g><g transform="matrix(.06614604 0 0 .06614604 .804244 1.056979)"><rect fill="url(#b)" height="12" rx="1.546875" width="12" x="24" y="60"/><rect fill="url(#c)" height="8.937499" rx=".837891" width="8.937503" x="25.562511" y="61.5625"/><path d="m26.428317 61.562516c-.464192 0-.837891.3737-.837891.837891v4.224364c.679121.06455 1.378207.104736 2.094726.104736 2.578772 0 4.95135-.434878 6.842772-1.169555v-3.159545c0-.464191-.373698-.837891-.837891-.837891z" fill="url(#a)"/></g></svg>