<svg height="24" viewBox="0 0 6.3499999 6.3500002" width="24" xmlns="http://www.w3.org/2000/svg" xmlns:xlink="http://www.w3.org/1999/xlink"><linearGradient id="a" gradientUnits="userSpaceOnUse" x1="3.097649" x2="5.15177" xlink:href="#f" y1="293.634249" y2="291.494029"/><linearGradient id="b" gradientUnits="userSpaceOnUse" x1="5.979055" x2="3.499278" xlink:href="#c" y1="291.574632" y2="293.64762"/><linearGradient id="c"><stop offset="0" stop-color="#fff"/><stop offset="1" stop-color="#fff" stop-opacity="0"/></linearGradient><linearGradient id="d" gradientTransform="matrix(0 .02834776 .03779706 0 .075606 292.78244)" gradientUnits="userSpaceOnUse" x1="119.57646" x2="15.999996" xlink:href="#f" y1="23.792561" y2="109.6508"/><linearGradient id="e" gradientTransform="matrix(0 -.06792844 -.08504327 0 5.215999 300.34302)" gradientUnits="userSpaceOnUse" x1="94.006996" x2="72.584335" xlink:href="#c" y1="11.554898" y2="41.110928"/><linearGradient id="f"><stop offset="0" stop-color="#fff"/><stop offset=".42597079" stop-color="#fff"/><stop offset=".5892781" stop-color="#f9d1d1"/><stop offset=".80219781" stop-color="#fbd9d9"/><stop offset="1" stop-color="#fdd"/></linearGradient><linearGradient id="g" gradientTransform="matrix(.03307292 0 0 .03307292 8.160607 289.82651)" gradientUnits="userSpaceOnUse" x1="46.591778" x2="118.24603" y1="39.999996" y2="39.999996"><stop offset="0" stop-color="#ff6b6b"/><stop offset=".5" stop-color="#fc4141"/><stop offset="1" stop-color="#ff9f9f"/></linearGradient><linearGradient id="h" gradientUnits="userSpaceOnUse" x1=".529167" x2="4.233334" xlink:href="#g" y1="294.61874" y2="294.61874"/><linearGradient id="i" gradientUnits="userSpaceOnUse" x1="2.380216" x2="6.082316" xlink:href="#g" y1="292.76019" y2="292.76019"/><g transform="translate(0 -290.64998)"><g stroke-width=".037207"><path d="m.68626299 292.76665c-.0869797 0-.15709632.0601-.15709632.13487v3.43442c0 .0748.0701167.13487.15709632.13487h3.38997401c.08698 0 .1570964-.0601.1570964-.13487v-3.43442c0-.0748-.070117-.13487-.1570964-.13487z" fill="url(#h)" opacity=".75"/><g fill-rule="evenodd"><path d="m.86919749 293.03123c-.041879 0-.0754476.0283-.0754476.0631v1.83606 1.21284c0 .0348.0335685.0631.0754476.0631h1.20871161 1.815393c.020939 0 .0396-.007.053227-.0186.013627-.0114.022221-.0271.022221-.0445v-1.83606-1.21284c0-.0348-.033568-.0631-.075448-.0631h-1.2087118z" fill="url(#d)"/><path d="m3.9687496 293.5604c-.6824611.16136-2.5207522.46502-3.17499966.53226v1.84899c.96806406-.38987 2.37536406-1.06974 3.17499966-1.7198z" fill="url(#e)"/></g></g><g><path d="m4.2312662 290.90888c-1.0224932.00004-1.8512982.82907-1.8510499 1.85157.0000372 1.02229.8287586 1.85101 1.8510499 1.85105 1.022291-.00004 1.8510123-.82876 1.8510496-1.85105.0002482-1.0225-.8285567-1.85153-1.8510496-1.85157z" fill="url(#i)" stroke-width=".049609"/><path d="m4.2312662 291.18948a1.570519 1.570519 0 0 0 -1.5663127 1.45935 1.570519 1.570519 0 0 0 -.00414.1111 1.570519 1.570519 0 0 0 .00775.15658 1.570519 1.570519 0 0 0 0 .00052 1.570519 1.570519 0 0 0 .01602.1142h.00103a1.570519 1.570519 0 0 0 .00206.0139 1.570519 1.570519 0 0 1 -.0031-.0139 1.570519 1.570519 0 0 0 .0062.0326 1.570519 1.570519 0 0 0 .00103.007 1.570519 1.570519 0 0 0 .021704.0868 1.570519 1.570519 0 0 0 .0093.0372 1.570519 1.570519 0 0 0 .037207.11059 1.570519 1.570519 0 0 0 .01447.0387 1.570519 1.570519 0 0 0 .045992.10129 1.570519 1.570519 0 0 0 .019121.0393 1.570519 1.570519 0 0 0 .061495.10749 1.570519 1.570519 0 0 0 .01602.0258 1.570519 1.570519 0 0 0 .086816.11989 1.570519 1.570519 0 0 0 .00156.002 1.570519 1.570519 0 0 0 .095601.10852 1.570519 1.570519 0 0 0 .010853.0119 1.570519 1.570519 0 0 0 .1121378.10335 1.570519 1.570519 0 0 0 .1255737.0946 1.570519 1.570519 0 0 0 .1338421.0816 1.570519 1.570519 0 0 0 .1415933.0677 1.570519 1.570519 0 0 0 .1477947.0532 1.570519 1.570519 0 0 0 .3513998.0661 1.570519 1.570519 0 0 0 .1069702.004 1.570519 1.570519 0 0 0 1.5704465-1.57044 1.570519 1.570519 0 0 0 -.00775-.1571 1.570519 1.570519 0 0 0 -.016021-.11421h-.00103a1.570519 1.570519 0 0 0 -.00206-.0139 1.570519 1.570519 0 0 1 .0031.0139 1.570519 1.570519 0 0 0 -.0062-.0325 1.570519 1.570519 0 0 0 -.00103-.007 1.570519 1.570519 0 0 0 -.021704-.0868 1.570519 1.570519 0 0 0 -.0093-.0372 1.570519 1.570519 0 0 0 -.037207-.11059 1.570519 1.570519 0 0 0 -.01447-.0388 1.570519 1.570519 0 0 0 -.045992-.10128 1.570519 1.570519 0 0 0 -.019121-.0393 1.570519 1.570519 0 0 0 -.061495-.10749 1.570519 1.570519 0 0 0 -.016021-.0258 1.570519 1.570519 0 0 0 -.086816-.11989 1.570519 1.570519 0 0 0 -.00103-.002 1.570519 1.570519 0 0 0 -.0005292-.00052 1.570519 1.570519 0 0 0 -.095601-.10852 1.570519 1.570519 0 0 0 -.00775-.009 1.570519 1.570519 0 0 0 -.0031-.003 1.570519 1.570519 0 0 0 -.1121378-.10335 1.570519 1.570519 0 0 0 -.1255736-.0946 1.570519 1.570519 0 0 0 -.1338421-.0816 1.570519 1.570519 0 0 0 -.1415934-.0677 1.570519 1.570519 0 0 0 -.1477947-.0532 1.570519 1.570519 0 0 0 -.3513997-.0661 1.570519 1.570519 0 0 0 -.10697-.004z" fill="url(#a)" stroke-width=".264583"/><path d="m5.4720173 291.79875c-.8319048.43885-1.8930427.92699-2.7987956 1.02009v.12557a1.570519 1.570519 0 0 0 .014986.0868h1.2050945c.041879 0 .075448.0283.075448.063v.96324c.6601896-.47587 1.297759-1.04218 1.8164265-1.51205a1.570519 1.570519 0 0 0 -.313159-.74672zm-2.7745079 1.28933a1.570519 1.570519 0 0 0 .0062.0258 1.570519 1.570519 0 0 1 -.0062-.0258zm.096118.29868a1.570519 1.570519 0 0 0 .010851.0238 1.570519 1.570519 0 0 1 -.010851-.0238zm.070797.1416a1.570519 1.570519 0 0 0 .011369.0191 1.570519 1.570519 0 0 1 -.011369-.0191zm.081649.12919a1.570519 1.570519 0 0 0 .018087.0258 1.570519 1.570519 0 0 1 -.018087-.0258zm.094568.12299a1.570519 1.570519 0 0 0 .024289.0269 1.570519 1.570519 0 0 1 -.024289-.0269zm.1033526.10852a1.570519 1.570519 0 0 0 .038241.0357 1.570519 1.570519 0 0 1 -.038241-.0357zm.1173056.10284a1.570519 1.570519 0 0 0 .040824.0305 1.570519 1.570519 0 0 1 -.040824-.0305zm.1312582.0925a1.570519 1.570519 0 0 0 .040307.0243 1.570519 1.570519 0 0 1 -.040307-.0243zm.1286743.0734a1.570519 1.570519 0 0 0 .062012.0294 1.570519 1.570519 0 0 1 -.062012-.0294zm.1369425.0615a1.570519 1.570519 0 0 0 .056327.0222c.0005027-.00034.00103-.00068.00156-.001a1.570519 1.570519 0 0 1 -.057878-.0212z" fill="url(#b)" fill-rule="evenodd" stroke-width=".054127"/></g></g></svg>