<svg height="24" viewBox="0 0 6.3499999 6.3500002" width="24" xmlns="http://www.w3.org/2000/svg" xmlns:xlink="http://www.w3.org/1999/xlink"><linearGradient id="a" gradientUnits="userSpaceOnUse" x1="27.579626" x2="30.679226" y1="57.197716" y2="68.765579"><stop offset="0" stop-color="#fff"/><stop offset="1" stop-color="#fff" stop-opacity="0"/></linearGradient><linearGradient id="b" gradientUnits="userSpaceOnUse" x1="31.750008" x2="34.499989" xlink:href="#e" y1="48.000015" y2="72.750015"/><radialGradient id="c" cx="72.631729" cy="22.787588" gradientTransform="matrix(5.297908 0 0 5.2979189 -354.76495 -52.461151)" gradientUnits="userSpaceOnUse" r="1.265237" xlink:href="#e"/><linearGradient id="d" gradientUnits="userSpaceOnUse" x1="1.187158" x2="4.891325" y1="3.30401" y2="1.71651"><stop offset="0" stop-color="#fff"/><stop offset=".42597079" stop-color="#fff"/><stop offset=".5892781" stop-color="#e5e5e5"/><stop offset=".80219781" stop-color="#eaeaea"/><stop offset="1" stop-color="#eee"/></linearGradient><linearGradient id="e"><stop offset="0" stop-color="#fd0000"/><stop offset="1" stop-color="#8f0000"/></linearGradient><g transform="translate(.400342 .400156)"><path d="m2.5077333 5.1327573-1.302083-.515725c-.142621-2.018851 1.444879-3.574812 3.429254-3.442521l.518662 1.312413c-1.852083 0-2.645833.79375-2.645833 2.645833z" fill="url(#d)" fill-rule="evenodd"/><g style="fill:none;stroke:#646464;stroke-width:.264583;stroke-linecap:round;stroke-linejoin:round;stroke-miterlimit:0"><path d="m1.2079913 4.6403683c-.142618-2.018824 1.444882-3.574812 3.429257-3.44252"/><path d="m2.5100743 5.1560943c0-1.852084.79375-2.645834 2.645834-2.645834"/></g></g><g transform="matrix(.06614604 0 0 .06614604 1.060164 -.000401)"><rect fill="url(#b)" height="12" rx="1.546875" width="12" x="24" y="60"/><rect fill="url(#c)" height="8.937499" rx=".837891" width="8.937503" x="25.562511" y="61.5625"/><path d="m26.428317 61.562516c-.464192 0-.837891.3737-.837891.837891v4.224364c.679121.06455 1.378207.104736 2.094726.104736 2.578772 0 4.95135-.434878 6.842772-1.169555v-3.159545c0-.464191-.373698-.837891-.837891-.837891z" fill="url(#a)"/></g><path d="m1.058333 1.058888h4.233334v4.233334h-4.233334z" fill="none" stroke-width=".264583"/><g transform="matrix(.06614604 0 0 .06614604 1.319791 -2.379992)"><rect fill="url(#b)" height="12" rx="1.546875" width="12" x="24" y="60"/><rect fill="url(#c)" height="8.937499" rx=".837891" width="8.937503" x="25.562511" y="61.5625"/><path d="m26.428317 61.562516c-.464192 0-.837891.3737-.837891.837891v4.224364c.679121.06455 1.378207.104736 2.094726.104736 2.578772 0 4.95135-.434878 6.842772-1.169555v-3.159545c0-.464191-.373698-.837891-.837891-.837891z" fill="url(#a)"/></g><g transform="matrix(.06614604 0 0 .06614604 .003111 -1.059619)"><rect fill="url(#b)" height="12" rx="1.546875" width="12" x="24" y="60"/><rect fill="url(#c)" height="8.937499" rx=".837891" width="8.937503" x="25.562511" y="61.5625"/><path d="m26.428317 61.562516c-.464192 0-.837891.3737-.837891.837891v4.224364c.679121.06455 1.378207.104736 2.094726.104736 2.578772 0 4.95135-.434878 6.842772-1.169555v-3.159545c0-.464191-.373698-.837891-.837891-.837891z" fill="url(#a)"/></g><g transform="matrix(.06614604 0 0 .06614604 2.378127 -1.321655)"><rect fill="url(#b)" height="12" rx="1.546875" width="12" x="24" y="60"/><rect fill="url(#c)" height="8.937499" rx=".837891" width="8.937503" x="25.562511" y="61.5625"/><path d="m26.428317 61.562516c-.464192 0-.837891.3737-.837891.837891v4.224364c.679121.06455 1.378207.104736 2.094726.104736 2.578772 0 4.95135-.434878 6.842772-1.169555v-3.159545c0-.464191-.373698-.837891-.837891-.837891z" fill="url(#a)"/></g></svg>