<svg height="24" width="24" xmlns="http://www.w3.org/2000/svg" xmlns:xlink="http://www.w3.org/1999/xlink"><linearGradient id="a" gradientTransform="matrix(1.0874736 0 0 1.0955525 5.8181 -99.039161)" gradientUnits="userSpaceOnUse" x1="8.238619" x2="8.238619" xlink:href="#b" y1="-13.864992" y2="-1.404765"/><linearGradient id="b"><stop offset="0" stop-color="#06f"/><stop offset="1" stop-color="#80b3ff"/></linearGradient><linearGradient id="c" gradientTransform="matrix(1.0874736 0 0 1.0955525 98.907693 -99.039161)" gradientUnits="userSpaceOnUse" x1="8.238619" x2="8.238619" xlink:href="#b" y1="-13.864992" y2="-1.404765"/><linearGradient id="d" gradientTransform="matrix(1.0874736 0 0 1.0955525 5.8181 -5.819893)" gradientUnits="userSpaceOnUse" x1="8.238619" x2="8.238619" xlink:href="#b" y1="-13.864992" y2="-1.404765"/><linearGradient id="e" gradientTransform="matrix(1.0874736 0 0 1.0955525 98.907693 -5.819895)" gradientUnits="userSpaceOnUse" x1="8.238619" x2="8.238619" xlink:href="#b" y1="-13.864992" y2="-1.404765"/><mask id="f" maskUnits="userSpaceOnUse"><rect fill="#fff" filter="url(#g)" height="100" rx="1.199764" ry="1.444445" transform="matrix(1.1453342 0 0 1.1453342 -3.237549 -15.52592)" width="112" x="12" y="4"/></mask><filter id="g"><feGaussianBlur stdDeviation="3.0486726"/></filter><radialGradient id="h" cx="53.235302" cy="106.0573" gradientTransform="matrix(.9728905 -8.15107 -18.526373 -2.211261 1957.2342 725.31677)" gradientUnits="userSpaceOnUse" r="9.102521" xlink:href="#i"/><linearGradient id="i"><stop offset="0" stop-color="#323232"/><stop offset=".07692308" stop-color="#dfe1e1"/><stop offset=".26289096" stop-color="#b6b1b1"/><stop offset=".5" stop-color="#8d8282"/><stop offset=".78201604" stop-color="#fff"/><stop offset=".9005897" stop-color="#dfd9df"/><stop offset="1" stop-color="#3a3a3a"/></linearGradient><radialGradient id="j" cx="53.347126" cy="104.68401" gradientTransform="matrix(.5808473 -2.8009276 -6.4965168 -1.3472267 701.00301 348.75795)" gradientUnits="userSpaceOnUse" r="9.102521"><stop offset="0" stop-color="#fafafa"/><stop offset="1" stop-color="#fafafa" stop-opacity="0"/></radialGradient><radialGradient id="k" cx="49.110855" cy="105.43803" gradientTransform="matrix(-2.9339535 -1.0170467 -1.1904108 3.4340702 323.071 -252.78281)" gradientUnits="userSpaceOnUse" r="10.20672"><stop offset="0" stop-color="#fff"/><stop offset="1" stop-color="#fff" stop-opacity="0"/></radialGradient><linearGradient id="l" gradientTransform="matrix(2.2608955 0 0 1.9345479 -550.58555 -317.90247)" gradientUnits="userSpaceOnUse" x1="190.03462" x2="208.7153" xlink:href="#i" y1="90.22673" y2="90.22673"/><linearGradient id="m" gradientTransform="matrix(2.2608955 0 0 1.9345479 -497.11778 -432.24104)" gradientUnits="userSpaceOnUse" x1="98.411324" x2="166.32983" y1="185.68851" y2="155.59846"><stop offset="0"/><stop offset="1" stop-opacity="0"/></linearGradient><clipPath id="n"><path d="m-128.2008-3.392377 23.74522 9.7284442 2.01792-.1602995-1.38146-10.7435849-1.93542-1.2638437-19.21468 1.3857215z"/></clipPath><filter id="o" height="1.420946" width="1.422764" x="-.211382" y="-.210473"><feGaussianBlur stdDeviation="1.4336041"/></filter><g transform="matrix(.1875 0 0 .1875 -1.00000125 2.0000023125)"><rect fill="#618fd2" fill-opacity=".091954" height="90.666779" rx=".145854" ry=".177436" width="90.666779" x="16.000019" y="15.99986"/><rect fill="url(#a)" height="16.000021" rx=".22515" ry=".273967" transform="scale(1 -1)" width="16.000019" x="5.33334" y="-117.33332"/><rect fill="#bfd9ff" height="5.333337" rx=".22515" ry=".271947" transform="scale(1 -1)" width="5.33334" x="10.66668" y="-111.99998"/><rect fill="url(#c)" height="16.000023" rx=".22515" ry=".273967" transform="scale(1 -1)" width="16.000021" x="101.33346" y="-117.33332"/><rect fill="#bfd9ff" height="5.333339" rx=".22515" ry=".271947" transform="scale(1 -1)" width="5.333337" x="106.6668" y="-111.99998"/><rect fill="url(#d)" height="16.000021" rx=".22515" ry=".273967" transform="scale(1 -1)" width="16.000019" x="5.33334" y="-21.3332"/><rect fill="#bfd9ff" height="5.33334" rx=".22515" ry=".271947" transform="scale(1 -1)" width="5.33334" x="10.66668" y="-15.99986"/><rect fill="url(#e)" height="16.000021" rx=".22515" ry=".273967" transform="scale(1 -1)" width="16.000021" x="101.33346" y="-21.3332"/><rect fill="#bfd9ff" height="5.333339" rx=".22515" ry=".271947" transform="scale(1 -1)" width="5.333337" x="106.6668" y="-15.99986"/><g fill="#7193c6"><path d="m101.33331-32.000042h5.333341v5.333342h-5.333341z" transform="rotate(90)"/><path d="m101.3333-42.666721h5.333341v5.333342h-5.333341z" transform="rotate(90)"/><path d="m101.33331-53.333401h5.333341v5.333342h-5.333341z" transform="rotate(90)"/><path d="m101.3333-64.000076h5.333341v5.333342h-5.333341z" transform="rotate(90)"/><path d="m101.3333-74.666763h5.333341v5.333342h-5.333341z" transform="rotate(90)"/><path d="m101.33331-85.333443h5.333341v5.333342h-5.333341z" transform="rotate(90)"/><path d="m101.3333-96.000114h5.333341v5.333342h-5.333341z" transform="rotate(90)"/><path d="m101.33331-32.000042h5.333341v5.333342h-5.333341z" transform="matrix(-1 0 0 -1 208.00012 -.00016)"/><path d="m101.3333-42.666721h5.333341v5.333342h-5.333341z" transform="matrix(-1 0 0 -1 208.00012 -.00016)"/><path d="m101.33331-53.333401h5.333341v5.333342h-5.333341z" transform="matrix(-1 0 0 -1 208.00012 -.00016)"/><path d="m101.3333-64.000076h5.333341v5.333342h-5.333341z" transform="matrix(-1 0 0 -1 208.00012 -.00016)"/><path d="m101.3333-74.666763h5.333341v5.333342h-5.333341z" transform="matrix(-1 0 0 -1 208.00012 -.00016)"/><path d="m101.33331-85.333443h5.333341v5.333342h-5.333341z" transform="matrix(-1 0 0 -1 208.00012 -.00016)"/><path d="m101.3333-96.000114h5.333341v5.333342h-5.333341z" transform="matrix(-1 0 0 -1 208.00012 -.00016)"/><path d="m101.33331-32.000042h5.333341v5.333342h-5.333341z" transform="matrix(0 1 -1 0 -.000003 -85.333438)"/><path d="m101.3333-42.666721h5.333341v5.333342h-5.333341z" transform="matrix(0 1 -1 0 -.000003 -85.333438)"/><path d="m101.33331-53.333401h5.333341v5.333342h-5.333341z" transform="matrix(0 1 -1 0 -.000003 -85.333438)"/><path d="m101.3333-64.000076h5.333341v5.333342h-5.333341z" transform="matrix(0 1 -1 0 -.000003 -85.333438)"/><path d="m101.3333-74.666763h5.333341v5.333342h-5.333341z" transform="matrix(0 1 -1 0 -.000003 -85.333438)"/><path d="m101.33331-85.333443h5.333341v5.333342h-5.333341z" transform="matrix(0 1 -1 0 -.000003 -85.333438)"/><path d="m101.3333-96.000114h5.333341v5.333342h-5.333341z" transform="matrix(0 1 -1 0 -.000003 -85.333438)"/><path d="m101.33331-32.000042h5.333341v5.333342h-5.333341z" transform="matrix(-1 0 0 -1 122.666676 -2.666832)"/><path d="m101.3333-42.666721h5.333341v5.333342h-5.333341z" transform="matrix(-1 0 0 -1 122.666676 -2.666832)"/><path d="m101.33331-53.333401h5.333341v5.333342h-5.333341z" transform="matrix(-1 0 0 -1 122.666676 -2.666832)"/><path d="m101.3333-64.000076h5.333341v5.333342h-5.333341z" transform="matrix(-1 0 0 -1 122.666676 -2.666832)"/><path d="m101.3333-74.666763h5.333341v5.333342h-5.333341z" transform="matrix(-1 0 0 -1 122.666676 -2.666832)"/><path d="m101.33331-85.333443h5.333341v5.333342h-5.333341z" transform="matrix(-1 0 0 -1 122.666676 -2.666832)"/><path d="m101.3333-96.000114h5.333341v5.333342h-5.333341z" transform="matrix(-1 0 0 -1 122.666676 -2.666832)"/></g></g><g mask="url(#f)" transform="matrix(.17685463125 0 0 .17685463125 -1.5633410625 2.9057300625)"><path d="m29.733826 93.557578 76.565594-35.724313 3.74271-5.050163-27.964957-18.69067-6.907623 1.950856-41.307066 47.80066z" fill="url(#h)"/><path d="m107.32508 50.938663-74.427424 35.613119-3.008197 6.986785 76.368201-35.710168 3.7845-5.046004z" fill="#555753"/><path d="m29.733826 93.557578 76.565594-35.724313 3.74271-5.050163-27.964957-18.69067-6.907623 1.950856-41.307066 47.80066z" fill="url(#j)" opacity=".106888"/><path d="m29.733826 93.557578 76.565594-35.724313 3.74271-5.050163-27.964957-18.69067-6.907623 1.950856-41.307066 47.80066z" style="fill:none;stroke-width:.86455;stroke-linecap:round;stroke-linejoin:round;stroke-dashoffset:4;stroke:url(#k)"/><rect fill="#2e3436" height="37.454777" rx="3.877173" transform="matrix(.65716951 -.75374282 .75374282 .65716951 0 0)" width="39.714981" x="27.310663" y="81.415123"/><path d="m-120.93575-101.55096h40.499767v65.715439h-40.499767z" fill="url(#l)" transform="matrix(-.7651682 -.6438304 -.6438304 .7651682 0 0)"/><path d="m-119.89533-98.376152h39.223221v62.538834h-39.223221z" fill="url(#m)" transform="matrix(-.7651682 -.6438304 -.6438304 .7651682 0 0)"/><path d="m-103.70446 80.243172h48.50209v40.591759h-48.50209z" fill="#e0e0e0" opacity=".52459" transform="matrix(-.6438304 .7651682 .7651682 .6438304 0 0)"/><rect clip-path="url(#n)" fill="#2e3436" filter="url(#o)" height="12.061829" rx="1.248594" transform="matrix(2.0406638 -2.3405465 2.3405465 2.0406638 304.62828 -199.57966)" width="12.789698" x="-104.11894" y="-5.487061"/></g></svg>