<svg height="24" viewBox="0 0 6.3499999 6.3500002" width="24" xmlns="http://www.w3.org/2000/svg" xmlns:xlink="http://www.w3.org/1999/xlink"><linearGradient id="a" gradientTransform="matrix(.26180824 0 0 .26375323 0 -263.1333)" gradientUnits="userSpaceOnUse" x1="8.238619" x2="8.238619" xlink:href="#b" y1="-13.864992" y2="-1.404765"/><linearGradient id="b"><stop offset="0" stop-color="#06f"/><stop offset="1" stop-color="#80b3ff"/></linearGradient><linearGradient id="c" gradientTransform="matrix(.26180761 0 0 .26375259 28.253439 -291.35552)" gradientUnits="userSpaceOnUse" x1="8.238619" x2="8.238619" xlink:href="#b" y1="-13.864992" y2="-1.404765"/><linearGradient id="d" gradientTransform="matrix(.26393028 0 0 .26589103 -.002833 -291.32124)" gradientUnits="userSpaceOnUse" x1="8.238619" x2="8.238619" xlink:href="#b" y1="-13.864992" y2="-1.404765"/><linearGradient id="e" gradientTransform="matrix(.01177964 0 0 .01893507 275.07213 -8.288587)" gradientUnits="userSpaceOnUse" x1="399.77466" x2="399.77466" y1="1164.6696" y2="549.06134"><stop offset="0" stop-color="#b4b4b6"/><stop offset=".5" stop-color="#9c9ca1"/><stop offset="1" stop-color="#cdcdd1"/></linearGradient><linearGradient id="f" gradientTransform="matrix(.09918406 0 0 .13229169 275.30803 -.529166)" gradientUnits="userSpaceOnUse" x1="133.54759" x2="15.999996" y1="11.87009" y2="109.6508"><stop offset="0" stop-color="#fff"/><stop offset=".42597079" stop-color="#fff"/><stop offset=".5892781" stop-color="#f1f1f1"/><stop offset=".80219781" stop-color="#eaeaea"/><stop offset="1" stop-color="#dfdfdf"/></linearGradient><linearGradient id="g" gradientTransform="matrix(0 -.18491938 -.29765625 0 17.4625 297.29717)" gradientUnits="userSpaceOnUse" x1="102.31124" x2="74.330322" y1="-5.830213" y2="32"><stop offset="0" stop-color="#fff"/><stop offset="1" stop-color="#fff" stop-opacity="0"/></linearGradient><linearGradient id="h" gradientTransform="matrix(.26180761 0 0 .26375259 28.253442 -263.1333)" gradientUnits="userSpaceOnUse" x1="8.238619" x2="8.238619" xlink:href="#b" y1="-13.864992" y2="-1.404765"/><linearGradient id="i" gradientTransform="matrix(.14818168 .14818168 .14818168 -.14818168 3.469097 274.61491)" gradientUnits="userSpaceOnUse" x1="113.15723" x2="39.268185" y1="25.786163" y2="25.786163"><stop offset="0" stop-color="#0968ef"/><stop offset="1" stop-color="#aecffc"/></linearGradient><g transform="matrix(.1875 0 0 .1875 .000004 -49.3375)"><rect fill="url(#h)" height="4.233335" rx=".054204" ry=".065957" transform="scale(1 -1)" width="4.233334" x="28.222202" y="-267.36667"/><rect fill="#618fd2" fill-opacity=".091954" height="26.81109" rx=".038591" ry=".046947" width="26.811094" x="2.82222" y="265.95557"/><g transform="matrix(1.3315298 0 0 1.3315298 4.256225 -101.3209)"><rect fill="url(#e)" height="13.778384" opacity=".75" rx=".629861" ry=".732692" transform="matrix(0 1 1 0 0 0)" width="13.770769" x="275.83664" y="-1.078384"/><g fill-rule="evenodd"><rect fill="url(#f)" height="11.658852" rx=".317438" ry=".382176" transform="matrix(0 1 1 0 0 0)" width="11.65125" x="276.89639" y="-.018618"/><path d="m11.640234 280.37704c-2.8063278 1.9756-4.7819212 3.82754-8.465234 4.98127v-5.03327c3.5263275-.28191 5.6521308-1.16193 8.465234-2.37506z" fill="url(#g)"/></g></g><path d="m270.1889-18.344433h1.41094v1.411111h-1.41094z" fill="#7193c6" transform="matrix(0 1 -1 0 0 -4.233357)"/><path d="m270.1889-15.522212h1.41094v1.41111h-1.41094z" fill="#7193c6" transform="matrix(0 1 -1 0 0 -4.233357)"/><path d="m270.1889-12.699992h1.41094v1.41111h-1.41094z" fill="#7193c6" transform="matrix(0 1 -1 0 0 -4.233357)"/><path d="m270.1889-9.877771h1.41094v1.41111h-1.41094z" fill="#7193c6" transform="matrix(0 1 -1 0 0 -4.233357)"/><path d="m270.1889-7.055551h1.41094v1.41111h-1.41094z" fill="#7193c6" transform="matrix(0 1 -1 0 0 -4.233357)"/><path d="m270.1889-21.166653h1.41094v1.411111h-1.41094z" fill="#7193c6" transform="matrix(0 1 -1 0 0 -4.233357)"/><path d="m270.1889-23.988873h1.41094v1.411111h-1.41094z" fill="#7193c6" transform="matrix(0 1 -1 0 0 -4.233357)"/><path d="m270.18893-26.811094h1.41094v1.411111h-1.41094z" fill="#7193c6" transform="matrix(0 1 -1 0 0 -4.233357)"/><rect fill="url(#d)" height="4.233312" rx=".054644" ry=".066492" transform="scale(1 -1)" width="4.236147" x="-.002833" y="-295.58887"/><rect fill="#bfd9ff" height="1.411104" rx=".054607" ry=".065957" transform="scale(1 -1)" width="1.411104" x="1.411117" y="-294.17776"/><rect fill="url(#c)" height="4.233328" rx=".054204" ry=".065957" transform="scale(1 -1)" width="4.23333" x="28.222202" y="-295.5889"/><rect fill="#bfd9ff" height="1.411115" rx=".054607" ry=".065957" transform="scale(1 -1)" width="1.411111" x="29.633314" y="-294.17776"/><rect fill="url(#a)" height="4.233306" rx=".054205" ry=".065957" transform="scale(1 -1)" width="4.233313" y="-267.36664"/><rect fill="#bfd9ff" height="1.41111" rx=".054607" ry=".065957" transform="scale(1 -1)" width="1.41111" x="1.41111" y="-265.95551"/><g fill="#7193c6"><path d="m-4.212635 272.99048h1.390432v1.390406h-1.390432z" transform="matrix(-1.0148721 0 0 1.0148721 -.041972 -8.27263)"/><path d="m-4.212635 275.77133h1.390432v1.390434h-1.390432z" transform="matrix(-1.0148721 0 0 1.0148721 -.041972 -8.27263)"/><path d="m-4.212635 278.55219h1.390432v1.390431h-1.390432z" transform="matrix(-1.0148721 0 0 1.0148721 -.041972 -8.27263)"/><path d="m-4.212635 281.33307h1.390433v1.390423h-1.390433z" transform="matrix(-1.0148721 0 0 1.0148721 -.041972 -8.27263)"/><path d="m-4.212635 284.11392h1.390432v1.390436h-1.390432z" transform="matrix(-1.0148721 0 0 1.0148721 -.041972 -8.27263)"/><path d="m-4.212635 286.89478h1.390432v1.390448h-1.390432z" transform="matrix(-1.0148721 0 0 1.0148721 -.041972 -8.27263)"/><path d="m-4.212635 289.67566h1.390432v1.390429h-1.390432z" transform="matrix(-1.0148721 0 0 1.0148721 -.041972 -8.27263)"/><path d="m-4.212635 292.45651h1.390432v1.390429h-1.390432z" transform="matrix(-1.0148721 0 0 1.0148721 -.041972 -8.27263)"/><path d="m270.1889-18.344433h1.41094v1.411111h-1.41094z" transform="matrix(0 1 -1 0 0 21.166642)"/><path d="m270.1889-15.522212h1.41094v1.41111h-1.41094z" transform="matrix(0 1 -1 0 0 21.166642)"/><path d="m270.1889-12.699992h1.41094v1.41111h-1.41094z" transform="matrix(0 1 -1 0 0 21.166642)"/><path d="m270.1889-9.877771h1.41094v1.41111h-1.41094z" transform="matrix(0 1 -1 0 0 21.166642)"/><path d="m270.1889-7.055551h1.41094v1.41111h-1.41094z" transform="matrix(0 1 -1 0 0 21.166642)"/><path d="m270.1889-21.166653h1.41094v1.411111h-1.41094z" transform="matrix(0 1 -1 0 0 21.166642)"/><path d="m270.1889-23.988873h1.41094v1.411111h-1.41094z" transform="matrix(0 1 -1 0 0 21.166642)"/><path d="m270.18906-26.811094h1.41094v1.411111h-1.41094z" transform="matrix(0 1 -1 0 0 21.166642)"/><path d="m-4.23333 273.28009h1.390433v1.390433h-1.390433z" transform="matrix(-1.0148721 0 0 1.0148721 25.337025 -5.744349)"/><path d="m-4.23333 276.06097h1.390432v1.390422h-1.390432z" transform="matrix(-1.0148721 0 0 1.0148721 25.337025 -5.744349)"/><path d="m-4.23333 278.84183h1.390432v1.39044h-1.390432z" transform="matrix(-1.0148721 0 0 1.0148721 25.337025 -5.744349)"/><path d="m-4.23333 281.62268h1.390433v1.390429h-1.390433z" transform="matrix(-1.0148721 0 0 1.0148721 25.337025 -5.744349)"/><path d="m-4.23333 284.40356h1.390435v1.390448h-1.390435z" transform="matrix(-1.0148721 0 0 1.0148721 25.337025 -5.744349)"/><path d="m-4.23333 287.18442h1.390433v1.390439h-1.390433z" transform="matrix(-1.0148721 0 0 1.0148721 25.337025 -5.744349)"/><path d="m-4.23333 289.9653h1.390433v1.39042h-1.390433z" transform="matrix(-1.0148721 0 0 1.0148721 25.337025 -5.744349)"/><path d="m-4.23333 270.49924h1.390433v1.390429h-1.390433z" transform="matrix(-1.0148721 0 0 1.0148721 25.337025 -5.744349)"/></g><rect fill="#bfd9ff" height="1.411121" rx=".054607" ry=".065957" transform="scale(1 -1)" width="1.411111" x="29.633314" y="-265.95557"/><path d="m25.399984 288.24762-6.519996-.0364.000003-.80715 3.493816-.99713-16.5484549-16.44367 1.1854524-1.18546 16.5484535 16.44367.967308-3.46398.836969-.0299z" fill="url(#i)" fill-rule="evenodd"/></g></svg>