<?xml version="1.0" encoding="UTF-8" standalone="no"?>
<svg
   xmlns:dc="http://purl.org/dc/elements/1.1/"
   xmlns:cc="http://creativecommons.org/ns#"
   xmlns:rdf="http://www.w3.org/1999/02/22-rdf-syntax-ns#"
   xmlns:svg="http://www.w3.org/2000/svg"
   xmlns="http://www.w3.org/2000/svg"
   xmlns:sodipodi="http://sodipodi.sourceforge.net/DTD/sodipodi-0.dtd"
   xmlns:inkscape="http://www.inkscape.org/namespaces/inkscape"
   viewBox="0 0 24 24"
   version="1.1"
   id="svg6"
   sodipodi:docname="transform-browse.svg"
   width="24"
   height="24"
   inkscape:version="0.92.5 (2060ec1f9f, 2020-04-08)"
   inkscape:export-filename="/home/rizmut/Dokumen/Rizmut/Github/karasa-jaga-icon-theme/build/Karasa-Jaga/24x24/actions/transform-browse.png"
   inkscape:export-xdpi="96"
   inkscape:export-ydpi="96">
  <metadata
     id="metadata10">
    <rdf:RDF>
      <cc:Work
         rdf:about="">
        <dc:format>image/svg+xml</dc:format>
        <dc:type
           rdf:resource="http://purl.org/dc/dcmitype/StillImage" />
        <dc:title />
      </cc:Work>
    </rdf:RDF>
  </metadata>
  <sodipodi:namedview
     pagecolor="#ffffff"
     bordercolor="#666666"
     borderopacity="1"
     objecttolerance="10"
     gridtolerance="10"
     guidetolerance="10"
     inkscape:pageopacity="0"
     inkscape:pageshadow="2"
     inkscape:window-width="1366"
     inkscape:window-height="700"
     id="namedview8"
     showgrid="true"
     inkscape:zoom="30.341309"
     inkscape:cx="13.37238"
     inkscape:cy="16.586726"
     inkscape:window-x="0"
     inkscape:window-y="0"
     inkscape:window-maximized="1"
     inkscape:current-layer="svg6">
    <inkscape:grid
       type="xygrid"
       id="grid4520" />
  </sodipodi:namedview>
  <defs
     id="defs3051">
    <style
       type="text/css"
       id="current-color-scheme">
      .ColorScheme-Text {
        color:#232629;
      }
      </style>
    <filter
       inkscape:collect="always"
       style="color-interpolation-filters:sRGB"
       id="filter4565"
       x="-0.060660517"
       width="1.121321"
       y="-0.059353712"
       height="1.1187074">
      <feGaussianBlur
         inkscape:collect="always"
         stdDeviation="0.49849956"
         id="feGaussianBlur4567" />
    </filter>
  </defs>
  <path
     sodipodi:type="inkscape:offset"
     inkscape:radius="1.5184287"
     inkscape:original="M 12.474609 2.7402344 C 12.465509 2.7408854 12.445963 2.7434906 12.445312 2.7441406 C 11.423265 2.8057556 10.752396 3.5685304 10.5 4.5 C 10.034702 3.9733162 9.4264431 3.5991363 8.6699219 3.6523438 C 8.6647119 3.6529494 8.6594999 3.6536069 8.6542969 3.6542969 C 7.3059613 3.7724086 6.3290232 4.9871827 6.5664062 6.3300781 C 6.5664062 6.3300781 6.5664062 6.3320312 6.5664062 6.3320312 L 7.609375 12.425781 C 7.5626072 12.376404 7.4853471 12.295372 7.4394531 12.248047 C 6.8814559 11.672656 6.3092536 11.135339 5.453125 11.09375 C 4.492982 11.04711 3.7394403 11.489529 3.3261719 11.927734 C 2.9129035 12.365939 2.7441406 12.851562 2.7441406 12.851562 C 2.6046543 13.252173 2.7551237 13.69634 3.109375 13.929688 C 4.3135798 14.721747 5.438892 16.172106 6.4902344 18.060547 C 7.0592483 19.08262 7.6162227 20.078959 8.2773438 20.886719 C 8.9384647 21.694478 9.7862851 22.3912 10.886719 22.402344 C 10.890019 22.402361 10.893184 22.402361 10.896484 22.402344 L 19.158203 22.400391 C 19.651637 22.400771 20.058747 22.014273 20.083984 21.521484 C 20.100304 21.196523 20.178095 19.665293 20.322266 17.949219 C 20.466436 16.233145 20.690192 14.789194 20.935547 13.828125 L 22.337891 8.3476562 L 22.337891 8.34375 C 22.744908 6.8141749 21.49312 5.3720783 19.927734 5.4765625 C 19.433465 5.5050535 18.984355 5.6900855 18.617188 5.9765625 L 18.658203 5.1660156 L 18.65625 5.1796875 C 18.749537 3.7734769 17.577912 2.6552541 16.183594 2.7421875 L 16.181641 2.7421875 C 15.385098 2.7908639 14.822025 3.294773 14.441406 3.9335938 C 14.129435 3.4238126 13.699986 3.1151274 13.107422 2.9667969 C 12.932292 2.8147081 12.706473 2.7338597 12.474609 2.7402344 z M 14.916016 4.9257812 L 14.917969 4.9394531 C 14.917969 4.9394531 14.916016 4.9375 14.916016 4.9375 L 14.916016 4.9257812 z "
     style="color:#232629;opacity:0.81000007;fill:#3a3a38;fill-opacity:1;stroke:none;stroke-width:1.28112316;filter:url(#filter4565)"
     id="path4537"
     d="m 12.433594,1.2226562 c -0.02214,0.0013 -0.07552,0.00521 -0.08008,0.00586 -0.186778,0.01126 -0.292551,0.1676482 -0.466797,0.2070313 0.06569,0.1541913 0.558594,1.3085937 0.558593,1.3085937 0,0 -0.747445,-1.0917738 -0.818359,-1.1953125 C 11.010109,1.7468957 10.449977,1.9823873 10.035156,2.4375 9.5812214,2.2576102 9.104193,2.0986205 8.5625,2.1367188 a 1.5185805,1.5185805 0 0 0 -0.068359,0.00781 l 0.027344,-0.00195 C 6.3370542,2.3339302 4.6853953,4.389494 5.0703125,6.5878906 v 0.00195 c 2.361e-4,0.00134 -2.376e-4,0.00256 0,0.00391 l 0.515625,3.0019531 c -0.023121,-0.00158 -0.035216,-0.018396 -0.058594,-0.019531 -1.4633983,-0.071086 -2.6112667,0.5732141 -3.3066407,1.3105471 -0.6558858,0.695462 -0.9101562,1.466797 -0.9101562,1.466797 -0.3644283,1.049525 0.034962,2.232516 0.9628906,2.84375 a 1.5185805,1.5185805 0 0 0 0.00195,0.002 c 0.8560455,0.563059 1.9005997,1.824815 2.8886719,3.599609 0.5698551,1.023584 1.1535112,2.090948 1.9375,3.048828 0.7930616,0.968965 2.0361803,2.054712 3.7695315,2.072266 a 1.5185805,1.5185805 0 0 0 0.0078,0 c 0.0057,2.9e-5 0.01168,1.1e-5 0.01758,0 l 8.259766,-0.002 c 1.286982,9.91e-4 2.377536,-1.033066 2.443359,-2.31836 a 1.5185805,1.5185805 0 0 0 0,-0.002 c 0.01618,-0.322197 0.09465,-1.835091 0.236329,-3.521484 0.139077,-1.655459 0.360485,-3.048674 0.570312,-3.871094 v -0.002 l 1.402344,-5.4785156 a 1.5185805,1.5185805 0 0 0 0.04687,-0.3769532 L 23.804688,8.734375 C 24.458532,6.2772182 22.444158,3.9192262 19.966797,3.9863281 19.46704,2.3270916 17.894569,1.1140409 16.089844,1.2265625 15.397812,1.2688523 14.796625,1.5261956 14.300781,1.8828125 14.030098,1.7368211 13.767236,1.5669019 13.476562,1.4941406 l 0.626954,0.3261719 C 13.64163,1.419195 13.045105,1.2058438 12.433594,1.2226562 Z m -0.08008,0.00586 c -0.05025,0.00395 -0.07239,0.00444 -0.09766,0.00781 -0.01441,0.00192 -0.02841,0.00471 -0.05859,0.00977 -0.01509,0.00253 -0.03066,0.0037 -0.07617,0.013672 -0.02276,0.00499 -0.115053,0.031195 -0.115235,0.03125 -9e-5,2.75e-5 -0.156193,0.056617 -0.15625,0.056641 0,0 0.02505,0.057113 0.02734,0.0625 z m -0.765625,0.2636719 c 0,0 -0.08399,0.060547 -0.08399,0.060547 l 0.09961,-0.037109 c -5.81e-4,-8.472e-4 -0.01563,-0.023437 -0.01563,-0.023437 z m 4.404297,2.3730469 0.441406,0.4433594 v 0.6171874 l -2.988282,0.2128907 z m 3.833984,0.095703 h 0.01367 c -0.0015,8.89e-5 -0.0024,0.00186 -0.0039,0.00195 -0.0035,2.229e-4 -0.0063,-0.00219 -0.0098,-0.00195 z M 5.0488281,6.3320312 a 1.5185805,1.5185805 0 0 0 0.019531,0.2480469 z" />
  <path
     style="color:#232629;fill:#ffffff;fill-opacity:1;stroke:none;stroke-width:1.28112316"
     d="M 15.9375 1.0019531 C 15.279887 1.0422902 14.751807 1.3199165 14.306641 1.6777344 C 13.090343 0.75461186 11.208091 1.0147225 10.091797 2.3300781 C 9.6038339 2.0586231 9.0570959 1.8671396 8.4238281 1.9121094 A 1.0001 1.0001 0 0 0 8.375 1.9140625 C 6.4665395 2.0811939 5.0391638 3.840454 5.375 5.7304688 L 6.0449219 9.640625 C 5.3528988 9.422611 4.6892381 9.3144791 4.0351562 9.5019531 C 2.1834882 10.032437 1.6054688 11.806641 1.6054688 11.806641 L 1.3828125 12.433594 A 1.0001 1.0001 0 0 0 1.7617188 13.59375 L 2.3457031 13.992188 A 1.0001 1.0001 0 0 0 2.3613281 14.001953 C 3.2311178 14.574057 4.3899719 16.582468 5.6601562 18.550781 C 6.1727258 19.34503 6.4299364 20.432235 7.3613281 21.40625 C 8.1434434 22.224228 9.2249749 23.008863 10.644531 23 L 10.65625 23 C 13.644939 22.9985 16.63316 23.000293 19.623047 23 L 19.855469 23 A 1.0001 1.0001 0 0 0 20.855469 22.037109 L 20.884766 21.21875 C 20.884766 21.21875 20.886619 21.205118 20.886719 21.205078 L 20.886719 21.181641 C 20.888719 21.154801 20.966849 20.103755 21.115234 18.246094 C 21.264088 16.383108 21.520985 14.138865 21.730469 13.318359 L 23.132812 7.8378906 L 23.132812 7.8339844 C 23.70595 5.6843185 21.907613 3.5836331 19.679688 3.7363281 C 19.558886 3.7432681 19.495017 3.8311371 19.380859 3.8515625 C 19.146649 2.1887825 17.691705 0.89270839 15.939453 1.0019531 L 15.9375 1.0019531 z M 12.318359 2.9082031 L 12.318359 2.9101562 C 13.062133 2.8646203 13.778959 3.4932607 13.808594 4.21875 L 14.160156 10.507812 C 14.179976 10.863544 14.407468 10.858412 14.423828 10.537109 L 14.744141 4.21875 C 14.771531 3.5502728 15.371193 2.9495503 16.056641 2.9082031 C 16.849606 2.8581121 17.600057 3.588754 17.548828 4.3613281 L 17.199219 11.275391 C 17.188719 11.483128 17.249487 11.586271 17.314453 11.333984 L 18.511719 6.6933594 C 18.648338 6.1239698 19.19959 5.6740488 19.798828 5.640625 C 20.684697 5.576873 21.484166 6.5122824 21.259766 7.3496094 L 19.855469 12.841797 C 19.291974 15.049036 19.033012 20.342523 19 21 L 10.738281 21.003906 C 9.3288427 20.989633 8.2483954 19.379155 7.1152344 17.34375 C 6.0683935 15.463395 4.9555832 13.398233 3.4355469 12.398438 C 3.4355469 12.398438 3.8533704 11.195106 5.2246094 11.261719 C 6.1155457 11.304999 6.8270659 12.52885 8.6679688 14.322266 C 8.6679688 14.322266 8.7010784 14.16979 8.7558594 13.953125 C 8.7216444 13.842295 8.6999875 13.724947 8.6953125 13.609375 L 7.2949219 5.4121094 C 7.1631553 4.6705005 7.7814027 3.8857537 8.5507812 3.8183594 C 9.2500376 3.7691794 9.9386135 4.3103827 10.039062 4.9863281 L 11.0625 10.962891 C 11.10466 11.209517 11.40179 11.144937 11.382812 10.822266 L 11.005859 4.3613281 C 10.958559 3.645766 11.583672 2.9516451 12.318359 2.9082031 z "
     id="path4" />
  <path
     sodipodi:nodetypes="cccccccccccccccccscscccccccccc"
     inkscape:connector-curvature="0"
     id="path4533"
     class="ColorScheme-Text"
     d="m 12.319263,2.9082343 v 0.00251 c 0.743774,-0.045536 1.459176,0.5816658 1.488811,1.3071551 L 14.160883,10.5078 c 0.01982,0.355732 0.246371,0.351413 0.262731,0.03011 l 0.320281,-6.3200075 c 0.02739,-0.6684772 0.628208,-1.2683167 1.313656,-1.3096639 0.792965,-0.050091 1.54254,0.6800992 1.491311,1.4526733 l -0.350308,6.9146301 c -0.0105,0.207737 0.05013,0.309987 0.115096,0.0577 l 1.198557,-4.6390192 c 0.136619,-0.5693896 0.686895,-1.0203289 1.286133,-1.0537527 0.885869,-0.063752 1.685685,0.8712577 1.461285,1.7085847 L 19.855892,12.841109 C 19.292397,15.048348 19.033012,20.342523 19,21 l -8.262289,0.0035 v 0 C 9.3282724,20.989227 8.2479949,19.379349 7.1148339,17.343944 6.067993,15.463589 4.9547822,13.397931 3.4347459,12.398136 c 0,0 0.4191925,-1.203002 1.7904315,-1.136389 0.8909363,0.04328 1.6024733,1.266216 3.4433762,3.059632 0,0 0.032795,-0.152149 0.087576,-0.368814 -0.034215,-0.11083 -0.055378,-0.228152 -0.060053,-0.343724 L 7.2948455,5.4121513 C 7.1630789,4.6705424 7.7815715,3.8863719 8.55095,3.8189776 c 0.6992563,-0.04918 1.38836,0.4907095 1.488809,1.1666549 l 1.0234,5.9762835 c 0.04216,0.246626 0.339259,0.182171 0.320282,-0.1405 L 11.005609,4.3609076 c -0.0473,-0.7155621 0.578967,-1.4092313 1.313654,-1.4526733 z"
     style="color:#232629;fill:#3a3a38;fill-opacity:1;stroke:none;stroke-width:1.28112316" />
</svg>
