<?xml version="1.0" encoding="UTF-8" standalone="no"?>
<svg
   xmlns:dc="http://purl.org/dc/elements/1.1/"
   xmlns:cc="http://creativecommons.org/ns#"
   xmlns:rdf="http://www.w3.org/1999/02/22-rdf-syntax-ns#"
   xmlns:svg="http://www.w3.org/2000/svg"
   xmlns="http://www.w3.org/2000/svg"
   xmlns:xlink="http://www.w3.org/1999/xlink"
   xmlns:sodipodi="http://sodipodi.sourceforge.net/DTD/sodipodi-0.dtd"
   xmlns:inkscape="http://www.inkscape.org/namespaces/inkscape"
   enable-background="new 0 0 128 128"
   height="24"
   viewBox="0 0 24 24"
   width="24"
   version="1.1"
   id="svg174"
   sodipodi:docname="view-pages-facing-first-centered.svg"
   inkscape:version="0.92.5 (2060ec1f9f, 2020-04-08)"
   inkscape:export-filename="/home/rizmut/Dokumen/Rizmut/Github/karasa-jaga-icon-theme/build/Karasa-Jaga/24x24/actions/view-pages-facing-first-centered.png"
   inkscape:export-xdpi="96"
   inkscape:export-ydpi="96">
  <metadata
     id="metadata180">
    <rdf:RDF>
      <cc:Work
         rdf:about="">
        <dc:format>image/svg+xml</dc:format>
        <dc:type
           rdf:resource="http://purl.org/dc/dcmitype/StillImage" />
        <dc:title></dc:title>
      </cc:Work>
    </rdf:RDF>
  </metadata>
  <defs
     id="defs178">
    <radialGradient
       inkscape:collect="always"
       xlink:href="#a"
       id="radialGradient989"
       gradientUnits="userSpaceOnUse"
       cx="89.138987"
       cy="107.11651"
       r="135.18756" />
    <radialGradient
       inkscape:collect="always"
       xlink:href="#b"
       id="radialGradient991"
       gradientUnits="userSpaceOnUse"
       gradientTransform="matrix(0.94807,0,0,0.9510679,-8.347333,-0.543642)"
       cx="102"
       cy="112.3047"
       r="139.55859" />
    <linearGradient
       inkscape:collect="always"
       xlink:href="#c"
       id="linearGradient993"
       gradientUnits="userSpaceOnUse"
       x1="88.591797"
       y1="96.592697"
       x2="71.262016"
       y2="79.262917" />
    <linearGradient
       inkscape:collect="always"
       xlink:href="#d"
       id="linearGradient995"
       gradientUnits="userSpaceOnUse"
       x1="85.219681"
       y1="93.219681"
       x2="61.336319"
       y2="69.336319" />
    <linearGradient
       inkscape:collect="always"
       xlink:href="#e"
       id="linearGradient997"
       gradientUnits="userSpaceOnUse"
       x1="96"
       y1="104"
       x2="88.000198"
       y2="96.000198" />
  </defs>
  <sodipodi:namedview
     pagecolor="#ffffff"
     bordercolor="#666666"
     borderopacity="1"
     objecttolerance="10"
     gridtolerance="10"
     guidetolerance="10"
     inkscape:pageopacity="0"
     inkscape:pageshadow="2"
     inkscape:window-width="1366"
     inkscape:window-height="700"
     id="namedview176"
     showgrid="true"
     inkscape:zoom="19.666667"
     inkscape:cx="7.3615048"
     inkscape:cy="14.087695"
     inkscape:window-x="0"
     inkscape:window-y="0"
     inkscape:window-maximized="1"
     inkscape:current-layer="svg174">
    <inkscape:grid
       type="xygrid"
       id="grid987" />
  </sodipodi:namedview>
  <radialGradient
     id="a"
     cx="89.138987"
     cy="107.11651"
     gradientUnits="userSpaceOnUse"
     r="135.18756">
    <stop
       offset="0"
       stop-color="#3e3e3e"
       id="stop2" />
    <stop
       offset=".0151"
       stop-color="#505050"
       id="stop4" />
    <stop
       offset=".0558"
       stop-color="#7e7e7e"
       id="stop6" />
    <stop
       offset=".1357"
       stop-color="#c6c6c6"
       id="stop8" />
    <stop
       offset=".20990001"
       stop-color="#f1f1f1"
       id="stop10" />
    <stop
       offset=".24349999"
       stop-color="#fcfcfc"
       id="stop12" />
    <stop
       offset=".2722"
       stop-color="#fff"
       id="stop14" />
  </radialGradient>
  <radialGradient
     id="b"
     cx="102"
     cy="112.3047"
     gradientTransform="matrix(.94807 0 0 .9510679 -8.347333 -.543642)"
     gradientUnits="userSpaceOnUse"
     r="139.55859">
    <stop
       offset="0"
       stop-color="#535557"
       id="stop17" />
    <stop
       offset=".11366145"
       stop-color="#898a8c"
       id="stop19" />
    <stop
       offset=".20296688"
       stop-color="#ececec"
       id="stop21" />
    <stop
       offset=".2363"
       stop-color="#fafafa"
       id="stop23" />
    <stop
       offset=".2722"
       stop-color="#fff"
       id="stop25" />
    <stop
       offset=".5313"
       stop-color="#fafafa"
       id="stop27" />
    <stop
       offset=".8449"
       stop-color="#ebecec"
       id="stop29" />
    <stop
       offset="1"
       stop-color="#e1e2e3"
       id="stop31" />
  </radialGradient>
  <linearGradient
     id="c"
     gradientUnits="userSpaceOnUse"
     x1="88.591797"
     x2="71.262016"
     y1="96.592697"
     y2="79.262917">
    <stop
       offset="0"
       stop-color="#fff"
       id="stop34" />
    <stop
       offset="1"
       stop-color="#555753"
       id="stop36" />
  </linearGradient>
  <linearGradient
     id="d"
     gradientUnits="userSpaceOnUse"
     x1="85.219681"
     x2="61.336319"
     y1="93.219681"
     y2="69.336319">
    <stop
       offset="0"
       id="stop39" />
    <stop
       offset="1"
       stop-color="#393b38"
       id="stop41" />
  </linearGradient>
  <linearGradient
     id="e"
     gradientUnits="userSpaceOnUse"
     x1="96"
     x2="88.000198"
     y1="104"
     y2="96.000198">
    <stop
       offset="0"
       stop-color="#888a85"
       id="stop44" />
    <stop
       offset=".0072"
       stop-color="#8c8e89"
       id="stop46" />
    <stop
       offset=".0673"
       stop-color="#abaca9"
       id="stop48" />
    <stop
       offset=".1347"
       stop-color="#c5c6c4"
       id="stop50" />
    <stop
       offset=".2115"
       stop-color="#dbdbda"
       id="stop52" />
    <stop
       offset=".3012"
       stop-color="#ebebeb"
       id="stop54" />
    <stop
       offset=".4122"
       stop-color="#f7f7f6"
       id="stop56" />
    <stop
       offset=".5679"
       stop-color="#fdfdfd"
       id="stop58" />
    <stop
       offset="1"
       stop-color="#fff"
       id="stop60" />
  </linearGradient>
  <filter
     id="f">
    <feGaussianBlur
       stdDeviation="1.0394514"
       id="feGaussianBlur63" />
  </filter>
  <filter
     id="g">
    <feGaussianBlur
       stdDeviation=".50063244"
       id="feGaussianBlur66" />
  </filter>
  <filter
     id="h">
    <feGaussianBlur
       stdDeviation=".40750996"
       id="feGaussianBlur69" />
  </filter>
  <filter
     id="i">
    <feGaussianBlur
       stdDeviation=".4901192"
       id="feGaussianBlur72" />
  </filter>
  <filter
     id="j">
    <feGaussianBlur
       stdDeviation=".90565481"
       id="feGaussianBlur75" />
  </filter>
  <g
     transform="matrix(.171875 0 0 .171875 12.000155 11.999845)"
     id="g124">
    <path
       d="m23 8.9687825.02654 56.0266985h35.004521c.53 0 1.021461-.229619 1.414-.586l18.592918-16.880246c.392539-.356381.585796-.883999.586-1.414l.014271-37.1464525z"
       filter="url(#f)"
       opacity=".553425"
       transform="matrix(1.0090419 0 0 1.003276 -19.31283 -4.888338)"
       id="path102" />
    <path
       d="m23 9 .02655 55.995481h35.004517c.53 0 1.021461-.229619 1.414-.586l18.592912-16.880246c.39254-.356381.585796-.884.586-1.414l.014271-37.115235z"
       filter="url(#f)"
       opacity=".306849"
       transform="matrix(1.0090419 0 0 1.003276 -19.31283 -4.888338)"
       id="path104" />
    <path
       d="m24.905735 10.673272-.000011 52.191929 32.549338-.0001c.53 0 1.039-.211 1.414-.586l17.248917-15.818179c.375-.375.586-.884.586-1.414l.09547-34.37365z"
       filter="url(#g)"
       opacity=".89589"
       transform="matrix(1.0090419 0 0 1.003276 -19.31283 -4.888338)"
       id="path106" />
    <path
       d="m23 9.9655172.02654 55.0299638h35.004521c.53 0 1.021461-.229619 1.414-.586l18.592918-16.880246c.392539-.356381.585791-.884.586-1.414l.014271-36.1497178z"
       filter="url(#f)"
       opacity=".306849"
       transform="matrix(1.0090419 0 0 1.003276 -19.31283 -4.888338)"
       id="path108" />
    <path
       d="m5.8181 5.8199v52.3629h32.893209c.513401 0 1.006458-.20439 1.369714-.56765l17.436027-15.799829c.36326-.363255.56764-.856313.56764-1.369714l.09631-34.625707z"
       fill="url(#a)"
       id="path110" />
    <path
       d="m12.396003 11.694044c-.522387 0-.94807.42703-.94807.951069l.307523 38.549257c0 .525 27.470456.95108 26.94807.95108h-.263698c-.249342 0 .493944-.10082.670284-.27867l13.759438-11.221657c.17729-.17785.27778-.422273.27778-.672405l-.6856-27.305682c0-.524039-.42473-.951068-.94806-.951068z"
       fill="url(#b)"
       id="path112" />
    <g
       transform="matrix(.58926813 .04059762 -.04059762 .58926813 -3.235974 -14.817013)"
       id="g122">
      <path
         d="m111.414 86.586c.25-.25-26.379-1.586-31.414-1.586-1.654 0-3 1.346-3 3 0 5.035 1.336 31.664 1.586 31.414z"
         fill="url(#c)"
         filter="url(#h)"
         opacity=".872"
         id="path114" />
      <path
         d="m111.414 86.586c.375-.375-21.97-.586-31.414-.586-1.103 0-2 .897-2 2 0 9.444.211 31.789.586 31.414z"
         filter="url(#j)"
         opacity=".2"
         id="path116" />
      <path
         d="m111.414 86.586c.239-.239-21.607.414-31.414.414-.553 0-1 .447-1 1 0 9.807-.653 31.653-.414 31.414z"
         fill="url(#d)"
         filter="url(#i)"
         opacity=".632"
         id="path118" />
      <path
         d="m79.721619 119.31106 31.505501-31.505504h-31.505501z"
         fill="url(#e)"
         id="path120" />
    </g>
  </g>
  <g
     transform="matrix(0.171875,0,0,0.171875,7.00031,1)"
     id="g148">
    <path
       d="m 23,8.9687825 0.02654,56.0266985 h 35.004521 c 0.53,0 1.021461,-0.229619 1.414,-0.586 L 78.037979,47.529235 c 0.392539,-0.356381 0.585796,-0.883999 0.586,-1.414 L 78.63825,8.9687825 Z"
       transform="matrix(1.0090419,0,0,1.003276,-19.31283,-4.888338)"
       id="path126"
       inkscape:connector-curvature="0"
       style="opacity:0.55342503;filter:url(#f)" />
    <path
       d="m 23,9 0.02655,55.995481 h 35.004517 c 0.53,0 1.021461,-0.229619 1.414,-0.586 L 78.037979,47.529235 c 0.39254,-0.356381 0.585796,-0.884 0.586,-1.414 L 78.63825,9 Z"
       transform="matrix(1.0090419,0,0,1.003276,-19.31283,-4.888338)"
       id="path128"
       inkscape:connector-curvature="0"
       style="opacity:0.30684904;filter:url(#f)" />
    <path
       d="m 24.905735,10.673272 -1.1e-5,52.191929 32.549338,-10e-5 c 0.53,0 1.039,-0.211 1.414,-0.586 L 76.117979,46.460922 c 0.375,-0.375 0.586,-0.884 0.586,-1.414 l 0.09547,-34.37365 z"
       transform="matrix(1.0090419,0,0,1.003276,-19.31283,-4.888338)"
       id="path130"
       inkscape:connector-curvature="0"
       style="opacity:0.89589;filter:url(#g)" />
    <path
       d="m 23,9.9655172 0.02654,55.0299638 h 35.004521 c 0.53,0 1.021461,-0.229619 1.414,-0.586 L 78.037979,47.529235 c 0.392539,-0.356381 0.585791,-0.884 0.586,-1.414 L 78.63825,9.9655172 Z"
       transform="matrix(1.0090419,0,0,1.003276,-19.31283,-4.888338)"
       id="path132"
       inkscape:connector-curvature="0"
       style="opacity:0.30684904;filter:url(#f)" />
    <path
       d="m 5.8181,5.8199 v 52.3629 h 32.893209 c 0.513401,0 1.006458,-0.20439 1.369714,-0.56765 L 57.51705,41.815321 c 0.36326,-0.363255 0.56764,-0.856313 0.56764,-1.369714 L 58.181,5.8199 Z"
       id="path134"
       style="fill:url(#radialGradient989)"
       inkscape:connector-curvature="0" />
    <path
       d="m 12.396003,11.694044 c -0.522387,0 -0.94807,0.42703 -0.94807,0.951069 l 0.307523,38.549257 c 0,0.525 27.470456,0.95108 26.94807,0.95108 h -0.263698 c -0.249342,0 0.493944,-0.10082 0.670284,-0.27867 L 52.86955,40.645123 c 0.17729,-0.17785 0.27778,-0.422273 0.27778,-0.672405 l -0.6856,-27.305682 c 0,-0.524039 -0.42473,-0.951068 -0.94806,-0.951068 z"
       id="path136"
       style="fill:url(#radialGradient991)"
       inkscape:connector-curvature="0" />
    <g
       transform="matrix(0.58926813,0.04059762,-0.04059762,0.58926813,-3.235974,-14.817013)"
       id="g146">
      <path
         d="M 111.414,86.586 C 111.664,86.336 85.035,85 80,85 c -1.654,0 -3,1.346 -3,3 0,5.035 1.336,31.664 1.586,31.414 z"
         id="path138"
         style="opacity:0.872;fill:url(#linearGradient993);filter:url(#h)"
         inkscape:connector-curvature="0" />
      <path
         d="M 111.414,86.586 C 111.789,86.211 89.444,86 80,86 c -1.103,0 -2,0.897 -2,2 0,9.444 0.211,31.789 0.586,31.414 z"
         id="path140"
         inkscape:connector-curvature="0"
         style="opacity:0.2;filter:url(#j)" />
      <path
         d="M 111.414,86.586 C 111.653,86.347 89.807,87 80,87 c -0.553,0 -1,0.447 -1,1 0,9.807 -0.653,31.653 -0.414,31.414 z"
         id="path142"
         style="opacity:0.63200001;fill:url(#linearGradient995);filter:url(#i)"
         inkscape:connector-curvature="0" />
      <path
         d="M 79.721619,119.31106 111.22712,87.805556 H 79.721619 Z"
         id="path144"
         style="fill:url(#linearGradient997)"
         inkscape:connector-curvature="0" />
    </g>
  </g>
  <g
     transform="matrix(.171875 0 0 .171875 1.00031 11.999845)"
     id="g172">
    <path
       d="m23 8.9687825.02654 56.0266985h35.004521c.53 0 1.021461-.229619 1.414-.586l18.592918-16.880246c.392539-.356381.585796-.883999.586-1.414l.014271-37.1464525z"
       filter="url(#f)"
       opacity=".553425"
       transform="matrix(1.0090419 0 0 1.003276 -19.31283 -4.888338)"
       id="path150" />
    <path
       d="m23 9 .02655 55.995481h35.004517c.53 0 1.021461-.229619 1.414-.586l18.592912-16.880246c.39254-.356381.585796-.884.586-1.414l.014271-37.115235z"
       filter="url(#f)"
       opacity=".306849"
       transform="matrix(1.0090419 0 0 1.003276 -19.31283 -4.888338)"
       id="path152" />
    <path
       d="m24.905735 10.673272-.000011 52.191929 32.549338-.0001c.53 0 1.039-.211 1.414-.586l17.248917-15.818179c.375-.375.586-.884.586-1.414l.09547-34.37365z"
       filter="url(#g)"
       opacity=".89589"
       transform="matrix(1.0090419 0 0 1.003276 -19.31283 -4.888338)"
       id="path154" />
    <path
       d="m23 9.9655172.02654 55.0299638h35.004521c.53 0 1.021461-.229619 1.414-.586l18.592918-16.880246c.392539-.356381.585791-.884.586-1.414l.014271-36.1497178z"
       filter="url(#f)"
       opacity=".306849"
       transform="matrix(1.0090419 0 0 1.003276 -19.31283 -4.888338)"
       id="path156" />
    <path
       d="m5.8181 5.8199v52.3629h32.893209c.513401 0 1.006458-.20439 1.369714-.56765l17.436027-15.799829c.36326-.363255.56764-.856313.56764-1.369714l.09631-34.625707z"
       fill="url(#a)"
       id="path158" />
    <path
       d="m12.396003 11.694044c-.522387 0-.94807.42703-.94807.951069l.307523 38.549257c0 .525 27.470456.95108 26.94807.95108h-.263698c-.249342 0 .493944-.10082.670284-.27867l13.759438-11.221657c.17729-.17785.27778-.422273.27778-.672405l-.6856-27.305682c0-.524039-.42473-.951068-.94806-.951068z"
       fill="url(#b)"
       id="path160" />
    <g
       transform="matrix(.58926813 .04059762 -.04059762 .58926813 -3.235974 -14.817013)"
       id="g170">
      <path
         d="m111.414 86.586c.25-.25-26.379-1.586-31.414-1.586-1.654 0-3 1.346-3 3 0 5.035 1.336 31.664 1.586 31.414z"
         fill="url(#c)"
         filter="url(#h)"
         opacity=".872"
         id="path162" />
      <path
         d="m111.414 86.586c.375-.375-21.97-.586-31.414-.586-1.103 0-2 .897-2 2 0 9.444.211 31.789.586 31.414z"
         filter="url(#j)"
         opacity=".2"
         id="path164" />
      <path
         d="m111.414 86.586c.239-.239-21.607.414-31.414.414-.553 0-1 .447-1 1 0 9.807-.653 31.653-.414 31.414z"
         fill="url(#d)"
         filter="url(#i)"
         opacity=".632"
         id="path166" />
      <path
         d="m79.721619 119.31106 31.505501-31.505504h-31.505501z"
         fill="url(#e)"
         id="path168" />
    </g>
  </g>
</svg>
