<?xml version="1.0" encoding="UTF-8" standalone="no"?>
<svg
   xmlns:dc="http://purl.org/dc/elements/1.1/"
   xmlns:cc="http://creativecommons.org/ns#"
   xmlns:rdf="http://www.w3.org/1999/02/22-rdf-syntax-ns#"
   xmlns:svg="http://www.w3.org/2000/svg"
   xmlns="http://www.w3.org/2000/svg"
   xmlns:xlink="http://www.w3.org/1999/xlink"
   xmlns:sodipodi="http://sodipodi.sourceforge.net/DTD/sodipodi-0.dtd"
   xmlns:inkscape="http://www.inkscape.org/namespaces/inkscape"
   enable-background="new 0 0 128 128"
   height="24"
   viewBox="0 0 24 24"
   width="24"
   version="1.1"
   id="svg128"
   sodipodi:docname="view-pages-facing.svg"
   inkscape:version="0.92.5 (2060ec1f9f, 2020-04-08)"
   inkscape:export-filename="/home/rizmut/Dokumen/Rizmut/Github/karasa-jaga-icon-theme/build/Karasa-Jaga/24x24/actions/view-pages-facing.png"
   inkscape:export-xdpi="96"
   inkscape:export-ydpi="96">
  <metadata
     id="metadata134">
    <rdf:RDF>
      <cc:Work
         rdf:about="">
        <dc:format>image/svg+xml</dc:format>
        <dc:type
           rdf:resource="http://purl.org/dc/dcmitype/StillImage" />
        <dc:title></dc:title>
      </cc:Work>
    </rdf:RDF>
  </metadata>
  <defs
     id="defs132">
    <linearGradient
       inkscape:collect="always"
       xlink:href="#c"
       id="linearGradient943"
       gradientUnits="userSpaceOnUse"
       x1="88.591797"
       y1="96.592697"
       x2="71.262016"
       y2="79.262917" />
    <linearGradient
       inkscape:collect="always"
       xlink:href="#d"
       id="linearGradient945"
       gradientUnits="userSpaceOnUse"
       x1="85.219681"
       y1="93.219681"
       x2="61.336319"
       y2="69.336319" />
    <linearGradient
       inkscape:collect="always"
       xlink:href="#e"
       id="linearGradient947"
       gradientUnits="userSpaceOnUse"
       x1="96"
       y1="104"
       x2="88.000198"
       y2="96.000198" />
  </defs>
  <sodipodi:namedview
     pagecolor="#ffffff"
     bordercolor="#666666"
     borderopacity="1"
     objecttolerance="10"
     gridtolerance="10"
     guidetolerance="10"
     inkscape:pageopacity="0"
     inkscape:pageshadow="2"
     inkscape:window-width="1366"
     inkscape:window-height="700"
     id="namedview130"
     showgrid="true"
     inkscape:zoom="27.812867"
     inkscape:cx="10.134912"
     inkscape:cy="12.227264"
     inkscape:window-x="0"
     inkscape:window-y="0"
     inkscape:window-maximized="1"
     inkscape:current-layer="g126">
    <inkscape:grid
       type="xygrid"
       id="grid941" />
  </sodipodi:namedview>
  <radialGradient
     id="a"
     cx="100.80984"
     cy="112.93461"
     gradientTransform="translate(52.328215 23.2724)"
     gradientUnits="userSpaceOnUse"
     r="135.18756"
     xlink:href="#i" />
  <radialGradient
     id="b"
     cx="102"
     cy="112.3047"
     gradientTransform="matrix(.94807 0 0 .9510679 55.651735 28.546858)"
     gradientUnits="userSpaceOnUse"
     r="139.55859"
     xlink:href="#h" />
  <linearGradient
     id="c"
     gradientUnits="userSpaceOnUse"
     x1="88.591797"
     x2="71.262016"
     y1="96.592697"
     y2="79.262917">
    <stop
       offset="0"
       stop-color="#fff"
       id="stop4" />
    <stop
       offset="1"
       stop-color="#555753"
       id="stop6" />
  </linearGradient>
  <linearGradient
     id="d"
     gradientUnits="userSpaceOnUse"
     x1="85.219681"
     x2="61.336319"
     y1="93.219681"
     y2="69.336319">
    <stop
       offset="0"
       id="stop9" />
    <stop
       offset="1"
       stop-color="#393b38"
       id="stop11" />
  </linearGradient>
  <linearGradient
     id="e"
     gradientUnits="userSpaceOnUse"
     x1="96"
     x2="88.000198"
     y1="104"
     y2="96.000198">
    <stop
       offset="0"
       stop-color="#888a85"
       id="stop14" />
    <stop
       offset=".0072"
       stop-color="#8c8e89"
       id="stop16" />
    <stop
       offset=".0673"
       stop-color="#abaca9"
       id="stop18" />
    <stop
       offset=".1347"
       stop-color="#c5c6c4"
       id="stop20" />
    <stop
       offset=".2115"
       stop-color="#dbdbda"
       id="stop22" />
    <stop
       offset=".3012"
       stop-color="#ebebeb"
       id="stop24" />
    <stop
       offset=".4122"
       stop-color="#f7f7f6"
       id="stop26" />
    <stop
       offset=".5679"
       stop-color="#fdfdfd"
       id="stop28" />
    <stop
       offset="1"
       stop-color="#fff"
       id="stop30" />
  </linearGradient>
  <radialGradient
     id="f"
     cx="100.80984"
     cy="112.93461"
     gradientTransform="matrix(-1,0,0,1,75.602445,23.2724)"
     gradientUnits="userSpaceOnUse"
     r="135.18756"
     xlink:href="#i" />
  <radialGradient
     id="g"
     cx="102"
     cy="112.3047"
     gradientTransform="matrix(-0.94807,0,0,0.9510679,72.278925,28.546858)"
     gradientUnits="userSpaceOnUse"
     r="139.55859"
     xlink:href="#h" />
  <radialGradient
     id="h"
     cx="102"
     cy="112.3047"
     gradientTransform="matrix(.94807 0 0 .9510679 -8.347333 -.543642)"
     gradientUnits="userSpaceOnUse"
     r="139.55859">
    <stop
       offset="0"
       stop-color="#535557"
       id="stop35" />
    <stop
       offset=".11366145"
       stop-color="#898a8c"
       id="stop37" />
    <stop
       offset=".20296688"
       stop-color="#ececec"
       id="stop39" />
    <stop
       offset=".2363"
       stop-color="#fafafa"
       id="stop41" />
    <stop
       offset=".2722"
       stop-color="#fff"
       id="stop43" />
    <stop
       offset=".5313"
       stop-color="#fafafa"
       id="stop45" />
    <stop
       offset=".8449"
       stop-color="#ebecec"
       id="stop47" />
    <stop
       offset="1"
       stop-color="#e1e2e3"
       id="stop49" />
  </radialGradient>
  <radialGradient
     id="i"
     cx="100.80984"
     cy="112.93461"
     gradientTransform="translate(-11.670853 -5.8181)"
     gradientUnits="userSpaceOnUse"
     r="135.18756">
    <stop
       offset="0"
       stop-color="#3e3e3e"
       id="stop52" />
    <stop
       offset=".0151"
       stop-color="#505050"
       id="stop54" />
    <stop
       offset=".0558"
       stop-color="#7e7e7e"
       id="stop56" />
    <stop
       offset=".1357"
       stop-color="#c6c6c6"
       id="stop58" />
    <stop
       offset=".20990001"
       stop-color="#f1f1f1"
       id="stop60" />
    <stop
       offset=".24349999"
       stop-color="#fcfcfc"
       id="stop62" />
    <stop
       offset=".2722"
       stop-color="#fff"
       id="stop64" />
  </radialGradient>
  <filter
     id="j">
    <feGaussianBlur
       stdDeviation="1.0394514"
       id="feGaussianBlur67" />
  </filter>
  <filter
     id="k">
    <feGaussianBlur
       stdDeviation=".50063244"
       id="feGaussianBlur70" />
  </filter>
  <filter
     id="l">
    <feGaussianBlur
       stdDeviation=".40750996"
       id="feGaussianBlur73" />
  </filter>
  <filter
     id="m">
    <feGaussianBlur
       stdDeviation=".4901192"
       id="feGaussianBlur76" />
  </filter>
  <filter
     id="n">
    <feGaussianBlur
       stdDeviation=".90565481"
       id="feGaussianBlur79" />
  </filter>
  <g
     transform="matrix(.171875 0 0 .171875 1.005959 .999845)"
     id="g126">
    <path
       d="m 23,3.1696807 0.02654,61.8258003 h 35.004521 c 0.53,0 1.021461,-0.229619 1.414,-0.586 L 78.037979,47.529235 c 0.392539,-0.356381 0.585796,-0.883999 0.586,-1.414 L 78.63825,3.1696807 Z"
       transform="matrix(-1.0090419,0,0,1.003276,83.244422,24.202162)"
       id="path82"
       inkscape:connector-curvature="0"
       style="opacity:0.55342503;filter:url(#j)" />
    <path
       d="m 23,3.2008982 0.02655,61.7945828 h 35.004517 c 0.53,0 1.021461,-0.229619 1.414,-0.586 L 78.037979,47.529235 c 0.39254,-0.356381 0.585796,-0.884 0.586,-1.414 L 78.63825,3.2008982 Z"
       transform="matrix(-1.0090419,0,0,1.003276,83.244422,24.202162)"
       id="path84"
       inkscape:connector-curvature="0"
       style="opacity:0.30684904;filter:url(#j)" />
    <path
       d="m 24.905735,4.8741702 -1.1e-5,57.9910308 32.549338,-10e-5 c 0.53,0 1.039,-0.211 1.414,-0.586 L 76.117979,46.460922 c 0.375,-0.375 0.586,-0.884 0.586,-1.414 l 0.09547,-40.1727518 z"
       transform="matrix(-1.0090419,0,0,1.003276,83.244422,24.202162)"
       id="path86"
       inkscape:connector-curvature="0"
       style="opacity:0.89589;filter:url(#k)" />
    <path
       d="m 23,4.1664154 0.02654,60.8290656 h 35.004521 c 0.53,0 1.021461,-0.229619 1.414,-0.586 L 78.037979,47.529235 c 0.392539,-0.356381 0.585791,-0.884 0.586,-1.414 L 78.63825,4.1664154 Z"
       transform="matrix(-1.0090419,0,0,1.003276,83.244422,24.202162)"
       id="path88"
       inkscape:connector-curvature="0"
       style="opacity:0.30684904;filter:url(#j)" />
    <path
       d="m 58.113492,29.0923 0,58.181 H 25.220283 c -0.513401,0 -1.006458,-0.20439 -1.369714,-0.56765 L 6.4145423,70.905821 c -0.36326,-0.363255 -0.56764,-0.856313 -0.56764,-1.369714 L 5.7505923,29.0923 Z"
       id="path90"
       style="fill:url(#f)"
       inkscape:connector-curvature="0" />
    <path
       d="m 51.535589,34.966444 c 0.522387,0 0.94807,0.42703 0.94807,0.951069 L 52.176136,80.28487 c 0,0.525 -27.470456,0.95108 -26.94807,0.95108 h 0.263698 c 0.249342,0 -0.493944,-0.10082 -0.670284,-0.27867 L 11.062042,69.735623 c -0.17729,-0.17785 -0.27778,-0.422273 -0.27778,-0.672405 l 0.6856,-33.123782 c 0,-0.524039 0.42473,-0.951068 0.94806,-0.951068 z"
       id="path92"
       style="fill:url(#g)"
       inkscape:connector-curvature="0" />
    <g
       transform="matrix(-0.58926813,0.04059762,0.04059762,0.58926813,67.167566,14.273487)"
       id="g102">
      <path
         d="M 111.414,86.586 C 111.664,86.336 85.035,85 80,85 c -1.654,0 -3,1.346 -3,3 0,5.035 1.336,31.664 1.586,31.414 z"
         id="path94"
         style="opacity:0.872;fill:url(#linearGradient943);filter:url(#l)"
         inkscape:connector-curvature="0" />
      <path
         d="M 111.414,86.586 C 111.789,86.211 89.444,86 80,86 c -1.103,0 -2,0.897 -2,2 0,9.444 0.211,31.789 0.586,31.414 z"
         id="path96"
         inkscape:connector-curvature="0"
         style="opacity:0.2;filter:url(#n)" />
      <path
         d="M 111.414,86.586 C 111.653,86.347 89.807,87 80,87 c -0.553,0 -1,0.447 -1,1 0,9.807 -0.653,31.653 -0.414,31.414 z"
         id="path98"
         style="opacity:0.63200001;fill:url(#linearGradient945);filter:url(#m)"
         inkscape:connector-curvature="0" />
      <path
         d="M 79.721619,119.31106 111.22712,87.805556 H 79.721619 Z"
         id="path100"
         style="fill:url(#linearGradient947)"
         inkscape:connector-curvature="0" />
    </g>
    <path
       d="m23 3.1696807.02654 61.8258003h35.004521c.53 0 1.021461-.229619 1.414-.586l18.592918-16.880246c.392539-.356381.585796-.883999.586-1.414l.014271-42.9455543z"
       filter="url(#j)"
       opacity=".553425"
       transform="matrix(1.0090419 0 0 1.003276 44.686238 24.202162)"
       id="path104" />
    <path
       d="m23 3.2008982.02655 61.7945828h35.004517c.53 0 1.021461-.229619 1.414-.586l18.592912-16.880246c.39254-.356381.585796-.884.586-1.414l.014271-42.9143368z"
       filter="url(#j)"
       opacity=".306849"
       transform="matrix(1.0090419 0 0 1.003276 44.686238 24.202162)"
       id="path106" />
    <path
       d="m24.905735 4.8741702-.000011 57.9910308 32.549338-.0001c.53 0 1.039-.211 1.414-.586l17.248917-15.818179c.375-.375.586-.884.586-1.414l.09547-40.1727518z"
       filter="url(#k)"
       opacity=".89589"
       transform="matrix(1.0090419 0 0 1.003276 44.686238 24.202162)"
       id="path108" />
    <path
       d="m23 4.1664154.02654 60.8290656h35.004521c.53 0 1.021461-.229619 1.414-.586l18.592918-16.880246c.392539-.356381.585791-.884.586-1.414l.014271-41.9488196z"
       filter="url(#j)"
       opacity=".306849"
       transform="matrix(1.0090419 0 0 1.003276 44.686238 24.202162)"
       id="path110" />
    <path
       d="m69.817168 29.0923v58.181h32.893212c.5134 0 1.00646-.20439 1.36971-.56765l17.43603-15.799829c.36326-.363255.56764-.856313.56764-1.369714l.0963-40.443807z"
       fill="url(#a)"
       id="path112" />
    <path
       d="m76.395071 34.966444c-.522387 0-.94807.42703-.94807.951069l.307523 44.367357c0 .525 27.470456.95108 26.948066.95108h-.26369c-.24935 0 .49394-.10082.67028-.27867l13.75944-11.221657c.17729-.17785.27778-.422273.27778-.672405l-.6856-33.123782c0-.524039-.42473-.951068-.94806-.951068z"
       fill="url(#b)"
       id="path114" />
    <g
       transform="matrix(.58926813 .04059762 -.04059762 .58926813 60.763094 14.273487)"
       id="g124">
      <path
         d="m111.414 86.586c.25-.25-26.379-1.586-31.414-1.586-1.654 0-3 1.346-3 3 0 5.035 1.336 31.664 1.586 31.414z"
         fill="url(#c)"
         filter="url(#l)"
         opacity=".872"
         id="path116" />
      <path
         d="m111.414 86.586c.375-.375-21.97-.586-31.414-.586-1.103 0-2 .897-2 2 0 9.444.211 31.789.586 31.414z"
         filter="url(#n)"
         opacity=".2"
         id="path118" />
      <path
         d="m111.414 86.586c.239-.239-21.607.414-31.414.414-.553 0-1 .447-1 1 0 9.807-.653 31.653-.414 31.414z"
         fill="url(#d)"
         filter="url(#m)"
         opacity=".632"
         id="path120" />
      <path
         d="m79.721619 119.31106 31.505501-31.505504h-31.505501z"
         fill="url(#e)"
         id="path122" />
    </g>
  </g>
</svg>
