<?xml version="1.0" encoding="UTF-8" standalone="no"?>
<svg
   xmlns:dc="http://purl.org/dc/elements/1.1/"
   xmlns:cc="http://creativecommons.org/ns#"
   xmlns:rdf="http://www.w3.org/1999/02/22-rdf-syntax-ns#"
   xmlns:svg="http://www.w3.org/2000/svg"
   xmlns="http://www.w3.org/2000/svg"
   xmlns:xlink="http://www.w3.org/1999/xlink"
   xmlns:sodipodi="http://sodipodi.sourceforge.net/DTD/sodipodi-0.dtd"
   xmlns:inkscape="http://www.inkscape.org/namespaces/inkscape"
   height="32"
   viewBox="0 0 32 32"
   width="32"
   version="1.1"
   id="svg80"
   sodipodi:docname="folder-templates.svg"
   inkscape:version="0.92.5 (2060ec1f9f, 2020-04-08)"
   inkscape:export-filename="/home/rizmut/Dokumen/Rizmut/Github/karasa-jaga-icon-theme/build/Karasa-Jaga/32x32/places/folder-templates.png"
   inkscape:export-xdpi="96"
   inkscape:export-ydpi="96">
  <metadata
     id="metadata160">
    <rdf:RDF>
      <cc:Work
         rdf:about="">
        <dc:format>image/svg+xml</dc:format>
        <dc:type
           rdf:resource="http://purl.org/dc/dcmitype/StillImage" />
        <dc:title></dc:title>
      </cc:Work>
    </rdf:RDF>
  </metadata>
  <defs
     id="defs84">
    <linearGradient
       id="linearGradient18788">
      <stop
         style="stop-color:#e5e5e5;stop-opacity:1"
         offset="0"
         id="stop18790" />
      <stop
         style="stop-color:#ffffff;stop-opacity:1"
         offset="1"
         id="stop18792" />
    </linearGradient>
    <linearGradient
       id="linearGradient3180-8-4">
      <stop
         id="stop3182-5-8"
         offset="0"
         style="stop-color:#ffffff;stop-opacity:1" />
      <stop
         style="stop-color:#ffffff;stop-opacity:1"
         offset="0.5"
         id="stop3188-0-8" />
      <stop
         id="stop3184-9-8"
         offset="1"
         style="stop-color:#f5f5f5;stop-opacity:1" />
    </linearGradient>
    <linearGradient
       id="linearGradient3248-8-7">
      <stop
         style="stop-color:#fcfcfc;stop-opacity:1"
         offset="0"
         id="stop3250-5-6" />
      <stop
         style="stop-color:#c6c6c6;stop-opacity:0"
         offset="1"
         id="stop3252-6-4" />
    </linearGradient>
    <linearGradient
       id="linearGradient3270-1-0">
      <stop
         style="stop-color:#969696;stop-opacity:0.58431375"
         offset="0"
         id="stop3272-5-3" />
      <stop
         id="stop3312-9-0"
         offset="0.74876845"
         style="stop-color:#f7f7f7;stop-opacity:0.49803922" />
      <stop
         style="stop-color:#6f6f6f;stop-opacity:0;"
         offset="1"
         id="stop3274-8-9" />
    </linearGradient>
    <filter
       style="color-interpolation-filters:sRGB"
       inkscape:collect="always"
       id="filter2770-9-8">
      <feGaussianBlur
         inkscape:collect="always"
         stdDeviation="2.0786429"
         id="feGaussianBlur2772-0-6" />
    </filter>
    <linearGradient
       inkscape:collect="always"
       xlink:href="#linearGradient3180-8-4"
       id="linearGradient6355"
       gradientUnits="userSpaceOnUse"
       x1="37.688"
       y1="63.0005"
       x2="90.311996"
       y2="63.0005" />
    <linearGradient
       inkscape:collect="always"
       xlink:href="#linearGradient3180-8-4"
       id="linearGradient6353"
       gradientUnits="userSpaceOnUse"
       x1="64"
       y1="22.506487"
       x2="64"
       y2="93.317558" />
    <linearGradient
       inkscape:collect="always"
       xlink:href="#linearGradient3248-8-7"
       id="linearGradient6343"
       gradientUnits="userSpaceOnUse"
       gradientTransform="matrix(0.09346641,0.13189946,-0.12187869,0.10604217,147.9258,61.792642)"
       x1="37.744732"
       y1="45.218086"
       x2="49.066868"
       y2="37.536259" />
    <linearGradient
       inkscape:collect="always"
       xlink:href="#linearGradient3270-1-0"
       id="linearGradient6340"
       gradientUnits="userSpaceOnUse"
       gradientTransform="matrix(0.15145598,0,0,0.16782457,140.14587,65.328947)"
       spreadMethod="reflect"
       x1="64.018799"
       y1="24.784855"
       x2="105.72495"
       y2="24.784855" />
    <linearGradient
       inkscape:collect="always"
       xlink:href="#linearGradient3270-1-0"
       id="linearGradient6337"
       gradientUnits="userSpaceOnUse"
       gradientTransform="matrix(0.1097709,0,0,0.16782457,142.81272,77.578909)"
       spreadMethod="reflect"
       x1="64.018799"
       y1="24.784855"
       x2="105.72495"
       y2="24.784855" />
    <linearGradient
       inkscape:collect="always"
       xlink:href="#linearGradient3270-1-0"
       id="linearGradient6334"
       gradientUnits="userSpaceOnUse"
       gradientTransform="matrix(0.0017168,0.0891951,-0.12457848,0.00369095,157.76292,65.93852)"
       spreadMethod="reflect"
       x1="63.803757"
       y1="23.682602"
       x2="109.94408"
       y2="24.784855" />
    <linearGradient
       inkscape:collect="always"
       xlink:href="#linearGradient3270-1-0"
       id="linearGradient6331"
       gradientUnits="userSpaceOnUse"
       gradientTransform="matrix(-0.0017168,0.0891951,0.12457848,0.00369095,142.11388,66.106373)"
       spreadMethod="reflect"
       x1="64.009895"
       y1="24.974937"
       x2="106.13834"
       y2="25.555504" />
    <linearGradient
       inkscape:collect="always"
       xlink:href="#linearGradient3270-1-0"
       id="linearGradient6328"
       gradientUnits="userSpaceOnUse"
       gradientTransform="matrix(0.15145598,0,0,0.16782457,140.14764,66.16807)"
       spreadMethod="reflect"
       x1="64.018799"
       y1="24.784855"
       x2="109.94408"
       y2="24.784855" />
    <linearGradient
       inkscape:collect="always"
       xlink:href="#linearGradient3270-1-0"
       id="linearGradient6325"
       gradientUnits="userSpaceOnUse"
       gradientTransform="matrix(0,0.17226593,-0.15145598,0,153.01256,64.132985)"
       spreadMethod="reflect"
       x1="64.018799"
       y1="24.784855"
       x2="105.72495"
       y2="24.784855" />
    <linearGradient
       inkscape:collect="always"
       xlink:href="#linearGradient3270-1-0"
       id="linearGradient6322"
       gradientUnits="userSpaceOnUse"
       gradientTransform="matrix(0,0.17226593,-0.15145598,0,154.37209,64.132985)"
       spreadMethod="reflect"
       x1="64.018799"
       y1="24.784855"
       x2="105.72495"
       y2="24.784855" />
    <linearGradient
       inkscape:collect="always"
       xlink:href="#linearGradient3248-8-7"
       id="linearGradient6319"
       gradientUnits="userSpaceOnUse"
       gradientTransform="matrix(-0.11464371,0,0,0.13006884,153.24549,74.477918)"
       x1="42.093998"
       y1="44.211128"
       x2="53.124798"
       y2="36.833477" />
    <linearGradient
       inkscape:collect="always"
       xlink:href="#linearGradient3248-8-7"
       id="linearGradient6316"
       gradientUnits="userSpaceOnUse"
       gradientTransform="matrix(-0.07567241,0.14523365,0.13419986,0.085854,150.58473,61.960258)"
       x1="28.098803"
       y1="44.257614"
       x2="49.066868"
       y2="37.536259" />
    <linearGradient
       inkscape:collect="always"
       xlink:href="#linearGradient3248-8-7"
       id="linearGradient6313"
       gradientUnits="userSpaceOnUse"
       gradientTransform="matrix(0.08938591,-0.0795451,0.07350184,0.10141265,144.71178,79.38031)"
       x1="33.189358"
       y1="45.569305"
       x2="53.124798"
       y2="36.833477" />
  </defs>
  <sodipodi:namedview
     id="namedview82"
     pagecolor="#ffffff"
     bordercolor="#666666"
     borderopacity="1.0"
     inkscape:pageshadow="2"
     inkscape:pageopacity="0.0"
     inkscape:pagecheckerboard="0"
     showgrid="true"
     inkscape:zoom="32.146436"
     inkscape:cx="20.121376"
     inkscape:cy="14.979238"
     inkscape:window-width="1366"
     inkscape:window-height="703"
     inkscape:window-x="0"
     inkscape:window-y="0"
     inkscape:window-maximized="1"
     inkscape:current-layer="g1309">
    <inkscape:grid
       type="xygrid"
       id="grid86"
       spacingx="0.5"
       spacingy="0.5"
       empspacing="2" />
  </sodipodi:namedview>
  <linearGradient
     id="a"
     gradientUnits="userSpaceOnUse"
     x1="7.739838"
     x2="8"
     y1="1.357724"
     y2="14">
    <stop
       offset="0"
       stop-color="#587bcb"
       id="stop2" />
    <stop
       offset=".94117647"
       stop-color="#3f59ae"
       id="stop4" />
    <stop
       offset="1"
       stop-color="#3d7cdb"
       id="stop6" />
  </linearGradient>
  <linearGradient
     id="b"
     gradientTransform="matrix(1.8125 0 0 1 -.8125 12)"
     gradientUnits="userSpaceOnUse"
     x1="6.5"
     x2="6.5"
     y1="11"
     y2="12">
    <stop
       offset="0"
       stop-color="#2a3674"
       id="stop9" />
    <stop
       offset="1"
       stop-color="#174072"
       stop-opacity="0"
       id="stop11" />
  </linearGradient>
  <linearGradient
     id="c"
     gradientUnits="userSpaceOnUse"
     x1="9"
     x2="9"
     y1="-7"
     y2="4">
    <stop
       offset="0"
       stop-color="#102134"
       id="stop14" />
    <stop
       offset="1"
       stop-color="#102134"
       stop-opacity="0"
       id="stop16" />
  </linearGradient>
  <filter
     id="d"
     color-interpolation-filters="sRGB"
     height="1.4405481"
     width="1.0767026"
     x="-0.038351324"
     y="-0.22027403">
    <feGaussianBlur
       stdDeviation="3.1247207"
       id="feGaussianBlur19" />
  </filter>
  <linearGradient
     id="e"
     gradientUnits="userSpaceOnUse"
     x1=".37740994"
     x2="-.99999983961"
     y1="5.21465188477"
     y2="-2.99999930088">
    <stop
       offset="0"
       stop-color="#34608f"
       id="stop22" />
    <stop
       offset="1"
       stop-color="#34608f"
       stop-opacity="0"
       id="stop24" />
  </linearGradient>
  <linearGradient
     id="f"
     gradientTransform="matrix(.21345221 0 0 .14419658 2.588831 -134.48784)"
     gradientUnits="userSpaceOnUse"
     x1="124.01234"
     x2="123.73341"
     y1="966.51019"
     y2="904.93018">
    <stop
       offset="0"
       id="stop27" />
    <stop
       offset="1"
       stop-color="#34608f"
       stop-opacity="0"
       id="stop29" />
  </linearGradient>
  <linearGradient
     id="g"
     gradientUnits="userSpaceOnUse"
     x1="55"
     x2="55"
     y1="1036.4132"
     y2="1032.4822">
    <stop
       offset="0"
       stop-color="#003d7b"
       id="stop32" />
    <stop
       offset="1"
       stop-color="#003d7b"
       stop-opacity="0"
       id="stop34" />
  </linearGradient>
  <filter
     id="h"
     color-interpolation-filters="sRGB"
     height="1.7746795"
     width="1.01454"
     x="-0.007270021"
     y="-0.38733977">
    <feGaussianBlur
       stdDeviation=".70882694"
       id="feGaussianBlur37" />
  </filter>
  <filter
     id="i"
     color-interpolation-filters="sRGB"
     height="1.7653349"
     width="1.0200685"
     x="-0.010034273"
     y="-0.38266746">
    <feGaussianBlur
       stdDeviation=".70324038"
       id="feGaussianBlur40" />
  </filter>
  <clipPath
     id="j">
    <rect
       height="31.444271"
       rx="4"
       width="195.54292"
       x="4"
       y="941.36218"
       id="rect43" />
  </clipPath>
  <g
     transform="translate(1 14)"
     id="g78">
    <path
       d="m-46.991242 13.13992h160.201212c2.216 0 4 .8652 4 1.94 0 1.0747-1.78433 1.902-4 1.94-36.945184.6329-120.9042545.7782-160.201212 0-2.215566-.044-4-.8653-4-1.94 0-1.0748 1.784-1.94 4-1.94z"
       filter="url(#i)"
       opacity=".554286"
       transform="matrix(.17315572 0 0 .125 9.204424 12.35751)"
       id="path46" />
    <rect
       fill="url(#g)"
       filter="url(#h)"
       height="4.39197"
       opacity=".577143"
       rx="2.439995"
       ry="1.926663"
       transform="matrix(.125 0 0 .25614775 -.125 -251.09298)"
       width="233.99997"
       x="3.000028"
       y="1032.4822"
       id="rect48" />
    <path
       d="m1-11c-.5 0-.48341039.383873-.5.5l-.5 1.5v7.5c0 .554.45059681.92878107 1 1l27 3.5c.549403.071219 1-.446 1-1v-11c0-.554-.446-1-1-1h-20.0957031c-.0842007-.485951-.178001-1-.4042969-1z"
       fill="#3b6ca9"
       id="path50" />
    <path
       d="m1-11c-.5 0-.4629045.388713-.5.5l-.5 1.5v7.5c0 .554.446 1 1 1v-8.5l.5-1h5.3828125c.013345.068527.023996.094239.037109.1699219.0826732.4792195.4980774.8295107.9843754.8300781h1.0957031 19v12c.554 0 1-.446 1-1v-11c0-.554-.446-1-1-1h-20.0957031c-.0842007-.485951-.178001-1-.4042969-1z"
       fill="url(#c)"
       opacity=".25"
       id="path52" />
    <path
       clip-path="url(#j)"
       d="m56.984419 956.41796-52.9844191-.46865.0000002 23.62035 195.5429199-.0204v-26.85749c0-2.54081-2.98686-7.17388-5.54823-7.16756l-125.937528.31081c-9.375263 0-4.139978 10.43168-11.072743 10.58369z"
       fill="#16375b"
       fill-opacity=".801471"
       filter="url(#d)"
       transform="matrix(.14830504 0 0 .14830504 -.59322 -146.2721)"
       id="path54" />
    <path
       d="m1-3h7l2-2h19c.554 0 1.016287.4462395 1 1l-.5 17c-.01629.55376-.446 1-1 1h-27c-.554 0-.98154361-.446308-1-1l-.5-15c-.01845642-.5536925.44599999-1 1-1z"
       fill="url(#a)"
       id="path56" />
    <g
       transform="translate(-1 -14)"
       id="g64">
      <path
         d="m1.3671875 23 .0332031 1h28.5996094v-1z"
         fill="#385da4"
         id="path58" />
      <path
         d="m1.3671875 23 .0332031 1h29.1875004l.029297-1z"
         fill="url(#b)"
         id="path60" />
      <path
         d="m1.4003906 24 .015625.5h29.1582034l.013672-.5z"
         fill="#a4c0e8"
         id="path62" />
    </g>
    <path
       d="m10-5-2 2h-7c-.554 0-1 .446-1 1v1c0-.554.44600003-1 1-1h7l2-2h19c.554 0 1 .446 1 1v-1c0-.554-.446-1-1-1z"
       fill="#a4c0e8"
       id="path66" />
    <path
       d="m2-9h4.5v.9999999h-4.5z"
       fill="#fcf9e9"
       id="path68" />
    <path
       d="m5.5-8.9999999h1v.9999999h-1z"
       fill="#fbc66d"
       id="path70" />
    <path
       d="m.9980469-2.9902344c-.5505375 0-.9925198.4410516-.9980469.9902344l.5019531 15.009766c.00023.02285.011948.042.013672.06445.0381089.321065.7510483.923754.9843749.925784h.00195l-.5019531-16.9902344z"
       fill="url(#e)"
       opacity=".594286"
       id="path72" />
    <path
       d="m29-5-.5 19c.554 0 .978702-.565256 1-1.266667l.5-16.4666663c.021298-.7014101-.446-1.2666667-1-1.2666667z"
       fill="url(#f)"
       opacity=".405714"
       id="path74" />
    <path
       d="m2 3.2125582c-.5 0-.4629045.388713-.5.5l-.5 1.5v.5l.5-1.5c.037095-.111287 0-.5.5-.5h6.5c.2262959 0 .3200962.514049.4042969 1h20.0957031c.554 0 1 .446 1 1v-.5c0-.554-.446-1-1-1h-20.0957031c-.084201-.485951-.178001-1-.4042969-1z"
       fill="#a4c0e8"
       transform="translate(-1 -14)"
       id="path76" />
  </g>
  <g
     id="g1309"
     transform="translate(-0.0212,0.860601)">
    <g
       id="g6690"
       style="display:inline;enable-background:new"
       transform="translate(-133.8917,-53.95933)">
      <path
         transform="matrix(0.15776665,0,0,0.17231987,139.64987,64.718331)"
         sodipodi:nodetypes="ccccc"
         id="path2857-6-7"
         d="M 15.499666,11.236218 12.446182,118.38869 c 35.593463,0.77632 71.245772,3.13598 106.690248,-0.15535 L 113.14397,11.069812 Z"
         style="opacity:0.5;fill:#000000;fill-opacity:1;filter:url(#filter2770-9-8)"
         inkscape:connector-curvature="0" />
      <path
         sodipodi:nodetypes="cccccc"
         id="path2861-3-7"
         d="m 141.9129,66.098729 0,19 h 16 c 0.003,-0.203506 0.0178,-17.872119 0,-19 l -16,3e-6 z"
         style="fill:#4ca2f3;fill-opacity:1"
         inkscape:connector-curvature="0" />
      <g
         id="g6357">
        <path
           sodipodi:nodetypes="ccc"
           id="path2863-1-5"
           d="M 149.04687,69.015316 V 68.686952 Z"
           style="fill:#ffffff;fill-opacity:0.75688076;fill-rule:nonzero;stroke:none"
           inkscape:connector-curvature="0" />
        <g
           id="g2865-7-4"
           transform="matrix(0.18419699,0,0,0.19931331,138.14583,63.059755)"
           style="fill:url(#linearGradient6355);fill-opacity:1">
          <radialGradient
             id="radialGradient2867-5-8"
             cx="98.125"
             cy="103.667"
             r="154.149"
             gradientUnits="userSpaceOnUse">
            <stop
               offset="0"
               style="stop-color:#A4C0E4;fill-opacity:1.0;fill:url(#linearGradient3186)"
               id="stop2869-9-1" />
            <stop
               offset="1"
               style="stop-color:#00438A;fill-opacity:1.0;fill:url(#linearGradient3186)"
               id="stop2871-6-2" />
          </radialGradient>
          <path
             style="fill:url(#linearGradient6353)"
             d="m 38.062,32.688 h 51.875 l 0.375,15.5 h -2.25 C 86.992,43.305 85.63,40.126 83.98,38.651 82.328,37.176 78.855,36.438 73.562,36.438 h -5.905749 v 46.875 c 0,3.539 1.446749,5.73 2.532749,6.578 1.084,0.848 3.459,1.406 7.123,1.672 v 1.75 H 50.688 v -1.75 c 3.908,-0.295 6.344,-0.93 7.307,-1.902 0.961,-0.973 2.348749,-3.20173 2.348749,-7.12773 v -45.875 L 54.438,36.438 c -6.974072,-0.09146 -8.492502,0.772697 -10.361,2.189 -3.013473,2.284183 -4.483048,5.286253 -4.139,9.561 h -2.25 z"
             id="path2873-2-8"
             sodipodi:nodetypes="ccccscccsccccscccsccc"
             inkscape:connector-curvature="0" />
        </g>
        <path
           style="opacity:0.59851302;fill:url(#linearGradient6343);fill-opacity:1;stroke:none"
           d="m 148.66377,70.871936 c -0.65223,-0.721566 -1.71541,-0.794625 -2.47299,-0.135482 -0.81691,0.710761 -0.97294,2.006869 -0.34455,2.893651 0.50394,0.71116 1.36095,0.942095 2.10148,0.638757 0.0304,-0.0057 0.0547,-0.03122 0.0613,-0.06457 0.007,-0.03335 -0.006,-0.06785 -0.0309,-0.08725 -0.0254,-0.0194 -0.0588,-0.01983 -0.0846,-0.0011 -0.68156,0.27918 -1.46593,0.06283 -1.92818,-0.589505 -0.57646,-0.813503 -0.43524,-2.001808 0.31896,-2.658011 0.69935,-0.608475 1.67417,-0.537781 2.27203,0.123629 0.0299,0.03287 0.0783,0.03263 0.10793,-5.54e-4 0.0297,-0.03318 0.0294,-0.08672 -5e-4,-0.119592 z"
           id="path2875-1-9"
           inkscape:connector-curvature="0" />
        <path
           style="opacity:0.89444448;fill:url(#linearGradient6340);fill-opacity:1;stroke:none"
           d="m 143.57715,69.407084 c -0.0418,0.0072 -0.0704,0.05068 -0.0639,0.09702 0.007,0.04634 0.0457,0.07804 0.0876,0.0708 h 12.48092 c 0.0273,4.19e-4 0.0527,-0.01547 0.0665,-0.04161 0.0138,-0.02614 0.0138,-0.05847 0,-0.0846 -0.0138,-0.02614 -0.0392,-0.04204 -0.0665,-0.04161 h -12.48092 c -0.008,-0.0014 -0.0158,-0.0014 -0.0237,0 z"
           id="path2877-7-3"
           inkscape:connector-curvature="0" />
        <path
           id="path2879-8-6"
           d="m 145.29961,81.657046 c -0.0303,0.0072 -0.051,0.05068 -0.0463,0.09702 0.005,0.04634 0.0332,0.07804 0.0635,0.0708 h 9.0458 c 0.0198,4.2e-4 0.0382,-0.01547 0.0482,-0.04161 0.01,-0.02614 0.01,-0.05847 0,-0.08461 -0.01,-0.02614 -0.0284,-0.04204 -0.0482,-0.04161 h -9.0458 c -0.006,-0.0014 -0.0115,-0.0014 -0.0172,0 z"
           style="opacity:0.89444448;fill:url(#linearGradient6337);fill-opacity:1;stroke:none"
           inkscape:connector-curvature="0" />
        <path
           style="opacity:0.65427509;fill:none;stroke:url(#linearGradient6334);stroke-width:0.15943034;stroke-linecap:round;stroke-linejoin:round;stroke-miterlimit:4;stroke-dasharray:none;stroke-opacity:1"
           d="m 154.71442,68.064459 0.1415,7.351406"
           id="path2885-5-8"
           inkscape:connector-curvature="0" />
        <path
           id="path2887-7-0"
           d="m 145.16238,68.232312 -0.1415,7.351406"
           style="opacity:0.81040889;fill:none;stroke:url(#linearGradient6331);stroke-width:0.15943034;stroke-linecap:round;stroke-linejoin:round;stroke-miterlimit:4;stroke-dasharray:none;stroke-opacity:1"
           inkscape:connector-curvature="0" />
        <path
           id="path2889-4-2"
           d="m 143.57893,70.246207 c -0.0418,0.0072 -0.0704,0.05068 -0.0639,0.09702 0.007,0.04634 0.0457,0.07804 0.0876,0.0708 h 12.48092 c 0.0273,4.19e-4 0.0527,-0.01547 0.0665,-0.04161 0.0138,-0.02614 0.0138,-0.05847 0,-0.0846 -0.0138,-0.02614 -0.0392,-0.04204 -0.0665,-0.04161 h -12.48092 c -0.008,-0.0014 -0.0158,-0.0014 -0.0237,0 z"
           style="opacity:0.89444448;fill:url(#linearGradient6328);fill-opacity:1;stroke:none"
           inkscape:connector-curvature="0" />
        <path
           id="path2891-1-1"
           d="m 149.33218,68.035726 c -0.007,-0.04757 -0.0457,-0.08011 -0.0876,-0.07267 -0.0418,0.0074 -0.0704,0.05202 -0.0639,0.09959 v 14.195788 c -3.8e-4,0.03106 0.014,0.05996 0.0375,0.07562 0.0236,0.01566 0.0528,0.01566 0.0764,0 0.0236,-0.01566 0.0379,-0.04455 0.0375,-0.07562 V 68.062646 c 0.001,-0.0089 0.001,-0.018 0,-0.02692 z"
           style="opacity:0.89444448;fill:url(#linearGradient6325);fill-opacity:1;stroke:none"
           inkscape:connector-curvature="0" />
        <path
           style="opacity:0.89444448;fill:url(#linearGradient6322);fill-opacity:1;stroke:none"
           d="m 150.69171,68.035726 c -0.007,-0.04757 -0.0457,-0.08011 -0.0876,-0.07267 -0.0418,0.0074 -0.0704,0.05202 -0.0639,0.09959 v 14.195788 c -3.8e-4,0.03106 0.014,0.05996 0.0376,0.07562 0.0236,0.01566 0.0528,0.01566 0.0763,0 0.0236,-0.01566 0.0379,-0.04455 0.0376,-0.07562 V 68.062646 c 0.001,-0.0089 0.001,-0.018 0,-0.02692 z"
           id="path2893-8-0"
           inkscape:connector-curvature="0" />
        <path
           id="path2895-5-5"
           d="m 148.01855,78.238129 c 0.69309,0.09303 1.22974,0.760736 1.22974,1.569226 0,0.871803 -0.6239,1.581144 -1.39466,1.581143 -0.61813,0 -1.14321,-0.457742 -1.32655,-1.088526 -0.0112,-0.02273 -0.009,-0.05068 0.006,-0.07069 0.0148,-0.02001 0.0391,-0.02808 0.0614,-0.0204 0.0223,0.0077 0.0382,0.02956 0.0401,0.05534 0.16873,0.580549 0.652,0.997153 1.21899,0.997153 0.70707,0 1.27993,-0.649133 1.27993,-1.454016 0,-0.746341 -0.49405,-1.356824 -1.12935,-1.442099 -0.0317,-0.0044 -0.0542,-0.0364 -0.0502,-0.07151 0.004,-0.03511 0.0329,-0.06001 0.0645,-0.05562 z"
           style="opacity:0.67286245;fill:url(#linearGradient6319);fill-opacity:1;stroke:none"
           inkscape:connector-curvature="0" />
        <path
           style="opacity:0.59851302;fill:url(#linearGradient6316);fill-opacity:1;stroke:none"
           d="m 151.01424,71.063869 c 0.55347,-0.816619 1.59661,-1.055731 2.43078,-0.522074 0.89949,0.575447 1.21955,1.834022 0.71079,2.810452 -0.408,0.783054 -1.22688,1.146108 -1.9987,0.961999 -0.0308,-8.56e-4 -0.0581,-0.02234 -0.069,-0.0543 -0.0109,-0.03196 -0.003,-0.06804 0.0195,-0.09122 0.0226,-0.02319 0.0557,-0.02886 0.0836,-0.01434 0.71036,0.169447 1.45918,-0.167777 1.83343,-0.886055 0.46672,-0.895742 0.17509,-2.049924 -0.65535,-2.5812 -0.77005,-0.492633 -1.72602,-0.269723 -2.23335,0.478814 -0.0254,0.03724 -0.0733,0.04457 -0.10691,0.01639 -0.0336,-0.02819 -0.0402,-0.08123 -0.0148,-0.118466 z"
           id="path2897-9-1"
           inkscape:connector-curvature="0" />
        <path
           id="path2899-7-1"
           d="m 150.91204,78.685396 c -0.48782,0.553432 -0.52892,1.446385 -0.072,2.076751 0.49265,0.679732 1.37994,0.799908 1.9809,0.265113 0.48194,-0.428882 0.63267,-1.150107 0.41916,-1.769123 -0.004,-0.02546 -0.0218,-0.04561 -0.0446,-0.05093 -0.0229,-0.0053 -0.0463,0.0052 -0.0594,0.02668 -0.013,0.02146 -0.0131,0.04953 -3e-5,0.071 0.19651,0.569719 0.0551,1.229849 -0.38693,1.623253 -0.5513,0.490602 -1.36477,0.381958 -1.81961,-0.245597 -0.42176,-0.58191 -0.38154,-1.400687 0.0656,-1.907979 0.0222,-0.0254 0.0216,-0.06596 -10e-4,-0.09058 -0.0229,-0.02462 -0.0595,-0.02399 -0.0817,0.0014 z"
           style="opacity:0.67286245;fill:url(#linearGradient6313);fill-opacity:1;stroke:none"
           inkscape:connector-curvature="0" />
      </g>
      <path
         sodipodi:nodetypes="ccccc"
         id="path5480-5-0"
         d="m 143.09915,66.762552 -0.0951,17.406107 0.69361,-0.106395 0.007,-17.131573 -0.60523,-0.168139 z"
         style="fill:#f4f4f4;fill-opacity:1;stroke:none"
         inkscape:connector-curvature="0" />
      <path
         sodipodi:nodetypes="ccccc"
         id="path5480-4-8-3-8"
         d="m 156.99595,83.240378 -14.37088,0.122727 -0.0437,0.50474 14.37087,-0.122728 0.0437,-0.504739 z"
         style="display:inline;fill:#f4f4f4;fill-opacity:1;stroke:none;enable-background:new"
         inkscape:connector-curvature="0" />
      <path
         sodipodi:nodetypes="ccccc"
         id="path5480-4-8-1-8-5"
         d="m 157.44378,68.123647 -14.51035,-0.122727 -0.10963,-0.723491 14.51034,0.122728 z"
         style="display:inline;fill:#f4f4f4;fill-opacity:1;stroke:none;enable-background:new"
         inkscape:connector-curvature="0" />
      <path
         sodipodi:nodetypes="ccccc"
         id="path5480-2-8-0"
         d="m 156.87618,67.010755 0.271,16.972078 -0.62667,-0.118693 -0.271,-16.972077 z"
         style="display:inline;fill:#f4f4f4;fill-opacity:1;stroke:none;enable-background:new"
         inkscape:connector-curvature="0" />
    </g>
    <path
       style="display:inline;fill:#d9d9d9;fill-opacity:1;stroke:#979797;stroke-width:0;stroke-linecap:butt;stroke-linejoin:miter;stroke-miterlimit:4;stroke-dasharray:none;stroke-opacity:1;enable-background:new"
       d="m 16.0212,11.139399 10,11 v -11 z m 4.5,2 h 3.5 v 4 z"
       id="path7309"
       inkscape:connector-curvature="0"
       sodipodi:nodetypes="cccccccc" />
  </g>
</svg>
