<?xml version="1.0" encoding="UTF-8" standalone="no"?>
<!-- Created with Inkscape (http://www.inkscape.org/) -->

<svg
   xmlns:dc="http://purl.org/dc/elements/1.1/"
   xmlns:cc="http://creativecommons.org/ns#"
   xmlns:rdf="http://www.w3.org/1999/02/22-rdf-syntax-ns#"
   xmlns:svg="http://www.w3.org/2000/svg"
   xmlns="http://www.w3.org/2000/svg"
   xmlns:sodipodi="http://sodipodi.sourceforge.net/DTD/sodipodi-0.dtd"
   xmlns:inkscape="http://www.inkscape.org/namespaces/inkscape"
   id="svg7384"
   height="16"
   width="16"
   version="1.1"
   inkscape:version="0.92.2 (unknown)"
   sodipodi:docname="comment-symbolic.svg">
  <defs
     id="defs11240" />
  <sodipodi:namedview
     pagecolor="#ffffff"
     bordercolor="#666666"
     borderopacity="1"
     objecttolerance="10"
     gridtolerance="10"
     guidetolerance="10"
     inkscape:pageopacity="0"
     inkscape:pageshadow="2"
     inkscape:window-width="1366"
     inkscape:window-height="716"
     id="namedview11238"
     showgrid="false"
     showguides="true"
     inkscape:guide-bbox="true"
     inkscape:zoom="7.375"
     inkscape:cx="31.483918"
     inkscape:cy="3.9759335"
     inkscape:window-x="0"
     inkscape:window-y="27"
     inkscape:window-maximized="1"
     inkscape:current-layer="svg7384" />
  <metadata
     id="metadata90">
    <rdf:RDF>
      <cc:Work
         rdf:about="">
        <dc:format>image/svg+xml</dc:format>
        <dc:type
           rdf:resource="http://purl.org/dc/dcmitype/StillImage" />
        <dc:title>Gnome Symbolic Icon Theme</dc:title>
      </cc:Work>
    </rdf:RDF>
  </metadata>
  <title
     id="title9167">Gnome Symbolic Icon Theme</title>
  <path
     style="opacity:1;fill:#bebebe;fill-opacity:1;stroke:none;stroke-width:0.56165886"
     d="m 8.9524097,1.0235623 a 6.2467427,7.3237677 80.592044 0 0 -1.4570312,0.1132812 6.2467427,7.3237677 80.592044 0 0 -6.203125,7.3613281 6.2467427,7.3237677 80.592044 0 0 2.53125,3.8007814 c -0.3644814,0.506474 -0.8129547,1.072805 -1.1914063,1.289063 -0.6711523,0.383515 -2.44531253,1.101562 -2.44531253,1.101562 0,0 0.5719673,0.29121 1.86914063,0.28711 0.8519501,-0.0027 4.2521032,-0.75505 5.5800782,-1.421875 A 6.2467427,7.3237677 80.592044 0 0 9.5383472,13.463016 6.2467427,7.3237677 80.592044 0 0 15.741473,6.1036404 6.2467427,7.3237677 80.592044 0 0 8.9524097,1.0235623 Z"
     id="path827"
     inkscape:connector-curvature="0" />
</svg>
