<?xml version="1.0" encoding="UTF-8" standalone="no"?>
<!-- Created with Inkscape (http://www.inkscape.org/) -->

<svg
   xmlns:dc="http://purl.org/dc/elements/1.1/"
   xmlns:cc="http://creativecommons.org/ns#"
   xmlns:rdf="http://www.w3.org/1999/02/22-rdf-syntax-ns#"
   xmlns:svg="http://www.w3.org/2000/svg"
   xmlns="http://www.w3.org/2000/svg"
   xmlns:sodipodi="http://sodipodi.sourceforge.net/DTD/sodipodi-0.dtd"
   xmlns:inkscape="http://www.inkscape.org/namespaces/inkscape"
   version="1.1"
   width="16"
   height="16"
   id="svg7384"
   inkscape:version="0.48.3.1 r9886"
   sodipodi:docname="contact-new-symbolic.svg">
  <sodipodi:namedview
     pagecolor="#ffffff"
     bordercolor="#666666"
     borderopacity="1"
     objecttolerance="10"
     gridtolerance="10"
     guidetolerance="10"
     inkscape:pageopacity="0"
     inkscape:pageshadow="2"
     inkscape:window-width="1366"
     inkscape:window-height="696"
     id="namedview7"
     showgrid="false"
     showguides="true"
     inkscape:guide-bbox="true"
     inkscape:zoom="3.6875"
     inkscape:cx="23.082897"
     inkscape:cy="19.177714"
     inkscape:window-x="0"
     inkscape:window-y="0"
     inkscape:window-maximized="1"
     inkscape:current-layer="svg7384" />
  <title
     id="title9167">Gnome Symbolic Icon Theme</title>
  <defs
     id="defs11" />
  <metadata
     id="metadata90">
    <rdf:RDF>
      <cc:Work
         rdf:about="">
        <dc:format>image/svg+xml</dc:format>
        <dc:type
           rdf:resource="http://purl.org/dc/dcmitype/StillImage" />
        <dc:title>Gnome Symbolic Icon Theme</dc:title>
      </cc:Work>
    </rdf:RDF>
  </metadata>
  <path
     style="fill:#bebebe;fill-opacity:1"
     d="M 8 1.78125 C 7.781169 1.78125 7.53973 1.775105 7.34375 1.8125 C 6.895007 1.896985 6.591237 2.115741 6.4375 2.28125 L 6.40625 2.34375 C 6.215118 2.372142 5.888152 2.414478 5.625 2.625 C 5.270437 2.908235 4.96875 3.4017672 4.96875 4.28125 C 4.96875 4.9045056 5 5.272858 5 5.5 C 5 5.7548423 4.7727652 5.779265 4.71875 6.0625 C 4.64189 6.460691 4.7555479 7.3901583 5 7.84375 C 5.1502739 8.121445 5.474901 8.2500053 5.6875 8.5 C 5.905639 8.7548424 6.125 9.2544227 6.125 9.59375 C 6.125 10.102049 5.558318 11.191321 4.3125 11.8125 C 2.6054722 12.66359 1.78125 13.033871 1.78125 14.21875 L 8 14.21875 C 7.9914493 14.202945 7.9697036 14.192502 7.96875 14.1875 C 7.9671606 14.179163 7.9699228 14.164656 7.96875 14.15625 C 7.9675772 14.147844 7.9695033 14.102204 7.96875 14.09375 C 7.9679967 14.085296 7.969082 14.070981 7.96875 14.0625 C 7.968418 14.054019 7.9686598 14.008487 7.96875 14 L 7.96875 12 C 7.9686598 11.991513 7.968418 11.945981 7.96875 11.9375 C 7.969082 11.929019 7.9679967 11.914704 7.96875 11.90625 C 7.9695033 11.897796 7.9675772 11.852156 7.96875 11.84375 C 7.9699228 11.835344 7.9671606 11.820837 7.96875 11.8125 C 7.9703394 11.804163 7.9979979 11.758248 8 11.75 C 8.0020021 11.741752 7.9975902 11.695638 8 11.6875 C 8.0024098 11.679362 8.0284384 11.664258 8.03125 11.65625 C 8.0340616 11.648242 8.0280436 11.601609 8.03125 11.59375 C 8.0344564 11.585891 8.0589068 11.57019 8.0625 11.5625 C 8.0660932 11.55481 8.0585288 11.507501 8.0625 11.5 C 8.0664712 11.492499 8.0894107 11.476045 8.09375 11.46875 C 8.0980893 11.461455 8.1203033 11.41332 8.125 11.40625 C 8.1296967 11.39918 8.1512075 11.381827 8.15625 11.375 C 8.1612925 11.368173 8.1821242 11.350318 8.1875 11.34375 C 8.1928758 11.337182 8.2130542 11.318793 8.21875 11.3125 C 8.2244458 11.306207 8.2439983 11.256002 8.25 11.25 C 8.2560017 11.243998 8.3062073 11.224446 8.3125 11.21875 C 8.3187927 11.213054 8.3371818 11.192876 8.34375 11.1875 C 8.3503182 11.182124 8.3681726 11.161292 8.375 11.15625 C 8.3818274 11.151208 8.3991803 11.129697 8.40625 11.125 C 8.4133197 11.120303 8.4614555 11.098089 8.46875 11.09375 C 8.4760445 11.089411 8.4924987 11.066471 8.5 11.0625 C 8.5075013 11.058529 8.5548105 11.066093 8.5625 11.0625 C 8.5701895 11.058907 8.5858913 11.034456 8.59375 11.03125 C 8.6016087 11.028044 8.6482416 11.034062 8.65625 11.03125 C 8.6642584 11.028438 8.6793617 11.00241 8.6875 11 C 8.6956383 10.99759 8.7417519 11.002002 8.75 11 C 8.7582481 10.997998 8.8041625 10.970339 8.8125 10.96875 C 8.8208375 10.967161 8.8353438 10.969923 8.84375 10.96875 C 8.8521562 10.967577 8.8977959 10.969503 8.90625 10.96875 C 8.9147041 10.967997 8.9290189 10.969082 8.9375 10.96875 C 8.9459811 10.968418 8.9915129 10.96866 9 10.96875 L 9.96875 10.96875 L 9.96875 10.0625 C 9.9594195 10.039196 9.9768598 10.022635 9.96875 10 C 9.9685808 9.9923176 9.9685731 9.9764322 9.96875 9.96875 C 9.9214865 9.8284145 9.875 9.6965272 9.875 9.59375 C 9.875 9.2544225 10.093668 8.7548428 10.3125 8.5 C 10.526485 8.2500054 10.849726 8.121445 11 7.84375 C 11.243763 7.3901585 11.358119 6.460691 11.28125 6.0625 C 11.22724 5.7785725 11 5.7541497 11 5.5 C 11 5.2728579 11.0625 4.9051982 11.0625 4.28125 C 11.0625 3.4017673 10.702899 2.9398287 10.25 2.53125 C 9.8414224 2.1621443 9.0346051 1.78125 8 1.78125 z M 6.4375 2.28125 L 6.5 2.1875 C 6.5 2.098166 6.554367 1.9907358 6.625 1.90625 L 6.5 1.8125 C 6.4349 1.890753 6.396465 1.9738593 6.375 2.0625 C 6.2919 2.033414 6.2017809 2.03125 6.09375 2.03125 L 6.09375 2.1875 C 6.221864 2.1875 6.324534 2.203602 6.40625 2.25 L 6.4375 2.28125 z "
     id="path3424" />
  <path
     d="m 11.003214,10.000168 0,2 -1.9999997,0 0,2 1.9999997,0 0,2 2,0 0,-2 2,0 0,-2 -2,0 0,-2 z"
     inkscape:connector-curvature="0"
     id="path3107-4-3-2"
     style="color:#bebebe;fill:#bebebe;fill-opacity:1;fill-rule:nonzero;stroke:none;stroke-width:1;marker:none;visibility:visible;display:inline;overflow:visible;enable-background:accumulate"
     sodipodi:nodetypes="ccccccccccccc" />
</svg>
