<?xml version="1.0" encoding="UTF-8" standalone="no"?>
<!-- Created with Inkscape (http://www.inkscape.org/) -->

<svg
   xmlns:dc="http://purl.org/dc/elements/1.1/"
   xmlns:cc="http://creativecommons.org/ns#"
   xmlns:rdf="http://www.w3.org/1999/02/22-rdf-syntax-ns#"
   xmlns:svg="http://www.w3.org/2000/svg"
   xmlns="http://www.w3.org/2000/svg"
   xmlns:sodipodi="http://sodipodi.sourceforge.net/DTD/sodipodi-0.dtd"
   xmlns:inkscape="http://www.inkscape.org/namespaces/inkscape"
   id="svg7384"
   height="16"
   width="16"
   version="1.1"
   inkscape:version="0.48.3.1 r9886"
   sodipodi:docname="document-save-symbolic.svg">
  <defs
     id="defs11240" />
  <sodipodi:namedview
     pagecolor="#ffffff"
     bordercolor="#666666"
     borderopacity="1"
     objecttolerance="10"
     gridtolerance="10"
     guidetolerance="10"
     inkscape:pageopacity="0"
     inkscape:pageshadow="2"
     inkscape:window-width="1366"
     inkscape:window-height="696"
     id="namedview11238"
     showgrid="false"
     showguides="true"
     inkscape:guide-bbox="true"
     inkscape:zoom="20.85965"
     inkscape:cx="6.5069595"
     inkscape:cy="10.744455"
     inkscape:window-x="0"
     inkscape:window-y="0"
     inkscape:window-maximized="1"
     inkscape:current-layer="svg7384" />
  <metadata
     id="metadata90">
    <rdf:RDF>
      <cc:Work
         rdf:about="">
        <dc:format>image/svg+xml</dc:format>
        <dc:type
           rdf:resource="http://purl.org/dc/dcmitype/StillImage" />
        <dc:title>Gnome Symbolic Icon Theme</dc:title>
      </cc:Work>
    </rdf:RDF>
  </metadata>
  <title
     id="title9167">Gnome Symbolic Icon Theme</title>
  <path
     style="fill:#bebebe;fill-opacity:1;stroke:none"
     d="m 1.5019773,1.3309767 c -0.1250565,0 -0.1710006,0.1669209 -0.1710006,0.3420012 l 0,11.4912401 1.8468065,1.504805 0.0684,0 1.0944039,0 7.0794248,0 2.462408,0 0.615603,0 c 0.12506,0 0.171,-0.16692 0.171,-0.342001 l 0,-12.6540441 c 0,-0.1750796 -0.04594,-0.3420012 -0.171,-0.3420012 l -1.197005,0 -0.307801,0 -10.157435,0 -0.1710007,0 z m 1.6871746,0.7938855 9.5312211,-0.027182 -0.0091,5.9707204 C 12.711034,8.251336 12.596972,8.410026 12.471912,8.4104015 L 3.4194919,8.4375838 C 3.2944359,8.4379592 3.1798134,8.2785183 3.1800911,8.0955826 z m 1.322436,7.7219443 6.6348231,0 c 0.12506,0 0.273601,0.124865 0.273601,0.3078005 l 0,4.001414 -7.0794248,0 0,-4.001414 c 0,-0.1829355 0.045944,-0.3078005 0.1710007,-0.3078005 z m 0.9918034,0.3078005 0,3.659413 1.744206,0 0,-3.659413 z"
     id="path4545"
     inkscape:connector-curvature="0"
     sodipodi:nodetypes="ssccccccssssccccsccsssscsssccssccccc" />
</svg>
