<?xml version="1.0" encoding="UTF-8" standalone="no"?>
<!-- Created with Inkscape (http://www.inkscape.org/) -->

<svg
   xmlns:dc="http://purl.org/dc/elements/1.1/"
   xmlns:cc="http://creativecommons.org/ns#"
   xmlns:rdf="http://www.w3.org/1999/02/22-rdf-syntax-ns#"
   xmlns:svg="http://www.w3.org/2000/svg"
   xmlns="http://www.w3.org/2000/svg"
   xmlns:sodipodi="http://sodipodi.sourceforge.net/DTD/sodipodi-0.dtd"
   xmlns:inkscape="http://www.inkscape.org/namespaces/inkscape"
   id="svg7384"
   height="16"
   width="16"
   version="1.1"
   inkscape:version="0.48.3.1 r9886"
   sodipodi:docname="document-save-symbolic.svg">
  <defs
     id="defs11240" />
  <sodipodi:namedview
     pagecolor="#ffffff"
     bordercolor="#666666"
     borderopacity="1"
     objecttolerance="10"
     gridtolerance="10"
     guidetolerance="10"
     inkscape:pageopacity="0"
     inkscape:pageshadow="2"
     inkscape:window-width="1366"
     inkscape:window-height="696"
     id="namedview11238"
     showgrid="false"
     showguides="true"
     inkscape:guide-bbox="true"
     inkscape:zoom="29.5"
     inkscape:cx="7.7884534"
     inkscape:cy="7.5132304"
     inkscape:window-x="0"
     inkscape:window-y="0"
     inkscape:window-maximized="1"
     inkscape:current-layer="svg7384" />
  <metadata
     id="metadata90">
    <rdf:RDF>
      <cc:Work
         rdf:about="">
        <dc:format>image/svg+xml</dc:format>
        <dc:type
           rdf:resource="http://purl.org/dc/dcmitype/StillImage" />
        <dc:title>Gnome Symbolic Icon Theme</dc:title>
      </cc:Work>
    </rdf:RDF>
  </metadata>
  <title
     id="title9167">Gnome Symbolic Icon Theme</title>
  <path
     style="fill:#bebebe;fill-opacity:1;stroke:none"
     d="M 1.5 1.34375 C 1.3749435 1.34375 1.34375 1.5124197 1.34375 1.6875 L 1.34375 11.90625 L 4.6875 8.4375 L 3.40625 8.4375 C 3.281194 8.4378754 3.1872223 8.2766857 3.1875 8.09375 L 3.1875 2.125 L 12.71875 2.09375 L 12.71875 2.5 C 12.739966 2.5135663 12.759463 2.5371819 12.75 2.53125 C 12.725396 2.5158271 12.866757 2.6114667 12.84375 2.59375 A 1.0874677 1.0874677 0 0 1 12.84375 2.625 C 12.835105 2.6182339 12.8542 2.639015 12.875 2.65625 C 12.888867 2.66774 12.911729 2.6611019 12.90625 2.65625 C 12.913155 2.6620291 12.899317 2.681755 12.90625 2.6875 C 12.920117 2.69899 12.942979 2.6923519 12.9375 2.6875 C 12.958215 2.7048374 12.976969 2.7260278 12.96875 2.71875 C 12.986103 2.7350814 13.006469 2.7564689 13 2.75 C 13.016331 2.7673535 13.037315 2.7880993 13.03125 2.78125 C 13.047581 2.7986035 13.068565 2.8193493 13.0625 2.8125 C 13.074058 2.8263101 13.067011 2.8495135 13.0625 2.84375 C 13.079735 2.8645504 13.100516 2.8836452 13.09375 2.875 C 13.110985 2.8958004 13.131766 2.9148952 13.125 2.90625 A 1.0874677 1.0874677 0 0 1 13.375 3.46875 C 13.374263 3.460167 13.37431 3.4810267 13.375 3.5 C 13.376381 3.5379467 13.375 3.5797293 13.375 3.5625 C 13.375 3.536656 13.372788 3.7132491 13.375 3.6875 C 13.374667 3.6985015 13.374447 3.7251873 13.375 3.71875 A 1.0874677 1.0874677 0 0 1 13.34375 3.90625 C 13.351526 3.8782722 13.270821 4.0583507 13.28125 4.03125 C 13.286771 4.0169026 13.266041 4.0572831 13.25 4.09375 C 13.235741 4.126165 13.243889 4.1684724 13.25 4.15625 C 13.262986 4.1302774 13.172077 4.2746039 13.1875 4.25 L 12.71875 5.375 L 12.71875 8.0625 C 12.718511 8.2454354 12.59381 8.4058745 12.46875 8.40625 L 10.4375 8.40625 L 9.03125 9.84375 L 11.15625 9.84375 C 11.28131 9.84375 11.40625 9.9733145 11.40625 10.15625 L 11.40625 14.15625 L 4.78125 14.15625 L 4.28125 14.65625 L 4.34375 14.65625 L 11.40625 14.65625 L 13.875 14.65625 L 14.5 14.65625 C 14.62506 14.65625 14.65625 14.487581 14.65625 14.3125 L 14.65625 1.6875 C 14.65625 1.5124204 14.62506 1.34375 14.5 1.34375 L 13.3125 1.34375 L 13 1.34375 L 2.84375 1.34375 L 2.65625 1.34375 L 1.5 1.34375 z M 7.25 11.65625 L 5.5 13.4375 L 5.5 13.8125 L 7.25 13.8125 L 7.25 11.65625 z "
     id="path4545" />
  <path
     style="fill:#bebebe;fill-opacity:1;stroke:none"
     d="M 12.0625,3.4375 A 0.18256621,0.18256621 0 0 0 12,3.46875 L 9.9375,4.5 A 0.18256621,0.18256621 0 0 0 9.90625,4.53125 l -9.34375,9.75 A 0.18256621,0.18256621 0 0 0 0.53125,14.3125 0.18256621,0.18256621 0 0 0 0.5,14.40625 a 0.18256621,0.18256621 0 0 0 0,0.03125 0.18256621,0.18256621 0 0 0 0,0.03125 c 0.12681968,0.455473 0.31878851,0.713618 0.5625,0.875 0.2437115,0.161382 0.534949,0.208056 0.78125,0.21875 a 0.18256621,0.18256621 0 0 0 0.03125,0 A 0.18256621,0.18256621 0 0 0 1.9375,15.53125 0.18256621,0.18256621 0 0 0 1.96875,15.5 L 11.3125,6 a 0.18256621,0.18256621 0 0 0 0.03125,-0.03125 0.18256621,0.18256621 0 0 0 0,-0.03125 L 12.25,3.6875 a 0.18256621,0.18256621 0 0 0 0.03125,-0.0625 0.18256621,0.18256621 0 0 0 0,-0.03125 A 0.18256621,0.18256621 0 0 0 12.25,3.53125 0.18256621,0.18256621 0 0 0 12.21875,3.5 0.18256621,0.18256621 0 0 0 12.1875,3.46875 0.18256621,0.18256621 0 0 0 12.125,3.4375 a 0.18256621,0.18256621 0 0 0 -0.03125,0 0.18256621,0.18256621 0 0 0 -0.03125,0 z"
     id="path4658" />
</svg>
