<?xml version="1.0" encoding="UTF-8" standalone="no"?>
<!-- Created with Inkscape (http://www.inkscape.org/) -->

<svg
   xmlns:dc="http://purl.org/dc/elements/1.1/"
   xmlns:cc="http://creativecommons.org/ns#"
   xmlns:rdf="http://www.w3.org/1999/02/22-rdf-syntax-ns#"
   xmlns:svg="http://www.w3.org/2000/svg"
   xmlns="http://www.w3.org/2000/svg"
   xmlns:sodipodi="http://sodipodi.sourceforge.net/DTD/sodipodi-0.dtd"
   xmlns:inkscape="http://www.inkscape.org/namespaces/inkscape"
   id="svg7384"
   height="16.072"
   width="16"
   version="1.1"
   inkscape:version="0.48.3.1 r9886"
   sodipodi:docname="appointment-soon-symbolic.svg">
  <defs
     id="defs13" />
  <sodipodi:namedview
     pagecolor="#ffffff"
     bordercolor="#666666"
     borderopacity="1"
     objecttolerance="10"
     gridtolerance="10"
     guidetolerance="10"
     inkscape:pageopacity="0"
     inkscape:pageshadow="2"
     inkscape:window-width="1366"
     inkscape:window-height="711"
     id="namedview11"
     showgrid="false"
     inkscape:zoom="10.383101"
     inkscape:cx="-0.86329979"
     inkscape:cy="0.77344178"
     inkscape:window-x="0"
     inkscape:window-y="0"
     inkscape:window-maximized="1"
     inkscape:current-layer="svg7384" />
  <metadata
     id="metadata90">
    <rdf:RDF>
      <cc:Work
         rdf:about="">
        <dc:format>image/svg+xml</dc:format>
        <dc:type
           rdf:resource="http://purl.org/dc/dcmitype/StillImage" />
        <dc:title>Gnome Symbolic Icon Theme</dc:title>
      </cc:Work>
    </rdf:RDF>
  </metadata>
  <title
     id="title9167">Gnome Symbolic Icon Theme</title>
  <path
     inkscape:connector-curvature="0"
     style="fill:#bebebe;fill-opacity:0.87785591;stroke:none"
     d="m 2.282479,0.69603844 c -0.074561,0 -0.1331421,0.0585835 -0.1331421,0.13314253 l 0,0.70755783 c 0,0.074559 0.058583,0.1331426 0.1331421,0.1331426 l 0.8407005,0 0,12.6599596 -0.7684227,0 c -0.1133522,0 -0.2054199,0.04604 -0.2054199,0.10271 l 0,0.768423 c 0,0.007 0.00113,0.01616 0.00385,0.02283 -0.00131,0.0022 -0.00385,0.0054 -0.00385,0.0076 0,0.0099 0.015912,0.02113 0.041845,0.03044 0.037154,0.02545 0.095455,0.04184 0.1635752,0.04184 l 0.068471,0 c 0.3380086,0.04236 0.9589483,0.07228 1.6814009,0.07228 l 7.7907448,0 c 0.722453,0 1.343392,-0.02991 1.681401,-0.07228 l 0.05325,0 c 0.06104,0 0.114738,-0.01317 0.152163,-0.03424 0.03916,-0.0113 0.06847,-0.02583 0.06847,-0.03803 0,-0.0062 -0.0085,-0.013 -0.01902,-0.01902 7.03e-4,-0.0035 0.0038,-0.0078 0.0038,-0.0114 l -7e-6,-0.76843 c 0,-0.05668 -0.09207,-0.10271 -0.20542,-0.10271 l -0.768423,0 0,-12.6599594 0.8407,0 c 0.07456,0 0.133143,-0.058583 0.133143,-0.1331426 l 0,-0.70755784 c 0,-0.0745586 -0.05858,-0.13314253 -0.133143,-0.13314253 l -11.4198311,0 z m 1.814544,0.97384296 0.9738426,0 0,0.6314764 0,0.2396563 c 0,0.056678 0.046038,0.1027099 0.10271,0.1027099 l 0.7303824,0 C 5.5548249,3.0261574 5.3447589,3.5657852 5.3447589,4.2870847 c 0,1.2805568 1.8721311,2.3059068 2.2215794,3.6100664 -0.2862272,1.0682155 -2.2215794,2.3545399 -2.2215794,3.6519119 0,0.768091 0.2307866,1.330735 0.6124563,1.723245 0.027265,0.02803 0.054895,0.0574 0.083689,0.08369 l -0.646692,0 c -0.092771,0 -0.1772865,0.03013 -0.2472657,0.07989 -0.1221058,0.01212 -0.1978119,0.0243 -0.1978119,0.03804 0,0.01031 0.051349,0.02097 0.1217306,0.03044 -0.065629,0.07522 -0.1065145,0.173377 -0.1065145,0.281501 l 0,0.543983 -0.8673281,0 0,-12.6599594 z m 6.816901,0 0.973842,0 0,12.6599596 -0.970038,0 0,-0.543983 c 0,-0.237286 -0.18877,-0.42986 -0.426057,-0.42986 l -0.464097,0 c 0.13601,-0.120144 0.2573,-0.255675 0.357583,-0.414645 -0.01072,-0.0032 -0.02328,-0.0083 -0.03423,-0.0114 0.0076,-0.01232 0.01549,-0.02549 0.02283,-0.03804 0.205947,-0.35253 0.323346,-0.794202 0.323346,-1.342839 0,-0.162171 -0.03091,-0.324395 -0.08369,-0.483117 C 10.244006,9.954909 8.7508962,8.9249011 8.4755158,7.8971689 c 0.021579,-0.080528 0.047174,-0.1609454 0.07989,-0.2396575 0.4906648,-1.180683 2.1416926,-2.1698881 2.1416936,-3.3704098 0,-0.7212995 -0.210066,-1.2609273 -0.5592,-1.6433597 l 0.673323,0 c 0.05668,-6.6e-6 0.10271,-0.046039 0.10271,-0.1027166 l 0,-0.8711328 z"
     id="path3950" />
</svg>
