<?xml version="1.0" encoding="UTF-8" standalone="no"?>
<!-- Created with Inkscape (http://www.inkscape.org/) -->

<svg
   xmlns:dc="http://purl.org/dc/elements/1.1/"
   xmlns:cc="http://creativecommons.org/ns#"
   xmlns:rdf="http://www.w3.org/1999/02/22-rdf-syntax-ns#"
   xmlns:svg="http://www.w3.org/2000/svg"
   xmlns="http://www.w3.org/2000/svg"
   xmlns:sodipodi="http://sodipodi.sourceforge.net/DTD/sodipodi-0.dtd"
   xmlns:inkscape="http://www.inkscape.org/namespaces/inkscape"
   id="svg7384"
   height="16"
   width="16"
   version="1.1"
   inkscape:version="0.92.2 (unknown)"
   sodipodi:docname="edit-redo-symbolic.svg">
  <defs
     id="defs14208" />
  <sodipodi:namedview
     pagecolor="#ffffff"
     bordercolor="#666666"
     borderopacity="1"
     objecttolerance="10"
     gridtolerance="10"
     guidetolerance="10"
     inkscape:pageopacity="0"
     inkscape:pageshadow="2"
     inkscape:window-width="1366"
     inkscape:window-height="706"
     id="namedview14206"
     showgrid="false"
     inkscape:zoom="10.429825"
     inkscape:cx="6.6685248"
     inkscape:cy="0.79290425"
     inkscape:window-x="0"
     inkscape:window-y="0"
     inkscape:window-maximized="1"
     inkscape:current-layer="svg7384" />
  <metadata
     id="metadata90">
    <rdf:RDF>
      <cc:Work
         rdf:about="">
        <dc:format>image/svg+xml</dc:format>
        <dc:type
           rdf:resource="http://purl.org/dc/dcmitype/StillImage" />
        <dc:title>Gnome Symbolic Icon Theme</dc:title>
      </cc:Work>
    </rdf:RDF>
  </metadata>
  <title
     id="title9167">Gnome Symbolic Icon Theme</title>
  <path
     sodipodi:type="arc"
     style="fill:#bebebe;fill-opacity:1;stroke:none"
     id="path14320"
     sodipodi:cx="2.157275"
     sodipodi:cy="-13.482758"
     sodipodi:rx="0.047939442"
     sodipodi:ry="0.23969722"
     d="m 2.2052144,-13.482758 a 0.04793944,0.23969722 0 1 1 -0.095879,0 0.04793944,0.23969722 0 1 1 0.095879,0 z" />
  <path
     style="fill:#bebebe;fill-opacity:1;fill-rule:evenodd;stroke:none"
     d="m 10.740234,3.3222656 3.767578,3.7011719 -3.839844,3.7714845 a 0.72895824,0.72895824 0 0 0 0.07227,-0.314453 l -0.0039,-1.7324221 A 0.72895824,0.72895824 0 0 0 10.007812,8.0214844 H 5.9179684 c -1.174776,0 -2.240234,0.8557397 -2.240234,2.0312496 v 3.167969 h -2.03125 V 9.2207031 c 0,-1.7308134 1.590139,-3.1933594 3.693359,-3.1933593 h 0.121094 4.5468746 a 0.72895824,0.72895824 0 0 0 0.728516,-0.7265626 z"
     id="path4130"
     inkscape:connector-curvature="0" />
</svg>
