<?xml version="1.0" encoding="UTF-8" standalone="no"?>
<!-- Created with Inkscape (http://www.inkscape.org/) -->

<svg
   xmlns:dc="http://purl.org/dc/elements/1.1/"
   xmlns:cc="http://creativecommons.org/ns#"
   xmlns:rdf="http://www.w3.org/1999/02/22-rdf-syntax-ns#"
   xmlns:svg="http://www.w3.org/2000/svg"
   xmlns="http://www.w3.org/2000/svg"
   xmlns:xlink="http://www.w3.org/1999/xlink"
   xmlns:sodipodi="http://sodipodi.sourceforge.net/DTD/sodipodi-0.dtd"
   xmlns:inkscape="http://www.inkscape.org/namespaces/inkscape"
   version="1.1"
   width="16"
   height="16"
   id="svg12722"
   inkscape:version="0.48.3.1 r9886"
   sodipodi:docname="edit-delete-symbolic.svg">
  <sodipodi:namedview
     pagecolor="#ffffff"
     bordercolor="#666666"
     borderopacity="1"
     objecttolerance="10"
     gridtolerance="10"
     guidetolerance="10"
     inkscape:pageopacity="0"
     inkscape:pageshadow="2"
     inkscape:window-width="640"
     inkscape:window-height="480"
     id="namedview18"
     showgrid="false"
     inkscape:zoom="3.6875"
     inkscape:cx="7.3771125"
     inkscape:cy="14.525693"
     inkscape:window-x="0"
     inkscape:window-y="0"
     inkscape:window-maximized="0"
     inkscape:current-layer="svg12722" />
  <defs
     id="defs12724">
    <linearGradient
       x1="15"
       y1="2"
       x2="15"
       y2="21"
       id="linearGradient3696"
       gradientUnits="userSpaceOnUse">
      <stop
         id="stop3700"
         style="stop-color:#eeeeec;stop-opacity:1"
         offset="0" />
      <stop
         id="stop3702"
         style="stop-color:#babdb6;stop-opacity:1"
         offset="0.79220003" />
      <stop
         id="stop3704"
         style="stop-color:#a1a59b;stop-opacity:1"
         offset="1" />
    </linearGradient>
    <linearGradient
       x1="22.146999"
       y1="15.722"
       x2="22.402"
       y2="34.612"
       id="linearGradient4117"
       gradientUnits="userSpaceOnUse">
      <stop
         id="stop4113"
         style="stop-color:#ffffff;stop-opacity:1"
         offset="0" />
      <stop
         id="stop4115"
         style="stop-color:#ffffff;stop-opacity:0"
         offset="1" />
    </linearGradient>
    <linearGradient
       id="linearGradient5841">
      <stop
         id="stop5843"
         style="stop-color:#37e700;stop-opacity:1"
         offset="0" />
      <stop
         id="stop5849"
         style="stop-color:#3dfe00;stop-opacity:1"
         offset="0.5" />
      <stop
         id="stop5845"
         style="stop-color:#2aad00;stop-opacity:1"
         offset="1" />
    </linearGradient>
    <inkscape:perspective
       sodipodi:type="inkscape:persp3d"
       inkscape:vp_x="0 : 8 : 1"
       inkscape:vp_y="0 : 1000 : 0"
       inkscape:vp_z="16 : 8 : 1"
       inkscape:persp3d-origin="8 : 5.3333333 : 1"
       id="perspective19" />
    <linearGradient
       id="SpecificGradient"
       x1="6.5625"
       y1="2"
       x2="6.5625"
       y2="14.000651"
       gradientUnits="userSpaceOnUse">
      <stop
         style="stop-color:#ad0707;stop-opacity:1;"
         offset="0"
         id="stop3292" />
      <stop
         style="stop-color:#f75535;stop-opacity:1;"
         offset="1"
         id="stop3294" />
    </linearGradient>
    <inkscape:perspective
       id="perspective3648"
       inkscape:persp3d-origin="0.5 : 0.33333333 : 1"
       inkscape:vp_z="1 : 0.5 : 1"
       inkscape:vp_y="0 : 1000 : 0"
       inkscape:vp_x="0 : 0.5 : 1"
       sodipodi:type="inkscape:persp3d" />
    <linearGradient
       inkscape:collect="always"
       xlink:href="#SpecificGradient"
       id="linearGradient3628"
       gradientUnits="userSpaceOnUse"
       x1="6.5625"
       y1="2"
       x2="6.5625"
       y2="14.000651"
       gradientTransform="translate(-20,0)" />
    <clipPath
       clipPathUnits="userSpaceOnUse"
       id="clipPath3635">
      <path
         style="fill:#ff00ff;fill-opacity:1;stroke:none;display:inline"
         d="m -20,0 0,16 16,0 0,-16 -16,0 z m 8,2 c 3.312,0 6,2.6880001 6,6 0,3.312 -2.688,6 -6,6 -3.312,0 -6,-2.688 -6,-6 0,-3.3119999 2.688,-6 6,-6 z m 0,2.15625 c -0.57648,0 -1.133672,0.1167299 -1.625,0.34375 L -8.5,9.625 C -8.273784,9.1343862 -8.15625,8.5753957 -8.15625,8 -8.15625,5.8708574 -9.870857,4.1562499 -12,4.15625 z m -3.46875,2.125 c -0.255374,0.5152866 -0.375,1.1050247 -0.375,1.71875 0,2.129143 1.714607,3.84375 3.84375,3.84375 0.61479,0 1.202796,-0.118796 1.71875,-0.375 l -5.1875,-5.1875 z"
         id="path3637" />
    </clipPath>
    <linearGradient
       inkscape:collect="always"
       xlink:href="#SpecificGradient"
       id="linearGradient3783"
       gradientUnits="userSpaceOnUse"
       x1="6.5625"
       y1="2"
       x2="6.5625"
       y2="14.000651" />
    <linearGradient
       inkscape:collect="always"
       xlink:href="#SpecificGradient"
       id="linearGradient3787"
       gradientUnits="userSpaceOnUse"
       x1="6.5625"
       y1="2"
       x2="6.5625"
       y2="14.000651" />
  </defs>
  <metadata
     id="metadata12727">
    <rdf:RDF>
      <cc:Work
         rdf:about="">
        <dc:format>image/svg+xml</dc:format>
        <dc:type
           rdf:resource="http://purl.org/dc/dcmitype/StillImage" />
        <dc:title />
      </cc:Work>
    </rdf:RDF>
  </metadata>
  <g
     id="layer1"
     style="fill:#d40000;fill-opacity:1">
    <path
       d="m 11.863083,1.38668 c -0.01807,2.329e-4 -0.01463,0.00157 -0.03853,0.00428 -0.02653,0.00301 -0.0167,-0.00129 -0.04281,0.00428 -0.02611,0.00557 -0.01736,0.00478 -0.04281,0.012844 -0.02546,0.00806 -0.01398,0.00235 -0.03853,0.012844 -0.02455,0.010488 -0.01511,0.00859 -0.03853,0.021406 -0.02342,0.012816 -0.01646,0.00638 -0.03853,0.021406 -0.02207,0.015023 -0.01373,0.0086 -0.03425,0.025687 -0.02051,0.017089 -0.0112,0.010975 -0.02997,0.029969 L 8.1641086,4.9186869 a 0.19225165,0.19225165 0 0 1 -0.2739984,0 L 4.4993837,1.5193978 c -0.019536,-0.019403 -0.00859,-0.012612 -0.029969,-0.029969 -0.021375,-0.017356 -0.015531,-0.010552 -0.038531,-0.025687 -0.023001,-0.015136 -0.014134,-0.00864 -0.038531,-0.021406 -0.024396,-0.012766 -0.012982,-0.011139 -0.038531,-0.021406 -0.025549,-0.010267 -0.016366,-0.00517 -0.042812,-0.012844 -0.026445,-0.00767 -0.015734,-0.00357 -0.042812,-0.00856 -0.027079,-0.00499 -0.015371,-0.0063 -0.042812,-0.00856 -0.027441,-0.00226 -0.015282,-4.932e-4 -0.042812,0 a 0.19225165,0.19225165 0 0 1 -0.00428,0 c -0.026602,2.466e-4 -0.016358,-0.00281 -0.042812,0 -0.026454,0.00281 -0.012471,0.00321 -0.038531,0.00856 -0.02606,0.00534 -0.017389,7.261e-4 -0.042812,0.00856 -0.025423,0.00784 -0.013982,0.00688 -0.038531,0.017124 -0.024549,0.010249 -0.015084,0.00456 -0.038531,0.017124 -0.023447,0.012568 -0.016406,0.00664 -0.038531,0.021406 -0.022125,0.01477 -0.013652,0.00885 -0.03425,0.025687 -0.020599,0.016835 -0.01109,0.011226 -0.029969,0.029969 l -2.3075762,2.307579 c -0.019232,0.019135 -0.012712,0.00904 -0.029969,0.029969 -0.017256,0.020933 -0.010572,0.01172 -0.025687,0.03425 -0.015115,0.022529 -0.00858,0.014625 -0.021406,0.038531 -0.012829,0.023907 -0.010996,0.01348 -0.021409,0.038531 -0.010413,0.025051 -0.00494,0.016858 -0.012844,0.042812 -0.0079,0.025954 -0.00753,0.016207 -0.012844,0.042812 -0.00531,0.026605 -0.00162,0.015815 -0.00428,0.042813 -0.00267,0.026998 -0.00428,0.015683 -0.00428,0.042812 0,0.027129 0.00162,0.015815 0.00428,0.042812 0.00267,0.026998 -0.00102,0.016207 0.00428,0.042812 0.00531,0.026604 0.00494,0.016858 0.012844,0.042812 0.0079,0.025953 0.00243,0.017761 0.012844,0.042812 0.010413,0.025051 0.00858,0.014625 0.021406,0.038531 0.012826,0.023906 0.00629,0.016002 0.021406,0.038531 0.015115,0.022529 0.00843,0.013316 0.025687,0.03425 0.017256,0.020934 0.010736,0.010834 0.029969,0.029969 L 4.966037,7.8427614 a 0.19225165,0.19225165 0 0 1 0,0.2739981 L 1.5667478,11.511768 c -0.010989,0.01093 -0.013711,0.01403 -0.017124,0.01712 l -0.025687,-0.02141 c -0.2457659,0.249105 -0.1724311,0.609875 0.038531,0.740651 l 0.064219,-0.05138 2.2133911,2.20911 -0.029969,0.03853 c 0.2716711,0.268033 0.6622469,0.191545 0.8048694,-0.03853 l -0.038532,-0.0428 1.2372726,-1.237272 2.0763919,-2.080674 a 0.19225165,0.19225165 0 0 1 0.17553,-0.05137 0.19225165,0.19225165 0 0 1 0.055653,0.01712 0.19225165,0.19225165 0 0 1 0.017122,0.01284 0.19225165,0.19225165 0 0 1 0.025687,0.02141 l 2.294734,2.294734 1.05318,1.05318 -0.01712,0.01712 c 0.05174,0.05104 0.108799,0.08192 0.166968,0.107031 0.01185,0.0051 0.02228,0.013 0.03425,0.01712 0.0022,9.59e-4 9.59e-4,0.0029 0.0043,0.0043 0.02505,0.01041 0.01686,0.005 0.04281,0.01284 0.02595,0.0079 0.01621,0.0075 0.04281,0.01284 0.02661,0.0053 0.01581,0.0016 0.04281,0.0043 0.027,0.0026 0.01568,0.0043 0.04281,0.0043 0.02713,0 0.01581,-0.0016 0.04281,-0.0043 0.027,-0.0026 0.01621,9.6e-4 0.04281,-0.0043 0.02661,-0.0053 0.01686,-0.005 0.04281,-0.01284 0.02595,-0.0079 0.01776,-0.0024 0.04281,-0.01284 0.02506,-0.01041 0.01463,-0.0086 0.03853,-0.02141 0.0239,-0.01283 0.016,-0.0063 0.03853,-0.02141 0.02253,-0.01511 0.01332,-0.0084 0.03425,-0.02569 0.02094,-0.01726 0.01084,-0.01074 0.02997,-0.02997 l 2.20911,-2.20911 0.02141,0.01712 c 0.232965,-0.144417 0.318492,-0.538344 0.0471,-0.813432 l -0.02997,0.0214 -3.339353,-3.3393516 a 0.19225165,0.19225165 0 0 1 0,-0.2739981 l 3.395009,-3.3907265 c 0.01923,-0.019135 0.01272,-0.00904 0.02996,-0.029969 0.01726,-0.020934 0.01057,-0.01172 0.02569,-0.03425 0.01511,-0.022529 0.0086,-0.014625 0.02141,-0.038531 0.01282,-0.023906 0.01099,-0.013479 0.02141,-0.038531 0.01041,-0.025051 0.005,-0.016858 0.01284,-0.042812 0.0079,-0.025953 0.0075,-0.016207 0.01284,-0.042812 0.0053,-0.026604 0.0016,-0.015815 0.0043,-0.042812 0.0026,-0.026998 0.0043,-0.015683 0.0043,-0.042813 0,-0.027129 -0.0016,-0.015814 -0.0043,-0.042812 -0.0026,-0.026998 9.6e-4,-0.016207 -0.0043,-0.042812 -0.0053,-0.026604 -0.005,-0.016858 -0.01284,-0.042812 -0.0079,-0.025953 -0.0024,-0.017761 -0.01284,-0.042812 -0.01041,-0.025051 -0.0086,-0.014625 -0.02141,-0.038531 -0.01282,-0.023906 -0.0063,-0.016002 -0.02141,-0.038531 -0.01511,-0.022529 -0.0084,-0.013316 -0.02569,-0.03425 -0.01726,-0.020933 -0.01074,-0.010834 -0.02996,-0.029969 L 12.184175,1.5193989 c -0.01942,-0.019652 -0.01296,-0.012359 -0.03425,-0.029969 -0.02129,-0.017609 -0.0113,-0.01458 -0.03425,-0.029969 -0.02294,-0.015389 -0.01416,-0.00839 -0.03853,-0.021406 -0.02438,-0.013013 -0.01298,-0.00661 -0.03853,-0.017124 -0.02555,-0.010508 -0.01634,-0.00923 -0.04281,-0.017124 -0.02648,-0.00789 -0.01567,-0.00336 -0.04281,-0.00856 -0.02714,-0.00521 -0.01529,-0.0061 -0.04281,-0.00856 -0.02502,-0.00224 -0.02348,-2.74e-4 -0.04281,0 -0.0019,2.76e-5 -0.0018,-2.78e-5 -0.0043,0 z"
       id="path12260"
       style="fill:#d40000;fill-opacity:1;stroke:none" />
  </g>
</svg>
