<?xml version="1.0" encoding="UTF-8" standalone="no"?>
<!-- Created with Inkscape (http://www.inkscape.org/) -->

<svg
   xmlns:dc="http://purl.org/dc/elements/1.1/"
   xmlns:cc="http://creativecommons.org/ns#"
   xmlns:rdf="http://www.w3.org/1999/02/22-rdf-syntax-ns#"
   xmlns:svg="http://www.w3.org/2000/svg"
   xmlns="http://www.w3.org/2000/svg"
   xmlns:sodipodi="http://sodipodi.sourceforge.net/DTD/sodipodi-0.dtd"
   xmlns:inkscape="http://www.inkscape.org/namespaces/inkscape"
   id="svg7384"
   height="16"
   width="16"
   version="1.1"
   inkscape:version="0.48.3.1 r9886"
   sodipodi:docname="format-text-strikethrough-symbolic.svg">
  <defs
     id="defs12869" />
  <sodipodi:namedview
     pagecolor="#ffffff"
     bordercolor="#666666"
     borderopacity="1"
     objecttolerance="10"
     gridtolerance="10"
     guidetolerance="10"
     inkscape:pageopacity="0"
     inkscape:pageshadow="2"
     inkscape:window-width="1366"
     inkscape:window-height="711"
     id="namedview12867"
     showgrid="false"
     inkscape:zoom="14.75"
     inkscape:cx="6.9541439"
     inkscape:cy="3.7890597"
     inkscape:window-x="0"
     inkscape:window-y="0"
     inkscape:window-maximized="1"
     inkscape:current-layer="svg7384"
     showguides="true"
     inkscape:guide-bbox="true" />
  <metadata
     id="metadata90">
    <rdf:RDF>
      <cc:Work
         rdf:about="">
        <dc:format>image/svg+xml</dc:format>
        <dc:type
           rdf:resource="http://purl.org/dc/dcmitype/StillImage" />
        <dc:title>Gnome Symbolic Icon Theme</dc:title>
      </cc:Work>
    </rdf:RDF>
  </metadata>
  <title
     id="title9167">Gnome Symbolic Icon Theme</title>
  <path
     style="font-size:17.02767181px;font-style:normal;font-variant:normal;font-weight:normal;font-stretch:normal;line-height:125%;letter-spacing:0px;word-spacing:0px;fill:#bebebe;fill-opacity:1;stroke:none;font-family:Droid Sans;-inkscape-font-specification:Droid Sans"
     d="M 8.21875 1.75 C 7.6810883 1.7500123 7.1677181 1.8301907 6.71875 1.96875 C 6.2753183 2.1073335 5.8839837 2.2964544 5.5625 2.5625 C 5.2410123 2.8230257 4.9898701 3.1488035 4.8125 3.53125 C 4.6351273 3.9137177 4.562499 4.3559879 4.5625 4.84375 C 4.562499 5.3093592 4.6078916 5.7279294 4.71875 6.09375 C 4.8002292 6.3498355 4.9217933 6.5668229 5.0625 6.78125 L 7.3125 6.78125 C 7.0243254 6.6245171 6.7743163 6.4515082 6.59375 6.28125 C 6.3997469 6.0928006 6.27064 5.9147655 6.1875 5.6875 C 6.1043546 5.4547084 6.0624975 5.159702 6.0625 4.84375 C 6.0624975 4.311645 6.2536256 3.9041604 6.625 3.59375 C 6.9963683 3.2778177 7.5112669 3.125011 8.1875 3.125 C 8.6752667 3.125011 9.1392297 3.159318 9.59375 3.28125 C 10.053802 3.3976608 10.483457 3.5580175 10.84375 3.71875 L 11.375 2.40625 C 10.964821 2.2122617 10.495315 2.059455 9.96875 1.9375 C 9.4421722 1.8100263 8.8783452 1.7500123 8.21875 1.75 z M 8.90625 9.15625 C 9.1572633 9.2944904 9.3710585 9.4424663 9.53125 9.59375 C 9.7363297 9.7766688 9.8598936 9.9657892 9.9375 10.1875 C 10.020634 10.409218 10.062494 10.669439 10.0625 10.96875 C 10.062494 11.589553 9.8642941 12.073681 9.4375 12.40625 C 9.0162371 12.738823 8.3556031 12.906251 7.46875 12.90625 C 7.1916033 12.90625 6.9076826 12.88255 6.625 12.84375 C 6.3423113 12.799408 6.0785549 12.75402 5.8125 12.6875 C 5.5464407 12.620987 5.2751342 12.5519 5.03125 12.46875 C 4.7929057 12.380066 4.5947063 12.27619 4.40625 12.1875 L 4.40625 13.65625 C 4.7665348 13.844707 5.2178836 13.99952 5.75 14.09375 C 6.2876549 14.193517 6.853489 14.25 7.46875 14.25 C 8.1061746 14.25 8.6775516 14.180907 9.1875 14.03125 C 9.6974372 13.87605 10.14525 13.637522 10.5 13.34375 C 10.854736 13.049979 11.124035 12.702509 11.3125 12.28125 C 11.50649 11.854452 11.593742 11.35016 11.59375 10.8125 C 11.593742 10.335817 11.53927 9.9429545 11.40625 9.59375 C 11.350408 9.4408024 11.271714 9.295911 11.1875 9.15625 L 8.90625 9.15625 z "
     id="path13074" />
  <rect
     style="fill:#bebebe;fill-opacity:1;stroke:none"
     id="rect13050"
     width="11.623782"
     height="1.1984861"
     x="2.1881089"
     y="7.4007568" />
  <path
     style="font-size:17.02767181px;font-style:normal;font-variant:normal;font-weight:normal;font-stretch:normal;line-height:125%;letter-spacing:0px;word-spacing:0px;fill:#bebebe;fill-opacity:1;stroke:none;font-family:Droid Sans;-inkscape-font-specification:Droid Sans"
     d="M 8.21875 1.75 C 7.6810883 1.7500123 7.1677181 1.8301907 6.71875 1.96875 C 6.2753183 2.1073335 5.8839837 2.2964544 5.5625 2.5625 C 5.2410123 2.8230257 4.9898701 3.1488035 4.8125 3.53125 C 4.6351273 3.9137177 4.562499 4.3559879 4.5625 4.84375 C 4.562499 5.3093592 4.6078916 5.7279294 4.71875 6.09375 C 4.7368875 6.1507553 4.7593709 6.1964664 4.78125 6.25 L 6.5625 6.25 C 6.3869708 6.0735541 6.2657663 5.901443 6.1875 5.6875 C 6.1043546 5.4547084 6.0624975 5.159702 6.0625 4.84375 C 6.0624975 4.311645 6.2536256 3.9041604 6.625 3.59375 C 6.9963683 3.2778177 7.5112669 3.125011 8.1875 3.125 C 8.6752667 3.125011 9.1392297 3.159318 9.59375 3.28125 C 10.053802 3.3976608 10.483457 3.5580175 10.84375 3.71875 L 11.375 2.40625 C 10.964821 2.2122617 10.495315 2.059455 9.96875 1.9375 C 9.4421722 1.8100263 8.8783452 1.7500123 8.21875 1.75 z M 9.78125 9.875 C 9.8474767 9.9728588 9.8986968 10.076645 9.9375 10.1875 C 10.020634 10.409218 10.062494 10.669439 10.0625 10.96875 C 10.062494 11.589553 9.8642941 12.073681 9.4375 12.40625 C 9.0162371 12.738823 8.3556031 12.906251 7.46875 12.90625 C 7.1916033 12.90625 6.9076826 12.88255 6.625 12.84375 C 6.3423113 12.799408 6.0785549 12.75402 5.8125 12.6875 C 5.5464407 12.620987 5.2751342 12.5519 5.03125 12.46875 C 4.7929057 12.380066 4.5947063 12.27619 4.40625 12.1875 L 4.40625 13.65625 C 4.7665348 13.844707 5.2178836 13.99952 5.75 14.09375 C 6.2876549 14.193517 6.853489 14.25 7.46875 14.25 C 8.1061746 14.25 8.6775516 14.180907 9.1875 14.03125 C 9.6974372 13.87605 10.14525 13.637522 10.5 13.34375 C 10.854736 13.049979 11.124035 12.702509 11.3125 12.28125 C 11.50649 11.854452 11.593742 11.35016 11.59375 10.8125 C 11.593744 10.456695 11.57071 10.154107 11.5 9.875 L 9.78125 9.875 z "
     id="path3754" />
</svg>
