<?xml version="1.0" encoding="UTF-8" standalone="no"?>
<!-- Created with Inkscape (http://www.inkscape.org/) -->

<svg
   xmlns:dc="http://purl.org/dc/elements/1.1/"
   xmlns:cc="http://creativecommons.org/ns#"
   xmlns:rdf="http://www.w3.org/1999/02/22-rdf-syntax-ns#"
   xmlns:svg="http://www.w3.org/2000/svg"
   xmlns="http://www.w3.org/2000/svg"
   xmlns:sodipodi="http://sodipodi.sourceforge.net/DTD/sodipodi-0.dtd"
   xmlns:inkscape="http://www.inkscape.org/namespaces/inkscape"
   width="16px"
   height="16px"
   id="svg13294"
   version="1.1"
   inkscape:version="0.48.3.1 r9886"
   sodipodi:docname="go-previous-rtl-symbolic.svg">
  <defs
     id="defs13296" />
  <sodipodi:namedview
     id="base"
     pagecolor="#ffffff"
     bordercolor="#666666"
     borderopacity="1.0"
     inkscape:pageopacity="0.0"
     inkscape:pageshadow="2"
     inkscape:zoom="11.098901"
     inkscape:cx="-2.9463859"
     inkscape:cy="4.5768654"
     inkscape:current-layer="layer1"
     showgrid="true"
     inkscape:grid-bbox="true"
     inkscape:document-units="px"
     inkscape:window-width="1366"
     inkscape:window-height="696"
     inkscape:window-x="0"
     inkscape:window-y="0"
     inkscape:window-maximized="1" />
  <metadata
     id="metadata13299">
    <rdf:RDF>
      <cc:Work
         rdf:about="">
        <dc:format>image/svg+xml</dc:format>
        <dc:type
           rdf:resource="http://purl.org/dc/dcmitype/StillImage" />
        <dc:title></dc:title>
      </cc:Work>
    </rdf:RDF>
  </metadata>
  <g
     id="layer1"
     inkscape:label="Layer 1"
     inkscape:groupmode="layer">
    <path
       inkscape:connector-curvature="0"
       style="color:#000000;fill:#bebebe;fill-opacity:1;fill-rule:nonzero;stroke:none;stroke-width:1;marker:none;visibility:visible;display:inline;overflow:visible;enable-background:accumulate"
       d="m 14.754379,8.1909205 c 0.0084,0.2070949 -0.08599,0.4024662 -0.238332,0.5548046 L 8.6437137,14.746992 c -0.1237856,0.123775 -0.2677266,0.202456 -0.4219641,0.238332 -0.079239,0.01843 -0.1553188,0.03244 -0.2344245,0.02735 -0.025523,0.0015 -0.052442,10e-4 -0.078142,0 -0.046322,-0.008 -0.088822,-0.01094 -0.1328406,-0.02735 C 7.6172789,14.951074 7.4544383,14.874397 7.3270289,14.746992 L 1.4586022,8.7457251 C 1.1539252,8.441047 1.1793242,7.9427431 1.5093922,7.6126734 l 1.183844,-1.1838437 c 0.33007,-0.3300685 0.855724,-0.3593797 1.160401,-0.054699 l 2.4497366,2.449736 0,-6.9975696 c 0,-0.02918 0.00104,-0.05756 0.00391,-0.08596 0.042995,-0.425909 0.3985055,-0.75406499 0.836114,-0.75406499 l 1.6839493,0 c 0.4667898,0 0.8439282,0.37323199 0.8439282,0.84002099 l 0,7.0249191 2.4770857,-2.4770855 C 12.45305,6.06945 12.947439,6.0987612 13.277504,6.4288297 l 1.211194,1.1838437 c 0.165032,0.1650348 0.257393,0.3711508 0.265681,0.5782471 z"
       id="path29297" />
  </g>
</svg>
