<?xml version="1.0" encoding="UTF-8" standalone="no"?>
<!-- Created with Inkscape (http://www.inkscape.org/) -->

<svg
   xmlns:dc="http://purl.org/dc/elements/1.1/"
   xmlns:cc="http://creativecommons.org/ns#"
   xmlns:rdf="http://www.w3.org/1999/02/22-rdf-syntax-ns#"
   xmlns:svg="http://www.w3.org/2000/svg"
   xmlns="http://www.w3.org/2000/svg"
   version="1.1"
   width="16"
   height="16"
   id="svg7384">
  <title
     id="title9167">Gnome Symbolic Icon Theme</title>
  <defs
     id="defs12" />
  <metadata
     id="metadata90">
    <rdf:RDF>
      <cc:Work
         rdf:about="">
        <dc:format>image/svg+xml</dc:format>
        <dc:type
           rdf:resource="http://purl.org/dc/dcmitype/StillImage" />
        <dc:title>Gnome Symbolic Icon Theme</dc:title>
      </cc:Work>
    </rdf:RDF>
  </metadata>
  <path
     d="m 14.589935,15.531372 a 0.1500283,0.1500283 0 0 0 0.05304,-0.02652 0.1500283,0.1500283 0 0 0 0.02652,-0.02652 0.1500283,0.1500283 0 0 0 0.02652,-0.02652 0.1500283,0.1500283 0 0 0 0,-0.02652 0.1500283,0.1500283 0 0 0 0.02652,-0.02652 0.1500283,0.1500283 0 0 0 0,-0.02652 l 0,-14.74448415 a 0.1500283,0.1500283 0 0 0 0,-0.02652 0.1500283,0.1500283 0 0 0 -0.02652,-0.02652 0.1500283,0.1500283 0 0 0 0,-0.02652 0.1500283,0.1500283 0 0 0 -0.02652,-0.02652 0.1500283,0.1500283 0 0 0 -0.02652,-0.02652 0.1500283,0.1500283 0 0 0 -0.02652,0 0.1500283,0.1500283 0 0 0 -0.05304,-0.02652 0.1500283,0.1500283 0 0 0 -0.02652,0 0.1500283,0.1500283 0 0 0 -0.02652,0.02652 0.1500283,0.1500283 0 0 0 -0.02652,0 0.1500283,0.1500283 0 0 0 -0.02652,0.02652 l -4.8264316,4.42864995 0,-4.32257495 a 0.1500283,0.1500283 0 0 0 0,-0.02652 0.1500283,0.1500283 0 0 0 -0.026519,-0.02652 0.1500283,0.1500283 0 0 0 0,-0.02652 0.1500283,0.1500283 0 0 0 -0.026519,-0.02652 0.1500283,0.1500283 0 0 0 -0.026519,-0.02652 0.1500283,0.1500283 0 0 0 -0.026519,0 0.1500283,0.1500283 0 0 0 -0.053038,-0.02652 0.1500283,0.1500283 0 0 0 -0.026519,0 0.1500283,0.1500283 0 0 0 -0.026519,0.02652 0.1500283,0.1500283 0 0 0 -0.026519,0 0.1500283,0.1500283 0 0 0 -0.026519,0.02652 L 1.3305049,7.893932 a 0.1500283,0.1500283 0 0 0 -0.02652,0.026519 0.1500283,0.1500283 0 0 0 0,0.026519 0.1500283,0.1500283 0 0 0 -0.02652,0.026519 0.1500283,0.1500283 0 0 0 0,0.026519 0.1500283,0.1500283 0 0 0 0.02652,0.053038 0.1500283,0.1500283 0 0 0 0,0.026519 0.1500283,0.1500283 0 0 0 0.02652,0.026519 l 8.0352157,7.37225 a 0.1500283,0.1500283 0 0 0 0.026519,0.02652 0.1500283,0.1500283 0 0 0 0.026519,0 0.1500283,0.1500283 0 0 0 0.053038,0.02652 0.1500283,0.1500283 0 0 0 0.079557,-0.02652 0.1500283,0.1500283 0 0 0 0.026519,-0.02652 0.1500283,0.1500283 0 0 0 0.026519,-0.02652 0.1500283,0.1500283 0 0 0 0,-0.02652 0.1500283,0.1500283 0 0 0 0.026519,-0.02652 0.1500283,0.1500283 0 0 0 0,-0.02652 l 0,-4.322573 4.8264314,4.428649 a 0.1500283,0.1500283 0 0 0 0.02652,0.02652 0.1500283,0.1500283 0 0 0 0.02652,0 0.1500283,0.1500283 0 0 0 0.05304,0.02652 0.1500283,0.1500283 0 0 0 0.02652,0 z"
     id="path4212"
     style="fill:#959595;fill-opacity:1;stroke:none" />
</svg>
