<?xml version="1.0" encoding="UTF-8" standalone="no"?>
<!-- Created with Inkscape (http://www.inkscape.org/) -->

<svg
   xmlns:dc="http://purl.org/dc/elements/1.1/"
   xmlns:cc="http://creativecommons.org/ns#"
   xmlns:rdf="http://www.w3.org/1999/02/22-rdf-syntax-ns#"
   xmlns:svg="http://www.w3.org/2000/svg"
   xmlns="http://www.w3.org/2000/svg"
   version="1.1"
   width="16"
   height="16"
   id="svg7384">
  <title
     id="title9167">Gnome Symbolic Icon Theme</title>
  <defs
     id="defs12" />
  <metadata
     id="metadata90">
    <rdf:RDF>
      <cc:Work
         rdf:about="">
        <dc:format>image/svg+xml</dc:format>
        <dc:type
           rdf:resource="http://purl.org/dc/dcmitype/StillImage" />
        <dc:title>Gnome Symbolic Icon Theme</dc:title>
      </cc:Work>
    </rdf:RDF>
  </metadata>
  <path
     d="m 1.4100646,0.4686452 a 0.1500283,0.1500283 0 0 0 -0.053038,0.0265189 0.1500283,0.1500283 0 0 0 -0.026519,0.0265188 0.1500283,0.1500283 0 0 0 -0.026519,0.0265189 0.1500283,0.1500283 0 0 0 0,0.0265188 0.1500283,0.1500283 0 0 0 -0.026519,0.0265189 0.1500283,0.1500283 0 0 0 0,0.0265188 l 0,14.7444837 a 0.1500283,0.1500283 0 0 0 0,0.02652 0.1500283,0.1500283 0 0 0 0.026519,0.02652 0.1500283,0.1500283 0 0 0 0,0.02652 0.1500283,0.1500283 0 0 0 0.026519,0.02652 0.1500283,0.1500283 0 0 0 0.026519,0.02652 0.1500283,0.1500283 0 0 0 0.026519,0 0.1500283,0.1500283 0 0 0 0.053038,0.02652 0.1500283,0.1500283 0 0 0 0.026519,0 0.1500283,0.1500283 0 0 0 0.026519,-0.02652 0.1500283,0.1500283 0 0 0 0.026519,0 0.1500283,0.1500283 0 0 0 0.026519,-0.02652 l 4.8264316,-4.428649 0,4.322574 a 0.1500283,0.1500283 0 0 0 0,0.02652 0.1500283,0.1500283 0 0 0 0.026519,0.02652 0.1500283,0.1500283 0 0 0 0,0.02652 0.1500283,0.1500283 0 0 0 0.026519,0.02652 0.1500283,0.1500283 0 0 0 0.026519,0.02652 0.1500283,0.1500283 0 0 0 0.026519,0 0.1500283,0.1500283 0 0 0 0.053038,0.02652 0.1500283,0.1500283 0 0 0 0.026519,0 0.1500283,0.1500283 0 0 0 0.026519,-0.02652 0.1500283,0.1500283 0 0 0 0.026519,0 0.1500283,0.1500283 0 0 0 0.026519,-0.02652 L 14.669494,8.1060854 a 0.1500283,0.1500283 0 0 0 0.02652,-0.026519 0.1500283,0.1500283 0 0 0 0,-0.026519 0.1500283,0.1500283 0 0 0 0.02652,-0.026519 0.1500283,0.1500283 0 0 0 0,-0.026519 0.1500283,0.1500283 0 0 0 -0.02652,-0.053038 0.1500283,0.1500283 0 0 0 0,-0.026519 0.1500283,0.1500283 0 0 0 -0.02652,-0.026519 L 6.634279,0.52168291 a 0.1500283,0.1500283 0 0 0 -0.026519,-0.0265188 0.1500283,0.1500283 0 0 0 -0.026519,0 0.1500283,0.1500283 0 0 0 -0.053038,-0.0265189 0.1500283,0.1500283 0 0 0 -0.079557,0.0265189 0.1500283,0.1500283 0 0 0 -0.026519,0.0265188 0.1500283,0.1500283 0 0 0 -0.026519,0.0265189 0.1500283,0.1500283 0 0 0 0,0.0265188 0.1500283,0.1500283 0 0 0 -0.026519,0.0265189 0.1500283,0.1500283 0 0 0 0,0.0265188 l 0,4.32257339 -4.8264316,-4.42864881 a 0.1500283,0.1500283 0 0 0 -0.026519,-0.0265188 0.1500283,0.1500283 0 0 0 -0.026519,0 0.1500283,0.1500283 0 0 0 -0.053038,-0.0265189 0.1500283,0.1500283 0 0 0 -0.026519,0 z"
     id="path4212"
     style="fill:#959595;fill-opacity:1;stroke:none" />
</svg>
