<?xml version="1.0" encoding="UTF-8" standalone="no"?>
<!-- Created with Inkscape (http://www.inkscape.org/) -->

<svg
   xmlns:dc="http://purl.org/dc/elements/1.1/"
   xmlns:cc="http://creativecommons.org/ns#"
   xmlns:rdf="http://www.w3.org/1999/02/22-rdf-syntax-ns#"
   xmlns:svg="http://www.w3.org/2000/svg"
   xmlns="http://www.w3.org/2000/svg"
   xmlns:sodipodi="http://sodipodi.sourceforge.net/DTD/sodipodi-0.dtd"
   xmlns:inkscape="http://www.inkscape.org/namespaces/inkscape"
   width="16px"
   height="16px"
   id="svg13294"
   version="1.1"
   inkscape:version="0.48.3.1 r9886"
   sodipodi:docname="go-next-symbolic.svg">
  <defs
     id="defs13296" />
  <sodipodi:namedview
     id="base"
     pagecolor="#ffffff"
     bordercolor="#666666"
     borderopacity="1.0"
     inkscape:pageopacity="0.0"
     inkscape:pageshadow="2"
     inkscape:zoom="11.098901"
     inkscape:cx="-2.9463859"
     inkscape:cy="4.5768654"
     inkscape:current-layer="layer1"
     showgrid="true"
     inkscape:grid-bbox="true"
     inkscape:document-units="px"
     inkscape:window-width="1366"
     inkscape:window-height="696"
     inkscape:window-x="0"
     inkscape:window-y="0"
     inkscape:window-maximized="1" />
  <metadata
     id="metadata13299">
    <rdf:RDF>
      <cc:Work
         rdf:about="">
        <dc:format>image/svg+xml</dc:format>
        <dc:type
           rdf:resource="http://purl.org/dc/dcmitype/StillImage" />
        <dc:title></dc:title>
      </cc:Work>
    </rdf:RDF>
  </metadata>
  <g
     id="layer1"
     inkscape:label="Layer 1"
     inkscape:groupmode="layer">
    <path
       inkscape:connector-curvature="0"
       style="color:#000000;fill:#bebebe;fill-opacity:1;fill-rule:nonzero;stroke:none;stroke-width:1;marker:none;visibility:visible;display:inline;overflow:visible;enable-background:accumulate"
       d="m 8.1909216,1.2456234 c 0.2070949,-0.00836 0.4024662,0.085987 0.5548046,0.2383315 l 6.0012668,5.8723336 c 0.123775,0.1237856 0.202456,0.2677266 0.238332,0.4219641 0.01843,0.079239 0.03244,0.1553188 0.02735,0.2344245 0.0015,0.025523 10e-4,0.052442 0,0.078142 -0.008,0.046322 -0.01094,0.088822 -0.02735,0.1328406 -0.03425,0.1590636 -0.110927,0.3219042 -0.238332,0.4493136 L 8.7457262,14.5414 C 8.4410481,14.846077 7.9427442,14.820678 7.6126745,14.49061 L 6.4288308,13.306766 C 6.0987623,12.976696 6.0694511,12.451042 6.3741318,12.146365 l 2.449736,-2.4497366 -6.9975696,0 c -0.02918,0 -0.05756,-0.00104 -0.08596,-0.00391 C 1.3144292,9.6497234 0.98627324,9.2942129 0.98627324,8.8566044 l 0,-1.6839493 c 0,-0.4667898 0.37323196,-0.8439282 0.84002096,-0.8439282 l 7.0249191,0 L 6.3741278,3.8516414 C 6.0694511,3.5469518 6.0987623,3.0525636 6.4288308,2.7224977 L 7.6126745,1.5113045 C 7.7777093,1.3462721 7.9838253,1.2539114 8.1909216,1.2456234 z"
       id="path29297" />
  </g>
</svg>
