<?xml version="1.0" encoding="UTF-8" standalone="no"?>
<!-- Created with Inkscape (http://www.inkscape.org/) -->

<svg
   xmlns:dc="http://purl.org/dc/elements/1.1/"
   xmlns:cc="http://creativecommons.org/ns#"
   xmlns:rdf="http://www.w3.org/1999/02/22-rdf-syntax-ns#"
   xmlns:svg="http://www.w3.org/2000/svg"
   xmlns="http://www.w3.org/2000/svg"
   xmlns:xlink="http://www.w3.org/1999/xlink"
   xmlns:sodipodi="http://sodipodi.sourceforge.net/DTD/sodipodi-0.dtd"
   xmlns:inkscape="http://www.inkscape.org/namespaces/inkscape"
   version="1.1"
   width="16"
   height="16"
   id="svg4112"
   inkscape:version="0.48.3.1 r9886"
   sodipodi:docname="mail-send-symbolic.svg">
  <sodipodi:namedview
     pagecolor="#ffffff"
     bordercolor="#666666"
     borderopacity="1"
     objecttolerance="10"
     gridtolerance="10"
     guidetolerance="10"
     inkscape:pageopacity="0"
     inkscape:pageshadow="2"
     inkscape:window-width="1366"
     inkscape:window-height="696"
     id="namedview7"
     showgrid="false"
     inkscape:zoom="11.313709"
     inkscape:cx="18.966087"
     inkscape:cy="-2.6356882"
     inkscape:window-x="0"
     inkscape:window-y="0"
     inkscape:window-maximized="1"
     inkscape:current-layer="svg4112" />
  <defs
     id="defs4114">
    <linearGradient
       id="linearGradient3790">
      <stop
         style="stop-color:#93d0e9;stop-opacity:1;"
         offset="0"
         id="stop3792" />
      <stop
         style="stop-color:#3372b1;stop-opacity:1;"
         offset="1"
         id="stop3794" />
    </linearGradient>
    <linearGradient
       inkscape:collect="always"
       id="linearGradient3800">
      <stop
         style="stop-color:#000000;stop-opacity:0;"
         offset="0"
         id="stop3802" />
      <stop
         id="stop3808"
         offset="0.5"
         style="stop-color:#000000;stop-opacity:1;" />
      <stop
         style="stop-color:#000000;stop-opacity:0;"
         offset="1"
         id="stop3804" />
    </linearGradient>
    <linearGradient
       id="linearGradient3779">
      <stop
         style="stop-color:#828282;stop-opacity:1;"
         offset="0"
         id="stop3781" />
      <stop
         style="stop-color:#505050;stop-opacity:1;"
         offset="1"
         id="stop3783" />
    </linearGradient>
    <linearGradient
       id="linearGradient3771">
      <stop
         style="stop-color:#ffffff;stop-opacity:1;"
         offset="0"
         id="stop3773" />
      <stop
         style="stop-color:#e6e6e6;stop-opacity:1;"
         offset="1"
         id="stop3775" />
    </linearGradient>
    <linearGradient
       id="linearGradient4536">
      <stop
         style="stop-color:#ffffff;stop-opacity:1;"
         offset="0"
         id="stop4538" />
      <stop
         id="stop4546"
         offset="0.08246523"
         style="stop-color:#ffffff;stop-opacity:0.15686275;" />
      <stop
         id="stop4544"
         offset="0.936414"
         style="stop-color:#ffffff;stop-opacity:0.23529412;" />
      <stop
         style="stop-color:#ffffff;stop-opacity:0.39215687;"
         offset="1"
         id="stop4540" />
    </linearGradient>
    <radialGradient
       inkscape:collect="always"
       xlink:href="#linearGradient3688-166-749"
       id="radialGradient3132"
       gradientUnits="userSpaceOnUse"
       gradientTransform="matrix(2.003784,0,0,1.4,27.98813,-17.4)"
       cx="4.9929786"
       cy="43.5"
       fx="4.9929786"
       fy="43.5"
       r="2.5" />
    <linearGradient
       id="linearGradient3688-166-749">
      <stop
         id="stop2883"
         style="stop-color:#181818;stop-opacity:1"
         offset="0" />
      <stop
         id="stop2885"
         style="stop-color:#181818;stop-opacity:0"
         offset="1" />
    </linearGradient>
    <radialGradient
       inkscape:collect="always"
       xlink:href="#linearGradient3688-464-309"
       id="radialGradient3134"
       gradientUnits="userSpaceOnUse"
       gradientTransform="matrix(2.003784,0,0,1.4,-20.01187,-104.4)"
       cx="4.9929786"
       cy="43.5"
       fx="4.9929786"
       fy="43.5"
       r="2.5" />
    <linearGradient
       id="linearGradient3688-464-309">
      <stop
         id="stop2889"
         style="stop-color:#181818;stop-opacity:1"
         offset="0" />
      <stop
         id="stop2891"
         style="stop-color:#181818;stop-opacity:0"
         offset="1" />
    </linearGradient>
    <linearGradient
       inkscape:collect="always"
       xlink:href="#linearGradient3702-501-757"
       id="linearGradient3136"
       gradientUnits="userSpaceOnUse"
       x1="25.058096"
       y1="47.027729"
       x2="25.058096"
       y2="39.999443" />
    <linearGradient
       id="linearGradient3702-501-757">
      <stop
         id="stop2895"
         style="stop-color:#181818;stop-opacity:0"
         offset="0" />
      <stop
         id="stop2897"
         style="stop-color:#181818;stop-opacity:1"
         offset="0.5" />
      <stop
         id="stop2899"
         style="stop-color:#181818;stop-opacity:0"
         offset="1" />
    </linearGradient>
    <linearGradient
       inkscape:collect="always"
       xlink:href="#linearGradient4536"
       id="linearGradient4542"
       x1="14.801802"
       y1="1010.4072"
       x2="14.801802"
       y2="1024.1722"
       gradientUnits="userSpaceOnUse"
       gradientTransform="translate(-4,27.000017)" />
    <radialGradient
       inkscape:collect="always"
       xlink:href="#linearGradient3771"
       id="radialGradient3777"
       cx="8.0720873"
       cy="1039.4613"
       fx="8.0720873"
       fy="1039.4613"
       r="8"
       gradientUnits="userSpaceOnUse"
       gradientTransform="matrix(1.4806489e-6,1.9101011,-1.3873874,1.0754581e-6,1450.2076,1024.0417)" />
    <linearGradient
       inkscape:collect="always"
       xlink:href="#linearGradient3779"
       id="linearGradient3785"
       x1="3.4594595"
       y1="1036.4342"
       x2="3.4594595"
       y2="1052.2942"
       gradientUnits="userSpaceOnUse" />
    <linearGradient
       inkscape:collect="always"
       xlink:href="#linearGradient3800"
       id="linearGradient3806"
       x1="1.1875"
       y1="7.984375"
       x2="14.8125"
       y2="7.984375"
       gradientUnits="userSpaceOnUse" />
    <radialGradient
       inkscape:collect="always"
       xlink:href="#linearGradient3790"
       id="radialGradient3796"
       cx="11.072059"
       cy="1045.0559"
       fx="11.072059"
       fy="1045.0559"
       r="5"
       gradientUnits="userSpaceOnUse"
       gradientTransform="matrix(1.3020488e-5,1.7443014,-1.3603604,1.0154528e-5,1426.7246,1025.7323)" />
    <linearGradient
       inkscape:collect="always"
       xlink:href="#linearGradient3779"
       id="linearGradient3812"
       x1="6.2342343"
       y1="1036.4342"
       x2="6.2342343"
       y2="1052.3365"
       gradientUnits="userSpaceOnUse" />
    <linearGradient
       inkscape:collect="always"
       xlink:href="#linearGradient3779"
       id="linearGradient3804"
       gradientUnits="userSpaceOnUse"
       x1="6.2342343"
       y1="1036.4342"
       x2="6.2342343"
       y2="1052.3365"
       gradientTransform="translate(0,-1036.3622)" />
  </defs>
  <metadata
     id="metadata4117">
    <rdf:RDF>
      <cc:Work
         rdf:about="">
        <dc:format>image/svg+xml</dc:format>
        <dc:type
           rdf:resource="http://purl.org/dc/dcmitype/StillImage" />
        <dc:title></dc:title>
      </cc:Work>
    </rdf:RDF>
  </metadata>
  <g
     id="g4734">
    <g
       style="display:inline"
       id="layer9"
       transform="translate(-360.5002,-665.5)"
       inkscape:label="status" />
    <g
       id="layer10"
       transform="translate(-360.5002,-665.5)"
       inkscape:label="devices" />
    <g
       id="layer11"
       transform="translate(-360.5002,-665.5)"
       inkscape:label="apps" />
    <g
       id="layer13"
       transform="translate(-360.5002,-665.5)"
       inkscape:label="places" />
    <g
       id="layer14"
       transform="translate(-360.5002,-665.5)"
       inkscape:label="mimetypes" />
    <g
       style="display:inline"
       id="layer15"
       transform="translate(-360.5002,-665.5)"
       inkscape:label="emblems" />
    <g
       style="display:inline"
       id="g71291"
       transform="translate(-360.5002,-665.5)"
       inkscape:label="emotes" />
    <g
       style="display:inline"
       id="g4953"
       transform="translate(-360.5002,-665.5)"
       inkscape:label="categories" />
    <path
       id="rect3783-5"
       d="M 0.5 0.5 L 0.5 2.5 C 1.05228 2.5 1.5 2.94772 1.5 3.5 C 1.5 4.05228 1.05228 4.5 0.5 4.5 L 0.5 5.5 C 1.05229 5.5 1.5 5.94772 1.5 6.5 C 1.5 7.05228 1.05229 7.5 0.5 7.5 L 0.5 8.5 C 1.05228 8.5 1.5 8.94772 1.5 9.5 C 1.5 10.05228 1.05228 10.5 0.5 10.5 L 0.5 11.5 C 1.05228 11.5 1.5 11.94772 1.5 12.5 C 1.5 13.05228 1.05228 13.5 0.5 13.5 L 0.5 15.5 L 2.5 15.5 C 2.5 14.94772 2.94772 14.5 3.5 14.5 C 4.05228 14.5 4.5 14.94772 4.5 15.5 L 5.5 15.5 C 5.5 14.94772 5.94772 14.5 6.5 14.5 C 7.05228 14.5 7.5 14.94772 7.5 15.5 L 8.5 15.5 C 8.5 14.94772 8.94772 14.5 9.5 14.5 C 10.05229 14.5 10.5 14.94772 10.5 15.5 L 11.5 15.5 C 11.5 14.94772 11.94771 14.5 12.5 14.5 C 13.05229 14.5 13.5 14.94772 13.5 15.5 L 15.5 15.5 L 15.5 13.5 C 14.94771 13.5 14.5 13.05228 14.5 12.5 C 14.5 11.94772 14.94771 11.5 15.5 11.5 L 15.5 10.5 C 14.94771 10.5 14.5 10.05228 14.5 9.5 C 14.5 8.94772 14.94771 8.5 15.5 8.5 L 15.5 7.5 C 14.94771 7.5 14.5 7.05228 14.5 6.5 C 14.5 5.94772 14.94771 5.5 15.5 5.5 L 15.5 4.5 C 14.94771 4.5 14.5 4.05228 14.5 3.5 C 14.5 2.94772 14.94771 2.5 15.5 2.5 L 15.5 0.5 L 13.5 0.5 C 13.5 1.05228 13.05229 1.5 12.5 1.5 C 11.94771 1.5 11.5 1.05228 11.5 0.5 L 10.5 0.5 C 10.5 1.05228 10.05229 1.5 9.5 1.5 C 8.94772 1.5 8.5 1.05228 8.5 0.5 L 7.5 0.5 C 7.5 1.05228 7.05228 1.5 6.5 1.5 C 5.94772 1.5 5.5 1.05228 5.5 0.5 L 4.5 0.5 C 4.5 1.05228 4.05228 1.5 3.5 1.5 C 2.94772 1.5 2.5 1.05228 2.5 0.5 L 0.5 0.5 z M 2.5 2.5 L 13.5 2.5 L 13.5 13.5 L 11.875 13.5 L 11.5 13.5 L 4.5 13.5 L 2.5 13.5 L 2.5 2.5 z "
       style="fill:#bebebe;fill-opacity:1;fill-rule:nonzero;stroke:none" />
    <path
       sodipodi:nodetypes="cccccccccccccccccccccccc"
       inkscape:connector-curvature="0"
       id="path21847"
       d="M 3.6636889,12.499056 4.3877194,10.862139 C 4.9925736,10.221736 5.9028416,9.959018 6.7172086,9.6659006 L 6.9690446,9.3196421 6.9375615,8.2178729 6.4338886,7.2419057 6.213532,7.1160575 5.961695,6.2346042 6.0876135,6.0457621 5.9931744,4.6291613 6.166312,4.4874826 C 6.7391256,3.1515277 8.4938355,3.3710504 9.5661068,3.9838552 10.087175,4.613798 10.109099,5.2434141 10.05404,6.0142883 l 0.136257,0.069485 0.07521,0.1505511 -0.3086026,0.8191121 -0.2806169,0.078361 C 9.5271713,7.5474007 9.2212972,7.7863023 9.1253935,8.2178757 l 0.094438,0.9915645 0.094439,0.2833108 0.094439,0.062994 c 1.1718512,0.4783641 1.9828162,0.7549511 2.6915032,1.7470751 0.126421,0.435637 0.139816,0.753316 0.236098,1.196237 z"
       style="fill:#bebebe;fill-opacity:1;stroke:none" />
  </g>
</svg>
