<?xml version="1.0" encoding="UTF-8" standalone="no"?>
<!-- Created with Inkscape (http://www.inkscape.org/) -->

<svg
   xmlns:dc="http://purl.org/dc/elements/1.1/"
   xmlns:cc="http://creativecommons.org/ns#"
   xmlns:rdf="http://www.w3.org/1999/02/22-rdf-syntax-ns#"
   xmlns:svg="http://www.w3.org/2000/svg"
   xmlns="http://www.w3.org/2000/svg"
   xmlns:sodipodi="http://sodipodi.sourceforge.net/DTD/sodipodi-0.dtd"
   xmlns:inkscape="http://www.inkscape.org/namespaces/inkscape"
   id="svg7384"
   height="16"
   width="16"
   version="1.1"
   inkscape:version="0.48.3.1 r9886"
   sodipodi:docname="media-skip-forward-symbolic.svg">
  <defs
     id="defs7527" />
  <sodipodi:namedview
     pagecolor="#ffffff"
     bordercolor="#666666"
     borderopacity="1"
     objecttolerance="10"
     gridtolerance="10"
     guidetolerance="10"
     inkscape:pageopacity="0"
     inkscape:pageshadow="2"
     inkscape:window-width="1366"
     inkscape:window-height="696"
     id="namedview7525"
     showgrid="false"
     inkscape:zoom="5.2149125"
     inkscape:cx="-7.3133305"
     inkscape:cy="-6.651277"
     inkscape:window-x="0"
     inkscape:window-y="0"
     inkscape:window-maximized="1"
     inkscape:current-layer="svg7384" />
  <metadata
     id="metadata90">
    <rdf:RDF>
      <cc:Work
         rdf:about="">
        <dc:format>image/svg+xml</dc:format>
        <dc:type
           rdf:resource="http://purl.org/dc/dcmitype/StillImage" />
        <dc:title>Gnome Symbolic Icon Theme</dc:title>
      </cc:Work>
    </rdf:RDF>
  </metadata>
  <title
     id="title9167">Gnome Symbolic Icon Theme</title>
  <path
     style="fill:#bebebe;fill-opacity:1;stroke:none"
     d="m 8,0.09375 c 4.362113,0 7.90625,3.5441366 7.90625,7.90625 0,4.362113 -3.544137,7.90625 -7.90625,7.90625 C 3.637887,15.90625 0.09375,12.362113 0.09375,8 0.09375,3.6378866 3.637887,0.09375 8,0.09375 z M 8,1.0625 C 4.162089,1.0625 1.0625,4.1620891 1.0625,8 c 0,3.837911 3.099589,6.9375 6.9375,6.9375 3.837911,0 6.9375,-3.099589 6.9375,-6.9375 C 14.9375,4.1620891 11.837911,1.0625 8,1.0625 z"
     id="path7529"
     inkscape:connector-curvature="0" />
  <path
     style="fill:#bebebe;fill-opacity:1;stroke:none"
     d="m 3.9502327,3.0223928 -0.040142,9.9552142 5.900873,-4.857181 0,4.375477 c 0,0.261621 0.2200833,0.441562 0.4817043,0.441562 l 1.565537,0 c 0.261621,0 0.481704,-0.179941 0.481704,-0.441562 l 0,-8.9918063 c 0,-0.2616209 -0.220083,-0.4415619 -0.481704,-0.4415619 l -1.565537,0 c -0.261621,0 -0.4817043,0.179941 -0.4817043,0.4415619 l 0,4.4156193 -5.860731,-4.8973232 z"
     id="path7534"
     inkscape:connector-curvature="0" />
</svg>
