<?xml version="1.0" encoding="UTF-8" standalone="no"?>
<!-- Created with Inkscape (http://www.inkscape.org/) -->

<svg
   xmlns:dc="http://purl.org/dc/elements/1.1/"
   xmlns:cc="http://creativecommons.org/ns#"
   xmlns:rdf="http://www.w3.org/1999/02/22-rdf-syntax-ns#"
   xmlns:svg="http://www.w3.org/2000/svg"
   xmlns="http://www.w3.org/2000/svg"
   xmlns:xlink="http://www.w3.org/1999/xlink"
   xmlns:sodipodi="http://sodipodi.sourceforge.net/DTD/sodipodi-0.dtd"
   xmlns:inkscape="http://www.inkscape.org/namespaces/inkscape"
   version="1.1"
   width="16"
   height="16"
   id="svg7384"
   inkscape:version="0.48.3.1 r9886"
   sodipodi:docname="media-record-symbolic.svg">
  <sodipodi:namedview
     pagecolor="#ffffff"
     bordercolor="#666666"
     borderopacity="1"
     objecttolerance="10"
     gridtolerance="10"
     guidetolerance="10"
     inkscape:pageopacity="0"
     inkscape:pageshadow="2"
     inkscape:window-width="1366"
     inkscape:window-height="696"
     id="namedview8"
     showgrid="false"
     inkscape:zoom="14.75"
     inkscape:cx="-2.4067797"
     inkscape:cy="8"
     inkscape:window-x="0"
     inkscape:window-y="0"
     inkscape:window-maximized="1"
     inkscape:current-layer="svg7384" />
  <title
     id="title9167">Gnome Symbolic Icon Theme</title>
  <defs
     id="defs7527">
    <clipPath
       id="clipPath2861"
       clipPathUnits="userSpaceOnUse">
      <path
         id="path2863"
         d="m -20,0 0,16 16,0 0,-16 -16,0 z m 8,2 c 3.312,0 6,2.6880001 6,6 0,3.312 -2.688,6 -6,6 -3.312,0 -6,-2.688 -6,-6 0,-3.3119999 2.688,-6 6,-6 z"
         style="fill:#ff00ff;fill-opacity:1;stroke:none;display:inline" />
    </clipPath>
    <linearGradient
       y2="14.000651"
       x2="6.5625"
       y1="2"
       x1="6.5625"
       gradientTransform="translate(-20,0)"
       gradientUnits="userSpaceOnUse"
       id="linearGradient2856"
       xlink:href="#SpecificGradient"
       inkscape:collect="always" />
    <clipPath
       id="clipPath3635"
       clipPathUnits="userSpaceOnUse">
      <path
         id="path3637"
         d="m -20,0 0,16 16,0 0,-16 -16,0 z m 8,2 c 3.312,0 6,2.6880001 6,6 0,3.312 -2.688,6 -6,6 -3.312,0 -6,-2.688 -6,-6 0,-3.3119999 2.688,-6 6,-6 z m 0,2.15625 c -0.57648,0 -1.133672,0.1167299 -1.625,0.34375 L -8.5,9.625 C -8.273784,9.1343862 -8.15625,8.5753957 -8.15625,8 -8.15625,5.8708574 -9.870857,4.1562499 -12,4.15625 z m -3.46875,2.125 c -0.255374,0.5152866 -0.375,1.1050247 -0.375,1.71875 0,2.129143 1.714607,3.84375 3.84375,3.84375 0.61479,0 1.202796,-0.118796 1.71875,-0.375 l -5.1875,-5.1875 z"
         style="fill:#ff00ff;fill-opacity:1;stroke:none;display:inline" />
    </clipPath>
    <linearGradient
       gradientTransform="translate(-20,0)"
       y2="14.000651"
       x2="6.5625"
       y1="2"
       x1="6.5625"
       gradientUnits="userSpaceOnUse"
       id="linearGradient3628"
       xlink:href="#SpecificGradient"
       inkscape:collect="always" />
    <inkscape:perspective
       sodipodi:type="inkscape:persp3d"
       inkscape:vp_x="0 : 0.5 : 1"
       inkscape:vp_y="0 : 1000 : 0"
       inkscape:vp_z="1 : 0.5 : 1"
       inkscape:persp3d-origin="0.5 : 0.33333333 : 1"
       id="perspective3648" />
    <linearGradient
       gradientUnits="userSpaceOnUse"
       y2="14.000651"
       x2="6.5625"
       y1="2"
       x1="6.5625"
       id="SpecificGradient">
      <stop
         id="stop3292"
         offset="0"
         style="stop-color:#ad0707;stop-opacity:1;" />
      <stop
         id="stop3294"
         offset="1"
         style="stop-color:#f75535;stop-opacity:1;" />
    </linearGradient>
    <inkscape:perspective
       id="perspective19"
       inkscape:persp3d-origin="8 : 5.3333333 : 1"
       inkscape:vp_z="16 : 8 : 1"
       inkscape:vp_y="0 : 1000 : 0"
       inkscape:vp_x="0 : 8 : 1"
       sodipodi:type="inkscape:persp3d" />
  </defs>
  <metadata
     id="metadata90">
    <rdf:RDF>
      <cc:Work
         rdf:about="">
        <dc:format>image/svg+xml</dc:format>
        <dc:type
           rdf:resource="http://purl.org/dc/dcmitype/StillImage" />
        <dc:title>Gnome Symbolic Icon Theme</dc:title>
      </cc:Work>
    </rdf:RDF>
  </metadata>
  <g
     id="g3027">
    <path
       style="fill:#bebebe;fill-opacity:1;stroke:none"
       id="path7529"
       d="m 8,0.09375 c 4.362113,0 7.90625,3.5441366 7.90625,7.90625 0,4.362113 -3.544137,7.90625 -7.90625,7.90625 C 3.637887,15.90625 0.09375,12.362113 0.09375,8 0.09375,3.6378866 3.637887,0.09375 8,0.09375 z M 8,1.0625 C 4.162089,1.0625 1.0625,4.1620891 1.0625,8 c 0,3.837911 3.099589,6.9375 6.9375,6.9375 3.837911,0 6.9375,-3.099589 6.9375,-6.9375 C 14.9375,4.1620891 11.837911,1.0625 8,1.0625 z" />
    <g
       style="fill:#d40000;fill-opacity:1"
       id="layer12"
       transform="translate(-200,-496.0025)">
      <path
         inkscape:connector-curvature="0"
         id="path4646-0"
         style="text-indent:0pt;text-transform:none;color:#bebebe;fill:#d40000;fill-opacity:1"
         d="m 208,499.02 c -2.7496,0 -4.9825,2.2329 -4.9825,4.9825 0,2.7496 2.2329,4.9825 4.9825,4.9825 2.7496,0 4.9825,-2.2329 4.9825,-4.9825 0,-2.7496 -2.2329,-4.9825 -4.9825,-4.9825 z" />
    </g>
  </g>
</svg>
