<?xml version="1.0" encoding="UTF-8" standalone="no"?>
<!-- Created with Inkscape (http://www.inkscape.org/) -->
<svg id="svg2" xmlns:rdf="http://www.w3.org/1999/02/22-rdf-syntax-ns#" xmlns="http://www.w3.org/2000/svg" height="22" width="22" version="1.0" xmlns:cc="http://creativecommons.org/ns#" xmlns:xlink="http://www.w3.org/1999/xlink" xmlns:dc="http://purl.org/dc/elements/1.1/">
 <defs id="defs4">
  <linearGradient id="linearGradient3639-5" y2="4.6317" gradientUnits="userSpaceOnUse" x2="0.75" gradientTransform="matrix(.97224 -.23401 .23401 .97224 -1.9889 9.4599)" y1="5.2473" x1="4.8277">
   <stop id="stop3245-6" style="stop-color:#3465a4" offset="0"/>
   <stop id="stop3247-4" style="stop-color:#3465a4;stop-opacity:0" offset="1"/>
  </linearGradient>
  <linearGradient id="linearGradient2877" y2="4.6317" gradientUnits="userSpaceOnUse" y1="5.2473" gradientTransform="matrix(-.76363 .64566 -.64566 -.76363 27.011 6.2524)" x2="0.75" x1="4.8277">
   <stop id="stop3245-5" style="stop-color:#3465a4" offset="0"/>
   <stop id="stop3247-9" style="stop-color:#3465a4;stop-opacity:0" offset="1"/>
  </linearGradient>
  <linearGradient id="linearGradient3772" y2="25.813" gradientUnits="userSpaceOnUse" x2="13.295" y1="25.813" x1="12.366">
   <stop id="stop3768" offset="0"/>
   <stop id="stop3770" style="stop-opacity:0" offset="1"/>
  </linearGradient>
  <linearGradient id="linearGradient2919" y2="-3.8056" gradientUnits="userSpaceOnUse" y1="-3.8056" x2="13.209" x1="12">
   <stop id="stop3760" offset="0"/>
   <stop id="stop3762" style="stop-opacity:0" offset="1"/>
  </linearGradient>
 </defs>
 <metadata id="metadata7">
  <rdf:RDF>
   <cc:Work rdf:about="">
    <dc:format>image/svg+xml</dc:format>
    <dc:type rdf:resource="http://purl.org/dc/dcmitype/StillImage"/>
   </cc:Work>
  </rdf:RDF>
 </metadata>
 <g id="layer1">
  <rect id="rect3162" style="opacity:.5;fill-rule:evenodd;stroke:#4e9a06;fill:#73d216" height="5.125" width="18.812" y="23.5" x="-10.312"/>
  <path id="path4348" style="stroke:#2e3436;fill:#555753" d="m39.461 14.962c-1.591 1.831-3.182 3.663-4.773 5.495-1.584-1.832-3.167-3.664-4.75-5.495h2.276v-3.274h4.932v3.274h2.315z"/>
  <use id="use3209" xlink:href="#path4348" transform="matrix(1 0 0 -1 -.0625 20.457)" height="22" width="22" y="0" x="0"/>
  <use id="use2398" xlink:href="#rect3162" transform="translate(23.75 .0625)" height="22" width="22" y="0" x="0"/>
  <g id="g2878" transform="matrix(.91359 0 0 .83770 .12327 1.1099)">
   <path id="rect2382-0" style="fill-rule:evenodd;fill:url(#linearGradient3639-5)" d="m-10.147 14.763c6.0953-1.48 12.873-2.069 19.679-3.707l0.468 1.944c-6.8056 1.638-13.133 4.1159-19.211 5.6524l-0.93602-3.8889z"/>
   <path id="rect2382-9" style="fill-rule:evenodd;fill:url(#linearGradient2877)" d="m31.918-2.1495c-4.781 4.0592-10.573 7.6299-15.918 12.15l-1.291-1.5273c5.345-4.5196 9.886-9.575 14.627-13.677l2.5826 3.0545z"/>
   <path id="path2909" style="stroke:#000;stroke-width:.5;fill:#f00" d="m15 11c0 1.1046-0.89543 2-2 2s-2-0.89543-2-2 0.89543-2 2-2 2 0.89543 2 2z"/>
   <path id="rect2382-8-3" style="fill-rule:evenodd;fill:url(#linearGradient3772)" d="m12.366 37.625c0-7.625 0.317-15.625 0.317-23.625h0.317c0 8 0.31678 16 0.29416 23.503l-0.92859 0.1221z"/>
   <path id="rect2382-8-3-4" style="fill-rule:evenodd;fill:url(#linearGradient2919)" d="m13.186-15.646c0.105 7.621-0.188 15.651-0.076 23.646l-0.405 0.0346c-0.112-7.9953-0.629-15.956-0.705-23.457l1.1856-0.22335z"/>
  </g>
 </g>
</svg>
