<?xml version="1.0" encoding="UTF-8" standalone="no"?>
<!-- Created with Inkscape (http://www.inkscape.org/) -->
<svg id="svg2" xmlns:rdf="http://www.w3.org/1999/02/22-rdf-syntax-ns#" xmlns="http://www.w3.org/2000/svg" height="24" width="24" version="1.0" xmlns:cc="http://creativecommons.org/ns#" xmlns:xlink="http://www.w3.org/1999/xlink" xmlns:dc="http://purl.org/dc/elements/1.1/">
 <defs id="defs4">
  <radialGradient id="radialGradient3204" gradientUnits="userSpaceOnUse" cy="19.031" cx="11.25" gradientTransform="matrix(1 0 0 .28295 0 13.646)" r="8.0625">
   <stop id="stop5107" offset="0"/>
   <stop id="stop5109" style="stop-opacity:0" offset="1"/>
  </radialGradient>
 </defs>
 <metadata id="metadata7">
  <rdf:RDF>
   <cc:Work rdf:about="">
    <dc:format>image/svg+xml</dc:format>
    <dc:type rdf:resource="http://purl.org/dc/dcmitype/StillImage"/>
   </cc:Work>
  </rdf:RDF>
 </metadata>
 <g id="layer1">
  <rect id="rect2382" style="opacity:.6;fill-rule:evenodd;stroke:#204a87;fill:#3465a4" height="6" width="21.062" y="2.5625" x="1.5312"/>
  <rect id="rect3162" style="opacity:.5;fill-rule:evenodd;stroke:#4e9a06;fill:#73d216" height="6" width="21" y="15.469" x="1.4688"/>
  <path id="path4346" style="opacity:.16292;fill:url(#radialGradient3204)" d="m19.312 19.031a8.0625 2.2812 0 1 1 -16.124 0 8.0625 2.2812 0 1 1 16.124 0z" transform="matrix(0 .71735 -.69720 0 20.201 25.555)"/>
  <path id="path4348" style="stroke:#2e3436;fill:#555753" d="m16.898 17.723c-1.591 1.832-3.182 3.664-4.773 5.496-1.583-1.832-3.1662-3.664-4.7493-5.496h2.2758v-3.274h4.9325v3.274h2.314z"/>
  <use id="use3209" xlink:href="#path4348" transform="matrix(1 0 0 -1 -.03125 23.949)" height="22" width="22" y="0" x="0"/>
 </g>
</svg>
