<?xml version="1.0" encoding="UTF-8" standalone="no"?>
<!-- Created with Inkscape (http://www.inkscape.org/) -->
<svg id="svg2" xmlns:rdf="http://www.w3.org/1999/02/22-rdf-syntax-ns#" xmlns="http://www.w3.org/2000/svg" height="24" width="24" version="1.0" xmlns:cc="http://creativecommons.org/ns#" xmlns:xlink="http://www.w3.org/1999/xlink" xmlns:dc="http://purl.org/dc/elements/1.1/">
 <defs id="defs4">
  <linearGradient id="linearGradient3892-0" y2="7.6722" gradientUnits="userSpaceOnUse" x2="15.838" gradientTransform="matrix(1.3028 0 0 1.3668 -2.1422 -3.5178)" y1="14.285" x1="15.838">
   <stop id="stop3177-3-7" style="stop-color:#73d216" offset="0"/>
   <stop id="stop3179-8-6" style="stop-color:#73d216;stop-opacity:.51128" offset="1"/>
  </linearGradient>
  <linearGradient id="linearGradient3889-4" y2="7.6353" gradientUnits="userSpaceOnUse" x2="6.2321" gradientTransform="matrix(1.3091 0 0 1.3674 -2.6423 -3.4622)" y1="14.248" x1="6.2321">
   <stop id="stop3169-8-5" style="stop-color:#3465a4" offset="0"/>
   <stop id="stop3171-8-3" style="stop-color:#3465a4;stop-opacity:.51128" offset="1"/>
  </linearGradient>
  <linearGradient id="linearGradient3888" y2="9.6199" gradientUnits="userSpaceOnUse" y1="12.226" gradientTransform="matrix(1.4026 0 0 1.1521 -3.2859 -1.0301)" x2="10.905" x1="10.905">
   <stop id="stop4383-8-3" style="stop-color:#646662" offset="0"/>
   <stop id="stop4385-9-2" style="stop-color:#3c3d3b" offset="1"/>
  </linearGradient>
 </defs>
 <metadata id="metadata7">
  <rdf:RDF>
   <cc:Work rdf:about="">
    <dc:format>image/svg+xml</dc:format>
    <dc:type rdf:resource="http://purl.org/dc/dcmitype/StillImage"/>
   </cc:Work>
  </rdf:RDF>
 </metadata>
 <g id="layer1">
  <g id="g3935">
   <g id="g3851" transform="translate(.0023673 .0024287)">
    <rect id="rect2964-6-8" style="stroke-linejoin:round;stroke:#4e9a06;fill:url(#linearGradient3892-0)" transform="matrix(1 .00054591 -.00051656 1 0 0)" rx="0" ry="2.5518" height="7.9992" width="10.002" y="7.4915" x="13.509"/>
    <rect id="rect2964-3" style="stroke-linejoin:round;stroke:#204a87;fill:url(#linearGradient3889-4)" transform="matrix(1 .00054353 -.00051882 1 0 0)" rx="0" ry="2.5529" height="7.9945" width="9.9998" y="7.5017" x=".50815"/>
    <rect id="rect2964-7-7-0" style="stroke-linejoin:round;stroke:#4e9a06;fill:#fff" transform="matrix(1 .00054543 -.00051702 1 0 0)" rx="0" ry="1.2803" height="3.9925" width="6.003" y="9.499" x="15.508"/>
    <rect id="rect2964-7-8" style="stroke-linejoin:round;stroke:#204a87;fill:#fff" transform="matrix(1 .00054891 -.00051374 1 0 0)" rx="0" ry="1.2731" height="3.9868" width="5.9896" y="9.5088" x="2.5164"/>
    <rect id="rect2964-2-6" style="stroke-linejoin:round;stroke:#2e3436;fill:url(#linearGradient3888)" transform="matrix(1 .00042744 -.00065974 1 0 0)" ry=".67706" height="2.0034" width="11.005" y="10.494" x="6.508"/>
   </g>
   <rect id="rect3680" style="stroke:#fff;stroke-width:.79383;fill:#fff" rx="0" transform="matrix(.79842 -.60211 .80038 .59949 0 0)" ry="1.4709" width="2.9391" y="15.614" x="-3.5622" height="2.9419"/>
  </g>
 </g>
</svg>
