<?xml version="1.0" encoding="UTF-8" standalone="no"?>
<!-- Created with Inkscape (http://www.inkscape.org/) -->
<svg id="svg2" xmlns:rdf="http://www.w3.org/1999/02/22-rdf-syntax-ns#" xmlns="http://www.w3.org/2000/svg" height="22" width="22" version="1.0" xmlns:cc="http://creativecommons.org/ns#" xmlns:xlink="http://www.w3.org/1999/xlink" xmlns:dc="http://purl.org/dc/elements/1.1/">
 <defs id="defs4">
  <linearGradient id="linearGradient3892" y2="7.6722" gradientUnits="userSpaceOnUse" x2="15.838" gradientTransform="matrix(1.3127 0 0 1.3775 -2.3235 -3.5179)" y1="14.285" x1="15.838">
   <stop id="stop3177-3" style="stop-color:#73d216" offset="0"/>
   <stop id="stop3179-8" style="stop-color:#73d216;stop-opacity:.51128" offset="1"/>
  </linearGradient>
  <linearGradient id="linearGradient3889" y2="7.6353" gradientUnits="userSpaceOnUse" x2="6.2321" gradientTransform="matrix(1.3335 0 0 1.3762 -2.6358 -3.5033)" y1="14.248" x1="6.2321">
   <stop id="stop3169-8" style="stop-color:#3465a4" offset="0"/>
   <stop id="stop3171-8" style="stop-color:#3465a4;stop-opacity:.51128" offset="1"/>
  </linearGradient>
 </defs>
 <metadata id="metadata7">
  <rdf:RDF>
   <cc:Work rdf:about="">
    <dc:format>image/svg+xml</dc:format>
    <dc:type rdf:resource="http://purl.org/dc/dcmitype/StillImage"/>
   </cc:Work>
  </rdf:RDF>
 </metadata>
 <g id="layer1">
  <g id="g2941" transform="matrix(.91759 0 0 .91759 -.040288 .21373)">
   <rect id="rect2964-6" ry="2.5718" style="stroke-linejoin:round;stroke:#4e9a06;stroke-width:1.0297;fill:url(#linearGradient3892)" rx="0" transform="matrix(1 .00054607 -.00051641 1 0 0)" height="8.735" width="9.8398" y="6.8287" x="13.65"/>
   <rect id="rect2964" ry="2.5694" style="stroke-linejoin:round;stroke:#204a87;stroke-width:1.0373;fill:url(#linearGradient3889)" rx="0" transform="matrix(1 .00053704 -.00052510 1 0 0)" height="8.7274" width="9.8287" y="6.8842" x=".60712"/>
   <rect id="rect2964-7-7" ry="1.3592" style="stroke-linejoin:round;stroke:#4e9a06;stroke-width:1.0297;fill:#fff" rx="0" transform="matrix(1 .00054607 -.00051641 1 0 0)" height="4.3251" width="5.4906" y="9.0677" x="15.827"/>
   <rect id="rect2964-7" ry="1.358" style="stroke-linejoin:round;stroke:#204a87;stroke-width:1.0373;fill:#fff" rx="0" transform="matrix(1 .00053704 -.00052510 1 0 0)" height="4.3211" width="5.4219" y="9.028" x="2.7501"/>
   <rect id="rect2964-2" ry=".80724" style="stroke-linejoin:round;stroke:#2e3436;stroke-width:1.0524;fill:#fff" transform="matrix(1 .00051980 -.00054251 1 0 0)" height="2.1867" width="12.081" y="10.129" x="6.0646"/>
   <rect id="rect3680" style="stroke:#fff;stroke-width:.88213;fill:#fff" rx="0" transform="matrix(.82329 -.56763 .82509 .56501 0 0)" ry="1.6348" width="3.2656" y="15.915" x="-4.5072" height="3.2696"/>
  </g>
 </g>
</svg>
