<?xml version="1.0" encoding="UTF-8" standalone="no"?>
<!-- Created with Inkscape (http://www.inkscape.org/) -->
<svg id="svg1" xmlns:rdf="http://www.w3.org/1999/02/22-rdf-syntax-ns#" xmlns="http://www.w3.org/2000/svg" height="48" width="48" version="1.0" xmlns:cc="http://creativecommons.org/ns#" xmlns:xlink="http://www.w3.org/1999/xlink" xmlns:dc="http://purl.org/dc/elements/1.1/">
 <defs id="defs3">
  <linearGradient id="linearGradient2794" y2="29.208" gradientUnits="userSpaceOnUse" y1="29.208" x2="59.148" x1="-.36309">
   <stop id="stop2790" style="stop-color:#fff" offset="0"/>
   <stop id="stop2792" style="stop-color:#fff;stop-opacity:0" offset="1"/>
  </linearGradient>
  <radialGradient id="radialGradient2784" cx="30.324" gradientUnits="userSpaceOnUse" cy="13.38" r="29.756" gradientTransform="matrix(1.5319 0 0 1.5319 -16.13 -7.1173)">
   <stop id="stop2780" style="stop-color:#029dff" offset="0"/>
   <stop id="stop2782" style="stop-color:#004fb2" offset="1"/>
  </radialGradient>
  <filter id="filter5314" height="2.3517" width="1.4506" y="-.67586" x="-.22529">
   <feGaussianBlur id="feGaussianBlur5316" stdDeviation="2.1824713"/>
  </filter>
  <filter id="filter5407" height="1.192" width="1.4124" y="-.096024" x="-.20622">
   <feGaussianBlur id="feGaussianBlur5409" stdDeviation="0.88018614"/>
  </filter>
 </defs>
 <metadata id="metadata4">
  <rdf:RDF>
   <cc:Work rdf:about="">
    <dc:format>image/svg+xml</dc:format>
    <dc:type rdf:resource="http://purl.org/dc/dcmitype/StillImage"/>
    <dc:title>Emblem Urgent</dc:title>
    <dc:creator>
     <cc:Agent>
      <dc:title>Andreas Nilsson</dc:title>
     </cc:Agent>
    </dc:creator>
    <dc:contributor>
     <cc:Agent>
      <dc:title>Jakub Steiner</dc:title>
     </cc:Agent>
    </dc:contributor>
    <cc:license rdf:resource="http://creativecommons.org/licenses/GPL/2.0/"/>
   </cc:Work>
   <cc:License rdf:about="http://creativecommons.org/licenses/GPL/2.0/">
    <cc:permits rdf:resource="http://web.resource.org/cc/Reproduction"/>
    <cc:permits rdf:resource="http://web.resource.org/cc/Distribution"/>
    <cc:requires rdf:resource="http://web.resource.org/cc/Notice"/>
    <cc:permits rdf:resource="http://web.resource.org/cc/DerivativeWorks"/>
    <cc:requires rdf:resource="http://web.resource.org/cc/ShareAlike"/>
    <cc:requires rdf:resource="http://web.resource.org/cc/SourceCode"/>
   </cc:License>
  </rdf:RDF>
 </metadata>
 <path id="path4681" style="fill-rule:evenodd;stroke:#0048a4;stroke-width:1.4896;fill:url(#radialGradient2784)" d="m58.404 29.208a29.011 29.011 0 1 1 -58.022 0 29.011 29.011 0 1 1 58.022 0z" transform="matrix(.67131 0 0 .67131 4.2015 3.4387)"/>
 <path id="path2786" style="opacity:.37629;stroke:url(#linearGradient2794);stroke-width:1.5742;fill:none" d="m58.404 29.208a29.011 29.011 0 1 1 -58.022 0 29.011 29.011 0 1 1 58.022 0z" transform="matrix(.63523 0 0 .63523 5.2619 4.4924)"/>
 <g id="g5323" style="opacity:.54217;filter:url(#filter5407)" transform="translate(0,1.125)">
  <rect id="rect5325" style="fill-rule:evenodd" rx="1.5597" ry="1.5597" height="16.775" width="3.1195" y="8.7886" x="21.927"/>
  <rect id="rect5327" ry="2.0973" style="fill-rule:evenodd" rx="2.0973" transform="matrix(.71072 -.70347 .70347 .71072 0 0)" height="11.142" width="4.1946" y="31.37" x="-2.0477"/>
  <path id="path5329" style="opacity:1;fill-rule:evenodd;color:#000000" d="m25.625 23.875a3.375 3.375 0 1 1 -6.75 0 3.375 3.375 0 1 1 6.75 0z" transform="matrix(1.037 0 0 1.037 .74731 -1.6735)"/>
 </g>
 <g id="g5318" transform="translate(0 .75)">
  <rect id="rect2180" style="fill:#eeeeec;fill-rule:evenodd" rx="1.5597" ry="1.5597" height="16.775" width="3.1195" y="8.7886" x="21.927"/>
  <rect id="rect2181" style="fill:#eeeeec;fill-rule:evenodd" transform="matrix(.71072 -.70347 .70347 .71072 0 0)" rx="2.0973" ry="2.0973" height="11.142" width="4.1946" y="31.37" x="-2.0477"/>
  <path id="path4652" style="fill-rule:evenodd;color:#000000;fill:#eeeeec" d="m25.625 23.875a3.375 3.375 0 1 1 -6.75 0 3.375 3.375 0 1 1 6.75 0z" transform="matrix(1.037 0 0 1.037 .74731 -1.6735)"/>
 </g>
 <path id="path5244" style="fill-rule:evenodd;color:#000000;filter:url(#filter5314);fill:#2991ef" d="m31.5 34.625a11.625 3.875 0 1 1 -23.25 0 11.625 3.875 0 1 1 23.25 0z" transform="matrix(1.0054 0 0 1.0699 4.1431 -2.2325)"/>
</svg>
