<?xml version="1.0" encoding="UTF-8" standalone="no"?>
<!-- Created with Inkscape (http://www.inkscape.org/) -->

<svg
   xmlns:dc="http://purl.org/dc/elements/1.1/"
   xmlns:cc="http://creativecommons.org/ns#"
   xmlns:rdf="http://www.w3.org/1999/02/22-rdf-syntax-ns#"
   xmlns:svg="http://www.w3.org/2000/svg"
   xmlns="http://www.w3.org/2000/svg"
   xmlns:sodipodi="http://sodipodi.sourceforge.net/DTD/sodipodi-0.dtd"
   xmlns:inkscape="http://www.inkscape.org/namespaces/inkscape"
   id="svg7384"
   height="16"
   width="16"
   version="1.1"
   inkscape:version="0.48.3.1 r9886"
   sodipodi:docname="tab-new-symbolic.svg">
  <defs
     id="defs9">
    <linearGradient
       id="linearGradient4466">
      <stop
         style="stop-color:#bebebe;stop-opacity:1;"
         offset="0"
         id="stop4468" />
      <stop
         id="stop4474"
         offset="0.50676125"
         style="stop-color:#bebebe;stop-opacity:0.34684685" />
      <stop
         style="stop-color:#bebebe;stop-opacity:0"
         offset="1"
         id="stop4470" />
    </linearGradient>
  </defs>
  <sodipodi:namedview
     pagecolor="#ffffff"
     bordercolor="#666666"
     borderopacity="1"
     objecttolerance="10"
     gridtolerance="10"
     guidetolerance="10"
     inkscape:pageopacity="0"
     inkscape:pageshadow="2"
     inkscape:window-width="1366"
     inkscape:window-height="696"
     id="namedview7"
     showgrid="false"
     inkscape:zoom="16"
     inkscape:cx="11.697827"
     inkscape:cy="2.9720189"
     inkscape:window-x="0"
     inkscape:window-y="0"
     inkscape:window-maximized="1"
     inkscape:current-layer="svg7384"
     showguides="true"
     inkscape:guide-bbox="true" />
  <title
     id="title9167">Gnome Symbolic Icon Theme</title>
  <metadata
     id="metadata90">
    <rdf:RDF>
      <cc:Work
         rdf:about="">
        <dc:format>image/svg+xml</dc:format>
        <dc:type
           rdf:resource="http://purl.org/dc/dcmitype/StillImage" />
        <dc:title>Gnome Symbolic Icon Theme</dc:title>
      </cc:Work>
    </rdf:RDF>
  </metadata>
  <path
     style="fill:#bebebe;fill-opacity:1;stroke:none"
     d="M 1.9375 1 C 1.461579 1 1.092991 1.367828 1.09375 1.84375 L 1.09375 5.5 C 0.97630705 5.59823 0.875435 5.70104 0.59375 5.75 L 0.59375 7.3125 L 0.5625 7.3125 L 0.5625 12.875 L 7.65625 12.875 L 7.65625 11.625 L 1.8125 11.625 L 1.8125 7.5625 A 1.250125 1.250125 0 0 0 1.84375 7.3125 L 1.84375 6.5 C 1.8500786 6.4950332 1.9028594 6.4715859 1.90625 6.46875 A 1.250125 1.250125 0 0 0 2.34375 5.5 L 2.34375 2.25 L 9.25 2.25 L 9.25 5.71875 A 1.250125 1.250125 0 0 0 10.5 6.96875 L 14.21875 6.96875 L 14.21875 7.3125 L 14.21875 7.75 L 14.21875 8.21875 A 1.6502123 1.6502123 0 0 1 14.96875 9.625 L 14.96875 9.96875 L 15.3125 9.96875 A 1.6502123 1.6502123 0 0 1 15.46875 9.96875 L 15.46875 7.75 L 15.46875 7.3125 L 15.46875 6.5625 C 15.46875 6.4435195 15.44817 6.3201604 15.40625 6.21875 C 15.32241 6.0159292 15.171571 5.8650903 14.96875 5.78125 C 14.86734 5.7393298 14.743981 5.71875 14.625 5.71875 L 10.5 5.71875 L 10.5 1.84375 C 10.499992 1.367831 10.132173 1 9.65625 1 L 1.9375 1 z "
     id="rect3464" />
  <path
     d="m 11.298482,9.609647 0,2 -2,0 0,2 2,0 0,2 2,0 0,-2 2,0 0,-2 -2,0 0,-2 z"
     inkscape:connector-curvature="0"
     id="path3107-4-3-2"
     style="color:#bebebe;fill:#bebebe;fill-opacity:1;fill-rule:nonzero;stroke:none;stroke-width:1;marker:none;visibility:visible;display:inline;overflow:visible;enable-background:accumulate"
     sodipodi:nodetypes="ccccccccccccc" />
</svg>
