<?xml version="1.0" encoding="UTF-8" standalone="no"?>
<!-- Created with Inkscape (http://www.inkscape.org/) -->
<svg id="svg5594" xmlns:rdf="http://www.w3.org/1999/02/22-rdf-syntax-ns#" xmlns="http://www.w3.org/2000/svg" height="16" width="16" version="1.1" xmlns:cc="http://creativecommons.org/ns#" xmlns:dc="http://purl.org/dc/elements/1.1/">
 <metadata id="metadata5599">
  <rdf:RDF>
   <cc:Work rdf:about="">
    <dc:format>image/svg+xml</dc:format>
    <dc:type rdf:resource="http://purl.org/dc/dcmitype/StillImage"/>
    <dc:title/>
   </cc:Work>
  </rdf:RDF>
 </metadata>
 <g id="layer1" transform="translate(0 -1036.4)">
  <g id="g3763" transform="matrix(.86222 0 0 .86222 1.0304 144.13)">
   <path id="path14584" d="m7.9643 1038.3c-3.3086 0-5.9943 2.6857-5.9943 5.9943s2.6857 5.9942 5.9943 5.9942 5.9943-2.6856 5.9943-5.9942-2.6857-5.9943-5.9943-5.9943zm0 0.8457c2.8454 0 5.1486 2.3031 5.1486 5.1486 0 2.8454-2.3032 5.1486-5.1486 5.1486s-5.1486-2.3032-5.1486-5.1486c0-2.8455 2.3032-5.1486 5.1486-5.1486z" style="block-progression:tb;text-indent:0;color:#000000;text-transform:none;fill:#808080"/>
   <path id="path14586" d="m10.5 1041.3a0.42854 0.42854 0 0 0 -0.28125 0.125l-2.25 2.2813-1.4062-1.4063a0.43102 0.43102 0 1 0 -0.625 0.5937l1.7188 1.7188a0.42854 0.42854 0 0 0 0.625 0l2.5625-2.5625a0.42854 0.42854 0 0 0 -0.34375 -0.75z" style="block-progression:tb;text-indent:0;color:#000000;text-transform:none;fill:#999"/>
  </g>
 </g>
</svg>
