<?xml version="1.0" encoding="UTF-8" standalone="no"?>
<!-- Created with Inkscape (http://www.inkscape.org/) -->

<svg
   xmlns:dc="http://purl.org/dc/elements/1.1/"
   xmlns:cc="http://creativecommons.org/ns#"
   xmlns:rdf="http://www.w3.org/1999/02/22-rdf-syntax-ns#"
   xmlns:svg="http://www.w3.org/2000/svg"
   xmlns="http://www.w3.org/2000/svg"
   xmlns:xlink="http://www.w3.org/1999/xlink"
   xmlns:sodipodi="http://sodipodi.sourceforge.net/DTD/sodipodi-0.dtd"
   xmlns:inkscape="http://www.inkscape.org/namespaces/inkscape"
   id="svg7384"
   height="16"
   width="16"
   version="1.1"
   inkscape:version="0.48.3.1 r9886"
   sodipodi:docname="process-stop-symbolic.svg">
  <defs
     id="defs9">
    <linearGradient
       id="linearGradient4466">
      <stop
         style="stop-color:#bebebe;stop-opacity:1;"
         offset="0"
         id="stop4468" />
      <stop
         id="stop4474"
         offset="0.50676125"
         style="stop-color:#bebebe;stop-opacity:0.34684685" />
      <stop
         style="stop-color:#bebebe;stop-opacity:0"
         offset="1"
         id="stop4470" />
    </linearGradient>
    <linearGradient
       inkscape:collect="always"
       xlink:href="#linearGradient4466"
       id="linearGradient4472"
       x1="9.6473188"
       y1="14.423886"
       x2="13.687416"
       y2="9.5820017"
       gradientUnits="userSpaceOnUse" />
    <linearGradient
       inkscape:collect="always"
       xlink:href="#linearGradient4466"
       id="linearGradient4480"
       gradientUnits="userSpaceOnUse"
       x1="8.5926514"
       y1="18.163162"
       x2="13.687416"
       y2="9.5820017" />
    <linearGradient
       inkscape:collect="always"
       xlink:href="#linearGradient4466"
       id="linearGradient4492"
       gradientUnits="userSpaceOnUse"
       x1="9.6473188"
       y1="14.423886"
       x2="13.687416"
       y2="9.5820017" />
  </defs>
  <sodipodi:namedview
     pagecolor="#ffffff"
     bordercolor="#666666"
     borderopacity="1"
     objecttolerance="10"
     gridtolerance="10"
     guidetolerance="10"
     inkscape:pageopacity="0"
     inkscape:pageshadow="2"
     inkscape:window-width="1366"
     inkscape:window-height="711"
     id="namedview7"
     showgrid="false"
     inkscape:zoom="16"
     inkscape:cx="15.175633"
     inkscape:cy="-0.083756936"
     inkscape:window-x="0"
     inkscape:window-y="0"
     inkscape:window-maximized="1"
     inkscape:current-layer="svg7384" />
  <title
     id="title9167">Gnome Symbolic Icon Theme</title>
  <metadata
     id="metadata90">
    <rdf:RDF>
      <cc:Work
         rdf:about="">
        <dc:format>image/svg+xml</dc:format>
        <dc:type
           rdf:resource="http://purl.org/dc/dcmitype/StillImage" />
        <dc:title>Gnome Symbolic Icon Theme</dc:title>
      </cc:Work>
    </rdf:RDF>
  </metadata>
  <path
     inkscape:connector-curvature="0"
     style="fill:url(#linearGradient4472);fill-opacity:1;stroke:none"
     d="m 8.0089269,0.12338489 0,1.98142611 c -0.00628,-1.8e-5 -0.01154,0 -0.017852,0 -3.8051708,0 -6.8769766,3.0718037 -6.8769766,6.8769767 0,3.8051733 3.0718058,6.8948273 6.8769766,6.8948273 3.8051704,0 6.8948274,-3.089654 6.8948274,-6.8948273 0,-0.2710312 -0.02752,-0.5405422 -0.05802,-0.8032806 l -3.360391,0.093716 c 0.04746,0.2301347 0.0714,0.4653143 0.0714,0.7095648 0,1.2801093 -0.682854,2.4054073 -1.7047414,3.0301543 -0.0045,0.0027 -0.00885,0.0062 -0.013386,0.0089 -0.070531,0.04268 -0.1450793,0.08269 -0.218671,0.120492 -0.018303,0.0092 -0.03507,0.01784 -0.05355,0.02678 -0.0078,0.0038 -0.014486,0.0096 -0.022312,0.01339 -0.044904,0.02131 -0.092455,0.043 -0.1383429,0.06248 -0.00613,0.0027 -0.011687,0.0063 -0.017852,0.0089 -0.4248631,0.177565 -0.8912266,0.272223 -1.3789656,0.272223 -0.3057362,0 -0.6005025,-0.03452 -0.8836087,-0.107104 -0.00317,-8.12e-4 -0.00576,-0.0036 -0.00893,-0.0044 -0.052737,-0.01368 -0.1088933,-0.02862 -0.1606561,-0.04462 -0.0045,-0.0014 -0.0089,-0.003 -0.013386,-0.0044 -0.271847,-0.08523 -0.5279333,-0.203756 -0.7675797,-0.348089 -0.00281,-0.0017 -0.00613,-0.0027 -0.00893,-0.0044 -0.046366,-0.0281 -0.08892,-0.05914 -0.1338798,-0.08925 -0.00716,-0.0049 -0.015172,-0.0084 -0.022312,-0.01339 -0.038879,-0.02646 -0.078264,-0.05686 -0.1160291,-0.08479 -0.8608355,-0.64865 -1.4146673,-1.682528 -1.4146673,-2.8427212 0,-1.9540097 1.5759673,-3.5344357 3.5299733,-3.5344357 l 0,1.9635753 L 9.6913577,5.8803351 11.976245,3.8096555 8.0089306,0.123489 z"
     id="path2998-2" />
  <path
     style="fill:#bebebe;fill-opacity:1;stroke:none"
     d="M 8 0.125 L 8 2.09375 C 4.1948292 2.09375 1.125 5.163577 1.125 8.96875 C 1.125 11.918501 2.9599663 14.453656 5.5625 15.4375 L 5.5625 11.53125 C 4.8892733 10.883851 4.46875 9.9758869 4.46875 8.96875 C 4.46875 7.0147403 6.045994 5.4375 8 5.4375 L 8 7.40625 L 9.6875 5.875 L 11.96875 3.8125 L 8 0.125 z "
     id="path4485" />
</svg>
