<?xml version="1.0" encoding="UTF-8" standalone="no"?>
<!-- Created with Inkscape (http://www.inkscape.org/) -->

<svg
   xmlns:dc="http://purl.org/dc/elements/1.1/"
   xmlns:cc="http://creativecommons.org/ns#"
   xmlns:rdf="http://www.w3.org/1999/02/22-rdf-syntax-ns#"
   xmlns:svg="http://www.w3.org/2000/svg"
   xmlns="http://www.w3.org/2000/svg"
   version="1.0"
   width="16"
   height="16"
   id="svg7854">
  <metadata
     id="metadata5314">
    <rdf:RDF>
      <cc:Work
         rdf:about="">
        <dc:format>image/svg+xml</dc:format>
        <dc:type
           rdf:resource="http://purl.org/dc/dcmitype/StillImage" />
        <dc:title></dc:title>
      </cc:Work>
    </rdf:RDF>
  </metadata>
  <defs
     id="defs7856">
    <linearGradient
       id="linearGradient5841">
      <stop
         id="stop5843"
         style="stop-color:#37e700;stop-opacity:1"
         offset="0" />
      <stop
         id="stop5849"
         style="stop-color:#3dfe00;stop-opacity:1"
         offset="0.5" />
      <stop
         id="stop5845"
         style="stop-color:#2aad00;stop-opacity:1"
         offset="1" />
    </linearGradient>
    <linearGradient
       x1="22.146999"
       y1="15.722"
       x2="22.402"
       y2="34.612"
       id="linearGradient4117"
       gradientUnits="userSpaceOnUse">
      <stop
         id="stop4113"
         style="stop-color:#ffffff;stop-opacity:1"
         offset="0" />
      <stop
         id="stop4115"
         style="stop-color:#ffffff;stop-opacity:0"
         offset="1" />
    </linearGradient>
    <linearGradient
       x1="15"
       y1="2"
       x2="15"
       y2="21"
       id="linearGradient3696"
       gradientUnits="userSpaceOnUse">
      <stop
         id="stop3700"
         style="stop-color:#eeeeec;stop-opacity:1"
         offset="0" />
      <stop
         id="stop3702"
         style="stop-color:#babdb6;stop-opacity:1"
         offset="0.79220003" />
      <stop
         id="stop3704"
         style="stop-color:#a1a59b;stop-opacity:1"
         offset="1" />
    </linearGradient>
    <linearGradient
       id="linearGradient3587-6-5-3-5-7">
      <stop
         id="stop3589-9-2-2-6-2"
         style="stop-color:#000000;stop-opacity:1"
         offset="0" />
      <stop
         id="stop3591-7-4-73-5-1"
         style="stop-color:#363636;stop-opacity:1"
         offset="1" />
    </linearGradient>
  </defs>
  <path
     d="m 6.4600883,0.97554511 c -3.0429888,0 -5.48836989,2.44538039 -5.48836989,5.48836989 0,3.0429875 2.44743349,5.521039 5.48836989,5.521039 1.082307,0 2.0864808,-0.339831 2.9401981,-0.88206 a 0.30202806,0.30202806 0 0 1 0.098007,-0.03267 0.30202806,0.30202806 0 0 1 0.2940198,0.09801 l 3.5935758,3.789589 c 0.05327,0.05867 0.05864,0.07116 0.163344,0.06534 0.125842,-0.007 0.258498,-0.05796 0.29402,-0.09801 l 1.078073,-1.241417 c 0.135176,-0.155565 0.137847,-0.293659 0.03267,-0.392026 l -3.75692,-3.5609072 a 0.30202806,0.30202806 0 0 1 -0.06534,-0.065338 0.30202806,0.30202806 0 0 1 -0.03267,-0.2613509 0.30202806,0.30202806 0 0 1 0.03267,-0.065338 c 0.527555,-0.8465054 0.849391,-1.808325 0.849391,-2.8748604 0,-3.0409373 -2.478051,-5.48836989 -5.5210393,-5.48836989 z m 0,1.73145009 c 2.0841766,0 3.7895887,1.6693224 3.7895887,3.7569198 0,2.0875967 -1.7019915,3.789589 -3.7895887,3.789589 -2.0875977,0 -3.7569199,-1.7054127 -3.7569199,-3.789589 0,-2.084177 1.6727428,-3.7569198 3.7569199,-3.7569198 z"
     id="path12171"
     style="color:#000000;fill:#bebebe;fill-opacity:1;fill-rule:nonzero;stroke:none;stroke-width:1;marker:none;visibility:visible;display:inline;overflow:visible;enable-background:accumulate" />
  <g
     transform="matrix(0.57627119,0,0,0.57627119,-90.882794,-382.5424)"
     id="layer12">
    <path
       d="m 164.19,669 c -0.6627,0 -1.1875,0.54899 -1.1875,1.2188 v 9.5625 c 0,0.66976 0.5248,1.2188 1.1875,1.2188 h 9.625 c 0.6627,0 1.1875,-0.54899 1.1875,-1.2188 v -9.5625 c 0,-0.66976 -0.5248,-1.2188 -1.1875,-1.2188 z m 0.8125,2 h 3 v 2 h -1 v 1 h -2 z m 5,0 h 3 v 3 h -2 v -1 h -1 z m -5,5 h 2 v 1 h 1 v 2 h -3 z m 6,0 h 2 v 3 h -3 v -2 h 1 z"
       id="rect11749-5-0-1"
       style="color:#bebebe;fill:#bebebe" />
  </g>
</svg>
