<?xml version="1.0" encoding="UTF-8" standalone="no"?>
<!-- Created with Inkscape (http://www.inkscape.org/) -->

<svg
   xmlns:dc="http://purl.org/dc/elements/1.1/"
   xmlns:cc="http://creativecommons.org/ns#"
   xmlns:rdf="http://www.w3.org/1999/02/22-rdf-syntax-ns#"
   xmlns:svg="http://www.w3.org/2000/svg"
   xmlns="http://www.w3.org/2000/svg"
   xmlns:sodipodi="http://sodipodi.sourceforge.net/DTD/sodipodi-0.dtd"
   xmlns:inkscape="http://www.inkscape.org/namespaces/inkscape"
   width="16px"
   height="16px"
   id="svg3925"
   version="1.1"
   inkscape:version="0.48.3.1 r9886"
   sodipodi:docname="folder-symbolic.svg">
  <defs
     id="defs3927" />
  <sodipodi:namedview
     id="base"
     pagecolor="#ffffff"
     bordercolor="#666666"
     borderopacity="1.0"
     inkscape:pageopacity="0.0"
     inkscape:pageshadow="2"
     inkscape:zoom="15.696216"
     inkscape:cx="7.3545347"
     inkscape:cy="11.751215"
     inkscape:current-layer="layer1"
     showgrid="true"
     inkscape:grid-bbox="true"
     inkscape:document-units="px"
     inkscape:window-width="1366"
     inkscape:window-height="696"
     inkscape:window-x="0"
     inkscape:window-y="0"
     inkscape:window-maximized="1" />
  <metadata
     id="metadata3930">
    <rdf:RDF>
      <cc:Work
         rdf:about="">
        <dc:format>image/svg+xml</dc:format>
        <dc:type
           rdf:resource="http://purl.org/dc/dcmitype/StillImage" />
        <dc:title></dc:title>
      </cc:Work>
    </rdf:RDF>
  </metadata>
  <g
     id="layer1"
     inkscape:label="Layer 1"
     inkscape:groupmode="layer">
    <path
       style="fill:#bebebe;fill-opacity:1;stroke:none"
       d="M 8.9652526,14.947762 C 9.4747194,14.789049 9.8305505,14.530215 9.8419121,14.202601 9.860082,13.678425 9.051241,13.227461 8.0009272,13.194443 7.0956788,13.165983 6.3227442,13.435174 6.1161093,13.851938 4.8360855,13.770654 1.7194615,13.468837 1.4259811,12.887612 1.2192438,12.478181 1.281676,10.612151 1.2506492,9.2056423 c 0,0 -0.056822,-0.042571 -0.087666,-0.043833 -0.030844,-0.00125 -0.04546,0.013774 -0.087666,0.043833 -0.0844118,0.060076 -0.17451692,0.073099 -0.17533186,0.2191648 -0.0176734,3.1685729 0.0947914,3.2274709 0.17533186,3.6381369 0.1327473,0.676856 3.6234062,1.110384 4.996959,1.227323 0.102997,0.272874 0.4610359,0.5103 0.9204925,0.657495 z M 8.1324261,1.0527092 c -2.3965766,0.063679 -4.011107,1.4180926 -4.5586293,2.5861454 -0.02853,0.060856 -0.041589,0.116412 -0.043833,0.1753319 -0.00912,0.078655 0.00645,0.137658 0.043833,0.2191649 C 3.5065395,4.1109659 3.4648105,4.1677426 3.3984649,4.2525162 3.0751277,4.6657025 2.793079,5.1750005 2.7848033,5.1730087 c -0.01801,-0.00251 -0.062488,0 -0.087666,0 -0.3106797,0 -0.5698287,0.2272042 -0.5698287,0.5259957 0,0.2240933 0.1481611,0.4445252 0.3506638,0.5259957 -0.00449,0.00337 -0.055082,0.029215 -0.1314989,0.087666 2.66e-5,0.010197 -2.245e-4,0.033706 0,0.043833 -0.18997,0.1453256 -0.5698287,0.4383297 -0.5698287,0.4383297 -0.040971,0.032838 -0.089938,0.085876 -0.1314989,0.1314989 -0.016299,0.020602 -0.081354,0.064911 -0.087666,0.087666 -0.020801,0.074296 -0.00505,0.091237 0,0.1753319 l 0.087666,0.7889935 0,0.1753319 c -0.2822844,0.4262388 -0.3506638,1.0614074 -0.3506638,1.665653 0,0.9614891 0.1993327,1.9141611 1.1396573,2.1039831 0.046161,0.264713 0.234026,0.483818 0.3944968,0.569828 0.04734,0.02741 0.046666,0.04491 0.087666,0.04383 0.03041,-8.41e-4 0.075884,-0.0021 0.087666,-0.04383 0,0.04209 0.1951233,0.214537 0.3068308,0.219165 l 0.043833,0 c 0.1371095,-0.0091 0.1304048,-0.08236 0.1314989,-0.131499 0,0.04209 0.046498,0.08206 0.1753319,0.08767 l 0.043833,0 c 0.2998974,-0.01024 0.6509021,-0.238074 0.6574946,-0.788993 0,0 -0.043833,-1.081687 -0.043833,-2.1478161 0,-1.0661288 0.043833,-2.1478157 0.043833,-2.1478157 C 4.3497457,7.0133568 4.0931566,6.8824947 3.8806276,6.8824947 l -0.087666,0 c -0.089896,-0.0045 -0.1789087,0.024391 -0.2191649,0.087666 0,-0.04208 -0.045446,-0.089083 -0.087666,-0.087666 -0.083654,0.00279 -0.1231391,0.016724 -0.1753319,0.043833 -0.026089,0.01355 -0.1128717,0.03048 -0.1314989,0.043833 -0.018613,0.013339 0.011362,0.034884 0,0.043833 -0.023705,0.018622 -0.068407,0.051933 -0.087666,0.087666 -0.00617,-0.025207 -0.025416,-0.081101 -0.043833,-0.087666 -0.00954,-0.00732 -0.027029,-9.64e-5 -0.043833,0 l -0.043833,0 C 2.6809746,7.009463 2.4404515,7.6171227 2.4341395,7.6714882 2.262714,7.7032022 2.0755086,7.7649878 1.9519768,7.8468201 l 0,-0.6574946 c -0.00912,-0.075616 -0.017056,-0.092704 0.043833,-0.131499 0,-9e-7 0.5432455,-0.4184141 0.7451605,-0.5698286 0.00856,-0.00645 0.042865,-0.00906 0.043833,-0.043833 2.244e-4,-0.00818 8.14e-5,-0.1293851 0,-0.2191648 0.2802042,-0.030407 0.4821627,-0.248121 0.4821627,-0.5259957 0,-0.1540647 -0.067804,-0.2958929 -0.1753319,-0.3944968 0.026651,-0.050915 0.2666995,-0.4454643 0.5698287,-0.8328265 0.041659,-0.053239 0.087848,-0.080159 0.1314989,-0.1314989 0.020296,0.022737 0.020815,0.02011 0.043833,0.043833 1.1858972,-1.238512 2.3037741,-1.8848179 4.3832973,-1.8848179 2.079525,0 3.247403,0.7040383 4.383297,1.9286508 0.03354,0.033898 0.100935,0.048602 0.131499,0.087666 0.303128,0.3873623 0.543179,0.7819157 0.569829,0.8328265 -0.107528,0.098604 -0.175332,0.240432 -0.175332,0.3944967 0,0.2711071 0.168194,0.4869121 0.43833,0.5259957 -4.4e-5,0.088572 -2.37e-4,0.1675332 0,0.1753319 1.4e-5,2.958e-4 0.03892,0.00202 0.04383,0 9.68e-4,0.034778 0.03528,0.081228 0.04383,0.087666 0.201916,0.1514153 0.74516,0.5259956 0.74516,0.5259956 0.03037,0.019397 0.03359,0.021914 0.04383,0.043833 -9.62e-4,0.024423 0.0012,0.061171 0,0.087666 -0.0084,0.1868175 -0.03009,0.4088727 -0.04383,0.6574946 -0.121035,-0.077967 -0.272191,-0.1445927 -0.438329,-0.1753319 0,-0.00309 0.0029,-0.035094 0,-0.043833 -0.0015,-0.00386 0.0017,-0.039569 0,-0.043833 -0.0069,-0.015944 0.0097,-0.023921 0,-0.043833 -0.08813,-0.1855758 -0.351976,-0.5295585 -0.569829,-0.5259957 -0.03877,-2.259e-4 -0.08051,0.00313 -0.08767,0.043833 -0.02056,-0.027834 -0.06919,-0.02931 -0.08767,-0.043833 -0.04557,-0.035808 -0.139522,-0.1258743 -0.306831,-0.1314989 -0.02208,-7.392e-4 -0.03009,0.022691 -0.04383,0.043833 -0.02059,0.020442 -0.04383,0.0171 -0.04383,0.043833 -0.04024,-0.063793 -0.129268,-0.092126 -0.219165,-0.087666 l -0.08767,0 c -0.212528,0 -0.469118,0.1308382 -0.482162,0.7013275 0,0 0.04383,1.0816869 0.04383,2.1478157 0,1.0661291 -0.04383,2.1478161 -0.04383,2.1478161 0.0066,0.550921 0.357597,0.778754 0.657494,0.788993 l 0.04383,0 c 0.128848,-0.0056 0.175332,-0.04559 0.175332,-0.08767 8.42e-4,0.04856 -0.0077,0.122242 0.131499,0.131499 l 0.04383,0 c 0.06146,-0.0025 0.162161,-0.0821 0.219165,-0.131499 0.04921,-0.03971 0.08037,-0.06393 0.08767,-0.08767 0.01412,0.02707 0.06413,0.04322 0.08767,0.04383 0.041,0.0011 0.04033,-0.0164 0.08767,-0.04383 0.008,-0.0049 0.03584,0.0055 0.04383,0 0.148465,-0.0951 0.302749,-0.328729 0.350664,-0.569828 0.943327,-0.188192 1.139657,-1.141325 1.139657,-2.1039831 0,-0.5904267 -0.08454,-1.1964382 -0.350664,-1.62182 0.03041,-0.4707211 0.08584,-0.934707 0.08767,-0.9643255 0.0051,-0.084093 -0.02313,-0.1448662 -0.04383,-0.2191648 -0.01136,-0.040649 -0.01333,-0.061988 -0.04383,-0.087666 -0.03653,-0.033579 -0.09949,-0.062011 -0.131499,-0.087666 0,0 -0.728805,-0.6009115 -0.74516,-0.6136616 0.22627,-0.06958 0.394496,-0.2414127 0.394496,-0.4821628 0,-0.2987905 -0.259147,-0.5698286 -0.569828,-0.5698286 -0.0063,-2.024e-4 -0.03738,0 -0.04383,0 -0.02518,0 -0.02581,-0.00251 -0.04383,0 -0.0083,0.00202 -0.290325,-0.4634732 -0.613662,-0.8766595 -0.05389,-0.068865 -0.120362,-0.1108644 -0.175332,-0.1753319 0.0634,-0.1382457 0.05891,-0.2845743 0,-0.4383297 -0.17263,-0.4505114 -0.571145,-1.0122707 -1.18349,-1.4903211 -0.0323,-0.015626 -0.05437,-0.028102 -0.08767,-0.043833 -0.783994,-0.5910801 -1.8881674,-1.0958243 -3.24364,-1.0958243 -0.04842,0 -0.083458,-0.00106 -0.1314989,0 -0.00944,2.137e-4 -0.034435,-2.496e-4 -0.043833,0 z M 2.6533044,5.3483406 c 0.2143748,0 0.3944967,0.1809638 0.3944967,0.3944967 0,0.1704152 -0.1097858,0.2992621 -0.2629978,0.3506638 -3.1e-4,-0.016957 8.668e-4,-0.03501 0,-0.043833 -2.8e-5,-3.213e-4 0.00168,-0.037212 0,-0.043833 -0.0021,-0.00337 -0.041168,0.00363 -0.043833,0 -0.00785,-0.01045 0.00757,-0.036525 0,-0.043833 -0.00168,-0.00154 -0.04215,0.00174 -0.043833,0 -0.024042,-0.02209 -0.039877,-0.04392 -0.087666,-0.043833 -0.041757,0.00309 -0.05577,-0.00121 -0.087666,0.043833 -1.908e-4,7.112e-4 1.669e-4,0.043063 0,0.043833 -2.806e-4,0.00144 -0.043637,-0.00144 -0.043833,0 C 2.3732082,5.9372664 2.2588076,5.8759395 2.2588076,5.7428373 c 0,-0.2135329 0.1801248,-0.3944967 0.3944968,-0.3944967 z m 11.0459096,0.043833 c 0.214372,0 0.394496,0.1371305 0.394496,0.3506637 0,0.147588 -0.09654,0.2844978 -0.219164,0.3506638 l 0,-0.043833 c -9.64e-4,-0.011544 0.0066,-0.034688 0,-0.043833 -0.03646,-0.051477 -0.0363,-0.043747 -0.08767,-0.043833 -0.05137,-9.26e-5 -0.136661,-0.00763 -0.175332,0.043833 -0.01248,0.016589 4.9e-5,0.043178 0,0.043833 -1.6e-5,3.506e-4 3.3e-5,0.059947 0,0.087666 C 13.44379,6.094166 13.34855,5.9235181 13.34855,5.7428373 c 0,-0.2135332 0.136296,-0.3506637 0.350664,-0.3506637 z"
       id="path4618-4"
       inkscape:connector-curvature="0"
       sodipodi:nodetypes="ccscscccsscccccccccsscccccccccsccccccccccscscccccccccccccccccsccccscccscccccccccccccccccccscsccccccccccccsccccccscscsccccsccssccccccccccsssscccccccss" />
  </g>
</svg>
