<?xml version="1.0" encoding="UTF-8" standalone="no"?>
<!-- Created with Inkscape (http://www.inkscape.org/) -->

<svg
   xmlns:dc="http://purl.org/dc/elements/1.1/"
   xmlns:cc="http://creativecommons.org/ns#"
   xmlns:rdf="http://www.w3.org/1999/02/22-rdf-syntax-ns#"
   xmlns:svg="http://www.w3.org/2000/svg"
   xmlns="http://www.w3.org/2000/svg"
   xmlns:sodipodi="http://sodipodi.sourceforge.net/DTD/sodipodi-0.dtd"
   xmlns:inkscape="http://www.inkscape.org/namespaces/inkscape"
   id="svg7384"
   height="16.001"
   width="16"
   version="1.1"
   inkscape:version="0.48.3.1 r9886"
   sodipodi:docname="audio-input-microphone-symbolic.svg">
  <sodipodi:namedview
     pagecolor="#ffffff"
     bordercolor="#666666"
     borderopacity="1"
     objecttolerance="10"
     gridtolerance="10"
     guidetolerance="10"
     inkscape:pageopacity="0"
     inkscape:pageshadow="2"
     inkscape:window-width="1366"
     inkscape:window-height="714"
     id="namedview4772"
     showgrid="false"
     inkscape:zoom="1.8436348"
     inkscape:cx="-62.587316"
     inkscape:cy="-78.394829"
     inkscape:window-x="0"
     inkscape:window-y="22"
     inkscape:window-maximized="1"
     inkscape:current-layer="svg7384" />
  <metadata
     id="metadata90">
    <rdf:RDF>
      <cc:Work
         rdf:about="">
        <dc:format>image/svg+xml</dc:format>
        <dc:type
           rdf:resource="http://purl.org/dc/dcmitype/StillImage" />
        <dc:title>Gnome Symbolic Icon Theme</dc:title>
      </cc:Work>
    </rdf:RDF>
  </metadata>
  <title
     id="title9167">Gnome Symbolic Icon Theme</title>
  <defs
     id="defs7386">
    <clipPath
       id="clipPath6810-7"
       clipPathUnits="userSpaceOnUse">
      <rect
         id="rect6812-2"
         style="stroke-linejoin:round;color:#bebebe;stroke:#fff;stroke-linecap:round;stroke-width:2;fill:none"
         height="11"
         width="14"
         y="281"
         x="21" />
    </clipPath>
  </defs>
  <path
     style="fill:#bebebe;fill-opacity:1;stroke:none"
     d="M 8.03125 0.53125 C 5.9711899 0.53125 4.305648 2.1488272 4.21875 4.1875 L 3.84375 4.1875 L 3.84375 5.53125 L 4.40625 5.53125 C 4.41057 5.544465 4.4304253 5.5503006 4.4375 5.5625 L 11.65625 5.5625 C 11.659362 5.5534593 11.653299 5.5403192 11.65625 5.53125 C 11.65795 5.52713 11.68576 5.53537 11.6875 5.53125 L 12.15625 5.53125 L 12.15625 4.1875 L 11.84375 4.1875 C 11.75819 2.1475921 10.092198 0.53125 8.03125 0.53125 z M 4.75 6.4375 C 5.0117122 6.9551435 5.3253215 7.4823893 5.625 8 L 6.96875 8 L 5.5 8.03125 L 5.84375 8.75 L 6.5625 15.15625 C 6.65213 15.37415 6.894115 15.384235 7.0625 15.5 L 8.96875 15.5 C 9.214964 15.4974 9.306163 15.268028 9.46875 15.15625 L 10.1875 8.75 L 10.53125 8.03125 L 9.0625 8 L 10.34375 8 C 10.678672 7.4984823 10.95206 6.9720589 11.21875 6.4375 L 4.75 6.4375 z "
     id="path4868" />
</svg>
