<?xml version="1.0" encoding="UTF-8" standalone="no"?>
<!-- Created with Inkscape (http://www.inkscape.org/) -->

<svg
   xmlns:dc="http://purl.org/dc/elements/1.1/"
   xmlns:cc="http://creativecommons.org/ns#"
   xmlns:rdf="http://www.w3.org/1999/02/22-rdf-syntax-ns#"
   xmlns:svg="http://www.w3.org/2000/svg"
   xmlns="http://www.w3.org/2000/svg"
   xmlns:sodipodi="http://sodipodi.sourceforge.net/DTD/sodipodi-0.dtd"
   xmlns:inkscape="http://www.inkscape.org/namespaces/inkscape"
   width="16px"
   height="16px"
   id="svg9620"
   version="1.1"
   inkscape:version="0.48.3.1 r9886"
   sodipodi:docname="camera-web-symbolic.svg">
  <defs
     id="defs9622">
    <linearGradient
       id="linearGradient2285">
      <stop
         id="stop2287"
         offset="0"
         style="stop-color:#5e5e5e;stop-opacity:1;" />
      <stop
         style="stop-color:#dedede;stop-opacity:1;"
         offset="0.75901806"
         id="stop2293" />
      <stop
         id="stop2295"
         offset="0.93379617"
         style="stop-color:#8d8d8d;stop-opacity:1;" />
      <stop
         id="stop2289"
         offset="1"
         style="stop-color:#616161;stop-opacity:1;" />
    </linearGradient>
    <linearGradient
       id="linearGradient2321">
      <stop
         style="stop-color:#c3c3c3;stop-opacity:1;"
         offset="0"
         id="stop2323" />
      <stop
         style="stop-color:#ffffff;stop-opacity:1;"
         offset="1"
         id="stop2325" />
    </linearGradient>
  </defs>
  <sodipodi:namedview
     id="base"
     pagecolor="#ffffff"
     bordercolor="#666666"
     borderopacity="1.0"
     inkscape:pageopacity="0.0"
     inkscape:pageshadow="2"
     inkscape:zoom="15.696216"
     inkscape:cx="14.419679"
     inkscape:cy="10.033552"
     inkscape:current-layer="layer1"
     showgrid="true"
     inkscape:grid-bbox="true"
     inkscape:document-units="px"
     inkscape:window-width="1366"
     inkscape:window-height="696"
     inkscape:window-x="0"
     inkscape:window-y="0"
     inkscape:window-maximized="1" />
  <metadata
     id="metadata9625">
    <rdf:RDF>
      <cc:Work
         rdf:about="">
        <dc:format>image/svg+xml</dc:format>
        <dc:type
           rdf:resource="http://purl.org/dc/dcmitype/StillImage" />
        <dc:title></dc:title>
      </cc:Work>
    </rdf:RDF>
  </metadata>
  <g
     id="layer1"
     inkscape:label="Layer 1"
     inkscape:groupmode="layer">
    <g
       id="g12192">
      <path
         style="fill:#bebebe;fill-opacity:1;fill-rule:nonzero;stroke:none;opacity:1"
         d="m 6.4294826,0.63793711 0,-0.3468603 0,0.3468603 z"
         id="path2276"
         sodipodi:nodetypes="ccc"
         inkscape:connector-curvature="0" />
      <path
         id="rect2334"
         d="m 7.8041546,12.192099 c -0.01069,0.0027 -0.0247,0.01072 -0.03491,0.01552 -0.105083,0.05404 -0.182292,0.214564 -0.182292,0.407246 l 0,1.497115 c -0.140221,0.05142 -0.240469,0.184532 -0.240469,0.341311 l 0,0.690381 c 0,0.201625 0.168137,0.364582 0.37234,0.364582 l 0.570145,0 c 0.204203,0 0.368461,-0.162957 0.368461,-0.364582 l 0,-0.690381 c 0,-0.162937 -0.107015,-0.29851 -0.255984,-0.345189 l 0,-1.493237 c 0,-0.181564 -0.07107,-0.333178 -0.166777,-0.395611 -0.02767,-0.01675 -0.05796,-0.02715 -0.08921,-0.02715 l -0.302526,0 c -0.01339,0 -0.02595,-0.0033 -0.03879,0 z"
         style="fill:#bebebe;fill-opacity:1;fill-rule:nonzero;stroke:none;opacity:1"
         inkscape:connector-curvature="0" />
      <path
         id="path2311"
         d="m 12.470037,2.5073872 a 0.86456838,0.86456838 0 0 1 -0.294768,0.302526 C 11.348773,3.3108126 10.205878,3.584216 8.8707536,3.6709489 10.131121,4.0585612 11.046613,5.222768 11.046613,6.5953672 c 0,1.6893528 -1.3841194,3.0562886 -3.0950734,3.0562886 -1.710954,0 -3.098953,-1.3669358 -3.098953,-3.0562886 0,-1.3666266 0.907508,-2.5240336 2.160346,-2.9166613 C 5.7187276,3.6030595 4.5978866,3.3509275 3.7665956,2.9068767 A 0.86456838,0.86456838 0 0 1 3.4020126,2.534537 c -0.960791,1.0962897 -1.543658,2.5422792 -1.543658,4.1267654 0,1.6364397 0.623037,3.1240795 1.640622,4.2314856 0.01119,-0.02068 0.03119,-0.05846 0.03879,-0.06981 0.0089,-0.01333 0.04771,-0.06153 0.05817,-0.07369 0.01046,-0.01216 0.0502,-0.05513 0.06206,-0.06593 0.01186,-0.0108 0.06062,-0.04889 0.07369,-0.05818 0.01308,-0.0093 0.06347,-0.04278 0.07757,-0.05042 a 0.18460586,0.18460586 0 0 1 0.0039,0 c 0.980883,-0.523958 2.422268,-0.7912216 4.072466,-0.7912216 1.741567,0 3.2528534,0.2826246 4.2392434,0.8804286 0.01346,0.0082 0.0613,0.04453 0.07369,0.0543 0.01239,0.0098 0.05867,0.04701 0.06981,0.05818 0.01114,0.01117 0.04844,0.0574 0.05818,0.06981 0.0092,0.01168 0.03975,0.05354 0.05042,0.06981 1.029927,-1.1098965 1.663893,-2.6063239 1.663893,-4.2547574 0,-1.5984556 -0.59576,-3.0541936 -1.570808,-4.1539152 z"
         style="fill:#bebebe;fill-opacity:1;fill-rule:nonzero;stroke:none;opacity:1"
         inkscape:connector-curvature="0" />
      <path
         style="fill:#bebebe;fill-opacity:1;fill-rule:nonzero;stroke:none;stroke-width:0.38122298999999998;stroke-linecap:round;stroke-linejoin:round;stroke-miterlimit:4;stroke-opacity:1;stroke-dasharray:none;stroke-dashoffset:4;opacity:1"
         d="m 7.9913256,12.667533 c -1.452811,0 -2.780265,-0.534527 -3.816269,-1.419267 0.783291,-0.418411 2.149928,-0.695562 3.71037,-0.695562 1.648205,0 3.0837244,0.30971 3.8398024,0.767933 -1.02314,0.841142 -2.3213134,1.346896 -3.7339034,1.346896 z"
         id="path2902"
         inkscape:connector-curvature="0" />
      <path
         id="path2895"
         d="m 7.9913256,0.72249401 c -1.452811,0 -2.780265,0.53452809 -3.816269,1.41926769 0.783291,0.4184107 2.149928,0.6955619 3.71037,0.6955619 1.648205,0 3.0837244,-0.3097105 3.8398024,-0.7679323 C 10.702089,1.2282487 9.4039156,0.72249401 7.9913256,0.72249401 z"
         style="fill:#bebebe;fill-opacity:1;fill-rule:nonzero;stroke:none;stroke-width:0.38122298999999998;stroke-linecap:round;stroke-linejoin:round;stroke-miterlimit:4;stroke-opacity:1;stroke-dasharray:none;stroke-dashoffset:4;opacity:1"
         inkscape:connector-curvature="0" />
      <path
         id="rect2316"
         d="m 6.1518976,12.067985 -0.0078,0.0039 -0.748558,0.42664 -2.726613,1.551414 c -0.115314,-0.0966 -0.283911,-0.114059 -0.42276,-0.03491 l -0.923093,0.523603 c -0.176844,0.100812 -0.23785,0.32184 -0.135748,0.496452 l 0.287011,0.492575 c 0.102102,0.174613 0.327365,0.232682 0.504211,0.13187 l 0.923092,-0.527481 c 0.125265,-0.07141 0.19031,-0.200527 0.182291,-0.333555 l 4.235365,-2.420206 0.0078,-0.0039 c -0.110747,-1.75e-4 -0.220187,-0.0056 -0.325797,-0.0194 -0.0013,-1.61e-4 -0.0026,1.73e-4 -0.0039,0 -0.262568,-0.03463 -0.507279,-0.109787 -0.721408,-0.217199 -0.001,-5.09e-4 -0.0028,5.1e-4 -0.0039,0 -0.04195,-0.02113 -0.08069,-0.04625 -0.120235,-0.06981 z"
         style="fill:#bebebe;fill-opacity:1;fill-rule:nonzero;stroke:none;opacity:1"
         inkscape:connector-curvature="0" />
      <path
         transform="matrix(0.19880386,0,0,0.19629395,-4.8025984,-3.6359916)"
         d="m 72.491081,52.829288 a 8.0388947,8.0388947 0 1 1 -16.077789,0 8.0388947,8.0388947 0 1 1 16.077789,0 z"
         sodipodi:ry="8.0388947"
         sodipodi:rx="8.0388947"
         sodipodi:cy="52.829288"
         sodipodi:cx="64.452187"
         id="path2904"
         style="opacity:1;fill:#bebebe;fill-opacity:1;fill-rule:nonzero;stroke:none"
         sodipodi:type="arc" />
      <path
         id="path3030"
         d="m 9.9761366,12.091257 c -0.08101,0.04828 -0.169119,0.09406 -0.259862,0.13187 -0.27223,0.113436 -0.583094,0.174022 -0.915335,0.174535 l 0.0078,0.0039 c -0.0026,1.1e-5 -0.0051,-4e-6 -0.0078,0 l 4.1228874,2.354272 c -0.02689,0.146793 0.03968,0.301009 0.178413,0.380096 l 0.919213,0.523603 c 0.176845,0.100812 0.402108,0.04274 0.50421,-0.13187 l 0.287011,-0.488696 c 0.102102,-0.174613 0.0411,-0.395641 -0.135748,-0.496453 l -0.923092,-0.527481 c -0.125265,-0.07141 -0.271307,-0.06174 -0.383976,0.01163 L 9.9761366,12.091257 z"
         style="fill:#bebebe;fill-opacity:1;fill-rule:nonzero;stroke:none;opacity:1"
         inkscape:connector-curvature="0" />
    </g>
  </g>
</svg>
