<?xml version="1.0" encoding="UTF-8" standalone="no"?>
<!-- Created with Inkscape (http://www.inkscape.org/) -->

<svg
   xmlns:dc="http://purl.org/dc/elements/1.1/"
   xmlns:cc="http://creativecommons.org/ns#"
   xmlns:rdf="http://www.w3.org/1999/02/22-rdf-syntax-ns#"
   xmlns:svg="http://www.w3.org/2000/svg"
   xmlns="http://www.w3.org/2000/svg"
   xmlns:sodipodi="http://sodipodi.sourceforge.net/DTD/sodipodi-0.dtd"
   xmlns:inkscape="http://www.inkscape.org/namespaces/inkscape"
   version="1.1"
   width="16"
   height="16"
   id="svg7384"
   inkscape:version="0.48.3.1 r9886"
   sodipodi:docname="display-projector-symbolic.svg">
  <sodipodi:namedview
     pagecolor="#ffffff"
     bordercolor="#666666"
     borderopacity="1"
     objecttolerance="10"
     gridtolerance="10"
     guidetolerance="10"
     inkscape:pageopacity="0"
     inkscape:pageshadow="2"
     inkscape:window-width="1366"
     inkscape:window-height="711"
     id="namedview7"
     showgrid="false"
     inkscape:zoom="29.5"
     inkscape:cx="7.8672216"
     inkscape:cy="3.3165638"
     inkscape:window-x="0"
     inkscape:window-y="0"
     inkscape:window-maximized="1"
     inkscape:current-layer="svg7384" />
  <title
     id="title9167">Gnome Symbolic Icon Theme</title>
  <defs
     id="defs11" />
  <metadata
     id="metadata90">
    <rdf:RDF>
      <cc:Work
         rdf:about="">
        <dc:format>image/svg+xml</dc:format>
        <dc:type
           rdf:resource="http://purl.org/dc/dcmitype/StillImage" />
        <dc:title>Gnome Symbolic Icon Theme</dc:title>
      </cc:Work>
    </rdf:RDF>
  </metadata>
  <path
     inkscape:connector-curvature="0"
     style="fill:#bebebe;fill-opacity:0.90196078;stroke:none"
     d="M 7.9761631,8.4393818 C 5.8798435,8.4520627 3.6480798,8.597795 0.84766675,9.42383 0.74212409,9.4658307 0.57096782,9.4145034 0.51692326,9.2331666 l 0,0.291833 0,3.0545144 0,0.198446 C 2.1867285,13.459085 3.8289902,13.864859 5.4508394,14.05035 4.7977808,13.500847 4.3846778,12.724492 4.3846778,11.844096 c -1e-6,-1.72865 1.5962348,-3.058406 3.4630791,-3.058406 1.8668442,6e-7 3.4669711,1.32877 3.4669711,3.058406 0,0.850583 -0.388435,1.602504 -1.003905,2.147887 1.740322,-0.226944 3.463019,-0.655768 5.171273,-1.214023 l 0,-0.198446 0,-3.0545144 0,-0.5019522 C 15.499639,9.3329771 15.277605,9.4756215 15.147462,9.42383 12.34705,8.597795 10.119177,8.4520629 8.0228565,8.4393818 c -0.015551,-9.35e-5 -0.031155,8.04e-5 -0.046696,0 z M 7.8477569,10.443299 c -0.9984238,0 -1.7354315,0.689039 -1.7354305,1.451381 0,0.762341 0.7348061,1.443598 1.7354305,1.443598 1.0006254,0 1.7354315,-0.681258 1.7354315,-1.443598 0,-0.762341 -0.7370078,-1.451381 -1.7354315,-1.451381 z"
     id="path3102" />
  <path
     style="opacity:0.98999999;fill:#bebebe;fill-opacity:0.90196078;fill-rule:evenodd;stroke:none"
     d="M 7.9858537,2.0700935 C 5.4795801,2.0764963 3.0374154,2.3592522 1.9585383,3.4747807 1.8381948,3.5992131 1.7640154,3.7458634 1.7328544,3.8755643 1.3614294,5.421524 0.53439568,7.7082985 0.53439568,7.7082985 c -0.003353,0.01764 -0.005868,0.034527 -0.007755,0.050582 -0.007335,-0.019708 -0.0155093,-0.039052 -0.0194495,-0.062258 -0.005135,0.062098 0.002934,0.1139894 0.0155617,0.1595349 -0.002515,0.00877 -0.005449,0.010937 -0.007755,0.023345 -0.0116634,0.062876 -0.0132667,0.1190042 -0.007755,0.1673173 5.5331e-4,0.00507 -7.4088e-4,0.010657 0,0.015565 -0.008803,0.2922484 0.22171229,0.3779843 0.35019924,0.3268522 C 3.6578563,7.5632014 5.88962,7.4174682 7.9859396,7.4047881 c 0.01553,8.04e-5 0.031144,-9.39e-5 0.046696,0 2.0963199,0.012681 4.3241929,0.1584128 7.1246049,0.9844483 0.130144,0.051791 0.352169,-0.090854 0.334634,-0.4007835 0.0028,-0.032652 0.0035,-0.067713 0,-0.1050595 0.005,-0.034487 0.0055,-0.077502 0,-0.124515 0.0047,-0.03704 0.0038,-0.077082 0,-0.1206241 -0.0028,0.020945 -0.0066,0.039554 -0.01166,0.058366 -9.3e-5,-2.115e-4 -0.0038,-0.00742 -0.004,-0.00779 C 15.455204,7.6309539 14.648246,5.4015306 14.281621,3.8755572 14.25048,3.7458602 14.1763,3.5992099 14.055957,3.4747776 12.977093,2.3592522 10.538819,2.0764927 8.032547,2.0700935 c -0.015624,-3.95e-5 -0.031071,0 -0.046695,0 z"
     id="path4827"
     inkscape:connector-curvature="0" />
  <path
     inkscape:connector-curvature="0"
     style="fill:#bebebe;fill-opacity:0.90196078;stroke:none"
     d="m 7.8494178,9.3145399 c -1.6194305,0 -2.9342297,1.1329611 -2.9342297,2.5287081 0,1.395746 1.3147992,2.527354 2.9342297,2.527354 1.6194295,0 2.9342302,-1.131607 2.9342292,-2.527354 0,-1.395748 -1.3147997,-2.5287081 -2.9342292,-2.5287081 z m 0,0.6014295 c 1.2499726,0 2.2645862,0.8862126 2.2645862,1.9772846 1e-6,1.09107 -1.0146136,1.975932 -2.2645862,1.975932 -1.2499725,0 -2.2645867,-0.884861 -2.2645867,-1.975932 -1.1e-6,-1.091072 1.0146142,-1.9772846 2.2645867,-1.9772846 z"
     id="path1881" />
</svg>
