<?xml version="1.0" encoding="UTF-8" standalone="no"?>
<!-- Created with Inkscape (http://www.inkscape.org/) -->

<svg
   xmlns:dc="http://purl.org/dc/elements/1.1/"
   xmlns:cc="http://creativecommons.org/ns#"
   xmlns:rdf="http://www.w3.org/1999/02/22-rdf-syntax-ns#"
   xmlns:svg="http://www.w3.org/2000/svg"
   xmlns="http://www.w3.org/2000/svg"
   xmlns:xlink="http://www.w3.org/1999/xlink"
   xmlns:sodipodi="http://sodipodi.sourceforge.net/DTD/sodipodi-0.dtd"
   xmlns:inkscape="http://www.inkscape.org/namespaces/inkscape"
   version="1.1"
   width="16"
   height="16"
   id="svg3808"
   inkscape:version="0.92.2 (unknown)"
   sodipodi:docname="drive-multidisk-symbolic.svg">
  <sodipodi:namedview
     pagecolor="#ffffff"
     bordercolor="#666666"
     borderopacity="1"
     objecttolerance="10"
     gridtolerance="10"
     guidetolerance="10"
     inkscape:pageopacity="0"
     inkscape:pageshadow="2"
     inkscape:window-width="1366"
     inkscape:window-height="697"
     id="namedview7"
     showgrid="false"
     showguides="true"
     inkscape:guide-bbox="true"
     inkscape:zoom="16"
     inkscape:cx="7.7059358"
     inkscape:cy="5.4286291"
     inkscape:window-x="0"
     inkscape:window-y="0"
     inkscape:window-maximized="1"
     inkscape:current-layer="svg3808">
    <inkscape:grid
       type="xygrid"
       id="grid3053" />
  </sodipodi:namedview>
  <defs
     id="defs3810">
    <linearGradient
       inkscape:collect="always"
       xlink:href="#XMLID_19_"
       id="linearGradient12942"
       gradientUnits="userSpaceOnUse"
       gradientTransform="matrix(0,-0.44649484,0.43865775,0,44.314056,98.880451)"
       x1="180.37399"
       y1="-157.96339"
       x2="188.83299"
       y2="-157.96339" />
    <linearGradient
       id="XMLID_19_"
       gradientUnits="userSpaceOnUse"
       x1="180.37399"
       y1="-157.96339"
       x2="188.83299"
       y2="-157.96339"
       gradientTransform="matrix(0,-1.8884098,1.8552635,0,317.52681,460.62003)">
      <stop
         offset="0"
         style="stop-color:#DDDDDD"
         id="stop126" />
      <stop
         offset="0.2738"
         style="stop-color:#BBBBBB"
         id="stop128" />
      <stop
         offset="0.5617"
         style="stop-color:#9F9F9F"
         id="stop130" />
      <stop
         offset="0.8136"
         style="stop-color:#8E8E8E"
         id="stop132" />
      <stop
         offset="1"
         style="stop-color:#888888"
         id="stop134" />
    </linearGradient>
    <linearGradient
       inkscape:collect="always"
       xlink:href="#linearGradient6253-0"
       id="linearGradient12938"
       gradientUnits="userSpaceOnUse"
       gradientTransform="matrix(0.29171261,0,0,0.49647278,-6.3928271,69.131208)"
       x1="-35.539001"
       y1="-144.21001"
       x2="-35.539001"
       y2="-108.32" />
    <linearGradient
       id="linearGradient6253-0">
      <stop
         style="stop-color:#ffffff;stop-opacity:1"
         offset="0"
         id="stop6255-0" />
      <stop
         id="stop6257-8"
         offset="0.64336616"
         style="stop-color:#efefef;stop-opacity:1" />
      <stop
         style="stop-color:#e5e5e5;stop-opacity:1"
         offset="1"
         id="stop6259-5" />
    </linearGradient>
    <linearGradient
       inkscape:collect="always"
       xlink:href="#linearGradient3214"
       id="linearGradient12940"
       gradientUnits="userSpaceOnUse"
       gradientTransform="matrix(0.79749691,0,0,1.368051,-28.610824,-12.086273)"
       x1="7.8513999"
       y1="19.968"
       x2="7.8513999"
       y2="7.0348001" />
    <linearGradient
       x1="7.8513999"
       y1="19.968"
       gradientTransform="matrix(0.64516,0,0,0.97976,0.25806,-6.7257)"
       x2="7.8513999"
       gradientUnits="userSpaceOnUse"
       y2="7.0348001"
       id="linearGradient3214">
      <stop
         offset="0"
         style="stop-color:#848484;stop-opacity:1;"
         id="stop3486" />
      <stop
         offset="1"
         style="stop-color:#bebebe;stop-opacity:1;"
         id="stop3488" />
    </linearGradient>
    <linearGradient
       inkscape:collect="always"
       xlink:href="#linearGradient3217"
       id="linearGradient12936"
       gradientUnits="userSpaceOnUse"
       gradientTransform="matrix(0.86516705,0,0,1.4752569,9.9026508,-95.765287)"
       x1="46.426998"
       y1="101.88"
       x2="46.426998"
       y2="85.788002" />
    <linearGradient
       x1="46.426998"
       y1="101.88"
       gradientTransform="matrix(0.12584,0,0,0.1986,0.13145,-5.1684)"
       x2="46.426998"
       gradientUnits="userSpaceOnUse"
       y2="85.788002"
       id="linearGradient3217">
      <stop
         offset="0"
         style="stop-color:#aaa"
         id="stop2223" />
      <stop
         offset="1"
         style="stop-color:#646464"
         id="stop2219" />
    </linearGradient>
    <linearGradient
       y2="85.788002"
       x2="46.426998"
       y1="101.88"
       x1="46.426998"
       gradientTransform="matrix(0.15555368,0,0,0.26524546,-28.767329,-8.8387032)"
       gradientUnits="userSpaceOnUse"
       id="linearGradient13048"
       xlink:href="#linearGradient3217"
       inkscape:collect="always" />
  </defs>
  <metadata
     id="metadata3813">
    <rdf:RDF>
      <cc:Work
         rdf:about="">
        <dc:format>image/svg+xml</dc:format>
        <dc:type
           rdf:resource="http://purl.org/dc/dcmitype/StillImage" />
        <dc:title />
      </cc:Work>
    </rdf:RDF>
  </metadata>
  <g
     id="g51">
    <path
       inkscape:connector-curvature="0"
       id="path3061"
       d="m 2.7808478,12.680011 -0.03125,0.40625 c 0.028666,-0.125523 0.069617,-0.239017 0.125,-0.34375 -0.03232,-0.01906 -0.06253,-0.04182 -0.09375,-0.0625 z m 10.4375002,0.03125 c -0.02352,0.01487 -0.03834,0.04855 -0.0625,0.0625 0.03622,0.06835 0.06881,0.141505 0.09375,0.21875 z"
       style="color:#bebebe;display:inline;overflow:visible;visibility:visible;fill:#bebebe;fill-opacity:1;fill-rule:nonzero;stroke:none;stroke-width:1;marker:none;enable-background:accumulate" />
    <path
       sodipodi:nodetypes="ssssssssssssssssss"
       inkscape:connector-curvature="0"
       id="path3009"
       d="M 3.9370151,8.9822361 C 3.3307684,8.9812273 2.8607447,9.5009711 2.8607447,10.124401 v 0.834658 c 0,0.623429 0.4700237,1.141225 1.0762704,1.142165 l 8.1785209,0.01269 c 0.606248,0.001 1.076271,-0.518735 1.076271,-1.142166 v -0.834657 c 0,-0.6234297 -0.470023,-1.1412249 -1.076271,-1.1421656 z m 0.00897,1.2356109 8.1785219,0.01268 c 0.04343,6.8e-5 0.109824,0.02311 0.109824,0.175718 v 0.834658 c 0,0.152608 -0.06639,0.175785 -0.109824,0.175718 l -8.1785219,-0.01269 c -0.043433,-6.7e-5 -0.1098236,-0.02311 -0.1098236,-0.175717 v -0.834658 c 0,-0.152609 0.066392,-0.175785 0.1098236,-0.175718 z"
       style="fill:#bebebe;fill-opacity:1;stroke:none;stroke-width:0.84064752" />
    <path
       inkscape:connector-curvature="0"
       id="path3063"
       d="m 3.3433478,12.930011 c -0.2857117,0.206816 -0.46875,0.516606 -0.46875,0.90625 v 0.84375 c 0,0.623429 0.4562533,1.15531 1.0625,1.15625 h 8.1875002 c 0.606247,10e-4 1.0625,-0.532819 1.0625,-1.15625 v -0.8125 c 0,-0.38501 -0.188847,-0.729922 -0.46875,-0.9375 -0.193652,0.05932 -0.376546,0.125361 -0.59375,0.125 l -8.1875002,-0.03125 c -0.2097879,-3.26e-4 -0.4035057,-0.03611 -0.59375,-0.09375 z m 0.59375,1 8.1875002,0.03125 c 0.04343,6.8e-5 0.125,0.0036 0.125,0.15625 v 0.84375 c 0,0.152608 -0.08157,0.187567 -0.125,0.1875 l -8.1875002,-0.03125 c -0.043433,-6.7e-5 -0.09375,-0.0036 -0.09375,-0.15625 v -0.84375 c 0,-0.152609 0.050318,-0.187567 0.09375,-0.1875 z"
       style="fill:#bebebe;fill-opacity:1;stroke:none" />
    <path
       sodipodi:nodetypes="ccccccccccccccccc"
       id="path59"
       d="M 4.2015969,1.0621649e-6 C 3.5964137,-0.00105915 3.3453247,0.79187945 3.3498337,0.99396869 L 2.7597229,9.3783542 C 2.8725534,8.8704333 3.2146473,8.5020892 3.6345066,8.5027161 l 8.7641314,0.014047 c 0.384431,5.744e-4 0.712916,0.3151437 0.851764,0.7573087 L 12.719228,1.0649665 C 12.73766,0.77864387 12.429677,0.02494991 11.6833,0.02366693 Z M 4.1800129,0.48367291 h 7.6759391 c 0.186744,0.0181828 0.459397,0.31929353 0.411495,0.84605549 l 0.164281,6.6930092 -8.8533342,-0.014047 0.2548731,-6.687837 c 0.039058,-0.54181734 0.167104,-0.742077 0.346748,-0.83718059 z"
       style="color:#bebebe;display:inline;overflow:visible;visibility:visible;fill:#bebebe;fill-opacity:1;fill-rule:nonzero;stroke:none;stroke-width:0.74691302;marker:none;enable-background:accumulate"
       inkscape:connector-curvature="0" />
  </g>
</svg>
