<?xml version="1.0" encoding="UTF-8" standalone="no"?>
<!-- Created with Inkscape (http://www.inkscape.org/) -->

<svg
   xmlns:dc="http://purl.org/dc/elements/1.1/"
   xmlns:cc="http://creativecommons.org/ns#"
   xmlns:rdf="http://www.w3.org/1999/02/22-rdf-syntax-ns#"
   xmlns:svg="http://www.w3.org/2000/svg"
   xmlns="http://www.w3.org/2000/svg"
   xmlns:sodipodi="http://sodipodi.sourceforge.net/DTD/sodipodi-0.dtd"
   xmlns:inkscape="http://www.inkscape.org/namespaces/inkscape"
   version="1.1"
   width="16"
   height="16"
   id="svg3808"
   inkscape:version="0.92.2 (unknown)"
   sodipodi:docname="drive-optical-symbolic.svg">
  <sodipodi:namedview
     pagecolor="#ffffff"
     bordercolor="#666666"
     borderopacity="1"
     objecttolerance="10"
     gridtolerance="10"
     guidetolerance="10"
     inkscape:pageopacity="0"
     inkscape:pageshadow="2"
     inkscape:window-width="1366"
     inkscape:window-height="697"
     id="namedview7"
     showgrid="false"
     showguides="true"
     inkscape:guide-bbox="true"
     inkscape:zoom="20.85965"
     inkscape:cx="3.0115086"
     inkscape:cy="10.147363"
     inkscape:window-x="0"
     inkscape:window-y="0"
     inkscape:window-maximized="1"
     inkscape:current-layer="svg3808">
    <inkscape:grid
       type="xygrid"
       id="grid2990" />
  </sodipodi:namedview>
  <defs
     id="defs3810" />
  <metadata
     id="metadata3813">
    <rdf:RDF>
      <cc:Work
         rdf:about="">
        <dc:format>image/svg+xml</dc:format>
        <dc:type
           rdf:resource="http://purl.org/dc/dcmitype/StillImage" />
        <dc:title />
      </cc:Work>
    </rdf:RDF>
  </metadata>
  <path
     inkscape:connector-curvature="0"
     style="color:#bebebe;display:inline;overflow:visible;visibility:visible;fill:#bebebe;fill-opacity:1;fill-rule:nonzero;stroke:none;stroke-width:1;marker:none;enable-background:accumulate"
     d="M 2.8437508,1.4026171e-6 C 2.0222278,-0.0013986 1.6813788,1.0456494 1.6874998,1.3125014 L 0.71875,10.59375 C 0.87191502,9.923057 1.336301,9.436672 1.906251,9.4375 l 12.187499,5e-7 c 0.521856,7.58e-4 0.967768,0.416136 1.15625,0.9999995 L 14.40625,1.4062514 C 14.43127,1.0281734 14.01319,0.0329454 13,0.0312514 Z M 2.8144508,0.6386734 H 13.234372 c 0.2535,0.02401 0.623621,0.421617 0.558594,1.117188 l 0.3457,7.0292956 -12.308587,-10e-7 0.5136718,-7.0410136 c 0.05302,-0.715451 0.22684,-0.979888 0.470703,-1.105469 z"
     id="path59"
     sodipodi:nodetypes="ccccccccccccccccc" />
  <path
     style="color:#bebebe;display:inline;overflow:visible;visibility:visible;fill:#bebebe;fill-opacity:1;fill-rule:nonzero;stroke:none;stroke-width:1;marker:none;enable-background:accumulate"
     d="M 3.9375,0 C 4.09956,0.4520086 4.7098675,1.1563244 5.2480469,1.5214844 6.0073665,2.0366902 6.7783621,2.3535156 8,2.3535156 c 1.2216932,0 1.9217777,-0.3333653 2.689453,-0.8496094 C 11.233555,1.1380103 11.8984,0.451172 12.0625,0 Z m 0.40625,0 h 7.3125 C 11.489442,0.5213757 10.848956,0.9942532 10.375,1.3125 9.731444,1.7446276 8.9194783,1.96875 8,1.96875 7.0805214,1.96875 6.2060557,1.7446276 5.5625,1.3125 5.0885438,0.9942532 4.5105577,0.5213757 4.34375,0 Z"
     id="rect3308-5"
     inkscape:connector-curvature="0"
     sodipodi:nodetypes="csssccccsssc" />
  <path
     style="fill:#bebebe;fill-opacity:1;stroke:none"
     d="m 2.28125,10.728813 c -0.8098195,0 -1.4375,0.636083 -1.4375,1.394462 v 0.996043 c 0,0.758378 0.6276805,1.394461 1.4375,1.394461 H 3.3125 C 2.9786031,14.167601 2.7303884,13.769703 2.5625,13.346985 H 2.28125 c -0.058017,0 -0.15625,-0.04202 -0.15625,-0.227667 v -0.996043 c 0,-0.185645 0.098234,-0.227669 0.15625,-0.227669 h 11.4375 c 0.05801,0 0.15625,0.04203 0.15625,0.227669 v 0.996043 c 0,0.185642 -0.09824,0.227667 -0.15625,0.227667 H 13.375 c -0.166319,0.42617 -0.415888,0.81809 -0.75,1.166794 h 1.09375 c 0.80982,0 1.4375,-0.636083 1.4375,-1.394461 v -0.996043 c 0,-0.758379 -0.62768,-1.394462 -1.4375,-1.394462 z m 4.5625,2.618172 c 0.3253773,0.123489 0.7242724,0.19921 1.15625,0.19921 0.4274147,0 0.8016194,-0.078 1.125,-0.19921 z"
     id="path3009"
     inkscape:connector-curvature="0" />
  <path
     inkscape:connector-curvature="0"
     id="path40815"
     style="color:#bebebe;text-indent:0;text-transform:none;fill:#bebebe"
     d="m 3.1530016,12.68667 c 0,1.772122 2.1682063,3.229783 4.825174,3.229783 2.6570614,0 4.8425284,-1.457594 4.8425284,-3.229783 h -1.902415 c 0,1.088206 -1.3084888,1.960932 -2.9401134,1.960932 -1.6316253,0 -2.922759,-0.872726 -2.922759,-1.960932 z" />
  <path
     inkscape:connector-curvature="0"
     id="path40817"
     style="color:#bebebe;text-indent:0;text-transform:none;fill:#bebebe"
     d="m 6.0863239,12.660326 c 0,0.723497 0.8625665,1.314819 1.898831,1.314819 1.0361892,0 1.8830795,-0.591315 1.8830795,-1.314819 H 8.9266763 c 0,0.36761 -0.4150605,0.657417 -0.941559,0.657417 -0.5264984,0 -0.9415584,-0.289807 -0.9415584,-0.657417 z" />
</svg>
