<?xml version="1.0" encoding="UTF-8" standalone="no"?>
<!-- Created with Inkscape (http://www.inkscape.org/) -->

<svg
   xmlns:dc="http://purl.org/dc/elements/1.1/"
   xmlns:cc="http://creativecommons.org/ns#"
   xmlns:rdf="http://www.w3.org/1999/02/22-rdf-syntax-ns#"
   xmlns:svg="http://www.w3.org/2000/svg"
   xmlns="http://www.w3.org/2000/svg"
   xmlns:xlink="http://www.w3.org/1999/xlink"
   xmlns:sodipodi="http://sodipodi.sourceforge.net/DTD/sodipodi-0.dtd"
   xmlns:inkscape="http://www.inkscape.org/namespaces/inkscape"
   version="1.1"
   width="16"
   height="16"
   id="svg3808"
   inkscape:version="0.48.3.1 r9886"
   sodipodi:docname="drive-multidisk-symbolic.svg">
  <sodipodi:namedview
     pagecolor="#ffffff"
     bordercolor="#666666"
     borderopacity="1"
     objecttolerance="10"
     gridtolerance="10"
     guidetolerance="10"
     inkscape:pageopacity="0"
     inkscape:pageshadow="2"
     inkscape:window-width="1366"
     inkscape:window-height="696"
     id="namedview7"
     showgrid="false"
     showguides="true"
     inkscape:guide-bbox="true"
     inkscape:zoom="10.429825"
     inkscape:cx="-2.5550632"
     inkscape:cy="-0.31999004"
     inkscape:window-x="0"
     inkscape:window-y="0"
     inkscape:window-maximized="1"
     inkscape:current-layer="svg3808">
    <inkscape:grid
       type="xygrid"
       id="grid3053" />
  </sodipodi:namedview>
  <defs
     id="defs3810">
    <linearGradient
       inkscape:collect="always"
       xlink:href="#XMLID_19_"
       id="linearGradient12942"
       gradientUnits="userSpaceOnUse"
       gradientTransform="matrix(0,-0.44649484,0.43865775,0,44.314056,98.880451)"
       x1="180.37399"
       y1="-157.96339"
       x2="188.83299"
       y2="-157.96339" />
    <linearGradient
       id="XMLID_19_"
       gradientUnits="userSpaceOnUse"
       x1="180.37399"
       y1="-157.96339"
       x2="188.83299"
       y2="-157.96339"
       gradientTransform="matrix(0,-1.8884098,1.8552635,0,317.52681,460.62003)">
      <stop
         offset="0"
         style="stop-color:#DDDDDD"
         id="stop126" />
      <stop
         offset="0.2738"
         style="stop-color:#BBBBBB"
         id="stop128" />
      <stop
         offset="0.5617"
         style="stop-color:#9F9F9F"
         id="stop130" />
      <stop
         offset="0.8136"
         style="stop-color:#8E8E8E"
         id="stop132" />
      <stop
         offset="1"
         style="stop-color:#888888"
         id="stop134" />
    </linearGradient>
    <linearGradient
       inkscape:collect="always"
       xlink:href="#linearGradient6253-0"
       id="linearGradient12938"
       gradientUnits="userSpaceOnUse"
       gradientTransform="matrix(0.29171261,0,0,0.49647278,-6.3928271,69.131208)"
       x1="-35.539001"
       y1="-144.21001"
       x2="-35.539001"
       y2="-108.32" />
    <linearGradient
       id="linearGradient6253-0">
      <stop
         style="stop-color:#ffffff;stop-opacity:1"
         offset="0"
         id="stop6255-0" />
      <stop
         id="stop6257-8"
         offset="0.64336616"
         style="stop-color:#efefef;stop-opacity:1" />
      <stop
         style="stop-color:#e5e5e5;stop-opacity:1"
         offset="1"
         id="stop6259-5" />
    </linearGradient>
    <linearGradient
       inkscape:collect="always"
       xlink:href="#linearGradient3214"
       id="linearGradient12940"
       gradientUnits="userSpaceOnUse"
       gradientTransform="matrix(0.79749691,0,0,1.368051,-28.610824,-12.086273)"
       x1="7.8513999"
       y1="19.968"
       x2="7.8513999"
       y2="7.0348001" />
    <linearGradient
       x1="7.8513999"
       y1="19.968"
       gradientTransform="matrix(0.64516,0,0,0.97976,0.25806,-6.7257)"
       x2="7.8513999"
       gradientUnits="userSpaceOnUse"
       y2="7.0348001"
       id="linearGradient3214">
      <stop
         offset="0"
         style="stop-color:#848484;stop-opacity:1;"
         id="stop3486" />
      <stop
         offset="1"
         style="stop-color:#bebebe;stop-opacity:1;"
         id="stop3488" />
    </linearGradient>
    <linearGradient
       inkscape:collect="always"
       xlink:href="#linearGradient3217"
       id="linearGradient12936"
       gradientUnits="userSpaceOnUse"
       gradientTransform="matrix(0.86516705,0,0,1.4752569,9.9026508,-95.765287)"
       x1="46.426998"
       y1="101.88"
       x2="46.426998"
       y2="85.788002" />
    <linearGradient
       x1="46.426998"
       y1="101.88"
       gradientTransform="matrix(0.12584,0,0,0.1986,0.13145,-5.1684)"
       x2="46.426998"
       gradientUnits="userSpaceOnUse"
       y2="85.788002"
       id="linearGradient3217">
      <stop
         offset="0"
         style="stop-color:#aaa"
         id="stop2223" />
      <stop
         offset="1"
         style="stop-color:#646464"
         id="stop2219" />
    </linearGradient>
    <linearGradient
       y2="85.788002"
       x2="46.426998"
       y1="101.88"
       x1="46.426998"
       gradientTransform="matrix(0.15555368,0,0,0.26524546,-28.767329,-8.8387032)"
       gradientUnits="userSpaceOnUse"
       id="linearGradient13048"
       xlink:href="#linearGradient3217"
       inkscape:collect="always" />
  </defs>
  <metadata
     id="metadata3813">
    <rdf:RDF>
      <cc:Work
         rdf:about="">
        <dc:format>image/svg+xml</dc:format>
        <dc:type
           rdf:resource="http://purl.org/dc/dcmitype/StillImage" />
        <dc:title />
      </cc:Work>
    </rdf:RDF>
  </metadata>
  <g
     id="g3073">
    <path
       inkscape:connector-curvature="0"
       id="path3061"
       d="m 2.7808478,12.680011 -0.03125,0.40625 c 0.028666,-0.125523 0.069617,-0.239017 0.125,-0.34375 -0.03232,-0.01906 -0.06253,-0.04182 -0.09375,-0.0625 z m 10.4375002,0.03125 c -0.02352,0.01487 -0.03834,0.04855 -0.0625,0.0625 0.03622,0.06835 0.06881,0.141505 0.09375,0.21875 l -0.03125,-0.28125 z"
       style="color:#bebebe;fill:#bebebe;fill-opacity:1;fill-rule:nonzero;stroke:none;stroke-width:1;marker:none;visibility:visible;display:inline;overflow:visible;enable-background:accumulate" />
    <g
       transform="matrix(0.84064754,0,0,0.84064754,1.9246849,0.16373912)"
       id="g3005">
      <path
         style="color:#bebebe;fill:#bebebe;fill-opacity:1;fill-rule:nonzero;stroke:none;stroke-width:1;marker:none;visibility:visible;display:inline;overflow:visible;enable-background:accumulate"
         d="M 2.6465592,-1.4777584e-7 C 1.9149701,-0.00122321 1.6114347,0.93117918 1.6168857,1.1688185 L 0.99332707,10.96133 C 1.1297248,10.364059 1.5432731,9.9309189 2.0508296,9.9316562 l 10.3921074,0.015095 c 0.464728,6.75e-4 0.861825,0.3705818 1.029674,0.8905288 L 12.927351,1.2395703 C 12.949632,0.90288086 12.57732,0.01660197 11.675045,0.01509355 z"
         id="rect3308-5"
         inkscape:connector-curvature="0"
         sodipodi:nodetypes="sccssccss" />
      <path
         style="fill:#bebebe;fill-opacity:1;stroke:none"
         d="m 2.3937859,10.490124 c -0.7211664,-0.0012 -1.2802874,0.617066 -1.2802874,1.358673 l 0,0.992875 c 0,0.741606 0.559121,1.357554 1.2802874,1.358673 l 9.7288351,0.01509 c 0.721167,0.0012 1.280288,-0.617066 1.280288,-1.358673 l 0,-0.992875 c 0,-0.741606 -0.559121,-1.357554 -1.280288,-1.358673 z m 0.010673,1.469832 9.7288351,0.01509 c 0.05166,8.1e-5 0.130642,0.02749 0.130642,0.209027 l 0,0.992875 c 0,0.181536 -0.07898,0.209107 -0.130642,0.209027 l -9.7288351,-0.0151 c -0.051666,-8e-5 -0.1306416,-0.02749 -0.1306416,-0.209026 l 0,-0.992875 c 0,-0.181538 0.078977,-0.209107 0.1306416,-0.209027 z"
         id="path3009"
         inkscape:connector-curvature="0"
         sodipodi:nodetypes="ssssssssssssssssss" />
    </g>
    <path
       inkscape:connector-curvature="0"
       id="path3063"
       d="m 3.3433478,12.930011 c -0.2857117,0.206816 -0.46875,0.516606 -0.46875,0.90625 l 0,0.84375 c 0,0.623429 0.4562533,1.15531 1.0625,1.15625 l 8.1875002,0 c 0.606247,10e-4 1.0625,-0.532819 1.0625,-1.15625 l 0,-0.8125 c 0,-0.38501 -0.188847,-0.729922 -0.46875,-0.9375 -0.193652,0.05932 -0.376546,0.125361 -0.59375,0.125 l -8.1875002,-0.03125 c -0.2097879,-3.26e-4 -0.4035057,-0.03611 -0.59375,-0.09375 z m 0.59375,1 8.1875002,0.03125 c 0.04343,6.8e-5 0.125,0.0036 0.125,0.15625 l 0,0.84375 c 0,0.152608 -0.08157,0.187567 -0.125,0.1875 l -8.1875002,-0.03125 c -0.043433,-6.7e-5 -0.09375,-0.0036 -0.09375,-0.15625 l 0,-0.84375 c 0,-0.152609 0.050318,-0.187567 0.09375,-0.1875 z"
       style="fill:#bebebe;fill-opacity:1;stroke:none" />
  </g>
</svg>
