<?xml version="1.0" encoding="UTF-8" standalone="no"?>
<!-- Created with Inkscape (http://www.inkscape.org/) -->

<svg
   xmlns:dc="http://purl.org/dc/elements/1.1/"
   xmlns:cc="http://creativecommons.org/ns#"
   xmlns:rdf="http://www.w3.org/1999/02/22-rdf-syntax-ns#"
   xmlns:svg="http://www.w3.org/2000/svg"
   xmlns="http://www.w3.org/2000/svg"
   xmlns:sodipodi="http://sodipodi.sourceforge.net/DTD/sodipodi-0.dtd"
   xmlns:inkscape="http://www.inkscape.org/namespaces/inkscape"
   id="svg7384"
   height="16"
   width="16"
   version="1.1"
   inkscape:version="0.48.3.1 r9886"
   sodipodi:docname="input-gaming-symbolic.svg">
  <defs
     id="defs4567" />
  <sodipodi:namedview
     pagecolor="#ffffff"
     bordercolor="#666666"
     borderopacity="1"
     objecttolerance="10"
     gridtolerance="10"
     guidetolerance="10"
     inkscape:pageopacity="0"
     inkscape:pageshadow="2"
     inkscape:window-width="1366"
     inkscape:window-height="714"
     id="namedview4565"
     showgrid="false"
     inkscape:zoom="4"
     inkscape:cx="-28.852193"
     inkscape:cy="-12.470969"
     inkscape:window-x="0"
     inkscape:window-y="22"
     inkscape:window-maximized="1"
     inkscape:current-layer="svg7384" />
  <metadata
     id="metadata90">
    <rdf:RDF>
      <cc:Work
         rdf:about="">
        <dc:format>image/svg+xml</dc:format>
        <dc:type
           rdf:resource="http://purl.org/dc/dcmitype/StillImage" />
        <dc:title>Gnome Symbolic Icon Theme</dc:title>
      </cc:Work>
    </rdf:RDF>
  </metadata>
  <title
     id="title9167">Gnome Symbolic Icon Theme</title>
  <path
     style="fill:#bebebe;fill-opacity:1;stroke:none"
     d="M 4.5 3.75 L 3.5625 4.21875 L 1.90625 4.5625 C 1.3470093 4.6176397 1.0658095 4.855489 0.875 5.15625 L 0.4375 9.4375 L 0.78125 10.84375 L 3.1875 11.5625 L 4.375 12.125 L 7.96875 12.25 L 8.03125 12.25 L 11.625 12.125 L 12.8125 11.5625 L 15.21875 10.84375 L 15.5625 9.4375 L 15.125 5.15625 C 14.934191 4.855489 14.652991 4.6176402 14.09375 4.5625 L 12.4375 4.21875 L 11.5 3.75 L 8.03125 3.84375 L 7.96875 3.84375 L 4.5 3.75 z M 4.59375 5.75 L 10.96875 5.75 L 10.96875 9.875 L 4.59375 9.875 L 4.59375 5.75 z M 2 6.28125 L 3 6.28125 L 3 7.28125 L 4 7.28125 L 4 8.28125 L 3 8.28125 L 3 9.28125 L 2 9.28125 L 2 8.28125 L 1 8.28125 L 1 7.28125 L 2 7.28125 L 2 6.28125 z M 13.96875 6.28125 C 14.352689 6.28125 14.65625 6.55356 14.65625 6.9375 C 14.65625 7.3214395 14.352689 7.6875 13.96875 7.6875 C 13.584809 7.6875 13.25 7.3214395 13.25 6.9375 C 13.25 6.55356 13.584809 6.28125 13.96875 6.28125 z M 12.78125 7.59375 C 13.165191 7.59375 13.46875 7.8973096 13.46875 8.28125 C 13.46875 8.6651895 13.165191 8.96875 12.78125 8.96875 C 12.397311 8.96875 12.03125 8.6651895 12.03125 8.28125 C 12.03125 7.8973096 12.397311 7.59375 12.78125 7.59375 z "
     id="path4647" />
</svg>
