<?xml version="1.0" encoding="UTF-8" standalone="no"?>
<!-- Created with Inkscape (http://www.inkscape.org/) -->

<svg
   xmlns:dc="http://purl.org/dc/elements/1.1/"
   xmlns:cc="http://creativecommons.org/ns#"
   xmlns:rdf="http://www.w3.org/1999/02/22-rdf-syntax-ns#"
   xmlns:svg="http://www.w3.org/2000/svg"
   xmlns="http://www.w3.org/2000/svg"
   xmlns:xlink="http://www.w3.org/1999/xlink"
   xmlns:sodipodi="http://sodipodi.sourceforge.net/DTD/sodipodi-0.dtd"
   xmlns:inkscape="http://www.inkscape.org/namespaces/inkscape"
   width="16"
   height="16"
   id="svg2"
   sodipodi:version="0.32"
   inkscape:version="0.92.2 (unknown)"
   version="1.0"
   sodipodi:docname="media-optical-cd-audio-symbolic.svg"
   inkscape:output_extension="org.inkscape.output.svg.inkscape"
   style="display:inline">
  <defs
     id="defs4">
    <linearGradient
       id="linearGradient3295">
      <stop
         style="stop-color:#559829;stop-opacity:1;"
         offset="0"
         id="stop3297" />
      <stop
         style="stop-color:#86c837;stop-opacity:1;"
         offset="1"
         id="stop3299" />
    </linearGradient>
    <linearGradient
       id="linearGradient3287">
      <stop
         style="stop-color:#cd0000;stop-opacity:1;"
         offset="0"
         id="stop3289" />
      <stop
         style="stop-color:#e55300;stop-opacity:1;"
         offset="1"
         id="stop3291" />
    </linearGradient>
    <linearGradient
       id="linearGradient3279">
      <stop
         style="stop-color:#f08e00;stop-opacity:1;"
         offset="0"
         id="stop3281" />
      <stop
         style="stop-color:#ffd200;stop-opacity:1;"
         offset="1"
         id="stop3283" />
    </linearGradient>
    <linearGradient
       id="linearGradient3271">
      <stop
         style="stop-color:#395d93;stop-opacity:1;"
         offset="0"
         id="stop3273" />
      <stop
         style="stop-color:#6e92c7;stop-opacity:1;"
         offset="1"
         id="stop3275" />
    </linearGradient>
    <linearGradient
       inkscape:collect="always"
       id="linearGradient3327">
      <stop
         style="stop-color:#000000;stop-opacity:1;"
         offset="0"
         id="stop3330" />
      <stop
         style="stop-color:#000000;stop-opacity:0;"
         offset="1"
         id="stop3333" />
    </linearGradient>
    <linearGradient
       inkscape:collect="always"
       xlink:href="#linearGradient3327"
       id="linearGradient3335"
       x1="11.375"
       y1="22"
       x2="11.375"
       y2="-9.817296"
       gradientUnits="userSpaceOnUse" />
    <inkscape:perspective
       sodipodi:type="inkscape:persp3d"
       inkscape:vp_x="0 : 11 : 1"
       inkscape:vp_y="0 : 1000 : 0"
       inkscape:vp_z="22 : 11 : 1"
       inkscape:persp3d-origin="11 : 7.3333333 : 1"
       id="perspective102" />
    <linearGradient
       id="linearGradient4081">
      <stop
         style="stop-color:#aaaaaa;stop-opacity:1;"
         offset="0"
         id="stop4083" />
      <stop
         style="stop-color:#f0f0f0;stop-opacity:1;"
         offset="1"
         id="stop4085" />
    </linearGradient>
    <linearGradient
       id="linearGradient4057">
      <stop
         style="stop-color:#816647;stop-opacity:1;"
         offset="0"
         id="stop4059" />
      <stop
         style="stop-color:#a6845d;stop-opacity:1;"
         offset="1"
         id="stop4061" />
    </linearGradient>
    <linearGradient
       id="linearGradient3929">
      <stop
         style="stop-color:#000000;stop-opacity:1;"
         offset="0"
         id="stop3931" />
      <stop
         style="stop-color:#000000;stop-opacity:0;"
         offset="1"
         id="stop3933" />
    </linearGradient>
    <linearGradient
       inkscape:collect="always"
       xlink:href="#linearGradient3929"
       id="linearGradient4051"
       x1="9.494998"
       y1="15.516565"
       x2="9.494998"
       y2="-4.1786065"
       gradientUnits="userSpaceOnUse" />
    <linearGradient
       inkscape:collect="always"
       xlink:href="#linearGradient4057"
       id="linearGradient4063"
       x1="9.17138"
       y1="21.000002"
       x2="9.17138"
       y2="0.97239029"
       gradientUnits="userSpaceOnUse" />
    <linearGradient
       inkscape:collect="always"
       xlink:href="#linearGradient4081"
       id="linearGradient4089"
       x1="6.101758"
       y1="154.58195"
       x2="6.101758"
       y2="36.995476"
       gradientUnits="userSpaceOnUse" />
    <linearGradient
       inkscape:collect="always"
       xlink:href="#linearGradient4081"
       id="linearGradient4103"
       gradientUnits="userSpaceOnUse"
       x1="6.101758"
       y1="154.58195"
       x2="6.101758"
       y2="36.995476" />
    <linearGradient
       inkscape:collect="always"
       xlink:href="#linearGradient4081"
       id="linearGradient4105"
       gradientUnits="userSpaceOnUse"
       x1="6.101758"
       y1="154.58195"
       x2="6.101758"
       y2="36.995476" />
    <linearGradient
       inkscape:collect="always"
       xlink:href="#linearGradient4081"
       id="linearGradient4107"
       gradientUnits="userSpaceOnUse"
       x1="6.101758"
       y1="154.58195"
       x2="6.101758"
       y2="36.995476" />
    <linearGradient
       inkscape:collect="always"
       xlink:href="#linearGradient4081"
       id="linearGradient4109"
       gradientUnits="userSpaceOnUse"
       x1="6.101758"
       y1="154.58195"
       x2="6.101758"
       y2="36.995476" />
    <linearGradient
       inkscape:collect="always"
       xlink:href="#linearGradient4081"
       id="linearGradient4111"
       gradientUnits="userSpaceOnUse"
       x1="6.101758"
       y1="154.58195"
       x2="6.101758"
       y2="36.995476" />
    <linearGradient
       inkscape:collect="always"
       xlink:href="#linearGradient4081"
       id="linearGradient4113"
       gradientUnits="userSpaceOnUse"
       x1="6.101758"
       y1="154.58195"
       x2="6.101758"
       y2="36.995476" />
    <linearGradient
       inkscape:collect="always"
       xlink:href="#linearGradient4081"
       id="linearGradient4115"
       gradientUnits="userSpaceOnUse"
       x1="6.101758"
       y1="154.58195"
       x2="6.101758"
       y2="36.995476" />
    <linearGradient
       inkscape:collect="always"
       xlink:href="#linearGradient4081"
       id="linearGradient4117"
       gradientUnits="userSpaceOnUse"
       x1="6.101758"
       y1="154.58195"
       x2="6.101758"
       y2="36.995476" />
    <linearGradient
       inkscape:collect="always"
       xlink:href="#linearGradient4081"
       id="linearGradient4119"
       gradientUnits="userSpaceOnUse"
       x1="6.101758"
       y1="154.58195"
       x2="6.101758"
       y2="36.995476" />
    <linearGradient
       inkscape:collect="always"
       xlink:href="#linearGradient4081"
       id="linearGradient4121"
       gradientUnits="userSpaceOnUse"
       x1="6.101758"
       y1="154.58195"
       x2="6.101758"
       y2="36.995476" />
    <linearGradient
       inkscape:collect="always"
       xlink:href="#linearGradient4081"
       id="linearGradient4123"
       gradientUnits="userSpaceOnUse"
       x1="6.101758"
       y1="154.58195"
       x2="6.101758"
       y2="36.995476" />
    <linearGradient
       inkscape:collect="always"
       xlink:href="#linearGradient4081"
       id="linearGradient4125"
       gradientUnits="userSpaceOnUse"
       x1="6.101758"
       y1="154.58195"
       x2="6.101758"
       y2="36.995476" />
    <linearGradient
       inkscape:collect="always"
       xlink:href="#linearGradient4081"
       id="linearGradient4127"
       gradientUnits="userSpaceOnUse"
       x1="6.101758"
       y1="154.58195"
       x2="6.101758"
       y2="36.995476" />
    <linearGradient
       inkscape:collect="always"
       xlink:href="#linearGradient4081"
       id="linearGradient4129"
       gradientUnits="userSpaceOnUse"
       x1="6.101758"
       y1="154.58195"
       x2="6.101758"
       y2="36.995476" />
    <linearGradient
       inkscape:collect="always"
       xlink:href="#linearGradient4081"
       id="linearGradient4132"
       gradientUnits="userSpaceOnUse"
       x1="6.101758"
       y1="154.58195"
       x2="6.101758"
       y2="36.995476"
       gradientTransform="matrix(0.1317916,0,0,0.1317916,11.619896,-1.9882468)" />
    <linearGradient
       inkscape:collect="always"
       xlink:href="#linearGradient4081"
       id="linearGradient4141"
       gradientUnits="userSpaceOnUse"
       x1="6.101758"
       y1="154.58195"
       x2="6.101758"
       y2="36.995476"
       gradientTransform="matrix(0.1317916,0,0,0.1317916,11.619896,-1.9882468)" />
    <linearGradient
       inkscape:collect="always"
       xlink:href="#linearGradient4081"
       id="linearGradient4148"
       gradientUnits="userSpaceOnUse"
       x1="6.101758"
       y1="154.58195"
       x2="6.101758"
       y2="36.995476"
       gradientTransform="matrix(0.1317916,0,0,0.1317916,11.619896,-1.9882468)" />
    <linearGradient
       inkscape:collect="always"
       xlink:href="#linearGradient4081"
       id="linearGradient4158"
       gradientUnits="userSpaceOnUse"
       x1="6.101758"
       y1="154.58195"
       x2="6.101758"
       y2="36.995476"
       gradientTransform="matrix(0.1317916,0,0,0.1317916,11.619896,-1.9882468)" />
    <linearGradient
       inkscape:collect="always"
       xlink:href="#linearGradient4081"
       id="linearGradient4180"
       gradientUnits="userSpaceOnUse"
       x1="6.101758"
       y1="154.58195"
       x2="6.101758"
       y2="36.995476" />
    <linearGradient
       inkscape:collect="always"
       xlink:href="#linearGradient4081"
       id="linearGradient4182"
       gradientUnits="userSpaceOnUse"
       gradientTransform="matrix(0.1317916,0,0,0.1317916,11.619896,-1.9882468)"
       x1="6.101758"
       y1="154.58195"
       x2="6.101758"
       y2="36.995476" />
    <linearGradient
       inkscape:collect="always"
       xlink:href="#linearGradient4081"
       id="linearGradient4184"
       gradientUnits="userSpaceOnUse"
       x1="6.101758"
       y1="154.58195"
       x2="6.101758"
       y2="36.995476" />
    <linearGradient
       inkscape:collect="always"
       xlink:href="#linearGradient4081"
       id="linearGradient4186"
       gradientUnits="userSpaceOnUse"
       gradientTransform="matrix(0.1317916,0,0,0.1317916,11.619896,-1.9882468)"
       x1="6.101758"
       y1="154.58195"
       x2="6.101758"
       y2="36.995476" />
    <linearGradient
       inkscape:collect="always"
       xlink:href="#linearGradient4081"
       id="linearGradient2480"
       gradientUnits="userSpaceOnUse"
       gradientTransform="matrix(0.1256322,0,0,0.1256322,11.921746,-1.0005124)"
       x1="6.101758"
       y1="154.58195"
       x2="6.101758"
       y2="36.995476" />
    <linearGradient
       inkscape:collect="always"
       xlink:href="#linearGradient4081"
       id="linearGradient2483"
       gradientUnits="userSpaceOnUse"
       gradientTransform="matrix(0.1256322,0,0,0.1256322,11.921746,-1.0005124)"
       x1="6.101758"
       y1="154.58195"
       x2="6.101758"
       y2="36.995476" />
    <linearGradient
       inkscape:collect="always"
       xlink:href="#linearGradient4081"
       id="linearGradient2489"
       gradientUnits="userSpaceOnUse"
       gradientTransform="matrix(0.1256322,0,0,0.1256322,11.921746,-1.0005124)"
       x1="6.101758"
       y1="154.58195"
       x2="6.101758"
       y2="36.995476" />
    <linearGradient
       inkscape:collect="always"
       xlink:href="#linearGradient4081"
       id="linearGradient2495"
       gradientUnits="userSpaceOnUse"
       gradientTransform="matrix(0.1256322,0,0,0.1256322,11.921746,-1.0005124)"
       x1="6.101758"
       y1="154.58195"
       x2="6.101758"
       y2="36.995476" />
    <linearGradient
       inkscape:collect="always"
       xlink:href="#linearGradient4081"
       id="linearGradient2498"
       gradientUnits="userSpaceOnUse"
       gradientTransform="matrix(0.1256322,0,0,0.1256322,11.921746,-1.0005124)"
       x1="6.101758"
       y1="154.58195"
       x2="6.101758"
       y2="36.995476" />
    <linearGradient
       inkscape:collect="always"
       xlink:href="#linearGradient4081"
       id="linearGradient2501"
       gradientUnits="userSpaceOnUse"
       gradientTransform="matrix(0.1256322,0,0,0.1256322,11.921746,-1.0005124)"
       x1="6.101758"
       y1="154.58195"
       x2="6.101758"
       y2="36.995476" />
    <linearGradient
       inkscape:collect="always"
       xlink:href="#linearGradient4081"
       id="linearGradient2504"
       gradientUnits="userSpaceOnUse"
       gradientTransform="matrix(0.1256322,0,0,0.1256322,11.921746,-1.0005124)"
       x1="6.101758"
       y1="154.58195"
       x2="6.101758"
       y2="36.995476" />
    <linearGradient
       inkscape:collect="always"
       xlink:href="#linearGradient4081"
       id="linearGradient2506"
       gradientUnits="userSpaceOnUse"
       x1="6.101758"
       y1="154.58195"
       x2="6.101758"
       y2="36.995476" />
    <linearGradient
       inkscape:collect="always"
       xlink:href="#linearGradient4081"
       id="linearGradient2508"
       gradientUnits="userSpaceOnUse"
       gradientTransform="matrix(0.1317916,0,0,0.1317916,11.619896,-1.9882468)"
       x1="6.101758"
       y1="154.58195"
       x2="6.101758"
       y2="36.995476" />
    <linearGradient
       inkscape:collect="always"
       xlink:href="#linearGradient4081"
       id="linearGradient2510"
       gradientUnits="userSpaceOnUse"
       gradientTransform="matrix(0.1317916,0,0,0.1317916,11.619896,-1.9882468)"
       x1="6.101758"
       y1="154.58195"
       x2="6.101758"
       y2="36.995476" />
    <clipPath
       clipPathUnits="userSpaceOnUse"
       id="clipPath4974">
      <path
         id="path4976"
         d="M 16.625,2 C 15.93281,2.046173 15.13978,2.350316 14.5,2.875 13.716105,3.517873 13.079371,5.1522168 13.25,6.0625 13.337976,6.531842 13.692147,7.1029241 14.03125,7.28125 14.662734,7.613335 15.813682,7.0624791 16.875,5.9375 18.021489,4.722239 18.547995,3.383178 18.15625,2.625 17.915497,2.159052 17.31719,1.953827 16.625,2 z M 10.96875,2.71875 C 10.005789,2.719616 9.496306,3.3967078 9.5,4.6875 c 0.00253,0.88392 0.31322,1.6791318 0.71875,1.875 0.301512,0.145631 0.309051,0.1320361 0.6875,0 C 11.533114,6.343793 12.122053,4.8839409 12,3.90625 11.900109,3.106091 11.556193,2.7182209 10.96875,2.71875 z m -3.8125,1.3125 C 6.976067,4.0573035 6.795347,4.173262 6.625,4.34375 6.281636,4.687396 6.277056,4.8747068 6.28125,5.53125 6.286196,6.305553 6.475145,6.7277249 7,7.28125 7.392601,7.695296 7.675716,7.7200481 8.03125,7.34375 8.416388,6.936117 8.535971,6.296057 8.40625,5.59375 8.208416,4.5226825 7.696799,3.9530895 7.15625,4.03125 z M 4.46875,6.375 C 4.281799,6.4054104 4.1133,6.5115553 3.9375,6.6875 3.476154,7.14923 3.798831,8.4188978 4.53125,9.0625 5.405425,9.830669 6.111327,9.1273309 5.8125,7.78125 5.599846,6.8233425 5.029603,6.2837687 4.46875,6.375 z M 12.5,8.0625 C 11.88094,8.0518483 11.187196,8.1034691 10.46875,8.25 8.61799,8.627471 7.13709,9.3254488 6.1875,10.28125 5.640611,10.831715 5.327697,11.341306 5.0625,12.125 c -0.641919,1.896963 0.546896,4.595678 2.8125,6.4375 0.844088,0.686203 1.359152,0.993313 2.21875,1.28125 0.445736,0.149308 0.799163,0.183992 1.625,0.15625 0.946716,-0.03181 1.139252,-0.07408 1.75,-0.375 0.895036,-0.440989 1.909553,-1.461035 2.34375,-2.34375 0.264885,-0.5385 0.307321,-0.768628 0.28125,-1.21875 -0.04452,-0.768578 -0.342658,-0.977756 -1.3125,-0.96875 -1.38452,0.01285 -1.965756,0.333932 -2.25,1.3125 -0.21469,0.739118 -0.452038,1 -0.9375,1 -0.769368,0 -1.5625,-0.611791 -1.5625,-1.25 0,-0.443994 0.715313,-1.10577 2.5,-2.3125 2.514116,-1.69994 3.378489,-2.734111 3.25,-3.875 C 15.64852,8.7901993 14.35718,8.0944552 12.5,8.0625 z"
         style="fill:#ffffff;fill-opacity:1;stroke:none"
         inkscape:connector-curvature="0" />
    </clipPath>
    <clipPath
       clipPathUnits="userSpaceOnUse"
       id="clipPath4995">
      <path
         style="fill:#ffffff;fill-opacity:1;fill-rule:nonzero;stroke:none;display:inline"
         d="M 30,0 30,22 52,22 52,0 30,0 z M 46.625,2 C 47.31719,1.953827 47.915497,2.159052 48.15625,2.625 48.547995,3.383178 48.021489,4.722239 46.875,5.9375 45.813682,7.0624791 44.662734,7.613335 44.03125,7.28125 43.692147,7.1029241 43.337976,6.531842 43.25,6.0625 43.079371,5.1522168 43.716105,3.517873 44.5,2.875 45.13978,2.350316 45.93281,2.046173 46.625,2 z m -5.65625,0.71875 c 0.587443,-5.291e-4 0.931359,0.387341 1.03125,1.1875 0.122053,0.9776909 -0.466886,2.437543 -1.09375,2.65625 -0.378449,0.1320361 -0.385988,0.145631 -0.6875,0 C 39.81322,6.3666318 39.502528,5.57142 39.5,4.6875 39.496306,3.3967078 40.005789,2.719616 40.96875,2.71875 z m -3.8125,1.3125 c 0.540549,-0.078161 1.052166,0.4914325 1.25,1.5625 0.129721,0.702307 0.01014,1.342367 -0.375,1.75 C 37.675716,7.7200481 37.392601,7.695296 37,7.28125 36.475145,6.7277249 36.286196,6.305553 36.28125,5.53125 36.277056,4.8747068 36.281636,4.687396 36.625,4.34375 36.795347,4.173262 36.976067,4.0573035 37.15625,4.03125 z M 34.46875,6.375 C 35.029603,6.2837687 35.599846,6.8233425 35.8125,7.78125 36.111327,9.1273309 35.405425,9.830669 34.53125,9.0625 33.798831,8.4188978 33.476154,7.14923 33.9375,6.6875 34.1133,6.5115553 34.281799,6.4054104 34.46875,6.375 z M 42.5,8.0625 c 1.85718,0.031955 3.14852,0.7276993 3.28125,1.90625 0.128489,1.140889 -0.735884,2.17506 -3.25,3.875 -1.784687,1.20673 -2.5,1.868506 -2.5,2.3125 0,0.638209 0.793132,1.25 1.5625,1.25 0.485462,0 0.72281,-0.260882 0.9375,-1 0.284244,-0.978568 0.86548,-1.299646 2.25,-1.3125 0.969842,-0.009 1.267977,0.200172 1.3125,0.96875 0.02607,0.450122 -0.01637,0.68025 -0.28125,1.21875 -0.434197,0.882715 -1.448714,1.902761 -2.34375,2.34375 -0.610748,0.300916 -0.803284,0.343192 -1.75,0.375 -0.825837,0.02774 -1.179264,-0.0069 -1.625,-0.15625 C 39.234152,19.555813 38.719088,19.248703 37.875,18.5625 35.609396,16.720678 34.420581,14.021963 35.0625,12.125 35.327697,11.341306 35.640611,10.831715 36.1875,10.28125 37.13709,9.3254488 38.61799,8.627471 40.46875,8.25 41.187196,8.1034691 41.88094,8.0518483 42.5,8.0625 z"
         id="path4997"
         inkscape:connector-curvature="0" />
    </clipPath>
    <linearGradient
       inkscape:collect="always"
       xlink:href="#linearGradient4081"
       id="linearGradient5065"
       gradientUnits="userSpaceOnUse"
       x1="11.508813"
       y1="6.667244"
       x2="11.508813"
       y2="2.6882501"
       gradientTransform="translate(-30,-30)" />
    <linearGradient
       inkscape:collect="always"
       xlink:href="#linearGradient4081"
       id="linearGradient5068"
       gradientUnits="userSpaceOnUse"
       x1="17.212025"
       y1="7.3808393"
       x2="17.212025"
       y2="1.9877422"
       gradientTransform="translate(-30,-30)" />
    <linearGradient
       inkscape:collect="always"
       xlink:href="#linearGradient4081"
       id="linearGradient5071"
       gradientUnits="userSpaceOnUse"
       x1="7.3737612"
       y1="7.6049061"
       x2="7.3737612"
       y2="4.0347266"
       gradientTransform="translate(-30,-30)" />
    <linearGradient
       inkscape:collect="always"
       xlink:href="#linearGradient4081"
       id="linearGradient5074"
       gradientUnits="userSpaceOnUse"
       x1="4.9496975"
       y1="9.3934212"
       x2="4.9496975"
       y2="6.3640523"
       gradientTransform="translate(-30,-30)" />
    <linearGradient
       inkscape:collect="always"
       xlink:href="#linearGradient4081"
       id="linearGradient5077"
       gradientUnits="userSpaceOnUse"
       x1="13"
       y1="20"
       x2="13"
       y2="7.9960599"
       gradientTransform="translate(-30,-30)" />
    <linearGradient
       inkscape:collect="always"
       xlink:href="#linearGradient4081"
       id="linearGradient3345"
       gradientUnits="userSpaceOnUse"
       x1="6.8391123"
       y1="16.300354"
       x2="6.8391123"
       y2="6.0528178" />
    <linearGradient
       inkscape:collect="always"
       xlink:href="#linearGradient4081"
       id="linearGradient3355"
       gradientUnits="userSpaceOnUse"
       x1="12.316144"
       y1="18.468353"
       x2="12.316144"
       y2="3.4817097" />
    <linearGradient
       inkscape:collect="always"
       xlink:href="#linearGradient4081"
       id="linearGradient3357"
       gradientUnits="userSpaceOnUse"
       x1="18.764908"
       y1="21"
       x2="18.764908"
       y2="0.96705598" />
    <linearGradient
       inkscape:collect="always"
       xlink:href="#linearGradient4081"
       id="linearGradient3522"
       gradientUnits="userSpaceOnUse"
       x1="6.8391123"
       y1="16.300354"
       x2="6.8391123"
       y2="6.0528178"
       gradientTransform="translate(1,0)" />
    <linearGradient
       inkscape:collect="always"
       xlink:href="#linearGradient4081"
       id="linearGradient3527"
       gradientUnits="userSpaceOnUse"
       gradientTransform="translate(1,0)"
       x1="6.8391123"
       y1="16.300354"
       x2="6.8391123"
       y2="6.0528178" />
    <linearGradient
       inkscape:collect="always"
       xlink:href="#linearGradient4081"
       id="linearGradient3538"
       gradientUnits="userSpaceOnUse"
       gradientTransform="translate(1,0)"
       x1="16.5"
       y1="19.542921"
       x2="16.5"
       y2="2.5" />
    <linearGradient
       inkscape:collect="always"
       xlink:href="#linearGradient4081"
       id="linearGradient3540"
       gradientUnits="userSpaceOnUse"
       gradientTransform="translate(1,0)"
       x1="14.524625"
       y1="17.41902"
       x2="14.524625"
       y2="4.625" />
    <linearGradient
       inkscape:collect="always"
       xlink:href="#linearGradient4081"
       id="linearGradient3542"
       gradientUnits="userSpaceOnUse"
       gradientTransform="translate(1,0)"
       x1="10.50519"
       y1="15.28125"
       x2="10.50519"
       y2="6.7458849" />
    <linearGradient
       inkscape:collect="always"
       xlink:href="#linearGradient4081"
       id="linearGradient3552"
       gradientUnits="userSpaceOnUse"
       gradientTransform="translate(1,0)"
       x1="16.5"
       y1="19.542921"
       x2="16.5"
       y2="2.5" />
    <linearGradient
       inkscape:collect="always"
       xlink:href="#linearGradient4081"
       id="linearGradient3690"
       x1="9"
       y1="20"
       x2="9"
       y2="4"
       gradientUnits="userSpaceOnUse" />
    <linearGradient
       inkscape:collect="always"
       xlink:href="#linearGradient4081"
       id="linearGradient3696"
       gradientUnits="userSpaceOnUse"
       x1="9"
       y1="20"
       x2="9"
       y2="4"
       gradientTransform="translate(0,1)" />
    <linearGradient
       inkscape:collect="always"
       xlink:href="#linearGradient4081"
       id="linearGradient3698"
       gradientUnits="userSpaceOnUse"
       x1="9"
       y1="20"
       x2="9"
       y2="4" />
    <linearGradient
       inkscape:collect="always"
       xlink:href="#linearGradient4081"
       id="linearGradient3694"
       x1="39"
       y1="19"
       x2="39"
       y2="2.9687805"
       gradientUnits="userSpaceOnUse"
       gradientTransform="translate(-30,0)" />
    <linearGradient
       inkscape:collect="always"
       xlink:href="#linearGradient4081"
       id="linearGradient3700"
       gradientUnits="userSpaceOnUse"
       x1="39"
       y1="19"
       x2="39"
       y2="2.9687805"
       gradientTransform="translate(0,1)" />
    <linearGradient
       inkscape:collect="always"
       xlink:href="#linearGradient4081"
       id="linearGradient3702"
       gradientUnits="userSpaceOnUse"
       x1="39"
       y1="19"
       x2="39"
       y2="2.9687805" />
    <linearGradient
       inkscape:collect="always"
       xlink:href="#linearGradient4081"
       id="linearGradient3716"
       x1="-29"
       y1="31"
       x2="-9"
       y2="31"
       gradientUnits="userSpaceOnUse" />
    <linearGradient
       inkscape:collect="always"
       xlink:href="#linearGradient4081"
       id="linearGradient3719"
       gradientUnits="userSpaceOnUse"
       x1="-20"
       y1="38"
       x2="-20"
       y2="23.964331"
       gradientTransform="translate(30,-20)" />
    <linearGradient
       inkscape:collect="always"
       xlink:href="#linearGradient4081"
       id="linearGradient3699"
       x1="-19"
       y1="38"
       x2="-19"
       y2="23.964331"
       gradientUnits="userSpaceOnUse"
       gradientTransform="translate(30,-20)" />
    <linearGradient
       inkscape:collect="always"
       xlink:href="#linearGradient4081"
       id="linearGradient3713"
       x1="10"
       y1="17"
       x2="10"
       y2="5"
       gradientUnits="userSpaceOnUse" />
    <inkscape:perspective
       id="perspective3725"
       inkscape:persp3d-origin="0.5 : 0.33333333 : 1"
       inkscape:vp_z="1 : 0.5 : 1"
       inkscape:vp_y="0 : 1000 : 0"
       inkscape:vp_x="0 : 0.5 : 1"
       sodipodi:type="inkscape:persp3d" />
    <linearGradient
       inkscape:collect="always"
       xlink:href="#StandardGradient"
       id="linearGradient2925"
       gradientUnits="userSpaceOnUse"
       x1="12.366608"
       y1="5.0428452"
       x2="12.366608"
       y2="17.071365" />
    <linearGradient
       inkscape:collect="always"
       xlink:href="#linearGradient4081"
       id="linearGradient2929"
       gradientUnits="userSpaceOnUse"
       x1="10"
       y1="19.429329"
       x2="10"
       y2="6.2307611" />
    <linearGradient
       inkscape:collect="always"
       xlink:href="#linearGradient4081"
       id="linearGradient3711"
       gradientUnits="userSpaceOnUse"
       x1="10"
       y1="19.429329"
       x2="10"
       y2="6.2307611"
       gradientTransform="translate(0,1)" />
    <linearGradient
       inkscape:collect="always"
       xlink:href="#linearGradient4081"
       id="linearGradient3714"
       gradientUnits="userSpaceOnUse"
       x1="10"
       y1="19.429329"
       x2="10"
       y2="6.2307611" />
    <inkscape:perspective
       id="perspective4153"
       inkscape:persp3d-origin="0.5 : 0.33333333 : 1"
       inkscape:vp_z="1 : 0.5 : 1"
       inkscape:vp_y="0 : 1000 : 0"
       inkscape:vp_x="0 : 0.5 : 1"
       sodipodi:type="inkscape:persp3d" />
    <linearGradient
       y2="3.5"
       x2="59"
       y1="3.5"
       x1="54"
       gradientTransform="translate(-45,53)"
       gradientUnits="userSpaceOnUse"
       id="linearGradient3829"
       xlink:href="#SpecificGradient"
       inkscape:collect="always" />
    <linearGradient
       id="SpecificGradient"
       x1="10.761708"
       y1="3.9999998"
       x2="10.761708"
       y2="18.011395"
       gradientUnits="userSpaceOnUse">
      <stop
         style="stop-color:#a50000;stop-opacity:1;"
         offset="0"
         id="stop3292" />
      <stop
         style="stop-color:#e73800;stop-opacity:1;"
         offset="1"
         id="stop3294" />
    </linearGradient>
    <linearGradient
       inkscape:collect="always"
       xlink:href="#StandardGradient"
       id="linearGradient3833"
       x1="54"
       y1="3.5"
       x2="59"
       y2="3.5"
       gradientUnits="userSpaceOnUse"
       gradientTransform="translate(-53,53)" />
    <linearGradient
       id="StandardGradient"
       gradientTransform="matrix(0.9984539,0,0,0.9984539,-0.0459776,0.05767558)"
       x1="10.710332"
       y1="1.9963325"
       x2="10.710332"
       y2="18.974037"
       gradientUnits="userSpaceOnUse">
      <stop
         style="stop-color:#000000;stop-opacity:0.86274511;"
         offset="0"
         id="stop3277" />
      <stop
         style="stop-color:#000000;stop-opacity:0.47058824;"
         offset="1"
         id="stop3279" />
    </linearGradient>
    <linearGradient
       inkscape:collect="always"
       xlink:href="#StandardGradient"
       id="linearGradient3745"
       gradientUnits="userSpaceOnUse"
       x1="12.366608"
       y1="5.0428452"
       x2="12.366608"
       y2="17.071365"
       gradientTransform="translate(0,1)" />
    <linearGradient
       inkscape:collect="always"
       xlink:href="#StandardGradient"
       id="linearGradient3749"
       gradientUnits="userSpaceOnUse"
       x1="12.366608"
       y1="5.0428452"
       x2="12.366608"
       y2="17.071365" />
    <linearGradient
       inkscape:collect="always"
       xlink:href="#StandardGradient"
       id="linearGradient3754"
       gradientUnits="userSpaceOnUse"
       x1="12.366608"
       y1="5.0428452"
       x2="12.366608"
       y2="17.071365"
       gradientTransform="translate(-30,0)" />
    <clipPath
       clipPathUnits="userSpaceOnUse"
       id="clipPath3759">
      <path
         style="fill:#ff00ff;fill-opacity:1;stroke:none;display:inline"
         d="m -30,0 0,22 22,0 0,-22 -22,0 z m 3.5,5 15,0 c 0.128113,0 0.256446,0.032557 0.375,0.0625 0.04246,0.010723 0.0841,0.019088 0.125,0.03125 0.0309,0.010698 0.06382,0.018633 0.09375,0.03125 0.0093,0.00331 0.02205,-0.00349 0.03125,0 0.07999,0.035583 0.14695,0.076574 0.21875,0.125 0.159551,0.1076133 0.298637,0.2466992 0.40625,0.40625 0.05381,0.079775 0.08715,0.160211 0.125,0.25 0.02149,0.050583 0.0466,0.102888 0.0625,0.15625 C -10.02247,6.1980709 -10,6.3511125 -10,6.5 l 0,9 c 0,0.103875 -0.01133,0.214678 -0.03125,0.3125 -0.0018,0.0099 0.002,0.02145 0,0.03125 -0.01813,0.08908 -0.06115,0.16751 -0.09375,0.25 -0.04676,0.110916 -0.0855,0.21722 -0.15625,0.3125 -0.215616,0.290377 -0.537978,0.48752 -0.90625,0.5625 C -11.285322,16.98867 -11.396125,17 -11.5,17 l -15,0 c -0.128112,0 -0.256446,-0.03256 -0.375,-0.0625 -0.347369,-0.08773 -0.64112,-0.280379 -0.84375,-0.5625 -0.0081,-0.01129 -0.02345,-0.01973 -0.03125,-0.03125 -0.05919,-0.08775 -0.08524,-0.1815 -0.125,-0.28125 -0.02582,-0.06237 -0.04519,-0.12116 -0.0625,-0.1875 C -27.96744,15.756446 -28,15.628113 -28,15.5 l 0,-9 c 0,-0.1281125 0.03256,-0.2564458 0.0625,-0.375 0.01317,-0.051955 0.01288,-0.106676 0.03125,-0.15625 0.04174,-0.1132701 0.08989,-0.21411 0.15625,-0.3125 0.19191,-0.2845322 0.475149,-0.494129 0.8125,-0.59375 C -26.801929,5.022465 -26.648887,5 -26.5,5 z m 0,1.03125 c -0.262593,0 -0.44197,0.159457 -0.46875,0.40625 l 7.9375,7.96875 8,-7.96875 C -11.058033,6.190707 -11.237407,6.03125 -11.5,6.03125 l -0.59375,0 -6.9375,6.9375 -6.9375,-6.9375 -0.53125,0 z m 11.65625,5.8125 -0.71875,0.71875 3.40625,3.40625 0.65625,0 c 0.237492,0 0.38803,-0.137016 0.4375,-0.34375 l -3.78125,-3.78125 z m -8.40625,0.0625 -3.6875,3.6875 c 0.0398,0.224924 0.188423,0.375 0.4375,0.375 l 0.59375,0 3.375,-3.34375 -0.71875,-0.71875 z"
         id="path3761"
         inkscape:connector-curvature="0" />
    </clipPath>
    <linearGradient
       inkscape:collect="always"
       xlink:href="#StandardGradient"
       id="linearGradient3960"
       gradientUnits="userSpaceOnUse"
       x1="12.366608"
       y1="5.0428452"
       x2="12.366608"
       y2="17.071365"
       gradientTransform="translate(0,1)" />
    <linearGradient
       inkscape:collect="always"
       xlink:href="#StandardGradient"
       id="linearGradient3962"
       gradientUnits="userSpaceOnUse"
       x1="12.366608"
       y1="5.0428452"
       x2="12.366608"
       y2="17.071365" />
    <linearGradient
       inkscape:collect="always"
       xlink:href="#StandardGradient"
       id="linearGradient3967"
       gradientUnits="userSpaceOnUse"
       x1="12.366608"
       y1="5.0428452"
       x2="12.366608"
       y2="17.071365"
       gradientTransform="translate(0,1)" />
    <linearGradient
       inkscape:collect="always"
       xlink:href="#StandardGradient"
       id="linearGradient3971"
       gradientUnits="userSpaceOnUse"
       x1="12.366608"
       y1="5.0428452"
       x2="12.366608"
       y2="17.071365" />
    <linearGradient
       inkscape:collect="always"
       xlink:href="#StandardGradient"
       id="linearGradient3976"
       gradientUnits="userSpaceOnUse"
       x1="12.366608"
       y1="5.0428452"
       x2="12.366608"
       y2="17.071365" />
    <linearGradient
       inkscape:collect="always"
       xlink:href="#StandardGradient"
       id="linearGradient3980"
       gradientUnits="userSpaceOnUse"
       x1="12.366608"
       y1="5.0428452"
       x2="12.366608"
       y2="17.071365" />
    <linearGradient
       inkscape:collect="always"
       xlink:href="#StandardGradient"
       id="linearGradient3985"
       gradientUnits="userSpaceOnUse"
       x1="12.366608"
       y1="5.0428452"
       x2="12.366608"
       y2="17.071365" />
  </defs>
  <sodipodi:namedview
     id="base"
     pagecolor="#ffffff"
     bordercolor="#e7e7e7"
     borderopacity="1"
     inkscape:pageopacity="0.0"
     inkscape:pageshadow="2"
     inkscape:zoom="23.265729"
     inkscape:cx="5.1834711"
     inkscape:cy="8.5341482"
     inkscape:document-units="px"
     inkscape:current-layer="layer1"
     showgrid="false"
     inkscape:showpageshadow="false"
     showguides="true"
     inkscape:guide-bbox="true"
     inkscape:window-width="1366"
     inkscape:window-height="697"
     inkscape:window-x="0"
     inkscape:window-y="0"
     inkscape:window-maximized="1"
     inkscape:snap-global="false">
    <sodipodi:guide
       orientation="1,0"
       position="0,112"
       id="guide2383"
       inkscape:locked="false" />
    <sodipodi:guide
       orientation="0,1"
       position="26.278146,128"
       id="guide2385"
       inkscape:locked="false" />
    <sodipodi:guide
       orientation="1,0"
       position="128,54.082119"
       id="guide2387"
       inkscape:locked="false" />
    <sodipodi:guide
       orientation="0,1"
       position="78.156291,0"
       id="guide2389"
       inkscape:locked="false" />
    <sodipodi:guide
       orientation="0,1"
       position="60.863576,64.084768"
       id="guide2391"
       inkscape:locked="false" />
    <inkscape:grid
       type="xygrid"
       id="grid3672"
       visible="true"
       enabled="true"
       empspacing="8"
       snapvisiblegridlinesonly="true" />
  </sodipodi:namedview>
  <metadata
     id="metadata7">
    <rdf:RDF>
      <cc:Work
         rdf:about="">
        <dc:format>image/svg+xml</dc:format>
        <dc:type
           rdf:resource="http://purl.org/dc/dcmitype/StillImage" />
        <dc:title></dc:title>
      </cc:Work>
    </rdf:RDF>
  </metadata>
  <g
     inkscape:label="Icon"
     inkscape:groupmode="layer"
     id="layer1"
     style="display:inline"
     transform="translate(0,-6)">
    <path
       style="color:#000000;display:inline;overflow:visible;visibility:visible;opacity:1;fill:#bebebe;fill-opacity:1;fill-rule:nonzero;stroke:none;stroke-width:0.76352888;marker:none;enable-background:accumulate"
       d="M 7.9882812 0.36523438 C 7.7361385 0.36559928 7.4880397 0.37809575 7.2421875 0.40234375 C 7.2396475 0.40259555 7.236915 0.40404688 7.234375 0.40429688 C 7.0925089 0.41852227 6.9515879 0.44270095 6.8105469 0.46484375 C 6.7085767 0.48085265 6.6072349 0.49156995 6.5058594 0.51171875 C 6.3499064 0.54271505 6.1951535 0.58616083 6.0410156 0.62695312 C 5.9530482 0.65028873 5.8620812 0.67089842 5.7753906 0.69726562 C 5.660463 0.73214313 5.5490445 0.77599405 5.4355469 0.81640625 C 5.3076138 0.86211035 5.1774114 0.90284463 5.0527344 0.95507812 C 4.9679758 0.99048992 4.8864261 1.0336643 4.8027344 1.0722656 C 4.6642153 1.1363307 4.5245047 1.1995122 4.390625 1.2714844 C 4.2931616 1.3238074 4.1991027 1.3845483 4.1035156 1.4414062 C 3.9824112 1.5135284 3.8588417 1.5835963 3.7421875 1.6621094 C 3.5920507 1.7631577 3.4509017 1.8731979 3.3085938 1.984375 C 3.2586819 2.0233891 3.2053995 2.0572279 3.15625 2.0976562 C 2.9650356 2.2549424 2.7802313 2.4228713 2.6015625 2.6015625 C 2.5984625 2.6046625 2.5948869 2.6082281 2.5917969 2.6113281 C 2.5886669 2.6144781 2.5851612 2.6179437 2.5820312 2.6210938 C 2.5415632 2.6618437 2.5081092 2.704669 2.46875 2.7460938 C 2.3344981 2.8873893 2.2033876 3.0310308 2.0820312 3.1796875 C 2.0109375 3.2668475 1.9481177 3.3589217 1.8808594 3.4492188 C 1.8031942 3.5534541 1.7200924 3.6565001 1.6484375 3.7636719 C 1.5724708 3.8773178 1.5074184 3.9973934 1.4375 4.1152344 C 1.377997 4.2156344 1.3142678 4.3155238 1.2597656 4.4179688 C 1.2024956 4.5254568 1.1537652 4.6375759 1.1015625 4.7480469 C 1.0469325 4.8639499 0.98987597 4.9777481 0.94140625 5.0957031 C 0.89966945 5.1970161 0.8636205 5.3008489 0.82617188 5.4042969 C 0.77849077 5.5364329 0.72960845 5.6686664 0.68945312 5.8027344 C 0.65735203 5.9096424 0.63295335 6.0200813 0.60546875 6.1289062 C 0.57270935 6.2589202 0.53558583 6.3882812 0.50976562 6.5195312 C 0.48296823 6.6557962 0.46670832 6.7948328 0.44726562 6.9335938 C 0.43217193 7.0410618 0.41285495 7.1479534 0.40234375 7.2558594 C 0.38401775 7.4453994 0.3792096 7.6386942 0.375 7.8320312 C 0.373694 7.8918612 0.36514238 7.9518777 0.36523438 8.0117188 C 0.36559934 8.2638607 0.37809555 8.5119605 0.40234375 8.7578125 C 0.40259564 8.7603125 0.40404288 8.763025 0.40429688 8.765625 C 0.41851858 8.907494 0.44270085 9.0484121 0.46484375 9.1894531 C 0.48085265 9.2914231 0.49156995 9.3927656 0.51171875 9.4941406 C 0.54271505 9.6500936 0.58616082 9.8048474 0.62695312 9.9589844 C 0.65028873 10.046954 0.67089843 10.137919 0.69726562 10.224609 C 0.73214313 10.339537 0.77599407 10.450955 0.81640625 10.564453 C 0.86211035 10.692386 0.90284453 10.822589 0.95507812 10.947266 C 0.99048992 11.032026 1.0336643 11.113575 1.0722656 11.197266 C 1.1363306 11.335785 1.1995122 11.475495 1.2714844 11.609375 C 1.3238074 11.706835 1.3845483 11.800896 1.4414062 11.896484 C 1.5135283 12.017588 1.5835963 12.141158 1.6621094 12.257812 C 1.7631577 12.407948 1.8731979 12.549098 1.984375 12.691406 C 2.023389 12.741316 2.0572281 12.7946 2.0976562 12.84375 C 2.2549423 13.034964 2.4228713 13.219768 2.6015625 13.398438 C 2.6046625 13.401537 2.6082281 13.405103 2.6113281 13.408203 C 2.6144781 13.411303 2.6179437 13.414869 2.6210938 13.417969 C 2.6618448 13.458439 2.7046689 13.49189 2.7460938 13.53125 C 2.8873885 13.665501 3.0310308 13.796613 3.1796875 13.917969 C 3.2668475 13.989059 3.3589217 14.051882 3.4492188 14.119141 C 3.5534541 14.196801 3.6565001 14.279907 3.7636719 14.351562 C 3.8773178 14.427533 3.9973936 14.492582 4.1152344 14.5625 C 4.2156344 14.622 4.3155237 14.685731 4.4179688 14.740234 C 4.5254559 14.797504 4.6375751 14.846234 4.7480469 14.898438 C 4.8639494 14.953067 4.9777481 15.010124 5.0957031 15.058594 C 5.1970165 15.100334 5.3008486 15.136378 5.4042969 15.173828 C 5.5364329 15.221508 5.6686665 15.270395 5.8027344 15.310547 C 5.9096427 15.342647 6.0200816 15.367051 6.1289062 15.394531 C 6.2589206 15.427291 6.3882805 15.464414 6.5195312 15.490234 C 6.6557958 15.517034 6.7948326 15.533294 6.9335938 15.552734 C 7.0410622 15.567824 7.1479531 15.587146 7.2558594 15.597656 C 7.445399 15.615986 7.6386937 15.62079 7.8320312 15.625 C 7.8918602 15.6263 7.9518786 15.634866 8.0117188 15.634766 C 8.2638615 15.634402 8.5119603 15.621906 8.7578125 15.597656 C 8.7602925 15.597412 8.763145 15.596003 8.765625 15.595703 C 8.9074947 15.581483 9.0484121 15.557296 9.1894531 15.535156 C 9.2914184 15.519166 9.3935565 15.508261 9.4941406 15.488281 C 9.6500936 15.457281 9.8048469 15.413841 9.9589844 15.373047 C 10.046952 15.349717 10.137919 15.329104 10.224609 15.302734 C 10.339537 15.267854 10.450955 15.224006 10.564453 15.183594 C 10.692386 15.137894 10.822589 15.097159 10.947266 15.044922 C 11.032026 15.009512 11.113575 14.966331 11.197266 14.927734 C 11.335785 14.863664 11.475495 14.800488 11.609375 14.728516 C 11.706835 14.676196 11.800896 14.615452 11.896484 14.558594 C 12.017588 14.486474 12.141157 14.416404 12.257812 14.337891 C 12.261513 14.335391 12.265851 14.332578 12.269531 14.330078 C 12.46674 14.196847 12.656339 14.056839 12.839844 13.90625 C 12.841144 13.90515 12.84245 13.903444 12.84375 13.902344 C 13.034964 13.745058 13.219769 13.577128 13.398438 13.398438 C 13.404637 13.392238 13.411789 13.385126 13.417969 13.378906 C 13.458439 13.338156 13.49189 13.295334 13.53125 13.253906 C 13.665501 13.112611 13.796613 12.96897 13.917969 12.820312 C 13.989059 12.733152 14.051882 12.641078 14.119141 12.550781 C 14.196801 12.446546 14.279906 12.3435 14.351562 12.236328 C 14.427532 12.122682 14.492582 12.002607 14.5625 11.884766 C 14.622 11.784366 14.685731 11.684477 14.740234 11.582031 C 14.797504 11.474545 14.846234 11.362425 14.898438 11.251953 C 14.953067 11.13605 15.010124 11.022252 15.058594 10.904297 C 15.100334 10.802984 15.136378 10.699152 15.173828 10.595703 C 15.221508 10.463567 15.270395 10.331334 15.310547 10.197266 C 15.342647 10.090357 15.367051 9.9799188 15.394531 9.8710938 C 15.427291 9.7410798 15.464414 9.6117187 15.490234 9.4804688 C 15.517034 9.3442038 15.533294 9.2051673 15.552734 9.0664062 C 15.567824 8.9589382 15.587146 8.8520466 15.597656 8.7441406 C 15.615986 8.5546006 15.62079 8.3613057 15.625 8.1679688 C 15.6263 8.1081388 15.634866 8.0481222 15.634766 7.9882812 C 15.634402 7.7361393 15.621906 7.4880395 15.597656 7.2421875 C 15.597404 7.2396875 15.596003 7.236975 15.595703 7.234375 C 15.581483 7.092506 15.557296 6.9515879 15.535156 6.8105469 C 15.519746 6.7123169 15.509354 6.612572 15.490234 6.515625 C 15.489506 6.511925 15.489081 6.5095394 15.488281 6.5058594 C 15.457281 6.3499064 15.413841 6.1951526 15.373047 6.0410156 C 15.349717 5.9530456 15.329104 5.8620806 15.302734 5.7753906 C 15.267854 5.6604626 15.224006 5.5490449 15.183594 5.4355469 C 15.137894 5.3076139 15.097159 5.1774114 15.044922 5.0527344 C 15.009512 4.9679744 14.966341 4.8864254 14.927734 4.8027344 C 14.912821 4.770486 14.895665 4.739308 14.880859 4.7070312 L 14.791016 7.1289062 L 14.773438 7.9824219 A 0.813253 0.813253 0 0 1 14.767578 8.0625 L 14.748047 8.2285156 A 0.813253 0.813253 0 0 1 14.744141 8.2636719 C 14.727081 8.3687769 14.702102 8.4671309 14.673828 8.5605469 L 14.675781 8.5605469 C 14.665945 8.5930593 14.647789 8.6152926 14.636719 8.6464844 C 14.569426 9.2785655 14.413543 9.9062493 14.166016 10.509766 L 13.359375 10.1875 C 13.347563 10.195365 13.336193 10.203143 13.324219 10.210938 L 14.173828 10.564453 C 13.495759 12.201456 12.201456 13.466463 10.564453 14.144531 L 10.394531 13.744141 L 10.572266 14.169922 C 8.9376308 14.853681 7.1295854 14.838384 5.4902344 14.166016 L 6.5371094 11.546875 C 7.4410539 11.917624 8.4942403 11.924388 9.4667969 11.517578 L 9.4765625 11.541016 C 9.7947397 11.407501 10.083813 11.214745 10.355469 10.996094 C 10.313945 10.994901 10.271794 11.00032 10.230469 10.998047 C 9.7454503 10.971359 9.3033655 10.859001 8.8925781 10.705078 C 8.8480145 10.717613 8.804529 10.735715 8.7597656 10.748047 C 8.6943396 10.766147 8.6336232 10.793161 8.5664062 10.806641 C 8.3830602 10.843431 8.1960931 10.862631 8.0097656 10.863281 C 7.9697456 10.863421 7.9306224 10.853052 7.890625 10.851562 C 7.7416883 10.845862 7.5940373 10.835471 7.4472656 10.806641 C 7.3661546 10.790751 7.289438 10.762824 7.2109375 10.740234 C 7.1074972 10.710584 7.0045246 10.684108 6.9042969 10.642578 C 6.8226599 10.608698 6.7494927 10.562489 6.671875 10.521484 C 6.586761 10.476654 6.4991614 10.438768 6.4179688 10.384766 C 6.2926814 10.301436 6.1787174 10.203049 6.0683594 10.101562 C 6.0409444 10.076362 6.0090759 10.05772 5.9824219 10.03125 C 5.9811519 10.02995 5.9797856 10.028544 5.9785156 10.027344 C 5.9785156 10.027344 5.9765625 10.025391 5.9765625 10.025391 C 5.8444832 9.8933106 5.7234978 9.7475299 5.6191406 9.5917969 C 5.5635326 9.5087869 5.5264641 9.4172361 5.4804688 9.3300781 C 5.4408097 9.2551781 5.3943495 9.1860789 5.3613281 9.1074219 C 5.3140511 8.9946139 5.2841489 8.8766426 5.2519531 8.7597656 C 5.2338541 8.6943356 5.2068414 8.6336232 5.1933594 8.5664062 C 5.1565714 8.3830592 5.1373678 8.1960936 5.1367188 8.0097656 C 5.1367081 8.0066656 5.1367195 8.0031 5.1367188 8 C 5.1367188 7.96237 5.1470225 7.927946 5.1484375 7.890625 C 5.1541275 7.741688 5.1645374 7.5940376 5.1933594 7.4472656 C 5.1948894 7.4394656 5.1937207 7.429675 5.1953125 7.421875 C 5.2296605 7.25402 5.2775102 7.0912759 5.3398438 6.9355469 C 5.3454638 6.9214969 5.3554811 6.9085013 5.3613281 6.8945312 C 5.4237721 6.7455872 5.4983247 6.603629 5.5839844 6.46875 C 5.6112884 6.4257 5.6440011 6.3875571 5.6738281 6.3457031 C 5.7506381 6.2379981 5.8331795 6.1349555 5.9238281 6.0390625 C 5.9405181 6.0213925 5.951525 5.9997619 5.96875 5.9824219 C 5.993792 5.9572019 6.0230791 5.9401556 6.0488281 5.9160156 C 6.1380651 5.8324656 6.2326532 5.7572339 6.3320312 5.6855469 C 6.3617313 5.6640569 6.3876678 5.6334413 6.4179688 5.6132812 C 6.4400087 5.5986213 6.4639771 5.5901519 6.4863281 5.5761719 C 6.5650591 5.5269119 6.6468498 5.4849234 6.7304688 5.4433594 C 6.7966457 5.4105094 6.8616598 5.3770294 6.9296875 5.3496094 C 7.0049535 5.3191994 7.0838266 5.2955344 7.1621094 5.2714844 C 7.2432274 5.2466544 7.3236176 5.2225381 7.40625 5.2050781 C 7.47803 5.1898681 7.5493923 5.1796519 7.6230469 5.1699219 C 7.7168279 5.1575519 7.809889 5.1495644 7.9042969 5.1464844 C 7.9364939 5.1453844 7.967543 5.1367188 8 5.1367188 C 8.033775 5.1367188 8.0661174 5.1453844 8.0996094 5.1464844 C 8.2185432 5.1505844 8.3353377 5.1627706 8.453125 5.1816406 C 8.520988 5.1924806 8.5881145 5.20323 8.6542969 5.21875 C 8.764868 5.2447 8.8730055 5.2810725 8.9804688 5.3203125 C 9.0365867 5.3408525 9.0940271 5.3569694 9.1484375 5.3808594 C 9.2630413 5.4310894 9.3738529 5.4945759 9.4824219 5.5605469 C 9.508333 5.5763216 9.5338926 5.5910091 9.5605469 5.6054688 C 9.6275656 5.5841824 9.6951529 5.553937 9.7617188 5.5351562 C 9.981827 5.4729912 10.215714 5.4206386 10.458984 5.3847656 A 0.813253 0.813253 0 0 0 10.460938 5.3847656 C 10.465073 5.3841666 10.491916 5.3786509 10.533203 5.3730469 C 10.5773 5.3671039 10.60995 5.3655443 10.628906 5.3632812 A 0.813253 0.813253 0 0 1 10.632812 5.3613281 C 10.667502 5.3573697 10.711308 5.3534797 10.751953 5.3496094 C 10.394088 4.9870641 9.9593142 4.6869027 9.4609375 4.4804688 L 10.564453 1.8261719 C 11.121537 2.0569234 11.631457 2.3639381 12.09375 2.7265625 L 12.09375 2.3398438 L 12.09375 1.5625 C 12.023782 1.5206492 11.954758 1.4790283 11.884766 1.4375 C 11.784366 1.3779969 11.684477 1.3142678 11.582031 1.2597656 C 11.474545 1.2024957 11.362425 1.1537652 11.251953 1.1015625 C 11.13605 1.0469323 11.022252 0.98987605 10.904297 0.94140625 C 10.802984 0.89966945 10.699152 0.86362058 10.595703 0.82617188 C 10.463567 0.77849077 10.331334 0.72960842 10.197266 0.68945312 C 10.090357 0.65735202 9.9799181 0.63295335 9.8710938 0.60546875 C 9.7410794 0.57270935 9.6117194 0.53558583 9.4804688 0.50976562 C 9.3442041 0.48296832 9.2051675 0.46670823 9.0664062 0.44726562 C 8.9589378 0.43217193 8.8520469 0.41285495 8.7441406 0.40234375 C 8.554601 0.38401775 8.3613063 0.3792095 8.1679688 0.375 C 8.1081394 0.3736937 8.0481215 0.36514248 7.9882812 0.36523438 z M 7.9667969 1.3222656 C 8.828214 1.3245456 9.6900898 1.4978007 10.509766 1.8339844 L 9.4628906 4.453125 C 8.5589461 4.082377 7.5057597 4.0756069 6.5332031 4.4824219 L 6.5234375 4.4589844 C 5.6276363 4.8348844 4.8816028 5.5706385 4.4804688 6.5390625 L 1.8261719 5.4355469 C 2.5042409 3.7985446 3.7985439 2.5335375 5.4355469 1.8554688 L 5.6054688 2.2558594 L 5.4277344 1.8300781 C 6.2450515 1.488199 7.1053799 1.31999 7.9667969 1.3222656 z M 1.8339844 5.4902344 L 4.453125 6.5371094 C 4.0823772 7.4410544 4.0756062 8.4942399 4.4824219 9.4667969 L 4.4589844 9.4765625 C 4.8348841 10.372363 5.570638 11.118397 6.5390625 11.519531 L 5.4355469 14.173828 C 3.7985443 13.495759 2.5335376 12.201456 1.8554688 10.564453 L 2.2558594 10.394531 L 1.8300781 10.572266 C 1.1463197 8.9376306 1.1616152 7.1295864 1.8339844 5.4902344 z M 7.9277344 6.0957031 L 7.9277344 6.0976562 C 7.8696224 6.0998563 7.8125246 6.1060013 7.7558594 6.1132812 C 7.7046594 6.1198813 7.6541438 6.1279119 7.6035156 6.1386719 C 7.5484226 6.1504119 7.4946256 6.1633075 7.4414062 6.1796875 C 7.3914713 6.1949975 7.3398014 6.2109787 7.2910156 6.2304688 C 7.2380176 6.2517488 7.1872407 6.2769544 7.1367188 6.3027344 C 7.0908188 6.3260644 7.0442761 6.3516363 7 6.3789062 C 6.955703 6.4062762 6.9167947 6.4359969 6.875 6.4667969 C 6.821239 6.5062069 6.7670809 6.547992 6.7167969 6.59375 C 6.6771849 6.62996 6.6380037 6.6676363 6.6015625 6.7070312 C 6.5464905 6.7665512 6.4992168 6.8301453 6.453125 6.8945312 C 6.433236 6.9223312 6.409033 6.9476825 6.390625 6.9765625 C 6.332871 7.0671525 6.2850982 7.1607375 6.2441406 7.2578125 C 6.2393106 7.2692725 6.2311635 7.2794856 6.2265625 7.2910156 C 6.1830525 7.4000786 6.1514953 7.5130431 6.1289062 7.6269531 C 6.1092192 7.7260031 6.1033794 7.8297888 6.0996094 7.9335938 C 6.0988122 7.9560538 6.0918069 7.97753 6.0917969 8 C 6.0917969 8.0013 6.0917944 8.0027062 6.0917969 8.0039062 C 6.0917988 8.0051063 6.0917926 8.0066125 6.0917969 8.0078125 C 6.0922974 8.1363065 6.1061564 8.2614965 6.1308594 8.3828125 C 6.1333194 8.3949125 6.1359819 8.4059488 6.1386719 8.4179688 C 6.1628979 8.5261138 6.1946071 8.6320709 6.2363281 8.7324219 C 6.2777011 8.8321919 6.3316091 8.9265673 6.390625 9.0195312 C 6.398325 9.0316613 6.4041064 9.0446506 6.4121094 9.0566406 C 6.4671014 9.1390606 6.5323865 9.2161456 6.6015625 9.2910156 C 6.6186735 9.3095356 6.6325666 9.3317794 6.6503906 9.3496094 C 6.6819776 9.3811994 6.7182254 9.4062269 6.7519531 9.4355469 C 6.8154191 9.4906969 6.8807099 9.5464309 6.9492188 9.5917969 C 6.9739217 9.6081269 7.0018548 9.6195756 7.0273438 9.6347656 C 7.1100817 9.6840556 7.1934823 9.7318981 7.28125 9.7675781 C 7.327185 9.7862981 7.3761887 9.79734 7.4238281 9.8125 C 7.4737002 9.8282882 7.5238871 9.8418455 7.5742188 9.8554688 C 7.4548366 9.7200852 7.3300671 9.5600981 7.2285156 9.3554688 C 7.1684908 9.2344837 7.1344402 9.1282551 7.109375 9.0488281 C 7.0762565 8.9455101 7.0511226 8.8378661 7.0351562 8.7363281 C 7.020522 8.6438891 7.0078125 8.5323271 7.0078125 8.4082031 C 7.0078125 8.2809117 7.0270022 8.1524623 7.0488281 8.0253906 C 7.0486358 8.0180928 7.0449473 8.011213 7.0449219 8.0039062 C 7.0449219 8.0039062 7.0449219 8.0019531 7.0449219 8.0019531 C 7.0449219 8.0019531 7.0449219 8 7.0449219 8 C 7.0449304 7.9746788 7.0579863 7.9509729 7.0605469 7.9257812 C 7.0606855 7.9251439 7.0604077 7.9244654 7.0605469 7.9238281 C 7.0605989 7.9231916 7.0604945 7.9225115 7.0605469 7.921875 C 7.0608547 7.9204715 7.0621895 7.9193719 7.0625 7.9179688 C 7.0704412 7.8231523 7.0825432 7.728029 7.1191406 7.6386719 C 7.1203306 7.6357719 7.1198847 7.6317062 7.1210938 7.6289062 C 7.1392326 7.5860211 7.1722947 7.5539765 7.1972656 7.515625 C 7.2060117 7.4951917 7.2093831 7.4733307 7.21875 7.453125 C 7.2834721 7.312375 7.3065194 7.286999 7.2695312 7.359375 A 0.813253 0.813253 0 0 1 7.2714844 7.3554688 C 7.3526936 7.1983527 7.4484674 7.0537817 7.5546875 6.9179688 C 7.6094979 6.8478777 7.6772741 6.761859 7.7636719 6.671875 C 7.8343032 6.598027 7.9107411 6.5259531 7.9921875 6.4550781 C 8.1258732 6.338874 8.2709643 6.2392608 8.4179688 6.1425781 C 8.3762354 6.1336727 8.3352139 6.1276106 8.2929688 6.1210938 C 8.2230628 6.1102338 8.1522766 6.1007062 8.0800781 6.0976562 C 8.0291591 6.0955562 7.9786556 6.0938031 7.9277344 6.0957031 z "
       transform="translate(0,6)"
       id="path3123" />
    <path
       style="fill:#bebebe;fill-opacity:1;stroke:none;stroke-width:1.41131616"
       d="M 12.90625 0 L 12.90625 0.8359375 L 12.90625 2.3398438 L 12.90625 6.3535156 L 13.007812 6.5371094 C 12.935833 6.4980894 12.865314 6.4615784 12.787109 6.4277344 C 12.712609 6.3951644 12.638372 6.37133 12.558594 6.34375 C 12.399043 6.28861 12.232728 6.2405642 12.054688 6.2070312 C 11.876648 6.1735012 11.687189 6.1523481 11.494141 6.1425781 C 11.30115 6.1328781 11.103012 6.1360437 10.898438 6.1523438 C 10.840967 6.1568438 10.781313 6.1634519 10.724609 6.1699219 C 10.696979 6.1732219 10.670028 6.1759875 10.642578 6.1796875 C 10.621748 6.1824875 10.598845 6.1864531 10.578125 6.1894531 C 10.37468 6.2194531 10.172303 6.2627783 9.9824219 6.3164062 C 9.7900339 6.3706863 9.6077657 6.4342076 9.4335938 6.5097656 C 9.3463337 6.5476356 9.257722 6.5862833 9.1757812 6.6289062 C 9.0940232 6.6714262 9.013409 6.718708 8.9375 6.765625 C 8.7878383 6.858515 8.64929 6.9606624 8.5253906 7.0683594 C 8.4627276 7.1228894 8.4068282 7.176591 8.3515625 7.234375 C 8.2944465 7.293705 8.2440734 7.3556137 8.1953125 7.4179688 C 8.1175635 7.5173788 8.0488037 7.6227586 7.9941406 7.7285156 C 7.9831326 7.7500556 7.9670373 7.7712088 7.9570312 7.7929688 C 7.8646743 7.9911927 7.8203125 8.195483 7.8203125 8.40625 C 7.8203125 8.47567 7.8273176 8.54259 7.8378906 8.609375 C 7.8483346 8.676175 7.8642876 8.7368973 7.8847656 8.8007812 C 7.9057946 8.8675212 7.9256572 8.9309036 7.9570312 8.9941406 C 8.0171953 9.1153726 8.1002844 9.2254972 8.1953125 9.3320312 C 8.2428315 9.3852912 8.296112 9.4391382 8.3515625 9.4882812 C 8.4624637 9.5865813 8.5870809 9.6738723 8.7265625 9.7539062 C 8.7961125 9.7940063 8.8615937 9.8281973 8.9375 9.8632812 C 9.3202613 10.041348 9.7701297 10.157745 10.275391 10.185547 C 10.475509 10.196557 10.686488 10.192581 10.898438 10.175781 C 11.5911 10.121051 12.230537 9.921099 12.742188 9.625 C 12.888516 9.54074 13.02035 9.4498145 13.144531 9.3515625 C 13.204751 9.3036925 13.263927 9.2460355 13.318359 9.1953125 C 13.347109 9.1685125 13.373351 9.1408312 13.400391 9.1132812 C 13.425941 9.0872713 13.460385 9.0656825 13.484375 9.0390625 C 13.485775 9.0373625 13.482975 9.0311969 13.484375 9.0292969 C 13.582985 8.9192289 13.660551 8.8104112 13.730469 8.6914062 C 13.800389 8.5724042 13.858543 8.4496247 13.896484 8.3242188 C 13.915464 8.2615088 13.931046 8.1966405 13.941406 8.1328125 L 13.960938 7.9667969 L 13.978516 7.1054688 L 14.162109 2.2011719 L 14.162109 2.1289062 L 14.482422 2.0917969 L 16 1.8476562 L 16 0 L 12.90625 0 z "
       transform="translate(0,6)"
       id="path149" />
    <g
       inkscape:label="Layer 1"
       id="layer1-6"
       transform="translate(6.0413968,4.6390687)" />
  </g>
</svg>
