<?xml version="1.0" encoding="UTF-8" standalone="no"?>
<!-- Created with Inkscape (http://www.inkscape.org/) -->

<svg
   xmlns:dc="http://purl.org/dc/elements/1.1/"
   xmlns:cc="http://creativecommons.org/ns#"
   xmlns:rdf="http://www.w3.org/1999/02/22-rdf-syntax-ns#"
   xmlns:svg="http://www.w3.org/2000/svg"
   xmlns="http://www.w3.org/2000/svg"
   xmlns:xlink="http://www.w3.org/1999/xlink"
   xmlns:sodipodi="http://sodipodi.sourceforge.net/DTD/sodipodi-0.dtd"
   xmlns:inkscape="http://www.inkscape.org/namespaces/inkscape"
   width="16"
   height="16"
   id="svg2"
   sodipodi:version="0.32"
   inkscape:version="0.92.2 (unknown)"
   version="1.0"
   sodipodi:docname="media-optical-symbolic.svg"
   inkscape:output_extension="org.inkscape.output.svg.inkscape"
   style="display:inline">
  <defs
     id="defs4">
    <linearGradient
       id="linearGradient3295">
      <stop
         style="stop-color:#559829;stop-opacity:1;"
         offset="0"
         id="stop3297" />
      <stop
         style="stop-color:#86c837;stop-opacity:1;"
         offset="1"
         id="stop3299" />
    </linearGradient>
    <linearGradient
       id="linearGradient3287">
      <stop
         style="stop-color:#cd0000;stop-opacity:1;"
         offset="0"
         id="stop3289" />
      <stop
         style="stop-color:#e55300;stop-opacity:1;"
         offset="1"
         id="stop3291" />
    </linearGradient>
    <linearGradient
       id="linearGradient3279">
      <stop
         style="stop-color:#f08e00;stop-opacity:1;"
         offset="0"
         id="stop3281" />
      <stop
         style="stop-color:#ffd200;stop-opacity:1;"
         offset="1"
         id="stop3283" />
    </linearGradient>
    <linearGradient
       id="linearGradient3271">
      <stop
         style="stop-color:#395d93;stop-opacity:1;"
         offset="0"
         id="stop3273" />
      <stop
         style="stop-color:#6e92c7;stop-opacity:1;"
         offset="1"
         id="stop3275" />
    </linearGradient>
    <linearGradient
       inkscape:collect="always"
       id="linearGradient3327">
      <stop
         style="stop-color:#000000;stop-opacity:1;"
         offset="0"
         id="stop3330" />
      <stop
         style="stop-color:#000000;stop-opacity:0;"
         offset="1"
         id="stop3333" />
    </linearGradient>
    <linearGradient
       inkscape:collect="always"
       xlink:href="#linearGradient3327"
       id="linearGradient3335"
       x1="11.375"
       y1="22"
       x2="11.375"
       y2="-9.817296"
       gradientUnits="userSpaceOnUse" />
    <inkscape:perspective
       sodipodi:type="inkscape:persp3d"
       inkscape:vp_x="0 : 11 : 1"
       inkscape:vp_y="0 : 1000 : 0"
       inkscape:vp_z="22 : 11 : 1"
       inkscape:persp3d-origin="11 : 7.3333333 : 1"
       id="perspective102" />
    <linearGradient
       id="linearGradient4081">
      <stop
         style="stop-color:#aaaaaa;stop-opacity:1;"
         offset="0"
         id="stop4083" />
      <stop
         style="stop-color:#f0f0f0;stop-opacity:1;"
         offset="1"
         id="stop4085" />
    </linearGradient>
    <linearGradient
       id="linearGradient4057">
      <stop
         style="stop-color:#816647;stop-opacity:1;"
         offset="0"
         id="stop4059" />
      <stop
         style="stop-color:#a6845d;stop-opacity:1;"
         offset="1"
         id="stop4061" />
    </linearGradient>
    <linearGradient
       id="linearGradient3929">
      <stop
         style="stop-color:#000000;stop-opacity:1;"
         offset="0"
         id="stop3931" />
      <stop
         style="stop-color:#000000;stop-opacity:0;"
         offset="1"
         id="stop3933" />
    </linearGradient>
    <linearGradient
       inkscape:collect="always"
       xlink:href="#linearGradient3929"
       id="linearGradient4051"
       x1="9.494998"
       y1="15.516565"
       x2="9.494998"
       y2="-4.1786065"
       gradientUnits="userSpaceOnUse" />
    <linearGradient
       inkscape:collect="always"
       xlink:href="#linearGradient4057"
       id="linearGradient4063"
       x1="9.17138"
       y1="21.000002"
       x2="9.17138"
       y2="0.97239029"
       gradientUnits="userSpaceOnUse" />
    <linearGradient
       inkscape:collect="always"
       xlink:href="#linearGradient4081"
       id="linearGradient4089"
       x1="6.101758"
       y1="154.58195"
       x2="6.101758"
       y2="36.995476"
       gradientUnits="userSpaceOnUse" />
    <linearGradient
       inkscape:collect="always"
       xlink:href="#linearGradient4081"
       id="linearGradient4103"
       gradientUnits="userSpaceOnUse"
       x1="6.101758"
       y1="154.58195"
       x2="6.101758"
       y2="36.995476" />
    <linearGradient
       inkscape:collect="always"
       xlink:href="#linearGradient4081"
       id="linearGradient4105"
       gradientUnits="userSpaceOnUse"
       x1="6.101758"
       y1="154.58195"
       x2="6.101758"
       y2="36.995476" />
    <linearGradient
       inkscape:collect="always"
       xlink:href="#linearGradient4081"
       id="linearGradient4107"
       gradientUnits="userSpaceOnUse"
       x1="6.101758"
       y1="154.58195"
       x2="6.101758"
       y2="36.995476" />
    <linearGradient
       inkscape:collect="always"
       xlink:href="#linearGradient4081"
       id="linearGradient4109"
       gradientUnits="userSpaceOnUse"
       x1="6.101758"
       y1="154.58195"
       x2="6.101758"
       y2="36.995476" />
    <linearGradient
       inkscape:collect="always"
       xlink:href="#linearGradient4081"
       id="linearGradient4111"
       gradientUnits="userSpaceOnUse"
       x1="6.101758"
       y1="154.58195"
       x2="6.101758"
       y2="36.995476" />
    <linearGradient
       inkscape:collect="always"
       xlink:href="#linearGradient4081"
       id="linearGradient4113"
       gradientUnits="userSpaceOnUse"
       x1="6.101758"
       y1="154.58195"
       x2="6.101758"
       y2="36.995476" />
    <linearGradient
       inkscape:collect="always"
       xlink:href="#linearGradient4081"
       id="linearGradient4115"
       gradientUnits="userSpaceOnUse"
       x1="6.101758"
       y1="154.58195"
       x2="6.101758"
       y2="36.995476" />
    <linearGradient
       inkscape:collect="always"
       xlink:href="#linearGradient4081"
       id="linearGradient4117"
       gradientUnits="userSpaceOnUse"
       x1="6.101758"
       y1="154.58195"
       x2="6.101758"
       y2="36.995476" />
    <linearGradient
       inkscape:collect="always"
       xlink:href="#linearGradient4081"
       id="linearGradient4119"
       gradientUnits="userSpaceOnUse"
       x1="6.101758"
       y1="154.58195"
       x2="6.101758"
       y2="36.995476" />
    <linearGradient
       inkscape:collect="always"
       xlink:href="#linearGradient4081"
       id="linearGradient4121"
       gradientUnits="userSpaceOnUse"
       x1="6.101758"
       y1="154.58195"
       x2="6.101758"
       y2="36.995476" />
    <linearGradient
       inkscape:collect="always"
       xlink:href="#linearGradient4081"
       id="linearGradient4123"
       gradientUnits="userSpaceOnUse"
       x1="6.101758"
       y1="154.58195"
       x2="6.101758"
       y2="36.995476" />
    <linearGradient
       inkscape:collect="always"
       xlink:href="#linearGradient4081"
       id="linearGradient4125"
       gradientUnits="userSpaceOnUse"
       x1="6.101758"
       y1="154.58195"
       x2="6.101758"
       y2="36.995476" />
    <linearGradient
       inkscape:collect="always"
       xlink:href="#linearGradient4081"
       id="linearGradient4127"
       gradientUnits="userSpaceOnUse"
       x1="6.101758"
       y1="154.58195"
       x2="6.101758"
       y2="36.995476" />
    <linearGradient
       inkscape:collect="always"
       xlink:href="#linearGradient4081"
       id="linearGradient4129"
       gradientUnits="userSpaceOnUse"
       x1="6.101758"
       y1="154.58195"
       x2="6.101758"
       y2="36.995476" />
    <linearGradient
       inkscape:collect="always"
       xlink:href="#linearGradient4081"
       id="linearGradient4132"
       gradientUnits="userSpaceOnUse"
       x1="6.101758"
       y1="154.58195"
       x2="6.101758"
       y2="36.995476"
       gradientTransform="matrix(0.1317916,0,0,0.1317916,11.619896,-1.9882468)" />
    <linearGradient
       inkscape:collect="always"
       xlink:href="#linearGradient4081"
       id="linearGradient4141"
       gradientUnits="userSpaceOnUse"
       x1="6.101758"
       y1="154.58195"
       x2="6.101758"
       y2="36.995476"
       gradientTransform="matrix(0.1317916,0,0,0.1317916,11.619896,-1.9882468)" />
    <linearGradient
       inkscape:collect="always"
       xlink:href="#linearGradient4081"
       id="linearGradient4148"
       gradientUnits="userSpaceOnUse"
       x1="6.101758"
       y1="154.58195"
       x2="6.101758"
       y2="36.995476"
       gradientTransform="matrix(0.1317916,0,0,0.1317916,11.619896,-1.9882468)" />
    <linearGradient
       inkscape:collect="always"
       xlink:href="#linearGradient4081"
       id="linearGradient4158"
       gradientUnits="userSpaceOnUse"
       x1="6.101758"
       y1="154.58195"
       x2="6.101758"
       y2="36.995476"
       gradientTransform="matrix(0.1317916,0,0,0.1317916,11.619896,-1.9882468)" />
    <linearGradient
       inkscape:collect="always"
       xlink:href="#linearGradient4081"
       id="linearGradient4180"
       gradientUnits="userSpaceOnUse"
       x1="6.101758"
       y1="154.58195"
       x2="6.101758"
       y2="36.995476" />
    <linearGradient
       inkscape:collect="always"
       xlink:href="#linearGradient4081"
       id="linearGradient4182"
       gradientUnits="userSpaceOnUse"
       gradientTransform="matrix(0.1317916,0,0,0.1317916,11.619896,-1.9882468)"
       x1="6.101758"
       y1="154.58195"
       x2="6.101758"
       y2="36.995476" />
    <linearGradient
       inkscape:collect="always"
       xlink:href="#linearGradient4081"
       id="linearGradient4184"
       gradientUnits="userSpaceOnUse"
       x1="6.101758"
       y1="154.58195"
       x2="6.101758"
       y2="36.995476" />
    <linearGradient
       inkscape:collect="always"
       xlink:href="#linearGradient4081"
       id="linearGradient4186"
       gradientUnits="userSpaceOnUse"
       gradientTransform="matrix(0.1317916,0,0,0.1317916,11.619896,-1.9882468)"
       x1="6.101758"
       y1="154.58195"
       x2="6.101758"
       y2="36.995476" />
    <linearGradient
       inkscape:collect="always"
       xlink:href="#linearGradient4081"
       id="linearGradient2480"
       gradientUnits="userSpaceOnUse"
       gradientTransform="matrix(0.1256322,0,0,0.1256322,11.921746,-1.0005124)"
       x1="6.101758"
       y1="154.58195"
       x2="6.101758"
       y2="36.995476" />
    <linearGradient
       inkscape:collect="always"
       xlink:href="#linearGradient4081"
       id="linearGradient2483"
       gradientUnits="userSpaceOnUse"
       gradientTransform="matrix(0.1256322,0,0,0.1256322,11.921746,-1.0005124)"
       x1="6.101758"
       y1="154.58195"
       x2="6.101758"
       y2="36.995476" />
    <linearGradient
       inkscape:collect="always"
       xlink:href="#linearGradient4081"
       id="linearGradient2489"
       gradientUnits="userSpaceOnUse"
       gradientTransform="matrix(0.1256322,0,0,0.1256322,11.921746,-1.0005124)"
       x1="6.101758"
       y1="154.58195"
       x2="6.101758"
       y2="36.995476" />
    <linearGradient
       inkscape:collect="always"
       xlink:href="#linearGradient4081"
       id="linearGradient2495"
       gradientUnits="userSpaceOnUse"
       gradientTransform="matrix(0.1256322,0,0,0.1256322,11.921746,-1.0005124)"
       x1="6.101758"
       y1="154.58195"
       x2="6.101758"
       y2="36.995476" />
    <linearGradient
       inkscape:collect="always"
       xlink:href="#linearGradient4081"
       id="linearGradient2498"
       gradientUnits="userSpaceOnUse"
       gradientTransform="matrix(0.1256322,0,0,0.1256322,11.921746,-1.0005124)"
       x1="6.101758"
       y1="154.58195"
       x2="6.101758"
       y2="36.995476" />
    <linearGradient
       inkscape:collect="always"
       xlink:href="#linearGradient4081"
       id="linearGradient2501"
       gradientUnits="userSpaceOnUse"
       gradientTransform="matrix(0.1256322,0,0,0.1256322,11.921746,-1.0005124)"
       x1="6.101758"
       y1="154.58195"
       x2="6.101758"
       y2="36.995476" />
    <linearGradient
       inkscape:collect="always"
       xlink:href="#linearGradient4081"
       id="linearGradient2504"
       gradientUnits="userSpaceOnUse"
       gradientTransform="matrix(0.1256322,0,0,0.1256322,11.921746,-1.0005124)"
       x1="6.101758"
       y1="154.58195"
       x2="6.101758"
       y2="36.995476" />
    <linearGradient
       inkscape:collect="always"
       xlink:href="#linearGradient4081"
       id="linearGradient2506"
       gradientUnits="userSpaceOnUse"
       x1="6.101758"
       y1="154.58195"
       x2="6.101758"
       y2="36.995476" />
    <linearGradient
       inkscape:collect="always"
       xlink:href="#linearGradient4081"
       id="linearGradient2508"
       gradientUnits="userSpaceOnUse"
       gradientTransform="matrix(0.1317916,0,0,0.1317916,11.619896,-1.9882468)"
       x1="6.101758"
       y1="154.58195"
       x2="6.101758"
       y2="36.995476" />
    <linearGradient
       inkscape:collect="always"
       xlink:href="#linearGradient4081"
       id="linearGradient2510"
       gradientUnits="userSpaceOnUse"
       gradientTransform="matrix(0.1317916,0,0,0.1317916,11.619896,-1.9882468)"
       x1="6.101758"
       y1="154.58195"
       x2="6.101758"
       y2="36.995476" />
    <clipPath
       clipPathUnits="userSpaceOnUse"
       id="clipPath4974">
      <path
         id="path4976"
         d="M 16.625,2 C 15.93281,2.046173 15.13978,2.350316 14.5,2.875 13.716105,3.517873 13.079371,5.1522168 13.25,6.0625 13.337976,6.531842 13.692147,7.1029241 14.03125,7.28125 14.662734,7.613335 15.813682,7.0624791 16.875,5.9375 18.021489,4.722239 18.547995,3.383178 18.15625,2.625 17.915497,2.159052 17.31719,1.953827 16.625,2 z M 10.96875,2.71875 C 10.005789,2.719616 9.496306,3.3967078 9.5,4.6875 c 0.00253,0.88392 0.31322,1.6791318 0.71875,1.875 0.301512,0.145631 0.309051,0.1320361 0.6875,0 C 11.533114,6.343793 12.122053,4.8839409 12,3.90625 11.900109,3.106091 11.556193,2.7182209 10.96875,2.71875 z m -3.8125,1.3125 C 6.976067,4.0573035 6.795347,4.173262 6.625,4.34375 6.281636,4.687396 6.277056,4.8747068 6.28125,5.53125 6.286196,6.305553 6.475145,6.7277249 7,7.28125 7.392601,7.695296 7.675716,7.7200481 8.03125,7.34375 8.416388,6.936117 8.535971,6.296057 8.40625,5.59375 8.208416,4.5226825 7.696799,3.9530895 7.15625,4.03125 z M 4.46875,6.375 C 4.281799,6.4054104 4.1133,6.5115553 3.9375,6.6875 3.476154,7.14923 3.798831,8.4188978 4.53125,9.0625 5.405425,9.830669 6.111327,9.1273309 5.8125,7.78125 5.599846,6.8233425 5.029603,6.2837687 4.46875,6.375 z M 12.5,8.0625 C 11.88094,8.0518483 11.187196,8.1034691 10.46875,8.25 8.61799,8.627471 7.13709,9.3254488 6.1875,10.28125 5.640611,10.831715 5.327697,11.341306 5.0625,12.125 c -0.641919,1.896963 0.546896,4.595678 2.8125,6.4375 0.844088,0.686203 1.359152,0.993313 2.21875,1.28125 0.445736,0.149308 0.799163,0.183992 1.625,0.15625 0.946716,-0.03181 1.139252,-0.07408 1.75,-0.375 0.895036,-0.440989 1.909553,-1.461035 2.34375,-2.34375 0.264885,-0.5385 0.307321,-0.768628 0.28125,-1.21875 -0.04452,-0.768578 -0.342658,-0.977756 -1.3125,-0.96875 -1.38452,0.01285 -1.965756,0.333932 -2.25,1.3125 -0.21469,0.739118 -0.452038,1 -0.9375,1 -0.769368,0 -1.5625,-0.611791 -1.5625,-1.25 0,-0.443994 0.715313,-1.10577 2.5,-2.3125 2.514116,-1.69994 3.378489,-2.734111 3.25,-3.875 C 15.64852,8.7901993 14.35718,8.0944552 12.5,8.0625 z"
         style="fill:#ffffff;fill-opacity:1;stroke:none"
         inkscape:connector-curvature="0" />
    </clipPath>
    <clipPath
       clipPathUnits="userSpaceOnUse"
       id="clipPath4995">
      <path
         style="fill:#ffffff;fill-opacity:1;fill-rule:nonzero;stroke:none;display:inline"
         d="M 30,0 30,22 52,22 52,0 30,0 z M 46.625,2 C 47.31719,1.953827 47.915497,2.159052 48.15625,2.625 48.547995,3.383178 48.021489,4.722239 46.875,5.9375 45.813682,7.0624791 44.662734,7.613335 44.03125,7.28125 43.692147,7.1029241 43.337976,6.531842 43.25,6.0625 43.079371,5.1522168 43.716105,3.517873 44.5,2.875 45.13978,2.350316 45.93281,2.046173 46.625,2 z m -5.65625,0.71875 c 0.587443,-5.291e-4 0.931359,0.387341 1.03125,1.1875 0.122053,0.9776909 -0.466886,2.437543 -1.09375,2.65625 -0.378449,0.1320361 -0.385988,0.145631 -0.6875,0 C 39.81322,6.3666318 39.502528,5.57142 39.5,4.6875 39.496306,3.3967078 40.005789,2.719616 40.96875,2.71875 z m -3.8125,1.3125 c 0.540549,-0.078161 1.052166,0.4914325 1.25,1.5625 0.129721,0.702307 0.01014,1.342367 -0.375,1.75 C 37.675716,7.7200481 37.392601,7.695296 37,7.28125 36.475145,6.7277249 36.286196,6.305553 36.28125,5.53125 36.277056,4.8747068 36.281636,4.687396 36.625,4.34375 36.795347,4.173262 36.976067,4.0573035 37.15625,4.03125 z M 34.46875,6.375 C 35.029603,6.2837687 35.599846,6.8233425 35.8125,7.78125 36.111327,9.1273309 35.405425,9.830669 34.53125,9.0625 33.798831,8.4188978 33.476154,7.14923 33.9375,6.6875 34.1133,6.5115553 34.281799,6.4054104 34.46875,6.375 z M 42.5,8.0625 c 1.85718,0.031955 3.14852,0.7276993 3.28125,1.90625 0.128489,1.140889 -0.735884,2.17506 -3.25,3.875 -1.784687,1.20673 -2.5,1.868506 -2.5,2.3125 0,0.638209 0.793132,1.25 1.5625,1.25 0.485462,0 0.72281,-0.260882 0.9375,-1 0.284244,-0.978568 0.86548,-1.299646 2.25,-1.3125 0.969842,-0.009 1.267977,0.200172 1.3125,0.96875 0.02607,0.450122 -0.01637,0.68025 -0.28125,1.21875 -0.434197,0.882715 -1.448714,1.902761 -2.34375,2.34375 -0.610748,0.300916 -0.803284,0.343192 -1.75,0.375 -0.825837,0.02774 -1.179264,-0.0069 -1.625,-0.15625 C 39.234152,19.555813 38.719088,19.248703 37.875,18.5625 35.609396,16.720678 34.420581,14.021963 35.0625,12.125 35.327697,11.341306 35.640611,10.831715 36.1875,10.28125 37.13709,9.3254488 38.61799,8.627471 40.46875,8.25 41.187196,8.1034691 41.88094,8.0518483 42.5,8.0625 z"
         id="path4997"
         inkscape:connector-curvature="0" />
    </clipPath>
    <linearGradient
       inkscape:collect="always"
       xlink:href="#linearGradient4081"
       id="linearGradient5065"
       gradientUnits="userSpaceOnUse"
       x1="11.508813"
       y1="6.667244"
       x2="11.508813"
       y2="2.6882501"
       gradientTransform="translate(-30,-30)" />
    <linearGradient
       inkscape:collect="always"
       xlink:href="#linearGradient4081"
       id="linearGradient5068"
       gradientUnits="userSpaceOnUse"
       x1="17.212025"
       y1="7.3808393"
       x2="17.212025"
       y2="1.9877422"
       gradientTransform="translate(-30,-30)" />
    <linearGradient
       inkscape:collect="always"
       xlink:href="#linearGradient4081"
       id="linearGradient5071"
       gradientUnits="userSpaceOnUse"
       x1="7.3737612"
       y1="7.6049061"
       x2="7.3737612"
       y2="4.0347266"
       gradientTransform="translate(-30,-30)" />
    <linearGradient
       inkscape:collect="always"
       xlink:href="#linearGradient4081"
       id="linearGradient5074"
       gradientUnits="userSpaceOnUse"
       x1="4.9496975"
       y1="9.3934212"
       x2="4.9496975"
       y2="6.3640523"
       gradientTransform="translate(-30,-30)" />
    <linearGradient
       inkscape:collect="always"
       xlink:href="#linearGradient4081"
       id="linearGradient5077"
       gradientUnits="userSpaceOnUse"
       x1="13"
       y1="20"
       x2="13"
       y2="7.9960599"
       gradientTransform="translate(-30,-30)" />
    <linearGradient
       inkscape:collect="always"
       xlink:href="#linearGradient4081"
       id="linearGradient3345"
       gradientUnits="userSpaceOnUse"
       x1="6.8391123"
       y1="16.300354"
       x2="6.8391123"
       y2="6.0528178" />
    <linearGradient
       inkscape:collect="always"
       xlink:href="#linearGradient4081"
       id="linearGradient3355"
       gradientUnits="userSpaceOnUse"
       x1="12.316144"
       y1="18.468353"
       x2="12.316144"
       y2="3.4817097" />
    <linearGradient
       inkscape:collect="always"
       xlink:href="#linearGradient4081"
       id="linearGradient3357"
       gradientUnits="userSpaceOnUse"
       x1="18.764908"
       y1="21"
       x2="18.764908"
       y2="0.96705598" />
    <linearGradient
       inkscape:collect="always"
       xlink:href="#linearGradient4081"
       id="linearGradient3522"
       gradientUnits="userSpaceOnUse"
       x1="6.8391123"
       y1="16.300354"
       x2="6.8391123"
       y2="6.0528178"
       gradientTransform="translate(1,0)" />
    <linearGradient
       inkscape:collect="always"
       xlink:href="#linearGradient4081"
       id="linearGradient3527"
       gradientUnits="userSpaceOnUse"
       gradientTransform="translate(1,0)"
       x1="6.8391123"
       y1="16.300354"
       x2="6.8391123"
       y2="6.0528178" />
    <linearGradient
       inkscape:collect="always"
       xlink:href="#linearGradient4081"
       id="linearGradient3538"
       gradientUnits="userSpaceOnUse"
       gradientTransform="translate(1,0)"
       x1="16.5"
       y1="19.542921"
       x2="16.5"
       y2="2.5" />
    <linearGradient
       inkscape:collect="always"
       xlink:href="#linearGradient4081"
       id="linearGradient3540"
       gradientUnits="userSpaceOnUse"
       gradientTransform="translate(1,0)"
       x1="14.524625"
       y1="17.41902"
       x2="14.524625"
       y2="4.625" />
    <linearGradient
       inkscape:collect="always"
       xlink:href="#linearGradient4081"
       id="linearGradient3542"
       gradientUnits="userSpaceOnUse"
       gradientTransform="translate(1,0)"
       x1="10.50519"
       y1="15.28125"
       x2="10.50519"
       y2="6.7458849" />
    <linearGradient
       inkscape:collect="always"
       xlink:href="#linearGradient4081"
       id="linearGradient3552"
       gradientUnits="userSpaceOnUse"
       gradientTransform="translate(1,0)"
       x1="16.5"
       y1="19.542921"
       x2="16.5"
       y2="2.5" />
    <linearGradient
       inkscape:collect="always"
       xlink:href="#linearGradient4081"
       id="linearGradient3690"
       x1="9"
       y1="20"
       x2="9"
       y2="4"
       gradientUnits="userSpaceOnUse" />
    <linearGradient
       inkscape:collect="always"
       xlink:href="#linearGradient4081"
       id="linearGradient3696"
       gradientUnits="userSpaceOnUse"
       x1="9"
       y1="20"
       x2="9"
       y2="4"
       gradientTransform="translate(0,1)" />
    <linearGradient
       inkscape:collect="always"
       xlink:href="#linearGradient4081"
       id="linearGradient3698"
       gradientUnits="userSpaceOnUse"
       x1="9"
       y1="20"
       x2="9"
       y2="4" />
    <linearGradient
       inkscape:collect="always"
       xlink:href="#linearGradient4081"
       id="linearGradient3694"
       x1="39"
       y1="19"
       x2="39"
       y2="2.9687805"
       gradientUnits="userSpaceOnUse"
       gradientTransform="translate(-30,0)" />
    <linearGradient
       inkscape:collect="always"
       xlink:href="#linearGradient4081"
       id="linearGradient3700"
       gradientUnits="userSpaceOnUse"
       x1="39"
       y1="19"
       x2="39"
       y2="2.9687805"
       gradientTransform="translate(0,1)" />
    <linearGradient
       inkscape:collect="always"
       xlink:href="#linearGradient4081"
       id="linearGradient3702"
       gradientUnits="userSpaceOnUse"
       x1="39"
       y1="19"
       x2="39"
       y2="2.9687805" />
    <linearGradient
       inkscape:collect="always"
       xlink:href="#linearGradient4081"
       id="linearGradient3716"
       x1="-29"
       y1="31"
       x2="-9"
       y2="31"
       gradientUnits="userSpaceOnUse" />
    <linearGradient
       inkscape:collect="always"
       xlink:href="#linearGradient4081"
       id="linearGradient3719"
       gradientUnits="userSpaceOnUse"
       x1="-20"
       y1="38"
       x2="-20"
       y2="23.964331"
       gradientTransform="translate(30,-20)" />
    <linearGradient
       inkscape:collect="always"
       xlink:href="#linearGradient4081"
       id="linearGradient3699"
       x1="-19"
       y1="38"
       x2="-19"
       y2="23.964331"
       gradientUnits="userSpaceOnUse"
       gradientTransform="translate(30,-20)" />
    <linearGradient
       inkscape:collect="always"
       xlink:href="#linearGradient4081"
       id="linearGradient3713"
       x1="10"
       y1="17"
       x2="10"
       y2="5"
       gradientUnits="userSpaceOnUse" />
    <inkscape:perspective
       id="perspective3725"
       inkscape:persp3d-origin="0.5 : 0.33333333 : 1"
       inkscape:vp_z="1 : 0.5 : 1"
       inkscape:vp_y="0 : 1000 : 0"
       inkscape:vp_x="0 : 0.5 : 1"
       sodipodi:type="inkscape:persp3d" />
    <linearGradient
       inkscape:collect="always"
       xlink:href="#StandardGradient"
       id="linearGradient2925"
       gradientUnits="userSpaceOnUse"
       x1="12.366608"
       y1="5.0428452"
       x2="12.366608"
       y2="17.071365" />
    <linearGradient
       inkscape:collect="always"
       xlink:href="#linearGradient4081"
       id="linearGradient2929"
       gradientUnits="userSpaceOnUse"
       x1="10"
       y1="19.429329"
       x2="10"
       y2="6.2307611" />
    <linearGradient
       inkscape:collect="always"
       xlink:href="#linearGradient4081"
       id="linearGradient3711"
       gradientUnits="userSpaceOnUse"
       x1="10"
       y1="19.429329"
       x2="10"
       y2="6.2307611"
       gradientTransform="translate(0,1)" />
    <linearGradient
       inkscape:collect="always"
       xlink:href="#linearGradient4081"
       id="linearGradient3714"
       gradientUnits="userSpaceOnUse"
       x1="10"
       y1="19.429329"
       x2="10"
       y2="6.2307611" />
    <inkscape:perspective
       id="perspective4153"
       inkscape:persp3d-origin="0.5 : 0.33333333 : 1"
       inkscape:vp_z="1 : 0.5 : 1"
       inkscape:vp_y="0 : 1000 : 0"
       inkscape:vp_x="0 : 0.5 : 1"
       sodipodi:type="inkscape:persp3d" />
    <linearGradient
       y2="3.5"
       x2="59"
       y1="3.5"
       x1="54"
       gradientTransform="translate(-45,53)"
       gradientUnits="userSpaceOnUse"
       id="linearGradient3829"
       xlink:href="#SpecificGradient"
       inkscape:collect="always" />
    <linearGradient
       id="SpecificGradient"
       x1="10.761708"
       y1="3.9999998"
       x2="10.761708"
       y2="18.011395"
       gradientUnits="userSpaceOnUse">
      <stop
         style="stop-color:#a50000;stop-opacity:1;"
         offset="0"
         id="stop3292" />
      <stop
         style="stop-color:#e73800;stop-opacity:1;"
         offset="1"
         id="stop3294" />
    </linearGradient>
    <linearGradient
       inkscape:collect="always"
       xlink:href="#StandardGradient"
       id="linearGradient3833"
       x1="54"
       y1="3.5"
       x2="59"
       y2="3.5"
       gradientUnits="userSpaceOnUse"
       gradientTransform="translate(-53,53)" />
    <linearGradient
       id="StandardGradient"
       gradientTransform="matrix(0.9984539,0,0,0.9984539,-0.0459776,0.05767558)"
       x1="10.710332"
       y1="1.9963325"
       x2="10.710332"
       y2="18.974037"
       gradientUnits="userSpaceOnUse">
      <stop
         style="stop-color:#000000;stop-opacity:0.86274511;"
         offset="0"
         id="stop3277" />
      <stop
         style="stop-color:#000000;stop-opacity:0.47058824;"
         offset="1"
         id="stop3279" />
    </linearGradient>
    <linearGradient
       inkscape:collect="always"
       xlink:href="#StandardGradient"
       id="linearGradient3745"
       gradientUnits="userSpaceOnUse"
       x1="12.366608"
       y1="5.0428452"
       x2="12.366608"
       y2="17.071365"
       gradientTransform="translate(0,1)" />
    <linearGradient
       inkscape:collect="always"
       xlink:href="#StandardGradient"
       id="linearGradient3749"
       gradientUnits="userSpaceOnUse"
       x1="12.366608"
       y1="5.0428452"
       x2="12.366608"
       y2="17.071365" />
    <linearGradient
       inkscape:collect="always"
       xlink:href="#StandardGradient"
       id="linearGradient3754"
       gradientUnits="userSpaceOnUse"
       x1="12.366608"
       y1="5.0428452"
       x2="12.366608"
       y2="17.071365"
       gradientTransform="translate(-30,0)" />
    <clipPath
       clipPathUnits="userSpaceOnUse"
       id="clipPath3759">
      <path
         style="fill:#ff00ff;fill-opacity:1;stroke:none;display:inline"
         d="m -30,0 0,22 22,0 0,-22 -22,0 z m 3.5,5 15,0 c 0.128113,0 0.256446,0.032557 0.375,0.0625 0.04246,0.010723 0.0841,0.019088 0.125,0.03125 0.0309,0.010698 0.06382,0.018633 0.09375,0.03125 0.0093,0.00331 0.02205,-0.00349 0.03125,0 0.07999,0.035583 0.14695,0.076574 0.21875,0.125 0.159551,0.1076133 0.298637,0.2466992 0.40625,0.40625 0.05381,0.079775 0.08715,0.160211 0.125,0.25 0.02149,0.050583 0.0466,0.102888 0.0625,0.15625 C -10.02247,6.1980709 -10,6.3511125 -10,6.5 l 0,9 c 0,0.103875 -0.01133,0.214678 -0.03125,0.3125 -0.0018,0.0099 0.002,0.02145 0,0.03125 -0.01813,0.08908 -0.06115,0.16751 -0.09375,0.25 -0.04676,0.110916 -0.0855,0.21722 -0.15625,0.3125 -0.215616,0.290377 -0.537978,0.48752 -0.90625,0.5625 C -11.285322,16.98867 -11.396125,17 -11.5,17 l -15,0 c -0.128112,0 -0.256446,-0.03256 -0.375,-0.0625 -0.347369,-0.08773 -0.64112,-0.280379 -0.84375,-0.5625 -0.0081,-0.01129 -0.02345,-0.01973 -0.03125,-0.03125 -0.05919,-0.08775 -0.08524,-0.1815 -0.125,-0.28125 -0.02582,-0.06237 -0.04519,-0.12116 -0.0625,-0.1875 C -27.96744,15.756446 -28,15.628113 -28,15.5 l 0,-9 c 0,-0.1281125 0.03256,-0.2564458 0.0625,-0.375 0.01317,-0.051955 0.01288,-0.106676 0.03125,-0.15625 0.04174,-0.1132701 0.08989,-0.21411 0.15625,-0.3125 0.19191,-0.2845322 0.475149,-0.494129 0.8125,-0.59375 C -26.801929,5.022465 -26.648887,5 -26.5,5 z m 0,1.03125 c -0.262593,0 -0.44197,0.159457 -0.46875,0.40625 l 7.9375,7.96875 8,-7.96875 C -11.058033,6.190707 -11.237407,6.03125 -11.5,6.03125 l -0.59375,0 -6.9375,6.9375 -6.9375,-6.9375 -0.53125,0 z m 11.65625,5.8125 -0.71875,0.71875 3.40625,3.40625 0.65625,0 c 0.237492,0 0.38803,-0.137016 0.4375,-0.34375 l -3.78125,-3.78125 z m -8.40625,0.0625 -3.6875,3.6875 c 0.0398,0.224924 0.188423,0.375 0.4375,0.375 l 0.59375,0 3.375,-3.34375 -0.71875,-0.71875 z"
         id="path3761"
         inkscape:connector-curvature="0" />
    </clipPath>
    <linearGradient
       inkscape:collect="always"
       xlink:href="#StandardGradient"
       id="linearGradient3960"
       gradientUnits="userSpaceOnUse"
       x1="12.366608"
       y1="5.0428452"
       x2="12.366608"
       y2="17.071365"
       gradientTransform="translate(0,1)" />
    <linearGradient
       inkscape:collect="always"
       xlink:href="#StandardGradient"
       id="linearGradient3962"
       gradientUnits="userSpaceOnUse"
       x1="12.366608"
       y1="5.0428452"
       x2="12.366608"
       y2="17.071365" />
    <linearGradient
       inkscape:collect="always"
       xlink:href="#StandardGradient"
       id="linearGradient3967"
       gradientUnits="userSpaceOnUse"
       x1="12.366608"
       y1="5.0428452"
       x2="12.366608"
       y2="17.071365"
       gradientTransform="translate(0,1)" />
    <linearGradient
       inkscape:collect="always"
       xlink:href="#StandardGradient"
       id="linearGradient3971"
       gradientUnits="userSpaceOnUse"
       x1="12.366608"
       y1="5.0428452"
       x2="12.366608"
       y2="17.071365" />
    <linearGradient
       inkscape:collect="always"
       xlink:href="#StandardGradient"
       id="linearGradient3976"
       gradientUnits="userSpaceOnUse"
       x1="12.366608"
       y1="5.0428452"
       x2="12.366608"
       y2="17.071365" />
    <linearGradient
       inkscape:collect="always"
       xlink:href="#StandardGradient"
       id="linearGradient3980"
       gradientUnits="userSpaceOnUse"
       x1="12.366608"
       y1="5.0428452"
       x2="12.366608"
       y2="17.071365" />
    <linearGradient
       inkscape:collect="always"
       xlink:href="#StandardGradient"
       id="linearGradient3985"
       gradientUnits="userSpaceOnUse"
       x1="12.366608"
       y1="5.0428452"
       x2="12.366608"
       y2="17.071365" />
  </defs>
  <sodipodi:namedview
     id="base"
     pagecolor="#ffffff"
     bordercolor="#e7e7e7"
     borderopacity="1"
     inkscape:pageopacity="0.0"
     inkscape:pageshadow="2"
     inkscape:zoom="16.451355"
     inkscape:cx="2.1028377"
     inkscape:cy="7.1979321"
     inkscape:document-units="px"
     inkscape:current-layer="layer1"
     showgrid="false"
     inkscape:showpageshadow="false"
     showguides="false"
     inkscape:guide-bbox="true"
     inkscape:window-width="1366"
     inkscape:window-height="697"
     inkscape:window-x="0"
     inkscape:window-y="0"
     inkscape:window-maximized="1"
     inkscape:snap-global="false">
    <sodipodi:guide
       orientation="1,0"
       position="0,112"
       id="guide2383"
       inkscape:locked="false" />
    <sodipodi:guide
       orientation="0,1"
       position="26.278146,128"
       id="guide2385"
       inkscape:locked="false" />
    <sodipodi:guide
       orientation="1,0"
       position="128,54.082119"
       id="guide2387"
       inkscape:locked="false" />
    <sodipodi:guide
       orientation="0,1"
       position="78.156291,0"
       id="guide2389"
       inkscape:locked="false" />
    <sodipodi:guide
       orientation="0,1"
       position="60.863576,64.084768"
       id="guide2391"
       inkscape:locked="false" />
    <inkscape:grid
       type="xygrid"
       id="grid3672"
       visible="true"
       enabled="true"
       empspacing="8"
       snapvisiblegridlinesonly="true" />
  </sodipodi:namedview>
  <metadata
     id="metadata7">
    <rdf:RDF>
      <cc:Work
         rdf:about="">
        <dc:format>image/svg+xml</dc:format>
        <dc:type
           rdf:resource="http://purl.org/dc/dcmitype/StillImage" />
        <dc:title />
      </cc:Work>
    </rdf:RDF>
  </metadata>
  <g
     inkscape:label="Icon"
     inkscape:groupmode="layer"
     id="layer1"
     style="display:inline"
     transform="translate(0,-6)">
    <path
       style="color:#000000;display:inline;overflow:visible;visibility:visible;opacity:1;fill:#bebebe;fill-opacity:1;fill-rule:nonzero;stroke:none;stroke-width:0.76352888;marker:none;enable-background:accumulate"
       d="m 7.9888154,6.3647116 c -0.2521427,3.649e-4 -0.5016454,0.013034 -0.7474976,0.037282 -0.00254,2.518e-4 -0.00492,0.00161 -0.00746,0.00186 C 7.0919917,6.418079 6.9517553,6.4432293 6.8107143,6.4653721 6.7087441,6.481381 6.6063801,6.4918254 6.5050046,6.5119742 6.3490516,6.5429705 6.1949855,6.5867551 6.0408476,6.6275474 5.9528802,6.650883 5.8628383,6.6701513 5.7761477,6.6965185 5.6612201,6.731396 5.5485179,6.7754077 5.4350203,6.8158199 5.3070872,6.861524 5.1775601,6.9033927 5.0528831,6.9556262 4.9681245,6.991038 4.8867875,7.0344622 4.8030958,7.0730635 4.6645767,7.1371286 4.5250129,7.1986842 4.3911332,7.2706564 4.2936698,7.3229794 4.1996514,7.3852942 4.1040643,7.4421521 3.9829599,7.5142743 3.8590861,7.583601 3.7424319,7.6621141 3.5922951,7.7631624 3.4504083,7.8734235 3.3081004,7.9846006 3.2581885,8.0236147 3.206259,8.0578813 3.1571095,8.0983097 2.9658951,8.2555958 2.7802813,8.4229213 2.6016125,8.6016125 c -0.0031,0.0031 -0.00623,0.00622 -0.00932,0.00932 -0.00313,0.00315 -0.00619,0.00617 -0.00932,0.00932 -0.040468,0.04075 -0.07435,0.085333 -0.1137092,0.1267578 C 2.3350114,8.8883059 2.2028894,9.0308219 2.081533,9.1794786 2.0104392,9.2666386 1.9474702,9.3594737 1.8802119,9.4497708 1.8025467,9.5540061 1.7207204,9.6557651 1.6490655,9.7629369 1.5730988,9.8765828 1.5064783,9.997408 1.4365599,10.115249 c -0.059503,0.1004 -0.1225858,0.199536 -0.177088,0.301981 -0.05727,0.107488 -0.1062444,0.219472 -0.1584471,0.329943 -0.05463,0.115903 -0.11184153,0.230629 -0.16031125,0.348584 -0.0417368,0.101313 -0.0762605,0.20599 -0.11370913,0.309438 -0.0476811,0.132136 -0.0977869,0.262982 -0.13794222,0.39705 -0.0321011,0.106908 -0.0563992,0.21739 -0.0838838,0.326215 -0.0327594,0.130014 -0.0692481,0.260207 -0.0950683,0.391457 -0.0267974,0.136265 -0.0439362,0.275066 -0.0633789,0.413827 -0.0150937,0.107468 -0.0342268,0.21458 -0.044738,0.322486 -0.018326,0.18954 -0.0237517,0.382665 -0.0279613,0.576002 -0.001306,0.05983 -0.009412,0.119112 -0.00932,0.178953 3.6496e-4,0.252142 0.0130335,0.501645 0.0372817,0.747497 2.5189e-4,0.0025 0.00161,0.0049 0.001864,0.0075 0.0142217,0.141869 0.0393719,0.282106 0.0615148,0.423147 0.0160089,0.10197 0.0264533,0.204334 0.0466021,0.305709 0.0309963,0.155953 0.0747809,0.31002 0.1155732,0.464157 0.0233356,0.08797 0.0426039,0.17801 0.0689711,0.2647 0.0348775,0.114928 0.0788892,0.22763 0.11930138,0.341128 0.0457041,0.127933 0.0875727,0.25746 0.1398063,0.382137 0.0354118,0.08476 0.078836,0.166096 0.11743732,0.249787 0.064065,0.138519 0.1256207,0.278083 0.1975929,0.411963 0.052323,0.09746 0.1146378,0.191481 0.1714957,0.287069 0.072122,0.121104 0.1414489,0.244978 0.219962,0.361633 0.1010483,0.150136 0.2113094,0.292023 0.3224865,0.434331 0.039014,0.04991 0.073281,0.101841 0.1137091,0.150991 0.1572861,0.191214 0.3246116,0.376828 0.5033028,0.555497 0.0031,0.0031 0.00622,0.0062 0.00932,0.0093 0.00315,0.0031 0.00617,0.0062 0.00932,0.0093 0.040751,0.04047 0.085333,0.07435 0.1267578,0.11371 0.1412948,0.134251 0.2838108,0.266373 0.4324675,0.387729 0.08716,0.07109 0.1799951,0.134062 0.2702922,0.201321 0.1042353,0.07766 0.2059943,0.159491 0.3131661,0.231147 0.1136459,0.07597 0.2344711,0.142587 0.3523119,0.212505 0.1004,0.0595 0.1995366,0.122585 0.3019816,0.177088 0.1074872,0.05727 0.2194711,0.106244 0.3299429,0.158448 0.1159025,0.05463 0.2306286,0.11184 0.3485836,0.16031 0.1013134,0.04174 0.2059897,0.07626 0.309438,0.11371 0.132136,0.04768 0.262982,0.09779 0.3970499,0.137942 0.1069083,0.0321 0.2173902,0.0564 0.3262148,0.08388 0.1300143,0.03276 0.260207,0.06925 0.3914577,0.09507 0.1362646,0.0268 0.2750654,0.04394 0.4138266,0.06338 0.1074684,0.01509 0.2145802,0.03423 0.3224865,0.04474 0.1895396,0.01833 0.3826646,0.02375 0.5760021,0.02796 0.059829,0.0013 0.1191119,0.0094 0.1789521,0.0093 0.2521427,-3.64e-4 0.5016454,-0.01303 0.7474976,-0.03728 0.00248,-2.44e-4 0.00498,-0.0016 0.00746,-0.0019 0.1418697,-0.01422 0.2821061,-0.03937 0.4231471,-0.06151 0.1019653,-0.01599 0.2051256,-0.02662 0.3057097,-0.0466 0.155953,-0.031 0.3100191,-0.07478 0.4641566,-0.115574 0.087968,-0.02333 0.1780099,-0.0426 0.2646999,-0.06897 0.114928,-0.03488 0.22763,-0.07889 0.341128,-0.119302 0.127933,-0.0457 0.25746,-0.08757 0.382137,-0.139807 0.08476,-0.03541 0.166096,-0.07884 0.249787,-0.117437 0.138519,-0.06407 0.278083,-0.125621 0.411963,-0.197593 0.09746,-0.05232 0.191481,-0.114637 0.287069,-0.171495 0.121104,-0.07212 0.244978,-0.141449 0.361633,-0.219962 0.0037,-0.0025 0.0075,-0.005 0.01118,-0.0075 0.197209,-0.133231 0.386905,-0.274422 0.57041,-0.425011 0.0013,-0.0011 0.0024,-0.0026 0.0037,-0.0037 0.191214,-0.157286 0.376828,-0.324612 0.555497,-0.503302 0.0062,-0.0062 0.01246,-0.01242 0.01864,-0.01864 0.04047,-0.04075 0.07435,-0.08533 0.11371,-0.126758 0.134251,-0.141295 0.266373,-0.283811 0.387729,-0.432468 0.07109,-0.08716 0.134062,-0.179995 0.201321,-0.270292 0.07766,-0.104235 0.159491,-0.205994 0.231147,-0.313166 0.07597,-0.113646 0.142587,-0.234471 0.212505,-0.352312 0.0595,-0.1004 0.122585,-0.199536 0.177088,-0.301982 0.05727,-0.107486 0.106244,-0.21947 0.158448,-0.329942 0.05463,-0.115903 0.11184,-0.230629 0.16031,-0.348584 0.04174,-0.101313 0.07626,-0.205989 0.11371,-0.309438 0.04768,-0.132136 0.09779,-0.262982 0.137942,-0.39705 0.0321,-0.106909 0.0564,-0.21739 0.08388,-0.326215 0.03276,-0.130014 0.06925,-0.260207 0.09507,-0.391457 0.0268,-0.136265 0.04394,-0.275066 0.06338,-0.413827 0.01509,-0.107468 0.03423,-0.21458 0.04474,-0.322486 0.01833,-0.18954 0.02375,-0.382665 0.02796,-0.576002 0.0013,-0.05983 0.0094,-0.119112 0.0093,-0.178953 -3.64e-4,-0.252142 -0.01303,-0.501645 -0.03728,-0.747497 -2.52e-4,-0.0025 -0.0016,-0.0049 -0.0019,-0.0075 -0.01422,-0.141869 -0.03937,-0.282106 -0.06151,-0.423147 -0.01541,-0.09823 -0.02562,-0.197578 -0.04474,-0.294525 -7.28e-4,-0.0037 -0.0011,-0.0075 -0.0019,-0.01118 -0.031,-0.155953 -0.07478,-0.31002 -0.115574,-0.464157 -0.02333,-0.08797 -0.0426,-0.17801 -0.06897,-0.2647 -0.03488,-0.114928 -0.07889,-0.22763 -0.119302,-0.341128 -0.0457,-0.127933 -0.08757,-0.25746 -0.139807,-0.382137 -0.03541,-0.08476 -0.07883,-0.166096 -0.117437,-0.249787 -0.06406,-0.138519 -0.125621,-0.278083 -0.197593,-0.411963 -0.05232,-0.09746 -0.114637,-0.191482 -0.171495,-0.287069 -0.07212,-0.1211041 -0.141449,-0.2449779 -0.219962,-0.3616321 -0.0025,-0.00369 -0.005,-0.0075 -0.0075,-0.011184 -0.133231,-0.1972089 -0.274422,-0.3869046 -0.425011,-0.5704098 -0.0011,-0.00134 -0.0026,-0.00238 -0.0037,-0.00373 -0.157286,-0.1912144 -0.324612,-0.3768282 -0.503302,-0.555497 -0.0062,-0.0062 -0.01242,-0.012463 -0.01864,-0.018641 -0.04075,-0.040468 -0.08533,-0.07435 -0.126758,-0.1137092 C 13.111694,8.3350114 12.969178,8.2028894 12.820521,8.081533 12.733362,8.0104392 12.640526,7.9474702 12.550229,7.8802119 12.445994,7.8025467 12.344235,7.7207204 12.237063,7.6490655 12.123417,7.5730988 12.002592,7.5064783 11.884751,7.4365599 11.784351,7.3770568 11.685215,7.3139741 11.582769,7.2594719 11.475283,7.202202 11.363299,7.1532275 11.252827,7.1010248 11.136924,7.0463946 11.022198,6.9891833 10.904243,6.9407135 10.80293,6.8989767 10.698254,6.8644531 10.594805,6.8270044 10.462669,6.7793233 10.331823,6.7292175 10.197755,6.6890622 10.090846,6.6569611 9.9803648,6.632663 9.8715404,6.6051784 9.7415261,6.572419 9.6113334,6.5359303 9.4800827,6.5101101 9.3438181,6.4833128 9.2050173,6.4661739 9.0662561,6.4467313 8.9587877,6.4316376 8.8516759,6.4125045 8.7437696,6.4019933 8.55423,6.3836673 8.361105,6.3782415 8.1677675,6.374032 8.1079382,6.3727257 8.0486556,6.3646197 7.9888154,6.3647116 Z m -0.022369,0.9581391 c 0.8614171,0.00228 1.7229348,0.1745754 2.5426106,0.5107591 L 9.463306,10.452648 C 8.5593615,10.0819 7.5055224,10.075658 6.5329658,10.482473 l -0.00932,-0.02423 c -0.8958012,0.3759 -1.6419021,1.111894 -2.0430362,2.080318 L 1.8261535,11.43502 C 2.5042225,9.7980177 3.7980173,8.5340476 5.4350203,7.8559788 L 5.604652,8.2548929 5.427564,7.8298816 C 6.2448811,7.4880025 7.1050294,7.3205751 7.9664464,7.3228507 Z M 10.56498,7.8261535 c 1.637003,0.678069 2.900973,1.9718638 3.579041,3.6088665 l -0.398914,0.169632 0.425012,-0.177088 c 0.683759,1.634635 0.668668,3.442142 -0.0037,5.081493 L 11.54738,15.463306 c 0.370749,-0.903945 0.37699,-1.957783 -0.02983,-2.93034 l 0.02423,-0.0093 C 11.165861,11.627844 10.429867,10.881743 9.4614419,10.480609 Z M 8,11.136767 c 0.033775,0 0.065304,0.0082 0.098796,0.0093 0.1189338,0.0041 0.2363888,0.01655 0.3541761,0.03542 0.067863,0.01084 0.1351386,0.02176 0.201321,0.03728 0.1105711,0.02595 0.2187516,0.06142 0.3262148,0.10066 0.056118,0.02054 0.1133571,0.03762 0.1677675,0.06151 0.1146038,0.05023 0.2251021,0.112981 0.3336711,0.178952 0.044021,0.0268 0.091795,0.04737 0.134214,0.07643 0.1414986,0.09692 0.274736,0.206639 0.4007785,0.331807 0.0025,0.0025 0.005,0.005 0.0075,0.0075 0.132079,0.132079 0.251683,0.276734 0.35604,0.432467 0.05561,0.08301 0.09381,0.173814 0.139806,0.260972 0.03966,0.0749 0.08628,0.145033 0.119301,0.22369 0.04728,0.112808 0.07592,0.229843 0.108117,0.34672 0.0181,0.06543 0.04617,0.126647 0.05965,0.193864 0.03679,0.183347 0.05527,0.371034 0.05592,0.557362 6e-6,0.0019 -3e-6,0.0037 0,0.0056 5.9e-5,0.03816 -0.0097,0.07557 -0.01118,0.113709 -0.0057,0.148937 -0.01591,0.29688 -0.04474,0.443652 -0.01589,0.08111 -0.04452,0.156374 -0.06711,0.234875 -0.02965,0.10344 -0.05541,0.207346 -0.09693,0.307573 -0.03388,0.08164 -0.08016,0.155393 -0.121165,0.233011 -0.04483,0.08511 -0.08394,0.172323 -0.137942,0.253515 -0.08333,0.125288 -0.181854,0.238226 -0.283341,0.348585 -0.0252,0.02741 -0.0425,0.05909 -0.06897,0.08575 -0.0012,0.0012 -0.0025,0.0025 -0.0037,0.0037 -0.0013,0.0013 -0.0025,0.0025 -0.0037,0.0037 -0.1320804,0.132079 -0.2767355,0.251683 -0.4324685,0.35604 -0.083007,0.05561 -0.1738136,0.09381 -0.2609719,0.139806 -0.074901,0.03966 -0.1450329,0.08628 -0.2236901,0.119301 -0.1128078,0.04728 -0.2298433,0.07592 -0.3467196,0.108117 -0.065426,0.0181 -0.1266478,0.04617 -0.1938647,0.05965 -0.1833461,0.03679 -0.3710337,0.05527 -0.5573612,0.05592 -0.04002,1.4e-4 -0.079304,-0.0097 -0.1193014,-0.01119 -0.1489367,-0.0057 -0.2968803,-0.01591 -0.443652,-0.04474 -0.081111,-0.01589 -0.1563741,-0.04452 -0.2348746,-0.06711 -0.1034403,-0.02965 -0.2073461,-0.0554 -0.3075738,-0.09693 C 6.8223802,16.609355 6.7486244,16.563075 6.6710067,16.52207 6.5858927,16.47724 6.4986839,16.43813 6.4174912,16.384128 6.2922038,16.300798 6.1792655,16.202274 6.0689075,16.100787 c -0.027415,-0.0252 -0.059094,-0.0425 -0.085748,-0.06897 -0.00127,-0.0013 -0.00246,-0.0025 -0.00373,-0.0037 -0.00124,-0.0012 -0.00249,-0.0025 -0.00373,-0.0037 -0.1320793,-0.13208 -0.2516828,-0.276735 -0.35604,-0.432468 -0.055608,-0.08301 -0.093811,-0.173814 -0.1398063,-0.260972 -0.039659,-0.0749 -0.08628,-0.145033 -0.1193014,-0.22369 C 5.3132748,14.994479 5.2846308,14.877444 5.252435,14.760567 5.234336,14.695137 5.206266,14.63392 5.192784,14.566703 5.155996,14.383356 5.13751,14.195669 5.136861,14.009341 c -1.07e-5,-0.0031 8e-7,-0.0062 0,-0.0093 0,-0.03763 0.00977,-0.07266 0.011185,-0.109981 0.00569,-0.148937 0.015916,-0.29688 0.044738,-0.443652 0.00153,-0.0078 2.682e-4,-0.01643 0.00186,-0.02423 0.034348,-0.167855 0.083065,-0.330797 0.1453985,-0.486526 0.00562,-0.01405 0.014658,-0.02704 0.020505,-0.04101 0.062444,-0.148944 0.1380304,-0.290132 0.2236901,-0.425011 0.027304,-0.04305 0.059649,-0.08304 0.089476,-0.124894 0.07681,-0.107705 0.1591387,-0.209816 0.2497873,-0.305709 0.01669,-0.01767 0.027513,-0.03858 0.044738,-0.05592 0.025042,-0.02522 0.054407,-0.04297 0.080156,-0.06711 0.089237,-0.08355 0.1839628,-0.159459 0.2833408,-0.231146 0.0297,-0.02149 0.055447,-0.05068 0.085748,-0.07084 0.02204,-0.01466 0.04662,-0.0233 0.068971,-0.03728 0.078731,-0.04926 0.1605761,-0.09265 0.2441951,-0.134214 0.066177,-0.03285 0.1314292,-0.06579 0.1994569,-0.09321 0.075266,-0.03041 0.1528637,-0.05424 0.2311465,-0.07829 0.081118,-0.02483 0.1615626,-0.04778 0.244195,-0.06524 0.07178,-0.01521 0.1444433,-0.02569 0.2180979,-0.03542 0.093781,-0.01237 0.1870687,-0.02115 0.2814766,-0.02423 0.032197,-0.0011 0.062611,-0.0093 0.095068,-0.0093 z m -6.1663902,0.354176 2.6190382,1.045751 c -0.3707478,0.903945 -0.3769907,1.957783 0.029825,2.93034 l -0.024233,0.0093 c 0.3758997,0.895801 1.1118934,1.641902 2.0803179,2.043036 L 5.4350203,20.173847 C 3.7980177,19.495778 2.5340476,18.201983 1.8559788,16.56498 l 0.3989141,-0.169632 -0.4250113,0.177088 c -0.6837584,-1.634635 -0.6686392,-3.442141 0.00373,-5.081493 z m 6.0936909,0.605827 c -0.058112,0.0022 -0.1148305,0.0095 -0.1714957,0.01678 -0.0512,0.0066 -0.1022267,0.01347 -0.1528549,0.02423 -0.055093,0.01174 -0.1089559,0.02649 -0.1621753,0.04287 -0.049935,0.01531 -0.100341,0.03084 -0.1491268,0.05033 -0.052998,0.02128 -0.104197,0.04692 -0.154719,0.0727 -0.0459,0.02333 -0.091802,0.04729 -0.1360781,0.07456 -0.044297,0.02737 -0.084963,0.05868 -0.1267577,0.08948 -0.053761,0.03941 -0.1062991,0.081 -0.1565831,0.126758 -0.039612,0.03621 -0.079132,0.07245 -0.1155732,0.111845 -0.055072,0.05952 -0.1030349,0.123886 -0.1491267,0.188272 -0.019889,0.0278 -0.043107,0.05314 -0.061515,0.08202 -0.057754,0.09059 -0.1063051,0.184401 -0.1472627,0.281476 -0.00483,0.01146 -0.012176,0.02202 -0.016777,0.03355 -0.04351,0.109063 -0.076207,0.221625 -0.098796,0.335535 -0.019687,0.09905 -0.026055,0.201905 -0.029825,0.30571 -7.972e-4,0.02246 -0.00745,0.04464 -0.00746,0.06711 0,0.0013 -2.5e-6,0.0025 0,0.0037 1.9e-6,0.0012 -4.3e-6,0.0025 0,0.0037 5.005e-4,0.128494 0.014443,0.253365 0.039146,0.374681 0.00246,0.0121 0.00663,0.0234 0.00932,0.03542 0.024226,0.108145 0.055212,0.214679 0.096933,0.31503 0.041373,0.09977 0.095703,0.194105 0.1547189,0.287069 0.0077,0.01213 0.012502,0.02529 0.020505,0.03728 0.054992,0.08242 0.1209605,0.160004 0.1901365,0.234874 0.017111,0.01852 0.030642,0.03996 0.048466,0.05779 0.031587,0.03159 0.068797,0.05643 0.1025247,0.08575 0.063466,0.05515 0.12722,0.111217 0.1957288,0.156583 0.024703,0.01633 0.052803,0.02768 0.078292,0.04287 0.082738,0.04929 0.1657477,0.09667 0.2535154,0.13235 0.045935,0.01872 0.095895,0.02958 0.1435344,0.04474 0.067409,0.02134 0.1342223,0.04597 0.2031852,0.05965 0.099086,0.01967 0.201746,0.02614 0.3057098,0.02983 0.02493,8.85e-4 0.049621,0.0075 0.074563,0.0075 0.1284936,-5e-4 0.253365,-0.01444 0.3746809,-0.03915 5.8e-4,-1.18e-4 0.00128,1.19e-4 0.00186,0 0.011498,-0.0024 0.022131,-0.0068 0.033553,-0.0093 0.1081457,-0.02423 0.2146789,-0.05521 0.3150302,-0.09693 0.09977,-0.04137 0.1941046,-0.09571 0.287069,-0.154719 0.011219,-0.0071 0.02436,-0.0113 0.035418,-0.01864 7.158e-4,-4.76e-4 0.00115,-0.0014 0.00186,-0.0019 0.082419,-0.05499 0.1600038,-0.120964 0.2348746,-0.190137 0.018514,-0.01711 0.039963,-0.03064 0.057787,-0.04847 0.031587,-0.03159 0.056427,-0.0688 0.085748,-0.102525 0.055146,-0.06347 0.1112169,-0.12722 0.1565832,-0.195729 0.016332,-0.0247 0.027678,-0.0528 0.042874,-0.07829 0.049294,-0.08274 0.096668,-0.165748 0.13235,-0.253516 0.018717,-0.04594 0.029578,-0.0959 0.044738,-0.143534 0.021343,-0.06741 0.045975,-0.134222 0.059651,-0.203185 0.01967,-0.09909 0.026139,-0.201746 0.029825,-0.30571 8.849e-4,-0.02493 0.00754,-0.04962 0.00746,-0.07456 -5.005e-4,-0.128494 -0.014443,-0.253365 -0.039146,-0.374681 -1.182e-4,-5.8e-4 1.186e-4,-0.0013 0,-0.0019 -0.00235,-0.0115 -0.00676,-0.02213 -0.00932,-0.03355 -0.024226,-0.108145 -0.055212,-0.214679 -0.096932,-0.31503 -0.041373,-0.09977 -0.095703,-0.194105 -0.1547189,-0.287069 -0.00712,-0.01122 -0.011295,-0.02436 -0.018641,-0.03542 -4.762e-4,-7.15e-4 -0.00139,-0.0011 -0.00186,-0.0019 -0.054992,-0.08242 -0.1209605,-0.160003 -0.1901365,-0.234874 -0.017111,-0.01852 -0.030642,-0.03996 -0.048466,-0.05779 -0.084496,-0.0845 -0.1768166,-0.15989 -0.2758845,-0.227418 -0.022056,-0.01504 -0.046443,-0.02514 -0.068971,-0.03915 -0.075508,-0.047 -0.1528077,-0.09236 -0.2348746,-0.128622 -0.043085,-0.01898 -0.088249,-0.03097 -0.1323499,-0.0466 -0.065147,-0.0232 -0.131265,-0.04541 -0.199457,-0.06151 -0.048287,-0.01134 -0.096521,-0.01856 -0.1453986,-0.0261 -0.069906,-0.01086 -0.1403071,-0.01932 -0.2125056,-0.02237 -0.050919,-0.0021 -0.1019337,-0.0038 -0.1528549,-0.0019 z M 8,13.045589 c 0.021135,0 0.038858,0.0098 0.059651,0.01118 0.084946,0.0053 0.1665555,0.02243 0.2479232,0.05033 0.031473,0.01088 0.063322,0.01771 0.093204,0.03169 0.097637,0.04537 0.1914078,0.104354 0.2721562,0.184544 6.113e-4,6.09e-4 0.00125,0.0013 0.00186,0.0019 0.087692,0.08769 0.15855,0.193133 0.2069134,0.309438 0.048016,0.115817 0.07227,0.238172 0.072699,0.361632 2.4e-6,6.36e-4 -1.3e-6,0.0012 0,0.0019 4.18e-5,0.02657 -0.012749,0.05179 -0.014913,0.07829 -0.00791,0.09685 -0.020402,0.193925 -0.057787,0.285205 -0.042335,0.102906 -0.1072405,0.192862 -0.1808162,0.274021 -0.010239,0.01134 -0.013353,0.02632 -0.024233,0.03728 -2.449e-4,2.47e-4 -0.00162,-2.46e-4 -0.00186,0 -2.542e-4,2.55e-4 2.544e-4,0.0016 0,0.0019 -0.087692,0.08769 -0.1931331,0.15855 -0.3094379,0.206914 -0.1158176,0.04801 -0.2381728,0.07227 -0.3616324,0.0727 -0.027181,9.4e-5 -0.053046,-0.0127 -0.080156,-0.01491 -0.096852,-0.0079 -0.1939251,-0.0204 -0.2852049,-0.05779 -0.1029062,-0.04233 -0.1928611,-0.107241 -0.2740204,-0.180816 -0.011339,-0.01024 -0.026326,-0.01335 -0.037282,-0.02423 -6.381e-4,-6.34e-4 -0.00123,-0.0012 -0.00186,-0.0019 -0.087692,-0.08769 -0.15855,-0.193133 -0.2069134,-0.309438 -0.048016,-0.115817 -0.07227,-0.238172 -0.072699,-0.361632 -2.1e-6,-6.1e-4 1e-6,-0.0013 0,-0.0019 -1.2e-6,-6.36e-4 0,-0.0012 0,-0.0019 8.7e-6,-0.02596 0.012799,-0.05054 0.014913,-0.07643 0.00791,-0.09685 0.020402,-0.193925 0.057787,-0.285205 0.00119,-0.0029 6.509e-4,-0.0065 0.00186,-0.0093 0.043188,-0.102108 0.1085678,-0.189935 0.1826802,-0.270292 0.00877,-0.0096 0.01127,-0.02239 0.020505,-0.03169 0.016155,-0.01627 0.037095,-0.02243 0.054058,-0.03728 0.061028,-0.05353 0.1280471,-0.09748 0.2013211,-0.134214 0.020632,-0.01028 0.036569,-0.03046 0.057787,-0.03915 0.014364,-0.0059 0.030157,-0.006 0.044738,-0.01118 0.041434,-0.01484 0.084775,-0.02265 0.1286218,-0.03169 0.047197,-0.0096 0.093724,-0.01809 0.1416705,-0.0205 0.016697,-8.71e-4 0.031554,-0.0075 0.048466,-0.0075 z m 3.519391,2.415853 2.654456,1.103538 c -0.678069,1.637003 -1.971864,2.900973 -3.608867,3.579041 l -0.169632,-0.398914 0.177088,0.425012 c -1.6346348,0.683759 -3.4421421,0.668668 -5.0814931,-0.0037 L 6.536694,17.547352 c 0.9039445,0.370749 1.9577836,0.37699 2.9303402,-0.02982 l 0.00932,0.02423 c 0.8958018,-0.375899 1.6419028,-1.111893 2.0430368,-2.080318 z"
       id="path3123"
       inkscape:connector-curvature="0" />
  </g>
</svg>
