<?xml version="1.0" encoding="UTF-8" standalone="no"?>
<!-- Created with Inkscape (http://www.inkscape.org/) -->

<svg
   xmlns:dc="http://purl.org/dc/elements/1.1/"
   xmlns:cc="http://creativecommons.org/ns#"
   xmlns:rdf="http://www.w3.org/1999/02/22-rdf-syntax-ns#"
   xmlns:svg="http://www.w3.org/2000/svg"
   xmlns="http://www.w3.org/2000/svg"
   xmlns:sodipodi="http://sodipodi.sourceforge.net/DTD/sodipodi-0.dtd"
   xmlns:inkscape="http://www.inkscape.org/namespaces/inkscape"
   id="svg7854"
   height="16"
   width="16"
   version="1.0"
   inkscape:version="0.48.3.1 r9886"
   sodipodi:docname="printer-symbolic.svg"
   inkscape:export-filename="/usr/share/icons/Karasa Jaga/scalable/status/media-playlist-repeat.png"
   inkscape:export-xdpi="90"
   inkscape:export-ydpi="90">
  <metadata
     id="metadata5314">
    <rdf:RDF>
      <cc:Work
         rdf:about="">
        <dc:format>image/svg+xml</dc:format>
        <dc:type
           rdf:resource="http://purl.org/dc/dcmitype/StillImage" />
        <dc:title></dc:title>
      </cc:Work>
    </rdf:RDF>
  </metadata>
  <sodipodi:namedview
     pagecolor="#ffffff"
     bordercolor="#666666"
     borderopacity="1"
     objecttolerance="10"
     gridtolerance="10"
     guidetolerance="10"
     inkscape:pageopacity="0"
     inkscape:pageshadow="2"
     inkscape:window-width="1366"
     inkscape:window-height="696"
     id="namedview5312"
     showgrid="false"
     inkscape:zoom="13.906434"
     inkscape:cx="-11.158836"
     inkscape:cy="5.74137"
     inkscape:window-x="0"
     inkscape:window-y="0"
     inkscape:window-maximized="1"
     inkscape:current-layer="svg7854" />
  <defs
     id="defs7856">
    <linearGradient
       id="linearGradient5841">
      <stop
         style="stop-color:#37e700;stop-opacity:1;"
         offset="0"
         id="stop5843" />
      <stop
         id="stop5849"
         offset="0.5"
         style="stop-color:#3dfe00;stop-opacity:1;" />
      <stop
         style="stop-color:#2aad00;stop-opacity:1;"
         offset="1"
         id="stop5845" />
    </linearGradient>
    <linearGradient
       id="linearGradient4117"
       y2="34.612"
       gradientUnits="userSpaceOnUse"
       x2="22.402"
       y1="15.722"
       x1="22.146999">
      <stop
         id="stop4113"
         style="stop-color:#fff"
         offset="0" />
      <stop
         id="stop4115"
         style="stop-color:#fff;stop-opacity:0"
         offset="1" />
    </linearGradient>
    <linearGradient
       id="linearGradient3696"
       y2="21"
       gradientUnits="userSpaceOnUse"
       x2="15"
       y1="2"
       x1="15">
      <stop
         id="stop3700"
         style="stop-color:#eeeeec"
         offset="0" />
      <stop
         id="stop3702"
         style="stop-color:#babdb6"
         offset=".79220" />
      <stop
         id="stop3704"
         style="stop-color:#a1a59b"
         offset="1" />
    </linearGradient>
  </defs>
  <g
     id="g3010"
     transform="translate(0,-1.2387612)">
    <rect
       style="fill:#bebebe;fill-opacity:1"
       id="rect363"
       height="4.9664774"
       width="7.0313687"
       y="1.2387612"
       x="4.4685917" />
    <path
       sodipodi:nodetypes="ccccccccccccccccccccccccsssccsssccccccccccccc"
       inkscape:connector-curvature="0"
       id="polygon76"
       d="m 2.65625,5.75 -0.125,0.34375 -0.46875,0 C 1.6330306,6.5460147 1.4272201,6.9852338 1.25,7.4375 c -0.1625648,2.0729246 -0.1625648,2.95844 0,5.03125 l 0.21875,0 1.8125,0 9.40625,0 1.8125,0 0.21875,0 c 0.162677,-2.07281 0.162677,-2.9583254 0,-5.03125 -0.208087,-0.425576 -0.337074,-0.7975356 -0.8125,-1.34375 l -0.46875,0 -0.125,-0.34375 -1.0625,0 0.09375,0.34375 -0.40625,0 0,0.90625 -7.90625,0 0,-0.90625 -0.4375,0 L 3.65625,5.75 z M 13.375,9.53125 c 0.238663,0 0.40625,0.1991469 0.40625,0.4375 0,0.238667 -0.167587,0.4375 -0.40625,0.4375 -0.23851,0 -0.4375,-0.198833 -0.4375,-0.4375 0,-0.2383531 0.19899,-0.4373405 0.4375,-0.4375 z m -0.0625,1.15625 c 0.174437,0 0.3125,0.138177 0.3125,0.3125 0,0.174551 -0.138061,0.34375 -0.3125,0.34375 C 13.138064,11.34375 13,11.174551 13,11 c 0,-0.174323 0.138064,-0.312615 0.3125,-0.3125 z M 1.1875,12.5 1.375,13.34375 c 0.012532,0.07898 0.058638,0.08683 0.125,0.09375 l 1.9375,-0.03125 -0.03125,-0.875 z m 13.6875,0 -2.25,0.03125 -0.03125,0.875 1.9375,0.03125 c 0.06636,-0.007 0.143732,-0.01477 0.15625,-0.09375 z"
       style="fill:#bebebe;fill-opacity:1" />
  </g>
  <path
     inkscape:connector-curvature="0"
     id="path11106-2"
     style="fill:#bebebe"
     d="m 7.0002,12 v 2 H 1.469 c -0.26299,0 -0.46875,0.2057 -0.46875,0.4688 v 1.0624 C 1.00025,15.7942 1.20601,16 1.469,16 h 13.062 c 0.26299,0 0.46875,-0.2058 0.46875,-0.4688 V 14.4688 C 14.99975,14.2058 14.794,14 14.531,14 H 8.9998 v -2 z" />
</svg>
