<svg height="32" viewBox="0 0 32 32" width="32" xmlns="http://www.w3.org/2000/svg" xmlns:xlink="http://www.w3.org/1999/xlink"><linearGradient id="a"><stop offset="0" stop-color="#eeeeec"/><stop offset="1" stop-color="#eeeeec" stop-opacity="0"/></linearGradient><linearGradient id="b" gradientUnits="userSpaceOnUse" x1="68" x2="48" xlink:href="#a" y1="64" y2="120"/><linearGradient id="c" gradientUnits="userSpaceOnUse" x1="48" x2="48" y1="44" y2="128"><stop offset="0" stop-color="#7d5cbe"/><stop offset="1" stop-color="#7055a2"/></linearGradient><linearGradient id="d" gradientUnits="userSpaceOnUse" x1="48" x2="48" y1="44" y2="128"><stop offset="0" stop-color="#8d8d8d"/><stop offset="1" stop-color="#7c7c7c"/></linearGradient><filter id="e" color-interpolation-filters="sRGB" height="1.059975" width="1.090058" x="-.045029" y="-.029987"><feGaussianBlur stdDeviation="1.200767"/></filter><linearGradient id="f" gradientUnits="userSpaceOnUse" x1="40" x2="46.921875" xlink:href="#a" y1="-8" y2="89.300781"/><g fill-rule="evenodd" transform="matrix(.25 0 0 .25 -.056055 0)"><g transform="translate(.22422)"><path d="m4 120h52v-116z" fill="#6a6a6a" fill-opacity=".870588"/><path d="m54.119141 12.791016-47.2167972 105.328124h47.2167972z" fill="url(#d)"/><path d="m54.119141 12.791016-22.947266 51.1875a72 36 0 0 0 .828125.021484 72 36 0 0 0 22.119141-1.787109z" fill="url(#f)"/></g><g transform="matrix(0 1 -1 0 124.22422 64)"><path d="m4 120h52v-116z" fill="#7219bb" fill-opacity=".870588"/><path d="m54.119141 12.791016-47.2167972 105.328124h47.2167972z" fill="url(#c)"/><path d="m46.921875 89.300781c-4.049638 3.851616-6.921875 6.699219-6.921875 6.699219l-27.648438 22.11914h49.294922l10.107422-17.6875z" fill="url(#b)" transform="matrix(0 -1 1 0 -64 124)"/></g><path d="m60 6.7675781a1.2316268 1.2316268 0 0 0 -1.232422 1.2324219v4a1.2316268 1.2316268 0 0 0 1.232422 1.232422h32s.742949.01601 1.449219.36914c.706269.353135 1.318359.808939 1.318359 2.398438v66.767578h-22.767578a1.2316268 1.2316268 0 0 0 -.761719 2.199219l25.533203 20.101563a1.2316268 1.2316268 0 0 0 1.50586.0137l26.466796-20.101591a1.2316268 1.2316268 0 0 0 -.74414-2.212891h-22.76758v-66.767578-4a1.2316268 1.2316268 0 0 0 -.36133-.871094l-3.999996-3.9999998a1.2316268 1.2316268 0 0 0 -.871094-.3613281z" fill="#0a0a0a" fill-opacity=".870588" filter="url(#e)" transform="translate(.22422)"/><path d="m60.22422 8v4h32s4 0 4 4v68h-24l25.534062 20.10227 26.465938-20.10227h-24v-68-4l-4-4z" fill="#fff"/></g></svg>