<svg height="32" width="32" xmlns="http://www.w3.org/2000/svg" xmlns:xlink="http://www.w3.org/1999/xlink"><linearGradient id="a"><stop offset="0" stop-color="#fff"/><stop offset="1" stop-color="#fff" stop-opacity="0"/></linearGradient><linearGradient id="b"><stop offset="0" stop-color="#b4b4b6"/><stop offset=".5" stop-color="#9c9ca1"/><stop offset="1" stop-color="#cdcdd1"/></linearGradient><linearGradient id="c"><stop offset="0" stop-color="#fff"/><stop offset=".42597079" stop-color="#fff"/><stop offset=".5892781" stop-color="#f1f1f1"/><stop offset=".80219781" stop-color="#eaeaea"/><stop offset="1" stop-color="#dfdfdf"/></linearGradient><linearGradient id="d" gradientTransform="matrix(.04048566 0 0 .09108347 -126.62757 -142.05248)" gradientUnits="userSpaceOnUse" x1="160.93776" x2="951.7182" xlink:href="#b" y1="739.73999" y2="739.73999"/><linearGradient id="e" gradientTransform="matrix(.2500001 0 0 .5555557 -120 -99.555554)" gradientUnits="userSpaceOnUse" x1="3.188257" x2="111.99998" xlink:href="#c" y1="112.81035" y2="27.99999"/><linearGradient id="f" gradientTransform="matrix(1.0017897 0 0 .60016843 -23.66376 82.397305)" gradientUnits="userSpaceOnUse" x1="102.31124" x2="74.330322" xlink:href="#a" y1="-5.830213" y2="32"/><linearGradient id="g" gradientTransform="matrix(.04048566 0 0 .09108347 -50.627571 -142.05248)" gradientUnits="userSpaceOnUse" x1="262.41599" x2="1053.0587" xlink:href="#b" y1="895.66272" y2="895.66272"/><linearGradient id="h" gradientTransform="matrix(.2500001 0 0 .5555557 -44.000005 -99.555552)" gradientUnits="userSpaceOnUse" x1="3.188257" x2="111.99998" xlink:href="#c" y1="112.81035" y2="27.99999"/><linearGradient id="i" gradientTransform="matrix(1.0017897 0 0 .60016843 -23.66376 6.39731)" gradientUnits="userSpaceOnUse" x1="102.31124" x2="74.330322" xlink:href="#a" y1="-5.830213" y2="32"/><linearGradient id="j" gradientTransform="matrix(-.00024526 -.49999994 .49999994 -.00024526 15.997607 128.02333)" gradientUnits="userSpaceOnUse" x1="113.15723" x2="8.030884" y1="25.786163" y2="24.008759"><stop offset="0" stop-color="#0968ef"/><stop offset="1" stop-color="#aecffc"/></linearGradient><g transform="scale(.25)"><g transform="translate(24)"><rect fill="url(#d)" height="52" rx="3.823639" transform="matrix(0 -1 -1 0 0 0)" width="36" x="-120" y="-92"/><path d="m-116-88h28v44h-28z" fill="url(#e)" fill-rule="evenodd" transform="matrix(0 -1 -1 0 0 0)"/><path d="m66.851511 88c-10.702687 5.658441-19.586978 15.77867-25.837222 23.20539h27.267464c1.527198-7.11018 5.146196-17.533294 11.718247-23.20539z" fill="url(#f)" fill-rule="evenodd"/><rect fill="url(#g)" height="52" rx="3.823639" transform="matrix(0 -1 -1 0 0 0)" width="36" x="-44" y="-92"/><g fill-rule="evenodd"><path d="m-40-88h28v44h-28z" fill="url(#h)" transform="matrix(0 -1 -1 0 0 0)"/><path d="m66.851509 12c-10.702687 5.65844-19.586978 15.77867-25.837222 23.20539h27.267464c1.527198-7.11018 5.146196-17.53329 11.718247-23.20539z" fill="url(#i)"/></g></g><path d="m29.99505 17.91297-9.994105 12.004906 1.988398 1.986441 6.010672-3.90232v88.000003l3.999985-.002-.000005-88.000002 5.91387 3.896509 2.08707-1.988445z" fill="url(#j)" fill-rule="evenodd"/></g></svg>