<svg height="16" viewBox="0 0 16 16" width="16" xmlns="http://www.w3.org/2000/svg" xmlns:xlink="http://www.w3.org/1999/xlink"><linearGradient id="a" gradientUnits="userSpaceOnUse" x1="99.313477" x2="111.6865" y1="210.5" y2="210.5"><stop offset="0" stop-color="#b4b4b6"/><stop offset=".5" stop-color="#9c9ca1"/><stop offset="1" stop-color="#cdcdd1"/></linearGradient><linearGradient id="b" gradientTransform="matrix(.63637437 0 0 .63752362 296.72284 123.49004)" gradientUnits="userSpaceOnUse" x1="103.1433" x2="109.42765" y1="216.02077" y2="208.15129"><stop offset="0" stop-color="#fff"/><stop offset=".42597079" stop-color="#fff"/><stop offset=".5892781" stop-color="#e5e5e5"/><stop offset=".80219781" stop-color="#eaeaea"/><stop offset="1" stop-color="#eee"/></linearGradient><linearGradient id="c" gradientTransform="matrix(1.124777 0 0 1.399469 339.507 -41.54364)" gradientUnits="userSpaceOnUse" x1="22.514324" x2="22.042749" y1="212.72124" y2="218.3974"><stop offset="0" stop-color="#717174"/><stop offset=".5" stop-color="#9c9ca1"/><stop offset="1" stop-color="#bdbdc2"/></linearGradient><linearGradient id="d" gradientTransform="matrix(1.165669 0 0 1.655559 338.7499 -97.1359)" gradientUnits="userSpaceOnUse" x1="17.483259" x2="20.989229" y1="215.0097" y2="218.8156"><stop offset="0" stop-color="#a9cbfc"/><stop offset="1" stop-color="#aecffc"/></linearGradient><linearGradient id="e" gradientUnits="userSpaceOnUse" x1="47.994141" x2="103.82617" y1="56.083008" y2="56.083008"><stop offset="0" stop-color="#fff"/><stop offset="1" stop-color="#fff" stop-opacity="0"/></linearGradient><g transform="translate(-353.33059375 -252.15313)"><path d="m355.8306 258.65314h8.999997v6.999993h-8.999997z" fill="none" stroke="url(#c)" stroke-linejoin="round" stroke-miterlimit="0"/><g fill-rule="evenodd"><path d="m356.3306 259.15314h7.999997v5.999993h-7.999997z" fill="url(#d)"/><path d="m364.33059 260.6132c-2.02027 1.8286-5.34839 3.47206-8 4.53993v-4.65872c2.5386-.26093 5.97486-.21842 8-1.34128z" fill="#80b3ff"/></g></g><g transform="matrix(1.0001991 0 0 .99661605 -354.43273375 -250.32447)"><circle cx="105.5" cy="210.5" r="5.5" style="fill:none;stroke-width:1.373036;stroke-linecap:round;stroke-linejoin:round;stroke-miterlimit:0;stroke:url(#a)" transform="matrix(.727881 0 0 .728748 287.069 104.2892)"/><g fill-rule="evenodd"><ellipse cx="363.86035" cy="257.68878" fill="url(#b)" rx="3.500059" ry="3.50638"/><path d="m97.025391 33.525391c-14.986448 7.713252-33.010579 15.684531-49.007813 17.953125a28.006048 27.956117 0 0 0 -.023437.458984 28.006048 27.956117 0 0 0 19.716797 26.703125c12.994116-8.981726 25.561269-20.058442 36.115232-29.585937a28.006048 27.956117 0 0 0 -6.800779-15.529297z" fill="url(#e)" transform="matrix(.12497512 0 0 .12542443 354.36218 251.17443)"/></g></g><g fill="none" fill-opacity=".952941" stroke="#8c0000" stroke-linecap="square" transform="translate(-679.1341 -99.11638)"><path d="m679.6341 99.61638h1"/><path d="m679.6341 101.61638v1"/><path d="m682.6341 99.61638h1"/><path d="m685.6341 99.61638h1"/><path d="m688.6341 99.61638h1"/><path d="m691.6341 99.61638h1"/><path d="m681.6341 114.61638h1"/><path d="m684.6341 114.61638h1"/><path d="m687.6341 114.61638h1"/><path d="m690.6341 114.61638h1"/><path d="m693.6341 114.61638h1"/><path d="m679.6341 104.61638v1"/><path d="m679.6341 107.61638v1"/><path d="m679.6341 110.61638v1"/><path d="m679.6341 113.61638v1"/><path d="m694.6341 111.61638v1"/><path d="m694.6341 108.61638v1"/><path d="m694.6341 105.61638v1"/><path d="m694.6341 102.61638v1"/><path d="m694.6341 99.61638v1"/></g></svg>