<svg height="16" viewBox="0 0 16 16" width="16" xmlns="http://www.w3.org/2000/svg" xmlns:xlink="http://www.w3.org/1999/xlink"><linearGradient id="a" gradientUnits="userSpaceOnUse" x1="58.651283" x2="78.743713" y1="18.026964" y2="51.113689"><stop offset="0" stop-color="#e4e7eb"/><stop offset="1" stop-color="#f0f2f4"/></linearGradient><linearGradient id="b" gradientUnits="userSpaceOnUse" x1="53.749546" x2="93.753166" y1="7.869188" y2="58.52047"><stop offset="0" stop-color="#fff"/><stop offset="1" stop-color="#fff" stop-opacity="0"/></linearGradient><g transform="matrix(.125 0 0 .125 -.00000025 7)"><path d="m16.000002 8.0078125c-6.4643878.0014235-10.2527665 7.2775515-6.5468751 12.5742185l28.0000001 32c1.495209 2.136784 3.938908 3.409665 6.546875 3.410157h67.999998c6.46439-.0014 10.25277-7.27755 6.54688-12.574219l-28.000003-32c-1.495209-2.1367834-3.938908-3.4096651-6.546875-3.4101565z" fill="#848484" fill-opacity=".952941"/><path d="m16.000002 16 28 32h67.999998l-27.999998-32z" fill="url(#a)"/><path d="m16.000002 16 14.574769 16.649885c8.276134.624083 15.561292 1.30559 24.110504 1.318359 19.858152-.0017 24.450625-1.873544 41.126947-5.012l-11.81222-12.956244z" fill="url(#b)"/></g><g transform="matrix(.125 0 0 .125 -.00000025 4)"><path d="m16.000002 8.0078125c-6.4643878.0014235-10.2527665 7.2775515-6.5468751 12.5742185l28.0000001 32c1.495209 2.136784 3.938908 3.409665 6.546875 3.410157h67.999998c6.46439-.0014 10.25277-7.27755 6.54688-12.574219l-28.000003-32c-1.495209-2.1367834-3.938908-3.4096651-6.546875-3.4101565z" fill="#848484" fill-opacity=".952941"/><path d="m16.000002 16 28 32h67.999998l-27.999998-32z" fill="url(#a)"/><path d="m16.000002 16 14.574769 16.649885c8.276134.624083 15.561292 1.30559 24.110504 1.318359 19.858152-.0017 24.450625-1.873544 41.126947-5.012l-11.81222-12.956244z" fill="url(#b)"/></g><g transform="matrix(.125 0 0 .125 -.00000025 1)"><path d="m16.000002 8.0078125c-6.4643878.0014235-10.2527665 7.2775515-6.5468751 12.5742185l28.0000001 32c1.495209 2.136784 3.938908 3.409665 6.546875 3.410157h67.999998c6.46439-.0014 10.25277-7.27755 6.54688-12.574219l-28.000003-32c-1.495209-2.1367834-3.938908-3.4096651-6.546875-3.4101565z" fill="#848484" fill-opacity=".952941"/><path d="m16.000002 16 28 32h67.999998l-27.999998-32z" fill="url(#a)"/><path d="m16.000002 16 14.574769 16.649885c8.276134.624083 15.561292 1.30559 24.110504 1.318359 19.858152-.0017 24.450625-1.873544 41.126947-5.012l-11.81222-12.956244z" fill="url(#b)"/></g><g fill="none" fill-opacity=".952941" stroke="#5fbaff" stroke-linecap="square" transform="translate(-679.1341 -99.11638)"><path d="m679.6341 99.61638h1"/><path d="m679.6341 101.61638v1"/><path d="m682.6341 99.61638h1"/><path d="m685.6341 99.61638h1"/><path d="m688.6341 99.61638h1"/><path d="m691.6341 99.61638h1"/><path d="m681.6341 114.61638h1"/><path d="m684.6341 114.61638h1"/><path d="m687.6341 114.61638h1"/><path d="m690.6341 114.61638h1"/><path d="m693.6341 114.61638h1"/><path d="m679.6341 104.61638v1"/><path d="m679.6341 107.61638v1"/><path d="m679.6341 110.61638v1"/><path d="m679.6341 113.61638v1"/><path d="m694.6341 111.61638v1"/><path d="m694.6341 108.61638v1"/><path d="m694.6341 105.61638v1"/><path d="m694.6341 102.61638v1"/><path d="m694.6341 99.61638v1"/></g></svg>