<svg height="16" viewBox="0 0 4.2333332 4.2333335" width="16" xmlns="http://www.w3.org/2000/svg" xmlns:xlink="http://www.w3.org/1999/xlink"><linearGradient id="a" gradientTransform="matrix(0 .26458333 -.26458333 0 4.233451 292.7669)" gradientUnits="userSpaceOnUse" x1="24.999807" x2="23.999807" y1="10.768957" y2="-4.231043"><stop offset="0" stop-color="#005f1e"/><stop offset="1" stop-color="#43943c"/></linearGradient><radialGradient id="b" cx="21.664968" cy="5.806535" gradientTransform="matrix(-.0190575 .15246 -.13657466 -.01707183 3.190398 293.66403)" gradientUnits="userSpaceOnUse" r="7.74912" xlink:href="#c"/><linearGradient id="c"><stop offset="0"/><stop offset="1" stop-opacity="0"/></linearGradient><radialGradient id="d" cx="6.5" cy="9.859922" gradientTransform="matrix(-.0190575 .15246 -.13657466 -.01707183 3.190398 293.66403)" gradientUnits="userSpaceOnUse" r="7.74912" xlink:href="#c"/><radialGradient id="e" cx="6.713591" cy="4.018276" gradientTransform="matrix(-.0190575 .15246 -.13657466 -.01707183 3.190398 293.66403)" gradientUnits="userSpaceOnUse" r="7.74912" xlink:href="#c"/><radialGradient id="f" cx="7.400531" cy="9.437683" gradientTransform="matrix(.3693065 -.01318949 .01944954 .54458811 -.667662 290.63521)" gradientUnits="userSpaceOnUse" r="6.801777"><stop offset="0" stop-color="#83fc28"/><stop offset="1" stop-color="#102c07"/></radialGradient><linearGradient id="g" gradientUnits="userSpaceOnUse" x1="6.34995085542" x2="6.87911751542" y1="290.85362655369" y2="293.76404318369"><stop offset="0" stop-color="#edffbf"/><stop offset="1" stop-color="#edffbf" stop-opacity="0"/></linearGradient><linearGradient id="h" gradientUnits="userSpaceOnUse" x1="16.431683" x2="-2.000241" y1="15.692842" y2="16.000433"><stop offset="0" stop-color="#b2ff00"/><stop offset="1" stop-color="#acff00" stop-opacity="0"/></linearGradient><filter id="i" color-interpolation-filters="sRGB" height="1.0552" width="1.042461" x="-.021231" y="-.0276"><feGaussianBlur stdDeviation=".115"/></filter><g transform="translate(0 -292.76665)"><g stroke-width=".264583"><path d="m3.9688676 294.74714c-.0008996-.064-.024937-.1255-.067696-.17312l-1.4552082-1.5875c-.00319-.003-.00646-.007-.00982-.01l-.1322917-.1323c-.1033277-.10328-.2708096-.10328-.3741373 0l-.1322917.1323c-.00336.003-.00663.006-.00982.01l-1.45520867 1.5875c-.0942065.1047-.0898903.26485.009819.36432l.26458334.26459c.0968208.0968.25145921.10371.35656732.016l.62425131-.56431v2.08101c.0000146.14612.118464.26457.2645833.26458h.5291667c.1461193-.00001.2645687-.11846.2645833-.26458v-2.08101l.6242514.56431c.1051078.0877.2597464.0807.3565673-.016l.264583-.26459c.050644-.0506.078611-.1196.077515-.1912z" fill="url(#a)"/><path d="m3.9688676 294.74714c-.0008996-.064-.024937-.1255-.067696-.17312l-1.4552082-1.5875c-.00319-.003-.00646-.007-.00982-.01l-.1322917-.1323c-.1033277-.10328-.2708096-.10328-.3741373 0l-.1322917.1323c-.00336.003-.00663.006-.00982.01l-1.45520867 1.5875c-.0942065.1047-.0898903.26485.009819.36432l.26458334.26459c.0968208.0968.25145921.10371.35656732.016l.62425131-.56431v2.08101c.0000146.14612.118464.26457.2645833.26458h.5291667c.1461193-.00001.2645687-.11846.2645833-.26458v-2.08101l.6242514.56431c.1051078.0877.2597464.0807.3565673-.016l.264583-.26459c.050644-.0506.078611-.1196.077515-.1912z" fill="url(#b)"/><path d="m3.9688676 294.74714c-.0008996-.064-.024937-.1255-.067696-.17312l-1.4552082-1.5875c-.00319-.003-.00646-.007-.00982-.01l-.1322917-.1323c-.1033277-.10328-.2708096-.10328-.3741373 0l-.1322917.1323c-.00336.003-.00663.006-.00982.01l-1.45520867 1.5875c-.0942065.1047-.0898903.26485.009819.36432l.26458334.26459c.0968208.0968.25145921.10371.35656732.016l.62425131-.56431v2.08101c.0000146.14612.118464.26457.2645833.26458h.5291667c.1461193-.00001.2645687-.11846.2645833-.26458v-2.08101l.6242514.56431c.1051078.0877.2597464.0807.3565673-.016l.264583-.26459c.050644-.0506.078611-.1196.077515-.1912z" fill="url(#d)"/><path d="m3.9688676 294.74714c-.0008996-.064-.024937-.1255-.067696-.17312l-1.4552082-1.5875c-.00319-.003-.00646-.007-.00982-.01l-.1322917-.1323c-.1033277-.10328-.2708096-.10328-.3741373 0l-.1322917.1323c-.00336.003-.00663.006-.00982.01l-1.45520867 1.5875c-.0942065.1047-.0898903.26485.009819.36432l.26458334.26459c.0968208.0968.25145921.10371.35656732.016l.62425131-.56431v2.08101c.0000146.14612.118464.26457.2645833.26458h.5291667c.1461193-.00001.2645687-.11846.2645833-.26458v-2.08101l.6242514.56431c.1051078.0877.2597464.0807.3565673-.016l.264583-.26459c.050644-.0506.078611-.1196.077515-.1912z" fill="url(#e)"/><path d="m3.7042843 294.75127-1.4552084-1.5875-.1322916-.13229-.1322917.13229-1.45520835 1.5875.26458333.26459 1.05833332-.92604v2.64583h.5291667v-2.64583l1.0583333.92604z" fill="url(#f)"/><path d="m2.1166696 293.03142-.1322917.13229-.99890542 1.08986c.099627.003.19917942.006.29920652.006.1218373-.00009.2558913-.007.3855062-.0103l.1819011-.15917v.15451c.1753605-.007.3504171-.019.5291666-.0326v-.12196l.1286743.11266c.2162688-.0182.4237502-.0412.6283853-.0682l-.8893512-.97048z" fill="url(#g)"/></g><path d="m7.5 2-6 5.5-.5.5.5.5 6 5.5 1-1-3.5-4h10v-2h-10l3.5-4z" fill="none" filter="url(#i)" stroke="url(#h)" stroke-width=".5" transform="matrix(0 .26458333 -.26458333 0 4.233451 292.7669)"/></g></svg>