<svg height="16" viewBox="0 0 16 16" width="16" xmlns="http://www.w3.org/2000/svg" xmlns:xlink="http://www.w3.org/1999/xlink"><linearGradient id="a" gradientUnits="userSpaceOnUse" x1="58.651283" x2="78.743713" y1="18.026964" y2="51.113689"><stop offset="0" stop-color="#e4e7eb"/><stop offset="1" stop-color="#f0f2f4"/></linearGradient><linearGradient id="b" gradientUnits="userSpaceOnUse" x1="53.749546" x2="93.753166" y1="7.869188" y2="58.52047"><stop offset="0" stop-color="#fff"/><stop offset="1" stop-color="#fff" stop-opacity="0"/></linearGradient><radialGradient id="c" cx="-32" cy="9.6" gradientTransform="matrix(3.0760953 3.0760953 -15.380477 15.380477 274.61753 -37.568953)" gradientUnits="userSpaceOnUse" r="5.6"><stop offset="0" stop-color="#a50606"/><stop offset="1" stop-color="#f20909"/></radialGradient><g transform="matrix(.125 0 0 .125 0 7)"><path d="m8 8.0078125c-6.4643877.0014235-10.2527664 7.2775515-6.546875 12.5742185l28 32c1.495209 2.136784 3.938908 3.409665 6.546875 3.410157h84c6.46439-.0014 10.25277-7.27755 6.54688-12.574219l-28.000005-32c-1.495209-2.1367834-3.938908-3.4096651-6.546875-3.4101565z" fill="#848484" fill-opacity=".952941"/><path d="m8 16 28 32h84l-28-32z" fill="url(#a)"/><path d="m8 16 14.574769 16.649885c8.276134.624083 15.561292 1.30559 24.110504 1.318359 19.858152-.0017 40.450625-1.873544 57.126947-5.012l-11.81222-12.956244z" fill="url(#b)"/></g><g opacity=".5" transform="matrix(.125 0 0 .125 0 3.999023375)"><path d="m8 8.0078125c-6.4643877.0014235-10.2527664 7.2775515-6.546875 12.5742185l28 32c1.495209 2.136784 3.938908 3.409665 6.546875 3.410157h84c6.46439-.0014 10.25277-7.27755 6.54688-12.574219l-28.000005-32c-1.495209-2.1367834-3.938908-3.4096651-6.546875-3.4101565z" fill="#848484" fill-opacity=".952941"/><path d="m8 16 28 32h84l-28-32z" fill="url(#a)"/><path d="m8 16 14.574769 16.649885c8.276134.624083 15.561292 1.30559 24.110504 1.318359 19.858152-.0017 40.450625-1.873544 57.126947-5.012l-11.81222-12.956244z" fill="url(#b)"/></g><g transform="scale(.125)"><path d="m8 40c-6.4643877.0014-10.2527664 7.277552-6.546875 12.574219l3.8261719 4.373047a9.5520215 9.5520215 0 0 0 9.6308591-2.34961l9.089844-9.089844 9.089844 9.089844a9.5520215 9.5520215 0 0 0 13.507812 0l7.910156-7.910156a9.5520215 9.5520215 0 0 0 2.794922-6.6875z" fill="#fff" fill-opacity=".871324"/><path d="m39.843608.33487-15.84361 15.843611-15.843611-15.843611-7.91075697 7.9107567 15.84361097 15.8436113-15.84361097 15.843611 7.91075697 7.910757 15.843611-15.843611 15.84361 15.843611 7.91076-7.910757-15.84361-15.843611 15.84361-15.8436113z" fill="url(#c)"/></g></svg>