<svg height="16" viewBox="0 0 16 16" width="16" xmlns="http://www.w3.org/2000/svg" xmlns:xlink="http://www.w3.org/1999/xlink"><linearGradient id="a"><stop offset="0" stop-color="#fff"/><stop offset="1" stop-color="#fff" stop-opacity="0"/></linearGradient><linearGradient id="b" gradientUnits="userSpaceOnUse" x1="58.651283" x2="64" y1="18.026964" y2="64"><stop offset="0" stop-color="#5a9af5"/><stop offset="1" stop-color="#a6c9fa"/></linearGradient><linearGradient id="c" gradientUnits="userSpaceOnUse" x1="58.651283" x2="78.743713" y1="18.026964" y2="51.113689"><stop offset="0" stop-color="#e4e7eb"/><stop offset="1" stop-color="#f0f2f4"/></linearGradient><linearGradient id="d" gradientUnits="userSpaceOnUse" x1="53.749546" x2="93.753166" xlink:href="#a" y1="7.869188" y2="58.52047"/><linearGradient id="e" gradientTransform="matrix(7.999104 0 0 7.999352 -7719.1273 -1351.884)" gradientUnits="userSpaceOnUse" x1="974.00012" x2="973" y1="175.99985" y2="186.00066"><stop offset="0" stop-color="#0968ef"/><stop offset="1" stop-color="#aecffc"/></linearGradient><linearGradient id="f" gradientUnits="userSpaceOnUse" x1="48" x2="56" xlink:href="#a" y1="8" y2="40"/><g transform="scale(.125)"><g transform="translate(0 72.007812)"><path d="m8 8.0078125c-6.4643877.0014235-10.2527664 7.2775515-6.546875 12.5742185l28 32c1.495209 2.136784 3.938908 3.409665 6.546875 3.410157h84c6.46439-.0014 10.25277-7.27755 6.54688-12.574219l-28.000005-32c-1.495209-2.1367834-3.938908-3.4096651-6.546875-3.4101565z" fill="#848484" fill-opacity=".952941"/><path d="m8 16 28 32h84l-28-32z" fill="url(#c)"/><path d="m8 16 14.574769 16.649885c8.276134.624083 15.561292 1.30559 24.110504 1.318359 19.858152-.0017 40.450625-1.873544 57.126947-5.012l-11.81222-12.956244z" fill="url(#d)"/></g><g transform="translate(0 40)"><path d="m8 8.0078125c-6.4643877.0014235-10.2527664 7.2775515-6.546875 12.5742185l28 32c1.495209 2.136784 3.938908 3.409665 6.546875 3.410157h84c6.46439-.0014 10.25277-7.27755 6.54688-12.574219l-28.000005-32c-1.495209-2.1367834-3.938908-3.4096651-6.546875-3.4101565z" fill="#848484" fill-opacity=".952941"/><path d="m8 16 28 32h84l-28-32z" fill="url(#b)"/><path d="m8 16 14.574769 16.649885c8.276134.624083 15.561292 1.30559 24.110504 1.318359 19.858152-.0017 40.450625-1.873544 57.126947-5.012l-11.81222-12.956244z" fill="url(#f)"/></g><g transform="translate(0 -8.007813)"><path d="m8 8.0078125c-6.4643877.0014235-10.2527664 7.2775515-6.546875 12.5742185l28 32c1.495209 2.136784 3.938908 3.409665 6.546875 3.410157h84c6.46439-.0014 10.25277-7.27755 6.54688-12.574219l-28.000005-32c-1.495209-2.1367834-3.938908-3.4096651-6.546875-3.4101565z" fill="#848484" fill-opacity=".952941"/><path d="m8 16 28 32h84l-28-32z" fill="url(#c)"/><path d="m8 16 14.574769 16.649885c8.276134.624083 15.561292 1.30559 24.110504 1.318359 19.858152-.0017 40.450625-1.873544 57.126947-5.012l-11.81222-12.956244z" fill="url(#d)"/></g><path d="m68.000448 56.001944-19.99776 23.998056h15.998208v39.99676l7.999104-7.99935v-31.99741h15.998208z" fill="url(#e)" fill-rule="evenodd" stroke-width="7.999228"/></g></svg>