<svg height="16" viewBox="0 0 4.2333333 4.2333335" width="16" xmlns="http://www.w3.org/2000/svg"><circle cx="2.38564717564" cy="2.38566448821" fill="#4d4d4d" r="1.84768417853"/><g transform="matrix(.17638878976 0 0 .17638878976 -198.0846168637 -60.85412265356)"><path d="m1144.5 357a9.5 9.5 0 0 1 -4.75 8.22724l-4.75-8.22724z" fill="#fff"/><path d="m1130.25 348.77276a9.5 9.5 0 0 1 9.5 0l-4.75 8.22724z" fill="#fff"/><path d="m1139.75 365.22724a9.5 9.5 0 0 1 -9.5 0l4.75-8.22724z" fill="#0968ef"/><path d="m1130.25 365.22724a9.5 9.5 0 0 1 -4.75-8.22724h9.5z" fill="#fff"/><path d="m1125.5 357a9.5 9.5 0 0 1 4.75-8.22724l4.75 8.22724z" fill="#0968ef"/><path d="m1139.75 348.77276a9.5 9.5 0 0 1 4.75 8.22724h-9.5z" fill="#0968ef"/><circle cx="1135" cy="357" fill="none" r="9.737591" stroke="#4a4a4a" stroke-width="1.500001"/></g></svg>