<svg height="16" viewBox="0 0 4.2333333 4.2333335" width="16" xmlns="http://www.w3.org/2000/svg" xmlns:xlink="http://www.w3.org/1999/xlink"><linearGradient id="a" gradientUnits="userSpaceOnUse" x1=".529174" x2="5.820834" y1="293.82498" y2="293.82498"><stop offset="0" stop-color="#4a4a4a"/><stop offset="1" stop-color="#737373"/></linearGradient><g stroke-width="5.33333"><path d="m.00001-1579.76554h50.666635v50.666635h-50.666635z" fill="#99b6d4"/><path d="m.00001-1529.098905h50.666635v50.666635h-50.666635z" fill="#fff"/><path d="m50.666645-1529.098905h50.666635v50.666635h-50.666635z" fill="#99b6d4"/><path d="m50.666645-1579.76554h50.666635v50.666635h-50.666635z" fill="#fff"/></g><path d="m-3294.0841711961-294.4320500006h5.02708485807v5.02708485807h-5.02708485807z" fill="none" stroke="#000" stroke-linecap="round" stroke-linejoin="round" stroke-width=".26458116797"/><g transform="matrix(.66666625 0 0 .66666625 -.00000066666 -193.7665129166)"><path d="m.79375 291.70831h5.556253v5.291662h-5.556253z" fill="#4d4d4d" fill-rule="evenodd" stroke-width=".264583"/><path d="m13.333984 13.333984v50.666016.002 50.66407h50.666016 50.66602v-50.66607-50.666016h-50.66602z" fill="#0968ef" stroke-width="5.33333" transform="matrix(.04960941 0 0 .04960941 -.000002 290.64997)"/><path d="m.595311 291.24527h5.159378v5.159392h-5.159378z" fill="none" stroke="url(#a)" stroke-linecap="round" stroke-linejoin="round" stroke-width=".396875"/></g></svg>