<svg height="16" viewBox="0 0 4.2333333 4.2333335" width="16" xmlns="http://www.w3.org/2000/svg" xmlns:xlink="http://www.w3.org/1999/xlink"><linearGradient id="a" gradientUnits="userSpaceOnUse" x1="672.18899738515" x2="673.22942702582" y1="251.53490615265" y2="255.4178425556"><stop offset="0" stop-color="#fff"/><stop offset="1" stop-color="#fff" stop-opacity="0"/></linearGradient><radialGradient id="b" cx="72.631729" cy="22.787588" gradientTransform="matrix(1.1855461 0 0 1.1855486 586.2193 227.48421)" gradientUnits="userSpaceOnUse" r="1.265237" xlink:href="#c"/><linearGradient id="c"><stop offset="0" stop-color="#fd0000"/><stop offset="1" stop-color="#8f0000"/></linearGradient><linearGradient id="d" gradientUnits="userSpaceOnUse" x1="672.0213" x2="675.5213" xlink:href="#c" y1="249.5" y2="254.5"/><radialGradient id="e" cx="673.01862" cy="246.49455" gradientTransform="matrix(.50118715 0 0 .50232981 335.71303 122.67844)" gradientUnits="userSpaceOnUse" r="1.006323" xlink:href="#c"/><linearGradient id="f" gradientUnits="userSpaceOnUse" x1="672.0213" x2="673.0213" xlink:href="#c" y1="243.5" y2="248.5"/><g transform="translate(-670.5213 -537.7656)"><path d="m670.5213 245h12v12h-12z" fill-rule="evenodd" opacity="0" stroke-width=".8"/><g stroke-linecap="round" stroke-linejoin="round" stroke-miterlimit="0"><path d="m682.0213 245.5c-3.5.5-8.5 4-8.5 8" fill="none" stroke="#909090"/><path d="m673.0213 247.5v6" fill="none" stroke="#646464"/><rect fill="#fff" fill-opacity=".392157" fill-rule="evenodd" height=".536221" rx=".267501" stroke="#00f" stroke-width=".264584" width=".535001" x="884.36005" y="370.32315"/><path d="m1057.0548 352.74072h1.047087v1.050572h-1.047087z" fill="#6464ff" fill-opacity=".392157" fill-rule="evenodd" stroke="#00f" stroke-width=".264583"/></g></g><path d="m1143.491-127.99663h1.047087v1.050572h-1.047087z" style="fill:#6464ff;fill-opacity:.392157;fill-rule:evenodd;stroke:#00f;stroke-width:.264583;stroke-linecap:round;stroke-linejoin:round;stroke-miterlimit:0"/><g transform="matrix(.264583325 0 0 .264583325 -177.14417155541 -64.293741775)"><path d="m670.5213 245h12v12h-12z" fill-rule="evenodd" opacity="0" stroke-width=".8"/><path d="m682.0213 245.5c-3.5.5-8.5 4-8.5 8" fill="none" stroke="#909090" stroke-linecap="round" stroke-linejoin="round" stroke-miterlimit="0"/><path d="m673.0213 247.5v6" fill="none" stroke="#646464" stroke-linecap="round" stroke-linejoin="round" stroke-miterlimit="0"/><rect fill="url(#d)" fill-rule="evenodd" height="4.999999" rx=".499989" ry=".499999" width="5.000011" x="670.5213" y="252"/><rect fill="url(#b)" height="2.999999" rx=".1875" stroke-width=".125" width="3.000011" x="671.5213" y="253"/><path d="m671.80255 253.00002c-.1558 0-.28125.1254-.28125.28125v1.41797c.22796.0216.46262.0351.70313.0351.86561 0 1.662-.14595 2.29688-.39258v-1.06055c0-.15582-.1254-.28125-.28125-.28125z" fill="url(#a)" stroke-width=".187501"/><g fill-rule="evenodd"><rect fill="url(#f)" height="3.001342" rx="1.497258" width="2.994515" x="671.52673" y="245.00484"/><rect fill="url(#e)" height="1.011013" rx=".504356" width="1.008713" x="672.51965" y="246"/></g></g></svg>