<svg height="16" width="16" xmlns="http://www.w3.org/2000/svg" xmlns:xlink="http://www.w3.org/1999/xlink"><linearGradient id="a"><stop offset="0" stop-color="#fff"/><stop offset="1" stop-color="#fff" stop-opacity="0"/></linearGradient><filter id="b" height="1.249912" width="1.20414" x="-.10207" y="-.124956"><feGaussianBlur stdDeviation=".44655691"/></filter><filter id="c"><feGaussianBlur stdDeviation=".39999996"/></filter><linearGradient id="d" gradientUnits="userSpaceOnUse" x1="112.11117456119" x2="117.07706908841" xlink:href="#a" y1="46.02968816355" y2="64.56265942772"/><radialGradient id="e" cx="72.631729" cy="22.787588" gradientTransform="matrix(28.302594 0 0 8.4878405 -1939.6274 -129.65569)" gradientUnits="userSpaceOnUse" r="1.265237"><stop offset="0" stop-color="#25fd00"/><stop offset="1" stop-color="#188f00"/></radialGradient><linearGradient id="f" gradientUnits="userSpaceOnUse" spreadMethod="reflect" x1="73.742638" x2="79.463493" xlink:href="#a" y1="15.336544" y2="22.022369"/><linearGradient id="g" gradientUnits="userSpaceOnUse" spreadMethod="reflect" x1="73.992638" x2="79.78434" xlink:href="#a" y1="15.336544" y2="19.787271"/><linearGradient id="h" gradientUnits="userSpaceOnUse" spreadMethod="reflect" x1="73.742638" x2="78.53434" xlink:href="#a" y1="15.336544" y2="19.479006"/><linearGradient id="i" gradientUnits="userSpaceOnUse" spreadMethod="reflect" x1="73.742638" x2="79.698868" xlink:href="#a" y1="15.336544" y2="19.547495"/><linearGradient id="j" gradientUnits="userSpaceOnUse" x1="118.41798274131" x2="123.19089778716" y1="29.15783885584" y2="72.1143685138"><stop offset="0" stop-color="#20fd00"/><stop offset="1" stop-color="#318f00"/></linearGradient><path d="m-112 48h8v8h-8z" fill="#7193c6" transform="matrix(0 -.125 .125 0 0 0)"/><path d="m-112 64h8v8h-8z" fill="#7193c6" transform="matrix(0 -.125 .125 0 0 0)"/><path d="m-112 80h8v8h-8z" fill="#7193c6" transform="matrix(0 -.125 .125 0 0 0)"/><g transform="matrix(.0883883475 -.0883883475 .0883883475 .0883883475 -2.06564525 18.38309525)"><rect fill="#00650c" filter="url(#c)" height="20" rx="4.194544" transform="matrix(1.1932367 0 0 1.1932367 94.553213 33.930788)" width="19.999996" x="8.000004" y="12.700005"/><rect fill="url(#j)" height="23.864733" rx="5.005084" width="23.864729" x="104.09911" y="48.24963"/><g fill-rule="evenodd"><path d="m69.875971 12.057888c-1.077088.06528-2.528221.219164-3 .9375l1.589684 11.138061 10.534345-.759359v-.46875c2.213433-3.042635-3.94199-11.74525-9.124029-10.847452z" fill="url(#i)" filter="url(#b)" transform="matrix(0 -.5966183 -.5966183 0 134.85329 95.79943)"/><path d="m69.875971 12.057888c-1.077088.06528-2.528221.219164-3 .9375l1.589684 11.138061 9.534345-.759359v-.46875c1.740958-3.276724-3.780448-12.16614-8.124029-10.847452z" fill="url(#h)" filter="url(#b)" transform="matrix(-.5966183 0 0 .5966183 150.95414 41.401043)"/><g transform="matrix(1.1932367 0 0 1.1932367 46.823746 -13.798679)"><path d="m69.875971 12.057888c-1.077088.06528-2.528221.219164-3 .9375l1.589684 11.138061 10.534345-.759359v-.46875c2.213433-3.042635-3.94199-11.74525-9.124029-10.847452z" fill="url(#f)" filter="url(#b)" opacity=".483271" transform="matrix(0 .5 -.5 0 73.773747 32.929701)"/><path d="m69.875971 12.057888c-1.077088.06528-2.528221.219164-3 .9375l1.589684 11.138061 9.534345-.759359v-.46875c1.740958-3.276724-3.780448-12.16614-8.124029-10.847452z" fill="url(#g)" filter="url(#b)" opacity=".483271" transform="matrix(-.5 0 0 -.5 87.267171 78.518636)"/></g></g><rect fill="url(#e)" height="14.318842" rx="1.342392" width="14.31885" x="108.87954" y="53.022579"/><path d="m110.26665 53.022575c-.74368 0-1.34239.598706-1.34239 1.342391v6.767889c1.08803.10342 2.20804.167799 3.35598.167799 4.13147 0 7.9326-.696721 10.96286-1.873754v-5.061934c0-.743685-.5987-1.342391-1.34239-1.342391z" fill="url(#d)"/></g><g fill="#7193c6"><path d="m-112 32h8v8h-8z" transform="matrix(0 -.125 .125 0 0 0)"/><path d="m-112 16h8v8h-8z" transform="matrix(0 -.125 .125 0 0 0)"/><path d="m-112 0h8v8h-8z" transform="matrix(0 -.125 .125 0 0 0)"/><path d="m12.999999625 5.99999975h1v1h-1z"/><path d="m12.999999625 8.00000025h1v1h-1z"/><path d="m12.999999625 10.00000025h1v1h-1z"/><path d="m12.999999625 3.99999975h1v1h-1z"/><path d="m12.999999625 2h1v1h-1z"/><path d="m13.000000625-.000000625h1v1h-1z"/></g></svg>