<svg height="16" width="16" xmlns="http://www.w3.org/2000/svg" xmlns:xlink="http://www.w3.org/1999/xlink"><linearGradient id="a"><stop offset="0" stop-color="#fff"/><stop offset="1" stop-color="#fff" stop-opacity="0"/></linearGradient><linearGradient id="b"><stop offset="0" stop-color="#b4b4b6"/><stop offset=".5" stop-color="#9c9ca1"/><stop offset="1" stop-color="#cdcdd1"/></linearGradient><linearGradient id="c"><stop offset="0" stop-color="#fff"/><stop offset=".42597079" stop-color="#fff"/><stop offset=".5892781" stop-color="#f1f1f1"/><stop offset=".80219781" stop-color="#eaeaea"/><stop offset="1" stop-color="#dfdfdf"/></linearGradient><linearGradient id="d" gradientTransform="matrix(.6389833 0 0 .3828125 20.74564 1.925)" gradientUnits="userSpaceOnUse" x1="102.31124" x2="74.330322" xlink:href="#a" y1="-5.830213" y2="32"/><linearGradient id="e" gradientTransform="matrix(.2500001 0 0 .5555557 -36.000005 -103.55555)" gradientUnits="userSpaceOnUse" x1="-8.271346" x2="124.09152" xlink:href="#c" y1="116.19998" y2="27.999992"/><linearGradient id="f" gradientTransform="matrix(.04048566 0 0 .09108347 -42.627571 -146.05248)" gradientUnits="userSpaceOnUse" x1="183.64876" x2="998.75214" xlink:href="#b" y1="917.64343" y2="903.13214"/><linearGradient id="g" gradientTransform="matrix(.04048566 0 0 .09108347 -130.62757 -146.05248)" gradientUnits="userSpaceOnUse" x1="183.64876" x2="998.75214" xlink:href="#b" y1="917.64343" y2="903.13214"/><linearGradient id="h" gradientTransform="matrix(.2500001 0 0 .5555557 -124.00001 -103.55555)" gradientUnits="userSpaceOnUse" x1="-8.271346" x2="124.09152" xlink:href="#c" y1="116.19998" y2="27.999992"/><linearGradient id="i" gradientTransform="matrix(.6389833 0 0 .3828125 20.74564 89.924998)" gradientUnits="userSpaceOnUse" x1="73.952415" x2="55.172585" xlink:href="#a" y1="-5.028566" y2="36.767353"/><linearGradient id="j" gradientTransform="matrix(.99999988 .00049044 .00049044 -.99999988 1.96133 120.00485)" gradientUnits="userSpaceOnUse" x1="113.15723" x2="-21.971066" y1="25.786163" y2="27.994064"><stop offset="0" stop-color="#0968ef"/><stop offset="1" stop-color="#aecffc"/></linearGradient><g transform="scale(.125)"><g transform="translate(24 16)"><rect fill="url(#f)" height="48" rx="3.823639" transform="matrix(0 -1 -1 0 0 0)" width="40" x="-40" y="-104"/><g fill-rule="evenodd"><rect fill="url(#e)" height="32" rx="2.180037" transform="matrix(0 -1 -1 0 0 0)" width="24" x="-32" y="-96"/><path d="m79.212615 8.05c-6.826621 3.60919-13.225947 7.51293-17.212614 12.25h17.392328c.974111-4.53517 4.015013-8.6321 8.206942-12.25z" fill="url(#d)"/></g></g><g transform="translate(-32 -72)"><rect fill="url(#g)" height="48" rx="3.823639" transform="matrix(0 -1 -1 0 0 0)" width="40" x="-128" y="-80"/><g fill-rule="evenodd"><rect fill="url(#h)" height="32" rx="2.180037" transform="matrix(0 -1 -1 0 0 0)" width="24" x="-120" y="-72"/><path d="m63.613344 96c-6.826621 3.60919-13.225947 7.51293-17.212614 12.25h17.392328c.974111-4.53517 4.015013-8.6321 8.206942-12.25z" fill="url(#i)"/></g></g><path d="m121.97505 92.063703-24.00981 19.988227-3.97288-3.97679 7.80464-12.02134-93.797-.0538.004-7.999993 93.797.0538-7.79302-11.827726 3.97689-4.174157z" fill="url(#j)" fill-rule="evenodd"/></g></svg>