<svg height="16" viewBox="0 0 4.2333332 4.2333335" width="16" xmlns="http://www.w3.org/2000/svg" xmlns:xlink="http://www.w3.org/1999/xlink"><filter id="a"><feGaussianBlur stdDeviation="2.4"/></filter><linearGradient id="b" gradientUnits="userSpaceOnUse" x1="143.62865" x2="143.62865" xlink:href="#c" y1="268.8761" y2="252.8761"/><linearGradient id="c"><stop offset="0" stop-color="#cbcbcd"/><stop offset=".5" stop-color="#e0e0e2"/><stop offset="1" stop-color="#fff"/></linearGradient><linearGradient id="d" gradientTransform="matrix(.1133598 0 0 .1691546 80.271448 159.92147)" gradientUnits="userSpaceOnUse" x1="399.77466" x2="399.77466" xlink:href="#c" y1="681.00012" y2="549.33234"/><linearGradient id="e" gradientTransform="matrix(8.0000001 0 0 8.0000039 8 -.000003)" gradientUnits="userSpaceOnUse" x1="3.5" x2="3.5" y1="8" y2="5"><stop offset="0" stop-color="#0057ae"/><stop offset="1" stop-color="#0057ae"/></linearGradient><linearGradient id="f" gradientTransform="matrix(7.5452306 0 0 7.4748734 9.591692 3.506601)" gradientUnits="userSpaceOnUse" x1="3.5" x2="3.5" y1="7.82534" y2="4.878163"><stop offset="0" stop-color="#0968ef"/><stop offset="1" stop-color="#aecffc"/></linearGradient><linearGradient id="g" gradientTransform="matrix(8.0889801 0 0 7.9869061 48.218484 -.133794)" gradientUnits="userSpaceOnUse" x1="-1.147762" x2="-1.850474" y1="7.029993" y2="4.143643"><stop offset="0" stop-color="#b3b3b3"/><stop offset=".52879584" stop-color="#fff"/><stop offset="1" stop-color="#c5c5c5"/></linearGradient><g transform="matrix(.03307292 0 0 .03307292 -2.633552 -7.83418)"><path d="m91.480617 232.8761h104.296063c1.02599 0 7.85197 7.40364 7.85197 8.61484v100.62746c0 1.21119-.82598 2.18627-1.85197 2.18627h-116.296063c-1.025991 0-1.85197-.97508-1.85197-2.18627v-100.62746c0-1.2112 6.825979-8.61484 7.85197-8.61484z" filter="url(#a)" opacity=".5" transform="matrix(1 0 0 .9333333 .000003 31.525086)"/><rect fill="url(#b)" height="23.999981" rx="6.45639" ry="8.000001" width="112" x="87.628647" y="252.8761"/><path d="m87.628648 268.87608h112.000002v80.00002h-112z" fill="url(#d)"/><path d="m157.83131 274.49507v-2.7448z" fill="#fff" fill-opacity=".756881"/><path d="m87.628648 276.87608h111.999992l.00001 72.00002h-111.999997z" fill="#fff"/><g transform="translate(71.628648 244.87608)"><rect fill="url(#e)" height="24" rx="1.985773" ry="2.276042" width="24" x="24" y="40"/><rect fill="url(#f)" height="20" rx=".881566" ry="1.001006" width="20" x="26" y="42"/><g fill-rule="evenodd"><path d="m26 41.967068 19.994108.088388.005892 5.944544h-6l-7.82985 4h-6.018445z" fill="url(#g)"/><path d="m25.911612 56h6.088388l8-4h6.082368l-.082368-4h-6l-8 4h-5.914433z" fill="#0057ae" opacity=".8"/></g></g><g transform="translate(71.6286505 276.8760675)"><rect fill="url(#e)" height="24" rx="1.985773" ry="2.276042" width="24" x="24" y="40"/><rect fill="url(#f)" height="20" rx=".881566" ry="1.001006" width="20" x="26" y="42"/><g fill-rule="evenodd"><path d="m26 41.967068 19.994108.088388.005892 5.944544h-6l-7.82985 4h-6.018445z" fill="url(#g)"/><path d="m25.911612 56h6.088388l8-4h6.082368l-.082368-4h-6l-8 4h-5.914433z" fill="#0057ae" opacity=".8"/></g></g><g transform="translate(103.62864825 244.8760775)"><rect fill="url(#e)" height="24" rx="1.985773" ry="2.276042" width="24" x="24" y="40"/><rect fill="url(#f)" height="20" rx=".881566" ry="1.001006" width="20" x="26" y="42"/><g fill-rule="evenodd"><path d="m26 41.967068 19.994108.088388.005892 5.944544h-6l-7.82985 4h-6.018445z" fill="url(#g)"/><path d="m25.911612 56h6.088388l8-4h6.082368l-.082368-4h-6l-8 4h-5.914433z" fill="#0057ae" opacity=".8"/></g></g><g transform="translate(103.62865075 276.876065)"><rect fill="url(#e)" height="24" rx="1.985773" ry="2.276042" width="24" x="24" y="40"/><rect fill="url(#f)" height="20" rx=".881566" ry="1.001006" width="20" x="26" y="42"/><g fill-rule="evenodd"><path d="m26 41.967068 19.994108.088388.005892 5.944544h-6l-7.82985 4h-6.018445z" fill="url(#g)"/><path d="m25.911612 56h6.088388l8-4h6.082368l-.082368-4h-6l-8 4h-5.914433z" fill="#0057ae" opacity=".8"/></g></g><g transform="translate(135.62864825 244.8760775)"><rect fill="url(#e)" height="24" rx="1.985773" ry="2.276042" width="24" x="24" y="40"/><rect fill="url(#f)" height="20" rx=".881566" ry="1.001006" width="20" x="26" y="42"/><g fill-rule="evenodd"><path d="m26 41.967068 19.994108.088388.005892 5.944544h-6l-7.82985 4h-6.018445z" fill="url(#g)"/><path d="m25.911612 56h6.088388l8-4h6.082368l-.082368-4h-6l-8 4h-5.914433z" fill="#0057ae" opacity=".8"/></g></g></g></svg>