<svg height="22" width="22" xmlns="http://www.w3.org/2000/svg" xmlns:xlink="http://www.w3.org/1999/xlink"><radialGradient id="a" cx="10.873831" cy="2.48757" gradientTransform="matrix(1.5548807 -.05553145 .03569153 .99936285 -6.496295 .617855)" gradientUnits="userSpaceOnUse" r="9.003906"><stop offset="0" stop-color="#fff"/><stop offset="1" stop-color="#fff" stop-opacity=".944444"/></radialGradient><filter id="b" color-interpolation-filters="sRGB" height="1.144" width="1.144" x="-.072" y="-.072"><feGaussianBlur stdDeviation=".6"/></filter><path d="m10.998047 1c-2.7584903.0037795-5.4266272 1.2805348-7.3007814 3.296875l-.8105468-1.6191406c-.470602-.9385701-1.8854647-.6046402-1.8867188.4453125v6.1894531c.0004675.3431811.1775834.6620301.46875.84375-.2911669.181795-.4682825.500531-.46875.84375-.00024446 2.618116 1.0764685 5.220978 2.9277344 7.072266 1.8512656 1.851251 4.4541807 2.927961 7.0722656 2.927734h.001953c1.265383-.001743 2.506707-.283026 3.666016-.769531.677182.484491 1.498721.76758 2.332031.767578 1.037506.000003 2.067749-.42418 2.806641-1.152344.560301.105457 1.192454-.266152 1.193359-.96875v-6.751953c-.000376-.353764-.188473-.681019-.494141-.859375.30731-.19389.484697-.53966.462891-.902344-.159832-2.5045788-1.303534-4.9341325-3.132812-6.6523435-1.82928-1.7182111-4.324304-2.7081028-6.833985-2.7109375zm.001953.9960938a9.0030653 9.0030653 0 0 1 8.974609 8.4296872l-2.128906-.8535154a7 7 0 0 0 -6.845703-5.5722656 7 7 0 0 0 -6.9414062 6.138672l-1.9082032-.7656251a9.0030653 9.0030653 0 0 1 .0136719-.0605469h-.1679687v-6.1894531l1.4785156 2.953125a9.0030653 9.0030653 0 0 1 7.5253906-4.0800781zm0 3.0039062a6.0000001 6.0000001 0 0 1 6 6 6.0000001 6.0000001 0 0 1 -.367188 2.041016c-.355235.040728-.705792.118983-1.041015.246093l-.035156-.08789c.263398-.339215.441406-.74264.441406-1.199219 0-1.089849-.908198-1.998047-1.998047-1.998047h.275391l-1.347657-3.3730468a.99850869.99850869 0 0 0 -.927734-.6269531h-2a.99850869.99850869 0 0 0 -.9277344.6269531l-1.3476562 3.3730468h.2753906c-1.0898488 0-1.9980469.908198-1.9980469 1.998047 0 .456579.178008.860004.4414063 1.199219l-.3710938.929687a.99850869.99850869 0 0 0 -.0566406.203125 6.0000001 6.0000001 0 0 1 -1.015625-3.332031 6.0000001 6.0000001 0 0 1 6-6zm-1 2h2l1.599609 4h.400391c.554 0 1 .446 1 1 0 .422425-.260135.778783-.628906.925781l.324218.810547a4 4 0 0 0 -.8125.763672h-.898437l-.535156-1.5h-2.949219l-.5449219 1.5h-1.9550781l.6289062-1.574219c-.3687714-.146998-.6289062-.503356-.6289062-.925781 0-.554.4459999-1 1-1h.4003906zm.984375 1.9042969-.759766 2.0957031h1.509766zm-8.9882812 2.0957031 2.0605468.824219a7 7 0 0 0 6.9433594 6.175781 7 7 0 0 0 2.058594-.320312 4 4 0 0 0 .832031 1.833984 9.0030653 9.0030653 0 0 1 -2.890625.490234 9.0030653 9.0030653 0 0 1 -9.0039062-9.003906zm15.9882812.318359 1.939453.775391.080078.03125v2.242188a4 4 0 0 0 -2.332031-1.306641 7 7 0 0 0 .3125-1.742188zm-7.785156 2.679688h1.546875l.298828.837891a.99850869.99850869 0 0 0 .939453.662109h.320313c-.147518.363168-.227139.748842-.265626 1.138672a6.0000001 6.0000001 0 0 1 -2.039062.363281 6.0000001 6.0000001 0 0 1 -3.9628906-1.501953h1.9179687a.99850869.99850869 0 0 0 .9375-.65625zm6.800781.001953a2.9999907 2.9999907 0 0 1 3 3 2.9999907 2.9999907 0 0 1 -3 3 2.9999907 2.9999907 0 0 1 -3-3 2.9999907 2.9999907 0 0 1 3-3zm-1.060547 1.232422-.707031.707031 1.060547 1.060547-1.060547 1.060547.707031.707031 1.060547-1.060547 1.060547 1.060547.707031-.707031-1.060547-1.060547 1.060547-1.060547-.707031-.707031-1.060547 1.060547z" fill="#0a0a0a" filter="url(#b)" stroke-width="1.125383"/><path d="m11 1.9960938a9.0030653 9.0030653 0 0 0 -7.5253906 4.0800781l-1.4785156-2.953125v6.1894531h.1679687a9.0030653 9.0030653 0 0 0 -.0136719.0605469l1.9082032.7656251a7 7 0 0 1 6.9414062-6.138672 7 7 0 0 1 6.845703 5.5722656l2.128906.8535154a9.0030653 9.0030653 0 0 0 -8.974609-8.4296872zm-1 5.0039062-1.5996094 4h-.4003906c-.5540001 0-1 .446-1 1 0 .422425.2601348.778783.6289062.925781l-.6289062 1.574219h1.9550781l.5449219-1.5h2.949219l.535156 1.5h.898437a4 4 0 0 1 .8125-.763672l-.324218-.810547c.368771-.146998.628906-.503356.628906-.925781 0-.554-.446-1-1-1h-.400391l-1.599609-4zm.984375 1.9042969.75 2.0957031h-1.509766zm-8.9882812 2.0957031a9.0030653 9.0030653 0 0 0 9.0039062 9.003906 9.0030653 9.0030653 0 0 0 2.890625-.490234 4 4 0 0 1 -.832031-1.833984 7 7 0 0 1 -2.058594.320312 7 7 0 0 1 -6.9433594-6.175781zm15.9882812.318359a7 7 0 0 1 -.3125 1.742188 4 4 0 0 1 2.332031 1.306641v-2.242188l-.080078-.03125z" fill="url(#a)" stroke-width="1.125383"/><path d="m17 14a2.9999907 2.9999907 0 0 0 -3 3 2.9999907 2.9999907 0 0 0 3 3 2.9999907 2.9999907 0 0 0 3-3 2.9999907 2.9999907 0 0 0 -3-3z" fill="#e93d3d"/></svg>