<?xml version="1.0" encoding="UTF-8" standalone="no"?>
<!-- Created with Inkscape (http://www.inkscape.org/) -->

<svg
   xmlns:dc="http://purl.org/dc/elements/1.1/"
   xmlns:cc="http://creativecommons.org/ns#"
   xmlns:rdf="http://www.w3.org/1999/02/22-rdf-syntax-ns#"
   xmlns:svg="http://www.w3.org/2000/svg"
   xmlns="http://www.w3.org/2000/svg"
   xmlns:xlink="http://www.w3.org/1999/xlink"
   xmlns:sodipodi="http://sodipodi.sourceforge.net/DTD/sodipodi-0.dtd"
   xmlns:inkscape="http://www.inkscape.org/namespaces/inkscape"
   width="24"
   height="24"
   viewBox="0 0 6.3499999 6.3500002"
   version="1.1"
   id="svg5103"
   inkscape:version="0.92.3 (2405546, 2018-03-11)"
   sodipodi:docname="libreoffice-calc.svg"
   inkscape:export-filename="/home/rizmut/Dokumen/Rizmut/Github/karasa-jaga-icon-theme/build/Karasa-Jaga/24x24/apps/libreoffice-calc.png"
   inkscape:export-xdpi="96"
   inkscape:export-ydpi="96">
  <defs
     id="defs5097">
    <linearGradient
       inkscape:collect="always"
       xlink:href="#linearGradient7237"
       id="linearGradient8844"
       gradientUnits="userSpaceOnUse"
       gradientTransform="matrix(0.22958737,0,0,0.22958737,39.772925,-47.15172)"
       x1="-99.319344"
       y1="334.28647"
       x2="-99.063911"
       y2="213.06819" />
    <linearGradient
       inkscape:collect="always"
       id="linearGradient7237">
      <stop
         style="stop-color:#87f03b;stop-opacity:1"
         offset="0"
         id="stop7231" />
      <stop
         id="stop7233"
         offset="0.38350943"
         style="stop-color:#4bc10f;stop-opacity:1" />
      <stop
         style="stop-color:#82f03b;stop-opacity:1"
         offset="1"
         id="stop7235" />
    </linearGradient>
  </defs>
  <sodipodi:namedview
     id="base"
     pagecolor="#ffffff"
     bordercolor="#666666"
     borderopacity="1.0"
     inkscape:pageopacity="0.0"
     inkscape:pageshadow="2"
     inkscape:zoom="11.313708"
     inkscape:cx="0.44675157"
     inkscape:cy="6.4323985"
     inkscape:document-units="mm"
     inkscape:current-layer="g828"
     showgrid="true"
     units="px"
     inkscape:snap-global="true"
     inkscape:snap-smooth-nodes="false"
     inkscape:window-width="1366"
     inkscape:window-height="693"
     inkscape:window-x="0"
     inkscape:window-y="0"
     inkscape:window-maximized="1">
    <inkscape:grid
       type="xygrid"
       id="grid9580"
       spacingx="0.13229167"
       spacingy="0.13229167"
       empspacing="2" />
  </sodipodi:namedview>
  <metadata
     id="metadata5100">
    <rdf:RDF>
      <cc:Work
         rdf:about="">
        <dc:format>image/svg+xml</dc:format>
        <dc:type
           rdf:resource="http://purl.org/dc/dcmitype/StillImage" />
        <dc:title></dc:title>
      </cc:Work>
    </rdf:RDF>
  </metadata>
  <g
     inkscape:label="Layer 1"
     inkscape:groupmode="layer"
     id="layer1"
     transform="translate(0,-290.64999)">
    <g
       transform="matrix(0.50790239,0,0,0.50790239,-0.26762817,146.42061)"
       id="g8806">
      <g
         id="g828"
         transform="matrix(0.192,0,0,0.192,0.30900433,239.45271)">
        <path
           transform="matrix(2.0837337,0,0,2.0837337,1.2218449,231.18341)"
           style="fill:#227e0a;fill-opacity:1;stroke-width:0.22958736"
           d="m 5.3691406,1.6289062 c -0.4669874,10e-8 -0.6924678,0.1863422 -0.8398437,0.3007813 0.00826,-0.00653 0.043015,-0.033227 0.042969,-0.033203 a 1.3028977,1.3028977 0 0 0 -0.085937,0.048828 c -0.00692,0.00547 -0.036656,0.010627 -0.042969,0.015625 -0.1323509,0.1047848 -0.3099285,0.2174693 0,0.00977 -0.00176,0.00118 -0.00596,0.00657 -0.00781,0.00781 A 1.3028977,1.3028977 0 0 0 4.2441406,2.1386719 c -0.00348,0.00351 -0.00425,0.0022 -0.00781,0.00586 a 1.3028977,1.3028977 0 0 0 -0.052734,0.058594 c -1.77e-5,2.71e-5 -0.00195,0.00194 -0.00195,0.00195 A 1.3028977,1.3028977 0 0 0 3.9121094,2.71875 c 0.00393,-0.017215 0.0041,-0.046188 0.00781,-0.058594 0.023294,-0.077916 -0.011377,0.01867 -0.033203,0.1328126 a 1.3028977,1.3028977 0 0 0 -0.023438,0.2441406 v 0.019531 a 1.3028977,1.3028977 0 0 0 0.00195,0.041016 l -0.00195,1.1328126 a 1.3028977,1.3028977 0 0 0 0,0.00195 V 28.947266 a 1.3028977,1.3028977 0 0 0 0.5859376,1.08789 1.3028977,1.3028977 0 0 0 0.00195,0 c 0.4171285,0.27897 0.5953939,0.226544 0.7089843,0.234375 0.1135905,0.0078 0.1698869,0.0059 0.2070313,0.0059 H 23.396484 25 25.798828 c 0.03635,0 0.09107,0.0019 0.205078,-0.0059 0.113351,-0.0078 0.297814,0.03903 0.705078,-0.230469 a 1.3028977,1.3028977 0 0 0 0.0039,-0.002 1.3028977,1.3028977 0 0 0 0.589843,-1.089843 V 12.044922 A 1.3028977,1.3028977 0 0 0 26.921875,11.123047 L 17.806641,2.0097656 A 1.3028977,1.3028977 0 0 0 16.884766,1.6289062 H 9.0722656 Z m 16.0742184,0 a 1.3028977,1.3028977 0 0 0 -0.921875,2.2246094 l 4.556641,4.5566406 a 1.3028977,1.3028977 0 0 0 2.224609,-0.921875 l 0.002,-4.4335937 a 1.3028977,1.3028977 0 0 0 -0.298829,-0.828125 c 1.49e-4,1.232e-4 0.0059,0.00391 0.0059,0.00391 -3e-5,-3.65e-5 -0.0108,-0.010506 -0.01172,-0.011719 -2.34e-4,-3.082e-4 -0.0017,-0.00352 -0.002,-0.00391 a 1.3028977,1.3028977 0 0 0 -0.0625,-0.068359 c -0.0038,-0.0039 -0.0041,-0.00213 -0.0078,-0.00586 A 1.3028977,1.3028977 0 0 0 26.730469,1.9765625 c -0.0031,-0.00202 -0.01083,-0.011784 -0.01367,-0.013672 0.342465,0.2289319 0.145541,0.1055759 0.0098,-0.00195 -0.0061,-0.0048 -0.03439,-0.010395 -0.04102,-0.015625 a 1.3028977,1.3028977 0 0 0 -0.05078,-0.029297 c -2.9e-5,-1.6e-5 0.02219,0.018795 0.02539,0.021484 C 26.515044,1.8238489 26.277863,1.6289062 25.800781,1.6289062 Z M 3.8671875,3.015625 a 1.3028977,1.3028977 0 0 0 0,0.011719 h -0.00195 c 0,-0.00324 0.00189,-0.0083 0.00195,-0.011719 z"
           id="path858" />
        <path
           style="fill:url(#linearGradient8844);fill-opacity:1.0;stroke-width:0.22958736"
           d="m 5.369791,2.9309581 c -0.086876,0 -0.1601403,0.094993 -0.1914062,0.1159169 -0.01,0.00671 -0.00806,0.00693 -0.00977,0.00781 L 5.166666,4.23304 v 24.714189 c 0.00203,0.0012 9.507e-4,-2.2e-5 0.00977,0.0059 0.031146,0.02083 0.1041833,0.01949 0.1914066,0.01949 h 18.0279904 1.604168 0.798827 c 0.08722,0 0.159915,0.0015 0.191406,-0.01949 0.0089,-0.0059 0.0077,-0.0046 0.0098,-0.0059 L 26,12.04554 16.885416,2.9309566 H 9.0729161 Z M 26,28.947229 v 0.02539 c 0,-0.02357 0.0052,-0.02869 0,-0.02539 z M 5.1686191,3.0546875 v -0.027344 c 0,0.00507 -0.00121,0.0059 -0.00195,0.00977 v 0.019531 c 1.181e-4,7.1e-5 0.00158,-0.00176 0.00195,-0.00195 z M 21.442708,2.9309566 26,7.4882484 26.002,3.0546875 c -0.0017,-9.445e-4 3.39e-4,-0.00106 -0.0098,-0.00781 -0.03159,-0.021118 -0.104542,-0.1159194 -0.19142,-0.1159194 z m 4.559245,0.1237309 c 0.0036,0.00201 0,-0.00499 0,-0.027344 z"
           transform="matrix(2.0837337,0,0,2.0837337,1.2218449,231.18341)"
           id="path8800"
           inkscape:connector-curvature="0"
           sodipodi:nodetypes="scccccsccscccccsccccccccccccsccccc" />
        <path
           style="opacity:1;fill:#000000;fill-opacity:1;stroke:none;stroke-width:0.99999994;stroke-opacity:1"
           d="M 4.15625 1 C 3.7976037 1.0000001 3.6229503 1.1425795 3.5097656 1.2304688 C 3.5161125 1.2254533 3.5430046 1.2050597 3.5429688 1.2050781 A 1.0006254 1.0006254 0 0 0 3.4765625 1.2421875 C 3.4712456 1.2463852 3.4501609 1.2520208 3.4453125 1.2558594 C 3.343667 1.3363341 3.2072874 1.4212352 3.4453125 1.2617188 C 3.4439579 1.2626251 3.4408734 1.266627 3.4394531 1.2675781 A 1.0006254 1.0006254 0 0 0 3.2910156 1.390625 C 3.2883413 1.3933234 3.2878896 1.3936763 3.2851562 1.3964844 A 1.0006254 1.0006254 0 0 0 3.2441406 1.4414062 C 3.2441406 1.4414062 3.2441406 1.4433594 3.2441406 1.4433594 A 1.0006254 1.0006254 0 0 0 3.0371094 1.8378906 C 3.0401244 1.8246697 3.0401205 1.802496 3.0429688 1.7929688 C 3.0608586 1.7331289 3.0343403 1.8068696 3.0175781 1.8945312 A 1.0006254 1.0006254 0 0 0 3 2.0527344 L 3 2.0742188 C 3 2.0717274 3.001906 2.0670765 3.0019531 2.0644531 A 1.0006254 1.0006254 0 0 0 3.0019531 2.0742188 L 3 2.0742188 L 3 2.1289062 L 3 22.013672 A 1.0006254 1.0006254 0 0 0 3.4492188 22.816406 A 1.0006254 1.0006254 0 0 0 3.4511719 22.816406 C 3.7715266 23.030655 3.9069032 22.99008 3.9941406 22.996094 C 4.0813781 23.002109 4.12577 23 4.1542969 23 L 6 23 L 6 1 L 4.15625 1 z "
           transform="matrix(2.7131949,0,0,2.7131949,1.135021,231.86435)"
           id="rect827" />
        <path
           style="opacity:1;fill:#cbe8a6;fill-opacity:1;stroke:none;stroke-width:0.99999994;stroke-opacity:1"
           d="M 8.5 12 C 8.223 12 8 12.223 8 12.5 L 8 16.484375 L 8 16.515625 L 8 19.5 C 8 19.777 8.223 20 8.5 20 L 17.5 20 C 17.777 20 18 19.777 18 19.5 L 18 16.515625 L 18 16.484375 L 18 12.5 C 18 12.223 17.777 12 17.5 12 L 8.5 12 z M 9 13 L 12 13 L 12 16 L 9 16 L 9 13 z M 13 13 L 17 13 L 17 16 L 13 16 L 13 13 z M 9 17 L 12 17 L 12 19 L 9 19 L 9 17 z M 13 17 L 17 17 L 17 19 L 13 19 L 13 17 z "
           transform="matrix(2.7131949,0,0,2.7131949,1.135021,231.86435)"
           id="rect961" />
      </g>
    </g>
  </g>
</svg>
