<?xml version="1.0" encoding="UTF-8" standalone="no"?>
<!-- Created with Inkscape (http://www.inkscape.org/) -->

<svg
   xmlns:dc="http://purl.org/dc/elements/1.1/"
   xmlns:cc="http://creativecommons.org/ns#"
   xmlns:rdf="http://www.w3.org/1999/02/22-rdf-syntax-ns#"
   xmlns:svg="http://www.w3.org/2000/svg"
   xmlns="http://www.w3.org/2000/svg"
   xmlns:xlink="http://www.w3.org/1999/xlink"
   xmlns:sodipodi="http://sodipodi.sourceforge.net/DTD/sodipodi-0.dtd"
   xmlns:inkscape="http://www.inkscape.org/namespaces/inkscape"
   width="24"
   height="24"
   viewBox="0 0 6.3499999 6.3500002"
   version="1.1"
   id="svg5103"
   inkscape:version="0.92.3 (2405546, 2018-03-11)"
   sodipodi:docname="libreoffice-draw.svg"
   inkscape:export-filename="/home/rizmut/Dokumen/Rizmut/Github/karasa-jaga-icon-theme/build/Karasa-Jaga/24x24/apps/libreoffice-draw.png"
   inkscape:export-xdpi="96"
   inkscape:export-ydpi="96">
  <defs
     id="defs5097">
    <linearGradient
       inkscape:collect="always"
       xlink:href="#linearGradient7821"
       id="linearGradient8844"
       gradientUnits="userSpaceOnUse"
       gradientTransform="matrix(0.22958737,0,0,0.22958737,39.772925,-47.15172)"
       x1="-99.319344"
       y1="334.28647"
       x2="-99.063911"
       y2="213.06819" />
    <linearGradient
       id="linearGradient7821"
       inkscape:collect="always">
      <stop
         id="stop7815"
         offset="0"
         style="stop-color:#e8f03b;stop-opacity:1" />
      <stop
         style="stop-color:#b9c10f;stop-opacity:1"
         offset="0.38350943"
         id="stop7817" />
      <stop
         id="stop7819"
         offset="1"
         style="stop-color:#e8f03b;stop-opacity:1" />
    </linearGradient>
  </defs>
  <sodipodi:namedview
     id="base"
     pagecolor="#ffffff"
     bordercolor="#666666"
     borderopacity="1.0"
     inkscape:pageopacity="0.0"
     inkscape:pageshadow="2"
     inkscape:zoom="22.627417"
     inkscape:cx="9.889657"
     inkscape:cy="11.604567"
     inkscape:document-units="mm"
     inkscape:current-layer="g828"
     showgrid="true"
     units="px"
     inkscape:snap-global="false"
     inkscape:snap-smooth-nodes="false"
     inkscape:window-width="1366"
     inkscape:window-height="693"
     inkscape:window-x="0"
     inkscape:window-y="0"
     inkscape:window-maximized="1">
    <inkscape:grid
       type="xygrid"
       id="grid9580"
       spacingx="0.13229167"
       spacingy="0.13229167"
       empspacing="2" />
  </sodipodi:namedview>
  <metadata
     id="metadata5100">
    <rdf:RDF>
      <cc:Work
         rdf:about="">
        <dc:format>image/svg+xml</dc:format>
        <dc:type
           rdf:resource="http://purl.org/dc/dcmitype/StillImage" />
        <dc:title></dc:title>
      </cc:Work>
    </rdf:RDF>
  </metadata>
  <g
     inkscape:label="Layer 1"
     inkscape:groupmode="layer"
     id="layer1"
     transform="translate(0,-290.64999)">
    <g
       transform="matrix(0.50790239,0,0,0.50790239,-0.26762817,146.42061)"
       id="g8806">
      <g
         id="g828"
         transform="matrix(0.192,0,0,0.192,0.30900433,239.45271)">
        <path
           transform="matrix(2.0837337,0,0,2.0837337,1.2218449,231.18341)"
           style="fill:#7e7a0a;fill-opacity:1;stroke-width:0.22958736"
           d="m 5.3691406,1.6289062 c -0.4669874,10e-8 -0.6924678,0.1863422 -0.8398437,0.3007813 0.00826,-0.00653 0.043015,-0.033227 0.042969,-0.033203 a 1.3028977,1.3028977 0 0 0 -0.085937,0.048828 c -0.00692,0.00547 -0.036656,0.010627 -0.042969,0.015625 -0.1323509,0.1047848 -0.3099285,0.2174693 0,0.00977 -0.00176,0.00118 -0.00596,0.00657 -0.00781,0.00781 A 1.3028977,1.3028977 0 0 0 4.2441406,2.1386719 c -0.00348,0.00351 -0.00425,0.0022 -0.00781,0.00586 a 1.3028977,1.3028977 0 0 0 -0.052734,0.058594 c -1.77e-5,2.71e-5 -0.00195,0.00194 -0.00195,0.00195 A 1.3028977,1.3028977 0 0 0 3.9121094,2.71875 c 0.00393,-0.017215 0.0041,-0.046188 0.00781,-0.058594 0.023294,-0.077916 -0.011377,0.01867 -0.033203,0.1328126 a 1.3028977,1.3028977 0 0 0 -0.023438,0.2441406 v 0.019531 a 1.3028977,1.3028977 0 0 0 0.00195,0.041016 l -0.00195,1.1328126 a 1.3028977,1.3028977 0 0 0 0,0.00195 V 28.947266 a 1.3028977,1.3028977 0 0 0 0.5859376,1.08789 1.3028977,1.3028977 0 0 0 0.00195,0 c 0.4171285,0.27897 0.5953939,0.226544 0.7089843,0.234375 0.1135905,0.0078 0.1698869,0.0059 0.2070313,0.0059 H 23.396484 25 25.798828 c 0.03635,0 0.09107,0.0019 0.205078,-0.0059 0.113351,-0.0078 0.297814,0.03903 0.705078,-0.230469 a 1.3028977,1.3028977 0 0 0 0.0039,-0.002 1.3028977,1.3028977 0 0 0 0.589843,-1.089843 V 12.044922 A 1.3028977,1.3028977 0 0 0 26.921875,11.123047 L 17.806641,2.0097656 A 1.3028977,1.3028977 0 0 0 16.884766,1.6289062 H 9.0722656 Z m 16.0742184,0 a 1.3028977,1.3028977 0 0 0 -0.921875,2.2246094 l 4.556641,4.5566406 a 1.3028977,1.3028977 0 0 0 2.224609,-0.921875 l 0.002,-4.4335937 a 1.3028977,1.3028977 0 0 0 -0.298829,-0.828125 c 1.49e-4,1.232e-4 0.0059,0.00391 0.0059,0.00391 -3e-5,-3.65e-5 -0.0108,-0.010506 -0.01172,-0.011719 -2.34e-4,-3.082e-4 -0.0017,-0.00352 -0.002,-0.00391 a 1.3028977,1.3028977 0 0 0 -0.0625,-0.068359 c -0.0038,-0.0039 -0.0041,-0.00213 -0.0078,-0.00586 A 1.3028977,1.3028977 0 0 0 26.730469,1.9765625 c -0.0031,-0.00202 -0.01083,-0.011784 -0.01367,-0.013672 0.342465,0.2289319 0.145541,0.1055759 0.0098,-0.00195 -0.0061,-0.0048 -0.03439,-0.010395 -0.04102,-0.015625 a 1.3028977,1.3028977 0 0 0 -0.05078,-0.029297 c -2.9e-5,-1.6e-5 0.02219,0.018795 0.02539,0.021484 C 26.515044,1.8238489 26.277863,1.6289062 25.800781,1.6289062 Z M 3.8671875,3.015625 a 1.3028977,1.3028977 0 0 0 0,0.011719 h -0.00195 c 0,-0.00324 0.00189,-0.0083 0.00195,-0.011719 z"
           id="path858" />
        <path
           style="fill:url(#linearGradient8844);fill-opacity:1.0;stroke-width:0.22958736"
           d="m 5.369791,2.9309581 c -0.086876,0 -0.1601403,0.094993 -0.1914062,0.1159169 -0.01,0.00671 -0.00806,0.00693 -0.00977,0.00781 L 5.166666,4.23304 v 24.714189 c 0.00203,0.0012 9.507e-4,-2.2e-5 0.00977,0.0059 0.031146,0.02083 0.1041833,0.01949 0.1914066,0.01949 h 18.0279904 1.604168 0.798827 c 0.08722,0 0.159915,0.0015 0.191406,-0.01949 0.0089,-0.0059 0.0077,-0.0046 0.0098,-0.0059 L 26,12.04554 16.885416,2.9309566 H 9.0729161 Z M 26,28.947229 v 0.02539 c 0,-0.02357 0.0052,-0.02869 0,-0.02539 z M 5.1686191,3.0546875 v -0.027344 c 0,0.00507 -0.00121,0.0059 -0.00195,0.00977 v 0.019531 c 1.181e-4,7.1e-5 0.00158,-0.00176 0.00195,-0.00195 z M 21.442708,2.9309566 26,7.4882484 26.002,3.0546875 c -0.0017,-9.445e-4 3.39e-4,-0.00106 -0.0098,-0.00781 -0.03159,-0.021118 -0.104542,-0.1159194 -0.19142,-0.1159194 z m 4.559245,0.1237309 c 0.0036,0.00201 0,-0.00499 0,-0.027344 z"
           transform="matrix(2.0837337,0,0,2.0837337,1.2218449,231.18341)"
           id="path8800"
           inkscape:connector-curvature="0"
           sodipodi:nodetypes="scccccsccscccccsccccccccccccsccccc" />
        <path
           style="opacity:1;fill:#000000;fill-opacity:1;stroke:none;stroke-width:0.99999994;stroke-opacity:1"
           d="M 4.15625 1 C 3.7976037 1.0000001 3.6229503 1.1425795 3.5097656 1.2304688 C 3.5161125 1.2254533 3.5430046 1.2050597 3.5429688 1.2050781 A 1.0006254 1.0006254 0 0 0 3.4765625 1.2421875 C 3.4712456 1.2463852 3.4501609 1.2520208 3.4453125 1.2558594 C 3.343667 1.3363341 3.2072874 1.4212352 3.4453125 1.2617188 C 3.4439579 1.2626251 3.4408734 1.266627 3.4394531 1.2675781 A 1.0006254 1.0006254 0 0 0 3.2910156 1.390625 C 3.2883413 1.3933234 3.2878896 1.3936763 3.2851562 1.3964844 A 1.0006254 1.0006254 0 0 0 3.2441406 1.4414062 C 3.2441406 1.4414062 3.2441406 1.4433594 3.2441406 1.4433594 A 1.0006254 1.0006254 0 0 0 3.0371094 1.8378906 C 3.0401244 1.8246697 3.0401205 1.802496 3.0429688 1.7929688 C 3.0608586 1.7331289 3.0343403 1.8068696 3.0175781 1.8945312 A 1.0006254 1.0006254 0 0 0 3 2.0527344 L 3 2.0742188 C 3 2.0717274 3.001906 2.0670765 3.0019531 2.0644531 A 1.0006254 1.0006254 0 0 0 3.0019531 2.0742188 L 3 2.0742188 L 3 2.1289062 L 3 22.013672 A 1.0006254 1.0006254 0 0 0 3.4492188 22.816406 A 1.0006254 1.0006254 0 0 0 3.4511719 22.816406 C 3.7715266 23.030655 3.9069032 22.99008 3.9941406 22.996094 C 4.0813781 23.002109 4.12577 23 4.1542969 23 L 6 23 L 6 1 L 4.15625 1 z "
           transform="matrix(2.7131949,0,0,2.7131949,1.135021,231.86435)"
           id="rect827" />
        <path
           style="fill:#f8f7a6;fill-opacity:1;stroke-width:0.20155294"
           d="m 30.608427,264.42506 c -0.410118,0.0191 -0.960933,0.0945 -2.816407,0.19141 -0.0086,7.7e-4 -0.01709,0.003 -0.02539,0.006 a 0.54409276,0.54409276 0 0 1 -0.0039,0 c -0.530279,0.14831 -1.056192,0.32565 -1.548829,0.60547 a 0.54409276,0.54409276 0 0 1 -0.01172,0.006 0.54409276,0.54409276 0 0 1 -0.002,0.002 c -4.55e-4,2.5e-4 -0.0015,-2.5e-4 -0.002,0 -0.601543,0.32893 -1.19463,0.71326 -1.6875,1.23242 a 0.54409276,0.54409276 0 0 1 -0.05469,0.0508 c -0.639457,0.50944 -1.078914,1.09779 -1.304688,1.66211 -0.234708,0.58664 -0.266783,1.11746 -0.03516,1.54492 0.198841,0.36692 0.741119,0.62264 1.339844,0.5332 0.654802,-0.0978 1.466619,-0.48309 2.498047,-1.2832 l 0.002,0.002 c 1.061934,-0.71979 1.654294,-0.99001 2.228515,-1.19336 a 0.54409276,0.54409276 0 0 1 0.0059,-0.002 c 2.284552,-0.77857 3.823471,-0.005 4.61914,0.90821 0.0056,0.006 0.01099,0.0107 0.01758,0.0156 a 0.54409276,0.54409276 0 0 1 0.0039,0.004 c 0.39313,0.30014 0.598418,0.77306 0.630859,1.2207 0.03583,0.49438 -0.08146,1.02259 -0.273437,1.55273 -0.38207,1.05509 -1.037349,2.01048 -1.259766,2.31446 a 0.54409276,0.54409276 0 0 1 0,0.002 c 0,0 -0.002,0.002 -0.002,0.002 -1.042024,1.50716 -1.371922,3.4898 -1.794922,5.25 a 0.54409276,0.54409276 0 0 1 -0.002,0.008 c -5.02e-4,0.002 -0.0015,0.004 -0.002,0.006 -0.206041,1.53509 -0.123343,3.57964 1.160156,4.79296 a 0.54409276,0.54409276 0 0 1 0.02148,0.0195 c 0.960801,1.00777 2.306045,1.33307 3.626954,1.38671 1.317126,0.0536 2.604287,-0.15896 3.507812,-0.24609 l 0.01953,-0.002 a 0.54409276,0.54409276 0 0 1 0.03906,-0.002 c -0.04704,0.003 -0.0014,-8.1e-4 0.01563,-0.002 a 0.54409276,0.54409276 0 0 1 0.0059,0 0.54409276,0.54409276 0 0 1 0.0039,0 c 0.0013,-1.2e-4 0.0026,1.6e-4 0.0039,0 0.01068,-0.001 0.02119,-0.004 0.03125,-0.008 a 0.54409276,0.54409276 0 0 1 0.142578,-0.0332 c 2.294384,-0.21228 4.568717,-1.57137 6.689453,-3.60157 l 0.0039,-0.004 c 0.0039,-0.004 0.0084,-0.009 0.01172,-0.0137 a 0.54409276,0.54409276 0 0 1 0.0039,-0.006 c 0.05251,-0.0701 0.101898,-0.13014 0.146485,-0.1875 a 0.54409276,0.54409276 0 0 1 0.0039,-0.008 0.54409276,0.54409276 0 0 1 0.01953,-0.0273 c 0.583869,-0.75302 1.423562,-2.36839 2.392578,-3.65234 a 0.54409276,0.54409276 0 0 1 0.0078,-0.008 c 0.0012,-0.002 7.96e-4,-0.004 0.002,-0.006 0.285393,-0.4576 0.411201,-0.92976 0.59375,-1.39843 a 0.54409276,0.54409276 0 0 1 0.0098,-0.0234 0.54409276,0.54409276 0 0 1 0,-0.002 c 0.121814,-0.31994 0.226312,-0.63171 0.353516,-0.9336 a 0.54409276,0.54409276 0 0 1 0.002,-0.006 0.54409276,0.54409276 0 0 1 0.01953,-0.0566 c 0.01168,-0.0269 0.0042,-0.12588 0.0059,-0.12109 -0.01576,-0.0459 -0.0039,-0.022 -0.04102,-0.0684 -0.04704,-0.0587 -0.04155,-0.0489 -0.103515,-0.0957 -0.09274,-0.07 -0.192589,-0.1313 -0.330079,-0.20704 -0.272082,-0.14987 -0.638904,-0.32169 -1.013671,-0.48437 -0.374242,-0.16246 -0.748936,-0.31156 -1.044922,-0.4082 a 0.54409276,0.54409276 0 0 1 -0.002,0 c -0.150984,-0.0494 -0.262153,-0.082 -0.375,-0.10157 -0.08053,-0.014 -0.07085,-0.0149 -0.138672,-0.01 h -0.002 c -0.03914,0.003 -0.02774,-0.003 -0.07813,0.0195 0.01385,-0.006 -0.0668,0.0527 -0.08203,0.0859 a 0.54409276,0.54409276 0 0 1 -0.02344,0.0449 c -0.248197,0.43051 -0.435646,0.88715 -0.587891,1.33789 -6.4e-4,0.002 -0.0013,0.004 -0.002,0.006 a 0.54409276,0.54409276 0 0 1 0,0.004 c -0.08382,0.26853 -0.164657,0.51848 -0.248047,0.76757 a 0.54409276,0.54409276 0 0 1 -0.07813,0.15235 c -0.06779,0.0917 -0.101359,0.12082 -0.101562,0.12109 -0.07353,0.0972 -0.163114,0.21992 -0.234375,0.31836 -0.03563,0.0492 -0.06709,0.0933 -0.08984,0.125 -0.02275,0.0317 8.43e-4,0.001 -0.04687,0.0645 -0.0011,10e-4 -0.0029,0.002 -0.0039,0.004 -1.197844,1.71553 -1.859254,2.82213 -2.740235,3.63867 -0.870232,0.80659 -1.969319,1.33929 -4.048828,1.88477 a 0.54409276,0.54409276 0 0 1 -0.0332,0.008 c -0.805504,0.15955 -1.462261,0.23677 -1.982422,0.24805 -0.52016,0.0113 -0.884861,-3.5e-4 -1.242187,-0.21094 -0.242061,-0.14267 -0.491357,-0.47307 -0.59375,-0.86524 -0.113076,-0.43308 -0.130529,-0.99213 -0.07031,-1.73437 a 0.54409276,0.54409276 0 0 1 0.0078,-0.0508 c 0.05595,-0.31178 0.136609,-0.62225 0.203125,-0.94727 a 0.54409276,0.54409276 0 0 1 0.01367,-0.0527 c 0.372928,-1.19439 0.604064,-2.21191 1.320312,-3.18555 a 0.54409276,0.54409276 0 0 1 0.002,-0.004 c 0.0047,-0.006 0.0082,-0.0125 0.01172,-0.0195 v -0.002 c 0.06209,-0.13738 0.146276,-0.34581 0.220703,-0.54297 0.03533,-0.0936 0.06898,-0.18753 0.09766,-0.26758 0.0096,-0.0268 0.01726,-0.0486 0.02539,-0.0723 a 0.54409276,0.54409276 0 0 1 0.0625,-0.12695 c 0.13393,-0.19868 0.342983,-0.48331 0.523437,-0.87696 a 0.54409276,0.54409276 0 0 1 0.04883,-0.084 c 0.837639,-1.20145 0.714358,-2.76277 0.638671,-4.17969 a 0.54409276,0.54409276 0 0 1 -0.002,-0.0215 c -0.08703,-0.70007 -0.286611,-1.38652 -0.667968,-1.99805 a 0.54409276,0.54409276 0 0 1 -0.002,-0.002 c -0.0027,-0.004 -0.0065,-0.01 -0.0098,-0.0137 l -0.002,-0.002 c -0.332623,-0.40346 -0.371093,-0.51967 -0.50586,-0.69726 -0.112119,-0.14775 -0.277034,-0.28759 -0.75,-0.62696 -0.0033,-0.002 -0.0063,-0.006 -0.0098,-0.008 a 0.54409276,0.54409276 0 0 1 -0.02539,-0.0156 0.54409276,0.54409276 0 0 1 -0.02539,-0.0137 c -0.0019,-0.001 -0.007,-0.007 -0.01562,-0.0137 -0.0018,-10e-4 -0.0041,-0.003 -0.0059,-0.004 -0.0011,-7e-4 -0.0028,-0.001 -0.0039,-0.002 -0.03582,-0.0234 -0.07334,-0.048 -0.119141,-0.0781 -0.104615,-0.0686 -0.244921,-0.1602 -0.384765,-0.25196 -0.136289,-0.0894 -0.274418,-0.17874 -0.384766,-0.25 -0.05917,-0.0383 -0.105279,-0.0681 -0.130859,-0.084 -0.01684,-0.0105 -0.02916,-0.018 -0.04492,-0.0273 a 0.54409276,0.54409276 0 0 1 -0.01367,-0.008 c -8.87e-4,-4.1e-4 -8.56e-4,-10e-4 -0.002,-0.002 -0.0037,-0.002 -0.002,-10e-4 -0.0078,-0.004 h -0.002 c -0.0017,-2.1e-4 -0.02225,-0.007 -0.04297,-0.0156 -1.035063,-0.32814 -1.586981,-0.44346 -1.908203,-0.4707 -0.162029,-0.0137 -0.243998,-0.008 -0.330078,0.0156 a 0.54409276,0.54409276 0 0 1 -0.0293,0.008 0.54409276,0.54409276 0 0 1 -0.0332,0.0195 c -0.103762,0.0547 -0.138446,0.0757 -0.02539,0.01 -0.02697,0.0157 -0.05005,0.0283 -0.07227,0.0391 -0.01147,0.006 -0.02192,0.0104 -0.03906,0.0176 -0.0086,0.004 -0.01763,0.008 -0.04102,0.0156 -0.01169,0.004 -0.06226,0.0156 -0.0625,0.0156 -1.19e-4,2e-5 -0.09172,0.0117 -0.0918,0.0117 0,0 -0.0332,0 -0.0332,0 0,0 -0.04297,-0.002 -0.04297,-0.002 0,0 0.0099,-0.0872 0.01563,-0.14258 -0.622287,-0.0779 -1.052534,-0.13498 -1.333984,-0.12305 -4.09e-4,2e-5 -0.0015,-2e-5 -0.002,0 a 0.54409276,0.54409276 0 0 1 -0.01367,0 z m 5.763671,0.39453 -0.04687,0.0625 c -0.0262,0.0552 -0.05729,0.12078 -0.109376,0.23047 0.07276,-0.14014 0.151995,-0.29523 0.15625,-0.29297 z"
           id="path7910-9"
           inkscape:connector-curvature="0" />
      </g>
    </g>
  </g>
</svg>
