<?xml version="1.0" encoding="UTF-8" standalone="no"?>
<!-- Created with Inkscape (http://www.inkscape.org/) -->

<svg
   xmlns:dc="http://purl.org/dc/elements/1.1/"
   xmlns:cc="http://creativecommons.org/ns#"
   xmlns:rdf="http://www.w3.org/1999/02/22-rdf-syntax-ns#"
   xmlns:svg="http://www.w3.org/2000/svg"
   xmlns="http://www.w3.org/2000/svg"
   xmlns:xlink="http://www.w3.org/1999/xlink"
   xmlns:sodipodi="http://sodipodi.sourceforge.net/DTD/sodipodi-0.dtd"
   xmlns:inkscape="http://www.inkscape.org/namespaces/inkscape"
   width="16"
   height="16"
   id="svg2"
   version="1.1"
   inkscape:version="0.48.3.1 r9886"
   sodipodi:docname="applications-science-symbolic.svg">
  <defs
     id="defs4">
    <linearGradient
       inkscape:collect="always"
       xlink:href="#linearGradient3534"
       id="linearGradient3107"
       gradientUnits="userSpaceOnUse"
       gradientTransform="matrix(1.0134847,0,0,1.0134847,-0.9034752,-1.7799914)"
       x1="34.847366"
       y1="68.569542"
       x2="99.877167"
       y2="68.569542" />
    <linearGradient
       id="linearGradient3534"
       inkscape:collect="always">
      <stop
         id="stop3536"
         offset="0"
         style="stop-color:#e3e3e3;stop-opacity:1;" />
      <stop
         id="stop3538"
         offset="1"
         style="stop-color:#f2f2f2;stop-opacity:1" />
    </linearGradient>
  </defs>
  <sodipodi:namedview
     id="base"
     pagecolor="#ffffff"
     bordercolor="#666666"
     borderopacity="1.0"
     inkscape:pageopacity="0.0"
     inkscape:pageshadow="2"
     inkscape:zoom="22"
     inkscape:cx="2.8344253"
     inkscape:cy="8.9327053"
     inkscape:current-layer="layer1"
     showgrid="true"
     inkscape:document-units="px"
     inkscape:grid-bbox="true"
     inkscape:window-width="1366"
     inkscape:window-height="696"
     inkscape:window-x="0"
     inkscape:window-y="0"
     inkscape:window-maximized="1" />
  <metadata
     id="metadata7">
    <rdf:RDF>
      <cc:Work
         rdf:about="">
        <dc:format>image/svg+xml</dc:format>
        <dc:type
           rdf:resource="http://purl.org/dc/dcmitype/StillImage" />
        <dc:title></dc:title>
      </cc:Work>
    </rdf:RDF>
  </metadata>
  <g
     id="layer1"
     inkscape:label="Layer 1"
     inkscape:groupmode="layer"
     transform="translate(0,-48)">
    <g
       style="display:inline;enable-background:new"
       id="Livello_1"
       transform="matrix(0.12341371,0,0,0.12341371,47.459579,52.939291)" />
    <g
       style="display:inline;enable-background:new"
       id="g3290"
       transform="matrix(0.12341371,0,0,0.12341371,54.370747,55.085368)" />
    <g
       style="display:inline;enable-background:new"
       id="g7148"
       transform="matrix(0.02414677,0,0,0.02414677,42.294755,50.089402)" />
    <g
       style="display:inline;enable-background:new"
       id="g7555"
       transform="matrix(0.01645516,0,0,0.01645516,39.164861,60.775503)" />
    <g
       style="display:inline;enable-background:new"
       id="g9283"
       transform="matrix(0.13164129,0,0,0.13164129,47.130345,52.689443)" />
    <g
       id="g3680"
       style="display:inline;enable-background:new"
       transform="matrix(0.02211471,0,0,0.02211471,16.213059,58.650555)">
      <g
         id="g3700"
         transform="translate(-0.477829,0)" />
    </g>
    <g
       id="g3732"
       style="display:inline;enable-background:new"
       transform="matrix(0.01604467,0,0,0.01604467,16.128296,61.900895)">
      <g
         id="g3750"
         transform="translate(-0.477829,0)" />
    </g>
    <g
       id="g5686">
      <path
         inkscape:connector-curvature="0"
         id="path5335"
         d="m 9.2240844,48.066352 c -0.3599349,0.03858 -0.980663,0.03255 -1.5074176,0.02956 -0.2633774,-0.0015 -0.4888642,-0.0063 -0.709373,0 -0.2205089,0.0063 -0.3195149,-0.04978 -0.7389303,0.118228 a 0.9546795,0.9546795 0 0 0 -0.3842437,1.507416 c -0.030658,-0.08317 0.04722,0.317454 0.059114,0.768488 0.01235,0.468282 0.00979,1.034084 0,1.596089 -0.017459,1.002583 -0.050905,1.759698 -0.059114,1.950776 l -2.54192,5.793213 c -0.2019264,0.45958 -0.1646752,0.732124 -0.147786,1.064059 0.01689,0.331936 0.024883,0.622852 0.2364577,1.034502 0.2670156,0.519519 0.6444784,0.9574 1.1527311,1.300518 0.5946705,0.401458 1.2088922,0.504735 1.6552037,0.591144 0.7073788,0.136952 1.5038013,0.133232 2.1576763,0.08867 0.7134846,-0.04863 1.7819324,-0.05943 2.7192634,-0.532029 0.527167,-0.265795 1.03999,-0.628506 1.389189,-1.300518 0.262398,-0.504972 0.476306,-1.012475 0.147786,-1.802989 l -2.54192,-6.118343 c -0.001,-0.02819 6.88e-4,-0.05017 0,-0.08867 -0.0027,-0.154003 0.0058,-0.361269 0,-0.591144 -0.01151,-0.459752 -0.01975,-1.041738 -0.02956,-1.625647 -0.0098,-0.583908 -0.03925,-1.156005 -0.02956,-1.596089 0.0048,-0.220043 0.01929,-0.417086 0.02956,-0.53203 0.04392,-0.09564 0.04313,-0.209794 0.05911,-0.266015 0.0094,-0.01746 0.02402,-0.01772 0.02956,-0.02956 0.0041,-0.01318 -0.0034,-0.01829 0,-0.02956 0.01363,-0.03109 0.02608,-0.04926 0.02956,-0.05911 A 0.9546795,0.9546795 0 0 0 9.2240824,48.066351 z M 6.62305,49.100855 c 0.010418,0.0017 0.020107,0 0.029557,0 1.1267366,0.158962 1.9014194,0.09257 2.6305916,0 -0.021598,0.07227 -0.04553,0.164347 -0.088672,0.236457 -0.1956926,0.327094 -0.00758,4.738959 -0.029557,5.024726 l 2.6010344,6.266128 c 0.116052,0.279256 0.02121,0.736603 -0.118229,1.004945 -0.182813,0.351812 -0.621366,0.70822 -0.975388,0.886717 -0.631451,0.318376 -1.629484,0.395272 -2.3350192,0.443358 -0.5755107,0.03922 -1.3548881,0.02097 -1.9212186,-0.08867 C 6.0070589,62.795311 5.4609871,62.664303 5.1156324,62.431156 4.8049556,62.221421 4.459381,61.818713 4.2880305,61.485325 4.1506884,61.218105 4.1080594,60.489433 4.2289161,60.214365 l 2.6010344,-5.911442 c 0,0 0.1883849,-4.213911 -0.029557,-4.906496 -0.045619,-0.144972 -0.1308481,-0.239853 -0.1773433,-0.295572 z"
         style="fill:#bebebe;fill-opacity:1;fill-rule:nonzero;stroke:none;stroke-width:0.61706853;marker:none;visibility:visible;display:inline;overflow:visible;enable-background:new" />
      <path
         id="path8541"
         d="m 7.9493039,57.19854 c -1.2054006,0 -2.1829551,0.149113 -2.1829551,0.335333 0,0.0059 0.00141,0.01069 0.00329,0.01644 -0.00523,-0.006 -0.012263,-0.01046 -0.016439,-0.01644 L 4.5893955,60.19024 c -0.1086261,0.248037 -0.051454,0.896671 0.072327,1.137504 0.1544312,0.300469 0.4531302,0.662458 0.7331308,0.851484 0.3112544,0.210127 0.8181208,0.329703 1.1868176,0.401085 0.5104109,0.09882 1.2072964,0.133976 1.7259812,0.09863 0.6358704,-0.04334 1.521803,-0.117434 2.0909039,-0.404373 0.319066,-0.160873 0.709735,-0.488383 0.874497,-0.805458 0.12567,-0.241847 0.220114,-0.647957 0.118353,-0.900799 l -1.252569,-3.103477 -0.04602,0.0065 c 0.01188,0.01581 0.04235,0.03093 0.03617,0.04602 -0.005,-0.01551 -0.01793,-0.03113 -0.03617,-0.04602 -0.1909887,-0.156111 -1.0774791,-0.27287 -2.1435052,-0.27287 z M 5.937303,57.665376 c 0.3313324,0.121018 1.1079505,0.207117 2.0120009,0.207117 0.8878507,0 1.6513411,-0.08298 1.9922763,-0.200542 -0.3013343,0.14568 -0.9559435,0.266294 -1.9988514,0.266294 -1.0142202,0 -1.6888538,-0.123637 -2.0054258,-0.272869 z"
         style="opacity:0.35;fill:#bebebe;fill-opacity:1;fill-rule:nonzero;stroke:none;stroke-width:1.38607299;marker:none;visibility:visible;display:inline;overflow:visible;enable-background:new"
         inkscape:connector-curvature="0" />
    </g>
    <g
       transform="matrix(0.12341371,0,0,0.12341371,-0.31564561,47.69482)"
       style="display:inline;enable-background:new"
       id="g3863" />
    <g
       id="g3882"
       style="display:inline;enable-background:new"
       transform="matrix(0.0822758,0,0,0.0822758,5.1968348,54.153471)" />
  </g>
</svg>
