<svg height="16" viewBox="0 0 16 16" width="16" xmlns="http://www.w3.org/2000/svg"><g fill="#bebebe"><path d="m3.0042755 14.486951c.0000648.514399.7747106.797944 1.2675017.945468 2.1725382.650381 4.9386433.718394 7.7517668-.0039.498236-.127929.976521-.41412.976456-.928519l-.001476-11.7144444c-.000065-.5143994-.462058-.9285186-.976456-.9285186l-2.022068-.357037v-.51647946c0-.51439931-.4856009-.98352054-1-.98352054h-2c-.5143992 0-1 .46912123-1 .98352054v.51647946l-2.0686819.3439941c-.5074315.0843791-.9285834.4141192-.9285186.9285186zm1.0034657-.485113-.001476-10.7859215c-.0000352-.2571996.2164564-.533146.4642593-.4642592 2.1665432.6022783 4.9207403.7125713 7.0872835.033898.245439-.076884.464225.2070596.46426.4642592l.0015 10.7859215c.000035.257198-.213186.408461-.46426.464258-2.2327017.496189-5.0349134.822402-7.0872835-.0339-.2373681-.09904-.7198596-.492881-.4642593-.464258zm7.0025378-.670965c-7.340186 1.779418-3.670093.889709 0 0zm-4.010279-11.330873v-.5c0-.2571996.2070596-.4642592.4642592-.4642592h1.0714815c.2571996 0 .4642593.2070596.4642593.4642592v.5z" opacity=".5"/><path d="m8.78 5.01c-.17789.0489-.3419.14728-.46875.28125l-3.0312 3c-.2353.23073-.34458.58283-.28125.90625v.8125h.8125.1875 1.4707l-1.1875 1.2736c-.21461.21931-.32135.53954-.28125.84375-.001.0312-.001.0625 0 .0937v.78125h.84375.15625c.26386.004.52791-.099.71875-.28125l3-2.9923c.18369-.18976.28735-.45466.28125-.71869.003-.0416.003-.0834 0-.125v-.875h-.84375-.15625-1.5644l1.3125-1.2812c.21461-.21931.32135-.53954.28125-.84375.001-.0312.001-.0625 0-.0937v-.78129h-.84375-.0937c-.0208-.00065-.0417-.00065-.0625 0-.0829-.0103-.16709-.0103-.25 0z"/></g></svg>