<svg height="16.001" width="16" xmlns="http://www.w3.org/2000/svg"><g fill="#bebebe" transform="matrix(1.0498069 0 0 1.0498069 3.728849 -1.008886)"><path d="m4.5447896 1.9145287a3.3339465 3.3339465 0 0 0 -3.3339464 3.3339465 3.3339465 3.3339465 0 0 0 .03907.476278h-.99162616v.9525562h8.57300516v-.9525562h-.9897653a3.3339465 3.3339465 0 0 0 .0372092-.476278 3.3339465 3.3339465 0 0 0 -3.3339465-3.3339465zm0 .9525561a2.3813903 2.3813903 0 0 1 2.3813903 2.3813904 2.3813903 2.3813903 0 0 1 -.0483719.476278h-4.6623158a2.3813903 2.3813903 0 0 1 -.0520929-.476278 2.3813903 2.3813903 0 0 1 2.3813903-2.3813904z"/><path d="m1 6.0009995c.2629597.5201111.5777992 1.0482813.8789062 1.5683594l-.125.03125c.8704431 2.1762587.7898168 4.7260451 1.0488282 7.0546871.090058.218939.3327654.229387.5019531.345703l2.4160156.000954c.2473878-.0026.3385911-.233393.5019531-.345703l.7402344-6.3320312.3457032-.7226563-.1875-.03125c.3365185-.5039085.6109449-1.0312522.8789062-1.5683594zm1.7128906 1.0019531 3.578125.0009536c-.00163.00244-.00228.00537-.00391.00781-.1419766.2130141-.1971749.4722362-.1542931.7246119l-.0742187.1542969c-.047822.099691-.078839.2066002-.091797.3164062l-.6777343 5.7910158-1.5332031-.000954c-.1681292-1.910212-.2589568-4.0404556-.9257813-6.1093747.0914326-.2725631.0615637-.5712522-.0820312-.8203125-.0127281-.0219843-.0224315-.0425176-.0351563-.0644532z" stroke-width="1.049807" transform="matrix(.95255613 0 0 .95255613 .221078 .961021)"/></g></svg>