<svg height="16" width="16" xmlns="http://www.w3.org/2000/svg"><g fill="#bebebe" transform="translate(-81 -467)"><rect height="6.0517" rx="1.8628" transform="matrix(.95983 -.2806 .2902 .95697 0 0)" width="3.568" x="-58.622" y="480.85"/><path d="m88.969 468c-3.3055 0-6.0239 3.0084-5.9686 5.7188.04825 2.3656.80859 4.6955 1 5.2812h1.5255c-1.1615-2.2915-1.0491-5.1562-1.0491-5.1562 0-2.3726 2.0067-4.3125 4.4921-4.3125 2.4855 0 4.4998 1.8269 4.4921 4.2812-.02342 1.6741-.17168 2.6586-1.0052 5.1875h1.5707c.2245-.64458.97382-3.1905.97382-5.2812 0-2.8298-2.726-5.7188-6.0314-5.7188z"/><rect height="6.0517" rx="1.8628" transform="matrix(-.95983 -.2806 -.2902 .95697 0 0)" width="3.568" x="-228.98" y="430.93"/></g></svg>