<svg height="16" width="16" xmlns="http://www.w3.org/2000/svg"><path d="m8.9652526 14.947762c.5094668-.158713.8652979-.417547.8766595-.745161.0181699-.524176-.7906711-.97514-1.8409849-1.008158-.9052484-.02846-1.678183.240731-1.8848179.657495-1.2800238-.081284-4.3966478-.383101-4.6901282-.964326-.2067373-.409431-.1443051-2.275461-.1753319-3.6819697 0 0-.056822-.042571-.087666-.043833-.030844-.00125-.04546.013774-.087666.043833-.0844118.060076-.17451692.073099-.17533186.2191648-.0176734 3.1685729.0947914 3.2274709.17533186 3.6381369.1327473.676856 3.6234062 1.110384 4.996959 1.227323.102997.272874.4610359.5103.9204925.657495zm-.8328265-13.8950528c-2.3965766.063679-4.011107 1.4180926-4.5586293 2.5861454-.02853.060856-.041589.116412-.043833.1753319-.00912.078655.00645.137658.043833.2191649-.0672573.0776145-.1089863.1343912-.1753319.2191648-.3233372.4131863-.6053859.9224843-.6136616.9204925-.01801-.00251-.062488 0-.087666 0-.3106797 0-.5698287.2272042-.5698287.5259957 0 .2240933.1481611.4445252.3506638.5259957-.00449.00337-.055082.029215-.1314989.087666.0000266.010197-.0002245.033706 0 .043833-.18997.1453256-.5698287.4383297-.5698287.4383297-.040971.032838-.089938.085876-.1314989.1314989-.016299.020602-.081354.064911-.087666.087666-.020801.074296-.00505.091237 0 .1753319l.087666.7889935v.1753319c-.2822844.4262388-.3506638 1.0614074-.3506638 1.665653 0 .9614891.1993327 1.9141611 1.1396573 2.1039831.046161.264713.234026.483818.3944968.569828.04734.02741.046666.04491.087666.04383.03041-.000841.075884-.0021.087666-.04383 0 .04209.1951233.214537.3068308.219165h.043833c.1371095-.0091.1304048-.08236.1314989-.131499 0 .04209.046498.08206.1753319.08767h.043833c.2998974-.01024.6509021-.238074.6574946-.788993 0 0-.043833-1.081687-.043833-2.1478161 0-1.0661288.043833-2.1478157.043833-2.1478157-.0130447-.5704695-.2696338-.7013316-.4821628-.7013316h-.087666c-.089896-.0045-.1789087.024391-.2191649.087666 0-.04208-.045446-.089083-.087666-.087666-.083654.00279-.1231391.016724-.1753319.043833-.026089.01355-.1128717.03048-.1314989.043833-.018613.013339.011362.034884 0 .043833-.023705.018622-.068407.051933-.087666.087666-.00617-.025207-.025416-.081101-.043833-.087666-.00954-.00732-.027029-.0000964-.043833 0h-.043833c-.2791603-.0045307-.5196834.603129-.5259954.6574945-.1714255.031714-.3586309.0934996-.4821627.1753319v-.6574946c-.00912-.075616-.017056-.092704.043833-.131499 0-.0000009.5432455-.4184141.7451605-.5698286.00856-.00645.042865-.00906.043833-.043833.0002244-.00818.0000814-.1293851 0-.2191648.2802042-.030407.4821627-.248121.4821627-.5259957 0-.1540647-.067804-.2958929-.1753319-.3944968.026651-.050915.2666995-.4454643.5698287-.8328265.041659-.053239.087848-.080159.1314989-.1314989.020296.022737.020815.02011.043833.043833 1.1858972-1.238512 2.3037741-1.8848179 4.3832973-1.8848179 2.079525 0 3.247403.7040383 4.383297 1.9286508.03354.033898.100935.048602.131499.087666.303128.3873623.543179.7819157.569829.8328265-.107528.098604-.175332.240432-.175332.3944967 0 .2711071.168194.4869121.43833.5259957-.000044.088572-.000237.1675332 0 .1753319.000014.0002958.03892.00202.04383 0 .000968.034778.03528.081228.04383.087666.201916.1514153.74516.5259956.74516.5259956.03037.019397.03359.021914.04383.043833-.000962.024423.0012.061171 0 .087666-.0084.1868175-.03009.4088727-.04383.6574946-.121035-.077967-.272191-.1445927-.438329-.1753319 0-.00309.0029-.035094 0-.043833-.0015-.00386.0017-.039569 0-.043833-.0069-.015944.0097-.023921 0-.043833-.08813-.1855758-.351976-.5295585-.569829-.5259957-.03877-.0002259-.08051.00313-.08767.043833-.02056-.027834-.06919-.02931-.08767-.043833-.04557-.035808-.139522-.1258743-.306831-.1314989-.02208-.0007392-.03009.022691-.04383.043833-.02059.020442-.04383.0171-.04383.043833-.04024-.063793-.129268-.092126-.219165-.087666h-.08767c-.212528 0-.469118.1308382-.482162.7013275 0 0 .04383 1.0816869.04383 2.1478157 0 1.0661291-.04383 2.1478161-.04383 2.1478161.0066.550921.357597.778754.657494.788993h.04383c.128848-.0056.175332-.04559.175332-.08767.000842.04856-.0077.122242.131499.131499h.04383c.06146-.0025.162161-.0821.219165-.131499.04921-.03971.08037-.06393.08767-.08767.01412.02707.06413.04322.08767.04383.041.0011.04033-.0164.08767-.04383.008-.0049.03584.0055.04383 0 .148465-.0951.302749-.328729.350664-.569828.943327-.188192 1.139657-1.141325 1.139657-2.1039831 0-.5904267-.08454-1.1964382-.350664-1.62182.03041-.4707211.08584-.934707.08767-.9643255.0051-.084093-.02313-.1448662-.04383-.2191648-.01136-.040649-.01333-.061988-.04383-.087666-.03653-.033579-.09949-.062011-.131499-.087666 0 0-.728805-.6009115-.74516-.6136616.22627-.06958.394496-.2414127.394496-.4821628 0-.2987905-.259147-.5698286-.569828-.5698286-.0063-.0002024-.03738 0-.04383 0-.02518 0-.02581-.00251-.04383 0-.0083.00202-.290325-.4634732-.613662-.8766595-.05389-.068865-.120362-.1108644-.175332-.1753319.0634-.1382457.05891-.2845743 0-.4383297-.17263-.4505114-.571145-1.0122707-1.18349-1.4903211-.0323-.015626-.05437-.028102-.08767-.043833-.783994-.5910801-1.8881674-1.0958243-3.24364-1.0958243-.04842 0-.083458-.00106-.1314989 0-.00944.0002137-.034435-.0002496-.043833 0zm-5.4791217 4.2956314c.2143748 0 .3944967.1809638.3944967.3944967 0 .1704152-.1097858.2992621-.2629978.3506638-.00031-.016957.0008668-.03501 0-.043833-.000028-.0003213.00168-.037212 0-.043833-.0021-.00337-.041168.00363-.043833 0-.00785-.01045.00757-.036525 0-.043833-.00168-.00154-.04215.00174-.043833 0-.024042-.02209-.039877-.04392-.087666-.043833-.041757.00309-.05577-.00121-.087666.043833-.0001908.0007112.0001669.043063 0 .043833-.0002806.00144-.043637-.00144-.043833 0-.1047641-.0685687-.2191647-.1298956-.2191647-.2629978 0-.2135329.1801248-.3944967.3944968-.3944967zm11.0459096.043833c.214372 0 .394496.1371305.394496.3506637 0 .147588-.09654.2844978-.219164.3506638v-.043833c-.000964-.011544.0066-.034688 0-.043833-.03646-.051477-.0363-.043747-.08767-.043833-.05137-.0000926-.136661-.00763-.175332.043833-.01248.016589.000049.043178 0 .043833-.000016.0003506.000033.059947 0 .087666-.167754-.0431681-.262994-.213816-.262994-.3944968 0-.2135332.136296-.3506637.350664-.3506637z" fill="#bebebe"/></svg>