<svg height="16.001" width="16" xmlns="http://www.w3.org/2000/svg"><g fill="#bebebe"><path d="m8.0312501.88902953c-2.0600601 0-3.725602 1.61757707-3.8125 3.65624987h-.375v1.34375h.5625c.00432.013215.024175.019051.03125.03125h7.2187499c.0031-.00904-.003-.022181 0-.03125.0017-.00412.02951.00412.03125 0h.46875v-1.34375h-.3125c-.08556-2.0399079-1.751552-3.65624987-3.8124999-3.65624987zm0 .75195297c1.6674075 0 2.9914329 1.2877401 3.0605469 2.9355469a.75276231.75276231 0 0 0 .3125.5800781v.011719h-6.765625a.75276231.75276231 0 0 0 .3320312-.5917971c.0701929-1.6467619 1.3944978-2.9355469 3.0605469-2.9355469z"/><path d="m4.765625 6.0494701c.2617122.5176435.5753215 1.0448893.875 1.5625l-.125.03125.34375.71875.71875 6.4062499c.08963.2179.331615.227985.5.34375h1.90625c.246214-.0026.337413-.231972.5-.34375l.71875-6.4062499.34375-.71875-.1875-.03125c.334922-.5015177.60831-1.0279411.875-1.5625zm1.0097656.5917969h4.4511724c-.119518.212647-.225842.4426232-.3593755.6425781a.5916256.5916256 0 0 0 -.0605469.5351562l-.1367187.2871094a.5916256.5916256 0 0 0 -.0546875.1894532l-.6953125 6.1972651c-.00516.0063-.025323.02261-.029297.02734h-1.6855468c-.019392-.0078-.048012-.02592-.0625-.03125l-.6953125-6.1933551a.5916256.5916256 0 0 0 -.0546875-.1894532l-.1757812-.3671875a.5916256.5916256 0 0 0 -.0644531-.4238281c-.1326938-.2291912-.2474611-.4477127-.3769532-.6738281z"/></g></svg>