<svg height="16" viewBox="0 0 16 16" width="16" xmlns="http://www.w3.org/2000/svg"><path d="m3.3574076 14.242075c0 .514399.4357275.780995.9285186.928519 2.1725382.650381 4.6150255.7223 7.4281488 0 .498236-.127929.928517-.41412.928517-.928519v-11.1422217c0-.5143994-.414119-.9285186-.928517-.9285186l-1.8570375-.412039v-.5164795c0-.51439931-.4141195-.92851854-.9285186-.92851854h-1.8570371c-.5143992 0-.9285186.41411923-.9285186.92851854v.5164795l-1.857037.412039c-.5021863.111425-.9285186.4141192-.9285186.9285186zm.9285186-.464258v-10.2137045c0-.2571996.2164564-.533146.4642593-.4642592 2.1665432.6022783 4.3330865.678673 6.4996295 0 .245439-.076884.46426.2070596.46426.4642592v10.2137045c0 .257198-.213186.408461-.46426.464258-2.2327015.496189-4.4472594.8563-6.4996295 0-.2373681-.09904-.4642593-.20706-.4642593-.464258zm.9285185-.69639c0 .1286.1099394.192036.2321296.23213 2.5336121.831328 3.825446.420877 5.1068507 0 .122179-.04013.232131-.10353.232131-.23213v-8.8209256c0-.1285999-.114035-.2830383-.232131-.2321296-1.9413994.8369088-3.5226434.413269-5.1068506 0-.1244355-.0324613-.2321297.1035297-.2321297.2321296zm1.8570371-10.9100923v-.4642593c0-.2571996.2070596-.4642592.4642592-.4642592h.9285186c.2571996 0 .4642593.2070596.4642593.4642592v.4642593z" fill="#bebebe"/></svg>