<svg height="16" viewBox="0 0 16 16" width="16" xmlns="http://www.w3.org/2000/svg"><path d="m3.0042755 14.486951c.0000648.514399.7747106.797944 1.2675017.945468 2.1725382.650381 4.9386433.718394 7.7517668-.0039.498236-.127929.976521-.41412.976456-.928519l-.001476-11.7144444c-.000065-.5143994-.462058-.9285186-.976456-.9285186l-2.022068-.357037v-.51647946c0-.51439931-.4856009-.98352054-1-.98352054h-2c-.5143992 0-1 .46912123-1 .98352054v.51647946l-2.0686819.3439941c-.5074315.0843791-.9285834.4141192-.9285186.9285186zm1.0034657-.485113-.001476-10.7859215c-.0000352-.2571996.2164564-.533146.4642593-.4642592 2.1665432.6022783 4.9207403.7125713 7.0872835.033898.245439-.076884.464225.2070596.46426.4642592l.0015 10.7859215c.000035.257198-.213186.408461-.46426.464258-2.2327017.496189-5.0349134.822402-7.0872835-.0339-.2373681-.09904-.7198596-.492881-.4642593-.464258zm1.0128275-.723635c0 .1286.1099394.192036.2321296.23213 2.5336121.831328 4.244045.473545 5.5254497.05267.122179-.04013.232151-.10353.232131-.23213l-.0015-9.3931439c0-.1285999-.114035-.2830383-.232131-.2321296-1.9413754.8369088-3.9412184.3606003-5.5254256-.0526687-.1244355-.0324613-.2321499.1035297-.2321297.2321296zm1.9794313-11.278203v-.5c0-.2571996.2070596-.4642592.4642592-.4642592h1.0714815c.2571996 0 .4642593.2070596.4642593.4642592v.5z" fill="#bebebe"/></svg>