<svg height="16" width="16" xmlns="http://www.w3.org/2000/svg"><g fill="#ccc"><path d="m9.2129426 3.0845472c0-.0000002-7.3237008 2.9892851-7.8244107 3.4065433l-.124098.083299c-1.79844207 2.1329986-.81924898 6.8260055 3.7552402 5.7578085.1328516-.053141 2.9559598-1.639742 5.3702139-2.998753l-3.10585 1.650674.1485139-3.7986788.883282-.6007468 5.0490071-.0052v-2.7590603l-1.084583-.6680893c-.844911-.1113625-1.774583-.1803449-3.0673154-.0677966zm-6.489932 4.24123c.9436398.0298772 1.7839474.8332171 2.0093681 1.9209695.2616959 1.2626053-.3889847 2.4650323-1.4534769 2.6859563-1.0647916.220784-2.1402605-.624065-2.4020617-1.886969-.26169639-1.2626057.3889843-2.4650334 1.4534769-2.6859573.1287027-.0267447.2602571-.0381347.3926936-.0339995zm10.6418304.3280949-.229496.1342977c.01242-.00701.229496-.1291979.229496-.1291979z"/><path d="m2.4731022 8.4620238a1.3538364 1.1414701 79.719126 0 0 -.3101789.1153313.69266056.58400796 79.719126 0 1 .4594205.5617654.69266056.58400796 79.719126 0 1 -.451229.786014.69266056.58400796 79.719126 0 1 -.6015236-.3168125 1.3538364 1.1414701 79.719126 0 0 .0224096.3892117 1.3538364 1.1414701 79.719126 0 0 1.3645401 1.1297373 1.3538364 1.1414701 79.719126 0 0 .8808283-1.5370157 1.3538364 1.1414701 79.719126 0 0 -1.364267-1.1282315z"/><path d="m6.9309116 7.4667792.1880952 3.6703638 7.2243502-.0275.670819-.593417-.01897-3.0981332z"/></g></svg>