<svg height="16" width="16" xmlns="http://www.w3.org/2000/svg"><g fill="#bebebe"><path d="m6.4294826.63793711v-.3468603z"/><path d="m7.8041546 12.192099c-.01069.0027-.0247.01072-.03491.01552-.105083.05404-.182292.214564-.182292.407246v1.497115c-.140221.05142-.240469.184532-.240469.341311v.690381c0 .201625.168137.364582.37234.364582h.570145c.204203 0 .368461-.162957.368461-.364582v-.690381c0-.162937-.107015-.29851-.255984-.345189v-1.493237c0-.181564-.07107-.333178-.166777-.395611-.02767-.01675-.05796-.02715-.08921-.02715h-.302526c-.01339 0-.02595-.0033-.03879 0z"/><path d="m12.470037 2.5073872a.86456838.86456838 0 0 1 -.294768.302526c-.826496.5008994-1.969391.7743028-3.3045154.8610357 1.2603674.3876123 2.1758594 1.5518191 2.1758594 2.9244183 0 1.6893528-1.3841194 3.0562886-3.0950734 3.0562886s-3.098953-1.3669358-3.098953-3.0562886c0-1.3666266.907508-2.5240336 2.160346-2.9166613-1.294205-.0756464-2.415046-.3277784-3.246337-.7718292a.86456838.86456838 0 0 1 -.364583-.3723397c-.960791 1.0962897-1.543658 2.5422792-1.543658 4.1267654 0 1.6364397.623037 3.1240795 1.640622 4.2314856.01119-.02068.03119-.05846.03879-.06981.0089-.01333.04771-.06153.05817-.07369s.0502-.05513.06206-.06593.06062-.04889.07369-.05818c.01308-.0093.06347-.04278.07757-.05042a.18460586.18460586 0 0 1 .0039 0c.980883-.523958 2.422268-.7912216 4.072466-.7912216 1.741567 0 3.2528534.2826246 4.2392434.8804286.01346.0082.0613.04453.07369.0543.01239.0098.05867.04701.06981.05818s.04844.0574.05818.06981c.0092.01168.03975.05354.05042.06981 1.029927-1.1098965 1.663893-2.6063239 1.663893-4.2547574 0-1.5984556-.59576-3.0541936-1.570808-4.1539152z"/><path d="m7.9913256 12.667533c-1.452811 0-2.780265-.534527-3.816269-1.419267.783291-.418411 2.149928-.695562 3.71037-.695562 1.648205 0 3.0837244.30971 3.8398024.767933-1.02314.841142-2.3213134 1.346896-3.7339034 1.346896z"/><path d="m7.9913256.72249401c-1.452811 0-2.780265.53452809-3.816269 1.41926769.783291.4184107 2.149928.6955619 3.71037.6955619 1.648205 0 3.0837244-.3097105 3.8398024-.7679323-1.02314-.8411426-2.3213134-1.34689729-3.7339034-1.34689729z"/><path d="m6.1518976 12.067985-.0078.0039-.748558.42664-2.726613 1.551414c-.115314-.0966-.283911-.114059-.42276-.03491l-.923093.523603c-.176844.100812-.23785.32184-.135748.496452l.287011.492575c.102102.174613.327365.232682.504211.13187l.923092-.527481c.125265-.07141.19031-.200527.182291-.333555l4.235365-2.420206.0078-.0039c-.110747-.000175-.220187-.0056-.325797-.0194-.0013-.000161-.0026.000173-.0039 0-.262568-.03463-.507279-.109787-.721408-.217199-.001-.000509-.0028.00051-.0039 0-.04195-.02113-.08069-.04625-.120235-.06981z"/><path d="m72.491081 52.829288a8.0388947 8.0388947 0 1 1 -16.077789 0 8.0388947 8.0388947 0 1 1 16.077789 0z" transform="matrix(.19880386 0 0 .19629395 -4.802598 -3.635992)"/><path d="m9.9761366 12.091257c-.08101.04828-.169119.09406-.259862.13187-.27223.113436-.583094.174022-.915335.174535l.0078.0039c-.0026.000011-.0051-.000004-.0078 0l4.1228874 2.354272c-.02689.146793.03968.301009.178413.380096l.919213.523603c.176845.100812.402108.04274.50421-.13187l.287011-.488696c.102102-.174613.0411-.395641-.135748-.496453l-.923092-.527481c-.125265-.07141-.271307-.06174-.383976.01163z"/></g></svg>