<svg height="16.009" width="16" xmlns="http://www.w3.org/2000/svg"><g fill="#bebebe" transform="translate(259 -446.99)"><path d="m-251.94 447c-.4543.0495-.88397.2214-1.25.5-.48804.37146-.8125.95486-.8125 1.6875v5.3125s.23582.50712.5.50712.5-.50712.5-.50712v-5.3125c0-.4491.17164-.70389.4375-.90625s.66376-.30023 1.0625-.28125c.39874.019.78428.15409 1.0625.40625s.46875.5845.46875 1.125c0 2.1653 1.4638 3.5091 3 3.4688.85672-.0225 1.6882-.47696 2.25-1.3125l-.5625-1c-.37537.9157-1.0678 1.2954-1.7188 1.3125-.96046.0252-1.9688-.72975-1.9688-2.4688 0-.79197-.33682-1.4439-.8125-1.875-.47568-.43112-1.081-.62738-1.6875-.65625-.15162-.007-.31732-.0165-.46875 0zm6.9375 2c0 .0455.00089.0807 0 .125l.78125 1.375c.0114-.0408.0208-.0833.0312-.125zm0 .34375c-.006.10599-.0202.21386-.0312.3125l.71875 1.2188c.0234-.0625.0415-.12233.0625-.1875zm-.0625.5c-.0138.0899-.0444.16659-.0625.25l.65625 1.125c.0293-.0609.067-.12359.0937-.1875zm-.0937.4375c-.0237.0889-.0654.16899-.0937.25l.59375 1.0312c.0401-.0651.088-.1182.125-.1875z"/><rect height="8" rx=".727" width="7" x="-257" y="453"/></g></svg>