<svg height="16" width="16" xmlns="http://www.w3.org/2000/svg" xmlns:xlink="http://www.w3.org/1999/xlink"><filter id="a" color-interpolation-filters="sRGB"><feBlend in2="BackgroundImage" mode="darken"/></filter><g fill="#bebebe"><path d="m6.7956495 12.406377c-.023997.115008-.053752.206559-.090326.249472-.1625761.19076-.5772213.271722-.9075642.305389-.9866391.100558-1.9441662.630833-1.9441662 1.135531 0 .902983 2.3334774 1.372099 4.1464076 1.372099 1.8025892 0 4.1464063-.469116 4.1464063-1.372099 0-.525377-.961828-1.034978-1.948468-1.135531-.3303417-.03367-.7573314-.104762-.9075619-.305389-.035521-.04744-.062555-.137477-.08603-.249472z" fill-rule="evenodd"/><path d="m4.6455544 8.1537226-.0000004 1.1273885h1 4.636943 1.127389v-1.1273885h-1.127389-4.6369426zm6.7643316 1.1273885v1.1273889h1.127388v-1.1273889zm-6.764332 0h-1.1273881v1.1273889h1.1273881z" fill-rule="evenodd" filter="url(#a)" transform="matrix(.88700565 0 0 .88700565 .879367 .767602)"/><path d="m6 7h4v1h-4z"/><path d="m5 9h1v1h-1z"/><path d="m10 9h1v1h-1z"/><g fill="#bebebe"><path d="m.5 0c-.277 0-.5.223-.5.5v11c0 .277.223.5.5.5h15c.277 0 .5-.223.5-.5v-11c0-.277-.223-.5-.5-.5zm.5 1h14v10h-14z"/><circle cx="5" cy="4" r="1"/><circle cx="11" cy="4" r="1"/></g></g></svg>