<svg height="16" width="16" xmlns="http://www.w3.org/2000/svg"><path d="m3.019676 1.0803716c-.5648789.0050555-1.0177811.4808242-1.019677 1.0803716l-.019676 6.2220738c-.000583.1843479.045422.3584634.12139.509838h-.169946l-1.90582395 5.419629c.0340803.06866.039521.619046.13352898.687716h6.84052797 1 6.840528c.09401-.06867.09945-.619046.133529-.687716l-1.925497-5.5000046-.07284-.048552c.07597-.1513746.023697-.2769341.02428-.461282l.01968-6.2220738c.001892-.5995475-.454802-1.08542712-1.01968-1.0803716zm-.019676.9196284h9v6h-9zm7 10 .5 2h-6c.1378323-.531642.4131794-1.457155.5-2z" fill="#bebebe" fill-opacity=".678431"/></svg>