<svg height="16" width="16" xmlns="http://www.w3.org/2000/svg"><path d="m3.2172322 1.4874231c-.5649015 0-1.019677.4808212-1.019677 1.0803716v5.8024454c0 .1843488.045422.3584634.12139.509838h-.169946l-1.46881995 5.4261359c.0340803.06866.039521.137693.13352898.206363h6.85853877.655506 6.858539c.09401-.06867.09945-.137693.133529-.206363l-1.46882-5.4261359-.07284-.048552c.07597-.1513746.02428-.2769332.02428-.461282v-5.8024454c0-.5995505-.454775-1.0803716-1.019676-1.0803716zm.437004 1.4566812h8.6915278v5.0498258h-8.6915278zm6.5065068 8.9343087.534117 1.69946h-5.3897189c.1378323-.531642.3259054-1.132337.412726-1.675182z" fill="#bebebe" fill-opacity=".678431"/></svg>