<svg height="16" width="16" xmlns="http://www.w3.org/2000/svg" xmlns:xlink="http://www.w3.org/1999/xlink"><filter id="a" color-interpolation-filters="sRGB"><feBlend in2="BackgroundImage" mode="darken"/></filter><g fill="#bebebe"><path d="m1.21875.531132c-.588625 0-1.0625.362375-1.0625.8125v9.875c0 .450125.473875.8125 1.0625.8125h13.5625c.588625 0 1.0625-.362375 1.0625-.8125v-9.875c0-.450125-.473875-.8125-1.0625-.8125zm-.01367 1.0214844h13.589842v9.4570316h-13.589844z"/><path d="m6.7956495 12.406377c-.023997.115008-.053752.206559-.090326.249472-.1625761.19076-.5772213.271722-.9075642.305389-.9866391.100558-1.9441662.630833-1.9441662 1.135531 0 .902983 2.3334774 1.372099 4.1464076 1.372099 1.8025892 0 4.1464063-.469116 4.1464063-1.372099 0-.525377-.961828-1.034978-1.948468-1.135531-.3303417-.03367-.7573314-.104762-.9075619-.305389-.035521-.04744-.062555-.137477-.08603-.249472z" fill-rule="evenodd"/><path d="m4.9323993 7.5932841v1h1 4 .9999997v-1h-.9999997-4zm5.9999997 1v1h1v-1zm-5.9999997 0h-1v1h1z" fill-rule="evenodd" filter="url(#a)" transform="matrix(.88700565 0 0 .88700565 .896316 .682857)"/><path d="m10.5 3.15572c-.6084493 0-1.125.4853007-1.125 1.09375s.5165507 1.09375 1.125 1.09375c.608449 0 1.09375-.4853007 1.09375-1.09375s-.485301-1.09375-1.09375-1.09375zm-4.9999999.03125c-.6084493 0-1.0937501.4853007-1.0937501 1.09375s.4853008 1.09375 1.0937501 1.09375 1.125-.4853007 1.125-1.09375-.5165507-1.09375-1.125-1.09375z"/><path d="m6.016949 6.915255h3.966102v.915254h-3.966102z"/><path d="m5.273243 8.309197h.865964v.8793h-.865964z"/><path d="m9.75558 8.285228h.865964v.8793h-.865964z"/></g></svg>