<svg height="16" width="16" xmlns="http://www.w3.org/2000/svg"><g fill="#bebebe"><path d="m6.7956495 12.406377c-.023997.115008-.053752.206559-.090326.249472-.1625761.19076-.5772213.271722-.9075642.305389-.9866391.100558-1.9441662.630833-1.9441662 1.135531 0 .902983 2.3334774 1.372099 4.1464076 1.372099 1.8025892 0 4.1464063-.469116 4.1464063-1.372099 0-.525377-.961828-1.034978-1.948468-1.135531-.3303417-.03367-.7573314-.104762-.9075619-.305389-.035521-.04744-.062555-.137477-.08603-.249472z" fill-rule="evenodd"/><path d="m.5 0c-.277 0-.5.223-.5.5v11c0 .277.223.5.5.5h15c.277 0 .5-.223.5-.5v-11c0-.277-.223-.5-.5-.5zm.5 1h14v10h-14z" fill="#bebebe"/></g></svg>