<svg height="16" width="16" xmlns="http://www.w3.org/2000/svg"><g fill="#bebebe" fill-opacity=".901961"><path d="m7.9765625 8.4394531c-2.0963196.0126809-4.3284932.15834-7.12890625.984375-.10554266.0420007-.27603356-.0100694-.33007813-.1914062v.2929687 3.0546874.197266c1.66980528.681125 3.31174458 1.087946 4.93359378 1.273437-.6530586-.549503-1.0664063-1.326635-1.0664063-2.207031-.000001-1.72865 1.5960463-3.0585938 3.4628906-3.0585938 1.8668442.0000006 3.4667968 1.3289578 3.4667968 3.0585938 0 .850583-.388436 1.603055-1.003906 2.148438 1.740322-.226944 3.463621-.656589 5.171875-1.214844v-.197266-3.0546874-.5019531c.01754.3099297-.203841.4521821-.333984.4003906-2.800413-.826035-5.02868-.9716939-7.1250005-.984375-.015551-.0000935-.031334.0000804-.046875 0zm3.3164065 1.09375c1.008215.1250959 2.103643.3552951 3.291015.6874999v1.849609c-.85302.261716-1.706663.421163-2.560546.601563.06787-.275867.189453-.532086.189453-.828125 0-.903157-.386235-1.664077-.919922-2.3105469zm-6.9453128.0742188c-.4978371.6339171-.8613286 1.3676261-.8613281 2.2363281 0 .29815.1286905.554128.1972657.832031-.7527744-.169928-1.5012992-.301793-2.2675782-.585937v-1.871094c1.0569071-.2954608 2.020075-.4840635 2.9316406-.6113281zm3.5.8359371c-.9984238 0-1.7004776 1.061711-1.7004767 1.824053 0 .762341.7337507 1.44336 1.734375 1.44336 1.0006255 0 1.7363282-.68102 1.7363282-1.44336 0-.762341-.7718027-1.824053-1.7702265-1.824053zm0 .898438c.585263 0 .871789.742933.871789.925615 0 .18441-.2448422.544922-.8378907.544922-.5930472 0-.8359374-.358976-.8359374-.544922-.0000003-.184217.2167757-.925615.8020391-.925615z"/><path d="m7.9863281 2.0703125c-2.5062736.0064028-4.9484666.2887684-6.0273437 1.4042969-.1203435.1244324-.1954015.2706897-.2265625.4003906-.371425 1.5459597-1.19726565 3.8339844-1.19726565 3.8339844-.003353.01764-.0059255.0347262-.0078125.0507812-.007335-.019708-.01559105-.039294-.01953125-.0625-.005135.062098.0029973.1126577.015625.1582032-.002515.00877-.0055065.0110295-.0078125.0234374-.0116634.0628761-.0133242.1196557-.0078125.1679688.00055331.00507-.00074088.010717 0 .015625-.008803.2922484.22112243.377304.34960938.3261719 2.80041422-.8260355 5.03258662-.9716949 7.12890622-.984375.01553.0000804.031323-.0000939.046875 0 2.0963199.012681 4.3245879.1583395 7.1249999.984375.130144.051791.35152-.0904612.333985-.4003907.0028-.0326519.0035-.0681222 0-.1054687.005-.034487.005499-.0760339 0-.1230469.004699-.03704.003799-.0775516 0-.1210937-.002801.020945-.006659.0397817-.011719.0585937-.000093-.0002115-.003707-.0074425-.003907-.0078125-.02101-.0578764-.828687-2.2884797-1.195312-3.8144531-.031141-.129697-.104266-.2759583-.224609-.4003906-1.078864-1.1155254-3.517166-1.3978977-6.0234379-1.4042969-.015624-.0000395-.031251 0-.046875 0zm0 .8496094h.0019531c.0161363-.0000027.0307643-.0000309.0429688 0 1.2219262.0031199 2.413105.0762402 3.382812.2695312.96971.193291 1.689312.5214411 2.03125.875.008597.008888.015272.0326955.009766.0097657.329953 1.3733339.83686 2.7523746 1.03711 3.3125-2.452987-.6203369-4.5646998-.8206079-6.4531255-.8320313-.0253743-.0001532-.0426386.000032-.0488281 0a.84986029.84986029 0 0 0 -.0097656 0c-1.8879267.0114196-4.0021342.2101322-6.4550782.8300781.1929042-.5422259.7009753-1.9277355 1.0332032-3.3105468-.0073482.030585-.0000448.0023975.0117187-.0097657.3415919-.3531964 1.0624311-.681676 2.0332031-.875.9702154-.1932131 2.1616177-.2663308 3.3828125-.2695312z" fill-rule="evenodd" opacity=".99"/><path d="m7.8494178 9.3145399c-1.6194305 0-2.9342297 1.2696881-2.9342297 2.8338741s1.3147992 2.832357 2.9342297 2.832357c1.6194295 0 2.9342302-1.26817 2.9342292-2.832357 0-1.564187-1.3147997-2.8338741-2.9342292-2.8338741zm0 .6740105c1.2499726 0 2.2645862.9931616 2.2645862 2.2159046.000001 1.222741-1.0146136 2.214389-2.2645862 2.214389-1.2499725 0-2.2645867-.991646-2.2645867-2.214389-.0000011-1.222743 1.0146142-2.2159046 2.2645867-2.2159046z"/></g></svg>