<svg height="16" width="16" xmlns="http://www.w3.org/2000/svg"><g fill="#bebebe"><path d="m2.84375 0c-.8215224-.00137341-1.162371 1.045648-1.15625 1.3125l-.69140625 11.84375c.15316485-.670693.61755025-1.157078 1.18750005-1.15625h-.1835938v-1l.3879442-8.8945313c.0530224-.7154511.2268404-.9798878.4707031-1.1054687h10.4199217c.2535.024012.623621.4216165.558594 1.1171875l.162837 8.8828125v1h-.160156c.521856.000758.967768.416136 1.15625 1l-.589844-11.59375c.02502-.3780782-.39306-1.37330616-1.40625-1.375zm.890625 9c-.3918317 0-.71875.2720721-.71875.625 0 .352927.3269183.625.71875.625.3918221 0 .71875-.272073.71875-.625 0-.3529279-.3269279-.625-.71875-.625z"/><path d="m2 12c-.554 0-1 .669-1 1.5v1c0 .831.446 1.5 1 1.5h12c.554 0 1-.669 1-1.5v-1c0-.831-.446-1.5-1-1.5zm.5 1h11c.277 0 .5.223.5.5v1c0 .277-.223.5-.5.5h-11c-.277 0-.5-.223-.5-.5v-1c0-.277.223-.5.5-.5z" fill="#bebebe"/><path d="m5 13v1.5l-2-1.5z" fill="#bebebe"/><path d="m8.5005968 1.6646265-1.5017904 2.3353735h1.0011936v3l-1.5017904-.9006272v-.2346549h.5005968v-1.5330776c-2.2243079-.2948132-2.1431315.4962714-1.4660334 1.5330776v.4000306.2011326l.1787844.067044 2.2884426 1.4325114v.3687435.23242.4670747c-.5793993.1577515-1.0011936.5942088-1.0011936 1.1017613 0 .641114.6832603 1.166568 1.5017904 1.166568.8185302 0 1.4660336-.525455 1.4660336-1.166568 0-.5075525-.3860375-.9440112-.9654367-1.1017615v-.0670442-.1988977-.0335222l2.2526853-1.4012242.214541-.1005662v-.2011327-.5318842c.288516-.1351307.46484-.3522352.46484-.6346852 0-.4274037-.419757-.7665387-.965437-.7665387-.545678 0-1.0011926.339135-1.0011926.7665387 0 .2824498.2120806.4995543.5005956.6346852v.3665086l-1.4660323.9006271v-3.7665388h.9654367z" stroke-width="1.144221"/></g></svg>