<svg height="16" width="16" xmlns="http://www.w3.org/2000/svg"><g fill="#bebebe"><path d="m2.84375 0c-.8215224-.00137341-1.162371 1.045648-1.15625 1.3125l-.6875 11c.1531649-.670693.6175502-1.157078 1.1875-1.15625h11.65625c.521856.000758.967768.416136 1.15625 1l-.59375-10.75c.02502-.3780782-.39306-1.37330616-1.40625-1.375zm-.0292969.63867188h10.4199219c.2535.0240122.623621.42161652.558594 1.11718752l.095703 8.7480466h-11.7773439l.2324219-8.7597654c.0530224-.7154511.2268404-.97988778.4707031-1.10546872zm5.5917969.43164062-1.3125 2.0410156h.875v3.0332031l-1.3125-.7871093v-.2050781h.4375v-1.3398438h-1.71875v1.3398438h.4375v.3496093.1757813l.15625.0585937 2 1.2519531v.3222657.203125.4082031c-.50637.1378679-.875.5193128-.875.9628906 0 .5603065.59714 1.0195313 1.3125 1.0195313s1.28125-.4592248 1.28125-1.0195313c0-.4435778-.33738-.8250236-.84375-.9628906v-.0585938-.1738281-.0292969l1.96875-1.2246093.1875-.0878907v-.1757812-.4648438c.25215-.1180984.40625-.3078384.40625-.5546874 0-.3735325-.36685-.6699219-.84375-.6699219s-.875.2963894-.875.6699219c0 .2468489.18535.4365889.4375.5546874v.3203126l-1.28125.7871093v-3.703125h.84375zm-3.90625 7.7265625c-.40819 0-.71875.2330268-.71875.5527344 0 .3197075.31056.5839844.71875.5839844.40818-.0000001.75-.2642769.75-.5839844 0-.3197076-.34182-.5527344-.75-.5527344z"/><path d="m2.5659425 11.779661c-.8098185-.0013-1.4376715.692922-1.4376715 1.525693v1.114928c0 .832771.627853 1.524437 1.4376715 1.525693l10.9247885.01695c.809819.0013 1.437672-.692922 1.437672-1.525693v-1.114928c0-.832771-.627853-1.524436-1.437672-1.525693zm.011985 1.650517 2.279597.0035 1.2492121 1.31947.069501-1.317424 7.3264787.01137c.05801.00009.146701.03087.146701.234722v1.114928c0 .203852-.08869.234812-.146701.234722l-10.9247888-.016916c-.058017-.00009-.1467012-.03087-.1467012-.234722v-1.114928c0-.203854.088685-.234812.1467012-.234722z"/></g></svg>