<svg height="16" width="16" xmlns="http://www.w3.org/2000/svg"><g fill="#bebebe"><path d="m2.84375 0c-.8215224-.00137341-1.162371 1.045648-1.15625 1.3125l-.69140625 11.84375c.15316485-.670693.61755025-1.157078 1.18750005-1.15625h-.1835938v-1l.3879442-8.8945313c.0530224-.7154511.2268404-.9798878.4707031-1.1054687h10.4199217c.2535.024012.623621.4216165.558594 1.1171875l.162837 8.8828125v1h-.160156c.521856.000758.967768.416136 1.15625 1l-.589844-11.59375c.02502-.3780782-.39306-1.37330616-1.40625-1.375zm.890625 9c-.3918317 0-.71875.2720721-.71875.625 0 .352927.3269183.625.71875.625.3918221 0 .71875-.272073.71875-.625 0-.3529279-.3269279-.625-.71875-.625z"/><path d="m2 12c-.554 0-1 .669-1 1.5v1c0 .831.446 1.5 1 1.5h12c.554 0 1-.669 1-1.5v-1c0-.831-.446-1.5-1-1.5zm.5 1h11c.277 0 .5.223.5.5v1c0 .277-.223.5-.5.5h-11c-.277 0-.5-.223-.5-.5v-1c0-.277.223-.5.5-.5z" fill="#bebebe"/><path d="m5 13v1.5l-2-1.5z" fill="#bebebe"/><path d="m11.462891 1.9824219v.03125c-.572109.4544959-1.195385.8649351-1.7500004 1.40625-.01161.00797-.02175.02065-.03125.03125-.01161.00797-.02175-.0106-.03125 0-.0026.018529-.0026.043972 0 .0625-.0026.018529-.0026.043972 0 .0625-.000665.00931-.000665.02193 0 .03125.00958.0106.01964.02327.03125.03125-.0026.018529-.0026.043971 0 .0625-.000665.00932-.000665.02193 0 .03125.3958314.4088644.8829474.6778854 1.3437504.9375h.03125.03125v.03125l1.90625-1.375.03125-.03125v-.0625-.03125-.03125-.03125-.03125-.03125l-1.34375-1.0625v-.03125h-.03125-.03125-.03125-.03125-.03125zm-5.8437504.0625c-.01161.00797-.02175.020651-.03125.03125-.518332.4148405-1.099376.7669932-1.59375 1.28125-.000665.00931-.000665.02193 0 .03125-.000665.00931-.000665.02193 0 .03125-.000665.00931-.000665.02193 0 .03125-.0026.018529-.0026.043972 0 .0625-.0026.018529-.0026.043972 0 .0625.120573.2186871.327691.3755555.53125.375.19105-.0005555.365694-.090079.5-.25.00887-.010483.02305-.020229.03125-.03125.416119-.313041.811459-.6546068 1.21875-.96875.000665-.00931.000665-.02193 0-.03125.01059.0009814.02066.0009814.03125 0 .000665-.00931.000665-.02193 0-.03125.0026-.018529.0026-.043972 0-.0625.000665-.00931.000665-.02193 0-.03125.000665-.00932.000665-.02193 0-.03125.000665-.00931.000665-.02193 0-.03125.000665-.00932.000665-.02193 0-.03125.000665-.00932.000665-.02193 0-.03125.000665-.00931.000665-.02193 0-.03125-.01059-.0009814-.02066-.0009814-.03125 0-.155113-.1202008-.322292-.2009524-.46875-.3125.000665-.00931.000665-.02193 0-.03125-.01059-.0009813-.02066-.0009813-.03125 0-.01059-.0009813-.02066-.0009813-.03125 0-.01059-.0009813-.02066-.0009813-.03125 0-.01059-.0009813-.02066-.0009813-.03125 0-.01059-.0009813-.02066-.0009813-.03125 0-.01059-.0009813-.02066-.0009813-.03125 0zm1.1875.875c-.01161.00797-.02175.020651-.03125.03125l-1.59375 1.25c-.01161.00797-.02175.02065-.03125.03125-.01161.00797-.02175.02065-.03125.03125-.000665.00931-.000665.02193 0 .03125-.000665.00931-.000665.02193 0 .03125-.000665.00931-.000665.02193 0 .03125-.000665.00931-.000665.02193 0 .03125-.000665.00931-.000665.02193 0 .03125.01059.0009814.02066.0009814.03125 0-.000665.00931-.000665.02193 0 .03125-.000665.00931-.000665.02193 0 .03125.01059.0009814.02066.0009814.03125 0 .123795.093001.241407.265084.46875.34375.01059.0009813.02066.0009813.03125 0 .01059.0009813.02066.0009813.03125 0 .01059.0009813.02066.0009813.03125 0 .01161-.00797.02175-.02065.03125-.03125.01059.0009813.02066.0009813.03125 0 .559867-.376771 1.095209-.8156735 1.625-1.21875.01161-.00797.02175-.02065.03125-.03125.000665-.00932.000665-.02193 0-.03125.000665-.00931.000665-.02193 0-.03125.0026-.018529.0026-.012721 0-.03125.0026-.018529.0026-.043972 0-.0625.000665-.00932.000665-.02193 0-.03125.000665-.00932.000665-.02193 0-.03125.000665-.00932.000665-.02193 0-.03125-.01059-.0009814-.02066-.0009814-.03125 0-.147599-.112015-.285884-.2244703-.4375-.34375.000665-.00931.000665-.02193 0-.03125-.01059-.0009813-.02066-.0009813-.03125 0-.01059-.0009813-.02066-.0009813-.03125 0-.01059-.0009813-.02066-.0009813-.03125 0-.02101-.00403-.04149-.00403-.0625 0-.01059-.0009813-.02066-.0009813-.03125 0zm.1933594 5.0800781v1h3v-1zm0 2v1h3v-1z"/><path d="m8.5 4c-.7071068 0-1.5.7928932-1.5 1.5s.7928932 1.5 1.5 1.5 1.5-.7928932 1.5-1.5-.7928932-1.5-1.5-1.5zm0 1c.2357023 0 .5.2642977.5.5s-.2642977.5-.5.5-.5-.2642977-.5-.5.2642977-.5.5-.5z" fill="#bebebe"/></g></svg>