<svg height="16" width="16" xmlns="http://www.w3.org/2000/svg"><g fill="#bebebe"><path d="m2.5659425 11.779661c-.8098185-.0013-1.4376715.692922-1.4376715 1.525693v1.114928c0 .832771.627853 1.524437 1.4376715 1.525693l10.9247885.01695c.809819.0013 1.437672-.692922 1.437672-1.525693v-1.114928c0-.832771-.627853-1.524436-1.437672-1.525693zm.011985 1.650517 10.9247885.01695c.05801.00009.146701.03087.146701.234722v1.114928c0 .203852-.08869.234812-.146701.234722l-10.9247885-.01695c-.058017-.00009-.1467012-.03087-.1467012-.234722v-1.114928c0-.203854.088685-.234812.1467012-.234722z"/><path d="m2.8437502.00000135c-.8215224-.001373-1.1623711 1.04564795-1.1562501 1.31249995l-.6875 10.9999997c.153165-.670693.6175503-1.157078 1.1875001-1.15625h11.6562498c.521856.000758.967768.416136 1.15625 1l-.59375-10.7499997c.02502-.3780782-.39306-1.37330611-1.40625-1.37499995zm-.029297.63867193h10.4199218c.2535.024012.623621.42161642.558594 1.11718742l.0957 8.7480463h-11.7773408l.232422-8.7597651c.0530219-.7154511.2268403-.97988772.470703-1.10546862z"/></g></svg>