<svg height="16" width="16" xmlns="http://www.w3.org/2000/svg"><g fill="#bebebe"><path d="m2.84375 0c-.8215224-.00137341-1.162371 1.045648-1.15625 1.3125l-.6875 11c.1531649-.670693.6175502-1.157078 1.1875-1.15625h11.65625c.521856.000758.967768.416136 1.15625 1l-.59375-10.75c.02502-.3780782-.39306-1.37330616-1.40625-1.375zm-.0292969.63867188h10.4199219c.2535.0240122.623621.42161652.558594 1.11718752l.095703 8.7480466h-11.7773439l.2324219-8.7597654c.0530224-.7154511.2268404-.97988778.4707031-1.10546872zm8.4667969.78320312v.03125c-.572109.4544959-1.195385.8649351-1.75 1.40625-.01161.00797-.02175.02065-.03125.03125-.01161.00797-.02175-.0106-.03125 0-.0026.018529-.0026.043972 0 .0625-.0026.018529-.0026.043972 0 .0625-.000665.00931-.000665.02193 0 .03125.00958.0106.01964.02327.03125.03125-.0026.018529-.0026.043971 0 .0625-.000665.00932-.000665.02193 0 .03125.395832.4088644.882947.6778854 1.34375.9375h.03125.03125v.03125l1.90625-1.375.03125-.03125v-.0625-.03125-.03125-.03125-.03125-.03125l-1.34375-1.0625v-.03125h-.03125-.03125-.03125-.03125-.03125zm-5.84375.0625c-.01161.00797-.02175.020651-.03125.03125-.518332.4148405-1.099376.7669932-1.59375 1.28125-.000665.00931-.000665.02193 0 .03125-.000665.00931-.000665.02193 0 .03125-.000665.00931-.000665.02193 0 .03125-.0026.018529-.0026.043972 0 .0625-.0026.018529-.0026.043972 0 .0625.120573.2186871.327691.3755555.53125.375.19105-.0005555.365694-.090079.5-.25.00887-.010483.02305-.020229.03125-.03125.416119-.313041.811459-.6546068 1.21875-.96875.000665-.00931.000665-.02193 0-.03125.01059.0009814.02066.0009814.03125 0 .000665-.00931.000665-.02193 0-.03125.0026-.018529.0026-.043972 0-.0625.000665-.00931.000665-.02193 0-.03125.000665-.00932.000665-.02193 0-.03125.000665-.00931.000665-.02193 0-.03125.000665-.00932.000665-.02193 0-.03125.000665-.00932.000665-.02193 0-.03125.000665-.00931.000665-.02193 0-.03125-.01059-.0009814-.02066-.0009814-.03125 0-.155113-.1202008-.322292-.2009524-.46875-.3125.000665-.00931.000665-.02193 0-.03125-.01059-.0009813-.02066-.0009813-.03125 0-.01059-.0009813-.02066-.0009813-.03125 0-.01059-.0009813-.02066-.0009813-.03125 0-.01059-.0009813-.02066-.0009813-.03125 0-.01059-.0009813-.02066-.0009813-.03125 0-.01059-.0009813-.02066-.0009813-.03125 0zm1.1875.875c-.01161.00797-.02175.020651-.03125.03125l-1.59375 1.25c-.01161.00797-.02175.02065-.03125.03125-.01161.00797-.02175.02065-.03125.03125-.000665.00931-.000665.02193 0 .03125-.000665.00931-.000665.02193 0 .03125-.000665.00931-.000665.02193 0 .03125-.000665.00931-.000665.02193 0 .03125-.000665.00931-.000665.02193 0 .03125.01059.0009814.02066.0009814.03125 0-.000665.00931-.000665.02193 0 .03125-.000665.00931-.000665.02193 0 .03125.01059.0009814.02066.0009814.03125 0 .123795.093001.241407.265084.46875.34375.01059.0009813.02066.0009813.03125 0 .01059.0009813.02066.0009813.03125 0 .01059.0009813.02066.0009813.03125 0 .01161-.00797.02175-.02065.03125-.03125.01059.0009813.02066.0009813.03125 0 .559867-.376771 1.095209-.8156735 1.625-1.21875.01161-.00797.02175-.02065.03125-.03125.000665-.00932.000665-.02193 0-.03125.000665-.00931.000665-.02193 0-.03125.0026-.018529.0026-.012721 0-.03125.0026-.018529.0026-.043972 0-.0625.000665-.00932.000665-.02193 0-.03125.000665-.00932.000665-.02193 0-.03125.000665-.00932.000665-.02193 0-.03125-.01059-.0009814-.02066-.0009814-.03125 0-.147599-.112015-.285884-.2244703-.4375-.34375.000665-.00931.000665-.02193 0-.03125-.01059-.0009813-.02066-.0009813-.03125 0-.01059-.0009813-.02066-.0009813-.03125 0-.01059-.0009813-.02066-.0009813-.03125 0-.02101-.00403-.04149-.00403-.0625 0-.01059-.0009813-.02066-.0009813-.03125 0zm1.5625 1.09375c-.000665.00931-.000665.02193 0 .03125-.443798.062771-.909501.1557626-1.3125.46875-.01161.00797-.02175.02065-.03125.03125-.150913.1660849-.30736.3733863-.40625.625-.09889.2516495-.127281.5876104 0 .875.184709.4446403.474363.7338306.84375.90625.369387.172428.787577.211064 1.15625.1875.638447-.051643 1.407474-.3107039 1.71875-1.09375.000665-.00931.000665-.02193 0-.03125.127607-.3452336.110396-.6809035-.03125-.96875-.141208-.2878465-.404256-.5515822-.65625-.6875-.401775-.245817-.809841-.35002-1.25-.34375-.01059-.0009814-.02066-.0009814-.03125 0zm.0625.9375c.190509-.00825.410601.027295.59375.125s.33055.2071206.375.4375c.029901.2131678-.055467.3694132-.1875.5-.132033.1305866-.310313.233066-.46875.25-.211949.028671-.477916.007206-.6875-.0625-.209594-.0696163-.354905-.1957432-.46875-.40625-.072434-.1470457-.04287-.2961527.03125-.4375.074065-.1413474.194812-.227671.3125-.28125.151535-.082249.315506-.11586.5-.125zm1.125 2.5625-2.15625.03125c-.01161.00797-.02175.020651-.03125.03125-.01059-.0009813-.02066-.0009813-.03125 0-.01059-.0009813-.02066-.0009813-.03125 0-.01161.00797-.02175.020651-.03125.03125-.000665.00932-.000665.02193 0 .03125-.01161.00797-.02175.020651-.03125.03125-.000665.00932-.000665.02193 0 .03125-.000665.00932-.000665.02193 0 .03125l-.0625.5c-.0026.018529-.0026.043972 0 .0625.00958.010599.01964.02327.03125.03125-.000665.00932-.000665.02193 0 .03125.01059.0009814.02066.0009814.03125 0-.000665.00932-.000665.02193 0 .03125.01059.0009814.02066.0009814.03125 0-.000665.00932-.000665.02193 0 .03125.01059.0009814.02066.0009814.03125 0 .01059.0009814.02066.0009814.03125 0-.000665.00932-.000665.02193 0 .03125h2.21875c.01161-.00797.02175-.020651.03125-.03125.01059.0009814.02066.0009814.03125 0 .01059.0009814.02066.0009814.03125 0 .01161-.00797.02175-.02065.03125-.03125.01161-.00797.02175-.020651.03125-.03125.000665-.00931.000665-.02193 0-.03125.01161-.00797.02175-.020651.03125-.03125.000665-.00932.000665-.02193 0-.03125v-.53125c.000665-.00931.000665-.02193 0-.03125.0026-.018529.0026-.043972 0-.0625.000665-.00931.000665-.02193 0-.03125-.01059-.0009814-.02066-.0009814-.03125 0 .000665-.00931.000665-.02193 0-.03125-.01059-.0009813-.02066-.0009813-.03125 0-.00958-.010599-.01964-.02327-.03125-.03125-.01059-.0009813-.02066-.0009813-.03125 0 .000665-.00932.000665-.02193 0-.03125-.01059-.0009813-.02066-.0009813-.03125 0-.01059-.0009813-.02066-.0009813-.03125 0zm-2.21875 1.3125c-.0227.00484-.04326.017667-.0625.03125-.000665.00931-.000665.02193 0 .03125-.01161.00797-.02175.02065-.03125.03125-.01362.016512-.02385.042072-.03125.0625-.0026.018529-.0026.043972 0 .0625-.000665.00931-.000665.02193 0 .03125-.000665.00931-.000665.02193 0 .03125.0041.043258.001.095699 0 .1875-.00113.0918-.02737.1954513.03125.3125-.000665.00932-.000665.02193 0 .03125.01059.0009814.02066.0009814.03125 0 .01059.0009814.02066.0009814.03125 0 .00958.010599.01964.02327.03125.03125.01059.0009814.02066.0009814.03125 0 .01059.0009814.02066.0009814.03125 0-.000665.00932-.000665.02193 0 .03125h2.15625c.01161-.00797.02175-.02065.03125-.03125.01059.0009814.02066.0009814.03125 0 .01059.0009814.02066.0009814.03125 0 .01161-.00797.02175-.02065.03125-.03125.01161-.00797.02175.0106.03125 0 .000665-.00931.000665-.02193 0-.03125.01161-.00797.02175-.02065.03125-.03125.000665-.00931.000665-.02193 0-.03125.000665-.00931.000665-.02193 0-.03125.000665-.00931.000665-.02193 0-.03125-.0041-.043258-.001-.0957 0-.1875.00113-.0918.02737-.2267012-.03125-.34375.000665-.00931.000665-.02193 0-.03125-.01059-.0009814-.02066-.0009814-.03125 0 .000665-.00931.000665-.02193 0-.03125-.01059-.0009814-.02066-.0009814-.03125 0-.00958-.010599-.01964-.02327-.03125-.03125-.01059-.0009814-.02066-.0009814-.03125 0-.01059-.0009814-.02066-.0009814-.03125 0 .000665-.00931.000665-.02193 0-.03125h-2.1875c-.01059-.0009814-.02066-.0009814-.03125 0zm-2.65625.53125c-.41614 0-.71875.2905351-.71875.65625 0 .3657147.30261.6875.71875.6875.416129 0 .78125-.3217853.78125-.6875 0-.3657149-.365121-.65625-.78125-.65625z"/><path d="m2.5659425 11.779661c-.8098185-.0013-1.4376715.692922-1.4376715 1.525693v1.114928c0 .832771.627853 1.524437 1.4376715 1.525693l10.9247885.01695c.809819.0013 1.437672-.692922 1.437672-1.525693v-1.114928c0-.832771-.627853-1.524436-1.437672-1.525693zm.011985 1.650517 2.279597.0035 1.2492121 1.31947.069501-1.317424 7.3264787.01137c.05801.00009.146701.03087.146701.234722v1.114928c0 .203852-.08869.234812-.146701.234722l-10.9247888-.016916c-.058017-.00009-.1467012-.03087-.1467012-.234722v-1.114928c0-.203854.088685-.234812.1467012-.234722z"/></g></svg>