<svg height="16" width="16" xmlns="http://www.w3.org/2000/svg" xmlns:xlink="http://www.w3.org/1999/xlink"><filter id="a" color-interpolation-filters="sRGB"><feBlend in2="BackgroundImage" mode="darken"/></filter><g fill="#c0c0c0"><path d="m1 0c-1 0-1 1-1 1v11c0 1 1 1 1 1h14c1 0 1-1 1-1v-11s0-1-1-1zm0 1h14v11h-14z" filter="url(#a)"/><path d="m6 13v1c0 1-1 1-1 1s-2 0-2 1h10c0-1-2-1-2-1s-1 0-1-1v-1z" filter="url(#a)"/><path d="m14.165858 2.7048671c0-.5116855-.453136-.9224202-1.007016-.9224202h-10.3262144c-.5538802 0-.9984851.4107347-.9984851.9224202v7.5922179c0 .511693.4446049.92242.9984851.92242h10.3262144c.55388 0 1.007015-.410727 1.007015-.92242zm-1.228904 3.5714171c0 1.7286847-1.516787 3.1299232-3.3880243 3.1299232-.9444111 0-1.8007218-.3544982-2.4151333-.93031l.5717817-.6070625c.00911-.012747.017676-.02591.025612-.039408l.03418-.039408c.00451-.005.00451-.010831.00902-.015746.2010803-.2439154.3008233-.5210405.2986859-.8041643-.0018036-.3034853-.147432-.6141025-.3925599-.8199281-.4258647-.357564-1.0434055-.3482329-1.5105293-.0946022.1218561-1.6263342 1.5880691-2.9091678 3.379484-2.9091678 1.8712352 0 3.3880242 1.40123 3.3880242 3.1299147zm-2.150579 0c0-.6329064-.552347-1.1510486-1.2374453-1.1510486-.6850973 0-1.2374355.5181422-1.2374355 1.1510486 0 .6329062.5523382 1.143167 1.2374355 1.143167.6850983 0 1.2374453-.5102608 1.2374453-1.143167zm-3.6354167 1.011482-.067367.074648c-.9706996.5464853-1.6163776 1.303162-1.8358663 2.335439-.01001.010994-.023628.020748-.03409.031492l-.017045.015746-.051224.055156-.00812-.00839c-.3843492.3290738-.9359388.3842948-1.2715659.1024951-.3580016-.3005946-.3334086-.8626094.0512242-1.2535488.0836002-.0849971.1736304-.1505722.2730848-.2049674.5517971-.9629604 1.3535288-1.2332372 2.1216039-1.5967665.0268747-.0273266.1123958-.0685675.1417054-.091828.2983543-.2371096.4724175-.2869561.7268343-.0733985.2517474.3551646.0101907.5537086-.0286784.6138025zm-2.6883263-3.9048787c0 .3400685-.2975426.6228254-.6656537.6228254-.3681112 0-.6656538-.2827569-.6656538-.6228254 0-.3400766.2975426-.6149523.6656538-.6149523.3681111 0 .6656537.2748757.6656537.6149523z"/></g><path d="m248.85191-258.30082c-3.11976.0441-5.70435 2.70501-5.75 5.93522l-.40625 31.57924c-.046 3.25697 2.58987 5.93522 5.75 5.93522h25.3125c3.16013 0 5.85131-2.67953 5.75-5.93522l-.96875-31.48247c-.0263-3.28474-2.59407-6.02591-5.75-6.03199h-23.84375z" fill="#bebebe"/></svg>