<svg height="16" width="16" xmlns="http://www.w3.org/2000/svg"><g fill="#bebebe"><path d="m2.7808478 12.680011-.03125.40625c.028666-.125523.069617-.239017.125-.34375-.03232-.01906-.06253-.04182-.09375-.0625zm10.4375002.03125c-.02352.01487-.03834.04855-.0625.0625.03622.06835.06881.141505.09375.21875z"/><path d="m3.9370151 8.9822361c-.6062467-.0010088-1.0762704.518735-1.0762704 1.1421649v.834658c0 .623429.4700237 1.141225 1.0762704 1.142165l8.1785209.01269c.606248.001 1.076271-.518735 1.076271-1.142166v-.834657c0-.6234297-.470023-1.1412249-1.076271-1.1421656zm.00897 1.2356109 8.1785219.01268c.04343.000068.109824.02311.109824.175718v.834658c0 .152608-.06639.175785-.109824.175718l-8.1785219-.01269c-.043433-.000067-.1098236-.02311-.1098236-.175717v-.834658c0-.152609.066392-.175785.1098236-.175718z"/><path d="m3.3433478 12.930011c-.2857117.206816-.46875.516606-.46875.90625v.84375c0 .623429.4562533 1.15531 1.0625 1.15625h8.1875002c.606247.001 1.0625-.532819 1.0625-1.15625v-.8125c0-.38501-.188847-.729922-.46875-.9375-.193652.05932-.376546.125361-.59375.125l-8.1875002-.03125c-.2097879-.000326-.4035057-.03611-.59375-.09375zm.59375 1 8.1875002.03125c.04343.000068.125.0036.125.15625v.84375c0 .152608-.08157.187567-.125.1875l-8.1875002-.03125c-.043433-.000067-.09375-.0036-.09375-.15625v-.84375c0-.152609.050318-.187567.09375-.1875z"/><path d="m4.2015969.00000106c-.6051832-.00106021-.8562722.79187839-.8517632.99396763l-.5901108 8.38438551c.1128305-.5079209.4549244-.876265.8747837-.8756381l8.7641314.014047c.384431.0005744.712916.3151437.851764.7573087l-.531174-8.2091053c.018432-.28632263-.289551-1.04001659-1.035928-1.04129957zm-.021584.48367185h7.6759391c.186744.0181828.459397.31929353.411495.84605549l.164281 6.6930092-8.8533342-.014047.2548731-6.687837c.039058-.54181734.167104-.742077.346748-.83718059z"/></g></svg>