<svg height="16" width="16" xmlns="http://www.w3.org/2000/svg"><g fill="#bebebe"><path d="m8 3c-2.209139 0-4 1.3431458-4 3 0 1.5886622 1.6514016 2.8761301 3.734375 2.9804688-.1921415-.4495619-.2960993-1.0015389.0078125-1.3027344.0696219-.0689958.1540417-.1283774.2441406-.1796875.1241975-.1047494.5668655-.298904.9199219-.1660157.24985.029164.4882463.09919.7109375.2519532.00566.00432-.00576.026927 0 .03125h.0625c.015551.00761.016563.022518.03125.03125l.8046875.6679687c.898427-.5501255 1.484375-1.3767465 1.484375-2.3144531 0-1.6568542-1.790861-3-4-3zm0 2c.7371514-.0002109 1.3346839.4477198 1.3339844 1-.0007406.5515174-.5978511.9982575-1.3339844.9980469-.7361333.0002106-1.3332438-.4465295-1.3339844-.9980469-.0006995-.5522802.596833-1.0002109 1.3339844-1z" fill="#bebebe"/><path d="m2.84375 0c-.8215224-.00137341-1.162371 1.045648-1.15625 1.3125l-.69140625 11.84375c.15316485-.670693.61755025-1.157078 1.18750005-1.15625h-.1835938v-1l.3879442-8.8945313c.0530224-.7154511.2268404-.9798878.4707031-1.1054687h10.4199217c.2535.024012.623621.4216165.558594 1.1171875l.162837 8.8828125v1h-.160156c.521856.000758.967768.416136 1.15625 1l-.589844-11.59375c.02502-.3780782-.39306-1.37330616-1.40625-1.375zm5.8046875 8.0527344c-.080077.011648-.210196.033408-.3125.09375-.2460575.2439224-.1794446.4014525.09375.6875.026801.028101.093514.1304838.125.15625.76012.9435094.9971374 1.2029436 1.8089385 1.6881126.450435.368768 1.091159.40573 1.4375.0625.324685-.321783.254151-.8502508-.125-1.2187499-1.015437-.5623769-1.9910857-.5266427-2.5276885-1.2818627l-.09375-.0625c-.051932-.027949-.1660279-.1599427-.40625-.125zm-4.9140625.9472656c-.3918317 0-.71875.2720721-.71875.625 0 .352927.3269183.625.71875.625.3918221 0 .71875-.272073.71875-.625 0-.3529279-.3269279-.625-.71875-.625z"/><g fill="#bebebe"><path d="m2 12c-.554 0-1 .669-1 1.5v1c0 .831.446 1.5 1 1.5h12c.554 0 1-.669 1-1.5v-1c0-.831-.446-1.5-1-1.5zm.5 1h11c.277 0 .5.223.5.5v1c0 .277-.223.5-.5.5h-11c-.277 0-.5-.223-.5-.5v-1c0-.277.223-.5.5-.5z"/><path d="m5 13v1.5l-2-1.5z"/></g></g></svg>