<svg height="16" width="16" xmlns="http://www.w3.org/2000/svg"><g fill="#bebebe"><g stroke-width="1.002632"><path d="m2.84375 0c-.821523-.00140738-1.162371 1.0520539-1.15625 1.3203125l-.6875 10.8926435c.153165-.674228.43005-1.213788 1-1.212956l.3320312-8.8886719c.05302-.7192221.2268402-.9850852.4707032-1.1113281h10.4199216c.2535.024137.623621.4238096.558594 1.1230469l.21875 8.8769531c.521856.000762.811518.626015 1 1.212956l-.59375-10.7988935c.02502-.3800708-.39306-1.38110957-1.40625-1.3828125z"/><path d="m3.9375 0c.16206.45439109.5243206 1.6329153 1.0625 2 .7593196.5179214 1.7783621 1 3 1 1.2216932 0 2.232325-.4810348 3-1 .544102-.3678245.8984-1.54644992 1.0625-2zm1.0625 0h6c-.166808.52412382-.318832.97552409-.792788 1.2954484-.643556.4344053-1.2877337.7045516-2.207212.7045516-.9194786 0-1.3385196-.2461766-1.9820753-.6805819-.4739562-.31992429-.851117-.79529428-1.0179247-1.3194181z"/><path d="m3 13c.1917575 1.666307 2.4471709 3 4.9785156 3 2.5332254 0 4.8308154-1.331985 5.0214844-3h-1.919922c-.181113.974919-1.5959765 1.724609-3.1015624 1.724609-1.5055865 0-2.8973416-.74969-3.0761718-1.724609z"/><path d="m6 13c.1838636.596926 1.0818013 1.048828 1.984375 1.048828.9025081 0 1.8348311-.451899 2.015625-1.048828h-.9863281c-.1465218.229262-.6432349.388672-1.0292969.388672-.3860619 0-.8359002-.15941-.9824218-.388672z"/></g><path d="m2 11c-.554 0-1 .669-1 1.5v1c0 .831.446 1.5 1 1.5h.9160156c-.2989247-.332888-.5532906-.695814-.7128906-1.107422-.1205257-.091127-.203125-.229162-.203125-.392578v-.470703-.529297c0-.277.223-.5.5-.5h.5 1.9023438 6.1777342 1.919922.5c.277 0 .5.223.5.5v.513672.486328c0 .164983-.084521.303569-.207031.394531-.160995.411253-.416006.773822-.716797 1.105469h.923828c.554 0 1-.669 1-1.5v-1c0-.831-.446-1.5-1-1.5z"/></g></svg>