<svg height="16" width="16" xmlns="http://www.w3.org/2000/svg"><g fill="#bebebe"><path d="m2.8437508.0000014c-.821523-.0014-1.162372 1.045648-1.156251 1.3125l-.9687498 9.2812486c.15316502-.670693.617551-1.157078 1.187501-1.15625l12.187499.0000005c.521856.000758.967768.416136 1.15625.9999995l-.84375-9.0312486c.02502-.378078-.39306-1.373306-1.40625-1.375zm-.0293.638672h10.4199212c.2535.02401.623621.421617.558594 1.117188l.3457 7.0292956-12.308587-.000001.5136718-7.0410136c.05302-.715451.22684-.979888.470703-1.105469z"/><path d="m3.9375 0c.16206.4520086.7723675 1.1563244 1.3105469 1.5214844.7593196.5152058 1.5303152.8320312 2.7519531.8320312 1.2216932 0 1.9217777-.3333653 2.689453-.8496094.544102-.3658959 1.208947-1.0527342 1.373047-1.5039062zm.40625 0h7.3125c-.166808.5213757-.807294.9942532-1.28125 1.3125-.643556.4321276-1.4555217.65625-2.375.65625-.9194786 0-1.7939443-.2241224-2.4375-.65625-.4739562-.3182468-1.0519423-.7911243-1.21875-1.3125z"/><path d="m2.28125 10.728813c-.8098195 0-1.4375.636083-1.4375 1.394462v.996043c0 .758378.6276805 1.394461 1.4375 1.394461h1.03125c-.3338969-.346178-.5821116-.744076-.75-1.166794h-.28125c-.058017 0-.15625-.04202-.15625-.227667v-.996043c0-.185645.098234-.227669.15625-.227669h11.4375c.05801 0 .15625.04203.15625.227669v.996043c0 .185642-.09824.227667-.15625.227667h-.34375c-.166319.42617-.415888.81809-.75 1.166794h1.09375c.80982 0 1.4375-.636083 1.4375-1.394461v-.996043c0-.758379-.62768-1.394462-1.4375-1.394462zm4.5625 2.618172c.3253773.123489.7242724.19921 1.15625.19921.4274147 0 .8016194-.078 1.125-.19921z"/><path d="m3.1530016 12.68667c0 1.772122 2.1682063 3.229783 4.825174 3.229783 2.6570614 0 4.8425284-1.457594 4.8425284-3.229783h-1.902415c0 1.088206-1.3084888 1.960932-2.9401134 1.960932-1.6316253 0-2.922759-.872726-2.922759-1.960932z"/><path d="m6.0863239 12.660326c0 .723497.8625665 1.314819 1.898831 1.314819 1.0361892 0 1.8830795-.591315 1.8830795-1.314819h-.9415581c0 .36761-.4150605.657417-.941559.657417-.5264984 0-.9415584-.289807-.9415584-.657417z"/></g></svg>