<svg height="16" width="16" xmlns="http://www.w3.org/2000/svg"><g fill="#bebebe"><path d="m2.84375 0c-.8215224-.00137341-1.162371 1.045648-1.15625 1.3125l-.6875 11c.1531649-.670693.6175502-1.157078 1.1875-1.15625h11.65625c.521856.000758.967768.416136 1.15625 1l-.59375-10.75c.02502-.3780782-.39306-1.37330616-1.40625-1.375zm-.0292969.63867188h10.4199219c.2535.0240122.623245.42212772.558218 1.11769872l.09608 8.7475354h-11.7773449l.2317736-8.7598282c.0530224-.7154511.2274887-.97982498.4713514-1.10540592zm5.1274384.75389392c-1.991767 0-3.59375 1.4559499-3.59375 3.25 0 1.7175209 1.3717683 2.7406046 3.2456085 2.8574342-.2922298-.4478554-.3182305-1.0292017.09375-1.4375.2371494-.2350166.6190782-.3732707.96875-.375.3262112-.00204.6252128.0884623.90625.28125.00566.00432-.00576.026927 0 .03125h.0625c.015551.00761.016563.022518.03125.03125l.71875.5625c.663442-.5890678 1.160641-1.0457293 1.160641-1.9511842 0-1.7940501-1.6019829-3.25-3.5937495-3.25zm0 2.0625c.7292261 0 1.3125.5306621 1.3125 1.1875 0 .6568375-.6814154.7949342-1.4106415.7949342-.729226 0-1.2143585-.1380967-1.2143585-.7949342 0-.6568379.583274-1.1875 1.3125-1.1875zm.6518585 2.9824342c-.080077.011648-.210196.033408-.3125.09375-.2460575.2439224-.1794446.4014525.09375.6875.026801.028101.0935144.1304838.125.15625.4188535.736393.7029906 1.5022141 1.8125 2.03125.06267.095349.152068.1698482.25.25.450435.368768 1.091159.40573 1.4375.0625.324685-.3217831.254151-.8502509-.125-1.21875l-.0625-.0625v-.03125c-.01238-.010029-.01858-.021653-.03125-.03125-1.189378-.2104391-2.0578469-.8193406-2.6875-1.75l-.09375-.0625c-.0519318-.0279491-.1660279-.1599427-.40625-.125zm-4.09375 2.71875c-.3918317 0-.71875.2720721-.71875.625 0 .352927.3269183.625.71875.625.3918221 0 .71875-.272073.71875-.625 0-.3529279-.3269279-.625-.71875-.625z"/><path d="m2.5659425 11.779661c-.8098185-.0013-1.4376715.692922-1.4376715 1.525693v1.114928c0 .832771.627853 1.524437 1.4376715 1.525693l10.9247885.01695c.809819.0013 1.437672-.692922 1.437672-1.525693v-1.114928c0-.832771-.627853-1.524436-1.437672-1.525693zm.011985 1.650517 2.279597.0035 1.2492121 1.31947.069501-1.317424 7.3264787.01137c.05801.00009.146701.03087.146701.234722v1.114928c0 .203852-.08869.234812-.146701.234722l-10.9247888-.016916c-.058017-.00009-.1467012-.03087-.1467012-.234722v-1.114928c0-.203854.088685-.234812.1467012-.234722z"/></g></svg>