<svg height="16" width="16" xmlns="http://www.w3.org/2000/svg"><g fill="#bebebe"><path d="m2.84375 0c-.8215224-.00137341-1.162371 1.045648-1.15625 1.3125l-.69140625 11.84375c.15316485-.670693.61755025-1.157078 1.18750005-1.15625h-.1835938v-1l.3879442-8.8945313c.0530224-.7154511.2268404-.9798878.4707031-1.1054687h10.4199217c.2535.024012.623621.4216165.558594 1.1171875l.162837 8.8828125v1h-.160156c.521856.000758.967768.416136 1.15625 1l-.589844-11.59375c.02502-.3780782-.39306-1.37330616-1.40625-1.375z"/><g fill="#bebebe"><path d="m2 12c-.554 0-1 .669-1 1.5v1c0 .831.446 1.5 1 1.5h12c.554 0 1-.669 1-1.5v-1c0-.831-.446-1.5-1-1.5zm.5 1h11c.277 0 .5.223.5.5v1c0 .277-.223.5-.5.5h-11c-.277 0-.5-.223-.5-.5v-1c0-.277.223-.5.5-.5z"/><path d="m5 13v1.5l-2-1.5z"/></g></g></svg>