<svg height="16" width="16" xmlns="http://www.w3.org/2000/svg"><g fill="#bebebe"><path d="m2.84375 0c-.8215224-.00137341-1.162371 1.045648-1.15625 1.3125l-.6875 11.6875h1v-.669922l.3507757-10.2246093c.0530224-.7154511.2268404-.9798878.4707031-1.1054687h10.4199222c.2535.024012.623621.4216165.558594 1.1171875l.08867 10.1855465h.111335v.697266h1l-.59375-11.59375c.02502-.3780782-.39306-1.37330616-1.40625-1.375zm.9375 9.453125c-2.5208333 4.364583-1.2604167 2.182292 0 0z"/><path d="m1 13h14v3h-14z"/><path d="m3 2h3v1h-3z"/></g></svg>