<svg height="16" width="16" xmlns="http://www.w3.org/2000/svg"><g fill="#bebebe" transform="matrix(.92998818 0 0 .92998818 .560093 .560095)"><path d="m1.956613.42781659c-.5330324.00012033-.924551.42799855-.95986047.95985991l-.83410106 12.5639345c-.0353094.53186.43400213.872701.95986043.959859 4.5332728.751368 9.0995011 1.008397 13.7500921 0 .520927-.112954 1.007801-.428646.96381-.959859l-1.040672-12.5666154c-.043991-.53121366-.430778-.95998017-.96381-.95985983zm4.7106479.56445925 2.7452345-.046875c.088958-.00152.1619516.072985.1619516.16195156v1.3943645c0 .088967-.073.1604328-.1619516.1619517l-2.7452345.046875c-.088958.0015189-.1619516-.072985-.1619516-.1619517v-1.3943645c0-.088967.073-.16043276.1619516-.16195156zm-4.273691 2.25402176 10.8175051.1223191.978172 9.3387303h-12.4110282z"/><path d="m11.661592 11.609728.521448.361066c.135322-.05001.243845-.189383.263057-.290717l-.372664-.445767c-.07836.168225-.145069.344983-.411841.375418z" fill-rule="evenodd"/><path d="m5.0985699 5.0475684-.1839901-.1646854" stroke="#fff" stroke-linecap="round" stroke-width=".098965"/><path d="m4.1588357 3.9964105c-.2489587.032682-.02447.7853454 1.0316354 1.7695751l6.0487469 5.6539984c.353776-.02435.526852-.332855.610088-.516663l-5.7329019-5.6555825c-1.5110783-1.2810445-1.4838744-1.3135128-1.9575684-1.251328z" fill-rule="evenodd"/></g></svg>