<svg height="16" width="16" xmlns="http://www.w3.org/2000/svg"><path d="m1.21875 4.03125c-.49584111 0-.875.3867651-.875.90625v7.125c0 .519485.37915889.9375.875.9375h13.5625c.495842 0 .875-.418015.875-.9375v-7.125c0-.5194849-.379158-.90625-.875-.90625zm.15625 1.46875h2.09375v1.4375h-2.09375zm2.84375 0h1.90625v1.4375h-1.90625zm2.65625 0h1.875v1.4375h-1.875zm2.5625 0h1.90625v1.4375h-1.90625zm2.65625 0h2.5625v1.4375h-2.5625zm-10.75 2.21875h2.96875v1.4375h-2.96875zm3.8125 0h1.875v1.4375h-1.875zm2.59375 0h1.875v1.4375h-1.875zm2.625 0h1.90625v1.4375h-1.90625zm2.71875 0h1.5625v1.4375h-1.5625zm-11.75 2.34375h2.375v1.4375h-2.375zm2.8125 0h1.28125v1.4375h-1.28125zm1.71875 0h.125.09375.71875 1.90625.71875 1.03125.84375v1.4375h-.84375-1.03125-.71875-1.90625-.71875-.09375-.125zm6.1875 0h2.5625v1.4375h-2.5625z" fill="#bebebe"/></svg>