<svg height="16" width="16" xmlns="http://www.w3.org/2000/svg"><g fill="#bebebe"><path d="m6.2901797.0922425c-1.5333813 0-2.3333112 1.2973936-2.7866677 2.7621838-.686102 2.2168962-1.6411149 5.3796578 0 10.2911347.485954 1.454312 1.2532864 2.762197 2.7866677 2.762197h3.4222235c1.5333808 0 2.1501688-1.356381 2.7622238-2.762197 1.485774-3.4129848.963481-7.4695023 0-10.2911347-.49551-1.4510227-1.228843-2.76218379-2.7622238-2.76218379h-3.4222235zm0 1.0755556h3.4222235c.4602888 0 .6670378.1307871.9533348.4644052.286297.3336182.554878.8986168.782222 1.5644447.900059 2.6359348 1.373439 6.466236.04889 9.508923-.303785.697737-.594478 1.314131-.88 1.662216-.285521.348013-.454739.464404-.9044455.464404h-3.4222235c-.4610375 0-.6857969-.130155-.9777778-.464404-.2919867-.334394-.562452-.906755-.7822274-1.564444-1.5574278-4.6610917-.6840264-7.4208517 0-9.6311004.2003818-.6473675.4653047-1.2090031.757778-1.5400393.2924733-.331036.5387158-.4644052 1.0022222-.4644052zm1.7111122.7822217c-.3296662 0-.586667.8708483-.586667 1.9555568v1.2955173c0 1.0847085.2570008 1.9555567.586667 1.9555567.3296663 0 .5866661-.8708482.5866661-1.9555567v-1.2955173c0-1.0847085-.2569998-1.9555568-.5866661-1.9555568z"/><path d="m3.8125 6.03125c-.0540673.3425515-.0994194.6862521-.125 1.0625 1.2817453.4840287 2.7450253.78125 4.3125.78125 1.5407403 0 2.983693-.2812385 4.25-.75-.031115-.3701336-.070173-.7349825-.125-1.09375-1.141076.4091305-2.4147575.6827527-3.78125.71875-.0975639.2432327-.2098733.40625-.34375.40625-.1338766 0-.2461859-.1630173-.34375-.40625-1.3886905-.0365821-2.6889789-.2975769-3.84375-.71875z"/></g></svg>