<svg height="16" width="16" xmlns="http://www.w3.org/2000/svg"><g fill="#bebebe" transform="matrix(.92998818 0 0 .92998818 .560093 .560095)"><path d="m13.423828 1.0039062-11.0449218.0019532c-.4957138.0001119-.859606.3979623-.8925781.8925781l-.7753906 11.6367185c-.03297199.494614.4035361.811522.8925781.892578 4.2158901.698764 8.4621144.937798 12.7871094 0 .484456-.105046.937563-.39857.896484-.892578l-.966797-11.6386716c-.041078-.4940085-.40077-.8926901-.896484-.8925782zm-6.1835936.9960938h1.5195312c.1327923 0 .2402344.1074421.2402344.2402344v.5195312c0 .1327923-.1074421.2402344-.2402344.2402344h-1.5195312c-.1327923 0-.2402344-.1074421-.2402344-.2402344v-.5195312c0-.1327923.1074421-.2402344.2402344-.2402344zm-4.2402344 2h10l1 9h-12z" stroke-width=".929988" transform="matrix(1.0752825 0 0 1.0752825 -.602258 -.60226)"/><path d="m11.661592 11.609728.521448.361066c.135322-.05001.243845-.189383.263057-.290717l-.372664-.445767c-.07836.168225-.145069.344983-.411841.375418z" fill-rule="evenodd"/><path d="m5.0985699 5.0475684-.1839901-.1646854" stroke="#fff" stroke-linecap="round" stroke-width=".098965"/><path d="m4.1588357 3.9964105c-.2489587.032682-.02447.7853454 1.0316354 1.7695751l6.0487469 5.6539984c.353776-.02435.526852-.332855.610088-.516663l-5.7329019-5.6555825c-1.5110783-1.2810445-1.4838744-1.3135128-1.9575684-1.251328z" fill-rule="evenodd"/></g></svg>