<svg height="16" width="16" xmlns="http://www.w3.org/2000/svg"><path d="m4.5 3.75-.9375.46875-1.65625.34375c-.5592407.0551397-.8404405.292989-1.03125.59375l-.4375 4.28125.34375 1.40625 2.40625.71875 1.1875.5625 3.59375.125h.0625l3.59375-.125 1.1875-.5625 2.40625-.71875.34375-1.40625-.4375-4.28125c-.190809-.300761-.472009-.5386098-1.03125-.59375l-1.65625-.34375-.9375-.46875-3.46875.09375h-.0625zm.09375 2h6.375v4.125h-6.375zm-2.59375.53125h1v1h1v1h-1v1h-1v-1h-1v-1h1zm11.96875 0c.383939 0 .6875.27231.6875.65625 0 .3839395-.303561.75-.6875.75-.383941 0-.71875-.3660605-.71875-.75 0-.38394.334809-.65625.71875-.65625zm-1.1875 1.3125c.383941 0 .6875.3035596.6875.6875 0 .3839395-.303559.6875-.6875.6875-.383939 0-.75-.3035605-.75-.6875 0-.3839404.366061-.6875.75-.6875z" fill="#bebebe"/></svg>