<svg height="16" width="16" xmlns="http://www.w3.org/2000/svg" xmlns:xlink="http://www.w3.org/1999/xlink"><filter id="a" color-interpolation-filters="sRGB"><feBlend in2="BackgroundImage" mode="darken"/></filter><g fill="#bebebe"><path d="m2 1c-.554 0-1 .446-1 1v12c0 .554.446 1 1 1h2.0625 7.9375 2c.1385 0 .255281-.04328.375-.09375.359156-.151406.625-.49075.625-.90625v-10.1961644l-3-2.8038356h-7.9375-.0625zm2.0625.96875h7.9375v.03125 5h-7.9375zm1.9375.03125v4h2v-4zm-4.1875 6.1328125h12.375v6.0996095h-12.375z" filter="url(#a)" transform="matrix(1.0372024 0 0 1.0372024 -.297619 -.297619)"/><path d="m4 9.625h8v1h-8z"/><path d="m4 11.625h8v1h-8z"/></g></svg>