<svg height="16" width="16" xmlns="http://www.w3.org/2000/svg"><g fill="#bebebe"><path d="m4.9453147 4.4570311-.015625 8.9794569c0 2.16645 1.365875 2.327184 3.0625 2.327184 1.6966251 0 3.0586993-.160737 3.0625003-2.327184l.01562-8.9794569zm.6621094.6868426h4.7968749l-.01367 8.2905943c-.0016.934258-.200483 1.177812-.5488278 1.373685-.3483448.195872-1.0215882.268676-1.8496095.268676-.8280215 0-1.5008209-.07272-1.8496094-.268676-.3484332-.195754-.5484232-.438204-.5488301-1.369645z" stroke-width="1.017007"/><path d="m5.3906272.236328v3.4791668h5.2187498v-3.4791668zm.8697743.8697917h.8697916v.8697917h-.8697916zm2.609375 0h.8697917v.8697917h-.8697917z" stroke-width=".869792"/></g></svg>