<svg height="16" width="16" xmlns="http://www.w3.org/2000/svg"><path d="m7.9888154 6.3647116c-.2521427.0003649-.5016454.013034-.7474976.037282-.00254.0002518-.00492.00161-.00746.00186-.1418661.0142254-.2821025.0393757-.4231435.0615185-.1019702.0160089-.2043342.0264533-.3057097.0466021-.155953.0309963-.3100191.0747809-.464157.1155732-.0879674.0233356-.1780093.0426039-.2646999.0689711-.1149276.0348775-.2276298.0788892-.3411274.1193014-.1279331.0457041-.2574602.0875728-.3821372.1398063-.0847586.0354118-.1660956.078836-.2497873.1174373-.1385191.0640651-.2780829.1256207-.4119626.1975929-.0974634.052323-.1914818.1146378-.2870689.1714957-.1211044.0721222-.2449782.1414489-.3616324.219962-.1501368.1010483-.2920236.2113094-.4343315.3224865-.0499119.0390141-.1018414.0732807-.1509909.1137091-.1912144.1572861-.3768282.3246116-.555497.5033028-.0031.0031-.00623.00622-.00932.00932-.00313.00315-.00619.00617-.00932.00932-.040468.04075-.07435.085333-.1137092.1267578-.1342519.1412956-.2663739.2838116-.3877303.4324683-.0710938.08716-.1340628.1799951-.2013211.2702922-.0776652.1042353-.1594915.2059943-.2311464.3131661-.0759667.1136459-.1425872.2344711-.2125056.3523121-.059503.1004-.1225858.199536-.177088.301981-.05727.107488-.1062444.219472-.1584471.329943-.05463.115903-.11184153.230629-.16031125.348584-.0417368.101313-.0762605.20599-.11370913.309438-.0476811.132136-.0977869.262982-.13794222.39705-.0321011.106908-.0563992.21739-.0838838.326215-.0327594.130014-.0692481.260207-.0950683.391457-.0267974.136265-.0439362.275066-.0633789.413827-.0150937.107468-.0342268.21458-.044738.322486-.018326.18954-.0237517.382665-.0279613.576002-.001306.05983-.009412.119112-.00932.178953.00036496.252142.0130335.501645.0372817.747497.00025189.0025.00161.0049.001864.0075.0142217.141869.0393719.282106.0615148.423147.0160089.10197.0264533.204334.0466021.305709.0309963.155953.0747809.31002.1155732.464157.0233356.08797.0426039.17801.0689711.2647.0348775.114928.0788892.22763.11930138.341128.0457041.127933.0875727.25746.1398063.382137.0354118.08476.078836.166096.11743732.249787.064065.138519.1256207.278083.1975929.411963.052323.09746.1146378.191481.1714957.287069.072122.121104.1414489.244978.219962.361633.1010483.150136.2113094.292023.3224865.434331.039014.04991.073281.101841.1137091.150991.1572861.191214.3246116.376828.5033028.555497.0031.0031.00622.0062.00932.0093.00315.0031.00617.0062.00932.0093.040751.04047.085333.07435.1267578.11371.1412948.134251.2838108.266373.4324675.387729.08716.07109.1799951.134062.2702922.201321.1042353.07766.2059943.159491.3131661.231147.1136459.07597.2344711.142587.3523119.212505.1004.0595.1995366.122585.3019816.177088.1074872.05727.2194711.106244.3299429.158448.1159025.05463.2306286.11184.3485836.16031.1013134.04174.2059897.07626.309438.11371.132136.04768.262982.09779.3970499.137942.1069083.0321.2173902.0564.3262148.08388.1300143.03276.260207.06925.3914577.09507.1362646.0268.2750654.04394.4138266.06338.1074684.01509.2145802.03423.3224865.04474.1895396.01833.3826646.02375.5760021.02796.059829.0013.1191119.0094.1789521.0093.2521427-.000364.5016454-.01303.7474976-.03728.00248-.000244.00498-.0016.00746-.0019.1418697-.01422.2821061-.03937.4231471-.06151.1019653-.01599.2051256-.02662.3057097-.0466.155953-.031.3100191-.07478.4641566-.115574.087968-.02333.1780099-.0426.2646999-.06897.114928-.03488.22763-.07889.341128-.119302.127933-.0457.25746-.08757.382137-.139807.08476-.03541.166096-.07884.249787-.117437.138519-.06407.278083-.125621.411963-.197593.09746-.05232.191481-.114637.287069-.171495.121104-.07212.244978-.141449.361633-.219962.0037-.0025.0075-.005.01118-.0075.197209-.133231.386905-.274422.57041-.425011.0013-.0011.0024-.0026.0037-.0037.191214-.157286.376828-.324612.555497-.503302.0062-.0062.01246-.01242.01864-.01864.04047-.04075.07435-.08533.11371-.126758.134251-.141295.266373-.283811.387729-.432468.07109-.08716.134062-.179995.201321-.270292.07766-.104235.159491-.205994.231147-.313166.07597-.113646.142587-.234471.212505-.352312.0595-.1004.122585-.199536.177088-.301982.05727-.107486.106244-.21947.158448-.329942.05463-.115903.11184-.230629.16031-.348584.04174-.101313.07626-.205989.11371-.309438.04768-.132136.09779-.262982.137942-.39705.0321-.106909.0564-.21739.08388-.326215.03276-.130014.06925-.260207.09507-.391457.0268-.136265.04394-.275066.06338-.413827.01509-.107468.03423-.21458.04474-.322486.01833-.18954.02375-.382665.02796-.576002.0013-.05983.0094-.119112.0093-.178953-.000364-.252142-.01303-.501645-.03728-.747497-.000252-.0025-.0016-.0049-.0019-.0075-.01422-.141869-.03937-.282106-.06151-.423147-.01541-.09823-.02562-.197578-.04474-.294525-.000728-.0037-.0011-.0075-.0019-.01118-.031-.155953-.07478-.31002-.115574-.464157-.02333-.08797-.0426-.17801-.06897-.2647-.03488-.114928-.07889-.22763-.119302-.341128-.0457-.127933-.08757-.25746-.139807-.382137-.03541-.08476-.07883-.166096-.117437-.249787-.06406-.138519-.125621-.278083-.197593-.411963-.05232-.09746-.114637-.191482-.171495-.287069-.07212-.1211041-.141449-.2449779-.219962-.3616321-.0025-.00369-.005-.0075-.0075-.011184-.133231-.1972089-.274422-.3869046-.425011-.5704098-.0011-.00134-.0026-.00238-.0037-.00373-.157286-.1912144-.324612-.3768282-.503302-.555497-.0062-.0062-.01242-.012463-.01864-.018641-.04075-.040468-.08533-.07435-.126758-.1137092-.141164-.1341515-.28368-.2662735-.432337-.3876299-.087159-.0710938-.179995-.1340628-.270292-.2013211-.104235-.0776652-.205994-.1594915-.313166-.2311464-.113646-.0759667-.234471-.1425872-.352312-.2125056-.1004-.0595031-.199536-.1225858-.301982-.177088-.107486-.0572699-.21947-.1062444-.329942-.1584471-.115903-.0546302-.230629-.1118415-.348584-.1603113-.101313-.0417368-.205989-.0762604-.309438-.1137091-.132136-.0476811-.262982-.0977869-.39705-.1379422-.106909-.0321011-.2173902-.0563992-.3262146-.0838838-.1300143-.0327594-.260207-.0692481-.3914577-.0950683-.1362646-.0267973-.2750654-.0439362-.4138266-.0633788-.1074684-.0150937-.2145802-.0342268-.3224865-.044738-.1895396-.018326-.3826646-.0237518-.5760021-.0279613-.0598293-.0013063-.1191119-.0094123-.1789521-.0093204zm-.022369.9581391c.8614171.00228 1.7229348.1745754 2.5426106.5107591l-1.045751 2.6190382c-.9039445-.370748-1.9577836-.37699-2.9303402.029825l-.00932-.02423c-.8958012.3759-1.6419021 1.111894-2.0430362 2.080318l-2.6544561-1.103541c.678069-1.6370023 1.9718638-2.9009724 3.6088668-3.5790412l.1696317.3989141-.177088-.4250113c.8173171-.3418791 1.6774654-.5093065 2.5388824-.5070309zm2.5985336.5033028c1.637003.678069 2.900973 1.9718638 3.579041 3.6088665l-.398914.169632.425012-.177088c.683759 1.634635.668668 3.442142-.0037 5.081493l-2.619039-1.045751c.370749-.903945.37699-1.957783-.02983-2.93034l.02423-.0093c-.375919-.895822-1.111913-1.641923-2.0803381-2.043057zm-2.56498 3.3106135c.033775 0 .065304.0082.098796.0093.1189338.0041.2363888.01655.3541761.03542.067863.01084.1351386.02176.201321.03728.1105711.02595.2187516.06142.3262148.10066.056118.02054.1133571.03762.1677675.06151.1146038.05023.2251021.112981.3336711.178952.044021.0268.091795.04737.134214.07643.1414986.09692.274736.206639.4007785.331807l.0075.0075c.132079.132079.251683.276734.35604.432467.05561.08301.09381.173814.139806.260972.03966.0749.08628.145033.119301.22369.04728.112808.07592.229843.108117.34672.0181.06543.04617.126647.05965.193864.03679.183347.05527.371034.05592.557362.000006.0019-.000003.0037 0 .0056.000059.03816-.0097.07557-.01118.113709-.0057.148937-.01591.29688-.04474.443652-.01589.08111-.04452.156374-.06711.234875-.02965.10344-.05541.207346-.09693.307573-.03388.08164-.08016.155393-.121165.233011-.04483.08511-.08394.172323-.137942.253515-.08333.125288-.181854.238226-.283341.348585-.0252.02741-.0425.05909-.06897.08575-.0012.0012-.0025.0025-.0037.0037-.0013.0013-.0025.0025-.0037.0037-.1320804.132079-.2767355.251683-.4324685.35604-.083007.05561-.1738136.09381-.2609719.139806-.074901.03966-.1450329.08628-.2236901.119301-.1128078.04728-.2298433.07592-.3467196.108117-.065426.0181-.1266478.04617-.1938647.05965-.1833461.03679-.3710337.05527-.5573612.05592-.04002.00014-.079304-.0097-.1193014-.01119-.1489367-.0057-.2968803-.01591-.443652-.04474-.081111-.01589-.1563741-.04452-.2348746-.06711-.1034403-.02965-.2073461-.0554-.3075738-.09693-.081637-.03388-.1553928-.08016-.2330105-.121165-.085114-.04483-.1723228-.08394-.2535155-.137942-.1252874-.08333-.2382257-.181854-.3485837-.283341-.027415-.0252-.059094-.0425-.085748-.06897-.00127-.0013-.00246-.0025-.00373-.0037-.00124-.0012-.00249-.0025-.00373-.0037-.1320793-.13208-.2516828-.276735-.35604-.432468-.055608-.08301-.093811-.173814-.1398063-.260972-.039659-.0749-.08628-.145033-.1193014-.22369-.047277-.112808-.075921-.229843-.1081168-.34672-.018099-.06543-.046169-.126647-.059651-.193864-.036788-.183347-.055274-.371034-.055923-.557362-.0000107-.0031.0000008-.0062 0-.0093 0-.03763.00977-.07266.011185-.109981.00569-.148937.015916-.29688.044738-.443652.00153-.0078.0002682-.01643.00186-.02423.034348-.167855.083065-.330797.1453985-.486526.00562-.01405.014658-.02704.020505-.04101.062444-.148944.1380304-.290132.2236901-.425011.027304-.04305.059649-.08304.089476-.124894.07681-.107705.1591387-.209816.2497873-.305709.01669-.01767.027513-.03858.044738-.05592.025042-.02522.054407-.04297.080156-.06711.089237-.08355.1839628-.159459.2833408-.231146.0297-.02149.055447-.05068.085748-.07084.02204-.01466.04662-.0233.068971-.03728.078731-.04926.1605761-.09265.2441951-.134214.066177-.03285.1314292-.06579.1994569-.09321.075266-.03041.1528637-.05424.2311465-.07829.081118-.02483.1615626-.04778.244195-.06524.07178-.01521.1444433-.02569.2180979-.03542.093781-.01237.1870687-.02115.2814766-.02423.032197-.0011.062611-.0093.095068-.0093zm-6.1663902.354176 2.6190382 1.045751c-.3707478.903945-.3769907 1.957783.029825 2.93034l-.024233.0093c.3758997.895801 1.1118934 1.641902 2.0803179 2.043036l-1.1035376 2.654477c-1.6370026-.678069-2.9009727-1.971864-3.5790415-3.608867l.3989141-.169632-.4250113.177088c-.6837584-1.634635-.6686392-3.442141.00373-5.081493zm6.0936909.605827c-.058112.0022-.1148305.0095-.1714957.01678-.0512.0066-.1022267.01347-.1528549.02423-.055093.01174-.1089559.02649-.1621753.04287-.049935.01531-.100341.03084-.1491268.05033-.052998.02128-.104197.04692-.154719.0727-.0459.02333-.091802.04729-.1360781.07456-.044297.02737-.084963.05868-.1267577.08948-.053761.03941-.1062991.081-.1565831.126758-.039612.03621-.079132.07245-.1155732.111845-.055072.05952-.1030349.123886-.1491267.188272-.019889.0278-.043107.05314-.061515.08202-.057754.09059-.1063051.184401-.1472627.281476-.00483.01146-.012176.02202-.016777.03355-.04351.109063-.076207.221625-.098796.335535-.019687.09905-.026055.201905-.029825.30571-.0007972.02246-.00745.04464-.00746.06711 0 .0013-.0000025.0025 0 .0037.0000019.0012-.0000043.0025 0 .0037.0005005.128494.014443.253365.039146.374681.00246.0121.00663.0234.00932.03542.024226.108145.055212.214679.096933.31503.041373.09977.095703.194105.1547189.287069.0077.01213.012502.02529.020505.03728.054992.08242.1209605.160004.1901365.234874.017111.01852.030642.03996.048466.05779.031587.03159.068797.05643.1025247.08575.063466.05515.12722.111217.1957288.156583.024703.01633.052803.02768.078292.04287.082738.04929.1657477.09667.2535154.13235.045935.01872.095895.02958.1435344.04474.067409.02134.1342223.04597.2031852.05965.099086.01967.201746.02614.3057098.02983.02493.000885.049621.0075.074563.0075.1284936-.0005.253365-.01444.3746809-.03915.00058-.000118.00128.000119.00186 0 .011498-.0024.022131-.0068.033553-.0093.1081457-.02423.2146789-.05521.3150302-.09693.09977-.04137.1941046-.09571.287069-.154719.011219-.0071.02436-.0113.035418-.01864.0007158-.000476.00115-.0014.00186-.0019.082419-.05499.1600038-.120964.2348746-.190137.018514-.01711.039963-.03064.057787-.04847.031587-.03159.056427-.0688.085748-.102525.055146-.06347.1112169-.12722.1565832-.195729.016332-.0247.027678-.0528.042874-.07829.049294-.08274.096668-.165748.13235-.253516.018717-.04594.029578-.0959.044738-.143534.021343-.06741.045975-.134222.059651-.203185.01967-.09909.026139-.201746.029825-.30571.0008849-.02493.00754-.04962.00746-.07456-.0005005-.128494-.014443-.253365-.039146-.374681-.0001182-.00058.0001186-.0013 0-.0019-.00235-.0115-.00676-.02213-.00932-.03355-.024226-.108145-.055212-.214679-.096932-.31503-.041373-.09977-.095703-.194105-.1547189-.287069-.00712-.01122-.011295-.02436-.018641-.03542-.0004762-.000715-.00139-.0011-.00186-.0019-.054992-.08242-.1209605-.160003-.1901365-.234874-.017111-.01852-.030642-.03996-.048466-.05779-.084496-.0845-.1768166-.15989-.2758845-.227418-.022056-.01504-.046443-.02514-.068971-.03915-.075508-.047-.1528077-.09236-.2348746-.128622-.043085-.01898-.088249-.03097-.1323499-.0466-.065147-.0232-.131265-.04541-.199457-.06151-.048287-.01134-.096521-.01856-.1453986-.0261-.069906-.01086-.1403071-.01932-.2125056-.02237-.050919-.0021-.1019337-.0038-.1528549-.0019zm.0726993.948819c.021135 0 .038858.0098.059651.01118.084946.0053.1665555.02243.2479232.05033.031473.01088.063322.01771.093204.03169.097637.04537.1914078.104354.2721562.184544.0006113.000609.00125.0013.00186.0019.087692.08769.15855.193133.2069134.309438.048016.115817.07227.238172.072699.361632.0000024.000636-.0000013.0012 0 .0019.0000418.02657-.012749.05179-.014913.07829-.00791.09685-.020402.193925-.057787.285205-.042335.102906-.1072405.192862-.1808162.274021-.010239.01134-.013353.02632-.024233.03728-.0002449.000247-.00162-.000246-.00186 0-.0002542.000255.0002544.0016 0 .0019-.087692.08769-.1931331.15855-.3094379.206914-.1158176.04801-.2381728.07227-.3616324.0727-.027181.000094-.053046-.0127-.080156-.01491-.096852-.0079-.1939251-.0204-.2852049-.05779-.1029062-.04233-.1928611-.107241-.2740204-.180816-.011339-.01024-.026326-.01335-.037282-.02423-.0006381-.000634-.00123-.0012-.00186-.0019-.087692-.08769-.15855-.193133-.2069134-.309438-.048016-.115817-.07227-.238172-.072699-.361632-.0000021-.00061.000001-.0013 0-.0019-.0000012-.000636 0-.0012 0-.0019.0000087-.02596.012799-.05054.014913-.07643.00791-.09685.020402-.193925.057787-.285205.00119-.0029.0006509-.0065.00186-.0093.043188-.102108.1085678-.189935.1826802-.270292.00877-.0096.01127-.02239.020505-.03169.016155-.01627.037095-.02243.054058-.03728.061028-.05353.1280471-.09748.2013211-.134214.020632-.01028.036569-.03046.057787-.03915.014364-.0059.030157-.006.044738-.01118.041434-.01484.084775-.02265.1286218-.03169.047197-.0096.093724-.01809.1416705-.0205.016697-.000871.031554-.0075.048466-.0075zm3.519391 2.415853 2.654456 1.103538c-.678069 1.637003-1.971864 2.900973-3.608867 3.579041l-.169632-.398914.177088.425012c-1.6346348.683759-3.4421421.668668-5.0814931-.0037l1.0457511-2.619067c.9039445.370749 1.9577836.37699 2.9303402-.02982l.00932.02423c.8958018-.375899 1.6419028-1.111893 2.0430368-2.080318z" fill="#bebebe" transform="translate(0 -6)"/></svg>