<svg height="16" width="16" xmlns="http://www.w3.org/2000/svg"><g fill="#bebebe"><path d="m7.9882812.36523438c-.2521427.0003649-.5002415.01286137-.7460937.03710937-.00254.0002518-.0052725.00170313-.0078125.00195313-.1418661.01422539-.2827871.03840407-.4238281.06054687-.1019702.0160089-.203312.0267262-.3046875.046875-.155953.0309963-.3107059.07444208-.4648438.11523437-.0879674.02333561-.1789344.0439453-.265625.0703125-.1149276.03487751-.2263461.07872843-.3398437.11914063-.1279331.0457041-.2581355.08643838-.3828125.13867187-.0847586.0354118-.1663083.07858618-.25.11718748-.1385191.0640651-.2782297.1272466-.4121094.1992188-.0974634.052323-.1915223.1130639-.2871094.1699218-.1211044.0721222-.2446739.1421901-.3613281.2207032-.1501368.1010483-.2912858.2110885-.4335937.3222656-.0499119.0390141-.1031943.0728529-.1523438.1132812-.1912144.1572862-.3760187.3252151-.5546875.5039063-.0031.0031-.0066756.0066656-.0097656.0097656-.00313.00315-.0066357.0066156-.0097657.0097657-.040468.0407499-.073922.0835752-.1132812.125-.1342519.1412955-.2653624.284937-.3867188.4335937-.0710937.08716-.1339135.1792342-.2011718.2695313-.0776652.1042353-.160767.2072813-.2324219.3144531-.0759667.1136459-.1410191.2337215-.2109375.3515625-.059503.1004-.1232322.2002894-.1777344.3027344-.05727.107488-.1060004.2196071-.1582031.3300781-.05463.115903-.11168653.2297012-.16015625.3476562-.0417368.101313-.07778575.2051458-.11523437.3085938-.04768111.132136-.09656343.2643695-.13671876.3984375-.03210109.106908-.05649977.2173469-.08398437.3261718-.0327594.130014-.06988292.259375-.09570313.390625-.02679739.136265-.0430573.2753016-.0625.4140626-.01509369.107468-.03441067.2143596-.04492187.3222656-.018326.18954-.02313415.3828348-.02734375.5761718-.001306.05983-.00985762.1198465-.00976562.1796876.00036496.2521419.01286117.5002417.03710937.7460937.00025189.0025.00169913.0052125.00195313.0078125.0142217.141869.03840397.2827871.06054687.4238281.0160089.10197.0267262.2033125.046875.3046875.0309963.155953.07444207.3107068.11523437.4648438.02333561.0879696.04394531.1789346.0703125.2656246.03487751.114928.07872845.226346.11914063.339844.0457041.127933.08643828.258136.13867187.382813.0354118.08476.07858618.166309.11718748.25.064065.138519.1272466.278229.1992188.412109.052323.09746.1130639.191521.1699218.287109.0721221.121104.1421901.244674.2207032.361328.1010483.150136.2110885.291286.3222656.433594.039014.04991.0728531.103194.1132812.152344.1572861.191214.3252151.376018.5039063.554688.0031.003099.0066656.006665.0097656.009765.00315.0031.0066156.006666.0097657.009766.040751.04047.0835751.073921.125.113281.1412947.134251.284937.265363.4335937.386719.08716.07109.1792342.133913.2695313.201172.1042353.07766.2072813.160766.3144531.232421.1136459.075971.2337217.14102.3515625.210938.1004.0595.2002893.123231.3027344.177734.1074871.05727.2196063.106.3300781.158204.1159025.054629.2297012.111686.3476562.160156.1013134.04174.2051455.077784.3085938.115234.132136.04768.2643696.096567.3984375.136719.1069083.0321.2173472.056504.3261718.083984.1300144.03276.2593743.069883.390625.095703.1362646.0268.2753014.04306.4140626.0625.1074684.01509.2143593.034412.3222656.044922.1895396.01833.3828343.023134.5761718.027344.059829.0013.1198474.009866.1796876.009766.2521427-.000364.5002415-.01286.7460937-.03711.00248-.000244.0053325-.001653.0078125-.001953.1418697-.01422.2827871-.038407.4238281-.060547.1019653-.01599.2041034-.026895.3046875-.046875.155953-.031.3107063-.07444.4648438-.115234.0879676-.02333.1789346-.043943.2656246-.070313.114928-.03488.226346-.078728.339844-.11914.127933-.0457.258136-.086435.382813-.138672.08476-.03541.166309-.078591.25-.117188.138519-.06407.278229-.127246.412109-.199218.09746-.05232.191521-.113064.287109-.169922.121104-.07212.244673-.14219.361328-.220703.003701-.0025.008039-.005313.011719-.007813.197209-.133231.386808-.273239.570313-.423828.0013-.0011.002606-.002806.003906-.003906.191214-.157286.376019-.325216.554688-.503906.006199-.0062.013351-.013312.019531-.019532.04047-.04075.073921-.083572.113281-.125.134251-.141295.265363-.284936.386719-.433594.07109-.08716.133913-.179234.201172-.269531.07766-.104235.160765-.207281.232421-.314453.07597-.113646.14102-.233721.210938-.351562.0595-.1004.123231-.200289.177734-.302735.05727-.107486.106-.219606.158204-.330078.054629-.115903.111686-.229701.160156-.347656.04174-.101313.077784-.205145.115234-.308594.04768-.132136.096567-.264369.136719-.398437.0321-.106909.056504-.2173472.083984-.3261722.03276-.130014.069883-.2593751.095703-.390625.0268-.136265.04306-.2753015.0625-.4140626.01509-.107468.034412-.2143596.044922-.3222656.01833-.18954.023134-.3828349.027344-.5761718.0013-.05983.009866-.1198466.009766-.1796876-.000364-.2521419-.01286-.5002417-.03711-.7460937-.000252-.0025-.001653-.0052125-.001953-.0078125-.01422-.141869-.038407-.2827871-.060547-.4238281-.01541-.09823-.025802-.1979749-.044922-.2949219-.000728-.0037-.001153-.0060856-.001953-.0097656-.031-.155953-.07444-.3107068-.115234-.4648438-.02333-.08797-.043943-.178935-.070313-.265625-.03488-.114928-.078728-.2263457-.11914-.3398437-.0457-.127933-.086435-.2581355-.138672-.3828125-.03541-.08476-.078581-.166309-.117188-.25-.014913-.0322484-.032069-.0634264-.046875-.0957032l-.089843 2.421875-.017578.8535157a.813253.813253 0 0 1 -.00586.0800781l-.019531.1660156a.813253.813253 0 0 1 -.003906.0351563c-.01706.105105-.042039.203459-.070313.296875h.001953c-.009836.0325124-.027992.0547457-.039062.0859375-.067293.6320811-.223176 1.2597649-.470703 1.8632816l-.806641-.322266c-.011812.007865-.023182.015643-.035156.023438l.849609.353515c-.678069 1.637003-1.972372 2.90201-3.609375 3.580078l-.169922-.40039.177735.425781c-1.6346352.683759-3.4426806.668462-5.0820316-.003906l1.046875-2.619141c.9039445.370749 1.9571309.377513 2.9296875-.029297l.0097656.023438c.3181772-.133515.6072505-.326271.8789065-.544922-.041524-.001193-.083675.004226-.125.001953-.4850187-.026688-.9271035-.139046-1.3378909-.292969-.0445636.012535-.0880491.030637-.1328125.042969-.065426.0181-.1261424.045114-.1933594.058594-.183346.03679-.3703131.05599-.5566406.05664-.04002.00014-.0791432-.010229-.1191406-.011719-.1489367-.0057-.2965877-.016091-.4433594-.044921-.081111-.01589-.1578276-.043817-.2363281-.066407-.1034403-.02965-.2064129-.056126-.3066406-.097656-.081637-.03388-.1548042-.080089-.2324219-.121094-.085114-.04483-.1727136-.082716-.2539062-.136718-.1252874-.08333-.2392514-.181717-.3496094-.283204-.027415-.0252-.0592835-.043842-.0859375-.070312-.00127-.0013-.0026363-.002706-.0039063-.003906 0 0-.0019531-.001953-.0019531-.001953-.1320793-.1320804-.2530647-.2778611-.3574219-.4335941-.055608-.08301-.0926765-.1745608-.1386718-.2617188-.0396591-.0749-.0861193-.1439992-.1191407-.2226562-.047277-.112808-.0771792-.2307793-.109375-.3476563-.018099-.06543-.0451117-.1261424-.0585937-.1933594-.036788-.183347-.0559916-.3703126-.0566406-.5566406-.0000107-.0031.0000007-.0066656 0-.0097656 0-.03763.0103037-.072054.0117187-.109375.00569-.148937.0160999-.2965874.0449219-.4433594.00153-.0078.0003613-.0175906.0019531-.0253906.034348-.167855.0821977-.3305991.1445313-.4863281.00562-.01405.0156373-.0270456.0214843-.0410157.062444-.148944.1369966-.2909022.2226563-.4257812.027304-.04305.0600167-.0811929.0898437-.1230469.07681-.107705.1593514-.2107476.25-.3066406.01669-.01767.0276969-.0393006.0449219-.0566406.025042-.02522.0543291-.0422663.0800781-.0664063.089237-.08355.1838251-.1587817.2832031-.2304687.0297001-.02149.0556366-.0521056.0859376-.0722657.0220399-.0146599.0460083-.0231293.0683593-.0371093.078731-.04926.1605217-.0912485.2441407-.1328125.0661769-.03285.131191-.06633.1992187-.09375.075266-.03041.1541391-.054075.2324219-.078125.081118-.02483.1615082-.0489463.2441406-.0664063.07178-.01521.1431423-.0254262.2167969-.0351562.093781-.01237.1868421-.0203575.28125-.0234375.032197-.0011.0632461-.0097656.0957031-.0097656.033775 0 .0661174.0086656.0996094.0097656.1189338.0041.2357283.0162862.3535156.0351562.067863.01084.1349895.0215894.2011719.0371094.1105711.02595.2187086.0623225.3261719.1015625.0561179.02054.1135583.0366569.1679687.0605469.1146038.05023.2254154.1137165.3339844.1796875.0259111.0157747.0514707.0304622.078125.0449219.0670187-.0212864.134606-.0515318.2011719-.0703126.2201082-.062165.4539952-.1145176.6972652-.1503906a.813253.813253 0 0 0 .001954 0c.004135-.000599.030978-.0061147.072265-.0117187.044097-.005943.076747-.0075026.095703-.0097657a.813253.813253 0 0 1 .003906-.0019531c.03469-.0039584.078496-.0078484.119141-.0117187-.357865-.3625453-.7926388-.6627067-1.2910155-.8691406l1.1035155-2.6542969c.557084.2307515 1.067004.5377662 1.529297.9003906v-.3867187-.7773438c-.069968-.0418508-.138992-.0834717-.208984-.125-.1004-.0595031-.200289-.1232322-.302735-.1777344-.107486-.0572699-.219606-.1060004-.330078-.1582031-.115903-.0546302-.229701-.11168645-.347656-.16015625-.101313-.0417368-.205145-.07778567-.308594-.11523437-.132136-.04768111-.264369-.09656346-.398437-.13671876-.106909-.0321011-.2173479-.05649977-.3261722-.08398437-.1300144-.0327594-.2593744-.06988292-.390625-.09570313-.1362647-.0267973-.2753013-.04305739-.4140626-.0625-.1074684-.01509369-.2143593-.03441067-.3222656-.04492187-.1895396-.018326-.3828343-.02313425-.5761718-.02734375-.0598294-.0013063-.1198473-.00985752-.1796876-.00976562zm-.0214843.95703122c.8614171.00228 1.7232929.1755351 2.5429691.5117188l-1.0468754 2.6191406c-.9039445-.370748-1.9571309-.3775181-2.9296875.0292969l-.0097656-.0234375c-.8958012.3759-1.6418347 1.1116541-2.0429687 2.0800781l-2.6542969-1.1035156c.678069-1.6370023 1.972372-2.9020094 3.609375-3.5800781l.1699219.4003906-.1777344-.4257813c.8173171-.3418791 1.6776455-.5100881 2.5390625-.5078125zm-6.1328125 4.1679688 2.6191406 1.046875c-.3707478.903945-.3775188 1.9571305.0292969 2.9296875l-.0234375.0097656c.3758997.8958005 1.1116536 1.6418345 2.0800781 2.0429685l-1.1035156 2.654297c-1.6370026-.678069-2.9020093-1.972372-3.5800781-3.609375l.4003906-.169922-.4257813.177735c-.6837584-1.6346354-.6684629-3.4426796.0039063-5.0820316zm6.09375.6054687v.0019531c-.058112.0022001-.1152098.0083451-.171875.015625-.0512.0066001-.1017156.0146307-.1523438.0253907-.055093.01174-.10889.0246356-.1621094.0410156-.0499349.01531-.1016048.0312912-.1503906.0507813-.052998.02128-.1037749.0464856-.1542968.0722656-.0459.02333-.0924427.0489019-.1367188.0761718-.044297.02737-.0832053.0570907-.125.0878907-.053761.03941-.1079191.0811951-.1582031.1269531-.039612.03621-.0787932.0738863-.1152344.1132812-.055072.05952-.1023457.1231141-.1484375.1875-.019889.0278-.044092.0531513-.0625.0820313-.057754.09059-.1055268.184175-.1464844.28125-.00483.01146-.0129771.0216731-.0175781.0332031-.04351.109063-.0750672.2220275-.0976563.3359375-.019687.09905-.0255268.2028357-.0292968.3066407-.0007972.02246-.0078025.0439362-.0078125.0664062 0 .0013-.0000025.0027062 0 .0039062.0000019.0012001-.0000043.0027063 0 .0039063.0005005.128494.0143595.253684.0390625.375.00246.0121.0051225.0231363.0078125.0351563.024226.108145.0559352.2141021.0976562.3144531.041373.09977.095281.1941454.1542969.2871093.0077.0121301.0134814.0251194.0214844.0371094.054992.08242.1202771.159505.1894531.234375.017111.01852.0310041.0407638.0488281.0585938.031587.03159.0678348.0566175.1015625.0859375.063466.05515.1287568.110884.1972657.15625.0247029.01633.052636.0277787.078125.0429687.0827379.04929.1661385.0971325.2539062.1328125.045935.01872.0949387.0297619.1425781.0449219.0498721.0157882.100059.0293455.1503907.0429688-.1193822-.1353836-.2441517-.2953707-.3457032-.5-.0600248-.1209851-.0940754-.2272137-.1191406-.3066407-.0331185-.103318-.0582524-.210962-.0742188-.3125-.0146342-.092439-.0273437-.204001-.0273437-.328125 0-.1272914.0191897-.2557408.0410156-.3828125-.0001923-.0072978-.0038808-.0141776-.0039062-.0214844v-.0019531-.0019531c.0000085-.0253212.0130644-.0490271.015625-.0742188.0001386-.0006373-.0001392-.0013158 0-.0019531.000052-.0006365-.0000524-.0013166 0-.0019531.0003078-.0014035.0016426-.0025031.0019531-.0039062.0079412-.0948165.0200432-.1899398.0566406-.2792969.00119-.0029.0007441-.0069657.0019532-.0097657.0181388-.0428851.0512009-.0749297.0761718-.1132812.0087461-.0204333.0121175-.0422943.0214844-.0625.0647221-.14075.0877694-.166126.0507812-.09375a.813253.813253 0 0 1 .0019532-.0039062c.0812092-.1571161.176983-.3016871.2832031-.4375.0548104-.0700911.1225866-.1561098.2089844-.2460938.0706313-.073848.1470692-.1459219.2285156-.2167969.1336857-.1162041.2787768-.2158173.4257813-.3125-.0417334-.0089054-.0827549-.0149675-.125-.0214843-.069906-.01086-.1406922-.0203876-.2128907-.0234376-.050919-.0021-.1014225-.0038531-.1523437-.0019531z"/><path d="m12.90625 0v.8359375 1.5039063 4.0136718l.101562.1835938c-.071979-.03902-.142498-.075531-.220703-.109375-.0745-.03257-.148737-.0564044-.228515-.0839844-.159551-.05514-.325866-.1031858-.503906-.1367188-.17804-.03353-.367499-.0546831-.560547-.0644531-.192991-.0097-.391129-.0065344-.595703.0097657-.057471.0045-.117125.0111081-.173829.0175781-.02763.0033-.054581.0060656-.082031.0097656-.02083.0028-.043733.0067656-.064453.0097656-.203445.03-.405822.0733252-.5957031.1269531-.192388.0542801-.3746562.1178014-.5488281.1933594-.0872601.03787-.1758718.0765177-.2578126.1191406-.081758.04252-.1623722.0898018-.2382812.1367188-.1496617.09289-.28821.1950374-.4121094.3027344-.062663.05453-.1185624.1082316-.1738281.1660156-.057116.05933-.1074891.1212387-.15625.1835938-.077749.09941-.1465088.2047898-.2011719.3105468-.011008.02154-.0271033.0426932-.0371094.0644532-.0923569.1982239-.1367187.4025142-.1367187.6132812 0 .06942.0070051.13634.0175781.203125.010444.0668.026397.1275223.046875.1914062.021029.06674.0408916.1301224.0722656.1933594.0601641.121232.1432532.2313566.2382813.3378906.047519.05326.1007995.107107.15625.15625.1109012.0983001.2355184.1855911.375.265625.06955.0401001.1350312.0742911.2109375.109375.3827613.1780668.8326297.2944638 1.337891.3222658.200118.01101.411097.007034.623047-.009766.692662-.05473 1.332099-.254682 1.84375-.550781.146328-.08426.278162-.1751855.402343-.2734375.06022-.04787.119396-.105527.173828-.15625.02875-.0268.054992-.0544813.082032-.0820313.02555-.0260099.059994-.0475987.083984-.0742187.0014-.0017-.0014-.0078656 0-.0097656.09861-.110068.176176-.2188857.246094-.3378907.06992-.119002.128074-.2417815.166015-.3671874.01898-.06271.034562-.1275783.044922-.1914063l.019532-.1660156.017578-.8613281.183593-4.9042969v-.0722657l.320313-.0371093 1.517578-.2441407v-1.8476562z"/></g></svg>