<svg height="16" width="16" xmlns="http://www.w3.org/2000/svg"><g fill="#bebebe"><path d="m5 4.0208332-.015625 9.6276048c0 2.166449 1.319 2.351562 3.015625 2.351562 1.6966251 0 2.980574-.185115 2.984375-2.351562l.015625-9.6276048zm.9980469 1h4l-.0136719 8.6256508c-.001554.885724-.1503834 1.000852-.3691406 1.13086-.2187573.130008-.8032911.222656-1.6152344.222656-.8119436 0-1.4092318-.092291-1.6386719-.226562-.2290819-.134063-.3764944-.246537-.3769531-1.123047z" stroke-width="1.017007"/><path d="m5 0v3h6v-3zm1 1h1v1h-1zm3 0h1v1h-1z" stroke-width=".869792"/></g></svg>