<svg height="16" width="16" xmlns="http://www.w3.org/2000/svg"><g fill="#bebebe" transform="translate(-161.0002 -567)"><path d="m4.1835938 0c-1.7978301.00001-3.1523438 1.33801-3.1523438 3v10c0 1.662 1.3545036 3 3.1523438 3h7.5703122c1.79783-.00001 3.246094-1.33801 3.246094-3v-6.5898438l-1 1.4550782v6.1347656h-12v-11c0-1.108.892-2 2-2h8c.140021 0 .276446.015842.408203.042969l.597656-.792969c-.38069-.14431-.813733-.25-1.251953-.25z" transform="translate(161.0002 567)"/><path d="m175.04053 568.03103s-2.51922 3.50643-4.04033 5.96897l-1.40567 1.1673.0373 1.57392-.76313 1.24524.69536-.001.74028-.58334 1.67496-.4626.5949-1.48097 4.18505-6.36462z"/></g></svg>