<svg height="16" viewBox="0 0 4.2333332 4.2333335" width="16" xmlns="http://www.w3.org/2000/svg"><g fill="#bebebe"><path d="m4 0v2.5 1.5 10c0 1.108.8920001 2 2 2h5c1.108 0 2-.892 2-2v-10c0-1.1079999-.892-2-2-2h-6v-2zm1.0000001 3h5.9999999c.554 0 1 .446 1 1v10c0 .554-.446 1-1 1h-5c-.5539998 0-1-.446-1-1z" transform="scale(.26458333)"/><path d="m1.5875 1.058333h1.322917v1.058333h-1.322917z"/><path d="m1.5875 2.38125h.264583v.264583h-.264583z"/><path d="m2.116667 2.38125h.264583v.264583h-.264583z"/><path d="m2.645833 2.38125h.264583v.264583h-.264583z"/><path d="m1.5875 2.910417h.264583v.264583h-.264583z"/><path d="m2.116667 2.910417h.264583v.264583h-.264583z"/><path d="m2.645833 2.910417h.264583v.264583h-.264583z"/><path d="m1.5875 3.439583h.264583v.264583h-.264583z"/><path d="m2.116667 3.439583h.264583v.264583h-.264583z"/><path d="m2.645833 3.439583h.264583v.264583h-.264583z"/></g></svg>