<svg height="16" width="16" xmlns="http://www.w3.org/2000/svg" xmlns:xlink="http://www.w3.org/1999/xlink"><filter id="a" color-interpolation-filters="sRGB"><feBlend in2="BackgroundImage" mode="darken"/></filter><g enable-background="new" fill="#bebebe" filter="url(#a)" transform="translate(-461 83)"><path d="m466-82c-1 0-1 1-1 1v12s0 1 1 1h6c1 0 1-1 1-1v-12s0-1-1-1zm1.90625.75c.0104-.00065.0208-.00065.0312 0 .0207-.003.0418-.003.0625 0h2c.0104-.00065.0208-.00065.0312 0 .0329.004.065.0147.0937.0312.0113.009.0218.0199.0312.0312.0434.0303.0768.0748.0937.125.00065.0104.00065.0208 0 .0312.003.0207.003.0418 0 .0625-.004.0329-.0147.065-.0312.0937-.009.0113-.0199.0218-.0312.0312-.0303.0434-.0748.0768-.125.0937-.0207.003-.0418.003-.0625 0h-2c-.0104.00065-.0208.00065-.0312 0-.0329-.004-.065-.0147-.0937-.0312-.0113-.009-.0218-.0199-.0312-.0312-.0434-.0303-.0768-.0748-.0937-.125-.00065-.0104-.00065-.0208 0-.0312-.003-.0207-.003-.0418 0-.0625.004-.0329.0147-.065.0312-.0937.009-.0113.0199-.0218.0312-.0312.0221-.0389.0549-.0716.0937-.0937zm-1.96875 1.25h6.0625l.0625 10h-6.0625zm3.0625 10.5c.27614 0 .5.22386.5.5s-.22386.5-.5.5-.5-.22386-.5-.5.22386-.5.5-.5z" fill="#bebebe"/></g></svg>