<svg height="16" viewBox="0 0 4.2333332 4.2333335" width="16" xmlns="http://www.w3.org/2000/svg"><g fill="#bebebe" transform="translate(0 -292.76665)"><path d="m3.1553236 296.44125c0 .11383-.010294.20399-.038796.27992-.028501.0759-.080054.13666-.1452106.17261-.1303138.0719-.2896795.0642-.5074762.0668h-.0005061-.6933427-.0005063c-.2177966-.003-.3771623.005-.5074761-.0668-.065157-.036-.1167088-.0967-.1452106-.17261-.028502-.0759-.038796-.16609-.038796-.27992v-3.11589h1.3853324.0005064c.2177966.003.3771623-.005.5074761.0668.065157.0359.1167092.0967.1452106.17261.028501.0759.038796.16609.038796.27992v2.59653zm-.1731875 0v-2.59653c0-.10255-.010832-.17409-.027724-.21908-.016891-.045-.03503-.0644-.066773-.082-.063368-.035-.2067778-.0427-.4248125-.0452h-1.2116377v2.94277c0 .10255.010832.17409.027724.21908.016891.045.03503.0644.066773.082.063378.035.2067207.0427.4248125.0452h.0009304.6903839.00101c.2180347-.003.3614442-.0102.4248125-.0452.031744-.0175.049882-.037.066773-.082s.027724-.11653.027724-.21908z"/><path d="m1.0780476 292.84934.1731032-.0433v1.25499h-.1731032z"/><path d="m1.510805 293.93124h1.211722v1.038619h-1.211722z"/><path d="m1.510805 295.22952h.259655v.259655h-.259655z"/><path d="m1.986839 295.22952h.259655v.259655h-.259655z"/><path d="m2.462873 295.22952h.259655v.259655h-.259655z"/><path d="m2.462873 295.70554h.259655v.259655h-.259655z"/><path d="m1.986839 295.70554h.259655v.259655h-.259655z"/><path d="m1.510805 295.70554h.259655v.259655h-.259655z"/><path d="m1.510805 296.18158h.259655v.259655h-.259655z"/><path d="m1.986839 296.18158h.259655v.259655h-.259655z"/><path d="m2.462873 296.18158h.259655v.259655h-.259655z"/></g></svg>