<svg height="16" width="16" xmlns="http://www.w3.org/2000/svg"><g fill="#bebebe"><g transform="translate(-.001538 -1.238281)"><path d="m4.46875 1.2382812v5.5429688h.7089844v-4.8652344h5.6445316v4.8652344h.677734v-5.5429688z" stroke-width="1.056329"/><path d="m2.65625 5.75-.125.34375h-.46875c-.4294694.4522647-.6352799.8914838-.8125 1.34375-.1625648 2.0729246-.1625648 2.95844 0 5.03125h.21875 1.8125v-1.28125c0-.06541.012822-.129403.03125-.1875v-.09375c0-.264852.229098-.5.5-.5h8.34375c.2709 0 .5.235148.5.5v.09375c.0185.05809.03125.122041.03125.1875v1.28125h1.8125.21875c.162677-2.07281.162677-2.9583254 0-5.03125-.208087-.425576-.337074-.7975356-.8125-1.34375h-.46875l-.125-.34375h-1.0625l.09375.34375h-.40625v.90625h-7.90625v-.90625h-.4375l.0625-.34375zm.2558594.3652344h.3164062a.36580844.36580844 0 0 0 .3652344.34375h.072266v.5410156a.36580844.36580844 0 0 0 .365234.3652344h7.90625a.36580844.36580844 0 0 0 .365234-.3652344v-.5410156h.04102a.36580844.36580844 0 0 0 .365234-.34375h.347657l.037105.1035156a.36580844.36580844 0 0 0 .34375.2402344h.267578c.325586.4054692.472827.7098341.652344 1.0839844.144057 1.8599141.1422 2.8079802.01367 4.5605472h-1.31836v-.507813c.08587.04144.151851.113281.259766.113281.410962 0 .677734-.341562.677734-.708984 0-.164141-.07832-.306898-.179687-.425781.19289-.152475.335937-.3578.335937-.605469 0-.4098035-.329348-.8027344-.771484-.8027344-.441815.0002955-.802734.3608039-.802734.8027344 0 .115065.07901.195745.123046.294922-.14958-.124755-.327049-.222656-.53906-.222656h-8.34375c-.4825665 0-.8652344.389453-.8652344.865234v.08203c-.014331.06317-.03125.123745-.03125.199219v.916016h-1.3164062c-.1287215-1.756381-.1331325-2.7021185.0117187-4.5703119.1509434-.3809701.3404583-.7196691.6484375-1.0742187h.2714844a.36580844.36580844 0 0 0 .34375-.2402344zm10.4628906 3.4160156c.238663 0 .40625.1991469.40625.4375 0 .238667-.167587.4375-.40625.4375-.23851 0-.4375-.198833-.4375-.4375 0-.2383531.19899-.4373405.4375-.4375zm-.0625 1.15625c.174437 0 .3125.138177.3125.3125 0 .174551-.138061.34375-.3125.34375-.174436 0-.3125-.169199-.3125-.34375 0-.174323.138064-.312615.3125-.3125zm-12.125 1.8125.1875.84375c.012532.07898.058638.08683.125.09375l1.9375-.03125-.03125-.875zm13.6875 0-2.25.03125-.03125.875 1.9375.03125c.06636-.007.143732-.01477.15625-.09375zm-13.2304688.371094 1.4082032.02148.00586.154297-1.3691407.02148zm12.7734378 0-.04492.199218-1.400391-.02344.0059-.154297z"/><path d="m4.1694919 7.3725797v2.1319592h7.6610161v-2.1319592z" opacity=".5"/></g><path d="m6 13v1h-6v1h6v1h4v-1h6v-1h-6v-1zm1 1h2v1h-2z"/><path d="m7.5 10.690493v2.309507h1v-2.309507z" stroke-width=".792656"/></g></svg>