<svg height="16" width="16" xmlns="http://www.w3.org/2000/svg"><g fill="#bebebe" transform="translate(-281 -447)"><path d="m284 447c-.57847 0-1.0598.19914-1.4688.5625-.20447.18168-.38952.41779-.5.75s-.11181.77424.0625 1.125l1 2c.0882.17755.20315.42726.375.6875.24004-.0728.4938-.125.75-.125h9.5625c.2562 0 .50996.0522.75.125.17185-.26025.28676-.50995.375-.6875l1-2c.17431-.35076.17298-.79279.0625-1.125s-.29553-.56832-.5-.75c-.4-.36-.88-.56-1.46-.56h-10zm.125 2h9.75l-.78125 1.5625c-.1179.23724-.17682.37121-.21875.4375h-7.75c-.0419-.0663-.10085-.20026-.21875-.4375l-.77-1.56z"/><path d="m285 453c-.4875 0-.93518.14403-1.3125.4375s-.6875.78189-.6875 1.3438v8.2188h12v-8.2188c0-.56186-.31018-1.0503-.6875-1.3438-.37-.3-.82-.44-1.31-.44zm0 1h8v6h-8zm7 7h1v1h-1z"/><path d="m284-451h10v2h-10z" opacity=".35" transform="scale(1 -1)"/><path d="m286 458.03h6v1h-6z"/><path d="m286 455.03h6v.96875l-6 1z" opacity=".35"/></g></svg>