<svg height="16" width="16" xmlns="http://www.w3.org/2000/svg"><g fill="#bebebe"><path d="m1.21875.531132c-.588625 0-1.0625.362375-1.0625.8125v9.875c0 .450125.473875.8125 1.0625.8125h13.5625c.588625 0 1.0625-.362375 1.0625-.8125v-9.875c0-.450125-.473875-.8125-1.0625-.8125zm-.01367 1.0214844h13.589842v9.4570316h-13.589844z"/><path d="m6.7956495 12.406377c-.023997.115008-.053752.206559-.090326.249472-.1625761.19076-.5772213.271722-.9075642.305389-.9866391.100558-1.9441662.630833-1.9441662 1.135531 0 .902983 2.3334774 1.372099 4.1464076 1.372099 1.8025892 0 4.1464063-.469116 4.1464063-1.372099 0-.525377-.961828-1.034978-1.948468-1.135531-.3303417-.03367-.7573314-.104762-.9075619-.305389-.035521-.04744-.062555-.137477-.08603-.249472z" fill-rule="evenodd"/><path d="m1.2050781 1.5527344v9.4570316h13.5898439v-9.4570316z" opacity=".45"/></g></svg>