<?xml version="1.0" encoding="UTF-8" standalone="no"?>
<!-- Created with Inkscape (http://www.inkscape.org/) -->

<svg
   xmlns:dc="http://purl.org/dc/elements/1.1/"
   xmlns:cc="http://creativecommons.org/ns#"
   xmlns:rdf="http://www.w3.org/1999/02/22-rdf-syntax-ns#"
   xmlns:svg="http://www.w3.org/2000/svg"
   xmlns="http://www.w3.org/2000/svg"
   xmlns:xlink="http://www.w3.org/1999/xlink"
   xmlns:sodipodi="http://sodipodi.sourceforge.net/DTD/sodipodi-0.dtd"
   xmlns:inkscape="http://www.inkscape.org/namespaces/inkscape"
   version="1.1"
   id="svg2"
   width="16"
   height="16"
   viewBox="0 0 16 16"
   sodipodi:docname="folder-new.svg"
   inkscape:version="0.92.4 (unknown)"
   inkscape:export-filename="/home/rizmut/Dokumen/Rizmut/Github/karasa-jaga-icon-theme/build/Karasa-Jaga/16x16/actions/folder-new.png"
   inkscape:export-xdpi="96"
   inkscape:export-ydpi="96">
  <metadata
     id="metadata8">
    <rdf:RDF>
      <cc:Work
         rdf:about="">
        <dc:format>image/svg+xml</dc:format>
        <dc:type
           rdf:resource="http://purl.org/dc/dcmitype/StillImage" />
        <dc:title></dc:title>
      </cc:Work>
    </rdf:RDF>
  </metadata>
  <defs
     id="defs6">
    <linearGradient
       inkscape:collect="always"
       id="linearGradient854">
      <stop
         style="stop-color:#174072;stop-opacity:1;"
         offset="0"
         id="stop850" />
      <stop
         style="stop-color:#174072;stop-opacity:0;"
         offset="1"
         id="stop852" />
    </linearGradient>
    <linearGradient
       inkscape:collect="always"
       xlink:href="#linearGradient838-6"
       id="linearGradient840"
       x1="9"
       y1="5"
       x2="9"
       y2="15"
       gradientUnits="userSpaceOnUse"
       gradientTransform="translate(-1)" />
    <linearGradient
       inkscape:collect="always"
       xlink:href="#linearGradient854"
       id="linearGradient856"
       x1="6.5"
       y1="12"
       x2="6.5"
       y2="13"
       gradientUnits="userSpaceOnUse"
       gradientTransform="translate(-1)" />
    <linearGradient
       inkscape:collect="always"
       id="linearGradient4716">
      <stop
         style="stop-color:#102134;stop-opacity:1;"
         offset="0"
         id="stop4718" />
      <stop
         style="stop-color:#102134;stop-opacity:0;"
         offset="1"
         id="stop4720" />
    </linearGradient>
    <linearGradient
       inkscape:collect="always"
       xlink:href="#linearGradient4716"
       id="linearGradient906"
       x1="10"
       y1="-1"
       x2="10"
       y2="10"
       gradientUnits="userSpaceOnUse"
       gradientTransform="translate(-1)" />
    <filter
       style="color-interpolation-filters:sRGB"
       inkscape:collect="always"
       id="filter4747"
       x="-0.06459371"
       width="1.1291873"
       y="-0.1339166"
       height="1.2678332">
      <feGaussianBlur
         inkscape:collect="always"
         stdDeviation="3.1247207"
         id="feGaussianBlur4749" />
    </filter>
    <linearGradient
       inkscape:collect="always"
       xlink:href="#linearGradient4608"
       id="linearGradient4614"
       x1="3"
       y1="968.26129"
       x2="3"
       y2="953.01678"
       gradientUnits="userSpaceOnUse"
       gradientTransform="matrix(0.12499998,0,0,0.12499998,0.0024099,-115.81799)" />
    <linearGradient
       inkscape:collect="always"
       id="linearGradient4608">
      <stop
         style="stop-color:#34608f;stop-opacity:1;"
         offset="0"
         id="stop4610" />
      <stop
         style="stop-color:#34608f;stop-opacity:0;"
         offset="1"
         id="stop4612" />
    </linearGradient>
    <linearGradient
       inkscape:collect="always"
       xlink:href="#linearGradient4616"
       id="linearGradient4622"
       x1="124.01234"
       y1="966.51019"
       x2="124.01234"
       y2="935.34326"
       gradientUnits="userSpaceOnUse"
       gradientTransform="matrix(0.21345221,0,0,0.1138394,-11.411169,-103.22724)" />
    <linearGradient
       id="linearGradient4616">
      <stop
         style="stop-color:#000000;stop-opacity:1;"
         offset="0"
         id="stop4618" />
      <stop
         style="stop-color:#34608f;stop-opacity:0;"
         offset="1"
         id="stop4620" />
    </linearGradient>
    <linearGradient
       inkscape:collect="always"
       xlink:href="#linearGradient4624"
       id="linearGradient4630"
       x1="55"
       y1="1036.4132"
       x2="55"
       y2="1032.4822"
       gradientUnits="userSpaceOnUse" />
    <linearGradient
       inkscape:collect="always"
       id="linearGradient4624">
      <stop
         style="stop-color:#003d7b;stop-opacity:1;"
         offset="0"
         id="stop4626" />
      <stop
         style="stop-color:#003d7b;stop-opacity:0;"
         offset="1"
         id="stop4628" />
    </linearGradient>
    <filter
       style="color-interpolation-filters:sRGB"
       inkscape:collect="always"
       id="filter4584"
       x="-0.013944133"
       width="1.0278883"
       y="-0.34860396"
       height="1.6972079">
      <feGaussianBlur
         inkscape:collect="always"
         stdDeviation="0.70882694"
         id="feGaussianBlur4586" />
    </filter>
    <filter
       style="color-interpolation-filters:sRGB"
       inkscape:collect="always"
       id="filter4724"
       x="-0.013834233"
       width="1.0276685"
       y="-0.43499437"
       height="1.8699887">
      <feGaussianBlur
         inkscape:collect="always"
         stdDeviation="0.70324038"
         id="feGaussianBlur4726" />
    </filter>
    <linearGradient
       inkscape:collect="always"
       id="linearGradient838-6">
      <stop
         style="stop-color:#5678c8;stop-opacity:1"
         offset="0"
         id="stop834-7" />
      <stop
         id="stop985-5"
         offset="0.94117647"
         style="stop-color:#3f59ae;stop-opacity:1" />
      <stop
         style="stop-color:#3d7cdb;stop-opacity:1"
         offset="1"
         id="stop836-3" />
    </linearGradient>
    <clipPath
       clipPathUnits="userSpaceOnUse"
       id="clipPath920">
      <rect
         style="opacity:0.6457142;fill:#155293;fill-opacity:1;stroke:none;stroke-width:1"
         id="rect922"
         width="101.14289"
         height="28.072842"
         x="4"
         y="941.36218"
         rx="4"
         ry="4" />
    </clipPath>
    <filter
       style="color-interpolation-filters:sRGB"
       id="f"
       height="1.072142"
       width="1.071866"
       x="-0.035932999"
       y="-0.036070999">
      <feGaussianBlur
         stdDeviation=".66434216"
         id="feGaussianBlur21" />
    </filter>
    <radialGradient
       id="g"
       cx="-55.685837"
       cy="-347.11612"
       gradientTransform="matrix(-0.91762954,-0.24587809,0.26650439,-0.99460792,-14.509941,-705.18366)"
       gradientUnits="userSpaceOnUse"
       r="22.14249">
      <stop
         offset="0"
         stop-color="#82c133"
         id="stop24" />
      <stop
         offset="1"
         stop-color="#72b028"
         id="stop26" />
    </radialGradient>
    <linearGradient
       id="h"
       gradientUnits="userSpaceOnUse"
       x1="328.12448"
       x2="336.98077"
       y1="120.81158"
       y2="87.759453">
      <stop
         offset="0"
         stop-color="#96ff00"
         id="stop29" />
      <stop
         offset="1"
         stop-color="#609800"
         id="stop31" />
    </linearGradient>
    <clipPath
       id="i">
      <circle
         cx="343.91208"
         cy="92.325096"
         r="36"
         transform="matrix(0.86602539,0.50000002,0.49999965,-0.86602561,0,0)"
         id="circle34" />
    </clipPath>
    <filter
       id="j">
      <feGaussianBlur
         stdDeviation="2.8805897"
         id="feGaussianBlur37" />
    </filter>
    <radialGradient
       id="k"
       cx="343.99899"
       cy="92"
       gradientTransform="matrix(0.46130197,0,0,0.46130166,-219.03541,-372.17548)"
       gradientUnits="userSpaceOnUse"
       r="36">
      <stop
         offset="0"
         stop-color="#e5ff00"
         id="stop40" />
      <stop
         offset="1"
         stop-color="#bff500"
         stop-opacity="0"
         id="stop42" />
    </radialGradient>
    <linearGradient
       id="l"
       gradientTransform="matrix(0,0.51133072,-0.51133109,0,76.138665,324.51289)"
       gradientUnits="userSpaceOnUse"
       x1="-80.00296"
       x2="-45.096584"
       xlink:href="#a"
       y1="-131.93112"
       y2="-131.93112" />
    <linearGradient
       id="a">
      <stop
         offset="0"
         stop-color="#fff"
         id="stop2" />
      <stop
         offset="1"
         stop-color="#fff"
         stop-opacity="0"
         id="stop4" />
    </linearGradient>
    <linearGradient
       id="m"
       gradientUnits="userSpaceOnUse"
       x1="122.00004"
       x2="122.00004"
       y1="61.999996"
       y2="9.9328432">
      <stop
         offset="0"
         stop-color="#314d00"
         stop-opacity="0"
         id="stop46" />
      <stop
         offset=".5"
         stop-color="#194d00"
         id="stop48" />
      <stop
         offset="1"
         stop-color="#2d4d00"
         stop-opacity="0"
         id="stop50" />
    </linearGradient>
    <filter
       id="n">
      <feGaussianBlur
         stdDeviation="1.04"
         id="feGaussianBlur53" />
    </filter>
  </defs>
  <sodipodi:namedview
     pagecolor="#ffffff"
     bordercolor="#666666"
     borderopacity="1"
     objecttolerance="10"
     gridtolerance="10"
     guidetolerance="10"
     inkscape:pageopacity="0"
     inkscape:pageshadow="2"
     inkscape:window-width="1366"
     inkscape:window-height="698"
     id="namedview4"
     showgrid="true"
     inkscape:zoom="21.743533"
     inkscape:cx="-1.9399537"
     inkscape:cy="4.7576062"
     inkscape:window-x="0"
     inkscape:window-y="0"
     inkscape:window-maximized="1"
     inkscape:current-layer="g1029"
     inkscape:snap-page="true"
     inkscape:snap-smooth-nodes="true">
    <inkscape:grid
       type="xygrid"
       id="grid828" />
  </sodipodi:namedview>
  <g
     id="g1029">
    <path
       transform="matrix(0.125,0,0,0.125,6.7489037,12.35751)"
       sodipodi:nodetypes="sssssss"
       inkscape:connector-curvature="0"
       id="rect4554"
       d="M -46.991242,21.13992 H 67.008781 c 2.216,0 4,0.8652 4,1.94 0,1.0747 -1.78433,1.902 -4,1.94 -36.945183,0.6329 -74.7030655,0.7782 -114.000023,0 -2.215566,-0.044 -4,-0.8653 -4,-1.94 0,-1.0748 1.784,-1.94 4,-1.94 z"
       style="display:inline;opacity:0.55428569;fill:#000000;fill-opacity:1;stroke:none;filter:url(#filter4724);enable-background:new" />
    <rect
       transform="matrix(0.125,0,0,0.25614775,-0.125,-251.09298)"
       style="display:inline;opacity:0.57714281;fill:url(#linearGradient4630);fill-opacity:1;stroke:none;filter:url(#filter4584);enable-background:new"
       id="rect4578"
       width="121.99997"
       height="4.3919897"
       x="3.0000281"
       y="1032.4822"
       rx="2.4399951"
       ry="2.1959949" />
    <path
       sodipodi:nodetypes="sscsssssscss"
       inkscape:connector-curvature="0"
       id="rect832"
       d="M 0.5,1 C 0,1 0,1.3826937 0,1.5 V 3 8 c 0,0.554 0.446,1 1,1 h 13 c 0.554,0 1,-0.446 1,-1 V 3 C 15,2.446 14.554,2 14,2 H 5.9042969 C 5.8200962,1.5140493 5.7262959,1 5.5,1 Z"
       style="opacity:1;fill:#3b6ca9;fill-opacity:1;stroke:none;stroke-width:1;stroke-miterlimit:4;stroke-dasharray:none;stroke-opacity:1" />
    <path
       sodipodi:nodetypes="sscscccccccccssscss"
       inkscape:connector-curvature="0"
       id="path875"
       d="M 0.5,1 C 0,1 0,1.3826937 0,1.5 V 3 8 C 0,8.554 0.446,9 1,9 V 3 2 h 3.8828125 c 0.013345,0.068527 0.023996,0.094239 0.037109,0.1699219 C 5.0025947,2.6491414 5.4179989,2.9994326 5.9042969,3 H 7 14 v 6 c 0.554,0 1,-0.446 1,-1 V 3 C 15,2.446 14.554,2 14,2 H 5.9042969 C 5.8200962,1.5140493 5.7262959,1 5.5,1 Z"
       style="opacity:0.25;fill:url(#linearGradient906);fill-opacity:1;stroke:none;stroke-width:1;stroke-miterlimit:4;stroke-dasharray:none;stroke-opacity:1" />
    <path
       mask="none"
       transform="matrix(0.14830504,0,0,0.14830504,-0.59322015,-136.2721)"
       clip-path="url(#clipPath920)"
       sodipodi:nodetypes="ccccssccc"
       inkscape:connector-curvature="0"
       id="path3822"
       d="m 25.67146,956.10785 -21.6714601,-0.15854 2e-7,57.33469 107.8857499,-0.02 v -60.57188 c 0,-2.54081 -2.05959,-4.58387 -4.62097,-4.58387 H 37.67146 c -9.375263,0 -5.067235,7.84799 -12,8 z"
       style="display:inline;fill:#16375b;fill-opacity:0.80147059;fill-rule:nonzero;stroke:none;filter:url(#filter4747);enable-background:new" />
    <path
       sodipodi:nodetypes="sccssssssss"
       inkscape:connector-curvature="0"
       id="rect830"
       d="m 1,6 h 2.5 l 1,-1 H 15 c 0.554,0 1,0.446 1,1 v 8 c 0,0.554 -0.446,1 -1,1 H 1 C 0.446,15 0,14.554 0,14 V 7 C 0,6.446 0.446,6 1,6 Z"
       style="opacity:1;fill:url(#linearGradient840);fill-opacity:1;stroke:none;stroke-width:1;stroke-miterlimit:4;stroke-dasharray:none;stroke-opacity:1" />
    <path
       sodipodi:nodetypes="ccsscsccscssc"
       inkscape:connector-curvature="0"
       id="path860"
       d="m 4.5,5 -1,1 H 1 C 0.446,6 0,6.446 0,7 V 8 C 0,7.446 0.4471237,7.035267 1,7 h 2.5 l 1,-1 H 15 c 0.554,0 1,0.446 1,1 V 6 C 16,5.446 15.554,5 15,5 Z"
       style="opacity:1;fill:#a4c0e8;fill-opacity:1;stroke:none;stroke-width:1;stroke-miterlimit:4;stroke-dasharray:none;stroke-opacity:1" />
    <path
       sodipodi:nodetypes="ccccc"
       inkscape:connector-curvature="0"
       id="rect869"
       d="M 1,2 H 4 V 2.9999999 H 1 Z"
       style="opacity:1;fill:#fcf9e9;fill-opacity:1;stroke:none;stroke-width:0.83421183;stroke-miterlimit:4;stroke-dasharray:none;stroke-opacity:1" />
    <path
       sodipodi:nodetypes="ccccc"
       inkscape:connector-curvature="0"
       id="rect871"
       d="M 3,2 H 4 V 2.9999999 H 3 Z"
       style="opacity:1;fill:#fbc66d;fill-opacity:1;stroke:none;stroke-width:0.48163241;stroke-miterlimit:4;stroke-dasharray:none;stroke-opacity:1" />
    <path
       sodipodi:nodetypes="ccccc"
       inkscape:connector-curvature="0"
       id="rect846"
       d="m 0,12 h 16 v 1 H 0 Z"
       style="opacity:1;fill:#385da4;fill-opacity:1;stroke:none;stroke-width:1;stroke-miterlimit:4;stroke-dasharray:none;stroke-opacity:1" />
    <path
       sodipodi:nodetypes="cccccc"
       inkscape:connector-curvature="0"
       id="rect848"
       d="m 0,12 h 7 9 v 1 H 0 Z"
       style="opacity:1;fill:url(#linearGradient856);fill-opacity:1;stroke:none;stroke-width:1;stroke-miterlimit:4;stroke-dasharray:none;stroke-opacity:1" />
    <path
       sodipodi:nodetypes="ccccc"
       inkscape:connector-curvature="0"
       id="rect858"
       d="m 0,13 h 16 v 0.5 H 0 Z"
       style="opacity:1;fill:#a4c0e8;fill-opacity:1;stroke:none;stroke-width:1;stroke-miterlimit:4;stroke-dasharray:none;stroke-opacity:1" />
    <path
       sodipodi:nodetypes="sccccccs"
       inkscape:connector-curvature="0"
       id="rect4652"
       d="M 1,6 C 0.4494625,6 0.0074802,6.4410516 0.0019531,6.9902344 v 7.0195316 c 2.3e-4,0.02285 0.0119482,0.042 0.0136719,0.06445 C 0.053734,14.395281 0.7666734,14.99797 1,15 c 3.916e-4,3e-6 0.00156,0 0.00195,0 V 6 Z"
       style="display:inline;opacity:0.59428573;fill:url(#linearGradient4614);fill-opacity:1;stroke:none;stroke-width:0.12499997;enable-background:new" />
    <path
       id="rect4654"
       d="m 15,5 v 10 c 0.554,0 1,-0.446 1,-1 V 6 C 16,5.446 15.554,5 15,5 Z"
       style="display:inline;opacity:0.40571433;fill:url(#linearGradient4622);fill-opacity:1;stroke:none;stroke-width:0.1138394;enable-background:new"
       inkscape:connector-curvature="0"
       sodipodi:nodetypes="ccssc" />
    <g
       transform="matrix(0.20938731,0,0,0.20938731,-18.76877,-58.689417)"
       id="g100">
      <ellipse
         style="fill:none;stroke-width:0.61506897"
         cx="-217.13077"
         cy="255.38551"
         rx="22.14249"
         ry="22.142477"
         transform="matrix(-0.96592586,-0.2588189,-0.25881915,0.9659258,0,0)"
         id="ellipse84" />
      <ellipse
         style="fill:#292929;filter:url(#f)"
         cx="-59.830322"
         cy="-331.66757"
         rx="22.14249"
         ry="22.142477"
         transform="matrix(-0.93421983,0.2432797,-0.25032328,-0.9079328,4.714699,17.679705)"
         id="ellipse86" />
      <ellipse
         style="fill:url(#g)"
         cx="-60.347961"
         cy="-329.73572"
         rx="21.035366"
         ry="21.035353"
         transform="rotate(165.00001)"
         id="ellipse88" />
      <circle
         cx="343.99899"
         cy="92"
         r="36"
         style="opacity:0.8;fill:none;stroke:url(#h);stroke-width:6.75138187;filter:url(#j)"
         transform="matrix(-0.56440567,-0.15123195,-0.151232,0.56440527,351.70189,302.97936)"
         clip-path="url(#i)"
         id="circle90" />
      <ellipse
         style="fill:url(#k);stroke-width:0.46130201"
         cx="-60.347996"
         cy="-329.73572"
         rx="16.606871"
         ry="16.606859"
         transform="rotate(165)"
         id="ellipse92" />
      <path
         style="opacity:0.8;fill:url(#l);stroke-width:0.85210401"
         inkscape:connector-curvature="0"
         d="m 143.63359,283.60495 c -7.85231,0 -14.41363,5.54478 -15.99508,12.92708 3.15226,2.93856 9.13349,4.92155 15.99508,4.92155 6.86158,0 12.8428,-1.98299 15.99506,-4.92155 -1.58145,-7.3823 -8.14276,-12.92708 -15.99506,-12.92708 z"
         id="path94" />
      <path
         inkscape:connector-curvature="0"
         d="m 120.01465,21.014613 v 13 H 108.8884 v 3.970777 h 11.12625 v 11.061281 h 3.97076 V 37.98539 h 11.12626 v -3.970777 h -11.12626 v -13 z"
         style="fill:none;stroke:url(#m);stroke-width:4;stroke-linecap:round;stroke-linejoin:round;filter:url(#n)"
         transform="matrix(1.2316998,0,0,1.2316998,-6.63385,260.53982)"
         id="path96" />
      <path
         style="fill:#ffffff;fill-rule:evenodd"
         inkscape:connector-curvature="0"
         d="m 140.03421,285.26955 v 13.70421 h -13.7042 v 7.1987 h 13.7042 v 13.7042 h 7.1987 v -13.7042 h 13.70421 v -7.1987 h -13.70421 v -13.70421 z"
         id="path98" />
    </g>
  </g>
</svg>
