<?xml version="1.0" encoding="UTF-8" standalone="no"?>
<svg
   xmlns:dc="http://purl.org/dc/elements/1.1/"
   xmlns:cc="http://creativecommons.org/ns#"
   xmlns:rdf="http://www.w3.org/1999/02/22-rdf-syntax-ns#"
   xmlns:svg="http://www.w3.org/2000/svg"
   xmlns="http://www.w3.org/2000/svg"
   xmlns:xlink="http://www.w3.org/1999/xlink"
   xmlns:sodipodi="http://sodipodi.sourceforge.net/DTD/sodipodi-0.dtd"
   xmlns:inkscape="http://www.inkscape.org/namespaces/inkscape"
   height="16"
   viewBox="0 0 16 16"
   width="16"
   version="1.1"
   id="svg145"
   sodipodi:docname="form-open.svg"
   inkscape:version="0.92.4 (unknown)">
  <metadata
     id="metadata151">
    <rdf:RDF>
      <cc:Work
         rdf:about="">
        <dc:format>image/svg+xml</dc:format>
        <dc:type
           rdf:resource="http://purl.org/dc/dcmitype/StillImage" />
        <dc:title></dc:title>
      </cc:Work>
    </rdf:RDF>
  </metadata>
  <defs
     id="defs149">
    <clipPath
       clipPathUnits="userSpaceOnUse"
       id="clipPath161">
      <rect
         style="stroke-width:1"
         height="30.342859"
         rx="4"
         width="80.914307"
         x="30.971436"
         y="939.09216"
         id="rect163" />
    </clipPath>
    <filter
       id="b-3">
      <feGaussianBlur
         stdDeviation="2.4"
         id="feGaussianBlur9" />
    </filter>
    <linearGradient
       id="a-6"
       gradientTransform="matrix(0.1133598,0,0,0.1691546,0.642795,-76.95463)"
       gradientUnits="userSpaceOnUse"
       x1="417.76013"
       x2="417.76013"
       y1="691.40674"
       y2="549.52472">
      <stop
         offset="0"
         stop-color="#cbcbcd"
         id="stop2-7" />
      <stop
         offset=".5"
         stop-color="#e0e0e2"
         id="stop4-5" />
      <stop
         offset="1"
         stop-color="#fff"
         id="stop6-3" />
    </linearGradient>
    <linearGradient
       id="c-5"
       gradientTransform="matrix(1.25,0,0,1,-145.53581,-244.8761)"
       gradientUnits="userSpaceOnUse"
       x1="167.62865"
       x2="167.62865"
       y1="340.8761"
       y2="308.8761">
      <stop
         offset="0"
         stop-color="#cbcbcd"
         id="stop12" />
      <stop
         offset=".66545075"
         stop-color="#e0e0e2"
         id="stop14-6" />
      <stop
         offset="1"
         stop-color="#fff"
         id="stop16-2" />
    </linearGradient>
    <filter
       id="b-3-9">
      <feGaussianBlur
         stdDeviation="2.4"
         id="feGaussianBlur9-1" />
    </filter>
    <filter
       id="b-3-9-0">
      <feGaussianBlur
         stdDeviation="2.4"
         id="feGaussianBlur9-1-6" />
    </filter>
    <filter
       id="b-3-9-0-2">
      <feGaussianBlur
         stdDeviation="2.4"
         id="feGaussianBlur9-1-6-0" />
    </filter>
  </defs>
  <sodipodi:namedview
     pagecolor="#ffffff"
     bordercolor="#666666"
     borderopacity="1"
     objecttolerance="10"
     gridtolerance="10"
     guidetolerance="10"
     inkscape:pageopacity="0"
     inkscape:pageshadow="2"
     inkscape:window-width="1366"
     inkscape:window-height="706"
     id="namedview147"
     showgrid="true"
     showguides="false"
     inkscape:zoom="21.124815"
     inkscape:cx="0.073096775"
     inkscape:cy="5.4177095"
     inkscape:window-x="0"
     inkscape:window-y="0"
     inkscape:window-maximized="1"
     inkscape:current-layer="svg145">
    <inkscape:grid
       type="xygrid"
       id="grid153" />
  </sodipodi:namedview>
  <linearGradient
     id="a"
     gradientUnits="userSpaceOnUse"
     x1="8"
     x2="8"
     y1="5"
     y2="15">
    <stop
       offset="0"
       stop-color="#5678c8"
       id="stop2" />
    <stop
       offset=".94117647"
       stop-color="#3f59ae"
       id="stop4" />
    <stop
       offset="1"
       stop-color="#3d7cdb"
       id="stop6" />
  </linearGradient>
  <linearGradient
     id="b"
     gradientUnits="userSpaceOnUse"
     x1="5.5"
     x2="5.5"
     y1="12"
     y2="13">
    <stop
       offset="0"
       stop-color="#174072"
       id="stop9" />
    <stop
       offset="1"
       stop-color="#174072"
       stop-opacity="0"
       id="stop11" />
  </linearGradient>
  <linearGradient
     id="c"
     gradientUnits="userSpaceOnUse"
     x1="9"
     x2="9"
     y1="-1"
     y2="10"
     gradientTransform="translate(0,3)">
    <stop
       offset="0"
       stop-color="#102134"
       id="stop14" />
    <stop
       offset="1"
       stop-color="#102134"
       stop-opacity="0"
       id="stop16" />
  </linearGradient>
  <filter
     id="d"
     color-interpolation-filters="sRGB"
     height="1.267833"
     width="1.129187"
     x="-.064594"
     y="-.133917">
    <feGaussianBlur
       stdDeviation="3.1247207"
       id="feGaussianBlur19" />
  </filter>
  <linearGradient
     id="e"
     gradientUnits="userSpaceOnUse"
     x1="5"
     x2="5.5"
     y1="13.5"
     y2="9.5">
    <stop
       offset="0"
       stop-color="#34608f"
       id="stop22" />
    <stop
       offset="1"
       stop-color="#34608f"
       stop-opacity="0"
       id="stop24" />
  </linearGradient>
  <linearGradient
     id="f"
     gradientTransform="matrix(0.21345221,0,0,0.1138394,-11.411169,-103.22724)"
     gradientUnits="userSpaceOnUse"
     x1="124.01234"
     x2="124.01234"
     y1="966.51019"
     y2="935.34326">
    <stop
       offset="0"
       id="stop27" />
    <stop
       offset="1"
       stop-color="#34608f"
       stop-opacity="0"
       id="stop29" />
  </linearGradient>
  <linearGradient
     id="g"
     gradientUnits="userSpaceOnUse"
     x1="55"
     x2="55"
     y1="1036.4132"
     y2="1032.4822">
    <stop
       offset="0"
       stop-color="#003d7b"
       id="stop32" />
    <stop
       offset="1"
       stop-color="#003d7b"
       stop-opacity="0"
       id="stop34" />
  </linearGradient>
  <filter
     id="h"
     color-interpolation-filters="sRGB"
     height="1.697208"
     width="1.027888"
     x="-.013944"
     y="-.348604">
    <feGaussianBlur
       stdDeviation=".70882694"
       id="feGaussianBlur37" />
  </filter>
  <filter
     id="i"
     color-interpolation-filters="sRGB"
     height="1.869989"
     width="1.027669"
     x="-.013834"
     y="-.434994">
    <feGaussianBlur
       stdDeviation=".70324038"
       id="feGaussianBlur40" />
  </filter>
  <clipPath
     id="k">
    <rect
       height="102.29915"
       ry="1.433656"
       width="120"
       x="5.93629"
       y="48"
       id="rect46" />
  </clipPath>
  <filter
     id="l">
    <feGaussianBlur
       stdDeviation="2.028"
       id="feGaussianBlur49" />
  </filter>
  <filter
     id="m">
    <feGaussianBlur
       stdDeviation="2.7153804"
       id="feGaussianBlur52" />
  </filter>
  <linearGradient
     id="n"
     gradientTransform="matrix(.94173025 0 0 .94148681 3.516276 3.145731)"
     gradientUnits="userSpaceOnUse"
     x1="47.236164"
     x2="72"
     y1="22.150356"
     y2="116.40091">
    <stop
       offset="0"
       stop-color="#eeecec"
       id="stop55" />
    <stop
       offset=".40000001"
       stop-color="#f4f4f4"
       id="stop57" />
    <stop
       offset="1"
       stop-color="#f6f5f5"
       id="stop59" />
  </linearGradient>
  <radialGradient
     id="o"
     cx="68.138977"
     cy="89.42041"
     fx="67.932365"
     fy="72.691223"
     gradientTransform="matrix(1.5860719 -.07936281 .06485072 1.2953772 -41.872296 -14.425457)"
     gradientUnits="userSpaceOnUse"
     r="47.5"
     xlink:href="#p" />
  <linearGradient
     id="p">
    <stop
       offset="0"
       stop-color="#fff"
       id="stop63" />
    <stop
       offset="1"
       stop-color="#fff"
       stop-opacity="0"
       id="stop65" />
  </linearGradient>
  <clipPath
     id="q">
    <path
       d="m17.000001 8 .782827 110h57.5c1.675283 0 3.119418.18058 4.9-1.6 8.797935-8.79794 21.481402-23.383226 28.739972-30.707378 2.44056-2.462612 2.80096-4.47117 2.80096-6.724043l-1.72376-70.968579z"
       id="path68" />
  </clipPath>
  <filter
     id="r"
     color-interpolation-filters="sRGB"
     height="2.025501"
     width="1.957419"
     x="-.478709"
     y="-.512751">
    <feGaussianBlur
       stdDeviation="10.140743"
       id="feGaussianBlur71" />
  </filter>
  <filter
     id="s"
     height="1.2101"
     width="1.169467"
     x="-.084733"
     y="-.10505">
    <feGaussianBlur
       stdDeviation="2.1734796"
       id="feGaussianBlur74" />
  </filter>
  <linearGradient
     id="t"
     gradientTransform="matrix(1.3344708 0 0 1.3640502 -37.238647 -42.998247)"
     gradientUnits="userSpaceOnUse"
     x1="82.15696"
     x2="94.220871"
     y1="90.381706"
     y2="102.18401">
    <stop
       offset="0"
       stop-color="#fcfcfc"
       id="stop77" />
    <stop
       offset=".52275378"
       stop-color="#f8f8f8"
       id="stop79" />
    <stop
       offset=".72337759"
       stop-color="#f0efef"
       id="stop81" />
    <stop
       offset=".89024991"
       stop-color="#e3e1e1"
       id="stop83" />
    <stop
       offset="1"
       stop-color="#cecbcb"
       id="stop85" />
  </linearGradient>
  <radialGradient
     id="u"
     cx="90.750004"
     cy="110.252967"
     gradientUnits="userSpaceOnUse"
     r="24.501278"
     xlink:href="#p" />
  <clipPath
     id="v">
    <path
       d="m112 82.502986c0 4.465301-2.79749 6.409952-5.27972 8.093625-5.10854 3.46508-14.939114 3.32536-20.720284 3.40638-.081 5.781159.16586 15.504599-3.29922 20.613139-1.68367 2.48224-5.29051 5.38687-8.20078 5.38687 2.31803 0 4.74284-1.33476 7.58402-4.08481 9.14197-8.84873 17.36714-16.13535 25.673154-25.297529 1.91895-2.116745 4.24283-3.641881 4.24283-8.117675z"
       id="path89" />
  </clipPath>
  <filter
     id="w"
     color-interpolation-filters="sRGB">
    <feGaussianBlur
       stdDeviation=".43040059"
       id="feGaussianBlur92" />
  </filter>
  <g
     transform="matrix(0.125,0,0,0.125,3.9367676e-7,-0.99999973)"
     id="g35">
    <rect
       style="opacity:0.4;filter:url(#b-3-9-0-2)"
       height="112.96648"
       rx="1.85197"
       ry="2.186269"
       transform="matrix(1,0,0,0.9333333,-79.62865,-205.35101)"
       width="120"
       x="83.628647"
       y="232.8761"
       id="rect19" />
    <rect
       style="fill:url(#a-6)"
       height="96"
       rx="1e-06"
       width="112"
       x="7.9999971"
       y="15.999999"
       id="rect21" />
    <rect
       style="fill-opacity:0.16763"
       height="24.000002"
       rx="2e-06"
       ry="1e-06"
       width="96"
       x="15.999997"
       y="31.999998"
       id="rect23" />
    <rect
       style="fill:#ffffff"
       height="16.000002"
       rx="2e-06"
       ry="0"
       width="80"
       x="23.999996"
       y="40"
       id="rect25" />
    <rect
       style="fill-opacity:0.375"
       height="32.000004"
       rx="2e-06"
       ry="1e-06"
       transform="scale(1,-1)"
       width="80"
       x="23.999996"
       y="-104"
       id="rect27" />
    <rect
       style="fill:url(#c-5)"
       height="24.000002"
       rx="2e-06"
       ry="1e-06"
       width="80"
       x="23.999996"
       y="72"
       id="rect29" />
    <g
       aria-label="OK"
       style="font-size:26.28023148px;font-family:sans-serif;letter-spacing:0;word-spacing:0;stroke-width:0.65700603"
       id="text33">
      <path
         inkscape:connector-curvature="0"
         d="m 44.782489,91.387859 q -2.522902,-2.811985 -2.522902,-7.227064 0,-4.415079 2.522902,-7.227064 2.549183,-2.811985 6.675179,-2.811985 4.152277,0 6.701459,2.811985 2.549183,2.785705 2.549183,7.358465 0,4.257398 -2.522903,7.095663 -2.496622,2.811984 -6.701459,2.811984 -4.178556,0 -6.701459,-2.811984 z m 6.701459,-13.902243 q -2.391501,0 -3.836913,1.839616 -1.445413,1.813336 -1.445413,4.835563 0,3.022226 1.445413,4.861843 1.445412,1.813336 3.836913,1.813336 2.365221,0 3.810634,-1.813336 1.471693,-1.813336 1.471693,-4.756722 0,-3.101068 -1.445413,-4.940684 -1.419132,-1.839616 -3.836914,-1.839616 z"
         style="font-weight:600;font-family:FreeSans;letter-spacing:5;stroke-width:0.65700603"
         id="path45" />
      <path
         inkscape:connector-curvature="0"
         d="m 72.784262,87.183021 v 6.412377 H 68.842228 V 74.437109 h 3.942034 v 8.409674 l 7.489866,-8.409674 h 4.651601 l -7.647547,8.251993 8.462234,10.906296 H 81.036255 L 74.75528,85.133163 Z"
         style="font-weight:600;font-family:FreeSans;letter-spacing:5;stroke-width:0.65700603"
         id="path47" />
    </g>
  </g>
  <g
     id="g249"
     transform="translate(0,1)">
    <path
       sodipodi:nodetypes="sscsssssscss"
       style="fill:#3b6ca9"
       inkscape:connector-curvature="0"
       id="path99"
       d="m 4.4999999,3.9999993 c -0.5,0 -0.5,0.3826937 -0.5,0.5 v 1.5 4.9999997 c 0,0.554 0.446,1 1,1 L 15,12 c 0.554,0 1,-0.446 1,-1 V 6 C 16,5.446 15.554,5.0000001 15,5 l -5.0957032,-7e-7 c -0.084201,-0.4859507 -0.178001,-1 -0.4042969,-1 z" />
    <path
       sodipodi:nodetypes="ccccc"
       style="fill:#fcf9e9"
       inkscape:connector-curvature="0"
       id="path101"
       d="m 4.9999999,4.9999993 h 3 v 0.9999999 h -3 z" />
    <path
       sodipodi:nodetypes="sscscccccccccssscss"
       style="opacity:0.25;fill:url(#c)"
       inkscape:connector-curvature="0"
       id="path103"
       d="m 4.4999999,3.9999993 c -0.5,0 -0.4924597,0.3829363 -0.5,0.5 v 1.5 4.9999997 c 0,0.554 0.446,1 1,1 v -5.9999997 -1 h 3.8828125 c 0.013345,0.068527 0.023996,0.094239 0.037109,0.1699219 0.082673,0.4792195 0.4980774,0.8295107 0.9843754,0.8300781 H 11 L 15,6 v 6 c 0.554,0 1,-0.446 1,-1 V 6 C 16,5.446 15.554,5.0000001 15,5 l -5.0957032,-7e-7 c -0.084201,-0.4859507 -0.178001,-1 -0.4042969,-1 z" />
    <path
       sodipodi:nodetypes="ccccc"
       style="fill:#fbc66d"
       inkscape:connector-curvature="0"
       id="path105"
       d="m 6.9999999,4.9999993 h 1 v 0.9999999 h -1 z" />
    <path
       sodipodi:nodetypes="ccccssscc"
       style="fill:#16375b;fill-opacity:0.80147101;filter:url(#d)"
       inkscape:connector-curvature="0"
       id="path129"
       transform="matrix(0.14830504,0,0,0.14830504,-0.59322,-133.2721)"
       d="m 52.642896,956.10785 -21.67146,-0.15854 v 57.33469 l 80.914314,-0.02 v -60.57188 c 0,-2.54081 -2.05959,-4.58387 -4.62097,-4.58387 H 64.642896 c -9.375263,-10e-6 -5.067235,7.84799 -12,8 z"
       clip-path="url(#clipPath161)" />
    <path
       sodipodi:nodetypes="cccsssssssc"
       style="fill:url(#a)"
       inkscape:connector-curvature="0"
       id="path131"
       d="m 5,9.5 h 2.5 l 1,-1 6.5,7e-7 c 0.554,1e-7 1,0.446 1,1 V 14 c 0,0.554 -0.446,1 -1,1 l -10.0000001,-10e-7 c -0.554,0 -1,-0.446 -1,-1 L 4,10.5 C 4,9.946 4.5673986,9.1539189 5,9.5 Z" />
    <path
       sodipodi:nodetypes="ccssccccscssc"
       style="fill:#a4c0e8"
       inkscape:connector-curvature="0"
       id="path133"
       d="m 8.5,8.5 -1,1 H 5 c -0.554,0 -1,0.446 -1,1 v 1 c 0,-0.554 0.5673987,-1.346081 1,-1 h 2.5 l 1,-1 6.5,7e-7 c 0.554,1e-7 1,0.446 1,1.0000003 V 9.5000007 c 0,-0.554 -0.446025,-0.9947754 -1,-1 z" />
    <path
       sodipodi:nodetypes="ccccc"
       style="fill:#385da4"
       inkscape:connector-curvature="0"
       id="path135"
       d="M 3.9999999,11.999999 16,12 v 1 l -12.0000001,-10e-7 z" />
    <path
       sodipodi:nodetypes="cccccc"
       style="fill:url(#b)"
       inkscape:connector-curvature="0"
       id="path137"
       d="M 3.9999999,11.999999 H 11 L 16,12 v 1 l -12.0000001,-10e-7 z" />
    <path
       sodipodi:nodetypes="ccccc"
       style="fill:#a4c0e8"
       inkscape:connector-curvature="0"
       id="path139"
       d="M 3.9999999,12.999999 16,13 v 0.5 l -12.0000001,-10e-7 z" />
    <path
       sodipodi:nodetypes="sccccccs"
       style="opacity:0.59428603;fill:url(#e)"
       inkscape:connector-curvature="0"
       id="path141"
       d="m 5,9.5 c -0.5505375,0 -0.9925198,0.4410516 -0.9980469,0.990234 l -10e-8,3.519531 c 2.3e-4,0.02285 0.011948,0.042 0.013672,0.06445 C 4.053734,14.39528 4.7666734,14.997969 5,14.999999 c 3.916e-4,3e-6 0.00156,0 0.00195,0 L 5.0019501,9.5 Z" />
    <path
       sodipodi:nodetypes="ccssc"
       style="opacity:0.40571403;fill:url(#f)"
       inkscape:connector-curvature="0"
       id="path143"
       d="M 15,8.5000007 V 15 c 0.554,0 1,-0.446 1,-1 V 9.5000007 c 0,-0.554 -0.446,-1 -1,-1 z" />
  </g>
</svg>
