<?xml version="1.0" encoding="UTF-8" standalone="no"?>
<!-- Created with Inkscape (http://www.inkscape.org/) -->

<svg
   xmlns:dc="http://purl.org/dc/elements/1.1/"
   xmlns:cc="http://creativecommons.org/ns#"
   xmlns:rdf="http://www.w3.org/1999/02/22-rdf-syntax-ns#"
   xmlns:svg="http://www.w3.org/2000/svg"
   xmlns="http://www.w3.org/2000/svg"
   xmlns:xlink="http://www.w3.org/1999/xlink"
   xmlns:sodipodi="http://sodipodi.sourceforge.net/DTD/sodipodi-0.dtd"
   xmlns:inkscape="http://www.inkscape.org/namespaces/inkscape"
   version="1.1"
   id="svg2"
   width="128"
   height="128"
   viewBox="0 0 128 128"
   sodipodi:docname="layer-new.svg"
   inkscape:version="0.92.3 (unknown)"
   inkscape:export-filename="/home/rizmut/Dokumen/Rizmut/Github/karasa-jaga-icon-theme/build/Karasa-Jaga/16x16/actions/layer-new.png"
   inkscape:export-xdpi="12"
   inkscape:export-ydpi="12">
  <metadata
     id="metadata8">
    <rdf:RDF>
      <cc:Work
         rdf:about="">
        <dc:format>image/svg+xml</dc:format>
        <dc:type
           rdf:resource="http://purl.org/dc/dcmitype/StillImage" />
        <dc:title></dc:title>
      </cc:Work>
    </rdf:RDF>
  </metadata>
  <defs
     id="defs6">
    <linearGradient
       inkscape:collect="always"
       id="linearGradient845">
      <stop
         style="stop-color:#ffffff;stop-opacity:1;"
         offset="0"
         id="stop841" />
      <stop
         style="stop-color:#ffffff;stop-opacity:0;"
         offset="1"
         id="stop843" />
    </linearGradient>
    <linearGradient
       inkscape:collect="always"
       id="linearGradient830">
      <stop
         style="stop-color:#e4e7eb;stop-opacity:1;"
         offset="0"
         id="stop826" />
      <stop
         style="stop-color:#f0f2f4;stop-opacity:1"
         offset="1"
         id="stop828" />
    </linearGradient>
    <linearGradient
       id="linearGradient2485">
      <stop
         id="stop2486"
         offset="0"
         style="stop-color:#ffffff;stop-opacity:1" />
      <stop
         id="stop2487"
         offset="1"
         style="stop-color:#aaaaaa;stop-opacity:1" />
    </linearGradient>
    <linearGradient
       id="linearGradient5704">
      <stop
         style="stop-color:#5a5a5a;stop-opacity:1"
         offset="0"
         id="stop5706" />
      <stop
         style="stop-color:#000000;stop-opacity:1"
         offset="1"
         id="stop5708" />
    </linearGradient>
    <linearGradient
       inkscape:collect="always"
       xlink:href="#linearGradient830"
       id="linearGradient5189"
       gradientUnits="userSpaceOnUse"
       x1="58.651283"
       y1="18.026964"
       x2="78.743713"
       y2="51.113689" />
    <linearGradient
       inkscape:collect="always"
       xlink:href="#linearGradient845"
       id="linearGradient5191"
       gradientUnits="userSpaceOnUse"
       x1="53.749546"
       y1="7.8691878"
       x2="93.753166"
       y2="58.52047" />
    <linearGradient
       inkscape:collect="always"
       xlink:href="#linearGradient830"
       id="linearGradient5201"
       gradientUnits="userSpaceOnUse"
       x1="58.651283"
       y1="18.026964"
       x2="78.743713"
       y2="51.113689" />
    <linearGradient
       inkscape:collect="always"
       xlink:href="#linearGradient845"
       id="linearGradient5203"
       gradientUnits="userSpaceOnUse"
       x1="53.749546"
       y1="7.8691878"
       x2="93.753166"
       y2="58.52047" />
    <radialGradient
       id="c"
       cx="84.903702"
       cy="-130.14005"
       gradientTransform="matrix(0.30794145,0.30794145,-0.30794145,0.30794145,46.491338,107.57052)"
       gradientUnits="userSpaceOnUse"
       r="57.039597"
       xlink:href="#d" />
    <linearGradient
       id="d">
      <stop
         offset="0"
         stop-color="#011701"
         id="stop2166" />
      <stop
         offset=".80671918"
         stop-color="#145703"
         id="stop2168" />
      <stop
         offset="1"
         stop-color="#2fa207"
         stop-opacity=".384314"
         id="stop2170" />
    </linearGradient>
    <radialGradient
       id="e"
       cx="43.084476"
       cy="-121.92532"
       gradientTransform="matrix(0.30347528,0.31234377,-0.3628951,0.35259129,39.983519,112.82479)"
       gradientUnits="userSpaceOnUse"
       r="57.039597"
       xlink:href="#d" />
    <radialGradient
       id="f"
       cx="51.991096"
       cy="-78.028419"
       gradientTransform="matrix(0.28232256,0.33158686,-0.56115095,0.47778001,28.065755,119.5934)"
       gradientUnits="userSpaceOnUse"
       r="57.039597"
       xlink:href="#d" />
    <linearGradient
       inkscape:collect="always"
       xlink:href="#linearGradient845"
       id="linearGradient3035"
       gradientUnits="userSpaceOnUse"
       gradientTransform="scale(1.0975951,0.9110828)"
       x1="26.091133"
       y1="14.856744"
       x2="31.500689"
       y2="14.856744" />
    <filter
       id="i"
       height="1.277481"
       width="1.279832"
       x="-0.139916"
       y="-0.138741">
      <feGaussianBlur
         stdDeviation=".28784801"
         id="feGaussianBlur2181" />
    </filter>
    <filter
       id="filter2129"
       height="1.277481"
       width="1.279832"
       x="-0.139916"
       y="-0.138741">
      <feGaussianBlur
         stdDeviation=".28784801"
         id="feGaussianBlur2127" />
    </filter>
    <linearGradient
       id="j"
       gradientUnits="userSpaceOnUse"
       x1="304.88663"
       x2="345.62039"
       y1="385.86127"
       y2="384.62384">
      <stop
         offset="0"
         stop-color="#765c44"
         id="stop2184" />
      <stop
         offset="1"
         stop-color="#765c44"
         stop-opacity="0"
         id="stop2186" />
    </linearGradient>
    <filter
       id="filter2136"
       height="1.277481"
       width="1.279832"
       x="-0.139916"
       y="-0.138741">
      <feGaussianBlur
         stdDeviation=".28784801"
         id="feGaussianBlur2134" />
    </filter>
    <linearGradient
       inkscape:collect="always"
       xlink:href="#k"
       id="linearGradient3037"
       gradientUnits="userSpaceOnUse"
       x1="88.606247"
       y1="13.510336"
       x2="91.575104"
       y2="13.510336"
       spreadMethod="reflect" />
    <linearGradient
       id="k"
       gradientUnits="userSpaceOnUse"
       spreadMethod="reflect"
       x1="88.606247"
       x2="91.575104"
       y1="13.510336"
       y2="13.510336">
      <stop
         offset="0"
         stop-color="#c8ff87"
         id="stop2189" />
      <stop
         offset="1"
         stop-color="#abff87"
         stop-opacity="0"
         id="stop2191" />
    </linearGradient>
    <filter
       id="filter2144"
       height="1.277481"
       width="1.279832"
       x="-0.139916"
       y="-0.138741">
      <feGaussianBlur
         stdDeviation=".28784801"
         id="feGaussianBlur2142" />
    </filter>
    <linearGradient
       id="l"
       gradientUnits="userSpaceOnUse"
       spreadMethod="reflect"
       x1="31.606251"
       x2="34.575108"
       y1="13.510336"
       y2="13.510336">
      <stop
         offset="0"
         stop-color="#fff"
         id="stop2194" />
      <stop
         offset="1"
         stop-color="#790000"
         stop-opacity="0"
         id="stop2196" />
    </linearGradient>
    <filter
       id="filter2151"
       height="1.277481"
       width="1.279832"
       x="-0.139916"
       y="-0.138741">
      <feGaussianBlur
         stdDeviation=".28784801"
         id="feGaussianBlur2149" />
    </filter>
    <filter
       id="filter2162"
       height="1.277481"
       width="1.279832"
       x="-0.139916"
       y="-0.138741">
      <feGaussianBlur
         stdDeviation=".28784801"
         id="feGaussianBlur2160" />
    </filter>
    <radialGradient
       id="m"
       cx="50.424522"
       cy="-81.945961"
       gradientTransform="matrix(0.30794145,0.30794145,-0.30794145,0.30794145,46.491337,107.57052)"
       gradientUnits="userSpaceOnUse"
       r="50.15279">
      <stop
         offset="0"
         stop-color="#7ae91e"
         stop-opacity=".996078"
         id="stop2199" />
      <stop
         offset="1"
         stop-color="#62c916"
         id="stop2201" />
    </radialGradient>
    <filter
       style="color-interpolation-filters:sRGB"
       id="n"
       height="1.024"
       width="1.024"
       x="-0.012"
       y="-0.012">
      <feGaussianBlur
         stdDeviation=".28192153"
         id="feGaussianBlur2204" />
    </filter>
    <linearGradient
       id="o"
       gradientUnits="userSpaceOnUse"
       x1="84.745605"
       x2="97.636749"
       xlink:href="#linearGradient845"
       y1="48.278454"
       y2="110.57732" />
    <linearGradient
       inkscape:collect="always"
       xlink:href="#linearGradient845"
       id="linearGradient2326"
       gradientUnits="userSpaceOnUse"
       gradientTransform="scale(1.0975951,0.9110828)"
       x1="26.091133"
       y1="14.856744"
       x2="31.500689"
       y2="14.856744" />
    <linearGradient
       inkscape:collect="always"
       xlink:href="#k"
       id="linearGradient2328"
       gradientUnits="userSpaceOnUse"
       x1="88.606247"
       y1="13.510336"
       x2="91.575104"
       y2="13.510336"
       spreadMethod="reflect" />
  </defs>
  <sodipodi:namedview
     pagecolor="#ffffff"
     bordercolor="#666666"
     borderopacity="1"
     objecttolerance="10"
     gridtolerance="10"
     guidetolerance="10"
     inkscape:pageopacity="0"
     inkscape:pageshadow="2"
     inkscape:window-width="1366"
     inkscape:window-height="706"
     id="namedview4"
     showgrid="true"
     inkscape:snap-page="true"
     inkscape:snap-global="true"
     inkscape:zoom="3.4621528"
     inkscape:cx="15.309156"
     inkscape:cy="53.555824"
     inkscape:window-x="0"
     inkscape:window-y="0"
     inkscape:window-maximized="1"
     inkscape:current-layer="svg2">
    <inkscape:grid
       type="xygrid"
       id="grid817"
       spacingx="4"
       spacingy="4" />
  </sodipodi:namedview>
  <g
     id="g5199"
     transform="translate(0,56)"
     style="opacity:0.5">
    <path
       id="path5193"
       d="M 8,8.0078125 C 1.5356123,8.009236 -2.2527664,15.285364 1.453125,20.582031 l 28,32 C 30.948334,54.718815 33.392033,55.991696 36,55.992188 h 84 c 6.46439,-0.0014 10.25277,-7.27755 6.54688,-12.574219 l -28.000005,-32 C 97.051666,9.2811856 94.607967,8.0083039 92,8.0078125 Z"
       style="fill:#848484;fill-opacity:0.95294118;stroke:none;stroke-width:1px;stroke-linecap:butt;stroke-linejoin:miter;stroke-opacity:1"
       inkscape:connector-curvature="0"
       sodipodi:nodetypes="ccccccccc" />
    <path
       inkscape:connector-curvature="0"
       id="path5195"
       d="m 8,16 28,32 h 84 L 92,16 Z"
       style="fill:url(#linearGradient5201);fill-opacity:1;stroke:none;stroke-width:1px;stroke-linecap:butt;stroke-linejoin:miter;stroke-opacity:1"
       sodipodi:nodetypes="ccccc" />
    <path
       id="path5197"
       d="m 8,16 14.574769,16.649885 c 8.276134,0.624083 15.561292,1.30559 24.110504,1.318359 19.858152,-0.0017 40.450625,-1.873544 57.126947,-5.012 L 92,16 Z"
       style="fill:url(#linearGradient5203);fill-opacity:1;stroke:none;stroke-width:1px;stroke-linecap:butt;stroke-linejoin:miter;stroke-opacity:1"
       inkscape:connector-curvature="0"
       sodipodi:nodetypes="cccccc" />
  </g>
  <g
     transform="translate(0,31.992187)"
     id="g5187">
    <path
       sodipodi:nodetypes="ccccccccc"
       inkscape:connector-curvature="0"
       style="fill:#848484;fill-opacity:0.95294118;stroke:none;stroke-width:1px;stroke-linecap:butt;stroke-linejoin:miter;stroke-opacity:1"
       d="M 8,8.0078125 C 1.5356123,8.009236 -2.2527664,15.285364 1.453125,20.582031 l 28,32 C 30.948334,54.718815 33.392033,55.991696 36,55.992188 h 84 c 6.46439,-0.0014 10.25277,-7.27755 6.54688,-12.574219 l -28.000005,-32 C 97.051666,9.2811856 94.607967,8.0083039 92,8.0078125 Z"
       id="path5181" />
    <path
       sodipodi:nodetypes="ccccc"
       style="fill:url(#linearGradient5189);fill-opacity:1;stroke:none;stroke-width:1px;stroke-linecap:butt;stroke-linejoin:miter;stroke-opacity:1"
       d="m 8,16 28,32 h 84 L 92,16 Z"
       id="path5183"
       inkscape:connector-curvature="0" />
    <path
       sodipodi:nodetypes="cccccc"
       inkscape:connector-curvature="0"
       style="fill:url(#linearGradient5191);fill-opacity:1;stroke:none;stroke-width:1px;stroke-linecap:butt;stroke-linejoin:miter;stroke-opacity:1"
       d="m 8,16 14.574769,16.649885 c 8.276134,0.624083 15.561292,1.30559 24.110504,1.318359 19.858152,-0.0017 40.450625,-1.873544 57.126947,-5.012 L 92,16 Z"
       id="path5185" />
  </g>
  <g
     id="g3286"
     transform="translate(-56.996132,-56.987288)">
    <path
       style="fill:#033d03"
       inkscape:connector-curvature="0"
       id="path2448"
       d="m 87.253944,56.987288 c -4.022451,-1.17e-4 -7.375114,3.352553 -7.375,7.375 V 79.872053 H 64.371132 c -4.019003,-1.16e-4 -7.375117,3.350604 -7.375,7.373047 v 10.619139 c -1.17e-4,4.022441 3.355991,7.373171 7.375,7.373051 h 15.507812 v 15.50976 c -1.21e-4,4.02245 3.355991,7.37317 7.375,7.37305 H 97.87113 c 4.01901,1.2e-4 7.37512,-3.35059 7.375,-7.37305 v -15.50976 h 15.50781 c 4.01903,1.2e-4 7.37513,-3.3506 7.375,-7.373051 V 87.2451 c 1.3e-4,-4.02246 -3.35599,-7.373163 -7.375,-7.373047 H 105.24613 V 64.362288 c 1.2e-4,-4.022461 -3.35255,-7.375117 -7.375,-7.375 z" />
    <path
       style="fill:#1f5623;fill-opacity:0.90588199"
       inkscape:connector-curvature="0"
       id="path2450"
       d="m 123.75362,87.246019 c 5e-5,-1.656397 -1.34274,-2.99918 -2.99913,-2.999132 H 100.87057 V 64.362116 c 5e-5,-1.656396 -1.34274,-2.99918 -2.99913,-2.999132 l -10.617743,5e-6 c -1.656393,-4.8e-5 -2.999178,1.342735 -2.999131,2.999127 v 19.884771 h -19.88392 c -1.656396,-4.8e-5 -2.99918,1.342735 -2.999132,2.999132 v 10.61774 c -4.8e-5,1.6564 1.342736,2.999181 2.999132,2.999131 h 19.88392 v 19.88392 c -5e-5,1.6564 1.342736,2.99918 2.999132,2.99913 H 97.87144 c 1.65639,5e-5 2.99918,-1.34273 2.99913,-2.99913 v -19.88392 h 19.88392 c 1.6564,5e-5 2.99918,-1.342741 2.99913,-2.999131 z" />
    <path
       inkscape:connector-curvature="0"
       style="fill:url(#c)"
       id="path2452"
       d="m 123.75362,87.246019 c 5e-5,-1.656397 -1.34274,-2.99918 -2.99913,-2.999132 H 100.87057 V 64.362116 c 5e-5,-1.656396 -1.34274,-2.99918 -2.99913,-2.999132 l -10.617743,5e-6 c -1.656393,-4.8e-5 -2.999178,1.342735 -2.999131,2.999127 v 19.884771 h -19.88392 c -1.656396,-4.8e-5 -2.99918,1.342735 -2.999132,2.999132 v 10.61774 c -4.8e-5,1.6564 1.342736,2.999181 2.999132,2.999131 h 19.88392 v 19.88392 c -5e-5,1.6564 1.342736,2.99918 2.999132,2.99913 H 97.87144 c 1.65639,5e-5 2.99918,-1.34273 2.99913,-2.99913 v -19.88392 h 19.88392 c 1.6564,5e-5 2.99918,-1.342741 2.99913,-2.999131 z" />
    <path
       style="fill:#066704"
       inkscape:connector-curvature="0"
       id="path2454"
       d="m 123.75362,87.246019 c 5e-5,-1.656397 -1.34274,-2.99918 -2.99913,-2.999132 H 100.87057 V 64.362116 c 5e-5,-1.656396 -1.34274,-2.99918 -2.99913,-2.999132 l -10.617743,5e-6 c -1.656393,-4.8e-5 -2.999178,1.342735 -2.999131,2.999127 v 19.884771 h -19.88392 c -1.656396,-4.8e-5 -2.99918,1.342735 -2.999132,2.999132 v 10.61774 c -4.8e-5,1.6564 1.342736,2.999181 2.999132,2.999131 h 19.88392 v 19.88392 c -5e-5,1.6564 1.342736,2.99918 2.999132,2.99913 H 97.87144 c 1.65639,5e-5 2.99918,-1.34273 2.99913,-2.99913 v -19.88392 h 19.88392 c 1.6564,5e-5 2.99918,-1.342741 2.99913,-2.999131 z" />
    <path
       inkscape:connector-curvature="0"
       style="fill:url(#e)"
       id="path2456"
       d="m 123.75362,87.246019 c 5e-5,-1.656397 -1.34274,-2.99918 -2.99913,-2.999132 H 100.87057 V 64.362116 c 5e-5,-1.656396 -1.34274,-2.99918 -2.99913,-2.999132 l -10.617743,5e-6 c -1.656393,-4.8e-5 -2.999178,1.342735 -2.999131,2.999127 v 19.884771 h -19.88392 c -1.656396,-4.8e-5 -2.99918,1.342735 -2.999132,2.999132 v 10.61774 c -4.8e-5,1.6564 1.342736,2.999181 2.999132,2.999131 h 19.88392 v 19.88392 c -5e-5,1.6564 1.342736,2.99918 2.999132,2.99913 H 97.87144 c 1.65639,5e-5 2.99918,-1.34273 2.99913,-2.99913 v -19.88392 h 19.88392 c 1.6564,5e-5 2.99918,-1.342741 2.99913,-2.999131 z" />
    <path
       inkscape:connector-curvature="0"
       style="fill:url(#f)"
       id="path2458"
       d="m 123.75362,87.246019 c 5e-5,-1.656397 -1.34274,-2.99918 -2.99913,-2.999132 H 100.87057 V 64.362116 c 5e-5,-1.656396 -1.34274,-2.99918 -2.99913,-2.999132 l -10.617743,5e-6 c -1.656393,-4.8e-5 -2.999178,1.342735 -2.999131,2.999127 v 19.884771 h -19.88392 c -1.656396,-4.8e-5 -2.99918,1.342735 -2.999132,2.999132 v 10.61774 c -4.8e-5,1.6564 1.342736,2.999181 2.999132,2.999131 h 19.88392 v 19.88392 c -5e-5,1.6564 1.342736,2.99918 2.999132,2.99913 H 97.87144 c 1.65639,5e-5 2.99918,-1.34273 2.99913,-2.99913 v -19.88392 h 19.88392 c 1.6564,5e-5 2.99918,-1.342741 2.99913,-2.999131 z" />
    <g
       style="fill-rule:evenodd"
       id="g2472">
      <path
         inkscape:connector-curvature="0"
         style="opacity:0.498127;fill:url(#linearGradient2326);filter:url(#i)"
         id="path2460"
         transform="matrix(-0.64954358,0.64954358,0.6557809,0.6557809,76.701663,57.763298)"
         d="m 31.7,16 2.875,-3.375 c -1.051205,-1.695758 -3.935136,-2.288018 -5.9375,-0.3125 l 2.8125,3.375 z" />
      <path
         inkscape:connector-curvature="0"
         style="opacity:0.79026196;fill:url(#linearGradient3035);filter:url(#i)"
         id="path2462"
         transform="matrix(-0.6476361,-0.6476361,0.64147625,-0.64147625,99.166281,149.43433)"
         d="m 31.7,16 2.875,-3.375 c -1.051205,-1.695758 -3.935136,-2.288018 -5.9375,-0.3125 l 2.8125,3.375 z" />
      <path
         inkscape:connector-curvature="0"
         style="opacity:0.498127;fill:url(#j);filter:url(#i)"
         id="path2464"
         transform="matrix(-0.58819378,0.58819378,-0.59384198,-0.59384198,124.77757,109.70474)"
         d="m 31.7,16 2.875,-3.375 c -1.051205,-1.695758 -3.935136,-2.288018 -5.9375,-0.3125 l 2.8125,3.375 z" />
      <path
         inkscape:connector-curvature="0"
         style="opacity:0.79026196;fill:url(#linearGradient2328);filter:url(#i)"
         id="path2466"
         transform="matrix(-0.59384198,-0.59384198,0.58819378,-0.58819378,109.16011,158.42153)"
         d="m 88.7,16 2.875,-3.375 c -1.051205,-1.695758 -3.935136,-2.288018 -5.9375,-0.3125 l 2.8125,3.375 z" />
      <path
         inkscape:connector-curvature="0"
         style="opacity:0.79026196;fill:url(#l);filter:url(#i)"
         id="path2468"
         transform="matrix(-0.54004786,-0.54004786,-0.53491131,0.53491131,144.9962,96.825516)"
         d="m 31.7,16 2.875,-3.375 c -1.051205,-1.695758 -3.935136,-2.288018 -5.9375,-0.3125 l 2.8125,3.375 z" />
      <path
         inkscape:connector-curvature="0"
         style="opacity:0.79026196;fill:url(#linearGradient3037);filter:url(#i)"
         id="path2470"
         transform="matrix(-0.55444337,-0.55444337,-0.5491699,0.5491699,154.52392,106.08385)"
         d="m 88.7,16 2.875,-3.375 c -1.051205,-1.695758 -3.935136,-2.288018 -5.9375,-0.3125 l 2.8125,3.375 z" />
    </g>
    <path
       inkscape:connector-curvature="0"
       style="fill:url(#m)"
       id="path2474"
       d="M 120.75449,87.246019 H 97.87144 V 64.362121 l -10.617741,-5e-6 -10e-7,22.883903 H 64.370646 v 10.61774 H 87.253698 V 120.74681 H 97.87144 V 97.863759 h 22.88305 z" />
    <path
       style="fill:#eef4ca;fill-opacity:0.77941165;filter:url(#n)"
       inkscape:connector-curvature="0"
       id="path2476"
       d="m 97.87185,64.362208 -10.617965,-5e-6 v 22.884181 l -22.883579,-4.35e-4 v 10.61797 h 22.882977 l 10e-7,22.882971 H 97.87125 V 97.863919 l 22.88298,-10e-6 -1e-5,-10.617956 H 97.87125 Z m -0.75422,0.754216 -6.1e-4,22.129359 c -4e-5,0.41656 0.33766,0.754256 0.75422,0.754217 H 120 v 9.109529 H 97.87124 c -0.41656,-4e-5 -0.75426,0.33766 -0.75422,0.75422 V 119.99251 H 88.00749 V 97.863749 c 4e-5,-0.41656 -0.337657,-0.75426 -0.754216,-0.75422 h -22.12876 v -9.109534 l 22.129362,4.36e-4 c 0.416558,3.9e-5 0.754257,-0.337657 0.754216,-0.754216 V 65.116254 Z" />
    <path
       inkscape:connector-curvature="0"
       style="fill:url(#o)"
       id="path2478"
       d="M 87.253944,64.362288 V 87.2451 H 64.371132 v 6.925781 a 65.433395,38.789856 0 0 0 17.794922,1.498047 65.433395,38.789856 0 0 0 38.587886,-7.521484 V 87.2451 H 97.87113 V 64.362288 Z" />
  </g>
</svg>
