<?xml version="1.0" encoding="UTF-8" standalone="no"?>
<svg
   xmlns:dc="http://purl.org/dc/elements/1.1/"
   xmlns:cc="http://creativecommons.org/ns#"
   xmlns:rdf="http://www.w3.org/1999/02/22-rdf-syntax-ns#"
   xmlns:svg="http://www.w3.org/2000/svg"
   xmlns="http://www.w3.org/2000/svg"
   xmlns:xlink="http://www.w3.org/1999/xlink"
   xmlns:sodipodi="http://sodipodi.sourceforge.net/DTD/sodipodi-0.dtd"
   xmlns:inkscape="http://www.inkscape.org/namespaces/inkscape"
   height="16"
   width="16"
   version="1.1"
   id="svg36"
   sodipodi:docname="view-fullscreen.svg"
   inkscape:version="0.92.3 (2405546, 2018-03-11)"
   inkscape:export-filename="/home/rizmut/Dokumen/Rizmut/Github/karasa-jaga-icon-theme/build/Karasa-Jaga/16x16/actions/view-fullscreen.png"
   inkscape:export-xdpi="96"
   inkscape:export-ydpi="96">
  <metadata
     id="metadata42">
    <rdf:RDF>
      <cc:Work
         rdf:about="">
        <dc:format>image/svg+xml</dc:format>
        <dc:type
           rdf:resource="http://purl.org/dc/dcmitype/StillImage" />
        <dc:title></dc:title>
      </cc:Work>
    </rdf:RDF>
  </metadata>
  <defs
     id="defs40" />
  <sodipodi:namedview
     pagecolor="#ffffff"
     bordercolor="#666666"
     borderopacity="1"
     objecttolerance="10"
     gridtolerance="10"
     guidetolerance="10"
     inkscape:pageopacity="0"
     inkscape:pageshadow="2"
     inkscape:window-width="1366"
     inkscape:window-height="693"
     id="namedview38"
     showgrid="false"
     inkscape:zoom="14.75"
     inkscape:cx="8"
     inkscape:cy="8"
     inkscape:window-x="0"
     inkscape:window-y="0"
     inkscape:window-maximized="1"
     inkscape:current-layer="svg36" />
  <linearGradient
     id="a">
    <stop
       offset="0"
       stop-color="#cbcbcd"
       id="stop2" />
    <stop
       offset=".5"
       stop-color="#e0e0e2"
       id="stop4" />
    <stop
       offset="1"
       stop-color="#fff"
       id="stop6" />
  </linearGradient>
  <filter
     id="b">
    <feGaussianBlur
       stdDeviation="2.4"
       id="feGaussianBlur9" />
  </filter>
  <linearGradient
     id="c"
     gradientTransform="matrix(.1133598 0 0 .1691546 80.271448 159.92147)"
     gradientUnits="userSpaceOnUse"
     x1="399.77466"
     x2="399.77466"
     xlink:href="#a"
     y1="681.00012"
     y2="549.33234" />
  <linearGradient
     id="d"
     gradientUnits="userSpaceOnUse"
     x1="143.628653"
     x2="143.628653"
     xlink:href="#a"
     y1="268.876101"
     y2="252.876101" />
  <g
     transform="matrix(.125 0 0 .125 -9.953582 -29.60951)"
     id="g34">
    <path
       d="m91.480617 232.8761h104.296063c1.02599 0 7.85197 7.40364 7.85197 8.61484v100.62746c0 1.21119-.82598 2.18627-1.85197 2.18627h-116.296063c-1.025991 0-1.85197-.97508-1.85197-2.18627v-100.62746c0-1.2112 6.825979-8.61484 7.85197-8.61484z"
       filter="url(#b)"
       opacity=".5"
       transform="matrix(1 0 0 .9333333 .000003 31.525086)"
       id="path14" />
    <rect
       fill="url(#d)"
       height="40"
       rx="6.45639"
       ry="8.000001"
       width="112"
       x="87.628647"
       y="252.8761"
       id="rect16" />
    <path
       d="m87.62865 284.8761h112v64h-112z"
       fill="url(#c)"
       id="path18" />
    <path
       d="m157.83131 274.49507v-2.7448z"
       fill="#fff"
       fill-opacity=".756881"
       id="path20" />
    <path
       d="m87.628653 274.8761h111.999997v74h-111.999997z"
       fill="#fff"
       id="path22" />
    <g
       fill="#c41abb"
       id="g32">
      <path
         d="m191.62883 278.8183-24.90719 6.20776 8.25714 6.98473-10.80773 10.80771 3.4576 3.4576 10.8077-10.80773 6.98472 8.25713z"
         id="path24" />
      <path
         d="m191.38621 342.87607-6.20769-24.90697-6.98468 8.25706-10.80763-10.80763-3.45756 3.45757 10.80763 10.8076-8.25705 6.98467z"
         id="path26" />
      <path
         d="m95.53131 278.8183 24.90719 6.20776-8.25714 6.98473 10.80773 10.80771-3.4576 3.4576-10.8077-10.80773-6.98472 8.25713z"
         id="path28" />
      <path
         d="m95.77393 342.87607 6.20769-24.90697 6.98468 8.25706 10.80763-10.80763 3.45756 3.45757-10.80763 10.8076 8.25705 6.98467z"
         id="path30" />
    </g>
  </g>
</svg>
