<svg height="128" viewBox="0 0 33.866666 33.866668" width="128" xmlns="http://www.w3.org/2000/svg" xmlns:xlink="http://www.w3.org/1999/xlink"><filter id="a" color-interpolation-filters="sRGB" height="1.077086" width="1.067544" x="-.033772" y="-.038543"><feGaussianBlur stdDeviation="1.7187398"/></filter><linearGradient id="b" gradientUnits="userSpaceOnUse" x1="317.46893" x2="317.87198" y1="177.17514" y2="73.401131"><stop offset="0" stop-color="#f7f7f7"/><stop offset=".86046815" stop-color="#c3c3c3"/><stop offset="1" stop-color="#ececec"/></linearGradient><linearGradient id="c" gradientUnits="userSpaceOnUse" x1="286.4264251" x2="286.4264251" y1="159.65576423675" y2="149.65576523675"><stop offset="0" stop-color="#e1e1e1"/><stop offset="1" stop-color="#fff"/></linearGradient><linearGradient id="d" gradientUnits="userSpaceOnUse" x1="282.42643" x2="282.42643" y1="151.655739" y2="157.655699"><stop offset="0" stop-color="#de4814"/><stop offset="1" stop-color="#ff6000"/></linearGradient><g transform="matrix(.24981596 0 0 .24981596 -61.117806 -13.90523)"><path d="m258.37825 73.04211c-3.89026 0-7.02161 3.754433-7.02161 8.419091v90.185029c0 .36285.0256.7172.0623 1.0677v7.16438h5.48337c.47628.12143.96855.187 1.4759.187h108.09896c.50736 0 .99963-.0656 1.47591-.187h5.48337v-7.16438c.0368-.3505.0623-.70485.0623-1.0677v-90.185029c0-4.664658-3.13135-8.419091-7.02162-8.419091z" fill="#b2b2b2" fill-opacity=".757353" filter="url(#a)" transform="matrix(1.0004531 0 0 .98618313 -.141546 2.515607)"/><path d="m259.92773 74.576172c-3.77873 0-6.82031 3.646802-6.82031 8.177734v87.599614c.12077 2.60797.006 5.50439.006 8.17578l6.81445.002h105l6.81627-.0009.004-8.17688v-87.599614c0-4.530932-3.04158-8.177734-6.82032-8.177734z" fill="#999"/><rect fill="url(#b)" height="101.67484" rx="6.737666" ry="8.078875" width="116.50245" x="254.18335" y="75.785042"/><path d="m254.18335 98.026413h116.50243v79.433479h-116.50243z" fill="#ececec"/><rect fill="#1a1a1a" height="60.369442" rx="2.531074" ry="2.892655" width="99.556618" x="262.65625" y="107.55843"/><path d="m254.18335 98.026413h116.50243v1.059117h-116.50243z" fill="#6d6d6d"/><g transform="translate(23.008153 -9.912586)"><path d="m284.33268 123.65573c-1.59773 3.32467-3.14983 6.74054-4.65626 10.25-1.4608 3.46312-2.97923 7.12125-4.53125 11-.34307.88333-.68344 1.84032-1.03123 2.75h10.15624c.10906-.30296.23573-.63912.34376-.93749.73037-1.89331 1.3753-3.61771 1.96874-5.1875.59347-1.5701 1.10598-2.95573 1.56248-4.15626.45648-1.20053.80299-2.15096 1.03126-2.84376.27389.6928.63728 1.64296 1.09376 2.84376.4565 1.20053 1.00037 2.58616 1.59376 4.15626.63909 1.56979 1.28402 3.29419 1.96874 5.1875.108.29837.23467.63453.34374.93749h10.53125c-.35592-.90997-.70893-1.8664-1.06248-2.75-1.50645-3.87875-3.02485-7.53688-4.53125-11-1.50643-3.50946-3.04166-6.92533-4.59376-10.25zm-15.34375 37.84376c-1.14995 3.21741-2.32422 6.55915-3.56251 10.15624h11.09376c.50216-1.66248 1.06275-3.37016 1.65624-5.12499.59368-1.62997 1.16445-3.24501 1.71875-4.87501h-9.46875c-.49523 0-.97184-.0592-1.43749-.15627zm40.84375 0c-.4565.0931-.92149.15627-1.40626.15627h-9.81248c.55106 1.62952 1.10512 3.24552 1.65624 4.87501.63904 1.75459 1.21658 3.46251 1.71874 5.12498h11.4375c-1.2383-3.59709-2.41256-6.93882-3.56248-10.15623-.0107.002-.0213-.002-.0312 0z" fill="#fff"/><rect height="10.591131" opacity=".5" ry="5.000011" width="48.719204" x="265.0668" y="150.30353"/><rect fill="url(#c)" height="10.591125" ry="5.000011" width="48.719204" x="265.0668" y="149.24442"/><rect fill="#fff" height="5.999999" ry="2.999999" width="30.000004" x="267.42639" y="152.6557"/><rect fill="url(#d)" height="6.354673" ry="2.999999" width="29.655153" x="267.7146" y="151.36264"/><path d="m270.42642 149.65573c-2.77 0-5 2.23-5 5 0 .17307.0133.33152.0312.5.2552-2.52741 2.37187-4.5 4.96875-4.5h37.99999c2.59688 0 4.71363 1.97259 4.96878 4.5.016-.16853.0312-.32688.0312-.5 0-2.77-2.23-5-5-5h-38.00003z" fill="#fff"/><path d="m270.72049 151.3249c-1.662 0-3 1.338-3 3 0 .1752.0339.33309.0624.5.2424-1.41547 1.4508-2.50346 2.93749-2.5l23.68755.0551c1.48669.003 2.69512 1.08453 2.93752 2.5.0285-.16693.0624-.32469.0624-.5 0-1.662-1.338-3-3-3l-23.68755-.0551z" opacity=".1"/></g><circle cx="363.02826" cy="80.451981" fill="#818181" r="2.621469"/></g></svg>