<svg height="128" viewBox="0 0 119.99999 119.99999" width="128" xmlns="http://www.w3.org/2000/svg" xmlns:xlink="http://www.w3.org/1999/xlink"><linearGradient id="a" gradientUnits="userSpaceOnUse" x1="73.62451305772" x2="83.94350771802" y1="983.63497337148" y2="971.17689737375"><stop offset="0" stop-color="#d7e0df"/><stop offset=".34224668" stop-color="#ebefef"/><stop offset=".84319139" stop-color="#658b9e"/><stop offset="1" stop-color="#7fb8d5"/></linearGradient><linearGradient id="b" gradientUnits="userSpaceOnUse" x1="94.8362530803" x2="110.12032328351" y1="975.84019116066" y2="950.84307854233"><stop offset="0" stop-color="#202020"/><stop offset="1" stop-color="#6a6a6a"/></linearGradient><radialGradient id="c" cx="-595.09961" cy="-173.72411" gradientTransform="matrix(1.0813383 0 0 .837525 708.04461 1164.1398)" gradientUnits="userSpaceOnUse" r="51.019299"><stop offset="0" stop-color="#919191"/><stop offset="1" stop-color="#494949"/></radialGradient><filter id="d" color-interpolation-filters="sRGB" height="1.109973" width="1.085177" x="-.042589" y="-.054987"><feGaussianBlur stdDeviation="1.9695531"/></filter><filter id="e" color-interpolation-filters="sRGB" height="1.028321" width="1.020823" x="-.010412" y="-.01416"><feGaussianBlur stdDeviation=".47867187"/></filter><linearGradient id="f" gradientTransform="matrix(-1.0813383 0 0 1.0813383 -580.0447 1215.3101)" gradientUnits="userSpaceOnUse" x1="-569.56433" x2="-571.492" y1="-242.89595" y2="-183.17761"><stop offset="0" stop-color="#3d3d3d"/><stop offset=".5" stop-color="#151515"/><stop offset="1" stop-color="#646464"/></linearGradient><radialGradient id="g" cx="63.526489" cy="1032.1162" gradientTransform="matrix(1.3077325 -.04076626 .04881049 1.565782 -69.940355 -588.83677)" gradientUnits="userSpaceOnUse" r="46.598072"><stop offset="0" stop-color="#2fd1fe"/><stop offset=".49999979" stop-color="#0895d4"/><stop offset="1" stop-color="#11529c"/></radialGradient><linearGradient id="h" gradientUnits="userSpaceOnUse" x1="18.925781" x2="117.1216" y1="81.909821" y2="81.909821"><stop offset="0" stop-color="#59d9ff"/><stop offset="1" stop-color="#59d9ff" stop-opacity="0"/></linearGradient><radialGradient id="i" cx="62.29789009812" cy="993.22490842191" gradientUnits="userSpaceOnUse" r="1.80540560488"><stop offset="0" stop-color="#ecfafe"/><stop offset="1" stop-color="#ecfafe" stop-opacity="0"/></radialGradient><linearGradient id="j" gradientUnits="userSpaceOnUse" x1="-11.206635" x2="-4.387304" y1="916.62079" y2="908.1272"><stop offset="0" stop-color="#1a1a1a"/><stop offset=".09261312" stop-color="#a0a0a0"/><stop offset=".21249162" stop-color="#2f2f2f"/><stop offset=".32283622" stop-color="#1a1a1a"/><stop offset=".78962636" stop-color="#b7b7b7"/><stop offset=".94217479" stop-color="#1a1a1a"/><stop offset="1" stop-color="#1a1a1a"/></linearGradient><linearGradient id="k" gradientUnits="userSpaceOnUse" x1="-45.321312" x2="-38.794209" y1="-35.529381" y2="-43.610603"><stop offset="0" stop-color="#d3f3f4" stop-opacity=".917647"/><stop offset=".07837784" stop-color="#bbeeec" stop-opacity=".917647"/><stop offset=".19590575" stop-color="#83bac1" stop-opacity=".917647"/><stop offset=".32159856" stop-color="#468481" stop-opacity=".917647"/><stop offset=".8349933" stop-color="#e1f1f1" stop-opacity=".917647"/><stop offset=".9375" stop-color="#e3edec" stop-opacity=".917647"/><stop offset="1" stop-color="#a4bfc1" stop-opacity=".917647"/></linearGradient><filter id="l" color-interpolation-filters="sRGB" height="1.072" width="1.072" x="-.036" y="-.036"><feGaussianBlur stdDeviation=".57905358"/></filter><filter id="m" color-interpolation-filters="sRGB" height="1.096" width="1.096" x="-.048" y="-.048"><feGaussianBlur stdDeviation="1.1520852"/></filter><filter id="n" color-interpolation-filters="sRGB" height="1.192" width="1.192" x="-.096" y="-.096"><feGaussianBlur stdDeviation="2.3041705"/></filter><linearGradient id="o" gradientUnits="userSpaceOnUse" x1="16.114065" x2="111.88603" y1="986.20129" y2="986.20129"><stop offset="0" stop-color="#af2ffe"/><stop offset=".54637617" stop-color="#cb2e79"/><stop offset=".58845121" stop-color="#e72d96"/><stop offset=".62563193" stop-color="#f52bd0"/><stop offset=".67476231" stop-color="#aa28ed"/><stop offset=".72042751" stop-color="#456fe1"/><stop offset=".79624641" stop-color="#42ddd4"/><stop offset=".84705782" stop-color="#7be033"/><stop offset=".89031357" stop-color="#faf37b"/><stop offset=".9443413" stop-color="#d7991d"/><stop offset="1" stop-color="#ac0000"/></linearGradient><g transform="translate(0 -932.36217)"><g transform="matrix(.95135196 0 0 .95135196 -.820679 45.690886)"><path d="m13.703872 947.38152h100.592178c2.8803 0 5.19908 2.3188 5.19908 5.19909v68.88799c0 2.8803-2.4248 4.4248-5.19908 5.1991-36.04569 10.0598-68.979104 7.6705-100.592177 0-2.799075-.6792-5.199095-2.3188-5.199095-5.1991v-68.88799c0-2.88029 2.318799-5.19909 5.199094-5.19909z" fill-opacity=".666667" filter="url(#d)"/><path d="m13.99938 945.63406h100.00116c2.86338 0 5.16854 2.30517 5.16854 5.16854v68.4832c0 2.8634-2.41056 4.3989-5.16854 5.1686-35.833906 10.0007-68.573824 7.6254-100.001159 0-2.782629-.6752-5.168548-2.3052-5.168548-5.1686v-68.4832c0-2.86337 2.305175-5.16854 5.168547-5.16854z" fill="url(#c)"/><path d="m14.582996 946.10757h98.833924c2.82996 0 5.10822 2.27826 5.10822 5.10821v63.40892c0 2.83-2.38243 4.3476-5.10822 5.1083-35.415642 9.8841-67.773414 7.5365-98.833923 0-2.750149-.6673-5.1082194-2.2783-5.1082194-5.1083v-63.40892c0-2.82995 2.2782684-5.10821 5.1082184-5.10821z" fill="url(#b)"/><g fill-rule="evenodd"><path d="m107.40026 950.99007c2.16404.28841 3.98634 1.61429 4.39777 3.61683.0549.28155.088.57084.088.86893v55.68797c0 2.4854-2.07049 3.8997-4.48576 4.4858-27.278336 6.6187-55.697284 8.6804-86.800435 0-2.39388-.6681-4.48577-2.0004-4.48577-4.4858v-19.11282h.002v.22364l41.45524-36.84278 4.678236-4.44176h45.150629z" fill="url(#o)"/><path d="m14 945.63364c-2.863373 0-5.1699219 2.30656-5.1699219 5.16993v63.90043c0 2.9258 2.4379909 4.5894 5.2812499 5.2793 16.890959 4.0984 34.154326 6.709 52.052734 6.7793 15.402982-.042 31.288885-2.0148 47.835938-6.6329 2.75798-.7697 5.16992-2.3065 5.16992-5.1699v-21.95116l-55.687498-43.9121-3.646484-3.4629z" fill-opacity=".606557" filter="url(#e)"/><path d="m13.998613 945.63449c-2.493188.33227-4.5926601 1.85982-5.0666651 4.16695-.063258.32436-.1013214.65765-.1013214 1.00108v64.15798c0 2.8634 2.3854105 4.4929 5.1680405 5.1681 31.427334 7.6255 64.168766 10.0007 100.002663 0 2.75799-.7697 5.16804-2.3047 5.16804-5.1681v-19.63514h-.002v.25766l-56.850521-44.83118-5.389789-5.11734h-42.928286z" fill="url(#f)"/><path d="m20.599736 950.99007c-2.164041.28841-3.986343 1.61429-4.397771 3.61683-.05491.28155-.08795.57084-.08795.86893v55.68797c0 2.4854 2.070491 3.8997 4.485762 4.4858 27.278334 6.6187 55.697282 8.6804 86.800433 0 2.39388-.6681 4.48577-2.0004 4.48577-4.4858v-19.11282h-.002v.22364l-45.20524-36.84278-4.678236-4.44176h-41.400629z" fill="url(#g)"/></g><path d="m44.199572 1000.8187-1.050096-1.97888.882569 2.08128-.923767-2.04093.750141 2.13263-.793791-2.09494.614752 2.17554-.660683-2.14066.476938 2.20986-.524968-2.17794.337241 2.23544-.387181-2.2066.196214 2.2522-.247866-2.22655.05441 2.26005-.107571-2.23769-.08761 2.25899.03315-2.24002-.229276 2.24902.173733-2.2335-.370043 2.2302.313635-2.21821-.509349 2.20261.452299-2.19417-.646645 2.16627.589178-2.16144-.781388 2.12134.723731-2.12012-.913048 2.06812.855428-2.07053-1.041104 2.00673.983749-2.01275-1.165052 1.93735 1.108189-1.94696-1.284403 1.86036 1.228255-1.87352-1.398683 1.77612 1.343472-1.79278-1.507444 1.68478 1.453388-1.70488-1.610256 1.58678 1.557568-1.61023-1.706712 1.48253 1.655601-1.50924-1.796433 1.37244 1.7471-1.4023-1.879065 1.2569 1.831705-1.28981-1.954281 1.13651 1.90908-1.17233-2.021783 1.01152 1.978921-1.0501-2.081308.88257 2.040952-.92377-2.132617.75015 2.094929-.7938-2.175512.61476 2.140638-.66069-2.209819.47694 2.177898-.52497-2.235405.33724 2.206563-.38718-2.25217.19622 2.22652-.24787-2.260046.0544 2.237691-.10757-2.259003-.0876 2.240029.0331-2.249044-.22928 2.233528.17374-2.23021-.37004 2.218212.31363-2.202574-.50935 2.194141.4523-2.166245-.64664 2.161411.58917-2.121368-.78139 2.120152.72374-2.068118-.91305 2.070525.85543-2.006706-1.04111 2.012726.98375-1.937375-1.16505 1.946984 1.10819-1.860397-1.2844 1.873558 1.22825-1.776078-1.39868 1.792739 1.34347-1.684749-1.50745 1.704843 1.45339-1.586771-1.61025 1.61022 1.55757-1.482531-1.70672 1.509242 1.6556-1.372441-1.79643 1.402309 1.7471-1.256934-1.87906 1.28984 1.8317-1.136466-1.95428 1.172281 1.90908-1.011513-2.02178 1.050096 1.97892-.882568-2.08131.923766 2.04095-.750141-2.13261.793791 2.09492-.614752-2.17551.660683 2.14064-.476937-2.20982.524967 2.1779-.337241-2.23541.387181 2.20657-.196213-2.25217.247865 2.22652-.05441-2.26005.107571 2.23769.08761-2.259-.03315 2.24003.229277-2.24905-.173734 2.23353.370043-2.23021-.313635 2.21821.509349-2.20257-.452299 2.19414.646645-2.16624-.589178 2.16141.781388-2.12137-.723731 2.12015.913048-2.06812-.855428 2.07053 1.041105-2.00671-.98375 2.01273 1.165052-1.93738-1.108189 1.94699 1.284403-1.8604-1.228254 1.87356 1.398683-1.77608-1.343473 1.79274 1.507444-1.68475-1.453388 1.70484 1.610256-1.58677-1.557568 1.61022 1.706712-1.48253-1.655601 1.50924 1.796433-1.37244-1.7471 1.40231 1.879065-1.25693-1.831705 1.28984 1.954281-1.13647-1.90908 1.17228 2.021783-1.01151-1.978921 1.0501 2.081308-.88257-2.040952.92376 2.132617-.75014-2.094928.79379 2.175511-.61475-2.140638.66068 2.209819-.47693-2.177898.52496 2.235406-.33724-2.206564.38718 2.25217-.19621-2.22652.24787 2.260046-.0544-2.237691.10758 2.259003.0876-2.240029-.0331 2.249044.22927-2.233528-.17373 2.23021.37004-2.218212-.31363 2.202574.50935-2.194141-.4523 2.166246.64664-2.161412-.58918 2.121368.78139-2.120152-.72373 2.068118.91305-2.070525-.85543 2.006706 1.04111-2.012726-.98375 1.937375 1.16505-1.946984-1.10819 1.860397 1.2844-1.873558-1.22825 1.776078 1.39868-1.792739-1.34347 1.68475 1.50749-1.704844-1.45344 1.586772 1.61024-1.610221-1.55755 1.482532 1.70675-1.509243-1.65564 1.372441 1.79644-1.402309-1.7471 1.256934 1.8791-1.28984-1.83174 1.136466 1.95424-1.172281-1.90904z" fill="#fff" opacity=".84" stroke-width=".252407"/><path d="m63.287404 994.73523-.759116-1.15981.423481 1.33253-.501389-1.29229.137177 1.39146-.22175-1.3683-.155122 1.38958.06758-1.3845-.440643 1.32696.353959-1.3402-.706904 1.20635.624867-1.23731-.942271 1.03301.868466-1.08036-1.136456.81453 1.074107-.87619-1.280972.56045 1.232806-.63373-1.369504.28188 1.337625-.36356-1.398182-.009 1.383983-.0775-1.365752-.29952 1.369854.21193-1.273632-.57693 1.295857.49211-1.12585-.82913 1.165224.75078-.928861-1.04509.983665.97664-.691277-1.21538.759115 1.15981-.423481-1.33253.501389 1.29229-.137177-1.39146.22175 1.36829.155122-1.38957-.06758 1.3845.440642-1.32696-.353959 1.34019.706904-1.20635-.624867 1.23732.942271-1.03301-.868465 1.08036 1.136455-.81453-1.074107.87619 1.280972-.56045-1.232806.63373 1.369504-.28188-1.337624.36356 1.398181.009-1.383983.0775 1.365752.29953-1.369854-.21193 1.273633.57693-1.295857-.49211 1.125849.82913-1.165224-.75078.928862 1.04509-.983666-.97664z" fill="url(#i)" opacity=".84" stroke-width=".145823"/><path d="m104.45117 60.302734c-6.695974 2.652398-67.125751 26.631717-85.525389 35.673828.838974.652016 1.899215 1.117989 3.046875 1.396485 18.419512 4.469233 37.328297 6.986993 57.140625 5.886723 13.671161-9.154289 32.051759-21.392758 35.539059-23.294926 5.55584-3.030454 0-6.566406 0-6.566406l-56.568356 22.728515 52.527346-26.263672-2.07813-6.234375z" fill="url(#h)" opacity=".22" transform="matrix(.93749995 0 0 .93749995 0 924.36216)"/><path d="m30.993694 999.10954-.662101-1.24774.556473 1.3123-.582448-1.28685.472974 1.34464-.500497-1.32088.387611 1.37169-.416571-1.3497.300716 1.39332-.330999-1.37319.212635 1.40945-.244123-1.39127.123715 1.42003-.156282-1.40386.03431 1.425-.06783-1.4109-.05524 1.42433.0209-1.41237-.144563 1.41806.109542-1.40827-.233318 1.40618.197752-1.39862-.321152 1.38876.285181-1.38344-.407719 1.36585.371485-1.3628-.492676 1.33755.456323-1.33679-.575691 1.30398.539361-1.3055-.656432 1.26526.620268-1.26905-.734582 1.22154.698729-1.2276-.809834 1.17301.774432-1.18131-.88189 1.11984.847079-1.13034-.950466 1.06226.916383-1.07493-1.01529 1.00048.982069-1.01527-1.076107.93476 1.043881-.9516-1.132677.86534 1.101572-.88417-1.184778.79251 1.154917-.81326-1.232203.71656 1.203703-.73914-1.274764.63777 1.247738-.6621-1.312294.55647 1.28685-.58244-1.344647.47297 1.320883-.5005-1.371691.38761 1.349703-.41657-1.393323.30072 1.373196-.331-1.409455.21264 1.39127-.24413-1.420026.12372 1.403854-.15629-1.424992.0343 1.410896-.0678-1.424334-.0552 1.412371.0209-1.418055-.14456 1.408272.10954-1.40618-.23332 1.398615.19775-1.388755-.32115 1.383438.28518-1.365849-.40772 1.362801.37149-1.337553-.49268 1.336786.45632-1.303978-.57569 1.305496.53936-1.265257-.65643 1.269053.62027-1.221543-.73458 1.227601.69873-1.173007-.80984 1.181306.77444-1.119843-.88189 1.130347.84707-1.062259-.95046 1.074929.91638-1.000482-1.01529 1.015267.98207-.934758-1.07611.9516 1.04388-.865344-1.13267.884176 1.10157-.792515-1.18478.813263 1.15492-.716559-1.2322.739141 1.2037-.637774-1.27477.6621 1.24774-.556472-1.31229.582448 1.28685-.472974-1.34465.500497 1.32088-.387611-1.37169.416571 1.34971-.300716-1.39333.330999 1.3732-.212635-1.40946.244123 1.39127-.123715-1.42002.156282 1.40385-.03431-1.42499.06783 1.4109.05524-1.42434-.0209 1.41237.144563-1.41805-.109542 1.40827.233318-1.40618-.197752 1.39861.321152-1.38875-.285181 1.38344.407719-1.36585-.371485 1.3628.492676-1.33755-.456323 1.33678.575691-1.30397-.539361 1.30549.656432-1.26526-.620268 1.26906.734582-1.22155-.698729 1.22761.809834-1.17301-.774432 1.1813.88189-1.11984-.847079 1.13035.950466-1.06226-.916383 1.07493 1.01529-1.00048-.982069 1.01526 1.076107-.93475-1.043881.9516 1.132677-.86535-1.101572.88418 1.184778-.79252-1.154917.81326 1.232203-.71655-1.203703.73914 1.274764-.63778-1.247738.6621 1.312294-.55647-1.28685.58245 1.344646-.47297-1.320882.50049 1.371691-.38761-1.349703.41657 1.393323-.30071-1.373196.331 1.409455-.21264-1.39127.24412 1.420026-.12371-1.403854.15628 1.424992-.0343-1.410896.0678 1.424334.0552-1.412371-.0209 1.418055.14456-1.408272-.10954 1.40618.23331-1.398615-.19775 1.388755.32116-1.383438-.28519 1.365849.40772-1.362801-.37148 1.337553.49267-1.336786-.45632 1.303978.57569-1.305496-.53936 1.265257.65643-1.269053-.62027 1.221543.73459-1.227601-.69873 1.173007.80983-1.181306-.77443 1.119843.88189-1.130347-.84708 1.062259.95047-1.074929-.91639 1.000482 1.01529-1.015267-.98207.934758 1.07611-.9516-1.04388.865344 1.13268-.884176-1.10157.792515 1.18477-.813263-1.15491.716559 1.2322-.739141-1.2037z" fill="#fff" opacity=".84" stroke-width=".159146"/></g><g transform="matrix(.78158488 0 0 .78158488 19.857854 222.92471)"><path d="m74.021539 1010.3806-16.4021-14.74075-4.633601 21.56035-1.174738-22.02133-18.521925 11.96903 14.740771-16.40211-21.560356-4.6336 22.021335-1.17474-11.969023-18.52192 16.402101 14.74077 4.633601-21.56036 1.174737 22.02134 18.521926-11.96903-14.740771 16.4021 21.560356 4.6336-22.021336 1.17474z" fill="#b3ffff" filter="url(#n)" transform="matrix(1.2775011 0 0 1.2775011 -15.337966 -274.2816)"/><path d="m74.021539 1010.3806-16.4021-14.74075-4.633601 21.56035-1.174738-22.02133-18.521925 11.96903 14.740771-16.40211-21.560356-4.6336 22.021335-1.17474-11.969023-18.52192 16.402101 14.74077 4.633601-21.56036 1.174737 22.02134 18.521926-11.96903-14.740771 16.4021 21.560356 4.6336-22.021336 1.17474z" fill="#0ff" filter="url(#m)"/><path d="m67.855538 1003.1111-10.664787-8.8208-3.424612 13.4096-1.303891-13.77844-11.903558 7.06044 8.820807-10.6648-13.409562-3.42461 13.778395-1.30389-7.060426-11.90356 10.664787 8.82081 3.424611-13.40956 1.303892 13.77839 11.903558-7.06043-8.820807 10.66479 13.409562 3.42461-13.778395 1.30389z" fill="#fff" filter="url(#l)"/><g transform="matrix(.77376159 0 0 .77376159 91.806885 307.75019)"><path d="m-47.251293 874.86912c-2.123344.0593-6.438591 4.10211-4.628906 8.74878l83.133536 67.59338c.000457-.0105.0032-.0207.0037-.0311-.718518-.89449.09306-3.43847 1.876831-5.88318 1.911463-2.6198 4.242271-4.17776 5.213013-3.48449l-85.206293-66.90125c-.119597-.0324-.250284-.0461-.391837-.0421z" fill="url(#j)"/><ellipse cx="-744.10864" cy="586.10541" fill="#545454" rx="5.887474" ry="2.165508" transform="matrix(.58941631 -.80782944 .80782944 .58941631 0 0)"/><g transform="matrix(.93749995 0 0 .93749995 0 924.36216)"><path d="m-31.091797-37.916016c-3.199066 2.409966-5.725134 5.157234-5.515625 9.271485l-.478516.02539 70.421876 57.257813c.000486-.0112.0053-.02211.0059-.0332-.05454-.0679-.09849-.147374-.136719-.232422l-69.785156-56.740235.478516-.02539c-.207449-4.073788 2.269529-6.806289 5.423828-9.199219z" fill="#141414"/><path d="m-50.402344-52.792969c-2.2649.06325-6.867831 4.375583-4.9375 9.332031l18.253906 14.841797.478516-.02539c-.209509-4.114251 2.316559-6.861519 5.515625-9.271485l-18.890625-14.832031c-.12757-.03456-.266979-.04919-.417969-.04492z" fill="url(#k)"/></g></g></g><path d="m53.322632 945.31819 2.846741 4.7147c4.716424 10.35064 4.077786 14.9 6.115768 22.349 1.7103 6.5107 11.885738 17.49067 24.797311 17.61934 5.940595-.33019 11.390172-1.02861 20.879358 1.30266.6284.22913 3.00712.3954 4.58925 1.62502z" fill="url(#a)" fill-rule="evenodd"/></g></svg>