<svg height="32" viewBox="0 0 8.4666665 8.4666669" width="32" xmlns="http://www.w3.org/2000/svg" xmlns:xlink="http://www.w3.org/1999/xlink"><filter id="a" color-interpolation-filters="sRGB" height="1.077086" width="1.067544" x="-.033772" y="-.038543"><feGaussianBlur stdDeviation="1.7187398"/></filter><linearGradient id="b" gradientUnits="userSpaceOnUse" x1="91.87970030127" x2="92.40308736788" y1="150.07256856675" y2="15.31515841826"><stop offset="0" stop-color="#f7f7f7"/><stop offset=".86046815" stop-color="#c3c3c3"/><stop offset="1" stop-color="#ececec"/></linearGradient><linearGradient id="c" gradientUnits="userSpaceOnUse" x1="10.00000403" x2="18.00000335" y1="156.16668040031" y2="156.16668040031"><stop offset="0" stop-color="#de4814"/><stop offset="1" stop-color="#ff6000"/></linearGradient><g transform="matrix(.04352592 0 0 .04352592 .516036 .44744)"><path d="m258.37825 73.04211c-3.89026 0-7.02161 3.754433-7.02161 8.419091v90.185029c0 .36285.0256.7172.0623 1.0677v7.16438h5.48337c.47628.12143.96855.187 1.4759.187h108.09896c.50736 0 .99963-.0656 1.47591-.187h5.48337v-7.16438c.0368-.3505.0623-.70485.0623-1.0677v-90.185029c0-4.664658-3.13135-8.419091-7.02162-8.419091z" fill="#b2b2b2" fill-opacity=".757353" filter="url(#a)" transform="matrix(1.3278879 0 0 1.3290441 -329.53562 -81.799619)"/><path d="m15.334913 15.028639c-5.038203 0-9.0935477 4.897852-9.0935477 10.98314v117.651041c.1610261 3.50264.0079 7.39269.0079 10.98051l9.0857297.003h139.996915l9.08816-.001.005-10.98199v-117.651561c0-6.085288-4.05534-10.98314-9.09356-10.98314z" fill="#999"/><rect fill="url(#b)" height="127.65382" rx="8.749305" ry="10.490952" width="145.89006" x="12.459184" y="20.113914"/><path d="m12.459184 50.507683h145.98235v97.669487h-145.98235z" fill="#ececec"/><rect fill="#1a1a1a" height="75.984421" rx="3.14209" ry="3.59096" width="121.57507" x="24.616692" y="62.665188"/><path d="m12.459184 44.428928h145.89008v6.078754h-145.89008z" fill="#6d6d6d"/><circle cx="146.17818" cy="32.307224" fill="#818181" r="6.102767"/><g transform="matrix(4.5590288 0 0 4.5590288 12.459751 -599.91313)"><path d="m19.664745 160.66667c-.14647-.4849-.3129-.98323-.49929-1.49499-.17309-.51176-.34619-1.02358-.51925-1.53534h-5.39232c-.1731.51176-.35283 1.02358-.53923 1.53534-.1731.51184-.33286 1.01009-.47932 1.49499h-3.2353899c.51925-1.50843 1.0118899-2.90239 1.4778899-4.18187s.91869-2.48491 1.35807-3.61622c.45268-1.1313.89206-2.20198 1.31812-3.21208.43938-1.02359.89206-2.02024 1.35806-2.98994h2.97576c.4527.9697.89872 1.96635 1.33809 2.98994.43937 1.0101.87874 2.08078 1.31813 3.21208.45268 1.13131.91202 2.33674 1.37804 3.61622.46599 1.27948.95862 2.67344 1.47788 4.18187zm-3.73468-10.8284c-.0665.20206-.16644.47817-.29956.82833-.13317.35014-.28626.75418-.45936 1.21214-.17309.45786-.36615.96289-.57917 1.51512-.19973.5522-.40609 1.1313-.61912 1.7374h3.9344c-.21304-.6061-.41941-1.1852-.61913-1.7374-.19971-.55223-.39277-1.05726-.57918-1.51512-.17308-.45796-.3262-.862-.45934-1.21214-.13313-.35024-.23965-.62627-.31954-.82833" fill="#fff"/><rect fill="#383534" height="5.333373" rx="2.666688" ry="2.000013" width="16.000128" x="7.999939" y="153.33328"/><rect fill="#fff" height="2.666686" ry="1.333343" width="13.333439" x="9.333283" y="154.66663"/><rect fill="url(#c)" height="1.33333" ry=".5" width="8.000049" x="9.999955" y="155.3333"/></g></g></svg>