<svg height="32" viewBox="0 0 8.4666665 8.466667" width="32" xmlns="http://www.w3.org/2000/svg" xmlns:xlink="http://www.w3.org/1999/xlink"><linearGradient id="a" gradientUnits="userSpaceOnUse" x1="16.97045802091" x2="17.0291022116" y1="29.59623147388" y2="1.76604537276"><stop offset="0" stop-color="#3baef0"/><stop offset=".30888158" stop-color="#0f80c1"/><stop offset="1" stop-color="#3baef0"/></linearGradient><g transform="matrix(.1269755975 0 0 .1269755975 -.15514438139 -29.35465141646)"><path d="m5.203125 2c-.05748 0-.1016051.040887-.1503906.042969-.4682519-.0230567-.8896742.2822511-1.0136719.734375.00207-.00847.00194-.024659.00391-.03125.017787-.059501-.00855.015458-.025391.1035156-.0033.021394-.0059.04289-.00781.064453-.00426.033052-.00687.066297-.00781.099609-.0007457.0078-.0014.015618-.00196.023438v.019531c.0004659.011078.00112.022147.00195.033203l-.0019515 25.8573854c.0004494.337219.1708101.651505.453125.835937v.002c.012197.0081.024569.0159.037109.02344.1116829.06602.00957.0035-.03125-.02148.3064573.203495.4581662.21289.7421875.21289h20.5976565c.283648 0 .439347-.01224.742188-.21289.0013-.000664.0026-.0013.0039-.002.283644-.184356.454865-.499606.455084-.837897v-17.447229c-.000096-.29648-.131731-.577635-.359375-.767578l-9-8.5000001c-.179747-.1500837-.406459-.2323359-.640625-.2324219zm15.796875 0c-.945781-.0004656-1.363721 1.1906624-.625 1.78125l5 5c.654951.5241539 1.625347.0576173 1.625-.78125l.002-4.9453125c.000285-.2305252-.07908-.454071-.224656-.6328125.000004.0000055-.0056-.00564-.0059-.00586-.000255-.0003414-.0034-.00525-.0039-.00586-.01564-.018157-.03193-.035747-.04883-.052734-.0027-.00277-.0032-.00125-.0059-.00391-.04749-.048827-.09985-.092674-.15625-.1308594-.0018-.00116-.0062-.00671-.0078-.00781h-.002c-.0013-.0006528-.0026-.0013-.0039-.00195-.01787-.011648-.03611-.022721-.05469-.033203-.000048-.0000269.02657.021778.0332.027344-.288268-.1861766-.446465-.2070326-.720593-.2070326z" fill="#0a537e" stroke-width=".229587" transform="matrix(2.0837337 0 0 2.0837337 1.221845 231.18341)"/><path d="m5.203125 3c-.086876 0-.1601403.025951-.1914062.046875-.01.00671-.00806.00693-.00977.00781l-.0019488 25.892544c.00203.0012.0009507-.000022.00977.0059.031146.02083.104183.04687.1914063.04687h19.7988247.798827c.08722 0 .159915-.0259.191406-.04687.0089-.0059.0077-.0046.0098-.0059l-.000033-17.44723-9-8.5000005zm20.796875 25.947229v.02539c0-.02357.0052-.02869 0-.02539zm-20.9980469-25.8925415v-.027344c0 .00507-.00121.0059-.00195.00977v.019531c.0001181.000071.00158-.00176.00195-.00195zm15.9980479-.054689 5 5.0000002.002-4.9453112c-.0017-.0009445.000339-.00106-.0098-.00781-.031591-.0211184-.104542-.0468775-.19142-.0468775zm5.001952.054689c.0036.00201 0-.00499 0-.027344z" fill="url(#a)" stroke-width=".229587" transform="matrix(2.0837337 0 0 2.0837337 1.221845 231.18341)"/><path d="m20.685546 10.667955c-.802354.000077-1.561233.207485-2.18164.623047-.632985.424085-1.169922 1.143919-1.169922 2.039062v105.337896 1.34181c0 .89652.541482 1.61304 1.173828 2.03515.619469.41347 1.375768.62311 2.177734.62305h8.648438v-112.000015z" transform="matrix(.52093343 0 0 .52093343 .526928 229.79358)"/><path d="m24.142917 264.57802v4.11264l27.088538-.00005v-4.11264zm4.167467 8.28006v4.11262l22.921071.0548v-4.11262zm-4.167467 8.33498v.0256l-.000001 4.11622v.0256l27.088539-.00004v-.0256-4.11622-.0256z" fill="#90d0f6" stroke-width=".745279"/></g></svg>