<svg height="32" viewBox="0 0 8.4666665 8.466667" width="32" xmlns="http://www.w3.org/2000/svg" xmlns:xlink="http://www.w3.org/1999/xlink"><linearGradient id="a" gradientUnits="userSpaceOnUse" x1="16.97045802091" x2="17.0291022116" y1="29.59623147388" y2="1.76604537276"><stop offset="0" stop-color="#e8f03b"/><stop offset=".38350943" stop-color="#b9c10f"/><stop offset="1" stop-color="#e8f03b"/></linearGradient><g transform="matrix(.1269755975 0 0 .1269755975 -.15514438139 -29.35465141646)"><path d="m5.203125 2c-.05748 0-.1016051.040887-.1503906.042969-.4682519-.0230567-.8896742.2822511-1.0136719.734375.00207-.00847.00194-.024659.00391-.03125.017787-.059501-.00855.015458-.025391.1035156-.0033.021394-.0059.04289-.00781.064453-.00426.033052-.00687.066297-.00781.099609-.0007457.0078-.0014.015618-.00196.023438v.019531c.0004659.011078.00112.022147.00195.033203l-.0019515 25.8573854c.0004494.337219.1708101.651505.453125.835937v.002c.012197.0081.024569.0159.037109.02344.1116829.06602.00957.0035-.03125-.02148.3064573.203495.4581662.21289.7421875.21289h20.5976565c.283648 0 .439347-.01224.742188-.21289.0013-.000664.0026-.0013.0039-.002.283644-.184356.454865-.499606.455084-.837897v-17.447229c-.000096-.29648-.131731-.577635-.359375-.767578l-9-8.5000001c-.179747-.1500837-.406459-.2323359-.640625-.2324219zm15.796875 0c-.945781-.0004656-1.363721 1.1906624-.625 1.78125l5 5c.654951.5241539 1.625347.0576173 1.625-.78125l.002-4.9453125c.000285-.2305252-.07908-.454071-.224656-.6328125.000004.0000055-.0056-.00564-.0059-.00586-.000255-.0003414-.0034-.00525-.0039-.00586-.01564-.018157-.03193-.035747-.04883-.052734-.0027-.00277-.0032-.00125-.0059-.00391-.04749-.048827-.09985-.092674-.15625-.1308594-.0018-.00116-.0062-.00671-.0078-.00781h-.002c-.0013-.0006528-.0026-.0013-.0039-.00195-.01787-.011648-.03611-.022721-.05469-.033203-.000048-.0000269.02657.021778.0332.027344-.288268-.1861766-.446465-.2070326-.720593-.2070326z" fill="#7e7a0a" stroke-width=".229587" transform="matrix(2.0837337 0 0 2.0837337 1.221845 231.18341)"/><path d="m5.203125 3c-.086876 0-.1601403.025951-.1914062.046875-.01.00671-.00806.00693-.00977.00781l-.0019488 25.892544c.00203.0012.0009507-.000022.00977.0059.031146.02083.104183.04687.1914063.04687h19.7988247.798827c.08722 0 .159915-.0259.191406-.04687.0089-.0059.0077-.0046.0098-.0059l-.000033-17.44723-9-8.5000005zm20.796875 25.947229v.02539c0-.02357.0052-.02869 0-.02539zm-20.9980469-25.8925415v-.027344c0 .00507-.00121.0059-.00195.00977v.019531c.0001181.000071.00158-.00176.00195-.00195zm15.9980479-.054689 5 5.0000002.002-4.9453112c-.0017-.0009445.000339-.00106-.0098-.00781-.031591-.0211184-.104542-.0468775-.19142-.0468775zm5.001952.054689c.0036.00201 0-.00499 0-.027344z" fill="url(#a)" stroke-width=".229587" transform="matrix(2.0837337 0 0 2.0837337 1.221845 231.18341)"/><path d="m20.685546 10.667955c-.802354.000077-1.561233.207485-2.18164.623047-.632985.424085-1.169922 1.143919-1.169922 2.039062v105.337896 1.34181c0 .89652.541482 1.61304 1.173828 2.03515.619469.41347 1.375768.62311 2.177734.62305h8.648438v-112.000015z" transform="matrix(.52093343 0 0 .52093343 .526928 229.79358)"/><path d="m32.300117 264.45324c-.452743.0211-.979862.0963-2.83789.19336a.68391683.68391683 0 0 0 -.148438.0254c-.551322.1542-1.126945.3451-1.68164.66015-.0012.00065-.0027.001-.0039.002-.630108.3443-1.280999.76116-1.835937 1.3457-.708148.56417-1.211849 1.22703-1.480469 1.89844-.273895.68459-.340848 1.40303-.0078 2.01758.333036.61454 1.113955.93533 1.910156.8164s1.689871-.56287 2.769531-1.40039l-.03516.0254c1.051385-.71355 1.572251-.94222 2.126953-1.13867 2.138973-.72895 3.365333-.0419 4.058594.75391a.68391683.68391683 0 0 0 .101562.0937c.294103.22454.395077.46419.421875.83398.0268.36979-.06902.85236-.24414 1.33594-.350233.96716-.998957 1.92501-1.195313 2.19336a.68391683.68391683 0 0 0 -.0098.0156c-1.143617 1.65305-1.470817 3.72801-1.888672 5.4668a.68391683.68391683 0 0 0 -.01367.0684c-.217844 1.62303-.163614 3.87725 1.333984 5.29297 1.101979 1.15586 2.620975 1.50741 4.025391 1.56445 1.39831.0568 2.736874-.16419 3.607422-.24805l.01953-.002a.68391683.68391683 0 0 0 .02344 0c.000007 0 .0088-.002.0098-.002-.02418.003-.03696.004.0293-.002a.68391683.68391683 0 0 0 .177734-.043c2.489414-.23033 4.876096-1.68273 7.064453-3.7793a.68391683.68391683 0 0 0 .07422-.084c.05587-.0746.111455-.14673.164063-.21484v-.002c.656413-.84657 1.480568-2.44538 2.412109-3.67969a.68391683.68391683 0 0 0 .03516-.0488c.345613-.55147.485052-1.09766.654297-1.52734a.68391683.68391683 0 0 0 .002-.006c.136233-.35781.244493-.69186.369141-.97852a.68391683.68391683 0 0 0 0-.002c.08307-.19146.06062-.39598.01953-.51562-.04109-.11965-.09079-.18438-.130859-.23438-.08014-.1-.139956-.14513-.201172-.19141-.122432-.0925-.248984-.16767-.398438-.25-.298907-.16466-.677354-.34368-1.064453-.51171-.387098-.16804-.777171-.32183-1.101562-.42774-.162196-.053-.30191-.0949-.453125-.12109-.07561-.0131-.149534-.0273-.277344-.0176-.0639.005-.146205.0147-.261719.0664-.113043.0506-.270784.17477-.355468.35937-.274627.47635-.47731.97058-.638672 1.44922a.68391683.68391683 0 0 0 -.0039.0156c-.08358.26776-.163675.5175-.246093.76368-.02498.0338-.06547.0746-.09766.11718-.15683.20733-.367607.50194-.375.51172a.68391683.68391683 0 0 0 -.01563.0215c-1.213236 1.73757-1.878574 2.82974-2.679687 3.57226-.798871.74045-1.788071 1.2303-3.84375 1.76953-1.575246.31201-2.538069.29208-2.861328.10157-.16271-.0959-.258133-.20725-.34375-.53516-.08456-.32387-.112354-.85164-.05469-1.5625.05073-.28276.130706-.59513.201172-.93945.381406-1.22154.603576-2.16886 1.248047-3.04493a.68391683.68391683 0 0 0 .07227-.12304c.07196-.15903.156878-.37674.234375-.58203.03875-.10265.07416-.1989.101562-.27539.01079-.0301.01894-.0556.02734-.0801.119346-.17705.363329-.50942.570312-.96094.983164-1.41018.815316-3.15028.740235-4.56055a.68391683.68391683 0 0 0 -.0059-.0469c-.09481-.76269-.314329-1.53379-.75-2.23242a.68391683.68391683 0 0 0 -.05273-.0742c-.31825-.38562-.330922-.46531-.498047-.68555-.167124-.22024-.383025-.39656-.884765-.75586a.68391683.68391683 0 0 0 -.05078-.0312c.0016.001-.01155-.008-.0078-.006a.68391683.68391683 0 0 0 -.002-.002c-.0068-.004-.01267-.009-.02344-.0156-.03108-.0202-.07588-.0492-.128906-.084-.106046-.0695-.246673-.16203-.386719-.25391-.140046-.0919-.280475-.18277-.390625-.2539-.05508-.0356-.101774-.0656-.140625-.0898-.01943-.0121-.03545-.0219-.05469-.0332-.0096-.006-.02092-.0128-.03711-.0215-.0081-.004-.01722-.008-.0332-.0156-.01569-.007-.08658-.0359-.08984-.0371h-.002c-1.0797-.34354-1.662239-.47028-2.058593-.5039-.198355-.0168-.358212-.0113-.521485.0332-.000872.00024-.0011.002-.002.002-.895272-.1111-1.288699-.17134-1.697266-.15234zm1.523438.22265c-.01335.007-.0337.013-.04492.0195-.05478.0321-.09965.0447.03711-.0176z" fill="#f8f7a6" stroke-width=".202827"/></g></svg>