<svg height="16" width="16" xmlns="http://www.w3.org/2000/svg"><g fill="#bebebe"><path d="m11.018803 3.0280814-5.0406634.5638422v.8309251.5256876.6952637 4.468343l.046637.08479c-.033293-.01805-.065572-.03522-.1017461-.05087-.034462-.01507-.069084-.0254-.1059853-.03816-.073801-.02551-.1508144-.04808-.2331675-.06359-.082353-.01551-.1693091-.02516-.2586042-.02968-.089268-.0045-.1809356-.0033-.2755621.0042-.026582.0021-.05432.0055-.080549.0085-.012782.0015-.02546.0025-.038157.0042-.00964.0013-.020093.0029-.029677.0042-.094104.01387-.187732.03455-.2755622.05935-.08899.02511-.173801.05408-.2543648.08903-.040363.01751-.080801.0354-.1187034.05511-.037817.01967-.075113.04189-.1102247.06359-.069226.04297-.1334634.09009-.1907734.139901-.028985.02523-.054986.04958-.080549.07631-.026419.02744-.049516.05595-.07207.08479-.035963.04598-.067982.09522-.093267.144141-.00509.01-.012332.01961-.01696.02968-.04272.09169-.06359.18655-.06359.284041 0 .03211.00359.06238.00848.09327.00483.0309.011724.05948.021197.08903.00973.03087.019401.05978.033913.08903.027829.05608.066269.10758.1102247.156858.02198.02464.046421.04934.07207.07207.051298.04547.1092984.08592.1738161.122943.03217.01855.062395.03464.097506.05087.1770475.08236.3852444.13552.6189544.148379.092565.0051.190242.0035.2882801-.0042.3203931-.02532.6154573-.117403.8521225-.254365.067684-.03897.1290941-.08174.1865341-.127182.027855-.02214.055371-.04861.080549-.07207.013298-.0124.025649-.02541.038157-.03816.011816-.01203.027059-.0216.038157-.03391.0006528-.000783-.0006528-.0034 0-.0042.045612-.05091.082124-.101812.1144647-.156858.03234-.05504.058759-.11157.076309-.169577.00878-.029.016405-.0595.021197-.08903l.00848-.07631.00848-.398505.084788-4.8795657v-.033895l.148379-.01696 3.6840505-.4408989v3.8451484.1483794l-.0042.3645895c-.242486-.1071191-.5480241-.1577953-.8818416-.1314218-.3662326.0289324-.6980447.1491699-.9496284.3179561-.0244738.0164182-.0491957.0335022-.0720701.0508734-.2740613.1912121-.4451389.4421656-.4451389.7079826 0 .513725.6401327.880173 1.4244434.818206.3647116-.02881.6949936-.148973.9453896-.317955.01148-.0071.02274-.01387.03391-.0212.296409-.194338.483294-.459184.483294-.737658 0-.03899-.0056-.07306-.01271-.110225l.02543-.01696.05511-4.6336795.01271-1.2718246z" stroke-width=".652808"/><path d="m3 1c-.5539982 0-1 .446002-1 1v13c0 .553997.4460018 1 1 1h6.6464844c.06625 0 .1308594-.02539.1777344-.07227 0 0 1.4882822-1.240235 2.1757812-1.927734s1.925781-2.175781 1.925781-2.175781c.046875-.046871.074219-.111481.074219-.177731v-9.646484c0-.553998-.446003-1-1-1zm0 1h10v9.880859c-.88734.05197-2.189708.119141-3 .119141 0 .810292-.067171 2.11266-.1191406 3h-6.8808594z" stroke-width=".125"/></g></svg>