<svg height="16" width="16" xmlns="http://www.w3.org/2000/svg"><g fill="#bebebe"><g transform="matrix(1 0 0 -.94507616 0 15.560609)"><path d="m2 .59431018v14.81249982h12v-11.6392734l-3.5-3.17434737zm8 1.05699482 3 2.6452895v10.0520995h-10v-12.697389z" fill-opacity=".902043"/><path d="m10.5.59318923h-.5v3.17434737h4z"/></g><path d="m13.662871 1.2146297-7.7215059.8637179v1.272847.805271 1.065035 6.8448004l.07144.129882c-.051-.02765-.1004459-.05395-.155859-.07793-.05279-.02308-.105826-.03891-.162353-.05845-.113051-.03907-.231024-.07365-.357176-.09741s-.259355-.03854-.396141-.04546c-.136745-.0069-.277165-.005-.422118.0065-.04072.0032-.08321.0084-.123388.01299-.01958.0023-.039.0039-.05845.0065-.01476.002-.03078.0044-.04546.0065-.144153.02125-.287576.05292-.422118.09092-.136318.03846-.266236.08284-.389647.136377-.06183.02683-.123775.05422-.181835.08442-.05793.03013-.115061.06417-.168847.09741-.106044.06582-.204445.137996-.292235.214306-.0444.03864-.08423.07595-.123389.116894-.04047.04204-.07585.0857-.1103999.129882-.05509.07044-.1041381.145865-.1428701.2208-.0078.01526-.01889.03004-.02598.04546-.06544.140453-.09741.285765-.09741.435106 0 .04919.0055.09555.01299.142871.0074.04733.01796.09111.03247.136376.0149.04729.02972.09157.05195.136377.04263.0859.101514.164796.168847.240282.03367.03774.07111.07558.1103999.1104.07858.06965.1674281.13162.266259.188329.04928.02841.09558.05307.149364.07793.271209.126171.590134.207595.948141.227294.141795.0078.291421.0054.4416-.0065.490792-.03878.942784-.179844 1.305318-.389647.103682-.0597.197752-.125206.285741-.194823.04267-.03392.08482-.07446.123388-.1104.02037-.01899.03929-.03893.05845-.05845.0181-.01843.04145-.03309.05845-.05195.001-.0012-.001-.0052 0-.0065.06987-.07799.125801-.15596.175342-.240282.04954-.08432.09001-.170907.116894-.259765.01345-.04443.02513-.09115.03247-.136376l.01299-.116894.01299-.610447.129882-7.4747304v-.05195l.227294-.02598 5.643388-.675388v5.8901644.227294l-.0065.558494c-.371385-.164089-.839421-.241717-1.350777-.201317-.561011.04432-1.069295.228505-1.4546819.487059-.03749.02515-.07536.05132-.1104.07793-.419819.292907-.681883.677329-.681883 1.084518 0 .786947.9805829 1.348287 2.1820239 1.253364.558681-.04414 1.064622-.228204 1.448188-.487058.01758-.01091.03484-.02125.05195-.03247.454052-.297696.74033-.703398.74033-1.129976 0-.05972-.0086-.111918-.01947-.168848l.03896-.02598.08442-7.0980704.01947-1.948236z" transform="matrix(.65280832 0 0 .65280832 2.099567 2.235161)"/></g></svg>