<svg height="16" width="16" xmlns="http://www.w3.org/2000/svg"><g fill="#bebebe"><g transform="matrix(1 0 0 -.94507616 0 15.560609)"><path d="m2 .59431018v14.81249982h12v-11.6392734l-3.5-3.17434737zm8 1.05699482 3 2.6452895v10.0520995h-10v-12.697389z" fill-opacity=".902043"/><path d="m10.5.59318923h-.5v3.17434737h4z"/></g><path d="m7.166498 3.8643924h-.7569083q-1.1774129 0-1.5839005.3223869-.3924711.3223869-.6447738 1.4717661h-.3364036l.084101-2.3828594h7.9054872l.0841 2.3828594h-.336402q-.238286-1.163396-.644774-1.4717661-.392471-.3223869-1.5839021-.3223869h-.7569082v7.1625946q0 .770925.2382858.995194.2382861.224269 1.1073291.26632v.266319h-4.0929117v-.266319q.8690428-.05606 1.0933119-.280337.2242692-.238286.2242692-1.135362z"/></g></svg>