<svg height="16" width="16" xmlns="http://www.w3.org/2000/svg"><g fill="#bebebe"><path d="m7 3.5h-.7569083c-.7849419 0-1.3129088.1074623-1.5839005.3223869-.2616474.2149246-.2386868.7942197-.4068886 1.5604725h-.3364036l.084101-2.3828594h7.905487l.0841 2.3828594h-.336402c-.158857-.7755973-.041383-1.3548924-.312375-1.5604725-.261647-.2149246-.789615-.3223869-1.5839018-.3223869h-.7569082l-.00819 6.972167c-.0006034.51395.079429.845681.2382858.995194.1588574.149513.5279672.238286 1.1073293.26632v.266319h-2.3374251-2.3257672v-.266319c.5793619-.03737.9437992-.130819 1.0933119-.280337.1495128-.158857.2235512-.537312.2242692-1.135362z"/><path d="m3 1c-.5539982 0-1 .446002-1 1v13c0 .553997.4460018 1 1 1h6.6464844c.06625 0 .1308594-.02539.1777344-.07227 0 0 1.4882822-1.240235 2.1757812-1.927734s1.925781-2.175781 1.925781-2.175781c.046875-.046871.074219-.111481.074219-.177731v-9.646484c0-.553998-.446003-1-1-1zm0 1h10v9.880859c-.88734.05197-2.189708.119141-3 .119141 0 .810292-.067171 2.11266-.1191406 3h-6.8808594z" stroke-width=".125"/></g></svg>