<svg height="16" width="16" xmlns="http://www.w3.org/2000/svg"><g fill="#bebebe"><g transform="matrix(0 1 -.94507616 0 15.560609 0)"><path d="m2.21875.59375v14.8125h4.765625 6.796875v-11.5078125-.0859375l-3.40625-3.21875zm7.71875.65625 3.09375 2.6875.144531-.0390625.011719 10.8515625-5.1875.023438h-.0644531l-5.1230469-.023438.03125-13.46875z" fill-opacity=".902043"/><path d="m10.399923 1.0711876.121037 2.8764119 2.795.039625v-.4386957l-2.554758-2.4773408z"/></g><path d="m6.1552474 4.7626571c.1389632-.00259.2756638.049901.3549416.1465165l1.731372 2.1090134a.11462998.11462998 0 0 0 .1609619.016509l1.1143514-.903863c.175574-.1426472.4916517-.1177598.6314667.041272l2.60428 2.9612866c.09326.106079.08911.20609.02889.301287-.06021.0952-.188517.175408-.36526.175408h-9.3749963c-.168633 0-.296067-.07467-.359069-.165089-.063-.09042-.0712-.186168.0062-.29097l3.1243021-4.2324722c.072761-.098527.2035964-.156312.3425596-.1588983zm.033018.9843438a.11462998.11462998 0 0 0 -.090798.047463l-2.2287027 3.0170047a.11462998.11462998 0 0 0 .09286.183661h7.4413933a.11462998.11462998 0 0 0 .08667-.191916l-1.6570804-1.8861436a.11462998.11462998 0 0 0 -.1588986-.0123818l-1.1287968.9162446c-.1794565.1458018-.5044856.1173452-.6397203-.0474631l-1.6261276-1.9831329a.11462998.11462998 0 0 0 -.090799-.043336z" stroke-width=".938813"/></g></svg>