<svg height="16" width="16" xmlns="http://www.w3.org/2000/svg"><g fill="#bebebe"><path d="m6 5c-.1389632.0025863-.2690359.0596761-.3417969.1582031l-2.5976562 4.3339844c-.0774.104802-.068859.2005956-.00586.2910156.063002.090419.190745.2196929.359375.2207029h9.1953121c.176739.0011.305024-.080581.365234-.175781.06022-.095197.06396-.1947024-.0293-.3007812l-2.79687-3.3554688c-.139815-.1590318-.4552859-.1836628-.6308599-.0410156l-1.1152343.9042968c-.0490441.0397661-.1202063.0313159-.1601563-.0175781l-1.8867187-1.8710937c-.0792779-.0966155-.2165056-.1490744-.3554688-.1464844zm.1171875 1.2695312 1.4453125 1.4335938-.0683594-.0742188c.3609671.4417804 1.0596431.5259708 1.515625.15625l.7304688-.5917968 1.5546876 1.8046875-6.8085939-.0078125z" stroke-width=".938813"/><path d="m1 3c0-.5539982.446002-1 1-1h12c.553997 0 1 .4460018 1 1v6.6464844c0 .06625-.02539.1308594-.07227.1777344 0 0-1.240235 1.4882822-1.927734 2.1757812s-2.175781 1.925781-2.175781 1.925781c-.046871.046875-.111481.074219-.177731.074219h-8.646484c-.553998 0-1-.446003-1-1zm1 0v10h8.880859c.05197-.88734.119141-2.189708.119141-3 .810292 0 2.11266-.067171 3-.1191406v-6.8808594z" stroke-width=".125"/></g></svg>