<svg height="16" width="16" xmlns="http://www.w3.org/2000/svg"><g fill="#bebebe"><g transform="matrix(0 1 -.94507616 0 15.560609 0)"><path d="m10.399923 1.0711876.121037 2.8764119 3.2325.039625v-.4386955l-2.992258-2.477341z"/><path d="m2 .59431018v14.81249982h12v-11.5078121-.0859375l-3.84375-3.21875022zm8 1.05699482 2.8125 2.2867552.144531-.039063.042969 10.4496968h-10v-12.697389z" fill-opacity=".902043"/></g><path d="m6 5c-.1389632.0025863-.2690359.0596761-.3417969.1582031l-2.5976562 4.3339844c-.0774.104802-.068859.2005956-.00586.2910156.063002.090419.190745.2196929.359375.2207029h9.1953125c.176739.0011.305024-.080581.365234-.175781.06022-.095197.06396-.1947024-.0293-.3007812l-2.7968704-3.3554688c-.139815-.1590318-.4552859-.1836628-.6308599-.0410156l-1.1152343.9042968c-.0490441.0397661-.1202063.0313159-.1601563-.0175781l-1.8867187-1.8710937c-.0792779-.0966155-.2165056-.1490744-.3554688-.1464844zm.1171875 1.2695312 1.4453125 1.4335938-.0683594-.0742188c.3609671.4417804 1.0596431.5259708 1.515625.15625l.7304688-.5917968 1.5546876 1.8046875-6.8085939-.0078125z" stroke-width=".938813"/></g></svg>