<svg height="16" width="16" xmlns="http://www.w3.org/2000/svg"><g fill="#bebebe" transform="translate(-701.0002 268)"><path d="m704.0002-263c-.554 0-1 .446-1 1v7c0 .554.446 1 1 1h11c.554 0 1-.446 1-1v-7c0-.554-.446-1-1-1zm4 2h3v3h2l-3.5 3-3.5-3h2z"/><path d="m704.90645-266a1.0001 1.0001 0 0 0 -.84375.6875l-1 3 .9375.3125h.28125l.0625-.21875-.28125-.0937.90625-2.6875h4.03125v3h1v-3h4.03125l.90625 2.6875-.28125.0937.0625.21875h.28125l.9375-.3125-1-3a1.0001 1.0001 0 0 0 -.90625-.6875 1.0001 1.0001 0 0 0 -.0312 0h-.28125-3.71875-1-3.71875-.28125a1.0001 1.0001 0 0 0 -.0937 0z"/></g></svg>