<svg height="16" width="16" xmlns="http://www.w3.org/2000/svg"><g fill="#bebebe"><g transform="matrix(1 0 0 .94507616 0 15.560609)"><path d="m4-11.174347h8v1.058116h-8z"/><path d="m4-9.058115h8v1.058116h-8z"/><path d="m4-6.941884h8v1.058116h-8z"/><path d="m4-4.825652h5v1.058116h-5z"/></g><path d="m3 1c-.5539982 0-1 .446002-1 1v13c0 .553997.4460018 1 1 1h6.6464844c.06625 0 .1308594-.02539.1777344-.07227 0 0 1.4882822-1.240235 2.1757812-1.927734s1.925781-2.175781 1.925781-2.175781c.046875-.046871.074219-.111481.074219-.177731v-9.646484c0-.553998-.446003-1-1-1zm0 1h10v9.880859c-.88734.05197-2.189708.119141-3 .119141 0 .810292-.067171 2.11266-.1191406 3h-6.8808594z" stroke-width=".125"/></g></svg>