<?xml version="1.0" encoding="UTF-8" standalone="no"?>
<!-- Created with Inkscape (http://www.inkscape.org/) -->

<svg
   xmlns:dc="http://purl.org/dc/elements/1.1/"
   xmlns:cc="http://creativecommons.org/ns#"
   xmlns:rdf="http://www.w3.org/1999/02/22-rdf-syntax-ns#"
   xmlns:svg="http://www.w3.org/2000/svg"
   xmlns="http://www.w3.org/2000/svg"
   xmlns:xlink="http://www.w3.org/1999/xlink"
   xmlns:sodipodi="http://sodipodi.sourceforge.net/DTD/sodipodi-0.dtd"
   xmlns:inkscape="http://www.inkscape.org/namespaces/inkscape"
   id="svg7384"
   height="16"
   width="16"
   version="1.1"
   inkscape:version="0.92.2 (unknown)"
   sodipodi:docname="text-html-symbolic.svg">
  <defs
     id="defs10">
    <linearGradient
       id="linearGradient4565">
      <stop
         style="stop-color:#161616;stop-opacity:1;"
         offset="0"
         id="stop4567" />
      <stop
         style="stop-color:#3a3a3a;stop-opacity:1;"
         offset="1"
         id="stop4569" />
    </linearGradient>
    <linearGradient
       id="linearGradient3569">
      <stop
         style="stop-color:#161616;stop-opacity:1;"
         offset="0"
         id="stop3571" />
      <stop
         style="stop-color:#3a3a3a;stop-opacity:1;"
         offset="1"
         id="stop3573" />
    </linearGradient>
    <linearGradient
       y2="-40.636906"
       x2="54.675591"
       y1="40.918156"
       x1="136.23065"
       gradientUnits="userSpaceOnUse"
       id="linearGradient4548"
       xlink:href="#linearGradient3569"
       inkscape:collect="always" />
  </defs>
  <sodipodi:namedview
     pagecolor="#ffffff"
     bordercolor="#666666"
     borderopacity="1"
     objecttolerance="10"
     gridtolerance="10"
     guidetolerance="10"
     inkscape:pageopacity="0"
     inkscape:pageshadow="2"
     inkscape:window-width="1317"
     inkscape:window-height="716"
     id="namedview8"
     showgrid="false"
     inkscape:zoom="14.75"
     inkscape:cx="-5.8678593"
     inkscape:cy="14.489547"
     inkscape:window-x="49"
     inkscape:window-y="27"
     inkscape:window-maximized="1"
     inkscape:current-layer="svg7384" />
  <metadata
     id="metadata90">
    <rdf:RDF>
      <cc:Work
         rdf:about="">
        <dc:format>image/svg+xml</dc:format>
        <dc:type
           rdf:resource="http://purl.org/dc/dcmitype/StillImage" />
        <dc:title>Gnome Symbolic Icon Theme</dc:title>
      </cc:Work>
    </rdf:RDF>
  </metadata>
  <title
     id="title9167">Gnome Symbolic Icon Theme</title>
  <g
     id="g3130">
    <path
       inkscape:connector-curvature="0"
       d="m 8.0493006,2.8313495 c -2.4660808,0 -4.4652323,1.9991515 -4.4652323,4.4652323 0,2.4660808 1.9991515,4.4652332 4.4652323,4.4652332 2.4660814,0 4.4652324,-1.9991524 4.4652324,-4.4652332 0,-2.4660808 -1.999151,-4.4652323 -4.4652324,-4.4652323 z M 8.3632622,3.4069458 C 9.0700694,3.4631018 9.7136824,3.7049052 10.264475,4.087196 10.249575,4.138714 10.158956,4.067326 10.107494,4.052312 10.042164,4.033279 9.9835894,3.98607 9.9156283,3.982543 9.8198713,3.977523 9.7237962,4.012516 9.6365512,4.052312 9.5719782,4.081783 9.4949028,4.11146 9.462128,4.1744082 c -0.016131,0.030922 0.016689,0.074011 0,0.1046539 -0.056262,0.1034147 -0.2533182,0.08235 -0.2965193,0.1918654 -0.035164,0.089199 -0.020874,0.2477869 0.069769,0.279077 0.062664,0.0216 0.091024,-0.1287494 0.1569807,-0.1220961 0.053359,0.00558 0.063334,0.087948 0.104654,0.1220961 0.036112,0.029861 0.078309,0.086497 0.1220962,0.069769 0.068698,-0.026233 0.068173,-0.1357822 0.069769,-0.2093078 0.00112,-0.042308 -0.037062,-0.079821 -0.034884,-0.1220961 0.00167,-0.031257 0.016967,-0.061536 0.034884,-0.087212 0.044764,-0.064148 0.1013943,-0.1289559 0.174423,-0.1569808 0.021713,-0.00831 0.056728,-0.019257 0.069766,0 0.035103,0.051852 -0.057925,0.1129314 -0.069766,0.1744232 -0.00988,0.051406 -0.039907,0.1231566 0,0.1569808 0.053974,0.045712 0.1819644,-0.100116 0.2093084,-0.034885 0.03059,0.072928 -0.1492116,0.072945 -0.1918659,0.1395385 -0.015959,0.02495 -0.0022,0.061676 -0.017411,0.087212 -0.050288,0.085281 -0.1305243,0.1685514 -0.22675,0.1918655 -0.07539,0.018252 -0.1784586,0.00838 -0.22675,-0.052299 -0.028969,-0.036391 0.041024,-0.1175919 0,-0.1395386 -0.03695,-0.019759 -0.09271,0.029583 -0.104654,0.069769 -0.012614,0.042419 0.076702,0.08513 0.052299,0.1220962 -0.031983,0.048559 -0.1243121,-0.029471 -0.1744232,0 -0.051573,0.030364 -0.053024,0.1078409 -0.087212,0.1569808 -0.030643,0.043983 -0.05797,0.095757 -0.1046539,0.1220962 -0.061604,0.034773 -0.1877239,-0.032485 -0.2093077,0.034885 -0.017582,0.054811 0.09291,0.072488 0.1220962,0.1220961 0.021489,0.036503 0.060376,0.088306 0.034885,0.1220962 -0.031536,0.04175 -0.1062782,-0.012949 -0.1569808,0 -0.07059,0.017972 -0.1546758,0.042029 -0.1918655,0.1046539 -0.053416,0.089991 -0.074,0.2399616 0,0.3139616 0.02054,0.02054 0.060353,-0.011107 0.087212,0 0.037955,0.01574 0.046774,0.079878 0.087212,0.087212 0.069128,0.012559 0.14416,-0.035666 0.1918654,-0.087212 0.046216,-0.049955 0.026959,-0.1389692 0.069769,-0.1918654 0.034493,-0.042643 0.1072884,-0.042866 0.1395385,-0.087212 0.014066,-0.019368 3.405e-4,-0.052969 0.017414,-0.069769 0.055369,-0.054364 0.1529397,-0.076183 0.22675,-0.052299 0.058812,0.018978 0.073185,0.1017514 0.1220962,0.1395385 0.041136,0.031815 0.124167,0.020093 0.1395385,0.069769 0.017693,0.057188 -0.1244293,0.1100958 -0.087212,0.1569808 0.026289,0.033154 0.090147,-0.00714 0.1220962,-0.034885 C 9.749496,5.8288031 9.785033,5.765944 9.776064,5.7093863 9.763784,5.6321333 9.5872571,5.6064189 9.6190831,5.534964 c 0.00943,-0.021266 0.048002,-0.00821 0.069769,0 0.057852,0.021712 0.1085781,0.068603 0.1395384,0.1220962 0.029693,0.051295 0.010214,0.1205111 0.034883,0.1744232 0.027572,0.060275 0.057933,0.1736529 0.1220966,0.1569808 0.074016,-0.0192 -0.010161,-0.1649513 0.034883,-0.2267501 0.01529,-0.020986 0.04448,-0.040969 0.06977,-0.034885 0.105122,0.025396 0.0972,0.2093412 0.191864,0.2616346 0.07143,0.039462 0.167419,-0.010214 0.244193,0.017414 0.04705,0.016968 0.11191,0.038233 0.122096,0.087212 0.007,0.03321 -0.03059,0.061202 -0.0523,0.087212 -0.03962,0.047443 -0.08169,0.1003562 -0.139538,0.1220963 -0.05987,0.022493 -0.128739,0.010214 -0.191866,0 C 10.173732,6.287664 10.094397,6.223442 10.002838,6.215186 9.9618661,6.211276 9.9175081,6.214066 9.8807411,6.2326 9.8365941,6.254647 9.8254291,6.3372539 9.7760879,6.3372539 c -0.1315573,0 -0.1652921,-0.2130418 -0.2790774,-0.279077 -0.057327,-0.033265 -0.1257347,-0.04761 -0.1918592,-0.052299 -0.093513,-0.00664 -0.1870598,0.016968 -0.279077,0.034885 -0.08859,0.017247 -0.1856477,0.021042 -0.2616347,0.069769 C 8.5801776,6.2286433 8.4568703,6.4277648 8.34582,6.6163594 8.2729585,6.7400967 8.1594355,6.8769783 8.1888391,7.0175327 c 0.00676,0.032205 0.066526,0.037062 0.069769,0.069769 0.00826,0.083444 -0.1318695,0.125808 -0.1395385,0.2093078 -0.012167,0.1322826 0.08605,0.2539712 0.1569808,0.3662886 0.1033869,0.1637065 0.1907603,0.4202565 0.3837309,0.4360578 0.082356,0.00676 0.1096884,-0.1656545 0.1918654,-0.1569808 0.037005,0.00391 0.033155,0.080402 0.069769,0.087212 0.079409,0.014791 0.1292015,-0.1324611 0.2093078,-0.1220962 0.032597,0.00447 0.039405,0.057183 0.069769,0.069769 0.059086,0.024503 0.1336276,-0.0264 0.1918654,0 0.056279,0.025564 0.1085944,0.079224 0.1220962,0.1395385 0.018474,0.082607 -0.08859,0.1616582 -0.069769,0.2441925 0.015573,0.068262 0.11671,0.090795 0.1395385,0.1569808 0.030419,0.088116 -0.038959,0.1883825 -0.017414,0.279077 0.018643,0.078593 0.1194952,0.1285764 0.1220962,0.2093077 0.00223,0.064969 -0.070847,0.1115136 -0.087212,0.1744232 -0.032262,0.1239157 -0.037676,0.2572923 -0.017414,0.3837309 0.028466,0.1780675 0.1483964,0.3308121 0.1918655,0.5058275 0.022602,0.09098 0.029077,0.185507 0.034883,0.279076 0.00282,0.04643 -0.032877,0.106647 0,0.139539 0.024669,0.02467 0.071033,0.0093 0.1046541,0 0.065341,-0.01808 0.1090796,-0.08655 0.1744226,-0.104654 0.06164,-0.01708 0.13388,0.02696 0.191866,0 0.130943,-0.06092 0.248859,-0.19018 0.279077,-0.331404 0.0089,-0.04141 -0.04733,-0.081643 -0.03488,-0.1220962 0.02674,-0.08679 0.205194,-0.083693 0.209307,-0.1744232 0.0033,-0.073928 -0.161071,-0.083093 -0.15698,-0.1569805 0.0039,-0.07434 0.113294,-0.097035 0.174423,-0.1395385 0.05565,-0.03868 0.123369,-0.060035 0.174423,-0.1046538 0.02802,-0.024503 0.06222,-0.050736 0.06977,-0.087212 0.01345,-0.064914 -0.04354,-0.1261595 -0.0523,-0.1918654 -0.0216,-0.1613567 -0.0355,-0.3295118 0,-0.4883848 0.02383,-0.1066072 0.07909,-0.2055289 0.139539,-0.2965191 0.04326,-0.065159 0.114997,-0.1084215 0.156981,-0.1744232 0.08809,-0.1384947 0.159235,-0.2926346 0.191865,-0.4535001 0.0081,-0.039908 0.03064,-0.095288 0,-0.1220962 -0.06619,-0.057959 -0.220789,0.112814 -0.261635,0.034885 -0.04013,-0.076557 0.109822,-0.1344426 0.174424,-0.1918655 0.07476,-0.066454 0.169801,-0.1075507 0.244192,-0.1744232 0.05207,-0.046773 0.114656,-0.091537 0.139538,-0.1569808 0.01859,-0.048895 0.01105,-0.1058371 0,-0.1569807 -0.0149,-0.068659 -0.01741,-0.1836495 -0.08721,-0.1918655 -0.06583,-0.00776 -0.05582,0.1583316 -0.122096,0.1569808 -0.05002,-0.00112 -0.05224,-0.086324 -0.08721,-0.1220962 -0.04064,-0.041583 -0.11354,-0.052634 -0.13954,-0.1046543 -0.0312,-0.062402 -0.06514,-0.1843136 0,-0.2093077 0.07303,-0.028019 0.08403,0.1461973 0.156981,0.1744232 0.05448,0.021098 0.119011,-0.036002 0.174423,-0.017414 0.09755,0.032652 0.124313,0.2186513 0.226751,0.2093078 0.02317,-0.00223 0.03824,-0.037062 0.0523,-0.052299 0.01674,0.1719449 0.01234,0.255668 0.0523,0.558154 0,2.0229568 -1.535739,3.6895551 -3.5059059,3.8896361 -0.1315569,0.0081 -0.2627957,0.01741 -0.4011732,0.01741 -0.6331031,0 -1.2327725,-0.151315 -1.7616737,-0.418615 -0.00591,-0.02847 0.063088,-0.02405 0.069769,-0.0523 0.00597,-0.02529 -0.039071,-0.04409 -0.034884,-0.06977 0.00921,-0.05682 0.09291,-0.07249 0.1220962,-0.122097 0.021489,-0.0365 0.00502,-0.09235 0.034885,-0.122096 0.047164,-0.0466 0.1430995,-0.0074 0.1918654,-0.0523 C 6.7715121,10.274342 6.8130834,10.118891 6.8109233,9.9828018 6.8104266,9.9514905 6.7740289,9.926839 6.7760383,9.8955893 6.7799446,9.8358523 6.8154436,9.7746091 6.86325,9.7386085 6.9252216,9.6919451 7.031098,9.736937 7.09,9.6863057 7.1613222,9.6251948 7.1791998,9.5173316 7.1946552,9.4246836 7.2137998,9.3098434 7.1444771,9.1875631 7.1772407,9.0758374 7.2053717,8.979846 7.3177616,8.9257553 7.3516639,8.8316449 7.3792925,8.7548708 7.4088021,8.6587512 7.3690782,8.5874525 7.2413056,8.3579564 6.8552696,8.408726 6.6713857,8.2211639 6.607678,8.1561781 6.6202588,8.0339145 6.5492895,7.9769716 6.4931895,7.9319843 6.393933,7.9719482 6.3399817,7.9246726 6.2557452,7.8504269 6.3143067,7.6682287 6.2178855,7.6107109 6.1373662,7.5627096 6.0295476,7.669172 5.9388085,7.6455956 5.834138,7.6184134 5.785132,7.4473448 5.6771739,7.4537301 c -0.1190878,0.00703 -0.2140912,0.134783 -0.2616347,0.2441923 -0.00447,0.01066 0.00926,0.027907 0,0.034885 -0.067581,0.050959 -0.1839398,-0.010326 -0.2441925,-0.069769 -0.043202,-0.042643 -0.043536,-0.1143657 -0.052299,-0.174423 -0.00843,-0.057524 0.04309,-0.1354083 0,-0.1744232 -0.043312,-0.039183 -0.1339905,0.059622 -0.1744232,0.017414 -0.085353,-0.089031 0.1331365,-0.2731158 0.052299,-0.3662885 -0.022884,-0.026345 -0.073453,-0.015572 -0.104654,0 -0.05202,0.02601 -0.060018,0.1022873 -0.1046538,0.1395385 -0.029973,0.025005 -0.065695,0.054197 -0.1046539,0.052299 -0.05481,-0.00279 -0.1105925,-0.040634 -0.1395384,-0.087212 -0.030866,-0.04962 -0.016968,-0.1159955 -0.017414,-0.1744231 -5.581e-4,-0.070009 -0.017581,-0.1486978 0.017414,-0.2093077 0.045992,-0.079587 0.1390026,-0.1295699 0.22675,-0.1569809 0.055481,-0.017359 0.1272592,0.033991 0.1744232,0 0.029805,-0.021489 0.00279,-0.086961 0.034885,-0.1046539 0.063043,-0.034605 0.1485694,0.013842 0.2093077,0.052299 0.069792,0.044262 0.077807,0.2155312 0.1569808,0.1918655 0.1064288,-0.031814 -0.018028,-0.2337494 0.034885,-0.331404 0.057116,-0.1053795 0.2108929,-0.1281744 0.279077,-0.2267501 0.052299,-0.075607 0.024615,-0.1942989 0.087212,-0.2616347 0.051462,-0.055369 0.1492393,-0.041303 0.2093078,-0.087212 0.05269,-0.040243 0.065705,-0.1221297 0.1220961,-0.1569808 0.075657,-0.046773 0.1892534,-5.581e-4 0.2616347,-0.052299 0.065734,-0.046941 0.162328,-0.1392649 0.1220963,-0.2093077 -0.063707,-0.1109164 -0.3580112,0.1253 -0.383731,0 -0.017805,-0.086748 0.1574442,-0.086849 0.2441925,-0.1046539 0.056954,-0.011665 0.1172569,0.010605 0.1744231,0 0.079621,-0.014791 0.1566962,-0.127834 0.2267501,-0.087212 0.066152,0.038345 -0.039796,0.2102343 0.034885,0.2267501 C 6.8199997,5.391601 6.8745875,5.282918 6.8632514,5.2210573 6.8542091,5.1718847 6.7552205,5.1818199 6.741155,5.1338465 6.7323362,5.1038178 6.7823468,5.0773055 6.7760396,5.046635 6.767779,5.0063363 6.7253592,4.9782332 6.688828,4.9594234 6.657404,4.9432369 6.6024146,4.9722609 6.5841742,4.942009 6.5651969,4.9105291 6.6224635,4.87397 6.6190588,4.8373551 6.6134772,4.7777499 6.5882487,4.7004287 6.5318472,4.6803742 6.4728447,4.6593877 6.4045993,4.7913241 6.3574241,4.7501435 6.3213115,4.7186079 6.410951,4.6547885 6.3923087,4.610605 6.3609404,4.5361752 6.2606737,4.4663501 6.183001,4.4885088 6.0754558,4.5192073 6.0421507,4.674363 6.0260202,4.7850282 c -0.00447,0.029359 0.031089,0.060883 0.017414,0.087211 -0.026345,0.050848 -0.1162018,0.029583 -0.1569805,0.06977 C 5.8271721,5.0004533 5.864295,5.1798495 5.7817998,5.168759 5.7117012,5.1593262 5.7918466,5.0140667 5.7469152,4.9594513 5.6837824,4.8827386 5.5367758,4.9263527 5.4678382,4.8547974 5.4295488,4.8150569 5.3958252,4.7493398 5.4155392,4.6978166 5.4657172,4.5664551 5.6700741,4.5738673 5.7818277,4.4885088 5.8406348,4.4435776 5.9074179,4.3985455 5.9388085,4.331528 c 0.027238,-0.058154 0.046495,-0.1346044 0.017414,-0.1918655 -0.01535,-0.030252 -0.054531,-0.043257 -0.087212,-0.052299 -0.011219,-0.00335 -0.031647,0.011163 -0.034885,0 -0.00167,-0.00591 5.581e-4,-0.011498 0,-0.017414 0.1242952,-0.085771 0.2495785,-0.1555798 0.3837308,-0.22675 0.015293,0.00838 0.00731,0.036503 0,0.052299 -0.022381,0.048671 -0.090583,0.061291 -0.1220961,0.1046538 -0.044429,0.06114 -0.1291402,0.1464206 -0.087212,0.2093078 0.032261,0.048392 0.126634,0.033098 0.1744232,0 0.040801,-0.028298 0.032485,-0.094004 0.052299,-0.1395385 -0.00335,0.066203 0.094278,0.100585 0.1569809,0.1220962 0.043983,0.015071 0.1066464,0.032876 0.1395385,0 0.032876,-0.032876 0.02534,-0.1005403 0,-0.1395385 -0.0312,-0.048002 -0.099859,-0.073783 -0.1569809,-0.069769 -0.02735,0.00167 -0.059516,0.00279 -0.087212,0.017414 0.049452,-0.055369 0.1040455,-0.1095767 0.1744232,-0.1220962 0.059762,-0.010605 0.119992,0.025452 0.1744231,0.052299 0.1157612,0.057133 0.185056,0.2336768 0.3139617,0.2267501 0.078108,-0.00447 0.1893537,-0.080195 0.1744231,-0.1569808 -0.013005,-0.0668 -0.1429879,-0.022438 -0.1918654,-0.069769 -0.044988,-0.043592 -0.019926,-0.1365022 -0.069769,-0.1744231 -0.083795,-0.063764 -0.2437347,0.043592 -0.3139615,-0.034885 -0.00391,-0.00447 0,-0.01161 0,-0.017414 0,-0.00581 -0.00391,-0.01334 0,-0.017414 0.00502,-0.00223 0.012391,0.00223 0.017414,0 0.03628,0.00592 0.068865,0.043312 0.104654,0.034885 0.040019,-0.00943 0.051183,-0.067431 0.087212,-0.087212 0.046997,-0.025786 0.10596,-0.018419 0.1569808,-0.034885 0.021043,-0.00681 0.047611,-0.036336 0.069769,-0.052299 0.011052,-0.00798 0.025564,-0.015293 0.034885,-0.017414 0.00932,-0.00223 0.011219,0.00826 0.017414,0.017414 0.027629,0.040857 -0.1087229,0.055481 -0.1046539,0.1046539 0.012391,0.1495351 0.2976301,0.1282192 0.3662886,0.2616347 0.023945,0.04655 0.018586,0.1080697 0,0.1569808 -0.024893,0.065443 -0.1303569,0.087574 -0.1395385,0.1569808 -0.018754,0.1417711 0.056195,0.3385093 0.1918654,0.3837309 0.049341,0.016466 0.1013831,-0.034438 0.1395385,-0.069769 0.074626,-0.069105 0.079112,-0.1962079 0.1569809,-0.2616347 0.1860048,-0.1562832 0.4920183,-0.415222 0.6802502,-0.2616348 0.027405,0.022382 -0.03148,0.072203 -0.017414,0.104654 0.016689,0.038457 0.062736,0.070623 0.104654,0.069769 0.079062,-0.00167 0.1821144,-0.061062 0.1918654,-0.1395385 0.00558,-0.045043 -0.042755,-0.095355 -0.087212,-0.1046539 C 8.4692815,3.9371925 8.4319805,4.0259505 8.380647,4.0176225 8.372557,4.0165025 8.364963,4.0081925 8.363233,4.0002085 8.3232147,3.8187854 8.6334367,3.6453948 8.5550998,3.4769383 8.5264106,3.4152344 8.3401435,3.4711894 8.3632343,3.4071691 Z M 5.7120306,4.1744077 c 0.024838,0.019033 -0.010493,0.067581 -0.034885,0.087212 -0.027573,0.022159 -0.090739,0.049955 -0.1046539,0.017414 0.045099,-0.037229 0.092793,-0.069468 0.1395386,-0.1046538 z m 4.7094244,0.017414 c 0.03622,0.027796 0.06948,0.058176 0.104655,0.087212 0.005,0.069814 -0.06953,0.156445 -0.13954,0.1569809 -0.09464,5.581e-4 -0.229976,-0.1226712 -0.191864,-0.2093078 0.02573,-0.058539 0.132779,0.024503 0.191864,0 0.01518,-0.00631 0.01848,-0.034159 0.03488,-0.034885 z m -1.6395772,0.209308 c -0.01948,-5.581e-4 -0.040019,0.00502 -0.052299,0.017414 -0.024671,0.024671 -0.011554,0.071734 0,0.1046538 0.012335,0.035108 0.057445,0.052076 0.069769,0.087212 0.017303,0.049397 0.00391,0.1048047 0,0.1569809 -0.00586,0.07625 -0.090153,0.1738985 -0.034885,0.2267501 0.042866,0.040969 0.1212422,-0.00865 0.1744231,-0.034885 0.055425,-0.027349 0.1374853,-0.060325 0.1395393,-0.1220957 0.00167,-0.057523 -0.09017,-0.074207 -0.1220961,-0.1220962 -0.059293,-0.088936 -0.033266,-0.2370425 -0.1220963,-0.2965194 -0.014512,-0.00971 -0.032875,-0.0168 -0.052299,-0.017414 z M 8.520243,4.6453222 C 8.500819,4.6520822 8.478046,4.6648572 8.467944,4.6802072 8.429375,4.7386572 8.423627,4.8565503 8.485358,4.889515 8.53816,4.917702 8.623356,4.859096 8.6423389,4.802303 8.6604789,4.747994 8.6249799,4.6684298 8.5725699,4.6453222 c -0.0168,-0.00743 -0.032876,-0.00676 -0.052299,0 z m 2.093077,1.8663276 c 0.08172,0.012224 0.112625,0.1221464 0.156982,0.1918654 0.08654,0.1360334 0.120522,0.3014757 0.209307,0.4360578 0.03405,0.051573 0.112843,0.078431 0.122097,0.1395386 0.0086,0.056619 -0.07834,0.1003616 -0.06977,0.1569808 0.0093,0.061107 0.147637,0.083254 0.122096,0.1395385 -0.0216,0.047666 -0.11379,0.029526 -0.156981,0 C 10.811692,7.4488351 10.869254,7.1397684 10.752856,6.9477076 10.720816,6.8948506 10.659826,6.8627126 10.63076,6.8081691 10.58828,6.7285201 10.529103,6.6309719 10.56099,6.5465344 c 0.0074,-0.019591 0.03159,-0.03801 0.0523,-0.034885 z m -6.4536554,0.505827 c 0.083852,-0.018364 0.062552,0.1649123 0.1220962,0.2267502 0.079537,0.082601 0.1909613,0.1296256 0.2965194,0.1744231 0.099988,0.042419 0.2252765,0.024503 0.3139616,0.087212 0.057948,0.040969 0.072745,0.1234246 0.1220962,0.1744232 0.060649,0.062669 0.1232237,0.1430102 0.2093078,0.1569808 0.03628,0.00591 0.0681,-0.038904 0.1046539,-0.034885 0.033712,0.00391 0.070506,0.022829 0.087212,0.052299 0.00279,0.00502 0.00112,0.011721 0,0.017414 -0.017638,0.1144941 -0.052914,0.2277604 -0.104654,0.331404 -0.022326,0.044764 -0.077879,0.072962 -0.087212,0.1220962 -0.00447,0.023554 0.017638,0.045769 0.017414,0.069769 -5.583e-4,0.090253 -0.080866,0.1720622 -0.069769,0.2616348 0.022047,0.1782185 0.1510366,0.3294615 0.2616347,0.4709424 0.073469,0.093988 0.1811545,0.1561324 0.2616347,0.2441924 0.044709,0.04895 0.1020809,0.093787 0.1220963,0.1569808 0.036894,0.1165314 -0.040466,0.2462411 -0.017414,0.3662887 0.013228,0.068992 0.08009,0.1219736 0.087212,0.1918666 0.013284,0.130495 -0.072583,0.253379 -0.087212,0.38373 -5.581e-4,0.0058 0.00564,0.01607 0,0.01741 C 4.9029025,9.8531118 4.2765979,8.8490593 4.1596646,7.6976434 4.1463248,7.5662986 4.1422502,7.4313313 4.1422502,7.2964702 c 0,-0.093898 0.01094,-0.1868365 0.017414,-0.279077 z"
       id="path6534"
       style="color:#bebebe;display:inline;overflow:visible;visibility:visible;fill:#bfbfbf;fill-opacity:0.90196078;fill-rule:nonzero;stroke:none;stroke-width:0.55815405;marker:none;enable-background:accumulate" />
    <g
       transform="matrix(1,0,0,-0.94507616,0,15.560609)"
       id="g835">
      <path
         inkscape:connector-curvature="0"
         style="fill:#bebebe;fill-opacity:0.9020427;stroke:none"
         d="m 2.21875,0.59375 v 14.8125 H 6.984375 13.78125 V 3.8984375 3.8125 L 10.375,0.59375 Z M 9.9375,1.25 13.03125,3.9375 13.175781,3.8984375 13.1875,14.75 8,14.773438 H 7.9355469 L 2.8125,14.75 2.84375,1.28125 Z"
         id="rect7217" />
      <path
         style="fill:#bebebe;fill-opacity:1;stroke:none"
         d="m 10.399923,1.0711876 0.121037,2.8764119 2.795,0.039625 V 3.5485288 L 10.761202,1.071188 Z"
         id="path7212"
         inkscape:connector-curvature="0"
         sodipodi:nodetypes="cccccc" />
    </g>
  </g>
</svg>
