<svg height="16" width="16" xmlns="http://www.w3.org/2000/svg"><g transform="matrix(1 0 0 -.94507616 0 15.560609)"><path d="m2 .59431018v14.81249982h12v-11.6392734l-3.5-3.17434737zm8 1.05699482 3 2.6452895v10.0520995h-10v-12.697389z" fill="#bebebe" fill-opacity=".902043"/><path d="m10.5.59318923h-.5v3.17434737h4z" fill="#bebebe"/><path d="m7.9975708 13.28443c-2.2082091 0-3.9983144-1.894139-3.9983144-4.2306806 0-2.3365407 1.7901053-4.2306802 3.9983144-4.2306802 2.2082092 0 3.9983132 1.8941395 3.9983132 4.2306802 0 2.3365416-1.790104 4.2306806-3.9983132 4.2306806zm.2811314-.545363c.6328982-.0532 1.2092102-.282306 1.7024075-.644516-.01334-.0488-.094485.01883-.1405657.03305-.058498.01803-.1109481.06276-.1718027.06611-.085744.0047-.1717727-.02839-.2498947-.06611-.05782-.02792-.1268365-.05605-.1561842-.115682-.014444-.02929.014944-.07013 0-.09916-.05038-.09798-.2268293-.07803-.265513-.181787-.031488-.08451-.018692-.234771.062473-.264418.056112-.02046.081506.121986.1405658.115684.047779-.0052.056711-.08333.093711-.115684.032336-.0283.070122-.08194.1093289-.06611.061514.02486.061045.128649.062473.198313.001.04009-.033186.07563-.031236.115683.00149.02961.015192.0583.031236.08263.040083.06078.090791.122184.1561841.148736.019443.0079.050797.01826.06247 0 .031433-.04912-.051868-.106999-.06247-.165263-.00885-.0487-.035734-.116686 0-.148733.04833-.04331.1629368.09486.1874215.03305.027391-.06911-.133609-.06912-.171803-.132209-.01429-.02364-.00196-.05844-.01559-.08263-.045029-.08081-.1168757-.159698-.2030393-.181787-.067507-.01729-.1597977-.008-.2030393.04955-.025939.03448.036734.111415 0 .132208-.033086.01872-.083015-.02802-.093711-.06611-.011295-.04019.068682-.08066.04683-.115684-.02864-.04601-.1113132.02792-.1561843 0-.046181-.02877-.04748-.102176-.078093-.148735-.027439-.04167-.051908-.09073-.093711-.115684-.055162-.03295-.1680941.03078-.1874209-.03305-.015743-.05193.083194-.06869.1093289-.115682.019242-.03458.054063-.08367.031237-.115683-.028239-.03956-.095165.01227-.1405658 0-.063209-.01704-.1385018-.03983-.1718026-.09915-.04783-.08526-.066261-.227355 0-.297468.018393-.01946.054042.01052.078092 0 .033986-.01492.041884-.07568.078092-.08263.0619-.0119.1290856.03379.1718025.08263.041383.04733.02414.131668.062473.181787.030886.0404.09607.04061.1249473.08263.012595.01835.0003049.0502.015593.06611.049578.05151.136947.07218.2030393.04954.052663-.01797.065532-.0964.1093289-.13221.036835-.03014.1111831-.01903.1249473-.06611.015844-.05419-.1114181-.104313-.078093-.148735.023539-.03141.08072.0068.1093289.03305.038684.0356.070504.09514.062473.148733-.010995.0732-.1690639.09756-.1405659.165262.00844.02014.042982.0079.062473 0 .051803-.02056.097225-.065.1249472-.115683.026588-.0486.00914-.114182.031235-.165262.024688-.05712.051875-.164531.1093293-.148734.066276.0182-.0091.156287.031235.214839.013691.01989.039829.03881.062475.03305.094129-.02406.087035-.198345.1718012-.24789.06395-.03739.1499126.0097.2186566-.01651.04213-.01607.100214-.03622.10933-.08263.0062-.03147-.0274-.05799-.04683-.08263-.03548-.04495-.07315-.09509-.124948-.1156831-.0536-.021311-.115276-.00968-.1718013 0-.081251.01396-.1522908.0748-.2342757.08263-.036688.0037-.076407.0011-.1093296-.0165-.03953-.02089-.049528-.099156-.09371-.099156-.1178008 0-.1480081.2018511-.2498951.2644181-.051328.03155-.1125818.04514-.1717918.04958-.083735.0063-.1674994-.01607-.2498948-.03305-.079327-.01633-.1662358-.01993-.2342772-.06609-.1649942-.111911-.2754075-.3005733-.3748457-.4792616-.0652424-.1172371-.1668947-.2469288-.1405656-.3801002.00605-.030516.05957-.03511.062473-.066101.0074-.079058-.1180799-.1191999-.124947-.198313-.010895-.1253339.077052-.2406307.1405657-.3470482.092576-.1551068.1708131-.3981811.3436051-.4131526.073744-.00644.098218.1569532.1718027.1487348.033135-.00368.029687-.076174.062473-.08263.071106-.014014.1156913.125503.187421.1156828.029189-.00421.035284-.054183.062473-.0661.052907-.023218.1196544.025009.1718026 0 .050396-.024221.09724-.075064.1093296-.1322091.0165417-.0782699-.0793265-.1531666-.0624735-.2313655.0139448-.0646768.104506-.0860242.1249473-.1487341.0272383-.083491-.034885-.1784885-.0155929-.2644186.0166934-.0744714.1069998-.1218289.1093289-.1983195.0019967-.0615564-.0634388-.1056559-.0780925-.165261-.0288885-.1174066-.0337362-.243777-.0155932-.363574.0254894-.1687139.1328791-.3134351.1718029-.4792571.020238-.0862.026036-.1757626.031235-.2644165.00253-.04399-.029439-.1010449 0-.1322093.02209-.023373.063606-.00882.093711 0 .058508.01713.097673.082003.1561836.099156.055195.016182.1198805-.025543.1718019 0 .1172506.05772.2228356.1801901.2498946.3139958.008.039235-.04238.077355-.03124.1156827.02395.082231.183738.079297.187421.1652609.0029.070044-.144229.078729-.140565.1487344.0034.070435.101449.091938.156184.1322088.04983.036648.110468.056882.156184.099157.02508.023216.05572.048072.06247.082631.01204.061504-.03898.1195326-.04684.181787-.01934.1528808-.03179.3122035 0 .462731.02134.1010073.07082.1947324.124948.2809429.03874.061741.102971.1027266.140566.165261.07888.1312203.142583.2772634.171802.4296787.0072.037814.02744.090282 0 .1156827-.05927.054916-.197701-.1068878-.234276-.03305-.03594.07254.09834.1273797.156185.1817862.06694.062966.152046.1019021.218657.1652611.04662.044315.102667.086732.124948.1487349.01664.04633.0099.100277 0 .1487349-.01334.065053-.01559.1740022-.0781.1817872-.05894.00735-.04999-.1500146-.10933-.1487349-.04478.00108-.04677.081789-.07809.1156827-.03639.0394-.101664.049867-.124948.099156-.02794.059125-.05832.1746328 0 .1983132.06539.026549.07524-.1385179.140566-.1652609.04878-.019986.106567.034116.156183.016504.08735-.030938.111315-.2071656.203041-.1983134.02073.00214.03424.03512.04683.049553.01498-.1629132.01105-.2422386.04683-.5288351 0-1.9166938-1.375151-3.495748-3.1393023-3.6853189-.1177965-.00768-.2353121-.016496-.3592198-.016496-.5669011 0-1.1038645.1433667-1.5774599.3966258-.00529.026974.056491.022787.062473.049552.00535.023962-.034985.041774-.031236.066105.00825.053835.083194.068683.1093288.1156833.019242.034582.00449.0875.031237.1156825.042233.044153.1281361.00701.1718026.049552.08965.087349.1268744.2346347.1249402.3635754-.0004447.029666-.033036.053022-.031237.082631.0035.056599.035284.1146252.078092.1487347.055492.044212.1502965.00158.2030394.049556.063864.057902.079872.160098.093712.2478794.017141.1088076-.044931.2246646-.015594.3305216.025189.090949.1258269.1421981.1561843.2313653.024739.072745.051162.1638114.015593.2313655-.1143904.2174417-.4600597.1693391-.6247153.3470485-.057046.06157-.045781.1774138-.1093289.2313655-.050234.042623-.1391113.00475-.187421.049553-.075428.070345-.022991.2429738-.109329.2974698-.0720928.0454786-.1686374-.0553917-.2498881-.0330508-.0937253.0257527-.1376069.1878369-.2342762.1817872-.1066349-.0066261-.1917042-.127703-.234276-.2313654-.00401-.010097.00829-.026442 0-.03305-.060514-.048281-.1647058.00979-.2186581.0661-.038685.040403-.038984.1083581-.04683.1652601-.00755.054506.038584.1282957 0 .1652611-.038783.037125-.1199794-.056493-.1561842-.016504-.076429.084359.1192147.2587692.04683.347048-.020492.024964-.065772.014757-.093711 0-.04658-.024642-.053742-.096914-.093711-.1322088-.026839-.023694-.058825-.051354-.093711-.049553-.049079.00269-.099029.038503-.1249472.08263-.027639.04701-.015193.1099027-.015593.165261-.0004997.066333-.015742.1408864.015593.1983132.041183.075405.1244673.1227639.2030393.1487349.049679.016449.1139519-.032208.1561841 0 .026689.020362.00251.082389.031237.099156.056451.032792.1330339-.013118.1874209-.049553.062493-.041933.069671-.2042096.1405657-.1817871.0953.03014-.016143.221471.031237.3139959.051143.099844.1888404.1214422.2498946.2148402.04683.07163.022041.184093.078093.247891.046081.05245.1336337.03912.1874211.08263.04718.03814.058834.115714.1093287.148734.067746.04431.1694637.00053.2342763.04955.058861.04448.1453537.13195.109329.198314-.057045.10509-.320575-.11872-.3436053 0-.015944.08219.1409806.08229.218658.09915.050998.01105.1049955-.0101.156184 0 .071295.01401.140311.121119.2030394.08263.059235-.03633-.035634-.199192.031237-.21484.054981-.01286.1038602.09013.09371.148735-.0081.04659-.096735.03718-.109329.08263-.0079.02845.036884.05357.031237.08263-.0074.03819-.04538.06482-.078092.08263-.028138.01533-.077377-.01215-.093711.01649-.016992.02982.034286.06446.031237.09915-.00499.05647-.027589.129734-.078092.148735-.052833.01989-.1139419-.10512-.1561841-.06611-.032336.02988.04793.09035.031237.132209-.028088.07053-.1178704.136676-.187421.115683-.0963-.02908-.1261219-.176093-.1405657-.280945-.00401-.02782.027838-.05768.015593-.08263-.023591-.04817-.1040507-.02802-.1405655-.0661-.053082-.05538-.019842-.225347-.093711-.214839-.062769.009.009.146566-.031237.198313-.056532.07267-.1881655.03137-.2498946.09915-.034286.03765-.064483.09991-.04683.148736.044931.12446.2279186.117438.3279865.198314.052659.04257.1124576.08524.1405657.148732.02439.05509.041633.127535.015593.181788-.013744.02866-.048828.04099-.078092.04955-.010046.0031-.028338-.01057-.031237 0-.00149.0055.0004998.0109 0 .0165.1112979.08125.2234807.147406.343605.214839.013694-.008.00655-.03459 0-.04955-.02004-.04612-.081111-.05807-.1093287-.09915-.039783-.05792-.1156364-.13873-.078093-.198314.028886-.04585.1133923-.03137.1561843 0 .036535.02682.029088.08907.04683.13221-.003-.06272.08442-.09529.140566-.115684.039383-.01429.095495-.03116.1249472 0 .029438.03116.022691.09525 0 .13221-.027937.04549-.089418.0699-.1405657.06611-.024491-.0016-.053292-.0026-.078093-.01651.044281.05246.093166.103821.1561843.115682.053513.0101.1074448-.02411.1561841-.04955.1036564-.05413.1657052-.221402.2811317-.214838.06994.0041.1695534.07598.156184.148733-.011645.06329-.1280361.02126-.1718026.06611-.040284.0413-.017843.129332-.062473.165261-.075033.06041-.218248-.0413-.2811314.03305-.0035.0041 0 .011 0 .0165 0 .0054-.0035.01265 0 .01649.00449.0021.011095-.0021.015593 0 .032485-.0055.061664-.04104.093711-.03305.035835.009.045831.06389.078092.08263.042082.02443.09488.01745.1405657.03305.018843.0063.042632.03443.062473.04955.00989.0076.022892.01449.031237.01651.00835.0021.010046-.0079.015593-.01651.024739-.03871-.097354-.05256-.093711-.09915.011096-.14168.2665076-.121485.3279868-.247892.021441-.04411.016643-.102392 0-.148734-.02229-.062-.1167259-.08298-.1249474-.148736-.016794-.134323.050319-.320727.1718026-.363573.044182-.0156.090781.03263.1249472.06611.066823.06548.07084.185901.1405658.247889.1665547.148075.4405693.393412.6091182.247893.024539-.02121-.028189-.06841-.015593-.09915.014944-.03643.056176-.06691.093711-.06611.070795.0016.1630712.05785.1718025.13221.00499.04268-.038284.09035-.078092.09915-.04558.0101-.078981-.07399-.1249474-.0661-.00724.0011-.014043.009-.015593.01651-.035834.171891.2419492.336175.1718037.495781-.025689.05846-.1924789.0054-.1718025.06611zm-2.3739991-.727146c.02224-.01804-.0094-.06404-.031237-.08263-.024689-.021-.08125-.04734-.093711-.01649.040383.03529.08309.06582.1249474.09915zm4.2169709-.01649c.03244-.02634.06221-.05512.09371-.08263.0044-.06614-.06226-.148227-.124948-.148735-.08474-.000529-.2059271.116228-.1718005.198313.02304.05546.1188935-.02321.1718005 0 .01359.0059.01654.03236.03123.03305zm-1.4681299-.198322c-.017443.000527-.035835-.0047-.04683-.01649-.022092-.02337-.010346-.06796 0-.09915.011045-.03327.051437-.04933.062473-.08263.015493-.04681.0035-.0993 0-.148735-.00525-.07224-.080726-.164764-.031237-.214838.038383-.03881.1085641.0083.1561841.03305.049629.0259.1231088.05716.124948.115681.00149.0545-.080741.07032-.1093289.115682-.053094.08426-.029787.224592-.109329.280945-.012994.0093-.029437.01592-.04683.01649zm-.2342761-.231366c-.017393-.0063-.037784-.01851-.04683-.03305-.034536-.05539-.039683-.167079.015593-.198312.04728-.02672.1235678.02883.1405657.08263.016243.05147-.015543.12684-.062473.148734-.015043.0071-.029438.0063-.04683 0zm1.874209-1.7682931c.07318-.011578.100849-.1157302.140566-.1817871.07749-.1288877.10792-.2856394.18742-.4131517.03049-.048863.101043-.074312.109331-.1322087.0078-.053646-.07016-.09509-.06247-.148735.0084-.057899.132199-.078879.109329-.1322088-.01933-.045166-.101893-.027973-.140566 0-.165977.1201357-.114434.4129672-.21866.5949388-.02868.050081-.0833.080535-.109329.1322088-.03804.075468-.09102.16789-.06247.2478916.0065.018562.02829.036014.04684.03305zm-5.778813-.479256c.075084.017398.056012-.1562503.1093291-.2148392.071221-.078261.1709929-.1228168.2655131-.1652612.089533-.040187.2017199-.023218.2811314-.08263.051888-.038817.065138-.1169407.1093289-.165261.054307-.059376.1103385-.1354978.187421-.1487341.032487-.00564.060978.036856.093711.03305.030187-.00368.063133-.021633.078093-.049553.00251-.00475.001-.011103 0-.016504-.015795-.108479-.047382-.2157956-.093712-.3139951-.019991-.042416-.069736-.069128-.078093-.1156828-.00401-.022314.015793-.043366.015593-.0661-.0004991-.0855143-.0724095-.1630248-.0624724-.247892.0197418-.1688545.1352431-.3121525.2342763-.4462016.065786-.089051.1622117-.147931.2342761-.2313653.040034-.046379.091407-.08886.1093291-.1487348.033036-.1104102-.036235-.2333063-.015593-.3470481.011845-.065369.071715-.1155664.078092-.181788.011895-.1236402-.064993-.2400693-.078092-.3635732-.0004997-.0055.00506-.015226 0-.016495-.8026119.6019257-1.3634254 1.5532366-1.4681314 2.6441708-.011944.1244454-.015593.252323-.015593.3800994 0 .088962.00979.1770226.015593.2644177z" fill="#bfbfbf" fill-opacity=".901961"/></g></svg>