<svg height="16" width="16" xmlns="http://www.w3.org/2000/svg"><path d="m7.9975708 3.0058109c-2.2082091 0-3.9983144 1.7901056-3.9983144 3.9983154 0 2.2082089 1.7901053 3.9983147 3.9983144 3.9983147 2.2082092 0 3.9983132-1.7901058 3.9983132-3.9983147 0-2.2082098-1.790104-3.9983154-3.9983132-3.9983154zm.2811314.5154096c.6328982.050278 1.2092102.2668006 1.7024075.6091167-.01334.04612-.094485-.017796-.1405657-.031235-.058498-.01704-.1109481-.059313-.1718027-.062479-.085744-.00444-.1717727.026831-.2498947.062479-.05782.026387-.1268365.052972-.1561842.1093283-.014444.027681.014944.066278 0 .093714-.05038.092599-.2268293.073744-.265513.1718025-.031488.079868-.018692.2218765.062473.2498952.056112.019336.081506-.1152861.1405658-.1093302.047779.00491.056711.078753.093711.1093302.032336.026746.070122.077439.1093289.062479.061514-.023495.061045-.1215831.062473-.1874209.001-.037888-.033186-.071476-.031236-.1093293.00149-.027984.015192-.055098.031236-.078092.040083-.057442.090791-.1154732.1561841-.1405669.019443-.00747.050797-.017257.06247 0 .031433.046422-.051868.1011222-.06247.1561862-.00885.046025-.035734.1102771 0 .140564.04833.040931.1629368-.08965.1874215-.031235.027391.065314-.133609.065324-.171803.1249476-.01429.022342-.00196.05523-.01559.078092-.045029.076372-.1168757.1509268-.2030393.1718026-.067507.01634-.1597977.00756-.2030393-.046829-.025939-.032586.036734-.1052957 0-.1249467-.033086-.017692-.083015.026481-.093711.062479-.011295.037983.068682.07623.04683.1093302-.02864.043483-.1113132-.026387-.1561843 0-.046181.02719-.04748.096564-.078093.1405659-.027439.039381-.051908.085747-.093711.1093302-.055162.03114-.1680941-.029089-.1874209.031235-.015743.049078.083194.064917.1093289.1093283.019242.032681.054063.079074.031237.1093292-.028239.037387-.095165-.011596-.1405658 0-.063209.016104-.1385018.037642-.1718026.093704-.04783.080577-.066261.2148678 0 .2811299.018393.018391.054042-.00994.078092 0 .033986.014101.041884.071523.078092.078092.0619.011246.1290856-.031934.1718025-.078092.041383-.04473.02414-.1244363.062473-.1718025.030886-.038181.09607-.03838.1249473-.078092.012595-.017342.0003049-.047443.015593-.062479.049578-.048681.136947-.068216.2030393-.046819.052663.016983.065532.091105.1093289.1249485.036835.028485.1111831.017985.1249473.062479.015844.051214-.1114181.098584-.078093.1405659.023539.029685.08072-.00643.1093289-.031235.038684-.033645.070504-.089915.062473-.140564-.010995-.06918-.1690639-.092202-.1405659-.1561852.00844-.019034.042982-.00747.062473 0 .051803.019431.097225.06143.1249472.1093293.026588.045931.00914.1079106.031235.1561851.024688.053983.051875.1554944.1093293.140565.066276-.0172-.0091-.1477031.031235-.2030392.013691-.018798.039829-.036678.062475-.031235.094129.022738.087035.1874511.1718012.2342749.06395.035336.1499126-.00917.2186566.015603.04213.015187.100214.034231.10933.078092.0062.029742-.0274.054805-.04683.078092-.03548.042481-.07315.089867-.124948.1093294-.0536.02014-.115276.00915-.1718013 0-.081251-.0131923-.1522908-.0706907-.2342757-.0780907-.036688-.0035-.076407-.00104-.1093296.015594-.03953.019743-.049528.09371-.09371.09371-.1178008 0-.1480081-.1907647-.2498951-.2498953-.051328-.0298173-.1125818-.0426609-.1717918-.0468571-.083735-.0059539-.1674994.0151874-.2498948.0312348-.079327.0154331-.1662358.0188354-.2342772.0624601-.1649942.1057644-.2754075.2840647-.3748457.4529387-.0652424.110798-.1668947.2333665-.1405656.3592236.00605.02884.05957.033182.062473.06247.0074.074716-.1180799.112653-.124947.1874209-.010895.1184501.077052.2274143.1405657.327987.092576.1465877.1708131.3763115.3436051.3904607.073744.00609.098218-.1483328.1718027-.1405658.033135.00348.029687.07199.062473.078092.071106.013244.1156913-.1186099.187421-.1093291.029189.00398.035284.051207.062473.06247.052907.021943.1196544-.023635.1718026 0 .050396.022891.09724.070941.1093296.1249476.016542.073971-.079327.1447541-.062473.2186581.013945.061125.104506.081299.1249473.140565.027238.078905-.034885.1686852-.015593.2498957.016693.070381.1069998.1151376.1093289.1874271.002.058175-.063439.099853-.078092.1561842-.028889.1109582-.033736.2303878-.015593.3436051.025489.1594475.1328791.29622.1718029.4529345.020238.081466.026036.166109.031235.2498937.00253.041574-.029439.095495 0 .1249479.02209.022089.063606.00834.093711 0 .058508-.016189.097673-.077499.1561836-.09371.055195-.015293.1198805.02414.1718019 0 .1172505-.05455.2228355-.1702934.2498945-.29675.008-.03708-.04238-.073106-.03124-.1093289.02395-.077715.183738-.074942.187421-.1561842.0029-.066197-.144229-.074405-.140565-.1405653.0034-.066566.101449-.086888.156184-.1249474.04983-.034635.110468-.053758.156184-.093711.02508-.021941.05572-.045432.06247-.078093.01204-.058126-.03898-.1129674-.04684-.1718025-.01934-.144484-.03179-.2950561 0-.4373161.02134-.09546.07082-.1840369.124948-.2655124.03874-.05835.102971-.097085.140566-.1561843.07888-.1240131.142583-.262035.171802-.406079.0072-.035737.02744-.085323 0-.109329-.05927-.0519-.197701.1010171-.234276.031235-.03594-.068556.09834-.1203836.156185-.1718018.06694-.059508.152046-.096305.218657-.1561844.04662-.041881.102667-.081968.124948-.1405658.01664-.043785.0099-.094769 0-.1405658-.01334-.06148-.01559-.1644453-.0781-.1718027-.05894-.00695-.04999.1417752-.10933.1405658-.04478-.00102-.04677-.077297-.07809-.109329-.03639-.037236-.101664-.047128-.124948-.09371-.02794-.055878-.05832-.1650413 0-.187421.06539-.025091.07524.1309099.140566.1561841.04878.018888.106567-.032242.156183-.015598.08735.029239.111315.1957872.203041.1874212.02073-.00202.03424-.033191.04683-.046831.01498.1539653.01105.2289339.04683.4997894 0 1.8114216-1.375151 3.3037487-3.1393022 3.4829077-.1177965.0073-.2353121.01559-.3592198.01559-.5669011 0-1.1038645-.135493-1.5774599-.374842-.00529-.02549.056491-.02154.062473-.04683.00535-.02265-.034985-.03948-.031236-.06248.00825-.050878.083194-.06491.1093288-.1093295.019242-.032683.00449-.082694.031237-.1093287.042233-.041728.1281361-.00662.1718026-.04683.08965-.082551.1268744-.2217476.1249402-.3436064-.0004447-.028037-.033036-.05011-.031237-.078093.0035-.05349.035284-.1083295.078092-.1405656.055492-.041784.1502965-.00149.2030394-.046834.0638629-.0547168.0798709-.1512998.0937109-.2342599.017141-.1028315-.044931-.2123252-.015594-.3123681.025189-.0859537.1258269-.134388.1561843-.2186578.024739-.0687496.051162-.1548143.015593-.218658-.1143904-.205499-.4600597-.1600384-.6247153-.3279873-.057046-.0581883-.045781-.1676696-.1093289-.218658-.050234-.040282-.1391113-.0044891-.187421-.0468314-.075428-.0664814-.022991-.2296287-.109329-.2811316-.0720928-.0429807-.1686374.0523494-.2498881.0312355-.0937253-.0243382-.1376069-.1775202-.2342762-.1718027-.1066349.00626-.1917042.120689-.234276.2186579-.00401.00954.00829.02499 0 .031235-.060514.045629-.1647058-.00925-.2186581-.06247-.038685-.038184-.038984-.1024066-.04683-.1561833-.00755-.051512.038584-.1212493 0-.1561844-.038783-.035086-.1199794.05339-.1561842.015598-.076429-.079726.1192147-.2445566.04683-.3279868-.020492-.023593-.065772-.013946-.093711 0-.04658.023289-.053742.091591-.093711.1249474-.026839.022393-.058825.048533-.093711.046831-.049079-.00254-.099029-.036388-.1249472-.078092-.027639-.044428-.015193-.1038664-.015593-.1561843-.0004997-.06269-.015742-.1331483.015593-.187421.041183-.071263.1244673-.1160213.2030393-.1405658.049679-.015546.1139519.030439.1561841 0 .026689-.019244.00251-.077864.031237-.09371.056451-.030991.1330339.012397.1874209.046831.062493.03963.069671.1929937.1405657.1718027.0953-.028485-.016143-.209307.031237-.29675.051143-.09436.1888404-.1147722.2498946-.2030404.04683-.067696.022041-.1739819.078093-.2342759.046081-.049569.1336337-.036971.1874211-.078092.04718-.036045.058834-.1093586.1093287-.140565.067746-.041876.1694637-.0005009.2342763-.046829.058861-.042037.1453537-.1247028.109329-.1874218-.057045-.099318-.320575.1121994-.3436053 0-.015944-.077676.1409806-.07777.218658-.093704.050998-.010443.1049955.00955.156184 0 .071295-.013241.140311-.1144667.2030394-.078092.059235.034335-.035634.1882516.031237.2030402.054981.012154.1038602-.08518.09371-.1405659-.0081-.044031-.096735-.035138-.109329-.078092-.0079-.026887.036884-.050628.031237-.078092-.0074-.036092-.04538-.06126-.078092-.078092-.028138-.014488-.077377.011483-.093711-.015584-.016992-.028182.034286-.06092.031237-.093704-.00499-.0533663-.027589-.1226064-.078092-.1405638-.052833-.0187975-.1139419.0993465-.1561841.062479-.032336-.0282388.04793-.0853876.031237-.1249475-.028088-.0666563-.1178704-.1291693-.187421-.1093293-.0963.027483-.1261219.1664213-.1405657.2655144-.00401.026292.027838.054512.015593.078092-.023591.045524-.1040507.026481-.1405655.062469-.053082.052338-.019842.2129701-.093711.2030392-.062769-.00851.009-.138516-.031237-.1874209-.056532-.0686784-.1881655-.0296468-.2498946-.0937041-.034286-.0355821-.064483-.0944225-.04683-.1405668.044931-.1176242.2279186-.1109879.3279865-.1874218.052659-.040232.1124576-.080558.1405657-.1405631.02439-.052064.041633-.1205303.015593-.1718035-.013744-.027086-.048828-.038739-.078092-.046828-.010046-.00293-.028338.00999-.031237 0-.00149-.0052.0004998-.010301 0-.015594.1112979-.076787.2234807-.1393099.343605-.2030392.013694.00756.00655.03269 0 .046829-.02004.043587-.081111.054881-.1093287.093704-.039783.054739-.1156364.1311104-.078093.1874218.028886.043332.1133923.029647.1561843 0 .036535-.025347.029088-.084178.04683-.1249485-.003.059275.08442.090056.140566.1093302.039383.013505.095495.029449.1249472 0 .029438-.029449.022691-.090019 0-.1249485-.027937-.042991-.089418-.066061-.1405657-.062479-.024491.00151-.053292.00246-.078093.015603.044281-.049579.093166-.098119.1561843-.1093283.053513-.00955.1074448.022786.1561841.046829.1036564.051157.1657052.2092418.2811317.2030383.06994-.00387.1695534-.071807.156184-.140564-.011645-.0598147-.1280361-.0200931-.1718026-.0624798-.040284-.0390316-.017843-.1222286-.062473-.1561842-.075033-.0570921-.218248.0390316-.2811314-.0312348-.0035-.00387 0-.010396 0-.015594 0-.0051-.0035-.011955 0-.015584.00449-.00198.011095.00198.015593 0 .032485.0052.061664.038786.093711.031235.035835-.00851.045831-.060381.078092-.078092.042082-.023088.09488-.016492.1405657-.031235.018843-.00595.042632-.032539.062473-.046829.00989-.00718.022892-.013694.031237-.015603.00835-.00198.010046.00747.015593.015603.024739.036584-.097354.049673-.093711.093704.011096.1338984.2665076.1148126.3279868.2342768.021441.041687.016643.096768 0 .140565-.02229.058595-.1167259.078422-.1249474.1405668-.016794.1269455.050319.3031115.1718026.3436042.044182.014743.090781-.030838.1249472-.062479.066823-.061884.07084-.1756906.1405658-.234274.1665547-.1399421.4405693-.3718043.6091182-.2342777.024539.020045-.028189.064653-.015593.093704.014944.034429.056176.063235.093711.062479.070795-.00151.1630712-.054673.1718025-.1249485.00499-.040336-.038284-.085388-.078092-.093704-.04558-.00955-.078981.069926-.1249474.06247-.00724-.00104-.014043-.00851-.015593-.015603-.035834-.1624497.2419492-.3177106.1718037-.4685505-.025689-.0552491-.1924789-.0051034-.1718025-.0624789zm-2.3739991.6872083c.02224.017049-.0094.060523-.031237.078092-.024689.019847-.08125.04474-.093711.015584.040383-.033352.08309-.062205.1249474-.093704zm4.2169709.015584c.03244.024893.06221.052093.09371.078092.0044.062507-.06226.1400858-.124948.1405659-.08474.0004999-.2059271-.1098443-.1718005-.1874209.02304-.052414.1188935.021935.1718005 0 .01359-.00558.01654-.030583.03123-.031235zm-1.4681299.1874297c-.017443-.000498-.035835.00444-.04683.015584-.022092.022086-.010346.064227 0 .093704.011045.031443.051437.046621.062473.078092.015493.044239.0035.093846 0 .1405659-.00525.068272-.080726.1557145-.031237.2030383.038383.036678.1085641-.00784.1561841-.031235.049629-.024477.1231088-.05402.124948-.1093269.00149-.0515066-.080741-.0664577-.1093289-.1093283-.053094-.0796321-.029787-.2122565-.109329-.2655144-.012994-.0087892-.029437-.0150456-.04683-.0155843zm-.2342761.2186585c-.017393.00595-.037784.017493-.04683.031235-.034536.052348-.039683.1579024.015593.1874199.04728.025252.1235678-.027246.1405657-.078092.016243-.048643-.015543-.1198735-.062473-.140565-.015043-.00671-.029438-.00595-.04683 0zm1.874209 1.6711717c.07318.010942.100849.1093738.140566.1718026.07749.1218087.10792.269951.18742.3904598.03049.046179.101043.070231.109331.1249473.0078.0507-.07016.089867-.06247.1405659.0084.054719.132199.074547.109329.1249474-.01933.042685-.101893.026437-.140566 0-.165977-.1135374-.114434-.3902854-.21866-.5622625-.02868-.04733-.0833-.076112-.109329-.1249473-.03804-.071323-.09102-.1586689-.06247-.2342765.0065-.017543.02829-.034036.04684-.031235zm-5.778813.4529334c.075084-.016442.056012.1476684.1093291.2030394.071221.073963.1709929.1160712.2655131.1561844.089533.03798.2017199.021943.2811314.078092.051888.036685.065138.1105178.1093289.1561842.054307.056115.1103385.1280557.187421.140565.032487.00533.060978-.034832.093711-.031235.030187.00348.063133.020445.078093.046831.00251.00449.001.010493 0 .015598-.015795.1025209-.047382.2039432-.093712.2967493-.019991.040086-.069736.065331-.078093.109329-.00401.021088.015793.040984.015593.062469-.0004991.080818-.07241.1540709-.062472.2342769.019742.1595803.1352431.2950079.2342763.4216945.065786.08416.1622117.139806.2342761.2186578.040034.043832.091407.083979.1093291.1405657.033036.1043461-.036235.2204922-.015593.3279869.011845.061779.071715.109219.078092.1718035.011895.1168494-.064993.2268838-.078092.3436044-.0004997.0052.00506.01439 0 .015589-.8026123-.5688652-1.3634258-1.4679265-1.4681318-2.4989424-.011944-.1176104-.015593-.2384644-.015593-.3592229 0-.084076.00979-.1672998.015593-.2498948z" fill="#bfbfbf" fill-opacity=".901961" stroke-width=".97215"/><path d="m3 1c-.5539982 0-1 .446002-1 1v13c0 .553997.4460018 1 1 1h6.6464844c.06625 0 .1308594-.02539.1777344-.07227 0 0 1.4882822-1.240235 2.1757812-1.927734s1.925781-2.175781 1.925781-2.175781c.046875-.046871.074219-.111481.074219-.177731v-9.646484c0-.553998-.446003-1-1-1zm0 1h10v9.880859c-.88734.05197-2.189708.119141-3 .119141 0 .810292-.067171 2.11266-.1191406 3h-6.8808594z" fill="#bebebe" stroke-width=".125"/></svg>