<svg height="16" width="16" xmlns="http://www.w3.org/2000/svg"><g transform="matrix(1 0 0 -.94507616 0 15.560609)"><path d="m2 .59431018v14.81249982h12v-11.6392734l-3.5-3.17434737zm8 1.05699482 3 2.6452895v10.0520995h-10v-12.697389z" fill="#bebebe" fill-opacity=".902043"/><path d="m10.5.59318923h-.5v3.17434737h4z" fill="#bebebe"/><g fill="#bfbfbf" fill-opacity=".901961"><path d="m3 14.348694v-4.232463h9.98629l.01371 4.232463z" stroke-width=".969472"/><path d="m4-9.058116h2v1.058116h-2z" transform="scale(1 -1)"/><path d="m7-9.058116h2v1.058116h-2z" transform="scale(1 -1)"/><path d="m10-9.058116h2v1.058116h-2z" transform="scale(1 -1)"/><path d="m4-6.941884h2v1.058116h-2z" transform="scale(1 -1)"/><path d="m7-6.941884h2v1.058116h-2z" transform="scale(1 -1)"/><path d="m10-6.941884h2v1.058116h-2z" transform="scale(1 -1)"/><path d="m4-4.825652h2v1.058116h-2z" transform="scale(1 -1)"/><path d="m7-4.825652h2v1.058116h-2z" transform="scale(1 -1)"/></g></g></svg>