<svg height="16" width="16" xmlns="http://www.w3.org/2000/svg"><g fill="#bebebe" transform="matrix(.89905517 0 0 1 .807652 0)"><path d="m2.4335938 1.0898438c-.1432091.28646-.2324219.6020671-.2324219.9394531h.029297c-.00708.06866-.029297.1327496-.029297.203125h11.6328121v11.6250001h-11.6328121c0 .06993.022306.13293.029297.201172h-.029297c0 .337386.089213.654946.2324219.941406h.109375 12.2675782v-13.9101562h-12.2675782z" stroke-width="1.075151"/><path d="m1.64465 11.59376a.50219013.50219013 0 1 0 .0937 1h1.8125a.50005.50005 0 1 0 0-1h-1.8125a.50005.50005 0 0 0 -.0937 0z"/><path d="m1.64465 9.59376a.50219013.50219013 0 1 0 .0937 1h1.8125a.50005.50005 0 1 0 0-1h-1.8125a.50005.50005 0 0 0 -.0937 0z"/><path d="m1.64465 7.59376a.50219013.50219013 0 1 0 .0937 1h1.8125a.50005.50005 0 1 0 0-1h-1.8125a.50005.50005 0 0 0 -.0937 0z"/><path d="m1.64465 5.59376a.50219013.50219013 0 1 0 .0937 1h1.8125a.50005.50005 0 1 0 0-1h-1.8125a.50005.50005 0 0 0 -.0937 0z"/><path d="m1.64465 3.59376a.50219013.50219013 0 1 0 .0937 1h1.8125a.50005.50005 0 1 0 0-1h-1.8125a.50005.50005 0 0 0 -.0937 0z"/><path d="m813.24093-352.84343c2.2091 0 4 1.7909 4 4v.5c0 .82843-.67157 1.5-1.5 1.5-.44291.00022-.86327-.19627-1.1484-.53515-.35639.32873-.82848.53515-1.3516.53515-1.1046 0-2-.89543-2-2s.89543-2 2-2 2 .89543 2 2v.5c0 .27614.22386.5.5.5s.5-.22386.5-.5v-.5c0-1.6569-1.3431-3-3-3s-3 1.3431-3 3c0 1.6568 1.3431 3 3 3h2.5s.5 0 .5.5c-.0312.5-.5.5-.5.5h-2.5c-2.2091 0-4-1.7909-4-4s1.7909-4 4-4zm0 3c-.55229 0-1 .44772-1 1s.44771 1 1 1 1-.44772 1-1-.44771-1-1-1z" transform="translate(-804.712439 356.473954)"/></g></svg>