<svg height="16" width="16" xmlns="http://www.w3.org/2000/svg"><g fill="#bfbfbf" fill-opacity=".901961" transform="translate(-.059236 -1.161561)"><path d="m4.0592355 5.1615605 8.0000005.0000004v1.0000004l-8.0000005-.0000004z"/><path d="m9.0592355 7.1615605 3.0000005.0000007v1.0000004l-3.0000005-.0000007z"/><path d="m8.0592353 9.161561a2.0000002 2.0000002 0 0 1 -1.6098195 1.961571 2.0000002 2.0000002 0 0 1 -2.23794-1.196204 2.0000002 2.0000002 0 0 1 .7366186-2.4283064 2.0000002 2.0000002 0 0 1 2.5253544.2487256l-1.4142137 1.4142138z"/><path d="m9.0592355 9.1615604 3.0000005.0000009v1.0000007l-3.0000005-.000001z"/><path d="m9.0592355 11.161561h3.0000005v1h-3.0000005z"/></g><path d="m3 1c-.5539982 0-1 .446002-1 1v13c0 .553997.4460018 1 1 1h6.6464844c.06625 0 .1308594-.02539.1777344-.07227 0 0 1.4882822-1.240235 2.1757812-1.927734s1.925781-2.175781 1.925781-2.175781c.046875-.046871.074219-.111481.074219-.177731v-9.646484c0-.553998-.446003-1-1-1zm0 1h10v9.880859c-.88734.05197-2.189708.119141-3 .119141 0 .810292-.067171 2.11266-.1191406 3h-6.8808594z" fill="#bebebe" stroke-width=".125"/></svg>