<svg height="16" width="16" xmlns="http://www.w3.org/2000/svg"><g fill="#bebebe" transform="matrix(.89905517 0 0 1 .807652 0)"><path d="m2.2966157 1c-.1432091.28646-.428125.459489-.428125.796875v.203125h11.6927993v12l-11.6861341-.011985v.201172c0 .337386.2782508.524353.4214597.810813h.109375 12.2675784v-14h-12.2675783z" stroke-width="1.075151"/><path d="m8.4493915 3.0035103c2.2091005 0 4.0000005 1.7909 4.0000005 4v.5c0 .82843-.67157 1.5-1.5 1.5-.44291.00022-.86327-.19627-1.1484005-.53515-.35639.32873-.82848.53515-1.3516.53515-1.1046 0-2-.89543-2-2s.89543-2 2-2 2.0000005.89543 2.0000005 2v.5c0 .27614.22386.5.5.5s.5-.22386.5-.5v-.5c0-1.6569-1.3431-3-3.0000005-3-1.6569 0-3 1.3431-3 3 0 1.6568 1.3431 2.9999997 3 2.9999997h2.5000005s.5 0 .5.5c-.0312.5-.5.5-.5.5h-2.5000005c-2.2091 0-4-1.7908997-4-3.9999997s1.7909-4 4-4zm0 3c-.55229 0-1 .44772-1 1s.44771 1 1 1 1-.44772 1-1-.44771-1-1-1z"/><g fill="#bebebe"><path d="m1.3262234 3h2.2245576v1h-2.2245576z"/><path d="m1.3262234 5h2.2245576v1h-2.2245576z"/><path d="m1.3262234 7h2.2245576v1h-2.2245576z"/><path d="m1.3262234 9h2.2245576v1h-2.2245576z"/><path d="m1.3262234 11h2.2245576v1h-2.2245576z"/><path d="m1.3262234 13h2.2245576v1h-2.2245576z"/></g></g></svg>