<svg height="16" width="16" xmlns="http://www.w3.org/2000/svg"><g fill="#bebebe" transform="matrix(1 0 0 -.94507616 0 15.560609)"><path d="m2 .59431018v14.81249982h12v-11.6392734l-3.5-3.17434737zm8 1.05699482 3 2.6452895v10.0520995h-10v-12.697389z" fill-opacity=".902043"/><path d="m10.5.59318923h-.5v3.17434737h4z"/><g fill="#bebebe"><path d="m8.5625 6.5782836c-.46643.068037-1.04585.137238-1.53125-.264529-.40319-.33373-.7654-.769282-1.09375-1.091182s-.65996-.4629255-.59375-.4629255h-2.34375v-1.0581158h2.34375c.58207 0 .88604.4037029 1.25.7605208.36396.3568178.75079.7339835 1.0625.9919835.10629.08793.40859.153575.78125.09915.37266-.05439.69959-.198396 1.09375-.198396.14648 0 .20407-.03471.3125-.132265.10843-.09756.24045-.258064.375-.4629254.13455-.2048668.28193-.4456728.5-.6613274.21807-.2156545.56155-.3967934.9375-.3967934h.84375v1.0581158h-.84375c-.0991 0-.15147.00212-.25.099145-.0985.09745-.23537.283395-.375.495992-.13963.2125964-.29184.4458264-.53125.6613224s-.57764.396794-.96875.396794c-.0328 0-.50232.09724-.96875.16533z"/><path d="m6.41869 11.320304c-.86024 0-1.55632-.764446-1.55632-1.6746694 0-.910234.69608-1.646767 1.55632-1.646767s1.5827.736533 1.5827 1.646767c0 .9102234-.72246 1.6746694-1.5827 1.6746694zm0-1.060624c.3198 0 .58032-.2756704.58032-.6140454 0-.338386-.26052-.586144-.58032-.586144s-.55394.247758-.55394.586144c0 .338375.23414.6140454.55394.6140454z"/></g></g></svg>