<svg height="16" width="16" xmlns="http://www.w3.org/2000/svg"><g fill="#bebebe"><g transform="translate(.576271 .20339)"><path d="m4.9111134 3.7966101c-.8221472 0-1.4873845.6904683-1.4873845 1.5126155s.6652564 1.4873845 1.4873845 1.4873845c.8221472 0 1.5126155-.6652564 1.5126155-1.4873845 0-.8221376-.6904683-1.5126155-1.5126155-1.5126155zm0 .9580121c.3056387 0 .5546225.2489933.5546225.5546225 0 .3056387-.2489838.5294202-.5546225.5294202s-.5294106-.2237815-.5294106-.5294202c0-.3056292.2237719-.5546225.5294106-.5546225z" stroke-width=".955718"/><g stroke-width="1.06829"><path d="m9.423729 5.79661h2v1h-2z"/><path d="m3.423729 7.79661h8v1.000001h-8z"/><path d="m3.423729 9.79661h8v1h-8z"/></g></g><path d="m3 1c-.5539982 0-1 .446002-1 1v13c0 .553997.4460018 1 1 1h6.6464844c.06625 0 .1308594-.02539.1777344-.07227 0 0 1.4882822-1.240235 2.1757812-1.927734s1.925781-2.175781 1.925781-2.175781c.046875-.046871.074219-.111481.074219-.177731v-9.646484c0-.553998-.446003-1-1-1zm0 1h10v9.880859c-.88734.05197-2.189708.119141-3 .119141 0 .810292-.067171 2.11266-.1191406 3h-6.8808594z" stroke-width=".125"/></g></svg>