<svg height="16" width="16" xmlns="http://www.w3.org/2000/svg"><g transform="matrix(1 0 0 -.94507616 0 15.560609)"><path d="m2 .59431018v14.81249982h12v-11.6392734l-3.5-3.17434737zm8 1.05699482 3 2.6452895v10.0520995h-10v-12.697389z" fill="#bebebe" fill-opacity=".902043"/><path d="m10.5.59318923h-.5v3.17434737h4z" fill="#bebebe"/><g fill="#bfbfbf" fill-opacity=".901961" transform="matrix(1 0 0 -1.0581158 -.059236 17.693992)"><path d="m4.0592355 5.1615605 8.0000005.0000004v1.0000004l-8.0000005-.0000004z"/><path d="m9.0592355 7.1615605 3.0000005.0000007v1.0000004l-3.0000005-.0000007z"/><path d="m8.0592353 9.161561a2.0000002 2.0000002 0 0 1 -1.6098195 1.961571 2.0000002 2.0000002 0 0 1 -2.23794-1.196204 2.0000002 2.0000002 0 0 1 .7366186-2.4283064 2.0000002 2.0000002 0 0 1 2.5253544.2487256l-1.4142137 1.4142138z"/><path d="m9.0592355 9.1615604 3.0000005.0000009v1.0000007l-3.0000005-.000001z"/><path d="m9.0592355 11.161561h3.0000005v1h-3.0000005z"/></g></g></svg>