<svg height="16" width="16" xmlns="http://www.w3.org/2000/svg"><g fill="#bebebe"><g transform="matrix(1 0 0 -.94507616 0 15.560609)"><path d="m8.5625 6.5782836c-.46643.068037-1.04585.137238-1.53125-.264529-.40319-.33373-.7654-.769282-1.09375-1.091182s-.65996-.4629255-.59375-.4629255h-2.34375v-1.0581158h2.34375c.58207 0 .88604.4037029 1.25.7605208.36396.3568178.75079.7339835 1.0625.9919835.10629.08793.40859.153575.78125.09915.37266-.05439.69959-.198396 1.09375-.198396.14648 0 .20407-.03471.3125-.132265.10843-.09756.24045-.258064.375-.4629254.13455-.2048668.28193-.4456728.5-.6613274.21807-.2156545.56155-.3967934.9375-.3967934h.84375v1.0581158h-.84375c-.0991 0-.15147.00212-.25.099145-.0985.09745-.23537.283395-.375.495992-.13963.2125964-.29184.4458264-.53125.6613224s-.57764.396794-.96875.396794c-.0328 0-.50232.09724-.96875.16533z"/><path d="m6.41869 11.320304c-.86024 0-1.55632-.764446-1.55632-1.6746694 0-.910234.69608-1.646767 1.55632-1.646767s1.5827.736533 1.5827 1.646767c0 .9102234-.72246 1.6746694-1.5827 1.6746694zm0-1.060624c.3198 0 .58032-.2756704.58032-.6140454 0-.338386-.26052-.586144-.58032-.586144s-.55394.247758-.55394.586144c0 .338375.23414.6140454.55394.6140454z"/></g><path d="m3 1c-.5539982 0-1 .446002-1 1v13c0 .553997.4460018 1 1 1h6.6464844c.06625 0 .1308594-.02539.1777344-.07227 0 0 1.4882822-1.240235 2.1757812-1.927734s1.925781-2.175781 1.925781-2.175781c.046875-.046871.074219-.111481.074219-.177731v-9.646484c0-.553998-.446003-1-1-1zm0 1h10v9.880859c-.88734.05197-2.189708.119141-3 .119141 0 .810292-.067171 2.11266-.1191406 3h-6.8808594z" stroke-width=".125"/></g></svg>