<svg height="16" width="16" xmlns="http://www.w3.org/2000/svg"><g fill="#bebebe" transform="matrix(1 0 0 -.94507616 0 15.560609)"><path d="m2 .59431018v14.81249982h12v-11.6392734l-3.5-3.17434737zm8 1.05699482 3 2.6452895v10.0520995h-10v-12.697389z" fill-opacity=".902043"/><path d="m10.5.59318923h-.5v3.17434737h4z"/><g transform="matrix(1 0 0 -1.0581158 .576271 16.249716)"><path d="m4.9111134 3.7966101c-.8221472 0-1.4873845.6904683-1.4873845 1.5126155s.6652564 1.4873845 1.4873845 1.4873845c.8221472 0 1.5126155-.6652564 1.5126155-1.4873845 0-.8221376-.6904683-1.5126155-1.5126155-1.5126155zm0 .9580121c.3056387 0 .5546225.2489933.5546225.5546225 0 .3056387-.2489838.5294202-.5546225.5294202s-.5294106-.2237815-.5294106-.5294202c0-.3056292.2237719-.5546225.5294106-.5546225z" stroke-width=".955718"/><g stroke-width="1.06829"><path d="m9.423729 5.79661h2v1h-2z"/><path d="m3.423729 7.79661h8v1.000001h-8z"/><path d="m3.423729 9.79661h8v1h-8z"/></g></g></g></svg>