<?xml version="1.0" encoding="UTF-8" standalone="no"?>
<svg
   xmlns:dc="http://purl.org/dc/elements/1.1/"
   xmlns:cc="http://creativecommons.org/ns#"
   xmlns:rdf="http://www.w3.org/1999/02/22-rdf-syntax-ns#"
   xmlns:svg="http://www.w3.org/2000/svg"
   xmlns="http://www.w3.org/2000/svg"
   xmlns:xlink="http://www.w3.org/1999/xlink"
   xmlns:sodipodi="http://sodipodi.sourceforge.net/DTD/sodipodi-0.dtd"
   xmlns:inkscape="http://www.inkscape.org/namespaces/inkscape"
   height="16"
   width="16"
   version="1.1"
   id="svg47"
   sodipodi:docname="go-down.svg"
   inkscape:version="0.92.4 (unknown)"
   inkscape:export-filename="/home/rizmut/Dokumen/Rizmut/Github/karasa-jaga-icon-theme/build/Karasa-Jaga/16x16/actions/go-down.png"
   inkscape:export-xdpi="96"
   inkscape:export-ydpi="96">
  <metadata
     id="metadata53">
    <rdf:RDF>
      <cc:Work
         rdf:about="">
        <dc:format>image/svg+xml</dc:format>
        <dc:type
           rdf:resource="http://purl.org/dc/dcmitype/StillImage" />
        <dc:title></dc:title>
      </cc:Work>
    </rdf:RDF>
  </metadata>
  <defs
     id="defs51" />
  <sodipodi:namedview
     pagecolor="#ffffff"
     bordercolor="#666666"
     borderopacity="1"
     objecttolerance="10"
     gridtolerance="10"
     guidetolerance="10"
     inkscape:pageopacity="0"
     inkscape:pageshadow="2"
     inkscape:window-width="1366"
     inkscape:window-height="714"
     id="namedview49"
     showgrid="true"
     inkscape:zoom="14.75"
     inkscape:cx="14.203426"
     inkscape:cy="5.4873749"
     inkscape:window-x="0"
     inkscape:window-y="28"
     inkscape:window-maximized="1"
     inkscape:current-layer="g867">
    <inkscape:grid
       type="xygrid"
       id="grid869" />
  </sodipodi:namedview>
  <linearGradient
     id="a">
    <stop
       offset="0"
       id="stop2" />
    <stop
       offset="1"
       stop-opacity="0"
       id="stop4" />
  </linearGradient>
  <radialGradient
     id="b"
     cx="6.4796476"
     cy="6.5353403"
     gradientTransform="matrix(2.2053061,2.8032327e-8,0,1.1761633,-11.289173,-0.6861948)"
     gradientUnits="userSpaceOnUse"
     r="6.801777"
     fx="6.4796476"
     fy="6.5353403">
    <stop
       offset="0"
       stop-color="#83fc28"
       id="stop7" />
    <stop
       offset="1"
       stop-color="#102c07"
       id="stop9" />
  </radialGradient>
  <radialGradient
     id="c"
     cx="6.5"
     cy="9.859921"
     gradientTransform="matrix(0.57622679,0.07202834,-0.06452346,0.51618768,3.390722,3.942246)"
     gradientUnits="userSpaceOnUse"
     r="7.74912"
     xlink:href="#a" />
  <radialGradient
     id="d"
     cx="6.713591"
     cy="4.018276"
     gradientTransform="matrix(0.57622679,0.07202834,-0.06452346,0.51618768,3.390722,3.942246)"
     gradientUnits="userSpaceOnUse"
     r="7.74912"
     xlink:href="#a" />
  <linearGradient
     id="e"
     gradientUnits="userSpaceOnUse"
     x1="24.999807"
     x2="23.999807"
     y1="10.768957"
     y2="-4.231043">
    <stop
       offset="0"
       stop-color="#005f1e"
       id="stop14" />
    <stop
       offset="1"
       stop-color="#43943c"
       id="stop16" />
  </linearGradient>
  <linearGradient
     id="f"
     gradientUnits="userSpaceOnUse"
     x1="23.999807"
     x2="25.999807"
     y1="-4.231043"
     y2="6.768957"
     gradientTransform="matrix(1.9915432,0,0,1.9915432,-7.727075,-8.266863)">
    <stop
       offset="0"
       stop-color="#edffbf"
       id="stop19" />
    <stop
       offset="1"
       stop-color="#edffbf"
       stop-opacity="0"
       id="stop21" />
  </linearGradient>
  <radialGradient
     id="g"
     cx="21.664968"
     cy="5.806535"
     gradientTransform="matrix(0.57622679,0.07202834,-0.06452346,0.51618768,3.390722,3.942246)"
     gradientUnits="userSpaceOnUse"
     r="7.74912"
     xlink:href="#a" />
  <linearGradient
     id="h"
     gradientUnits="userSpaceOnUse"
     x1="-2.999567"
     x2="17.000433"
     y1="12.000433"
     y2="14.000433">
    <stop
       offset="0"
       stop-color="#b2ff00"
       id="stop25" />
    <stop
       offset="1"
       stop-color="#acff00"
       stop-opacity="0"
       id="stop27" />
  </linearGradient>
  <filter
     id="i"
     color-interpolation-filters="sRGB"
     height="1.0552"
     width="1.042461"
     x="-.021231"
     y="-.0276">
    <feGaussianBlur
       stdDeviation=".115"
       id="feGaussianBlur30" />
  </filter>
  <g
     id="g867"
     transform="matrix(0,-1,-1,0,16.000433,16.000433)">
    <path
       id="path33"
       d="M 7.484375,1 C 7.2425111,1.003355 7.0100591,1.0942542 6.8300781,1.2558594 l -5.99999998,5.5 c -0.0126923,0.012043 -0.0250663,0.024417 -0.0371094,0.037109 l -0.5,0.5 c -0.39036833,0.3905299 -0.39036833,1.0235325 0,1.4140624 l 0.5,0.5 c 0.0120431,0.012692 0.0244171,0.025066 0.0371094,0.037109 L 6.8300781,14.744141 c 0.3957159,0.356056 1.0009897,0.339743 1.3769531,-0.03711 l 1,-1 c 0.3657217,-0.365937 0.3919801,-0.950397 0.060547,-1.347656 L 7.1347656,10 H 15 c 0.552262,-5.52e-5 0.999945,-0.4477381 1,-1 V 7 C 15.999945,6.4477381 15.552262,6.0000552 15,6 H 7.1347656 L 9.2675781,3.640625 C 9.5990113,3.2433664 9.572753,2.6589059 9.2070312,2.2929688 l -1,-1 C 8.0157079,1.101557 7.7549779,0.9958556 7.484375,1 Z"
       style="fill:url(#e)"
       inkscape:connector-curvature="0" />
    <path
       id="path35"
       d="M 7.484375,1 C 7.2425111,1.003355 7.0100591,1.0942542 6.8300781,1.2558594 l -5.99999998,5.5 c -0.0126923,0.012043 -0.0250663,0.024417 -0.0371094,0.037109 l -0.5,0.5 c -0.39036833,0.3905299 -0.39036833,1.0235325 0,1.4140624 l 0.5,0.5 c 0.0120431,0.012692 0.0244171,0.025066 0.0371094,0.037109 L 6.8300781,14.744141 c 0.3957159,0.356056 1.0009897,0.339743 1.3769531,-0.03711 l 1,-1 c 0.3657217,-0.365937 0.3919801,-0.950397 0.060547,-1.347656 L 7.1347656,10 H 15 c 0.552262,-5.52e-5 0.999945,-0.4477381 1,-1 V 7 C 15.999945,6.4477381 15.552262,6.0000552 15,6 H 7.1347656 L 9.2675781,3.640625 C 9.5990113,3.2433664 9.572753,2.6589059 9.2070312,2.2929688 l -1,-1 C 8.0157079,1.101557 7.7549779,0.9958556 7.484375,1 Z"
       style="fill:url(#g)"
       inkscape:connector-curvature="0" />
    <path
       id="path37"
       d="M 7.484375,1 C 7.2425111,1.003355 7.0100591,1.0942542 6.8300781,1.2558594 l -5.99999998,5.5 c -0.0126923,0.012043 -0.0250663,0.024417 -0.0371094,0.037109 l -0.5,0.5 c -0.39036833,0.3905299 -0.39036833,1.0235325 0,1.4140624 l 0.5,0.5 c 0.0120431,0.012692 0.0244171,0.025066 0.0371094,0.037109 L 6.8300781,14.744141 c 0.3957159,0.356056 1.0009897,0.339743 1.3769531,-0.03711 l 1,-1 c 0.3657217,-0.365937 0.3919801,-0.950397 0.060547,-1.347656 L 7.1347656,10 H 15 c 0.552262,-5.52e-5 0.999945,-0.4477381 1,-1 V 7 C 15.999945,6.4477381 15.552262,6.0000552 15,6 H 7.1347656 L 9.2675781,3.640625 C 9.5990113,3.2433664 9.572753,2.6589059 9.2070312,2.2929688 l -1,-1 C 8.0157079,1.101557 7.7549779,0.9958556 7.484375,1 Z"
       style="fill:url(#c)"
       inkscape:connector-curvature="0" />
    <path
       id="path39"
       d="M 7.484375,1 C 7.2425111,1.003355 7.0100591,1.0942542 6.8300781,1.2558594 l -5.99999998,5.5 c -0.0126923,0.012043 -0.0250663,0.024417 -0.0371094,0.037109 l -0.5,0.5 c -0.39036833,0.3905299 -0.39036833,1.0235325 0,1.4140624 l 0.5,0.5 c 0.0120431,0.012692 0.0244171,0.025066 0.0371094,0.037109 L 6.8300781,14.744141 c 0.3957159,0.356056 1.0009897,0.339743 1.3769531,-0.03711 l 1,-1 c 0.3657217,-0.365937 0.3919801,-0.950397 0.060547,-1.347656 L 7.1347656,10 H 15 c 0.552262,-5.52e-5 0.999945,-0.4477381 1,-1 V 7 C 15.999945,6.4477381 15.552262,6.0000552 15,6 H 7.1347656 L 9.2675781,3.640625 C 9.5990113,3.2433664 9.572753,2.6589059 9.2070312,2.2929688 l -1,-1 C 8.0157079,1.101557 7.7549779,0.9958556 7.484375,1 Z"
       style="fill:url(#d)"
       inkscape:connector-curvature="0" />
    <path
       id="path41"
       d="M 7.5,2 1.5,7.5 1,8 1.5,8.5 7.5,14 8.5,13 5,9 H 15 V 7 H 5 L 8.5,3 Z"
       style="fill:url(#b)"
       inkscape:connector-curvature="0" />
    <path
       style="fill:url(#f);stroke-width:1.99154317"
       d="M 7 1 L 7 8.3144531 C 7.6690202 8.2989271 8.338645 8.3004422 9 8.3105469 L 9 1 L 7 1 z M 3 7.5 L 2 8.5 L 2.3378906 8.8671875 C 2.9978034 8.7296833 3.6171999 8.619658 4.1894531 8.5410156 L 3 7.5 z M 13 7.5 L 12.076172 8.3085938 C 12.59633 8.292924 13.133397 8.2692978 13.724609 8.2246094 L 13 7.5 z "
       transform="matrix(0,-1,-1,0,16.000433,16.000433)"
       id="path43" />
    <path
       style="fill:none;stroke:url(#h);stroke-width:0.5;filter:url(#i)"
       id="path45"
       d="M 7.5,2 1.5,7.5 1,8 1.5,8.5 7.5,14 8.5,13 5,9 H 15 V 7 H 5 L 8.5,3 Z"
       inkscape:connector-curvature="0" />
  </g>
</svg>
