<?xml version="1.0" encoding="UTF-8" standalone="no"?>
<!-- Created with Inkscape (http://www.inkscape.org/) -->

<svg
   xmlns:dc="http://purl.org/dc/elements/1.1/"
   xmlns:cc="http://creativecommons.org/ns#"
   xmlns:rdf="http://www.w3.org/1999/02/22-rdf-syntax-ns#"
   xmlns:svg="http://www.w3.org/2000/svg"
   xmlns="http://www.w3.org/2000/svg"
   xmlns:xlink="http://www.w3.org/1999/xlink"
   xmlns:sodipodi="http://sodipodi.sourceforge.net/DTD/sodipodi-0.dtd"
   xmlns:inkscape="http://www.inkscape.org/namespaces/inkscape"
   id="svg5200"
   height="48"
   width="48"
   version="1.1"
   inkscape:version="0.48.3.1 r9886"
   sodipodi:docname="devices.svg">
  <metadata
     id="metadata14">
    <rdf:RDF>
      <cc:Work
         rdf:about="">
        <dc:format>image/svg+xml</dc:format>
        <dc:type
           rdf:resource="http://purl.org/dc/dcmitype/StillImage" />
      </cc:Work>
    </rdf:RDF>
  </metadata>
  <sodipodi:namedview
     pagecolor="#ffffff"
     bordercolor="#666666"
     borderopacity="1"
     objecttolerance="10"
     gridtolerance="10"
     guidetolerance="10"
     inkscape:pageopacity="0"
     inkscape:pageshadow="2"
     inkscape:window-width="1366"
     inkscape:window-height="696"
     id="namedview12"
     showgrid="true"
     inkscape:zoom="4"
     inkscape:cx="21.970996"
     inkscape:cy="14.553222"
     inkscape:window-x="0"
     inkscape:window-y="0"
     inkscape:window-maximized="1"
     inkscape:current-layer="svg5200">
    <inkscape:grid
       type="xygrid"
       id="grid2997" />
  </sodipodi:namedview>
  <defs
     id="defs5202">
    <linearGradient
       id="linearGradient4731"
       y2="60.396"
       gradientUnits="userSpaceOnUse"
       x2="90.765"
       gradientTransform="matrix(0.77273,0,0,0.82353,-49.712,-6.5027)"
       y1="16.396"
       x1="90.443">
      <stop
         id="stop4170-5"
         style="stop-color:#fff"
         offset="0" />
      <stop
         id="stop4172-4"
         style="stop-color:#c8c8c8"
         offset="1" />
    </linearGradient>
    <linearGradient
       inkscape:collect="always"
       xlink:href="#linearGradient4731"
       id="linearGradient2992"
       gradientUnits="userSpaceOnUse"
       gradientTransform="matrix(0.77273,0,0,0.82353,-49.164915,1.2367643)"
       x1="90.443"
       y1="16.396"
       x2="90.765"
       y2="60.396" />
  </defs>
  <g
     id="g3782">
    <rect
       id="rect5168"
       style="color:#000000;fill:#999999"
       rx="2.7486999"
       ry="2.1454"
       height="46"
       width="46"
       y="1"
       x="1" />
    <g
       id="g3777">
      <path
         style="color:#000000;fill:#000000;fill-opacity:1;opacity:0.07"
         d="M 17.875,1.84375 A 1.9123235,1.9123235 0 0 0 16.15625,3.75 l 0,9 a 1.9123235,1.9123235 0 0 0 0.40625,1.15625 c -0.0087,0.01015 -0.02278,0.02106 -0.03125,0.03125 -0.479941,0.577456 -0.713415,1.163705 -0.84375,1.71875 -0.370361,1.577212 -1.164472,3.10732 -1.5,5.3125 -1.032333,6.784771 -1.236967,13.465244 -0.53125,20.625 0.07822,0.79351 0.49921,1.587619 1,2.0625 0.50079,0.474881 1.012035,0.702678 1.4375,0.875 5.671645,2.297126 11.104248,2.086598 15.96875,-0.03125 0.383818,-0.167102 0.900365,-0.37657 1.40625,-0.84375 0.505885,-0.46718 0.942004,-1.294966 1,-2.125 0.505664,-7.237061 0.489883,-13.528355 -0.5,-20.5625 -0.304103,-2.160971 -1.20059,-3.909771 -1.53125,-5.3125 -0.130564,-0.55388 -0.364139,-1.141416 -0.84375,-1.71875 -0.0047,-0.0056 -0.02648,0.0056 -0.03125,0 a 1.9123235,1.9123235 0 0 0 0,-0.03125 1.9123235,1.9123235 0 0 0 0.40625,-1.15625 l 0,-9 A 1.9123235,1.9123235 0 0 0 30.0625,1.84375 l -12,0 a 1.9123235,1.9123235 0 0 0 -0.1875,0 z"
         id="path3006" />
      <path
         style="color:#000000;fill:#000000;fill-opacity:1;opacity:0.15"
         d="M 17.875,2.875 A 0.88397186,0.88397186 0 0 0 17.1875,3.75 l 0,9 a 0.88397186,0.88397186 0 0 0 0.875,0.875 l 12,0 a 0.88397186,0.88397186 0 0 0 0.875,-0.875 l 0,-9 a 0.88397186,0.88397186 0 0 0 -0.875,-0.875 l -12,0 a 0.88397186,0.88397186 0 0 0 -0.1875,0 z m 2.5625,5.75 0.75,0 0,1.25 -0.75,0 0,-1.25 z m 6.5,0 0.75,0 0,1.25 -0.75,0 0,-1.25 z m -8.125,5.25 c -0.61203,0 -1.168224,0.319563 -1.5,0.71875 -0.331776,0.399187 -0.519298,0.86236 -0.625,1.3125 -0.40558,1.727198 -1.19549,3.217426 -1.5,5.21875 -1.020048,6.704031 -1.197898,13.294569 -0.5,20.375 0.05566,0.564664 0.336179,1.073105 0.6875,1.40625 0.351321,0.333145 0.723718,0.50638 1.09375,0.65625 5.44994,2.207331 10.547946,2.019912 15.1875,0 0.348915,-0.151906 0.738196,-0.3279 1.09375,-0.65625 0.355554,-0.32835 0.646832,-0.855464 0.6875,-1.4375 0.502618,-7.19347 0.478599,-13.389796 -0.5,-20.34375 -0.270797,-1.924295 -1.130315,-3.650471 -1.5,-5.21875 -0.10597,-0.449549 -0.293418,-0.913357 -0.625,-1.3125 -0.331582,-0.399143 -0.887886,-0.71875 -1.5,-0.71875 l -10.5,0 z m 5.3125,5.65625 0.21875,0.40625 a 0.88397186,0.88397186 0 0 0 -0.1875,0.09375 0.88397186,0.88397186 0 0 0 -0.25,-0.125 c 0.07155,-0.127131 0.147535,-0.247855 0.21875,-0.375 z m 3.3125,3.0625 1.25,0 0,1.40625 c -0.24714,0.06659 -0.502292,0.142698 -0.71875,0.34375 -0.100783,-0.139306 -0.122431,-0.317517 -0.25,-0.375 -0.133924,-0.06035 -0.191613,-0.01865 -0.28125,-0.03125 l 0,-1.34375 z m -6.78125,3.0625 c 0.22763,0.11705 0.417866,0.354834 0.53125,0.71875 -0.01114,-0.03576 0.0023,0.211162 -0.09375,0.4375 -0.09601,0.226338 -0.264272,0.43998 -0.3125,0.46875 -0.02565,0.0033 -0.150605,-0.07238 -0.5,0.09375 -0.05823,0.02769 -0.09769,0.109751 -0.15625,0.15625 -0.02705,-0.03205 -0.0394,-0.101994 -0.0625,-0.125 -0.102128,-0.101696 -0.174875,-0.144195 -0.28125,-0.25 -0.28918,-0.287639 -0.373782,-0.594142 -0.34375,-0.84375 0.03003,-0.249608 0.154508,-0.459508 0.46875,-0.625 0.251619,-0.132509 0.52237,-0.1483 0.75,-0.03125 z M 24,36.375 a 0.88397186,0.88397186 0 0 0 0.21875,0.15625 l 0.375,0.21875 a 0.88397186,0.88397186 0 0 0 0.0625,0.03125 c -0.141881,-0.06853 0.279031,0.331121 0.375,0.53125 0.203808,0.425027 0.169825,0.814602 0,1.09375 -0.165205,0.271554 -0.441187,0.458514 -0.875,0.46875 -0.01384,-5.07e-4 -0.01771,7.42e-4 -0.03125,0 -0.37172,-0.02036 -0.64523,-0.135464 -0.78125,-0.25 -0.140973,-0.118707 -0.21875,-0.235615 -0.21875,-0.5625 0,-0.542324 0.07727,-0.766307 0.15625,-0.90625 0.07898,-0.139943 0.204087,-0.272848 0.46875,-0.5 L 23.71875,36.625 C 23.81829,36.567937 23.900405,36.461571 24,36.375 z"
         id="path3001" />
      <path
         inkscape:connector-curvature="0"
         d="m 18.797085,14.739364 c -0.69564,0 -1.080947,0.623872 -1.25,1.3438 -0.435855,1.856126 -1.222153,3.329912 -1.5,5.156 -1.009488,6.634626 -1.191177,13.143757 -0.5,20.156 0.07254,0.735894 0.605236,1.082658 1.25,1.3438 5.259362,2.130143 10.053812,1.935727 14.5,0 0.637823,-0.277688 1.198455,-0.606088 1.25,-1.3438 0.5,-7.156 0.468898,-13.270978 -0.5,-20.156 -0.242167,-1.720848 -1.09677,-3.445414 -1.5,-5.156 -0.16966,-0.719734 -0.55435,-1.3438 -1.25,-1.3438 z m 5.2812,3 1.75,3 -1.1875,0 0,8.4062 c 0.16637,0 1.7948,-1.6603 2.3438,-2.4062 0.23717,-0.32228 0.375,-0.78695 0.375,-1.2188 0,-0.65123 0.21509,-0.78125 -0.28125,-0.78125 l -0.53125,0 0,-3.0312 3,0 0,3.0312 -0.5,0 c -0.43251,0.0507 -0.73084,0.27785 -0.8125,1 -0.12172,1.0769 -0.58512,1.7891 -2.2812,3.5 l -1.3125,1.4375 0,5.0937 0.375,0.21875 c 0.26661,0.12878 0.63033,0.55761 0.8125,0.9375 0.64922,1.3539 -0.23049,2.8125 -1.7188,2.8125 -1.0785,-0.0395 -1.875,-0.60154 -1.875,-1.6875 0,-1.2774 0.41785,-1.6165 0.9375,-2.0625 0.41719,-0.20153 0.47425,-0.3206 0.46875,-0.96875 -0.007,-0.71629 -0.07958,-0.62885 -1.4062,-1.7812 -2.0254,-1.7595 -2.2934,-2.2032 -2.5312,-3.9687 -0.17543,-1.3022 -0.05893,-0.99913 -0.5625,-1.5 -0.92689,-0.92195 -0.75966,-2.2939 0.34375,-2.875 0.99401,-0.52347 2.1681,0.0534 2.5312,1.2188 0.17897,0.57429 -0.23634,1.5625 -0.8125,1.9062 -0.52724,0.31456 -0.74557,-0.22196 -0.625,0.9375 0.0669,0.64174 0.21173,1.396 0.34375,1.6562 0.22674,0.44704 2.446,2.5312 2.6875,2.5312 l 0,-12.406 -1.2188,0 c 0.56932,-0.98857 1.136,-2.0054 1.6875,-3 z m -6.0312,-13.9999998 0,8.9999998 12,-0.0039 0,-9.0000001 z m 1.4999,4 2.5001,-0.00449 0,2.9999998 -2.5001,0.0045 z m 6.5001,0 2.4999,0 0,2.9999998 -2.4999,0 z"
         style="color:#000000;fill:url(#linearGradient2992)"
         id="path4711"
         sodipodi:nodetypes="ssssssssssscccccssccccccccccccscccccccccccccccccccccccccccccc" />
    </g>
  </g>
</svg>
