<?xml version="1.0" encoding="UTF-8" standalone="no"?>
<!-- Created with Inkscape (http://www.inkscape.org/) -->

<svg
   xmlns:dc="http://purl.org/dc/elements/1.1/"
   xmlns:cc="http://creativecommons.org/ns#"
   xmlns:rdf="http://www.w3.org/1999/02/22-rdf-syntax-ns#"
   xmlns:svg="http://www.w3.org/2000/svg"
   xmlns="http://www.w3.org/2000/svg"
   xmlns:sodipodi="http://sodipodi.sourceforge.net/DTD/sodipodi-0.dtd"
   xmlns:inkscape="http://www.inkscape.org/namespaces/inkscape"
   width="16px"
   height="16px"
   id="svg8474"
   version="1.1"
   inkscape:version="0.92.2 (unknown)"
   sodipodi:docname="folder-music-symbolic.svg">
  <defs
     id="defs8476" />
  <sodipodi:namedview
     id="base"
     pagecolor="#ffffff"
     bordercolor="#666666"
     borderopacity="1.0"
     inkscape:pageopacity="0.0"
     inkscape:pageshadow="2"
     inkscape:zoom="11.098901"
     inkscape:cx="3.7717649"
     inkscape:cy="0.83489142"
     inkscape:current-layer="layer1"
     showgrid="true"
     inkscape:grid-bbox="true"
     inkscape:document-units="px"
     inkscape:window-width="1366"
     inkscape:window-height="706"
     inkscape:window-x="0"
     inkscape:window-y="0"
     inkscape:window-maximized="1" />
  <metadata
     id="metadata8479">
    <rdf:RDF>
      <cc:Work
         rdf:about="">
        <dc:format>image/svg+xml</dc:format>
        <dc:type
           rdf:resource="http://purl.org/dc/dcmitype/StillImage" />
        <dc:title />
      </cc:Work>
    </rdf:RDF>
  </metadata>
  <g
     id="layer1"
     inkscape:label="Layer 1"
     inkscape:groupmode="layer">
    <path
       style="fill:#bebebe;fill-opacity:1;stroke:none"
       d="M 13.662109,1.2148438 5.9414062,2.078125 V 3.3515625 4.15625 5.2207031 12.066406 l 0.072266,0.128906 c -0.051,-0.02765 -0.1008369,-0.05219 -0.15625,-0.07617 -0.05279,-0.02308 -0.1055824,-0.03905 -0.1621094,-0.05859 -0.113051,-0.03907 -0.2312699,-0.0739 -0.3574219,-0.09766 -0.126152,-0.02376 -0.2596984,-0.03996 -0.3964844,-0.04687 -0.136745,-0.0069 -0.2769219,-0.0037 -0.421875,0.0078 -0.04072,0.0032 -0.082869,0.0071 -0.1230468,0.01172 -0.01958,0.0023 -0.039144,0.0052 -0.058594,0.0078 -0.01476,0.002 -0.032195,0.0038 -0.046875,0.0059 -0.144153,0.02125 -0.287333,0.0538 -0.421875,0.0918 -0.136318,0.03846 -0.2652608,0.08123 -0.3886718,0.134765 -0.06183,0.02683 -0.1235807,0.05574 -0.1816407,0.08594 -0.05793,0.03013 -0.1161358,0.06442 -0.1699219,0.09766 -0.1060439,0.06582 -0.2032256,0.136581 -0.2910156,0.212891 -0.0444,0.03864 -0.085841,0.07624 -0.125,0.117187 -0.04047,0.04204 -0.074825,0.08668 -0.109375,0.130859 -0.05509,0.07044 -0.1038461,0.145769 -0.1425781,0.220704 -0.0078,0.01526 -0.020254,0.0295 -0.027344,0.04492 -0.06544,0.140453 -0.095703,0.286205 -0.095703,0.435546 0,0.04919 0.00423,0.09526 0.011719,0.142578 0.0074,0.04733 0.018693,0.09145 0.033203,0.136719 0.0149,0.04729 0.028551,0.09191 0.050781,0.136719 0.04263,0.0859 0.1025888,0.164748 0.1699218,0.240234 0.03367,0.03774 0.070085,0.07456 0.109375,0.109375 0.07858,0.06965 0.1687472,0.132744 0.2675782,0.189453 0.04928,0.02841 0.094653,0.05131 0.1484374,0.07617 0.271209,0.126171 0.5912118,0.208817 0.9492188,0.228516 0.141795,0.0078 0.2912272,0.0041 0.4414062,-0.0078 0.490792,-0.03878 0.9421535,-0.178869 1.3046876,-0.388672 0.103682,-0.0597 0.1971672,-0.125696 0.2851562,-0.195313 0.04267,-0.03392 0.086432,-0.07343 0.125,-0.109375 0.02037,-0.01899 0.039434,-0.03907 0.058594,-0.05859 0.0181,-0.01843 0.039641,-0.03387 0.056641,-0.05273 0.001,-0.0012 -10e-4,-0.0046 0,-0.0059 0.06987,-0.07799 0.1262402,-0.155913 0.1757812,-0.240235 0.04954,-0.08432 0.090304,-0.170907 0.1171875,-0.259765 0.01345,-0.04443 0.025863,-0.09149 0.033203,-0.136719 L 6.6875,13.208984 6.7011719,12.599609 6.8320312,5.125 V 5.0722656 L 7.0585938,5.046875 12.701172,4.3710938 v 5.8906252 0.226562 l -0.0059,0.558594 c -0.371384,-0.164089 -0.840206,-0.241572 -1.351562,-0.201172 -0.561011,0.04432 -1.067738,0.227774 -1.453125,0.486328 -0.03749,0.02515 -0.076288,0.05152 -0.1113281,0.07813 -0.419819,0.292907 -0.6816407,0.676796 -0.6816407,1.083985 0,0.786947 0.9801998,1.348829 2.1816408,1.253906 0.558681,-0.04414 1.065653,-0.227474 1.449219,-0.486328 0.01758,-0.01091 0.03367,-0.02198 0.05078,-0.0332 0.454052,-0.297696 0.740234,-0.702329 0.740234,-1.128907 0,-0.05972 -0.0087,-0.112991 -0.01953,-0.169921 l 0.03906,-0.02539 0.08399,-7.0976564 0.01953,-1.9492187 z m -0.890412,0.6506985 -0.04384,1.8513822 -5.9036392,0.5936224 0.025391,-1.6894531 z"
       id="path4932"
       inkscape:connector-curvature="0"
       sodipodi:nodetypes="cccccccccsccccccccccccccsccccccccccccccccccccccccccccccssccscccccccccc" />
  </g>
</svg>
