<?xml version="1.0" encoding="UTF-8" standalone="no"?>
<!-- Created with Inkscape (http://www.inkscape.org/) -->

<svg
   xmlns:dc="http://purl.org/dc/elements/1.1/"
   xmlns:cc="http://creativecommons.org/ns#"
   xmlns:rdf="http://www.w3.org/1999/02/22-rdf-syntax-ns#"
   xmlns:svg="http://www.w3.org/2000/svg"
   xmlns="http://www.w3.org/2000/svg"
   xmlns:xlink="http://www.w3.org/1999/xlink"
   xmlns:sodipodi="http://sodipodi.sourceforge.net/DTD/sodipodi-0.dtd"
   xmlns:inkscape="http://www.inkscape.org/namespaces/inkscape"
   width="16px"
   height="16px"
   id="svg3925"
   version="1.1"
   inkscape:version="0.48.3.1 r9886"
   sodipodi:docname="folder-publicshare-symbolic.svg">
  <defs
     id="defs3927">
    <linearGradient
       inkscape:collect="always"
       xlink:href="#linearGradient3569"
       id="linearGradient4548"
       gradientUnits="userSpaceOnUse"
       x1="136.23065"
       y1="40.918156"
       x2="54.675591"
       y2="-40.636906" />
    <linearGradient
       id="linearGradient3569">
      <stop
         id="stop3571"
         offset="0"
         style="stop-color:#161616;stop-opacity:1;" />
      <stop
         id="stop3573"
         offset="1"
         style="stop-color:#3a3a3a;stop-opacity:1;" />
    </linearGradient>
    <linearGradient
       id="linearGradient4565">
      <stop
         id="stop4567"
         offset="0"
         style="stop-color:#161616;stop-opacity:1;" />
      <stop
         id="stop4569"
         offset="1"
         style="stop-color:#3a3a3a;stop-opacity:1;" />
    </linearGradient>
  </defs>
  <sodipodi:namedview
     id="base"
     pagecolor="#ffffff"
     bordercolor="#666666"
     borderopacity="1.0"
     inkscape:pageopacity="0.0"
     inkscape:pageshadow="2"
     inkscape:zoom="11.098901"
     inkscape:cx="5.3923397"
     inkscape:cy="-2.6809506"
     inkscape:current-layer="layer1"
     showgrid="true"
     inkscape:grid-bbox="true"
     inkscape:document-units="px"
     inkscape:window-width="1366"
     inkscape:window-height="696"
     inkscape:window-x="0"
     inkscape:window-y="0"
     inkscape:window-maximized="1"
     showguides="true"
     inkscape:guide-bbox="true" />
  <metadata
     id="metadata3930">
    <rdf:RDF>
      <cc:Work
         rdf:about="">
        <dc:format>image/svg+xml</dc:format>
        <dc:type
           rdf:resource="http://purl.org/dc/dcmitype/StillImage" />
        <dc:title />
      </cc:Work>
    </rdf:RDF>
  </metadata>
  <g
     id="layer1"
     inkscape:label="Layer 1"
     inkscape:groupmode="layer">
    <g
       id="g7199">
      <path
         inkscape:connector-curvature="0"
         id="path7196"
         d="m 8.15625,0.35470297 c -0.2313766,0 -0.4715251,0.10233207 -0.6482497,0.25929987 l -0.032413,0 -6.96868416,6.70938436 a 0.16407997,0.16407997 0 0 1 -0.0324125,0 c -0.36720498,0.3490401 -0.367205,0.8502216 0,1.1992619 L 7.4755878,15.167208 c 0.3652393,0.347173 0.9960856,0.347173 1.3613244,0 L 15.838009,8.5226491 c 0.367204,-0.3490403 0.367205,-0.8502215 0,-1.1992619 a 0.16407997,0.16407997 0 0 1 -0.03241,0 L 8.8369122,0.61400284 C 8.6583022,0.44422842 8.3964579,0.35470297 8.15625,0.35470297 z M 8.091425,1.9753272 a 0.16407997,0.16407997 0 0 1 0.032413,0 0.16407997,0.16407997 0 0 1 0.032412,0 0.16407997,0.16407997 0 0 1 0.032412,0 0.16407997,0.16407997 0 0 1 0.032413,0 0.16407997,0.16407997 0 0 1 0.032412,0.032413 l 6.0611345,5.7694222 a 0.16407997,0.16407997 0 0 1 0.03241,0.032412 0.16407997,0.16407997 0 0 1 0.03241,0.032413 0.16407997,0.16407997 0 0 1 0,0.032412 0.16407997,0.16407997 0 0 1 0,0.032413 0.16407997,0.16407997 0 0 1 0,0.032412 0.16407997,0.16407997 0 0 1 -0.03241,0.064825 0.16407997,0.16407997 0 0 1 -0.03241,0.032412 L 8.2534875,13.805884 a 0.16407997,0.16407997 0 0 1 -0.032412,0.03241 0.16407997,0.16407997 0 0 1 -0.032413,0 0.16407997,0.16407997 0 0 1 -0.032412,0 0.16407997,0.16407997 0 0 1 -0.032412,0 0.16407997,0.16407997 0 0 1 -0.032413,0 0.16407997,0.16407997 0 0 1 -0.032412,-0.03241 L 1.9978779,8.0364618 a 0.16407997,0.16407997 0 0 1 -0.032412,-0.032412 0.16407997,0.16407997 0 0 1 -0.032412,-0.032412 0.16407997,0.16407997 0 0 1 0,-0.032413 0.16407997,0.16407997 0 0 1 0,-0.032412 0.16407997,0.16407997 0 0 1 0,-0.032413 0.16407997,0.16407997 0 0 1 0.032412,-0.064825 0.16407997,0.16407997 0 0 1 0.032412,-0.032412 L 8.0590126,2.0077397 a 0.16407997,0.16407997 0 0 1 0.032412,-0.032413 z"
         style="fill:#bebebe;fill-opacity:1;stroke:none;stroke-width:4;marker:none;visibility:visible;display:inline;overflow:visible;enable-background:new" />
      <path
         id="path114667"
         d="M 8.1619258,4.2035937 6.7327808,5.1316986 7.4456707,5.2426678 A 0.14227514,0.14227514 0 0 1 7.5600024,5.430977 L 6.702516,7.9092831 c 0.9414906,-0.08242 1.8136191,0.4316908 2.1252234,1.40897 l 1.9873516,-1.967176 a 0.14227514,0.14227514 0 0 1 0.218575,0.020175 l 0.332906,0.4976793 0.363172,-1.856207 -1.7654131,0.073979 0.4102471,0.5044039 a 0.14227514,0.14227514 0 0 1 -0.03699,0.2118496 L 8.2728941,8.0740547 A 0.14227514,0.14227514 0 0 1 8.0576818,7.9361853 L 8.3367853,5.6293769 A 0.14227514,0.14227514 0 0 1 8.5049196,5.5083198 L 9.1875474,5.6461902 8.1619258,4.2035937 z M 6.8302984,8.7734958 c -0.050584,-0.00111 -0.073977,-5.465e-4 -0.1244188,0.00336 -0.050444,0.00395 -0.071263,0.00784 -0.1210581,0.016815 -0.049796,0.00897 -0.072405,0.013008 -0.1210563,0.026901 -0.048653,0.013893 -0.067309,0.021671 -0.1143319,0.040352 -0.047021,0.018681 -0.06941,0.027159 -0.1143311,0.05044 -0.044923,0.023281 -0.061871,0.036241 -0.1042438,0.063891 -0.042374,0.02765 -0.061481,0.038874 -0.1008806,0.070617 -0.039402,0.031742 -0.054759,0.04855 -0.090794,0.084066 -0.036034,0.035518 -0.051758,0.051854 -0.084066,0.090792 -0.03231,0.03894 -0.045721,0.05555 -0.073979,0.097519 -0.028259,0.041969 -0.039963,0.063024 -0.063891,0.1076059 -0.023928,0.044582 -0.034443,0.064222 -0.053802,0.1109692 -0.019359,0.046748 -0.025758,0.065886 -0.040353,0.1143322 -0.014595,0.048449 -0.020579,0.071396 -0.030266,0.1210557 -0.00969,0.049663 -0.012135,0.07068 -0.016813,0.1210586 -0.00455,0.049023 -0.00702,0.073276 -0.00672,0.121057 7.8e-6,0.0013 -1e-5,0.002 0,0.0034 0.00116,0.04605 0.00437,0.06715 0.010087,0.114332 0.00588,0.04856 0.00963,0.06993 0.020176,0.117695 0.010553,0.04777 0.015156,0.06781 0.030264,0.11433 0.015109,0.04653 0.024185,0.06949 0.043716,0.114334 0.01953,0.04485 0.026671,0.06149 0.05044,0.104244 0.023768,0.04275 0.036107,0.06398 0.063891,0.104243 0.027783,0.04026 0.042439,0.05677 0.073979,0.09416 0.031541,0.03739 0.045702,0.05325 0.080705,0.08743 0.035001,0.03417 0.049292,0.04671 0.08743,0.07734 0.038137,0.03063 0.056602,0.04381 0.097517,0.07061 0.040916,0.02681 0.06093,0.03779 0.1042449,0.06053 0.043313,0.02273 0.062299,0.032 0.1076059,0.05044 0.045306,0.01844 0.064092,0.02636 0.1109693,0.04035 0.046875,0.014 0.069688,0.01751 0.1176937,0.0269 0.048006,0.0094 0.069005,0.01209 0.1176946,0.0168 0.048689,0.0048 0.068775,0.0067 0.1176936,0.0067 0.048918,0 0.069005,-0.0021 0.1176954,-0.0067 0.048689,-0.0048 0.069688,-0.0074 0.1176936,-0.0168 0.048006,-0.0094 0.070819,-0.0129 0.1176946,-0.0269 0.046876,-0.01399 0.065665,-0.0219 0.1109691,-0.04035 0.045305,-0.01844 0.064293,-0.02771 0.1076059,-0.05044 0.043313,-0.02273 0.063327,-0.03372 0.1042428,-0.06053 0.040916,-0.02681 0.059381,-0.03998 0.097518,-0.07061 0.038137,-0.03063 0.052428,-0.04317 0.087431,-0.07734 0.035001,-0.03416 0.049163,-0.05004 0.080704,-0.08743 0.031542,-0.03739 0.046196,-0.05389 0.073979,-0.09416 0.027783,-0.04026 0.040123,-0.06149 0.063891,-0.104243 0.023768,-0.04275 0.030911,-0.05939 0.050439,-0.104244 0.019529,-0.04485 0.028606,-0.06781 0.043716,-0.114334 0.015109,-0.04652 0.019717,-0.06657 0.030265,-0.11433 0.010542,-0.04776 0.014287,-0.06913 0.020175,-0.117695 0.00573,-0.04718 0.00892,-0.06829 0.010087,-0.114332 3.46e-5,-0.0013 -3.3e-5,-0.0019 0,-0.0034 3.666e-4,-0.046393 -0.00244,-0.070048 -0.00673,-0.1176949 -0.00442,-0.049006 -0.00766,-0.069349 -0.016815,-0.1176941 -0.00914,-0.048348 -0.013098,-0.070461 -0.026901,-0.1176937 -0.013804,-0.04723 -0.022028,-0.068666 -0.040353,-0.114332 -0.018325,-0.045666 -0.02777,-0.063936 -0.05044,-0.107607 -0.022671,-0.04367 -0.03036,-0.062981 -0.057166,-0.1042437 -0.026806,-0.041262 -0.039932,-0.059053 -0.070618,-0.097518 -0.030684,-0.038465 -0.046428,-0.05549 -0.080704,-0.090793 C 7.6535041,9.1114451 7.6378919,9.0978515 7.6003497,9.0660431 7.5628085,9.0342347 7.5466469,9.0200776 7.5061933,8.9920637 7.4657418,8.9640508 7.444932,8.9554879 7.4019506,8.931536 7.358968,8.907583 7.3428119,8.8973981 7.2977068,8.8777314 7.2526027,8.8580647 7.2301775,8.8492093 7.1833758,8.8340164 7.136575,8.8188235 7.117099,8.8143291 7.0690439,8.803752 7.0209895,8.7931662 7.0002036,8.7894357 6.9513494,8.783575 c -0.048854,-0.00586 -0.071863,-0.009 -0.1210563,-0.010087 z"
         style="color:#000000;fill:#bebebe;fill-opacity:0.9909422;stroke:none;enable-background:new"
         inkscape:connector-curvature="0" />
    </g>
  </g>
</svg>
