<?xml version="1.0" encoding="UTF-8" standalone="no"?>
<!-- Created with Inkscape (http://www.inkscape.org/) -->

<svg
   xmlns:dc="http://purl.org/dc/elements/1.1/"
   xmlns:cc="http://creativecommons.org/ns#"
   xmlns:rdf="http://www.w3.org/1999/02/22-rdf-syntax-ns#"
   xmlns:svg="http://www.w3.org/2000/svg"
   xmlns="http://www.w3.org/2000/svg"
   xmlns:sodipodi="http://sodipodi.sourceforge.net/DTD/sodipodi-0.dtd"
   xmlns:inkscape="http://www.inkscape.org/namespaces/inkscape"
   width="16px"
   height="16px"
   id="svg3925"
   version="1.1"
   inkscape:version="0.92.2 (unknown)"
   sodipodi:docname="folder-pictures-symbolic.svg">
  <defs
     id="defs3927" />
  <sodipodi:namedview
     id="base"
     pagecolor="#ffffff"
     bordercolor="#666666"
     borderopacity="1.0"
     inkscape:pageopacity="0.0"
     inkscape:pageshadow="2"
     inkscape:zoom="22.197802"
     inkscape:cx="13.873729"
     inkscape:cy="9.997991"
     inkscape:current-layer="layer1"
     showgrid="true"
     inkscape:grid-bbox="true"
     inkscape:document-units="px"
     inkscape:window-width="1366"
     inkscape:window-height="706"
     inkscape:window-x="0"
     inkscape:window-y="0"
     inkscape:window-maximized="1"
     showguides="true"
     inkscape:guide-bbox="true"
     inkscape:snap-global="false" />
  <metadata
     id="metadata3930">
    <rdf:RDF>
      <cc:Work
         rdf:about="">
        <dc:format>image/svg+xml</dc:format>
        <dc:type
           rdf:resource="http://purl.org/dc/dcmitype/StillImage" />
        <dc:title />
      </cc:Work>
    </rdf:RDF>
  </metadata>
  <g
     id="layer1"
     inkscape:label="Layer 1"
     inkscape:groupmode="layer">
    <path
       style="fill:#bebebe;fill-opacity:1;stroke-width:1.16144907"
       d="M 0.8919333,2.8179085 V 13.182092 H 15.108067 V 2.8179085 Z M 1.612004,3.6457901 H 14.38589 V 12.35421 H 1.612004 Z"
       id="rect814"
       inkscape:connector-curvature="0" />
    <path
       style="fill:#bebebe;fill-opacity:1;stroke-width:0.93881297"
       d="m 6.4264338,6.2541825 c 0.1389632,-0.00259 0.2756638,0.049901 0.3549416,0.1465165 l 1.731372,2.1090134 a 0.11462998,0.11462998 0 0 0 0.1609619,0.016509 L 9.7880607,7.6223584 c 0.175574,-0.1426472 0.4916513,-0.1177598 0.6314663,0.041272 l 2.60428,2.9612862 c 0.09326,0.106079 0.08911,0.20609 0.02889,0.301287 -0.06021,0.0952 -0.188517,0.175408 -0.36526,0.175408 H 3.3124411 c -0.168633,0 -0.296067,-0.07467 -0.359069,-0.165089 -0.063,-0.09042 -0.0712,-0.186168 0.0062,-0.29097 L 6.0838742,6.4130808 c 0.072761,-0.098527 0.2035964,-0.156312 0.3425596,-0.1588983 z m 0.033018,0.9843438 a 0.11462998,0.11462998 0 0 0 -0.090798,0.047463 L 4.1399511,10.302994 a 0.11462998,0.11462998 0 0 0 0.09286,0.183661 h 7.4413929 a 0.11462998,0.11462998 0 0 0 0.08667,-0.191916 L 10.103794,8.4085954 A 0.11462998,0.11462998 0 0 0 9.9448954,8.3962136 L 8.8160986,9.3124582 C 8.6366421,9.45826 8.311613,9.4298034 8.1763783,9.2649951 L 6.5502507,7.2818622 a 0.11462998,0.11462998 0 0 0 -0.090799,-0.043336 z"
       id="Combined-Shape"
       inkscape:connector-curvature="0" />
  </g>
</svg>
