<?xml version="1.0" encoding="UTF-8" standalone="no"?>
<!-- Generator: Adobe Illustrator 14.0.0, SVG Export Plug-In . SVG Version: 6.00 Build 43363)  -->
<svg id="Layer_1" xmlns:rdf="http://www.w3.org/1999/02/22-rdf-syntax-ns#" xmlns="http://www.w3.org/2000/svg" enable-background="new 0 0 22 22" xml:space="preserve" height="22px" viewBox="0 0 22 22" width="22px" version="1.1" y="0px" x="0px" xmlns:cc="http://creativecommons.org/ns#" xmlns:dc="http://purl.org/dc/elements/1.1/"><metadata id="metadata3010"><rdf:RDF><cc:Work rdf:about=""><dc:format>image/svg+xml</dc:format><dc:type rdf:resource="http://purl.org/dc/dcmitype/StillImage"/></cc:Work></rdf:RDF></metadata>
<g id="g3000">
	<g id="g3002" style="fill:#fff">
		<path id="path3004" style="fill:#fff" d="m18.123 2.012l-8.913 1.506c-0.482 0.081-0.877 0.552-0.877 1.048v9.24l0.017 0.023c-0.944-0.271-2.127-0.118-3.209 0.52-1.8 1.061-2.628 3.042-1.848 4.421 0.779 1.379 2.873 1.638 4.673 0.573 1.277-0.752 2.051-1.964 2.124-3.098l0.02 0.027v-0.226-0.001-9.405c0-0.495 0.394-0.968 0.876-1.048l5.359-0.906c0.482-0.081 0.877 0.258 0.877 0.753v6.565l0.018 0.025c-0.944-0.271-2.127-0.119-3.209 0.52-1.801 1.061-2.628 3.041-1.848 4.42 0.779 1.379 2.871 1.639 4.672 0.574 1.277-0.752 2.051-1.964 2.124-3.099l0.021 0.029v-11.708c0-0.495-0.395-0.833-0.877-0.753z" fill="#fff"/>
	</g>
</g>
</svg>
