<?xml version="1.0" encoding="UTF-8" standalone="no"?>
<!-- Created with Inkscape (http://www.inkscape.org/) -->

<svg
   xmlns:dc="http://purl.org/dc/elements/1.1/"
   xmlns:cc="http://creativecommons.org/ns#"
   xmlns:rdf="http://www.w3.org/1999/02/22-rdf-syntax-ns#"
   xmlns:svg="http://www.w3.org/2000/svg"
   xmlns="http://www.w3.org/2000/svg"
   xmlns:sodipodi="http://sodipodi.sourceforge.net/DTD/sodipodi-0.dtd"
   xmlns:inkscape="http://www.inkscape.org/namespaces/inkscape"
   id="svg3320"
   height="22"
   width="22"
   version="1.0"
   inkscape:version="0.48.3.1 r9886"
   sodipodi:docname="group-downloads.svg">
  <metadata
     id="metadata3648">
    <rdf:RDF>
      <cc:Work
         rdf:about="">
        <dc:format>image/svg+xml</dc:format>
        <dc:type
           rdf:resource="http://purl.org/dc/dcmitype/StillImage" />
      </cc:Work>
    </rdf:RDF>
  </metadata>
  <defs
     id="defs3646" />
  <sodipodi:namedview
     pagecolor="#ffffff"
     bordercolor="#666666"
     borderopacity="1"
     objecttolerance="10"
     gridtolerance="10"
     guidetolerance="10"
     inkscape:pageopacity="0"
     inkscape:pageshadow="2"
     inkscape:window-width="1366"
     inkscape:window-height="714"
     id="namedview3644"
     showgrid="false"
     inkscape:zoom="3.7926636"
     inkscape:cx="-1.0016126"
     inkscape:cy="-12.471818"
     inkscape:window-x="0"
     inkscape:window-y="22"
     inkscape:window-maximized="1"
     inkscape:current-layer="svg3320" />
  <path
     style="color:#000000;fill:#fff"
     d="M 8.4375 2.375 C 4.7115153 3.4762036 2 6.9170071 2 11 C 2 15.9706 6.0294 20 11 20 C 15.9706 20 20 15.9706 20 11 C 20 6.9170071 17.288485 3.4762036 13.5625 2.375 L 13.5625 4.5 C 16.15868 5.52373 18 8.0400938 18 11 C 18 14.866 14.866 18 11 18 C 7.134 18 4 14.866 4 11 C 4 8.0400938 5.8413198 5.52373 8.4375 4.5 L 8.4375 2.375 z "
     id="path2922-6" />
  <path
     id="path3288-7"
     style="fill:#ffffff"
     d="M 15.75,11 10.988,16 6.2498,11 9,11 9,1 l 4,0 0,10 2.7502,0 z"
     inkscape:connector-curvature="0"
     sodipodi:nodetypes="ccccccccc" />
  <path
     id="path2920"
     style="color:#000000;stroke:#fff;fill:#fff"
     d="m0 0z" />
</svg>
