<?xml version="1.0" encoding="UTF-8" standalone="no"?>
<!-- Created with Inkscape (http://www.inkscape.org/) -->

<svg
   xmlns:dc="http://purl.org/dc/elements/1.1/"
   xmlns:cc="http://creativecommons.org/ns#"
   xmlns:rdf="http://www.w3.org/1999/02/22-rdf-syntax-ns#"
   xmlns:svg="http://www.w3.org/2000/svg"
   xmlns="http://www.w3.org/2000/svg"
   xmlns:sodipodi="http://sodipodi.sourceforge.net/DTD/sodipodi-0.dtd"
   xmlns:inkscape="http://www.inkscape.org/namespaces/inkscape"
   id="svg3767"
   height="22"
   width="22"
   version="1.1"
   inkscape:version="0.48.3.1 r9886"
   sodipodi:docname="group-installed.svg">
  <metadata
     id="metadata4713">
    <rdf:RDF>
      <cc:Work
         rdf:about="">
        <dc:format>image/svg+xml</dc:format>
        <dc:type
           rdf:resource="http://purl.org/dc/dcmitype/StillImage" />
      </cc:Work>
    </rdf:RDF>
  </metadata>
  <defs
     id="defs4711" />
  <sodipodi:namedview
     pagecolor="#ffffff"
     bordercolor="#666666"
     borderopacity="1"
     objecttolerance="10"
     gridtolerance="10"
     guidetolerance="10"
     inkscape:pageopacity="1"
     inkscape:pageshadow="2"
     inkscape:window-width="1366"
     inkscape:window-height="714"
     id="namedview4709"
     showgrid="false"
     inkscape:zoom="5.3636364"
     inkscape:cx="-34.287872"
     inkscape:cy="-6.4167381"
     inkscape:window-x="0"
     inkscape:window-y="22"
     inkscape:window-maximized="1"
     inkscape:current-layer="svg3767" />
  <path
     style="color:#000000;fill:#ffffff"
     d="M 11 2 C 6.0294 2 2 6.0294 2 11 C 2 15.9706 6.0294 20 11 20 C 15.9706 20 20 15.9706 20 11 C 20 9.9126813 19.7908 8.8711671 19.4375 7.90625 L 17.875 9.5 C 17.98243 9.9890036 18.0625 10.479126 18.0625 11 C 18.0625 14.895314 14.895314 18.0625 11 18.0625 C 7.1046858 18.0625 3.9375 14.895314 3.9375 11 C 3.9375 7.1046858 7.1046858 3.9375 11 3.9375 C 13.126479 3.9375 15.016812 4.8840711 16.3125 6.375 L 17.6875 4.96875 C 16.040363 3.1434993 13.652205 2 11 2 z M 19.46875 3.96875 L 18.03125 5.40625 L 16.65625 6.8125 L 10.4375 13.1875 L 7.53125 10.1875 L 6 12 L 10.4375 16.375 L 17.71875 8.84375 L 19.1875 7.3125 L 20.8125 5.65625 L 19.46875 3.96875 z "
     id="path2922-6" />
</svg>
