<?xml version="1.0" encoding="UTF-8" standalone="no"?>
<!-- Generator: Adobe Illustrator 14.0.0, SVG Export Plug-In . SVG Version: 6.00 Build 43363)  -->
<svg id="Layer_1" xmlns:rdf="http://www.w3.org/1999/02/22-rdf-syntax-ns#" xmlns="http://www.w3.org/2000/svg" enable-background="new 0 0 22 22" xml:space="preserve" height="22px" viewBox="0 0 22 22" width="22px" version="1.1" y="0px" x="0px" xmlns:cc="http://creativecommons.org/ns#" xmlns:dc="http://purl.org/dc/elements/1.1/"><metadata id="metadata13"><rdf:RDF><cc:Work rdf:about=""><dc:format>image/svg+xml</dc:format><dc:type rdf:resource="http://purl.org/dc/dcmitype/StillImage"/></cc:Work></rdf:RDF></metadata>
<g id="g3" style="fill:#fff" fill="#fff">
	<path id="path5" style="fill:#fff" d="m11 2c-4.971 0-9 4.029-9 9s4.029 9 9 9 9-4.029 9-9-4.029-9-9-9zm0 2c3.866 0 7 3.135 7 7 0 3.867-3.134 7-7 7s-7-3.133-7-7c0-3.865 3.134-7 7-7z"/>
	<path id="path7" style="fill:#fff" d="m15.143 12.804v-6.38c0-0.275-0.205-0.462-0.457-0.417l-4.594 0.835c-0.252 0.045-0.457 0.307-0.457 0.583v5.135l0.008 0.013c-0.492-0.15-1.108-0.065-1.671 0.289-0.938 0.588-1.369 1.69-0.963 2.456s1.497 0.909 2.434 0.318c0.666-0.418 1.068-1.092 1.106-1.722l0.011 0.016v-5.354c0-0.274 0.157-0.538 0.409-0.582l2.791-0.503c0.252-0.045 0.457 0.143 0.457 0.418v3.649l0.01 0.014c-0.492-0.15-1.109-0.065-1.672 0.289-0.938 0.588-1.369 1.689-0.963 2.455s1.496 0.91 2.434 0.318c0.665-0.418 1.068-1.091 1.106-1.721l0.011 0.016v-0.125z"/>
</g>
</svg>
