<?xml version="1.0" encoding="UTF-8" standalone="no"?>
<!-- Generator: Adobe Illustrator 14.0.0, SVG Export Plug-In . SVG Version: 6.00 Build 43363)  -->

<svg
   xmlns:dc="http://purl.org/dc/elements/1.1/"
   xmlns:cc="http://creativecommons.org/ns#"
   xmlns:rdf="http://www.w3.org/1999/02/22-rdf-syntax-ns#"
   xmlns:svg="http://www.w3.org/2000/svg"
   xmlns="http://www.w3.org/2000/svg"
   xmlns:sodipodi="http://sodipodi.sourceforge.net/DTD/sodipodi-0.dtd"
   xmlns:inkscape="http://www.inkscape.org/namespaces/inkscape"
   id="Layer_1"
   enable-background="new 0 0 22 22"
   xml:space="preserve"
   height="22px"
   viewBox="0 0 22 22"
   width="22px"
   version="1.1"
   y="0px"
   x="0px"
   inkscape:version="0.48.3.1 r9886"
   sodipodi:docname="group-folders.svg"><defs
   id="defs4240" /><sodipodi:namedview
   pagecolor="#ffffff"
   bordercolor="#666666"
   borderopacity="1"
   objecttolerance="10"
   gridtolerance="10"
   guidetolerance="10"
   inkscape:pageopacity="1"
   inkscape:pageshadow="2"
   inkscape:window-width="1366"
   inkscape:window-height="714"
   id="namedview4238"
   showgrid="false"
   inkscape:zoom="5.6568543"
   inkscape:cx="6.3758142"
   inkscape:cy="-6.0852597"
   inkscape:window-x="0"
   inkscape:window-y="22"
   inkscape:window-maximized="1"
   inkscape:current-layer="Layer_1" /><metadata
   id="metadata3023"><rdf:RDF><cc:Work
       rdf:about=""><dc:format>image/svg+xml</dc:format><dc:type
         rdf:resource="http://purl.org/dc/dcmitype/StillImage" /></cc:Work></rdf:RDF></metadata>

<path
   style="fill:#ffffff;fill-opacity:1"
   d="m 3.7108578,2.15625 c -0.1622529,0 -0.3042425,0.1293314 -0.3042425,0.2788889 l 0,1.64798 -0.8113132,0 c -0.1622529,0 -0.3042424,0.1293313 -0.3042424,0.2788889 l -0.044194,2.8237782 1.5465658,0 0.044194,-1.4546871 C 3.8481933,5.3832503 4.1444763,5.0972604 4.522171,5.0972604 l 0.4310102,0 0,-0.6338384 0,-0.3803031 0,-0.2788889 c 0,-0.00837 -3.554e-4,-0.017063 0,-0.025354 0,-0.011588 0.024614,-0.013924 0.025353,-0.025354 0.015089,-0.1600386 0.081724,-0.3014159 0.2028283,-0.4056566 0.058679,-0.050508 0.1026668,-0.097431 0.1774748,-0.1267677 0.00666,-0.00287 0.018576,0.00271 0.025354,0 0.076783,-0.030719 0.1648021,-0.04307 0.2535354,-0.050707 0.026144,-0.00225 0.049177,-0.025354 0.076061,-0.025354 l 3.0677781,0 c 0.026884,0 0.049917,0.023104 0.076061,0.025354 0.095145,0.00819 0.1977024,0.016163 0.2788889,0.050707 0.1571579,0.06687 0.2859352,0.1937108 0.3549496,0.329596 0.034984,0.075735 0.050707,0.1665331 0.050707,0.2535354 l 0,0.2788889 0,0.2788889 0,0.7352526 7.4539407,0 0.126767,0 0.35495,0 c 0.377695,0 0.684545,0.2858294 0.684545,0.6338385 l -0.04419,1.3532729 1.546566,0 0.04419,-2.722364 c 0.001,-0.064272 -0.0045,-0.076966 -0.07606,-0.1267677 -0.06005,-0.041802 -0.167132,-0.09101 -0.278889,-0.1521212 l -2.231112,0 -0.126767,0 -5.907375,0 0,-1.64798 c 0,-0.064281 -0.0045,-0.076966 -0.07606,-0.1267677 -0.06005,-0.041802 -0.167132,-0.091009 -0.278889,-0.1521212 l -2.2311117,0 -0.1267677,0 -2.307172,0 z"
   id="path4488"
   inkscape:connector-curvature="0"
   sodipodi:nodetypes="sscssccsscccsccsccssscscscccccssccscccccscccccs" /><path
   style="fill:#ffffff;fill-opacity:1;stroke:none"
   d="M 1.1641978,7.4239375 20.551723,7.3016427 21.050117,7.8723955 20.445794,17.162446 1.877342,17.205509 0.96483945,8.1170024 C 0.92742168,7.8502957 0.94858884,7.5871627 1.1641978,7.4239375 z"
   id="path9005"
   inkscape:connector-curvature="0"
   sodipodi:nodetypes="ccccccc" /></svg>