<?xml version="1.0" encoding="UTF-8" standalone="no"?>
<!-- Created with Inkscape (http://www.inkscape.org/) -->

<svg
   xmlns:dc="http://purl.org/dc/elements/1.1/"
   xmlns:cc="http://creativecommons.org/ns#"
   xmlns:rdf="http://www.w3.org/1999/02/22-rdf-syntax-ns#"
   xmlns:svg="http://www.w3.org/2000/svg"
   xmlns="http://www.w3.org/2000/svg"
   xmlns:sodipodi="http://sodipodi.sourceforge.net/DTD/sodipodi-0.dtd"
   xmlns:inkscape="http://www.inkscape.org/namespaces/inkscape"
   width="16px"
   height="16px"
   id="svg3925"
   version="1.1"
   inkscape:version="0.92.2 (unknown)"
   sodipodi:docname="folder-symbolic.svg">
  <defs
     id="defs3927" />
  <sodipodi:namedview
     id="base"
     pagecolor="#ffffff"
     bordercolor="#666666"
     borderopacity="1.0"
     inkscape:pageopacity="0.0"
     inkscape:pageshadow="2"
     inkscape:zoom="8"
     inkscape:cx="-2.7184198"
     inkscape:cy="-5.2534935"
     inkscape:current-layer="layer1"
     showgrid="false"
     inkscape:grid-bbox="true"
     inkscape:document-units="px"
     inkscape:window-width="1366"
     inkscape:window-height="697"
     inkscape:window-x="0"
     inkscape:window-y="0"
     inkscape:window-maximized="1"
     inkscape:snap-global="false">
    <inkscape:grid
       type="xygrid"
       id="grid5642" />
  </sodipodi:namedview>
  <metadata
     id="metadata3930">
    <rdf:RDF>
      <cc:Work
         rdf:about="">
        <dc:format>image/svg+xml</dc:format>
        <dc:type
           rdf:resource="http://purl.org/dc/dcmitype/StillImage" />
        <dc:title />
      </cc:Work>
    </rdf:RDF>
  </metadata>
  <g
     id="layer1"
     inkscape:label="Layer 1"
     inkscape:groupmode="layer">
    <path
       style="fill:#cccccc;fill-opacity:1;stroke:none"
       mask="none"
       clip-path="none"
       d="M 1.7714844 1.3847656 C 1.543287 1.3847656 1.4550258 1.5955424 1.359375 1.8125 L 1.1191406 2.3554688 L 1.21875 7.0585938 C 1.2277 7.0580967 1.2380887 7.0616506 1.2460938 7.0566406 L 4.4414062 7.0566406 L 4.96875 6.640625 L 1.96875 6.640625 L 1.96875 3.421875 L 14.03125 3.421875 L 14.03125 5.9101562 L 14.839844 5.9101562 L 14.878906 2.9746094 C 14.888806 2.7377102 14.696952 2.546875 14.46875 2.546875 L 5.9804688 2.546875 L 5.2382812 1.3847656 L 1.7714844 1.3847656 z "
       id="path4924" />
    <path
       sodipodi:nodetypes="sccssssssss"
       inkscape:connector-curvature="0"
       id="path4932"
       d="m 1.0036823,6.1073558 3.1960643,0 1.4486719,-1.1733648 9.3481195,0 c 0.23712,0 0.442203,0.1913211 0.428016,0.4280169 l -0.518141,8.6455101 c -0.01417,0.236696 -0.190895,0.428015 -0.428015,0.428015 l -12.9565752,0 c -0.23712,0 -0.411612,-0.191464 -0.4280156,-0.428015 L 0.57566247,6.5353727 C 0.55925881,6.2988198 0.76674451,6.1167727 1.0036823,6.1073558 z"
       style="fill:#cccccc;fill-opacity:1;stroke:none" />
  </g>
</svg>
