<?xml version="1.0" encoding="UTF-8" standalone="no"?>
<!-- Created with Inkscape (http://www.inkscape.org/) -->

<svg
   xmlns:dc="http://purl.org/dc/elements/1.1/"
   xmlns:cc="http://creativecommons.org/ns#"
   xmlns:rdf="http://www.w3.org/1999/02/22-rdf-syntax-ns#"
   xmlns:svg="http://www.w3.org/2000/svg"
   xmlns="http://www.w3.org/2000/svg"
   xmlns:sodipodi="http://sodipodi.sourceforge.net/DTD/sodipodi-0.dtd"
   xmlns:inkscape="http://www.inkscape.org/namespaces/inkscape"
   width="16px"
   height="16px"
   id="svg13294"
   version="1.1"
   inkscape:version="0.92.2 (unknown)"
   sodipodi:docname="network-server-symbolic.svg">
  <defs
     id="defs13296" />
  <sodipodi:namedview
     id="base"
     pagecolor="#ffffff"
     bordercolor="#666666"
     borderopacity="1.0"
     inkscape:pageopacity="0.0"
     inkscape:pageshadow="2"
     inkscape:zoom="22.627418"
     inkscape:cx="-0.45638081"
     inkscape:cy="9.0394424"
     inkscape:current-layer="layer1"
     showgrid="true"
     inkscape:grid-bbox="true"
     inkscape:document-units="px"
     inkscape:window-width="1366"
     inkscape:window-height="706"
     inkscape:window-x="0"
     inkscape:window-y="0"
     inkscape:window-maximized="1"
     inkscape:snap-global="false" />
  <metadata
     id="metadata13299">
    <rdf:RDF>
      <cc:Work
         rdf:about="">
        <dc:format>image/svg+xml</dc:format>
        <dc:type
           rdf:resource="http://purl.org/dc/dcmitype/StillImage" />
        <dc:title></dc:title>
      </cc:Work>
    </rdf:RDF>
  </metadata>
  <g
     id="layer1"
     inkscape:label="Layer 1"
     inkscape:groupmode="layer">
    <path
       inkscape:connector-curvature="0"
       d="m 6,13 v 1 H 0 v 1 h 6 v 1 h 4 v -1 h 6 v -1 h -6 v -1 z m 1,1 h 2 v 1 H 7 Z"
       style="color:#000000;isolation:auto;mix-blend-mode:normal;solid-color:#000000;fill:#bebebe;color-rendering:auto;image-rendering:auto;shape-rendering:auto"
       id="rect4197"
       sodipodi:nodetypes="cccccccccccccccccc" />
    <path
       style="fill:#bebebe;fill-opacity:1;stroke-width:0.69164991"
       d="M 4.6464844 0.001953125 C 4.6096444 0.13011025 4.5839844 0.27027052 4.5839844 0.42773438 L 4.5839844 11.271484 C 4.5839844 11.765784 4.788501 12.164062 5.0449219 12.164062 L 10.955078 12.164062 C 11.211499 12.164062 11.416016 11.765784 11.416016 11.271484 L 11.416016 0.42773438 C 11.416016 0.27027053 11.390366 0.13011023 11.353516 0.001953125 L 4.6464844 0.001953125 z M 5.3789062 0.796875 L 10.621094 0.796875 L 10.621094 11.271484 C 10.621094 11.321685 10.610425 11.328619 10.603516 11.369141 L 5.3964844 11.369141 C 5.3895749 11.328619 5.3789062 11.321685 5.3789062 11.271484 L 5.3789062 0.796875 z "
       id="rect3884" />
    <rect
       style="fill:#bebebe;fill-opacity:1;stroke-width:0.95327336"
       id="rect1430"
       width="0.88388342"
       height="10.120465"
       x="8.1767769"
       y="1.0227752" />
    <rect
       y="1.1949525"
       x="6.5415921"
       height="5.7010479"
       width="0.57452422"
       id="rect1440"
       style="fill:#bebebe;fill-opacity:1;stroke-width:0.5768345" />
    <rect
       style="fill:#bebebe;fill-opacity:1;stroke-width:0.37320998"
       id="rect1442"
       width="0.57452422"
       height="2.3864851"
       x="1.1949525"
       y="-7.0719223"
       transform="rotate(90)" />
    <rect
       transform="rotate(90)"
       y="-7.0719223"
       x="6.321476"
       height="2.3864851"
       width="0.57452422"
       id="rect1444"
       style="fill:#bebebe;fill-opacity:1;stroke-width:0.37320998" />
  </g>
</svg>
