<?xml version="1.0" encoding="UTF-8" standalone="no"?>
<!-- Created with Inkscape (http://www.inkscape.org/) -->

<svg
   xmlns:dc="http://purl.org/dc/elements/1.1/"
   xmlns:cc="http://creativecommons.org/ns#"
   xmlns:rdf="http://www.w3.org/1999/02/22-rdf-syntax-ns#"
   xmlns:svg="http://www.w3.org/2000/svg"
   xmlns="http://www.w3.org/2000/svg"
   xmlns:sodipodi="http://sodipodi.sourceforge.net/DTD/sodipodi-0.dtd"
   xmlns:inkscape="http://www.inkscape.org/namespaces/inkscape"
   id="svg7384"
   height="16.03"
   width="16.054"
   version="1.1"
   inkscape:version="0.92.2 (unknown)"
   sodipodi:docname="view-restore-symbolic.svg">
  <defs
     id="defs3108" />
  <sodipodi:namedview
     pagecolor="#ffffff"
     bordercolor="#666666"
     borderopacity="1"
     objecttolerance="10"
     gridtolerance="10"
     guidetolerance="10"
     inkscape:pageopacity="0"
     inkscape:pageshadow="2"
     inkscape:window-width="1366"
     inkscape:window-height="716"
     id="namedview3106"
     showgrid="false"
     inkscape:zoom="14.722395"
     inkscape:cx="-0.14283107"
     inkscape:cy="11.922367"
     inkscape:window-x="0"
     inkscape:window-y="27"
     inkscape:window-maximized="1"
     inkscape:current-layer="svg7384" />
  <metadata
     id="metadata90">
    <rdf:RDF>
      <cc:Work
         rdf:about="">
        <dc:format>image/svg+xml</dc:format>
        <dc:type
           rdf:resource="http://purl.org/dc/dcmitype/StillImage" />
        <dc:title>Gnome Symbolic Icon Theme</dc:title>
      </cc:Work>
    </rdf:RDF>
  </metadata>
  <title
     id="title9167">Gnome Symbolic Icon Theme</title>
  <path
     style="fill:#bebebe;fill-opacity:1;stroke:none"
     d="M 14.503503,7.707435 11.44491,6.086341 c 0.0022,-0.0021 0.0057,-0.0018 0.0078,-0.0039 l 3.488283,-3.488287 c 0.244593,-0.2445938 0.27964,-0.6031729 0.08008,-0.8027348 L 14.540612,1.3129036 C 14.341051,1.1133417 13.984425,1.1483884 13.739832,1.3929817 L 10.304285,4.828529 8.6265496,1.6136848 V 7.707435 Z"
     id="path4153"
     inkscape:connector-curvature="0" />
  <path
     id="path904"
     d="m 1.5501521,8.3226527 3.058593,1.621094 c -0.0022,0.0021 -0.0057,0.0018 -0.0078,0.0039 l -3.488283,3.4882873 c -0.24459299,0.244594 -0.27963999,0.603173 -0.08008,0.802735 l 0.480461,0.478515 c 0.199561,0.199562 0.556187,0.164515 0.80078,-0.08008 l 3.435547,-3.435547 1.6777355,3.214844 V 8.3226527 Z"
     style="fill:#bebebe;fill-opacity:1;stroke:none"
     inkscape:connector-curvature="0" />
</svg>
