<?xml version="1.0" encoding="UTF-8" standalone="no"?>
<!-- Created with Inkscape (http://www.inkscape.org/) -->

<svg
   xmlns:dc="http://purl.org/dc/elements/1.1/"
   xmlns:cc="http://creativecommons.org/ns#"
   xmlns:rdf="http://www.w3.org/1999/02/22-rdf-syntax-ns#"
   xmlns:svg="http://www.w3.org/2000/svg"
   xmlns="http://www.w3.org/2000/svg"
   xmlns:xlink="http://www.w3.org/1999/xlink"
   xmlns:sodipodi="http://sodipodi.sourceforge.net/DTD/sodipodi-0.dtd"
   xmlns:inkscape="http://www.inkscape.org/namespaces/inkscape"
   id="svg7384"
   height="16"
   width="16"
   version="1.1"
   inkscape:version="0.92.2 (unknown)"
   sodipodi:docname="view-refresh-symbolic.svg">
  <defs
     id="defs9">
    <linearGradient
       id="linearGradient4466">
      <stop
         style="stop-color:#bebebe;stop-opacity:1;"
         offset="0"
         id="stop4468" />
      <stop
         id="stop4474"
         offset="0.50676125"
         style="stop-color:#bebebe;stop-opacity:0.34684685" />
      <stop
         style="stop-color:#bebebe;stop-opacity:0"
         offset="1"
         id="stop4470" />
    </linearGradient>
    <linearGradient
       inkscape:collect="always"
       xlink:href="#linearGradient4466"
       id="linearGradient4472"
       x1="9.6473188"
       y1="14.423886"
       x2="13.687416"
       y2="9.5820017"
       gradientUnits="userSpaceOnUse" />
    <linearGradient
       inkscape:collect="always"
       xlink:href="#linearGradient4466"
       id="linearGradient4480"
       gradientUnits="userSpaceOnUse"
       x1="8.5926514"
       y1="18.163162"
       x2="13.687416"
       y2="9.5820017" />
    <linearGradient
       inkscape:collect="always"
       xlink:href="#linearGradient4466"
       id="linearGradient4492"
       gradientUnits="userSpaceOnUse"
       x1="9.6473188"
       y1="14.423886"
       x2="13.687416"
       y2="9.5820017" />
  </defs>
  <sodipodi:namedview
     pagecolor="#ffffff"
     bordercolor="#666666"
     borderopacity="1"
     objecttolerance="10"
     gridtolerance="10"
     guidetolerance="10"
     inkscape:pageopacity="0"
     inkscape:pageshadow="2"
     inkscape:window-width="1366"
     inkscape:window-height="716"
     id="namedview7"
     showgrid="false"
     inkscape:zoom="32"
     inkscape:cx="6.6036815"
     inkscape:cy="11.357723"
     inkscape:window-x="0"
     inkscape:window-y="27"
     inkscape:window-maximized="1"
     inkscape:current-layer="svg7384" />
  <title
     id="title9167">Gnome Symbolic Icon Theme</title>
  <metadata
     id="metadata90">
    <rdf:RDF>
      <cc:Work
         rdf:about="">
        <dc:format>image/svg+xml</dc:format>
        <dc:type
           rdf:resource="http://purl.org/dc/dcmitype/StillImage" />
        <dc:title>Gnome Symbolic Icon Theme</dc:title>
      </cc:Work>
    </rdf:RDF>
  </metadata>
  <path
     style="fill:url(#linearGradient4472);fill-opacity:1;stroke:none"
     d="m 8.8652344,2.0859375 v 0.019531 A 0.85555656,0.85555656 0 0 1 8.0078125,2.9609375 c -0.00284,-8.1e-6 -0.00964,0 -0.017578,0 -3.3447765,0 -6.0214843,2.6767058 -6.0214844,6.0214844 0,3.3447791 2.6793425,6.0390621 6.0214844,6.0390621 3.3157466,0 5.9832266,-2.659613 6.0253906,-5.9648434 l -1.652344,0.046875 C 12.317999,10.633912 11.5111,11.989104 10.279297,12.742188 a 0.85555656,0.85555656 0 0 1 -0.0059,0.0039 c 0.122031,-0.07322 0.116991,-0.06917 -0.01563,0.0098 -0.100967,0.06076 -0.19174,0.108533 -0.2656245,0.146485 a 0.85555656,0.85555656 0 0 1 -0.00586,0.002 c 0.00806,-0.004 -0.012491,0.0081 -0.064453,0.0332 0.092753,-0.04491 0.09878,-0.04552 -0.023437,0.01367 a 0.85555656,0.85555656 0 0 1 -0.00586,0.0039 c -0.045704,0.02169 -0.1025777,0.04758 -0.1699219,0.07617 -0.015959,0.0066 -0.043093,0.01888 -0.021484,0.0098 a 0.85555656,0.85555656 0 0 1 -0.00195,0 c -0.5292577,0.221195 -1.109141,0.339843 -1.7089844,0.339843 -0.3707223,0 -0.7383834,-0.04315 -1.0957032,-0.134765 -0.2350091,-0.0602 -0.237283,-0.06035 -0.00586,-0.002 a 0.85555656,0.85555656 0 0 1 -0.00586,-0.002 c -0.060619,-0.01572 -0.1266458,-0.03481 -0.1972656,-0.05664 a 0.85555656,0.85555656 0 0 1 -0.00195,0 c 0.03421,0.01064 0.030116,0.0098 -0.013672,-0.0039 a 0.85555656,0.85555656 0 0 1 -0.00195,0 C 6.323656,13.073691 6.0056338,12.923182 5.7148438,12.748047 a 0.85555656,0.85555656 0 0 1 -0.00195,0 c 0.1022552,0.06186 0.1007308,0.06004 -0.00781,-0.0059 v 0.002 c -0.087198,-0.05285 -0.1415048,-0.09361 -0.1679687,-0.111329 a 0.85555656,0.85555656 0 0 1 -0.00586,-0.0059 c 0.086169,0.05897 0.015813,0.01353 -0.019531,-0.0098 l -0.00391,-0.002 c -0.018989,-0.01292 0.025284,0.01786 -0.00586,-0.0039 -0.064238,-0.04433 -0.110879,-0.08194 -0.1347656,-0.09961 a 0.85555656,0.85555656 0 0 1 -0.00781,-0.0039 C 4.2906126,11.702487 3.6054688,10.414564 3.6054688,8.9824219 c 0,-2.4137876 1.9692717,-4.390625 4.3847656,-4.390625 a 0.85555656,0.85555656 0 0 1 0.8554687,0.8554687 v 0.044922 L 9.1191406,5.2460938 10.710938,3.8027344 Z"
     id="path2998-2" />
  <path
     style="fill:#bebebe;fill-opacity:1;stroke:none"
     d="M 7.8763988,0.35761585 8,2.9589844 c -3.3403032,0 -6.0097656,2.6694602 -6.0097656,6.0097656 0,2.106131 1.0906099,3.918669 2.7070312,5 V 11.773438 C 4.049359,11.004489 3.6035156,10.049714 3.6035156,8.96875 3.6035156,6.5496239 5.5808778,4.5722656 8,4.5722656 l -0.511717,2.5439625 4.07617,-3.2197437 z"
     id="path4485"
     inkscape:connector-curvature="0"
     sodipodi:nodetypes="ccsccscccc" />
</svg>
