<?xml version="1.0" encoding="UTF-8" standalone="no"?>
<!-- Created with Inkscape (http://www.inkscape.org/) -->

<svg
   xmlns:dc="http://purl.org/dc/elements/1.1/"
   xmlns:cc="http://creativecommons.org/ns#"
   xmlns:rdf="http://www.w3.org/1999/02/22-rdf-syntax-ns#"
   xmlns:svg="http://www.w3.org/2000/svg"
   xmlns="http://www.w3.org/2000/svg"
   xmlns:sodipodi="http://sodipodi.sourceforge.net/DTD/sodipodi-0.dtd"
   xmlns:inkscape="http://www.inkscape.org/namespaces/inkscape"
   id="svg2827"
   height="16px"
   width="16px"
   version="1.1"
   inkscape:version="0.48.4 r9939"
   sodipodi:docname="view-sidebar-symbolic.svgz">
  <defs
     id="defs11" />
  <sodipodi:namedview
     pagecolor="#ffffff"
     bordercolor="#666666"
     borderopacity="1"
     objecttolerance="10"
     gridtolerance="10"
     guidetolerance="10"
     inkscape:pageopacity="0"
     inkscape:pageshadow="2"
     inkscape:window-width="1364"
     inkscape:window-height="703"
     id="namedview9"
     showgrid="false"
     inkscape:zoom="14.75"
     inkscape:cx="8"
     inkscape:cy="8"
     inkscape:window-x="0"
     inkscape:window-y="0"
     inkscape:window-maximized="1"
     inkscape:current-layer="svg2827" />
  <metadata
     id="metadata2832">
    <rdf:RDF>
      <cc:Work
         rdf:about="">
        <dc:format>image/svg+xml</dc:format>
        <dc:type
           rdf:resource="http://purl.org/dc/dcmitype/StillImage" />
        <dc:title></dc:title>
      </cc:Work>
    </rdf:RDF>
  </metadata>
  <g
     id="layer1"
     style="fill:#bebebe;fill-opacity:1">
    <path
       id="path2839"
       style="block-progression:tb;text-indent:0;color:#000000;text-transform:none;fill:#bebebe;fill-opacity:1"
       d="m1.9062 1a1.0011 1.0011 0 1 0 0.0938 2h12a1.0001 1.0001 0 1 0 0 -2h-12a1.0001 1.0001 0 0 0 -0.0938 0z" />
    <path
       id="path3613"
       style="block-progression:tb;text-indent:0;color:#000000;text-transform:none;fill:#bebebe;fill-opacity:1"
       d="m1.9062 5a1.0011 1.0011 0 1 0 0.0938 2h12a1.0001 1.0001 0 1 0 0 -2h-12a1.0001 1.0001 0 0 0 -0.0938 0z" />
    <path
       id="path3615"
       style="block-progression:tb;text-indent:0;color:#000000;text-transform:none;fill:#bebebe;fill-opacity:1"
       d="m1.9062 9a1.0011 1.0011 0 1 0 0.0938 2h12a1.0001 1.0001 0 1 0 0 -2h-12a1.0001 1.0001 0 0 0 -0.0938 0z" />
    <path
       id="path3617"
       style="block-progression:tb;text-indent:0;color:#000000;text-transform:none;fill:#bebebe;fill-opacity:1"
       d="m1.9062 13a1.0011 1.0011 0 1 0 0.0938 2h12a1.0001 1.0001 0 1 0 0 -2h-12a1.0001 1.0001 0 0 0 -0.09375 0z" />
  </g>
</svg>
