<?xml version="1.0" encoding="UTF-8" standalone="no"?>
<svg
   xmlns:dc="http://purl.org/dc/elements/1.1/"
   xmlns:cc="http://creativecommons.org/ns#"
   xmlns:rdf="http://www.w3.org/1999/02/22-rdf-syntax-ns#"
   xmlns:svg="http://www.w3.org/2000/svg"
   xmlns="http://www.w3.org/2000/svg"
   xmlns:sodipodi="http://sodipodi.sourceforge.net/DTD/sodipodi-0.dtd"
   xmlns:inkscape="http://www.inkscape.org/namespaces/inkscape"
   width="48px"
   height="48px"
   viewBox="0 0 48 48"
   version="1.1"
   id="svg17"
   sodipodi:docname="drive-removable-dock.svg"
   inkscape:version="0.92.2pre0 (973e216, 2017-07-25)"
   inkscape:export-filename="/home/rizmut/Documents/Rizmut/Github/karasa-jaga-icon-theme/build/Karasa-Jaga/48x48/status/drive-removable-dock.png"
   inkscape:export-xdpi="96"
   inkscape:export-ydpi="96">
  <metadata
     id="metadata21">
    <rdf:RDF>
      <cc:Work
         rdf:about="">
        <dc:format>image/svg+xml</dc:format>
        <dc:type
           rdf:resource="http://purl.org/dc/dcmitype/StillImage" />
        <dc:title>磁盘挂载-48px</dc:title>
      </cc:Work>
    </rdf:RDF>
  </metadata>
  <sodipodi:namedview
     pagecolor="#ffffff"
     bordercolor="#666666"
     borderopacity="1"
     objecttolerance="10"
     gridtolerance="10"
     guidetolerance="10"
     inkscape:pageopacity="0"
     inkscape:pageshadow="2"
     inkscape:window-width="1366"
     inkscape:window-height="696"
     id="namedview19"
     showgrid="false"
     inkscape:zoom="4.9166667"
     inkscape:cx="21.13483"
     inkscape:cy="24.14329"
     inkscape:window-x="0"
     inkscape:window-y="0"
     inkscape:window-maximized="1"
     inkscape:current-layer="svg17" />
  <!-- Generator: Sketch 39.1 (31720) - http://www.bohemiancoding.com/sketch -->
  <title
     id="title2">磁盘挂载-48px</title>
  <desc
     id="desc4">Created with Sketch.</desc>
  <defs
     id="defs6">
    <filter
       inkscape:collect="always"
       style="color-interpolation-filters:sRGB"
       id="filter4548"
       x="-0.047143097"
       width="1.0942862"
       y="-0.048888631"
       height="1.0977773">
      <feGaussianBlur
         inkscape:collect="always"
         stdDeviation="0.44373134"
         id="feGaussianBlur4550" />
    </filter>
  </defs>
  <path
     style="fill:#1a1a1a;fill-rule:evenodd;stroke:none;stroke-width:1;filter:url(#filter4548)"
     d="M 23.978516 11.513672 A 1.294494 1.294494 0 0 0 23.005859 12.046875 L 14.458984 23.826172 C 13.807728 24.723519 13.470784 25.873069 13.986328 26.886719 C 14.501872 27.900368 15.631707 28.306641 16.744141 28.306641 L 31.371094 28.306641 C 32.483991 28.306641 33.613743 27.904445 34.130859 26.888672 C 34.647976 25.872898 34.308672 24.724303 33.65625 23.826172 L 25.099609 12.046875 A 1.294494 1.294494 0 0 0 23.978516 11.513672 z M 24.052734 12.806641 L 32.609375 24.585938 C 33.58247 25.925511 33.032846 27.011719 31.371094 27.011719 L 16.744141 27.011719 C 15.087739 27.011719 14.537277 25.920518 15.505859 24.585938 L 24.052734 12.806641 z M 14.992188 28.705078 C 13.735578 28.705078 12.705078 29.735727 12.705078 31 C 12.705078 32.24572 13.745187 33.294922 14.992188 33.294922 L 33.007812 33.294922 C 34.264421 33.294922 35.294922 32.264273 35.294922 31 C 35.294922 29.754279 34.254813 28.705078 33.007812 28.705078 L 14.992188 28.705078 z M 14.992188 30 L 33.007812 30 C 33.55557 30 34 30.443865 34 31 C 34 31.552285 33.544309 32 33.007812 32 L 14.992188 32 C 14.444429 32 14 31.556135 14 31 C 14 30.447715 14.455691 30 14.992188 30 z "
     id="path34" />
  <path
     d="m 24.053457,12.807542 8.555715,11.777883 c 0.973095,1.339574 0.424516,2.425512 -1.237236,2.425512 H 16.744408 c -1.656402,0 -2.207428,-1.090932 -1.238846,-2.425512 z M 14,31 c 0,-0.552285 0.455306,-1 0.991803,-1 H 33.008197 C 33.555955,30 34,30.443865 34,31 c 0,0.552285 -0.455306,1 -0.991803,1 H 14.991803 C 14.444045,32 14,31.556135 14,31 Z"
     id="path13"
     inkscape:connector-curvature="0"
     style="fill:#ffffff;fill-rule:evenodd;stroke:none;stroke-width:1" />
</svg>
