<?xml version="1.0" encoding="UTF-8" standalone="no"?>
<!-- Created with Inkscape (http://www.inkscape.org/) -->

<svg
   xmlns:dc="http://purl.org/dc/elements/1.1/"
   xmlns:cc="http://creativecommons.org/ns#"
   xmlns:rdf="http://www.w3.org/1999/02/22-rdf-syntax-ns#"
   xmlns:svg="http://www.w3.org/2000/svg"
   xmlns="http://www.w3.org/2000/svg"
   xmlns:xlink="http://www.w3.org/1999/xlink"
   xmlns:sodipodi="http://sodipodi.sourceforge.net/DTD/sodipodi-0.dtd"
   xmlns:inkscape="http://www.inkscape.org/namespaces/inkscape"
   id="svg7384"
   height="48"
   width="48"
   version="1.1"
   inkscape:version="0.92.2pre0 (973e216, 2017-07-25)"
   sodipodi:docname="wireless.svg"
   inkscape:export-filename="/home/rizmut/wireless.png"
   inkscape:export-xdpi="96"
   inkscape:export-ydpi="96">
  <sodipodi:namedview
     pagecolor="#ffffff"
     bordercolor="#666666"
     borderopacity="1"
     objecttolerance="10"
     gridtolerance="10"
     guidetolerance="10"
     inkscape:pageopacity="0"
     inkscape:pageshadow="2"
     inkscape:window-width="1366"
     inkscape:window-height="696"
     id="namedview17"
     showgrid="false"
     inkscape:zoom="4.7446299"
     inkscape:cx="37.141417"
     inkscape:cy="24.649588"
     inkscape:window-x="0"
     inkscape:window-y="0"
     inkscape:window-maximized="1"
     inkscape:current-layer="svg7384"
     inkscape:snap-page="false" />
  <metadata
     id="metadata90">
    <rdf:RDF>
      <cc:Work
         rdf:about="">
        <dc:format>image/svg+xml</dc:format>
        <dc:type
           rdf:resource="http://purl.org/dc/dcmitype/StillImage" />
        <dc:title>Gnome Symbolic Icon Theme</dc:title>
      </cc:Work>
    </rdf:RDF>
  </metadata>
  <title
     id="title9167">Gnome Symbolic Icon Theme</title>
  <defs
     id="defs7386">
    <clipPath
       id="clipPath6279-6-1-4-5"
       clipPathUnits="userSpaceOnUse">
      <rect
         id="rect6281-3-0-3-5"
         style="color:#bebebe;fill:#bebebe"
         height="6.375"
         width="3.825"
         y="220.75"
         x="26.85" />
    </clipPath>
    <clipPath
       id="clipPath6265-33-6-5-1-3"
       clipPathUnits="userSpaceOnUse">
      <rect
         id="rect6267-6-9-1-4-8"
         style="color:#bebebe;fill:#bebebe"
         height="5.2158999"
         width="2.8977001"
         y="221.33"
         x="26.966" />
    </clipPath>
    <clipPath
       id="clipPath6259-6-8-2-1-6-6"
       clipPathUnits="userSpaceOnUse">
      <rect
         id="rect6261-4-9-2-0-9-0"
         style="color:#bebebe;fill:#bebebe"
         height="4.8734999"
         width="1.8763"
         y="221.5"
         x="26.999001" />
    </clipPath>
    <linearGradient
       inkscape:collect="always"
       xlink:href="#linearGradient3864"
       id="linearGradient3880"
       gradientUnits="userSpaceOnUse"
       x1="125.53125"
       y1="11.579919"
       x2="125.53125"
       y2="64" />
    <linearGradient
       inkscape:collect="always"
       id="linearGradient3864">
      <stop
         style="stop-color:#ffffff;stop-opacity:1;"
         offset="0"
         id="stop3866" />
      <stop
         style="stop-color:#ffffff;stop-opacity:0;"
         offset="1"
         id="stop3868" />
    </linearGradient>
    <linearGradient
       id="linearGradient-1"
       y2="42.246376"
       x2="22.098593"
       y1="2.5642571"
       x1="22.098593"
       gradientTransform="scale(1.086042,0.92077472)"
       gradientUnits="userSpaceOnUse">
      <stop
         id="stop833"
         offset="0%"
         stop-color="#15C4FF" />
      <stop
         id="stop835"
         offset="100%"
         stop-color="#218AFF" />
    </linearGradient>
  </defs>
  <g
     id="Page-1"
     style="fill:none;fill-rule:evenodd;stroke:none;stroke-width:1"
     transform="matrix(0.81133103,-0.81133103,0.81133103,0.81133103,-11.840212,27.103677)">
    <g
       id="wireless-background">
      <g
         transform="translate(0,4)"
         id="Group">
        <path
           id="Combined-Shape"
           d="M 44.95921,8.7068276 C 39.672436,2.7688194 32.371806,1 23.976564,1 15.614569,1 6.8468718,4.3630386 1.5631212,10.259988 c -0.3354721,0.374405 -2.7354951,3.942069 1.2244104,7.920809 3.7230693,4.291385 10.2661924,9.673232 14.6548984,14.439435 1.385073,1.50421 1.180003,4.744005 2.285395,5.908084 4.492917,5.137944 8.596574,-0.02995 8.772138,-0.714384 0.300682,-1.172202 0.815189,-4.307294 1.814491,-5.390332 4.532493,-4.912289 10.854183,-10.021157 14.95871,-14.741964 3.852338,-3.869244 1.708388,-6.781459 1.374596,-7.156374 z"
           inkscape:connector-curvature="0"
           style="fill:url(#linearGradient-1)"
           sodipodi:nodetypes="csscscssccc" />
      </g>
    </g>
  </g>
  <g
     id="g866"
     transform="matrix(3,0,0,3,-6.45e-6,-95.999954)">
    <path
       inkscape:connector-curvature="0"
       id="path2744"
       d="m 13.075946,33.098953 -0.0078,0.0078 c -0.789083,-0.01206 -1.575539,0.05337 -2.346708,0.19773 l -0.0104,0.01041 c -0.7675933,0.144788 -1.5295524,0.361629 -2.2518321,0.650423 l -0.00911,0.01041 -0.00911,0.0091 c -0.7231222,0.290545 -1.4215497,0.640244 -2.0735563,1.064095 -0.013512,0.0087 -0.014626,0.02904 -0.028619,0.03772 h -0.0091 c -0.6519105,0.42399 -1.2702106,0.922087 -1.8198968,1.471286 -0.5399596,0.540466 -1.0013861,1.14173 -1.4218348,1.77957 -0.00917,0.01351 -0.029042,0.01593 -0.037724,0.02992 -0.4238623,0.651984 -0.7748553,1.350448 -1.0654006,2.073563 l -0.00911,0.0091 -0.010407,0.01041 c -0.2888096,0.722287 -0.5043352,1.482936 -0.6491231,2.250478 l -0.010407,0.0104 c -0.14431,0.771194 -0.209792,1.557611 -0.19773,2.346743 l -0.00911,0.0091 c 6.86e-4,0.04526 0.00789,0.09008 0.00911,0.135289 l 1.2865459,0.0078 c -0.00117,-0.04263 -0.00845,-0.08481 -0.00911,-0.127485 l 0.00911,-0.0078 c -0.010783,-0.705399 0.047919,-1.408917 0.1769163,-2.098281 l 0.00781,-0.0078 c 0.1294196,-0.686096 0.3233097,-1.368073 0.5814773,-2.013721 l 0.00911,-0.0078 0.00781,-0.0091 c 0.259709,-0.646378 0.5733325,-1.270907 0.9522191,-1.853711 0.00777,-0.01251 0.025626,-0.01394 0.033822,-0.02601 0.3758331,-0.570157 0.7882684,-1.107826 1.2709334,-1.590943 0.4913596,-0.490925 1.0433267,-0.93618 1.6260694,-1.315165 h 0.00911 c 0.012511,-0.0078 0.012634,-0.02606 0.024719,-0.03382 0.5828204,-0.378877 1.2073165,-0.691205 1.8537162,-0.950925 l 0.00911,-0.0078 0.00781,-0.0091 c 0.6456336,-0.258143 1.3276201,-0.452046 2.0137191,-0.581475 l 0.0078,-0.0091 c 0.689305,-0.129039 1.392857,-0.187698 2.098244,-0.176916 l 0.0078,-0.0078 c 0.03263,4.95e-4 0.06495,0.0057 0.09756,0.0065 l -0.01304,-1.286543 c -0.0335,-8.02e-4 -0.06665,-0.006 -0.100165,-0.0065 z m 0.126182,2.328531 c -1.00181,0.01963 -1.989151,0.168707 -2.925623,0.470909 -1.1094385,0.358042 -2.1521265,0.908758 -3.0778236,1.633875 -0.3085653,0.241704 -0.6038618,0.501707 -0.8845816,0.781813 l -0.0013,0.0013 C 5.1923676,39.438265 4.3744986,40.798538 3.8971107,42.277787 3.7777719,42.647598 3.6792811,43.025436 3.6031175,43.408231 3.4864506,43.994908 3.4234756,44.594248 3.4118917,45.20081 l 1.419233,0.01562 c 0.00141,-0.05511 0.0028,-0.110295 0.00521,-0.165208 0.00568,-0.131285 0.015828,-0.261162 0.027318,-0.391558 0.00902,-0.102076 0.017434,-0.204248 0.029921,-0.305702 5.007e-4,-0.0041 0.0021,-0.0077 0.0026,-0.01171 0.016706,-0.133586 0.038351,-0.267061 0.06114,-0.399362 0.00109,-0.0064 0.00153,-0.01188 0.0026,-0.0182 0.014664,-0.08404 0.02714,-0.170228 0.044229,-0.253666 l 0.0013,-0.0013 c 0.057608,-0.280814 0.1299394,-0.557174 0.2146412,-0.829945 0.020541,-0.0662 0.044235,-0.132092 0.066344,-0.197731 0.092045,-0.273072 0.1921442,-0.542954 0.3109044,-0.805228 0.00342,-0.0076 0.00564,-0.01455 0.00911,-0.02211 l 0.0013,-0.0013 c 0.089622,-0.196454 0.1973237,-0.38504 0.3030947,-0.573708 0.00934,-0.01694 0.016563,-0.03385 0.026017,-0.05073 l 0.0013,-0.0013 C 6.025666,41.031614 6.1174077,40.87843 6.2139394,40.727256 6.330578,40.546728 6.45017,40.367162 6.5807808,40.195206 c 0.058307,-0.07796 0.1222587,-0.152876 0.1834206,-0.228951 0.1785129,-0.2191 0.361666,-0.433972 0.5632698,-0.636118 l 0.0013,-0.0026 c 0.2021485,-0.201601 0.4183188,-0.38476 0.63742,-0.563273 0.076077,-0.06116 0.1509861,-0.125112 0.2289508,-0.18342 0.1719571,-0.130611 0.3515353,-0.248899 0.5320496,-0.36554 0.1511733,-0.09653 0.3042786,-0.189583 0.4605027,-0.277083 l 0.0013,-0.0013 c 0.016887,-0.0095 0.033793,-0.01668 0.050735,-0.02602 0.1886653,-0.10577 0.3772522,-0.213472 0.5736751,-0.303098 l 0.00129,-0.0013 c 0.00758,-0.0035 0.014565,-0.0057 0.022106,-0.0091 0.2622756,-0.11876 0.5334576,-0.22016 0.8065316,-0.312206 0.06564,-0.02211 0.130241,-0.0445 0.196429,-0.06504 0.27277,-0.0847 0.549151,-0.157021 0.829945,-0.214641 l 0.0013,-0.0013 c 0.08344,-0.01709 0.169627,-0.02957 0.253667,-0.04423 0.0064,-10e-4 0.01188,-0.0015 0.0182,-0.0026 0.132301,-0.02279 0.265772,-0.04443 0.399362,-0.06114 0.004,-5e-4 0.0077,-0.0021 0.01171,-0.0026 0.101453,-0.01248 0.203626,-0.0209 0.305701,-0.02992 0.130394,-0.01149 0.260272,-0.02164 0.391555,-0.02732 0.05491,-0.0024 0.110101,-0.0038 0.16521,-0.0052 z m 0.02862,2.695372 c -1.360135,-0.04059 -2.689435,0.303339 -3.8284143,0.995154 -0.2293533,0.139309 -0.4517829,0.291394 -0.6647368,0.457901 l -0.0013,0.0013 -0.0013,0.0012 c -0.00181,0.0014 -0.0034,0.0038 -0.00521,0.0052 -0.2132883,0.166836 -0.4175297,0.349083 -0.6113983,0.54245 -0.1920146,0.192637 -0.3698429,0.393161 -0.535952,0.604898 -0.00138,0.0018 -0.00246,0.0021 -0.0039,0.0039 l -0.0026,0.0026 -0.0013,0.0013 C 7.4082229,40.951667 7.2560379,41.17419 7.1167292,41.403542 6.4249524,42.542483 6.0822693,43.870544 6.122876,45.230659 l 1.3660054,0.01296 c -0.00745,-0.215125 -0.00491,-0.429117 0.011709,-0.641323 8.24e-5,-0.0011 0.0013,-0.0028 0.0013,-0.0039 0.00304,-0.03859 0.011753,-0.07597 0.015613,-0.114475 0.018056,-0.179902 0.039457,-0.359815 0.074148,-0.535951 0.08446,-0.428385 0.2179937,-0.843216 0.3980613,-1.238416 0.053631,-0.117713 0.119012,-0.23221 0.1808187,-0.346027 0.041531,-0.0764 0.077131,-0.154458 0.122281,-0.22895 0.073261,-0.120841 0.1580312,-0.235314 0.2419588,-0.349929 0.00144,-0.0021 0.0013,-0.0045 0.0026,-0.0065 0.072642,-0.101095 0.1506234,-0.197874 0.228953,-0.295253 0.1062164,-0.128481 0.2116833,-0.256857 0.3304176,-0.375949 l 0.0026,-0.0026 c 0.1211038,-0.120735 0.2531101,-0.230224 0.3837514,-0.338221 0.097374,-0.07834 0.1941526,-0.156317 0.2952947,-0.228951 0.00215,-0.0013 0.00448,-0.0012 0.00655,-0.0026 0.1146113,-0.08393 0.2290891,-0.167397 0.3499301,-0.240659 0.07449,-0.04515 0.152547,-0.08205 0.22895,-0.123581 0.11381,-0.06181 0.22831,-0.127192 0.346028,-0.180819 0.3952,-0.180068 0.811329,-0.314901 1.239714,-0.399362 0.176139,-0.03469 0.354749,-0.05479 0.534652,-0.07285 0.0385,-0.0038 0.07587,-0.01256 0.114476,-0.01561 0.001,3.9e-5 0.0028,-0.0013 0.0039,-0.0013 0.212204,-0.01665 0.426197,-0.01916 0.641322,-0.01171 z m 0.02733,2.744805 c -0.04751,-6.41e-4 -0.09446,0.0014 -0.141794,0.0013 -0.06096,-1.45e-4 -0.121444,1.8e-4 -0.18212,0.0026 -0.223143,0.0086 -0.445415,0.02922 -0.662135,0.07155 -0.325159,0.0635 -0.640361,0.163234 -0.940519,0.299196 -0.0015,6.34e-4 -0.0037,0.002 -0.0052,0.0026 -0.01935,0.0088 -0.03672,0.02084 -0.05593,0.02992 -0.13069,0.06152 -0.259875,0.12661 -0.383752,0.201633 -0.05914,0.03575 -0.114319,0.0785 -0.171713,0.117077 -0.03725,0.02494 -0.07408,0.0506 -0.110573,0.07675 -0.04175,0.0301 -0.08544,0.05408 -0.126184,0.08586 -7.22e-4,5.97e-4 -0.0018,0.002 -0.0027,0.0027 -0.0018,0.0014 -0.0034,0.0038 -0.0052,0.0052 l -0.0013,0.0013 c -0.130584,0.102066 -0.25579,0.213508 -0.374646,0.331718 l -0.0027,0.0027 -0.0013,0.0013 c -0.1166051,0.11726 -0.2255843,0.240784 -0.326516,0.369444 -0.00138,0.0018 -0.00379,0.0034 -0.00517,0.0052 -6.506e-4,7.95e-4 -0.00207,0.0019 -0.00267,0.0027 -0.03181,0.04071 -0.055764,0.08444 -0.085858,0.126182 -0.026151,0.0365 -0.05181,0.07333 -0.07675,0.110573 -0.038576,0.05739 -0.081325,0.112583 -0.1170771,0.171714 -0.075025,0.123873 -0.1401091,0.253063 -0.2016324,0.383751 -0.00909,0.01921 -0.021134,0.0366 -0.029916,0.05594 -6.274e-4,0.0015 -6.345e-4,0.0024 -0.0013,0.0039 -0.1359614,0.300157 -0.2370004,0.616658 -0.300497,0.941819 -0.042326,0.21672 -0.061784,0.437857 -0.070248,0.660833 -0.00239,0.06069 -0.00275,0.121151 -0.0026,0.182121 1.944e-4,0.04774 -0.00333,0.09517 -0.0026,0.143094 l 1.3515875,0.01431 c -0.0016,-0.04462 -0.01033,-0.08935 -0.0104,-0.133989 -2.36e-4,-0.03567 0.0016,-0.07245 0.0027,-0.107971 0.0054,-0.158131 0.01854,-0.316224 0.04813,-0.469609 0.01724,-0.08921 0.04232,-0.175829 0.06764,-0.262772 0.0065,-0.02273 0.0098,-0.04643 0.01691,-0.06895 v -0.0027 l 0.0013,-0.0013 c 0.0051,-0.01594 0.01289,-0.02972 0.01821,-0.04553 0.0632,-0.185957 0.143931,-0.366063 0.24326,-0.535952 0.0084,-0.01438 0.01351,-0.02998 0.02211,-0.04424 0.05839,-0.09652 0.122778,-0.189984 0.192526,-0.279682 0.07157,-0.09162 0.147131,-0.179442 0.230251,-0.262774 0.08298,-0.08275 0.171331,-0.160338 0.262773,-0.231552 8.49e-4,-6.65e-4 0.0017,-5.86e-4 0.0027,-0.0013 0.09091,-0.07094 0.185653,-0.135873 0.283587,-0.195128 0.01426,-0.0086 0.02983,-0.01506 0.04423,-0.02342 0.169895,-0.09933 0.349998,-0.180062 0.535954,-0.24326 0.01585,-0.0053 0.02962,-0.01314 0.04553,-0.0182 l 0.0013,-0.0013 h 0.0027 c 0.02252,-0.0072 0.04622,-0.01038 0.06895,-0.01691 0.08694,-0.02532 0.174861,-0.05169 0.264073,-0.06894 0.153385,-0.0296 0.310177,-0.04145 0.468307,-0.04683 0.03552,-0.0011 0.07231,-0.0028 0.107972,-0.0027 0.04384,6.7e-5 0.08756,0.009 0.131386,0.0104 z m -0.05204,2.684965 -0.0013,0.0013 c -0.108935,-0.0017 -0.217458,0.0074 -0.323914,0.02732 l -0.0013,0.0013 c -0.105954,0.01999 -0.211197,0.04989 -0.310904,0.08976 l -0.0013,0.0013 -0.0013,0.0013 c -0.09982,0.04011 -0.196182,0.08849 -0.286188,0.146997 -0.0019,0.0012 -0.0021,0.004 -0.0039,0.0052 h -0.0013 c -0.08999,0.05852 -0.175185,0.12712 -0.251065,0.202934 -0.07455,0.07461 -0.138389,0.157811 -0.196429,0.245861 -0.0013,0.0019 -0.004,0.0021 -0.0052,0.0039 -0.05852,0.09 -0.106889,0.186366 -0.146998,0.286189 l -0.0013,0.0013 -0.0013,0.0013 c -0.03987,0.09971 -0.06976,0.204951 -0.08976,0.310906 l -0.0013,0.0013 c -0.01992,0.106459 -0.02898,0.214979 -0.02733,0.323914 l -0.0013,0.0013 c 0.0017,0.109301 0.01447,0.217851 0.03772,0.325214 0.04651,0.214725 0.13555,0.422412 0.258871,0.606198 0.06165,0.0919 0.13098,0.17661 0.209437,0.254968 0.0784,0.07832 0.16435,0.149081 0.256269,0.21074 0.183843,0.123307 0.391521,0.212293 0.606198,0.258869 0.10734,0.02328 0.215991,0.03743 0.325213,0.03902 l 0.0013,-0.0013 c 0.21899,0.0029 0.436341,-0.04099 0.637419,-0.122281 0.09945,-0.0402 0.195466,-0.08848 0.284888,-0.146996 0.09021,-0.05892 0.174867,-0.126936 0.251065,-0.202934 l 0.0039,-0.0039 c 0.0012,-0.0012 0.0028,-0.0028 0.0039,-0.0039 0.074,-0.07421 0.138581,-0.155747 0.196429,-0.24326 0.0016,-0.0023 0.0036,-0.0041 0.0052,-0.0066 0.05852,-0.08942 0.106789,-0.185443 0.146998,-0.284886 0.08129,-0.20108 0.125302,-0.41843 0.12228,-0.637419 l 0.0013,-0.0013 c -0.0016,-0.109223 -0.01575,-0.217875 -0.03902,-0.325213 -0.04657,-0.214679 -0.135562,-0.422354 -0.25887,-0.606199 -0.06165,-0.09192 -0.132418,-0.17788 -0.210739,-0.256269 -0.07836,-0.07845 -0.163075,-0.147778 -0.254968,-0.209439 -0.183785,-0.123321 -0.391473,-0.212358 -0.606198,-0.25887 -0.107365,-0.02326 -0.215912,-0.03608 -0.325214,-0.03772 z"
       style="opacity:0.95;fill:#bebebe;fill-opacity:1;stroke:none;stroke-width:15.76818085;stroke-opacity:1" />
    <path
       style="opacity:0.95;fill:#bebebe;fill-opacity:1;stroke:none;stroke-width:15.76818085;stroke-opacity:1"
       d="m 13.075946,33.098953 -0.0078,0.0078 c -0.789083,-0.01206 -1.575539,0.05337 -2.346708,0.19773 l -0.0104,0.01041 c -0.7675933,0.144788 -1.5295524,0.361629 -2.2518321,0.650423 l -0.00911,0.01041 -0.00911,0.0091 c -0.7231222,0.290545 -1.4215497,0.640244 -2.0735563,1.064095 -0.013512,0.0087 -0.014626,0.02904 -0.028619,0.03772 h -0.0091 c -0.6519105,0.42399 -1.2702106,0.922087 -1.8198968,1.471286 -0.5399596,0.540466 -1.0013861,1.14173 -1.4218348,1.77957 -0.00917,0.01351 -0.029042,0.01593 -0.037724,0.02992 -0.4238623,0.651984 -0.7748553,1.350448 -1.0654006,2.073563 l -0.00911,0.0091 -0.010407,0.01041 c -0.2888096,0.722287 -0.5043352,1.482936 -0.6491231,2.250478 l -0.010407,0.0104 c -0.14431,0.771194 -0.209792,1.557611 -0.19773,2.346743 l -0.00911,0.0091 c 6.86e-4,0.04526 0.00789,0.09008 0.00911,0.135289 l 1.2865459,0.0078 c -0.00117,-0.04263 -0.00845,-0.08481 -0.00911,-0.127485 l 0.00911,-0.0078 c -0.010783,-0.705399 0.047919,-1.408917 0.1769163,-2.098281 l 0.00781,-0.0078 c 0.1294196,-0.686096 0.3233097,-1.368073 0.5814773,-2.013721 l 0.00911,-0.0078 0.00781,-0.0091 c 0.259709,-0.646378 0.5733325,-1.270907 0.9522191,-1.853711 0.00777,-0.01251 0.025626,-0.01394 0.033822,-0.02601 0.3758331,-0.570157 0.7882684,-1.107826 1.2709334,-1.590943 0.4913596,-0.490925 1.0433267,-0.93618 1.6260694,-1.315165 h 0.00911 c 0.012511,-0.0078 0.012634,-0.02606 0.024719,-0.03382 0.5828204,-0.378877 1.2073165,-0.691205 1.8537162,-0.950925 l 0.00911,-0.0078 0.00781,-0.0091 c 0.6456336,-0.258143 1.3276201,-0.452046 2.0137191,-0.581475 l 0.0078,-0.0091 c 0.689305,-0.129039 1.392857,-0.187698 2.098244,-0.176916 l 0.0078,-0.0078 c 0.03263,4.95e-4 0.06495,0.0057 0.09756,0.0065 l -0.01304,-1.286543 c -0.0335,-8.02e-4 -0.06665,-0.006 -0.100165,-0.0065 z m 0.126182,2.328531 c -1.00181,0.01963 -1.989151,0.168707 -2.925623,0.470909 -1.1094385,0.358042 -2.1521265,0.908758 -3.0778236,1.633875 -0.3085653,0.241704 -0.6038618,0.501707 -0.8845816,0.781813 l -0.0013,0.0013 C 5.1923676,39.438265 4.3744986,40.798538 3.8971107,42.277787 3.7777719,42.647598 3.6792811,43.025436 3.6031175,43.408231 3.4864506,43.994908 3.4234756,44.594248 3.4118917,45.20081 l 1.419233,0.01562 c 0.00141,-0.05511 0.0028,-0.110295 0.00521,-0.165208 0.00568,-0.131285 0.015828,-0.261162 0.027318,-0.391558 0.00902,-0.102076 0.017434,-0.204248 0.029921,-0.305702 5.007e-4,-0.0041 0.0021,-0.0077 0.0026,-0.01171 0.016706,-0.133586 0.038351,-0.267061 0.06114,-0.399362 0.00109,-0.0064 0.00153,-0.01188 0.0026,-0.0182 0.014664,-0.08404 0.02714,-0.170228 0.044229,-0.253666 l 0.0013,-0.0013 c 0.057608,-0.280814 0.1299394,-0.557174 0.2146412,-0.829945 0.020541,-0.0662 0.044235,-0.132092 0.066344,-0.197731 0.092045,-0.273072 0.1921442,-0.542954 0.3109044,-0.805228 0.00342,-0.0076 0.00564,-0.01455 0.00911,-0.02211 l 0.0013,-0.0013 c 0.089622,-0.196454 0.1973237,-0.38504 0.3030947,-0.573708 0.00934,-0.01694 0.016563,-0.03385 0.026017,-0.05073 l 0.0013,-0.0013 C 6.025666,41.031614 6.1174077,40.87843 6.2139394,40.727256 6.330578,40.546728 6.45017,40.367162 6.5807808,40.195206 c 0.058307,-0.07796 0.1222587,-0.152876 0.1834206,-0.228951 0.1785129,-0.2191 0.361666,-0.433972 0.5632698,-0.636118 l 0.0013,-0.0026 c 0.2021485,-0.201601 0.4183188,-0.38476 0.63742,-0.563273 0.076077,-0.06116 0.1509861,-0.125112 0.2289508,-0.18342 0.1719571,-0.130611 0.3515353,-0.248899 0.5320496,-0.36554 0.1511733,-0.09653 0.3042786,-0.189583 0.4605027,-0.277083 l 0.0013,-0.0013 c 0.016887,-0.0095 0.033793,-0.01668 0.050735,-0.02602 0.1886653,-0.10577 0.3772522,-0.213472 0.5736751,-0.303098 l 0.00129,-0.0013 c 0.00758,-0.0035 0.014565,-0.0057 0.022106,-0.0091 0.2622756,-0.11876 0.5334576,-0.22016 0.8065316,-0.312206 0.06564,-0.02211 0.130241,-0.0445 0.196429,-0.06504 0.27277,-0.0847 0.549151,-0.157021 0.829945,-0.214641 l 0.0013,-0.0013 c 0.08344,-0.01709 0.169627,-0.02957 0.253667,-0.04423 0.0064,-10e-4 0.01188,-0.0015 0.0182,-0.0026 0.132301,-0.02279 0.265772,-0.04443 0.399362,-0.06114 0.004,-5e-4 0.0077,-0.0021 0.01171,-0.0026 0.101453,-0.01248 0.203626,-0.0209 0.305701,-0.02992 0.130394,-0.01149 0.260272,-0.02164 0.391555,-0.02732 0.05491,-0.0024 0.110101,-0.0038 0.16521,-0.0052 z m 0.02862,2.695372 c -1.360135,-0.04059 -2.689435,0.303339 -3.8284143,0.995154 -0.2293533,0.139309 -0.4517829,0.291394 -0.6647368,0.457901 l -0.0013,0.0013 -0.0013,0.0012 c -0.00181,0.0014 -0.0034,0.0038 -0.00521,0.0052 -0.2132883,0.166836 -0.4175297,0.349083 -0.6113983,0.54245 -0.1920146,0.192637 -0.3698429,0.393161 -0.535952,0.604898 -0.00138,0.0018 -0.00246,0.0021 -0.0039,0.0039 l -0.0026,0.0026 -0.0013,0.0013 C 7.4082229,40.951667 7.2560379,41.17419 7.1167292,41.403542 6.4249524,42.542483 6.0822693,43.870544 6.122876,45.230659 l 1.3660054,0.01296 c -0.00745,-0.215125 -0.00491,-0.429117 0.011709,-0.641323 8.24e-5,-0.0011 0.0013,-0.0028 0.0013,-0.0039 0.00304,-0.03859 0.011753,-0.07597 0.015613,-0.114475 0.018056,-0.179902 0.039457,-0.359815 0.074148,-0.535951 0.08446,-0.428385 0.2179937,-0.843216 0.3980613,-1.238416 0.053631,-0.117713 0.119012,-0.23221 0.1808187,-0.346027 0.041531,-0.0764 0.077131,-0.154458 0.122281,-0.22895 0.073261,-0.120841 0.1580312,-0.235314 0.2419588,-0.349929 0.00144,-0.0021 0.0013,-0.0045 0.0026,-0.0065 0.072642,-0.101095 0.1506234,-0.197874 0.228953,-0.295253 0.1062164,-0.128481 0.2116833,-0.256857 0.3304176,-0.375949 l 0.0026,-0.0026 c 0.1211038,-0.120735 0.2531101,-0.230224 0.3837514,-0.338221 0.097374,-0.07834 0.1941526,-0.156317 0.2952947,-0.228951 0.00215,-0.0013 0.00448,-0.0012 0.00655,-0.0026 0.1146113,-0.08393 0.2290891,-0.167397 0.3499301,-0.240659 0.07449,-0.04515 0.152547,-0.08205 0.22895,-0.123581 0.11381,-0.06181 0.22831,-0.127192 0.346028,-0.180819 0.3952,-0.180068 0.811329,-0.314901 1.239714,-0.399362 0.176139,-0.03469 0.354749,-0.05479 0.534652,-0.07285 0.0385,-0.0038 0.07587,-0.01256 0.114476,-0.01561 0.001,3.9e-5 0.0028,-0.0013 0.0039,-0.0013 0.212204,-0.01665 0.426197,-0.01916 0.641322,-0.01171 z m 0.02733,2.744805 c -0.04751,-6.41e-4 -0.09446,0.0014 -0.141794,0.0013 -0.06096,-1.45e-4 -0.121444,1.8e-4 -0.18212,0.0026 -0.223143,0.0086 -0.445415,0.02922 -0.662135,0.07155 -0.325159,0.0635 -0.640361,0.163234 -0.940519,0.299196 -0.0015,6.34e-4 -0.0037,0.002 -0.0052,0.0026 -0.01935,0.0088 -0.03672,0.02084 -0.05593,0.02992 -0.13069,0.06152 -0.259875,0.12661 -0.383752,0.201633 -0.05914,0.03575 -0.114319,0.0785 -0.171713,0.117077 -0.03725,0.02494 -0.07408,0.0506 -0.110573,0.07675 -0.04175,0.0301 -0.08544,0.05408 -0.126184,0.08586 -7.22e-4,5.97e-4 -0.0018,0.002 -0.0027,0.0027 -0.0018,0.0014 -0.0034,0.0038 -0.0052,0.0052 l -0.0013,0.0013 c -0.130584,0.102066 -0.25579,0.213508 -0.374646,0.331718 l -0.0027,0.0027 -0.0013,0.0013 c -0.1166051,0.11726 -0.2255843,0.240784 -0.326516,0.369444 -0.00138,0.0018 -0.00379,0.0034 -0.00517,0.0052 -6.506e-4,7.95e-4 -0.00207,0.0019 -0.00267,0.0027 -0.03181,0.04071 -0.055764,0.08444 -0.085858,0.126182 -0.026151,0.0365 -0.05181,0.07333 -0.07675,0.110573 -0.038576,0.05739 -0.081325,0.112583 -0.1170771,0.171714 -0.075025,0.123873 -0.1401091,0.253063 -0.2016324,0.383751 -0.00909,0.01921 -0.021134,0.0366 -0.029916,0.05594 -6.274e-4,0.0015 -6.345e-4,0.0024 -0.0013,0.0039 -0.1359614,0.300157 -0.2370004,0.616658 -0.300497,0.941819 -0.042326,0.21672 -0.061784,0.437857 -0.070248,0.660833 -0.00239,0.06069 -0.00275,0.121151 -0.0026,0.182121 1.944e-4,0.04774 -0.00333,0.09517 -0.0026,0.143094 l 1.3515875,0.01431 c -0.0016,-0.04462 -0.01033,-0.08935 -0.0104,-0.133989 -2.36e-4,-0.03567 0.0016,-0.07245 0.0027,-0.107971 0.0054,-0.158131 0.01854,-0.316224 0.04813,-0.469609 0.01724,-0.08921 0.04232,-0.175829 0.06764,-0.262772 0.0065,-0.02273 0.0098,-0.04643 0.01691,-0.06895 v -0.0027 l 0.0013,-0.0013 c 0.0051,-0.01594 0.01289,-0.02972 0.01821,-0.04553 0.0632,-0.185957 0.143931,-0.366063 0.24326,-0.535952 0.0084,-0.01438 0.01351,-0.02998 0.02211,-0.04424 0.05839,-0.09652 0.122778,-0.189984 0.192526,-0.279682 0.07157,-0.09162 0.147131,-0.179442 0.230251,-0.262774 0.08298,-0.08275 0.171331,-0.160338 0.262773,-0.231552 8.49e-4,-6.65e-4 0.0017,-5.86e-4 0.0027,-0.0013 0.09091,-0.07094 0.185653,-0.135873 0.283587,-0.195128 0.01426,-0.0086 0.02983,-0.01506 0.04423,-0.02342 0.169895,-0.09933 0.349998,-0.180062 0.535954,-0.24326 0.01585,-0.0053 0.02962,-0.01314 0.04553,-0.0182 l 0.0013,-0.0013 h 0.0027 c 0.02252,-0.0072 0.04622,-0.01038 0.06895,-0.01691 0.08694,-0.02532 0.174861,-0.05169 0.264073,-0.06894 0.153385,-0.0296 0.310177,-0.04145 0.468307,-0.04683 0.03552,-0.0011 0.07231,-0.0028 0.107972,-0.0027 0.04384,6.7e-5 0.08756,0.009 0.131386,0.0104 z m -0.05204,2.684965 -0.0013,0.0013 c -0.108935,-0.0017 -0.217458,0.0074 -0.323914,0.02732 l -0.0013,0.0013 c -0.105954,0.01999 -0.211197,0.04989 -0.310904,0.08976 l -0.0013,0.0013 -0.0013,0.0013 c -0.09982,0.04011 -0.196182,0.08849 -0.286188,0.146997 -0.0019,0.0012 -0.0021,0.004 -0.0039,0.0052 h -0.0013 c -0.08999,0.05852 -0.175185,0.12712 -0.251065,0.202934 -0.07455,0.07461 -0.138389,0.157811 -0.196429,0.245861 -0.0013,0.0019 -0.004,0.0021 -0.0052,0.0039 -0.05852,0.09 -0.106889,0.186366 -0.146998,0.286189 l -0.0013,0.0013 -0.0013,0.0013 c -0.03987,0.09971 -0.06976,0.204951 -0.08976,0.310906 l -0.0013,0.0013 c -0.01992,0.106459 -0.02898,0.214979 -0.02733,0.323914 l -0.0013,0.0013 c 0.0017,0.109301 0.01447,0.217851 0.03772,0.325214 0.04651,0.214725 0.13555,0.422412 0.258871,0.606198 0.06165,0.0919 0.13098,0.17661 0.209437,0.254968 0.0784,0.07832 0.16435,0.149081 0.256269,0.21074 0.183843,0.123307 0.391521,0.212293 0.606198,0.258869 0.10734,0.02328 0.215991,0.03743 0.325213,0.03902 l 0.0013,-0.0013 c 0.21899,0.0029 0.436341,-0.04099 0.637419,-0.122281 0.09945,-0.0402 0.195466,-0.08848 0.284888,-0.146996 0.09021,-0.05892 0.174867,-0.126936 0.251065,-0.202934 l 0.0039,-0.0039 c 0.0012,-0.0012 0.0028,-0.0028 0.0039,-0.0039 0.074,-0.07421 0.138581,-0.155747 0.196429,-0.24326 0.0016,-0.0023 0.0036,-0.0041 0.0052,-0.0066 0.05852,-0.08942 0.106789,-0.185443 0.146998,-0.284886 0.08129,-0.20108 0.125302,-0.41843 0.12228,-0.637419 l 0.0013,-0.0013 c -0.0016,-0.109223 -0.01575,-0.217875 -0.03902,-0.325213 -0.04657,-0.214679 -0.135562,-0.422354 -0.25887,-0.606199 -0.06165,-0.09192 -0.132418,-0.17788 -0.210739,-0.256269 -0.07836,-0.07845 -0.163075,-0.147778 -0.254968,-0.209439 -0.183785,-0.123321 -0.391473,-0.212358 -0.606198,-0.25887 -0.107365,-0.02326 -0.215912,-0.03608 -0.325214,-0.03772 z"
       id="path2702"
       inkscape:connector-curvature="0" />
    <path
       sodipodi:nodetypes="cccccccccccccccccccccccccccccccccccccccccccccc"
       inkscape:connector-curvature="0"
       id="path2704"
       d="m 13.075946,33.098953 -0.0078,0.0078 c -0.789083,-0.01206 -1.575539,0.05337 -2.346708,0.19773 l -0.0104,0.01041 c -0.7675933,0.144788 -1.5295524,0.361629 -2.2518321,0.650423 l -0.00911,0.01041 -0.00911,0.0091 c -0.7231222,0.290545 -1.4215497,0.640244 -2.0735563,1.064095 -0.013512,0.0087 -0.014626,0.02904 -0.028619,0.03772 h -0.0091 c -0.6519105,0.42399 -1.2702106,0.922087 -1.8198968,1.471286 -0.5399596,0.540466 -1.0013861,1.14173 -1.4218348,1.77957 -0.00917,0.01351 -0.029042,0.01593 -0.037724,0.02992 -0.4238623,0.651984 -0.7748553,1.350448 -1.0654006,2.073563 l -0.00911,0.0091 -0.010407,0.01041 c -0.2888096,0.722287 -0.5043352,1.482936 -0.6491231,2.250478 l -0.010407,0.0104 c -0.14431,0.771194 -0.209792,1.557611 -0.19773,2.346743 l -0.00911,0.0091 c 6.86e-4,0.04526 0.00789,0.09008 0.00911,0.135289 l 1.2865459,0.0078 c -0.00117,-0.04263 -0.00845,-0.08481 -0.00911,-0.127485 l 0.00911,-0.0078 c -0.010783,-0.705399 0.047919,-1.408917 0.1769163,-2.098281 l 0.00781,-0.0078 c 0.1294196,-0.686096 0.3233097,-1.368073 0.5814773,-2.013721 l 0.00911,-0.0078 0.00781,-0.0091 c 0.259709,-0.646378 0.5733325,-1.270907 0.9522191,-1.853711 0.00777,-0.01251 0.025626,-0.01394 0.033822,-0.02601 0.3758331,-0.570157 0.7882684,-1.107826 1.2709334,-1.590943 0.4913596,-0.490925 1.0433267,-0.93618 1.6260694,-1.315165 h 0.00911 c 0.012511,-0.0078 0.012634,-0.02606 0.024719,-0.03382 0.5828204,-0.378877 1.2073165,-0.691205 1.8537162,-0.950925 l 0.00911,-0.0078 0.00781,-0.0091 c 0.6456336,-0.258143 1.3276201,-0.452046 2.0137191,-0.581475 l 0.0078,-0.0091 c 0.689305,-0.129039 1.392857,-0.187698 2.098244,-0.176916 l 0.0078,-0.0078 c 0.03263,4.95e-4 0.06495,0.0057 0.09756,0.0065 l -0.01304,-1.286543 c -0.0335,-8.02e-4 -0.06665,-0.006 -0.100165,-0.0065 z"
       style="opacity:0.95;fill:#ffffff;fill-opacity:1;stroke:none;stroke-width:15.76818085;stroke-opacity:1" />
    <path
       sodipodi:nodetypes="ccscccccccccccccccccccccccccccccccccccccccccccccccc"
       style="opacity:0.95;fill:#ffffff;fill-opacity:1;stroke:none;stroke-width:15.76818085;stroke-opacity:1"
       d="m 13.202128,35.427484 c -1.00181,0.01963 -1.989151,0.168707 -2.925623,0.470909 -1.1094385,0.358042 -2.1521265,0.908758 -3.0778236,1.633875 -0.3085653,0.241704 -0.6038618,0.501707 -0.8845816,0.781813 l -0.0013,0.0013 C 5.1923676,39.438265 4.3744986,40.798538 3.8971107,42.277787 3.7777719,42.647598 3.6792811,43.025436 3.6031175,43.408231 3.4864506,43.994908 3.4234756,44.594248 3.4118917,45.20081 l 1.419233,0.01562 c 0.00141,-0.05511 0.0028,-0.110295 0.00521,-0.165208 0.00568,-0.131285 0.015828,-0.261162 0.027318,-0.391558 0.00902,-0.102076 0.017434,-0.204248 0.029921,-0.305702 5.007e-4,-0.0041 0.0021,-0.0077 0.0026,-0.01171 0.016706,-0.133586 0.038351,-0.267061 0.06114,-0.399362 0.00109,-0.0064 0.00153,-0.01188 0.0026,-0.0182 0.014664,-0.08404 0.02714,-0.170228 0.044229,-0.253666 l 0.0013,-0.0013 c 0.057608,-0.280814 0.1299394,-0.557174 0.2146412,-0.829945 0.020541,-0.0662 0.044235,-0.132092 0.066344,-0.197731 0.092045,-0.273072 0.1921442,-0.542954 0.3109044,-0.805228 0.00342,-0.0076 0.00564,-0.01455 0.00911,-0.02211 l 0.0013,-0.0013 c 0.089622,-0.196454 0.1973237,-0.38504 0.3030947,-0.573708 0.00934,-0.01694 0.016563,-0.03385 0.026017,-0.05073 l 0.0013,-0.0013 C 6.025666,41.031614 6.1174077,40.87843 6.2139394,40.727256 6.330578,40.546728 6.45017,40.367162 6.5807808,40.195206 c 0.058307,-0.07796 0.1222587,-0.152876 0.1834206,-0.228951 0.1785129,-0.2191 0.361666,-0.433972 0.5632698,-0.636118 l 0.0013,-0.0026 c 0.2021485,-0.201601 0.4183188,-0.38476 0.63742,-0.563273 0.076077,-0.06116 0.1509861,-0.125112 0.2289508,-0.18342 0.1719571,-0.130611 0.3515353,-0.248899 0.5320496,-0.36554 0.1511733,-0.09653 0.3042786,-0.189583 0.4605027,-0.277083 l 0.0013,-0.0013 c 0.016887,-0.0095 0.033793,-0.01668 0.050735,-0.02602 0.1886653,-0.10577 0.3772522,-0.213472 0.5736751,-0.303098 l 0.00129,-0.0013 c 0.00758,-0.0035 0.014565,-0.0057 0.022106,-0.0091 0.2622756,-0.11876 0.5334576,-0.22016 0.8065316,-0.312206 0.06564,-0.02211 0.130241,-0.0445 0.196429,-0.06504 0.27277,-0.0847 0.549151,-0.157021 0.829945,-0.214641 l 0.0013,-0.0013 c 0.08344,-0.01709 0.169627,-0.02957 0.253667,-0.04423 0.0064,-10e-4 0.01188,-0.0015 0.0182,-0.0026 0.132301,-0.02279 0.265772,-0.04443 0.399362,-0.06114 0.004,-5e-4 0.0077,-0.0021 0.01171,-0.0026 0.101453,-0.01248 0.203626,-0.0209 0.305701,-0.02992 0.130394,-0.01149 0.260272,-0.02164 0.391555,-0.02732 0.05491,-0.0024 0.110101,-0.0038 0.16521,-0.0052 z"
       id="path2706"
       inkscape:connector-curvature="0" />
    <path
       sodipodi:nodetypes="cccccccccccccccccccccccccccccccccccccc"
       inkscape:connector-curvature="0"
       id="path2708"
       d="m 13.230748,38.122856 c -1.360135,-0.04059 -2.689435,0.303339 -3.8284143,0.995154 -0.2293533,0.139309 -0.4517829,0.291394 -0.6647368,0.457901 l -0.0013,0.0013 -0.0013,0.0012 c -0.00181,0.0014 -0.0034,0.0038 -0.00521,0.0052 -0.2132883,0.166836 -0.4175297,0.349083 -0.6113983,0.54245 -0.1920146,0.192637 -0.3698429,0.393161 -0.535952,0.604898 -0.00138,0.0018 -0.00246,0.0021 -0.0039,0.0039 l -0.0026,0.0026 -0.0013,0.0013 C 7.4082229,40.951667 7.2560379,41.17419 7.1167292,41.403542 6.4249524,42.542483 6.0822693,43.870544 6.122876,45.230659 l 1.3660054,0.01296 c -0.00745,-0.215125 -0.00491,-0.429117 0.011709,-0.641323 8.24e-5,-0.0011 0.0013,-0.0028 0.0013,-0.0039 0.00304,-0.03859 0.011753,-0.07597 0.015613,-0.114475 0.018056,-0.179902 0.039457,-0.359815 0.074148,-0.535951 0.08446,-0.428385 0.2179937,-0.843216 0.3980613,-1.238416 0.053631,-0.117713 0.119012,-0.23221 0.1808187,-0.346027 0.041531,-0.0764 0.077131,-0.154458 0.122281,-0.22895 0.073261,-0.120841 0.1580312,-0.235314 0.2419588,-0.349929 0.00144,-0.0021 0.0013,-0.0045 0.0026,-0.0065 0.072642,-0.101095 0.1506234,-0.197874 0.228953,-0.295253 0.1062164,-0.128481 0.2116833,-0.256857 0.3304176,-0.375949 l 0.0026,-0.0026 c 0.1211038,-0.120735 0.2531101,-0.230224 0.3837514,-0.338221 0.097374,-0.07834 0.1941526,-0.156317 0.2952947,-0.228951 0.00215,-0.0013 0.00448,-0.0012 0.00655,-0.0026 0.1146113,-0.08393 0.2290891,-0.167397 0.3499301,-0.240659 0.07449,-0.04515 0.152547,-0.08205 0.22895,-0.123581 0.11381,-0.06181 0.22831,-0.127192 0.346028,-0.180819 0.3952,-0.180068 0.811329,-0.314901 1.239714,-0.399362 0.176139,-0.03469 0.354749,-0.05479 0.534652,-0.07285 0.0385,-0.0038 0.07587,-0.01256 0.114476,-0.01561 0.001,3.9e-5 0.0028,-0.0013 0.0039,-0.0013 0.212204,-0.01665 0.426197,-0.01916 0.641322,-0.01171 z"
       style="opacity:0.95;fill:#ffffff;fill-opacity:1;stroke:none;stroke-width:15.76818085;stroke-opacity:1" />
    <path
       sodipodi:nodetypes="cccccccccccsccccccccccccccccccccccccccccccccccccccccccccc"
       style="opacity:0.95;fill:#ffffff;fill-opacity:1;stroke:none;stroke-width:15.76818085;stroke-opacity:1"
       d="m 13.258078,40.867661 c -0.04751,-6.41e-4 -0.09446,0.0014 -0.141794,0.0013 -0.06096,-1.45e-4 -0.121444,1.8e-4 -0.18212,0.0026 -0.223143,0.0086 -0.445415,0.02922 -0.662135,0.07155 -0.325159,0.0635 -0.640361,0.163234 -0.940519,0.299196 -0.0015,6.34e-4 -0.0037,0.002 -0.0052,0.0026 -0.01935,0.0088 -0.03672,0.02084 -0.05593,0.02992 -0.13069,0.06152 -0.259875,0.12661 -0.383752,0.201633 -0.05914,0.03575 -0.114319,0.0785 -0.171713,0.117077 -0.03725,0.02494 -0.07408,0.0506 -0.110573,0.07675 -0.04175,0.0301 -0.08544,0.05408 -0.126184,0.08586 -7.22e-4,5.97e-4 -0.0018,0.002 -0.0027,0.0027 -0.0018,0.0014 -0.0034,0.0038 -0.0052,0.0052 l -0.0013,0.0013 c -0.130584,0.102066 -0.25579,0.213508 -0.374646,0.331718 l -0.0027,0.0027 -0.0013,0.0013 c -0.1166051,0.11726 -0.2255843,0.240784 -0.326516,0.369444 -0.00138,0.0018 -0.00379,0.0034 -0.00517,0.0052 -6.506e-4,7.95e-4 -0.00207,0.0019 -0.00267,0.0027 -0.03181,0.04071 -0.055764,0.08444 -0.085858,0.126182 -0.026151,0.0365 -0.05181,0.07333 -0.07675,0.110573 -0.038576,0.05739 -0.081325,0.112583 -0.1170771,0.171714 -0.075025,0.123873 -0.1401091,0.253063 -0.2016324,0.383751 -0.00909,0.01921 -0.021134,0.0366 -0.029916,0.05594 -6.274e-4,0.0015 -6.345e-4,0.0024 -0.0013,0.0039 -0.1359614,0.300157 -0.2370004,0.616658 -0.300497,0.941819 -0.042326,0.21672 -0.061784,0.437857 -0.070248,0.660833 -0.00239,0.06069 -0.00275,0.121151 -0.0026,0.182121 1.944e-4,0.04774 -0.00333,0.09517 -0.0026,0.143094 l 1.3515875,0.01431 c -0.0016,-0.04462 -0.01033,-0.08935 -0.0104,-0.133989 -2.36e-4,-0.03567 0.0016,-0.07245 0.0027,-0.107971 0.0054,-0.158131 0.01854,-0.316224 0.04813,-0.469609 0.01724,-0.08921 0.04232,-0.175829 0.06764,-0.262772 0.0065,-0.02273 0.0098,-0.04643 0.01691,-0.06895 v -0.0027 l 0.0013,-0.0013 c 0.0051,-0.01594 0.01289,-0.02972 0.01821,-0.04553 0.0632,-0.185957 0.143931,-0.366063 0.24326,-0.535952 0.0084,-0.01438 0.01351,-0.02998 0.02211,-0.04424 0.05839,-0.09652 0.122778,-0.189984 0.192526,-0.279682 0.07157,-0.09162 0.147131,-0.179442 0.230251,-0.262774 0.08298,-0.08275 0.171331,-0.160338 0.262773,-0.231552 8.49e-4,-6.65e-4 0.0017,-5.86e-4 0.0027,-0.0013 0.09091,-0.07094 0.185653,-0.135873 0.283587,-0.195128 0.01426,-0.0086 0.02983,-0.01506 0.04423,-0.02342 0.169895,-0.09933 0.349998,-0.180062 0.535954,-0.24326 0.01585,-0.0053 0.02962,-0.01314 0.04553,-0.0182 l 0.0013,-0.0013 h 0.0027 c 0.02252,-0.0072 0.04622,-0.01038 0.06895,-0.01691 0.08694,-0.02532 0.174861,-0.05169 0.264073,-0.06894 0.153385,-0.0296 0.310177,-0.04145 0.468307,-0.04683 0.03552,-0.0011 0.07231,-0.0028 0.107972,-0.0027 0.04384,6.7e-5 0.08756,0.009 0.131386,0.0104 z"
       id="path2710"
       inkscape:connector-curvature="0" />
    <path
       sodipodi:nodetypes="cccccccccccccccccccccccccccccccccccccccccccc"
       inkscape:connector-curvature="0"
       id="path2712"
       d="m 13.206038,43.552626 -0.0013,0.0013 c -0.108935,-0.0017 -0.217458,0.0074 -0.323914,0.02732 l -0.0013,0.0013 c -0.105954,0.01999 -0.211197,0.04989 -0.310904,0.08976 l -0.0013,0.0013 -0.0013,0.0013 c -0.09982,0.04011 -0.196182,0.08849 -0.286188,0.146997 -0.0019,0.0012 -0.0021,0.004 -0.0039,0.0052 h -0.0013 c -0.08999,0.05852 -0.175185,0.12712 -0.251065,0.202934 -0.07455,0.07461 -0.138389,0.157811 -0.196429,0.245861 -0.0013,0.0019 -0.004,0.0021 -0.0052,0.0039 -0.05852,0.09 -0.106889,0.186366 -0.146998,0.286189 l -0.0013,0.0013 -0.0013,0.0013 c -0.03987,0.09971 -0.06976,0.204951 -0.08976,0.310906 l -0.0013,0.0013 c -0.01992,0.106459 -0.02898,0.214979 -0.02733,0.323914 l -0.0013,0.0013 c 0.0017,0.109301 0.01447,0.217851 0.03772,0.325214 0.04651,0.214725 0.13555,0.422412 0.258871,0.606198 0.06165,0.0919 0.13098,0.17661 0.209437,0.254968 0.0784,0.07832 0.16435,0.149081 0.256269,0.21074 0.183843,0.123307 0.391521,0.212293 0.606198,0.258869 0.10734,0.02328 0.215991,0.03743 0.325213,0.03902 l 0.0013,-0.0013 c 0.21899,0.0029 0.436341,-0.04099 0.637419,-0.122281 0.09945,-0.0402 0.195466,-0.08848 0.284888,-0.146996 0.09021,-0.05892 0.174867,-0.126936 0.251065,-0.202934 l 0.0039,-0.0039 0.0039,-0.0039 c 0.074,-0.07421 0.138581,-0.155747 0.196429,-0.24326 0.0016,-0.0023 0.0036,-0.0041 0.0052,-0.0066 0.05852,-0.08942 0.106789,-0.185443 0.146998,-0.284886 0.08129,-0.20108 0.125302,-0.41843 0.12228,-0.637419 l 0.0013,-0.0013 c -0.0016,-0.109223 -0.01575,-0.217875 -0.03902,-0.325213 -0.04657,-0.214679 -0.135562,-0.422354 -0.25887,-0.606199 -0.06165,-0.09192 -0.132418,-0.17788 -0.210739,-0.256269 -0.07836,-0.07845 -0.163075,-0.147778 -0.254968,-0.209439 -0.183785,-0.123321 -0.391473,-0.212358 -0.606198,-0.25887 -0.107365,-0.02326 -0.215912,-0.03608 -0.325214,-0.03772 z"
       style="opacity:0.95;fill:#ffffff;fill-opacity:1;stroke:none;stroke-width:15.76818085;stroke-opacity:1" />
  </g>
</svg>
