<svg height="48" viewBox="0 0 12.7 12.7" width="48" xmlns="http://www.w3.org/2000/svg" xmlns:xlink="http://www.w3.org/1999/xlink"><filter id="a" color-interpolation-filters="sRGB" height="1.077086" width="1.067544" x="-.033772" y="-.038543"><feGaussianBlur stdDeviation="1.7187398"/></filter><linearGradient id="b" gradientUnits="userSpaceOnUse" x1="91.87970030127" x2="92.40308736788" y1="150.07256856675" y2="15.31515841826"><stop offset="0" stop-color="#f7f7f7"/><stop offset=".86046815" stop-color="#c3c3c3"/><stop offset="1" stop-color="#ececec"/></linearGradient><linearGradient id="c" gradientUnits="userSpaceOnUse" x1="286.4264251" x2="286.4264251" y1="159.65576423675" y2="149.65576523675"><stop offset="0" stop-color="#e1e1e1"/><stop offset="1" stop-color="#fff"/></linearGradient><linearGradient id="d" gradientUnits="userSpaceOnUse" x1="282.42643" x2="282.42643" y1="151.655739" y2="157.655699"><stop offset="0" stop-color="#de4814"/><stop offset="1" stop-color="#ff6000"/></linearGradient><g transform="matrix(.07459639 0 0 .07459639 -.015975 .1755)"><path d="m258.37825 73.04211c-3.89026 0-7.02161 3.754433-7.02161 8.419091v90.185029c0 .36285.0256.7172.0623 1.0677v7.16438h5.48337c.47628.12143.96855.187 1.4759.187h108.09896c.50736 0 .99963-.0656 1.47591-.187h5.48337v-7.16438c.0368-.3505.0623-.70485.0623-1.0677v-90.185029c0-4.664658-3.13135-8.419091-7.02162-8.419091z" fill="#b2b2b2" fill-opacity=".757353" filter="url(#a)" transform="matrix(1.3061962 0 0 1.3073335 -322.75852 -79.052062)"/><path d="m16.273624 15.964809c-4.970638 0-8.9715985 4.83217-8.9715985 10.835851v116.07328c.1588666 3.45567.00779 7.29355.00779 10.83326l8.9638855.003h138.119489l8.96629-.001.005-10.83471v-116.07383c0-6.003681-4.00096-10.835851-8.97161-10.835851z" fill="#999"/><rect fill="url(#b)" height="131.23401" rx="8.749305" ry="10.490952" width="148.96834" x="10.854747" y="18.92853"/><path d="m10.854747 50.850315h148.96832v99.312218h-148.96832z" fill="#ececec"/><rect fill="#1a1a1a" height="74.484169" rx="3.14209" ry="3.59096" width="120.59341" x="25.042208" y="61.49091"/><path d="m10.854747 47.303452h150.74176v3.546865h-150.74176z" fill="#6d6d6d"/><g transform="matrix(1.2561808 0 0 1.2561808 -278.233 -86.749318)"><path d="m284.33268 123.65573c-1.59773 3.32467-3.14983 6.74054-4.65626 10.25-1.4608 3.46312-2.97923 7.12125-4.53125 11-.34307.88333-.68344 1.84032-1.03123 2.75h10.15624c.10906-.30296.23573-.63912.34376-.93749.73037-1.89331 1.3753-3.61771 1.96874-5.1875.59347-1.5701 1.10598-2.95573 1.56248-4.15626.45648-1.20053.80299-2.15096 1.03126-2.84376.27389.6928.63728 1.64296 1.09376 2.84376.4565 1.20053 1.00037 2.58616 1.59376 4.15626.63909 1.56979 1.28402 3.29419 1.96874 5.1875.108.29837.23467.63453.34374.93749h10.53125c-.35592-.90997-.70893-1.8664-1.06248-2.75-1.50645-3.87875-3.02485-7.53688-4.53125-11-1.50643-3.50946-3.04166-6.92533-4.59376-10.25zm-15.34375 37.84376c-1.14995 3.21741-2.32422 6.55915-3.56251 10.15624h11.09376c.50216-1.66248 1.06275-3.37016 1.65624-5.12499.59368-1.62997 1.16445-3.24501 1.71875-4.87501h-9.46875c-.49523 0-.97184-.0592-1.43749-.15627zm40.84375 0c-.4565.0931-.92149.15627-1.40626.15627h-9.81248c.55106 1.62952 1.10512 3.24552 1.65624 4.87501.63904 1.75459 1.21658 3.46251 1.71874 5.12498h11.4375c-1.2383-3.59709-2.41256-6.93882-3.56248-10.15623-.0107.002-.0213-.002-.0312 0z" fill="#fff"/><rect height="11.117699" opacity=".5" ry="5.000011" width="48.000042" x="265.42639" y="150.6557"/><rect fill="url(#c)" height="10.705934" ry="5.000011" width="48.000042" x="265.42639" y="149.6557"/><rect fill="#fff" height="5.647083" ry="2.823541" width="29.647093" x="268.24994" y="153.30281"/><rect fill="url(#d)" height="5.647067" ry="2.823533" width="29.647076" x="268.24994" y="151.89104"/><path d="m270.42642 149.65573c-2.77 0-5 2.23-5 5 0 .17307.0133.33152.0312.5.2552-2.52741 2.37187-4.5 4.96875-4.5h37.99999c2.59688 0 4.71363 1.97259 4.96878 4.5.016-.16853.0312-.32688.0312-.5 0-2.77-2.23-5-5-5h-38.00003z" fill="#fff"/><path d="m271.27582 151.88733c-1.662 0-3 1.338-3 3 0 .1752.0339.33309.0624.5.2424-1.41547 1.4508-2.50023 2.93749-2.5l23.71986.004c1.48669.00023 2.69512 1.08453 2.93752 2.5.0285-.16693.0624-.32469.0624-.5 0-1.662-1.338-2.99974-3-3l-23.71986-.004z" opacity=".1"/></g><circle cx="149.09697" cy="28.183462" fill="#818181" r="4.464811"/></g></svg>