<svg height="48" viewBox="0 0 12.7 12.7" width="48" xmlns="http://www.w3.org/2000/svg" xmlns:xlink="http://www.w3.org/1999/xlink"><linearGradient id="a" gradientUnits="userSpaceOnUse" x1="36.5837611089" x2="36.70595998535" y1="292.85407290434" y2="234.86337624372"><stop offset="0" stop-color="#e8f03b"/><stop offset=".38350943" stop-color="#b9c10f"/><stop offset="1" stop-color="#e8f03b"/></linearGradient><g transform="matrix(.1904634 0 0 .1904634 -.100345 -43.76728)"><path d="m11.997125 232.57426c-.417973.00004-.813528.10773-1.136719.32421-.329743.22092-.609375.59619-.609375 1.0625v58.34961c0 .46703.281918.84066.611328 1.06055.322702.21539.716995.32425 1.134766.32422l43.737216-.003c.41786-.00002.813541-.10905 1.136719-.32422.329876-.21964.611328-.59312.611328-1.06055v-42.13671c0-.17505-.06944-.34324-.193359-.4668l-16.998013-16.93846c-.123556-.12387-.291754-.19336-.466797-.19335zm31.979437-.002c-.284564-.0006-.51734.17919-.611328.40625-.09421.22759-.05624.51976.146485.7207l12.843716 12.78245c.2009.2027.49315.2407.720703.14649.227553-.0942.407442-.32594.40625-.61133v-2.33175-9.72685c0-.46747-.281531-.84208-.611328-1.0625-.323307-.21606-.718676-.32423-1.136719-.32421l-11.755825.00075z" fill="#7e7a0a" stroke-width=".478399"/><path d="m12.06214 233.9599c-.18103 0-.33133.056-.39648.0996-.0651.0437-.0215.0264-.0215-.041l-.0041 58.2906c0-.0674-.0454-.0863.0195-.043.0649.0434.21668.0996.39843.0996h43.61524c.18175 0 .33477-.0559.40039-.0996.0656-.0437.0195-.0255.0195.043v-41.85951l-16.54265-16.48969zm33.53125 0 10.49984 10.4449.0041-10.38631c0 .0685.0443.085-.0215.041s-.21741-.0996-.39844-.0996z" fill="url(#a)" stroke-width=".478399"/><path d="m22.017578 5.3378906c-.802354.0000768-1.561233.2074852-2.18164.6230469-.632985.4240849-1.169922 1.1439193-1.169922 2.0390625v112.00977c0 .89652.541482 1.61304 1.173828 2.03515.619469.41347 1.375768.62311 2.177734.62305h7.316406v-117.3300794z" transform="matrix(.52093343 0 0 .52093343 .526928 229.79358)"/><path d="m12.52984 233.23384c-.86328 0-1.55867.32349-1.55867.72508v58.34972c0 .40159.69539.72508 1.55867.72508h2.81871v-59.79988z" stroke-width=".572704"/><path d="m27.091499 266.66125c.442763-.47926.998732-.83153 1.567418-1.1421.441378-.25226.917744-.41311 1.403505-.54898 3.415305-.17832 2.086559-.285 4.203557-.0266.04774-.0217.14582-.22537 2.077465.38944.03583.0112 1.020155.66507 1.053631.68243.89771.64285.519354.44641 1.145777 1.20543.338581.54295.517475 1.15569.595818 1.78593.06992 1.31337.17653 2.76254-.583773 3.81571-.1667.40039-.418931.70804-.561547.93557-.0078.0415-.227759.63605-.327504.85647-.677407.92084-.894688 1.88439-1.238142 2.98185-.06334.31958-.150712.63614-.205767.95754-.234052 2.79822.769484 3.09575 3.746915 2.50068 3.864916-1.01139 4.128544-1.98638 6.32339-5.1298.07563-.10002.685445-.95774.465608-.56348.105459-.29528.193671-.59946.28748-.89997.147362-.43711.321005-.8699.557596-1.26697.08338-.19232 2.803217.98743 2.719778 1.17975-.13052.30016-.230972.61471-.347423.92057-.171641.43576-.293592.89127-.545134 1.29264-.897671 1.18943-1.693649 2.69992-2.201083 3.35404-.0523.0677-.102437.13683-.153656.20523-2.003355 1.91933-4.148753 3.19795-6.280208 3.32387-.120982.008-.242372-.004-.363586-.004-.05811-.00011-.232185.00071-.174138.00071.192431.0003.384881-.0003.577332-.00044-1.659909.15172-4.832398.80063-6.548427-1.0139-1.127627-1.05203-1.226607-2.92425-1.040538-4.31055.388775-1.61778.701231-3.43703 1.633037-4.78391.406642-.55574 2.457264-3.58783.802157-4.85147-.778809-.89399-2.23027-1.60336-4.386264-.86557-.53972.19114-1.094304.43846-2.085193 1.11096-3.739894 2.90113-4.464801-.25796-2.118749-2.09148z" fill="#f8f7a6" stroke-width=".185243"/></g></svg>