<svg height="16" viewBox="0 0 4.2333332 4.2333335" width="16" xmlns="http://www.w3.org/2000/svg" xmlns:xlink="http://www.w3.org/1999/xlink"><filter id="a" color-interpolation-filters="sRGB" height="1.869989" width="1.027669" x="-.013834" y="-.434994"><feGaussianBlur stdDeviation=".70324038"/></filter><linearGradient id="b" gradientUnits="userSpaceOnUse" x1="55" x2="55" y1="1036.4132" y2="1032.4822"><stop offset="0" stop-color="#003d7b"/><stop offset="1" stop-color="#003d7b" stop-opacity="0"/></linearGradient><filter id="c" color-interpolation-filters="sRGB" height="1.697208" width="1.027888" x="-.013944" y="-.348604"><feGaussianBlur stdDeviation=".70882694"/></filter><linearGradient id="d" gradientUnits="userSpaceOnUse" x1="2.3812503" x2="2.3812503" y1="292.50206667" y2="295.4124833"><stop offset="0" stop-color="#102134"/><stop offset="1" stop-color="#102134" stop-opacity="0"/></linearGradient><clipPath id="e"><rect height="28.072842" rx="4" width="101.14289" x="4" y="941.36218"/></clipPath><filter id="f" color-interpolation-filters="sRGB" height="1.267833" width="1.129187" x="-.064594" y="-.133917"><feGaussianBlur stdDeviation="3.1247207"/></filter><linearGradient id="g" gradientUnits="userSpaceOnUse" x1="2.11666697" x2="2.11666697" y1="294.08956665" y2="296.73539995"><stop offset="0" stop-color="#5678c8"/><stop offset=".94117647" stop-color="#3f59ae"/><stop offset="1" stop-color="#3d7cdb"/></linearGradient><linearGradient id="h" gradientUnits="userSpaceOnUse" x1="1.455208645" x2="1.455208645" y1="295.94164996" y2="296.20623329"><stop offset="0" stop-color="#174072"/><stop offset="1" stop-color="#174072" stop-opacity="0"/></linearGradient><linearGradient id="i" gradientUnits="userSpaceOnUse" x1=".09985673" x2=".09985673" y1="294.14635850065" y2="293.64217819343"><stop offset="0" stop-color="#34608f"/><stop offset="1" stop-color="#34608f" stop-opacity="0"/></linearGradient><linearGradient id="j" gradientTransform="matrix(.0564759 0 0 .03012001 -3.019205 265.45444)" gradientUnits="userSpaceOnUse" x1="124.01234" x2="124.01234" y1="966.51019" y2="935.34326"><stop offset="0"/><stop offset="1" stop-color="#34608f" stop-opacity="0"/></linearGradient><g transform="translate(0 -292.76665)"><path d="m-46.991242 21.13992h114.000023c2.216 0 4 .8652 4 1.94 0 1.0747-1.78433 1.902-4 1.94-36.945183.6329-74.7030655.7782-114.000023 0-2.215566-.044-4-.8653-4-1.94 0-1.0748 1.784-1.94 4-1.94z" filter="url(#a)" opacity=".554286" transform="matrix(.03307292 0 0 .03307292 1.785647 296.03624)"/><rect fill="url(#b)" filter="url(#c)" height="4.39199" opacity=".577143" rx="2.439995" ry="2.195995" transform="matrix(.03307292 0 0 .06777243 -.033073 226.33163)" width="121.99997" x="3.000028" y="1032.4822"/><path d="m.13229167 293.03123c-.13229167 0-.13229167.10125-.13229167.13229v.39688 1.32291c0 .14658.11800417.26459.26458333.26459h3.43958337c.1465791 0 .2645833-.11801.2645833-.26459v-1.32291c0-.14658-.1180042-.26459-.2645833-.26459h-2.1419881c-.022278-.12857-.047096-.26458-.1069703-.26458z" fill="#3b6ca9"/><path d="m.13229167 293.03123c-.13229167 0-.13229167.10125-.13229167.13229v.39688 1.32291c0 .14658.11800417.26459.26458333.26459v-1.5875-.26459h1.02732747c.00353.0181.00635.0249.00982.045.021874.1268.131783.21948.2604494.21963h.2899047 1.8520834v1.5875c.1465791 0 .2645833-.11801.2645833-.26459v-1.32291c0-.14658-.1180042-.26459-.2645833-.26459h-2.1419897c-.022278-.12857-.047096-.26458-.1069703-.26458z" fill="url(#d)" opacity=".25"/><path clip-path="url(#e)" d="m25.67146 956.10785-21.6714601-.15854.0000002 57.33469 107.8857499-.02v-60.57188c0-2.54081-2.05959-4.58387-4.62097-4.58387h-69.59332c-9.375263 0-5.067235 7.84799-12 8z" fill="#16375b" fill-opacity=".801471" filter="url(#f)" transform="matrix(.03923904 0 0 .03923904 -.156956 256.71132)"/><path d="m.26458333 294.35415h.66145834l.26458333-.26459h2.778125c.1465792 0 .2645833.11801.2645833.26459v2.11666c0 .14658-.1180041.26459-.2645833.26459h-3.70416667c-.14657916 0-.26458333-.11801-.26458333-.26459v-1.85208c0-.14658.11800417-.26458.26458333-.26458z" fill="url(#g)"/><path d="m1.190625 294.08956-.26458333.26459h-.66145834c-.14657916 0-.26458333.118-.26458333.26458v.26458c0-.14658.11830148-.25525.26458333-.26458h.66145834l.26458333-.26458h2.778125c.1465792 0 .2645833.118.2645833.26458v-.26458c0-.14658-.1180041-.26459-.2645833-.26459z" fill="#a4c0e8"/><path d="m.26458333 293.29581h.79374997v.26459h-.79374997z" fill="#fcf9e9"/><path d="m.79375 293.29581h.2645833v.26459h-.2645833z" fill="#fbc66d"/><path d="m0 295.94165h4.2333333v.26458h-4.2333333z" fill="#385da4"/><path d="m0 295.94165h1.8520833 2.38125v.26458h-4.2333333z" fill="url(#h)"/><path d="m0 296.20623h4.2333333v.13229h-4.2333333z" fill="#a4c0e8"/><path d="m.26458333 294.35415c-.14566304 0-.26260419.11669-.26406657.262v1.85725c.00006085.006.00316129.0111.00361735.017.01008301.0849.19871489.24441.26044922.24495h.00051594v-2.38125z" fill="url(#i)" opacity=".594286"/><path d="m3.96875 294.08956v2.64584c.1465792 0 .2645833-.11801.2645833-.26459v-2.11666c0-.14658-.1180041-.26459-.2645833-.26459z" fill="url(#j)" opacity=".405714"/></g></svg>