<?xml version="1.0" encoding="UTF-8" standalone="no"?>
<!-- Created with Inkscape (http://www.inkscape.org/) -->

<svg
   xmlns:dc="http://purl.org/dc/elements/1.1/"
   xmlns:cc="http://creativecommons.org/ns#"
   xmlns:rdf="http://www.w3.org/1999/02/22-rdf-syntax-ns#"
   xmlns:svg="http://www.w3.org/2000/svg"
   xmlns="http://www.w3.org/2000/svg"
   xmlns:sodipodi="http://sodipodi.sourceforge.net/DTD/sodipodi-0.dtd"
   xmlns:inkscape="http://www.inkscape.org/namespaces/inkscape"
   id="svg7384"
   height="16"
   width="16"
   version="1.1"
   inkscape:version="0.48.3.1 r9886"
   sodipodi:docname="accessories-character-map-symbolic.svg">
  <defs
     id="defs12776" />
  <sodipodi:namedview
     pagecolor="#ffffff"
     bordercolor="#666666"
     borderopacity="1"
     objecttolerance="10"
     gridtolerance="10"
     guidetolerance="10"
     inkscape:pageopacity="0"
     inkscape:pageshadow="2"
     inkscape:window-width="1366"
     inkscape:window-height="696"
     id="namedview12774"
     showgrid="false"
     inkscape:zoom="5.2149125"
     inkscape:cx="-7.8290096"
     inkscape:cy="19.215225"
     inkscape:window-x="0"
     inkscape:window-y="0"
     inkscape:window-maximized="1"
     inkscape:current-layer="svg7384" />
  <metadata
     id="metadata90">
    <rdf:RDF>
      <cc:Work
         rdf:about="">
        <dc:format>image/svg+xml</dc:format>
        <dc:type
           rdf:resource="http://purl.org/dc/dcmitype/StillImage" />
        <dc:title>Gnome Symbolic Icon Theme</dc:title>
      </cc:Work>
    </rdf:RDF>
  </metadata>
  <title
     id="title9167">Gnome Symbolic Icon Theme</title>
  <g
     id="g12815"
     transform="matrix(0.94755343,0,0,0.94755343,-33.218574,8.6218319)">
    <path
       style="opacity:0.78099174;fill:#bebebe;fill-opacity:1;stroke:none"
       d="m 37.75,-8.34375 c -0.879054,0 -1.5625,0.7806431 -1.5625,1.71875 l 0,11.9375 c 0,0.9381069 0.683446,1.71875 1.5625,1.71875 l 11.5,0 c 0.879054,0 1.5625,-0.7806431 1.5625,-1.71875 l 0,-11.9375 c 0,-0.9381069 -0.683446,-1.71875 -1.5625,-1.71875 l -11.5,0 z m 0.75,1.8125 10.34375,0 c 0.03763,0 0.108528,0.053822 0.1875,0.1875 0.07897,0.1336777 0.15625,0.3329637 0.15625,0.5625 l 0,9.65625 C 47.65469,4.4124265 45.882003,4.71875 44,4.71875 c -2.156734,0 -4.136761,-0.4335618 -5.8125,-1.125 l 0,-9.375 c 0,-0.2339304 0.05239,-0.4295685 0.125,-0.5625 0.07261,-0.1329315 0.149872,-0.1875 0.1875,-0.1875 z"
       id="path12821"
       inkscape:connector-curvature="0" />
    <g
       transform="matrix(0.32921382,0,0,0.32921382,40.226879,3.803904)"
       id="text12806"
       style="font-size:40px;font-style:normal;font-weight:normal;line-height:125%;letter-spacing:0px;word-spacing:0px;fill:#bebebe;fill-opacity:1;stroke:none;font-family:Sans">
      <path
         inkscape:connector-curvature="0"
         id="path12811"
         style="font-style:italic;font-variant:normal;font-stretch:normal;fill:#bebebe;fill-opacity:1;stroke:none;font-family:Droid Sans;-inkscape-font-specification:Droid Sans Italic"
         d="m 8.2340441,-1.4915254 -0.1367188,-2.96875 -0.15625,0 c -0.5468896,0.5859399 -1.0807433,1.0937519 -1.6015625,1.5234375 -0.5078256,0.4166677 -1.0416792,0.7617194 -1.6015625,1.0351562 -0.5599072,0.2734377 -1.1653754,0.4752604 -1.8164062,0.6054688 -0.6510512,0.130208 -1.3867276,0.1953121 -2.20703127,0.1953125 -0.89844458,-4e-7 -1.69922502,-0.1302086 -2.40234373,-0.390625 -0.7031299,-0.2473956 -1.2825564,-0.6315098 -1.7382813,-1.1523438 -0.4427117,-0.5338524 -0.7421906,-1.1979143 -0.8984375,-1.9921875 -0.1432319,-0.8072877 -0.1106799,-1.7578076 0.097656,-2.8515625 0.429684,-2.1354085 1.5104121,-3.7760318 3.24218748,-4.9218748 1.73176283,-1.145821 4.14712502,-1.770821 7.24609372,-1.875 l 3.6132813,-0.136719 0.2734382,-1.347656 c 0.182274,-0.872381 0.234357,-1.601547 0.15625,-2.1875 -0.06512,-0.585921 -0.240903,-1.05467 -0.5273445,-1.40625 -0.2864751,-0.364565 -0.6836101,-0.624982 -1.1914062,-0.78125 -0.494807,-0.156231 -1.080744,-0.234356 -1.7578125,-0.234375 -1.0807422,1.9e-5 -2.1158974,0.156269 -3.1054688,0.46875 -0.9895933,0.312518 -1.9596444,0.690122 -2.91015622,1.132812 l -0.72265625,-2.675781 c 1.06769987,-0.520813 2.23306337,-0.963521 3.49609377,-1.328125 1.2630087,-0.364562 2.5455595,-0.546853 3.8476562,-0.546875 1.328109,2.2e-5 2.4478996,0.136741 3.3593755,0.410156 0.911439,0.260438 1.627584,0.683615 2.148437,1.269532 0.520813,0.572936 0.846333,1.308612 0.976563,2.207031 0.130187,0.898454 0.06508,1.985693 -0.195313,3.261719 l -2.929687,14.6874996 -2.5585942,0 m -6.035156,-2.4804688 c 0.7942606,2.5e-6 1.5559786,-0.1236953 2.2851563,-0.3710937 0.7291542,-0.2473927 1.3867056,-0.6184861 1.9726562,-1.1132813 0.598944,-0.507808 1.1132665,-1.1393178 1.5429688,-1.8945312 0.4426926,-0.7682226 0.7682131,-1.6666592 0.9765625,-2.6953126 l 0.3710937,-1.933594 -2.8125,0.136719 c -1.1849084,0.05209 -2.194022,0.182302 -3.0273437,0.390625 -0.8333433,0.208343 -1.5299572,0.501312 -2.0898438,0.878906 -0.5468831,0.364592 -0.97657017,0.8138107 -1.28906247,1.3476566 -0.31250708,0.5208405 -0.53386102,1.1132879 -0.6640625,1.7773437 -0.23438149,1.1979215 -0.0976629,2.0768268 0.41015625,2.6367188 0.52082568,0.5598986 1.29556452,0.8398462 2.32421872,0.8398437" />
    </g>
    <path
       sodipodi:nodetypes="ccccc"
       inkscape:connector-curvature="0"
       id="path12813"
       d="m 41.661017,-6.1016949 1.322034,1.7288135 0.915254,0.1016953 -0.915254,-1.898305 z"
       style="fill:#bebebe;fill-opacity:1;stroke:none" />
  </g>
</svg>
