<?xml version="1.0" encoding="iso-8859-1"?>
<!-- Generator: Adobe Illustrator 15.0.2, SVG Export Plug-In . SVG Version: 6.00 Build 0)  -->
<!DOCTYPE svg PUBLIC "-//W3C//DTD SVG 1.1//EN" "http://www.w3.org/Graphics/SVG/1.1/DTD/svg11.dtd">
<svg version="1.1" id="&#x5716;&#x5C64;_1" xmlns="http://www.w3.org/2000/svg" xmlns:xlink="http://www.w3.org/1999/xlink" x="0px"
	 y="0px" width="16px" height="16px" viewBox="0 0 32 32" style="enable-background:new 0 0 32 32;" xml:space="preserve">
<g>
	<g>
		<circle style="opacity:0.7;" cx="17.176" cy="16" r="11"/>
		<g>
			<defs>
				<circle id="SVGID_1_" cx="17.176" cy="16" r="11"/>
			</defs>
			<clipPath id="SVGID_2_">
				<use xlink:href="#SVGID_1_"  style="overflow:visible;"/>
			</clipPath>
			<g style="clip-path:url(#SVGID_2_);">
				<g>
					<path style="fill:none;stroke:#F7F8F8;stroke-miterlimit:10;" d="M27.43,9.313c-4.538-0.327-9.69-0.211-13.74,2.13
						c-1.137,0.657-2.328,1.499-3.253,2.434c-1.958,1.979-3.49,4.319-4.863,6.729"/>
				</g>
				<g>
					<path style="fill:none;stroke:#F7F8F8;stroke-miterlimit:10;" d="M10.729,7.21c-0.317,4.401-0.205,9.399,2.066,13.326
						c0.638,1.103,1.453,2.258,2.36,3.155c1.92,1.9,4.189,3.386,6.526,4.717"/>
				</g>
			</g>
		</g>
		<path d="M17.176,6.833c5.766,0,10.487,4.438,10.955,10.084c0.024-0.304,0.046-0.607,0.046-0.917c0-6.075-4.926-11-11.001-11
			c-6.074,0-11,4.925-11,11c0,0.31,0.021,0.613,0.046,0.917C6.688,11.271,11.411,6.833,17.176,6.833z"/>
	</g>
	<g>
		<rect x="16.741" y="13.396" style="fill:#FFFFFF;" width="3.303" height="3.303"/>
		<rect x="21.255" y="13.396" style="fill:#FFFFFF;" width="3.303" height="3.303"/>
		<rect x="21.255" y="17.8" style="fill:#FFFFFF;" width="3.303" height="3.303"/>
		<rect x="16.741" y="17.8" style="fill:#FFFFFF;" width="3.303" height="3.303"/>
	</g>
</g>
</svg>
