<?xml version="1.0" encoding="UTF-8" standalone="no"?>
<!-- Created with Inkscape (http://www.inkscape.org/) -->

<svg
   xmlns:dc="http://purl.org/dc/elements/1.1/"
   xmlns:cc="http://creativecommons.org/ns#"
   xmlns:rdf="http://www.w3.org/1999/02/22-rdf-syntax-ns#"
   xmlns:svg="http://www.w3.org/2000/svg"
   xmlns="http://www.w3.org/2000/svg"
   xmlns:xlink="http://www.w3.org/1999/xlink"
   xmlns:sodipodi="http://sodipodi.sourceforge.net/DTD/sodipodi-0.dtd"
   xmlns:inkscape="http://www.inkscape.org/namespaces/inkscape"
   id="svg7384"
   height="16"
   width="16"
   version="1.1"
   inkscape:version="0.48.3.1 r9886"
   sodipodi:docname="flickr-symbolic.svg">
  <defs
     id="defs8853">
    <linearGradient
       gradientUnits="userSpaceOnUse"
       xlink:href="#linearGradient3587-6-5"
       id="linearGradient3892"
       y2="6.0197244"
       x2="10.513089"
       y1="-4.7683716e-07"
       x1="10.513089" />
    <linearGradient
       id="linearGradient3587-6-5">
      <stop
         offset="0"
         style="stop-color:#000000;stop-opacity:1"
         id="stop3589-9-2" />
      <stop
         offset="1"
         style="stop-color:#363636;stop-opacity:1"
         id="stop3591-7-4" />
    </linearGradient>
    <linearGradient
       gradientTransform="matrix(0.3533407,0,0,0.3956899,-1.563877,-1.0885543)"
       gradientUnits="userSpaceOnUse"
       xlink:href="#linearGradient3587-6-5"
       id="linearGradient3827"
       y2="25.508486"
       x2="14.275004"
       y1="10.332723"
       x1="14.275004" />
    <linearGradient
       gradientUnits="userSpaceOnUse"
       xlink:href="#linearGradient3587-6-5"
       id="linearGradient3905"
       y2="43.075325"
       x2="11.339327"
       y1="24.238035"
       x1="11.339327" />
    <linearGradient
       gradientTransform="matrix(0.4203412,0,0,0.3897622,-2.2782225,-1.5648954)"
       gradientUnits="userSpaceOnUse"
       xlink:href="#linearGradient3587-6-5"
       id="linearGradient3894"
       y2="42.571205"
       x2="36.372101"
       y1="14.277668"
       x1="36.372101" />
    <linearGradient
       gradientTransform="translate(-24.542893,-2.6003598)"
       gradientUnits="userSpaceOnUse"
       xlink:href="#linearGradient3587-6-5-3"
       id="linearGradient3802"
       y2="38.396244"
       x2="31.878714"
       y1="13.696465"
       x1="31.878714" />
    <linearGradient
       id="linearGradient3587-6-5-3">
      <stop
         offset="0"
         style="stop-color:#000000;stop-opacity:1"
         id="stop3589-9-2-5" />
      <stop
         offset="1"
         style="stop-color:#363636;stop-opacity:1"
         id="stop3591-7-4-8" />
    </linearGradient>
    <linearGradient
       gradientTransform="matrix(0.3655063,0,0,0.3655063,-8.4465313,-1.0061434)"
       gradientUnits="userSpaceOnUse"
       xlink:href="#linearGradient3587-6-5-3"
       id="linearGradient3809"
       y2="38.358852"
       x2="29.105537"
       y1="13.696465"
       x1="29.105537" />
    <linearGradient
       gradientTransform="translate(-5.6409134,-2.8473895)"
       gradientUnits="userSpaceOnUse"
       xlink:href="#linearGradient3587-6-5-9"
       id="linearGradient3176"
       y2="17.854612"
       x2="9"
       y1="3.8454638"
       x1="9" />
    <linearGradient
       id="linearGradient3587-6-5-9">
      <stop
         offset="0"
         style="stop-color:#000000;stop-opacity:1"
         id="stop3589-9-2-57" />
      <stop
         offset="1"
         style="stop-color:#363636;stop-opacity:1"
         id="stop3591-7-4-6" />
    </linearGradient>
  </defs>
  <sodipodi:namedview
     pagecolor="#ffffff"
     bordercolor="#666666"
     borderopacity="1"
     objecttolerance="10"
     gridtolerance="10"
     guidetolerance="10"
     inkscape:pageopacity="0"
     inkscape:pageshadow="2"
     inkscape:window-width="1366"
     inkscape:window-height="711"
     id="namedview8851"
     showgrid="false"
     inkscape:zoom="14.75"
     inkscape:cx="4.1139772"
     inkscape:cy="-1.7405955"
     inkscape:window-x="0"
     inkscape:window-y="0"
     inkscape:window-maximized="1"
     inkscape:current-layer="svg7384" />
  <metadata
     id="metadata90">
    <rdf:RDF>
      <cc:Work
         rdf:about="">
        <dc:format>image/svg+xml</dc:format>
        <dc:type
           rdf:resource="http://purl.org/dc/dcmitype/StillImage" />
        <dc:title>Gnome Symbolic Icon Theme</dc:title>
      </cc:Work>
    </rdf:RDF>
  </metadata>
  <title
     id="title9167">Gnome Symbolic Icon Theme</title>
  <g
     id="g3959"
     transform="translate(5.0169491,-29.152543)">
    <path
       style="opacity:0.6;fill:#ffffff;fill-opacity:1;fill-rule:evenodd;stroke:none;stroke-width:1;marker:none;visibility:visible;display:inline;overflow:visible;enable-background:accumulate"
       id="path3180"
       d="m -2.1419491,30.923729 c -1.0341288,0 -1.875,0.840871 -1.875,1.875 l 0,10.25 c 0,1.034129 0.8408712,1.875 1.875,1.875 l 10.25,0 c 1.034129,0 1.875,-0.840871 1.875,-1.875 l 0,-10.25 c 0,-1.034129 -0.840871,-1.875 -1.875,-1.875 l -10.25,0 z m 4.59375,2.03125 c 0.1953154,-0.01307 0.3785928,-0.01155 0.59375,0 0.286876,0.01539 0.606058,0.06428 0.9375,0.09375 l 0,1.875 c -1,-0.297582 -1.51604,-0.257475 -1.71875,0 -0.202709,0.257475 -0.281253,0.506536 -0.28125,1 l 2,0 0,-0.5 c -9e-7,-0.95004 0.2807034,-1.306216 0.8125,-1.78125 0.71634,-0.629944 1.389371,-0.733683 2.25,-0.6875 0.286876,0.01539 0.606058,0.06428 0.9375,0.09375 l 0,1.875 c -1,-0.297582 -1.51604,-0.257475 -1.71875,0 -0.202709,0.257475 -0.281253,0.506536 -0.28125,1 l 2,0 0,2 -2,0 0,5 -2,0 0,-5 -2,0 0,5 -2,0 0,-5 -2,0 0,-2 2,0 0,-0.5 c 1e-7,-0.95004 0.280704,-1.306216 0.8125,-1.78125 0.5372558,-0.472458 1.0703039,-0.648278 1.65625,-0.6875 z"
       inkscape:connector-curvature="0" />
    <path
       style="fill:#999999;fill-opacity:1;fill-rule:evenodd;stroke:none;stroke-width:1;marker:none;visibility:visible;display:inline;overflow:visible;enable-background:accumulate"
       id="rect5505-3"
       d="m -2.1419491,29.923729 c -1.0341288,0 -1.875,0.840871 -1.875,1.875 l 0,10.25 c 0,1.034129 0.8408712,1.875 1.875,1.875 l 10.25,0 c 1.034129,0 1.875,-0.840871 1.875,-1.875 l 0,-10.25 c 0,-1.034129 -0.840871,-1.875 -1.875,-1.875 l -10.25,0 z m 4.59375,2.03125 c 0.1953154,-0.01307 0.3785928,-0.01155 0.59375,0 0.286876,0.01539 0.606058,0.06428 0.9375,0.09375 l 0,1.875 c -1,-0.297582 -1.51604,-0.257475 -1.71875,0 -0.202709,0.257475 -0.281253,0.506536 -0.28125,1 l 2,0 0,-0.5 c -9e-7,-0.95004 0.2807034,-1.306216 0.8125,-1.78125 0.71634,-0.629944 1.389371,-0.733683 2.25,-0.6875 0.286876,0.01539 0.606058,0.06428 0.9375,0.09375 l 0,1.875 c -1,-0.297582 -1.51604,-0.257475 -1.71875,0 -0.202709,0.257475 -0.281253,0.506536 -0.28125,1 l 2,0 0,2 -2,0 0,5 -2,0 0,-5 -2,0 0,5 -2,0 0,-5 -2,0 0,-2 2,0 0,-0.5 c 1e-7,-0.95004 0.280704,-1.306216 0.8125,-1.78125 0.5372558,-0.472458 1.0703039,-0.648278 1.65625,-0.6875 z"
       inkscape:connector-curvature="0" />
  </g>
</svg>
