<?xml version="1.0" encoding="UTF-8" standalone="no"?>
<!-- Created with Inkscape (http://www.inkscape.org/) -->

<svg
   xmlns:dc="http://purl.org/dc/elements/1.1/"
   xmlns:cc="http://creativecommons.org/ns#"
   xmlns:rdf="http://www.w3.org/1999/02/22-rdf-syntax-ns#"
   xmlns:svg="http://www.w3.org/2000/svg"
   xmlns="http://www.w3.org/2000/svg"
   xmlns:sodipodi="http://sodipodi.sourceforge.net/DTD/sodipodi-0.dtd"
   xmlns:inkscape="http://www.inkscape.org/namespaces/inkscape"
   width="16"
   height="16"
   viewBox="0 0 4.2333332 4.2333335"
   version="1.1"
   id="svg823"
   inkscape:version="0.92.2 (unknown)"
   sodipodi:docname="gnome-chess-symbolic.svg">
  <defs
     id="defs817" />
  <sodipodi:namedview
     id="base"
     pagecolor="#ffffff"
     bordercolor="#666666"
     borderopacity="1.0"
     inkscape:pageopacity="0.0"
     inkscape:pageshadow="2"
     inkscape:zoom="15.125"
     inkscape:cx="8.5984853"
     inkscape:cy="5.9116668"
     inkscape:document-units="mm"
     inkscape:current-layer="layer1"
     showgrid="false"
     units="px"
     inkscape:window-width="1366"
     inkscape:window-height="716"
     inkscape:window-x="0"
     inkscape:window-y="27"
     inkscape:window-maximized="1" />
  <metadata
     id="metadata820">
    <rdf:RDF>
      <cc:Work
         rdf:about="">
        <dc:format>image/svg+xml</dc:format>
        <dc:type
           rdf:resource="http://purl.org/dc/dcmitype/StillImage" />
        <dc:title></dc:title>
      </cc:Work>
    </rdf:RDF>
  </metadata>
  <g
     inkscape:label="Layer 1"
     inkscape:groupmode="layer"
     id="layer1"
     transform="translate(0,-292.76665)">
    <g
       id="g1381">
      <path
         id="path4230"
         d="m 1.4335561,292.87564 c 1.287e-4,8.1e-4 3.375e-4,0.001 4.86e-4,0.002 0.00504,0.0331 0.00926,0.0566 0.013744,0.0826 0.00251,0.0157 0.00553,0.0353 0.00774,0.0487 1.486e-4,9.4e-4 5.131e-4,0.002 8.371e-4,0.004 0.00166,0.0105 0.00285,0.019 0.00419,0.0281 8.775e-4,0.006 0.002,0.0132 0.00273,0.0191 2.97e-4,0.002 4.05e-4,0.005 7.02e-4,0.007 7.155e-4,0.007 0.00101,0.0125 0.00146,0.0186 4.456e-4,0.007 0.00131,0.014 0.00139,0.0205 3.08e-5,10e-4 -2.159e-4,0.004 -2.159e-4,0.005 -1.52e-5,0.008 -6.616e-4,0.0159 -0.00132,0.0236 -3.376e-4,0.004 -3.106e-4,0.007 -7.021e-4,0.009 -9.28e-5,8.1e-4 4.28e-5,10e-4 0,0.002 -9.18e-4,0.007 -0.00301,0.0139 -0.00454,0.0209 -0.00136,0.006 -0.00264,0.0119 -0.00454,0.0182 -9.45e-4,0.004 -0.00197,0.007 -0.00292,0.009 -7.426e-4,0.002 -0.00185,0.005 -0.00266,0.007 -0.039262,0.007 -0.073609,0.012 -0.1213217,0.0209 -0.3265936,0.11915 -0.37514256,0.39077 -0.44663716,0.56831 -0.10786301,0.26785 -0.0907068,0.29299 -0.28868853,0.46993 -0.0740013,0.1478 -0.0504453,0.27754 0.040115,0.27704 0.018372,6.8e-4 0.0337919,0.005 0.0471613,0.009 l -0.004604,-0.004 c 0,0 0.13619968,-0.0546 0.17643626,-0.12237 0.0402361,-0.0677 0.0444401,0.0212 0.0444401,0.0212 -0.0310023,0.10703 -0.14601819,0.12885 -0.14246056,0.16018 0.0381403,0.0366 0.0776099,0.0629 0.19750534,-0.006 0.17126285,-0.15162 0.35588815,-0.28055 0.52303015,-0.30292 0.1098626,-0.0147 0.1789235,-0.0435 0.2485735,-0.19806 0.1231952,-0.0687 0.2155451,0.43462 0.066068,0.57996 -0.3030834,0.43732 -0.3638259,0.61244 -0.3638259,1.04606 0,0.005 9.991e-4,0.0105 0.00132,0.0156 -0.00367,0.0122 -0.00516,0.0237 -0.00516,0.0363 0,0.085 0.087005,0.16196 0.2304345,0.22137 0.015061,0.006 0.030331,0.0136 0.046603,0.0194 0.1503834,0.059 0.3480696,0.0909 0.5527499,0.0958 0.00474,1.1e-4 0.00956,-9e-5 0.014302,0 0.02932,9.4e-4 0.059256,0.001 0.0893,0.001 0.5155187,0 0.9333894,-0.15135 0.9333893,-0.33787 0,-0.006 -4.456e-4,-0.0117 -0.00125,-0.0168 0.00815,-0.0219 0.012875,-0.0447 0.014232,-0.0686 0.044801,-0.77696 -0.3362031,-2.39581 -1.369701,-2.53227 -0.020386,0 -0.038931,6.7e-4 -0.058114,9.4e-4 -0.00473,-0.0105 -0.00944,-0.0207 -0.014651,-0.0304 -0.00281,-0.005 -0.00599,-0.0105 -0.00893,-0.0153 -0.00532,-0.009 -0.010527,-0.0187 -0.016325,-0.0276 -0.00421,-0.007 -0.00898,-0.0129 -0.013463,-0.0192 -0.00504,-0.007 -0.00988,-0.0145 -0.015278,-0.0215 -0.0056,-0.007 -0.011795,-0.0145 -0.01779,-0.0218 -0.00496,-0.006 -0.00969,-0.012 -0.01493,-0.0179 -0.00642,-0.007 -0.0135,-0.0146 -0.020372,-0.0219 -0.00563,-0.006 -0.011089,-0.0119 -0.017023,-0.0179 -0.00669,-0.007 -0.013975,-0.0136 -0.021069,-0.0203 -0.00696,-0.007 -0.013775,-0.0135 -0.021139,-0.0201 -0.00613,-0.006 -0.01277,-0.0117 -0.019186,-0.0172 -0.00714,-0.006 -0.013841,-0.0126 -0.021349,-0.0191 -0.00204,-0.002 -0.00409,-0.004 -0.00614,-0.005 -8.236e-4,-6.7e-4 -0.00154,-10e-4 -0.00237,-0.002 -0.00107,-10e-4 -0.00195,-0.002 -0.00313,-0.004 1.286e-4,8.1e-4 3.376e-4,0.001 4.86e-4,0.002 0.00504,0.0331 0.00926,0.0566 0.013743,0.0826 0.00251,0.0157 0.00553,0.0353 0.00774,0.0487 1.484e-4,9.5e-4 5.129e-4,0.002 8.369e-4,0.004 0.00166,0.0105 0.00285,0.0189 0.00419,0.0281 8.775e-4,0.006 0.002,0.0132 0.00273,0.0191 2.97e-4,0.002 4.049e-4,0.005 7.019e-4,0.007 7.157e-4,0.007 0.00101,0.0125 0.00146,0.0186 4.59e-4,0.007 0.00131,0.014 0.00139,0.0206 2.38e-5,0.001 -2.16e-4,0.002 -2.16e-4,0.004 1.04e-5,0.008 -6.345e-4,0.0165 -0.00132,0.0247 -3.376e-4,0.004 -3.106e-4,0.007 -7.021e-4,0.009 -9.28e-5,8.1e-4 4.28e-5,10e-4 0,0.002 -6.21e-4,0.005 -0.00216,0.009 -0.00306,0.0143 -0.00533,-0.0117 -0.010691,-0.0234 -0.016604,-0.0345 -0.00281,-0.006 -0.00599,-0.0105 -0.00893,-0.0153 -0.00532,-0.009 -0.010528,-0.0187 -0.016325,-0.0276 -0.00421,-0.007 -0.00898,-0.0129 -0.013465,-0.0192 -0.00504,-0.007 -0.00988,-0.0145 -0.015277,-0.0215 -0.00575,-0.007 -0.012166,-0.015 -0.018348,-0.0223 -0.0048,-0.006 -0.00938,-0.0117 -0.014441,-0.0173 -0.00625,-0.007 -0.013083,-0.0142 -0.019744,-0.0212 -0.00584,-0.006 -0.011487,-0.0124 -0.017651,-0.0186 -0.00667,-0.007 -0.013928,-0.0136 -0.020999,-0.0204 -0.00696,-0.007 -0.013775,-0.0134 -0.021139,-0.0201 -0.00613,-0.006 -0.01277,-0.0117 -0.019186,-0.0172 -0.00715,-0.006 -0.013841,-0.0126 -0.021349,-0.0191 -0.00204,-0.002 -0.00409,-0.004 -0.00614,-0.005 -8.235e-4,-6.7e-4 -0.00154,-10e-4 -0.00237,-0.002 -0.00107,-10e-4 -0.00195,-0.002 -0.00313,-0.004 z m -0.1388328,0.72996 c -0.029128,0.0739 -0.017675,0.11323 -0.067812,0.16932 -0.058565,0.0526 -0.09968,0.031 -0.1526464,0.0286 0.035178,-0.063 0.00319,-0.10153 0.055045,-0.16199 0.060089,-0.0406 0.1254293,-0.0177 0.1654134,-0.0359 z m -0.63786368,0.69639 a 0.06353135,0.06353135 0 0 1 0.0635562,0.0635 0.06353135,0.06353135 0 0 1 -0.0635562,0.0635 0.06353135,0.06353135 0 0 1 -0.0634864,-0.0635 0.06353135,0.06353135 0 0 1 0.0634864,-0.0635 z"
         style="fill:#bebebe;fill-opacity:1;fill-rule:evenodd;stroke:none;stroke-width:0.04142774px;stroke-linecap:butt;stroke-linejoin:miter;stroke-opacity:1"
         inkscape:connector-curvature="0" />
      <path
         id="path2160"
         d="m 1.1878429,295.85888 a 1.3286731,0.69861318 0 0 0 -0.1612275,0.33348 1.3286731,0.69861318 0 0 0 1.328679,0.69863 1.3286731,0.69861318 0 0 0 1.3286789,-0.69863 1.3286731,0.69861318 0 0 0 -0.1609484,-0.33188 1.1985081,0.57365895 0 0 1 0.030766,0.12592 1.1985081,0.57365895 0 0 1 -1.1984971,0.57368 1.1985081,0.57365895 0 0 1 -1.198497,-0.57368 1.1985081,0.57365895 0 0 1 0.031046,-0.12752 z"
         style="fill:#bebebe;fill-opacity:1;stroke:none;stroke-width:0.06137563;stroke-linecap:round;stroke-linejoin:round;stroke-miterlimit:4;stroke-dasharray:none;stroke-opacity:1"
         inkscape:connector-curvature="0" />
      <path
         id="path3141"
         d="m 3.1318513,295.58387 a 0.96535572,0.36686711 0 0 1 0.1887847,0.21717 0.96535572,0.36686711 0 0 1 -0.9653416,0.36689 0.96535572,0.36686711 0 0 1 -0.9653417,-0.36689 0.96535572,0.36686711 0 0 1 0.1654134,-0.20511 1.0801256,0.48888968 0 0 0 -0.2801772,0.3277 1.0801256,0.48888968 0 0 0 1.0801055,0.48883 1.0801256,0.48888968 0 0 0 1.0801054,-0.48883 1.0801256,0.48888968 0 0 0 -0.3035485,-0.33976 z"
         style="fill:#bebebe;fill-opacity:1;stroke:none;stroke-width:0.04629254;stroke-linecap:round;stroke-linejoin:round;stroke-miterlimit:4;stroke-dasharray:none;stroke-opacity:1"
         inkscape:connector-curvature="0" />
    </g>
  </g>
</svg>
