<?xml version="1.0" encoding="UTF-8" standalone="no"?>
<!-- Created with Inkscape (http://www.inkscape.org/) -->

<svg
   xmlns:osb="http://www.openswatchbook.org/uri/2009/osb"
   xmlns:dc="http://purl.org/dc/elements/1.1/"
   xmlns:cc="http://creativecommons.org/ns#"
   xmlns:rdf="http://www.w3.org/1999/02/22-rdf-syntax-ns#"
   xmlns:svg="http://www.w3.org/2000/svg"
   xmlns="http://www.w3.org/2000/svg"
   xmlns:sodipodi="http://sodipodi.sourceforge.net/DTD/sodipodi-0.dtd"
   xmlns:inkscape="http://www.inkscape.org/namespaces/inkscape"
   sodipodi:docname="gnome-tweak-tool-symbolic.svg"
   height="16"
   id="svg7384"
   version="1.1"
   inkscape:version="0.92.2 (unknown)"
   width="16.000002">
  <metadata
     id="metadata90">
    <rdf:RDF>
      <cc:Work
         rdf:about="">
        <dc:format>image/svg+xml</dc:format>
        <dc:type
           rdf:resource="http://purl.org/dc/dcmitype/StillImage" />
        <dc:title>Gnome Symbolic Icon Theme</dc:title>
      </cc:Work>
    </rdf:RDF>
  </metadata>
  <sodipodi:namedview
     inkscape:bbox-paths="true"
     bordercolor="#666666"
     borderopacity="1"
     inkscape:current-layer="layer9"
     inkscape:cx="-28.465749"
     inkscape:cy="-2.5045241"
     gridtolerance="10"
     inkscape:guide-bbox="true"
     guidetolerance="10"
     id="namedview88"
     inkscape:object-nodes="false"
     inkscape:object-paths="false"
     objecttolerance="10"
     pagecolor="#ffffff"
     inkscape:pageopacity="0"
     inkscape:pageshadow="2"
     showborder="false"
     showgrid="false"
     showguides="true"
     inkscape:snap-bbox="true"
     inkscape:snap-bbox-midpoints="false"
     inkscape:snap-global="true"
     inkscape:snap-grids="true"
     inkscape:snap-nodes="true"
     inkscape:snap-others="false"
     inkscape:snap-to-guides="true"
     inkscape:window-height="716"
     inkscape:window-maximized="1"
     inkscape:window-width="1366"
     inkscape:window-x="0"
     inkscape:window-y="27"
     inkscape:zoom="8">
    <inkscape:grid
       empspacing="2"
       enabled="true"
       id="grid4866"
       originx="-222"
       originy="-362"
       snapvisiblegridlinesonly="true"
       spacingx="1"
       spacingy="1"
       type="xygrid"
       visible="true" />
  </sodipodi:namedview>
  <title
     id="title9167">Gnome Symbolic Icon Theme</title>
  <defs
     id="defs7386">
    <linearGradient
       id="linearGradient7212"
       osb:paint="solid">
      <stop
         id="stop7214"
         offset="0"
         style="stop-color:#000000;stop-opacity:1;" />
    </linearGradient>
  </defs>
  <g
     inkscape:groupmode="layer"
     id="layer9"
     inkscape:label="apps"
     style="display:inline"
     transform="translate(-463.0002,145)">
    <path
       inkscape:connector-curvature="0"
       d="m 464.96895,-144.96875 c -1.08949,0 -1.96875,0.87926 -1.96875,1.96875 v 12 c 0,1.08949 0.87926,1.96875 1.96875,1.96875 h 12.0625 c 1.08949,0 1.96875,-0.87926 1.96875,-1.96875 v -12 c 0,-1.08949 -0.87926,-1.96875 -1.96875,-1.96875 z m 0,1 h 12.0625 c 0.55278,0 0.96875,0.41597 0.96875,0.96875 v 11.03125 c 0,0.55278 -0.41597,0.96875 -0.96875,0.96875 h -12.0625 c -0.55278,0 -0.96875,-0.41597 -0.96875,-0.96875 V -143 c 0,-0.60207 0.35439,-0.96875 0.96875,-0.96875 z m 3.0312,4.96875 v 1 h -1 c -0.54535,0 -1,0.45465 -1,1 v 1 c 0,0.54535 0.45465,1 1,1 h 0.1875 0.8125 1 0.65625 0.34375 c 0.54535,0 1,-0.45465 1,-1 v -1 c 0,-0.54535 -0.45465,-1 -1,-1 h -1 v -1 z m 6,-3 c -1.65093,0 -3,1.34907 -3,3 0,1.65093 1.34907,3 3,3 1.65093,0 3,-1.34907 3,-3 0,-1.65093 -1.34907,-3 -3,-3 z m 0,1 c 1.11049,0 2,0.88951 2,2 0,1.11049 -0.88951,2 -2,2 -1.11049,0 -2,-0.88951 -2,-2 0,-1.11049 0.88951,-2 2,-2 z m -7,4 h 3 v 1 h -3 z m 1,3 v 2 h 1 v -2 z"
       id="rect6038-5-6"
       inkscape:label="gnome-tweak-tool"
       style="color:#000000;font-style:normal;font-variant:normal;font-weight:normal;font-stretch:normal;font-size:medium;line-height:normal;font-family:Sans;-inkscape-font-specification:Sans;text-indent:0;text-align:start;text-decoration:none;text-decoration-line:none;letter-spacing:normal;word-spacing:normal;text-transform:none;writing-mode:lr-tb;direction:ltr;baseline-shift:baseline;text-anchor:start;display:inline;overflow:visible;visibility:visible;fill:#bebebe;fill-opacity:1;stroke:none;stroke-width:1;marker:none;enable-background:accumulate"
       sodipodi:nodetypes="ssssssssssssssssssccssssccccsssscccssssssssssccccczcccz" />
  </g>
</svg>
