<?xml version="1.0" encoding="UTF-8" standalone="no"?>
<!-- Created with Inkscape (http://www.inkscape.org/) -->

<svg
   xmlns:dc="http://purl.org/dc/elements/1.1/"
   xmlns:cc="http://creativecommons.org/ns#"
   xmlns:rdf="http://www.w3.org/1999/02/22-rdf-syntax-ns#"
   xmlns:svg="http://www.w3.org/2000/svg"
   xmlns="http://www.w3.org/2000/svg"
   xmlns:sodipodi="http://sodipodi.sourceforge.net/DTD/sodipodi-0.dtd"
   xmlns:inkscape="http://www.inkscape.org/namespaces/inkscape"
   id="svg7384"
   height="16"
   width="16"
   version="1.1"
   inkscape:version="0.48.3.1 r9886"
   sodipodi:docname="preferences-desktop-accessibility-symbolic.svg">
  <defs
     id="defs6496" />
  <sodipodi:namedview
     pagecolor="#ffffff"
     bordercolor="#666666"
     borderopacity="1"
     objecttolerance="10"
     gridtolerance="10"
     guidetolerance="10"
     inkscape:pageopacity="0"
     inkscape:pageshadow="2"
     inkscape:window-width="1366"
     inkscape:window-height="714"
     id="namedview6494"
     showgrid="false"
     showguides="true"
     inkscape:guide-bbox="true"
     inkscape:zoom="20.85965"
     inkscape:cx="20.688307"
     inkscape:cy="10.81289"
     inkscape:window-x="0"
     inkscape:window-y="22"
     inkscape:window-maximized="1"
     inkscape:current-layer="svg7384" />
  <title
     id="title9167">Gnome Symbolic Icon Theme</title>
  <metadata
     id="metadata90">
    <rdf:RDF>
      <cc:Work
         rdf:about="">
        <dc:format>image/svg+xml</dc:format>
        <dc:type
           rdf:resource="http://purl.org/dc/dcmitype/StillImage" />
        <dc:title>Gnome Symbolic Icon Theme</dc:title>
      </cc:Work>
    </rdf:RDF>
  </metadata>
  <path
     style="fill:#bebebe"
     d="M 8 0 C 3.5817 0 0 3.5817 0 8 C 0 12.4183 3.5817 16 8 16 C 12.4183 16 16 12.4183 16 8 C 16 3.5817 12.4183 0 8 0 z M 7.6875 1.5625 C 7.8646271 1.526256 7.961589 1.5625 8 1.5625 C 8.8785965 1.5625 9.625 2.2664458 9.625 3.15625 C 9.625 3.7991878 9.2348062 4.3638795 8.6875 4.625 L 12.59375 4.625 A 0.3703657 0.3703657 0 0 1 12.96875 5 L 12.96875 5.9375 A 0.3703657 0.3703657 0 0 1 12.59375 6.3125 L 9.75 6.3125 L 9.75 14.09375 A 0.3703657 0.3703657 0 0 1 9.375 14.46875 L 8.65625 14.46875 A 0.3703657 0.3703657 0 0 1 8.28125 14.09375 L 8.28125 9.40625 L 7.71875 9.40625 L 7.71875 14.09375 A 0.3703657 0.3703657 0 0 1 7.34375 14.46875 L 6.625 14.46875 A 0.3703657 0.3703657 0 0 1 6.25 14.09375 L 6.25 6.3125 L 3.40625 6.3125 A 0.3703657 0.3703657 0 0 1 3.03125 5.9375 L 3.03125 5 A 0.3703657 0.3703657 0 0 1 3.40625 4.625 L 7.3125 4.625 C 6.7651938 4.3638795 6.375 3.7991878 6.375 3.15625 C 6.375 2.3768368 6.9512124 1.7131662 7.6875 1.5625 z "
     id="path3850" />
</svg>
