<?xml version="1.0" encoding="UTF-8" standalone="no"?>
<!-- Created with Inkscape (http://www.inkscape.org/) -->

<svg
   xmlns:dc="http://purl.org/dc/elements/1.1/"
   xmlns:cc="http://creativecommons.org/ns#"
   xmlns:rdf="http://www.w3.org/1999/02/22-rdf-syntax-ns#"
   xmlns:svg="http://www.w3.org/2000/svg"
   xmlns="http://www.w3.org/2000/svg"
   xmlns:sodipodi="http://sodipodi.sourceforge.net/DTD/sodipodi-0.dtd"
   xmlns:inkscape="http://www.inkscape.org/namespaces/inkscape"
   id="svg7384"
   height="16"
   width="16"
   version="1.1"
   inkscape:version="0.48.3.1 r9886"
   sodipodi:docname="preferences-desktop-keyboard-shortcuts-symbolic.svg">
  <defs
     id="defs11" />
  <sodipodi:namedview
     pagecolor="#ffffff"
     bordercolor="#666666"
     borderopacity="1"
     objecttolerance="10"
     gridtolerance="10"
     guidetolerance="10"
     inkscape:pageopacity="0"
     inkscape:pageshadow="2"
     inkscape:window-width="1366"
     inkscape:window-height="696"
     id="namedview9"
     showgrid="false"
     inkscape:zoom="14.75"
     inkscape:cx="9.7942963"
     inkscape:cy="11.676724"
     inkscape:window-x="0"
     inkscape:window-y="0"
     inkscape:window-maximized="1"
     inkscape:current-layer="svg7384" />
  <metadata
     id="metadata90">
    <rdf:RDF>
      <cc:Work
         rdf:about="">
        <dc:format>image/svg+xml</dc:format>
        <dc:type
           rdf:resource="http://purl.org/dc/dcmitype/StillImage" />
        <dc:title>Gnome Symbolic Icon Theme</dc:title>
      </cc:Work>
    </rdf:RDF>
  </metadata>
  <title
     id="title9167">Gnome Symbolic Icon Theme</title>
  <path
     inkscape:connector-curvature="0"
     d="m 5.5909202,1.4491525 c -0.83194,0 -1.5017,0.6690001 -1.5017,1.5000001 v 4 c 0,0.831 0.66976,1.5 1.5016999,1.5 h 4.0046 c 0.8319499,0 1.5016999,-0.669 1.5016999,-1.5 v -4 c 0,-0.831 -0.66976,-1.5000001 -1.5016999,-1.5000001 z m 0.0626,1.0000001 c 1.2931,0.1279 2.5863,0.12207 3.8794,0 0.3019699,-0.0285 0.5631398,0.25953 0.5631398,0.5625 v 2.875 c 0,0.30297 -0.2620799,0.52562 -0.5631398,0.5625 -1.2547,0.1537 -2.5415001,0.17922 -3.8794001,0 -0.30063,-0.0403 -0.56314,-0.25953 -0.56314,-0.5625 v -2.875 c 0,-0.30297 0.2613001,-0.59235 0.56314,-0.5625 z"
     style="color:#000000;fill:#bebebe"
     id="rect5333-9-8" />
  <path
     inkscape:connector-curvature="0"
     d="m 2.4672758,7.8728814 c -0.83194,0 -1.5016999,0.669 -1.5016999,1.5 v 3.0000006 c 0,0.831 0.6697599,1.5 1.5016999,1.5 h 4.0046 c 0.83195,0 1.5017,-0.669 1.5017,-1.5 V 9.3728814 c 0,-0.831 -0.66976,-1.5 -1.5017,-1.5 z m 0.0626,1 c 1.692,0.19941 2.848,0.13085 3.8794,0 0.3009,-0.0382 0.56314,0.25953 0.56314,0.5625 v 2.8750006 c 0,0.30297 -0.26231,0.5238 -0.56314,0.5625 -1.215,0.1563 -2.4979,0.17677 -3.8794,0 -0.30087,-0.0385 -0.56314,-0.25953 -0.56314,-0.5625 V 9.4353814 c 0,-0.30297 0.2619,-0.598 0.56314,-0.5625 z"
     style="color:#000000;fill:#bebebe"
     id="path11636" />
  <path
     id="path3013"
     style="color:#000000;fill:#bebebe"
     d="m 9.5281234,7.5508475 c -0.83194,0 -1.5017,0.669 -1.5017,1.5 v 4.0000005 c 0,0.830999 0.66976,1.5 1.5017,1.5 h 4.0046006 c 0.83195,0 1.5017,-0.669001 1.5017,-1.5 V 9.0508475 c 0,-0.831 -0.66976,-1.5 -1.5017,-1.5 z m 0.0626,1 c 1.2931006,0.1279 2.5863006,0.12207 3.8794006,0 0.30197,-0.0285 0.56314,0.25953 0.56314,0.5625 v 2.8750005 c 0,0.30297 -0.26208,0.52562 -0.56314,0.5625 -1.2547,0.1537 -2.5415,0.17922 -3.8794006,0 -0.30063,-0.0403 -0.56314,-0.25953 -0.56314,-0.5625 V 9.1133475 c 0,-0.30297 0.2613,-0.59235 0.56314,-0.5625 z"
     inkscape:connector-curvature="0" />
</svg>
