<?xml version="1.0" encoding="UTF-8" standalone="no"?>
<!-- Created with Inkscape (http://www.inkscape.org/) -->

<svg
   xmlns:dc="http://purl.org/dc/elements/1.1/"
   xmlns:cc="http://creativecommons.org/ns#"
   xmlns:rdf="http://www.w3.org/1999/02/22-rdf-syntax-ns#"
   xmlns:svg="http://www.w3.org/2000/svg"
   xmlns="http://www.w3.org/2000/svg"
   xmlns:sodipodi="http://sodipodi.sourceforge.net/DTD/sodipodi-0.dtd"
   xmlns:inkscape="http://www.inkscape.org/namespaces/inkscape"
   width="16px"
   height="16px"
   id="svg13294"
   version="1.1"
   inkscape:version="0.92.2 (unknown)"
   sodipodi:docname="preferences-desktop-screensaver-symbolic.svg">
  <defs
     id="defs13296" />
  <sodipodi:namedview
     id="base"
     pagecolor="#ffffff"
     bordercolor="#666666"
     borderopacity="1.0"
     inkscape:pageopacity="0.0"
     inkscape:pageshadow="2"
     inkscape:zoom="8.0000005"
     inkscape:cx="-19.176783"
     inkscape:cy="-4.4062954"
     inkscape:current-layer="layer1"
     showgrid="true"
     inkscape:grid-bbox="true"
     inkscape:document-units="px"
     inkscape:window-width="1366"
     inkscape:window-height="716"
     inkscape:window-x="0"
     inkscape:window-y="27"
     inkscape:window-maximized="1"
     inkscape:snap-global="false" />
  <metadata
     id="metadata13299">
    <rdf:RDF>
      <cc:Work
         rdf:about="">
        <dc:format>image/svg+xml</dc:format>
        <dc:type
           rdf:resource="http://purl.org/dc/dcmitype/StillImage" />
        <dc:title></dc:title>
      </cc:Work>
    </rdf:RDF>
  </metadata>
  <g
     id="layer1"
     inkscape:label="Layer 1"
     inkscape:groupmode="layer">
    <path
       style="fill:#bebebe;fill-opacity:1"
       d="m 1.21875,0.531132 c -0.588625,0 -1.0625,0.362375 -1.0625,0.8125 v 9.875 c 0,0.450125 0.473875,0.8125 1.0625,0.8125 h 13.5625 c 0.588625,0 1.0625,-0.362375 1.0625,-0.8125 v -9.875 c 0,-0.450125 -0.473875,-0.8125 -1.0625,-0.8125 z M 1.20508,1.5526164 H 14.794922 V 11.009648 H 1.205078 Z"
       id="rect3884"
       inkscape:connector-curvature="0" />
    <path
       style="fill:#bebebe;fill-opacity:1;fill-rule:evenodd;stroke:none"
       d="m 6.7956495,12.406377 c -0.023997,0.115008 -0.053752,0.206559 -0.090326,0.249472 -0.1625761,0.19076 -0.5772213,0.271722 -0.9075642,0.305389 -0.9866391,0.100558 -1.9441662,0.630833 -1.9441662,1.135531 0,0.902983 2.3334774,1.372099 4.1464076,1.372099 1.8025892,0 4.1464063,-0.469116 4.1464063,-1.372099 0,-0.525377 -0.961828,-1.034978 -1.948468,-1.135531 -0.3303417,-0.03367 -0.7573314,-0.104762 -0.9075619,-0.305389 -0.035521,-0.04744 -0.062555,-0.137477 -0.08603,-0.249472 z"
       id="path3435"
       inkscape:connector-curvature="0"
       sodipodi:nodetypes="cssssssscc" />
    <path
       inkscape:connector-curvature="0"
       id="path5549"
       style="color:#bebebe;fill:#bebebe;stroke-width:0.75"
       d="m 7.9578452,2.375004 c 0.46476,0.56316 0.74661,1.28295 0.74661,2.07015 0,1.79925 -1.4586,3.257925 -3.257925,3.257925 -0.7872001,0 -1.5069751,-0.2818425 -2.0701501,-0.7466025 0.3939375,1.679175 1.899825,2.9185498 3.6990751,2.9185498 2.099175,0 3.8009248,-1.7017498 3.8009248,-3.8009248 0,-1.799325 -1.2393749,-3.305175 -2.9185498,-3.699075 z" />
  </g>
</svg>
