<?xml version="1.0" encoding="UTF-8" standalone="no"?>
<!-- Created with Inkscape (http://www.inkscape.org/) -->

<svg
   xmlns:dc="http://purl.org/dc/elements/1.1/"
   xmlns:cc="http://creativecommons.org/ns#"
   xmlns:rdf="http://www.w3.org/1999/02/22-rdf-syntax-ns#"
   xmlns:svg="http://www.w3.org/2000/svg"
   xmlns="http://www.w3.org/2000/svg"
   xmlns:sodipodi="http://sodipodi.sourceforge.net/DTD/sodipodi-0.dtd"
   xmlns:inkscape="http://www.inkscape.org/namespaces/inkscape"
   id="svg2827"
   height="16px"
   width="16px"
   version="1.1"
   inkscape:version="0.48.4 r9939"
   sodipodi:docname="preferences-system-privacy-symbolic.svgz">
  <defs
     id="defs11" />
  <sodipodi:namedview
     pagecolor="#ffffff"
     bordercolor="#666666"
     borderopacity="1"
     objecttolerance="10"
     gridtolerance="10"
     guidetolerance="10"
     inkscape:pageopacity="0"
     inkscape:pageshadow="2"
     inkscape:window-width="1364"
     inkscape:window-height="703"
     id="namedview9"
     showgrid="false"
     inkscape:zoom="16.769035"
     inkscape:cx="13.387206"
     inkscape:cy="0.9378529"
     inkscape:window-x="0"
     inkscape:window-y="0"
     inkscape:window-maximized="1"
     inkscape:current-layer="svg2827" />
  <metadata
     id="metadata2832">
    <rdf:RDF>
      <cc:Work
         rdf:about="">
        <dc:format>image/svg+xml</dc:format>
        <dc:type
           rdf:resource="http://purl.org/dc/dcmitype/StillImage" />
        <dc:title></dc:title>
      </cc:Work>
    </rdf:RDF>
  </metadata>
  <g
     id="g7198"
     transform="matrix(0.12764382,0,0,0.12764382,8.7096131,5.6115458)"
     style="fill:#bebebe;fill-opacity:1">
    <path
       id="path5832"
       d="m -40.543697,1.4359437 c -0.621939,0.03776 -1.062621,0.145245 -1.15625,0.5 -1.756402,4.308809 -4.087214,7.725347 -5.4375,12.7500003 0.494709,-0.697829 1.275875,-1.185909 2.15625,-1.0625 26.275197,3.683188 52.568553,3.101084 78.84375,0 0.8786,-0.103693 1.63064,0.376493 2.125,1.0625 -1.34684,-5.0232903 -3.58766,-8.4418983 -5.34375,-12.7500003 -0.0936,-0.354755 -0.596814,-0.462232 -1.21875,-0.5 -9.759366,0 -19.459391,0.5 -29.21875003,0.5 l -5.03124997,-0.15625 0,-0.0625 -0.75,0.03125 -0.75,-0.03125 0,0.0625 -5.03125,0.15625 c -9.75936,0 -19.42814,-0.5 -29.1875,-0.5 z m -4.96875,15.8750003 c -1.226806,0.14305 -2.15625,1.327326 -2.15625,2.5625 l 0,53.75 c 0,1.41163 1.197474,2.42414 2.6875,2.5625 26.713697,2.48057 52.979207,2.32305 78.84375,0 1.49048,-0.13386 2.6875,-1.15087 2.6875,-2.5625 l 0,-53.75 c 0,-1.411628 -1.20058,-2.727957 -2.6875,-2.5625 -26.275199,2.923773 -52.568552,3.472592 -78.84375,0 -0.185342,-0.0245 -0.355992,-0.02044 -0.53125,0 z m 39.9375,7.34375 c 12.477986,0 22.59375,10.115764 22.59375,22.59375 0,12.47799 -10.115764,22.59375 -22.59375,22.59375 -12.477986,0 -22.59375,-10.11576 -22.59375,-22.59375 0,-12.477986 10.115764,-22.59375 22.59375,-22.59375 z"
       style="fill:#bebebe;fill-opacity:1;stroke:none"
       inkscape:connector-curvature="0" />
    <path
       id="path5840"
       d="m -5.637447,-40.564056 c -2.173386,0 -4.138982,0.231493 -5.6875,0.59375 -1.319053,0.202587 -2.615554,0.446362 -3.90625,0.78125 -2.587807,0.77511 -5.938608,2.458907 -8,4.03125 -1.089515,0.831038 -2.324217,1.8782 -3.53125,3 -0.817153,0.343857 -1.663579,1.03236 -2.34375,1.96875 -0.235705,0.324495 -0.398168,0.665432 -0.5625,1 -0.666017,0.762559 -1.266648,1.487446 -1.71875,2.1875 -1.076004,1.666139 -2.174046,3.820101 -3.0625,5.9375 -0.0065,0.01243 -0.02479,0.01882 -0.03125,0.03125 -0.0511,0.122142 -0.106724,0.253082 -0.15625,0.375 -0.646645,1.284271 -1.201728,2.555475 -1.46875,3.6875 -1.797643,7.6210977 -1.75,25.3437497 -1.75,25.3437497 0.289698,0.07444 0.563258,0.12474 0.84375,0.1875 5.15e-4,0.01506 -4.21e-4,0.112473 0,0.125 2.975957,0.401535 5.740331,0.956132 10.5625,-0.0625 -2.93e-4,-0.0144 2.92e-4,-0.04785 0,-0.0625 0.322385,-0.0603 0.643712,-0.09102 0.96875,-0.15625 -0.07656,-2.86946 -0.25293,-14.080533 0.1875,-19.7187497 0.569926,-9.317083 6.753275,-19.414474 19.65625,-19.4375 12.420027,0.753885 20.313479,8.120705 20.25,19.21875 0.519262,6.4440867 -0.01368,16.7494647 -0.15625,19.7499997 0.202224,0.0504 0.434197,0.10454 0.65625,0.15625 -0.0025,0.04595 0.0023,0.143648 0,0.1875 1.119578,0.197956 2.407168,0.366288 3.84375,0.4375 2.037206,0.193948 4.309668,0.162399 6.5625,-0.46875 0.105869,-0.02135 0.205707,-0.03964 0.3125,-0.0625 1.08e-4,-0.0032 -1.17e-4,-0.02787 0,-0.03125 0.317401,-0.09673 0.622871,-0.190809 0.9375,-0.3125 0,0 0.04764,-17.691402 -1.75,-25.3124997 -0.78007,-3.307061 -2.864747,-7.018278 -4.75,-9.9375 -0.494023,-0.764969 -1.224472,-1.597081 -2.0625,-2.4375 -1.844657,-2.04451 -4.189167,-4.14101 -6.09375,-5.59375 -2.061391,-1.572343 -5.412195,-3.25614 -8,-4.03125 -1.558094,-0.421344 -3.15294303,-0.728527 -4.75000003,-0.9375 -1.42532997,-0.270298 -3.15041697,-0.4375 -4.99999997,-0.4375 z"
       style="fill:#bebebe;fill-opacity:1;fill-rule:evenodd;stroke:none"
       inkscape:connector-curvature="0" />
    <path
       style="opacity:0.77272728000000002;fill:#bebebe;fill-opacity:1;stroke:none"
       d="m -6.10363,25.972811 0,7.059812 c 0.178999,-0.0067 0.347798,-0.02113 0.528429,-0.02113 0.182483,0 0.368749,0.01433 0.549566,0.02113 l 0,-7.038674 c -0.182511,-0.0046 -0.365939,-0.02113 -0.549566,-0.02113 -0.179892,0 -0.349607,-0.0044 -0.528429,0 z m -4.438803,0.591841 c -0.177486,0.0428 -0.372196,0.0793 -0.549565,0.126822 -0.173762,0.04656 -0.314582,0.07623 -0.486155,0.126824 l 1.458463,5.43225 c 0.341419,-0.10381 0.688037,-0.194403 1.03572,-0.274783 l -1.458463,-5.411113 z m 9.97673897,0 -1.45846397,5.411113 c 0.347582,0.08081 0.694428,0.19169 1.03571997,0.29592 l 1.437327,-5.43225 c -0.175103,-0.05169 -0.351058,-0.100436 -0.528429,-0.147961 -0.173762,-0.04655 -0.31227,-0.08485 -0.486154,-0.126822 z M 4.61291,28.551545 1.801668,33.41309 c 0.314822,0.168018 0.627348,0.360555 0.930034,0.549568 L 5.521808,29.101112 C 5.366047,29.005872 5.194678,28.897005 5.035653,28.805191 4.879862,28.715241 4.770006,28.63709 4.61291,28.551545 z m -20.333947,0.02114 c -0.160362,0.08727 -0.327128,0.161832 -0.486154,0.253646 -0.155788,0.08995 -0.291249,0.160368 -0.443881,0.253646 l 2.811243,4.861546 c 0.302916,-0.188635 0.615002,-0.3608 0.930035,-0.528429 l -2.811243,-4.840409 z m -4.481078,3.255123 c -0.132307,0.125802 -0.271761,0.229487 -0.401606,0.359332 -0.127201,0.127202 -0.257178,0.250867 -0.380468,0.380468 l 4.988369,4.988369 c 0.121836,-0.131305 0.231606,-0.252744 0.359331,-0.380468 0.129036,-0.129035 0.268934,-0.257427 0.401607,-0.38047 l -4.967233,-4.967236 z m 29.296102,0 -4.988369,4.988369 c 0.131305,0.121836 0.252744,0.231606 0.380469,0.359332 0.129034,0.129034 0.257427,0.268932 0.380469,0.401605 L 9.833788,32.588741 C 9.707985,32.456434 9.583164,32.31698 9.453319,32.187135 9.326117,32.059933 9.22359,31.951094 9.093987,31.827804 z m -32.804871,4.31198 c -0.09524,0.155761 -0.182969,0.327129 -0.274782,0.486154 -0.08994,0.155792 -0.1681,0.286784 -0.253645,0.443882 l 4.861546,2.790103 c 0.168016,-0.314822 0.339417,-0.627347 0.528429,-0.930034 l -4.861548,-2.790105 z m 36.271364,0 -4.861546,2.811241 c 0.188637,0.302919 0.38194,0.615002 0.549566,0.930036 l 4.861547,-2.811241 c -0.08558,-0.157088 -0.184837,-0.309228 -0.274782,-0.465017 -0.09178,-0.159048 -0.179527,-0.309272 -0.274785,-0.465018 z m -38.511902,5.072918 c -0.05169,0.175105 -0.12157,0.35106 -0.169097,0.52843 -0.04656,0.173761 -0.08485,0.333407 -0.126823,0.507292 l 5.432251,1.437326 c 0.08081,-0.347581 0.170552,-0.694427 0.274782,-1.03572 l -5.411113,-1.437328 z m 40.752443,0 -5.411114,1.458464 c 0.103811,0.34142 0.194405,0.688039 0.274783,1.035722 l 5.432251,-1.458469 c -0.042,-0.173884 -0.08026,-0.333531 -0.126824,-0.507292 -0.04749,-0.177383 -0.117397,-0.353335 -0.169096,-0.528429 z m -41.640204,5.474524 c -0.0044,0.178823 0,0.348539 0,0.52843 0,0.183627 0.01652,0.367054 0.02114,0.549566 l 7.038675,0 c -0.0068,-0.180817 -0.02114,-0.367083 -0.02114,-0.549566 0,-0.18063 0.01447,-0.34943 0.02114,-0.52843 l -7.059811,0 z m 35.468153,0 c 0.0067,0.179 0.02113,0.3478 0.02113,0.52843 0,0.182483 -0.01433,0.368749 -0.02113,0.549566 l 7.038674,0 c 0.0046,-0.182512 0.02113,-0.365939 0.02113,-0.549566 0,-0.179891 0.0044,-0.349607 0,-0.52843 l -7.059811,0 z m -29.465199,4.058336 -5.411113,1.479601 c 0.0428,0.177486 0.100437,0.351059 0.147961,0.528429 0.04655,0.173759 0.07622,0.314579 0.126822,0.486154 l 5.43225,-1.458464 c -0.103808,-0.341419 -0.21554,-0.688037 -0.29592,-1.03572 z m 30.500919,0.02113 c -0.08081,0.347582 -0.170551,0.694429 -0.274783,1.03572 l 5.43225,1.458465 c 0.05057,-0.17159 0.101397,-0.354668 0.14796,-0.528429 0.04757,-0.177363 0.08405,-0.350944 0.126824,-0.528429 L 9.66469,50.766698 z m -29.063593,3.804692 -4.840408,2.832376 c 0.08727,0.16037 0.161831,0.32713 0.253645,0.48615 0.08995,0.15579 0.160368,0.27011 0.253646,0.42275 l 4.882684,-2.811242 c -0.188637,-0.302924 -0.381938,-0.615008 -0.549567,-0.930035 z M 8.2485,54.592478 c -0.168015,0.314826 -0.360552,0.62735 -0.549566,0.930034 l 4.861546,2.811242 c 0.09325,-0.15266 0.18484,-0.30923 0.274785,-0.46502 0.09184,-0.15901 0.18753,-0.32579 0.274782,-0.48615 L 8.2485,54.592477 z m -3.381944,2.282806 c -0.123042,0.13267 -0.251435,0.29371 -0.380469,0.42275 -0.127725,0.12772 -0.249182,0.21633 -0.380469,0.33819 l 4.988369,5.00951 c 0.129603,-0.12329 0.23213,-0.25326 0.359332,-0.38047 0.129845,-0.12985 0.254685,-0.26928 0.380469,-0.40161 l -4.967232,-4.98837 z m -20.862376,0.0212 -4.988369,4.98837 c 0.12329,0.12961 0.253267,0.25327 0.380468,0.38047 0.129845,0.12985 0.269279,0.25468 0.401606,0.38048 l 4.967233,-4.98838 c -0.132673,-0.12304 -0.272571,-0.2303 -0.401607,-0.35933 -0.127725,-0.12773 -0.237475,-0.27032 -0.359331,-0.40161 z m 2.134853,3.61445 -2.811242,4.86155 c 0.152631,0.0932 0.309227,0.18483 0.465018,0.27479 0.159026,0.0918 0.325782,0.16639 0.486154,0.25364 l 2.790105,-4.86154 c -0.314824,-0.16803 -0.627348,-0.33942 -0.930035,-0.52844 z m 16.571532,0 c -0.302918,0.18865 -0.615002,0.36081 -0.930035,0.52844 l 2.811242,4.88268 c 0.157089,-0.0856 0.309229,-0.18483 0.465018,-0.27478 0.15905,-0.0918 0.309271,-0.20066 0.465018,-0.29592 l -2.811243,-4.84042 z m -8.814195,0.93004 0,7.05982 c 0.178822,0.004 0.348537,0 0.528429,0 0.183627,0 0.367055,-0.0165 0.549566,-0.021 l 0,-7.03867 c -0.180817,0.006 -0.367083,0.021 -0.549566,0.021 -0.180631,0 -0.34943,-0.0144 -0.528429,-0.021 z m -4.037198,0.76094 -1.458464,5.43225 c 0.171576,0.0506 0.354669,0.0803 0.528429,0.12683 0.177372,0.0475 0.35094,0.084 0.52843,0.12681 l 1.437327,-5.4111 c -0.347582,-0.0808 -0.694429,-0.17057 -1.035722,-0.27479 z m 9.131253,0 c -0.341418,0.10378 -0.688037,0.1944 -1.035721,0.27479 l 1.45846497,5.43225 c 0.173884,-0.0421 0.354668,-0.10143 0.528428,-0.14796 0.177382,-0.0475 0.353336,-0.0963 0.52843,-0.14797 L -1.009575,62.201904 z"
       id="path5864"
       inkscape:connector-curvature="0" />
    <path
       id="path5854"
       d="m -5.574947,35.998444 c -6.196134,0 -11.21875,5.053864 -11.21875,11.25 0,6.196133 5.022616,11.1875 11.21875,11.1875 6.19613497,0 11.21875,-4.991367 11.21875,-11.1875 0,-6.196136 -5.02261503,-11.25 -11.21875,-11.25 z"
       style="fill:#bebebe;fill-opacity:1;stroke:none"
       inkscape:connector-curvature="0" />
  </g>
</svg>
