<?xml version="1.0" encoding="UTF-8" standalone="no"?>
<!-- Created with Inkscape (http://www.inkscape.org/) -->

<svg
   xmlns:dc="http://purl.org/dc/elements/1.1/"
   xmlns:cc="http://creativecommons.org/ns#"
   xmlns:rdf="http://www.w3.org/1999/02/22-rdf-syntax-ns#"
   xmlns:svg="http://www.w3.org/2000/svg"
   xmlns="http://www.w3.org/2000/svg"
   xmlns:sodipodi="http://sodipodi.sourceforge.net/DTD/sodipodi-0.dtd"
   xmlns:inkscape="http://www.inkscape.org/namespaces/inkscape"
   id="svg7384"
   height="16"
   width="16"
   version="1.1"
   inkscape:version="0.92.2 (unknown)"
   sodipodi:docname="preferences-desktop-accessibility-symbolic.svg">
  <defs
     id="defs6496" />
  <sodipodi:namedview
     pagecolor="#ffffff"
     bordercolor="#666666"
     borderopacity="1"
     objecttolerance="10"
     gridtolerance="10"
     guidetolerance="10"
     inkscape:pageopacity="0"
     inkscape:pageshadow="2"
     inkscape:window-width="1366"
     inkscape:window-height="706"
     id="namedview6494"
     showgrid="false"
     showguides="true"
     inkscape:guide-bbox="true"
     inkscape:zoom="20.85965"
     inkscape:cx="12.65845"
     inkscape:cy="5.0601569"
     inkscape:window-x="0"
     inkscape:window-y="0"
     inkscape:window-maximized="1"
     inkscape:current-layer="svg7384" />
  <title
     id="title9167">Gnome Symbolic Icon Theme</title>
  <metadata
     id="metadata90">
    <rdf:RDF>
      <cc:Work
         rdf:about="">
        <dc:format>image/svg+xml</dc:format>
        <dc:type
           rdf:resource="http://purl.org/dc/dcmitype/StillImage" />
        <dc:title>Gnome Symbolic Icon Theme</dc:title>
      </cc:Work>
    </rdf:RDF>
  </metadata>
  <path
     style="fill:#bebebe"
     d="M 8 0 C 3.5817 0 0 3.5817 0 8 C 0 12.4183 3.5817 16 8 16 C 12.4183 16 16 12.4183 16 8 C 16 3.5817 12.4183 0 8 0 z M 8 1.1503906 C 11.782868 1.1503906 14.849609 4.2171325 14.849609 8 C 14.849609 11.782868 11.782868 14.849609 8 14.849609 C 4.2171325 14.849609 1.1503906 11.782868 1.1503906 8 C 1.1503906 4.2171325 4.2171325 1.1503906 8 1.1503906 z "
     id="path3850" />
  <path
     id="path8"
     d="m 7.7206655,2.2465134 c 0.1583287,-0.032398 0.245,0 0.2793345,0 0.7853515,0 1.4525397,0.6292364 1.4525397,1.4246062 0,0.5747031 -0.3487828,1.0794644 -0.8380037,1.3128724 h 3.491682 c 0.186089,-0.00234 0.337545,0.1491128 0.335201,0.3352014 v 0.8380037 c 0.0023,0.1860886 -0.149112,0.3375449 -0.335201,0.3352014 H 9.5642735 l 0.300542,2.7374348 1.6994585,4.2179957 c 0.0023,0.186088 -0.149113,0.337545 -0.335202,0.335201 h -0.642469 c -0.186089,0.0023 -0.337545,-0.149113 -0.335202,-0.335201 L 8.2514011,9.2578105 H 7.7485989 l -2,4.1900185 c 0.00234,0.186088 -0.1491128,0.337545 -0.3352015,0.335201 H 4.770928 C 4.5848393,13.785354 4.4333831,13.633917 4.4357265,13.447829 L 6.16763,9.0440196 6.4357265,6.4923985 H 3.8937821 C 3.7076935,6.494742 3.5562372,6.3432857 3.5585807,6.1571971 V 5.3191934 C 3.5562372,5.1331048 3.7076935,4.9816485 3.8937821,4.983992 H 7.385464 C 6.8962431,4.750584 6.5474604,4.2458227 6.5474604,3.6711196 c 0,-0.6966945 0.5150592,-1.2899301 1.1732051,-1.4246062 z"
     style="fill:#bebebe;stroke-width:0.89387053"
     inkscape:connector-curvature="0"
     sodipodi:nodetypes="cssccccccccccccccccccccccccsc" />
</svg>
