<?xml version="1.0" encoding="UTF-8" standalone="no"?>
<!-- Created with Inkscape (http://www.inkscape.org/) -->

<svg
   xmlns:dc="http://purl.org/dc/elements/1.1/"
   xmlns:cc="http://creativecommons.org/ns#"
   xmlns:rdf="http://www.w3.org/1999/02/22-rdf-syntax-ns#"
   xmlns:svg="http://www.w3.org/2000/svg"
   xmlns="http://www.w3.org/2000/svg"
   xmlns:sodipodi="http://sodipodi.sourceforge.net/DTD/sodipodi-0.dtd"
   xmlns:inkscape="http://www.inkscape.org/namespaces/inkscape"
   id="svg7384"
   height="16"
   width="16"
   version="1.1"
   inkscape:version="0.48.3.1 r9886"
   sodipodi:docname="rhythmbox-symbolic.svg">
  <defs
     id="defs15" />
  <sodipodi:namedview
     pagecolor="#ffffff"
     bordercolor="#666666"
     borderopacity="1"
     objecttolerance="10"
     gridtolerance="10"
     guidetolerance="10"
     inkscape:pageopacity="0"
     inkscape:pageshadow="2"
     inkscape:window-width="1366"
     inkscape:window-height="696"
     id="namedview13"
     showgrid="false"
     inkscape:zoom="14.75"
     inkscape:cx="-3.7591388"
     inkscape:cy="6.9463423"
     inkscape:window-x="0"
     inkscape:window-y="0"
     inkscape:window-maximized="1"
     inkscape:current-layer="svg7384" />
  <metadata
     id="metadata14">
    <rdf:RDF>
      <cc:Work
         rdf:about="">
        <dc:format>image/svg+xml</dc:format>
        <dc:type
           rdf:resource="http://purl.org/dc/dcmitype/StillImage" />
      </cc:Work>
    </rdf:RDF>
  </metadata>
  <title
     id="title9167">Moblin Icon Theme</title>
  <path
     inkscape:connector-curvature="0"
     d="M 0,4.9591e-4 H 16 V 16.000496 H 0 V 4.9591e-4 z"
     style="color:#000000;fill:none"
     id="rect3877-3" />
  <path
     id="path3809"
     style="text-indent:0;text-transform:none;block-progression:tb;color:#000000;fill:#babdb6"
     d="m 8,2.9905 c -1.9271,0 -3.5,1.5729 -3.5,3.5 0,1.9271 1.5729,3.5 3.5,3.5 1.9271,0 3.5,-1.5729 3.5,-3.5 0,-1.9271 -1.5729,-3.5 -3.5,-3.5 z m 0,1 c 1.3866,0 2.5,1.1134 2.5,2.5 0,1.3866 -1.1134,2.5 -2.5,2.5 -1.3866,0 -2.5,-1.1134 -2.5,-2.5 0,-1.3866 1.1134,-2.5 2.5,-2.5 z"
     inkscape:connector-curvature="0" />
  <path
     id="path2826-1-5-0-1-0-6"
     style="color:#000000;fill:#babdb6"
     d="m 9.5,6.50045 c 0,0.82845 -0.67155,1.5 -1.5,1.5 -0.82845,0 -1.5,-0.67155 -1.5,-1.5 0,-0.82845 0.67155,-1.5 1.5,-1.5 0.82845,0 1.5,0.67155 1.5,1.5 z"
     inkscape:connector-curvature="0" />
  <path
     id="path2826-1-5-0-1-0-6-5"
     style="color:#000000;fill:#babdb6"
     d="m 9.5,11.90723 c 0,0.82845 -0.67155,1.5 -1.5,1.5 -0.82845,0 -1.5,-0.67155 -1.5,-1.5 0,-0.82845 0.67155,-1.5 1.5,-1.5 0.82845,0 1.5,0.67155 1.5,1.5 z"
     inkscape:connector-curvature="0" />
  <path
     style="opacity:1;fill:#babdb6;fill-opacity:0.87843137999999998;stroke:none"
     d="M 4.78125 -0.09375 C 3.4152047 -0.09375 2.09375 0.95451804 2.09375 2.46875 L 2.09375 13.53125 C 2.09375 15.045482 3.4152056 16.09375 4.78125 16.09375 L 11.21875 16.09375 C 12.584794 16.09375 13.90625 15.045482 13.90625 13.53125 L 13.90625 2.46875 C 13.90625 0.95451765 12.584795 -0.09375 11.21875 -0.09375 L 4.78125 -0.09375 z M 4.78125 1.5 L 11.21875 1.5 C 11.819699 1.5 12.3125 1.9317825 12.3125 2.46875 L 12.3125 13.53125 C 12.3125 14.068218 11.819699 14.5 11.21875 14.5 L 4.78125 14.5 C 4.1803008 14.5 3.6875 14.068218 3.6875 13.53125 L 3.6875 2.46875 C 3.6875 1.9317825 4.1803008 1.5 4.78125 1.5 z "
     id="path3008" />
</svg>
