<?xml version="1.0" encoding="UTF-8" standalone="no"?>
<!-- Created with Inkscape (http://www.inkscape.org/) -->

<svg
   xmlns:osb="http://www.openswatchbook.org/uri/2009/osb"
   xmlns:dc="http://purl.org/dc/elements/1.1/"
   xmlns:cc="http://creativecommons.org/ns#"
   xmlns:rdf="http://www.w3.org/1999/02/22-rdf-syntax-ns#"
   xmlns:svg="http://www.w3.org/2000/svg"
   xmlns="http://www.w3.org/2000/svg"
   xmlns:sodipodi="http://sodipodi.sourceforge.net/DTD/sodipodi-0.dtd"
   xmlns:inkscape="http://www.inkscape.org/namespaces/inkscape"
   sodipodi:docname="shotwell-symbolic.svg"
   inkscape:export-filename="/home/sam/source-symbolic.png"
   inkscape:export-xdpi="270"
   inkscape:export-ydpi="270"
   height="16"
   id="svg7384"
   style="enable-background:new"
   version="1.1"
   inkscape:version="0.92.2 (unknown)"
   width="16.000429">
  <sodipodi:namedview
     inkscape:bbox-nodes="true"
     inkscape:bbox-paths="false"
     bordercolor="#666666"
     borderlayer="false"
     borderopacity="1"
     inkscape:current-layer="g6058"
     inkscape:cx="21.475786"
     inkscape:cy="3.3646995"
     gridtolerance="10"
     inkscape:guide-bbox="true"
     guidetolerance="10"
     id="namedview88"
     inkscape:object-nodes="true"
     inkscape:object-paths="true"
     objecttolerance="10"
     pagecolor="#f7f7f7"
     inkscape:pageopacity="1"
     inkscape:pageshadow="2"
     showborder="true"
     showgrid="false"
     showguides="false"
     inkscape:showpageshadow="false"
     inkscape:snap-bbox="true"
     inkscape:snap-bbox-edge-midpoints="false"
     inkscape:snap-bbox-midpoints="true"
     inkscape:snap-center="false"
     inkscape:snap-global="false"
     inkscape:snap-grids="true"
     inkscape:snap-intersection-paths="true"
     inkscape:snap-midpoints="false"
     inkscape:snap-nodes="true"
     inkscape:snap-object-midpoints="true"
     inkscape:snap-others="true"
     inkscape:snap-page="false"
     inkscape:snap-smooth-nodes="true"
     inkscape:snap-to-guides="true"
     inkscape:window-height="716"
     inkscape:window-maximized="1"
     inkscape:window-width="1366"
     inkscape:window-x="0"
     inkscape:window-y="27"
     inkscape:zoom="11.313708">
    <inkscape:grid
       color="#000000"
       dotted="false"
       empcolor="#0800ff"
       empopacity="0.4627451"
       empspacing="4"
       enabled="true"
       id="grid4866"
       opacity="0.16470588"
       originx="-256"
       originy="-584.0033"
       snapvisiblegridlinesonly="true"
       spacingx="0.25"
       spacingy="0.25"
       type="xygrid"
       visible="true" />
  </sodipodi:namedview>
  <metadata
     id="metadata90">
    <rdf:RDF>
      <cc:Work
         rdf:about="">
        <dc:format>image/svg+xml</dc:format>
        <dc:type
           rdf:resource="http://purl.org/dc/dcmitype/StillImage" />
        <dc:title>Paper Symbolic Icon Theme</dc:title>
      </cc:Work>
    </rdf:RDF>
  </metadata>
  <title
     id="title8473">Paper Symbolic Icon Theme</title>
  <defs
     id="defs7386">
    <linearGradient
       id="linearGradient5606"
       osb:paint="solid">
      <stop
         id="stop5608"
         offset="0"
         style="stop-color:#000000;stop-opacity:1;" />
    </linearGradient>
  </defs>
  <g
     inkscape:groupmode="layer"
     id="g6058"
     inkscape:label="apps"
     style="display:inline"
     transform="translate(-256,-99.996704)">
    <path
       style="opacity:1;fill:#cccccc;fill-opacity:1;stroke:none;stroke-width:1.03174448"
       d="m 256.45934,103.22887 v 9.60812 h 6.30532 c -0.0622,-0.30576 -0.0954,-0.62226 -0.10075,-0.9451 h -5.17283 v -7.71793 h 11.34919 v 2.58742 c 0.35975,0.0732 0.70351,0.18854 1.03174,0.3325 v -3.86501 z"
       id="rect1400"
       inkscape:connector-curvature="0" />
    <path
       style="opacity:1;fill:#cccccc;fill-opacity:1;stroke:none;stroke-width:1.01136529"
       d="m 258.22257,101.63289 -0.2539,0.84434 h 3.06702 z"
       id="path1406"
       inkscape:connector-curvature="0" />
    <path
       style="opacity:1;fill:#cccccc;fill-opacity:1;stroke:none;stroke-width:0.69289142"
       d="m 258.42811,104.96591 v 6.13404 h 4.28618 c 0.0284,-0.20692 0.0827,-0.40421 0.13501,-0.60252 h -3.69171 c 2.55012,-0.9329 2.21615,-1.77751 3.41967,-2.80506 0.5565,-0.47515 1.0189,0.19887 1.50933,0.56827 0.93789,-0.98465 2.25484,-1.60404 3.72193,-1.60404 0.032,0 0.0629,0.003 0.0947,0.004 v -1.69472 z"
       id="path1408"
       inkscape:connector-curvature="0" />
    <path
       style="color:#bebebe;display:inline;overflow:visible;visibility:visible;fill:#cccccc;fill-opacity:1;fill-rule:nonzero;stroke:none;stroke-width:4.19123983;marker:none;enable-background:accumulate"
       d="m 267.80897,107.61378 c -2.31476,0 -4.19146,1.8767 -4.19146,4.19146 0,2.31475 1.8767,4.19146 4.19146,4.19146 2.31475,0 4.19146,-1.87671 4.19146,-4.19146 0,-2.31476 -1.87671,-4.19146 -4.19146,-4.19146 z m 0,0.61259 c 1.97642,0 3.57886,1.60244 3.57886,3.57887 0,1.97642 -1.60244,3.57886 -3.57886,3.57886 -1.97643,0 -3.57887,-1.60244 -3.57887,-3.57886 0,-1.97643 1.60244,-3.57887 3.57887,-3.57887 z m 0,1.19296 c -1.31762,0 -2.38591,1.06829 -2.38591,2.38591 0,1.31761 1.06829,2.38591 2.38591,2.38591 1.31761,0 2.38591,-1.0683 2.38591,-2.38591 0,-1.31762 -1.0683,-2.38591 -2.38591,-2.38591 z m -0.48363,0.41915 a 0.99950241,0.99950241 0 0 1 0.9995,0.9995 0.99950241,0.99950241 0 0 1 -0.9995,0.9995 0.99950241,0.99950241 0 0 1 -0.9995,-0.9995 0.99950241,0.99950241 0 0 1 0.9995,-0.9995 z"
       id="path1417"
       inkscape:connector-curvature="0" />
  </g>
</svg>
