<?xml version="1.0" encoding="UTF-8" standalone="no"?>
<!-- Created with Inkscape (http://www.inkscape.org/) -->

<svg
   xmlns:dc="http://purl.org/dc/elements/1.1/"
   xmlns:cc="http://creativecommons.org/ns#"
   xmlns:rdf="http://www.w3.org/1999/02/22-rdf-syntax-ns#"
   xmlns:svg="http://www.w3.org/2000/svg"
   xmlns="http://www.w3.org/2000/svg"
   xmlns:sodipodi="http://sodipodi.sourceforge.net/DTD/sodipodi-0.dtd"
   xmlns:inkscape="http://www.inkscape.org/namespaces/inkscape"
   id="svg7384"
   height="16"
   width="16"
   version="1.1"
   inkscape:version="0.48.3.1 r9886"
   sodipodi:docname="system-file-manager-symbolic.svg">
  <defs
     id="defs3124" />
  <sodipodi:namedview
     pagecolor="#ffffff"
     bordercolor="#666666"
     borderopacity="1"
     objecttolerance="10"
     gridtolerance="10"
     guidetolerance="10"
     inkscape:pageopacity="0"
     inkscape:pageshadow="2"
     inkscape:window-width="1366"
     inkscape:window-height="696"
     id="namedview3122"
     showgrid="false"
     inkscape:zoom="45.254834"
     inkscape:cx="10.879549"
     inkscape:cy="6.2556244"
     inkscape:window-x="0"
     inkscape:window-y="0"
     inkscape:window-maximized="1"
     inkscape:current-layer="svg7384">
    <inkscape:grid
       type="xygrid"
       id="grid2986" />
  </sodipodi:namedview>
  <metadata
     id="metadata90">
    <rdf:RDF>
      <cc:Work
         rdf:about="">
        <dc:format>image/svg+xml</dc:format>
        <dc:type
           rdf:resource="http://purl.org/dc/dcmitype/StillImage" />
        <dc:title>Gnome Symbolic Icon Theme</dc:title>
      </cc:Work>
    </rdf:RDF>
  </metadata>
  <title
     id="title9167">Gnome Symbolic Icon Theme</title>
  <path
     style="fill:#bebebe;fill-opacity:1;stroke:none"
     d="m 2.125,1 -0.75,3.1875 -0.0625,10.25 0.3125,0 0.09375,0 1.375,0 0.125,0 0.28125,0 0,0.8125 9.125,0 0,-0.8125 0.21875,0 0.1875,0 1.25,0 0.0625,0 0.34375,0 L 14.75,4.1875 14,1 z m 0.5625,3.71875 0.03125,0 0.03125,0 0.78125,0 9.84375,0 0.15625,0 -0.0625,9.21875 -0.15625,0 -0.46875,0 -0.1875,0 0,-7.53125 -9.1875,0 0,7.53125 -0.25,0 -0.53125,0 z m 3.625,5.5625 0.78125,0.9375 1.875,0 0.71875,-0.9375 0.4375,0.46875 -0.78125,1.1875 -1.34375,0 -1.28125,0 -0.8125,-1.1875 z"
     id="path3403"
     inkscape:connector-curvature="0"
     sodipodi:nodetypes="ccccccccccccccccccccccccccccccccccccccccccccc" />
</svg>
