<?xml version="1.0" encoding="UTF-8" standalone="no"?>
<!-- Created with Inkscape (http://www.inkscape.org/) -->

<svg
   xmlns:dc="http://purl.org/dc/elements/1.1/"
   xmlns:cc="http://creativecommons.org/ns#"
   xmlns:rdf="http://www.w3.org/1999/02/22-rdf-syntax-ns#"
   xmlns:svg="http://www.w3.org/2000/svg"
   xmlns="http://www.w3.org/2000/svg"
   xmlns:sodipodi="http://sodipodi.sourceforge.net/DTD/sodipodi-0.dtd"
   xmlns:inkscape="http://www.inkscape.org/namespaces/inkscape"
   id="svg7384"
   height="16"
   width="16"
   version="1.1"
   inkscape:version="0.48.3.1 r9886"
   sodipodi:docname="system-users-symbolic.svg">
  <defs
     id="defs12" />
  <sodipodi:namedview
     pagecolor="#ffffff"
     bordercolor="#666666"
     borderopacity="1"
     objecttolerance="10"
     gridtolerance="10"
     guidetolerance="10"
     inkscape:pageopacity="0"
     inkscape:pageshadow="2"
     inkscape:window-width="1366"
     inkscape:window-height="701"
     id="namedview10"
     showgrid="false"
     inkscape:zoom="14.75"
     inkscape:cx="21.00298"
     inkscape:cy="2.6590866"
     inkscape:window-x="0"
     inkscape:window-y="0"
     inkscape:window-maximized="1"
     inkscape:current-layer="svg7384" />
  <metadata
     id="metadata90">
    <rdf:RDF>
      <cc:Work
         rdf:about="">
        <dc:format>image/svg+xml</dc:format>
        <dc:type
           rdf:resource="http://purl.org/dc/dcmitype/StillImage" />
        <dc:title>Gnome Symbolic Icon Theme</dc:title>
      </cc:Work>
    </rdf:RDF>
  </metadata>
  <title
     id="title9167">Gnome Symbolic Icon Theme</title>
  <g
     id="g2989"
     transform="matrix(-1,0,0,1,16.629754,0)">
    <path
       id="path3424"
       d="m 13.554265,12.533563 c -1.016002,-0.505744 -1.479412,-1.379505 -1.479412,-1.794373 0,-0.276578 0.184009,-0.704428 0.362374,-0.9121444 0.174414,-0.203765 0.432365,-0.3048008 0.55485,-0.5311436 0.198685,-0.369712 0.305366,-1.1080072 0.242712,-1.4325636 -0.04402,-0.2314228 -0.242712,-0.2545651 -0.242712,-0.4617167 0,-0.1851383 0.04346,-0.484859 0.04346,-0.9934248 0,-0.7168462 -0.273756,-1.0995405 -0.642904,-1.4325636 -0.333022,-0.3008496 -0.998504,-0.6242771 -1.841787,-0.6242771 -0.178364,0 -0.371969,0.016369 -0.531708,0.046849 C 9.6533776,4.4670672 9.4061496,4.639788 9.2808426,4.7746906 l -0.0051,-0.00282 -0.02879,0.037253 c -5.64e-4,0.00113 -0.0028,0.00282 -0.0039,0.00451 -0.155787,0.023142 -0.406966,0.059267 -0.621455,0.2308584 -0.2889961,0.2308583 -0.5548505,0.6468549 -0.5548505,1.3637012 0,0.5080013 0.044025,0.8082865 0.044025,0.9934247 0,0.2077161 -0.1998141,0.2308584 -0.2438408,0.4617168 -0.062653,0.3245563 0.044593,1.0628515 0.2438408,1.4325636 0.1224847,0.2263428 0.3810005,0.3273786 0.5542855,0.5311435 0.1778,0.2077162 0.362374,0.6355662 0.362374,0.9121442 0,0.414303 -0.467361,1.288066 -1.482799,1.794375 -1.3913592,0.693704 -2.074903,1.012051 -2.074903,1.977818 H 15.629754 c 0,-0.965767 -0.684108,-1.284114 -2.075468,-1.977818 z M 9.4253436,4.4749698 9.3254336,4.3914318 c -0.05306,0.063782 -0.08975,0.135467 -0.107245,0.207716 -0.06773,-0.023707 -0.144498,-0.034996 -0.232552,-0.034996 v 0.130387 c 0.104423,0 0.187396,0.018627 0.254001,0.056445 l 0.03613,0.020885 0.06039,-0.077329 c 0,-0.072814 0.03161,-0.1507071 0.08918,-0.2195695 z"
       inkscape:connector-curvature="0"
       style="fill:#bebebe;fill-opacity:1" />
    <path
       id="path3973"
       d="M 5.34375,0.90625 C 3.87108,0.886541 3.434533,1.8056068 2.875,3.03125 L 2.84375,3.5625 1.03125,8.6875 1,9.28125 l 0.5,0.3125 1.09375,0.4375 3.25,0.1875 0.9375,-0.125 C 6.7682651,10.070832 6.7633312,10.055885 6.75,10.03125 6.5106464,9.5871201 6.4409163,9.1967159 6.375,8.8125 6.3090837,8.4282841 6.2390026,8.1363646 6.34375,7.59375 6.3834039,7.385821 6.4765144,7.3758284 6.5625,7.21875 6.5470601,7.1589957 6.5,6.9233975 6.5,6.40625 6.5,5.3863196 6.9631305,4.5403576 7.53125,4 a 1.5597231,1.5597231 0 0 1 0.0625,-0.09375 l -0.25,-0.5625 c -0.1627252,-1.3420221 -0.5450726,-2.3162561 -2,-2.4375 z"
       style="fill:#bebebe;fill-opacity:1;stroke:none"
       inkscape:connector-curvature="0" />
  </g>
</svg>
