<?xml version="1.0" encoding="UTF-8" standalone="no"?>
<!-- Created with Inkscape (http://www.inkscape.org/) -->

<svg
   xmlns:dc="http://purl.org/dc/elements/1.1/"
   xmlns:cc="http://creativecommons.org/ns#"
   xmlns:rdf="http://www.w3.org/1999/02/22-rdf-syntax-ns#"
   xmlns:svg="http://www.w3.org/2000/svg"
   xmlns="http://www.w3.org/2000/svg"
   xmlns:sodipodi="http://sodipodi.sourceforge.net/DTD/sodipodi-0.dtd"
   xmlns:inkscape="http://www.inkscape.org/namespaces/inkscape"
   version="1.1"
   width="16"
   height="16"
   id="svg7384"
   inkscape:version="0.92.2 (unknown)"
   sodipodi:docname="twitter-symbolic.svg">
  <sodipodi:namedview
     pagecolor="#ffffff"
     bordercolor="#666666"
     borderopacity="1"
     objecttolerance="10"
     gridtolerance="10"
     guidetolerance="10"
     inkscape:pageopacity="0"
     inkscape:pageshadow="2"
     inkscape:window-width="1366"
     inkscape:window-height="706"
     id="namedview7"
     showgrid="false"
     inkscape:zoom="14.75"
     inkscape:cx="0.3704429"
     inkscape:cy="6.1285078"
     inkscape:window-x="0"
     inkscape:window-y="0"
     inkscape:window-maximized="1"
     inkscape:current-layer="svg7384" />
  <title
     id="title9167">Gnome Symbolic Icon Theme</title>
  <defs
     id="defs11" />
  <metadata
     id="metadata90">
    <rdf:RDF>
      <cc:Work
         rdf:about="">
        <dc:format>image/svg+xml</dc:format>
        <dc:type
           rdf:resource="http://purl.org/dc/dcmitype/StillImage" />
        <dc:title>Gnome Symbolic Icon Theme</dc:title>
      </cc:Work>
    </rdf:RDF>
  </metadata>
  <path
     style="color:#bebebe;fill:#bebebe;fill-opacity:1;fill-rule:nonzero;stroke:none;stroke-width:1;marker:none;visibility:visible;display:inline;overflow:visible;enable-background:accumulate"
     d="M 10.693359 2.3105469 C 9.1071595 2.3105469 7.8203125 3.5973936 7.8203125 5.1835938 C 7.8203125 5.4086435 7.8455312 5.6276107 7.8945312 5.8378906 C 5.5073912 5.7180508 3.3912068 4.5756405 1.9746094 2.8378906 C 1.7273694 3.2620906 1.5859375 3.7548502 1.5859375 4.28125 C 1.5859375 5.2777701 2.0925391 6.1568141 2.8632812 6.671875 C 2.3924475 6.656965 1.9497192 6.52761 1.5625 6.3125 C 1.562227 6.32447 1.5625 6.3355462 1.5625 6.3476562 C 1.5625 7.7393262 2.5532597 8.9000925 3.8671875 9.1640625 C 3.6262057 9.2296525 3.3713291 9.265625 3.109375 9.265625 C 2.9242877 9.265625 2.7437651 9.2483037 2.5683594 9.2148438 C 2.933864 10.355844 3.9950756 11.185884 5.2519531 11.208984 C 4.2689501 11.979404 3.0312692 12.4375 1.6855469 12.4375 C 1.4536999 12.4375 1.2247143 12.425048 1 12.398438 C 2.271102 13.213479 3.7803039 13.689453 5.4023438 13.689453 C 10.685454 13.689453 13.574219 9.3112353 13.574219 5.515625 C 13.574219 5.3911653 13.571906 5.2677314 13.566406 5.1445312 C 14.127666 4.7395865 14.61493 4.2342331 15 3.6582031 C 14.48494 3.8866831 13.930539 4.0399353 13.349609 4.109375 C 13.942509 3.7538449 14.398801 3.1922241 14.613281 2.5214844 C 14.058251 2.8506942 13.443353 3.09002 12.789062 3.21875 C 12.265182 2.6605704 11.519499 2.3105469 10.693359 2.3105469 z M 10.693359 3.4199219 C 11.206159 3.4199219 11.657696 3.6346099 11.980469 3.9785156 A 1.1094499 1.1094499 0 0 0 12.244141 4.1835938 A 1.1094499 1.1094499 0 0 0 12.505859 4.8261719 A 1.1094499 1.1094499 0 0 0 12.458984 5.1933594 C 12.46363 5.2974229 12.464844 5.4049095 12.464844 5.515625 C 12.464844 7.1319981 11.830117 8.9386539 10.636719 10.292969 C 9.4433204 11.647283 7.7374551 12.580078 5.4023438 12.580078 C 5.298882 12.580078 5.2077346 12.541509 5.1054688 12.537109 C 5.3788019 12.377981 5.6881832 12.2759 5.9355469 12.082031 A 1.1094499 1.1094499 0 0 0 5.2714844 10.099609 C 5.0534616 10.095602 4.8858975 9.9754208 4.6953125 9.9003906 A 1.1094499 1.1094499 0 0 0 4.0859375 8.0761719 C 3.8031937 8.0193682 3.5936297 7.8284596 3.3769531 7.6542969 A 1.1094499 1.1094499 0 0 0 3.4804688 5.75 C 3.3145706 5.6391359 3.3248038 5.3929572 3.2050781 5.234375 C 4.5691419 6.1600706 6.0919603 6.8575648 7.8398438 6.9453125 A 1.1094499 1.1094499 0 0 0 8.9746094 5.5859375 C 8.9451457 5.4594962 8.9296875 5.3257696 8.9296875 5.1835938 C 8.9296875 4.1973807 9.7071475 3.4199219 10.693359 3.4199219 z "
     id="path16" />
</svg>
