<?xml version="1.0" encoding="UTF-8" standalone="no"?>
<!-- Created with Inkscape (http://www.inkscape.org/) -->

<svg
   xmlns:dc="http://purl.org/dc/elements/1.1/"
   xmlns:cc="http://creativecommons.org/ns#"
   xmlns:rdf="http://www.w3.org/1999/02/22-rdf-syntax-ns#"
   xmlns:svg="http://www.w3.org/2000/svg"
   xmlns="http://www.w3.org/2000/svg"
   xmlns:sodipodi="http://sodipodi.sourceforge.net/DTD/sodipodi-0.dtd"
   xmlns:inkscape="http://www.inkscape.org/namespaces/inkscape"
   id="svg7384"
   height="16"
   width="16"
   version="1.1"
   inkscape:version="0.48.3.1 r9886"
   sodipodi:docname="utilities-terminal-symbolic.svg">
  <defs
     id="defs22815" />
  <sodipodi:namedview
     pagecolor="#ffffff"
     bordercolor="#666666"
     borderopacity="1"
     objecttolerance="10"
     gridtolerance="10"
     guidetolerance="10"
     inkscape:pageopacity="0"
     inkscape:pageshadow="2"
     inkscape:window-width="1366"
     inkscape:window-height="696"
     id="namedview22813"
     showgrid="false"
     inkscape:zoom="29.5"
     inkscape:cx="8.7806832"
     inkscape:cy="5.7693311"
     inkscape:window-x="0"
     inkscape:window-y="0"
     inkscape:window-maximized="1"
     inkscape:current-layer="svg7384" />
  <metadata
     id="metadata90">
    <rdf:RDF>
      <cc:Work
         rdf:about="">
        <dc:format>image/svg+xml</dc:format>
        <dc:type
           rdf:resource="http://purl.org/dc/dcmitype/StillImage" />
        <dc:title>Gnome Symbolic Icon Theme</dc:title>
      </cc:Work>
    </rdf:RDF>
  </metadata>
  <title
     id="title9167">Gnome Symbolic Icon Theme</title>
  <g
     id="g4540">
    <path
       sodipodi:nodetypes="ssssssssssssssssss"
       inkscape:connector-curvature="0"
       id="rect22828"
       d="m 1.53125,1.707627 c -0.3844191,0 -0.71875,0.3997758 -0.71875,0.875 l 0,10.865996 c 0,0.475224 0.3343309,0.84375 0.71875,0.84375 l 12.9375,0 c 0.384419,0 0.71875,-0.368526 0.71875,-0.84375 l 0,-10.865996 c 0,-0.4752242 -0.334331,-0.875 -0.71875,-0.875 z M 3,3.426377 l 10,0 c 0.331727,0 0.59375,0.2620227 0.59375,0.59375 l 0,7 c 0,0.331727 -0.262023,0.59375 -0.59375,0.59375 l -10,0 c -0.3317273,0 -0.59375,-0.262023 -0.59375,-0.59375 l 0,-7 C 2.40625,3.6883997 2.6682727,3.426377 3,3.426377 z"
       style="opacity:1;fill:#bebebe;fill-opacity:1;stroke:none" />
    <path
       sodipodi:nodetypes="ccccccc"
       inkscape:connector-curvature="0"
       id="path22834"
       d="M 3.3995346,3.8175982 3.4244638,5.2717124 5.6680924,6.4026901 3.4244638,7.6413802 3.3746056,9.2032066 8.011438,6.4026901 z"
       style="fill:#bebebe;fill-opacity:1;stroke:none;opacity:1" />
    <rect
       ry="0.61934489"
       rx="0"
       y="9.1914244"
       x="5.5390296"
       height="1.2925431"
       width="4.3626113"
       id="rect22836"
       style="opacity:1;fill:#bebebe;fill-opacity:1;stroke:none" />
  </g>
</svg>
