<svg height="22" viewBox="0 0 5.8208332 5.8208335" width="22" xmlns="http://www.w3.org/2000/svg" xmlns:xlink="http://www.w3.org/1999/xlink"><linearGradient id="a" gradientUnits="userSpaceOnUse" x1="55" x2="55" y1="1036.4132" y2="1032.4822"><stop offset="0" stop-color="#003d7b"/><stop offset="1" stop-color="#003d7b" stop-opacity="0"/></linearGradient><filter id="b" color-interpolation-filters="sRGB" height="1.697208" width="1.027888" x="-.013944" y="-.348604"><feGaussianBlur stdDeviation=".70882694"/></filter><filter id="c" color-interpolation-filters="sRGB" height="1.869989" width="1.027669" x="-.013834" y="-.434994"><feGaussianBlur stdDeviation=".70324038"/></filter><linearGradient id="d" gradientUnits="userSpaceOnUse" x1="9" x2="9" y1="-7" y2="4"><stop offset="0" stop-color="#102134"/><stop offset="1" stop-color="#102134" stop-opacity="0"/></linearGradient><clipPath id="e"><rect height="50.571445" rx="4" width="128.11432" x="4" y="945.83502"/></clipPath><filter id="f" color-interpolation-filters="sRGB" height="1.267833" width="1.129187" x="-.064594" y="-.133917"><feGaussianBlur stdDeviation="3.1247207"/></filter><linearGradient id="g" gradientUnits="userSpaceOnUse" x1="7.739838" x2="8" y1="1.357724" y2="14"><stop offset="0" stop-color="#587bcb"/><stop offset=".94117647" stop-color="#3f59ae"/><stop offset="1" stop-color="#3d7cdb"/></linearGradient><linearGradient id="h" gradientTransform="matrix(1.375 0 0 1 -1.375 0)" gradientUnits="userSpaceOnUse" x1="6.5" x2="6.5" y1="11" y2="12"><stop offset="0" stop-color="#2a3674"/><stop offset="1" stop-color="#174072" stop-opacity="0"/></linearGradient><linearGradient id="i" gradientUnits="userSpaceOnUse" x1=".37740994" x2=".37740994" y1="5.21465188477" y2="3.30908843966"><stop offset="0" stop-color="#34608f"/><stop offset="1" stop-color="#34608f" stop-opacity="0"/></linearGradient><linearGradient id="j" gradientTransform="matrix(.21345221 0 0 .1138394 -5.411169 -103.22724)" gradientUnits="userSpaceOnUse" x1="124.01234" x2="124.01234" y1="966.51019" y2="935.34326"><stop offset="0"/><stop offset="1" stop-color="#34608f" stop-opacity="0"/></linearGradient><g transform="matrix(.26458333 0 0 .26458333 .264583 1.5875)"><rect fill="url(#a)" filter="url(#b)" height="4.39197" opacity=".577143" rx="2.439995" ry="2.195984" transform="matrix(.125 0 0 .25614775 -.125 -251.09298)" width="153.99997" x="3.000028" y="1032.4822"/><path d="m-46.991242 13.13992h102.449726c2.216 0 4 .8652 4 1.94 0 1.0747-1.78433 1.902-4 1.94-36.945183.6329-63.1527685.7782-102.449726 0-2.215566-.044-4-.8653-4-1.94 0-1.0748 1.784-1.94 4-1.94z" filter="url(#c)" opacity=".554286" transform="matrix(.17315572 0 0 .125 9.204424 12.35751)"/><path d="m1-3c-.5 0-.4629045.3887135-.5.5l-.5 1.5v5c0 .554.446 1 1 1h17c.554 0 1-.446 1-1v-5c0-.554-.446-1-1-1h-10.0957031c-.0842007-.4859507-.178001-1-.4042969-1z" fill="#3b6ca9"/><path d="m1-3c-.5 0-.45958958.3898739-.5.5l-.5 1.5v5c0 .554.446 1 1 1v-6l.5-1h5.3828125c.013345.068527.023996.094239.037109.1699219.0826732.4792195.4980774.8295107.9843754.8300781h1.0957031 9v6c.554 0 1-.446 1-1v-5c0-.554-.446-1-1-1h-10.0957031c-.0842007-.4859507-.178001-1-.4042969-1z" fill="url(#d)" opacity=".25"/><path clip-path="url(#e)" d="m30.012986 976.64619-26.0129822-.46865.0000002 37.10606 128.114316-.02v-40.3432c0-2.54081-2.0596-4.59317-4.62097-4.58387l-85.480364.31046c-9.375263 0-5.067235 7.84799-12 8z" fill="#16375b" fill-opacity=".801471" filter="url(#f)" transform="matrix(.14830504 0 0 .14830504 -.59322 -142.2721)"/><path d="m1 3h4.5l1-1h12.5c.554 0 1 .446 1 1v10c0 .554-.446 1-1 1h-18c-.554 0-1-.446-1-1v-9c0-.554.446-1 1-1z" fill="url(#g)"/><path d="m0 11h20v1h-20z" fill="#385da4"/><path d="m0 11h20v1h-20z" fill="url(#h)"/><path d="m0 12h20v.5h-20z" fill="#a4c0e8"/><path d="m6.5 2-1 1h-4.5c-.554 0-1 .446-1 1v1c0-.554.44603305-.9939512 1-1h4.5l1-1h12.5c.554 0 1 .446 1 1v-1c0-.554-.446004-.9978437-1-1z" fill="#a4c0e8"/><path d="m2-1h4v.9999999h-4z" fill="#fcf9e9"/><path d="m5-1h1v.9999999h-1z" fill="#fbc66d"/><path d="m1 3c-.5505375 0-.9925198.4410516-.9980469.9902344v11.0195316c.00023.02285.0119482-1.958.0136719-1.93555.038109.321065.7510484.923754.984375.925784.0003916.000003.00156 0 .00195 0v-11z" fill="url(#i)" opacity=".594286"/><path d="m19 2v12c.554 0 1-.446 1-1v-10c0-.554-.446-1-1-1z" fill="url(#j)" opacity=".405714"/></g></svg>