<?xml version="1.0" encoding="UTF-8" standalone="no"?>
<svg
   height="22"
   viewBox="0 0 5.8208332 5.8208335"
   width="22"
   version="1.1"
   id="svg76"
   sodipodi:docname="user-home.svg"
   inkscape:export-filename="/home/rizmut/Dokumen/Rizmut/Github/karasa-jaga-icon-theme/src/Karasa-Jaga/22x22/places/folder-download.png"
   inkscape:export-xdpi="96"
   inkscape:export-ydpi="96"
   inkscape:version="1.1.1 (3bf5ae0d25, 2021-09-20)"
   xmlns:inkscape="http://www.inkscape.org/namespaces/inkscape"
   xmlns:sodipodi="http://sodipodi.sourceforge.net/DTD/sodipodi-0.dtd"
   xmlns="http://www.w3.org/2000/svg"
   xmlns:svg="http://www.w3.org/2000/svg">
  <defs
     id="defs80" />
  <sodipodi:namedview
     id="namedview78"
     pagecolor="#ffffff"
     bordercolor="#666666"
     borderopacity="1.0"
     inkscape:pageshadow="2"
     inkscape:pageopacity="0.0"
     inkscape:pagecheckerboard="0"
     showgrid="true"
     inkscape:snap-global="true"
     inkscape:zoom="11.886364"
     inkscape:cx="9.2543021"
     inkscape:cy="12.871893"
     inkscape:window-width="1366"
     inkscape:window-height="703"
     inkscape:window-x="0"
     inkscape:window-y="0"
     inkscape:window-maximized="1"
     inkscape:current-layer="svg76">
    <inkscape:grid
       type="xygrid"
       id="grid82"
       spacingx="0.13229167"
       spacingy="0.13229167"
       empspacing="2" />
  </sodipodi:namedview>
  <linearGradient
     id="a"
     gradientUnits="userSpaceOnUse"
     x1="55"
     x2="55"
     y1="1036.4132"
     y2="1032.4822">
    <stop
       offset="0"
       stop-color="#003d7b"
       id="stop2" />
    <stop
       offset="1"
       stop-color="#003d7b"
       stop-opacity="0"
       id="stop4" />
  </linearGradient>
  <filter
     id="b"
     color-interpolation-filters="sRGB"
     height="1.7746795"
     width="1.0220933"
     x="-0.011046656"
     y="-0.38733977">
    <feGaussianBlur
       stdDeviation=".70882694"
       id="feGaussianBlur7" />
  </filter>
  <filter
     id="c"
     color-interpolation-filters="sRGB"
     height="1.7653349"
     width="1.0305619"
     x="-0.015280952"
     y="-0.38266746">
    <feGaussianBlur
       stdDeviation=".70324038"
       id="feGaussianBlur10" />
  </filter>
  <linearGradient
     id="d"
     gradientUnits="userSpaceOnUse"
     x1="9"
     x2="9"
     y1="-7"
     y2="4">
    <stop
       offset="0"
       stop-color="#102134"
       id="stop13" />
    <stop
       offset="1"
       stop-color="#102134"
       stop-opacity="0"
       id="stop15" />
  </linearGradient>
  <clipPath
     id="e">
    <rect
       height="50.571445"
       rx="4"
       width="128.11432"
       x="4"
       y="945.83502"
       id="rect18" />
  </clipPath>
  <filter
     id="f"
     color-interpolation-filters="sRGB"
     height="1.3336958"
     width="1.1170725"
     x="-0.058536237"
     y="-0.16684791">
    <feGaussianBlur
       stdDeviation="3.1247207"
       id="feGaussianBlur21" />
  </filter>
  <linearGradient
     id="g"
     gradientUnits="userSpaceOnUse"
     x1="7.739838"
     x2="8"
     y1="1.357724"
     y2="14">
    <stop
       offset="0"
       stop-color="#587bcb"
       id="stop24" />
    <stop
       offset=".94117647"
       stop-color="#3f59ae"
       id="stop26" />
    <stop
       offset="1"
       stop-color="#3d7cdb"
       id="stop28" />
  </linearGradient>
  <linearGradient
     id="h"
     gradientTransform="matrix(1.375 0 0 1 -1.375 0)"
     gradientUnits="userSpaceOnUse"
     x1="6.5"
     x2="6.5"
     y1="11"
     y2="12">
    <stop
       offset="0"
       stop-color="#2a3674"
       id="stop31" />
    <stop
       offset="1"
       stop-color="#174072"
       stop-opacity="0"
       id="stop33" />
  </linearGradient>
  <linearGradient
     id="i"
     gradientUnits="userSpaceOnUse"
     x1=".37740994"
     x2=".37740994"
     y1="5.21465188477"
     y2="3.30908843966">
    <stop
       offset="0"
       stop-color="#34608f"
       id="stop36" />
    <stop
       offset="1"
       stop-color="#34608f"
       stop-opacity="0"
       id="stop38" />
  </linearGradient>
  <linearGradient
     id="j"
     gradientTransform="matrix(.21345221 0 0 .1138394 -5.411169 -103.22724)"
     gradientUnits="userSpaceOnUse"
     x1="124.01234"
     x2="124.01234"
     y1="966.51019"
     y2="935.34326">
    <stop
       offset="0"
       id="stop41" />
    <stop
       offset="1"
       stop-color="#34608f"
       stop-opacity="0"
       id="stop43" />
  </linearGradient>
  <g
     transform="matrix(.26458333 0 0 .26458333 .264583 1.5875)"
     id="g74">
    <rect
       fill="url(#a)"
       filter="url(#b)"
       height="4.39197"
       opacity=".577143"
       rx="2.439995"
       ry="2.195984"
       transform="matrix(.125 0 0 .25614775 -.125 -251.09298)"
       width="153.99997"
       x="3.000028"
       y="1032.4822"
       id="rect46" />
    <path
       d="m-46.991242 13.13992h102.449726c2.216 0 4 .8652 4 1.94 0 1.0747-1.78433 1.902-4 1.94-36.945183.6329-63.1527685.7782-102.449726 0-2.215566-.044-4-.8653-4-1.94 0-1.0748 1.784-1.94 4-1.94z"
       filter="url(#c)"
       opacity=".554286"
       transform="matrix(.17315572 0 0 .125 9.204424 12.35751)"
       id="path48" />
    <path
       d="m1-3c-.5 0-.4629045.3887135-.5.5l-.5 1.5v5c0 .554.446 1 1 1h17c.554 0 1-.446 1-1v-5c0-.554-.446-1-1-1h-10.0957031c-.0842007-.4859507-.178001-1-.4042969-1z"
       fill="#3b6ca9"
       id="path50" />
    <path
       d="m1-3c-.5 0-.45958958.3898739-.5.5l-.5 1.5v5c0 .554.446 1 1 1v-6l.5-1h5.3828125c.013345.068527.023996.094239.037109.1699219.0826732.4792195.4980774.8295107.9843754.8300781h1.0957031 9v6c.554 0 1-.446 1-1v-5c0-.554-.446-1-1-1h-10.0957031c-.0842007-.4859507-.178001-1-.4042969-1z"
       fill="url(#d)"
       opacity=".25"
       id="path52" />
    <path
       clip-path="url(#e)"
       d="m30.012986 976.64619-26.0129822-.46865.0000002 37.10606 128.114316-.02v-40.3432c0-2.54081-2.0596-4.59317-4.62097-4.58387l-85.480364.31046c-9.375263 0-5.067235 7.84799-12 8z"
       fill="#16375b"
       fill-opacity=".801471"
       filter="url(#f)"
       transform="matrix(.14830504 0 0 .14830504 -.59322 -142.2721)"
       id="path54" />
    <path
       d="m1 3h4.5l1-1h12.5c.554 0 1 .446 1 1v10c0 .554-.446 1-1 1h-18c-.554 0-1-.446-1-1v-9c0-.554.446-1 1-1z"
       fill="url(#g)"
       id="path56" />
    <path
       d="m0 11h20v1h-20z"
       fill="#385da4"
       id="path58" />
    <path
       d="m0 11h20v1h-20z"
       fill="url(#h)"
       id="path60" />
    <path
       d="m0 12h20v.5h-20z"
       fill="#a4c0e8"
       id="path62" />
    <path
       d="m6.5 2-1 1h-4.5c-.554 0-1 .446-1 1v1c0-.554.44603305-.9939512 1-1h4.5l1-1h12.5c.554 0 1 .446 1 1v-1c0-.554-.446004-.9978437-1-1z"
       fill="#a4c0e8"
       id="path64" />
    <path
       d="m2-1h4v.9999999h-4z"
       fill="#fcf9e9"
       id="path66" />
    <path
       d="m5-1h1v.9999999h-1z"
       fill="#fbc66d"
       id="path68" />
    <path
       d="m1 3c-.5505375 0-.9925198.4410516-.9980469.9902344v11.0195316c.00023.02285.0119482-1.958.0136719-1.93555.038109.321065.7510484.923754.984375.925784.0003916.000003.00156 0 .00195 0v-11z"
       fill="url(#i)"
       opacity=".594286"
       id="path70" />
    <path
       d="m19 2v12c.554 0 1-.446 1-1v-10c0-.554-.446-1-1-1z"
       fill="url(#j)"
       opacity=".405714"
       id="path72" />
  </g>
  <path
     inkscape:connector-curvature="0"
     style="display:inline;opacity:1;fill:#2e4f8f;fill-opacity:1;stroke:none;stroke-width:0.0454752;enable-background:new"
     d="m 3.1703027,2.4393945 c -0.036682,5.5e-4 -0.073218,0.012329 -0.1037405,0.032683 l -1.2696124,0.878241 c -0.067215,0.044179 -0.1027349,0.1389996 -0.079582,0.2160073 0.023154,0.077012 0.1059372,0.1380657 0.1861643,0.1378512 h 0.1691111 c 0.023113,0 0.044224,0.020938 0.044054,0.044053 v 0.6573129 0.092374 l 2.1166362,-1e-7 V 4.4055428 3.7482299 c -1.891e-4,-0.023115 0.020941,-0.044221 0.044054,-0.044053 H 4.4464988 C 4.5266198,3.704624 4.6095052,3.6433519 4.6326631,3.5663259 4.6558161,3.4893179 4.6202971,3.3944977 4.5530811,3.3503186 L 3.2797276,2.4720776 C 3.2479421,2.4508861 3.2085046,2.4390444 3.1703027,2.4393945 Z m 0.1851934,1.2647826 h 0.1681995 c 0.099051,0 0.1864157,0.05679 0.1804799,0.1556627 v 0.638077 H 3.1750162 v -0.638077 c 0,-0.09905 0.081429,-0.1556627 0.1804799,-0.1556627 z"
     id="path4602-8"
     sodipodi:nodetypes="cccccsccccccccccccsscccss"
     inkscape:export-filename="/home/rizmut/Dokumen/Rizmut/Github/karasa-jaga-icon-theme/build/Karasa-Jaga/22x22/places/user-home.png"
     inkscape:export-xdpi="96"
     inkscape:export-ydpi="96" />
  <path
     style="display:inline;opacity:1;fill:#2a3c79;fill-opacity:1;stroke:none;stroke-width:0.0454752;enable-background:new"
     d="m 3.1798615,2.4725616 c -0.036682,5.5e-4 -0.073218,0.01233 -0.1037403,0.032685 l -1.2704651,0.878241 c -0.067215,0.044179 -0.102735,0.1389996 -0.079582,0.2160075 0.00634,0.021099 0.018669,0.040493 0.032685,0.058265 0.013032,-0.018077 0.028658,-0.034908 0.046896,-0.046896 l 1.2704651,-0.878241 c 0.030522,-0.020355 0.067058,-0.03214 0.1037403,-0.032685 0.038202,-3.609e-4 0.07764,0.011493 0.1094249,0.032685 l 1.2733072,0.878241 c 0.018204,0.011966 0.033878,0.028862 0.046897,0.046896 0.014025,-0.017793 0.02634,-0.037162 0.032685,-0.058265 C 4.6653286,3.5224875 4.629809,3.4276672 4.5625936,3.3834879 L 3.2892864,2.5052469 C 3.257501,2.4840555 3.2180635,2.4722114 3.1798615,2.4725616 Z"
     id="path3405"
     inkscape:connector-curvature="0"
     sodipodi:nodetypes="cccccccccccsccc"
     inkscape:export-filename="/home/rizmut/Dokumen/Rizmut/Github/karasa-jaga-icon-theme/build/Karasa-Jaga/22x22/places/user-home.png"
     inkscape:export-xdpi="96"
     inkscape:export-ydpi="96" />
</svg>
