<?xml version="1.0" encoding="UTF-8" standalone="no"?>
<svg
   xmlns:dc="http://purl.org/dc/elements/1.1/"
   xmlns:cc="http://creativecommons.org/ns#"
   xmlns:rdf="http://www.w3.org/1999/02/22-rdf-syntax-ns#"
   xmlns:svg="http://www.w3.org/2000/svg"
   xmlns="http://www.w3.org/2000/svg"
   xmlns:sodipodi="http://sodipodi.sourceforge.net/DTD/sodipodi-0.dtd"
   xmlns:inkscape="http://www.inkscape.org/namespaces/inkscape"
   height="24"
   width="24"
   version="1.1"
   id="svg41"
   sodipodi:docname="dialog-scripts.svg"
   inkscape:version="0.92.4 (unknown)"
   inkscape:export-filename="/home/rizmut/Dokumen/Rizmut/Github/karasa-jaga-icon-theme/build/Karasa-Jaga/24x24/actions/dialog-scripts.png"
   inkscape:export-xdpi="96"
   inkscape:export-ydpi="96">
  <metadata
     id="metadata47">
    <rdf:RDF>
      <cc:Work
         rdf:about="">
        <dc:format>image/svg+xml</dc:format>
        <dc:type
           rdf:resource="http://purl.org/dc/dcmitype/StillImage" />
        <dc:title></dc:title>
      </cc:Work>
    </rdf:RDF>
  </metadata>
  <defs
     id="defs45" />
  <sodipodi:namedview
     pagecolor="#ffffff"
     bordercolor="#666666"
     borderopacity="1"
     objecttolerance="10"
     gridtolerance="10"
     guidetolerance="10"
     inkscape:pageopacity="0"
     inkscape:pageshadow="2"
     inkscape:window-width="1366"
     inkscape:window-height="698"
     id="namedview43"
     showgrid="false"
     inkscape:zoom="9.8333333"
     inkscape:cx="-1.9830508"
     inkscape:cy="12"
     inkscape:window-x="0"
     inkscape:window-y="0"
     inkscape:window-maximized="1"
     inkscape:current-layer="g39" />
  <filter
     id="a">
    <feGaussianBlur
       stdDeviation="1.5999062"
       id="feGaussianBlur2" />
  </filter>
  <linearGradient
     id="b"
     gradientTransform="matrix(.08097133 0 0 .117107 78.3735 188.5229)"
     gradientUnits="userSpaceOnUse"
     x1="399.77466"
     x2="399.77466"
     y1="731.09662"
     y2="480.60214">
    <stop
       offset="0"
       stop-color="#cbcbcd"
       id="stop5" />
    <stop
       offset=".5"
       stop-color="#e0e0e2"
       id="stop7" />
    <stop
       offset="1"
       stop-color="#f2f2f2"
       id="stop9" />
  </linearGradient>
  <linearGradient
     id="c"
     gradientTransform="matrix(.08097133 0 0 .117107 158.00215 425.399)"
     gradientUnits="userSpaceOnUse"
     x1="-333.0289"
     x2="-333.0289"
     y1="-1473.6504"
     y2="-776.61371">
    <stop
       offset="0"
       stop-color="#fff"
       id="stop12" />
    <stop
       offset=".49140647"
       stop-color="#fff"
       id="stop14" />
    <stop
       offset="1"
       stop-color="#dcdcdc"
       id="stop16" />
  </linearGradient>
  <g
     transform="matrix(.25 0 0 .25 -19.907163 -57.21902)"
     id="g39">
    <path
       d="m85.017009 244.87505 85.223281-.00002c.76597 0 1.38261.72808 1.38261 1.63246v68.73718c0 .90439-.61664 1.63247-1.38261 1.63247l-85.223281.00002c-.765966 0-1.38261-.72808-1.38261-1.63247v-68.73718c0-.90438.616644-1.63246 1.38261-1.63246z"
       style="opacity:.4;fill:none;stroke:#000;stroke-width:4;stroke-linecap:round;stroke-linejoin:round;stroke-dashoffset:4;filter:url(#a)"
       id="path19" />
    <path
       d="m85.011455 244.8761 85.234385-.00002c.76607 0 1.38281.72806 1.38281 1.63242v68.73516l-88.000003.00002v-68.73516c0-.90436.616732-1.63242 1.382808-1.63242z"
       fill="url(#b)"
       id="path21" />
    <path
       d="m132.17051 259.80938v-1.92136z"
       fill="#fff"
       fill-opacity=".756881"
       id="path23" />
    <path
       d="m85.00365 244.8761c-.766076 0-1.375.72064-1.375 1.625v68.75c0 .90436.608924 1.625 1.375 1.625l85.25-.00002c.76608 0 1.375-.72064 1.375-1.625v-68.75c0-.90436-.60892-1.625-1.375-1.625zm.9375 2.4375 83.375-.00002c.72777 0 1.3125.68271 1.3125 1.53125v65.5c0 .84854-.58473 1.53125-1.3125 1.53125l-83.375.00002c-.727772 0-1.3125-.68271-1.3125-1.53125v-65.5c0-.84854.584728-1.53125 1.3125-1.53125z"
       fill="url(#c)"
       id="path25" />
    <path
       d="m83.62865 264.8761 88-.00002v52l-88 .00002z"
       fill="#fff"
       id="path27" />
    <text
       xml:space="preserve"
       style="font-style:normal;font-variant:normal;font-weight:bold;font-stretch:normal;font-size:8.43345642px;line-height:0%;font-family:'Bitstream Vera Sans';text-align:start;writing-mode:lr-tb;text-anchor:start;fill:#000000;fill-opacity:1;stroke:#000000;stroke-width:0.70278794;stroke-linecap:butt;stroke-linejoin:miter;stroke-miterlimit:4;stroke-dasharray:none;stroke-opacity:1"
       x="109.58109"
       y="258.44189"
       id="text1998"
       transform="scale(0.84384291,1.1850547)"><tspan
         sodipodi:role="line"
         id="tspan2000"
         x="109.58109"
         y="258.44189"
         style="font-size:40.82853699px;line-height:1.25;stroke-width:0.70278794">&lt;/&gt;</tspan></text>
  </g>
</svg>
