<?xml version="1.0" encoding="UTF-8" standalone="no"?>
<svg
   xmlns:dc="http://purl.org/dc/elements/1.1/"
   xmlns:cc="http://creativecommons.org/ns#"
   xmlns:rdf="http://www.w3.org/1999/02/22-rdf-syntax-ns#"
   xmlns:svg="http://www.w3.org/2000/svg"
   xmlns="http://www.w3.org/2000/svg"
   xmlns:xlink="http://www.w3.org/1999/xlink"
   xmlns:sodipodi="http://sodipodi.sourceforge.net/DTD/sodipodi-0.dtd"
   xmlns:inkscape="http://www.inkscape.org/namespaces/inkscape"
   height="24"
   width="24"
   version="1.1"
   id="svg93"
   sodipodi:docname="go-down.svg"
   inkscape:version="0.92.4 (unknown)"
   inkscape:export-filename="/home/rizmut/Dokumen/Rizmut/Github/karasa-jaga-icon-theme/build/Karasa-Jaga/24x24/actions/go-down.png"
   inkscape:export-xdpi="96"
   inkscape:export-ydpi="96">
  <metadata
     id="metadata99">
    <rdf:RDF>
      <cc:Work
         rdf:about="">
        <dc:format>image/svg+xml</dc:format>
        <dc:type
           rdf:resource="http://purl.org/dc/dcmitype/StillImage" />
        <dc:title></dc:title>
      </cc:Work>
    </rdf:RDF>
  </metadata>
  <defs
     id="defs97">
    <linearGradient
       inkscape:collect="always"
       xlink:href="#c"
       id="linearGradient924"
       gradientUnits="userSpaceOnUse"
       gradientTransform="matrix(1,0,0,0.8610463,-108.16138,-1.436187)"
       x1="223.32712"
       y1="53.784153"
       x2="226.659"
       y2="57.279232"
       spreadMethod="reflect" />
  </defs>
  <sodipodi:namedview
     pagecolor="#ffffff"
     bordercolor="#666666"
     borderopacity="1"
     objecttolerance="10"
     gridtolerance="10"
     guidetolerance="10"
     inkscape:pageopacity="0"
     inkscape:pageshadow="2"
     inkscape:window-width="1366"
     inkscape:window-height="714"
     id="namedview95"
     showgrid="true"
     inkscape:zoom="9.8333333"
     inkscape:cx="19.591356"
     inkscape:cy="10.521307"
     inkscape:window-x="0"
     inkscape:window-y="28"
     inkscape:window-maximized="1"
     inkscape:current-layer="g922">
    <inkscape:grid
       type="xygrid"
       id="grid906" />
  </sodipodi:namedview>
  <linearGradient
     id="a"
     gradientTransform="matrix(1,0,0,0.8610463,-108.16138,-1.436187)"
     gradientUnits="userSpaceOnUse"
     spreadMethod="reflect"
     x1="223.32712"
     x2="226.659"
     xlink:href="#c"
     y1="53.784153"
     y2="57.279232" />
  <linearGradient
     id="b">
    <stop
       offset="0"
       stop-color="#002a0d"
       stop-opacity=".914439"
       id="stop3" />
    <stop
       offset="1"
       stop-color="#002a0d"
       stop-opacity="0"
       id="stop5" />
  </linearGradient>
  <linearGradient
     id="c">
    <stop
       offset="0"
       stop-color="#fff"
       id="stop8" />
    <stop
       offset="1"
       stop-color="#fff"
       stop-opacity="0"
       id="stop10" />
  </linearGradient>
  <filter
     id="d"
     height="1.255079"
     width="1.231461"
     x="-.11573"
     y="-.12754">
    <feGaussianBlur
       stdDeviation=".32549158"
       id="feGaussianBlur13" />
  </filter>
  <linearGradient
     id="e"
     gradientTransform="matrix(1,0,0,0.8610463,-108.16138,-1.436187)"
     gradientUnits="userSpaceOnUse"
     spreadMethod="reflect"
     x1="223.32712"
     x2="226.659"
     y1="53.784153"
     y2="57.279232">
    <stop
       offset="0"
       stop-color="#cdeeff"
       id="stop16" />
    <stop
       offset="1"
       stop-color="#d2e8ed"
       stop-opacity="0"
       id="stop18" />
  </linearGradient>
  <linearGradient
     id="f"
     gradientUnits="userSpaceOnUse"
     x1="15.428552"
     x2="15.428552"
     y1=".138914"
     y2="15.078377"
     gradientTransform="translate(2.499999,-1.499999)">
    <stop
       offset="0"
       stop-color="#edffbf"
       id="stop21" />
    <stop
       offset="1"
       stop-color="#edffbf"
       stop-opacity="0"
       id="stop23" />
  </linearGradient>
  <linearGradient
     id="g">
    <stop
       offset="0"
       stop-color="#f0ff80"
       id="stop26" />
    <stop
       offset="1"
       stop-color="#f0ff80"
       stop-opacity="0"
       id="stop28" />
  </linearGradient>
  <radialGradient
     id="h"
     cx="11.578125"
     cy="64.53125"
     gradientTransform="matrix(6.5079869,0,0,1.510917,-63.772161,-32.970115)"
     gradientUnits="userSpaceOnUse"
     r="3.578125"
     xlink:href="#c" />
  <radialGradient
     id="i"
     cx="12.535517"
     cy="10.370974"
     gradientTransform="matrix(2.3152882,0.11576427,-0.10526303,2.1052631,-20.931461,-13.284793)"
     gradientUnits="userSpaceOnUse"
     r="9.5"
     fx="12.535517"
     fy="10.370974">
    <stop
       offset="0"
       stop-color="#83fc28"
       id="stop32" />
    <stop
       offset="1"
       stop-color="#102c07"
       id="stop34" />
  </radialGradient>
  <radialGradient
     id="j"
     cx="10.759766"
     cy="15.06706"
     gradientTransform="matrix(0.59220712,-0.04999318,0.07235929,0.85715077,3.297514,2.623172)"
     gradientUnits="userSpaceOnUse"
     r="10.499903">
    <stop
       offset="0"
       stop-color="#002a0d"
       id="stop37" />
    <stop
       offset="1"
       stop-color="#002a0d"
       stop-opacity="0"
       id="stop39" />
  </radialGradient>
  <radialGradient
     id="k"
     cx="-1.281694"
     cy="20.198025"
     gradientTransform="matrix(0.59220712,-0.04999318,0.07235929,0.85715077,3.297514,2.623172)"
     gradientUnits="userSpaceOnUse"
     r="10.499903"
     xlink:href="#b" />
  <linearGradient
     id="l"
     gradientUnits="userSpaceOnUse"
     x1="8"
     x2="12"
     y1="28"
     y2="-2">
    <stop
       offset="0"
       stop-color="#005f1e"
       id="stop43" />
    <stop
       offset="1"
       stop-color="#43943c"
       id="stop45" />
  </linearGradient>
  <linearGradient
     id="m"
     gradientUnits="userSpaceOnUse"
     x1="0.000193"
     x2="32.000195"
     y1="7"
     y2="8">
    <stop
       offset="0"
       stop-color="#b2ff00"
       id="stop48" />
    <stop
       offset="1"
       stop-color="#acff00"
       stop-opacity="0"
       id="stop50" />
  </linearGradient>
  <filter
     id="n"
     color-interpolation-filters="sRGB"
     height="1.031622"
     width="1.03079"
     x="-.015395"
     y="-.015811">
    <feGaussianBlur
       stdDeviation=".121875"
       id="feGaussianBlur53" />
  </filter>
  <radialGradient
     id="o"
     cx="11.578125"
     cy="64.53125"
     gradientTransform="matrix(6.5079869,0,0,1.510917,-63.772161,-32.970115)"
     gradientUnits="userSpaceOnUse"
     r="3.578125"
     xlink:href="#g" />
  <linearGradient
     id="p"
     gradientTransform="matrix(1,0,0,0.8610463,-108.16138,-1.436187)"
     gradientUnits="userSpaceOnUse"
     spreadMethod="reflect"
     x1="223.32712"
     x2="226.659"
     xlink:href="#g"
     y1="53.784153"
     y2="57.279232" />
  <filter
     id="q"
     color-interpolation-filters="sRGB"
     height="1.300108"
     width="1.453439"
     x="-.226719"
     y="-.150054">
    <feGaussianBlur
       stdDeviation=".67602533"
       id="feGaussianBlur58" />
  </filter>
  <filter
     id="r"
     color-interpolation-filters="sRGB"
     height="1.298121"
     width="1.450436"
     x="-.225218"
     y="-.14906">
    <feGaussianBlur
       stdDeviation=".67154834"
       id="feGaussianBlur61" />
  </filter>
  <radialGradient
     id="s"
     cx="13.13153"
     cy="8.902117"
     gradientTransform="matrix(0.59220712,-0.04999318,0.07235929,0.85715077,3.297514,2.623172)"
     gradientUnits="userSpaceOnUse"
     r="10.499903"
     xlink:href="#b" />
  <g
     id="g922"
     transform="matrix(0,-1,-1,0,24,24.000193)">
    <path
       id="path65"
       d="M 11.484375,2 C 11.23503,2.00381 10.996103,2.1006324 10.814453,2.2714844 L 2.3144531,10.271484 c -0.00727,0.0071 -0.014432,0.01422 -0.021484,0.02149 l -1,1 c -0.39036806,0.39053 -0.39036806,1.023532 0,1.414062 l 1,1 1,1 7.4999999,7.5 c 0.39053,0.390368 1.023532,0.390368 1.414062,0 l 2,-2 c 0.376953,-0.377263 0.39156,-0.983939 0.0332,-1.378906 L 10.759766,15 H 22 c 0.552262,-5.5e-5 0.999945,-0.447738 1,-1 V 10 C 22.999945,9.4477381 22.552262,9.0000552 22,9 H 10.914062 l 3.292969,-3.2929688 c 0.390368,-0.3905299 0.390368,-1.0235325 0,-1.4140624 l -2,-2 C 12.015708,2.101557 11.754978,1.9958557 11.484375,2 Z"
       style="fill:url(#l)"
       inkscape:connector-curvature="0" />
    <path
       id="path67"
       d="M 11.484375,2 C 11.23503,2.00381 10.996103,2.1006324 10.814453,2.2714844 L 3.6660156,9 3,9.6269531 2.3144531,10.271484 c -0.00727,0.0071 -0.014432,0.01422 -0.021484,0.02149 l -1,1 c -0.39036806,0.39053 -0.39036806,1.023532 0,1.414062 l 1,1 1,1 7.4999999,7.5 c 0.39053,0.390368 1.023532,0.390368 1.414062,0 l 2,-2 c 0.376953,-0.377263 0.39156,-0.983939 0.0332,-1.378906 L 10.759766,15 H 22 c 0.552262,-5.5e-5 0.999945,-0.447738 1,-1 V 10 C 22.999945,9.4477381 22.552262,9.0000552 22,9 H 10.914062 l 3.292969,-3.2929688 c 0.390368,-0.3905299 0.390368,-1.0235325 0,-1.4140624 l -2,-2 C 12.015708,2.101557 11.754978,1.9958557 11.484375,2 Z"
       style="fill:url(#j)"
       inkscape:connector-curvature="0" />
    <path
       id="path69"
       d="M 11.484375,2 C 11.23503,2.00381 10.996103,2.1006324 10.814453,2.2714844 L 3.6660156,9 3,9.6269531 2.3144531,10.271484 c -0.00727,0.0071 -0.014432,0.01422 -0.021484,0.02149 l -1,1 c -0.39036806,0.39053 -0.39036806,1.023532 0,1.414062 l 1,1 1,1 7.4999999,7.5 c 0.39053,0.390368 1.023532,0.390368 1.414062,0 l 2,-2 c 0.376953,-0.377263 0.39156,-0.983939 0.0332,-1.378906 L 10.759766,15 H 22 c 0.552262,-5.5e-5 0.999945,-0.447738 1,-1 V 10 C 22.999945,9.4477381 22.552262,9.0000552 22,9 H 10.914062 l 3.292969,-3.2929688 c 0.390368,-0.3905299 0.390368,-1.0235325 0,-1.4140624 l -2,-2 C 12.015708,2.101557 11.754978,1.9958557 11.484375,2 Z"
       style="opacity:0.25;fill:url(#k)"
       inkscape:connector-curvature="0" />
    <path
       id="path71"
       d="M 11.484375,2 C 11.23503,2.00381 10.996103,2.1006324 10.814453,2.2714844 L 3.6660156,9 3,9.6269531 2.3144531,10.271484 c -0.00727,0.0071 -0.014432,0.01422 -0.021484,0.02149 l -1,1 c -0.39036806,0.39053 -0.39036806,1.023532 0,1.414062 l 1,1 1,1 7.4999999,7.5 c 0.39053,0.390368 1.023532,0.390368 1.414062,0 l 2,-2 c 0.376953,-0.377263 0.39156,-0.983939 0.0332,-1.378906 L 10.759766,15 H 22 c 0.552262,-5.5e-5 0.999945,-0.447738 1,-1 V 10 C 22.999945,9.4477381 22.552262,9.0000552 22,9 H 10.914062 l 3.292969,-3.2929688 c 0.390368,-0.3905299 0.390368,-1.0235325 0,-1.4140624 l -2,-2 C 12.015708,2.101557 11.754978,1.9958557 11.484375,2 Z"
       style="fill:url(#s)"
       inkscape:connector-curvature="0" />
    <g
       id="g81"
       style="fill-rule:evenodd">
      <path
         id="path73"
         transform="matrix(0.171875,0,0,-0.171875,2.055312,21.694922)"
         d="m 115.65112,40 c -0.33944,1.154561 -2.5625,6.125 -2.5625,6.125 l 6.75,-0.03125 V 44 c 7.6e-4,-2.05105 -1.61796,-4.000656 -4,-4 z"
         style="opacity:0.61423202;fill:url(#e);filter:url(#d)"
         inkscape:connector-curvature="0" />
      <path
         id="path75"
         transform="matrix(-0.00487818,-0.17180577,-0.17180577,0.00487818,30.245915,29.652372)"
         d="m 115.65112,40 c -0.33944,1.154561 -2.5625,6.125 -2.5625,6.125 l 6.75,-0.03125 V 44 c 7.6e-4,-2.05105 -1.61796,-4.000656 -4,-4 z"
         style="opacity:0.74906401;fill:url(#linearGradient924);filter:url(#d)"
         inkscape:connector-curvature="0" />
      <path
         id="path77"
         transform="matrix(-0.09012751,-0.14634907,-0.14634907,0.09012751,28.369102,15.788337)"
         d="m 115.65112,40 c -0.33944,1.154561 -2.5625,6.125 -2.5625,6.125 l 6.75,-0.03125 V 44 c 7.6e-4,-2.05105 -1.61796,-4.000656 -4,-4 z"
         style="opacity:0.74906401;fill:url(#a);filter:url(#d)"
         inkscape:connector-curvature="0" />
      <path
         id="path79"
         transform="matrix(-0.09012751,0.14634907,-0.14634907,-0.09012751,28.394526,8.673748)"
         d="m 115.65112,40 c -0.33944,1.154561 -2.5625,6.125 -2.5625,6.125 l 6.75,-0.03125 V 44 c 7.6e-4,-2.05105 -1.61796,-4.000656 -4,-4 z"
         style="opacity:0.74906401;fill:url(#p);filter:url(#d)"
         inkscape:connector-curvature="0" />
    </g>
    <path
       id="path83"
       d="M 11.5,3 4.0625,10 H 4 v 0.05859 L 3,11 l -1,1 1,1 1,1 7.5,7.5 2,-2 -5,-5.5 H 22 V 10 H 8.5 l 5,-5 z"
       style="fill:url(#i)"
       inkscape:connector-curvature="0" />
    <path
       id="path85"
       transform="matrix(-0.1611048,0,0,-0.15560479,15.652148,14.964029)"
       d="M 11.6875,59.125 9.5,60.875 C 8.5501441,61.634129 8,62.784063 8,64 c 10e-8,1.215937 0.5501441,2.365871 1.5,3.125 l 3.53125,2.8125 2.125,-5.625 z"
       style="fill:url(#h);fill-rule:evenodd;filter:url(#r)"
       inkscape:connector-curvature="0" />
    <path
       id="path87"
       d="M 11.5,3 4.0625,10 H 4 v 0.05859 L 3,11 l -1,1 1,1 1,1 7.5,7.5 2,-2 -5,-5.5 H 22 V 10 H 8.5 l 5,-5 z"
       style="fill:none;stroke:url(#m);stroke-width:0.5;filter:url(#n)"
       inkscape:connector-curvature="0" />
    <path
       style="fill:url(#f)"
       d="M 10 2 L 10 10.332031 L 11 10.642578 C 12.001383 10.599435 13.003377 10.525193 14 10.435547 L 14 2 L 10 2 z "
       transform="matrix(0,-1,-1,0,24.000193,24)"
       id="path89" />
    <path
       id="path91"
       transform="matrix(-0.1611048,0,0,-0.15560479,15.595131,29.464029)"
       d="M 11.6875,59.125 9.5,60.875 C 8.5501441,61.634129 8,62.784063 8,64 c 10e-8,1.215937 0.5501441,2.365871 1.5,3.125 l 3.53125,2.8125 2.125,-5.625 z"
       style="fill:url(#o);fill-rule:evenodd;filter:url(#q)"
       inkscape:connector-curvature="0" />
  </g>
</svg>
