<?xml version="1.0" encoding="UTF-8" standalone="no"?>
<!-- Created with Inkscape (http://www.inkscape.org/) -->

<svg
   xmlns:dc="http://purl.org/dc/elements/1.1/"
   xmlns:cc="http://creativecommons.org/ns#"
   xmlns:rdf="http://www.w3.org/1999/02/22-rdf-syntax-ns#"
   xmlns:svg="http://www.w3.org/2000/svg"
   xmlns="http://www.w3.org/2000/svg"
   xmlns:xlink="http://www.w3.org/1999/xlink"
   xmlns:sodipodi="http://sodipodi.sourceforge.net/DTD/sodipodi-0.dtd"
   xmlns:inkscape="http://www.inkscape.org/namespaces/inkscape"
   version="1.0"
   width="24"
   height="24"
   id="svg2606"
   sodipodi:docname="go-previous.svg"
   inkscape:version="0.92.4 (unknown)">
  <metadata
     id="metadata101">
    <rdf:RDF>
      <cc:Work
         rdf:about="">
        <dc:format>image/svg+xml</dc:format>
        <dc:type
           rdf:resource="http://purl.org/dc/dcmitype/StillImage" />
        <dc:title></dc:title>
      </cc:Work>
    </rdf:RDF>
  </metadata>
  <sodipodi:namedview
     pagecolor="#ffffff"
     bordercolor="#666666"
     borderopacity="1"
     objecttolerance="10"
     gridtolerance="10"
     guidetolerance="10"
     inkscape:pageopacity="0"
     inkscape:pageshadow="2"
     inkscape:window-width="1366"
     inkscape:window-height="706"
     id="namedview99"
     showgrid="true"
     inkscape:zoom="7.375"
     inkscape:cx="8.7665491"
     inkscape:cy="10.05062"
     inkscape:window-x="0"
     inkscape:window-y="0"
     inkscape:window-maximized="1"
     inkscape:current-layer="svg2606"
     inkscape:snap-global="false">
    <inkscape:grid
       type="xygrid"
       id="grid927" />
  </sodipodi:namedview>
  <defs
     id="defs2608">
    <linearGradient
       inkscape:collect="always"
       id="linearGradient1425">
      <stop
         style="stop-color:#83fc28;stop-opacity:1"
         offset="0"
         id="stop1421" />
      <stop
         style="stop-color:#102c07;stop-opacity:1"
         offset="1"
         id="stop1423" />
    </linearGradient>
    <linearGradient
       id="linearGradient1224">
      <stop
         offset="0"
         style="stop-color:#d5ffd9;stop-opacity:1"
         id="stop1220" />
      <stop
         offset="1"
         style="stop-color:#ffffff;stop-opacity:0"
         id="stop1222" />
    </linearGradient>
    <linearGradient
       inkscape:collect="always"
       id="linearGradient1212">
      <stop
         style="stop-color:#002a0d;stop-opacity:0.9144385"
         offset="0"
         id="stop1208" />
      <stop
         style="stop-color:#002a0d;stop-opacity:0;"
         offset="1"
         id="stop1210" />
    </linearGradient>
    <linearGradient
       id="linearGradient3449">
      <stop
         id="stop3451"
         style="stop-color:#000000;stop-opacity:1"
         offset="0" />
      <stop
         id="stop3453"
         style="stop-color:#000000;stop-opacity:0"
         offset="1" />
    </linearGradient>
    <linearGradient
       id="linearGradient3295">
      <stop
         id="stop3297"
         style="stop-color:#63e9ff;stop-opacity:1"
         offset="0" />
      <stop
         id="stop3299"
         style="stop-color:#ffffff;stop-opacity:0"
         offset="1" />
    </linearGradient>
    <linearGradient
       id="linearGradient3260">
      <stop
         id="stop3262"
         style="stop-color:#ffffff;stop-opacity:1"
         offset="0" />
      <stop
         id="stop3264"
         style="stop-color:#ffffff;stop-opacity:0"
         offset="1" />
    </linearGradient>
    <linearGradient
       id="linearGradient3202">
      <stop
         id="stop3204"
         style="stop-color:#cdeeff;stop-opacity:1"
         offset="0" />
      <stop
         id="stop3206"
         style="stop-color:#d2e8ed;stop-opacity:0"
         offset="1" />
    </linearGradient>
    <radialGradient
       cx="48"
       cy="-0.2148"
       r="55.147999"
       id="XMLID_4_"
       gradientUnits="userSpaceOnUse"
       gradientTransform="matrix(0.9792,0,0,0.9725,133.0002,20.8762)">
      <stop
         id="stop3082"
         style="stop-color:#72d13d;stop-opacity:1"
         offset="0" />
      <stop
         id="stop3084"
         style="stop-color:#35ac1c;stop-opacity:1"
         offset="0.35530001" />
      <stop
         id="stop3086"
         style="stop-color:#0f9508;stop-opacity:1"
         offset="0.61940002" />
      <stop
         id="stop3088"
         style="stop-color:#008c00;stop-opacity:1"
         offset="0.75739998" />
      <stop
         id="stop3090"
         style="stop-color:#007a00;stop-opacity:1"
         offset="1" />
    </radialGradient>
    <radialGradient
       cx="172"
       cy="76"
       r="56"
       fx="172"
       fy="76"
       id="radialGradient3629"
       xlink:href="#XMLID_4_"
       gradientUnits="userSpaceOnUse"
       gradientTransform="matrix(1,0,0,1.1383929,0,-10.517857)" />
    <radialGradient
       cx="172"
       cy="76"
       r="56"
       fx="188.88173"
       fy="121.44213"
       id="radialGradient3213"
       xlink:href="#linearGradient6666"
       gradientUnits="userSpaceOnUse"
       gradientTransform="matrix(0.171875,0,0,0.16846172,-38.561875,-0.80309082)" />
    <linearGradient
       x1="73.742638"
       y1="15.336544"
       x2="78.939339"
       y2="16.750759"
       id="linearGradient3301"
       xlink:href="#linearGradient3260"
       gradientUnits="userSpaceOnUse"
       gradientTransform="translate(9.84)"
       spreadMethod="reflect" />
    <filter
       id="filter3387"
       height="1.249912"
       y="-0.12495601"
       width="1.2041403"
       x="-0.10207015">
      <feGaussianBlur
         id="feGaussianBlur3389"
         stdDeviation="0.44655691"
         inkscape:collect="always" />
    </filter>
    <linearGradient
       x1="74.75"
       y1="14.275884"
       x2="78.939339"
       y2="16.750759"
       id="linearGradient3393"
       xlink:href="#linearGradient3295"
       gradientUnits="userSpaceOnUse"
       spreadMethod="reflect" />
    <linearGradient
       x1="194.5"
       y1="123.90683"
       x2="104.25"
       y2="5.1559582"
       id="linearGradient3409"
       xlink:href="#linearGradient6404"
       gradientUnits="userSpaceOnUse"
       gradientTransform="matrix(0.171875,0,0,0.14799233,-38.561875,0.75315541)" />
    <filter
       id="filter3443"
       height="1.2550792"
       y="-0.12753956"
       width="1.2314607"
       x="-0.11573034">
      <feGaussianBlur
         id="feGaussianBlur3445"
         stdDeviation="0.32549158"
         inkscape:collect="always" />
    </filter>
    <radialGradient
       cx="72.020813"
       cy="66.344505"
       r="60"
       fx="72.020813"
       fy="66.344505"
       id="radialGradient3455"
       xlink:href="#linearGradient3449"
       gradientUnits="userSpaceOnUse"
       gradientTransform="matrix(0.0999674,0.00303835,-0.00463826,0.1526075,-17.510933,12.023454)" />
    <linearGradient
       x1="223.32712"
       y1="53.784153"
       x2="226.659"
       y2="57.279232"
       id="linearGradient3521"
       xlink:href="#linearGradient3202"
       gradientUnits="userSpaceOnUse"
       gradientTransform="matrix(1,0,0,0.8610463,-108.16138,-1.4361867)"
       spreadMethod="reflect" />
    <linearGradient
       x1="179.17224"
       y1="123.75864"
       x2="173.98071"
       y2="65.448112"
       id="linearGradient2226"
       xlink:href="#linearGradient3295"
       gradientUnits="userSpaceOnUse" />
    <linearGradient
       x1="223.32712"
       y1="53.784153"
       x2="226.659"
       y2="57.279232"
       id="linearGradient3530"
       xlink:href="#linearGradient3260"
       gradientUnits="userSpaceOnUse"
       gradientTransform="matrix(1,0,0,0.8610463,-108.16138,-1.4361867)"
       spreadMethod="reflect" />
    <radialGradient
       cx="-16.668488"
       cy="86.826965"
       r="60"
       fx="-16.668488"
       fy="86.826965"
       id="radialGradient3534"
       xlink:href="#linearGradient3449"
       gradientUnits="userSpaceOnUse"
       gradientTransform="matrix(0.04445731,-0.0895894,0.14221529,0.07057206,-26.107718,9.6033054)" />
    <radialGradient
       cx="77.533371"
       cy="74.979416"
       r="43.474762"
       fx="88.042809"
       fy="51.592991"
       id="radialGradient3139"
       xlink:href="#linearGradient2990"
       gradientUnits="userSpaceOnUse"
       gradientTransform="matrix(-0.4961056,0.4409829,-0.7360594,-0.8280666,-11.726835,87.897058)"
       spreadMethod="reflect" />
    <clipPath
       id="clipPath3135">
      <path
         d="m -97.32181,27.94375 c -10.23931,10e-7 -20.46922,3.874426 -28.23381,11.639012 -8.00722,8.007231 -11.88924,18.639851 -11.63901,29.196647 v 28.042632 c 0,4.051739 3.2545,7.306239 7.30624,7.306239 h 65.133155 c 4.05174,0 7.30624,-3.2545 7.30624,-7.306239 V 68.779409 c 0.25023,-10.556797 -3.63178,-21.189416 -11.639006,-29.196647 -7.76458,-7.764591 -17.994496,-11.639013 -28.233809,-11.639012 z m 0,15.537264 c 6.339352,10e-7 12.688275,2.436886 17.557634,7.306242 4.811426,4.811424 7.248997,11.046126 7.306242,17.302765 h -49.699436 c 0.0572,-6.25664 2.46651,-12.491342 7.27793,-17.302765 4.86936,-4.869361 11.21828,-7.306243 17.55763,-7.306242 z"
         id="path3137"
         style="fill:url(#radialGradient3139);fill-opacity:1;stroke:none;stroke-width:16.49500084;stroke-linecap:round;stroke-linejoin:round;stroke-miterlimit:4;stroke-dasharray:none;stroke-dashoffset:4.1500001;stroke-opacity:1"
         inkscape:connector-curvature="0" />
    </clipPath>
    <radialGradient
       cx="77.533371"
       cy="74.979416"
       r="43.474762"
       fx="88.042809"
       fy="51.592991"
       id="radialGradient3133"
       xlink:href="#linearGradient2990"
       gradientUnits="userSpaceOnUse"
       gradientTransform="matrix(-0.4961056,0.4409829,-0.7360594,-0.8280666,-99.14147,87.897058)"
       spreadMethod="reflect" />
    <clipPath
       id="clipPath3129">
      <path
         d="m -184.73645,27.94375 c -10.23931,10e-7 -20.46922,3.874426 -28.23381,11.639012 -8.00722,8.007231 -11.88924,18.639851 -11.63901,29.196647 v 28.042632 c 0,4.051739 3.2545,7.306239 7.30624,7.306239 h 65.13316 c 4.05174,0 7.30624,-3.2545 7.30624,-7.306239 V 68.779409 c 0.25023,-10.556797 -3.63178,-21.189416 -11.63901,-29.196647 -7.76458,-7.764591 -17.99449,-11.639013 -28.23381,-11.639012 z m 0,15.537264 c 6.33936,10e-7 12.68828,2.436886 17.55764,7.306242 4.81142,4.811424 7.249,11.046126 7.30624,17.302765 h -49.69944 c 0.0573,-6.25664 2.46651,-12.491342 7.27793,-17.302765 4.86936,-4.869361 11.21828,-7.306243 17.55763,-7.306242 z"
         id="path3131"
         style="fill:url(#radialGradient3133);fill-opacity:1;stroke:none;stroke-width:16.49500084;stroke-linecap:round;stroke-linejoin:round;stroke-miterlimit:4;stroke-dasharray:none;stroke-dashoffset:4.1500001;stroke-opacity:1"
         inkscape:connector-curvature="0" />
    </clipPath>
    <radialGradient
       cx="63.041775"
       cy="74.979408"
       r="43.474762"
       fx="73.551216"
       fy="51.592991"
       id="radialGradient2409"
       xlink:href="#linearGradient2990"
       gradientUnits="userSpaceOnUse"
       gradientTransform="matrix(-1.1040885,0.8280667,-0.6647496,-0.8863327,191.44623,62.253906)"
       spreadMethod="reflect" />
    <linearGradient
       x1="60.402065"
       y1="64.076149"
       x2="60.402065"
       y2="-20.962214"
       id="linearGradient3289"
       xlink:href="#linearGradient6674"
       gradientUnits="userSpaceOnUse" />
    <linearGradient
       x1="-60.945251"
       y1="105.83054"
       x2="-60"
       y2="8"
       id="linearGradient3243"
       xlink:href="#linearGradient3237"
       gradientUnits="userSpaceOnUse" />
    <linearGradient
       x1="115.76678"
       y1="71.084908"
       x2="31.376678"
       y2="21.03125"
       id="linearGradient3233"
       xlink:href="#linearGradient6446"
       gradientUnits="userSpaceOnUse"
       gradientTransform="translate(0.2332229,1.9150941)" />
    <linearGradient
       x1="59.225807"
       y1="7.8973217"
       x2="59.225807"
       y2="46.228859"
       id="linearGradient3231"
       xlink:href="#linearGradient6446"
       gradientUnits="userSpaceOnUse"
       gradientTransform="translate(0.2623629,1)" />
    <linearGradient
       x1="64"
       y1="-26.936626"
       x2="74.447762"
       y2="82.029854"
       id="linearGradient2816"
       xlink:href="#linearGradient6446"
       gradientUnits="userSpaceOnUse" />
    <linearGradient
       x1="19.096775"
       y1="50.580647"
       x2="19.934336"
       y2="88.633484"
       id="linearGradient6680"
       xlink:href="#linearGradient6674"
       gradientUnits="userSpaceOnUse" />
    <linearGradient
       x1="62.038712"
       y1="15.91371"
       x2="62.038712"
       y2="50.728985"
       id="linearGradient6649"
       xlink:href="#linearGradient6643"
       gradientUnits="userSpaceOnUse"
       gradientTransform="translate(0,3)" />
    <linearGradient
       x1="55.329033"
       y1="112"
       x2="55.329033"
       y2="74.913147"
       id="linearGradient6637"
       xlink:href="#linearGradient6631"
       gradientUnits="userSpaceOnUse" />
    <linearGradient
       x1="21.094994"
       y1="21.101994"
       x2="13.96104"
       y2="28.235947"
       id="linearGradient6472"
       xlink:href="#linearGradient6446"
       gradientUnits="userSpaceOnUse"
       gradientTransform="translate(0.4129032,0.6193548)"
       spreadMethod="reflect" />
    <linearGradient
       x1="21.094994"
       y1="21.101994"
       x2="13.96104"
       y2="28.235947"
       id="linearGradient6470"
       xlink:href="#linearGradient6446"
       gradientUnits="userSpaceOnUse"
       gradientTransform="translate(0.4129032,0.6193548)"
       spreadMethod="reflect" />
    <linearGradient
       x1="21.094994"
       y1="21.101994"
       x2="15.126888"
       y2="27.070099"
       id="linearGradient6464"
       xlink:href="#linearGradient6446"
       gradientUnits="userSpaceOnUse"
       gradientTransform="translate(0.4129032,0.6193548)"
       spreadMethod="reflect" />
    <linearGradient
       x1="21.094994"
       y1="21.101994"
       x2="15.189133"
       y2="27.007854"
       id="linearGradient6452"
       xlink:href="#linearGradient6446"
       gradientUnits="userSpaceOnUse"
       gradientTransform="translate(-7.5870968,-7.3806452)"
       spreadMethod="reflect" />
    <linearGradient
       x1="32"
       y1="88"
       x2="24"
       y2="-24"
       id="linearGradient6410"
       xlink:href="#linearGradient6404"
       gradientUnits="userSpaceOnUse" />
    <radialGradient
       cx="42.700352"
       cy="103.5803"
       r="42.559486"
       fx="42.700352"
       fy="103.5803"
       id="radialGradient9692"
       xlink:href="#linearGradient6666"
       gradientUnits="userSpaceOnUse"
       gradientTransform="matrix(1.3965253,0.00698315,-0.0077815,1.5561835,-122.82611,-69.698616)"
       spreadMethod="pad" />
    <linearGradient
       id="linearGradient6404">
      <stop
         id="stop6406"
         style="stop-color:#081e3e;stop-opacity:1"
         offset="0" />
      <stop
         id="stop6408"
         style="stop-color:#387de4;stop-opacity:1"
         offset="1" />
    </linearGradient>
    <linearGradient
       id="linearGradient6446">
      <stop
         id="stop6448"
         style="stop-color:#ffffff;stop-opacity:1"
         offset="0" />
      <stop
         id="stop6450"
         style="stop-color:#ffffff;stop-opacity:0"
         offset="1" />
    </linearGradient>
    <linearGradient
       id="linearGradient6631">
      <stop
         id="stop6633"
         style="stop-color:#703700;stop-opacity:1"
         offset="0" />
      <stop
         id="stop6635"
         style="stop-color:#bf5e00;stop-opacity:0"
         offset="1" />
    </linearGradient>
    <linearGradient
       id="linearGradient6643">
      <stop
         id="stop6645"
         style="stop-color:#fffddc;stop-opacity:1"
         offset="0" />
      <stop
         id="stop6647"
         style="stop-color:#ffdfbf;stop-opacity:0"
         offset="1" />
    </linearGradient>
    <linearGradient
       id="linearGradient6666">
      <stop
         id="stop6668"
         style="stop-color:#9fc1f2;stop-opacity:1"
         offset="0" />
      <stop
         id="stop3183"
         style="stop-color:#587eb5;stop-opacity:1"
         offset="0.5" />
      <stop
         id="stop6670"
         style="stop-color:#0c2a58;stop-opacity:1"
         offset="1" />
    </linearGradient>
    <linearGradient
       id="linearGradient6674">
      <stop
         id="stop6676"
         style="stop-color:#001648;stop-opacity:1"
         offset="0" />
      <stop
         id="stop6678"
         style="stop-color:#11a9ff;stop-opacity:0"
         offset="1" />
    </linearGradient>
    <linearGradient
       id="linearGradient3237">
      <stop
         id="stop3239"
         style="stop-color:#d5e6ff;stop-opacity:1"
         offset="0" />
      <stop
         id="stop3241"
         style="stop-color:#ffffff;stop-opacity:0"
         offset="1" />
    </linearGradient>
    <linearGradient
       id="linearGradient2990">
      <stop
         id="stop2992"
         style="stop-color:#d7d7d7;stop-opacity:1"
         offset="0" />
      <stop
         id="stop2994"
         style="stop-color:#ffffff;stop-opacity:1"
         offset="1" />
    </linearGradient>
    <filter
       id="filter3187">
      <feGaussianBlur
         id="feGaussianBlur3189"
         stdDeviation="0.56525828"
         inkscape:collect="always" />
    </filter>
    <radialGradient
       cx="172"
       cy="76"
       r="56"
       fx="172"
       fy="76"
       id="radialGradient3236"
       xlink:href="#XMLID_4_"
       gradientUnits="userSpaceOnUse"
       gradientTransform="matrix(1,0,0,1.1383929,0,-10.517857)" />
    <linearGradient
       x1="179.17224"
       y1="123.75864"
       x2="173.98071"
       y2="65.448112"
       id="linearGradient3240"
       xlink:href="#linearGradient3295"
       gradientUnits="userSpaceOnUse" />
    <radialGradient
       cx="172"
       cy="76"
       r="56"
       fx="172"
       fy="76"
       id="radialGradient2420"
       xlink:href="#XMLID_4_"
       gradientUnits="userSpaceOnUse"
       gradientTransform="matrix(1,0,0,1.1383929,0,-10.517857)" />
    <linearGradient
       x1="87.300003"
       y1="17.42"
       x2="87.300003"
       y2="81.440002"
       id="linearGradient3009"
       xlink:href="#linearGradient3361"
       gradientUnits="userSpaceOnUse"
       gradientTransform="matrix(0.23335617,0,0,0.23335617,-4.943442,-3.9261503)" />
    <linearGradient
       inkscape:collect="always"
       id="linearGradient3503">
      <stop
         style="stop-color:#005f1e;stop-opacity:1"
         offset="0"
         id="stop3505" />
      <stop
         style="stop-color:#43943c;stop-opacity:1"
         offset="1"
         id="stop3507" />
    </linearGradient>
    <linearGradient
       id="linearGradient3511"
       inkscape:collect="always">
      <stop
         id="stop3513"
         offset="0"
         style="stop-color:#002a0d;stop-opacity:1;" />
      <stop
         id="stop3515"
         offset="1"
         style="stop-color:#002a0d;stop-opacity:0;" />
    </linearGradient>
    <linearGradient
       inkscape:collect="always"
       id="linearGradient3689">
      <stop
         style="stop-color:#f0ff80;stop-opacity:1"
         offset="0"
         id="stop3691" />
      <stop
         style="stop-color:#f0ff80;stop-opacity:0"
         offset="1"
         id="stop3693" />
    </linearGradient>
    <radialGradient
       r="3.578125"
       fy="64.53125"
       fx="11.578125"
       cy="64.53125"
       cx="11.578125"
       gradientTransform="matrix(6.5079869,0,0,1.510917,-63.772161,-32.970115)"
       gradientUnits="userSpaceOnUse"
       id="radialGradient2370"
       xlink:href="#linearGradient3260"
       inkscape:collect="always" />
    <linearGradient
       id="linearGradient3400"
       inkscape:collect="always">
      <stop
         id="stop3402"
         offset="0"
         style="stop-color:#b2ff00;stop-opacity:1" />
      <stop
         id="stop3404"
         offset="1"
         style="stop-color:#acff00;stop-opacity:0" />
    </linearGradient>
    <linearGradient
       id="linearGradient3361"
       inkscape:collect="always">
      <stop
         id="stop3363"
         offset="0"
         style="stop-color:#edffbf;stop-opacity:1;" />
      <stop
         id="stop3365"
         offset="1"
         style="stop-color:#edffbf;stop-opacity:0;" />
    </linearGradient>
    <radialGradient
       inkscape:collect="always"
       xlink:href="#linearGradient1425"
       id="radialGradient1167"
       cx="10"
       cy="18.155405"
       fx="10"
       fy="18.155405"
       r="9.5"
       gradientTransform="matrix(2.7367639,0.02069401,-0.01427307,1.8876003,-17.108506,-16.477089)"
       gradientUnits="userSpaceOnUse" />
    <radialGradient
       inkscape:collect="always"
       xlink:href="#linearGradient3511"
       id="radialGradient1202"
       cx="10.759766"
       cy="15.06706"
       fx="10.759766"
       fy="15.06706"
       r="10.499903"
       gradientTransform="matrix(0.59220712,-0.04999318,0.07235929,0.85715077,3.2975139,2.6231721)"
       gradientUnits="userSpaceOnUse" />
    <radialGradient
       inkscape:collect="always"
       xlink:href="#linearGradient1212"
       id="radialGradient1206"
       gradientUnits="userSpaceOnUse"
       gradientTransform="matrix(0.59220712,-0.04999318,0.07235929,0.85715077,3.2975139,2.6231721)"
       cx="-1.2816944"
       cy="20.198025"
       fx="-1.2816944"
       fy="20.198025"
       r="10.499903" />
    <linearGradient
       inkscape:collect="always"
       xlink:href="#linearGradient3503"
       id="linearGradient1218"
       x1="8"
       y1="28"
       x2="12"
       y2="-2"
       gradientUnits="userSpaceOnUse" />
    <linearGradient
       inkscape:collect="always"
       xlink:href="#linearGradient3400"
       id="linearGradient1237"
       x1="13.313708"
       y1="25.577166"
       x2="21"
       y2="12.25"
       gradientUnits="userSpaceOnUse" />
    <filter
       inkscape:collect="always"
       style="color-interpolation-filters:sRGB"
       id="filter1247"
       x="-0.015394737"
       width="1.0307895"
       y="-0.015810811"
       height="1.0316216">
      <feGaussianBlur
         inkscape:collect="always"
         stdDeviation="0.121875"
         id="feGaussianBlur1249" />
    </filter>
    <radialGradient
       inkscape:collect="always"
       xlink:href="#linearGradient3689"
       id="radialGradient1255"
       gradientUnits="userSpaceOnUse"
       gradientTransform="matrix(6.5079869,0,0,1.510917,-63.772161,-32.970115)"
       cx="11.578125"
       cy="64.53125"
       fx="11.578125"
       fy="64.53125"
       r="3.578125" />
    <linearGradient
       inkscape:collect="always"
       xlink:href="#linearGradient3260"
       id="linearGradient1259"
       gradientUnits="userSpaceOnUse"
       gradientTransform="matrix(1,0,0,0.8610463,-108.16138,-1.4361867)"
       x1="223.32712"
       y1="53.784153"
       x2="226.659"
       y2="57.279232"
       spreadMethod="reflect" />
    <linearGradient
       inkscape:collect="always"
       xlink:href="#linearGradient3689"
       id="linearGradient1263"
       gradientUnits="userSpaceOnUse"
       gradientTransform="matrix(1,0,0,0.8610463,-108.16138,-1.4361867)"
       x1="223.32712"
       y1="53.784153"
       x2="226.659"
       y2="57.279232"
       spreadMethod="reflect" />
    <filter
       inkscape:collect="always"
       style="color-interpolation-filters:sRGB"
       id="filter1413"
       x="-0.22671941"
       width="1.4534388"
       y="-0.15005418"
       height="1.3001084">
      <feGaussianBlur
         inkscape:collect="always"
         stdDeviation="0.67602533"
         id="feGaussianBlur1415" />
    </filter>
    <filter
       inkscape:collect="always"
       style="color-interpolation-filters:sRGB"
       id="filter1417"
       x="-0.22521796"
       width="1.4504359"
       y="-0.14906044"
       height="1.2981209">
      <feGaussianBlur
         inkscape:collect="always"
         stdDeviation="0.67154834"
         id="feGaussianBlur1419" />
    </filter>
    <radialGradient
       inkscape:collect="always"
       xlink:href="#linearGradient1212"
       id="radialGradient1431"
       gradientUnits="userSpaceOnUse"
       gradientTransform="matrix(0.59220712,-0.04999318,0.07235929,0.85715077,3.2975139,2.6231721)"
       cx="13.13153"
       cy="8.9021168"
       fx="13.13153"
       fy="8.9021168"
       r="10.499903" />
  </defs>
  <g
     id="g1446">
    <path
       sodipodi:nodetypes="cccccccccccccccccccccc"
       inkscape:connector-curvature="0"
       style="opacity:1;fill:url(#linearGradient1218);fill-opacity:1;stroke:none;stroke-width:1;stroke-miterlimit:4;stroke-dasharray:none;stroke-opacity:1"
       d="m 11.484375,2 c -0.249345,0.00381 -0.488272,0.1006324 -0.669922,0.2714844 L 2.3144531,10.271484 c -0.00727,0.0071 -0.014432,0.01422 -0.021484,0.02149 l -1,1 c -0.39036806,0.39053 -0.39036806,1.023532 0,1.414062 l 1,1 1,1 7.4999999,7.5 c 0.39053,0.390368 1.023532,0.390368 1.414062,0 l 2,-2 c 0.376953,-0.377263 0.39156,-0.983939 0.0332,-1.378906 L 10.759766,15 H 21 c 0.552262,-5.5e-5 0.999945,-0.447738 1,-1 V 10 C 21.999945,9.4477381 21.552262,9.0000552 21,9 H 10.914062 l 3.292969,-3.2929688 c 0.390368,-0.3905299 0.390368,-1.0235325 0,-1.4140624 l -2,-2 C 12.015708,2.101557 11.754978,1.9958557 11.484375,2 Z"
       id="path1214" />
    <path
       sodipodi:nodetypes="cccccccccccccccccccccccc"
       inkscape:connector-curvature="0"
       id="path996"
       d="M 11.484375,2 C 11.23503,2.00381 10.996103,2.1006324 10.814453,2.2714844 L 3.6660156,9 3,9.6269531 2.3144531,10.271484 c -0.00727,0.0071 -0.014432,0.01422 -0.021484,0.02149 l -1,1 c -0.39036806,0.39053 -0.39036806,1.023532 0,1.414062 l 1,1 1,1 7.4999999,7.5 c 0.39053,0.390368 1.023532,0.390368 1.414062,0 l 2,-2 c 0.376953,-0.377263 0.39156,-0.983939 0.0332,-1.378906 L 10.759766,15 H 21 c 0.552262,-5.5e-5 0.999945,-0.447738 1,-1 V 10 C 21.999945,9.4477381 21.552262,9.0000552 21,9 H 10.914062 l 3.292969,-3.2929688 c 0.390368,-0.3905299 0.390368,-1.0235325 0,-1.4140624 l -2,-2 C 12.015708,2.101557 11.754978,1.9958557 11.484375,2 Z"
       style="opacity:1;fill:url(#radialGradient1202);fill-opacity:1;stroke:none;stroke-width:1;stroke-miterlimit:4;stroke-dasharray:none;stroke-opacity:1" />
    <path
       sodipodi:nodetypes="cccccccccccccccccccccccc"
       inkscape:connector-curvature="0"
       style="opacity:0.25;fill:url(#radialGradient1206);fill-opacity:1;stroke:none;stroke-width:1;stroke-miterlimit:4;stroke-dasharray:none;stroke-opacity:1"
       d="M 11.484375,2 C 11.23503,2.00381 10.996103,2.1006324 10.814453,2.2714844 L 3.6660156,9 3,9.6269531 2.3144531,10.271484 c -0.00727,0.0071 -0.014432,0.01422 -0.021484,0.02149 l -1,1 c -0.39036806,0.39053 -0.39036806,1.023532 0,1.414062 l 1,1 1,1 7.4999999,7.5 c 0.39053,0.390368 1.023532,0.390368 1.414062,0 l 2,-2 c 0.376953,-0.377263 0.39156,-0.983939 0.0332,-1.378906 L 10.759766,15 H 21 c 0.552262,-5.5e-5 0.999945,-0.447738 1,-1 V 10 C 21.999945,9.4477381 21.552262,9.0000552 21,9 H 10.914062 l 3.292969,-3.2929688 c 0.390368,-0.3905299 0.390368,-1.0235325 0,-1.4140624 l -2,-2 C 12.015708,2.101557 11.754978,1.9958557 11.484375,2 Z"
       id="path1204" />
    <path
       id="path1429"
       d="M 11.484375,2 C 11.23503,2.00381 10.996103,2.1006324 10.814453,2.2714844 L 3.6660156,9 3,9.6269531 2.3144531,10.271484 c -0.00727,0.0071 -0.014432,0.01422 -0.021484,0.02149 l -1,1 c -0.39036806,0.39053 -0.39036806,1.023532 0,1.414062 l 1,1 1,1 7.4999999,7.5 c 0.39053,0.390368 1.023532,0.390368 1.414062,0 l 2,-2 c 0.376953,-0.377263 0.39156,-0.983939 0.0332,-1.378906 L 10.759766,15 H 21 c 0.552262,-5.5e-5 0.999945,-0.447738 1,-1 V 10 C 21.999945,9.4477381 21.552262,9.0000552 21,9 H 10.914062 l 3.292969,-3.2929688 c 0.390368,-0.3905299 0.390368,-1.0235325 0,-1.4140624 l -2,-2 C 12.015708,2.101557 11.754978,1.9958557 11.484375,2 Z"
       style="opacity:1;fill:url(#radialGradient1431);fill-opacity:1;stroke:none;stroke-width:1;stroke-miterlimit:4;stroke-dasharray:none;stroke-opacity:1"
       inkscape:connector-curvature="0"
       sodipodi:nodetypes="cccccccccccccccccccccccc" />
    <path
       inkscape:connector-curvature="0"
       d="m 115.65112,40 c -0.33944,1.154561 -2.5625,6.125 -2.5625,6.125 l 6.75,-0.03125 V 44 c 7.6e-4,-2.05105 -1.61796,-4.000656 -4,-4 z"
       transform="matrix(0.171875,0,0,-0.171875,1.055312,21.694922)"
       id="path3519"
       style="opacity:0.6142322;fill:url(#linearGradient3521);fill-opacity:1;fill-rule:evenodd;stroke:none;stroke-width:8.6213789;stroke-linecap:round;stroke-linejoin:round;stroke-miterlimit:4;stroke-dasharray:none;stroke-opacity:1;filter:url(#filter3443)" />
    <path
       inkscape:connector-curvature="0"
       d="m 115.65112,40 c -0.33944,1.154561 -2.5625,6.125 -2.5625,6.125 l 6.75,-0.03125 V 44 c 7.6e-4,-2.05105 -1.61796,-4.000656 -4,-4 z"
       transform="matrix(-0.00487818,-0.17180577,-0.17180577,0.00487818,29.245915,29.652372)"
       id="path3528"
       style="opacity:0.74906365;fill:url(#linearGradient3530);fill-opacity:1;fill-rule:evenodd;stroke:none;stroke-width:8.6213789;stroke-linecap:round;stroke-linejoin:round;stroke-miterlimit:4;stroke-dasharray:none;stroke-opacity:1;filter:url(#filter3443)" />
    <path
       style="opacity:0.74906365;fill:url(#linearGradient1259);fill-opacity:1;fill-rule:evenodd;stroke:none;stroke-width:8.6213789;stroke-linecap:round;stroke-linejoin:round;stroke-miterlimit:4;stroke-dasharray:none;stroke-opacity:1;filter:url(#filter3443)"
       id="path1257"
       transform="matrix(-0.09012751,-0.14634907,-0.14634907,0.09012751,28.369102,15.788337)"
       d="m 115.65112,40 c -0.33944,1.154561 -2.5625,6.125 -2.5625,6.125 l 6.75,-0.03125 V 44 c 7.6e-4,-2.05105 -1.61796,-4.000656 -4,-4 z"
       inkscape:connector-curvature="0" />
    <path
       inkscape:connector-curvature="0"
       d="m 115.65112,40 c -0.33944,1.154561 -2.5625,6.125 -2.5625,6.125 l 6.75,-0.03125 V 44 c 7.6e-4,-2.05105 -1.61796,-4.000656 -4,-4 z"
       transform="matrix(-0.09012751,0.14634907,-0.14634907,-0.09012751,28.394526,8.6737484)"
       id="path1261"
       style="opacity:0.74906365;fill:url(#linearGradient1263);fill-opacity:1;fill-rule:evenodd;stroke:none;stroke-width:8.6213789;stroke-linecap:round;stroke-linejoin:round;stroke-miterlimit:4;stroke-dasharray:none;stroke-opacity:1;filter:url(#filter3443)" />
    <path
       sodipodi:nodetypes="cccccccccccccccc"
       inkscape:connector-curvature="0"
       id="rect979"
       d="M 11.5,3 4.0625,10 H 4 v 0.05859 L 3,11 l -1,1 1,1 1,1 7.5,7.5 2,-2 -5,-5.5 H 21 V 10 H 8.5 l 5,-5 z"
       style="opacity:1;fill:url(#radialGradient1167);fill-opacity:1;stroke:none;stroke-width:1;stroke-miterlimit:4;stroke-dasharray:none;stroke-opacity:1" />
    <path
       transform="matrix(-0.1611048,0,0,-0.15560479,15.652148,14.964029)"
       id="path3705"
       d="M 11.6875,59.125 9.5,60.875 C 8.5501441,61.634129 8,62.784063 8,64 c 10e-8,1.215937 0.5501441,2.365871 1.5,3.125 l 3.53125,2.8125 2.125,-5.625 z"
       style="opacity:1;fill:url(#radialGradient2370);fill-opacity:1;fill-rule:evenodd;stroke:none;stroke-width:8;stroke-linecap:butt;stroke-linejoin:round;stroke-miterlimit:4;stroke-dasharray:none;stroke-opacity:1;filter:url(#filter1417)"
       inkscape:connector-curvature="0" />
    <path
       id="path2412"
       d="M 11.5 3 L 4.0625 10 L 4 10 L 4 10.058594 L 3 11 L 2 12 L 2.0546875 12.054688 C 3.3185913 12.143379 4.6019107 12.205078 5.921875 12.205078 C 11.499896 12.205078 16.636587 11.379284 20.751953 10 L 8.5 10 L 13.5 5 L 11.5 3 z "
       style="opacity:1;fill:url(#linearGradient3009);fill-opacity:1;stroke:none;stroke-width:0.02333562;stroke-linecap:round;stroke-linejoin:round;stroke-miterlimit:4;stroke-dasharray:none;stroke-dashoffset:4.1500001;stroke-opacity:1" />
    <path
       style="opacity:1;fill:none;fill-opacity:1;stroke:url(#linearGradient1237);stroke-width:0.5;stroke-miterlimit:4;stroke-dasharray:none;stroke-opacity:1;filter:url(#filter1247)"
       d="M 11.5,3 4.0625,10 H 4 v 0.05859 L 3,11 l -1,1 1,1 1,1 7.5,7.5 2,-2 -5,-5.5 H 21 V 10 H 8.5 l 5,-5 z"
       id="path1229"
       inkscape:connector-curvature="0"
       sodipodi:nodetypes="cccccccccccccccc" />
    <path
       inkscape:connector-curvature="0"
       style="opacity:1;fill:url(#radialGradient1255);fill-opacity:1;fill-rule:evenodd;stroke:none;stroke-width:8;stroke-linecap:butt;stroke-linejoin:round;stroke-miterlimit:4;stroke-dasharray:none;stroke-opacity:1;filter:url(#filter1413)"
       d="M 11.6875,59.125 9.5,60.875 C 8.5501441,61.634129 8,62.784063 8,64 c 10e-8,1.215937 0.5501441,2.365871 1.5,3.125 l 3.53125,2.8125 2.125,-5.625 z"
       id="path1253"
       transform="matrix(-0.1611048,0,0,-0.15560479,15.595131,29.464029)" />
  </g>
</svg>
