<?xml version="1.0" encoding="UTF-8" standalone="no"?>
<svg
   xmlns:dc="http://purl.org/dc/elements/1.1/"
   xmlns:cc="http://creativecommons.org/ns#"
   xmlns:rdf="http://www.w3.org/1999/02/22-rdf-syntax-ns#"
   xmlns:svg="http://www.w3.org/2000/svg"
   xmlns="http://www.w3.org/2000/svg"
   xmlns:sodipodi="http://sodipodi.sourceforge.net/DTD/sodipodi-0.dtd"
   xmlns:inkscape="http://www.inkscape.org/namespaces/inkscape"
   height="24"
   width="24"
   version="1.1"
   id="svg90"
   sodipodi:docname="window-new.svg"
   inkscape:version="0.92.3 (2405546, 2018-03-11)"
   inkscape:export-filename="/home/rizmut/Dokumen/Rizmut/Github/karasa-jaga-icon-theme/build/Karasa-Jaga/24x24/actions/window-new.png"
   inkscape:export-xdpi="96"
   inkscape:export-ydpi="96">
  <metadata
     id="metadata96">
    <rdf:RDF>
      <cc:Work
         rdf:about="">
        <dc:format>image/svg+xml</dc:format>
        <dc:type
           rdf:resource="http://purl.org/dc/dcmitype/StillImage" />
        <dc:title></dc:title>
      </cc:Work>
    </rdf:RDF>
  </metadata>
  <defs
     id="defs94" />
  <sodipodi:namedview
     pagecolor="#ffffff"
     bordercolor="#666666"
     borderopacity="1"
     objecttolerance="10"
     gridtolerance="10"
     guidetolerance="10"
     inkscape:pageopacity="0"
     inkscape:pageshadow="2"
     inkscape:window-width="1366"
     inkscape:window-height="693"
     id="namedview92"
     showgrid="false"
     inkscape:zoom="9.8333333"
     inkscape:cx="-0.86440678"
     inkscape:cy="12"
     inkscape:window-x="0"
     inkscape:window-y="0"
     inkscape:window-maximized="1"
     inkscape:current-layer="svg90" />
  <filter
     id="a">
    <feGaussianBlur
       stdDeviation="1.04"
       id="feGaussianBlur2" />
  </filter>
  <filter
     id="b">
    <feGaussianBlur
       stdDeviation="2.8805897"
       id="feGaussianBlur5" />
  </filter>
  <filter
     id="c">
    <feGaussianBlur
       stdDeviation="1.5999062"
       id="feGaussianBlur8" />
  </filter>
  <linearGradient
     id="d"
     gradientTransform="matrix(.08097133 0 0 .117107 -1.25515 -48.3532)"
     gradientUnits="userSpaceOnUse"
     x1="399.77466"
     x2="399.77466"
     y1="731.09662"
     y2="480.60214">
    <stop
       offset="0"
       stop-color="#cbcbcd"
       id="stop11" />
    <stop
       offset=".5"
       stop-color="#e0e0e2"
       id="stop13" />
    <stop
       offset="1"
       stop-color="#f2f2f2"
       id="stop15" />
  </linearGradient>
  <linearGradient
     id="e"
     gradientTransform="matrix(.08097133 0 0 .117107 78.3735 188.5229)"
     gradientUnits="userSpaceOnUse"
     x1="-333.0289"
     x2="-333.0289"
     y1="-1473.6504"
     y2="-776.61371">
    <stop
       offset="0"
       stop-color="#fff"
       id="stop18" />
    <stop
       offset=".49140647"
       stop-color="#fff"
       id="stop20" />
    <stop
       offset="1"
       stop-color="#dcdcdc"
       id="stop22" />
  </linearGradient>
  <radialGradient
     id="f"
     cx="343.99899"
     cy="92"
     gradientTransform="matrix(.48644982 0 0 .48644947 -228.85723 -373.36508)"
     gradientUnits="userSpaceOnUse"
     r="36">
    <stop
       offset="0"
       stop-color="#e5ff00"
       id="stop25" />
    <stop
       offset="1"
       stop-color="#bff500"
       stop-opacity="0"
       id="stop27" />
  </radialGradient>
  <linearGradient
     id="g"
     gradientUnits="userSpaceOnUse"
     x1="328.12448"
     x2="336.98077"
     y1="120.81158"
     y2="87.759453">
    <stop
       offset="0"
       stop-color="#96ff00"
       id="stop30" />
    <stop
       offset="1"
       stop-color="#609800"
       id="stop32" />
  </linearGradient>
  <linearGradient
     id="h"
     gradientTransform="matrix(0 .49018718 -.49018752 0 79.769764 322.22969)"
     gradientUnits="userSpaceOnUse"
     x1="-80.00296"
     x2="-45.096584"
     y1="-131.93112"
     y2="-131.93112">
    <stop
       offset="0"
       stop-color="#fff"
       id="stop35" />
    <stop
       offset="1"
       stop-color="#fff"
       stop-opacity="0"
       id="stop37" />
  </linearGradient>
  <linearGradient
     id="i"
     gradientUnits="userSpaceOnUse"
     x1="122.00004"
     x2="122.00004"
     y1="61.999996"
     y2="9.932843">
    <stop
       offset="0"
       stop-color="#004d00"
       stop-opacity="0"
       id="stop40" />
    <stop
       offset=".5"
       stop-color="#004d00"
       id="stop42" />
    <stop
       offset="1"
       stop-color="#004d00"
       stop-opacity="0"
       id="stop44" />
  </linearGradient>
  <clipPath
     id="j">
    <circle
       cx="343.91208"
       cy="92.325096"
       r="36"
       transform="matrix(.86602539 .50000002 .49999965 -.86602561 0 0)"
       id="circle47" />
  </clipPath>
  <radialGradient
     id="k"
     cx="-55.685837"
     cy="-347.11612"
     gradientTransform="matrix(-.92598472 -.24811683 .26893091 -1.0036639 -15.263579 -707.47819)"
     gradientUnits="userSpaceOnUse"
     r="22.14249">
    <stop
       offset="0"
       stop-color="#82c133"
       id="stop50" />
    <stop
       offset="1"
       stop-color="#72b028"
       id="stop52" />
  </radialGradient>
  <filter
     id="l"
     color-interpolation-filters="sRGB"
     height="1.072142"
     width="1.071866"
     x="-.035933"
     y="-.036071">
    <feGaussianBlur
       stdDeviation=".66434216"
       id="feGaussianBlur55" />
  </filter>
  <g
     transform="matrix(.25 0 0 .25 2 0)"
     id="g68">
    <path
       d="m-2.611641 15.99895h85.223281c.76597 0 1.38261.72808 1.38261 1.63246v68.73718c0 .90439-.61664 1.63247-1.38261 1.63247h-85.223281c-.765966 0-1.38261-.72808-1.38261-1.63247v-68.73718c0-.90438.616644-1.63246 1.38261-1.63246z"
       style="opacity:.4;fill:none;stroke:#000;stroke-width:4;stroke-linecap:round;stroke-linejoin:round;stroke-dashoffset:4;filter:url(#c)"
       id="path58" />
    <path
       d="m-2.617195 16h85.234385c.76607 0 1.38281.72806 1.38281 1.63242v68.73516h-88.000003v-68.73516c0-.90436.616732-1.63242 1.382808-1.63242z"
       fill="url(#d)"
       id="path60" />
    <path
       d="m52.54186 30.93328v-1.92136z"
       fill="#fff"
       fill-opacity=".756881"
       id="path62" />
    <path
       d="m-2.625 16c-.766076 0-1.375.72064-1.375 1.625v68.75c0 .90436.608924 1.625 1.375 1.625h85.25c.76608 0 1.375-.72064 1.375-1.625v-68.75c0-.90436-.60892-1.625-1.375-1.625zm.9375 2.4375h83.375c.72777 0 1.3125.68271 1.3125 1.53125v65.5c0 .84854-.58473 1.53125-1.3125 1.53125h-83.375c-.727772 0-1.3125-.68271-1.3125-1.53125v-65.5c0-.84854.584728-1.53125 1.3125-1.53125z"
       fill="url(#e)"
       id="path64" />
    <path
       d="m-4 36h88v52h-88z"
       fill="#fff"
       id="path66" />
  </g>
  <g
     transform="matrix(.25 0 0 .25 2 2)"
     id="g88">
    <g
       transform="translate(-78.391148 -235.58321)"
       id="g82">
      <ellipse
         cx="-217.5829"
         cy="253.82661"
         fill="none"
         rx="21.226898"
         ry="21.226883"
         stroke-width=".589636"
         transform="matrix(-.96592586 -.2588189 -.25881915 .9659258 0 0)"
         id="ellipse70" />
      <ellipse
         cx="-59.830322"
         cy="-331.66757"
         fill="#292929"
         filter="url(#l)"
         rx="22.14249"
         ry="22.142477"
         transform="matrix(-.92889229 .24189233 -.24889576 -.9027551 6.347098 17.868369)"
         id="ellipse72" />
      <ellipse
         cx="-61.518948"
         cy="-328.61179"
         fill="url(#k)"
         rx="21.226898"
         ry="21.226883"
         transform="matrix(-.96592587 .25881888 -.25881888 -.96592587 0 0)"
         id="ellipse74" />
      <circle
         cx="343.99899"
         cy="92"
         r="36"
         style="opacity:.8;fill:none;stroke-width:6.751382;clip-path:url(#j);stroke:url(#g);filter:url(#b)"
         transform="matrix(-.56954469 -.15260895 -.152609 .5695443 354.43658 301.59151)"
         clip-path="url(#j)"
         id="circle76" />
      <ellipse
         cx="-61.51897"
         cy="-328.61179"
         fill="url(#f)"
         rx="17.512192"
         ry="17.512182"
         stroke-width=".48645"
         transform="matrix(-.96592583 .25881905 -.25881905 -.96592583 0 0)"
         id="ellipse78" />
      <path
         d="m144.47377 283.01328c-7.52762 0-13.81762 5.3155-15.33367 12.39254 3.02191 2.81707 8.7558 4.71805 15.33367 4.71805s12.31175-1.90098 15.33365-4.71805c-1.51603-7.07704-7.80604-12.39254-15.33365-12.39254z"
         fill="url(#h)"
         opacity=".8"
         stroke-width=".81687"
         id="path80" />
    </g>
    <path
       d="m120.01465 24.819615v9.194998h-7.32125v3.970777h7.32125v9.194998h3.97076v-9.194998h7.32126v-3.970777h-7.32126v-9.194998z"
       style="fill:none;stroke-width:4;stroke-linecap:round;stroke-linejoin:round;stroke:url(#i);filter:url(#a)"
       transform="matrix(1.2017106 0 0 1.2017106 -80.526199 24.45707)"
       id="path84" />
    <path
       d="m62.21963 51.46897v10.13508h-10.13507v7.72576h10.13507v10.13508h7.7258v-10.13508h10.13506v-7.72576h-10.13506v-10.13508z"
       fill="#fff"
       fill-rule="evenodd"
       id="path86" />
  </g>
</svg>
