<svg height="16" width="16" xmlns="http://www.w3.org/2000/svg"><g fill="#bebebe"><g transform="matrix(.89905517 0 0 1 .807652 0)"><path d="m2.9960938 1.0898438c-.1287529.28646-.2089844.6020671-.2089844.9394531h.0253906c-.0063653.06866-.0253906.1327496-.0253906.203125h5.5566406c.1888836-.4208339.4449758-.8009861.7460938-1.1425781h-5.9960938zm11.1269532 7.2539062c-.280754.1073493-.572723.1879666-.876953.2382812v5.2753908h-10.4589846c0 .06993.0191053.13293.0253906.201172h-.0253906c0 .337386.0802316.654946.2089844.941406h.0976562 11.029297z" stroke-width="1.019443" transform="matrix(1.1122788 0 0 1 -.898334 0)"/><path d="m1.64465 11.59376a.50219013.50219013 0 1 0 .0937 1h1.8125a.50005.50005 0 1 0 0-1h-1.8125a.50005.50005 0 0 0 -.0937 0z"/><path d="m1.64465 9.59376a.50219013.50219013 0 1 0 .0937 1h1.8125a.50005.50005 0 1 0 0-1h-1.8125a.50005.50005 0 0 0 -.0937 0z"/><path d="m1.64465 7.59376a.50219013.50219013 0 1 0 .0937 1h1.8125a.50005.50005 0 1 0 0-1h-1.8125a.50005.50005 0 0 0 -.0937 0z"/><path d="m1.64465 5.59376a.50219013.50219013 0 1 0 .0937 1h1.8125a.50005.50005 0 1 0 0-1h-1.8125a.50005.50005 0 0 0 -.0937 0z"/><path d="m1.64465 3.59376a.50219013.50219013 0 1 0 .0937 1h1.8125a.50005.50005 0 1 0 0-1h-1.8125a.50005.50005 0 0 0 -.0937 0z"/><path d="m7.9785156 3.6855469c-1.7490293.2710959-3.0996094 1.9252605-3.0996094 3.9453125 0 2.2091 1.6096004 3.9999996 3.5957032 3.9999996h2.2480466s.421168 0 .449219-.5c0-.5-.449219-.5-.449219-.5h-2.2480466c-1.4896445 0-2.6972656-1.3431996-2.6972656-2.9999996 0-1.4743991.9584783-2.6950929 2.21875-2.9472656-.0254355-.1950148-.0585938-.387894-.0585938-.5898438 0-.1397757.028712-.2716308.0410156-.4082031zm.2519532 1.9726562c-.8761067.1339782-1.5527344.9613618-1.5527344 1.9726563 0 1.10457.8037786 2 1.796875 2 .4703137 0 .8944295-.2064263 1.2148437-.5351563.2563476.33888.6350029.5353763 1.0332029.5351563.594819 0 1.094221-.4309098 1.273438-1.0253906-.314979-.0350641-.617877-.0994552-.910156-.1953126-.081193.129872-.210289.2207032-.363282.2207032-.248265 0-.449218-.22386-.449218-.5v-.078125c-.3437569-.1938546-.6681669-.4164307-.9492192-.6894532.0223036.0871628.0507812.1724592.0507812.2675782 0 .55228-.4038514 1-.9003906 1s-.8984375-.44772-.8984375-1 .4018983-1 .8984375-1c.1004967 0 .192967.0286647.2832031.0625-.2207336-.3170723-.3920637-.6664277-.5273437-1.0351563z" stroke-width=".948185" transform="matrix(1.1122788 0 0 1 -.898339 .000004)"/></g><path d="m12.5 7.5937497c-1.933 0-3.5-1.5669997-3.5-3.4999997s1.567-3.5 3.5-3.5 3.5 1.567 3.5 3.5-1.567 3.4999997-3.5 3.4999997zm-.5-.9999997h1v-2h2v-1h-2v-2h-1v2h-2v1h2z" fill-rule="evenodd"/></g></svg>