<svg height="16" width="16" xmlns="http://www.w3.org/2000/svg"><g fill="#bebebe" transform="matrix(.89905517 0 0 1 .807652 0)"><path d="m2.8730469 1c-.1287529.28646-.3847656.459489-.3847657.796875v.203125h5.7753907a4.5 4.5 0 0 1 .4960937-1h-5.7890625zm11.1269531 6.7363281a4.5 4.5 0 0 1 -1 .2304688v6.0332031l-10.5058594-.011719v.201172c0 .337386.2501536.524087.3789063.810547h.0976562 11.0292969z" stroke-width="1.019442" transform="matrix(1.1122788 0 0 1 -.898334 0)"/><path d="m8.0234375 3.046875c-1.8044318.2143787-3.2148437 1.8931075-3.2148437 3.9570312 0 2.2091001 1.6096003 3.9999998 3.5957031 3.9999998h2.2480471s.421168 0 .449218-.5c.000001-.5-.449218-.5-.449218-.5h-2.2480471c-1.4896445 0-2.6972657-1.3431997-2.6972657-2.9999998.0000001-1.5175712 1.0171021-2.7587624 2.3320313-2.9589843a4.5 4.5 0 0 1 -.0390625-.5449219 4.5 4.5 0 0 1 .0234375-.453125zm.2460937 1.9726562c-.9291032.0778105-1.6640624.9310424-1.6640624 1.984375-.0000001 1.1045701.8057317 2 1.7988281 2 .4703137.0000001.8944295-.2064262 1.2148437-.5351562.2563481.33888.6350024.5353763 1.0332034.5351562.601218 0 1.103309-.4404609 1.277344-1.0449218a4.5 4.5 0 0 1 -.894532-.2089844c-.077886.1487538-.216894.2539062-.382812.2539062-.248265 0-.449219-.22386-.449219-.5v-.1386718a4.5 4.5 0 0 1 -1.0195312-.8300782c.0693878.1418377.1191406.2959139.1191406.46875 0 .55228-.4018983 1-.8984375 1s-.8984375-.44772-.8984375-1c0-.5522799.4018983-1 .8984375-1 .1871532 0 .350221.0786643.4941406.1875a4.5 4.5 0 0 1 -.6289063-1.171875z" stroke-width=".948185" transform="matrix(1.1122788 0 0 1 -.898334 0)"/><g fill="#bebebe"><path d="m1.3262234 3h2.2245576v1h-2.2245576z"/><path d="m1.3262234 5h2.2245576v1h-2.2245576z"/><path d="m1.3262234 7h2.2245576v1h-2.2245576z"/><path d="m1.3262234 9h2.2245576v1h-2.2245576z"/><path d="m1.3262234 11h2.2245576v1h-2.2245576z"/><path d="m1.3262234 13h2.2245576v1h-2.2245576z"/><path d="m13.005151 6.9999997c-2.150035 0-3.892976-1.5669997-3.892976-3.4999997s1.742941-3.5 3.892976-3.5 3.892976 1.567 3.892976 3.5-1.742941 3.4999997-3.892976 3.4999997zm-.55614-.9999997h1.112279v-2h2.224558v-1h-2.224558v-2h-1.112279v2h-2.224557v1h2.224557z" fill-rule="evenodd" stroke-width="1.054646"/></g></g></svg>