<svg height="16" viewBox="0 0 4.2333332 4.2333335" width="16" xmlns="http://www.w3.org/2000/svg"><g fill="#bebebe"><path d="m4.2333332 1.8520833h-.6614583v.5291667h.6614583zm-.5291667-.92604165c0-.0732896-.059002-.13229166-.1322916-.13229166h-1.3229167c-.07329 0-.1322916.0590021-.1322916.13229166v.69814865a.26460981.26460981 0 0 1 .1322916-.0361736h.1322917v-.5296834h1.0583333v.5653402a.26460981.26460981 0 0 1 .1317749-.035657h.1328084zm0 1.71824135h-.1328084a.26460981.26460981 0 0 1 -.1317749-.0356567v.5663737h-1.0583333v-.530717h-.1322917a.26460981.26460981 0 0 1 -.1322916-.0361735v.6991821c0 .07329.059002.1322917.1322916.1322917h1.3229167c.07329 0 .1322916-.059002.1322916-.1322917zm-.6614583-.7921997h-.79375v.5291667h.79375zm-1.190625-1.4552083c0-.0732896-.059002-.13229167-.1322916-.13229167h-1.32291669c-.0732896 0-.13229166.0590021-.13229166.13229167v1.1911417h.1328084a.26460981.26460981 0 0 1 .13177493.03514v-1.09399004h1.05833332v1.05885004h.1322917a.26460981.26460981 0 0 1 .1322916.035657zm0 2.2112345a.26460981.26460981 0 0 1 -.1322916.0361735h-.1322917v1.0598836h-1.05833332v-1.0955403a.26460981.26460981 0 0 1 -.13177493.0356567h-.1328084v1.1921753c0 .07329.0590021.1322917.13229166.1322917h1.32291669c.07329 0 .1322916-.059002.1322916-.1322917zm-.1322916-.7560262h-.79375003v.5291667h.79375003zm-1.32291669 0h-.39687499v.5291667h.39687499z"/><path d="m3.7041665 1.0583333h-1.5874999v2.1166667h1.5874999zm-1.8520833-.52916664h-1.58749995v3.17499994h1.58749995z" opacity=".1"/></g></svg>