<svg height="16" viewBox="0 0 4.2333332 4.2333335" width="16" xmlns="http://www.w3.org/2000/svg"><g fill="#bebebe" transform="scale(.26458333)"><path d="m7 0v2.5h2v-2.5zm-3.5 2c-.2770001 0-.5.2229999-.5.5v5c0 .2770016.2230001.5.5.5h2.6386719a1.0001001 1.0001001 0 0 1 -.1367188-.5v-.5h-2.0019531v-4h2.1367188a1.0001001 1.0001001 0 0 1 -.1347657-.4980469v-.5019531zm6.4941406 0v.5019531a1.0001001 1.0001001 0 0 1 -.1347656.4980469h2.140625v4h-2.0058594v.5a1.0001001 1.0001001 0 0 1 -.1367187.5h2.6425781c.277002 0 .5-.2229996.5-.5v-5c0-.2770016-.223-.5-.5-.5zm-2.9941406 2.5v3h2v-3zm-5.5 4.5c-.277 0-.5.223-.5.5v5c0 .277.223.5.5.5h4.5019531v-.501953a1.0001001 1.0001001 0 0 1 .1328125-.498047h-4.1347656v-4h4.0019531v-.5a1.0001001 1.0001001 0 0 1 .1347657-.5zm8.3574219 0a1.0001001 1.0001001 0 0 1 .1367187.5v.5h4.0058594v4h-4.140625a1.0001001 1.0001001 0 0 1 .1347656.498047v.501953h4.5058594c.277 0 .5-.223.5-.5v-5c0-.277-.223-.5-.5-.5zm-2.8574219.5v3h2v-3zm0 5v1.5h2v-1.5z"/><path d="m4 2v6h8v-6zm-2 7v6h12v-6z" opacity=".1"/></g></svg>