<svg height="16" viewBox="0 0 4.2333332 4.2333335" width="16" xmlns="http://www.w3.org/2000/svg"><g fill="#bebebe"><path d="m4.2333334 2.9104167h-.2645833v1.1906249c0 .07329-.059002.1322917-.1322917.1322917h-1.0583333c-.07329 0-.1322917-.059002-.1322917-.1322917v-1.1906249h-2.6458333v-.5291667h.5291667v-2.24895831c0-.07329012.058992-.13229167.1322916-.13229167h1.0583334c.0733 0 .1322916.05900208.1322916.13229167v2.24895831h.2645834v-1.45520833c0-.0732901.059002-.13229166.1322916-.13229166h1.0583334c.0733 0 .1322916.0590021.1322916.13229166v1.45520833h.79375zm-.5291667 1.0583333v-1.0583333h-.7937499v1.0583333zm-.5291666-1.5875v-1.3229167h-.79375v1.3229167zm-1.5875 0v-2.11666665h-.79375v2.11666665z"/><path d="m-3.96875-3.704167h1.322917v.79375h-1.322917z" opacity=".3" transform="matrix(0 -1 -1 0 0 0)"/><path d="m3.1750034 2.6458333h-.79375v-1.5874999h.79375zm-1.5875 0h-.7937499v-2.3812499h.7937499z" opacity=".1"/></g></svg>