<svg height="16" viewBox="0 0 4.2333332 4.2333335" width="16" xmlns="http://www.w3.org/2000/svg"><g fill="#bebebe" transform="matrix(0 1 -1 0 4.233333 0)"><path d="m3.96875 0v4.2333333h-.5291667v-.5291667h-2.77812496c-.0732901 0-.13229166-.058992-.13229166-.1322916v-1.0583334c0-.0733.0590021-.1322916.13229166-.1322916h2.77812496v-.2645834h-1.984375c-.07329 0-.1322916-.059002-.1322916-.1322916v-1.05833335c0-.0733.059002-.13229166.1322916-.13229166h1.984375v-.79374999zm-.5291667 1.0583333h-1.8520833v.79375h1.8520833zm0 1.5875h-2.64583329v.79375h2.64583329z"/><path d="m3.7041666 1.05833v.79375h-2.1166666v-.79375zm0 1.5875v.79375h-2.9104166v-.79375z" opacity=".1"/></g></svg>