<svg height="16" viewBox="0 0 4.2333332 4.2333335" width="16" xmlns="http://www.w3.org/2000/svg"><g fill="#bebebe"><path d="m5 0v1h-4.5c-.27699998 0-.5.223-.5.5v4c0 .277.22300002.5.5.5h4.5v10h2v-2h8.5c.277002 0 .5-.222962.5-.5v-4c0-.2770394-.223-.5-.5-.5h-8.5v-1h5.5c.277002 0 .5-.2229999.5-.5v-4c0-.2770394-.223-.5-.5-.5h-5.5v-3zm-4 2h4v3h-4zm6 2h5v3h-5zm0 6h8v3h-8z" transform="scale(.26458333)"/><path d="m.264583.529167h1.322917v.79375h-1.322917z" opacity=".3"/><path d="m1.5875 1.05833v.79375h1.5874999v-.79375zm0 1.5875v.7937499h2.3812499v-.7937499z" opacity=".1"/></g></svg>