<svg height="16" viewBox="0 0 4.2333332 4.2333335" width="16" xmlns="http://www.w3.org/2000/svg"><g fill="#bebebe"><path d="m2.9104167 0v.26458333h1.1906249c.07329 0 .1322917.0590021.1322917.13229167v1.0583333c0 .07329-.059002.1322917-.1322917.1322917h-1.1906249v2.6458333h-.5291667v-.5291667h-2.24895831c-.07329012 0-.13229167-.058992-.13229167-.1322916v-1.0583334c0-.0733.05900208-.1322916.13229167-.1322916h2.24895831v-.2645834h-1.45520833c-.0732901 0-.13229166-.059002-.13229166-.1322916v-1.05833335c0-.0733.0590021-.13229166.13229166-.13229166h1.45520833v-.79374999zm1.0583333.52916666h-1.0583333v.79374994h1.0583333zm-1.5875.52916664h-1.3229167v.79375h1.3229167zm0 1.5875h-2.11666665v.79375h2.11666665z"/><path d="m-3.96875.529167h1.322917v.79375h-1.322917z" opacity=".3" transform="scale(-1 1)"/><path d="m2.6458333 1.05833v.79375h-1.5874999v-.79375zm0 1.5875v.7937499h-2.3812499v-.7937499z" opacity=".1"/></g></svg>