<svg height="16" viewBox="0 0 4.2333332 4.2333335" width="16" xmlns="http://www.w3.org/2000/svg"><g fill="#bebebe"><path d="m4.2333334 1.3229166h-.2645833v-1.1906249c0-.07329-.059002-.1322917-.1322917-.1322917h-1.0583333c-.07329 0-.1322917.059002-.1322917.1322917v1.1906249h-2.6458333v.5291667h.5291667v2.2489583c0 .07329.058992.1322917.1322916.1322917h1.0583334c.0733 0 .1322916-.059002.1322916-.1322917v-2.2489583h.2645834v1.4552083c0 .07329.059002.1322917.1322916.1322917h1.0583334c.0733 0 .1322916-.059002.1322916-.1322917v-1.4552083h.79375zm-.5291667-1.0583333v1.0583333h-.7937499v-1.0583333zm-.5291666 1.5875v1.3229167h-.79375v-1.3229167zm-1.5875 0v2.1166667h-.79375v-2.1166667z"/><path d="m.264583-3.704167h1.322917v.79375h-1.322917z" opacity=".3" transform="rotate(90)"/><path d="m3.1750034 1.5875h-.79375v1.5874999h.79375zm-1.5875 0h-.7937499v2.3812499h.7937499z" opacity=".1"/></g></svg>