<svg height="16" width="16" xmlns="http://www.w3.org/2000/svg"><g enable-background="new" fill="#bebebe" transform="translate(-544.4992 -81.00012)"><path d="m552.33709 85.154416-.85547.855469 1.36914 1.36914c.23778.237046.0682.643131-.26758.640625l-7.08398-.01953v1l7.08789.01953c.33385.000996.5001.404911.26367.640625l-1.36914 1.367188.85547.855469 3.4707-3.257813z"/><path d="m4.5 2c-.831 0-1.5.669-1.5 1.5v2.5h1v-3h10v10h-10v-4h-1v3.5c0 .831.669 1.5 1.5 1.5h9c.831 0 1.5-.669 1.5-1.5v-9c0-.831-.669-1.5-1.5-1.5z" fill="#bebebe" transform="translate(544.4992 81.00012)"/></g></svg>