<svg height="16" width="16" xmlns="http://www.w3.org/2000/svg"><g fill="#bebebe" transform="translate(-813 23)"><path d="m2 2c-1 0-1 1-1 1v10c0 .524.477 1 1 1h6.2636719a4.5 4.5 0 0 1 -.2304688-1h-6.0332031v-8h12v3.2636719a4.5 4.5 0 0 1 1 .4960937v-5.7597656c0-.524-.476-1-1-1z" fill="#bebebe" transform="translate(813 -23)"/><path d="m825.5-14c-1.933 0-3.5 1.567-3.5 3.499999 0 1.9330012 1.567 3.5000012 3.5 3.5000012s3.5-1.567 3.5-3.5000012c0-1.932999-1.567-3.499999-3.5-3.499999zm-.5 1h1v2h2v1.0000002h-2v2h-1v-2h-2v-1.0000002h2z" fill-rule="evenodd" stroke-width=".82578"/></g></svg>