<svg height="16" width="16" xmlns="http://www.w3.org/2000/svg"><g enable-background="new" fill="#bebebe" transform="translate(-544.4992 -81.00012)"><path d="m3.0625 1.8125c-.4155 0-.75.418125-.75.9375v3.2460938l1.1875.0039062v-3h10v10h-10v-3l-1.1875-.0039062v3.2539062c0 .519375.3345.9375.75.9375h10.875c.4155 0 .75-.418125.75-.9375v-10.5c0-.519375-.3345-.9375-.75-.9375z" transform="translate(544.4992 81.00012)"/><path d="m552.21094 85.53125-.85547.855469 1.36914 1.36914a.37503574.37503574 0 0 1 -.26758.640625l-7.08398-.01953v1.25l7.08789.01953a.37503574.37503574 0 0 1 .26367.640625l-1.36914 1.367188.85547.855469 3.4707-3.507813z"/></g></svg>