<svg height="16" width="16" xmlns="http://www.w3.org/2000/svg"><g fill="#bebebe"><path d="m6.41 6a.50005.50005 0 0 0 -.41.5v2.5h-1.5a.50005.50005 0 1 0 0 1h2a.50005.50005 0 0 0 .5-.5v-3a.50005.50005 0 0 0 -.59375-.5z"/><path d="m6.5 3.5644531c-3.2703486 0-5.93554688 2.6651983-5.93554688 5.9355469 0 3.270349 2.66519828 5.935547 5.93554688 5.935547s5.935547-2.665198 5.935547-5.935547c0-.2934398-.054869-.5811982-.105469-.8691406-.227363-.0085343-.452273-.0257269-.669922-.0664063h-.269531c.06698.3085623.173828.5957635.173828.9355469 0 2.799264-2.2651893 5.064453-5.064453 5.064453s-5.0644531-2.265189-5.0644531-5.064453c0-2.7992637 2.2651894-5.0644531 5.0644531-5.0644531.5346931 0 1.0294424.1240274 1.5078125.2871093-.0289254-.2074413-.0625-.4134982-.0625-.6289062 0-.0943238.0216917-.1824886.0273437-.2753906-.4713389-.1406556-.9543148-.2539063-1.4726562-.2539063z"/><path d="m12.5 7.5937497c-1.933 0-3.5-1.5669997-3.5-3.4999997s1.567-3.5 3.5-3.5 3.5 1.567 3.5 3.5-1.567 3.4999997-3.5 3.4999997zm-.5-.9999997h1v-2h2v-1h-2v-2h-1v2h-2v1h2z" fill-rule="evenodd"/></g></svg>