<svg height="16" width="16" xmlns="http://www.w3.org/2000/svg"><path d="m680.5-23c-4.13 0-7.5 3.37-7.5 7.5s3.37 7.5 7.5 7.5 7.5-3.37 7.5-7.5-3.37-7.5-7.5-7.5zm0 1c3.5 0 6.5 3 6.5 6.5s-3 6.5-6.5 6.5-6.5-3.45-6.5-6.5c0-3.5 3-6.5 6.5-6.5zm2.965 3.002c-.0242.000922-.0482.0036-.072.008v.008c-.0971.0257-.18423.08007-.25.156l-2.657 2.649-1.656-1.649c-.31485-.513429-1.20089.373899-.687.688l2 2c.19275.182228.49425.182228.687 0l3-3c.33087-.318288.0938-.876861-.365-.86z" fill="#bebebe" transform="translate(-673 23)"/></svg>