<svg height="16" width="16" xmlns="http://www.w3.org/2000/svg"><g fill="#bebebe" transform="matrix(.82578026 0 0 .82578026 18.580309 -2.825463)"><path d="m-7.3631074 14.320351c-2.340816 0-4.2384156 1.897599-4.2384156 4.238415 0 2.340817 1.8975996 4.238417 4.2384156 4.238417 2.340817 0 4.238416-1.8976 4.238416-4.238417 0-2.340816-1.897599-4.238415-4.238416-4.238415zm-.605488 1.210976h1.210976v2.421952h2.421952v1.210975h-2.421952v2.421953h-1.210976v-2.421953h-2.4219516v-1.210975h2.4219516z" fill-rule="evenodd"/><g fill="#bebebe"><path d="m2 1-.0605469 15h7.7382813a4.4999998 4.4999998 0 0 1 -.9160156-1h-5.7617188v-13h7l3 2.5v3.53125a4.4999998 4.4999998 0 0 1 1 .2324219v-3.7636719l-3.345703-3.5z" fill-opacity=".902043" stroke-width=".82578" transform="matrix(1.2109759 0 0 1.2109759 -22.500307 3.421568)"/><path d="m-10.390547 4.6325435v4.2384157h3.6329272 1.210976l-4.051223-4.2384157z"/><path d="m-17.656403 4.6325435v13.3207355l2.421952-2.421952 2.421952 2.421952v-13.3207355z" stroke-width="1.210976"/></g></g></svg>