<svg height="16" width="16" xmlns="http://www.w3.org/2000/svg"><g fill="#e13f2b" transform="translate(-100 -746)"><path d="m103.34 749.52c-1.2021.2879-1.993 1.0983-2.1875 2.4375-.0536.5628-.28002 1.3448.25 1.7188.70817.42322 1.5742.35362 2.3438.21875.56137-.14838.80163-.2025 1.25-.625 0 0-.0518-1.0705.1875-1.6562 1.931-.81073 3.8101-.75064 5.6875 0 .23926.58579.1875 1.6562.1875 1.6562.44837.4225.68863.47662 1.25.625.76957.13487 1.6356.20447 2.3438-.21875.53002-.37393.30355-1.156.25-1.7188-.19447-1.3392-.98543-2.1496-2.1875-2.4375-3.1378-.59102-6.2763-.72425-9.375 0z"/><path d="m111 757h-1c-.25689.00001-.52845.12983-.71875.31251l-1.2812 1.2812-1.2812-1.2812c-.19004-.18293-.46186-.3125-.71878-.31245h-1l-.00001 1c0 .30945.0903.55231.28131.74998l2.7188 2.6562 2.7187-2.6562c.19093-.19772.28126-.44056.28126-.75v-1z"/></g></svg>