<svg height="16" width="16" xmlns="http://www.w3.org/2000/svg"><path d="m8.9524097 1.0235623a6.2467427 7.3237677 80.592044 0 0 -1.4570312.1132812 6.2467427 7.3237677 80.592044 0 0 -6.203125 7.3613281 6.2467427 7.3237677 80.592044 0 0 2.53125 3.8007814c-.3644814.506474-.8129547 1.072805-1.1914063 1.289063-.6711523.383515-2.44531253 1.101562-2.44531253 1.101562s.5719673.29121 1.86914063.28711c.8519501-.0027 4.2521032-.75505 5.5800782-1.421875a6.2467427 7.3237677 80.592044 0 0 1.9023437-.091797 6.2467427 7.3237677 80.592044 0 0 6.2031258-7.3593756 6.2467427 7.3237677 80.592044 0 0 -6.7890633-5.0800781z" fill="#bebebe"/></svg>