<svg height="16" width="16" xmlns="http://www.w3.org/2000/svg"><g fill="#bebebe" transform="translate(0 -6)"><path d="m7.6074219.890625c-.218831 0-.46027-.00615-.65625.03125-.448743.084485-.752513.303241-.90625.46875l-.03125.0625c-.191132.028392-.518098.070728-.78125.28125-.354563.283235-.65625.7767672-.65625 1.65625 0 .623256.03125.991608.03125 1.21875 0 .254842-.2272348.279265-.28125.5625-.07686.398191.036798 1.327658.28125 1.78125.1502739.277695.474901.406255.6875.65625.218139.254842.4375.754423.4375 1.09375 0 .508299-.566682 1.597571-1.8125 2.21875-1.7070278.85109-2.53125 1.221371-2.53125 2.40625h6.7148437a4.4781046 4.4781046 0 0 1 -.0820312-.828125 4.4781046 4.4781046 0 0 1 1.5546875-3.3847656c-.0003543-.0020256.0007603-.0037378 0-.0058594-.0001692-.0077-.0001769-.02357 0-.03125-.047263-.140335-.09375-.272223-.09375-.375 0-.339327.218668-.838907.4375-1.09375.2139851-.249995.5372261-.378555.6875001-.65625.243763-.453591.358119-1.383059.28125-1.78125-.05401-.283927-.28125-.30835-.28125-.5625 0-.227142.0625-.594802.0625-1.21875 0-.8794827-.359601-1.3414213-.8125001-1.75-.4085776-.3691057-1.2153949-.75-2.25-.75zm-1.5625.5.0625-.09375c0-.089334.054367-.1967642.125-.28125l-.125-.09375c-.0651.078253-.103535.1613593-.125.25-.0831-.029086-.1732191-.03125-.28125-.03125v.15625c.128114 0 .230784.016102.3125.0625z" transform="translate(0 6)"/><path d="m12.5 15c-1.933 0-3.5 1.567-3.5 3.5s1.567 3.5 3.5 3.5 3.5-1.567 3.5-3.5-1.567-3.5-3.5-3.5zm-.5 1h1v2h2v1h-2v2h-1v-2h-2v-1h2z" fill-rule="evenodd"/></g></svg>