<svg height="48" width="48" xmlns="http://www.w3.org/2000/svg" xmlns:xlink="http://www.w3.org/1999/xlink"><linearGradient id="a"><stop offset="0" stop-color="#c00"/><stop offset="1" stop-color="#ba0000"/></linearGradient><linearGradient id="b" gradientUnits="userSpaceOnUse" x1="25.058" x2="25.058" y1="47.028" y2="39.999"><stop offset="0" stop-opacity="0"/><stop offset=".5"/><stop offset="1" stop-opacity="0"/></linearGradient><radialGradient id="c" cx="4.993" cy="43.5" gradientTransform="matrix(2.0038 0 0 1.4 -20.012 -104.4)" gradientUnits="userSpaceOnUse" r="2.5" xlink:href="#d"/><linearGradient id="d"><stop offset="0"/><stop offset="1" stop-opacity="0"/></linearGradient><radialGradient id="e" cx="4.993" cy="43.5" gradientTransform="matrix(2.0038 0 0 1.4 27.988 -17.4)" gradientUnits="userSpaceOnUse" r="2.5" xlink:href="#d"/><linearGradient id="f" gradientTransform="matrix(2.0413 0 0 2.331 1.6149 .62334)" gradientUnits="userSpaceOnUse" x1="11" x2="11" y1="5.7222" y2="9.0032"><stop offset="0" stop-color="#c00"/><stop offset="1" stop-color="#730000"/></linearGradient><radialGradient id="g" cx="9.6991" cy="5.2384" gradientTransform="matrix(1.0387 .041947 -.038984 .96533 -.17129 -.22525)" gradientUnits="userSpaceOnUse" r="2.4687"><stop offset="0" stop-color="#fce94f"/><stop offset="1" stop-color="#fce94f" stop-opacity="0"/></radialGradient><linearGradient id="h" gradientTransform="matrix(1.475 0 0 1.4755 .46463 -.2665)" gradientUnits="userSpaceOnUse" x1="5.6569" x2="3.2704" xlink:href="#a" y1="14.19" y2="15.604"/><linearGradient id="i" gradientTransform="matrix(-1.475 0 0 1.4755 47.577 -.29409)" gradientUnits="userSpaceOnUse" x1="5.6569" x2="3.2704" xlink:href="#a" y1="14.19" y2="15.604"/><linearGradient id="j" gradientTransform="matrix(1.475 0 0 1.472 .46463 -.034882)" gradientUnits="userSpaceOnUse" x1="9.7178" x2="9.983" y1="25.64" y2="19.545"><stop offset="0" stop-color="#df0000"/><stop offset="1" stop-color="#ba0000"/></linearGradient><linearGradient id="k" gradientUnits="userSpaceOnUse" x1="8.8595" x2="8.4978" y1="13.209" y2="9.7519"><stop offset="0" stop-color="#eeeeec"/><stop offset="1" stop-color="#cbcbc3"/></linearGradient><linearGradient id="l" gradientUnits="userSpaceOnUse" x1="25.75" x2="25.75" y1="35.811" y2="21.651"><stop offset="0" stop-color="#8b0000"/><stop offset="1" stop-color="#af0000"/></linearGradient><linearGradient id="m"><stop offset="0" stop-color="#e06666"/><stop offset="1" stop-color="#e06666" stop-opacity="0"/></linearGradient><linearGradient id="n" gradientUnits="userSpaceOnUse" x1="7.0987" x2="3.0329" xlink:href="#m" y1="23.653" y2="27.266"/><linearGradient id="o" gradientUnits="userSpaceOnUse" x1="39.44" x2="45.068" xlink:href="#m" y1="25.117" y2="25.117"/><g opacity=".4" transform="matrix(1.07438882 0 0 1.45952664 -1.715828 -22.215401)"><path d="m38 40h5v7h-5z" fill="url(#e)" opacity="1"/><path d="m-10-47h5v7h-5z" fill="url(#c)" opacity="1" transform="scale(-1)"/><path d="m10 40h28v7h-28z" fill="url(#b)" opacity="1"/></g><path d="m11.647 15.434h24.685l3.235 10.819v15.548c.039 1.224-.74 1.716-1.499 1.646h-27.83c-.8291.01-1.5246-.763-1.6301-1.581v-15.613z" fill="url(#j)" stroke="url(#l)" stroke-linejoin="round"/><path d="m9.7802 15.941h28.579v10.119h-28.579z" fill="#fff" opacity=".31925"/><path d="m8.7595 25.101-6.124 1.881 2.0158-6.643 7.1647-5.013z" fill="url(#h)" fill-rule="evenodd" stroke="#ae0000" stroke-linejoin="round"/><path d="m14.212 16.94h19.806l1.748 6.993h-23.393z" fill="url(#f)"/><path d="m9.5288 25.949v16.519h28.958v-16.519" fill="none" opacity=".31455" stroke="#eeeeec"/><g fill="url(#g)"><path d="m12.264 5.324a2.4687 2.4687 0 1 1 -4.9374 0 2.4687 2.4687 0 1 1 4.9374 0z" opacity=".7" transform="matrix(1.2403 0 0 1.2415 6.817 10.144)"/><path d="m12.264 5.324a2.4687 2.4687 0 1 1 -4.9374 0 2.4687 2.4687 0 1 1 4.9374 0z" opacity=".7" transform="matrix(1.4262 0 0 1.4275 8.6202 2.5646)"/><path d="m12.264 5.324a2.4687 2.4687 0 1 1 -4.9374 0 2.4687 2.4687 0 1 1 4.9374 0z" opacity=".7" transform="matrix(1.7021 0 0 1.7037 -3.8637 1.627)"/><path d="m12.264 5.324a2.4687 2.4687 0 1 1 -4.9374 0 2.4687 2.4687 0 1 1 4.9374 0z" opacity=".7" transform="matrix(1.61 0 0 1.6115 21.503 -1.3895)"/><path d="m12.264 5.324a2.4687 2.4687 0 1 1 -4.9374 0 2.4687 2.4687 0 1 1 4.9374 0z" opacity=".7" transform="matrix(1.2403 0 0 1.2415 19.065 6.0577)"/><path d="m12.264 5.324a2.4687 2.4687 0 1 1 -4.9374 0 2.4687 2.4687 0 1 1 4.9374 0z" opacity=".7" transform="matrix(1.8198 0 0 1.8215 9.9169 -1.7283)"/></g><g fill="#fff"><path d="m5.9887 3.6914a.34244.35837 0 1 1 -.6849 0 .34244.35837 0 1 1 .6849 0z" opacity=".7" transform="matrix(4.4533 0 0 4.0528 -12.83 -4.7673)"/><path d="m5.9887 3.6914a.34244.35837 0 1 1 -.6849 0 .34244.35837 0 1 1 .6849 0z" opacity=".7" transform="matrix(2.9469 0 0 2.8508 2.3156 6.2303)"/><path d="m5.9887 3.6914a.34244.35837 0 1 1 -.6849 0 .34244.35837 0 1 1 .6849 0z" opacity=".7" transform="matrix(4.3746 0 0 4.1245 -2.1519 -5.0578)"/><path d="m5.9887 3.6914a.34244.35837 0 1 1 -.6849 0 .34244.35837 0 1 1 .6849 0z" opacity=".7" transform="matrix(4.2794 0 0 4.1172 2.8919 -7.9328)"/><path d="m5.9887 3.6914a.34244.35837 0 1 1 -.6849 0 .34244.35837 0 1 1 .6849 0z" opacity=".7" transform="matrix(3.8252 0 0 3.7005 15.66 -6.47)"/><path d="m5.9887 3.6914a.34244.35837 0 1 1 -.6849 0 .34244.35837 0 1 1 .6849 0z" opacity=".7" transform="matrix(2.9469 0 0 2.8508 14.587 2.1437)"/></g><path d="m11.848 15.625-2.9082-1.011-2.5601 1.555.0633-3.078-2.2703-1.954 2.9473-.891 1.157-2.7635 1.758 2.5275 2.986.247-1.861 2.453z" fill="url(#k)" transform="matrix(1.566 .16248 -.16387 1.5527 12.291 14.959)"/><path d="m39.282 25.073 6.124 1.881-2.016-6.642-7.165-5.014z" fill="url(#i)" fill-rule="evenodd" stroke="#ae0000" stroke-linejoin="round"/><path d="m3.5329 25.783 4.6283-1.63" fill="none" stroke="url(#n)"/><path d="m44.568 25.932-4.628-1.63" fill="none" stroke="url(#o)"/></svg>