<svg height="16" width="16" xmlns="http://www.w3.org/2000/svg"><g fill="#bebebe"><g transform="translate(-.001538 -.376953)"><path d="m4.46875 1.2382812v5.5429688h.7089844v-4.8652344h5.6445316v4.8652344h.677734v-5.5429688z" stroke-width="1.056329"/><g transform="translate(.001538 .376953)"><path d="m2.6542969 5.3730469-.125.34375h-.46875c-.4294694.4522647-.6352799.8914838-.8125 1.34375-.1625648 2.0729246-.1625648 2.9584401 0 5.0312501h.21875 1.8125v-1.28125c0-.06541.012822-.129403.03125-.1875v-.09375c0-.264852.229098-.5.5-.5h3.4023437c.0236697-.1260793.0663225-.2445585.1035156-.3652345h-3.5058593c-.4825665 0-.8652344.3894535-.8652344.8652345v.082031c-.014331.06317-.03125.123745-.03125.199219v.916015h-1.3164063c-.1287215-1.7563805-.1331324-2.7021186.0117188-4.570312.1509434-.3809701.3404583-.7196692.6484375-1.0742188h.2714844a.36580844.36580844 0 0 0 .34375-.2402343l.0371093-.1035157h.3164063a.36580844.36580844 0 0 0 .3652344.34375h.0722656v.5410157a.36580844.36580844 0 0 0 .3652344.3652343h7.9062501a.36580844.36580844 0 0 0 .365234-.3652343v-.5410157h.041016a.36580844.36580844 0 0 0 .365234-.34375h.347657l.037109.1035157a.36580844.36580844 0 0 0 .34375.2402343h.267578c.325586.4054692.472827.7098341.652344 1.0839844.144057 1.8599141.142202 2.8079799.013672 4.5605464h-.460938l.371094.365235h.21875.21875c.162677-2.07281.162677-2.9583255 0-5.0312501-.208087-.425576-.337074-.7975356-.8125-1.34375h-.46875l-.125-.34375h-1.0625l.09375.34375h-.40625v.90625h-7.9062501v-.90625h-.4375l.0625-.34375zm10.9941411 3.4765625c.191777.3153068.337113.6604298.421874 1.0292968.043791-.0885081.074219-.1827919.074219-.2871093 0-.3178535-.200876-.6201074-.496093-.7421875zm-2.988282.8789062c-.283807 0-.522483.1161474-.6894529.3007814h1.3789059c-.166976-.1846289-.405668-.3007814-.689453-.3007814zm-9.4746091 2.3945314.1875.84375c.012532.07898.058638.08683.125.09375l1.9375-.03125-.03125-.875zm13.6875001 0-.552735.007812.451172.445313zm-13.2304689.371094 1.4082031.021484.0058594.154297-1.3691406.021484z"/><path d="m4.7851562 10.931641-.4550781 4.207031h7.3046879l-.128907-1.185547c-.180271.069909-.360152.141906-.552734.181641l.072266.652343h-6.0859379l.3808594-3.478515h1.8984375c-.0234031-.122643-.0289554-.250303-.0390625-.376953zm4.9980469 0c.0414704.143561.103051.274612.2011719.376953h.660156l.03125.277344c.216114-.003334.400723-.081298.552735-.197266l-.048828-.457031z"/><path d="m4.1679688 6.9960938v2.1308593h3.3652343c.5320756-1.0444145 1.5749924-1.7894962 2.8007809-1.9101562a.78975534.78975534 0 0 1 .324219-.0703125c.411427 0 .801987.0845262 1.169922.2167968v-.3671874z" opacity=".5"/></g></g><path d="m10.66 7.94c-1.4956 0-2.7188 1.2232-2.7188 2.7188s1.2232 2.7188 2.7188 2.7188c.4871 0 .94729-.14835 1.3438-.375a.75008.75008 0 0 0 .15625.21875l1.8438 1.8125a.75130096.75130096 0 1 0 1.0625-1.0625l-1.8438-1.8125a.75008.75008 0 0 0 -.22-.16c.22665-.39646.375-.85664.375-1.3438 0-1.4956-1.2232-2.7188-2.7188-2.7188zm0 1c.95516 0 1.7188.76359 1.7188 1.7188 0 .95516-.76359 1.7188-1.7188 1.7188-.95516 0-1.7188-.76359-1.7188-1.7188 0-.95516.76359-1.7188 1.7188-1.7188z"/></g></svg>