<svg height="16" width="16" xmlns="http://www.w3.org/2000/svg"><g fill="#bebebe"><path d="m2.6875 1v2.125l.90625-.9375c.010416-.0001302.020834-.0001302.03125 0 .014356-.014356.047061-.045679.0625-.0625v-.125h.15625c.037385-.032436.038874-.05743.09375-.09375.174256-.1153303.471952-.238865.75-.25.4672995-.018679.7781475.15479 1 .34375h2.78125 4.53125v6.8125 2.375 2.8125h-4.53125-2.8125c-.2470339.183508-.5687076.328815-.9375.3125-.3502441-.015494-.6172277-.149238-.84375-.3125h-.1875v-.15625c-.0150144-.014021-.0484679-.017218-.0625-.03125l-.9375-.9375v2.125h7 4.3125v-3.0625-3.875-7.0625h-4.3125zm0 4.46875v.21875h.21875zm0 4.875v.1875l.1875-.1875z"/><path d="m4.75 2.90625c-.08515.00341-.147906.054156-.25.15625l-.9375.96875c-.1848431.1848432-.1998696.3626306-.0625.5l1.96875 1.96875a.25373612.25373612 0 0 1 .03125.0625.25373612.25373612 0 0 1 .03125.09375.25373612.25373612 0 0 1 -.125.25.25373612.25373612 0 0 1 -.125.03125h-4.40625c-.2369351 0-.40625.1693149-.40625.40625v1.34375c0 .2369351.1693149.40625.40625.40625h4.375a.25373612.25373612 0 0 1 .0625 0 .25373612.25373612 0 0 1 .15625.125.25373612.25373612 0 0 1 .03125.09375.25373612.25373612 0 0 1 -.0625.21875l-1.9375 1.9375c-.1296061.129606-.1151768.353573.0625.53125l.9375.9375c.177677.177674.354868.176382.5.03125l4.75-4.625c.0664-.066403.10728-.1364666.125-.21875a.25373612.25373612 0 0 1 0-.03125c.000547-.00146.02629-.010674.03125-.03125.000307-.00781-.00002-.024475 0-.03125.00002-.00678.000207-.027447 0-.03125a.25373612.25373612 0 0 1 0-.03125c-.000257.0039951-.013093-.015693-.03125-.09375-.016479-.070851-.046466-.108968-.125-.1875l-4.75-4.65625c-.08068-.080682-.168707-.1282495-.25-.125z"/></g></svg>