<svg height="16" width="16" xmlns="http://www.w3.org/2000/svg"><path d="m1.1661954 1c-.1250565 0-.1710006.1669209-.1710006.3420012v11.4912398l1.8468065 2.166759h.0684 1.0944039 8.0794248 2.41577l.327826-.0042c.12505-.0016.171-.16692.171-.342001v-13.3159817c0-.1750796-.0471-.3249781-.171-.34200116l-.86259.00418386h-.307801-11.157435-.1710007zm1.8338046 1h10l.0065 5.6582204c-.000239.1829354-.1143.3420009-.239361.3420009l-9.521199.0000003c-.1250566 0-.2391886-.1590654-.2394008-.3420012zm1.1806112 6.9918023 6.8193888.0081977h.726399c.12506 0 .273601.1248643.273601.3077998v4.6922002l-7.9903895-.0082v-4.6921972c0-.1829355.045944-.3079762.1710007-.3078005zm.8193888 1.0081977v3.659413h2v-3.659413z" fill="#bebebe"/></svg>