<svg height="16" width="16" xmlns="http://www.w3.org/2000/svg"><g fill="#bebebe" transform="matrix(.82578026 0 0 .82578026 18.580309 -2.825463)"><path d="m2 1-.0605469 15h3.0605469v-1h-2v-13h7l3 2.5v3.53125 6.96875h-4.2382812-1.7617188v1h2.6777344 3.3222656 1v-1-6.7363281-3.7636719l-3.345703-3.5z" transform="matrix(1.2109759 0 0 1.2109759 -22.500307 3.421568)"/><path d="m-10.390547 4.6325435v4.2384157h3.6329272 1.210976l-4.051223-4.2384157z"/><path d="m-11.601524 20.375231v-2.421953-1.920535l.35478.35478c.227058.227118.535045.354731.856196.354779h1.2109756v-1.210975c0-.326964-.132227-.640038-.366599-.868028l-3.2663286-3.266317-3.278148 3.278148c-.227118.227058-.354731.535046-.35478.856197v1.210975h1.210976c.321151-.000048.629417-.127951.856197-.354779.0048-.0036.0085-.0085.01211-.01211l.34267-.34267v1.920535 3.632929c.000073.668773 1.753179 1.210903 2.421952 1.210975z" fill-rule="evenodd" stroke-width="1.210976"/></g></svg>