<svg height="16" width="16" xmlns="http://www.w3.org/2000/svg"><g fill="#a3a3a3"><path d="m2 1v14h7 4v-2.21875l-1 .96875v.25h-.34375c-.247034.183508-.568708.328815-.9375.3125-.350244-.015494-.617228-.149238-.84375-.3125h-2.09375-4.78125v-12h4.78125 2.0625c.0373847-.0324359.0388739-.0574305.09375-.09375.174256-.1153303.471952-.238865.75-.25.467299-.0186792.778148.15479 1 .34375h.3125v.25l1 .96875v-2.21875h-4zm10.71875 5.3125a1.2502328 1.2502328 0 0 1 0 .1875 1.2502328 1.2502328 0 0 1 -.0625.375 1.2502328 1.2502328 0 0 1 -.25.4375 1.2502328 1.2502328 0 0 1 -.40625.3125v.3125l.03125.0625c.103598-.0594638-.070327.0316037.03125-.03125s-.036946.034925.0625-.03125-.065955.038174.03125-.03125-.063609.0413473.03125-.03125-.061159.0444413.03125-.03125-.027358.0474528.0625-.03125-.055959.0503783.03125-.03125-.053215.0532146.03125-.03125-.050378.0559588.03125-.03125-.047453.0586078.03125-.03125-.044441.0299087.03125-.0625-.041347.0636087.03125-.03125-.038174.0659552.03125-.03125-.034925.0681956.03125-.03125-.031604.0390774.03125-.0625-.028214.0723483.03125-.03125c-.014803.0189342-.028951.0226061 0-.03125.057901-.1077122-.023995.0778482.03125-.03125-.013475.0196271-.026278.0239594 0-.03125.052556-.1104187-.018586.080423.03125-.03125-.012115.0202541-.023542.0251801 0-.03125.047085-.1128602-.013056.0514797.03125-.0625-.010726.0208138-.020751.0262654 0-.03125.041501-.1150308-.007421.0847629.03125-.03125-.009311.0213048-.017909.0272127 0-.03125-.008595.0215241-.016471.0276338 0-.03125.032943-.1177677.001202.0872893.03125-.03125s-.027135.0879898 0-.03125-.024206.0886187 0-.03125-.021263.0579256 0-.0625c.005316-.0301064-.002496-.0321215 0-.03125 0 0 .03125.03125.03125.03125.002127.0008109-.004577-.0010224 0-.03125.018306-.1209104-.015339.0900725 0-.03125.030863-.2486896-.023173.1870237 0-.0625s-.015461.21887 0-.03125-.007734.187978 0-.0625 0 .2193474 0-.03125.007734.219228 0-.03125.015461.18762 0-.0625.023173.2182737 0-.03125.030863.1861896 0-.0625c-.015339-.1213225.018306.0896604 0-.03125-.004577-.0302276.002127-.0320609 0-.03125 0 0-.03125.03125-.03125.03125-.002496.0008715.005316-.0011436 0-.03125-.021263-.1204256.024206.0573687 0-.0625s.027135.0879898 0-.03125.030048.0872893 0-.03125c-.003756-.0148174-.027186.0043907-.03125 0zm-.71875 1.71875v.375a1.2502328 1.2502328 0 0 1 .375.28125 1.2502328 1.2502328 0 0 1 .25.46875 1.2502328 1.2502328 0 0 1 .0625.375 1.2502328 1.2502328 0 0 1 0 .21875c.032943-.1177677.001202.0872893.03125-.03125s-.027135.0879898 0-.03125-.024206.0886187 0-.03125-.021263.0579256 0-.0625c.005316-.0301064-.002496-.0321215 0-.03125 0 0 .03125.03125.03125.03125.002127.0008109-.004577-.0010224 0-.03125.018306-.1209104-.015339.0900725 0-.03125.030863-.2486896-.023173.1870237 0-.0625s-.015461.21887 0-.03125-.007734.187978 0-.0625 0 .2193474 0-.03125.007734.219228 0-.03125.015461.18762 0-.0625.023173.2182737 0-.03125.030863.1861896 0-.0625c-.015339-.1213225.018306.0896604 0-.03125-.004577-.0302276.002127-.0320609 0-.03125 0 0-.03125.03125-.03125.03125-.002496.0008715.005316-.0011436 0-.03125-.021263-.1204256.024206.0573687 0-.0625s.027135.0879898 0-.03125.030048.0872893 0-.03125.001693.0865177-.03125-.03125c-.016471-.0588839-.008595-.0527741 0-.03125-.017909-.0584627-.009311-.0525548 0-.03125-.038671-.1160129.010251.0837808-.03125-.03125-.020751-.0575154-.010726-.0520638 0-.03125-.044306-.1139797.015835.0503602-.03125-.0625-.023542-.0564301-.012115-.0515041 0-.03125-.049836-.111673.021306.0791687-.03125-.03125-.026278-.0552094-.013475-.0508771 0-.03125-.055245-.1090982.026651.0764622-.03125-.03125-.028951-.0538561-.014803-.0501842 0-.03125-.059464-.1035983.031604.0703274-.03125-.03125s.034925.0369456-.03125-.0625.038174.0659552-.03125-.03125.041347.0636087-.03125-.03125.044441.0611587-.03125-.03125.047453.0273578-.03125-.0625.050378.0559588-.03125-.03125.053215.0532146-.03125-.03125.055959.0503783-.03125-.03125.058608.0474528-.03125-.03125.029909.0444413-.0625-.03125.063609.0413473-.03125-.03125.065955.038174-.03125-.03125.068196.034925-.03125-.03125c-.205571-.1411773.147823.1027454-.0625-.03125-.031548-.0200993-.022798-.0250753-.03125-.03125z"/><path d="m10.75 2.90625c-.08515.00341-.147906.054156-.25.15625l-.9375.96875c-.1848431.1848432-.1998696.3626306-.0625.5l1.96875 1.96875a.25373612.25373612 0 0 1 .03125.0625.25373612.25373612 0 0 1 .03125.09375.25373612.25373612 0 0 1 -.125.25.25373612.25373612 0 0 1 -.125.03125h-4.40625c-.2369351 0-.40625.1693149-.40625.40625v1.34375c0 .2369351.1693149.40625.40625.40625h4.375a.25373612.25373612 0 0 1 .0625 0 .25373612.25373612 0 0 1 .15625.125.25373612.25373612 0 0 1 .03125.09375.25373612.25373612 0 0 1 -.0625.21875l-1.9375 1.9375c-.1296061.129606-.1151768.353573.0625.53125l.9375.9375c.177677.177674.354868.176382.5.03125l4.75-4.625c.0664-.066403.10728-.1364666.125-.21875a.25373612.25373612 0 0 1 0-.03125c.000547-.00146.02629-.010674.03125-.03125.000307-.00781-.00002-.024475 0-.03125.00002-.00678.000207-.027447 0-.03125a.25373612.25373612 0 0 1 0-.03125c-.000257.0039951-.013093-.015693-.03125-.09375-.016479-.070851-.046466-.108968-.125-.1875l-4.75-4.65625c-.08068-.080682-.168707-.1282495-.25-.125z"/></g></svg>