<?xml version="1.0" encoding="UTF-8" standalone="no"?>
<!-- Created with Inkscape (http://www.inkscape.org/) -->

<svg
   xmlns:dc="http://purl.org/dc/elements/1.1/"
   xmlns:cc="http://creativecommons.org/ns#"
   xmlns:rdf="http://www.w3.org/1999/02/22-rdf-syntax-ns#"
   xmlns:svg="http://www.w3.org/2000/svg"
   xmlns="http://www.w3.org/2000/svg"
   xmlns:sodipodi="http://sodipodi.sourceforge.net/DTD/sodipodi-0.dtd"
   xmlns:inkscape="http://www.inkscape.org/namespaces/inkscape"
   id="svg7854"
   height="16"
   width="16"
   version="1.0"
   inkscape:version="0.92.2 (unknown)"
   sodipodi:docname="document-print-preview-symbolic.svg"
   inkscape:export-filename="/usr/share/icons/Karasa Jaga/scalable/status/media-playlist-repeat.png"
   inkscape:export-xdpi="90"
   inkscape:export-ydpi="90">
  <metadata
     id="metadata5314">
    <rdf:RDF>
      <cc:Work
         rdf:about="">
        <dc:format>image/svg+xml</dc:format>
        <dc:type
           rdf:resource="http://purl.org/dc/dcmitype/StillImage" />
        <dc:title></dc:title>
      </cc:Work>
    </rdf:RDF>
  </metadata>
  <sodipodi:namedview
     pagecolor="#ffffff"
     bordercolor="#666666"
     borderopacity="1"
     objecttolerance="10"
     gridtolerance="10"
     guidetolerance="10"
     inkscape:pageopacity="0"
     inkscape:pageshadow="2"
     inkscape:window-width="1366"
     inkscape:window-height="716"
     id="namedview5312"
     showgrid="false"
     inkscape:zoom="19.666668"
     inkscape:cx="4.5765479"
     inkscape:cy="6.2722271"
     inkscape:window-x="0"
     inkscape:window-y="27"
     inkscape:window-maximized="1"
     inkscape:current-layer="svg7854" />
  <defs
     id="defs7856">
    <linearGradient
       id="linearGradient5841">
      <stop
         style="stop-color:#37e700;stop-opacity:1;"
         offset="0"
         id="stop5843" />
      <stop
         id="stop5849"
         offset="0.5"
         style="stop-color:#3dfe00;stop-opacity:1;" />
      <stop
         style="stop-color:#2aad00;stop-opacity:1;"
         offset="1"
         id="stop5845" />
    </linearGradient>
    <linearGradient
       id="linearGradient4117"
       y2="34.612"
       gradientUnits="userSpaceOnUse"
       x2="22.402"
       y1="15.722"
       x1="22.146999">
      <stop
         id="stop4113"
         style="stop-color:#fff"
         offset="0" />
      <stop
         id="stop4115"
         style="stop-color:#fff;stop-opacity:0"
         offset="1" />
    </linearGradient>
    <linearGradient
       id="linearGradient3696"
       y2="21"
       gradientUnits="userSpaceOnUse"
       x2="15"
       y1="2"
       x1="15">
      <stop
         id="stop3700"
         style="stop-color:#eeeeec"
         offset="0" />
      <stop
         id="stop3702"
         style="stop-color:#babdb6"
         offset=".79220" />
      <stop
         id="stop3704"
         style="stop-color:#a1a59b"
         offset="1" />
    </linearGradient>
    <filter
       id="filter7554"
       color-interpolation-filters="sRGB">
      <feBlend
         mode="darken"
         in2="BackgroundImage"
         id="feBlend7556" />
    </filter>
    <filter
       id="filter7554-7"
       color-interpolation-filters="sRGB">
      <feBlend
         mode="darken"
         in2="BackgroundImage"
         id="feBlend7556-6" />
    </filter>
  </defs>
  <g
     id="g81"
     transform="translate(-0.0015382,-0.3769531)">
    <path
       id="rect363"
       d="M 4.46875,1.2382812 V 6.78125 H 5.1777344 V 1.9160156 H 10.822266 V 6.78125 H 11.5 V 1.2382812 Z"
       style="fill:#bebebe;fill-opacity:1;stroke-width:1.05632913"
       inkscape:connector-curvature="0" />
    <path
       style="fill:#bebebe;fill-opacity:1"
       d="M 2.6542969 5.3730469 L 2.5292969 5.7167969 L 2.0605469 5.7167969 C 1.6310775 6.1690616 1.425267 6.6082807 1.2480469 7.0605469 C 1.0854821 9.1334715 1.0854821 10.018987 1.2480469 12.091797 L 1.4667969 12.091797 L 3.2792969 12.091797 L 3.2792969 10.810547 C 3.2792969 10.745137 3.2921189 10.681144 3.3105469 10.623047 L 3.3105469 10.529297 C 3.3105469 10.264445 3.5396449 10.029297 3.8105469 10.029297 L 7.2128906 10.029297 C 7.2365603 9.9032177 7.2792131 9.7847385 7.3164062 9.6640625 L 3.8105469 9.6640625 C 3.3279804 9.6640625 2.9453125 10.053516 2.9453125 10.529297 L 2.9453125 10.611328 C 2.9309815 10.674498 2.9140625 10.735073 2.9140625 10.810547 L 2.9140625 11.726562 L 1.5976562 11.726562 C 1.4689347 9.9701815 1.4645238 9.0244434 1.609375 7.15625 C 1.7603184 6.7752799 1.9498333 6.4365808 2.2578125 6.0820312 L 2.5292969 6.0820312 A 0.36580844 0.36580844 0 0 0 2.8730469 5.8417969 L 2.9101562 5.7382812 L 3.2265625 5.7382812 A 0.36580844 0.36580844 0 0 0 3.5917969 6.0820312 L 3.6640625 6.0820312 L 3.6640625 6.6230469 A 0.36580844 0.36580844 0 0 0 4.0292969 6.9882812 L 11.935547 6.9882812 A 0.36580844 0.36580844 0 0 0 12.300781 6.6230469 L 12.300781 6.0820312 L 12.341797 6.0820312 A 0.36580844 0.36580844 0 0 0 12.707031 5.7382812 L 13.054688 5.7382812 L 13.091797 5.8417969 A 0.36580844 0.36580844 0 0 0 13.435547 6.0820312 L 13.703125 6.0820312 C 14.028711 6.4875004 14.175952 6.7918653 14.355469 7.1660156 C 14.499526 9.0259297 14.497671 9.9739955 14.369141 11.726562 L 13.908203 11.726562 L 14.279297 12.091797 L 14.498047 12.091797 L 14.716797 12.091797 C 14.879474 10.018987 14.879474 9.1334715 14.716797 7.0605469 C 14.50871 6.6349709 14.379723 6.2630113 13.904297 5.7167969 L 13.435547 5.7167969 L 13.310547 5.3730469 L 12.248047 5.3730469 L 12.341797 5.7167969 L 11.935547 5.7167969 L 11.935547 6.6230469 L 4.0292969 6.6230469 L 4.0292969 5.7167969 L 3.5917969 5.7167969 L 3.6542969 5.3730469 L 2.6542969 5.3730469 z M 13.648438 8.8496094 C 13.840215 9.1649162 13.985551 9.5100392 14.070312 9.8789062 C 14.114103 9.7903981 14.144531 9.6961143 14.144531 9.5917969 C 14.144531 9.2739434 13.943655 8.9716895 13.648438 8.8496094 z M 10.660156 9.7285156 C 10.376349 9.7285156 10.137673 9.844663 9.9707031 10.029297 L 11.349609 10.029297 C 11.182633 9.8446681 10.943941 9.7285156 10.660156 9.7285156 z M 1.1855469 12.123047 L 1.3730469 12.966797 C 1.3855789 13.045777 1.4316849 13.053627 1.4980469 13.060547 L 3.4355469 13.029297 L 3.4042969 12.154297 L 1.1855469 12.123047 z M 14.873047 12.123047 L 14.320312 12.130859 L 14.771484 12.576172 L 14.873047 12.123047 z M 1.6425781 12.494141 L 3.0507812 12.515625 L 3.0566406 12.669922 L 1.6875 12.691406 L 1.6425781 12.494141 z "
       transform="translate(0.0015382,0.3769531)"
       id="polygon76" />
    <path
       style="fill:#bebebe;fill-opacity:1"
       d="M 4.7851562 10.931641 L 4.3300781 15.138672 L 11.634766 15.138672 L 11.505859 13.953125 C 11.325588 14.023034 11.145707 14.095031 10.953125 14.134766 L 11.025391 14.787109 L 4.9394531 14.787109 L 5.3203125 11.308594 L 7.21875 11.308594 C 7.1953469 11.185951 7.1897946 11.058291 7.1796875 10.931641 L 4.7851562 10.931641 z M 9.7832031 10.931641 C 9.8246735 11.075202 9.8862541 11.206253 9.984375 11.308594 L 10.644531 11.308594 L 10.675781 11.585938 C 10.891895 11.582604 11.076504 11.50464 11.228516 11.388672 L 11.179688 10.931641 L 9.7832031 10.931641 z "
       transform="translate(0.0015382,0.3769531)"
       id="rect4186" />
    <path
       style="opacity:0.5;fill:#bebebe;fill-opacity:1;stroke:none;stroke-width:0.63900262"
       d="M 4.1679688 6.9960938 L 4.1679688 9.1269531 L 7.5332031 9.1269531 C 8.0652787 8.0825386 9.1081955 7.3374569 10.333984 7.2167969 A 0.78975534 0.78975534 0 0 1 10.658203 7.1464844 C 11.06963 7.1464844 11.46019 7.2310106 11.828125 7.3632812 L 11.828125 6.9960938 L 4.1679688 6.9960938 z "
       transform="translate(0.0015382,0.3769531)"
       id="path3850-3" />
  </g>
  <path
     inkscape:connector-curvature="0"
     d="m 10.66,7.94 c -1.4956,0 -2.7188,1.2232 -2.7188,2.7188 0,1.4956 1.2232,2.7188 2.7188,2.7188 0.4871,0 0.94729,-0.14835 1.3438,-0.375 a 0.75008,0.75008 0 0 0 0.15625,0.21875 l 1.8438,1.8125 a 0.75130096,0.75130096 0 1 0 1.0625,-1.0625 l -1.8438,-1.8125 a 0.75008,0.75008 0 0 0 -0.22,-0.16 c 0.22665,-0.39646 0.375,-0.85664 0.375,-1.3438 0,-1.4956 -1.2232,-2.7188 -2.7188,-2.7188 z m 0,1 c 0.95516,0 1.7188,0.76359 1.7188,1.7188 0,0.95516 -0.76359,1.7188 -1.7188,1.7188 -0.95516,0 -1.7188,-0.76359 -1.7188,-1.7188 C 8.9412,9.70364 9.70479,8.94 10.66,8.94 Z"
     style="color:#000000;text-indent:0;text-transform:none;fill:#bebebe;enable-background:new"
     id="path27332" />
</svg>
