<svg height="16" width="16" xmlns="http://www.w3.org/2000/svg"><g fill="#bebebe"><path d="m1.5 1.34375c-.1250565 0-.15625.1686697-.15625.34375v10.21875l3.34375-3.46875h-1.28125c-.125056.0003754-.2190277-.1608143-.21875-.34375v-5.96875l9.53125-.03125v5.96875c-.000239.1829354-.12494.3433745-.25.34375h-2.03125l-1.40625 1.4375h2.125c.12506 0 .25.1295645.25.3125v4h-6.625l-.5.5h.0625 7.0625 2.46875.625c.12506 0 .15625-.168669.15625-.34375v-12.625c0-.1750796-.03119-.34375-.15625-.34375h-1.1875-.3125-10.15625-.1875zm5.75 10.3125-1.75 1.78125v.375h1.75z"/><path d="m10.509959 5.0655656a.15805377.15805377 0 0 0 -.05411.027054l-1.7855747.8927884a.15805377.15805377 0 0 0 -.027054.027054l-8.08920187 8.440906a.15805377.15805377 0 0 0 -.0270542.02705.15805377.15805377 0 0 0 -.0270542.08116.15805377.15805377 0 0 0 0 .02705.15805377.15805377 0 0 0 0 .02705c.1097921.394319.27598604.617804.48697535.757518.21098932.139714.46312352.180121.67635472.189379a.15805377.15805377 0 0 0 .027054 0 .15805377.15805377 0 0 0 .054108-.02705.15805377.15805377 0 0 0 .027054-.02705l8.0892025-8.2244661a.15805377.15805377 0 0 0 .027054-.027054.15805377.15805377 0 0 0 0-.027054l.7845714-1.9479018a.15805377.15805377 0 0 0 .02705-.054108.15805377.15805377 0 0 0 0-.027054.15805377.15805377 0 0 0 -.02705-.054108.15805377.15805377 0 0 0 -.02705-.027054.15805377.15805377 0 0 0 -.02705-.027054.15805377.15805377 0 0 0 -.05411-.027054.15805377.15805377 0 0 0 -.02705 0 .15805377.15805377 0 0 0 -.02705 0z"/></g></svg>