<svg height="16" width="16" xmlns="http://www.w3.org/2000/svg"><g fill="#bebebe" transform="matrix(.82578026 0 0 .82578026 18.580309 -2.825463)"><g transform="matrix(1 0 0 -1 0 26.21875)"><path d="m-20.078355 4.6325435-.07378 18.1646385h14.6054912v-13.9262228l-4.051223-4.2384157zm1.210976 1.2109759h8.476832l3.6329271 3.0274398.0000001 12.7152468h-12.1097592z" fill-opacity=".902043"/><path d="m-10.390547 4.6325435v4.2384157h3.6329272 1.210976l-4.051223-4.2384157z"/></g><path d="m-14.175041 14.305589 1.575019-1.839882-.922434-.784224s-2.133612-.512736-3.226302.0093c-2.707724 1.293572-2.071659 4.007257-2.908366 5.225225l-.15633-4.013262c.04022-1.320057.190189-2.166327 1.922664-3.1153781 3.186184-1.7453937 5.943354.054257 5.943354.054257l.922434.7842241 1.5750202-1.8398815 1.777204 6.3036165z" stroke-width="1.210976"/></g></svg>