<svg height="16" width="16" xmlns="http://www.w3.org/2000/svg"><path d="m1.7714844 2.1679688c-.2281974 0-.3164586.2107767-.4121094.4277343l-.2402344.5429688.0996094 4.703125c.00895-.0004971.0193388.0030568.0273438-.0019531h.71875l.0039062-.4160157v-3.21875h.3261719v-2.0371093zm11.9335936 1.1621093v.875h.326172v2.4882813h.808594l.039062-2.9355469c.0099-.2368992-.181954-.4277344-.410156-.4277344z" fill="#ccc"/><path d="m1.0037089 8.8905728h3.1960643l1.4486719-1.1733648h9.3481199c.23712 0 .446448.1916138.428016.4280169l-.518141 6.6455101c-.01843.236402-.190895.428015-.428015.428015h-12.9565756c-.23712 0-.4056633-.191952-.4280156-.428015l-.5181447-5.472145c-.02235245-.2360654.22700791-.3022301.4280198-.4280172z" fill="#ccc"/><g fill="#bebebe"><path d="m3.3711206.78125v6.5273438h.4863281l.013672-5.9765626 5.6796874-.025391 2.4765629 2.1523438.05078 3.7773437a.8583401.8583401 0 0 1 .144531.072266h.40625v-3.9492187l-2.7265614-2.578125z" fill-opacity=".902043"/><path d="m9.9215043 1.1643563.096908 2.3029742 2.237792.031725v-.3512375l-2.0454453-1.9834614z"/></g></svg>