<svg height="16" viewBox="0 0 16 16" width="16" xmlns="http://www.w3.org/2000/svg"><g fill="#bebebe"><path d="m12 3 4 4-4 4-1-1 1.001953-2h-7.001953v-2h7.011719l-1.011719-2z"/><path d="m2 1c-.5539976 0-1 .4460026-1 1v13c0 .553996.4460024 1 1 1h6.6464844c.0662499 0 .1308594-.025386.1777344-.072266 0 0 1.4882832-1.240236 2.1757812-1.927734s1.925781-2.175781 1.925781-2.175781c.046875-.046871.074219-.111485.074219-.177735v-.232422l-.292969.292969a1.0001 1.0001 0 0 1 -1.125.195313c-.849384.047126-1.882471.097656-2.582031.097656 0 .810291-.0671711 2.112661-.1191406 3h-6.8808594v-13h10v.0117188a1.0001 1.0001 0 0 1 .707031.28125l.292969.2929687v-.5859375c0-.5539974-.446004-1-1-1z"/></g></svg>