<?xml version="1.0" encoding="UTF-8" standalone="no"?>
<!-- Created with Inkscape (http://www.inkscape.org/) -->

<svg
   xmlns:dc="http://purl.org/dc/elements/1.1/"
   xmlns:cc="http://creativecommons.org/ns#"
   xmlns:rdf="http://www.w3.org/1999/02/22-rdf-syntax-ns#"
   xmlns:svg="http://www.w3.org/2000/svg"
   xmlns="http://www.w3.org/2000/svg"
   xmlns:xlink="http://www.w3.org/1999/xlink"
   xmlns:sodipodi="http://sodipodi.sourceforge.net/DTD/sodipodi-0.dtd"
   xmlns:inkscape="http://www.inkscape.org/namespaces/inkscape"
   id="svg7384"
   height="16"
   width="16"
   version="1.1"
   inkscape:version="0.48.3.1 r9886"
   sodipodi:docname="document-properties-symbolic.svg">
  <defs
     id="defs10">
    <linearGradient
       id="linearGradient4565">
      <stop
         style="stop-color:#161616;stop-opacity:1;"
         offset="0"
         id="stop4567" />
      <stop
         style="stop-color:#3a3a3a;stop-opacity:1;"
         offset="1"
         id="stop4569" />
    </linearGradient>
    <linearGradient
       id="linearGradient3569">
      <stop
         style="stop-color:#161616;stop-opacity:1;"
         offset="0"
         id="stop3571" />
      <stop
         style="stop-color:#3a3a3a;stop-opacity:1;"
         offset="1"
         id="stop3573" />
    </linearGradient>
    <linearGradient
       y2="-40.636906"
       x2="54.675591"
       y1="40.918156"
       x1="136.23065"
       gradientUnits="userSpaceOnUse"
       id="linearGradient4548"
       xlink:href="#linearGradient3569"
       inkscape:collect="always" />
    <radialGradient
       gradientTransform="matrix(2.0028749,0,0,2.103321,-27.472015,-17.454038)"
       gradientUnits="userSpaceOnUse"
       xlink:href="#linearGradient3798-3"
       id="radialGradient3922"
       fy="13.70627"
       fx="8"
       r="5.4887881"
       cy="13.70627"
       cx="8" />
    <linearGradient
       id="linearGradient3798-3">
      <stop
         offset="0"
         style="stop-color:#bebebe;stop-opacity:0.69800001"
         id="stop3800-9" />
      <stop
         offset="1"
         style="stop-color:#bebebe;stop-opacity:1"
         id="stop3802-0" />
    </linearGradient>
    <linearGradient
       gradientTransform="matrix(1,0,0,-1,0,16)"
       gradientUnits="userSpaceOnUse"
       xlink:href="#linearGradient3798-3"
       id="linearGradient3899"
       y2="14.985587"
       x2="8.2128801"
       y1="0.95885509"
       x1="8.2128801" />
  </defs>
  <sodipodi:namedview
     pagecolor="#ffffff"
     bordercolor="#666666"
     borderopacity="1"
     objecttolerance="10"
     gridtolerance="10"
     guidetolerance="10"
     inkscape:pageopacity="0"
     inkscape:pageshadow="2"
     inkscape:window-width="1366"
     inkscape:window-height="696"
     id="namedview8"
     showgrid="false"
     inkscape:zoom="14.75"
     inkscape:cx="-4.4067797"
     inkscape:cy="8"
     inkscape:window-x="0"
     inkscape:window-y="0"
     inkscape:window-maximized="1"
     inkscape:current-layer="svg7384" />
  <metadata
     id="metadata90">
    <rdf:RDF>
      <cc:Work
         rdf:about="">
        <dc:format>image/svg+xml</dc:format>
        <dc:type
           rdf:resource="http://purl.org/dc/dcmitype/StillImage" />
        <dc:title>Gnome Symbolic Icon Theme</dc:title>
      </cc:Work>
    </rdf:RDF>
  </metadata>
  <title
     id="title9167">Gnome Symbolic Icon Theme</title>
  <g
     id="g8143">
    <g
       transform="matrix(0.71912833,0,0,0.71912833,5.1452784,5.1452785)"
       id="g8103">
      <path
         d="m 6.75,15 0,-2.1875 C 6.3012128,12.695122 5.8902797,12.510894 5.5,12.28125 L 3.9375,13.84375 2.15625,12.0625 3.71875,10.5 C 3.4891059,10.10972 3.3048778,9.6987872 3.1875,9.25 L 1,9.25 l 0,-2.5 2.1875,0 C 3.3048778,6.3012128 3.4891059,5.89028 3.71875,5.5 L 2.15625,3.9375 3.9375,2.15625 5.5,3.71875 C 5.8902797,3.489106 6.3012128,3.304878 6.75,3.1875 L 6.75,1 l 2.5,0 0,2.1875 c 0.4487872,0.117378 0.85972,0.301606 1.25,0.53125 L 12.0625,2.15625 13.84375,3.9375 12.28125,5.5 c 0.229644,0.39028 0.413872,0.8012128 0.53125,1.25 l 2.1875,0 0,2.5 -2.1875,0 c -0.117378,0.4487872 -0.301606,0.85972 -0.53125,1.25 l 1.5625,1.5625 L 12.0625,13.84375 10.5,12.28125 C 10.10972,12.510894 9.6987872,12.695122 9.25,12.8125 L 9.25,15 6.75,15 z M 8,10 C 9.1045695,10 10,9.1045695 10,8 10,6.8954305 9.1045695,6 8,6 6.8954305,6 6,6.8954305 6,8 c 0,1.1045695 0.8954305,2 2,2 z"
         inkscape:connector-curvature="0"
         id="path3002"
         style="color:#bebebe;fill:url(#linearGradient3899);fill-opacity:1;fill-rule:nonzero;stroke:none;stroke-width:1;marker:none;visibility:visible;display:inline;overflow:visible;enable-background:accumulate" />
      <path
         d="m 6.75,1 0,2.1875 C 6.3012128,3.304878 5.8902797,3.489106 5.5,3.71875 L 3.9375,2.15625 2.15625,3.9375 3.71875,5.5 C 3.4891059,5.89028 3.3048778,6.3012128 3.1875,6.75 L 1,6.75 l 0,2.5 2.1875,0 c 0.1173778,0.4487872 0.3016059,0.85972 0.53125,1.25 L 2.15625,12.0625 3.9375,13.84375 5.5,12.28125 c 0.3902797,0.229644 0.8012128,0.413872 1.25,0.53125 l 0,2.1875 2.5,0 0,-2.1875 c 0.4487872,-0.117378 0.85972,-0.301606 1.25,-0.53125 l 1.5625,1.5625 1.78125,-1.78125 -1.5625,-1.5625 c 0.229644,-0.39028 0.413872,-0.8012128 0.53125,-1.25 l 2.1875,0 0,-2.5 -2.1875,0 C 12.695122,6.3012128 12.510894,5.89028 12.28125,5.5 L 13.84375,3.9375 12.0625,2.15625 10.5,3.71875 C 10.10972,3.489106 9.6987872,3.304878 9.25,3.1875 L 9.25,1 6.75,1 z m 0.875,1 0.75,0 0,2.03125 C 9.202336,4.108496 9.9590203,4.4338141 10.5625,4.9375 L 11.96875,3.5 12.5,4.03125 11.0625,5.4375 c 0.503686,0.6034797 0.829004,1.3601641 0.90625,2.1875 l 2.03125,0 0,0.75 -2.03125,0 C 11.8915,9.202336 11.566186,9.9590203 11.0625,10.5625 L 12.5,11.96875 11.96875,12.5 10.5625,11.0625 C 9.9590203,11.566186 9.202336,11.891504 8.375,11.96875 l 0,2.03125 -0.75,0 0,-2.03125 C 6.797664,11.891504 6.0409797,11.566186 5.4375,11.0625 L 4.03125,12.5 3.5,11.96875 4.9375,10.5625 C 4.4338141,9.9590203 4.1084962,9.202336 4.03125,8.375 L 2,8.375 l 0,-0.75 2.03125,0 C 4.1084962,6.7976641 4.4338141,6.0409797 4.9375,5.4375 L 3.5,4.03125 4.03125,3.5 5.4375,4.9375 C 6.0409797,4.4338141 6.797664,4.1084962 7.625,4.03125 L 7.625,2 z"
         inkscape:connector-curvature="0"
         id="path3002-1"
         style="color:#bebebe;fill:#bebebe;fill-opacity:1;fill-rule:nonzero;stroke:none;stroke-width:1;marker:none;visibility:visible;display:inline;overflow:visible;enable-background:accumulate" />
    </g>
    <path
       id="rect7217"
       d="M 2.21875 0.59375 L 2.21875 15.40625 L 6.96875 15.40625 L 6.3125 14.75 L 2.8125 14.75 L 2.84375 1.28125 L 9.9375 1.25 L 13.03125 3.9375 L 13.0625 6.125 L 13.15625 6.03125 A 0.9419548 0.9419548 0 0 1 13.78125 5.78125 L 13.78125 3.8125 L 10.375 0.59375 L 2.21875 0.59375 z M 9.0625 15.3125 L 8.96875 15.40625 L 9.0625 15.40625 L 9.0625 15.3125 z M 12.71875 15.3125 L 12.71875 15.40625 L 12.8125 15.40625 L 12.71875 15.3125 z "
       style="fill:#bebebe;fill-opacity:0.9020427;stroke:none" />
    <path
       sodipodi:nodetypes="cccccc"
       inkscape:connector-curvature="0"
       id="path7212"
       d="m 10.399923,1.0711876 0.121037,2.8764119 2.795,0.039625 0,-0.4386957 -2.554758,-2.4773408 z"
       style="fill:#bebebe;fill-opacity:1;stroke:none" />
  </g>
</svg>
