<svg height="16" width="16" xmlns="http://www.w3.org/2000/svg"><path d="m2 0v1h1v14h-1v1h12v-1h-1v-14h1v-1zm2 1h1v1c0 .277.223.5.5.5h2 3c.277 0 .5-.223.5-.5v-1h1v14h-1v-1c0-.277-.223-.5-.5-.5h-5c-.277 0-.5.223-.5.5v1h-1zm3.5 1.5-1.5957031.0722656c-.3491331.3824335-.5585938.9212787-.5585938 1.6425782 0 1.2805568 1.8712548 2.3052154 2.2207031 3.609375-.286227 1.0682155-2.2207031 2.3549722-2.2207031 3.6523432 0 .768092.2296584 1.330147.6113281 1.722657.027265.02803.0551904.057694.0839844.083984h3.9863284c.13601-.120144.257139-.255092.357422-.414062-.01072-.0032-.022253-.008599-.033204-.011719.007601-.01232.014145-.024559.021485-.03711.205947-.352529.324219-.795113.324219-1.34375 0-.162171-.031205-.323699-.083985-.482421-.369411-1.1110456-1.8632912-2.1421901-2.1386716-3.1699222.021579-.0805281.0473621-.1595692.0800781-.2382813.4906648-1.180683 2.1425775-2.1705721 2.1425785-3.3710937 0-.7212995-.20946-1.2601458-.558594-1.6425782zm-1.2011719.6972656h3.4453125c.173437.2473721.3281254.5172747.3281254 1.0175782-.000001.3135951-.2781936.7589165-.7343754 1.2832031-.4503557.5175907-1.0221166 1.0762987-1.3417968 1.8242187-.2928886-.6889897-.7765107-1.2414799-1.203125-1.7246094-.5005061-.5668097-.8222657-1.0469678-.8222657-1.3828124 0-.5003032.1546859-.7702024.328125-1.0175782zm1.7167969 5.0800782c.2408082.5802157.6322789 1.0619064 1.0195312 1.5097656.4548855.5260766.8609879 1.0331926.9843748 1.4042966.03599.108236.052735.20316.052735.285156 0 .457989-.095123.781713-.2382816 1.027344v.001953c-.012911.0221-.0186959.031578-.0136719.023438-.021086.03466-.0387474.071289-.0527344.109375-.00425.0053-.0093098.010405-.0136719.015625h-3.3867187c-.2246925-.263382-.3964844-.58895-.3964844-1.177735 0-.338046.3513046-.910484.8554688-1.5097651.4355436-.5177128.9146883-1.0399614 1.1894531-1.6894531z" fill="#bebebe" fill-opacity=".877856"/></svg>