<svg height="16" width="16" xmlns="http://www.w3.org/2000/svg"><path d="m3.9999999 5v9c2.2853899-.024022 4.6802864 0 7.0000001 0v-2h-4.9999999v-7z" fill="#bfbfbf" fill-opacity=".901961" stroke-width=".82578"/><path d="m3 16c-.5539982 0-1-.446002-1-1v-13c0-.553997.4460018-1 1-1h6.6464844c.06625 0 .1308594.02539.1777344.07227 0 0 1.4882822 1.240235 2.1757812 1.927734s1.925781 2.175781 1.925781 2.175781c.046875.046871.074219.111481.074219.177731v9.646484c0 .553998-.446003 1-1 1zm0-1h10v-9.880859c-.88734-.05197-2.189708-.119141-3-.119141 0-.810292-.067171-2.11266-.1191406-3h-6.8808594z" fill="#bebebe" stroke-width=".125"/></svg>