<svg height="16" width="16" xmlns="http://www.w3.org/2000/svg"><g fill="#ccc" transform="translate(0 1)"><path d="m1.6523438 2.0292969c-.2281974 0-.3164586.2107768-.4121094.4277343l-.2402344.5429688.0996094 4.703125c.00895-.0004971.0193387.0030569.0273437-.0019531h1.8730469v-.4160157h-1.1503906v-3.21875l1.1503906-.0058593v-2.03125zm11.3476562.9707031v1.0058594l1-.0058594-.087891 2.5546875h.808594l.177735-3.1269531c.0099-.2368992-.181955-.4274123-.410157-.4277344z" transform="translate(0 -1)"/><path d="m.8039357 8h3.1960643l1.6484185-1h9.3481195c.23712 0 .442203.1913211.428016.4280169l-.619836 5.1557721c-.01417.236696-.190913.425106-.428015.428015l-6.376703-.011804-6.5798722.011804c-.2371196.000425-.411612-.191464-.42801555-.428015l-.61619638-4.1557721c-.01640366-.2365529.19108204-.4186.42801983-.4280169z"/></g><g fill="#bebebe" transform="matrix(.82578026 0 0 .82578026 18.580309 -2.825463)"><path d="m4.0000004.00000002-.0234375 5.99999998h1.0234375v-5l3 .0000001 2.9999996 2.5v2.5h1v-2.5l-3.3457026-3.50000004z" fill-opacity=".902043" stroke-width=".82578" transform="matrix(1.2109759 0 0 1.2109759 -22.500307 4.632544)"/><path d="m-12.812498 4.6325436v4.2384157h3.6329269 1.210976l-4.0512229-4.2384157z"/></g></svg>