<svg height="16" width="16" xmlns="http://www.w3.org/2000/svg"><g fill="#bebebe" transform="translate(-.001538 -.376953)"><path d="m4.0015378 1.376953.0000002 5h1l-.0000002-4h6.0000002v4h1v-5z" stroke-width="1.056329"/><path d="m1.9707031 6c-.475426.5462144-.604413.574424-.8125 1-.16267697 2.0729246-.16267697 2.958445 0 5.03125h.21875l1.625.054688v-1.28125c0-.065459.01275-.129411.03125-.1875v-.09375c0-.264854.5416-.494141.8125-.494141h4.1542969 4.154297c.2709 0 .8125.229287.8125.494141v.09375c.0185.058088.03125.122041.03125.1875v1.28125l1.625-.054688h.21875c.162677-2.0728049.162677-2.9583254 0-5.03125-.208087-.425576-.337074-.4537856-.8125-1h-2.029297-4-4zm2.0292969 1h4 4v2h-4-4zm-2.9980469 5.0625.1875.84375c.012518.07898.08989.08675.15625.09375l1.75.023438-.03125-.875zm13.9960939 0-2.0625.085938-.03125.875 1.75-.023438c.06636-.007.143732-.01477.15625-.09375zm-13.5390626.371094 1.4394531.021484.0058594.154297-1.4003907.023437zm13.0820316 0-.044922.199218-1.400391-.023437.005859-.154297z" transform="translate(.001538 .376953)"/><path d="m5.0015382 11.376953-1.0000002 5h8l-1-5zm.9999998 1h4l.5 3h-5z"/></g></svg>