<svg height="16" width="16" xmlns="http://www.w3.org/2000/svg"><g fill="#bebebe"><path d="m14.828125.99609375-.863281.00390625h-.306641-11.158203-.171875-1.1621094c-.1250565 0-.16992185.1667166-.16992185.3417969v11.1718751l3.01367185-3.1445314v-.0703125c0-.1829355.0448652-.3068163.1699219-.3066406h.1894531l.9511719-.9921875h-2.0742187c-.1250567 0-.2400222-.1588611-.2402344-.3417969l-.0058594-5.6582031h10l.005859 5.6582031c-.000239.1829354-.11322.3417969-.238281.3417969h-2.71875l-.1367186.3378906a1.000781 1.000781 0 0 1 -.1816406.3671875c-.0566711.0721417-.1231708.1386416-.1953126.1953125l.0957032-.0859375-.1816406.1835938 1.5507812.0019531h.726562c.12506 0 .273438.1256582.273438.3085938v4.6914062l-7.4628906-.007812-.9921875 1.007812h.4589843 8.0800778 2.416016l.328125-.003906c.12505-.0016.169922-.166716.169922-.341797v-13.3164064c0-.1750796-.046022-.3247738-.169922-.34179685zm-7.828125 10.49218725-2 2.033203v.138672h2z"/><path d="m9.5361228 5.9999986a.15056198.15056198 0 0 0 -.051545.025772l-1.7009383.85047a.15056198.15056198 0 0 0 -.025772.025772l-7.70577159 8.0408044a.15056198.15056198 0 0 0 -.02577183.02577.15056198.15056198 0 0 0 -.02577182.07731.15056198.15056198 0 0 0 0 .02577.15056198.15056198 0 0 0 0 .02577c.10458793.375625.26290424.588517.4638926.721608.20098838.133092.44117136.171583.64429534.180402a.15056198.15056198 0 0 0 .025772 0 .15056198.15056198 0 0 0 .051543-.02577.15056198.15056198 0 0 0 .025772-.02577l7.7057719-7.8346199a.15056198.15056198 0 0 0 .025772-.025772.15056198.15056198 0 0 0 0-.025772l.7473824-1.85557a.15056198.15056198 0 0 0 .025768-.051543.15056198.15056198 0 0 0 0-.025772.15056198.15056198 0 0 0 -.025768-.0515432.15056198.15056198 0 0 0 -.0257678-.0257716.15056198.15056198 0 0 0 -.0257678-.0257717.15056198.15056198 0 0 0 -.0515452-.0257716.15056198.15056198 0 0 0 -.0257678 0 .15056198.15056198 0 0 0 -.0257678 0z" stroke-width=".9526"/></g></svg>