<svg height="16" viewBox="0 0 16 16" width="16" xmlns="http://www.w3.org/2000/svg"><g fill="#bebebe" stroke-width=".188964"><path d="m13.130788.06060188c.12912-.14563413.978151-.07639322 1.882013.74413092.912726.8285672 1.096282 1.6303265.934539 1.8127382-.105272.1187343-.210543.2374681-.315817.3562027-.938858-.8522897-1.877709-1.7045795-2.816562-2.55686927.105272-.11873403.210547-.23746796.315827-.35620255z"/><path d="m3.2148438 11.431641c-.3959922 1.246108-2.0527207 6.383703-.84375 2.646484.2753132.238513.8111669.894407 1.2089843 1.064453l2.0175781-.941406.4306515-.208821c-.0255634-.259629-.2467935-.168584-.4033077-.193523-.021993-.01617-.045531-.03408-.070312-.05664-.178263-.162276-.2022727-.314666-.2753906-.425782-.012443-.01876-.026403-.03823-.042969-.05469-.00262-.0026-.00508-.0053-.00781-.0078-.1240284-.11291-.3581143-.113854-.7050809-.429697-.3485789-.317316-.384682-.562815-.4980469-.666016-.015182-.01382-.032431-.02434-.048828-.0332-.011648-.0063-.022825-.01098-.035156-.01563-.00334-.0013-.00639-.0027-.00977-.0039-.010262-.0035-.022437-.0068-.033203-.0098-.094935-.02634-.2091632-.03822-.3554687-.169922-.2188299-.197024-.2240355-.400122-.3144532-.482422-.00444-.004-.00926-.0077-.013672-.01172zm.2988281 1.175781c.018612.0062.043106.02181.0625.0332-.00792-.01515-.00273-.0097.021484.01172-.00562-.0016-.013056-.0068-.021484-.01172.00673.01288.021808.0396.054687.0957.086212.147119.2317699.357617.4589844.564453.3802016.346098.715576.506389.7128906.457031.021072.02811.047487.063.054687.08008l-1.2070313.5625c-.08989-.06877-.1496277-.104436-.2695312-.222657-.096128-.09478-.1887813-.183732-.28125-.279296.155769-.484868.2752768-.857951.4140625-1.291016zm.140625.07227c.00857.0022.057858.03056.060547.03125-.0007857-.000297-.022216-.0073-.044922-.01953-.00102-.00055-.01269-.0101-.015625-.01172zm1.1210937 1.039062c.017048.0169.02558.02911.027344.03711-.015108-.02014-.028451-.03664-.027344-.03711z"/><path d="m12.605469.64648438-9.3906252 10.78515662c.00441.004.00923.0077.013672.01172.090418.0823.095623.285398.3144532.482422.1463057.131706.2602304.143967.3554687.169922l9.4101563-10.8085956zm2.017578 1.83593752-.002.00195.05078.044922-9.3925781 10.7871091c.073126.111111.097127.263506.2753906.425782.2257152.205473.3264082.117608.4726563.25l9.3906732-10.7832006zm-10.6796876 9.6289061c.00977.0037.019969.007.029297.01172-.00945-.005-.01954-.0079-.029297-.01172z"/></g><g fill="none"><path d="m13.124457.07333546 2.81767 2.55391344-.595512.6677828-2.81767-2.55391345z" stroke-width=".18896"/><path d="m3.5891297 15.146438c-.3987237-.163737-.9404268-.828214-1.2178679-1.06857l-.6171774 1.91262z" stroke-width=".188964"/></g></svg>