<svg height="16" width="16" xmlns="http://www.w3.org/2000/svg"><path d="m2 0v1h1v14h-1v1h12v-1h-1v-14h1v-1zm2 1h1v.5c0 .277.223.5.5.5h2 3c.277 0 .5-.223.5-.5v-.5h1v14h-1v-.5c0-.277-.223-.5-.5-.5h-5c-.277 0-.5.223-.5.5v.5h-1zm3.5 1-1.5957031.0722656c-.3491331.3824335-.5585938.9212787-.5585938 1.6425782 0 1.2805568 1.8712548 2.8052154 2.2207031 4.109375-.286227 1.0682155-2.2207031 2.3549722-2.2207031 3.6523432 0 .768092.2296584 1.830147.6113281 2.222657.027265.02803.05519.05769.083984.08398h3.9863284c.13601-.120144.257139-.255092.357422-.414062-.01072-.0032-.02225-.0086-.0332-.01172.0076-.01232.01415-.02456.02149-.03711.205947-.352529.324219-1.295113.324219-1.84375 0-.162171-.03121-.323699-.08399-.482421-.3694146-1.1110406-1.8632948-2.1421851-2.1386752-3.1699172.021579-.0805281.0473621-.1595692.0800781-.2382813.4906648-1.180683 2.1425775-2.6705721 2.1425785-3.8710937 0-.7212995-.20946-1.2601458-.558594-1.6425782zm-1.2011719.6972656h3.4453125c.173437.2473721.3281254.5172747.3281254 1.0175782-.000001.3135951-.2781936 1.2589165-.7343754 1.7832031-.4503557.5175907-1.0221166 1.0762987-1.3417968 1.8242187-.2928886-.6889897-.7765107-1.2414799-1.203125-1.7246094-.5005061-.5668097-.8222657-1.5469678-.8222657-1.8828124 0-.5003032.1546859-.7702024.328125-1.0175782zm1.7167969 5.5800782c.2408082.5802157.6322789 1.0619064 1.0195312 1.5097656.4548855.5260766.8609879 1.0331926.9843748 1.4042966.03599.108236.05274.20316.05274.285156 0 .457989-.095123 1.281713-.2382816 1.527344v.002c-.012911.0221-.018696.03158-.013672.02344-.021086.03466-.038747.07129-.052734.109375-.00425.0053-.00931.01041-.013672.01563h-3.3867239c-.2246925-.263436-.3964844-1.089004-.3964844-1.677789 0-.338046.3513046-.910484.8554688-1.5097651.4355436-.5177128.9146883-1.0399614 1.1894531-1.6894531z" fill="#bebebe" fill-opacity=".877856"/></svg>