<?xml version="1.0" encoding="UTF-8" standalone="no"?>
<!-- Created with Inkscape (http://www.inkscape.org/) -->

<svg
   xmlns:dc="http://purl.org/dc/elements/1.1/"
   xmlns:cc="http://creativecommons.org/ns#"
   xmlns:rdf="http://www.w3.org/1999/02/22-rdf-syntax-ns#"
   xmlns:svg="http://www.w3.org/2000/svg"
   xmlns="http://www.w3.org/2000/svg"
   xmlns:sodipodi="http://sodipodi.sourceforge.net/DTD/sodipodi-0.dtd"
   xmlns:inkscape="http://www.inkscape.org/namespaces/inkscape"
   id="svg7854"
   height="16"
   width="16"
   version="1.0"
   inkscape:version="0.92.4 (unknown)"
   sodipodi:docname="document-print-symbolic.svg"
   inkscape:export-filename="/usr/share/icons/Karasa Jaga/scalable/status/media-playlist-repeat.png"
   inkscape:export-xdpi="90"
   inkscape:export-ydpi="90">
  <metadata
     id="metadata5314">
    <rdf:RDF>
      <cc:Work
         rdf:about="">
        <dc:format>image/svg+xml</dc:format>
        <dc:type
           rdf:resource="http://purl.org/dc/dcmitype/StillImage" />
        <dc:title></dc:title>
      </cc:Work>
    </rdf:RDF>
  </metadata>
  <sodipodi:namedview
     pagecolor="#ffffff"
     bordercolor="#666666"
     borderopacity="1"
     objecttolerance="10"
     gridtolerance="10"
     guidetolerance="10"
     inkscape:pageopacity="0"
     inkscape:pageshadow="2"
     inkscape:window-width="1366"
     inkscape:window-height="714"
     id="namedview5312"
     showgrid="true"
     inkscape:zoom="55.625736"
     inkscape:cx="8.8828216"
     inkscape:cy="3.6004628"
     inkscape:window-x="0"
     inkscape:window-y="28"
     inkscape:window-maximized="1"
     inkscape:current-layer="svg7854">
    <inkscape:grid
       type="xygrid"
       id="grid830" />
  </sodipodi:namedview>
  <defs
     id="defs7856">
    <linearGradient
       id="linearGradient5841">
      <stop
         style="stop-color:#37e700;stop-opacity:1;"
         offset="0"
         id="stop5843" />
      <stop
         id="stop5849"
         offset="0.5"
         style="stop-color:#3dfe00;stop-opacity:1;" />
      <stop
         style="stop-color:#2aad00;stop-opacity:1;"
         offset="1"
         id="stop5845" />
    </linearGradient>
    <linearGradient
       id="linearGradient4117"
       y2="34.612"
       gradientUnits="userSpaceOnUse"
       x2="22.402"
       y1="15.722"
       x1="22.146999">
      <stop
         id="stop4113"
         style="stop-color:#fff"
         offset="0" />
      <stop
         id="stop4115"
         style="stop-color:#fff;stop-opacity:0"
         offset="1" />
    </linearGradient>
    <linearGradient
       id="linearGradient3696"
       y2="21"
       gradientUnits="userSpaceOnUse"
       x2="15"
       y1="2"
       x1="15">
      <stop
         id="stop3700"
         style="stop-color:#eeeeec"
         offset="0" />
      <stop
         id="stop3702"
         style="stop-color:#babdb6"
         offset=".79220" />
      <stop
         id="stop3704"
         style="stop-color:#a1a59b"
         offset="1" />
    </linearGradient>
    <filter
       id="filter7554"
       color-interpolation-filters="sRGB">
      <feBlend
         mode="darken"
         in2="BackgroundImage"
         id="feBlend7556" />
    </filter>
    <filter
       id="filter7554-7"
       color-interpolation-filters="sRGB">
      <feBlend
         mode="darken"
         in2="BackgroundImage"
         id="feBlend7556-6" />
    </filter>
  </defs>
  <g
     id="g81"
     transform="translate(-0.0015382,-0.3769531)">
    <path
       id="rect363"
       d="m 5.0015382,1.3769531 2e-7,5 h 1 l -2e-7,-4 h 3.9999998 l 0,4 h 1 l 0,-5 z"
       style="fill:#bebebe;fill-opacity:1;stroke-width:1.05632913"
       inkscape:connector-curvature="0"
       sodipodi:nodetypes="ccccccccc" />
    <path
       style="fill:#bebebe;fill-opacity:1"
       d="m 2.6542969,5.3730469 -0.125,0.34375 h -0.46875 c -0.4294694,0.4522647 -0.6352799,0.8914838 -0.8125,1.34375 -0.1625648,2.0729246 -0.1625648,2.9584401 0,5.0312501 h 0.21875 1.8125 v -1.28125 c 0,-0.06541 0.012822,-0.129403 0.03125,-0.1875 v -0.09375 c 0,-0.264852 0.229098,-0.5 0.5,-0.5 h 8.3437501 c 0.2709,0 0.5,0.235148 0.5,0.5 v 0.09375 c 0.0185,0.05809 0.03125,0.122041 0.03125,0.1875 v 1.28125 h 1.8125 0.21875 c 0.162677,-2.07281 0.162677,-2.9583255 0,-5.0312501 -0.208087,-0.425576 -0.337074,-0.7975356 -0.8125,-1.34375 h -0.46875 l -0.125,-0.34375 h -1.0625 l 0.09375,0.34375 H 12 V 6 H 4 L 4.029297,5.7167969 h -0.4375 l 0.0625,-0.34375 z M 4,7 h 8 V 9 H 4 Z m 9.373047,2.1542969 c 0.238663,0 0.40625,0.1991469 0.40625,0.4375 0,0.238667 -0.167587,0.4375001 -0.40625,0.4375001 -0.23851,0 -0.4375,-0.1988331 -0.4375,-0.4375001 0,-0.2383531 0.19899,-0.4373405 0.4375,-0.4375 z m -0.0625,1.1562501 c 0.174437,0 0.3125,0.138177 0.3125,0.3125 0,0.174551 -0.138061,0.34375 -0.3125,0.34375 -0.174436,0 -0.3125,-0.169199 -0.3125,-0.34375 0,-0.174323 0.138064,-0.312615 0.3125,-0.3125 z m -12.1250001,1.8125 0.1875,0.84375 c 0.012532,0.07898 0.058638,0.08683 0.125,0.09375 l 1.9375,-0.03125 -0.03125,-0.875 z m 13.6875001,0 -2.25,0.03125 -0.03125,0.875 1.9375,0.03125 c 0.06636,-0.007 0.143732,-0.01477 0.15625,-0.09375 z m -13.2304689,0.371094 1.4082031,0.02148 0.00586,0.154297 -1.3691406,0.02148 z m 12.7734379,0 -0.04492,0.199218 -1.400391,-0.02344 0.0059,-0.154297 z"
       transform="translate(0.0015382,0.3769531)"
       id="polygon76"
       inkscape:connector-curvature="0"
       sodipodi:nodetypes="cccccccscsssscsccccccccccccccccccccccsssccsssccccccccccccccccccccccc" />
    <path
       id="rect4186"
       d="m 5.0015382,11.376953 -0.5,4.5 h 6.9101558 l -0.410156,-4.5 z m 0.5,0.5 h 4.9999998 l 0.345703,3.355468 H 5.155835 Z"
       style="fill:#bebebe;fill-opacity:1"
       inkscape:connector-curvature="0"
       sodipodi:nodetypes="cccccccccc" />
  </g>
</svg>
