<?xml version="1.0" encoding="UTF-8" standalone="no"?>
<!-- Created with Inkscape (http://www.inkscape.org/) -->

<svg
   xmlns:dc="http://purl.org/dc/elements/1.1/"
   xmlns:cc="http://creativecommons.org/ns#"
   xmlns:rdf="http://www.w3.org/1999/02/22-rdf-syntax-ns#"
   xmlns:svg="http://www.w3.org/2000/svg"
   xmlns="http://www.w3.org/2000/svg"
   xmlns:sodipodi="http://sodipodi.sourceforge.net/DTD/sodipodi-0.dtd"
   xmlns:inkscape="http://www.inkscape.org/namespaces/inkscape"
   id="svg7384"
   height="16"
   width="16"
   version="1.1"
   inkscape:version="0.92.2 (unknown)"
   sodipodi:docname="document-save-as-symbolic.svg">
  <defs
     id="defs11240" />
  <sodipodi:namedview
     pagecolor="#ffffff"
     bordercolor="#666666"
     borderopacity="1"
     objecttolerance="10"
     gridtolerance="10"
     guidetolerance="10"
     inkscape:pageopacity="0"
     inkscape:pageshadow="2"
     inkscape:window-width="1366"
     inkscape:window-height="716"
     id="namedview11238"
     showgrid="false"
     showguides="true"
     inkscape:guide-bbox="true"
     inkscape:zoom="14.75"
     inkscape:cx="11.29286"
     inkscape:cy="3.6561278"
     inkscape:window-x="0"
     inkscape:window-y="27"
     inkscape:window-maximized="1"
     inkscape:current-layer="svg7384" />
  <metadata
     id="metadata90">
    <rdf:RDF>
      <cc:Work
         rdf:about="">
        <dc:format>image/svg+xml</dc:format>
        <dc:type
           rdf:resource="http://purl.org/dc/dcmitype/StillImage" />
        <dc:title>Gnome Symbolic Icon Theme</dc:title>
      </cc:Work>
    </rdf:RDF>
  </metadata>
  <title
     id="title9167">Gnome Symbolic Icon Theme</title>
  <path
     style="fill:#bebebe;fill-opacity:1;stroke:none"
     d="m 1.5,1.34375 c -0.1250565,0 -0.15625,0.1686697 -0.15625,0.34375 V 11.90625 L 4.6875,8.4375 H 3.40625 C 3.281194,8.4378754 3.1872223,8.2766857 3.1875,8.09375 V 2.125 L 12.71875,2.09375 V 8.0625 c -2.39e-4,0.1829354 -0.12494,0.3433745 -0.25,0.34375 H 10.4375 l -1.40625,1.4375 h 2.125 c 0.12506,0 0.25,0.1295645 0.25,0.3125 v 4 h -6.625 l -0.5,0.5 h 0.0625 7.0625 2.46875 0.625 c 0.12506,0 0.15625,-0.168669 0.15625,-0.34375 V 1.6875 C 14.65625,1.5124204 14.62506,1.34375 14.5,1.34375 H 13.3125 13 2.84375 2.65625 Z M 7.25,11.65625 5.5,13.4375 v 0.375 h 1.75 z"
     id="path4545"
     inkscape:connector-curvature="0"
     sodipodi:nodetypes="ssccccccccccssccccccssssccccsccccc" />
  <path
     style="fill:#bebebe;fill-opacity:1;stroke:none;stroke-width:0.86573398"
     d="m 10.509959,5.0655656 a 0.15805377,0.15805377 0 0 0 -0.05411,0.027054 L 8.6702743,5.985408 a 0.15805377,0.15805377 0 0 0 -0.027054,0.027054 l -8.08920187,8.440906 a 0.15805377,0.15805377 0 0 0 -0.0270542,0.02705 0.15805377,0.15805377 0 0 0 -0.0270542,0.08116 0.15805377,0.15805377 0 0 0 0,0.02705 0.15805377,0.15805377 0 0 0 0,0.02705 c 0.1097921,0.394319 0.27598604,0.617804 0.48697535,0.757518 0.21098932,0.139714 0.46312352,0.180121 0.67635472,0.189379 a 0.15805377,0.15805377 0 0 0 0.027054,0 0.15805377,0.15805377 0 0 0 0.054108,-0.02705 0.15805377,0.15805377 0 0 0 0.027054,-0.02705 L 9.8606586,7.2840089 a 0.15805377,0.15805377 0 0 0 0.027054,-0.027054 0.15805377,0.15805377 0 0 0 0,-0.027054 L 10.672284,5.2819991 a 0.15805377,0.15805377 0 0 0 0.02705,-0.054108 0.15805377,0.15805377 0 0 0 0,-0.027054 0.15805377,0.15805377 0 0 0 -0.02705,-0.054108 0.15805377,0.15805377 0 0 0 -0.02705,-0.027054 0.15805377,0.15805377 0 0 0 -0.02705,-0.027054 0.15805377,0.15805377 0 0 0 -0.05411,-0.027054 0.15805377,0.15805377 0 0 0 -0.02705,0 0.15805377,0.15805377 0 0 0 -0.02705,0 z"
     id="path4658"
     inkscape:connector-curvature="0" />
</svg>
