<svg height="16" width="16" xmlns="http://www.w3.org/2000/svg"><g fill="#bebebe"><path d="m9 7v.00391c-1.6504185 0-3 1.3495816-3 3 0 1.650418 1.3495815 3 3 3 .5375227 0 1.04682-.16395 1.484375-.414062a.82772514.82772514 0 0 0 .171875.242187l2.035156 2a.82933154.82933154 0 1 0 1.171875-1.173828l-2.035156-2a.82772514.82772514 0 0 0 -.242187-.175785c.250111-.4375.414062-.944834.414062-1.482422 0-1.6504185-1.349581-3-3-3zm0 1a2 2 0 0 1 2 2 2 2 0 0 1 -2 2 2 2 0 0 1 -2-2 2 2 0 0 1 2-2z" stroke-width="1.10352"/><path d="m3 16c-.5539982 0-1-.446002-1-1v-13c0-.553997.4460018-1 1-1h6.6464844c.06625 0 .1308594.02539.1777344.07227 0 0 1.4882822 1.240235 2.1757812 1.927734s1.925781 2.175781 1.925781 2.175781c.046875.046871.074219.111481.074219.177731v9.646484c0 .553998-.446003 1-1 1zm0-1h10v-9.880859c-.88734-.05197-2.189708-.119141-3-.119141 0-.810292-.067171-2.11266-.1191406-3h-6.8808594z" stroke-width=".125"/></g></svg>