<svg height="16" width="16" xmlns="http://www.w3.org/2000/svg"><g fill="#bebebe"><path d="m6.87484 8.98781 1.3006196-1.5193382-.7617278-.6475967s-1.7618947-.4234073-2.6642165.00768c-2.2359851 1.0682059-1.7107351 3.3091139-2.4016713 4.3148869l-.1290942-3.3140721c.033213-1.090077.1570543-1.78891 1.587698-2.5726177 2.6310878-1.4413117 4.9079044.044804 4.9079044.044804l.7617278.6475967 1.300621-1.5193378 1.46758 5.2054021z"/><path d="m3 1c-.5539982 0-1 .446002-1 1v13c0 .553997.4460018 1 1 1h6.6464844c.06625 0 .1308594-.02539.1777344-.07227 0 0 1.4882822-1.240235 2.1757812-1.927734s1.925781-2.175781 1.925781-2.175781c.046875-.046871.074219-.111481.074219-.177731v-9.646484c0-.553998-.446003-1-1-1zm0 1h10v9.880859c-.88734.05197-2.189708.119141-3 .119141 0 .810292-.067171 2.11266-.1191406 3h-6.8808594z" stroke-width=".125"/></g></svg>