<svg height="16" width="16" xmlns="http://www.w3.org/2000/svg"><g fill="#bebebe" transform="matrix(.82578026 0 0 .82578026 18.580309 -2.825463)"><path d="m-20.078355 4.6325435-.07378 18.1646385h14.6054912v-13.9262228l-4.051223-4.2384157zm1.210976 1.2109759h8.476832l3.6329271 3.0274398.0000001 12.7152468h-12.1097592z" fill-opacity=".902043"/><path d="m-10.390547 4.6325435v4.2384157h3.6329272 1.210976l-4.051223-4.2384157z"/><path d="m9 7v.0039062c-1.6504185 0-3 1.3495816-3 2.9999998 0 1.650418 1.3495815 3 3 3 .5375227 0 1.04682-.16395 1.484375-.414062a.82772514.82772514 0 0 0 .171875.242187l2.035156 2a.8290726.8290726 0 1 0 1.171875-1.173828l-2.035156-2a.82772514.82772514 0 0 0 -.242187-.175781c.250111-.4375.414062-.944834.414062-1.482422 0-1.6504185-1.349581-3-3-3zm0 1a2 2 0 0 1 2 2 2 2 0 0 1 -2 2 2 2 0 0 1 -2-2 2 2 0 0 1 2-2z" stroke-width="1.103516" transform="matrix(1.2109759 0 0 1.2109759 -22.500307 3.421568)"/></g></svg>