<svg height="16" viewBox="0 0 16 16" width="16" xmlns="http://www.w3.org/2000/svg"><g fill="#bebebe"><path d="m8.9998072 3-3.9999999 4 3.9999999 4 1-1-1.001953-2h7.0019528v-2h-7.0117188l1.011719-2z"/><path d="m2 1c-.5539976 0-1 .4460026-1 1v13c0 .553996.4460024 1 1 1h6.6464844c.0662499 0 .1308594-.025386.1777344-.072266 0 0 1.4882832-1.240236 2.1757812-1.927734s1.925781-2.175781 1.925781-2.175781c.046875-.046871.074219-.111485.074219-.177735v-2.646484h-1v2.880859c-.887339.05197-2.1897088.119141-3 .119141 0 .810291-.0671697 2.112661-.1191406 3h-6.8808594v-13h10v3h1v-3c0-.5539974-.446004-1-1-1z"/></g></svg>