<svg height="16" width="16" xmlns="http://www.w3.org/2000/svg"><path d="m1.5019773 1.3309767c-.1250565 0-.1710006.1669209-.1710006.3420012v11.4912401l1.8468065 1.504805h.0684 1.0944039 7.0794248 2.462408.615603c.12506 0 .171-.16692.171-.342001v-12.6540441c0-.1750796-.04594-.3420012-.171-.3420012h-1.197005-.307801-10.157435-.1710007zm1.6871746.7938855 9.5312211-.027182-.0091 5.9707204c-.000239.1829354-.114301.3416254-.239361.3420009l-9.0524201.0271823c-.125056.0003754-.2396785-.1590655-.2394008-.3420012zm1.322436 7.7219443h6.6348231c.12506 0 .273601.124865.273601.3078005v4.001414h-7.0794248v-4.001414c0-.1829355.045944-.3078005.1710007-.3078005zm.9918034.3078005v3.659413h1.744206v-3.659413z" fill="#bebebe"/></svg>