<svg height="16" width="16" xmlns="http://www.w3.org/2000/svg"><g fill="#bebebe" transform="translate(-.001538 -.376953)"><path d="m5.0015382 1.3769531.0000002 5h1l-.0000002-4h3.9999998v4h1v-5z" stroke-width="1.056329"/><path d="m2.6542969 5.3730469-.125.34375h-.46875c-.4294694.4522647-.6352799.8914838-.8125 1.34375-.1625648 2.0729246-.1625648 2.9584401 0 5.0312501h.21875 1.8125v-1.28125c0-.06541.012822-.129403.03125-.1875v-.09375c0-.264852.229098-.5.5-.5h8.3437501c.2709 0 .5.235148.5.5v.09375c.0185.05809.03125.122041.03125.1875v1.28125h1.8125.21875c.162677-2.07281.162677-2.9583255 0-5.0312501-.208087-.425576-.337074-.7975356-.8125-1.34375h-.46875l-.125-.34375h-1.0625l.09375.34375h-.341797v.2832031h-8l.029297-.2832031h-.4375l.0625-.34375zm1.3457031 1.6269531h8v2h-8zm9.373047 2.1542969c.238663 0 .40625.1991469.40625.4375 0 .238667-.167587.4375001-.40625.4375001-.23851 0-.4375-.1988331-.4375-.4375001 0-.2383531.19899-.4373405.4375-.4375zm-.0625 1.1562501c.174437 0 .3125.138177.3125.3125 0 .174551-.138061.34375-.3125.34375-.174436 0-.3125-.169199-.3125-.34375 0-.174323.138064-.312615.3125-.3125zm-12.1250001 1.8125.1875.84375c.012532.07898.058638.08683.125.09375l1.9375-.03125-.03125-.875zm13.6875001 0-2.25.03125-.03125.875 1.9375.03125c.06636-.007.143732-.01477.15625-.09375zm-13.2304689.371094 1.4082031.02148.00586.154297-1.3691406.02148zm12.7734379 0-.04492.199218-1.400391-.02344.0059-.154297z" transform="translate(.001538 .376953)"/><path d="m5.0015382 11.376953-.5 4.5h6.9101558l-.410156-4.5zm.5.5h4.9999998l.345703 3.355468h-5.691406z"/></g></svg>