<svg height="16" width="16" xmlns="http://www.w3.org/2000/svg"><g fill="#bebebe"><path d="m12.5 9.0000002c-1.932999 0-3.4999997 1.5669998-3.4999997 3.4999998s1.5670007 3.500001 3.4999997 3.500001c1.933001 0 3.500001-1.567001 3.500001-3.500001s-1.567-3.4999998-3.500001-3.4999998zm-.5.9999998h1v2h2v1h-2v2.000001h-1v-2.000001h-2v-1h2z" fill-rule="evenodd" stroke-width=".82578"/><path d="m3 1c-.5539976 0-1 .4460036-1 1v13c0 .553997.4460024 1 1 1h6.6855469a4.5 4.5 0 0 1 -.921875-1h-5.7636719v-13h6.8808594c.0519695.8873391.1191406 2.1897088.1191406 3 .810291 0 2.112661.0671707 3 .1191406v2.9101563a4.5 4.5 0 0 1 1 .2285156v-2.9042969c0-.0662499-.027344-.1308634-.074219-.1777344 0 0-1.238283-1.4882829-1.925781-2.1757812s-2.1757812-1.9277344-2.1757812-1.9277344c-.046875-.0468799-.1114845-.0722656-.1777344-.0722656z"/></g></svg>