<svg height="16" width="16" xmlns="http://www.w3.org/2000/svg"><g fill="#bebebe"><path d="m3 1c-.5539976 0-1 .4460036-1 1v13c0 .553997.4460024 1 1 1h4.5351562a1.0001 1.0001 0 0 1 -.0703124-.050781l-.9492188-.949219h-3.515625v-13h6.8808594c.0519695.8873391.1191406 2.1897088.1191406 3h2a1.0001 1.0001 0 0 1 .384766.0878906c.204686.0110133.436749.0207965.615234.03125v.8808594.171875l.121094-.1210938a1.0001 1.0001 0 0 1 .878906-.2753906v-.421875c0-.0662499-.027344-.1308634-.074219-.1777344 0 0-1.238283-1.4882829-1.925781-2.1757812s-2.1757812-1.9277344-2.1757812-1.9277344c-.046875-.0468799-.1114845-.0722656-.1777344-.0722656zm10 7.4296875v4.6406245c.017955-.013583.02969-.021514.041016-.029296.062156-.090457.32254-.406881.402343-.490235.042146-.098927.238222-.466405.298829-.560547.023633-.109022.144534-.504264.185546-.607422.001774-.11153.042502-.523276.0625-.632812-.019998-.109536-.060726-.521282-.0625-.632812-.041012-.103158-.161913-.4984004-.185546-.6074224-.060607-.0941418-.256683-.4616201-.298829-.5605468-.079803-.083354-.340187-.3997783-.402343-.4902344-.011326-.0077825-.023061-.0157138-.041016-.0292969zm-4 7.3984375-.1210938.121094a1.0001 1.0001 0 0 1 -.0703124.050781h.1914062zm4 0v.171875c.058405 0 .114314-.006107.169922-.015625a1.0001 1.0001 0 0 1 -.048828-.035156z"/><path d="m10 6v1.6484375a3.5 3.5 0 0 0 -.8535156.3847656c.062056-.0387165.1249766-.0765168.1894531-.1113281l-1.1640625-1.1640625-1.4140625 1.4140625 1.1660156 1.1660156c.028301-.052664.0589319-.1032285.0898438-.1542968a3.5 3.5 0 0 0 -.3652344.8164062h-1.6484375v2h1.6484375a3.5 3.5 0 0 0 .3652344.816406c-.030912-.051068-.0615428-.101633-.0898438-.154297l-1.1660156 1.166016 1.4140625 1.414063 1.1660156-1.166016c-.052664-.028301-.1032285-.058932-.1542968-.089844a3.5 3.5 0 0 0 .8164062.365234v1.648438h2v-1.648438a3.5 3.5 0 0 0 .816406-.365234c-.051068.030912-.101632.061544-.154297.089844l1.166016 1.166016 1.414063-1.414063-1.166016-1.166016c-.028301.052664-.058932.103229-.089844.154297a3.5 3.5 0 0 0 .365234-.816406h1.648438v-2h-1.646484a3.5 3.5 0 0 0 -.275391-.6640625l1.164063-1.1640625-1.414063-1.4140625-1.164063 1.1640625a3.5 3.5 0 0 0 -.664062-.2753906v-1.6464844zm1 1.5a3.5 3.5 0 0 0 -.46875.0332031c.155042-.0213275.31184-.0328214.46875-.0332031zm-.513672.0390625a3.5 3.5 0 0 0 -.417969.0917969c.137822-.0384635.276755-.0705025.417969-.0917969zm-1.4179686.5449219a3.5 3.5 0 0 0 -.3574219.2675781c.1129772-.0975686.2329568-.1852378.3574219-.2675781zm4.0156246.1054687c.026552.0196646.052139.0401367.078125.0605469a3.5 3.5 0 0 0 -.078125-.0605469zm.166016.1308594c.024411.0204781.048412.0413525.072266.0625a3.5 3.5 0 0 0 -.072266-.0625zm-4.5429688.0351563a3.5 3.5 0 0 0 -.328125.328125c.0475826-.0541269.0955588-.1070293.1464844-.1582032.0586008-.058535.1191609-.1157917.1816406-.1699218zm-.3710937.3789062a3.5 3.5 0 0 0 -.2285156.3027344c.070582-.1045013.1470512-.2064304.2285156-.3027344zm2.6640625.265625a2 2 0 0 1 2 2 2 2 0 0 1 -2 2 2 2 0 0 1 -2-2 2 2 0 0 1 2-2zm-3.3691406 1.068359a3.5 3.5 0 0 0 -.0917969.417969c.0212944-.141214.0533335-.280147.0917969-.417969zm-.0976563.462891a3.5 3.5 0 0 0 -.0332031.46875 3.5 3.5 0 0 0 .0332031.46875c-.0213275-.155042-.0328214-.31184-.0332031-.46875.0003817-.15691.0118756-.313708.0332031-.46875zm6.9667969.46875c-.000382.15691-.011876.313708-.033203.46875a3.5 3.5 0 0 0 .033203-.46875zm-6.9609375.513672a3.5 3.5 0 0 0 .0917969.417969c-.0384635-.137822-.0705025-.276755-.0917969-.417969zm6.9218755 0c-.021294.141214-.053332.280147-.091797.417969a3.5 3.5 0 0 0 .091797-.417969zm-6.3535161 1.449219a3.5 3.5 0 0 0 .2285156.302734c-.0814644-.096304-.1579336-.198233-.2285156-.302734zm5.7851561 0c-.070582.104501-.147051.20643-.228516.302734a3.5 3.5 0 0 0 .228516-.302734zm-5.5136718.353515a3.5 3.5 0 0 0 .3046876.304688c-.0541269-.047583-.1070293-.095559-.1582032-.146485-.0509256-.051174-.0989018-.104076-.1464844-.158203zm5.2421878 0c-.047583.054127-.095559.107029-.146485.158203-.051174.050926-.104076.098902-.158203.146485a3.5 3.5 0 0 0 .304688-.304688zm-4.886719.347656a3.5 3.5 0 0 0 .3027344.228516c-.1045013-.070582-.2064304-.147051-.3027344-.228516zm4.53125 0c-.096304.081465-.198233.157934-.302734.228516a3.5 3.5 0 0 0 .302734-.228516zm-3.197266.705079a3.5 3.5 0 0 0 .417969.091797c-.141214-.021294-.280147-.053332-.417969-.091797zm1.863282 0c-.137822.038462-.276755.070502-.417969.091797a3.5 3.5 0 0 0 .417969-.091797zm-1.400391.097656a3.5 3.5 0 0 0 .46875.033203 3.5 3.5 0 0 0 .46875-.033203c-.155042.021328-.31184.032821-.46875.033203-.15691-.000382-.313708-.011876-.46875-.033203z" stroke-linecap="square" stroke-opacity=".566502"/></g></svg>