<svg height="16" viewBox="0 0 16 16" width="16" xmlns="http://www.w3.org/2000/svg"><g fill="#bebebe"><path d="m8 3 4 4-4 4-1-1 1.001953-2h-7.001953v-2h7.011719l-1.011719-2z"/><path d="m4 1c-.5539976 0-1 .4460026-1 1v3h1v-3h10v9.880859c-.887339.05197-2.189709.119141-3 .119141 0 .810291-.06717 2.112661-.119141 3h-6.880859v-6h-1v6c0 .553996.4460024 1 1 1h6.646484c.06625 0 .13086-.025386.177735-.072266 0 0 1.488283-1.240236 2.175781-1.927734s1.925781-2.175781 1.925781-2.175781c.046875-.046871.074219-.111485.074219-.177735v-9.646484c0-.5539974-.446004-1-1-1z"/></g></svg>