<svg height="16" viewBox="0 0 16 16" width="16" xmlns="http://www.w3.org/2000/svg"><g fill="#bebebe"><path d="m4.0000002 3-4 4 4 4 1-1-1.001953-2h7.0019528v-2h-7.0117188l1.011719-2z"/><path d="m4 1c-.5539974 0-1 .4460026-1 1v.5859375l.2929688-.2929687a1.0001 1.0001 0 0 1 .7070312-.28125v-.0117188h10v9.880859c-.887339.05197-2.189709.119141-3 .119141 0 .810291-.06717 2.112661-.119141 3h-6.880859v-3.011719a1.0001 1.0001 0 0 1 -.7070312-.28125l-.2929688-.292969v3.585938c0 .553996.4460026 1 1 1h6.646484c.06625 0 .13086-.025386.177735-.072266 0 0 1.488283-1.240236 2.175781-1.927734s1.925781-2.175781 1.925781-2.175781c.046875-.04687.074219-.111485.074219-.177735v-9.646484c0-.5539974-.446004-1-1-1z"/></g></svg>