<svg height="16" width="16" xmlns="http://www.w3.org/2000/svg"><g fill="#bebebe"><g transform="matrix(1 0 0 -.94507616 0 15.560609)"><path d="m2.21875.59375v14.8125h4.765625 6.796875v-11.5078125-.0859375l-3.40625-3.21875zm7.71875.65625 3.09375 2.6875.144531-.0390625.011719 10.8515625-5.1875.023438h-.0644531l-5.1230469-.023438.03125-13.46875z" fill-opacity=".902043"/><path d="m10.399923 1.0711876.121037 2.8764119 2.795.039625v-.4386957l-2.554758-2.4773408z"/></g><path d="m8.9756715 8.9878133-1.30062-1.519338.7617281-.647597s1.7618944-.4234069 2.6642164.00766c2.235985 1.0682064 1.710735 3.3091136 2.401671 4.3148876l.129094-3.3140725c-.033215-1.0900766-.157054-1.7889094-1.587698-2.5726174-2.6310876-1.4413117-4.9079033.0448044-4.9079033.0448044l-.7617281.647597-1.3006199-1.519338-1.4675805 5.2054018z"/></g></svg>