<svg height="16" width="16" xmlns="http://www.w3.org/2000/svg"><path d="m4.9999997.49999985v.25 2.75000005.25l2.1875004 4.3750003-1.1875 2.3749998c-.8357814.619916-1.3031064.561884-1.8437504.5-.153096-.04887-.298925-.07109-.46875-.0625-.01441.000727-.04801.03013-.0625.03125-.09237-.0021-.162153.01576-.25.03125-.65557.152049-1.370011.645204-1.84375 1.40625-.73222597 1.1763-.53124997 3.09375.46875 3.09375h2l3.0000004-4 .375-.75h.625.625l.375.75 2.9999999 4h2c1 0 1.200977-1.91745.46875-3.09375-.473738-.761046-1.18818-1.254201-1.84375-1.40625-.08785-.01549-.157633-.03336-.25-.03125-.01449-.0011-.04809-.03052-.0625-.03125-.169824-.0086-.315654.01363-.46875.0625-.540644.06188-1.00797.119916-1.84375-.5l-1.1874999-2.3749998 2.1874999-4.3750003v-.25-2.75000005-.25l-2.9999999 5.99999995zm-1.4375 11.71875015c.136929.000802.256111.02685.375.09375.475558.267603.588057 1.001412.21875 1.625-.369306.623584-1.055693.923854-1.53125.65625-.475557-.267603-.588056-1.001413-.21875-1.625.27698-.46769.745464-.752408 1.15625-.75zm8.8750003 0c.410785-.0024.87927.28231 1.15625.75.369306.623587.256807 1.357397-.21875 1.625-.475557.267604-1.161944-.03267-1.53125-.65625-.369306-.623588-.256807-1.357397.21875-1.625.118888-.0669.238072-.09295.375-.09375z" fill="#bebebe" fill-rule="evenodd"/></svg>