<svg height="15.973852" width="16" xmlns="http://www.w3.org/2000/svg"><g fill="#bebebe"><path d="m1.00001 1h1v1h-1z"/><path d="m3.00001 1h1v1h-1z"/><path d="m5.00001 1h1v1h-1z"/><path d="m7.00001 1h1v1h-1z"/><path d="m9.00001 1h1v1h-1z"/><path d="m11.00001 1h1v1h-1z"/><path d="m13.00001 1h1v1h-1z"/><path d="m13.00001 3h1v1h-1z"/><path d="m13.00001 5h1v1h-1z"/><path d="m13.00001 7h1v1h-1z"/><path d="m13.00001 9h1v1h-1z"/><path d="m13.00001 11h1v1h-1z"/><path d="m13.00001 13h1v1h-1z"/><path d="m11.00001 13h1v1h-1z"/><path d="m9.00001 13h1v1h-1z"/><path d="m7.00001 13h1v1h-1z"/><path d="m5.00001 13h1v1h-1z"/><path d="m3.00001 13h1v1h-1z"/><path d="m1.00001 13h1v1h-1z"/><path d="m1.00001 11h1v1h-1z"/><path d="m1.00001 9h1v1h-1z"/><path d="m1.00001 7h1v1h-1z"/><path d="m1.00001 5h1v1h-1z"/><path d="m1.00001 3h1v1h-1z"/><path d="m3.00001 8.10443h4v4h-4z"/><path d="m8.00001 8.10443h4v4h-4z"/><path d="m3.00001 3h9v4h-9z"/></g></svg>