<svg height="16" width="16" xmlns="http://www.w3.org/2000/svg"><g fill="#bebebe"><path d="m2.2052144-13.482758a.04793944.23969722 0 1 1 -.095879 0 .04793944.23969722 0 1 1 .095879 0z"/><path d="m5.4140625 3.3222656-3.7675781 3.7011719 3.8398437 3.7714845a.72895824.72895824 0 0 1 -.072266-.314453l.00391-1.7324221a.72895824.72895824 0 0 1 .7285123-.7265625h4.0898436c1.174776 0 2.240234.8557397 2.240234 2.0312496v3.167969h2.03125v-3.9999999c0-1.7308134-1.590139-3.1933594-3.693359-3.1933593h-.121094-4.5468746a.72895824.72895824 0 0 1 -.7285156-.7265626z" fill-rule="evenodd"/></g></svg>