<svg height="16" width="16" xmlns="http://www.w3.org/2000/svg"><path d="m6.59375 3.9998595a.51931882.52641945 0 0 0 -.25.15625l-5.1875 5.3125a.51931882.52641945 0 0 0 .03125.7500005l5.03125 4.625001a.51931882.52641945 0 0 0 .34375.15625h7.90625a.51931882.52641945 0 0 0 .53125-.53125v-9.9375015a.51931882.52641945 0 0 0 -.53125-.53125h-7.75a.51931882.52641945 0 0 0 -.0625 0 .51931882.52641945 0 0 0 -.0625 0zm1.34375 2.25 1.8125 1.75 1.78125-1.75 1.46875 1.46875-1.75 1.78125 1.75 1.8437515-1.46875 1.40625-1.78125-1.750001-1.8125 1.750001-1.4375-1.4375 1.75-1.8125015-1.75-1.78125z" fill="#fff" opacity=".6"/><path d="m6.59375 2.999999a.51931882.52641945 0 0 0 -.25.15625l-5.1875 5.3125a.51931882.52641945 0 0 0 .03125.75l5.03125 4.625001a.51931882.52641945 0 0 0 .34375.15625h7.90625a.51931882.52641945 0 0 0 .53125-.53125v-9.937501a.51931882.52641945 0 0 0 -.53125-.53125h-7.75a.51931882.52641945 0 0 0 -.0625 0 .51931882.52641945 0 0 0 -.0625 0zm1.34375 2.25 1.8125 1.75 1.78125-1.75 1.46875 1.46875-1.75 1.78125 1.75 1.84375-1.46875 1.406251-1.78125-1.750001-1.8125 1.750001-1.4375-1.437501 1.75-1.8125-1.75-1.78125z" fill="#bebebe"/></svg>