<svg height="16" width="16" xmlns="http://www.w3.org/2000/svg"><path d="m9.4226351 3.9998595a.51931882.52641945 0 0 1 .25.15625l5.1874999 5.3125a.51931882.52641945 0 0 1 -.03125.7500005l-5.0312499 4.625001a.51931882.52641945 0 0 1 -.34375.15625h-7.90625a.51931882.52641945 0 0 1 -.53125-.53125v-9.9375015a.51931882.52641945 0 0 1 .53125-.53125h7.75a.51931882.52641945 0 0 1 .0625 0 .51931882.52641945 0 0 1 .0625 0zm-1.34375 2.25-1.8125 1.75-1.78125-1.75-1.46875 1.46875 1.75 1.78125-1.75 1.8437515 1.46875 1.40625 1.78125-1.750001 1.8125 1.750001 1.4375-1.4375-1.75-1.8125015 1.75-1.78125z" fill="#fff" opacity=".6"/><path d="m9.4226354 2.999999a.51931882.52641945 0 0 1 .25.15625l5.1874996 5.3125a.51931882.52641945 0 0 1 -.03125.75l-5.0312496 4.625001a.51931882.52641945 0 0 1 -.34375.15625h-7.90625a.51931882.52641945 0 0 1 -.53125-.53125v-9.937501a.51931882.52641945 0 0 1 .53125-.53125h7.75a.51931882.52641945 0 0 1 .0625 0 .51931882.52641945 0 0 1 .0625 0zm-1.34375 2.25-1.8125 1.75-1.78125-1.75-1.46875 1.46875 1.75 1.78125-1.75 1.84375 1.46875 1.406251 1.78125-1.750001 1.8125 1.750001 1.4375-1.437501-1.75-1.8125 1.75-1.78125z" fill="#bebebe"/></svg>