<svg height="16" width="16" xmlns="http://www.w3.org/2000/svg"><g fill="#bebebe" transform="translate(-.465126 -.5)"><path d="m9.335315 8.5380261c-.053977.021587-.1048795.051481-.1507363.088524l-.9110869.6178362c-.1386079.087649-.2358191.2297701-.2646596.3869271-.028841.157157.013758.3126313.1159746.4232826l5.5131092 5.790109c.09497.105821.234268.162049.383128.154646.148861-.0074.293228-.07774.397058-.193447l.944433-1.051287c.19322-.219769.192317-.537725-.0021-.721685l-5.5464065-5.356658c-.1171189-.1286478-.2983805-.1809944-.4787135-.1382479z" fill-rule="evenodd"/><path d="m6 1c-2.7548301 0-5 2.2451694-5 5 0 2.7548303 2.2451699 5 5 5 2.75483 0 5-2.2451697 5-5 0-2.7548306-2.24517-5-5-5zm0 1.90625c1.7079289 0 3.09375 1.3858207 3.09375 3.09375 0 1.7079291-1.3858211 3.09375-3.09375 3.09375-1.707929 0-3.09375-1.3858209-3.09375-3.09375 0-1.7079293 1.385821-3.09375 3.09375-3.09375z" fill-rule="evenodd"/><path d="m14.621865 5.1734249-9.231092 9.1767411-.5640556 1.583642 1.760632-.245842 9.2727316-9.2609498c.06884-.052052.09197-.130542.04707-.2523285l-1.059542-1.0212189c-.05427-.052227-.146593-.016953-.225744.019956z"/></g></svg>