<svg height="16" width="16" xmlns="http://www.w3.org/2000/svg"><path d="m5 1c-2.7614237 0-5 2.2385763-5 5s2.2385763 5 5 5c.9847834 0 1.8822735-.289667 2.65625-.78125l4.46875 4.625c.09558.105267.226186.164519.375.15625.148816-.0083.303095-.07119.40625-.1875l.9375-1.0625c.191938-.220889.195486-.535924 0-.71875l-4.59375-4.40625c.477599-.7663478.75-1.6555164.75-2.625 0-2.7614237-2.2385763-5-5-5zm0 2c1.6568542 0 3 1.3431458 3 3s-1.3431458 3-3 3-3-1.3431458-3-3 1.3431458-3 3-3zm6 3 2.5 4 2.5-4z" fill="#bebebe" transform="translate(0 -.500382)"/></svg>