<svg height="16" width="16" xmlns="http://www.w3.org/2000/svg"><path d="m5.2871094 1.0078125c-.810416.0462373-1.6911714.2901488-2.7089844.7636719-.3524735.1640366-.5779432.5174756-.578125.90625v6.6484375 6.1738281c0 .277.223.5.5.5s.5-.223.5-.5v-5.179688c.1397015.000054.282732-.02317.421875-.08789 2.578125-1.732422 2.8723517-1.4625911 4.1223517-.8813559 1.25.581235 3.1465293-1.8487061 5.8776483-3.1186441.352473-.164037.577943-.5174757.578125-.9062501v-1.3261719c-.00041-.7308982-.759155-1.2144939-1.421875-.90625-1.843043.8568876-2.244549.3196102-3.1571107-.0481992-.912561-.3678093-2.3964286-2.1378328-4.1339049-2.0377383zm.0566406.9980469c2.825-.1627458 3.5932496 3.8831544 7.65625 1.9941406v1.328125l-1.778779 1.2113439c-.868959.5917583-2.7166194 1.8058633-3.3137764 1.8713111-.5971571.0654478-1.0623074-.4960489-1.775973-.6022198-.7136656-.106171-1.947033 1.3955261-3.1314716 1.5195648v-6.6503906c.937-.4359262 1.69175-.634676 2.34375-.671875z" fill="#bebebe" stroke-width=".707107"/></svg>