<svg height="16" width="16" xmlns="http://www.w3.org/2000/svg"><g fill="#bebebe"><path d="m1.970703 1.041021c-.554 0-1 .8411965-1 1.875v9.3125c0 1.033803.475297 1.771479 1.029297 1.771479h4v-1.5h-4v-9.8554634c0-.372348.1882664-.6672252.4375-.75v-.8535156zm8.5625-.103521v.8535156c.249234.082775.4375.377652.4375.75v2.4589844h1.029297v-2.1875c0-1.0338035-.446-1.875-1-1.875z"/><path d="m6 5v11h6.5l3.5-3v-8zm1 1h8v5h-4v4h-4zm5 6h3l-3 3z" stroke-width=".762462"/><path d="m5.45.0000004c-.25.00000005-.45.223-.45.5v.5h-1.5c-.277 0-.5.223-.5.5v1c0 .277.223.5.5.5l6-.0000004c.277 0 .5-.223.5-.5v-1c0-.277-.223-.5-.5-.5h-1.5v-.5c0-.277-.2-.50000005-.45-.5z"/></g></svg>