<?xml version="1.0" encoding="UTF-8" standalone="no"?>
<svg
   xmlns:dc="http://purl.org/dc/elements/1.1/"
   xmlns:cc="http://creativecommons.org/ns#"
   xmlns:rdf="http://www.w3.org/1999/02/22-rdf-syntax-ns#"
   xmlns:svg="http://www.w3.org/2000/svg"
   xmlns="http://www.w3.org/2000/svg"
   xmlns:sodipodi="http://sodipodi.sourceforge.net/DTD/sodipodi-0.dtd"
   xmlns:inkscape="http://www.inkscape.org/namespaces/inkscape"
   height="16"
   width="16"
   version="1.1"
   id="svg6"
   sodipodi:docname="edit-clear-symbolic-rtl.svg"
   inkscape:version="0.92.4 (unknown)">
  <metadata
     id="metadata12">
    <rdf:RDF>
      <cc:Work
         rdf:about="">
        <dc:format>image/svg+xml</dc:format>
        <dc:type
           rdf:resource="http://purl.org/dc/dcmitype/StillImage" />
        <dc:title></dc:title>
      </cc:Work>
    </rdf:RDF>
  </metadata>
  <defs
     id="defs10" />
  <sodipodi:namedview
     pagecolor="#ffffff"
     bordercolor="#666666"
     borderopacity="1"
     objecttolerance="10"
     gridtolerance="10"
     guidetolerance="10"
     inkscape:pageopacity="0"
     inkscape:pageshadow="2"
     inkscape:window-width="1366"
     inkscape:window-height="706"
     id="namedview8"
     showgrid="true"
     inkscape:zoom="14.75"
     inkscape:cx="-0.54237288"
     inkscape:cy="7.4576271"
     inkscape:window-x="0"
     inkscape:window-y="0"
     inkscape:window-maximized="1"
     inkscape:current-layer="svg6">
    <inkscape:grid
       type="xygrid"
       id="grid822" />
  </sodipodi:namedview>
  <path
     d="m 9.4226351,3.9998595 a 0.51931882,0.52641945 0 0 1 0.25,0.15625 l 5.1874999,5.3125 a 0.51931882,0.52641945 0 0 1 -0.03125,0.7500005 l -5.0312499,4.625001 a 0.51931882,0.52641945 0 0 1 -0.34375,0.15625 h -7.90625 a 0.51931882,0.52641945 0 0 1 -0.53125,-0.53125 V 4.5311095 a 0.51931882,0.52641945 0 0 1 0.53125,-0.53125 h 7.75 a 0.51931882,0.52641945 0 0 1 0.0625,0 0.51931882,0.52641945 0 0 1 0.0625,0 z m -1.34375,2.25 -1.8125,1.75 -1.78125,-1.75 -1.46875,1.46875 1.75,1.78125 -1.75,1.8437515 1.46875,1.40625 1.78125,-1.750001 1.8125,1.750001 1.4375,-1.4375 -1.75,-1.8125015 1.75,-1.78125 z"
     id="path2"
     inkscape:connector-curvature="0"
     style="opacity:0.6;fill:#ffffff" />
  <path
     d="m 9.4226354,2.999999 a 0.51931882,0.52641945 0 0 1 0.25,0.15625 l 5.1874996,5.3125 a 0.51931882,0.52641945 0 0 1 -0.03125,0.75 L 9.7976354,13.84375 A 0.51931882,0.52641945 0 0 1 9.4538854,14 h -7.90625 a 0.51931882,0.52641945 0 0 1 -0.53125,-0.53125 V 3.531249 a 0.51931882,0.52641945 0 0 1 0.53125,-0.53125 h 7.75 a 0.51931882,0.52641945 0 0 1 0.0625,0 0.51931882,0.52641945 0 0 1 0.0625,0 z m -1.34375,2.25 -1.8125,1.75 -1.78125,-1.75 -1.46875,1.46875 1.75,1.78125 -1.75,1.84375 1.46875,1.406251 1.78125,-1.750001 1.8125,1.750001 1.4375,-1.437501 -1.75,-1.8125 1.75,-1.78125 z"
     id="path4"
     style="opacity:1;fill:#bebebe"
     inkscape:connector-curvature="0" />
</svg>
