<?xml version="1.0" encoding="UTF-8" standalone="no"?>
<svg
   xmlns:dc="http://purl.org/dc/elements/1.1/"
   xmlns:cc="http://creativecommons.org/ns#"
   xmlns:rdf="http://www.w3.org/1999/02/22-rdf-syntax-ns#"
   xmlns:svg="http://www.w3.org/2000/svg"
   xmlns="http://www.w3.org/2000/svg"
   xmlns:sodipodi="http://sodipodi.sourceforge.net/DTD/sodipodi-0.dtd"
   xmlns:inkscape="http://www.inkscape.org/namespaces/inkscape"
   height="16"
   width="16"
   version="1.1"
   id="svg6"
   sodipodi:docname="edit-clear-all-symbolic.svg"
   inkscape:version="0.92.4 (unknown)">
  <metadata
     id="metadata12">
    <rdf:RDF>
      <cc:Work
         rdf:about="">
        <dc:format>image/svg+xml</dc:format>
        <dc:type
           rdf:resource="http://purl.org/dc/dcmitype/StillImage" />
        <dc:title></dc:title>
      </cc:Work>
    </rdf:RDF>
  </metadata>
  <defs
     id="defs10" />
  <sodipodi:namedview
     pagecolor="#ffffff"
     bordercolor="#666666"
     borderopacity="1"
     objecttolerance="10"
     gridtolerance="10"
     guidetolerance="10"
     inkscape:pageopacity="0"
     inkscape:pageshadow="2"
     inkscape:window-width="1366"
     inkscape:window-height="706"
     id="namedview8"
     showgrid="true"
     inkscape:zoom="14.75"
     inkscape:cx="-0.54237288"
     inkscape:cy="7.4576271"
     inkscape:window-x="0"
     inkscape:window-y="0"
     inkscape:window-maximized="1"
     inkscape:current-layer="svg6">
    <inkscape:grid
       type="xygrid"
       id="grid822" />
  </sodipodi:namedview>
  <path
     d="m6.59375 3.9998595a.51931882.52641945 0 0 0 -.25.15625l-5.1875 5.3125a.51931882.52641945 0 0 0 .03125.7500005l5.03125 4.625001a.51931882.52641945 0 0 0 .34375.15625h7.90625a.51931882.52641945 0 0 0 .53125-.53125v-9.9375015a.51931882.52641945 0 0 0 -.53125-.53125h-7.75a.51931882.52641945 0 0 0 -.0625 0 .51931882.52641945 0 0 0 -.0625 0zm1.34375 2.25 1.8125 1.75 1.78125-1.75 1.46875 1.46875-1.75 1.78125 1.75 1.8437515-1.46875 1.40625-1.78125-1.750001-1.8125 1.750001-1.4375-1.4375 1.75-1.8125015-1.75-1.78125z"
     fill="#fff"
     opacity=".6"
     id="path2" />
  <path
     d="m6.59375 2.999999a.51931882.52641945 0 0 0 -.25.15625l-5.1875 5.3125a.51931882.52641945 0 0 0 .03125.75l5.03125 4.625001a.51931882.52641945 0 0 0 .34375.15625h7.90625a.51931882.52641945 0 0 0 .53125-.53125v-9.937501a.51931882.52641945 0 0 0 -.53125-.53125h-7.75a.51931882.52641945 0 0 0 -.0625 0 .51931882.52641945 0 0 0 -.0625 0zm1.34375 2.25 1.8125 1.75 1.78125-1.75 1.46875 1.46875-1.75 1.78125 1.75 1.84375-1.46875 1.406251-1.78125-1.750001-1.8125 1.750001-1.4375-1.437501 1.75-1.8125-1.75-1.78125z"
     fill="#bebebe"
     opacity=".7"
     id="path4"
     style="opacity:1" />
</svg>
