<svg height="16" width="16" xmlns="http://www.w3.org/2000/svg"><path d="m191 769 6 6-6 6h-9.0353c-.53033-.0221-.9647-.49177-.9647-1v-10c0-.53079.34561-1 1.0089-1zm-1 3h-1c-.0104-.00012-.0208-.00046-.0313 0-.25495.0112-.50987.12858-.6875.3125l-1.2812 1.2812-1.3125-1.2812c-.26562-.2305-.44667-.3055-.6875-.3125h-1v1c0 .28647.0343.55065.25.75l1.2812 1.2812-1.25 1.25c-.18819.18817-.28124.45345-.28125.71875v1h1c.2653-.00001.53059-.0931.71875-.28125l1.2812-1.2812 1.2812 1.2812c.18816.18819.45346.28125.71875.28125h1v-1c0-.26529-.0931-.53058-.28125-.71875l-1.2812-1.25 1.2812-1.2812c.21074-.19463.30316-.46925.28125-.75v-1z" fill="#bebebe" transform="translate(-181 -767)"/></svg>