<svg height="16" width="16" xmlns="http://www.w3.org/2000/svg"><path d="m1.6523438 1.0292968c-.2281974 0-.3164586.2107768-.4121094.4277344l-.2402344.5429688.0996094 4.703125c.00895-.0004971.019339.00306.027344-.00195h3.1953122l.5273438-.4160188h-3v-3.21875l12.1503906-.0664062-.087891 2.5546874h.808594l.177734-3.126953c.0099-.2368992-.181954-.4274123-.410156-.4277344h-8.488281l-.8808594-.9707032z" fill="#ccc"/><path d="m5.6484375 5-1.6484375 1h-3.1953125c-.23693779.0094169-.44609116.1911815-.4296875.4277344l.6171875 7.1562496c.0164036.236551.1906144.427735.4277344.427735h6.8476562a4.5 4.5 0 0 1 -.2675781-1.511719 4.5 4.5 0 0 1 4.5-4.5 4.5 4.5 0 0 1 2.662109.8769531l.261719-3.4492187c.014187-.2366958-.190614-.4277344-.427734-.4277344z" fill="#ccc"/><path d="m12.5 9c-1.933 0-3.5 1.567-3.5 3.5s1.567 3.5 3.5 3.5 3.5-1.567 3.5-3.5-1.567-3.5-3.5-3.5zm-.5 1h1v2h2v1h-2v2h-1v-2h-2v-1h2z" fill="#bebebe" fill-rule="evenodd"/></svg>