<svg height="16" width="16" xmlns="http://www.w3.org/2000/svg"><g fill="#bebebe"><g transform="translate(-241 -827)"><path d="m241 832v.5c0 .25689.12983.52846.3125.71875l1.6875 1.78125-1.6875 1.78125c-.18267.19029-.3125.46186-.3125.71875v.4999h1c.30945 0 .55232-.0903.75-.28125l2.6562-2.7188-2.6562-2.7188c-.19768-.19095-.44055-.28125-.75-.28125h-1z"/><path d="m257 832v.5c0 .25689-.12983.52846-.3125.71875l-1.6875 1.78125 1.6875 1.78125c.18267.19029.3125.46186.3125.71875v.4999h-1c-.30945 0-.55232-.0903-.75-.28125l-2.6562-2.7188 2.6562-2.7188c.19768-.19095.44055-.28125.75-.28125h1z"/></g><path d="m7.1660156 4-2.6660156 8h1.5332031l.6054688-2h2.7226562l.6054688 2h1.5332031l-2.6660156-8zm.8339844 1.5 1.0585938 3.5h-2.1171876z"/></g></svg>