<svg height="16" width="16" xmlns="http://www.w3.org/2000/svg"><g fill="#bebebe" transform="translate(-.181295 .105679)"><path d="m12.181295 1.8943208.04794 7.1466824c.0037.5460258-.07903 1.0537578-.237096 1.5231588-.158064.469401-.397554.876534-.718471 1.2214-.316128.344867-.716077.615491-1.199847.811873-.4789807.196382-1.4139825.305876-2.0653963.305876-.6130954 0-1.1543437-.09101-1.6237448-.273019-.4694021-.186803-.8645612-.450242-1.1854783-.790318-.3161273-.340077-.5556177-.74721-.7184712-1.221401-.1628534-.478981-.2403365-1.0106628-.2442801-1.595006l-.0479394-7.1035741.9927837-.0256721.047939 7.1754212c.0056.838198.556719 1.512908.9686424 1.972729.4167133.459821 1.0441781.689732 1.8823944.689732.4262929 0 1.1625177-.07597 1.4690654-.20529.3065476-.129324.5580122-.311337.7543942-.546038.469642-.575793.855689-1.2639151.925505-1.911133l-.04794-7.1754212z" fill="#bebebe"/><path d="m4.1812946 13.894321h8.0000004v1h-8.0000004z"/></g></svg>