<svg height="16" width="16" xmlns="http://www.w3.org/2000/svg"><g fill="#bebebe"><path d="m8.21875 1.75c-.5376617.0000123-1.0510319.0801907-1.5.21875-.4434317.1385835-.8347663.3277044-1.15625.59375-.3214877.2605257-.5726299.5863035-.75.96875-.1773727.3824677-.250001.8247379-.25 1.3125-.000001.4656092.0453916.8841794.15625 1.25.0814792.2560855.2030433.4730729.34375.6875h2.25c-.2881746-.1567329-.5381837-.3297418-.71875-.5-.1940031-.1884494-.32311-.3664845-.40625-.59375-.0831454-.2327916-.1250025-.527798-.125-.84375-.0000025-.532105.1911256-.9395896.5625-1.25.3713683-.3159323.8862669-.468739 1.5625-.46875.4877667.000011.9517297.034318 1.40625.15625.460052.1164108.889707.2767675 1.25.4375l.53125-1.3125c-.410179-.1939883-.879685-.346795-1.40625-.46875-.5265778-.1274737-1.0904048-.1874877-1.75-.1875zm.6875 7.40625c.2510133.1382404.4648085.2862163.625.4375.2050797.1829188.3286436.3720392.40625.59375.083134.221718.124994.481939.125.78125-.000006.620803-.1982059 1.104931-.625 1.4375-.4212629.332573-1.0818969.500001-1.96875.5-.2771467 0-.5610674-.0237-.84375-.0625-.2826887-.044342-.5464451-.08973-.8125-.15625-.2660593-.066513-.5373658-.1356-.78125-.21875-.2383443-.088684-.4365437-.19256-.625-.28125v1.46875c.3602848.188457.8116336.34327 1.34375.4375.5376549.099767 1.103489.15625 1.71875.15625.6374246 0 1.2088016-.069093 1.71875-.21875.5099372-.1552.95775-.393728 1.3125-.6875.354736-.293771.624035-.641241.8125-1.0625.19399-.426798.281242-.93109.28125-1.46875-.000008-.476683-.05448-.8695455-.1875-1.21875-.055842-.1529476-.134536-.297839-.21875-.4375z"/><path d="m2.188109 7.400757h11.623782v1.198486h-11.623782z"/><path d="m8.21875 1.75c-.5376617.0000123-1.0510319.0801907-1.5.21875-.4434317.1385835-.8347663.3277044-1.15625.59375-.3214877.2605257-.5726299.5863035-.75.96875-.1773727.3824677-.250001.8247379-.25 1.3125-.000001.4656092.0453916.8841794.15625 1.25.0181375.0570053.0406209.1027164.0625.15625h1.78125c-.1755292-.1764459-.2967337-.348557-.375-.5625-.0831454-.2327916-.1250025-.527798-.125-.84375-.0000025-.532105.1911256-.9395896.5625-1.25.3713683-.3159323.8862669-.468739 1.5625-.46875.4877667.000011.9517297.034318 1.40625.15625.460052.1164108.889707.2767675 1.25.4375l.53125-1.3125c-.410179-.1939883-.879685-.346795-1.40625-.46875-.5265778-.1274737-1.0904048-.1874877-1.75-.1875zm1.5625 8.125c.0662267.0978588.1174468.201645.15625.3125.083134.221718.124994.481939.125.78125-.000006.620803-.1982059 1.104931-.625 1.4375-.4212629.332573-1.0818969.500001-1.96875.5-.2771467 0-.5610674-.0237-.84375-.0625-.2826887-.044342-.5464451-.08973-.8125-.15625-.2660593-.066513-.5373658-.1356-.78125-.21875-.2383443-.088684-.4365437-.19256-.625-.28125v1.46875c.3602848.188457.8116336.34327 1.34375.4375.5376549.099767 1.103489.15625 1.71875.15625.6374246 0 1.2088016-.069093 1.71875-.21875.5099372-.1552.95775-.393728 1.3125-.6875.354736-.293771.624035-.641241.8125-1.0625.19399-.426798.281242-.93109.28125-1.46875-.000006-.355805-.02304-.658393-.09375-.9375z"/></g></svg>