<svg height="16" width="16" xmlns="http://www.w3.org/2000/svg"><path d="m4.2382311 5.5997513c-.3948092.2413595-.6669944.6633715-.6669944 1.1599903 0 .7587825.633206 1.3629887 1.3919884 1.3629887.6418035 0 1.154046-.4491338 1.3049892-1.0439913l-.3479971-.058-1.6819861-1.4209882zm5.5679544 0-1.6819865 1.4209882-.3479971.058c.1509433.5948575.6631866 1.0439913 1.3049896 1.0439913.758782 0 1.3919885-.6042062 1.3919885-1.3629887 0-.4966188-.272185-.9186308-.6669945-1.1599903z" fill="#fff"/><g fill="#bebebe"><path d="m.944624 1.556298h10.663082v1.635499h-10.663082z"/><path d="m.944624 4.282275h8.111103v1.635499h-8.111103z"/><path d="m2.965778 7.240251h8.111103v1.635499h-8.111103z"/><path d="m2.965778 12.808204h8.111103v1.635499h-8.111103z"/><path d="m2.965778 10.082227h6.777114v1.635499h-6.777114z"/><path d="m11.420802 10.631058 3.634574 2.792531v-5.5850607z"/></g></svg>