<svg height="16" width="16" xmlns="http://www.w3.org/2000/svg"><g fill="#bebebe" transform="translate(-633.5 -57.500001)"><path d="m638 59v1h1l-2 9h-1v1h3v-1h-.911l.911-4h3v1h1v-3h-1v1h-2.779l1-4h4.78v1h1v-2z"/><path d="m642 67v1c0 .277.112.526.293.707l.793.793-.793.793a.996.996 0 0 0 -.293.707v1h1a.996.996 0 0 0 .707-.293l.793-.793.793.793c.18.18.43.293.707.293h1v-1a.996.996 0 0 0 -.293-.707l-.793-.793.793-.793c.181-.18.293-.43.293-.707v-1h-1a.996.996 0 0 0 -.707.293l-.793.793-.793-.793a.996.996 0 0 0 -.707-.293z" fill-rule="evenodd"/></g></svg>