<svg height="16" width="16" xmlns="http://www.w3.org/2000/svg"><g fill="#bebebe" transform="matrix(1.1077739 0 0 1.1077739 -.862191 -.862191)"><path d="m8.2421875 1.0761719c-.5956076.0000136-1.1647542.0886954-1.6621094.2421875-.491222.1535192-.9251187.3634847-1.28125.6582031-.3561357.2886036-.6335921.6486014-.8300781 1.0722656-.1964888.4236878-.2773449.914748-.2773438 1.4550781-.0000011.5157898.0510226.9795192.1738282 1.3847657.0126295.0396941.0325702.073219.046875.1113281h1.9472656c-.1639002-.1751978-.2891527-.3491896-.3671875-.5625-.0921063-.2578805-.1386746-.5835904-.1386719-.9335938-.0000027-.589452.211648-1.040901.6230469-1.3847656.4113921-.3499815.9813554-.519519 1.7304687-.5195312.5403353.0000122 1.0550881.038755 1.5585938.1738281.509634.1289568.985642.3063197 1.384766.484375l.58789-1.4550781c-.454385-.2148952-.973325-.3844327-1.55664-.5195313-.5833295-.141212-1.2087712-.2070176-1.9394535-.2070312zm.5410156 7.9238281c.278066.1531391.7346534.5980369.9121094.765625.2271819.2026327.3652015.412598.4511715.658203.092094.245614.138666.533666.138672.865234-.000006.68771-.220568 1.223386-.6933591 1.591797-.4666641.368416-1.1972548.554689-2.1796875.554688-.3070159 0-.6223985-.027331-.9355469-.070313-.3131552-.049121-.605662-.098186-.9003906-.171875-.2947336-.073681-.5950658-.150076-.8652344-.242187-.2640316-.098242-.4826393-.214252-.6914063-.3125v1.626953c.3991141.208768.8988166.379989 1.4882813.484375.5956001.110523 1.2227268.173828 1.9042969.173828.7061223 0 1.3393893-.076398 1.9042968-.242187.5648952-.171927 1.0601418-.436286 1.4531248-.761719.392968-.325432.691614-.711075.900391-1.177734.214897-.472796.310538-1.031348.310547-1.626954-.000009-.528057-.059675-.962769-.207031-1.349609-.061859-.1694314-.43796-.6109122-.53125-.765625z" stroke-width="1.107774" transform="matrix(.90271128 0 0 .90271128 .77831 .77831)"/><path d="m2.5837322 7.0972886h10.8325358v.9027113h-10.8325358z"/></g></svg>