<?xml version="1.0" encoding="UTF-8" standalone="no"?>
<svg
   xmlns:dc="http://purl.org/dc/elements/1.1/"
   xmlns:cc="http://creativecommons.org/ns#"
   xmlns:rdf="http://www.w3.org/1999/02/22-rdf-syntax-ns#"
   xmlns:svg="http://www.w3.org/2000/svg"
   xmlns="http://www.w3.org/2000/svg"
   xmlns:sodipodi="http://sodipodi.sourceforge.net/DTD/sodipodi-0.dtd"
   xmlns:inkscape="http://www.inkscape.org/namespaces/inkscape"
   height="16"
   width="16"
   version="1.1"
   id="svg10"
   sodipodi:docname="format-text-underline-symbolic.svg"
   inkscape:version="0.92.4 (unknown)">
  <metadata
     id="metadata16">
    <rdf:RDF>
      <cc:Work
         rdf:about="">
        <dc:format>image/svg+xml</dc:format>
        <dc:type
           rdf:resource="http://purl.org/dc/dcmitype/StillImage" />
        <dc:title></dc:title>
      </cc:Work>
    </rdf:RDF>
  </metadata>
  <defs
     id="defs14" />
  <sodipodi:namedview
     pagecolor="#ffffff"
     bordercolor="#666666"
     borderopacity="1"
     objecttolerance="10"
     gridtolerance="10"
     guidetolerance="10"
     inkscape:pageopacity="0"
     inkscape:pageshadow="2"
     inkscape:window-width="1366"
     inkscape:window-height="706"
     id="namedview12"
     showgrid="true"
     inkscape:zoom="29.5"
     inkscape:cx="5.6529322"
     inkscape:cy="6.8220752"
     inkscape:window-x="0"
     inkscape:window-y="0"
     inkscape:window-maximized="1"
     inkscape:current-layer="svg10">
    <inkscape:grid
       type="xygrid"
       id="grid823" />
  </sodipodi:namedview>
  <g
     id="g8"
     transform="translate(-0.18129456,0.10567915)"
     style="fill:#bebebe">
    <g
       aria-label="U"
       style="font-size:14.71428871px;font-family:Sans;letter-spacing:0;word-spacing:0"
       id="text4">
      <path
         d="m 12.181295,1.8943208 0.04794,7.1466824 c 0.0037,0.5460258 -0.07903,1.0537578 -0.237096,1.5231588 -0.158064,0.469401 -0.397554,0.876534 -0.718471,1.2214 -0.316128,0.344867 -0.716077,0.615491 -1.199847,0.811873 -0.4789807,0.196382 -1.4139825,0.305876 -2.0653963,0.305876 -0.6130954,0 -1.1543437,-0.09101 -1.6237448,-0.273019 C 5.9152778,12.443489 5.5201187,12.18005 5.1992016,11.839974 4.8830743,11.499897 4.6435839,11.092764 4.4807304,10.618573 4.317877,10.139592 4.2403939,9.6079102 4.2364503,9.023567 L 4.1885109,1.9199929 5.1812946,1.8943208 5.2292336,9.069742 c 0.0056,0.838198 0.556719,1.512908 0.9686424,1.972729 0.4167133,0.459821 1.0441781,0.689732 1.8823944,0.689732 0.4262929,0 1.1625177,-0.07597 1.4690654,-0.20529 0.3065476,-0.129324 0.5580122,-0.311337 0.7543942,-0.546038 0.469642,-0.575793 0.855689,-1.2639151 0.925505,-1.911133 l -0.04794,-7.1754212 z"
         style="font-family:'Droid Sans';fill:#bebebe"
         id="path825"
         inkscape:connector-curvature="0"
         sodipodi:nodetypes="cssccscccsccscsscccc" />
    </g>
    <path
       d="m 4.1812946,13.894321 h 8.0000004 v 1 H 4.1812946 Z"
       id="path6"
       inkscape:connector-curvature="0"
       sodipodi:nodetypes="ccccc" />
  </g>
</svg>
