<svg height="16" width="16" xmlns="http://www.w3.org/2000/svg"><g fill="#bebebe" transform="translate(-301 -647)"><path d="m307 647.05v2h6c.42816 0 1 .61414 1 1v1h-5c-.91927 0-1.7356.38396-2.25.96875s-.75639 1.3106-.75 2.0312c.006.72062.26893 1.4527.78125 2.0312s1.3105.96875 2.2188.96875h6 1v-1-6c0-1.6343-1.3198-3-3-3h-6zm2 6h5v2h-5c-.39787 0-.56691-.10979-.71875-.28125s-.27877-.43937-.28125-.71875c-.002-.27938.10467-.55354.25-.71875s.32764-.28125.75-.28125z"/><path d="m305 662-1-.00001c-.26531-.00003-.53058-.0931-.71875-.28124l-2-2-.28126-.28125v-.87499l.28126-.28126 2-2c.18818-.18821.45347-.28121.71876-.28121l1-.00001v1c.00004.26531-.0931.53059-.28121.71877l-1.2813 1.2812 1.2812 1.2812c.18815.18817.28125.45345.28125.71875v1z"/><path d="m303 658v2h12.938v-2z"/></g></svg>