<svg height="96" width="96" xmlns="http://www.w3.org/2000/svg" xmlns:xlink="http://www.w3.org/1999/xlink"><linearGradient id="a" gradientUnits="userSpaceOnUse" x1="10.735273" x2="12.340249" y1="5.314314" y2="15.422365"><stop offset="0" stop-color="#f3840c"/><stop offset="1" stop-color="#f9ba3f"/></linearGradient><clipPath id="b"><path d="m0 0v96h96v-96zm12 6h72c3.324 0 6 2.676 6 6v72c0 3.324-2.676 6-6 6h-72c-3.324 0-6-2.676-6-6v-72c0-3.324 2.676-6 6-6z"/></clipPath><linearGradient id="c" gradientTransform="matrix(1.0238095 0 0 1.0119048 -1.142857 -98.071429)" gradientUnits="userSpaceOnUse" x1="32.251034" x2="32.251034" xlink:href="#d" y1="6.131708" y2="90.238609"/><linearGradient id="d" gradientTransform="matrix(1.0058652 0 0 .994169 100 0)" gradientUnits="userSpaceOnUse" x1="45.447727" x2="45.447727" y1="92.539597" y2="7.01654"><stop offset="0"/><stop offset="1" stop-opacity=".588235"/></linearGradient><linearGradient id="e" gradientUnits="userSpaceOnUse" x1="48" x2="48" y1="90" y2="5.987717"><stop offset="0" stop-color="#c8c8c8"/><stop offset="1" stop-color="#e6e6e6"/></linearGradient><linearGradient id="f" gradientUnits="userSpaceOnUse" x1="36.357143" x2="36.357143" xlink:href="#g" y1="6" y2="63.893143"/><linearGradient id="g"><stop offset="0" stop-color="#fff"/><stop offset="1" stop-color="#fff" stop-opacity="0"/></linearGradient><radialGradient id="h" cx="48" cy="90.171875" gradientTransform="matrix(1.1573129 0 0 .99590774 -7.551021 .197132)" gradientUnits="userSpaceOnUse" r="42" xlink:href="#g"/><linearGradient id="i" gradientTransform="translate(0 -97)" gradientUnits="userSpaceOnUse" x1="32.251034" x2="32.251034" xlink:href="#d" y1="6.131708" y2="90.238609"/><filter id="j" color-interpolation-filters="sRGB"><feGaussianBlur stdDeviation=".15745957"/></filter><g clip-path="url(#b)"><g fill="url(#c)"><path d="m12-95.03125c-5.5110903 0-10.03125 4.52016-10.03125 10.03125v71c0 5.5110902 4.5201598 10.03125 10.03125 10.03125h72c5.51109 0 10.03125-4.5201597 10.03125-10.03125v-71c0-5.51109-4.52016-10.03125-10.03125-10.03125z" opacity=".08" transform="scale(1 -1)"/><path d="m12-94.03125c-4.971633 0-9.03125 4.059617-9.03125 9.03125v71c0 4.9716329 4.0596171 9.03125 9.03125 9.03125h72c4.971633 0 9.03125-4.059617 9.03125-9.03125v-71c0-4.971633-4.059617-9.03125-9.03125-9.03125z" opacity=".1" transform="scale(1 -1)"/><path d="m12-93c-4.4091333 0-8 3.590867-8 8v71c0 4.4091333 3.5908667 8 8 8h72c4.409133 0 8-3.5908667 8-8v-71c0-4.409133-3.590867-8-8-8z" opacity=".2" transform="scale(1 -1)"/><rect height="85" opacity=".3" rx="7" transform="scale(1 -1)" width="86" x="5" y="-92"/></g><rect fill="url(#i)" height="84" opacity=".45" rx="6" transform="scale(1 -1)" width="84" x="6" y="-91"/></g><rect fill="url(#e)" height="84" opacity=".75" rx="6" width="84" x="6" y="6"/><path d="m12 6c-3.324 0-6 2.676-6 6v2 68 2c0 .334721.04135.6507.09375.96875.0487.295596.09704.596915.1875.875.00988.03038.020892.0636.03125.09375.098865.287771.2348802.547452.375.8125.1445918.273507.3156161.535615.5.78125s.3737765.473472.59375.6875c.439947.428056.94291.814526 1.5 1.09375.278545.139612.5734731.246947.875.34375-.2562018-.100222-.4867109-.236272-.71875-.375-.00741-.0044-.023866.0045-.03125 0-.031933-.0193-.062293-.04251-.09375-.0625-.120395-.0767-.2310226-.163513-.34375-.25-.1061728-.0808-.2132809-.161112-.3125-.25-.1779299-.161433-.3474596-.345388-.5-.53125-.1075789-.130255-.2183939-.265285-.3125-.40625-.025089-.03838-.038446-.08587-.0625-.125-.064763-.103032-.1302275-.204517-.1875-.3125-.1010083-.194706-.2056748-.415701-.28125-.625-.00796-.02181-.023589-.04055-.03125-.0625-.0318251-.09195-.0358045-.186831-.0625-.28125-.030332-.106618-.070389-.203031-.09375-.3125-.072879-.341512-.125-.698205-.125-1.0625v-2-68-2c0-2.781848 2.2181517-5 5-5h2 68 2c2.781848 0 5 2.218152 5 5v2 68 2c0 .364295-.05212.720988-.125 1.0625-.04415.206893-.08838.397658-.15625.59375-.0077.02195-.0233.04069-.03125.0625-.06274.173739-.138383.367449-.21875.53125-.04158.0828-.07904.169954-.125.25-.0546.09721-.126774.18835-.1875.28125-.09411.140965-.204921.275995-.3125.40625-.143174.17445-.303141.346998-.46875.5-.01117.0102-.01998.02115-.03125.03125-.138386.125556-.285091.234436-.4375.34375-.102571.07315-.204318.153364-.3125.21875-.0074.0045-.02384-.0044-.03125 0-.232039.138728-.462548.274778-.71875.375.301527-.0968.596455-.204138.875-.34375.55709-.279224 1.060053-.665694 1.5-1.09375.219973-.214028.409366-.441865.59375-.6875s.355408-.507743.5-.78125c.14012-.265048.276135-.524729.375-.8125.01041-.03078.02133-.06274.03125-.09375.09046-.278085.1388-.579404.1875-.875.0524-.31805.09375-.634029.09375-.96875v-2-68-2c0-3.324-2.676-6-6-6z" fill="url(#f)" opacity=".5"/><path d="m12 90c-3.324 0-6-2.676-6-6v-2-68-2c0-.334721.04135-.6507.09375-.96875.0487-.295596.09704-.596915.1875-.875.00988-.03038.020892-.0636.03125-.09375.098865-.287771.2348802-.547452.375-.8125.1445918-.273507.3156161-.535615.5-.78125s.3737765-.473472.59375-.6875c.439947-.428056.94291-.814526 1.5-1.09375.278545-.139612.5734731-.246947.875-.34375-.2562018.100222-.4867109.236272-.71875.375-.00741.0044-.023866-.0045-.03125 0-.031933.0193-.062293.04251-.09375.0625-.120395.0767-.2310226.163513-.34375.25-.1061728.0808-.2132809.161112-.3125.25-.1779299.161433-.3474596.345388-.5.53125-.1075789.130255-.2183939.265285-.3125.40625-.025089.03838-.038446.08587-.0625.125-.064763.103032-.1302275.204517-.1875.3125-.1010083.194706-.2056748.415701-.28125.625-.00796.02181-.023589.04055-.03125.0625-.0318251.09195-.0358045.186831-.0625.28125-.030332.106618-.070389.203031-.09375.3125-.072879.341512-.125.698205-.125 1.0625v2 68 2c0 2.781848 2.2181517 5 5 5h2 68 2c2.781848 0 5-2.218152 5-5v-2-68-2c0-.364295-.05212-.720988-.125-1.0625-.04415-.206893-.08838-.397658-.15625-.59375-.0077-.02195-.0233-.04069-.03125-.0625-.06274-.173739-.138383-.367449-.21875-.53125-.04158-.0828-.07904-.169954-.125-.25-.0546-.09721-.126774-.18835-.1875-.28125-.09411-.140965-.204921-.275995-.3125-.40625-.143174-.17445-.303141-.346998-.46875-.5-.01117-.0102-.01998-.02115-.03125-.03125-.138386-.125556-.285091-.234436-.4375-.34375-.102571-.07315-.204318-.153364-.3125-.21875-.0074-.0045-.02384.0044-.03125 0-.232039-.138728-.462548-.274778-.71875-.375.301527.0968.596455.204138.875.34375.55709.279224 1.060053.665694 1.5 1.09375.219973.214028.409366.441865.59375.6875s.355408.507743.5.78125c.14012.265048.276135.524729.375.8125.01041.03078.02133.06274.03125.09375.09046.278085.1388.579404.1875.875.0524.31805.09375.634029.09375.96875v2 68 2c0 3.324-2.676 6-6 6z" fill="url(#h)" opacity=".2"/><g transform="translate(0 74)"><path d="m15 15-3.557537-1.206396-3.010621 2.24669.048011-3.756215-3.0670619-2.169006 3.5872089-1.115073 1.115073-3.5872089 2.169006 3.0670619 3.756215-.048011-2.24669 3.0106211z" fill="none" filter="url(#j)" opacity=".2" stroke="#fff" stroke-width=".682309" transform="matrix(5.7899147 .91933388 -.91933388 5.7899147 -5.580363 -96.638728)"/><path d="m15 15-3.557537-1.206396-3.010621 2.24669.048011-3.756215-3.0670619-2.169006 3.5872089-1.115073 1.115073-3.5872089 2.169006 3.0670619 3.756215-.048011-2.24669 3.0106211z" fill="url(#a)" transform="matrix(5.7899147 .91933388 -.91933388 5.7899147 -5.580363 -96.638728)"/><path d="m147.875-62-11.125 22.375-24.625 3.625 3.625 3.5 21-3.125 11.125-22.375 11 22.375 21.125 3.125 3.625-3.5-24.75-3.625zm-18.5 46.75-3.625 21.25.75-.375 3.5-20.25zm36.875 0-.625.625 3.5 20.25.75.375z" fill="#d45500" opacity=".5"/><path d="m-100-74h96v96h-96z" fill="#f0f" opacity=".3"/><g transform="translate(0 -74)"><g fill="#d45500"><path d="m48 18-9.75 19.75-21.78125 3.15625 15.75 15.375-3.71875 21.71875 19.5-10.25 19.46875 10.25-3.71875-21.71875 15.78125-15.34375-21.78125-3.1875zm-.03125 4.03125 8.15625 16.5a1.7702708 1.7702708 0 0 0 1.34375.96875l18.09375 2.6875-13.125 12.75a1.7702708 1.7702708 0 0 0 -.28125.5 1.7702708 1.7702708 0 0 0 -.1875 1.09375l3.21875 18.3125-16.40625-8.71875a1.7702708 1.7702708 0 0 0 -1.65625-.0625l-16.21875 8.53125 3.0625-18.0625a1.7702708 1.7702708 0 0 0 -.5-1.5625l-13.15625-12.84375 18.21875-2.65625a1.7702708 1.7702708 0 0 0 1.03125-.59375 1.7702708 1.7702708 0 0 0 .25-.34375z" opacity=".1"/><path d="m48 18-9.75 19.75-21.78125 3.15625 15.75 15.375-3.71875 21.71875 19.5-10.25 19.46875 10.25-3.71875-21.71875 15.78125-15.34375-21.78125-3.1875zm-.03125 1.8125 8.96875 18.3125a.81395512.81395512 0 0 0 .1875.03125.81395512.81395512 0 0 0 .125.1875.81395512.81395512 0 0 0 .1875.03125.81395512.81395512 0 0 0 .1875.03125l20.125 3-14.6875 14.1875a.81395512.81395512 0 0 0 -.03125.1875.81395512.81395512 0 0 0 -.03125.1875.81395512.81395512 0 0 0 -.03125.15625.81395512.81395512 0 0 0 -.03125.1875l3.46875 20.21875-18.125-9.5625a.81395512.81395512 0 0 0 -.1875-.03125.81395512.81395512 0 0 0 -.1875-.03125.81395512.81395512 0 0 0 -.1875-.03125.81395512.81395512 0 0 0 -.1875-.03125l-18 9.59375 3.34375-20.0625a.81395512.81395512 0 0 0 .03125-.1875.81395512.81395512 0 0 0 .03125-.1875.81395512.81395512 0 0 0 -.15625-.1875.81395512.81395512 0 0 0 .03125-.1875l-14.625-14.1875 20.125-2.9375a.81395512.81395512 0 0 0 .1875.03125.81395512.81395512 0 0 0 .21875-.15625.81395512.81395512 0 0 0 .1875-.15625.81395512.81395512 0 0 0 .03125-.1875z" opacity=".2"/><path d="m48 18-9.75 19.75-21.78125 3.15625.90625.875 20.875-3.03125 9.75-19.75 9.75 19.75 20.875 3.0625.90625-.875-21.78125-3.1875zm-15.9375 39.125-3.5625 20.875.1875-.09375 3.53125-20.625zm31.84375 0-.15625.15625 3.53125 20.625.1875.09375z" opacity=".5"/></g><path d="m17.375 41.78125-.90625.125 15.59375 15.21875.15625-.84375zm61.25.03125-14.875 14.46875.15625.84375 15.625-15.1875zm-30.625 25.9375-19.3125 10.15625-.1875 1.09375 19.5-10.25 19.46875 10.25-.1875-1.09375z" fill="#fff" opacity=".5"/></g></g></svg>