<svg height="16" width="16" xmlns="http://www.w3.org/2000/svg"><path d="m8 1.1875-7.75 6.59375 1.5 1.28125 1.25-1.0625 5-4 5 4 1.25 1.0625 1.5-1.28125zm3 .84375v.65625l2 1.6875v-2.34375zm-3 .1347656 6.601562 5.6171875-.353515.3007813-.765625-.6523438a.74510962.74510962 0 0 0 -.017578-.0136718l-5.0000002-4a.74510962.74510962 0 0 0 -.9296876 0l-5 4a.74510962.74510962 0 0 0 -.0175781.0136718l-.765625.6523438-.3535156-.3007813zm0 2.8339844-5 4v5.8125h3.5v-3.8125h3v3.8125h3.5v-5.8125zm0 1.1875 4.072266 3.2578125v4.4394535h-1.644532v-2.884766a.92694801.92694801 0 0 0 -.927734-.927734h-3a.92694801.92694801 0 0 0 -.9277344.927734v2.884766h-1.6445312v-4.4394535z" fill="#bebebe"/></svg>