<svg height="16" width="16" xmlns="http://www.w3.org/2000/svg"><g fill="#bebebe"><path d="m1.9863281.35351562c-.2276812.00000001-.4101562.18573814-.4101562.41601563v14.46093775c0 .230277.182475.416015.4101562.416015h12.0273439c.227681 0 .410156-.185738.410156-.416015v-14.46093775c0-.23027749-.182475-.41601563-.410156-.41601563zm2.3183594.64648438h8.8437505c.303512 0 .546874.3464475.546874.7773438v12.4433592c0 .430896-.243363.779297-.546874.779297h-8.8437505z"/><path d="m18.62795 1024.9491h4.275824v1.0689h1.068955v2.6724h-1.068955v1.069h-1.068956v1.6034h-2.137912v-1.6034h1.068956v-1.069h1.068956v-1.6034h-2.137912v1.0689h-2.137911v-2.1379h1.068955zm1.068956 6.9482h2.137912v1.6034h-2.137912z" transform="matrix(1.142703 0 0 1.142703 -14.65278 -1167.4462)"/></g></svg>