<svg height="16" width="16" xmlns="http://www.w3.org/2000/svg"><g fill="#bebebe"><path d="m1.4101562 0c-.2276812 0-.4101562.18573814-.4101562.41601563v8.58398437 6.583985c0 .230277.1825472.42175.4101562.416015h3.5898438 8.589844c.227681 0 .410156-.185738.410156-.416015v-14.93750062-.23046875c0-.23027749-.1825-.41936863-.410156-.41601563h-5.589844zm2.5898438 1h8.453126c.303512 0 .546763.3464475.546874.7773438v1.2226562 11.220703c0 .430896-.243363.779297-.546874.779297h-8.453126z"/><path d="m18.07362 1025.1537h4.37559v.8751h.875118v2.6254h-.875118v.8751h-.875118v1.7502h-1.750236v-1.7502h.875118v-.8751h.875118v-1.7503h-2.625354v.8751h-1.750236v-1.7502h.875118zm1.750236 7.0009h1.750236v1.7503h-1.750236z" transform="matrix(1.142703 0 0 1.142703 -14.65278 -1167.4462)"/></g></svg>