<svg height="16" width="16" xmlns="http://www.w3.org/2000/svg"><path d="m7.8915908 1.4361562a.42595264.42282914 0 0 0 -.3878854.2375406l-1.9406209 3.9380586-4.3694277.647654a.42595264.42282914 0 0 0 -.23366756.7226042l3.17344876 3.0497094-.731276 4.328336a.42595264.42282914 0 0 0 .6203349.441928l3.9027968-2.054784 3.9191493 2.027263a.42595264.42282914 0 0 0 .615341-.447601l-.761272-4.320052 3.153233-3.0746749a.42595264.42282914 0 0 0 -.237231-.7192327l-4.377139-.6158293-1.9688267-3.9285118a.42595264.42282914 0 0 0 -.3769575-.2324081z" fill="#bebebe"/></svg>