<svg enable-background="new" height="16" width="16" xmlns="http://www.w3.org/2000/svg" xmlns:xlink="http://www.w3.org/1999/xlink"><filter id="a" color-interpolation-filters="sRGB"><feBlend in2="BackgroundImage" mode="darken"/></filter><g transform="translate(-323.00021 -137)"><g filter="url(#a)"/><path d="m336.65646 137.9375-12.71875 12.71875 1.40625 1.40625 12.71875-12.71875z" fill="#ddd"/><path d="m331.0002 141.15625c-2.89932 0-5.43923 1.53856-6.84375 3.84375.49639.81471 1.16059 1.50463 1.90625 2.09375l1.875-1.875c-.005-.0733-.0312-.14413-.0312-.21875 0-1.69827 1.39339-3.0625 3.09375-3.0625.0642 0 .12429.0274.1875.0312l.75-.75c-.31012-.0364-.61757-.0625-.9375-.0625zm4.9375 1.75-1.875 1.875c.005.0733.0312.14414.0312.21875 0 1.69828-1.39339 3.0625-3.09375 3.0625-.0642 0-.12429-.0274-.1875-.0312l-.75.75c.31011.0364.61757.0625.9375.0625 2.89932 0 5.43923-1.53855 6.84375-3.84375-.49639-.81471-1.16059-1.50463-1.90625-2.09375z" fill="#e13f2b"/></g></svg>