<svg height="16" width="16" xmlns="http://www.w3.org/2000/svg" xmlns:xlink="http://www.w3.org/1999/xlink"><g transform="translate(-31.97559 -220.36218)"><rect fill="#bebebe" fill-rule="evenodd" height="7" opacity=".27" rx=".160524" ry=".193261" transform="matrix(0 1 1 0 0 0)" width="7.000002" x="222.36218" y="33.97559"/><rect id="a" fill="#bebebe" height="1.999997" rx=".020711" ry=".025015" transform="scale(1 -1)" width="2" x="31.97559" y="-222.36218"/><path d="m44.783849 233.19329-4.162764-.37843.000001-.75211 1.875505-.39985-7.487481-7.42059.756865-.75686 7.487482 7.42058.380813-1.85646.771147-.019z" fill="#bebebe" fill-rule="evenodd"/><use fill="#bebebe" height="128" transform="translate(14)" width="128" xlink:href="#a"/><use height="128" transform="translate(0 13.999997)" width="128" xlink:href="#a"/><use height="128" transform="translate(14 13.999997)" width="128" xlink:href="#a"/><g fill="#bebebe" stroke-width=".124999"><rect height=".999996" rx=".009644" ry=".168906" width=".999993" x="34.975613" y="221.36218"/><rect height=".999996" rx=".009644" ry=".168906" width=".999992" x="36.975605" y="221.36218"/><rect height=".999996" rx=".009644" ry=".168906" width=".999993" x="38.975624" y="221.36218"/><rect height=".999996" rx=".009644" ry=".168906" width=".999992" x="40.975613" y="221.36218"/><rect height=".999996" rx=".009644" ry=".168906" width=".999992" x="42.975613" y="221.36218"/><rect height=".999996" rx=".009644" ry=".168906" width=".999992" x="44.975613" y="221.36218"/><g transform="matrix(0 1 -1 0 268.337769 188.386571)"><rect height=".999996" rx=".009644" ry=".168906" width=".999993" x="34.975613" y="221.36218"/><rect height=".999996" rx=".009644" ry=".168906" width=".999992" x="36.975605" y="221.36218"/><rect height=".999996" rx=".009644" ry=".168906" width=".999993" x="38.975624" y="221.36218"/><rect height=".999996" rx=".009644" ry=".168906" width=".999992" x="40.975613" y="221.36218"/><rect height=".999996" rx=".009644" ry=".168906" width=".999992" x="42.975613" y="221.36218"/><rect height=".999996" rx=".009644" ry=".168906" width=".999992" x="44.975613" y="221.36218"/></g><rect height=".999996" rx=".009644" ry=".168906" width=".999993" x="33.975606" y="234.362177"/><rect height=".999996" rx=".009644" ry=".168906" width=".999992" x="35.975598" y="234.362177"/><rect height=".999996" rx=".009644" ry=".168906" width=".999993" x="37.975617" y="234.362177"/><rect height=".999996" rx=".009644" ry=".168906" width=".999992" x="39.975606" y="234.362177"/><rect height=".999996" rx=".009644" ry=".168906" width=".999992" x="41.975606" y="234.362177"/><rect height=".999996" rx=".009644" ry=".168906" width=".999992" x="43.975606" y="234.362177"/><g transform="matrix(0 1 -1 0 255.337769 188.386571)"><rect height=".999996" rx=".009644" ry=".168906" width=".999993" x="34.975613" y="221.36218"/><rect height=".999996" rx=".009644" ry=".168906" width=".999992" x="36.975605" y="221.36218"/><rect height=".999996" rx=".009644" ry=".168906" width=".999993" x="38.975624" y="221.36218"/><rect height=".999996" rx=".009644" ry=".168906" width=".999992" x="40.975613" y="221.36218"/><rect height=".999996" rx=".009644" ry=".168906" width=".999992" x="42.975613" y="221.36218"/><rect height=".999996" rx=".009644" ry=".168906" width=".999992" x="44.975613" y="221.36218"/></g></g></g></svg>