<svg height="16" width="16" xmlns="http://www.w3.org/2000/svg"><g fill="#bebebe" transform="translate(-31.97559 -220.36218)"><path d="m36 222.36526v11.99131h-1v-11.99131" opacity=".83"/><path d="m37 222.36526v11.99131h-1v-11.99131" opacity=".74"/><path d="m37 222.36526h1v11.99131h-1" opacity=".65"/><path d="m38 222.36526h1v11.99131h-1" opacity=".57"/><path d="m39 222.36526h1v11.99131h-1" opacity=".49"/><path d="m40 222.36526h1v11.99131h-1" opacity=".4"/><path d="m41 222.36526h1v11.99131h-1" opacity=".32"/><path d="m42 222.36526h1v11.99131h-1" opacity=".24"/><path d="m43 222.36526h1v11.99131h-1" opacity=".16"/><path d="m44 222.36526h1v11.99131h-1.000004" opacity=".07"/><path d="m35.003906 222.3622v11.99437h-1v-11.99437" opacity=".94"/><path d="m32.003906 220.36523v.5 15.4961h15.996094v-15.9961zm1 1h13.996094v13.9961h-13.996094z" opacity=".7"/></g></svg>