<svg height="16" width="16" xmlns="http://www.w3.org/2000/svg"><g fill="#bebebe" transform="translate(-31.97559 -220.36218)"><path d="m38.797737 221.65712c-.124055-.0144-.25194.0462-.319955.16398l-2.425659 4.20141a1.1285097 1.1285097 0 0 1 .026.046l.603915 1.14584 2.209689-3.82346c.0238-.0412.06039-.0681.101986-.08.04159-.0119.08805-.007.127982.016l3.599494 2.0797.28596-.17597a1.2553989 1.2553989 0 0 1 .77589-.17998c-.04831-.25343-.117858-.46782-.197972-.6579l-4.665344-2.69563c-.03828-.0221-.08063-.0352-.121983-.04zm5.035292 9.17671-2.425659 4.20141c-.04761.0825-.150096.11012-.229967.064l-5.031293-2.90559c.07279.19759.160706.36476.259964.50593.390218.55497 1.066412.89739 1.927729 1.15583a1.1285097 1.1285097 0 0 1 .703901.61392l2.489649 1.4378c.153126.0884.349252.0331.439939-.12399l2.565639-4.44337a1.2553989 1.2553989 0 0 1 -.699902-.50593z"/><g fill-rule="evenodd"><path d="m38.99371 223.31089c-.04159.0119-.07818.0387-.101986.08l-2.209689 3.82346 1.217829 2.30767a1.1285097 1.1285097 0 0 1 -.407943 1.4878l-.615914.37794a1.1285097 1.1285097 0 0 1 -.889874.12398c.03149.26441.08847.4878.159977.68191l5.031293 2.90559c.07987.0461.182357.0185.229967-.064l2.425659-4.20141a1.2553989 1.2553989 0 0 1 -.07199-.11598l-1.821744-3.45552a1.2553989 1.2553989 0 0 1 .453936-1.65577l.327954-.19997-3.599494-2.0797c-.03994-.0231-.08639-.0279-.127981-.016z" opacity=".25"/><path d="m35.080429 226.59309-3.069762 2.41483.382715.58943 1.67329-.64101c-.973817 4.57988 1.273234 6.4016 3.760801 6.99265l.18379-1.01559c-1.922852-.57697-3.825161-1.72982-2.966301-5.76904l1.243118 1.26111.614032-.37748z"/><path d="m44.872288 230.13128 3.069762-2.41484-.382716-.58942-1.67329.641c.973819-4.57988-1.273233-6.4016-3.760801-6.99265l-.18379 1.0156c1.922852.57696 3.825162 1.72981 2.966302 5.76904l-1.243118-1.26112-.614032.37749z"/></g></g></svg>