<svg enable-background="new" height="16.031467" width="16" xmlns="http://www.w3.org/2000/svg" xmlns:xlink="http://www.w3.org/1999/xlink"><filter id="a" color-interpolation-filters="sRGB"><feBlend in2="BackgroundImage" mode="darken"/></filter><g transform="translate(-281.0004 -176.98676)"><g filter="url(#a)"/><g fill="#bebebe"><path d="m286.0002 189 3.02356 4.01823 2.97644-4.01823z"/><path d="m294.23718 177.03366a.91822853 1.2101492 57.210683 0 0 -.70664.35729l-3.79264 3.39154a.93325476 1.2299525 57.210682 1 0 1.41265 1.26325l3.79265-3.39154a.91822853 1.2101492 57.210683 0 0 -.70602-1.62054zm-4.49416 1.49237c-2.4819.27805-4.74594 2.30264-5.05687 4.52204-.0502.35822-.0216.69688.0304 1.01638l6.16305-5.51124c-.35728-.0465-.736-.0721-1.13657-.0272zm3.90047 2.49877-6.16306 5.51123c.3573.0465.73601.0721 1.13658.0272 2.48189-.27805 4.74593-2.30264 5.05687-4.52205.0502-.35821.0216-.69687-.0304-1.01636zm-5.72738 1.66142a.91822853 1.2101492 57.210683 0 0 -.70664.35728l-3.79265 3.39153a.93325476 1.2299525 57.210682 1 0 1.41265 1.26325l3.79265-3.39153a.91822853 1.2101492 57.210683 0 0 -.70601-1.62053z"/></g></g></svg>