<svg height="16" width="16" xmlns="http://www.w3.org/2000/svg"><g fill="#bebebe"><path d="m.752155 10.6513c-.979342.979343-.979342 2.556191 0 3.535533l1.060661 1.06066c.979343.979343 2.556191.979343 3.535534 0l2.65165-2.65165c.7931-.7931.932011-1.973294.440561-2.9154342l-.763731.7637302c.132792.499282.0091 1.051536-.383937 1.444598l-2.65165 2.65165c-.587606.587605-1.533715.587605-2.121321 0l-1.06066-1.06066c-.587605-.587606-.587605-1.533715 0-2.12132l2.651651-2.651651c.393061-.3930616.945316-.5167293 1.444597-.3839371l.76373-.7637305c-.94214-.49145-2.122334-.3525394-2.915434.4405608zm7.247845-7.2478448c-.7931.7931001-.932011 1.9732943-.440561 2.9154344l.763731-.7637305c-.132792-.4992813-.0091-1.0515356.383937-1.4445972l2.65165-2.6516504c.587606-.58760569 1.533715-.58760569 2.121321 0l1.06066 1.0606602c.587605.5876057.587605 1.5337146 0 2.1213203l-2.651651 2.6516504c-.393061.3930616-.945316.5167292-1.444597.3839371l-.76373.7637305c.94214.4914499 2.122334.3525394 2.915434-.4405608l2.651651-2.6516504c.979342-.9793429.979342-2.556191 0-3.5355339l-1.060661-1.06066009c-.979343-.9793429-2.556191-.9793429-3.535534 0zm-2.828427 6.7175148c-.195869.195868-.195869.511238 0 .707106.195868.195869.511238.195869.707107 0l4.949747-4.9497471c.195869-.1958686.195869-.5112382 0-.7071068-.195868-.1958686-.511238-.1958686-.707107 0z" stroke-linecap="round" stroke-linejoin="bevel"/><path d="m10 11.981773 3.02356 4.01823 2.97644-4.01823z"/></g></svg>