<svg enable-background="new" height="16.031467" width="16" xmlns="http://www.w3.org/2000/svg" xmlns:xlink="http://www.w3.org/1999/xlink"><filter id="a" color-interpolation-filters="sRGB"><feBlend in2="BackgroundImage" mode="darken"/></filter><filter id="b" color-interpolation-filters="sRGB"><feBlend in2="BackgroundImage" mode="darken"/></filter><g transform="translate(-281.0004 -176.98676)"><g filter="url(#a)"/><g fill="#bebebe"><g filter="url(#b)" transform="translate(-39.9998 .00252)"/><path d="m286.0004 189.00252 3.00025 3.99995 2.99975-3.99995z"/><path d="m285.0004 177.98676v2.52148h.26172c.10536-.68713.35731-1.21682.75586-1.58789.28402-.2657.68099-.43359 1.30859-.43359h.67383v7.1875c0 .46726-.02577 1.43693-.07617 1.54688-.0687.15574-.16214.26597-.28125.33007-.16491.0962-.32544.18164-.5957.18164h-.3086v.25391h2.26172 2.26172v-.25391h-.30859c-.27027 0-.4308-.08544-.59571-.18164-.11911-.0641-.21255-.17433-.28125-.33007-.0504-.10995-.07617-.39798-.07617-.86524v-7.86914h.67383c.6276 0 1.02457.16789 1.30859.43359.39855.37107.6505.90076.75586 1.58789h.26172v-2.52148h-4z"/></g></g></svg>