<svg height="16" width="16" xmlns="http://www.w3.org/2000/svg"><g fill="#bebebe"><path d="m6.65625 7.8125-5.65625 4.1875v1h7.0332031a4.5 4.5 0 0 1 -.0332031-.5 4.5 4.5 0 0 1 .03125-.498047h-5.0273438l3.6679688-2.9921874.7558594.4863282c.1614141.1035722.3492299.1584931.5410156.1582031h.0625c.1917857.00029.3796015-.05463.5410156-.1582031l.7558594-.4863282.1738281.1425782a4.5 4.5 0 0 1 .8437499-.5976563l-1.001953-.7421875-1.34375.6875z"/><path d="m1 3v2l7 4.5625 7-4.5625v-2zm1 1h12l-6 4.3710938z"/><path d="m1 4v8h1v-8zm13 0v4.2636719a4.5 4.5 0 0 1 1 .4960937v-4.7597656z"/><path d="m12.5 9.0000002c-1.932999 0-3.4999997 1.5669998-3.4999997 3.4999998s1.5670007 3.500001 3.4999997 3.500001c1.933001 0 3.5-1.567001 3.5-3.500001s-1.566999-3.4999998-3.5-3.4999998zm-.5.9999998h1v2h2v1h-2v2.000001h-1v-2.000001h-2v-1h2z" fill-rule="evenodd" stroke-width=".82578"/></g></svg>