<svg height="16" width="16" xmlns="http://www.w3.org/2000/svg"><path d="m11.557012 8.3052296c-.219488.011955-.416764.1331568-.526356.3235402l-3.5710153 6.1641652c-.1160245.200869-.1161791.446298 0 .647081.1161764.200781.3304554.323769.5625734.32354h7.1420299c.232119.000309.446399-.122759.562574-.32354.116175-.200783.115981-.446212 0-.647081l-3.571015-6.1641652c-.122249-.2123861-.353947-.3369951-.598791-.3235402zm-.564988 1.5621685h1.202411v3.5347969h-1.202411zm.601205 4.0780549c.167635.000001.310745.03855.427363.115895.116615.07734.173841.347573.173843.458751-.000002.106345-.05723.374162-.173843.456337-.116618.07734-.259728.115895-.427363.115895-.167636 0-.310747-.03855-.427363-.115895-.116616-.08217-.173843-.349992-.173842-.456337-.000001-.111178.05723-.381409.173842-.458751.116616-.07734.259727-.115894.427363-.115895z" fill="#ff7b1d" fill-rule="evenodd"/><g fill="#bebebe"><path d="m15.09375 4.4375-5.15625 3.46875.322266.2285156c.266702-.4336398.731954-.7219959 1.246093-.75.023863-.0013113.046554.0060782.070313.0058594l3.03125-2.0390625v.2109375 5.109375l-.351563-.255859.59961 1.037109.238281.171875v-6.0625z"/><path d="m6.65625 8.3125-.15625.09375-.125.09375-1.46875.96875-4 2.6875v.34375h6.8164062l.2734376-.472656h-6.0507813l3.2226563-2.1640628 1.4667968-.96875a.47347348.47347348 0 0 0 .0234375-.015625l.0039063-.0019531.9121094.5761719.1113281.0820312a.47347348.47347348 0 0 0 .2832031.09375h.0625a.47347348.47347348 0 0 0 .2832031-.09375l.1113281-.0820312.9121094-.5761719.0039063.0019531a.47347348.47347348 0 0 0 .0234375.015625l.3242187.2128907.2363281-.4082031-.3007812-.1992188-.125-.09375-.15625-.09375-1.1875.75-.125.09375h-.0625l-.125-.09375z"/><path d="m.90625 4.4375v1.125 6.0625l3.75-2.71875 1.40625-1zm.4414062.8300781 3.9394532 2.6484375-.8867188.6308594a.44198593.44198593 0 0 0 -.00391.00195l-3.0488244 2.210941v-5.197266z"/><path d="m.90625 3.5v.40625.0625l6.4375 4.15625.3125.1875.34375.21875.34375-.21875.3125-.1875 6.4375-4.15625v-.0625-.40625h-.46875-3.5-1.9375-2.375-2.15625-3.28125zm.9257812.4863281h2.8242188 2.15625 2.375 1.9375 3.042969l-5.7695315 3.7265625-.3046875.1835938a.48618451.48618451 0 0 0 -.011719.00586l-.082031.0527337-.0820312-.0527343a.48618451.48618451 0 0 0 -.0117188-.0058594l-.3046875-.1835938z"/></g></svg>