<svg height="16" width="16.002" xmlns="http://www.w3.org/2000/svg"><g fill="#bebebe"><g transform="translate(1 1)"><path d="m6.65625 7.8125-5.65625 4.1875v1h14v-1l-5.65625-4.1875-1.34375.6875zm.015625 1.1972656.7558594.4863282c.1614141.1035722.3492299.1584932.5410156.1582032h.0625c.1917857.00029.3796015-.05463.5410156-.1582032l.7558594-.4863282 3.667969 2.9921874h-9.9921878z"/><path d="m1 3v2l7 4.5625 7-4.5625v-2zm1 1h12l-6 4.3710938z"/><path d="m1 4v8h1v-8zm13 0v8h1v-8z" fill="#bebebe"/></g><path d="m0 2.052v1h1v-1zm2 0v1h1v-1zm2 0v1h1v-1zm2 0v1h1v-1zm2 0v1h1v-1zm2 0v1h1v-1zm2 0v1h1v-1zm-12 2v1h1v-1zm0 2v1h1v-1zm0 2v1h1v-1zm0 2v.5c0 .177.036.343.092.5h.908v-1z"/></g></svg>