<svg enable-background="new" height="16.000019" width="16" xmlns="http://www.w3.org/2000/svg" xmlns:xlink="http://www.w3.org/1999/xlink"><filter id="a" color-interpolation-filters="sRGB"><feBlend in2="BackgroundImage" mode="darken"/></filter><g transform="translate(-381.00034 -57)"><g filter="url(#a)"/><g fill="#ddd"><path d="m389.0002 57c-2.76142 0-5 2.23858-5 5s2.23858 5 5 5 5-2.23858 5-5-2.23858-5-5-5zm0 3c1.10457 0 2 .89543 2 2s-.89543 2-2 2-2-.89543-2-2 .89543-2 2-2z"/><path d="m384.0002 62c0 4 4 7 5 10 1-3 5-6 5-10h-3c0 1.10457-.89543 2-2 2s-2-.89543-2-2z"/></g></g></svg>