<svg height="16" width="16" xmlns="http://www.w3.org/2000/svg"><g fill="#bebebe"><path d="m8 .09375c-4.3621134 0-7.90625 3.5441366-7.90625 7.90625 0 4.362113 3.5441366 7.90625 7.90625 7.90625 4.362113 0 7.90625-3.544137 7.90625-7.90625 0-4.3621134-3.544137-7.90625-7.90625-7.90625zm0 1.6269531c3.464383 0 6.279297 2.8149133 6.279297 6.2792969 0 3.464383-2.814914 6.279297-6.279297 6.279297-3.4643836 0-6.2792969-2.814914-6.2792969-6.279297 0-3.4643836 2.8149133-6.2792969 6.2792969-6.2792969z"/><path d="m13.159957 7.9318523-7.2031573 4.8436467.0432003-9.775499z" stroke-width=".605314"/></g></svg>