<svg height="16" width="16" xmlns="http://www.w3.org/2000/svg"><path d="m10.5 10h5c.277 0 .5-.2229999.5-.4999999v-1c0-.277-.223-.5-.5-.5h-5c-.277 0-.5.223-.5.5v1c0 .277.223.4999999.5.4999999zm-5-3.9999999h5c.277 0 .5-.223.5-.5v-1c0-.277-.223-.5-.5-.5h-5c-.277 0-.5.223-.5.5v1c0 .277.223.5.5.5zm-5 5.9999999h5c.277 0 .5-.223.5-.5v-1c0-.277-.223-.5-.5-.5h-5c-.277 0-.5.223-.5.5v1c0 .277.223.5.5.5zm8.5 2v-11.9999999c0-.554-.446-1-1-1s-1 .446-1 1v11.9999999c0 .554.446 1 1 1s1-.446 1-1zm5 0v-11.9999999c0-.554-.446-1-1-1s-1 .446-1 1v11.9999999c0 .554.446 1 1 1s1-.446 1-1zm-10 0v-11.9999999c0-.554-.446-1-1-1s-1 .446-1 1v11.9999999c0 .554.446 1 1 1s1-.446 1-1z" fill="#bebebe"/></svg>