<?xml version="1.0" encoding="UTF-8" standalone="no"?>
<svg
   xmlns:dc="http://purl.org/dc/elements/1.1/"
   xmlns:cc="http://creativecommons.org/ns#"
   xmlns:rdf="http://www.w3.org/1999/02/22-rdf-syntax-ns#"
   xmlns:svg="http://www.w3.org/2000/svg"
   xmlns="http://www.w3.org/2000/svg"
   xmlns:sodipodi="http://sodipodi.sourceforge.net/DTD/sodipodi-0.dtd"
   xmlns:inkscape="http://www.inkscape.org/namespaces/inkscape"
   height="16"
   width="16"
   version="1.1"
   id="svg10"
   sodipodi:docname="media-seek-forward-symbolic.svg"
   inkscape:version="0.92.4 (unknown)">
  <metadata
     id="metadata16">
    <rdf:RDF>
      <cc:Work
         rdf:about="">
        <dc:format>image/svg+xml</dc:format>
        <dc:type
           rdf:resource="http://purl.org/dc/dcmitype/StillImage" />
        <dc:title></dc:title>
      </cc:Work>
    </rdf:RDF>
  </metadata>
  <defs
     id="defs14" />
  <sodipodi:namedview
     pagecolor="#ffffff"
     bordercolor="#666666"
     borderopacity="1"
     objecttolerance="10"
     gridtolerance="10"
     guidetolerance="10"
     inkscape:pageopacity="0"
     inkscape:pageshadow="2"
     inkscape:window-width="1366"
     inkscape:window-height="706"
     id="namedview12"
     showgrid="true"
     showguides="false"
     inkscape:zoom="29.5"
     inkscape:cx="5.9630787"
     inkscape:cy="7.8709492"
     inkscape:window-x="0"
     inkscape:window-y="0"
     inkscape:window-maximized="1"
     inkscape:current-layer="g8">
    <inkscape:grid
       type="xygrid"
       id="grid823" />
  </sodipodi:namedview>
  <g
     fill="#bebebe"
     id="g8">
    <g
       id="g827"
       transform="matrix(-1,0,0,1,16,0)">
      <path
         style="stroke-width:0.63173854"
         inkscape:connector-curvature="0"
         id="path2"
         d="M 2.8641995,8.0054376 7,11.510875 V 4.5 Z" />
      <path
         style="stroke-width:0.79216188"
         inkscape:connector-curvature="0"
         id="path4"
         d="M 5.2223562,7.9455194 11,11.891039 V 4 Z" />
    </g>
    <path
       d="m8 .09375c-4.362113 0-7.90625 3.5441366-7.90625 7.90625 0 4.362113 3.544137 7.90625 7.90625 7.90625s7.90625-3.544137 7.90625-7.90625c0-4.3621134-3.544137-7.90625-7.90625-7.90625zm0 1.6269531c3.464383 0 6.279297 2.8149133 6.279297 6.2792969 0 3.464383-2.814914 6.279297-6.279297 6.279297-3.464384 0-6.279297-2.814914-6.279297-6.279297 0-3.4643836 2.814913-6.2792969 6.279297-6.2792969z"
       id="path6" />
  </g>
</svg>
