<?xml version="1.0" encoding="UTF-8" standalone="no"?>
<svg
   xmlns:dc="http://purl.org/dc/elements/1.1/"
   xmlns:cc="http://creativecommons.org/ns#"
   xmlns:rdf="http://www.w3.org/1999/02/22-rdf-syntax-ns#"
   xmlns:svg="http://www.w3.org/2000/svg"
   xmlns="http://www.w3.org/2000/svg"
   xmlns:sodipodi="http://sodipodi.sourceforge.net/DTD/sodipodi-0.dtd"
   xmlns:inkscape="http://www.inkscape.org/namespaces/inkscape"
   height="16"
   width="16"
   version="1.1"
   id="svg10"
   sodipodi:docname="media-seek-forward-symbolic-rtl.svg"
   inkscape:version="0.92.4 (unknown)">
  <metadata
     id="metadata16">
    <rdf:RDF>
      <cc:Work
         rdf:about="">
        <dc:format>image/svg+xml</dc:format>
        <dc:type
           rdf:resource="http://purl.org/dc/dcmitype/StillImage" />
        <dc:title></dc:title>
      </cc:Work>
    </rdf:RDF>
  </metadata>
  <defs
     id="defs14" />
  <sodipodi:namedview
     pagecolor="#ffffff"
     bordercolor="#666666"
     borderopacity="1"
     objecttolerance="10"
     gridtolerance="10"
     guidetolerance="10"
     inkscape:pageopacity="0"
     inkscape:pageshadow="2"
     inkscape:window-width="970"
     inkscape:window-height="480"
     id="namedview12"
     showgrid="false"
     inkscape:zoom="14.75"
     inkscape:cx="-0.54237288"
     inkscape:cy="8"
     inkscape:window-x="0"
     inkscape:window-y="28"
     inkscape:window-maximized="0"
     inkscape:current-layer="svg10" />
  <g
     fill="#bebebe"
     id="g8">
    <path
       d="m7.3220339 7.1186442-7.93220331 4.5796598v-9.1593195z"
       transform="matrix(-.52139366 0 0 .76543627 6.4821 2.551132)"
       id="path2" />
    <path
       d="m7.3220339 7.1186442-7.93220331 4.5796598v-9.1593195z"
       transform="matrix(-.72837818 0 0 .86153114 10.85723 1.867066)"
       id="path4" />
    <path
       d="m8 .09375c-4.362113 0-7.90625 3.5441366-7.90625 7.90625 0 4.362113 3.544137 7.90625 7.90625 7.90625s7.90625-3.544137 7.90625-7.90625c0-4.3621134-3.544137-7.90625-7.90625-7.90625zm0 1.6269531c3.464383 0 6.279297 2.8149133 6.279297 6.2792969 0 3.464383-2.814914 6.279297-6.279297 6.279297-3.464384 0-6.279297-2.814914-6.279297-6.279297 0-3.4643836 2.814913-6.2792969 6.279297-6.2792969z"
       id="path6" />
  </g>
</svg>
