<?xml version="1.0" encoding="UTF-8" standalone="no"?>
<svg
   xmlns:dc="http://purl.org/dc/elements/1.1/"
   xmlns:cc="http://creativecommons.org/ns#"
   xmlns:rdf="http://www.w3.org/1999/02/22-rdf-syntax-ns#"
   xmlns:svg="http://www.w3.org/2000/svg"
   xmlns="http://www.w3.org/2000/svg"
   xmlns:sodipodi="http://sodipodi.sourceforge.net/DTD/sodipodi-0.dtd"
   xmlns:inkscape="http://www.inkscape.org/namespaces/inkscape"
   height="16"
   width="16"
   version="1.1"
   id="svg8"
   sodipodi:docname="media-skip-forward-symbolic.svg"
   inkscape:version="0.92.4 (unknown)">
  <metadata
     id="metadata14">
    <rdf:RDF>
      <cc:Work
         rdf:about="">
        <dc:format>image/svg+xml</dc:format>
        <dc:type
           rdf:resource="http://purl.org/dc/dcmitype/StillImage" />
        <dc:title></dc:title>
      </cc:Work>
    </rdf:RDF>
  </metadata>
  <defs
     id="defs12" />
  <sodipodi:namedview
     pagecolor="#ffffff"
     bordercolor="#666666"
     borderopacity="1"
     objecttolerance="10"
     gridtolerance="10"
     guidetolerance="10"
     inkscape:pageopacity="0"
     inkscape:pageshadow="2"
     inkscape:window-width="1366"
     inkscape:window-height="706"
     id="namedview10"
     showgrid="true"
     inkscape:zoom="20.85965"
     inkscape:cx="3.6888156"
     inkscape:cy="9.1045614"
     inkscape:window-x="0"
     inkscape:window-y="0"
     inkscape:window-maximized="1"
     inkscape:current-layer="g6">
    <inkscape:grid
       type="xygrid"
       id="grid821" />
  </sodipodi:namedview>
  <g
     fill="#bebebe"
     id="g6">
    <path
       d="m 12,4 v 8 H 10 V 8.65625 L 5,12 V 4 l 5,3.34375 V 4 Z"
       id="path2"
       inkscape:connector-curvature="0" />
    <path
       d="m8 .09375c4.362113 0 7.90625 3.5441366 7.90625 7.90625 0 4.362113-3.544137 7.90625-7.90625 7.90625s-7.90625-3.544137-7.90625-7.90625c0-4.3621134 3.544137-7.90625 7.90625-7.90625zm0 1.6269531c-3.464383 0-6.279297 2.8149133-6.279297 6.2792969 0 3.464383 2.814914 6.279297 6.279297 6.279297 3.464384 0 6.279297-2.814914 6.279297-6.279297 0-3.4643836-2.814913-6.2792969-6.279297-6.2792969z"
       id="path4" />
  </g>
</svg>
