<svg height="16" width="16" xmlns="http://www.w3.org/2000/svg"><g fill="#bebebe" transform="matrix(-1 0 0 1 16 0)"><path d="m7.3220339 7.1186442-7.93220331 4.5796598v-9.1593195z" transform="matrix(-.52139366 0 0 .76543627 6.4821 2.551132)"/><path d="m7.3220339 7.1186442-7.93220331 4.5796598v-9.1593195z" transform="matrix(-.72837818 0 0 .86153114 10.85723 1.867066)"/><path d="m8 .09375c-4.362113 0-7.90625 3.5441366-7.90625 7.90625 0 4.362113 3.544137 7.90625 7.90625 7.90625s7.90625-3.544137 7.90625-7.90625c0-4.3621134-3.544137-7.90625-7.90625-7.90625zm0 1.6269531c3.464383 0 6.279297 2.8149133 6.279297 6.2792969 0 3.464383-2.814914 6.279297-6.279297 6.279297-3.464384 0-6.279297-2.814914-6.279297-6.279297 0-3.4643836 2.814913-6.2792969 6.279297-6.2792969z"/></g></svg>