<svg height="16" width="16" xmlns="http://www.w3.org/2000/svg"><path d="m8 3.5927733c-2.4321346 0-4.4072267 1.9750921-4.4072267 4.4072267 0 2.432135 1.9750921 4.407227 4.4072267 4.407227 2.432135 0 4.407227-1.975092 4.407227-4.407227 0-2.4321346-1.975092-4.4072267-4.407227-4.4072267z" fill="#d40000" stroke-width=".884541"/><path d="m8 .09375c-4.362113 0-7.90625 3.5441366-7.90625 7.90625 0 4.362113 3.544137 7.90625 7.90625 7.90625s7.90625-3.544137 7.90625-7.90625c0-4.3621134-3.544137-7.90625-7.90625-7.90625zm0 1.6269531c3.464383 0 6.279297 2.8149133 6.279297 6.2792969 0 3.464383-2.814914 6.279297-6.279297 6.279297-3.464384 0-6.279297-2.814914-6.279297-6.279297 0-3.4643836 2.814913-6.2792969 6.279297-6.2792969z" fill="#bebebe"/></svg>