<svg height="16" width="16" xmlns="http://www.w3.org/2000/svg"><g fill="#bebebe"><path d="m4 4v8h2v-3.34375l5 3.34375v-8l-5 3.34375v-3.34375z"/><path d="m8 .09375c4.362113 0 7.90625 3.5441366 7.90625 7.90625 0 4.362113-3.544137 7.90625-7.90625 7.90625s-7.90625-3.544137-7.90625-7.90625c0-4.3621134 3.544137-7.90625 7.90625-7.90625zm0 1.6269531c-3.464383 0-6.279297 2.8149133-6.279297 6.2792969 0 3.464383 2.814914 6.279297 6.279297 6.279297 3.464384 0 6.279297-2.814914 6.279297-6.279297 0-3.4643836-2.814913-6.2792969-6.279297-6.2792969z"/></g></svg>