<?xml version="1.0" encoding="UTF-8" standalone="no"?>
<svg
   xmlns:dc="http://purl.org/dc/elements/1.1/"
   xmlns:cc="http://creativecommons.org/ns#"
   xmlns:rdf="http://www.w3.org/1999/02/22-rdf-syntax-ns#"
   xmlns:svg="http://www.w3.org/2000/svg"
   xmlns="http://www.w3.org/2000/svg"
   xmlns:sodipodi="http://sodipodi.sourceforge.net/DTD/sodipodi-0.dtd"
   xmlns:inkscape="http://www.inkscape.org/namespaces/inkscape"
   height="16"
   width="16"
   version="1.1"
   id="svg8"
   sodipodi:docname="media-playback-start-symbolic-rtl.svg"
   inkscape:version="0.92.4 (unknown)">
  <metadata
     id="metadata14">
    <rdf:RDF>
      <cc:Work
         rdf:about="">
        <dc:format>image/svg+xml</dc:format>
        <dc:type
           rdf:resource="http://purl.org/dc/dcmitype/StillImage" />
        <dc:title></dc:title>
      </cc:Work>
    </rdf:RDF>
  </metadata>
  <defs
     id="defs12" />
  <sodipodi:namedview
     pagecolor="#ffffff"
     bordercolor="#666666"
     borderopacity="1"
     objecttolerance="10"
     gridtolerance="10"
     guidetolerance="10"
     inkscape:pageopacity="0"
     inkscape:pageshadow="2"
     inkscape:window-width="970"
     inkscape:window-height="480"
     id="namedview10"
     showgrid="false"
     inkscape:zoom="14.75"
     inkscape:cx="-0.54237288"
     inkscape:cy="8"
     inkscape:window-x="0"
     inkscape:window-y="28"
     inkscape:window-maximized="0"
     inkscape:current-layer="svg8" />
  <g
     fill="#bebebe"
     transform="matrix(-1 0 0 1 16 0)"
     id="g6">
    <path
       d="m8 .09375c-4.3621134 0-7.90625 3.5441366-7.90625 7.90625 0 4.362113 3.5441366 7.90625 7.90625 7.90625 4.362113 0 7.90625-3.544137 7.90625-7.90625 0-4.3621134-3.544137-7.90625-7.90625-7.90625zm0 1.6269531c3.464383 0 6.279297 2.8149133 6.279297 6.2792969 0 3.464383-2.814914 6.279297-6.279297 6.279297-3.4643836 0-6.2792969-2.814914-6.2792969-6.279297 0-3.4643836 2.8149133-6.2792969 6.2792969-6.2792969z"
       id="path2" />
    <path
       d="m12.610169 5.220339-13.57683519 6.075878 1.52655325-14.7958235z"
       transform="matrix(.55486022 -.06404311 .05432772 .65408549 5.5622 5.43715)"
       id="path4" />
  </g>
</svg>
