<svg height="16" width="16" xmlns="http://www.w3.org/2000/svg"><path d="m2 1c-.554 0-1 .446-1 1v6c0 .554.446 1 1 1h2v-4c0-.554.446-1 1-1h4v-2c0-.554-.446-1-1-1z" fill="#bebebe"/><path d="m2.5 2c-.277 0-.5.223-.5.5v5c0 .277.223.5.5.5h1.5v-3c0-.554.446-1 1-1h3v-1.5c0-.277-.223-.5-.5-.5z" fill="#fff"/><path d="m12 7v4c0 .554-.446 1-1 1h-4v2c0 .554.446 1 1 1h6c.554 0 1-.446 1-1v-6c0-.554-.446-1-1-1z" fill="#bebebe"/><path d="m12 8v3c0 .554-.446 1-1 1h-3v1.5c0 .277.223.5.5.5h5c.277 0 .5-.223.5-.5v-5c0-.277-.223-.5-.5-.5z" fill="#fff"/><g fill="#bebebe" transform="translate(3 3)"><path d="m5 4c-.554 0-1 .446-1 1v6c0 .554.446 1 1 1h6c.554 0 1-.446 1-1v-6c0-.554-.446-1-1-1zm.5 1h5c.277 0 .5.223.5.5v5c0 .277-.223.5-.5.5h-5c-.277 0-.5-.223-.5-.5v-5c0-.277.223-.5.5-.5z" transform="translate(-3 -3)"/><rect height="6" opacity=".2" rx=".5" width="6" x="2" y="2"/></g></svg>