<svg height="16" width="16" xmlns="http://www.w3.org/2000/svg"><g fill="#bebebe"><path d="m3 1h10v1h-10z" opacity=".25"/><path d="m3 14h10v1h-10z" opacity=".25"/><path d="m3-15h10v1h-10z" opacity=".25" transform="rotate(90)"/><path d="m3-2h10v1h-10z" opacity=".25" transform="rotate(90)"/><path d="m.5 0c-.277 0-.5.223-.5.5v2c0 .277.223.5.5.5h2c.277 0 .5-.223.5-.5v-2c0-.277-.223-.5-.5-.5zm.75 1h.5c.1385 0 .25.1115.25.25v.5c0 .1385-.1115.25-.25.25h-.5c-.1385 0-.25-.1115-.25-.25v-.5c0-.1385.1115-.25.25-.25z"/><path d="m13.5 0c-.277 0-.5.223-.5.5v2c0 .277.223.5.5.5h2c.277 0 .5-.223.5-.5v-2c0-.277-.223-.5-.5-.5zm.75 1h.5c.1385 0 .25.1115.25.25v.5c0 .1385-.1115.25-.25.25h-.5c-.1385 0-.25-.1115-.25-.25v-.5c0-.1385.1115-.25.25-.25z"/><path d="m.5 13c-.277 0-.5.223-.5.5v2c0 .277.223.5.5.5h2c.277 0 .5-.223.5-.5v-2c0-.277-.223-.5-.5-.5zm.75 1h.5c.1385 0 .25.1115.25.25v.5c0 .1385-.1115.25-.25.25h-.5c-.1385 0-.25-.1115-.25-.25v-.5c0-.1385.1115-.25.25-.25z"/><path d="m13.5 13c-.277 0-.5.223-.5.5v2c0 .277.223.5.5.5h2c.277 0 .5-.223.5-.5v-2c0-.277-.223-.5-.5-.5zm.75 1h.5c.1385 0 .25.1115.25.25v.5c0 .1385-.1115.25-.25.25h-.5c-.1385 0-.25-.1115-.25-.25v-.5c0-.1385.1115-.25.25-.25z"/><path d="m10.117188 2.0019531a4 4.0000002 0 0 0 -4.117188 3.9980469 4 4.0000002 0 0 0 .0136719.2871094 4 4.0000002 0 0 1 -.0136719-.2871094h-2.5c-.277 0-.5.223-.5.5v6c0 .277.223.5.5.5h6c.277 0 .5-.223.5-.5v-2.5039062a4 4.0000002 0 0 0 4-3.9960938 4 4.0000002 0 0 0 -3.882812-3.9980469zm-.03125 1a3 2.9994524 0 0 1 2.914062 2.9980469 3 2.9994524 0 0 1 -6 0 3 2.9994524 0 0 1 3.085938-2.9980469zm-4.0449224 3.5429688a4 4.0000002 0 0 0 .0175782.1152343 4 4.0000002 0 0 1 -.0175782-.1152343zm-1.7910156.4550781h1.8808594a4 4.0000002 0 0 0 2.8691406 2.8691406v1.8808594c0 .1385-.1115.25-.25.25h-4.5c-.1385 0-.25-.1115-.25-.25v-4.5c0-.1385.1115-.25.25-.25z"/><path d="m13 6a3 2.9994524 0 1 1 -5.9999999 0 3 2.9994524 0 1 1 5.9999999 0z" opacity=".25"/></g></svg>