<svg height="16" width="16" xmlns="http://www.w3.org/2000/svg"><g fill="#bebebe" transform="translate(3 3)"><path d="m5 4c-.554 0-1 .446-1 1v6c0 .554.446 1 1 1h6c.554 0 1-.446 1-1v-6c0-.554-.446-1-1-1zm.5 1h5c.277 0 .5.223.5.5v5c0 .277-.223.5-.5.5h-5c-.277 0-.5-.223-.5-.5v-5c0-.277.223-.5.5-.5z" transform="translate(-3 -3)"/><rect height="6" opacity=".2" rx=".5" width="6" x="2" y="2"/></g><rect fill="#bebebe" height="8" rx="1" width="8" x="7" y="7"/><rect fill="#fff" height="6" rx=".5" width="6" x="8" y="8"/><rect fill="#bebebe" height="8" rx="1" width="8" x="1" y="1"/><rect fill="#fff" height="6" rx=".5" width="6" x="2" y="2"/></svg>