<svg height="16" width="16" xmlns="http://www.w3.org/2000/svg"><path d="m10.17383.001953a6.0000006 6.0000022 0 0 0 -6.08399 4.998047h-3.08984c-.554 0-1 .446-1 1v9c0 .554.446 1 1 1h9c.554 0 1-.446 1-1v-3.087891a6.0000006 6.0000022 0 0 0 5-5.912109 6.0000006 6.0000022 0 0 0 -5.82617-5.998047zm-.0293 1a5.0000005 5.0000018 0 0 1 .002 0 5.0000005 5.0000018 0 0 1 .99023.128906 5.0000005 5.0000018 0 0 1 2.19531 1.140625 5.0000005 5.0000018 0 0 1 .67383.736328 5.0000005 5.0000018 0 0 1 .2793.414063 5.0000005 5.0000018 0 0 1 0 .002 5.0000005 5.0000018 0 0 1 .42578.902344 5.0000005 5.0000018 0 0 1 .28902 1.673831 5.0000005 5.0000018 0 0 1 -.39453 1.947266 5.0000005 5.0000018 0 0 1 -.2168.449218 5.0000005 5.0000018 0 0 1 0 .0019 5.0000005 5.0000018 0 0 1 -.0996.160157 5.0000005 5.0000018 0 0 1 -.46289.662109 5.0000005 5.0000018 0 0 1 -1.55859 1.236328 5.0000005 5.0000018 0 0 1 -3.88477.275391 5.0000005 5.0000018 0 0 1 -.46094-.183594 5.0000005 5.0000018 0 0 1 -.002-.002 5.0000005 5.0000018 0 0 1 -1.60546-1.166016 5.0000005 5.0000018 0 0 1 -.0684-.08203 5.0000005 5.0000018 0 0 1 -.25196-.30664 5.0000005 5.0000018 0 0 1 -.27734-.410157 5.0000005 5.0000018 0 0 1 -.002-.0039 5.0000005 5.0000018 0 0 1 -.42578-.902343 5.0000005 5.0000018 0 0 1 -.14258-.47461 5.0000005 5.0000018 0 0 1 -.0586-.302734 5.0000005 5.0000018 0 0 1 -.0371-.191406 5.0000005 5.0000018 0 0 1 -.0469-.494141 5.0000005 5.0000018 0 0 1 0-.0039 5.0000005 5.0000018 0 0 1 -.004-.208927 5.0000005 5.0000018 0 0 1 .0254-.498047 5.0000005 5.0000018 0 0 1 0-.002 5.0000005 5.0000018 0 0 1 .0742-.492187 5.0000005 5.0000018 0 0 1 0-.002 5.0000005 5.0000018 0 0 1 .12305-.482421 5.0000005 5.0000018 0 0 1 0-.0019 5.0000005 5.0000018 0 0 1 .17187-.46875 5.0000005 5.0000018 0 0 1 .47852-.876954 5.0000005 5.0000018 0 0 1 .30273-.396484 5.0000005 5.0000018 0 0 1 1.12305-.986328 5.0000005 5.0000018 0 0 1 .88867-.453125 5.0000005 5.0000018 0 0 1 1.95703-.337891zm-8.64453 4.998047h2.5a6.0000006 6.0000022 0 0 0 6 5.996094v2.503906c0 .277-.223.5-.5.5h-8c-.277 0-.5-.223-.5-.5v-8c0-.277.223-.5.5-.5z" fill="#bebebe"/></svg>