<svg height="16" width="16" xmlns="http://www.w3.org/2000/svg"><g fill="#bebebe"><path d="m1 5c-.554 0-1 .446-1 1v9c0 .554.446 1 1 1h9c.554 0 1-.446 1-1v-9c0-.554-.446-1-1-1zm.5 1h8c.277 0 .5.223001.5.5v8c0 .277-.223.5-.5.5h-8c-.277 0-.5-.223-.5-.5v-8c0-.277.223-.5.5-.5zm8.673828-5.998046a6.0000006 6.0000022 0 0 0 -6.173828 5.998046 6.0000006 6.0000022 0 1 0 12 0 6.0000006 6.0000022 0 0 0 -5.826172-5.998046zm-.02734 1a5.0000005 5.0000018 0 0 1 4.853512 4.998046 5.0000005 5.0000018 0 1 1 -10 0 5.0000005 5.0000018 0 0 1 5.146484-4.998046z"/><path d="m10.146484 1.001953a5.0000005 5.0000018 0 0 0 -5.146484 4.998047h4.5c.277 0 .5.223.5.5v4.496094a5.0000005 5.0000018 0 0 0 5-4.996094 5.0000005 5.0000018 0 0 0 -4.853516-4.998047zm-.146484 9.994141a5.0000005 5.0000018 0 0 1 -5-4.996094h-3.5c-.277 0-.5.223-.5.5v8c0 .277.223.5.5.5h8c.277 0 .5-.223.5-.5z" opacity=".25"/></g></svg>