<svg height="16" width="16" xmlns="http://www.w3.org/2000/svg"><g fill="#bebebe"><path d="m10.14453 1a5.0000005 5.0000018 0 0 0 -5.14453 5h-3.5c-.277 0-.5.223-.5.5v8c0 .277.223.5.5.5h8c.277 0 .5-.223.5-.5v-3.501953a5.0000005 5.0000018 0 0 0 5-4.998047 5.0000005 5.0000018 0 0 0 -4.85547-5z" opacity=".25"/><path d="m1 5c-.554 0-1 .446-1 1v9c0 .554.446 1 1 1h9c.554 0 1-.446 1-1v-9c0-.554-.446-1-1-1zm.5 1h8c.277 0 .5.223001.5.5v8c0 .277-.223.5-.5.5h-8c-.277 0-.5-.223-.5-.5v-8c0-.277.223-.5.5-.5zm8.67383-5.998046a6.0000006 6.0000022 0 0 0 -6.17383 5.998046 6.0000006 6.0000022 0 1 0 12 0 6.0000006 6.0000022 0 0 0 -5.82617-5.998046zm-.0273 1a5.0000005 5.0000018 0 0 1 4.85347 4.998046 5.0000005 5.0000018 0 1 1 -10 0 5.0000005 5.0000018 0 0 1 5.14648-4.998046z"/></g></svg>