<svg height="16" width="16" xmlns="http://www.w3.org/2000/svg"><g fill="#bebebe"><path d="m10.173828.001953a6.0000006 6.0000022 0 0 0 -6.0839842 4.998047h-3.0898438c-.554 0-1 .446-1 1v9c0 .554.446 1 1 1h9c.554 0 1-.446 1-1v-3.083984a6.0000006 6.0000022 0 0 0 5-5.916016 6.0000006 6.0000022 0 0 0 -5.826172-5.998047zm-.02734 1a5.0000005 5.0000018 0 0 1 4.853512 4.998047 5.0000005 5.0000018 0 0 1 -5 4.996094v3.503906c0 .277-.223.5-.5.5h-8c-.277 0-.5-.223-.5-.5v-8c0-.277.223-.5.5-.5h3.5a5.0000005 5.0000018 0 0 1 5.146484-4.998047z"/><path d="m10.146484 1.001953a5.0000005 5.0000018 0 0 0 -5.146484 4.998047h-3.5c-.277 0-.5.223-.5.5v8c0 .277.223.5.5.5h8c.277 0 .5-.223.5-.5v-3.503906a5.0000005 5.0000018 0 0 0 5-4.996094 5.0000005 5.0000018 0 0 0 -4.853516-4.998047z" opacity=".35"/></g></svg>