<svg height="16" width="16" xmlns="http://www.w3.org/2000/svg"><g fill="#bebebe"><path d="m10.173828.001953a6.0000006 6.0000022 0 0 0 -6.083984 4.998047h-3.089844c-.554 0-1 .446-1 1v9c0 .554.446 1 1 1h9c.554 0 1-.446 1-1v-3.087891a6.0000006 6.0000022 0 0 0 5-5.912109 6.0000006 6.0000022 0 0 0 -5.826172-5.998047zm-.0293 1a5.0000005 5.0000018 0 0 1 .002 0 5.0000005 5.0000018 0 0 1 .990235.128907 5.0000005 5.0000018 0 0 1 2.195312 1.140624 5.0000005 5.0000018 0 0 1 .673828.736329 5.0000005 5.0000018 0 0 1 .279297.414062 5.0000005 5.0000018 0 0 1 0 .002 5.0000005 5.0000018 0 0 1 .425782.902344 5.0000005 5.0000018 0 0 1 .289018 1.673781 5.0000005 5.0000018 0 0 1 -.394531 1.947266 5.0000005 5.0000018 0 0 1 -.216797.449218 5.0000005 5.0000018 0 0 1 0 .002 5.0000005 5.0000018 0 0 1 -.09961.160157 5.0000005 5.0000018 0 0 1 -.46289.662109 5.0000005 5.0000018 0 0 1 -1.558594 1.236328 5.0000005 5.0000018 0 0 1 -3.884766.275391 5.0000005 5.0000018 0 0 1 -.460937-.183594 5.0000005 5.0000018 0 0 1 -.002-.002 5.0000005 5.0000018 0 0 1 -1.605469-1.166016 5.0000005 5.0000018 0 0 1 -.06836-.08203 5.0000005 5.0000018 0 0 1 -.251953-.30664 5.0000005 5.0000018 0 0 1 -.277344-.410156 5.0000005 5.0000018 0 0 1 -.002-.0039 5.0000005 5.0000018 0 0 1 -.425782-.902344 5.0000005 5.0000018 0 0 1 -.142578-.47461 5.0000005 5.0000018 0 0 1 -.05859-.302734 5.0000005 5.0000018 0 0 1 -.03711-.191406 5.0000005 5.0000018 0 0 1 -.04687-.494141 5.0000005 5.0000018 0 0 1 0-.0039 5.0000005 5.0000018 0 0 1 -.0038-.208927 5.0000005 5.0000018 0 0 1 .02539-.498047 5.0000005 5.0000018 0 0 1 0-.002 5.0000005 5.0000018 0 0 1 .07422-.492187 5.0000005 5.0000018 0 0 1 0-.002 5.0000005 5.0000018 0 0 1 .123047-.482422 5.0000005 5.0000018 0 0 1 0-.0019 5.0000005 5.0000018 0 0 1 .171875-.46875 5.0000005 5.0000018 0 0 1 .478516-.876953 5.0000005 5.0000018 0 0 1 .302734-.396485 5.0000005 5.0000018 0 0 1 1.123047-.986328 5.0000005 5.0000018 0 0 1 .888672-.453125 5.0000005 5.0000018 0 0 1 1.957031-.33789zm-8.644528 4.998047h2.5a6.0000006 6.0000022 0 0 0 6 5.996094v2.503906c0 .277-.223.5-.5.5h-8c-.277 0-.5-.223-.5-.5v-8c0-.277.223-.5.5-.5z"/><path d="m1.5 6c-.277 0-.5.223-.5.5v8c0 .277.223.5.5.5h8c.277 0 .5-.223.5-.5v-2.505859a6.0000006 6.0000022 0 0 1 -6-5.994141zm3.517578.363281a5.0000005 5.0000018 0 0 0 .02344.242188 5.0000005 5.0000018 0 0 1 -.02344-.242188zm.06055.482422a5.0000005 5.0000018 0 0 0 .04492.238281 5.0000005 5.0000018 0 0 1 -.04492-.238281zm.121094.53125a5.0000005 5.0000018 0 0 0 .05078.167969 5.0000005 5.0000018 0 0 1 -.05078-.167969zm.158203.464844a5.0000005 5.0000018 0 0 0 .07617.183594 5.0000005 5.0000018 0 0 1 -.07617-.183594zm.205075.449219a5.0000005 5.0000018 0 0 0 .08789.166015 5.0000005 5.0000018 0 0 1 -.08789-.166015zm.265625.455078a5.0000005 5.0000018 0 0 0 .08789.128906 5.0000005 5.0000018 0 0 1 -.08789-.128906zm.294922.402344a5.0000005 5.0000018 0 0 0 .0918.113281 5.0000005 5.0000018 0 0 1 -.0918-.113281zm.355469.394531a5.0000005 5.0000018 0 0 0 .07422.07227 5.0000005 5.0000018 0 0 1 -.07422-.07227zm.357422.320312a5.0000005 5.0000018 0 0 0 .09961.08203 5.0000005 5.0000018 0 0 1 -.09961-.08203zm.433593.31836a5.0000005 5.0000018 0 0 0 .05664.03711 5.0000005 5.0000018 0 0 1 -.05664-.03711zm.433594.253906a5.0000005 5.0000018 0 0 0 .05664.0293 5.0000005 5.0000018 0 0 1 -.05664-.0293zm.4375.199219a5.0000005 5.0000018 0 0 0 .08594.03516 5.0000005 5.0000018 0 0 1 -.08594-.03516zm.492187.169922a5.0000005 5.0000018 0 0 0 .05664.01562 5.0000005 5.0000018 0 0 1 -.05664-.01562zm.484376.111328a5.0000005 5.0000018 0 0 0 .0625.01172 5.0000005 5.0000018 0 0 1 -.0625-.01172zm.480468.0625a5.0000005 5.0000018 0 0 0 .103516.0078 5.0000005 5.0000018 0 0 1 -.103516-.0078z" opacity=".25"/></g></svg>