<svg height="22" width="22" xmlns="http://www.w3.org/2000/svg" xmlns:xlink="http://www.w3.org/1999/xlink"><linearGradient id="a" gradientTransform="matrix(1.4026 0 0 1.1521 -3.2859 -1.0301)" gradientUnits="userSpaceOnUse" x1="10.905" x2="10.905" y1="12.226" y2="9.6199"><stop offset="0" stop-color="#646662"/><stop offset="1" stop-color="#3c3d3b"/></linearGradient><linearGradient id="b" gradientTransform="matrix(1.3091 0 0 1.3674 -2.6423 -3.4622)" gradientUnits="userSpaceOnUse" x1="6.2321" x2="6.2321" y1="14.248" y2="7.6353"><stop offset="0" stop-color="#3465a4"/><stop offset="1" stop-color="#3465a4" stop-opacity=".51128"/></linearGradient><linearGradient id="c" gradientTransform="matrix(1.3028 0 0 1.3668 -2.1422 -3.5178)" gradientUnits="userSpaceOnUse" x1="15.838" x2="15.838" y1="14.285" y2="7.6722"><stop offset="0" stop-color="#73d216"/><stop offset="1" stop-color="#73d216" stop-opacity=".51128"/></linearGradient><g stroke-linejoin="round" stroke-width="1.127"><rect fill="url(#c)" height="7.8689" rx="0" ry="2.5518" stroke="#4e9a06" transform="matrix(.88732 .0004844 -.00045835 .88732 .37293 -.1255)" width="10.184" x="13.613" y="7.4915"/><rect fill="url(#b)" height="7.8902" rx="0" ry="2.5529" stroke="#204a87" transform="matrix(.88732 .00048229 -.00046036 .88732 .37293 -.1255)" width="10.13" x=".14353" y="7.4758"/><rect fill="#fff" height="3.3937" rx="0" ry="1.2803" stroke="#4e9a06" transform="matrix(.88732 .00048397 -.00045876 .88732 .37293 -.1255)" width="5.6902" x="15.898" y="9.7071"/><rect fill="#fff" height="3.362" rx="0" ry="1.2731" stroke="#204a87" transform="matrix(.88732 .00048706 -.00045585 .88732 .37293 -.1255)" width="5.5465" x="2.4644" y="9.7172"/><rect fill="url(#a)" height="1.1181" ry=".55907" stroke="#2e3436" transform="matrix(.88732 .00037928 -.0005854 .88732 .37293 -.1255)" width="10.561" x="6.4821" y="10.807"/></g></svg>