<svg height="22" width="22" xmlns="http://www.w3.org/2000/svg" xmlns:xlink="http://www.w3.org/1999/xlink"><linearGradient id="a"><stop offset="0" stop-color="#3465a4"/><stop offset="1" stop-color="#3465a4" stop-opacity="0"/></linearGradient><linearGradient id="b" gradientTransform="matrix(.97224 -.23401 .23401 .97224 -1.9889 9.4599)" gradientUnits="userSpaceOnUse" x1="4.8277" x2=".75" xlink:href="#a" y1="5.2473" y2="4.6317"/><linearGradient id="c" gradientTransform="matrix(-.76363 .64566 -.64566 -.76363 27.011 6.2524)" gradientUnits="userSpaceOnUse" x1="4.8277" x2=".75" xlink:href="#a" y1="5.2473" y2="4.6317"/><linearGradient id="d"><stop offset="0"/><stop offset="1" stop-opacity="0"/></linearGradient><linearGradient id="e" gradientUnits="userSpaceOnUse" x1="12.366" x2="13.295" xlink:href="#d" y1="25.813" y2="25.813"/><linearGradient id="f" gradientUnits="userSpaceOnUse" x1="12" x2="13.209" xlink:href="#d" y1="-3.8056" y2="-3.8056"/><path id="g" d="m-10.312 23.5h18.812v5.125h-18.812z" fill="#73d216" fill-rule="evenodd" opacity=".5" stroke="#4e9a06"/><path id="h" d="m39.461 14.962c-1.591 1.831-3.182 3.663-4.773 5.495-1.584-1.832-3.167-3.664-4.75-5.495h2.276v-3.274h4.932v3.274z" fill="#555753" stroke="#2e3436"/><use height="22" transform="matrix(1 0 0 -1 -.0625 20.457)" width="22" xlink:href="#h"/><use height="22" transform="translate(23.75 .0625)" width="22" xlink:href="#g"/><g transform="matrix(.91359 0 0 .8377 .12327 1.1099)"><path d="m-10.147 14.763c6.0953-1.48 12.873-2.069 19.679-3.707l.468 1.944c-6.8056 1.638-13.133 4.1159-19.211 5.6524l-.93602-3.8889z" fill="url(#b)" fill-rule="evenodd"/><path d="m31.918-2.1495c-4.781 4.0592-10.573 7.6299-15.918 12.15l-1.291-1.5273c5.345-4.5196 9.886-9.575 14.627-13.677l2.5826 3.0545z" fill="url(#c)" fill-rule="evenodd"/><path d="m15 11c0 1.1046-.89543 2-2 2s-2-.89543-2-2 .89543-2 2-2 2 .89543 2 2z" fill="#f00" stroke="#000" stroke-width=".5"/><g fill-rule="evenodd"><path d="m12.366 37.625c0-7.625.317-15.625.317-23.625h.317c0 8 .31678 16 .29416 23.503l-.92859.1221z" fill="url(#e)"/><path d="m13.186-15.646c.105 7.621-.188 15.651-.076 23.646l-.405.0346c-.112-7.9953-.629-15.956-.705-23.457l1.1856-.22335z" fill="url(#f)"/></g></g></svg>