<svg height="24" width="24" xmlns="http://www.w3.org/2000/svg" xmlns:xlink="http://www.w3.org/1999/xlink"><linearGradient id="a"><stop offset="0" stop-color="#3465a4"/><stop offset="1" stop-color="#3465a4" stop-opacity="0"/></linearGradient><linearGradient id="b" gradientTransform="matrix(.97224 -.23401 .23401 .97224 -1.9889 9.4599)" gradientUnits="userSpaceOnUse" x1="4.8277" x2=".75" xlink:href="#a" y1="5.2473" y2="4.6317"/><linearGradient id="c" gradientTransform="matrix(-.76363 .64566 -.64566 -.76363 27.011 6.2524)" gradientUnits="userSpaceOnUse" x1="4.8277" x2=".75" xlink:href="#a" y1="5.2473" y2="4.6317"/><linearGradient id="d"><stop offset="0"/><stop offset="1" stop-opacity="0"/></linearGradient><linearGradient id="e" gradientUnits="userSpaceOnUse" x1="12" x2="13.209" xlink:href="#d" y1="-3.8056" y2="-3.8056"/><linearGradient id="f" gradientUnits="userSpaceOnUse" x1="12.366" x2="13.295" xlink:href="#d" y1="25.813" y2="25.813"/><g fill-rule="evenodd"><path d="m-10.147 14.763c6.0953-1.48 12.873-2.069 19.679-3.707l.468 1.944c-6.8056 1.638-13.133 4.1159-19.211 5.6524l-.93602-3.8889z" fill="url(#b)"/><path d="m10.861 3.3028.806 11.947.045-12.617-.851.6698z" fill="#fff" opacity=".6"/><path d="m31.918-2.1495c-4.781 4.0592-10.573 7.6299-15.918 12.15l-1.291-1.5273c5.345-4.5196 9.886-9.575 14.627-13.677l2.5826 3.0545z" fill="url(#c)"/></g><path d="m10.96 9.5927h3.0398v3.4073h-3.0398z" fill="none"/><path d="m15 11a2 2 0 1 1 -4 0 2 2 0 1 1 4 0z" fill="#f00" stroke="#000" stroke-width=".5"/><g fill-rule="evenodd"><path d="m12.366 37.625c0-7.625.317-15.625.317-23.625h.317c0 8 .31678 16 .29416 23.503l-.92859.1221z" fill="url(#f)"/><path d="m13.186-15.646c.105 7.621-.188 15.651-.076 23.646l-.405.0346c-.112-7.9953-.629-15.956-.705-23.457l1.1856-.22335z" fill="url(#e)"/></g></svg>