<svg height="24" width="24" xmlns="http://www.w3.org/2000/svg" xmlns:xlink="http://www.w3.org/1999/xlink"><radialGradient id="a" cx="11.25" cy="19.031" gradientTransform="matrix(1 0 0 .28295 0 13.646)" gradientUnits="userSpaceOnUse" r="8.0625"><stop offset="0"/><stop offset="1" stop-opacity="0"/></radialGradient><path d="m1.5312 2.5625h21.062v6h-21.062z" fill="#3465a4" fill-rule="evenodd" opacity=".6" stroke="#204a87"/><path d="m1.4688 15.469h21v6h-21z" fill="#73d216" fill-rule="evenodd" opacity=".5" stroke="#4e9a06"/><path d="m19.312 19.031a8.0625 2.2812 0 1 1 -16.124 0 8.0625 2.2812 0 1 1 16.124 0z" fill="url(#a)" opacity=".16292" transform="matrix(0 .71735 -.6972 0 20.201 25.555)"/><path id="b" d="m16.898 17.723c-1.591 1.832-3.182 3.664-4.773 5.496-1.583-1.832-3.1662-3.664-4.7493-5.496h2.2758v-3.274h4.9325v3.274z" fill="#555753" stroke="#2e3436"/><use height="22" transform="matrix(1 0 0 -1 -.03125 23.949)" width="22" xlink:href="#b"/></svg>