<svg height="22" width="22" xmlns="http://www.w3.org/2000/svg" xmlns:xlink="http://www.w3.org/1999/xlink"><linearGradient id="a" gradientTransform="matrix(1.3127 0 0 1.3775 -2.3235 -3.5179)" gradientUnits="userSpaceOnUse" x1="15.838" x2="15.838" y1="14.285" y2="7.6722"><stop offset="0" stop-color="#73d216"/><stop offset="1" stop-color="#73d216" stop-opacity=".51128"/></linearGradient><linearGradient id="b" gradientTransform="matrix(1.3335 0 0 1.3762 -2.6358 -3.5033)" gradientUnits="userSpaceOnUse" x1="6.2321" x2="6.2321" y1="14.248" y2="7.6353"><stop offset="0" stop-color="#3465a4"/><stop offset="1" stop-color="#3465a4" stop-opacity=".51128"/></linearGradient><g stroke-linejoin="round"><rect fill="url(#a)" height="8.735" rx="0" ry="2.5718" stroke="#4e9a06" stroke-width="1.0297" transform="matrix(.91759 .00050107 -.00047385 .91759 -.040288 .21373)" width="9.8398" x="13.65" y="6.8287"/><rect fill="url(#b)" height="8.7274" rx="0" ry="2.5694" stroke="#204a87" stroke-width="1.0373" transform="matrix(.91759 .00049278 -.00048183 .91759 -.040288 .21373)" width="9.8287" x=".60712" y="6.8842"/><g fill="#fff"><rect height="4.3251" rx="0" ry="1.3592" stroke="#4e9a06" stroke-width="1.0297" transform="matrix(.91759 .00050107 -.00047385 .91759 -.040288 .21373)" width="5.4906" x="15.827" y="9.0677"/><rect height="4.3211" rx="0" ry="1.358" stroke="#204a87" stroke-width="1.0373" transform="matrix(.91759 .00049278 -.00048183 .91759 -.040288 .21373)" width="5.4219" x="2.7501" y="9.028"/><rect height="2.1867" ry=".80724" stroke="#2e3436" stroke-width="1.0524" transform="matrix(.91759 .00047696 -.0004978 .91759 -.040288 .21373)" width="12.081" x="6.0646" y="10.129"/></g></g><rect fill="#fff" height="3.2696" rx="0" ry="1.6348" stroke="#fff" stroke-width=".88213" transform="matrix(.75544267 -.52085161 .75709433 .51844753 -.040288 .21373)" width="3.2656" x="-4.5072" y="15.915"/></svg>