<svg height="24" width="24" xmlns="http://www.w3.org/2000/svg" xmlns:xlink="http://www.w3.org/1999/xlink"><linearGradient id="a" gradientTransform="matrix(1.4026 0 0 1.1521 -3.2859 -1.0301)" gradientUnits="userSpaceOnUse" x1="10.905" x2="10.905" y1="12.226" y2="9.6199"><stop offset="0" stop-color="#646662"/><stop offset="1" stop-color="#3c3d3b"/></linearGradient><linearGradient id="b" gradientTransform="matrix(1.3091 0 0 1.3674 -2.6423 -3.4622)" gradientUnits="userSpaceOnUse" x1="6.2321" x2="6.2321" y1="14.248" y2="7.6353"><stop offset="0" stop-color="#3465a4"/><stop offset="1" stop-color="#3465a4" stop-opacity=".51128"/></linearGradient><linearGradient id="c" gradientTransform="matrix(1.3028 0 0 1.3668 -2.1422 -3.5178)" gradientUnits="userSpaceOnUse" x1="15.838" x2="15.838" y1="14.285" y2="7.6722"><stop offset="0" stop-color="#73d216"/><stop offset="1" stop-color="#73d216" stop-opacity=".51128"/></linearGradient><g stroke-linejoin="round"><rect fill="url(#c)" height="7.9992" rx="0" ry="2.5518" stroke="#4e9a06" transform="matrix(1 .00054591 -.00051656 1 0 0)" width="10.002" x="13.509" y="7.4915"/><rect fill="url(#b)" height="7.9945" rx="0" ry="2.5529" stroke="#204a87" transform="matrix(1 .00054353 -.00051882 1 0 0)" width="9.9998" x=".50815" y="7.5017"/><rect fill="#fff" height="3.9925" rx="0" ry="1.2803" stroke="#4e9a06" transform="matrix(1 .00054543 -.00051702 1 0 0)" width="6.003" x="15.508" y="9.499"/><rect fill="#fff" height="3.9868" rx="0" ry="1.2731" stroke="#204a87" transform="matrix(1 .00054891 -.00051374 1 0 0)" width="5.9896" x="2.5164" y="9.5088"/><rect fill="url(#a)" height="2.0034" ry=".67706" stroke="#2e3436" transform="matrix(1 .00042744 -.00065974 1 0 0)" width="11.005" x="6.508" y="10.494"/></g></svg>