<svg height="48" width="48" xmlns="http://www.w3.org/2000/svg" xmlns:xlink="http://www.w3.org/1999/xlink"><linearGradient id="a" gradientUnits="userSpaceOnUse" x1="-.36309" x2="59.148" y1="29.208" y2="29.208"><stop offset="0" stop-color="#fff"/><stop offset="1" stop-color="#fff" stop-opacity="0"/></linearGradient><radialGradient id="b" cx="30.323336" cy="13.379522" gradientUnits="userSpaceOnUse" r="45.583216"><stop offset="0" stop-color="#029dff"/><stop offset="1" stop-color="#004fb2"/></radialGradient><filter id="c" height="2.3517" width="1.4506" x="-.22529" y="-.67586"><feGaussianBlur stdDeviation="2.1824713"/></filter><filter id="d" height="1.192" width="1.4124" x="-.20622" y="-.096024"><feGaussianBlur stdDeviation=".88018614"/></filter><path d="m58.404 29.208a29.011 29.011 0 1 1 -58.022 0 29.011 29.011 0 1 1 58.022 0z" fill="url(#b)" fill-rule="evenodd" stroke="#0048a4" stroke-width="1.4896" transform="matrix(.67131 0 0 .67131 4.2015 3.4387)"/><path d="m58.404 29.208a29.011 29.011 0 1 1 -58.022 0 29.011 29.011 0 1 1 58.022 0z" fill="none" opacity=".37629" stroke="url(#a)" stroke-width="1.5742" transform="matrix(.63523 0 0 .63523 5.2619 4.4924)"/><g fill-rule="evenodd"><g filter="url(#d)" opacity=".54217" transform="translate(0 1.125)"><rect height="16.775" rx="1.5597" width="3.1195" x="21.927" y="8.7886"/><rect height="11.142" rx="2.0973" transform="matrix(.71072 -.70347 .70347 .71072 0 0)" width="4.1946" x="-2.0477" y="31.37"/><path d="m25.625 23.875a3.375 3.375 0 1 1 -6.75 0 3.375 3.375 0 1 1 6.75 0z" opacity="1" transform="matrix(1.037 0 0 1.037 .74731 -1.6735)"/></g><g fill="#eeeeec" transform="translate(0 .75)"><rect height="16.775" rx="1.5597" width="3.1195" x="21.927" y="8.7886"/><rect height="11.142" rx="2.0973" transform="matrix(.71072 -.70347 .70347 .71072 0 0)" width="4.1946" x="-2.0477" y="31.37"/><path d="m25.625 23.875a3.375 3.375 0 1 1 -6.75 0 3.375 3.375 0 1 1 6.75 0z" transform="matrix(1.037 0 0 1.037 .74731 -1.6735)"/></g><path d="m31.5 34.625a11.625 3.875 0 1 1 -23.25 0 11.625 3.875 0 1 1 23.25 0z" fill="#2991ef" filter="url(#c)" transform="matrix(1.0054 0 0 1.0699 4.1431 -2.2325)"/></g></svg>