<svg height="16" width="16" xmlns="http://www.w3.org/2000/svg"><path d="m1.5 1c-.277 0-.5.223-.5.5v5.4941406 2.5058594c0 .277.223.5.5.5h2.5 1v-4c0-.554.446-1 1-1h4v-.9941406-2.5058594c0-.277-.223-.5-.5-.5h-2.5z" fill="#fff"/><g fill="#bebebe"><path d="m1 0c-.554 0-1 .446-1 1v4.8945312 1.0175782 3.0878906c0 .554.446 1 1 1h3 1v-.105469-.894531h-3.5c-.06925 0-.1354531-.0138295-.1953125-.0390625-.1795781-.075704-.3046875-.2531875-.3046875-.4609375v-8c0-.277.223-.5.5-.5h8c.277 0 .5.223.5.5v3.5h.898438.101562v-.9121094-3.0878906c0-.554-.446-1-1-1h-4.1015625z"/><path d="m6.5 6c-.277 0-.5.223-.5.5v5.494141 2.505859c0 .277.223.5.5.5h2.5 5.5c.277 0 .5-.223.5-.5v-5.4941406-2.5058594c0-.277-.223-.5-.5-.5h-2.5z" opacity=".25"/><path d="m6 5c-.554 0-1 .446-1 1v4.894531 1.017578 3.087891c0 .554.446 1 1 1h3 1.101562 4.898438c.554 0 1-.446 1-1v-4.894531-1.0175784-3.0878906c0-.554-.446-1-1-1h-4.101562zm.5 1h8c.277 0 .5.223.5.5v8c0 .277-.223.5-.5.5h-8c-.06925 0-.1354531-.013829-.1953125-.039062-.1795781-.075704-.3046875-.253188-.3046875-.460938v-8c0-.277.223-.5.5-.5z"/></g></svg>