<svg height="16" width="16" xmlns="http://www.w3.org/2000/svg"><path d="m12.4375.6875a2.4263806 2.4263806 0 0 0 -2.25 2.4375 2.4263806 2.4263806 0 0 0 0 .21875l-5.71875 2.9375a2.4263806 2.4263806 0 0 0 -4.09375 1.71875 2.4263806 2.4263806 0 0 0 3.6875 2.09375l6.125 3.125a2.4263806 2.4263806 0 0 0 4.84375-.09375 2.4263806 2.4263806 0 0 0 -4.5625-1.15625l-5.5625-2.75a2.4263806 2.4263806 0 0 0 .3125-1.21875 2.4263806 2.4263806 0 0 0 -.125-.75l5.5-2.75a2.4263806 2.4263806 0 0 0 4.4375-1.375 2.4263806 2.4263806 0 0 0 -2.59375-2.4375z" fill="#bebebe"/></svg>