<svg height="16" width="16" xmlns="http://www.w3.org/2000/svg"><g fill="#bebebe"><path d="m6 3a2 2 0 1 1 -4 0 2 2 0 1 1 4 0z" transform="matrix(1.25 0 0 1.25 -1 -.25)"/><path d="m6 3a2 2 0 1 1 -4 0 2 2 0 1 1 4 0z" transform="matrix(.75 0 0 .75 10.5 5.25)"/><path d="m6 3a2 2 0 1 1 -4 0 2 2 0 1 1 4 0z" transform="matrix(.75 0 0 .75 6.5 8.25)"/><path d="m6 3a2 2 0 1 1 -4 0 2 2 0 1 1 4 0z" transform="matrix(.75 0 0 .75 10.5 11.25)"/><path d="m3 7h10v1h-10z"/><path d="m3 4h2v10h-2z"/><path d="m4 13h9v1h-9z"/><path d="m4 10h5v1h-5z"/></g></svg>