<svg height="16" width="16" xmlns="http://www.w3.org/2000/svg"><path d="m2.7142252 1.4447528c-.1812884 0-.3248093.2134988-.3248093.4724499v.1476406c-.0585412.085744-.1181125.1953338-.1181125.3248094v.2362249h-.5315061c-.1812875 0-.2641005.2297301-.3543374.4724499l-.3543374.974428c.1891547-.1585521.4375084-.2657531.7086748-.2657531h12.5494507c.228908 0 .420143.089571.590563.2066968.03824.00953.07843.012742.118112.029528l-.14764-.9448997c-.045582-.2549084-.143521-.4724499-.32481-.4724499h-6.4666581v-.7086749c0-.2589512-.1139927-.4724499-.2952812-.4724499zm-.9744279 3.4252619c-.1474223 0-.2849563.036617-.4133937.088584-.014499-.011344-.014956.011401-.029528 0-.097412.041965-.1897765.1104656-.265753.1771687-.055838.046804-.10334658.091292-.14764065.1476406-.0201812.027621-.0418751.059069-.0590562.088584-.0236546.03799-.0410068.077371-.0590562.1181125-.003316.00788.003114.021557 0 .029528-.030404.074747-.0496838.1550193-.0590562.236225-.004687.040603-.0306535.076433-.0295281.1181125l.20669683 7.6182552c.015005.55561.47216455 1.001657 1.06301225 1.003956l11.9884169.05906c.58312.0024 1.039208-.443657 1.063012-1.003956l.32481-7.6773112c.0035-.082761-.01138-.1584509-.02953-.236225v-.029528c-.02003-.075261-.051-.1388795-.08858-.2066968-.01014-.01837-.01819-.041366-.02953-.059056-.05982-.092129-.148208-.1671309-.236225-.2362249-.02201-.017349-.03553-.043429-.05906-.059056-.05375-.035879-.116347-.062862-.177169-.088584-.01911-.00785-.03936-.022748-.05906-.029528-.109687-.038385-.229514-.059056-.354338-.059056h-12.5494507z" fill="#bebebe"/></svg>