<svg height="16" width="16" xmlns="http://www.w3.org/2000/svg"><g fill="#bebebe"><path d="m5 6-1.5 4h8.5l1.5-4zm.5 1h7l-.813559 2h-7.186441z"/><path d="m6.0245804 7.5053757-.4702892.9951669.4457088-.0005426.5-1z"/><path d="m4.3263356 3-3.3263356 9h12l3-9zm.1736644 2h10l-2 6h-10z"/><path d="m3.4516399 3.4878054c-1.0297734-.2291254-2.3750914.0558292-3.23038864.5612321l2.75099424-.0818383-.3355761.5752733c-1.1288724-.0830011-1.4898804.1780867-2.25315386.9108501.65367726-.0881796 1.16118546-.2348269 2.01586566-.2426053l-.2958617.64307c-.8755451.031518-1.29488578.144847-1.91176173.7021424l1.68932743-.0866321-.3091362.6797463c-.3937815.0597456-1.00397471.3373539-1.31140147.6409114l1.27392157-.00171z"/></g></svg>