<svg height="16" width="16" xmlns="http://www.w3.org/2000/svg"><g fill="#bebebe"><path d="m5.6347656 4.4492188c-.8919432 0-1.5950272.3419466-1.9472656.6601562-.3904491.3522397-.6796875.7574144-.6796875 1.515625 0 .5379117.0449219.85496.0449219 1.0507812 0 .2191049-.2092993.2435047-.2558594.4882813-.066269.3432844.04571 1.1245794.2558594 1.515625.1295528.2394035.4034123.3450235.5878906.5605465.1886572.219702.3828125.672306.3828125.964844 0 .438807-.4995901 1.168198-1.5742187 1.703125-1.47164626.733733-2.19531255 1.070303-2.19531255 2.091797h8.00976565c-.0402428-.069188-.0941955-.13229-.125-.205078-.0991726-.234336-.1327717-.495062-.1347657-.759766h-5.5976562c.1887409-.09872.2337102-.144538.4726562-.263672.6834912-.340227 1.1903251-.807357 1.5351563-1.28125.3448313-.473893.5742187-.706795.5742187-1.285156 0-.718618-.2139155-1.124103-.6152343-1.5917968-.3881891-.4535149-.5528351-.5443147-.4707031-.390625-.0120779-.0224744-.0945293-.2560392-.1289063-.4707031s-.0174459-.4656878-.0292969-.4042969c.0000026-.0013.0000026-.0026062 0-.0039062.1111613-.160263.2734375-.3526471.2734375-.6679688 0-.3433592-.0449218-.5665792-.0449219-1.0507812 0-.5128687.068141-.5343297.3613282-.7988281.1334935-.1205971.6554004-.4121094 1.3007812-.4121094.132103 0 .2930984.014504.3808594.03125.0013.0000026.0026063.0000026.0039062 0 .1760454.033145.2708212.1277349.2519532.1074219l-.0292969-.0410156c.016642.0222329.0342374.0437381.0527344.0644531.00651.00651.0325515.0312494.0390625.0371093-.02493-.0299909-.098761-.1193507-.1132813-.1367187l-.0703125-.1132813c.0001336.0002698.1498328.2048112.1835938.25.0013.0013101.0025962.0026063.0039062.0039063.2575424.2293801.6179484.3038471.9453125.1953125l-.3085937.1015625c.028541.00843.1023364.0252344.0976562.0214844h.0019532c.087825.0701549.2226562.1689732.2226562.6894531 0 .4835452-.0449219.707422-.0449219 1.0507812 0 .3164991.1630712.5089815.2753907.6699219v.0019531c-.012083-.0625885.0053741.1877723-.0292969.4023438-.0346716.2145715-.1185192.4497586-.1308594.4726562.0829183-.155158-.0850574-.0619261-.4707031.390625l-.0019532.0019532c-.3985932.4661126-.6132814.8702106-.6132812 1.5898436 0 .581856.210927.81394.5566406 1.28711.2860066.391449.6897831.773397 1.2050782 1.08789.0680496-.314177.2055658-.617321.4277343-.876953-.8227036-.506184-1.2246094-1.11226-1.2246093-1.498047-.0000001-.292537.1947527-.745142.3828124-.964844.1045958-.122993.2371501-.211894.3574219-.3085934.0011884-.0798296.0007084-.1591286.0136719-.2421875l-.0117188.15625v-.8457031a1.0112944 1.0112944 0 0 1 .4765626-.8574219c-.0560316-.2201706-.2480469-.2551741-.2480469-.4667969 0-.195821.0449219-.5134666.0449219-1.0507812 0-.7582107-.2802654-1.1991798-.5859376-1.4433594-.2268657-.1814927-.4934267-.2196636-.6582031-.2441406-.00117-.00179-.0033062-.0027062-.0039062-.0039062l-.0292969-.0390626-.0058594.0019532c-.1325332-.1426796-.394384-.3256015-.78125-.3984375-.1689565-.032239-.3738438-.0488281-.5625-.0488281zm1.3496094.4453124.0371094-.0234374c.0704483-.0400001.1590827-.0585938.2695312-.0585938v-.1386719c-.093135 0-.1744557.0120344-.2460937.0371094-.018504-.076418-.057159-.151288-.1132813-.21875l-.1054687.0878906c.060892.072836.09375.1554059.09375.2324219z" stroke-width="1.057703"/><path d="m11.142578.8046875c-1.5388813.12824007-1.9431194 1.1586638-2.1152342 2.578125l-.2636719.5957031a1.6497243 1.6497243 0 0 1 .0644531.0996094c.6009019.571538 1.0917969 1.4661382 1.0917969 2.5449219 0 .5469887-.0500753.796173-.0664063.859375.0909472.1661423.1885264.1765572.2304684.3964843.007828.0405476.007607.0713468.013672.109375h.798828c-.0102-.0854665-.015521-.1658875-.033203-.2578124-.033282-.1745182-.126242-.3292214-.205078-.453125.024266-.1790745.054688-.2863064.054688-.6542969 0-1.1184873-.465522-2.0185622-1.0488285-2.7148438l.0898437-.203125a.79395824.79395824 0 0 0 .0625-.2265625c.0798809-.6587899.2193518-1.1463747.4062498-1.4140625.181811-.260401.396476-.4030713.958985-.4570312.575845-.0008492.809296.1178398 1.054687.375.233117.2442966.468113.720316.734375 1.2949219l.023438.3847656a.79395824.79395824 0 0 0 .044921.2167968l1.451172 4.109375h.509766a1.0112944 1.0112944 0 0 1 .355469.0644532l-1.56836-4.4375-.033203-.5625c-.59182-1.2963669-1.05368-2.2688932-2.611328-2.2480469z"/><path d="m14.16016 15h.83984v-1c.008-1.67271 0-5 0-5s-3.98614 0-6 0v.8457c-.0954.61124.3814 1.16164 1 1.1543h1.58594l-1.64298 1.64299-.64999.64998c-.65409.63582-.18523 1.74367.72657 1.71679.25979-.008.50637-.11632.6875-.30273l.62788-.62789 1.66508-1.66508v1.58594c0 .68107.4492 1 1.16016 1z"/></g></svg>