<svg height="16" width="16" xmlns="http://www.w3.org/2000/svg"><g fill="#bebebe"><path d="m4.8486897 5.7263123-1.8092028 4.6133727 8.2745551.066 1.69371-4.6793691zm.3846692 1.2007814h6.5093181l-.878982 2.2997697h-6.5093178z"/><path d="m6.2262591 7.1405346-.6706357 1.822979.4457088-.0005426.7003465-1.8278121z"/><path d="m4.0123826 3.3834457-3.69842983 9.2331093h12.13112123l3.240973-9.2331093zm.3324249 1.7516931h9.4957555l-2.272197 6.7206992-9.7597407-.197989z"/><path d="m3.4516399 3.4878054c-1.0297734-.2291254-2.3750914.0558292-3.23038864.5612321l2.75099424-.0818383-.3355761.5752733c-1.1288724-.0830011-1.4898804.1780867-2.25315386.9108501.65367726-.0881796 1.16118546-.2348269 2.01586566-.2426053l-.2958617.64307c-.8755451.031518-1.29488578.144847-1.91176173.7021424l1.68932743-.0866321-.3091362.6797463c-.3937815.0597456-1.00397471.3373539-1.31140147.6409114l1.27392157-.00171z"/></g></svg>