<svg height="16" width="16" xmlns="http://www.w3.org/2000/svg"><path d="m8 .43164062c-4.1800625.00051976-7.56783962 3.38829688-7.56835938 7.56835938.0005197 4.180063 3.38829688 7.567839 7.56835938 7.568359 4.180063-.00052 7.567839-3.388296 7.568359-7.568359-.00052-4.1800625-3.388296-7.56783969-7.568359-7.56835938zm-.015625 1.46093748a.79401575.79401575 0 0 1 .0117188 0 .79401575.79401575 0 0 1 .796875.8125v3.96875a.79401575.79401575 0 1 1 -1.5878907 0v-3.96875a.79401575.79401575 0 0 1 .6210938-.7949219.79401575.79401575 0 0 1 .1582031-.0175781zm-3.5683594 2.1191407 1.0996094 1.1542968c-.3751587.3046652-.6957142.677188-.9394531 1.0957032l-.0214844.0214843c-1.088328 1.8986988-.4465902 4.2968989 1.4472656 5.4003909 1.9021127 1.108256 4.3138569.478682 5.4218749-1.423828.964474-1.6560403.610061-3.6974352-.751953-4.9296879l1.15625-1.109375c1.827355 1.7357989 2.29699 4.5804039.976563 6.8476559-1.53984 2.644125-4.9678222 3.538284-7.6113286 1.998047s-3.5379658-4.9691553-1.9980469-7.613281c.3219174-.5527623.7348855-1.0364511 1.2207031-1.4414062z" fill="#bebebe"/></svg>