<svg height="16" width="16" xmlns="http://www.w3.org/2000/svg"><path d="m1.84375 1c-.475921 0-.844509.367828-.84375.84375v3.9375c-.11744295.09823-.687065.32604-.96875.375l-.03125 6.84375h8c-.010642-.125864.027344-.371383.027344-.5 0-2.469972 2.0026842-4.4726562 4.4726562-4.4726562 1.144718 0 2.708949.4430092 3.5 1.1503906v-1.4277344-.15625-.75c-.0000002-.1189805-.0205802-.2423396-.0625002-.34375-.08384-.2028208-.234679-.3536597-.4375-.4375-.10141-.04192-.224779-.0609877-.34375-.0625h-5.15625v-4.15625c-.000008-.475919-.367827-.84375-.84375-.84375zm.15625 1h7v4c.0000552.5522619.4477381.9999448 1 1h5v.4042969c-.609627-.2404238-1.804222-.3769531-2.5-.3769531-2.8334246-.0000001-5.1047015 2.2061834-5.3710938 4.9726562h-6.125l.0234376-5.1191406c.0838083-.0344174.1677769-.0675998.2460937-.1054688.1056977-.0511086.1785851-.0688143.3671875-.2265625.2276441-.1899429.3592794-.4710985.359375-.7675781z" fill="#bebebe"/><path d="m12.5 9.0000003c-1.933 0-3.5 1.5669997-3.5 3.4999997s1.567 3.5 3.5 3.5 3.5-1.567 3.5-3.5-1.567-3.4999997-3.5-3.4999997zm-.5.9999997h1v2h2v1h-2v2h-1v-2h-2v-1h2z" fill="#bebebe" fill-rule="evenodd"/><text x="-.707107" y="11.448"><tspan x="-.707107" y="46.838623"/></text></svg>