<svg height="16" width="16" xmlns="http://www.w3.org/2000/svg"><path d="m1.84375 1c-.475921 0-.844509.367828-.84375.84375v3.9375c-.11744295.09823-.687065.32604-.96875.375l-.03125 6.84375h8c-.010642-.125864.027344-.371383.027344-.5 0-2.469972 2.0026838-4.4726562 4.4726558-4.4726562 1.144718 0 2.177699.4430092 2.96875 1.1503906v-1.4277344-.15625-.75c.0000002-.1189805-.0205798-.2423396-.0624998-.34375-.08384-.2028208-.234679-.3536597-.4375-.4375-.10141-.04192-.224779-.0609877-.34375-.0625h-4.625v-4.15625c-.000008-.475919-.367827-.84375-.84375-.84375z" fill="#bebebe"/><path d="m12.5 9.0000003c-1.933 0-3.5 1.5669997-3.5 3.4999997s1.567 3.5 3.5 3.5 3.5-1.567 3.5-3.5-1.567-3.4999997-3.5-3.4999997zm-.5.9999997h1v2h2v1h-2v2h-1v-2h-2v-1h2z" fill="#bebebe" fill-rule="evenodd"/><text x="-.707107" y="11.448"><tspan x="-.707107" y="46.838623"/></text></svg>