<?xml version="1.0" encoding="UTF-8" standalone="no"?>
<svg
   xmlns:dc="http://purl.org/dc/elements/1.1/"
   xmlns:cc="http://creativecommons.org/ns#"
   xmlns:rdf="http://www.w3.org/1999/02/22-rdf-syntax-ns#"
   xmlns:svg="http://www.w3.org/2000/svg"
   xmlns="http://www.w3.org/2000/svg"
   xmlns:sodipodi="http://sodipodi.sourceforge.net/DTD/sodipodi-0.dtd"
   xmlns:inkscape="http://www.inkscape.org/namespaces/inkscape"
   height="16"
   width="16"
   version="1.1"
   id="svg10"
   sodipodi:docname="tab-new-symbolic.svg"
   inkscape:version="0.92.4 (unknown)">
  <metadata
     id="metadata16">
    <rdf:RDF>
      <cc:Work
         rdf:about="">
        <dc:format>image/svg+xml</dc:format>
        <dc:type
           rdf:resource="http://purl.org/dc/dcmitype/StillImage" />
        <dc:title></dc:title>
      </cc:Work>
    </rdf:RDF>
  </metadata>
  <defs
     id="defs14" />
  <sodipodi:namedview
     pagecolor="#ffffff"
     bordercolor="#666666"
     borderopacity="1"
     objecttolerance="10"
     gridtolerance="10"
     guidetolerance="10"
     inkscape:pageopacity="0"
     inkscape:pageshadow="2"
     inkscape:window-width="1366"
     inkscape:window-height="706"
     id="namedview12"
     showgrid="true"
     inkscape:zoom="41.7193"
     inkscape:cx="12.280464"
     inkscape:cy="6.7242805"
     inkscape:window-x="0"
     inkscape:window-y="0"
     inkscape:window-maximized="1"
     inkscape:current-layer="svg10">
    <inkscape:grid
       type="xygrid"
       id="grid823" />
  </sodipodi:namedview>
  <path
     d="M 1.84375,1 C 1.367829,1 0.999241,1.367828 1,1.84375 v 3.9375 C 0.88255705,5.87948 0.312935,6.10729 0.03125,6.15625 L 0,13 h 8 c -0.010642,-0.125864 0.027344,-0.371383 0.027344,-0.5 0,-2.469972 2.0026842,-4.4726562 4.4726562,-4.4726562 1.144718,0 2.708949,0.4430092 3.5,1.1503906 V 7.75 7.59375 6.84375 C 16,6.7247695 15.97942,6.6014104 15.9375,6.5 15.85366,6.2971792 15.702821,6.1463403 15.5,6.0625 15.39859,6.02058 15.275221,6.0015123 15.15625,6 H 10 V 1.84375 C 9.999992,1.367831 9.632173,1 9.15625,1 Z M 2,2 h 7 v 4 c 5.52e-5,0.5522619 0.4477381,0.9999448 1,1 h 5 V 7.4042969 C 14.390373,7.1638731 13.195778,7.0273438 12.5,7.0273438 9.6665754,7.0273437 7.3952985,9.2335272 7.1289062,12 h -6.125 L 1.0273438,6.8808594 C 1.1111521,6.846442 1.1951207,6.8132596 1.2734375,6.7753906 1.3791352,6.724282 1.4520226,6.7065763 1.640625,6.5488281 1.8682691,6.3588852 1.9999044,6.0777296 2,5.78125 Z"
     id="path2"
     style="fill:#bebebe;fill-opacity:1"
     inkscape:connector-curvature="0"
     sodipodi:nodetypes="scccccsscccssscccssccccccscccsccc" />
  <path
     d="m12.5 9.0000003c-1.933 0-3.5 1.5669997-3.5 3.4999997s1.567 3.5 3.5 3.5 3.5-1.567 3.5-3.5-1.567-3.4999997-3.5-3.4999997zm-.5.9999997h1v2h2v1h-2v2h-1v-2h-2v-1h2z"
     fill="#bebebe"
     fill-rule="evenodd"
     id="path4" />
  <text
     x="-.707107"
     y="11.448"
     id="text8">
    <tspan
       x="-.707107"
       y="46.838623"
       id="tspan6" />
  </text>
</svg>
