<svg enable-background="new" height="16" width="16" xmlns="http://www.w3.org/2000/svg"><g fill="#bebebe"><path d="m8.375 1.125-7.25 7.75 6 6 1.0898438-1.019531a4.5 4.5 0 0 1 -.2148438-1.355469 4.5 4.5 0 0 1 4.5-4.5 4.5 4.5 0 0 1 1.638672.3144531l.736328-.6894531v-4.5c0-2-2-2-2-2zm3.5 2c.55228 0 1 .44772 1 1s-.44772 1-1 1-1-.44772-1-1 .44772-1 1-1z"/><path d="m12.5 9.0000003c-1.933 0-3.5 1.5669997-3.5 3.4999997s1.567 3.5 3.5 3.5 3.5-1.567 3.5-3.5-1.567-3.4999997-3.5-3.4999997zm-.5.9999997h1v2h2v1h-2v2h-1v-2h-2v-1h2z" fill-rule="evenodd"/></g></svg>