<svg enable-background="new" height="16" width="16" xmlns="http://www.w3.org/2000/svg"><g fill="#bebebe"><path d="m8.3808594 1-7.3808594 7.890625 6.109375 6.109375 1.1367188-1.0625a4.5 4.5 0 0 1 -.2265626-1.158203l-.8867187.830078-4.7421875-4.7421875 6.4238281-6.8671875h4.1484379s.299409.0129367.570312.1484375.466797.2039475.466797.8886719v4.1484375l-.912109.8535156a4.5 4.5 0 0 1 1.138671.3046875l.773438-.7246094v-4.5820312c0-2.0363576-2.037109-2.0371094-2.037109-2.0371094zm3.1191406 2.5a1 1 0 0 0 -1 1 1 1 0 0 0 1 1 1 1 0 0 0 1-1 1 1 0 0 0 -1-1z"/><path d="m12.5 9.0000003c-1.933 0-3.5 1.5669997-3.5 3.4999997s1.567 3.5 3.5 3.5 3.5-1.567 3.5-3.5-1.567-3.4999997-3.5-3.4999997zm-.5.9999997h1v2h2v1h-2v2h-1v-2h-2v-1h2z" fill-rule="evenodd"/></g></svg>