<svg height="16" width="16" xmlns="http://www.w3.org/2000/svg"><g fill="#bebebe" transform="translate(-301 -647)"><g stroke-width=".986734"><path d="m309.86318 653.54887h-2.52718l-.48046 1.44136h-1.53264l2.60405-6.99539h1.33566l2.61847 6.99539h-1.53264zm-2.13802-1.1675h1.74885l-.87923-2.61847z"/><path d="m317 652.4488q0 1.24918-.53331 1.95064-.5333.69665-1.4894.69665-.8456 0-1.35007-.64861l-.0625.55252h-1.24918v-7.37975h1.38851v2.64729q.48045-.56213 1.26359-.56213.9513 0 1.4894.70147.54292.69665.54292 1.96505zm-1.38851-.1009q0-.78794-.24984-1.14828-.24983-.36514-.7447-.36514-.66302 0-.91286.54291v2.05153q.25464.54772.92247.54772.67263 0 .88403-.66303.1009-.31709.1009-.96571z"/></g><path d="m304 657v2h10v1h-10v2l-3-2.5z"/></g></svg>