<svg height="16" width="16" xmlns="http://www.w3.org/2000/svg"><path d="m4.0000001 2.0000002h3.5663184c.7665919 0 2.2312165-.027483 2.8089375.083618.577721.1055453 1.061008.2805282 1.449859.5249488.388851.2388655.680489.5555013.874914.9499072.199981.3888507.299971.8693594.299971 1.4415258 0 .3444108-.04166.6666015-.124988.9665722-.08333.2999707-.205536.5638339-.366631.7915894s-.358298.4194035-.591609.5749439c-.227755.1499853-.491618.2499756-.791589.2999707v.083325c.305526.06666.588832.1638727.849917.2916382.266641.1222103.497174.2944157.691599.5166162.199981.2166455.355521.4916187.466621.8249195.116655.3333008.174983.7388169.174983 1.2165479 0 .555502-.09721 1.052675-.291638 1.491521-.194425.433291-.474953.620555-.841584.926081-.361076.299971-.8027.530504-1.324871.691599-.516616.161096-1.8951383.324676-2.5506298.324676h-4.2995802zm2.9999999 4.9999998h1c.3221907 0 .6914037-.0114516.9080492-.0670016.7262868-.2563926 1.0184123-.6685375 1.0919508-1.4329984 0-.4666211-.1472078-.7999219-.4416235-.9999024-.2888609-.2055356-.925105-.5000976-1.5583765-.5000976h-1zm0 2v3h1.5165186c.3388558 0 .6221615-.03889.849917-.116655.2333106-.07777.4194035-.18887.5582788-.333301.1444306-.14443.2471986-.319413.3083036-.524949.06111-.205535.09166-.258601.09166-.508576 0-.227756-.03055-.433292-.09166-.6166069-.061105-.1888705-.166651-.3499659-.3166361-.4832862-.1444303-.1333203-.3360783-.236088-.5749438-.3083032-.2388656-.0722151-.5360588-.1083227-.8915797-.1083227z" fill="#bebebe"/></svg>