<svg height="16" width="16" xmlns="http://www.w3.org/2000/svg"><g fill="#bfbfbf" fill-opacity=".901961"><path d="m5.943561 9.3213963-1.4627549 1.5846507 4.5101609 4.449213 7.009033-6.3690784-1.706547-1.3103845-5.272012 4.6130109z"/><g stroke-width=".986734"><path d="m4.5475972 6.5488661h-2.5271814l-.4804527 1.4413581h-1.5326443l2.6040538-6.99539188h1.3356587l2.6184674 6.99539188h-1.5326442zm-2.1380147-1.1675001h1.748848l-.8792285-2.6184675z"/><path d="m11.684416 5.4487959q0 1.2491772-.533303 1.9506383-.533304.6966565-1.4894048.6966565-.8455967 0-1.3500721-.6486113l-.0624589.5525206h-1.2491772v-7.37975403h1.3885085v2.64729463q.4804528-.5621298 1.2635907-.5621298.9512978 0 1.4894048.7014611.542912.6966565.542912 1.9650517zm-1.388509-.100895q0-.7879424-.249835-1.148282-.2498368-.3651441-.7447033-.3651441-.6630248 0-.9128602.5429116v2.0515332q.25464.5477161.9224693.5477161.6726338 0 .8840342-.6630248.100895-.3170987.100895-.96571z"/></g></g></svg>