<svg height="16" width="16" xmlns="http://www.w3.org/2000/svg"><g fill="#bfbfbf" fill-opacity=".901961"><path d="m5.943561 9.3213963-1.4627549 1.5846507 4.5101609 4.449213 7.009033-6.3690784-1.706547-1.3103845-5.272012 4.6130109z"/><path d="m4.6013217 6.6629765h-2.561159l-.4869123 1.460737h-1.5532504l2.6390649-7.0894438h1.3536163l2.6536723 7.0894438h-1.5532504zm-2.16676-1.183197h1.772361l-.8910496-2.6536723z"/><path d="m11.973175 5.5382089q0 1.2659721-.540473 1.9768642-.540473.7060229-1.5094284.7060229-.8569657 0-1.3682237-.6573317l-.0632986.5599492h-1.2659721v-7.47897363h1.4071767v2.68288703q.4869124-.5696875 1.2805795-.5696875.9640866 0 1.5094286.7108921.550211.7060229.550211 1.9914715zm-1.407177-.1022516q0-.7985362-.253194-1.1637205-.253195-.3700533-.7547146-.3700533-.6719391 0-.9251335.5502109v2.0791157q.2580636.5550801.9348717.5550801.6816774 0 .8959184-.671939.102252-.3213622.102252-.9786939z"/></g></svg>