<svg height="16" width="16" xmlns="http://www.w3.org/2000/svg"><path d="m9.7285156 1.0761719c-1.215679-.0398-2.3833609.4407575-3.2324218 1.5234375-.4780531.60959-.727785 1.2481344-.828125 1.8964844-.0377501.24395-.0639244.4776631-.0527344.7207031.0029.0635-.0062.12421 0 .1875.305846 1.43499.401061 2.972245-.328125 4.109375-1.434995 1.8173201-2.7877289 3.7017081-4.2636719 5.4863281h4.2617187l2.8144532-3.71875c.443803-.85573 1.6557719-1.148833 3.0449216-1.2832031 1.104211-.0295 2.137836-.5087738 2.91211-1.4960938.872755-1.11289 1.057241-2.3678143.720703-3.5527343l-3.044922 2.2167968c-2.0146271-.28705-3.3519416-1.1184331-2.6171876-3.8457031l2.8046876-1.65625c-.704348-.35757-1.462002-.5640006-2.1914064-.5878906zm-1.1796875 1.3066406a1.0962011 1.0962011 0 0 0 -.4941406.6523437c-.418186 1.5522301-.277663 2.9124013.5 3.8320313.777663.91962 1.9030595 1.2270888 3.0234375 1.3867187a1.0962011 1.0962011 0 0 0 .798828-.1992187l1.085938-.7910156c-.095675.1877-.121089.3751731-.269532.5644531-.58826.75013-1.272491 1.0546519-2.078125 1.0761719a1.0962011 1.0962011 0 0 0 -.076172.0039062c-.739682.07155-1.4665911.1810138-2.1503901.4335938-.683799.25259-1.3754688.6907871-1.7617188 1.4355471l.0996094-.158203-2.4882813 3.285156h-1.4765624c.96443-1.24679 1.9298325-2.504058 2.8828124-3.710938a1.0962011 1.0962011 0 0 0 .0625-.08789c.9694322-1.511789.8136074-3.287159.5-4.808594.0105831.10802.0130243.0688306.0039063-.1308594-.006093-.13234.0077346-.2868831.0410156-.5019531.074935-.4842.2443459-.9256919.6074219-1.3886719.353386-.45062.7556031-.7208081 1.1894531-.8925781z" fill="#bebebe"/></svg>