<svg height="16" width="16" xmlns="http://www.w3.org/2000/svg"><path d="m7 2v3h1v-2c3.313708 0 6 2.6862915 6 6 0 3.313708-2.686292 6-6 6-3.3137085 0-6-2.686292-6-6 .0024366-1.3488538.4593069-2.6575395 1.296875-3.7148438l-.8730469-.5058593c-.9215248 1.2143346-1.421456 2.696298-1.4238281 4.2207031 0 3.865993 3.1340068 7 7 7 3.865993 0 7-3.134007 7-7 0-3.8659932-3.134007-7-7-7zm-2.8046875 4 3.0097656 3.6054688c.1889143.2483218.4829086.3942356.7949219.3945312.5522847 0 1-.4477153 1-1-.0006885-.3796696-.2163252-.7262017-.5566406-.8945312-1.3974357-.7024022-4.2480469-2.1054688-4.2480469-2.1054688z" fill="#bebebe"/></svg>