<svg height="16" width="16" xmlns="http://www.w3.org/2000/svg"><g transform="matrix(.86222 0 0 .86222 1.0304 -892.27)"><path d="m7.9643 1038.3c-3.3086 0-5.9943 2.6857-5.9943 5.9943s2.6857 5.9942 5.9943 5.9942 5.9943-2.6856 5.9943-5.9942-2.6857-5.9943-5.9943-5.9943zm0 .8457c2.8454 0 5.1486 2.3031 5.1486 5.1486 0 2.8454-2.3032 5.1486-5.1486 5.1486s-5.1486-2.3032-5.1486-5.1486c0-2.8455 2.3032-5.1486 5.1486-5.1486z" fill="#808080"/><path d="m10.5 1041.3a.42854.42854 0 0 0 -.28125.125l-2.25 2.2813-1.4062-1.4063a.43102.43102 0 1 0 -.625.5937l1.7188 1.7188a.42854.42854 0 0 0 .625 0l2.5625-2.5625a.42854.42854 0 0 0 -.34375-.75z" fill="#999"/></g></svg>