<svg height="16" viewBox="0 0 16 16" width="16" xmlns="http://www.w3.org/2000/svg"><g fill="#bebebe" transform="translate(-.431455)"><path d="m10.149414 1.1191398v12.0859382l-1.9726558-1.824219-.6445315.695312 2.9218753 2.703125h.339843l2.921875-2.703125-.644531-.695312-1.972656 1.824219v-12.0859382z"/><path d="m4.3013867 1.347656a1.1525424 1.1525424 0 0 0 -1.1542969 1.1523438 1.1525424 1.1525424 0 0 0 1.1542969 1.1523437 1.1525424 1.1525424 0 0 0 1.1523437-1.1523437 1.1525424 1.1525424 0 0 0 -1.1523437-1.1523438zm0 5.5a1.1525424 1.1525424 0 0 0 -1.1542969 1.1523438 1.1525424 1.1525424 0 0 0 1.1542969 1.1523437 1.1525424 1.1525424 0 0 0 1.1523437-1.1523437 1.1525424 1.1525424 0 0 0 -1.1523437-1.1523438zm0 5.5a1.1525424 1.1525424 0 0 0 -1.1542969 1.152344 1.1525424 1.1525424 0 0 0 1.1542969 1.152344 1.1525424 1.1525424 0 0 0 1.1523437-1.152344 1.1525424 1.1525424 0 0 0 -1.1523437-1.152344z"/></g></svg>