<svg height="16" viewBox="0 0 4.2333332 4.2333335" width="16" xmlns="http://www.w3.org/2000/svg"><path d="m1.9323886 293.06933v.00045c-.053512.0114-.1034917.0388-.1417523.078l-.3543808.35438c-.00633.006-.010737.0139-.01639.0208-.1344179-.00013-.2565236-.002-.3663411 0-.80311558.0124-.97809104.11385-.97809104.90766v1.36082c0 .90721.22680366.90722 1.36082224.90722h1.3608223c1.1340185 0 1.3608222-.00001 1.3608222-.90722v-1.36082c0-.67155-.1266637-.84551-.6511747-.89083-.00917-.0131-.017851-.0263-.029236-.0376l-.3543808-.35438c-.052579-.0505-.1255458-.0796-.1984532-.0784h-.9355658c-.018836-.002-.037866-.002-.056701 0zm.5244836.68086c.6889312 0 1.2474204.55849 1.2474204 1.24742s-.5584892 1.24698-1.2474204 1.24698-1.2474204-.55805-1.2474204-1.24698.5584892-1.24742 1.2474204-1.24742zm0 .33976c-.5010409 0-.9072148.40661-.9072148.90766 0 .50104.4061739.90721.9072148.90721s.9072148-.40617.9072148-.90721c0-.50105-.4061739-.90766-.9072148-.90766zm-.2268037.45405c.1252603 0 .2268037.10111.2268037.22636 0 .12527-.1015434.22725-.2268037.22725s-.2268037-.10198-.2268037-.22725c0-.12525.1015434-.22636.2268037-.22636z" fill="#bebebe" transform="translate(0 -292.76665)"/></svg>