<svg height="16" width="16" xmlns="http://www.w3.org/2000/svg"><g fill="#bebebe"><path d="m1.9062 1a1.0011 1.0011 0 1 0 .0938 2h12a1.0001 1.0001 0 1 0 0-2h-12a1.0001 1.0001 0 0 0 -.0938 0z"/><path d="m1.9062 5a1.0011 1.0011 0 1 0 .0938 2h12a1.0001 1.0001 0 1 0 0-2h-12a1.0001 1.0001 0 0 0 -.0938 0z"/><path d="m1.9062 9a1.0011 1.0011 0 1 0 .0938 2h12a1.0001 1.0001 0 1 0 0-2h-12a1.0001 1.0001 0 0 0 -.0938 0z"/><path d="m1.9062 13a1.0011 1.0011 0 1 0 .0938 2h12a1.0001 1.0001 0 1 0 0-2h-12a1.0001 1.0001 0 0 0 -.09375 0z"/></g></svg>