<svg height="16" width="16.008" xmlns="http://www.w3.org/2000/svg"><g fill="#bebebe" transform="translate(-200.99 -787)"><path d="m213 795c0 2.2091-1.7909 4-4 4-1.4845 0-2.7785-.79916-3.4688-2l-3.4688 2c1.4291 2.4752 4.0794 4 6.9375 4 4.4183 0 8-3.5817 8-8h-4z"/><path d="m209 787c-1.4043 0-2.7838.36036-4 1.0625-3.8263 2.2091-5.1466 7.1112-2.9375 10.938l3.4688-2c-.33695-.58619-.53125-1.2754-.53125-2 0-2.2091 1.7909-4 4-4v-4z" opacity=".35"/><path d="m-28.13 239.59a2.8174 2.8174 0 1 1 -5.6348 0 2.8174 2.8174 0 1 1 5.6348 0z" transform="matrix(1.0649 0 0 1.0649 241.96 539.86)"/></g></svg>