<svg height="16.03" width="16.054" xmlns="http://www.w3.org/2000/svg"><g fill="#bebebe"><path d="m14.503503 7.707435-3.058593-1.621094c.0022-.0021.0057-.0018.0078-.0039l3.488283-3.488287c.244593-.2445938.27964-.6031729.08008-.8027348l-.480461-.4785156c-.199561-.1995619-.556187-.1645152-.80078.0800781l-3.435547 3.4355473-1.6777354-3.2148442v6.0937502z"/><path d="m1.5501521 8.3226527 3.058593 1.621094c-.0022.0021-.0057.0018-.0078.0039l-3.488283 3.4882873c-.24459299.244594-.27963999.603173-.08008.802735l.480461.478515c.199561.199562.556187.164515.80078-.08008l3.435547-3.435547 1.6777355 3.214844v-6.0937483z"/></g></svg>