<svg height="16" width="16" xmlns="http://www.w3.org/2000/svg" xmlns:xlink="http://www.w3.org/1999/xlink"><linearGradient id="a" gradientUnits="userSpaceOnUse" x1="9.647319" x2="13.687416" y1="14.423886" y2="9.582002"><stop offset="0" stop-color="#bebebe"/><stop offset=".50676125" stop-color="#bebebe" stop-opacity=".346847"/><stop offset="1" stop-color="#bebebe" stop-opacity="0"/></linearGradient><path d="m8.8652344 2.0859375v.019531a.85555656.85555656 0 0 1 -.8574219.855469c-.00284-.0000081-.00964 0-.017578 0-3.3447765 0-6.0214843 2.6767058-6.0214844 6.0214844 0 3.3447791 2.6793425 6.0390621 6.0214844 6.0390621 3.3157466 0 5.9832266-2.659613 6.0253906-5.9648434l-1.652344.046875c-.0452821 1.5303964-.8521811 2.8855884-2.0839841 3.6386724a.85555656.85555656 0 0 1 -.0059.0039c.122031-.07322.116991-.06917-.01563.0098-.100967.06076-.19174.108533-.2656245.146485a.85555656.85555656 0 0 1 -.00586.002c.00806-.004-.012491.0081-.064453.0332.092753-.04491.09878-.04552-.023437.01367a.85555656.85555656 0 0 1 -.00586.0039c-.045704.02169-.1025777.04758-.1699219.07617-.015959.0066-.043093.01888-.021484.0098a.85555656.85555656 0 0 1 -.00195 0c-.5292577.221195-1.109141.339843-1.7089844.339843-.3707223 0-.7383834-.04315-1.0957032-.134765-.2350091-.0602-.237283-.06035-.00586-.002a.85555656.85555656 0 0 1 -.00586-.002c-.060619-.01572-.1266458-.03481-.1972656-.05664a.85555656.85555656 0 0 1 -.00195 0c.03421.01064.030116.0098-.013672-.0039a.85555656.85555656 0 0 1 -.00195 0c-.3442754-.10796-.6622976-.258469-.9530876-.433604a.85555656.85555656 0 0 1 -.00195 0c.1022552.06186.1007308.06004-.00781-.0059v.002c-.087198-.05285-.1415048-.09361-.1679687-.111329a.85555656.85555656 0 0 1 -.00586-.0059c.086169.05897.015813.01353-.019531-.0098l-.00391-.002c-.018989-.01292.025284.01786-.00586-.0039-.064238-.04433-.110879-.08194-.1347656-.09961a.85555656.85555656 0 0 1 -.00781-.0039c-1.0687659-.805221-1.7539097-2.093144-1.7539097-3.5252861 0-2.4137876 1.9692717-4.390625 4.3847656-4.390625a.85555656.85555656 0 0 1 .8554687.8554687v.044922l.2734375-.2460938 1.5917974-1.4433594z" fill="url(#a)"/><path d="m7.8763988.35761585.1236012 2.60136855c-3.3403032 0-6.0097656 2.6694602-6.0097656 6.0097656 0 2.106131 1.0906099 3.918669 2.7070312 5v-2.195312c-.6479066-.768949-1.09375-1.723724-1.09375-2.804688 0-2.4191261 1.9773622-4.3964844 4.3964844-4.3964844l-.511717 2.5439625 4.07617-3.2197437z" fill="#bebebe"/></svg>