<svg height="16" width="16" xmlns="http://www.w3.org/2000/svg"><g fill="#bebebe" stroke-linecap="square" stroke-opacity=".566502"><path d="m3 3c-.5539994 0-1 .4460006-1 1v2c0 .5539994.4460006 1 1 1h2c.5539994 0 1-.4460006 1-1v-2c0-.5539994-.4460006-1-1-1zm0 1h2v2h-2z"/><path d="m11 3c-.553999 0-1 .4460006-1 1v2c0 .5539994.446001 1 1 1h2c.553999 0 1-.4460006 1-1v-2c0-.5539994-.446001-1-1-1zm0 1h2v2h-2z"/><path d="m3 10c-.5539994 0-1 .446001-1 1v2c0 .553999.4460006 1 1 1h2c.5539994 0 1-.446001 1-1v-2c0-.553999-.4460006-1-1-1zm0 1h2v2h-2z"/><path d="m11 10c-.553999 0-1 .446001-1 1v2c0 .553999.446001 1 1 1h2c.553999 0 1-.446001 1-1v-2c0-.553999-.446001-1-1-1zm0 1h2v2h-2z"/></g></svg>