<?xml version="1.0" encoding="UTF-8" standalone="no"?>
<!-- Created with Inkscape (http://www.inkscape.org/) -->

<svg
   xmlns:dc="http://purl.org/dc/elements/1.1/"
   xmlns:cc="http://creativecommons.org/ns#"
   xmlns:rdf="http://www.w3.org/1999/02/22-rdf-syntax-ns#"
   xmlns:svg="http://www.w3.org/2000/svg"
   xmlns="http://www.w3.org/2000/svg"
   xmlns:sodipodi="http://sodipodi.sourceforge.net/DTD/sodipodi-0.dtd"
   xmlns:inkscape="http://www.inkscape.org/namespaces/inkscape"
   width="24"
   height="24"
   id="svg3140"
   version="1.1"
   inkscape:version="0.48.3.1 r9886"
   sodipodi:docname="view-list-images-symbolic.svgz">
  <defs
     id="defs3142" />
  <sodipodi:namedview
     id="base"
     pagecolor="#ffffff"
     bordercolor="#666666"
     borderopacity="1.0"
     inkscape:pageopacity="0.0"
     inkscape:pageshadow="2"
     inkscape:zoom="7.589415"
     inkscape:cx="-2.8790905"
     inkscape:cy="18.007783"
     inkscape:document-units="px"
     inkscape:current-layer="g4978"
     showgrid="true"
     inkscape:window-width="1366"
     inkscape:window-height="696"
     inkscape:window-x="0"
     inkscape:window-y="0"
     inkscape:window-maximized="1"
     showguides="true"
     inkscape:guide-bbox="true">
    <inkscape:grid
       type="xygrid"
       id="grid3178"
       empspacing="8"
       visible="true"
       enabled="true"
       snapvisiblegridlinesonly="true" />
  </sodipodi:namedview>
  <metadata
     id="metadata3145">
    <rdf:RDF>
      <cc:Work
         rdf:about="">
        <dc:format>image/svg+xml</dc:format>
        <dc:type
           rdf:resource="http://purl.org/dc/dcmitype/StillImage" />
        <dc:title></dc:title>
      </cc:Work>
    </rdf:RDF>
  </metadata>
  <g
     inkscape:label="Layer 1"
     inkscape:groupmode="layer"
     id="layer1"
     transform="translate(0,-1028.3622)">
    <rect
       style="color:#000000;fill:none;stroke:none;stroke-width:7.5;marker:none;visibility:visible;display:inline;overflow:visible;enable-background:accumulate"
       id="rect4198"
       width="35.999981"
       height="35.999981"
       x="0"
       y="1016.3622" />
    <g
       id="g4978"
       transform="translate(-60,548.00002)">
      <path
         style="color:#000000;fill:#bebebe;fill-opacity:1;fill-rule:nonzero;stroke:none;stroke-width:1;marker:none;visibility:visible;display:inline;overflow:visible;enable-background:accumulate"
         d="M 7.3125 6 C 3.771484 6.0547 3 6.5 3 10 L 3 16 C 3 20 4 20 9 20 L 15 20 C 20 20 21 20 21 16 L 21 10 C 21 6 20 6 15 6 L 9 6 C 8.375 6 7.818359 5.992 7.3125 6 z M 13.5 7 C 16.537566 7 19 9.4624339 19 12.5 C 19 15.537566 16.537566 18 13.5 18 C 10.462434 18 8 15.537566 8 12.5 C 8 9.4624339 10.462434 7 13.5 7 z "
         transform="translate(60,480.36218)"
         id="path3802" />
      <path
         style="fill:#bebebe;stroke:none;fill-opacity:1"
         d="m 71.1875,484.36218 c -0.235943,0.0501 -0.456305,0.17134 -0.625,0.34375 L 69,486.26843 c -0.281804,0.28031 -0.414534,0.70263 -0.34375,1.09375 l 9.6875,0 C 78.41453,486.97106 78.2818,486.54874 78,486.26843 l -1.5625,-1.5625 c -0.231824,-0.22276 -0.553544,-0.34915 -0.875,-0.34375 l -4.125,0 c -0.08305,-0.008 -0.166953,-0.008 -0.25,0 z"
         id="path3776"
         inkscape:connector-curvature="0"
         sodipodi:nodetypes="cccccccccc" />
      <path
         style="color:#000000;fill:#bebebe;fill-opacity:1;fill-rule:nonzero;stroke:none;stroke-width:1;marker:none;visibility:visible;display:inline;overflow:visible;enable-background:accumulate"
         d="M 13.5 8.5 C 11.290861 8.5 9.5 10.290861 9.5 12.5 C 9.5 14.709139 11.290861 16.5 13.5 16.5 C 15.709139 16.5 17.5 14.709139 17.5 12.5 C 17.5 10.290861 15.709139 8.5 13.5 8.5 z M 12.5 10.5 C 13.052285 10.5 13.5 10.947715 13.5 11.5 C 13.5 12.052285 13.052285 12.5 12.5 12.5 C 11.947715 12.5 11.5 12.052285 11.5 11.5 C 11.5 10.947715 11.947715 10.5 12.5 10.5 z "
         transform="translate(60,480.36218)"
         id="path3806" />
    </g>
  </g>
</svg>
