<svg height="16.03" width="16.054" xmlns="http://www.w3.org/2000/svg"><g fill="#bebebe"><path d="m9.2734375 1.1835938 3.0585935 1.6210937c-.002158.0021089-.005671.0017654-.007812.0039063l-3.4882815 3.4882812c-.2445934.2445934-.27964.6031725-.0800781.8027344l.4804687.4785156c.1995619.1995619.5561879.1645152.8007809-.0800781l3.435547-3.4355469 1.677735 3.2148438v-6.09375z"/><path d="m6.7802273 14.846494-3.058593-1.621094c.0022-.0021.0057-.0018.0078-.0039l3.488283-3.488287c.244593-.2445938.27964-.6031729.08008-.8027348l-.480461-.4785156c-.199561-.1995619-.556187-.1645152-.80078.0800781l-3.435547 3.4355473-1.67773537-3.2148442v6.0937502z"/></g></svg>