<svg height="16" width="16" xmlns="http://www.w3.org/2000/svg"><g fill="#bebebe"><path d="m3 6v1h7v-1z" fill="#bebebe"/><path d="m6.5 1a5.5 5.5 0 0 0 -5.5 5.5 5.5 5.5 0 0 0 5.5 5.5 5.5 5.5 0 0 0 3.0507812-.927734c.091132-.0037.1814108.02511.2421876.0957l3.5937502 3.789062c.05327.05867.05741.07223.162109.06641.125842-.007.2594-.05761.294922-.09766l1.078125-1.242187c.135176-.155565.136427-.294211.03125-.392578l-3.755859-3.5605442c-.02532-.017945-.04771-.039685-.06641-.064453-.0268-.041775-.03881-.088504-.04297-.1367187a5.5 5.5 0 0 0 .912114-3.0292971 5.5 5.5 0 0 0 -5.5-5.5zm0 1a4.5 4.5 0 0 1 4.5 4.5 4.5 4.5 0 0 1 -4.5 4.5 4.5 4.5 0 0 1 -4.5-4.5 4.5 4.5 0 0 1 4.5-4.5z"/></g></svg>