<svg height="16" width="16" xmlns="http://www.w3.org/2000/svg"><g fill="#bebebe"><g transform="matrix(-1 0 0 1 -161 -867)"><rect height="1" opacity=".35" rx=".375" width="5" x="-171" y="872"/><rect height="1" opacity=".35" rx=".375" width="5" x="-171" y="874"/><rect height="1" opacity=".35" rx=".375" width="5" x="-171" y="876"/><rect height="1" opacity=".35" rx=".375" width="5" x="-171" y="870"/></g><g stroke-linecap="square" stroke-opacity=".566502"><path d="m3 0c-.5539994 0-1 .44600055-1 1v11c0 .553999.4460006 1 1 1h9c.553999 0 1-.446001 1-1v-11c0-.55399945-.446001-1-1-1zm0 1h9v11h-9z"/><path d="m14 2v1 10.625.375h-.375-8.625-1c0 .553998.4460012 1 1 1h9c.553998 0 1-.446002 1-1v-11c0-.5539989-.446002-1-1-1z"/></g></g></svg>