<svg height="16" width="16" xmlns="http://www.w3.org/2000/svg"><g fill="#bebebe" stroke-linecap="square" stroke-opacity=".566502"><path d="m2 1c-.5539994 0-1 .4460006-1 1v13c0 .553999.4460006 1 1 1h11c.553999 0 1-.446001 1-1v-13c0-.5539994-.446001-1-1-1zm0 1h11v11l-.5 1.5-.5.5h-10z"/><path d="m3 0v3h1v-3zm2 0v3h1v-3zm2 0v3h1v-3zm2 0v3h1v-3zm2 0v3h1v-3z"/><path d="m3.5 5c-.2769994 0-.5.2230006-.5.5v2c0 .2769994.2230006.5.5.5h2c.2769994 0 .5-.2230006.5-.5v-2c0-.2769994-.2230006-.5-.5-.5zm.5 1h1v1h-1zm3 0v1h5v-1zm-3.5 3c-.2769994 0-.5.2230006-.5.5v2c0 .277.2230006.5.5.5h2c.2769994 0 .5-.223.5-.5v-2c0-.2769994-.2230006-.5-.5-.5zm.5 1h1v1h-1zm3 0v1h5v-1z"/></g></svg>