<svg height="16" width="16" xmlns="http://www.w3.org/2000/svg"><g fill="#bebebe"><path d="m2.5 1c-.8223514 0-1.5.6776486-1.5 1.5v11c0 .822351.6776486 1.5 1.5 1.5h6.2617188a4.5 4.5 0 0 1 -.4980469-1h-5.7636719c-.2856486 0-.5-.214351-.5-.5v-8.5h12v3.2636719a4.5 4.5 0 0 1 1 .4960937v-6.2597656c0-.8223514-.677649-1.5-1.5-1.5z"/><path d="m12.5 9.0000002c-1.932999 0-3.4999997 1.5669998-3.4999997 3.4999998s1.5670007 3.500001 3.4999997 3.500001c1.933001 0 3.5-1.567001 3.5-3.500001s-1.566999-3.4999998-3.5-3.4999998zm-.5.9999998h1v2h2v1h-2v2.000001h-1v-2.000001h-2v-1h2z" fill-rule="evenodd" stroke-width=".82578"/></g></svg>