<svg height="16" width="16" xmlns="http://www.w3.org/2000/svg"><g fill="#bebebe" transform="translate(-833 -157)"><path d="m842 163.95-6.931.068c-.583.006-.809.33-.91.613-.008.015-.01.031-.016.047-.057.181-.074.34-.074.34v6c0 .523.476 1 1 1h5l1.931-.069c.524 0 1-.476 1-1v-6s-.018-.167-.08-.357c-.004-.008-.004-.017-.008-.026-.1-.284-.327-.623-.912-.617zm-7 2.05h7v5h-4.096l-2.835.018v-.018h-.069z"/><path d="m843 158 2.25 2.223-1.714 1.714-.027.027c-.38.42-.379 1.068.027 1.473a1.07 1.07 0 0 0 1.473.054l.214-.214 1.554-1.527 2.223 2.25v-6z"/></g></svg>