<svg height="16" width="16" xmlns="http://www.w3.org/2000/svg"><g fill="#bebebe"><path d="m6.4609375.97460938c-3.0429888 0-5.48828125 2.44724492-5.48828125 5.49023442 0 3.0429875 2.44734485 5.5195312 5.48828125 5.5195312 1.082307 0 2.0857358-.33863 2.9394531-.880859a.30202806.30202806 0 0 1 .0976563-.033204.30202806.30202806 0 0 1 .2949219.097657l3.5937502 3.789062c.05327.05867.057405.072226.162109.066407.125842-.007.2594-.057607.294922-.097657l1.078125-1.242187c.135176-.155565.136427-.294211.03125-.392578l-1.074219-1.019532-.576172.5625a.87161649.87161649 0 0 1 -1.21875 0l-2.7187496-2.65625a.87161649.87161649 0 0 1 -.0175782-.017578c-.2173287-.2250382-.3624803-.5187524-.4453124-.8242185-.661781.563659-1.5072459.9179685-2.4414063.9179685-2.0875977 0-3.7578125-1.704886-3.7578125-3.7890622 0-2.0841771 1.6736354-3.7578126 3.7578125-3.7578126.9003166 0 1.7171216.3254964 2.3691406.8476563.0219206-.4522584.1967281-.9294865.5175781-1.2617187a.87161649.87161649 0 0 1 .0175782-.0175782l.2890625-.2832031c-.9029124-.6379745-2.0030772-1.01757793-3.1933594-1.01757812zm5.3496095 4.15820312c-.305137.2316915-.670181.3867187-1.117188.3867187h-.578125c.079354.3030272.134766.6166727.134766.9453126 0 .1606104-.029279.3133038-.048828.46875h.492187c.486949 0 .87722.1836365 1.197266.4511718.053892-.2984278.089844-.6026859.089844-.9199218 0-.4604402-.062939-.9052404-.169922-1.3320313z"/><path d="m15.692212 3.6486417v1h-1c-.25721.00004-.52849-.12938-.71875-.3125l-1.28125-1.2812503-1.281251 1.2812503c-.19051.18288-.46155.3125-.71875.3125h-.9999986v-1c0-.30979.0901-.5520703.281249-.7500003l2.7187506-2.65625 2.71875 2.65625c.19132.19788.28125.4402003.28125.7500003zm0 4.1562489v1.000001c0 .309799-.08993.55212-.28125.75l-2.71875 2.6562504-2.7187506-2.6562504c-.191149-.19793-.281249-.440211-.281249-.75v-1.000001h.9999986c.2572 0 .52824.12962.71875.3125l1.281251 1.281251 1.28125-1.281251c.19026-.18312.46154-.31254.71875-.3125z"/></g></svg>