<svg height="16" width="16" xmlns="http://www.w3.org/2000/svg"><g fill="#bebebe"><path d="m6.5 1a5.5 5.5 0 0 0 -5.5 5.5 5.5 5.5 0 0 0 5.5 5.5 5.5 5.5 0 0 0 3.0507812-.927734c.0911325-.003683.1814107.025106.2421876.095703l3.5937502 3.789062c.05327.05867.05741.072226.162109.066407.125842-.007.2594-.057607.294922-.097657l1.078125-1.242187c.135176-.155565.136427-.294211.03125-.392578l-1.751953-1.660157-.501953.490235a1.0001 1.0001 0 0 1 -1.398438 0l-2.0859372-2.03711a4.5 4.5 0 0 1 -2.7148438.916016 4.5 4.5 0 0 1 -4.5-4.5 4.5 4.5 0 0 1 4.5-4.5 4.5 4.5 0 0 1 2.0957031.5214844l.7441407-.7265625a5.5 5.5 0 0 0 -2.8398438-.7949219zm4.994141 3.2089844c-.27025.2269827-.537023.4585087-.796875.6699218a4.5 4.5 0 0 1 .302734 1.6210938 4.5 4.5 0 0 1 -.042969.578125c.297743.2409884.584375.4915007.871094.75a5.5 5.5 0 0 0 .171875-1.328125 5.5 5.5 0 0 0 -.505859-2.2910156z"/><path d="m8 3h1c-.8505614 1.1027947-1.4933781 1.9933783-2.5 3 1.1190166.9317284 1.5725404 1.976597 2.5 2.9999995h-1c-.30979 0-.5520703-.0901-.7500003-.281249l-2.65625-2.718751 2.65625-2.7187495c.19788-.19132.4402003-.28125.7500003-.28125zm3 .0000005h1.000001c.309799 0 .55212.08993.75.28125l2.65625 2.7187495-2.65625 2.718751c-.19793.191149-.440343.2722081-.75.281249h-1.000001c.583206-1.2655717 1.20125-2.0137476 2.187502-2.9999995-1.164652-.8312042-1.521382-1.8781147-2.187502-3z" transform="matrix(0 1 -1 0 18.000054 -3.999946)"/></g></svg>