<svg height="16" width="16" xmlns="http://www.w3.org/2000/svg"><g fill="#bebebe"><path d="m6.5 1a5.5 5.5 0 0 0 -5.5 5.5 5.5 5.5 0 0 0 5.5 5.5 5.5 5.5 0 0 0 3.0507812-.927734c.0911325-.003683.1814107.025106.2421876.095703l3.5937502 3.789062c.05327.05867.05741.072226.162109.066407.125842-.007.2594-.057607.294922-.097657l1.078125-1.242187c.135176-.155565.136427-.294211.03125-.392578l-3.470703-3.291016h-.482422a1.0001 1.0001 0 0 1 -.962891-.7265625 4.5 4.5 0 0 1 -.146484.1796875 1.0001 1.0001 0 0 1 -.4433594.4394531 4.5 4.5 0 0 1 -2.9472656 1.1074219 4.5 4.5 0 0 1 -4.5-4.5 4.5 4.5 0 0 1 4.5-4.5 4.5 4.5 0 0 1 .9121094.09375c.1961358-.0558285.3956374-.09375.5878906-.09375h1a1.0001 1.0001 0 0 1 .8574219 1.5117188 4.5 4.5 0 0 1 1.1425781 2.9882812 4.5 4.5 0 0 1 -.0625.7070312c.307229-.3968704.638619-.7593326.976562-1.1347656-.80028-.8525807-1.303597-1.7711921-1.773437-2.5625a1.0001 1.0001 0 0 1 .042969-1.0839844 5.5 5.5 0 0 0 -3.683594-1.4257812z"/><path d="m8 3h1c-.8505614 1.1027947-1.4933781 1.9933783-2.5 3 1.1190166.9317284 1.5725404 1.976597 2.5 2.9999995h-1c-.30979 0-.5520703-.0901-.7500003-.281249l-2.65625-2.718751 2.65625-2.7187495c.19788-.19132.4402003-.28125.7500003-.28125zm3 .0000005h1.000001c.309799 0 .55212.08993.75.28125l2.65625 2.7187495-2.65625 2.718751c-.19793.191149-.440343.2722081-.75.281249h-1.000001c.583206-1.2655717 1.20125-2.0137476 2.187502-2.9999995-1.164652-.8312042-1.521382-1.8781147-2.187502-3z"/></g></svg>