<svg height="16" width="16" xmlns="http://www.w3.org/2000/svg"><g fill="#bebebe"><path d="m6.5 1a5.5 5.5 0 0 0 -5.5 5.5 5.5 5.5 0 0 0 5.5 5.5 5.5 5.5 0 0 0 3.0507812-.927734c.091133-.0037.1814107.02511.2421876.0957l3.5937502 3.789062c.05327.05867.05741.07223.162109.06641.125842-.007.2594-.05761.294922-.09766l1.078125-1.242187c.135176-.155565.136427-.294211.03125-.392578l-3.470703-3.291013h-.482422a1.0001 1.0001 0 0 1 -.962891-.7265625 4.5 4.5 0 0 1 -.146484.1796875 1.0001 1.0001 0 0 1 -.4433594.4394531 4.5 4.5 0 0 1 -2.9472656 1.1074219 4.5 4.5 0 0 1 -4.5-4.5 4.5 4.5 0 0 1 4.5-4.5 4.5 4.5 0 0 1 .9121094.09375c.1961358-.0558285.3956374-.09375.5878906-.09375h1a1.0001 1.0001 0 0 1 .8574219 1.5117188 4.5 4.5 0 0 1 1.1425781 2.9882812 4.5 4.5 0 0 1 -.0625.7070312c.307229-.3968704.638619-.7593326.976562-1.1347656-.80028-.8525807-1.303597-1.7711921-1.773437-2.5625a1.0001 1.0001 0 0 1 .042969-1.0839844 5.5 5.5 0 0 0 -3.683594-1.4257812z"/><path d="m4.5 6 2.65625 2.71875c.1979298.1911488.4402103.28125.75.28125h1c-.927459-1.023401-1.3809845-2.068273-2.5-3 1.0066209-1.006621 1.64944-1.897206 2.5-3h-1c-.3097997 0-.5521202.08993-.75.28125zm6.40625 3h1c.30979 0 .55207-.090101.75-.28125l2.65625-2.71875-2.65625-2.71875c-.19788-.19132-.4402-.28125-.75-.28125h-1c.850561 1.102794 1.493379 1.993379 2.5 3-1.119015.931727-1.572541 1.976599-2.5 3z"/></g></svg>