<svg height="16" width="16" xmlns="http://www.w3.org/2000/svg"><g fill="#bebebe"><path d="m6.4609375.97460938c-3.0429888 0-5.48828125 2.44724492-5.48828125 5.49023442 0 3.0429875 2.44734485 5.5195312 5.48828125 5.5195312 1.082307 0 2.0857358-.33863 2.9394531-.880859a.30202806.30202806 0 0 1 .0976563-.033204.30202806.30202806 0 0 1 .2949219.097657l3.5937502 3.789062c.05327.05867.057405.072226.162109.066407.125842-.007.2594-.057607.294922-.097657l1.078125-1.242187c.135176-.155565.136427-.294211.03125-.392578l-3.755859-3.5605472a.30202806.30202806 0 0 1 -.066407-.0644532.30202806.30202806 0 0 1 -.044921-.203125.87161649.87161649 0 0 1 -.447266-.7578125v-1c0-.550014.228296-.9822571.554687-1.3222656a.87161649.87161649 0 0 1 .011719-.0136719l.664063-.6640625-.664063-.6640625a.87161649.87161649 0 0 1 -.011719-.0136718c-.327879-.3406641-.554773-.7726096-.554687-1.3222657v-.8242187c-1.013451-1.1664295-2.5088791-1.90624975-4.1777345-1.90625002zm.8925781.85937502h1a.87161649.87161649 0 0 1 .8710938.8710937v1c.0000099.0638771-.0116549.1209015-.0175782.1816407.6416114.6713871 1.0429688 1.5738888 1.0429688 2.578125 0 1.0745616-.4553677 2.0397719-1.1777344 2.7304687a.87161649.87161649 0 0 1 -.3710937.3066406c-.6297277.4662618-1.3993472.7519529-2.2402344.7519529-2.0875977 0-3.7578125-1.704886-3.7578125-3.7890622 0-1.7618376 1.2013269-3.2189731 2.8300781-3.6308594l.4472657-.4570313a.87161649.87161649 0 0 1 .0175781-.0175781c.3553774-.3435962.877008-.5253906 1.3554687-.5253906z"/><path d="m7.3540791 2.7048727h1v1c.00004.2572095-.12938.5284895-.3125.7187495l-1.2812503 1.28125 1.2812503 1.281251c.18288.19051.3125.46155.3125.71875v.999999h-1c-.30979 0-.5520703-.0901-.7500003-.281249l-2.65625-2.718751 2.65625-2.7187495c.19788-.19132.4402003-.28125.7500003-.28125zm4.1562489 0h1.000001c.309799 0 .55212.08993.75.28125l2.65625 2.7187495-2.65625 2.718751c-.19793.191149-.440211.281249-.75.281249h-1.000001v-.999999c0-.2572.12962-.52824.3125-.71875l1.281251-1.281251-1.281251-1.28125c-.18312-.19026-.31254-.46154-.3125-.7187495z"/></g></svg>