<svg height="16" width="16" xmlns="http://www.w3.org/2000/svg"><g fill="#bebebe"><path d="m6.5 1a5.5 5.5 0 0 0 -5.5 5.5 5.5 5.5 0 0 0 5.5 5.5 5.5 5.5 0 0 0 3.0507812-.927734c.091133-.0037.1814107.02511.2421876.0957l3.5937502 3.789062c.05327.05867.05741.07223.162109.06641.125842-.007.2594-.05761.294922-.09766l1.078125-1.242187c.135176-.155565.136427-.294211.03125-.392578l-1.751953-1.660157-.501953.490235a1.0001 1.0001 0 0 1 -1.398438 0l-2.0859372-2.037107a4.5 4.5 0 0 1 -2.7148438.916016 4.5 4.5 0 0 1 -4.5-4.5 4.5 4.5 0 0 1 4.5-4.5 4.5 4.5 0 0 1 2.0957031.5214844l.7441407-.7265625a5.5 5.5 0 0 0 -2.8398438-.7949219zm4.994141 3.2089844c-.27025.2269827-.537023.4585087-.796875.6699218a4.5 4.5 0 0 1 .302734 1.6210938 4.5 4.5 0 0 1 -.042969.578125c.297743.2409884.584375.4915007.871094.75a5.5 5.5 0 0 0 .171875-1.328125 5.5 5.5 0 0 0 -.505859-2.2910156z"/><path d="m12 .59375-2.71875 2.65625c-.1911488.1979298-.28125.4402103-.28125.75v1c1.023401-.9274587 2.068273-1.3809845 3-2.5 1.006621 1.0066209 1.897206 1.6494395 3 2.5v-1c0-.3097997-.08993-.5521202-.28125-.75zm-3 6.40625v1c0 .3097897.0901012.5520702.28125.75l2.71875 2.65625 2.71875-2.65625c.19132-.1978798.28125-.4402003.28125-.75v-1c-1.102794.8505605-1.993379 1.4933791-3 2.5-.931727-1.1190155-1.976599-1.5725413-3-2.5z"/></g></svg>