<svg height="16" width="16" xmlns="http://www.w3.org/2000/svg"><g fill="#bebebe"><path d="m6.4600883.97554511c-3.0429888 0-5.48836989 2.44538039-5.48836989 5.48836989 0 3.0429875 2.44743349 5.521039 5.48836989 5.521039 1.082307 0 2.0864808-.339831 2.9401981-.88206a.30202806.30202806 0 0 1 .098007-.03267.30202806.30202806 0 0 1 .2940198.09801l3.5935758 3.789589c.05327.05867.05864.07116.163344.06534.125842-.007.258498-.05796.29402-.09801l1.078073-1.241417c.135176-.155565.137847-.293659.03267-.392026l-3.75692-3.5609072a.30202806.30202806 0 0 1 -.06534-.065338.30202806.30202806 0 0 1 -.03267-.2613509.30202806.30202806 0 0 1 .03267-.065338c.527555-.8465054.849391-1.808325.849391-2.8748604 0-3.0409373-2.478051-5.48836989-5.5210393-5.48836989zm0 1.73145009c2.0841766 0 3.7895887 1.6693224 3.7895887 3.7569198 0 2.0875967-1.7019915 3.789589-3.7895887 3.789589-2.0875977 0-3.7569199-1.7054127-3.7569199-3.789589 0-2.084177 1.6727428-3.7569198 3.7569199-3.7569198z"/><path d="m4.2644993 5.7000891h-.8243699v-.4950431q.8922592 0 1.052284-.6760265h.4509788v3.7740376h-.6788929z"/><path d="m6.7795095 7.5258928v.7771643h-.7273852v-.7771643zm0-1.9908181v.7771642h-.7273852v-.7771642z"/><path d="m8.176089 5.7000891h-.8243699v-.4950431q.8922593 0 1.052284-.6760265h.4509788v3.7740376h-.6788929z"/></g></svg>