<svg height="16" width="16" xmlns="http://www.w3.org/2000/svg"><g fill="#bebebe"><path d="m6.5 1a5.5 5.5 0 0 0 -5.5 5.5 5.5 5.5 0 0 0 5.5 5.5 5.5 5.5 0 0 0 3.0507812-.927734c.0911324-.003683.1814108.025106.2421876.095703l3.5937502 3.789062c.05327.05867.05741.072227.162109.066407.125842-.007.2594-.057607.294922-.097657l1.078125-1.242187c.135176-.155565.136427-.294211.03125-.392578l-3.755859-3.5605472c-.02532-.017945-.047707-.0396852-.066407-.0644532-.026797-.0417746-.038807-.0885039-.042968-.1367187a5.5 5.5 0 0 0 .912109-3.0292969 5.5 5.5 0 0 0 -5.5-5.5zm0 1a4.5 4.5 0 0 1 4.5 4.5 4.5 4.5 0 0 1 -4.5 4.5 4.5 4.5 0 0 1 -4.5-4.5 4.5 4.5 0 0 1 4.5-4.5z"/><path d="m4 4v1 3 1h5v-1-3-1zm1 1h3v3h-3z" fill="#bebebe"/></g></svg>