<?xml version="1.0" encoding="UTF-8" standalone="no"?>
<svg
   xmlns:dc="http://purl.org/dc/elements/1.1/"
   xmlns:cc="http://creativecommons.org/ns#"
   xmlns:rdf="http://www.w3.org/1999/02/22-rdf-syntax-ns#"
   xmlns:svg="http://www.w3.org/2000/svg"
   xmlns="http://www.w3.org/2000/svg"
   xmlns:xlink="http://www.w3.org/1999/xlink"
   xmlns:sodipodi="http://sodipodi.sourceforge.net/DTD/sodipodi-0.dtd"
   xmlns:inkscape="http://www.inkscape.org/namespaces/inkscape"
   height="24"
   width="24"
   id="svg2"
   version="1.1"
   inkscape:version="0.92.2 (unknown)"
   sodipodi:docname="audacious-symbolic.svg"
   inkscape:export-filename="/home/winardiaris/.icons/Tebu/apps/96/audacious.png"
   inkscape:export-xdpi="90"
   inkscape:export-ydpi="90">
  <metadata
     id="metadata70">
    <rdf:RDF>
      <cc:Work
         rdf:about="">
        <dc:format>image/svg+xml</dc:format>
        <dc:type
           rdf:resource="http://purl.org/dc/dcmitype/StillImage" />
        <dc:title />
      </cc:Work>
    </rdf:RDF>
  </metadata>
  <sodipodi:namedview
     pagecolor="#ffffff"
     bordercolor="#666666"
     borderopacity="1"
     objecttolerance="10"
     gridtolerance="10"
     guidetolerance="10"
     inkscape:pageopacity="0"
     inkscape:pageshadow="2"
     inkscape:window-width="1366"
     inkscape:window-height="716"
     id="namedview68"
     showgrid="false"
     inkscape:zoom="6.9532167"
     inkscape:cx="18.30678"
     inkscape:cy="-4.9327458"
     inkscape:window-x="0"
     inkscape:window-y="27"
     inkscape:window-maximized="1"
     inkscape:current-layer="svg2" />
  <defs
     id="defs4">
    <linearGradient
       gradientTransform="matrix(1.0149,0,0,1.0238,-0.838,-1.144)"
       id="linearGradient3111"
       gradientUnits="userSpaceOnUse"
       y2="5.9879999"
       y1="90"
       x2="0">
      <stop
         style="stop-color:#cccccc;stop-opacity:1"
         id="stop4278"
         stop-color="#656565" />
      <stop
         style="stop-color:#ebebeb;stop-opacity:1"
         id="stop4280"
         offset="1"
         stop-color="#c1c1c1" />
    </linearGradient>
    <linearGradient
       gradientTransform="matrix(0,-1.0303,1.0303,0,-1.454,97.45)"
       id="linearGradient4252"
       gradientUnits="userSpaceOnUse"
       y2="47.820999"
       y1="48"
       x2="108.86"
       x1="15">
      <stop
         id="stop4254"
         stop-color="#fff"
         style="stop-color:#000000;stop-opacity:1" />
      <stop
         id="stop4256"
         offset="1"
         stop-opacity="0"
         stop-color="#fff"
         style="stop-color:#000000;stop-opacity:0" />
    </linearGradient>
    <linearGradient
       x1="16"
       x2="80"
       gradientUnits="userSpaceOnUse"
       id="linearGradient3863-8"
       gradientTransform="matrix(0,-1.0557426,1.0465649,0,-2.36035,95.6205)">
      <stop
         stop-color="#050505"
         id="stop7" />
      <stop
         stop-color="#191919"
         offset="1"
         id="stop9" />
    </linearGradient>
    <linearGradient
       x1="15"
       x2="108.86"
       y1="48"
       y2="47.820999"
       gradientUnits="userSpaceOnUse"
       id="linearGradient3814"
       gradientTransform="matrix(0,-1.0303,1.0303,0,-1.454,97.45)">
      <stop
         stop-color="#fff"
         id="stop12" />
      <stop
         stop-color="#fff"
         stop-opacity="0"
         offset="1"
         id="stop14" />
    </linearGradient>
    <linearGradient
       x2="0"
       y1="69.963997"
       y2="34.946999"
       gradientUnits="userSpaceOnUse"
       id="linearGradient3836"
       gradientTransform="matrix(1.0185536,0,0,1.0081256,-1.0633078,-3.682981)"
       xlink:href="#linearGradient3111">
      <stop
         stop-color="#737373"
         id="stop17" />
      <stop
         stop-color="#cecece"
         offset="1"
         id="stop19" />
    </linearGradient>
    <linearGradient
       x2="0"
       xlink:href="#linearGradient3814"
       y1="63.18"
       y2="12.88"
       gradientUnits="userSpaceOnUse"
       id="linearGradient3878"
       gradientTransform="matrix(1.0149,0,0,1.0238,-58.193932,1.0881356)" />
    <linearGradient
       x2="0"
       xlink:href="#linearGradient3814"
       y1="20.221001"
       y2="138.66"
       gradientUnits="userSpaceOnUse"
       id="linearGradient3613-3" />
    <clipPath
       id="clipPath3613-29">
      <rect
         x="6"
         rx="6"
         y="6"
         height="84"
         width="84"
         id="rect24" />
    </clipPath>
    <filter
       x="-0.192"
       y="-0.192"
       height="1.3839999"
       id="filter3794-0"
       width="1.3839999"
       style="color-interpolation-filters:sRGB">
      <feGaussianBlur
         stdDeviation="5.28"
         id="feGaussianBlur27" />
    </filter>
    <linearGradient
       x2="0"
       y1="90"
       y2="5.9879999"
       gradientUnits="userSpaceOnUse"
       id="linearGradient4282"
       gradientTransform="matrix(1.0149,0,0,1.0238,-0.838,-1.144)">
      <stop
         stop-color="#656565"
         id="stop30"
         style="stop-color:#cccccc;stop-opacity:1" />
      <stop
         stop-color="#c1c1c1"
         offset="1"
         id="stop32"
         style="stop-color:#ebebeb;stop-opacity:1" />
    </linearGradient>
    <linearGradient
       x2="0"
       y1="90"
       y2="5.988"
       gradientUnits="userSpaceOnUse"
       id="linearGradient3111-2"
       gradientTransform="matrix(1.0149,0,0,1.0238,-0.838,-1.144)">
      <stop
         stop-color="#656565"
         id="stop4278-6"
         style="stop-color:#cccccc;stop-opacity:1" />
      <stop
         stop-color="#c1c1c1"
         offset="1"
         id="stop4280-0"
         style="stop-color:#ebebeb;stop-opacity:1" />
    </linearGradient>
    <linearGradient
       gradientTransform="matrix(0,-1.0557426,1.0465649,0,-2.36035,95.6205)"
       id="linearGradient3863-8-5"
       gradientUnits="userSpaceOnUse"
       x2="80"
       x1="16">
      <stop
         id="stop7-8"
         stop-color="#050505" />
      <stop
         id="stop9-7"
         offset="1"
         stop-color="#191919" />
    </linearGradient>
    <linearGradient
       xlink:href="#linearGradient3111-2"
       gradientTransform="matrix(1.0185536,0,0,1.0081256,-1.0633078,-3.682981)"
       id="linearGradient3836-7"
       gradientUnits="userSpaceOnUse"
       y2="34.946999"
       y1="69.963997"
       x2="0">
      <stop
         id="stop17-2"
         stop-color="#737373" />
      <stop
         id="stop19-8"
         offset="1"
         stop-color="#cecece" />
    </linearGradient>
    <linearGradient
       gradientTransform="matrix(1.0149,0,0,1.0238,-58.193932,1.0881356)"
       id="linearGradient3878-3"
       gradientUnits="userSpaceOnUse"
       y2="12.88"
       y1="63.18"
       xlink:href="#linearGradient3814"
       x2="0" />
    <linearGradient
       id="linearGradient3613-3-5"
       gradientUnits="userSpaceOnUse"
       y2="138.66"
       y1="20.221"
       xlink:href="#linearGradient3814"
       x2="0" />
    <clipPath
       id="clipPath3613-29-4">
      <rect
         id="rect24-0"
         width="84"
         height="84"
         y="6"
         rx="6"
         x="6" />
    </clipPath>
    <filter
       width="1.384"
       id="filter3794-0-1"
       color-interpolation-filters="sRGB"
       height="1.384"
       y="-0.192"
       x="-0.192">
      <feGaussianBlur
         id="feGaussianBlur27-1"
         stdDeviation="5.28" />
    </filter>
    <linearGradient
       gradientTransform="matrix(1.0149,0,0,1.0238,-0.838,-1.144)"
       id="linearGradient4282-4"
       gradientUnits="userSpaceOnUse"
       y2="5.988"
       y1="90"
       x2="0">
      <stop
         style="stop-color:#cccccc;stop-opacity:1"
         id="stop30-3"
         stop-color="#656565" />
      <stop
         style="stop-color:#ebebeb;stop-opacity:1"
         id="stop32-0"
         offset="1"
         stop-color="#c1c1c1" />
    </linearGradient>
  </defs>
  <g
     id="g861">
    <path
       id="path854"
       d="M 12 0.7109375 A 11.289739 11.289739 0 0 0 0.7109375 12 A 11.289739 11.289739 0 0 0 12 23.289062 A 11.289739 11.289739 0 0 0 23.289062 12 A 11.289739 11.289739 0 0 0 12 0.7109375 z M 12 2.5078125 A 9.4920092 9.4920092 0 0 1 21.492188 12 A 9.4920092 9.4920092 0 0 1 12 21.492188 A 9.4920092 9.4920092 0 0 1 2.5078125 12 A 9.4920092 9.4920092 0 0 1 12 2.5078125 z "
       style="opacity:1;fill:#cccccc;fill-opacity:1;stroke:none;stroke-width:1.09027779" />
    <path
       inkscape:connector-curvature="0"
       id="path54"
       d="m 12.002356,3.9298455 a 8,8.0701549 0 1 0 0,16.1403095 8,8.0701549 0 0 0 0,-16.1403095 z m 0.374557,4.4038231 c 1.810688,0.06487 2.882499,1.223845 3.000687,2.9124634 0.133154,1.90371 -0.463536,2.396262 -0.209732,2.778803 0.529963,0.79881 -0.216548,1.010706 -0.714776,1.401025 -0.309904,0.242766 -0.90776,0.128892 -1.2045,-0.216599 -0.901688,-0.493255 -0.55997,0.4539 -2.422209,0.458028 -0.9680669,-0.03751 -1.8503069,-0.698112 -2.1010089,-1.589096 -0.384477,-1.366337 0.178388,-2.37207 1.7486399,-2.84801 0.454177,-0.137656 1.354491,-0.05875 1.750752,-0.332823 0.374254,-0.258843 0.234507,-0.632464 -0.225052,-0.680966 -0.659082,-0.06956 -1.686743,0.21505 -2.2948899,0.100904 -0.488172,-0.09161 -0.637119,-0.9757994 -0.318559,-1.3550644 0.521284,-0.6206841 1.8632799,-0.594006 2.6187319,-0.627079 l 0,5.4e-4 c 0.127219,-0.0055 0.251204,-0.0065 0.371916,-0.0021 z m -0.245127,4.0810394 c -0.419411,0 -0.761793,0.297019 -0.761793,0.665646 0,0.368626 0.342382,0.665645 0.761793,0.665645 0.419414,0 0.753871,-0.297019 0.753871,-0.665645 0,-0.368627 -0.334457,-0.665646 -0.753871,-0.665646 z"
       style="color:#000000;fill:#cccccc;fill-opacity:1" />
  </g>
</svg>
