<?xml version="1.0" encoding="UTF-8" standalone="no"?>
<!-- Created with Inkscape (http://www.inkscape.org/) -->

<svg
   xmlns:dc="http://purl.org/dc/elements/1.1/"
   xmlns:cc="http://creativecommons.org/ns#"
   xmlns:rdf="http://www.w3.org/1999/02/22-rdf-syntax-ns#"
   xmlns:svg="http://www.w3.org/2000/svg"
   xmlns="http://www.w3.org/2000/svg"
   xmlns:sodipodi="http://sodipodi.sourceforge.net/DTD/sodipodi-0.dtd"
   xmlns:inkscape="http://www.inkscape.org/namespaces/inkscape"
   id="svg7384"
   height="16"
   width="16"
   version="1.1"
   inkscape:version="0.48.3.1 r9886"
   sodipodi:docname="utilities-root-terminal-symbolic.svg">
  <defs
     id="defs22815" />
  <sodipodi:namedview
     pagecolor="#ffffff"
     bordercolor="#666666"
     borderopacity="1"
     objecttolerance="10"
     gridtolerance="10"
     guidetolerance="10"
     inkscape:pageopacity="0"
     inkscape:pageshadow="2"
     inkscape:window-width="1366"
     inkscape:window-height="696"
     id="namedview22813"
     showgrid="false"
     inkscape:zoom="14.75"
     inkscape:cx="26.41664"
     inkscape:cy="10.009816"
     inkscape:window-x="0"
     inkscape:window-y="0"
     inkscape:window-maximized="1"
     inkscape:current-layer="svg7384"
     showguides="true"
     inkscape:guide-bbox="true" />
  <metadata
     id="metadata90">
    <rdf:RDF>
      <cc:Work
         rdf:about="">
        <dc:format>image/svg+xml</dc:format>
        <dc:type
           rdf:resource="http://purl.org/dc/dcmitype/StillImage" />
        <dc:title>Gnome Symbolic Icon Theme</dc:title>
      </cc:Work>
    </rdf:RDF>
  </metadata>
  <title
     id="title9167">Gnome Symbolic Icon Theme</title>
  <g
     id="g4981">
    <path
       sodipodi:nodetypes="ssssssssssssssssss"
       inkscape:connector-curvature="0"
       id="rect22828"
       d="m 1.53125,1.707627 c -0.3844191,0 -0.71875,0.3997758 -0.71875,0.875 l 0,10.865996 c 0,0.475224 0.3343309,0.84375 0.71875,0.84375 l 12.9375,0 c 0.384419,0 0.71875,-0.368526 0.71875,-0.84375 l 0,-10.865996 c 0,-0.4752242 -0.334331,-0.875 -0.71875,-0.875 z M 3,3.426377 l 10,0 c 0.331727,0 0.59375,0.2620227 0.59375,0.59375 l 0,7 c 0,0.331727 -0.262023,0.59375 -0.59375,0.59375 l -10,0 c -0.3317273,0 -0.59375,-0.262023 -0.59375,-0.59375 l 0,-7 C 2.40625,3.6883997 2.6682727,3.426377 3,3.426377 z"
       style="fill:#df0808;fill-opacity:1;stroke:none" />
    <rect
       ry="0.61934489"
       rx="0"
       y="9.1914244"
       x="5.5390296"
       height="1.2925431"
       width="4.3626113"
       id="rect22836"
       style="fill:#bebebe;fill-opacity:1;stroke:none" />
    <g
       id="text5193"
       style="font-size:29.38600922px;font-style:normal;font-weight:normal;line-height:125%;letter-spacing:0px;word-spacing:0px;fill:#bebebe;fill-opacity:1;stroke:none;font-family:Sans"
       transform="matrix(0.21091804,0,0,0.2387117,16.117184,-9.6917927)">
      <path
         id="path4906"
         style="font-weight:bold;fill:#bebebe;fill-opacity:1;stroke:none;-inkscape-font-specification:Sans Bold"
         d="m -51.546281,57.603174 -1.377469,5.524226 3.78804,0 1.391818,-5.524226 3.171049,0 -1.391818,5.524226 3.974573,0 0,3.056259 -4.735051,0 -0.990056,3.931527 4.075013,0 0,3.084957 -4.821142,0 -1.377469,5.495528 -3.171049,0 1.377469,-5.495528 -3.78804,0 -1.377469,5.495528 -3.199746,0 1.377469,-5.495528 -4.00327,0 0,-3.084957 4.706353,0 1.004405,-3.931527 -4.060665,0 0,-3.056259 4.84984,0 1.377469,-5.524226 3.199746,0 m 1.621396,8.580485 -3.78804,0 -1.004405,3.931527 3.788041,0 1.004404,-3.931527"
         inkscape:connector-curvature="0" />
    </g>
  </g>
</svg>
