<svg enable-background="new 0 0 128 128" height="128" viewBox="0 0 128 128" width="128" xml:space="preserve" xmlns="http://www.w3.org/2000/svg" xmlns:xlink="http://www.w3.org/1999/xlink"><linearGradient id="a"><stop offset="0" stop-color="#fff"/><stop offset="1" stop-color="#555753"/></linearGradient><linearGradient id="b" gradientUnits="userSpaceOnUse" x1="94.3438" x2="86.5356" xlink:href="#a" y1="102.3447" y2="94.5366"/><linearGradient id="c" gradientUnits="userSpaceOnUse" x1="95" x2="86.5865" xlink:href="#a" y1="103" y2="94.5865"/><linearGradient id="d" gradientUnits="userSpaceOnUse" x1="95" x2="87.293" y1="103" y2="95.293"><stop offset="0" stop-color="#fff"/><stop offset="1" stop-color="#393b38"/></linearGradient><linearGradient id="e" gradientUnits="userSpaceOnUse" x1="96" x2="88.0002" y1="104" y2="96.0002"><stop offset="0" stop-color="#888a85"/><stop offset=".0072" stop-color="#8c8e89"/><stop offset=".0673" stop-color="#abaca9"/><stop offset=".1347" stop-color="#c5c6c4"/><stop offset=".2115" stop-color="#dbdbda"/><stop offset=".3012" stop-color="#ebebeb"/><stop offset=".4122" stop-color="#f7f7f6"/><stop offset=".5679" stop-color="#fdfdfd"/><stop offset="1" stop-color="#fff"/></linearGradient><radialGradient id="f" cx="102" cy="112.3047" gradientTransform="matrix(.9787234 0 0 .9818182 1.361705 1.163636)" gradientUnits="userSpaceOnUse" r="139.55859"><stop offset="0" stop-color="#535557"/><stop offset=".11366145" stop-color="#898a8c"/><stop offset=".20296688" stop-color="#ececec"/><stop offset=".2363" stop-color="#fafafa"/><stop offset=".2722" stop-color="#fff"/><stop offset=".5313" stop-color="#fafafa"/><stop offset=".8449" stop-color="#ebecec"/><stop offset="1" stop-color="#e1e2e3"/></radialGradient><radialGradient id="g" cx="102.000002" cy="112.3047" gradientUnits="userSpaceOnUse" r="139.5585"><stop offset="0" stop-color="#00537d"/><stop offset=".0151" stop-color="#186389"/><stop offset=".0558" stop-color="#558ca8"/><stop offset=".0964" stop-color="#89afc3"/><stop offset=".1357" stop-color="#b3ccd8"/><stop offset=".1737" stop-color="#d4e2e9"/><stop offset=".2099" stop-color="#ecf2f5"/><stop offset=".2435" stop-color="#fafcfd"/><stop offset=".2722" stop-color="#fff"/></radialGradient><filter id="h"><feGaussianBlur stdDeviation="1.0394514"/></filter><filter id="i"><feGaussianBlur stdDeviation=".50063244"/></filter><mask id="j" maskUnits="userSpaceOnUse"><path d="m114.23332 113.74074h102.35508v21.5h-102.35508z" fill="#fff" filter="url(#k)" transform="matrix(.98920346 -.14654866 0 1 0 0)"/></mask><filter id="k" height="1.481937" width="1.173735" x="-.086868" y="-.240968"><feGaussianBlur stdDeviation="3.7047241"/></filter><filter id="l" height="1.775758" width="1.669281" x="-.334641" y="-.387879"><feGaussianBlur stdDeviation=".88888889"/></filter><linearGradient id="m" gradientUnits="userSpaceOnUse" x1="146.64844" x2="138.0625" xlink:href="#n" y1="109.675276" y2="118.404325"/><linearGradient id="n"><stop offset="0" stop-color="#f2a9d7"/><stop offset=".3488954" stop-color="#f282bf"/><stop offset=".67611599" stop-color="#b32c75"/><stop offset=".90122044" stop-color="#72234a"/><stop offset="1" stop-color="#792149"/></linearGradient><linearGradient id="o" gradientTransform="matrix(1 -.29842483 0 -1 0 269.80234)" gradientUnits="userSpaceOnUse" x1="148.11865" x2="160.66286" xlink:href="#n" y1="74.647545" y2="121.21548"/><linearGradient id="p" gradientUnits="userSpaceOnUse" x1="148.11865" x2="160.66286" xlink:href="#n" y1="86.14704" y2="132.714975"/><filter id="q" height="1.742029" width="1.291738" x="-.145869" y="-.371014"><feGaussianBlur stdDeviation=".88888889"/></filter><filter id="r" height="1.73405" width="1.276383" x="-.138192" y="-.367025"><feGaussianBlur stdDeviation=".88888889"/></filter><linearGradient id="s" gradientUnits="userSpaceOnUse" x1="146.64844" x2="138.0625" xlink:href="#n" y1="98.175781" y2="106.90483"/><linearGradient id="t" gradientUnits="userSpaceOnUse" x1="152.69911" x2="176.00912" xlink:href="#n" y1="73.924515" y2="77.049515"/><linearGradient id="u" gradientUnits="userSpaceOnUse" x1="173.96384" x2="167.1041" xlink:href="#n" y1="77.352905" y2="87.877029"/><linearGradient id="v" gradientUnits="userSpaceOnUse" x1="148.11865" x2="160.66286" xlink:href="#n" y1="74.647545" y2="121.21548"/><clipPath id="w"><path d="m12 14.5c-.339844 0-.5.234618-.5.5v108.96875c0 .82158.679323 1.49953 1.5 1.5l55 .03125c.05307.00003.997884-.008 1.6875.00005 10.098603-3.99538 25.4133-22.75328 34.35853-31.755094 1.47685-1.656484 1.11385-1.151317 1.45391-2.888706l.00006-75.85625c0-.322717-.16322-.5-.5-.5z"/></clipPath><filter id="x"><feGaussianBlur stdDeviation=".74306545"/></filter><clipPath id="y"><path d="m24.167406 42.242477c-.214476 0-.315551.148069-.315551.315552l1.060239 68.770561c.008.51844.428723.94636.946655.94666l34.395141.0197c.03349.00002.629769-.005 1.064988.00003 6.373264-2.5215 15.293736-14.296568 20.939102-19.977642.932045-1.045413.702955-.7266.917568-1.823072l.000037-47.936257c0-.203668-.103008-.315552-.315551-.315552z"/></clipPath><mask id="z" maskUnits="userSpaceOnUse"><path d="m126.21856 52.570545c-8.83884 2.474874-77.781745 12.374366-77.781745 12.374366l1.414213 16.617009 78.488852-11.313705z" fill="#fff" filter="url(#A)"/></mask><filter id="A" height="1.519362" width="1.188441" x="-.09422" y="-.259681"><feGaussianBlur stdDeviation="3.1368769"/></filter><filter id="B"><feGaussianBlur stdDeviation=".35275632"/></filter><filter id="C" height="1.849316" width="1.357848" x="-.178924" y="-.424658"><feGaussianBlur stdDeviation=".44486182"/></filter><filter id="D" height="2.01156" width="1.264776" x="-.132388" y="-.50578"><feGaussianBlur stdDeviation=".39247691"/></filter><filter id="E" height="2.011607" width="1.264406" x="-.132203" y="-.505803"><feGaussianBlur stdDeviation=".39247691"/></filter><linearGradient id="F" gradientUnits="userSpaceOnUse" x1="284.28125" x2="272.10443" y1="-20.303362" y2="2.587512"><stop offset="0" stop-color="#28755e"/><stop offset=".09799787" stop-color="#239574"/><stop offset=".5" stop-color="#19ffbc"/><stop offset="1" stop-color="#a7ffd9"/></linearGradient><linearGradient id="G" gradientUnits="userSpaceOnUse" x1="279.09424" x2="282.28729" y1="-16.93457" y2="-16.93457"><stop offset="0" stop-color="#00a97f"/><stop offset="1" stop-color="#81ffe5"/></linearGradient><radialGradient id="H" cx="295.25839" cy="-1.461367" fx="291.62863" fy="-7.688866" gradientTransform="matrix(2.3361369 -.6259667 .28498647 1.0635828 -387.96937 185.73596)" gradientUnits="userSpaceOnUse" r="24.980055"><stop offset="0" stop-color="#70e9bb"/><stop offset=".3488954" stop-color="#56e5ae"/><stop offset=".67611599" stop-color="#2cb391"/><stop offset=".90122044" stop-color="#237262"/><stop offset="1" stop-color="#217967"/></radialGradient><linearGradient id="I" gradientUnits="userSpaceOnUse" x1="275.44214" x2="288.30276" y1="-17.777563" y2="-11.260674"><stop offset="0" stop-color="#fcfcfc"/><stop offset=".52275378" stop-color="#f1fcff"/><stop offset=".77457333" stop-color="#e0fff5"/><stop offset=".90122044" stop-color="#c5ffeb"/><stop offset="1" stop-color="#69ffe7"/></linearGradient><linearGradient id="J" gradientUnits="userSpaceOnUse" x1="267.28125" x2="283.35443" y1="-3.25" y2="-20.944124"><stop offset="0" stop-color="#286775"/><stop offset=".09799787" stop-color="#235b95"/><stop offset=".5" stop-color="#19dbff"/><stop offset="1" stop-color="#a7e6ff"/></linearGradient><radialGradient id="K" cx="294.53494" cy="-19.21633" fx="290.90518" fy="-25.443827" gradientTransform="matrix(2.3361369 -.6259667 .28498647 1.0635828 -387.96937 185.73596)" gradientUnits="userSpaceOnUse" r="24.980055"><stop offset="0" stop-color="#70e4e9"/><stop offset=".3488954" stop-color="#56cce5"/><stop offset=".67611599" stop-color="#2c83b3"/><stop offset=".90122044" stop-color="#236872"/><stop offset="1" stop-color="#216279"/></radialGradient><linearGradient id="L" gradientUnits="userSpaceOnUse" x1="262.75189" x2="288.30276" y1="-24.805037" y2="-11.260674"><stop offset="0" stop-color="#fcfcfc"/><stop offset=".52275378" stop-color="#f1fcff"/><stop offset=".68085325" stop-color="#e0fff5"/><stop offset=".76995808" stop-color="#c5ffeb"/><stop offset="1" stop-color="#69ffcc"/></linearGradient><path d="m24.919999 10.931136v108.137934l58.676001-.0001c.53 0 1.039-.211 1.414-.586l31.484-31.765936c.375-.375.586-.884.586-1.414v-74.371898z" filter="url(#i)" opacity=".89589" transform="matrix(1.0416667 0 0 1.0357143 -9.958333 -3.321534)"/><path d="m23 9.9655172.040816 111.0344828h61.131184c.53 0 1.039-.211 1.414-.586l32.828-32.828c.375-.375.586-.884.586-1.414v-76.2064828z" filter="url(#h)" opacity=".306849" transform="matrix(1.0416667 0 0 1.0357143 -9.958333 -3.321534)"/><path d="m16.000002 8v112h61.172c.53 0 1.039-.211 1.414-.586l32.827998-32.828c.375-.375.586-.884.586-1.414v-77.172z" fill="url(#g)"/><path d="m18.978725 10c-.539276 0-.978723.440836-.978723.981818v106.036362c0 .54197.439447.98182.978723.98182h57.913022c.257404 0 .509915-.10407.691957-.28767l32.129526-32.23113c.18303-.1836.28677-.435927.28677-.694145v-73.805237c0-.540982-.43847-.981818-.97872-.981818z" fill="url(#f)"/><g transform="translate(.000002)"><path d="m111.414 86.586c.25-.25-18.379 6.414-23.414 6.414-1.654 0-3 1.346-3 3 0 5.035-6.664 23.664-6.414 23.414z" fill="url(#b)" opacity=".1"/><path d="m111.414 86.586c.375-.375-13.97 7.414-23.414 7.414-1.103 0-2 .897-2 2 0 9.444-7.789 23.789-7.414 23.414z" fill="url(#c)" opacity=".1"/><path d="m111.414 86.586c.239-.239-13.607 8.414-23.414 8.414-.553 0-1 .447-1 1 0 9.807-8.653 23.653-8.414 23.414z" fill="url(#d)" opacity=".1"/><path d="m78.586 119.414s11.914-9.914 17.414-15.414 15.414-17.414 15.414-17.414-13.164 9.414-23.414 9.414c0 10.25-9.414 23.414-9.414 23.414z" fill="url(#e)"/></g><text style="font-family:Courier New;letter-spacing:-.19;word-spacing:0;opacity:.589958;fill-opacity:.454148;clip-path:url(#w);filter:url(#x)" transform="translate(8.28303 -8.36791)" x="14.821373" xml:space="preserve" y="17.29369"><tspan font-size="3" x="14.821373" y="17.29369"></tspan><tspan font-size="3" x="14.821373" y="21.926687">#ifndef OXYGEN_STYLE_H</tspan><tspan font-size="3" x="14.821373" y="26.559687">#define OXYGEN_STYLE_H</tspan><tspan font-size="3" x="14.821373" y="31.192684"></tspan><tspan font-size="3" x="14.821373" y="35.825684">class QAbstractButton;</tspan><tspan font-size="3" x="14.821373" y="40.458679">class QHeaderView;</tspan><tspan font-size="3" x="14.821373" y="45.091679"></tspan><tspan font-size="3" x="14.821373" y="49.724678">#include &lt;QCache&gt;</tspan><tspan font-size="3" x="14.821373" y="54.357674">#include &lt;QHash&gt;</tspan><tspan font-size="3" x="14.821373" y="58.990673"></tspan><tspan font-size="3" x="14.821373" y="63.623672">namespace Oxygen {</tspan><tspan font-size="3" x="14.821373" y="68.256668"></tspan><tspan font-size="3" x="14.821373" y="72.889671">enum BGMode { Plain = 0, Scanlines,G</tspan><tspan font-size="3" x="14.821373" y="77.522667">enum Acceleration { None = 0, QtGrad</tspan><tspan font-size="3" x="14.821373" y="82.155663">enum TabTransition {Jump = 0, CrossF</tspan><tspan font-size="3" x="14.821373" y="86.788666">{</tspan><tspan font-size="3" x="14.821373" y="91.421661">   Q_OBJECT</tspan><tspan font-size="3" x="14.821373" y="96.054657">public:</tspan><tspan font-size="3" x="14.821373" y="100.68766">   bool eventFilter( QObject *objec</tspan><tspan font-size="3" x="14.821373" y="105.32066">};</tspan><tspan font-size="3" x="14.821373" y="109.95365"></tspan><tspan font-size="3" x="14.821373" y="114.58665">class OxygenStyle;</tspan><tspan font-size="3" x="14.821373" y="119.21965"></tspan><tspan font-size="3" x="14.821373" y="123.85265">class HoverFadeInfo {</tspan><tspan font-size="3" x="14.821373" y="128.48564">public:</tspan></text><text style="font-family:Courier New;letter-spacing:-.19;word-spacing:0;opacity:.589958;fill-opacity:.454148;clip-path:url(#w)" transform="translate(8.28303 -8.36791)" x="14.821373" xml:space="preserve" y="17.29369"><tspan font-size="3" x="14.821373" y="17.29369"></tspan><tspan font-size="3" x="14.821373" y="21.926687">#ifndef OXYGEN_STYLE_H</tspan><tspan font-size="3" x="14.821373" y="26.559687">#define OXYGEN_STYLE_H</tspan><tspan font-size="3" x="14.821373" y="31.192684"></tspan><tspan font-size="3" x="14.821373" y="35.825684">class QAbstractButton;</tspan><tspan font-size="3" x="14.821373" y="40.458679">class QHeaderView;</tspan><tspan font-size="3" x="14.821373" y="45.091679"></tspan><tspan font-size="3" x="14.821373" y="49.724678">#include &lt;QCache&gt;</tspan><tspan font-size="3" x="14.821373" y="54.357674">#include &lt;QHash&gt;</tspan><tspan font-size="3" x="14.821373" y="58.990673"></tspan><tspan font-size="3" x="14.821373" y="63.623672">namespace Oxygen {</tspan><tspan font-size="3" x="14.821373" y="68.256668"></tspan><tspan font-size="3" x="14.821373" y="72.889671">enum BGMode { Plain = 0, Scanlines,G</tspan><tspan font-size="3" x="14.821373" y="77.522667">enum Acceleration { None = 0, QtGrad</tspan><tspan font-size="3" x="14.821373" y="82.155663">enum TabTransition {Jump = 0, CrossF</tspan><tspan font-size="3" x="14.821373" y="86.788666">{</tspan><tspan font-size="3" x="14.821373" y="91.421661">   Q_OBJECT</tspan><tspan font-size="3" x="14.821373" y="96.054657">public:</tspan><tspan font-size="3" x="14.821373" y="100.68766">   bool eventFilter( QObject *objec</tspan><tspan font-size="3" x="14.821373" y="105.32066">};</tspan><tspan font-size="3" x="14.821373" y="109.95365"></tspan><tspan font-size="3" x="14.821373" y="114.58665">class OxygenStyle;</tspan><tspan font-size="3" x="14.821373" y="119.21965"></tspan><tspan font-size="3" x="14.821373" y="123.85265">class HoverFadeInfo {</tspan><tspan font-size="3" x="14.821373" y="128.48564">public:</tspan></text><g transform="matrix(1.0247094 0 0 1.0247094 -89.95084 -16.923644)"><g mask="url(#j)"><path d="m140.5625 120.43699 4.0625 5.5 2.3125-.75z" fill="#21000e" filter="url(#l)"/><path d="m141.56875 111.3245c-.16498.006-.33056.006-.5.0313-2.71107.40667-4.90625 3.20659-4.90625 6.25 0 1.37709.44492 2.5735 1.1875 3.4375l.1875.1875c.0403.0414.0832.0854.125.125l3.5375 3.18125 7.4375-9.125-3.88125-2.775s-1.93039-1.3581-3.1875-1.3125z" fill="url(#m)"/><path d="m152.69911 140.09664v-33.35648l5.31903 4.5604c1.58984 11.29608.65767 23.34477 0 35.31154" fill="#9f2967"/><path d="m173.85983 108.94931-6.06153-4.75021v23.85863l1.8892 1.98065 4.8125-2.77991z" fill="#872658"/><path d="m158.01814 146.6121v-35.31153l9.24098-1.37156v13.43984c-.00001 1.7726.29589 3.02859.86492 3.80649.56902.77788 1.42825 1.11665 2.59476.94354 1.15226-.17105 1.94321-.66211 2.41268-1.48235.46942-.80428.72834-2.21608.72835-4.19627v-13.49094l9.19546-1.36481v13.54204c-.00003 2.98626-.15651 5.17494-.45522 6.60863-.28453 1.43156-.75967 2.69656-1.4567 3.74225-.78244 1.1701-1.74409 2.09852-2.86789 2.77636-1.12385.69376-2.43546 1.12796-3.9149 1.34759-1.43681.21321-2.71997.10985-3.91491-.28768-1.18074-.39968-2.24766-1.10687-3.18655-2.13326v12.06009z" fill="url(#o)"/><path d="m145.02119 114.31202c-2.84439.42667-5.14399 3.35309-5.14399 6.54615 0 3.19305 2.2996 5.48069 5.14399 5.05402s5.144-3.4042 5.144-6.59725c0-3.19306-2.29961-5.42959-5.144-5.00292z" fill="url(#p)"/></g><g fill="#21000e"><path d="m140.5625 108.9375 4.0625 5.5 2.3125-.75z" filter="url(#l)"/><path d="m158 111.25-5.3125-4.4375 8.6875-1.3125 5.9375 4.5z" filter="url(#q)"/><path d="m167.75 104.375 6.0625 4.5 9.375-1.375-6.5625-4.4375z" filter="url(#r)"/></g><path d="m152.69911 73.136513v33.656477l8.80786-1.3212v-12.80992c-.00001-1.689514.28202-2.970798.82438-3.874091.54235-.903263 1.3613-1.470566 2.47314-1.63736 1.09825-.164723 1.85213.07837 2.2996.726607.44742.633065.6942 1.90504.69421 3.792419v12.858625l8.76447-1.3147v-12.907328c-.00003-2.846287-.14918-4.887872-.43389-6.169401-.27119-1.283523-.72406-2.354103-1.38842-3.152508-.74577-.892697-1.66234-1.504063-2.73347-1.83049-1.07118-.341587-2.32131-.38237-3.73141-.170883-1.36947.205455-2.59249.668965-3.73142 1.387741-1.1254.716794-2.14231 1.694297-3.03719 2.93964v-11.494832z" fill="#959595"/><path d="m141.56875 99.825c-.16498.006-.33056.0058-.5.03125-2.71107.40667-4.90625 3.2066-4.90625 6.25 0 1.3771.44492 2.57351 1.1875 3.4375l.1875.1875c.0403.0414.0832.0854.125.125l3.5375 3.18125 7.4375-9.125-3.88125-2.775s-1.93039-1.358091-3.1875-1.3125z" fill="url(#s)"/><path d="m161.50697 71.815309 5.75215 2.832233-9.24098 1.386174-5.31903-2.897203z" fill="url(#t)"/><path d="m152.69911 73.136513v33.656477l5.31903 4.55226c1.58984-11.770511.65767-23.541023 0-35.311534" fill="#9f2967"/><path d="m173.85983 108.96895-6.06153-4.44088v-12.858625l1.8892-2.544445 4.8125 1.34375z" fill="#872658"/><path d="m179.32107 82.776232-.55564 6.06773-10.51821-1.104855-2.96101-1.679378-2.61565-4.149138 1.8736-1.54009 2.71496-1.18122.49341-.114083.52305-.09244.52568-.06786.43271-.0382.49656-.02191.41703.0018.30584.01424.2454.02005.25402.02947.22917.03475.27648.05304.18226.04211.19711.05241.16915.05102.32037.107832.3376.137149.30123.144825c2.09988 1.111344 4.23429 2.160599 6.35488 3.232748z" fill="url(#u)"/><path d="m158.01814 76.033716v35.311534l9.24098-1.38618v-13.439841c-.00001-1.772595.29589-3.116886.86492-4.064599.56902-.94768 1.42825-1.54288 2.59476-1.717876 1.15226-.172824 1.94321.08222 2.41268.762337.46942.664196.72834 1.99872.72835 3.978911v13.490948l9.19546-1.37935v-13.542046c-.00003-2.986253-.15651-5.128232-.45522-6.47278-.28453-1.346641-.75967-2.469866-1.4567-3.307533-.78244-.936595-1.74409-1.578025-2.86789-1.920504-1.12385-.358384-2.43546-.401173-3.9149-.179286-1.43681.215559-2.71997.701861-3.91491 1.455983-1.18074.752042-2.24766 1.777614-3.18655 3.084197v-12.060089zm-12.99695 26.778814c-2.84439.42667-5.14399 3.35309-5.14399 6.54615 0 3.19305 2.2996 5.48069 5.14399 5.05402s5.144-3.4042 5.144-6.59725c0-3.19306-2.29961-5.42959-5.144-5.00292z" fill="url(#v)"/></g><g clip-path="url(#y)" transform="matrix(.89030314 0 0 .89030314 36.687936 -25.299353)"><g filter="url(#B)" mask="url(#z)" transform="translate(0 23.75)"><g transform="matrix(1 .04725655 0 1 -211.57856 89.625227)"><path d="m280.24841-.69206793-3.69764.89264136c-1.67881-.38885571-1.63689-1.35066153-2.26952-2.08786333 4.48837-1.2192895 4.55329.4245225 5.96716 1.19522197z" fill="#1b243c" filter="url(#C)"/><path d="m297.33485-7.5835356 2.99624 1.8623596 4.1188-1.0098272z" filter="url(#D)"/><path d="m305.37384-10.652614 3.0062 1.8622741 4.1188-1.030248z" filter="url(#E)"/><path d="m277.71875-25.59375c-.69536.02967-1.44351.107017-2.21875.25-3.47389.640734-6.19541 2.202061-8.1875 4.6875-.96733 1.221581-1.69108 2.586453-2.1875 4.09375-.52588 1.596757-.78125 3.340959-.78125 5.25 0 3.70083.96503 6.3892202 2.9375 8.0625.35531.2978345.75424.5320107 1.15625.75l2.5625 1.6875.28125-.84375c1.22079.1191112 2.56575.016714 4.0625-.34375 3.14021-.7562987 5.61041-2.1091733 7.40625-4.0625 1.80562-1.932349 2.84658-4.30627 3.0625-7.15625l-6.6875 1.46875c-.0982 1.142969-.44427 2.04449-1.0625 2.75-.61824.717148-1.5063 1.18306-2.625 1.4375-1.36404.310222-2.37557.060783-3.0625-.8125-.29698-.381053-.5231-.882659-.6875-1.5l-.28125-3.875v-.125l.0313-.28125c.006-.06247-.006-.126036 0-.1875.13622-1.316365.46836-2.412346 1-3.28125.72617-1.183273 1.78418-1.909878 3.1875-2.1875 1.07943-.213568 1.9657-.06423 2.59375.4375.63785.497827.98579 1.299149 1.09375 2.4375l6.59375-1.375c-.1077-1.536584-.4681-2.811074-1.0625-3.875l1.03125-.3125-3-1.84375c-.10145-.06899-.207-.124125-.3125-.1875l-.375-.25c-.0204-.01045-.0419-.021-.0625-.03125-1.22353-.60918-2.69663-.854193-4.40625-.78125z" fill="url(#F)"/><path d="m282.28728-15.089118-2.9739-1.848288c-.0352-.377712-.10075-.751631-.21915-1.118944l2.68045-.723675z" fill="url(#G)"/><path d="m278.32223-.121759c-3.40942.8210923-6.1055.3960948-8.0804-1.2593491-1.9749-1.6753538-2.95547-4.3665231-2.95547-8.0719399 0-3.715725.99236-6.848786 2.98691-9.367569 1.99456-2.488519 4.72797-4.044478 8.20617-4.686007 3.1048-.57264 5.57097-.236548 7.38868.999556 1.81768 1.231834 2.82183 3.249869 3.01836 6.053695l-6.60266 1.364594c-.10809-1.139763-.46181-1.950414-1.10044-2.448858-.62884-.502347-1.49741-.659578-2.57818-.445745-1.40505.277966-2.47994 1.03287-3.20701 2.21761-.72709 1.188351-1.06901 2.780552-1.069 4.815146-.00001 2.075075.32817 3.569378 1.00612 4.439225.68778.8743656 1.71551 1.1285656 3.08124.8179598 1.12008-.254756 1.99061-.7360468 2.60962-1.4540838.61899-.706384.97071-1.607915 1.06901-2.7523l6.69698-1.468134c-.21619 2.853513-1.24195 5.224374-3.0498 7.159117-1.79807 1.9557483-4.27603 3.3298469-7.42013 4.087083" fill="url(#H)"/><path d="m285.8102-13.220852 2.98196 1.852893-6.69698 1.468134-2.97366-1.854712z" fill="url(#I)"/></g></g><g transform="matrix(1 .04725655 0 1 -211.57856 89.625227)"><path d="m280.24841-.69206793-3.69764.89264136c-1.67881-.38885571-1.63689-1.35066153-2.26952-2.08786333 4.48837-1.2192895 4.55329.4245225 5.96716 1.19522197z" fill="#1b243c" filter="url(#C)"/><path d="m277.71875-25.59375c-.69536.02967-1.44351.107017-2.21875.25-3.47389.640734-6.19541 2.202061-8.1875 4.6875-.96733 1.221581-1.69108 2.586453-2.1875 4.09375-.52588 1.596757-.78125 3.340959-.78125 5.25 0 3.70083.96503 6.3892202 2.9375 8.0625.35531.2978345.75424.5320107 1.15625.75l2.5625 1.6875.28125-.84375c1.22079.1191112 2.56575.016714 4.0625-.34375 3.14021-.7562987 5.61041-2.1091733 7.40625-4.0625 1.80562-1.932349 2.84658-4.30627 3.0625-7.15625l-6.6875 1.46875c-.0982 1.142969-.44427 2.04449-1.0625 2.75-.61824.717148-1.5063 1.18306-2.625 1.4375-1.36404.310222-2.37557.060783-3.0625-.8125-.29698-.381053-.5231-.882659-.6875-1.5l-.28125-3.875v-.125l.0313-.28125c.006-.06247-.006-.126036 0-.1875.13622-1.316365.46836-2.412346 1-3.28125.72617-1.183273 1.78418-1.909878 3.1875-2.1875 1.07943-.213568 1.9657-.06423 2.59375.4375.63785.497827.98579 1.299149 1.09375 2.4375l6.59375-1.375c-.1077-1.536584-.4681-2.811074-1.0625-3.875l1.03125-.3125-3-1.84375c-.10145-.06899-.207-.124125-.3125-.1875l-.375-.25c-.0204-.01045-.0419-.021-.0625-.03125-1.22353-.60918-2.69663-.854193-4.40625-.78125z" fill="url(#J)"/><path d="m282.28728-15.089118-2.9739-1.848288c-.0352-.377712-.10075-.751631-.21915-1.118944l2.68045-.723675z" fill="url(#G)"/><path d="m278.32223-.121759c-3.40942.8210923-6.1055.3960948-8.0804-1.2593491-1.9749-1.6753538-2.95547-4.3665231-2.95547-8.0719399 0-3.715725.99236-6.848786 2.98691-9.367569 1.99456-2.488519 4.72797-4.044478 8.20617-4.686007 3.1048-.57264 5.57097-.236548 7.38868.999556 1.81768 1.231834 2.82183 3.249869 3.01836 6.053695l-6.60266 1.364594c-.10809-1.139763-.46181-1.950414-1.10044-2.448858-.62884-.502347-1.49741-.659578-2.57818-.445745-1.40505.277966-2.47994 1.03287-3.20701 2.21761-.72709 1.188351-1.06901 2.780552-1.069 4.815146-.00001 2.075075.32817 3.569378 1.00612 4.439225.68778.8743656 1.71551 1.1285656 3.08124.8179598 1.12008-.254756 1.99061-.7360468 2.60962-1.4540838.61899-.706384.97071-1.607915 1.06901-2.7523l6.69698-1.468134c-.21619 2.853513-1.24195 5.224374-3.0498 7.159117-1.79807 1.9557483-4.27603 3.3298469-7.42013 4.087083" fill="url(#K)"/><path d="m285.8102-13.220852 2.98196 1.852893-6.69698 1.468134-2.97366-1.854712z" fill="url(#L)"/></g></g></svg>