<svg height="256" viewBox="0 0 239.99999 239.99999" width="256" xmlns="http://www.w3.org/2000/svg" xmlns:xlink="http://www.w3.org/1999/xlink"><linearGradient id="a"><stop offset="0" stop-color="#fff"/><stop offset="1" stop-color="#fff" stop-opacity="0"/></linearGradient><linearGradient id="b"><stop offset="0" stop-color="#bbbaba"/><stop offset="1" stop-color="#8e8d8d"/></linearGradient><linearGradient id="c"><stop offset="0" stop-color="#c6c6c6"/><stop offset=".10937507" stop-color="#434343"/><stop offset=".21430837" stop-color="#fbfbfb"/><stop offset=".52343756" stop-color="#a0a09f"/><stop offset=".7734375" stop-color="#111"/><stop offset=".93847656" stop-color="#bcbcbc"/><stop offset=".984375" stop-color="#b4b4b3"/><stop offset="1" stop-color="#e5e5e4"/></linearGradient><linearGradient id="d" gradientTransform="matrix(1 0 0 .45712447 -4.000267 21.655555)" gradientUnits="userSpaceOnUse" x1="440.00891" x2="452.02679" xlink:href="#c" y1="68.996269" y2="68.996269"/><linearGradient id="e" gradientUnits="userSpaceOnUse" x1="422.48877" x2="461.54688" xlink:href="#c" y1="34.257084" y2="34.257084"/><linearGradient id="f" gradientTransform="matrix(.78977906 0 0 .97541516 89.762058 2.353595)" gradientUnits="userSpaceOnUse" x1="432.12213" x2="459.91348" xlink:href="#c" y1="108.0544" y2="108.0544"/><linearGradient id="g" gradientTransform="matrix(.74544155 0 0 .91388888 109.53739 11.746338)" gradientUnits="userSpaceOnUse" x1="427.23987" x2="464.79575" xlink:href="#c" y1="111.05886" y2="111.05886"/><linearGradient id="h" gradientUnits="userSpaceOnUse" x1="265.7496" x2="267.25183" y1="108.61773" y2="171.71161"><stop offset="0" stop-color="#868a91"/><stop offset="1" stop-color="#e9eaeb"/></linearGradient><linearGradient id="i" gradientUnits="userSpaceOnUse" x1="10.72829240582" x2="10.72829240582" y1="1.18175199053" y2="20.74827654609"><stop offset="0" stop-color="#fff"/><stop offset=".507761" stop-color="#fff" stop-opacity=".235294"/><stop offset=".83456558" stop-color="#fff" stop-opacity=".156863"/><stop offset="1" stop-color="#fff" stop-opacity=".392157"/></linearGradient><linearGradient id="j" gradientUnits="userSpaceOnUse" x1="13.8727429252" x2="13.8727429252" y1="21.69254283516" y2=".33233332744"><stop offset="0" stop-color="#dcdcdc"/><stop offset="1" stop-color="#f0f0f0"/></linearGradient><linearGradient id="k" gradientUnits="userSpaceOnUse" x1="6.61326355849" x2="6.61326355849" y1="21.69288336458" y2=".21276591448"><stop offset="0" stop-color="#8c8c8c"/><stop offset="1" stop-color="#ababab"/></linearGradient><linearGradient id="l" gradientUnits="userSpaceOnUse" x1="344.80698" x2="425.53726" y1="366.3212" y2="366.3212"><stop offset="0" stop-color="#595858"/><stop offset=".5" stop-color="#a8a7a7"/><stop offset="1" stop-color="#595858"/></linearGradient><filter id="m" color-interpolation-filters="sRGB" height="1.192" width="1.192" x="-.096" y="-.096"><feGaussianBlur stdDeviation=".33605087"/></filter><filter id="n" color-interpolation-filters="sRGB" height="1.179682" width="1.0277" x="-.01385" y="-.089841"><feGaussianBlur stdDeviation="2.1511788"/></filter><linearGradient id="o" gradientUnits="userSpaceOnUse" x1="240.30096" x2="243.23807" y1="172.99377" y2="256.9108"><stop offset="0" stop-color="#7f7f7f"/><stop offset="1" stop-color="#bfbfbf"/></linearGradient><filter id="p" color-interpolation-filters="sRGB" height="1.0645" width="1.86" x="-.43" y="-.03225"><feGaussianBlur stdDeviation=".85643159"/></filter><linearGradient id="q" gradientUnits="userSpaceOnUse" x1="230" x2="230" y1="117" y2="127"><stop offset="0" stop-color="#9c9c9c"/><stop offset="1" stop-color="#d2d2d2"/></linearGradient><radialGradient id="r" cx="226.34886" cy="10.181443" gradientTransform="matrix(1.0937063 .07335394 -.09482981 1.2896741 199.10901 101.65489)" gradientUnits="userSpaceOnUse" r="22.573244"><stop offset="0" stop-color="#dededd"/><stop offset="1" stop-color="#a5a5a4"/></radialGradient><radialGradient id="s" cx="227.94739" cy="-26.949583" gradientTransform="matrix(1.0272784 -.19345801 .08622837 .41764708 214.5327 159.95392)" gradientUnits="userSpaceOnUse" r="22.572615" xlink:href="#b"/><radialGradient id="t" cx="228.84647" cy="-14.87137" gradientTransform="matrix(1.0470588 0 0 .33707864 206.48021 111.07139)" gradientUnits="userSpaceOnUse" r="5.908714" xlink:href="#a"/><radialGradient id="u" cx="227.16397" cy="-30.199099" gradientTransform="matrix(1.0470588 0 0 .81764708 208.63546 121.15369)" gradientUnits="userSpaceOnUse" r="20.979254"><stop offset="0" stop-color="#dcdcdc"/><stop offset="1" stop-color="#c1c1c1"/></radialGradient><radialGradient id="v" cx="228.11621" cy="-27.361115" gradientTransform="matrix(1.0470588 0 0 .81764708 208.63546 120.42428)" gradientUnits="userSpaceOnUse" r="20.448133" xlink:href="#b"/><radialGradient id="w" cx="226.78809" cy="-1.467542" gradientTransform="matrix(1.0470588 0 0 .83035711 208.63546 123.04706)" gradientUnits="userSpaceOnUse" r="8.497926"><stop offset="0" stop-color="#e7e7e7"/><stop offset="1" stop-color="#e7e7e7" stop-opacity=".921569"/></radialGradient><filter id="x" color-interpolation-filters="sRGB" height="1.081268" width="1.06463" x="-.032315" y="-.040634"><feGaussianBlur stdDeviation=".20381151"/></filter><filter id="y" color-interpolation-filters="sRGB" height="1.04876" width="1.047263" x="-.023631" y="-.02438"><feGaussianBlur stdDeviation=".21703021"/></filter><filter id="z" color-interpolation-filters="sRGB" height="2.184691" width="1.050027" x="-.025013" y="-.592345"><feGaussianBlur stdDeviation=".4926562"/></filter><linearGradient id="A" gradientUnits="userSpaceOnUse" x1="-159.8078" x2="-136.841" y1="185.8235" y2="185.8235"><stop offset="0" stop-color="#808080" stop-opacity=".508197"/><stop offset=".06061412" stop-color="#9c9c9c"/><stop offset=".28748855" stop-color="#5d5d5d"/><stop offset=".53389782" stop-color="#dfdfdf"/><stop offset=".90859306" stop-color="#9c9c9c"/><stop offset=".96875" stop-color="#dbdbdb"/><stop offset="1" stop-color="#808080" stop-opacity=".508197"/></linearGradient><linearGradient id="B" gradientUnits="userSpaceOnUse" x1="-148.25548" x2="-147.72908" y1="178.37923" y2="188.86885"><stop offset="0" stop-color="#1f1f1f"/><stop offset=".5" stop-color="#343434"/><stop offset="1" stop-color="#f2f2f2"/></linearGradient><radialGradient id="C" cx="-148.59923" cy="181.12221" gradientTransform="matrix(.98844217 -.19663858 .16161051 .8123668 -30.975378 5.774996)" gradientUnits="userSpaceOnUse" r="6.98828" xlink:href="#a"/><filter id="D" color-interpolation-filters="sRGB" height="1.112664" width="1.052905" x="-.026452" y="-.056332"><feGaussianBlur stdDeviation=".1846841"/></filter><filter id="E" color-interpolation-filters="sRGB" height="1.092553" width="1.058917" x="-.029458" y="-.046276"><feGaussianBlur stdDeviation=".29342543"/></filter><filter id="F" color-interpolation-filters="sRGB" height="1.145323" width="1.028748" x="-.014374" y="-.072662"><feGaussianBlur stdDeviation="2.3125837"/></filter><radialGradient id="G" cx="258.45425" cy="24.72444" gradientTransform="matrix(1.1175285 .05499711 -.01690551 .343516 -29.957768 163.33435)" gradientUnits="userSpaceOnUse" r="186.38477"><stop offset="0" stop-color="#fefefe"/><stop offset="1" stop-color="#fefefe" stop-opacity="0"/></radialGradient><linearGradient id="H" gradientTransform="matrix(1 0 0 .97142857 0 2.95314)" gradientUnits="userSpaceOnUse" x1="279.41574" x2="282.42023" y1="456.4173" y2="244.60214"><stop offset="0" stop-color="#1a1a1a"/><stop offset="1" stop-color="#4a4a4a"/></linearGradient><filter id="I" color-interpolation-filters="sRGB" height="1.056067" width="1.041962" x="-.020981" y="-.028034"><feGaussianBlur stdDeviation="4.1762135"/></filter><clipPath id="J"><rect height="357.53195" rx="35.311501" ry="27.919744" width="477.71075" x="17.8808" y="103.3599"/></clipPath><clipPath id="K"><circle cx="153.46053" cy="357.18332" r="78.605812"/></clipPath><filter id="L" color-interpolation-filters="sRGB" height="1.048" width="1.048" x="-.024" y="-.024"><feGaussianBlur stdDeviation="1.487137"/></filter><radialGradient id="M" cx="149.21156" cy="352.93436" gradientUnits="userSpaceOnUse" r="77.92598"><stop offset="0" stop-color="#595959"/><stop offset=".5" stop-color="#565656" stop-opacity=".988235"/><stop offset="1" stop-color="#3c3c3c" stop-opacity=".976471"/></radialGradient><linearGradient id="N" gradientUnits="userSpaceOnUse" x1="643.13568" x2="642.21979" y1="-63.685112" y2="-44.830341"><stop offset="0" stop-color="#adadad"/><stop offset="1" stop-color="#adadad" stop-opacity="0"/></linearGradient><filter id="O" color-interpolation-filters="sRGB" height="1.04719" width="1.048838" x="-.024419" y="-.023595"><feGaussianBlur stdDeviation=".30951382"/></filter><radialGradient id="P" cx="644.27112" cy="-45.361462" gradientTransform="matrix(1 0 0 1.0332928 0 1.510209)" gradientUnits="userSpaceOnUse" r="15.952965"><stop offset="0" stop-color="#b8b8b8"/><stop offset="1" stop-color="#b8b8b8" stop-opacity="0"/></radialGradient><filter id="Q" color-interpolation-filters="sRGB" height="2.178483" width="1.104514" x="-.052257" y="-.589241"><feGaussianBlur stdDeviation="10.695914"/></filter><filter id="R" color-interpolation-filters="sRGB" height="1.148037" width="1.028644" x="-.014322" y="-.074018"><feGaussianBlur stdDeviation="1.7723339"/></filter><filter id="S" color-interpolation-filters="sRGB" height="1.106382" width="1.013526" x="-.006763" y="-.053191"><feGaussianBlur stdDeviation="1.3228391"/></filter><linearGradient id="T" gradientUnits="userSpaceOnUse" x1="17.880859" x2="42.0625" y1="283.71973" y2="283.71973"><stop offset="0" stop-color="#101010"/><stop offset="1" stop-color="#303030" stop-opacity="0"/></linearGradient><linearGradient id="U" gradientUnits="userSpaceOnUse" x1="422.530118" x2="461.505038" y1="26.586361" y2="26.586361"><stop offset="0" stop-color="#a0a0a0"/><stop offset="1" stop-color="#ebebeb"/></linearGradient><linearGradient id="V" gradientTransform="matrix(.6368911 0 0 1.2598969 157.9528 -35.452293)" gradientUnits="userSpaceOnUse" x1="432.12213" x2="459.91348" xlink:href="#c" y1="108.0544" y2="108.0544"/><filter id="W" color-interpolation-filters="sRGB" height="1.049955" width="1.015794" x="-.007897" y="-.024977"><feGaussianBlur stdDeviation=".044795334"/></filter><radialGradient id="X" cx="148.23186" cy="281.17862" gradientTransform="matrix(1 0 0 1.0032291 0 -1.160956)" gradientUnits="userSpaceOnUse" r="85.754745"><stop offset="0" stop-color="#b2b2b2"/><stop offset="1" stop-color="#424242"/></radialGradient><g transform="matrix(.5 0 0 .5 -8.000006 -9.24049)"><rect filter="url(#Q)" height="43.564816" rx="36.310883" ry="3.401985" transform="matrix(.9898533 0 0 .76112384 2.597556 102.69749)" width="491.23087" x="10.384567" y="445.86951"/><rect height="368.04761" rx="35.311501" ry="28.740913" width="477.71075" x="17.8808" y="103.3599"/><rect clip-path="url(#J)" fill="url(#H)" filter="url(#I)" height="357.53195" rx="35.311501" ry="27.919744" transform="matrix(1 0 0 1.0118841 0 -1.228344)" width="477.71075" x="17.8808" y="103.3599"/><rect fill="#9f9f9f" filter="url(#S)" height="59.687134" rx="28.959484" ry="24.581234" width="469.44849" x="23.138639" y="106.58829"/><rect fill="#fff" height="54.12603" rx="28.542467" ry="22.290977" width="462.68842" x="26.894228" y="109.36884"/><path d="m42.0625 104.78711c-14.073593 3.70386-24.181641 14.2432-24.181641 26.74219v304.38086c0 12.49898 10.108048 23.03832 24.181641 26.74218z" fill="url(#T)"/><rect fill="url(#h)" height="52.578232" rx="28.542467" ry="21.653542" width="462.68842" x="26.894228" y="109.36884"/><ellipse cx="153.54306" cy="358.46918" rx="91.801292" ry="91.035492"/><ellipse cx="153.54306" cy="359.53143" fill="url(#X)" rx="85.754745" ry="86.031654"/><g transform="translate(0 4)"><circle cx="153.46053" cy="357.18332" fill="#303030" r="78.605812"/><circle cx="149.21156" cy="352.93436" fill="url(#M)" filter="url(#L)" r="74.35685"/></g><g transform="translate(-492.93305 411.70006)"><ellipse cx="644.27112" cy="-45.361462" fill="#b8b8b8" fill-opacity=".988235" filter="url(#O)" rx="15.210131" ry="15.741251"/><ellipse cx="644.27112" cy="-45.361462" fill="url(#P)" filter="url(#O)" rx="15.210131" ry="15.741251" transform="matrix(1.7057285 0 0 .820604 -454.68049 -.83476)"/><circle cx="644.27112" cy="-45.892582" fill="#202020" fill-opacity=".988235" r="15.210131"/><circle cx="644.27112" cy="-52.000465" fill="url(#N)" r="8.305567"/></g><path clip-path="url(#K)" d="m79.328389 279.0301-2.223717 1.28426v2.56646l2.223717 1.28427 2.223717-1.28427v-2.56646zm5.814292 0-2.223721 1.28426v2.56646l2.223721 1.28427 2.223711-1.28427v-2.56646zm5.814286 0-2.223721 1.28426v2.56646l2.223721 1.28427 2.223711-1.28427v-2.56646zm5.814286 0-2.223721 1.28426v2.56646l2.223721 1.28427 2.223712-1.28427v-2.56646zm5.814287 0-2.22372 1.28426v2.56646l2.22372 1.28427 2.22371-1.28427v-2.56646zm5.81429 0-2.22372 1.28426v2.56646l2.22372 1.28427 2.22371-1.28427v-2.56646zm5.81428 0-2.22372 1.28426v2.56646l2.22372 1.28427 2.22371-1.28427v-2.56646zm5.81429 0-2.22372 1.28426v2.56646l2.22372 1.28427 2.22371-1.28427v-2.56646zm5.81428 0-2.22372 1.28426v2.56646l2.22372 1.28427 2.22371-1.28427v-2.56646zm5.81429 0-2.22372 1.28426v2.56646l2.22372 1.28427 2.22371-1.28427v-2.56646zm5.81428 0-2.22372 1.28426v2.56646l2.22372 1.28427 2.22372-1.28427v-2.56646zm5.81429 0-2.22372 1.28426v2.56646l2.22372 1.28427 2.22371-1.28427v-2.56646zm5.81429 0-2.22373 1.28426v2.56646l2.22373 1.28427 2.22371-1.28427v-2.56646zm5.81428 0-2.22372 1.28426v2.56646l2.22372 1.28427 2.22371-1.28427v-2.56646zm5.81429 0-2.22372 1.28426v2.56646l2.22372 1.28427 2.22371-1.28427v-2.56646zm5.81428 0-2.22372 1.28426v2.56646l2.22372 1.28427 2.22371-1.28427v-2.56646zm5.81429 0-2.22372 1.28426v2.56646l2.22372 1.28427 2.22371-1.28427v-2.56646zm5.81428 0-2.22372 1.28426v2.56646l2.22372 1.28427 2.22372-1.28427v-2.56646zm5.81429 0-2.22372 1.28426v2.56646l2.22372 1.28427 2.22371-1.28427v-2.56646zm5.81429 0-2.22373 1.28426v2.56646l2.22373 1.28427 2.22371-1.28427v-2.56646zm5.81428 0-2.22372 1.28426v2.56646l2.22372 1.28427 2.22371-1.28427v-2.56646zm5.81429 0-2.22372 1.28426v2.56646l2.22372 1.28427 2.22371-1.28427v-2.56646zm5.81428 0-2.22372 1.28426v2.56646l2.22372 1.28427 2.22371-1.28427v-2.56646zm5.81429 0-2.22372 1.28426v2.56646l2.22372 1.28427 2.22371-1.28427v-2.56646zm5.81428 0-2.22372 1.28426v2.56646l2.22372 1.28427 2.22372-1.28427v-2.56646zm5.81429 0-2.22372 1.28426v2.56646l2.22372 1.28427 2.22371-1.28427v-2.56646zm5.81429 0-2.22373 1.28426v2.56646l2.22373 1.28427 2.22371-1.28427v-2.56646zm-154.078584 5.81429-2.223717 1.28426v2.56645l2.223717 1.28427 2.223717-1.28427v-2.56645zm5.814292 0-2.223723 1.28426v2.56645l2.223723 1.28427 2.223711-1.28427v-2.56645zm5.814286 0-2.223721 1.28426v2.56645l2.223721 1.28427 2.223711-1.28427v-2.56645zm5.814286 0-2.223721 1.28426v2.56645l2.223721 1.28427 2.22371-1.28427v-2.56645zm5.814288 0-2.223721 1.28426v2.56645l2.223721 1.28427 2.223712-1.28427v-2.56645zm5.814282 0-2.22372 1.28426v2.56645l2.22372 1.28427 2.22371-1.28427v-2.56645zm5.81429 0-2.22372 1.28426v2.56645l2.22372 1.28427 2.22371-1.28427v-2.56645zm5.81428 0-2.22372 1.28426v2.56645l2.22372 1.28427 2.22372-1.28427v-2.56645zm5.81429 0-2.22372 1.28426v2.56645l2.22372 1.28427 2.22371-1.28427v-2.56645zm5.81429 0-2.22372 1.28426v2.56645l2.22372 1.28427 2.22371-1.28427v-2.56645zm5.81428 0-2.22372 1.28426v2.56645l2.22372 1.28427 2.22371-1.28427v-2.56645zm5.81429 0-2.22372 1.28426v2.56645l2.22372 1.28427 2.22371-1.28427v-2.56645zm5.81428 0-2.22372 1.28426v2.56645l2.22372 1.28427 2.22371-1.28427v-2.56645zm5.81429 0-2.22372 1.28426v2.56645l2.22372 1.28427 2.22371-1.28427v-2.56645zm5.81428 0-2.22372 1.28426v2.56645l2.22372 1.28427 2.22372-1.28427v-2.56645zm5.81429 0-2.22372 1.28426v2.56645l2.22372 1.28427 2.22371-1.28427v-2.56645zm5.81429 0-2.22373 1.28426v2.56645l2.22373 1.28427 2.22371-1.28427v-2.56645zm5.81428 0-2.22372 1.28426v2.56645l2.22372 1.28427 2.22371-1.28427v-2.56645zm5.81429 0-2.22372 1.28426v2.56645l2.22372 1.28427 2.22371-1.28427v-2.56645zm5.81428 0-2.22372 1.28426v2.56645l2.22372 1.28427 2.22371-1.28427v-2.56645zm5.81429 0-2.22372 1.28426v2.56645l2.22372 1.28427 2.22371-1.28427v-2.56645zm5.81428 0-2.22372 1.28426v2.56645l2.22372 1.28427 2.22372-1.28427v-2.56645zm5.81429 0-2.22372 1.28426v2.56645l2.22372 1.28427 2.22371-1.28427v-2.56645zm5.81429 0-2.22373 1.28426v2.56645l2.22373 1.28427 2.22371-1.28427v-2.56645zm5.81428 0-2.22372 1.28426v2.56645l2.22372 1.28427 2.22371-1.28427v-2.56645zm5.81429 0-2.22372 1.28426v2.56645l2.22372 1.28427 2.22371-1.28427v-2.56645zm5.81428 0-2.22372 1.28426v2.56645l2.22372 1.28427 2.22371-1.28427v-2.56645zm-148.264291 5.81428-2.223717 1.28426v2.56646l2.223717 1.28427 2.223717-1.28427v-2.56646zm5.814292 0-2.223721 1.28426v2.56646l2.223721 1.28427 2.223711-1.28427v-2.56646zm5.814286 0-2.223721 1.28426v2.56646l2.223721 1.28427 2.223711-1.28427v-2.56646zm5.814286 0-2.223721 1.28426v2.56646l2.223721 1.28427 2.223712-1.28427v-2.56646zm5.814287 0-2.22372 1.28426v2.56646l2.22372 1.28427 2.22371-1.28427v-2.56646zm5.81429 0-2.22372 1.28426v2.56646l2.22372 1.28427 2.22371-1.28427v-2.56646zm5.81428 0-2.22372 1.28426v2.56646l2.22372 1.28427 2.22371-1.28427v-2.56646zm5.81429 0-2.22372 1.28426v2.56646l2.22372 1.28427 2.22371-1.28427v-2.56646zm5.81428 0-2.22372 1.28426v2.56646l2.22372 1.28427 2.22371-1.28427v-2.56646zm5.81429 0-2.22372 1.28426v2.56646l2.22372 1.28427 2.22371-1.28427v-2.56646zm5.81428 0-2.22372 1.28426v2.56646l2.22372 1.28427 2.22372-1.28427v-2.56646zm5.81429 0-2.22372 1.28426v2.56646l2.22372 1.28427 2.22371-1.28427v-2.56646zm5.81429 0-2.22373 1.28426v2.56646l2.22373 1.28427 2.22371-1.28427v-2.56646zm5.81428 0-2.22372 1.28426v2.56646l2.22372 1.28427 2.22371-1.28427v-2.56646zm5.81429 0-2.22372 1.28426v2.56646l2.22372 1.28427 2.22371-1.28427v-2.56646zm5.81428 0-2.22372 1.28426v2.56646l2.22372 1.28427 2.22371-1.28427v-2.56646zm5.81429 0-2.22372 1.28426v2.56646l2.22372 1.28427 2.22371-1.28427v-2.56646zm5.81428 0-2.22372 1.28426v2.56646l2.22372 1.28427 2.22372-1.28427v-2.56646zm5.81429 0-2.22372 1.28426v2.56646l2.22372 1.28427 2.22371-1.28427v-2.56646zm5.81429 0-2.22373 1.28426v2.56646l2.22373 1.28427 2.22371-1.28427v-2.56646zm5.81428 0-2.22372 1.28426v2.56646l2.22372 1.28427 2.22371-1.28427v-2.56646zm5.81429 0-2.22372 1.28426v2.56646l2.22372 1.28427 2.22371-1.28427v-2.56646zm5.81428 0-2.22372 1.28426v2.56646l2.22372 1.28427 2.22371-1.28427v-2.56646zm5.81429 0-2.22372 1.28426v2.56646l2.22372 1.28427 2.22371-1.28427v-2.56646zm5.81428 0-2.22372 1.28426v2.56646l2.22372 1.28427 2.22372-1.28427v-2.56646zm5.81429 0-2.22372 1.28426v2.56646l2.22372 1.28427 2.22371-1.28427v-2.56646zm5.81429 0-2.22373 1.28426v2.56646l2.22373 1.28427 2.22371-1.28427v-2.56646zm-154.078584 5.81429-2.223717 1.28426v2.56646l2.223717 1.28427 2.223717-1.28427v-2.56646zm5.814292 0-2.223723 1.28426v2.56646l2.223723 1.28427 2.223711-1.28427v-2.56646zm5.814286 0-2.223721 1.28426v2.56646l2.223721 1.28427 2.223711-1.28427v-2.56646zm5.814286 0-2.223721 1.28426v2.56646l2.223721 1.28427 2.22371-1.28427v-2.56646zm5.814288 0-2.223721 1.28426v2.56646l2.223721 1.28427 2.223712-1.28427v-2.56646zm5.814282 0-2.22372 1.28426v2.56646l2.22372 1.28427 2.22371-1.28427v-2.56646zm5.81429 0-2.22372 1.28426v2.56646l2.22372 1.28427 2.22371-1.28427v-2.56646zm5.81428 0-2.22372 1.28426v2.56646l2.22372 1.28427 2.22372-1.28427v-2.56646zm5.81429 0-2.22372 1.28426v2.56646l2.22372 1.28427 2.22371-1.28427v-2.56646zm5.81429 0-2.22372 1.28426v2.56646l2.22372 1.28427 2.22371-1.28427v-2.56646zm5.81428 0-2.22372 1.28426v2.56646l2.22372 1.28427 2.22371-1.28427v-2.56646zm5.81429 0-2.22372 1.28426v2.56646l2.22372 1.28427 2.22371-1.28427v-2.56646zm5.81428 0-2.22372 1.28426v2.56646l2.22372 1.28427 2.22371-1.28427v-2.56646zm5.81429 0-2.22372 1.28426v2.56646l2.22372 1.28427 2.22371-1.28427v-2.56646zm5.81428 0-2.22372 1.28426v2.56646l2.22372 1.28427 2.22372-1.28427v-2.56646zm5.81429 0-2.22372 1.28426v2.56646l2.22372 1.28427 2.22371-1.28427v-2.56646zm5.81429 0-2.22373 1.28426v2.56646l2.22373 1.28427 2.22371-1.28427v-2.56646zm5.81428 0-2.22372 1.28426v2.56646l2.22372 1.28427 2.22371-1.28427v-2.56646zm5.81429 0-2.22372 1.28426v2.56646l2.22372 1.28427 2.22371-1.28427v-2.56646zm5.81428 0-2.22372 1.28426v2.56646l2.22372 1.28427 2.22371-1.28427v-2.56646zm5.81429 0-2.22372 1.28426v2.56646l2.22372 1.28427 2.22371-1.28427v-2.56646zm5.81428 0-2.22372 1.28426v2.56646l2.22372 1.28427 2.22372-1.28427v-2.56646zm5.81429 0-2.22372 1.28426v2.56646l2.22372 1.28427 2.22371-1.28427v-2.56646zm5.81429 0-2.22373 1.28426v2.56646l2.22373 1.28427 2.22371-1.28427v-2.56646zm5.81428 0-2.22372 1.28426v2.56646l2.22372 1.28427 2.22371-1.28427v-2.56646zm5.81429 0-2.22372 1.28426v2.56646l2.22372 1.28427 2.22371-1.28427v-2.56646zm5.81428 0-2.22372 1.28426v2.56646l2.22372 1.28427 2.22371-1.28427v-2.56646zm-148.264291 5.81428-2.223717 1.28426v2.56646l2.223717 1.28427 2.223717-1.28427v-2.56646zm5.814292 0-2.223721 1.28426v2.56646l2.223721 1.28427 2.223711-1.28427v-2.56646zm5.814286 0-2.223721 1.28426v2.56646l2.223721 1.28427 2.223711-1.28427v-2.56646zm5.814286 0-2.223721 1.28426v2.56646l2.223721 1.28427 2.223712-1.28427v-2.56646zm5.814287 0-2.22372 1.28426v2.56646l2.22372 1.28427 2.22371-1.28427v-2.56646zm5.81429 0-2.22372 1.28426v2.56646l2.22372 1.28427 2.22371-1.28427v-2.56646zm5.81428 0-2.22372 1.28426v2.56646l2.22372 1.28427 2.22371-1.28427v-2.56646zm5.81429 0-2.22372 1.28426v2.56646l2.22372 1.28427 2.22371-1.28427v-2.56646zm5.81428 0-2.22372 1.28426v2.56646l2.22372 1.28427 2.22371-1.28427v-2.56646zm5.81429 0-2.22372 1.28426v2.56646l2.22372 1.28427 2.22371-1.28427v-2.56646zm5.81428 0-2.22372 1.28426v2.56646l2.22372 1.28427 2.22372-1.28427v-2.56646zm5.81429 0-2.22372 1.28426v2.56646l2.22372 1.28427 2.22371-1.28427v-2.56646zm5.81429 0-2.22373 1.28426v2.56646l2.22373 1.28427 2.22371-1.28427v-2.56646zm5.81428 0-2.22372 1.28426v2.56646l2.22372 1.28427 2.22371-1.28427v-2.56646zm5.81429 0-2.22372 1.28426v2.56646l2.22372 1.28427 2.22371-1.28427v-2.56646zm5.81428 0-2.22372 1.28426v2.56646l2.22372 1.28427 2.22371-1.28427v-2.56646zm5.81429 0-2.22372 1.28426v2.56646l2.22372 1.28427 2.22371-1.28427v-2.56646zm5.81428 0-2.22372 1.28426v2.56646l2.22372 1.28427 2.22372-1.28427v-2.56646zm5.81429 0-2.22372 1.28426v2.56646l2.22372 1.28427 2.22371-1.28427v-2.56646zm5.81429 0-2.22373 1.28426v2.56646l2.22373 1.28427 2.22371-1.28427v-2.56646zm5.81428 0-2.22372 1.28426v2.56646l2.22372 1.28427 2.22371-1.28427v-2.56646zm5.81429 0-2.22372 1.28426v2.56646l2.22372 1.28427 2.22371-1.28427v-2.56646zm5.81428 0-2.22372 1.28426v2.56646l2.22372 1.28427 2.22371-1.28427v-2.56646zm5.81429 0-2.22372 1.28426v2.56646l2.22372 1.28427 2.22371-1.28427v-2.56646zm5.81428 0-2.22372 1.28426v2.56646l2.22372 1.28427 2.22372-1.28427v-2.56646zm5.81429 0-2.22372 1.28426v2.56646l2.22372 1.28427 2.22371-1.28427v-2.56646zm5.81429 0-2.22373 1.28426v2.56646l2.22373 1.28427 2.22371-1.28427v-2.56646zm-154.078584 5.81429-2.223717 1.28426v2.56646l2.223717 1.28427 2.223717-1.28427v-2.56646zm5.814292 0-2.223723 1.28426v2.56646l2.223723 1.28427 2.223711-1.28427v-2.56646zm5.814286 0-2.223721 1.28426v2.56646l2.223721 1.28427 2.223711-1.28427v-2.56646zm5.814286 0-2.223721 1.28426v2.56646l2.223721 1.28427 2.22371-1.28427v-2.56646zm5.814288 0-2.223721 1.28426v2.56646l2.223721 1.28427 2.223712-1.28427v-2.56646zm5.814282 0-2.22372 1.28426v2.56646l2.22372 1.28427 2.22371-1.28427v-2.56646zm5.81429 0-2.22372 1.28426v2.56646l2.22372 1.28427 2.22371-1.28427v-2.56646zm5.81428 0-2.22372 1.28426v2.56646l2.22372 1.28427 2.22372-1.28427v-2.56646zm5.81429 0-2.22372 1.28426v2.56646l2.22372 1.28427 2.22371-1.28427v-2.56646zm5.81429 0-2.22372 1.28426v2.56646l2.22372 1.28427 2.22371-1.28427v-2.56646zm5.81428 0-2.22372 1.28426v2.56646l2.22372 1.28427 2.22371-1.28427v-2.56646zm5.81429 0-2.22372 1.28426v2.56646l2.22372 1.28427 2.22371-1.28427v-2.56646zm5.81428 0-2.22372 1.28426v2.56646l2.22372 1.28427 2.22371-1.28427v-2.56646zm5.81429 0-2.22372 1.28426v2.56646l2.22372 1.28427 2.22371-1.28427v-2.56646zm5.81428 0-2.22372 1.28426v2.56646l2.22372 1.28427 2.22372-1.28427v-2.56646zm5.81429 0-2.22372 1.28426v2.56646l2.22372 1.28427 2.22371-1.28427v-2.56646zm5.81429 0-2.22373 1.28426v2.56646l2.22373 1.28427 2.22371-1.28427v-2.56646zm5.81428 0-2.22372 1.28426v2.56646l2.22372 1.28427 2.22371-1.28427v-2.56646zm5.81429 0-2.22372 1.28426v2.56646l2.22372 1.28427 2.22371-1.28427v-2.56646zm5.81428 0-2.22372 1.28426v2.56646l2.22372 1.28427 2.22371-1.28427v-2.56646zm5.81429 0-2.22372 1.28426v2.56646l2.22372 1.28427 2.22371-1.28427v-2.56646zm5.81428 0-2.22372 1.28426v2.56646l2.22372 1.28427 2.22372-1.28427v-2.56646zm5.81429 0-2.22372 1.28426v2.56646l2.22372 1.28427 2.22371-1.28427v-2.56646zm5.81429 0-2.22373 1.28426v2.56646l2.22373 1.28427 2.22371-1.28427v-2.56646zm5.81428 0-2.22372 1.28426v2.56646l2.22372 1.28427 2.22371-1.28427v-2.56646zm5.81429 0-2.22372 1.28426v2.56646l2.22372 1.28427 2.22371-1.28427v-2.56646zm5.81428 0-2.22372 1.28426v2.56646l2.22372 1.28427 2.22371-1.28427v-2.56646zm-148.264291 5.81429-2.223717 1.28426v2.56645l2.223717 1.28427 2.223717-1.28427v-2.56645zm5.814292 0-2.223721 1.28426v2.56645l2.223721 1.28427 2.223711-1.28427v-2.56645zm5.814286 0-2.223721 1.28426v2.56645l2.223721 1.28427 2.223711-1.28427v-2.56645zm5.814286 0-2.223721 1.28426v2.56645l2.223721 1.28427 2.223712-1.28427v-2.56645zm5.814287 0-2.22372 1.28426v2.56645l2.22372 1.28427 2.22371-1.28427v-2.56645zm5.81429 0-2.22372 1.28426v2.56645l2.22372 1.28427 2.22371-1.28427v-2.56645zm5.81428 0-2.22372 1.28426v2.56645l2.22372 1.28427 2.22371-1.28427v-2.56645zm5.81429 0-2.22372 1.28426v2.56645l2.22372 1.28427 2.22371-1.28427v-2.56645zm5.81428 0-2.22372 1.28426v2.56645l2.22372 1.28427 2.22371-1.28427v-2.56645zm5.81429 0-2.22372 1.28426v2.56645l2.22372 1.28427 2.22371-1.28427v-2.56645zm5.81428 0-2.22372 1.28426v2.56645l2.22372 1.28427 2.22372-1.28427v-2.56645zm5.81429 0-2.22372 1.28426v2.56645l2.22372 1.28427 2.22371-1.28427v-2.56645zm5.81429 0-2.22373 1.28426v2.56645l2.22373 1.28427 2.22371-1.28427v-2.56645zm5.81428 0-2.22372 1.28426v2.56645l2.22372 1.28427 2.22371-1.28427v-2.56645zm5.81429 0-2.22372 1.28426v2.56645l2.22372 1.28427 2.22371-1.28427v-2.56645zm5.81428 0-2.22372 1.28426v2.56645l2.22372 1.28427 2.22371-1.28427v-2.56645zm5.81429 0-2.22372 1.28426v2.56645l2.22372 1.28427 2.22371-1.28427v-2.56645zm5.81428 0-2.22372 1.28426v2.56645l2.22372 1.28427 2.22372-1.28427v-2.56645zm5.81429 0-2.22372 1.28426v2.56645l2.22372 1.28427 2.22371-1.28427v-2.56645zm5.81429 0-2.22373 1.28426v2.56645l2.22373 1.28427 2.22371-1.28427v-2.56645zm5.81428 0-2.22372 1.28426v2.56645l2.22372 1.28427 2.22371-1.28427v-2.56645zm5.81429 0-2.22372 1.28426v2.56645l2.22372 1.28427 2.22371-1.28427v-2.56645zm5.81428 0-2.22372 1.28426v2.56645l2.22372 1.28427 2.22371-1.28427v-2.56645zm5.81429 0-2.22372 1.28426v2.56645l2.22372 1.28427 2.22371-1.28427v-2.56645zm5.81428 0-2.22372 1.28426v2.56645l2.22372 1.28427 2.22372-1.28427v-2.56645zm5.81429 0-2.22372 1.28426v2.56645l2.22372 1.28427 2.22371-1.28427v-2.56645zm5.81429 0-2.22373 1.28426v2.56645l2.22373 1.28427 2.22371-1.28427v-2.56645zm-154.078584 5.81428-2.223717 1.28426v2.56646l2.223717 1.28427 2.223717-1.28427v-2.56646zm5.814292 0-2.223723 1.28426v2.56646l2.223723 1.28427 2.223711-1.28427v-2.56646zm5.814286 0-2.223721 1.28426v2.56646l2.223721 1.28427 2.223711-1.28427v-2.56646zm5.814286 0-2.223721 1.28426v2.56646l2.223721 1.28427 2.22371-1.28427v-2.56646zm5.814288 0-2.223721 1.28426v2.56646l2.223721 1.28427 2.223712-1.28427v-2.56646zm5.814282 0-2.22372 1.28426v2.56646l2.22372 1.28427 2.22371-1.28427v-2.56646zm5.81429 0-2.22372 1.28426v2.56646l2.22372 1.28427 2.22371-1.28427v-2.56646zm5.81428 0-2.22372 1.28426v2.56646l2.22372 1.28427 2.22372-1.28427v-2.56646zm5.81429 0-2.22372 1.28426v2.56646l2.22372 1.28427 2.22371-1.28427v-2.56646zm5.81429 0-2.22372 1.28426v2.56646l2.22372 1.28427 2.22371-1.28427v-2.56646zm5.81428 0-2.22372 1.28426v2.56646l2.22372 1.28427 2.22371-1.28427v-2.56646zm5.81429 0-2.22372 1.28426v2.56646l2.22372 1.28427 2.22371-1.28427v-2.56646zm5.81428 0-2.22372 1.28426v2.56646l2.22372 1.28427 2.22371-1.28427v-2.56646zm5.81429 0-2.22372 1.28426v2.56646l2.22372 1.28427 2.22371-1.28427v-2.56646zm5.81428 0-2.22372 1.28426v2.56646l2.22372 1.28427 2.22372-1.28427v-2.56646zm5.81429 0-2.22372 1.28426v2.56646l2.22372 1.28427 2.22371-1.28427v-2.56646zm5.81429 0-2.22373 1.28426v2.56646l2.22373 1.28427 2.22371-1.28427v-2.56646zm5.81428 0-2.22372 1.28426v2.56646l2.22372 1.28427 2.22371-1.28427v-2.56646zm5.81429 0-2.22372 1.28426v2.56646l2.22372 1.28427 2.22371-1.28427v-2.56646zm5.81428 0-2.22372 1.28426v2.56646l2.22372 1.28427 2.22371-1.28427v-2.56646zm5.81429 0-2.22372 1.28426v2.56646l2.22372 1.28427 2.22371-1.28427v-2.56646zm5.81428 0-2.22372 1.28426v2.56646l2.22372 1.28427 2.22372-1.28427v-2.56646zm5.81429 0-2.22372 1.28426v2.56646l2.22372 1.28427 2.22371-1.28427v-2.56646zm5.81429 0-2.22373 1.28426v2.56646l2.22373 1.28427 2.22371-1.28427v-2.56646zm5.81428 0-2.22372 1.28426v2.56646l2.22372 1.28427 2.22371-1.28427v-2.56646zm5.81429 0-2.22372 1.28426v2.56646l2.22372 1.28427 2.22371-1.28427v-2.56646zm5.81428 0-2.22372 1.28426v2.56646l2.22372 1.28427 2.22371-1.28427v-2.56646zm-148.264291 5.81429-2.223717 1.28426v2.56645l2.223717 1.28427 2.223717-1.28427v-2.56645zm5.814292 0-2.223721 1.28426v2.56645l2.223721 1.28427 2.223711-1.28427v-2.56645zm5.814286 0-2.223721 1.28426v2.56645l2.223721 1.28427 2.223711-1.28427v-2.56645zm5.814286 0-2.223721 1.28426v2.56645l2.223721 1.28427 2.223712-1.28427v-2.56645zm5.814287 0-2.22372 1.28426v2.56645l2.22372 1.28427 2.22371-1.28427v-2.56645zm5.81429 0-2.22372 1.28426v2.56645l2.22372 1.28427 2.22371-1.28427v-2.56645zm5.81428 0-2.22372 1.28426v2.56645l2.22372 1.28427 2.22371-1.28427v-2.56645zm5.81429 0-2.22372 1.28426v2.56645l2.22372 1.28427 2.22371-1.28427v-2.56645zm5.81428 0-2.22372 1.28426v2.56645l2.22372 1.28427 2.22371-1.28427v-2.56645zm5.81429 0-2.22372 1.28426v2.56645l2.22372 1.28427 2.22371-1.28427v-2.56645zm5.81428 0-2.22372 1.28426v2.56645l2.22372 1.28427 2.22372-1.28427v-2.56645zm5.81429 0-2.22372 1.28426v2.56645l2.22372 1.28427 2.22371-1.28427v-2.56645zm5.81429 0-2.22373 1.28426v2.56645l2.22373 1.28427 2.22371-1.28427v-2.56645zm5.81428 0-2.22372 1.28426v2.56645l2.22372 1.28427 2.22371-1.28427v-2.56645zm5.81429 0-2.22372 1.28426v2.56645l2.22372 1.28427 2.22371-1.28427v-2.56645zm5.81428 0-2.22372 1.28426v2.56645l2.22372 1.28427 2.22371-1.28427v-2.56645zm5.81429 0-2.22372 1.28426v2.56645l2.22372 1.28427 2.22371-1.28427v-2.56645zm5.81428 0-2.22372 1.28426v2.56645l2.22372 1.28427 2.22372-1.28427v-2.56645zm5.81429 0-2.22372 1.28426v2.56645l2.22372 1.28427 2.22371-1.28427v-2.56645zm5.81429 0-2.22373 1.28426v2.56645l2.22373 1.28427 2.22371-1.28427v-2.56645zm5.81428 0-2.22372 1.28426v2.56645l2.22372 1.28427 2.22371-1.28427v-2.56645zm5.81429 0-2.22372 1.28426v2.56645l2.22372 1.28427 2.22371-1.28427v-2.56645zm5.81428 0-2.22372 1.28426v2.56645l2.22372 1.28427 2.22371-1.28427v-2.56645zm5.81429 0-2.22372 1.28426v2.56645l2.22372 1.28427 2.22371-1.28427v-2.56645zm5.81428 0-2.22372 1.28426v2.56645l2.22372 1.28427 2.22372-1.28427v-2.56645zm5.81429 0-2.22372 1.28426v2.56645l2.22372 1.28427 2.22371-1.28427v-2.56645zm5.81429 0-2.22373 1.28426v2.56645l2.22373 1.28427 2.22371-1.28427v-2.56645zm-154.078584 5.81428-2.223717 1.28426v2.56646l2.223717 1.28427 2.223717-1.28427v-2.56646zm5.814292 0-2.223723 1.28426v2.56646l2.223723 1.28427 2.223711-1.28427v-2.56646zm5.814286 0-2.223721 1.28426v2.56646l2.223721 1.28427 2.223711-1.28427v-2.56646zm5.814286 0-2.223721 1.28426v2.56646l2.223721 1.28427 2.22371-1.28427v-2.56646zm5.814288 0-2.223721 1.28426v2.56646l2.223721 1.28427 2.223712-1.28427v-2.56646zm5.814282 0-2.22372 1.28426v2.56646l2.22372 1.28427 2.22371-1.28427v-2.56646zm5.81429 0-2.22372 1.28426v2.56646l2.22372 1.28427 2.22371-1.28427v-2.56646zm5.81428 0-2.22372 1.28426v2.56646l2.22372 1.28427 2.22372-1.28427v-2.56646zm5.81429 0-2.22372 1.28426v2.56646l2.22372 1.28427 2.22371-1.28427v-2.56646zm5.81429 0-2.22372 1.28426v2.56646l2.22372 1.28427 2.22371-1.28427v-2.56646zm5.81428 0-2.22372 1.28426v2.56646l2.22372 1.28427 2.22371-1.28427v-2.56646zm5.81429 0-2.22372 1.28426v2.56646l2.22372 1.28427 2.22371-1.28427v-2.56646zm5.81428 0-2.22372 1.28426v2.56646l2.22372 1.28427 2.22371-1.28427v-2.56646zm5.81429 0-2.22372 1.28426v2.56646l2.22372 1.28427 2.22371-1.28427v-2.56646zm5.81428 0-2.22372 1.28426v2.56646l2.22372 1.28427 2.22372-1.28427v-2.56646zm5.81429 0-2.22372 1.28426v2.56646l2.22372 1.28427 2.22371-1.28427v-2.56646zm5.81429 0-2.22373 1.28426v2.56646l2.22373 1.28427 2.22371-1.28427v-2.56646zm5.81428 0-2.22372 1.28426v2.56646l2.22372 1.28427 2.22371-1.28427v-2.56646zm5.81429 0-2.22372 1.28426v2.56646l2.22372 1.28427 2.22371-1.28427v-2.56646zm5.81428 0-2.22372 1.28426v2.56646l2.22372 1.28427 2.22371-1.28427v-2.56646zm5.81429 0-2.22372 1.28426v2.56646l2.22372 1.28427 2.22371-1.28427v-2.56646zm5.81428 0-2.22372 1.28426v2.56646l2.22372 1.28427 2.22372-1.28427v-2.56646zm5.81429 0-2.22372 1.28426v2.56646l2.22372 1.28427 2.22371-1.28427v-2.56646zm5.81429 0-2.22373 1.28426v2.56646l2.22373 1.28427 2.22371-1.28427v-2.56646zm5.81428 0-2.22372 1.28426v2.56646l2.22372 1.28427 2.22371-1.28427v-2.56646zm5.81429 0-2.22372 1.28426v2.56646l2.22372 1.28427 2.22371-1.28427v-2.56646zm5.81428 0-2.22372 1.28426v2.56646l2.22372 1.28427 2.22371-1.28427v-2.56646zm-148.264291 5.81429-2.223717 1.28426v2.56646l2.223717 1.28427 2.223717-1.28427v-2.56646zm5.814292 0-2.223721 1.28426v2.56646l2.223721 1.28427 2.223711-1.28427v-2.56646zm5.814286 0-2.223721 1.28426v2.56646l2.223721 1.28427 2.223711-1.28427v-2.56646zm5.814286 0-2.223721 1.28426v2.56646l2.223721 1.28427 2.223712-1.28427v-2.56646zm5.814287 0-2.22372 1.28426v2.56646l2.22372 1.28427 2.22371-1.28427v-2.56646zm5.81429 0-2.22372 1.28426v2.56646l2.22372 1.28427 2.22371-1.28427v-2.56646zm5.81428 0-2.22372 1.28426v2.56646l2.22372 1.28427 2.22371-1.28427v-2.56646zm5.81429 0-2.22372 1.28426v2.56646l2.22372 1.28427 2.22371-1.28427v-2.56646zm5.81428 0-2.22372 1.28426v2.56646l2.22372 1.28427 2.22371-1.28427v-2.56646zm5.81429 0-2.22372 1.28426v2.56646l2.22372 1.28427 2.22371-1.28427v-2.56646zm5.81428 0-2.22372 1.28426v2.56646l2.22372 1.28427 2.22372-1.28427v-2.56646zm5.81429 0-2.22372 1.28426v2.56646l2.22372 1.28427 2.22371-1.28427v-2.56646zm5.81429 0-2.22373 1.28426v2.56646l2.22373 1.28427 2.22371-1.28427v-2.56646zm5.81428 0-2.22372 1.28426v2.56646l2.22372 1.28427 2.22371-1.28427v-2.56646zm5.81429 0-2.22372 1.28426v2.56646l2.22372 1.28427 2.22371-1.28427v-2.56646zm5.81428 0-2.22372 1.28426v2.56646l2.22372 1.28427 2.22371-1.28427v-2.56646zm5.81429 0-2.22372 1.28426v2.56646l2.22372 1.28427 2.22371-1.28427v-2.56646zm5.81428 0-2.22372 1.28426v2.56646l2.22372 1.28427 2.22372-1.28427v-2.56646zm5.81429 0-2.22372 1.28426v2.56646l2.22372 1.28427 2.22371-1.28427v-2.56646zm5.81429 0-2.22373 1.28426v2.56646l2.22373 1.28427 2.22371-1.28427v-2.56646zm5.81428 0-2.22372 1.28426v2.56646l2.22372 1.28427 2.22371-1.28427v-2.56646zm5.81429 0-2.22372 1.28426v2.56646l2.22372 1.28427 2.22371-1.28427v-2.56646zm5.81428 0-2.22372 1.28426v2.56646l2.22372 1.28427 2.22371-1.28427v-2.56646zm5.81429 0-2.22372 1.28426v2.56646l2.22372 1.28427 2.22371-1.28427v-2.56646zm5.81428 0-2.22372 1.28426v2.56646l2.22372 1.28427 2.22372-1.28427v-2.56646zm5.81429 0-2.22372 1.28426v2.56646l2.22372 1.28427 2.22371-1.28427v-2.56646zm5.81429 0-2.22373 1.28426v2.56646l2.22373 1.28427 2.22371-1.28427v-2.56646zm-154.078584 5.81428-2.223717 1.28426v2.56646l2.223717 1.28427 2.223717-1.28427v-2.56646zm5.814292 0-2.223723 1.28426v2.56646l2.223723 1.28427 2.223711-1.28427v-2.56646zm5.814286 0-2.223721 1.28426v2.56646l2.223721 1.28427 2.223711-1.28427v-2.56646zm5.814286 0-2.223721 1.28426v2.56646l2.223721 1.28427 2.22371-1.28427v-2.56646zm5.814288 0-2.223721 1.28426v2.56646l2.223721 1.28427 2.223712-1.28427v-2.56646zm5.814282 0-2.22372 1.28426v2.56646l2.22372 1.28427 2.22371-1.28427v-2.56646zm5.81429 0-2.22372 1.28426v2.56646l2.22372 1.28427 2.22371-1.28427v-2.56646zm5.81428 0-2.22372 1.28426v2.56646l2.22372 1.28427 2.22372-1.28427v-2.56646zm5.81429 0-2.22372 1.28426v2.56646l2.22372 1.28427 2.22371-1.28427v-2.56646zm5.81429 0-2.22372 1.28426v2.56646l2.22372 1.28427 2.22371-1.28427v-2.56646zm5.81428 0-2.22372 1.28426v2.56646l2.22372 1.28427 2.22371-1.28427v-2.56646zm5.81429 0-2.22372 1.28426v2.56646l2.22372 1.28427 2.22371-1.28427v-2.56646zm5.81428 0-2.22372 1.28426v2.56646l2.22372 1.28427 2.22371-1.28427v-2.56646zm5.81429 0-2.22372 1.28426v2.56646l2.22372 1.28427 2.22371-1.28427v-2.56646zm5.81428 0-2.22372 1.28426v2.56646l2.22372 1.28427 2.22372-1.28427v-2.56646zm5.81429 0-2.22372 1.28426v2.56646l2.22372 1.28427 2.22371-1.28427v-2.56646zm5.81429 0-2.22373 1.28426v2.56646l2.22373 1.28427 2.22371-1.28427v-2.56646zm5.81428 0-2.22372 1.28426v2.56646l2.22372 1.28427 2.22371-1.28427v-2.56646zm5.81429 0-2.22372 1.28426v2.56646l2.22372 1.28427 2.22371-1.28427v-2.56646zm5.81428 0-2.22372 1.28426v2.56646l2.22372 1.28427 2.22371-1.28427v-2.56646zm5.81429 0-2.22372 1.28426v2.56646l2.22372 1.28427 2.22371-1.28427v-2.56646zm5.81428 0-2.22372 1.28426v2.56646l2.22372 1.28427 2.22372-1.28427v-2.56646zm5.81429 0-2.22372 1.28426v2.56646l2.22372 1.28427 2.22371-1.28427v-2.56646zm5.81429 0-2.22373 1.28426v2.56646l2.22373 1.28427 2.22371-1.28427v-2.56646zm5.81428 0-2.22372 1.28426v2.56646l2.22372 1.28427 2.22371-1.28427v-2.56646zm5.81429 0-2.22372 1.28426v2.56646l2.22372 1.28427 2.22371-1.28427v-2.56646zm5.81428 0-2.22372 1.28426v2.56646l2.22372 1.28427 2.22371-1.28427v-2.56646zm-148.264291 5.81429-2.223717 1.28426v2.56646l2.223717 1.28427 2.223717-1.28427v-2.56646zm5.814292 0-2.223721 1.28426v2.56646l2.223721 1.28427 2.223711-1.28427v-2.56646zm5.814286 0-2.223721 1.28426v2.56646l2.223721 1.28427 2.223711-1.28427v-2.56646zm5.814286 0-2.223721 1.28426v2.56646l2.223721 1.28427 2.223712-1.28427v-2.56646zm5.814287 0-2.22372 1.28426v2.56646l2.22372 1.28427 2.22371-1.28427v-2.56646zm5.81429 0-2.22372 1.28426v2.56646l2.22372 1.28427 2.22371-1.28427v-2.56646zm5.81428 0-2.22372 1.28426v2.56646l2.22372 1.28427 2.22371-1.28427v-2.56646zm5.81429 0-2.22372 1.28426v2.56646l2.22372 1.28427 2.22371-1.28427v-2.56646zm5.81428 0-2.22372 1.28426v2.56646l2.22372 1.28427 2.22371-1.28427v-2.56646zm5.81429 0-2.22372 1.28426v2.56646l2.22372 1.28427 2.22371-1.28427v-2.56646zm5.81428 0-2.22372 1.28426v2.56646l2.22372 1.28427 2.22372-1.28427v-2.56646zm5.81429 0-2.22372 1.28426v2.56646l2.22372 1.28427 2.22371-1.28427v-2.56646zm5.81429 0-2.22373 1.28426v2.56646l2.22373 1.28427 2.22371-1.28427v-2.56646zm5.81428 0-2.22372 1.28426v2.56646l2.22372 1.28427 2.22371-1.28427v-2.56646zm5.81429 0-2.22372 1.28426v2.56646l2.22372 1.28427 2.22371-1.28427v-2.56646zm5.81428 0-2.22372 1.28426v2.56646l2.22372 1.28427 2.22371-1.28427v-2.56646zm5.81429 0-2.22372 1.28426v2.56646l2.22372 1.28427 2.22371-1.28427v-2.56646zm5.81428 0-2.22372 1.28426v2.56646l2.22372 1.28427 2.22372-1.28427v-2.56646zm5.81429 0-2.22372 1.28426v2.56646l2.22372 1.28427 2.22371-1.28427v-2.56646zm5.81429 0-2.22373 1.28426v2.56646l2.22373 1.28427 2.22371-1.28427v-2.56646zm5.81428 0-2.22372 1.28426v2.56646l2.22372 1.28427 2.22371-1.28427v-2.56646zm5.81429 0-2.22372 1.28426v2.56646l2.22372 1.28427 2.22371-1.28427v-2.56646zm5.81428 0-2.22372 1.28426v2.56646l2.22372 1.28427 2.22371-1.28427v-2.56646zm5.81429 0-2.22372 1.28426v2.56646l2.22372 1.28427 2.22371-1.28427v-2.56646zm5.81428 0-2.22372 1.28426v2.56646l2.22372 1.28427 2.22372-1.28427v-2.56646zm5.81429 0-2.22372 1.28426v2.56646l2.22372 1.28427 2.22371-1.28427v-2.56646zm5.81429 0-2.22373 1.28426v2.56646l2.22373 1.28427 2.22371-1.28427v-2.56646zm-154.078584 5.81429-2.223717 1.28426v2.56645l2.223717 1.28427 2.223717-1.28427v-2.56645zm5.814292 0-2.223723 1.28426v2.56645l2.223723 1.28427 2.223711-1.28427v-2.56645zm5.814286 0-2.223721 1.28426v2.56645l2.223721 1.28427 2.223711-1.28427v-2.56645zm5.814286 0-2.223721 1.28426v2.56645l2.223721 1.28427 2.22371-1.28427v-2.56645zm5.814288 0-2.223721 1.28426v2.56645l2.223721 1.28427 2.223712-1.28427v-2.56645zm5.814282 0-2.22372 1.28426v2.56645l2.22372 1.28427 2.22371-1.28427v-2.56645zm5.81429 0-2.22372 1.28426v2.56645l2.22372 1.28427 2.22371-1.28427v-2.56645zm5.81428 0-2.22372 1.28426v2.56645l2.22372 1.28427 2.22372-1.28427v-2.56645zm5.81429 0-2.22372 1.28426v2.56645l2.22372 1.28427 2.22371-1.28427v-2.56645zm5.81429 0-2.22372 1.28426v2.56645l2.22372 1.28427 2.22371-1.28427v-2.56645zm5.81428 0-2.22372 1.28426v2.56645l2.22372 1.28427 2.22371-1.28427v-2.56645zm5.81429 0-2.22372 1.28426v2.56645l2.22372 1.28427 2.22371-1.28427v-2.56645zm5.81428 0-2.22372 1.28426v2.56645l2.22372 1.28427 2.22371-1.28427v-2.56645zm5.81429 0-2.22372 1.28426v2.56645l2.22372 1.28427 2.22371-1.28427v-2.56645zm5.81428 0-2.22372 1.28426v2.56645l2.22372 1.28427 2.22372-1.28427v-2.56645zm5.81429 0-2.22372 1.28426v2.56645l2.22372 1.28427 2.22371-1.28427v-2.56645zm5.81429 0-2.22373 1.28426v2.56645l2.22373 1.28427 2.22371-1.28427v-2.56645zm5.81428 0-2.22372 1.28426v2.56645l2.22372 1.28427 2.22371-1.28427v-2.56645zm5.81429 0-2.22372 1.28426v2.56645l2.22372 1.28427 2.22371-1.28427v-2.56645zm5.81428 0-2.22372 1.28426v2.56645l2.22372 1.28427 2.22371-1.28427v-2.56645zm5.81429 0-2.22372 1.28426v2.56645l2.22372 1.28427 2.22371-1.28427v-2.56645zm5.81428 0-2.22372 1.28426v2.56645l2.22372 1.28427 2.22372-1.28427v-2.56645zm5.81429 0-2.22372 1.28426v2.56645l2.22372 1.28427 2.22371-1.28427v-2.56645zm5.81429 0-2.22373 1.28426v2.56645l2.22373 1.28427 2.22371-1.28427v-2.56645zm5.81428 0-2.22372 1.28426v2.56645l2.22372 1.28427 2.22371-1.28427v-2.56645zm5.81429 0-2.22372 1.28426v2.56645l2.22372 1.28427 2.22371-1.28427v-2.56645zm5.81428 0-2.22372 1.28426v2.56645l2.22372 1.28427 2.22371-1.28427v-2.56645zm-148.264291 5.81428-2.223717 1.28426v2.56646l2.223717 1.28427 2.223717-1.28427v-2.56646zm5.814292 0-2.223721 1.28426v2.56646l2.223721 1.28427 2.223711-1.28427v-2.56646zm5.814286 0-2.223721 1.28426v2.56646l2.223721 1.28427 2.223711-1.28427v-2.56646zm5.814286 0-2.223721 1.28426v2.56646l2.223721 1.28427 2.223712-1.28427v-2.56646zm5.814287 0-2.22372 1.28426v2.56646l2.22372 1.28427 2.22371-1.28427v-2.56646zm5.81429 0-2.22372 1.28426v2.56646l2.22372 1.28427 2.22371-1.28427v-2.56646zm5.81428 0-2.22372 1.28426v2.56646l2.22372 1.28427 2.22371-1.28427v-2.56646zm5.81429 0-2.22372 1.28426v2.56646l2.22372 1.28427 2.22371-1.28427v-2.56646zm5.81428 0-2.22372 1.28426v2.56646l2.22372 1.28427 2.22371-1.28427v-2.56646zm5.81429 0-2.22372 1.28426v2.56646l2.22372 1.28427 2.22371-1.28427v-2.56646zm5.81428 0-2.22372 1.28426v2.56646l2.22372 1.28427 2.22372-1.28427v-2.56646zm5.81429 0-2.22372 1.28426v2.56646l2.22372 1.28427 2.22371-1.28427v-2.56646zm5.81429 0-2.22373 1.28426v2.56646l2.22373 1.28427 2.22371-1.28427v-2.56646zm5.81428 0-2.22372 1.28426v2.56646l2.22372 1.28427 2.22371-1.28427v-2.56646zm5.81429 0-2.22372 1.28426v2.56646l2.22372 1.28427 2.22371-1.28427v-2.56646zm5.81428 0-2.22372 1.28426v2.56646l2.22372 1.28427 2.22371-1.28427v-2.56646zm5.81429 0-2.22372 1.28426v2.56646l2.22372 1.28427 2.22371-1.28427v-2.56646zm5.81428 0-2.22372 1.28426v2.56646l2.22372 1.28427 2.22372-1.28427v-2.56646zm5.81429 0-2.22372 1.28426v2.56646l2.22372 1.28427 2.22371-1.28427v-2.56646zm5.81429 0-2.22373 1.28426v2.56646l2.22373 1.28427 2.22371-1.28427v-2.56646zm5.81428 0-2.22372 1.28426v2.56646l2.22372 1.28427 2.22371-1.28427v-2.56646zm5.81429 0-2.22372 1.28426v2.56646l2.22372 1.28427 2.22371-1.28427v-2.56646zm5.81428 0-2.22372 1.28426v2.56646l2.22372 1.28427 2.22371-1.28427v-2.56646zm5.81429 0-2.22372 1.28426v2.56646l2.22372 1.28427 2.22371-1.28427v-2.56646zm5.81428 0-2.22372 1.28426v2.56646l2.22372 1.28427 2.22372-1.28427v-2.56646zm5.81429 0-2.22372 1.28426v2.56646l2.22372 1.28427 2.22371-1.28427v-2.56646zm5.81429 0-2.22373 1.28426v2.56646l2.22373 1.28427 2.22371-1.28427v-2.56646zm-154.078584 5.81429-2.223717 1.28426v2.56645l2.223717 1.28427 2.223717-1.28427v-2.56645zm5.814292 0-2.223723 1.28426v2.56645l2.223723 1.28427 2.223711-1.28427v-2.56645zm5.814286 0-2.223721 1.28426v2.56645l2.223721 1.28427 2.223711-1.28427v-2.56645zm5.814286 0-2.223721 1.28426v2.56645l2.223721 1.28427 2.22371-1.28427v-2.56645zm5.814288 0-2.223721 1.28426v2.56645l2.223721 1.28427 2.223712-1.28427v-2.56645zm5.814282 0-2.22372 1.28426v2.56645l2.22372 1.28427 2.22371-1.28427v-2.56645zm5.81429 0-2.22372 1.28426v2.56645l2.22372 1.28427 2.22371-1.28427v-2.56645zm5.81428 0-2.22372 1.28426v2.56645l2.22372 1.28427 2.22372-1.28427v-2.56645zm5.81429 0-2.22372 1.28426v2.56645l2.22372 1.28427 2.22371-1.28427v-2.56645zm5.81429 0-2.22372 1.28426v2.56645l2.22372 1.28427 2.22371-1.28427v-2.56645zm5.81428 0-2.22372 1.28426v2.56645l2.22372 1.28427 2.22371-1.28427v-2.56645zm5.81429 0-2.22372 1.28426v2.56645l2.22372 1.28427 2.22371-1.28427v-2.56645zm5.81428 0-2.22372 1.28426v2.56645l2.22372 1.28427 2.22371-1.28427v-2.56645zm5.81429 0-2.22372 1.28426v2.56645l2.22372 1.28427 2.22371-1.28427v-2.56645zm5.81428 0-2.22372 1.28426v2.56645l2.22372 1.28427 2.22372-1.28427v-2.56645zm5.81429 0-2.22372 1.28426v2.56645l2.22372 1.28427 2.22371-1.28427v-2.56645zm5.81429 0-2.22373 1.28426v2.56645l2.22373 1.28427 2.22371-1.28427v-2.56645zm5.81428 0-2.22372 1.28426v2.56645l2.22372 1.28427 2.22371-1.28427v-2.56645zm5.81429 0-2.22372 1.28426v2.56645l2.22372 1.28427 2.22371-1.28427v-2.56645zm5.81428 0-2.22372 1.28426v2.56645l2.22372 1.28427 2.22371-1.28427v-2.56645zm5.81429 0-2.22372 1.28426v2.56645l2.22372 1.28427 2.22371-1.28427v-2.56645zm5.81428 0-2.22372 1.28426v2.56645l2.22372 1.28427 2.22372-1.28427v-2.56645zm5.81429 0-2.22372 1.28426v2.56645l2.22372 1.28427 2.22371-1.28427v-2.56645zm5.81429 0-2.22373 1.28426v2.56645l2.22373 1.28427 2.22371-1.28427v-2.56645zm5.81428 0-2.22372 1.28426v2.56645l2.22372 1.28427 2.22371-1.28427v-2.56645zm5.81429 0-2.22372 1.28426v2.56645l2.22372 1.28427 2.22371-1.28427v-2.56645zm5.81428 0-2.22372 1.28426v2.56645l2.22372 1.28427 2.22371-1.28427v-2.56645zm-148.264291 5.81428-2.223717 1.28426v2.56646l2.223717 1.28427 2.223717-1.28427v-2.56646zm5.814292 0-2.223721 1.28426v2.56646l2.223721 1.28427 2.223711-1.28427v-2.56646zm5.814286 0-2.223721 1.28426v2.56646l2.223721 1.28427 2.223711-1.28427v-2.56646zm5.814286 0-2.223721 1.28426v2.56646l2.223721 1.28427 2.223712-1.28427v-2.56646zm5.814287 0-2.22372 1.28426v2.56646l2.22372 1.28427 2.22371-1.28427v-2.56646zm5.81429 0-2.22372 1.28426v2.56646l2.22372 1.28427 2.22371-1.28427v-2.56646zm5.81428 0-2.22372 1.28426v2.56646l2.22372 1.28427 2.22371-1.28427v-2.56646zm5.81429 0-2.22372 1.28426v2.56646l2.22372 1.28427 2.22371-1.28427v-2.56646zm5.81428 0-2.22372 1.28426v2.56646l2.22372 1.28427 2.22371-1.28427v-2.56646zm5.81429 0-2.22372 1.28426v2.56646l2.22372 1.28427 2.22371-1.28427v-2.56646zm5.81428 0-2.22372 1.28426v2.56646l2.22372 1.28427 2.22372-1.28427v-2.56646zm5.81429 0-2.22372 1.28426v2.56646l2.22372 1.28427 2.22371-1.28427v-2.56646zm5.81429 0-2.22373 1.28426v2.56646l2.22373 1.28427 2.22371-1.28427v-2.56646zm5.81428 0-2.22372 1.28426v2.56646l2.22372 1.28427 2.22371-1.28427v-2.56646zm5.81429 0-2.22372 1.28426v2.56646l2.22372 1.28427 2.22371-1.28427v-2.56646zm5.81428 0-2.22372 1.28426v2.56646l2.22372 1.28427 2.22371-1.28427v-2.56646zm5.81429 0-2.22372 1.28426v2.56646l2.22372 1.28427 2.22371-1.28427v-2.56646zm5.81428 0-2.22372 1.28426v2.56646l2.22372 1.28427 2.22372-1.28427v-2.56646zm5.81429 0-2.22372 1.28426v2.56646l2.22372 1.28427 2.22371-1.28427v-2.56646zm5.81429 0-2.22373 1.28426v2.56646l2.22373 1.28427 2.22371-1.28427v-2.56646zm5.81428 0-2.22372 1.28426v2.56646l2.22372 1.28427 2.22371-1.28427v-2.56646zm5.81429 0-2.22372 1.28426v2.56646l2.22372 1.28427 2.22371-1.28427v-2.56646zm5.81428 0-2.22372 1.28426v2.56646l2.22372 1.28427 2.22371-1.28427v-2.56646zm5.81429 0-2.22372 1.28426v2.56646l2.22372 1.28427 2.22371-1.28427v-2.56646zm5.81428 0-2.22372 1.28426v2.56646l2.22372 1.28427 2.22372-1.28427v-2.56646zm5.81429 0-2.22372 1.28426v2.56646l2.22372 1.28427 2.22371-1.28427v-2.56646zm5.81429 0-2.22373 1.28426v2.56646l2.22373 1.28427 2.22371-1.28427v-2.56646zm-154.078584 5.81429-2.223717 1.28426v2.56646l2.223717 1.28427 2.223717-1.28427v-2.56646zm5.814292 0-2.223723 1.28426v2.56646l2.223723 1.28427 2.223711-1.28427v-2.56646zm5.814286 0-2.223721 1.28426v2.56646l2.223721 1.28427 2.223711-1.28427v-2.56646zm5.814286 0-2.223721 1.28426v2.56646l2.223721 1.28427 2.22371-1.28427v-2.56646zm5.814288 0-2.223721 1.28426v2.56646l2.223721 1.28427 2.223712-1.28427v-2.56646zm5.814282 0-2.22372 1.28426v2.56646l2.22372 1.28427 2.22371-1.28427v-2.56646zm5.81429 0-2.22372 1.28426v2.56646l2.22372 1.28427 2.22371-1.28427v-2.56646zm5.81428 0-2.22372 1.28426v2.56646l2.22372 1.28427 2.22372-1.28427v-2.56646zm5.81429 0-2.22372 1.28426v2.56646l2.22372 1.28427 2.22371-1.28427v-2.56646zm5.81429 0-2.22372 1.28426v2.56646l2.22372 1.28427 2.22371-1.28427v-2.56646zm5.81428 0-2.22372 1.28426v2.56646l2.22372 1.28427 2.22371-1.28427v-2.56646zm5.81429 0-2.22372 1.28426v2.56646l2.22372 1.28427 2.22371-1.28427v-2.56646zm5.81428 0-2.22372 1.28426v2.56646l2.22372 1.28427 2.22371-1.28427v-2.56646zm5.81429 0-2.22372 1.28426v2.56646l2.22372 1.28427 2.22371-1.28427v-2.56646zm5.81428 0-2.22372 1.28426v2.56646l2.22372 1.28427 2.22372-1.28427v-2.56646zm5.81429 0-2.22372 1.28426v2.56646l2.22372 1.28427 2.22371-1.28427v-2.56646zm5.81429 0-2.22373 1.28426v2.56646l2.22373 1.28427 2.22371-1.28427v-2.56646zm5.81428 0-2.22372 1.28426v2.56646l2.22372 1.28427 2.22371-1.28427v-2.56646zm5.81429 0-2.22372 1.28426v2.56646l2.22372 1.28427 2.22371-1.28427v-2.56646zm5.81428 0-2.22372 1.28426v2.56646l2.22372 1.28427 2.22371-1.28427v-2.56646zm5.81429 0-2.22372 1.28426v2.56646l2.22372 1.28427 2.22371-1.28427v-2.56646zm5.81428 0-2.22372 1.28426v2.56646l2.22372 1.28427 2.22372-1.28427v-2.56646zm5.81429 0-2.22372 1.28426v2.56646l2.22372 1.28427 2.22371-1.28427v-2.56646zm5.81429 0-2.22373 1.28426v2.56646l2.22373 1.28427 2.22371-1.28427v-2.56646zm5.81428 0-2.22372 1.28426v2.56646l2.22372 1.28427 2.22371-1.28427v-2.56646zm5.81429 0-2.22372 1.28426v2.56646l2.22372 1.28427 2.22371-1.28427v-2.56646zm5.81428 0-2.22372 1.28426v2.56646l2.22372 1.28427 2.22371-1.28427v-2.56646zm-148.264291 5.81428-2.223717 1.28426v2.56646l2.223717 1.28427 2.223717-1.28427v-2.56646zm5.814292 0-2.223721 1.28426v2.56646l2.223721 1.28427 2.223711-1.28427v-2.56646zm5.814286 0-2.223721 1.28426v2.56646l2.223721 1.28427 2.223711-1.28427v-2.56646zm5.814286 0-2.223721 1.28426v2.56646l2.223721 1.28427 2.223712-1.28427v-2.56646zm5.814287 0-2.22372 1.28426v2.56646l2.22372 1.28427 2.22371-1.28427v-2.56646zm5.81429 0-2.22372 1.28426v2.56646l2.22372 1.28427 2.22371-1.28427v-2.56646zm5.81428 0-2.22372 1.28426v2.56646l2.22372 1.28427 2.22371-1.28427v-2.56646zm5.81429 0-2.22372 1.28426v2.56646l2.22372 1.28427 2.22371-1.28427v-2.56646zm5.81428 0-2.22372 1.28426v2.56646l2.22372 1.28427 2.22371-1.28427v-2.56646zm5.81429 0-2.22372 1.28426v2.56646l2.22372 1.28427 2.22371-1.28427v-2.56646zm5.81428 0-2.22372 1.28426v2.56646l2.22372 1.28427 2.22372-1.28427v-2.56646zm5.81429 0-2.22372 1.28426v2.56646l2.22372 1.28427 2.22371-1.28427v-2.56646zm5.81429 0-2.22373 1.28426v2.56646l2.22373 1.28427 2.22371-1.28427v-2.56646zm5.81428 0-2.22372 1.28426v2.56646l2.22372 1.28427 2.22371-1.28427v-2.56646zm5.81429 0-2.22372 1.28426v2.56646l2.22372 1.28427 2.22371-1.28427v-2.56646zm5.81428 0-2.22372 1.28426v2.56646l2.22372 1.28427 2.22371-1.28427v-2.56646zm5.81429 0-2.22372 1.28426v2.56646l2.22372 1.28427 2.22371-1.28427v-2.56646zm5.81428 0-2.22372 1.28426v2.56646l2.22372 1.28427 2.22372-1.28427v-2.56646zm5.81429 0-2.22372 1.28426v2.56646l2.22372 1.28427 2.22371-1.28427v-2.56646zm5.81429 0-2.22373 1.28426v2.56646l2.22373 1.28427 2.22371-1.28427v-2.56646zm5.81428 0-2.22372 1.28426v2.56646l2.22372 1.28427 2.22371-1.28427v-2.56646zm5.81429 0-2.22372 1.28426v2.56646l2.22372 1.28427 2.22371-1.28427v-2.56646zm5.81428 0-2.22372 1.28426v2.56646l2.22372 1.28427 2.22371-1.28427v-2.56646zm5.81429 0-2.22372 1.28426v2.56646l2.22372 1.28427 2.22371-1.28427v-2.56646zm5.81428 0-2.22372 1.28426v2.56646l2.22372 1.28427 2.22372-1.28427v-2.56646zm5.81429 0-2.22372 1.28426v2.56646l2.22372 1.28427 2.22371-1.28427v-2.56646zm5.81429 0-2.22373 1.28426v2.56646l2.22373 1.28427 2.22371-1.28427v-2.56646zm-154.078584 5.81429-2.223717 1.28426v2.56646l2.223717 1.28427 2.223717-1.28427v-2.56646zm5.814292 0-2.223723 1.28426v2.56646l2.223723 1.28427 2.223711-1.28427v-2.56646zm5.814286 0-2.223721 1.28426v2.56646l2.223721 1.28427 2.223711-1.28427v-2.56646zm5.814286 0-2.223721 1.28426v2.56646l2.223721 1.28427 2.22371-1.28427v-2.56646zm5.814288 0-2.223721 1.28426v2.56646l2.223721 1.28427 2.223712-1.28427v-2.56646zm5.814282 0-2.22372 1.28426v2.56646l2.22372 1.28427 2.22371-1.28427v-2.56646zm5.81429 0-2.22372 1.28426v2.56646l2.22372 1.28427 2.22371-1.28427v-2.56646zm5.81428 0-2.22372 1.28426v2.56646l2.22372 1.28427 2.22372-1.28427v-2.56646zm5.81429 0-2.22372 1.28426v2.56646l2.22372 1.28427 2.22371-1.28427v-2.56646zm5.81429 0-2.22372 1.28426v2.56646l2.22372 1.28427 2.22371-1.28427v-2.56646zm5.81428 0-2.22372 1.28426v2.56646l2.22372 1.28427 2.22371-1.28427v-2.56646zm5.81429 0-2.22372 1.28426v2.56646l2.22372 1.28427 2.22371-1.28427v-2.56646zm5.81428 0-2.22372 1.28426v2.56646l2.22372 1.28427 2.22371-1.28427v-2.56646zm5.81429 0-2.22372 1.28426v2.56646l2.22372 1.28427 2.22371-1.28427v-2.56646zm5.81428 0-2.22372 1.28426v2.56646l2.22372 1.28427 2.22372-1.28427v-2.56646zm5.81429 0-2.22372 1.28426v2.56646l2.22372 1.28427 2.22371-1.28427v-2.56646zm5.81429 0-2.22373 1.28426v2.56646l2.22373 1.28427 2.22371-1.28427v-2.56646zm5.81428 0-2.22372 1.28426v2.56646l2.22372 1.28427 2.22371-1.28427v-2.56646zm5.81429 0-2.22372 1.28426v2.56646l2.22372 1.28427 2.22371-1.28427v-2.56646zm5.81428 0-2.22372 1.28426v2.56646l2.22372 1.28427 2.22371-1.28427v-2.56646zm5.81429 0-2.22372 1.28426v2.56646l2.22372 1.28427 2.22371-1.28427v-2.56646zm5.81428 0-2.22372 1.28426v2.56646l2.22372 1.28427 2.22372-1.28427v-2.56646zm5.81429 0-2.22372 1.28426v2.56646l2.22372 1.28427 2.22371-1.28427v-2.56646zm5.81429 0-2.22373 1.28426v2.56646l2.22373 1.28427 2.22371-1.28427v-2.56646zm5.81428 0-2.22372 1.28426v2.56646l2.22372 1.28427 2.22371-1.28427v-2.56646zm5.81429 0-2.22372 1.28426v2.56646l2.22372 1.28427 2.22371-1.28427v-2.56646zm5.81428 0-2.22372 1.28426v2.56646l2.22372 1.28427 2.22371-1.28427v-2.56646zm-148.264291 5.81429-2.223717 1.28426v2.56645l2.223717 1.28427 2.223717-1.28427v-2.56645zm5.814292 0-2.223721 1.28426v2.56645l2.223721 1.28427 2.223711-1.28427v-2.56645zm5.814286 0-2.223721 1.28426v2.56645l2.223721 1.28427 2.223711-1.28427v-2.56645zm5.814286 0-2.223721 1.28426v2.56645l2.223721 1.28427 2.223712-1.28427v-2.56645zm5.814287 0-2.22372 1.28426v2.56645l2.22372 1.28427 2.22371-1.28427v-2.56645zm5.81429 0-2.22372 1.28426v2.56645l2.22372 1.28427 2.22371-1.28427v-2.56645zm5.81428 0-2.22372 1.28426v2.56645l2.22372 1.28427 2.22371-1.28427v-2.56645zm5.81429 0-2.22372 1.28426v2.56645l2.22372 1.28427 2.22371-1.28427v-2.56645zm5.81428 0-2.22372 1.28426v2.56645l2.22372 1.28427 2.22371-1.28427v-2.56645zm5.81429 0-2.22372 1.28426v2.56645l2.22372 1.28427 2.22371-1.28427v-2.56645zm5.81428 0-2.22372 1.28426v2.56645l2.22372 1.28427 2.22372-1.28427v-2.56645zm5.81429 0-2.22372 1.28426v2.56645l2.22372 1.28427 2.22371-1.28427v-2.56645zm5.81429 0-2.22373 1.28426v2.56645l2.22373 1.28427 2.22371-1.28427v-2.56645zm5.81428 0-2.22372 1.28426v2.56645l2.22372 1.28427 2.22371-1.28427v-2.56645zm5.81429 0-2.22372 1.28426v2.56645l2.22372 1.28427 2.22371-1.28427v-2.56645zm5.81428 0-2.22372 1.28426v2.56645l2.22372 1.28427 2.22371-1.28427v-2.56645zm5.81429 0-2.22372 1.28426v2.56645l2.22372 1.28427 2.22371-1.28427v-2.56645zm5.81428 0-2.22372 1.28426v2.56645l2.22372 1.28427 2.22372-1.28427v-2.56645zm5.81429 0-2.22372 1.28426v2.56645l2.22372 1.28427 2.22371-1.28427v-2.56645zm5.81429 0-2.22373 1.28426v2.56645l2.22373 1.28427 2.22371-1.28427v-2.56645zm5.81428 0-2.22372 1.28426v2.56645l2.22372 1.28427 2.22371-1.28427v-2.56645zm5.81429 0-2.22372 1.28426v2.56645l2.22372 1.28427 2.22371-1.28427v-2.56645zm5.81428 0-2.22372 1.28426v2.56645l2.22372 1.28427 2.22371-1.28427v-2.56645zm5.81429 0-2.22372 1.28426v2.56645l2.22372 1.28427 2.22371-1.28427v-2.56645zm5.81428 0-2.22372 1.28426v2.56645l2.22372 1.28427 2.22372-1.28427v-2.56645zm5.81429 0-2.22372 1.28426v2.56645l2.22372 1.28427 2.22371-1.28427v-2.56645zm5.81429 0-2.22373 1.28426v2.56645l2.22373 1.28427 2.22371-1.28427v-2.56645zm-154.078584 5.81428-2.223717 1.28426v2.56646l2.223717 1.28427 2.223717-1.28427v-2.56646zm5.814292 0-2.223723 1.28426v2.56646l2.223723 1.28427 2.223711-1.28427v-2.56646zm5.814286 0-2.223721 1.28426v2.56646l2.223721 1.28427 2.223711-1.28427v-2.56646zm5.814286 0-2.223721 1.28426v2.56646l2.223721 1.28427 2.22371-1.28427v-2.56646zm5.814288 0-2.223721 1.28426v2.56646l2.223721 1.28427 2.223712-1.28427v-2.56646zm5.814282 0-2.22372 1.28426v2.56646l2.22372 1.28427 2.22371-1.28427v-2.56646zm5.81429 0-2.22372 1.28426v2.56646l2.22372 1.28427 2.22371-1.28427v-2.56646zm5.81428 0-2.22372 1.28426v2.56646l2.22372 1.28427 2.22372-1.28427v-2.56646zm5.81429 0-2.22372 1.28426v2.56646l2.22372 1.28427 2.22371-1.28427v-2.56646zm5.81429 0-2.22372 1.28426v2.56646l2.22372 1.28427 2.22371-1.28427v-2.56646zm5.81428 0-2.22372 1.28426v2.56646l2.22372 1.28427 2.22371-1.28427v-2.56646zm5.81429 0-2.22372 1.28426v2.56646l2.22372 1.28427 2.22371-1.28427v-2.56646zm5.81428 0-2.22372 1.28426v2.56646l2.22372 1.28427 2.22371-1.28427v-2.56646zm5.81429 0-2.22372 1.28426v2.56646l2.22372 1.28427 2.22371-1.28427v-2.56646zm5.81428 0-2.22372 1.28426v2.56646l2.22372 1.28427 2.22372-1.28427v-2.56646zm5.81429 0-2.22372 1.28426v2.56646l2.22372 1.28427 2.22371-1.28427v-2.56646zm5.81429 0-2.22373 1.28426v2.56646l2.22373 1.28427 2.22371-1.28427v-2.56646zm5.81428 0-2.22372 1.28426v2.56646l2.22372 1.28427 2.22371-1.28427v-2.56646zm5.81429 0-2.22372 1.28426v2.56646l2.22372 1.28427 2.22371-1.28427v-2.56646zm5.81428 0-2.22372 1.28426v2.56646l2.22372 1.28427 2.22371-1.28427v-2.56646zm5.81429 0-2.22372 1.28426v2.56646l2.22372 1.28427 2.22371-1.28427v-2.56646zm5.81428 0-2.22372 1.28426v2.56646l2.22372 1.28427 2.22372-1.28427v-2.56646zm5.81429 0-2.22372 1.28426v2.56646l2.22372 1.28427 2.22371-1.28427v-2.56646zm5.81429 0-2.22373 1.28426v2.56646l2.22373 1.28427 2.22371-1.28427v-2.56646zm5.81428 0-2.22372 1.28426v2.56646l2.22372 1.28427 2.22371-1.28427v-2.56646zm5.81429 0-2.22372 1.28426v2.56646l2.22372 1.28427 2.22371-1.28427v-2.56646zm5.81428 0-2.22372 1.28426v2.56646l2.22372 1.28427 2.22371-1.28427v-2.56646zm-148.264291 5.81429-2.223717 1.28426v2.56645l2.223717 1.28427 2.223717-1.28427v-2.56645zm5.814292 0-2.223721 1.28426v2.56645l2.223721 1.28427 2.223711-1.28427v-2.56645zm5.814286 0-2.223721 1.28426v2.56645l2.223721 1.28427 2.223711-1.28427v-2.56645zm5.814286 0-2.223721 1.28426v2.56645l2.223721 1.28427 2.223712-1.28427v-2.56645zm5.814287 0-2.22372 1.28426v2.56645l2.22372 1.28427 2.22371-1.28427v-2.56645zm5.81429 0-2.22372 1.28426v2.56645l2.22372 1.28427 2.22371-1.28427v-2.56645zm5.81428 0-2.22372 1.28426v2.56645l2.22372 1.28427 2.22371-1.28427v-2.56645zm5.81429 0-2.22372 1.28426v2.56645l2.22372 1.28427 2.22371-1.28427v-2.56645zm5.81428 0-2.22372 1.28426v2.56645l2.22372 1.28427 2.22371-1.28427v-2.56645zm5.81429 0-2.22372 1.28426v2.56645l2.22372 1.28427 2.22371-1.28427v-2.56645zm5.81428 0-2.22372 1.28426v2.56645l2.22372 1.28427 2.22372-1.28427v-2.56645zm5.81429 0-2.22372 1.28426v2.56645l2.22372 1.28427 2.22371-1.28427v-2.56645zm5.81429 0-2.22373 1.28426v2.56645l2.22373 1.28427 2.22371-1.28427v-2.56645zm5.81428 0-2.22372 1.28426v2.56645l2.22372 1.28427 2.22371-1.28427v-2.56645zm5.81429 0-2.22372 1.28426v2.56645l2.22372 1.28427 2.22371-1.28427v-2.56645zm5.81428 0-2.22372 1.28426v2.56645l2.22372 1.28427 2.22371-1.28427v-2.56645zm5.81429 0-2.22372 1.28426v2.56645l2.22372 1.28427 2.22371-1.28427v-2.56645zm5.81428 0-2.22372 1.28426v2.56645l2.22372 1.28427 2.22372-1.28427v-2.56645zm5.81429 0-2.22372 1.28426v2.56645l2.22372 1.28427 2.22371-1.28427v-2.56645zm5.81429 0-2.22373 1.28426v2.56645l2.22373 1.28427 2.22371-1.28427v-2.56645zm5.81428 0-2.22372 1.28426v2.56645l2.22372 1.28427 2.22371-1.28427v-2.56645zm5.81429 0-2.22372 1.28426v2.56645l2.22372 1.28427 2.22371-1.28427v-2.56645zm5.81428 0-2.22372 1.28426v2.56645l2.22372 1.28427 2.22371-1.28427v-2.56645zm5.81429 0-2.22372 1.28426v2.56645l2.22372 1.28427 2.22371-1.28427v-2.56645zm5.81428 0-2.22372 1.28426v2.56645l2.22372 1.28427 2.22372-1.28427v-2.56645zm5.81429 0-2.22372 1.28426v2.56645l2.22372 1.28427 2.22371-1.28427v-2.56645zm5.81429 0-2.22373 1.28426v2.56645l2.22373 1.28427 2.22371-1.28427v-2.56645zm-154.078584 5.81428-2.223717 1.28426v2.56646l2.223717 1.28427 2.223717-1.28427v-2.56646zm5.814292 0-2.223723 1.28426v2.56646l2.223723 1.28427 2.223711-1.28427v-2.56646zm5.814286 0-2.223721 1.28426v2.56646l2.223721 1.28427 2.223711-1.28427v-2.56646zm5.814286 0-2.223721 1.28426v2.56646l2.223721 1.28427 2.22371-1.28427v-2.56646zm5.814288 0-2.223721 1.28426v2.56646l2.223721 1.28427 2.223712-1.28427v-2.56646zm5.814282 0-2.22372 1.28426v2.56646l2.22372 1.28427 2.22371-1.28427v-2.56646zm5.81429 0-2.22372 1.28426v2.56646l2.22372 1.28427 2.22371-1.28427v-2.56646zm5.81428 0-2.22372 1.28426v2.56646l2.22372 1.28427 2.22372-1.28427v-2.56646zm5.81429 0-2.22372 1.28426v2.56646l2.22372 1.28427 2.22371-1.28427v-2.56646zm5.81429 0-2.22372 1.28426v2.56646l2.22372 1.28427 2.22371-1.28427v-2.56646zm5.81428 0-2.22372 1.28426v2.56646l2.22372 1.28427 2.22371-1.28427v-2.56646zm5.81429 0-2.22372 1.28426v2.56646l2.22372 1.28427 2.22371-1.28427v-2.56646zm5.81428 0-2.22372 1.28426v2.56646l2.22372 1.28427 2.22371-1.28427v-2.56646zm5.81429 0-2.22372 1.28426v2.56646l2.22372 1.28427 2.22371-1.28427v-2.56646zm5.81428 0-2.22372 1.28426v2.56646l2.22372 1.28427 2.22372-1.28427v-2.56646zm5.81429 0-2.22372 1.28426v2.56646l2.22372 1.28427 2.22371-1.28427v-2.56646zm5.81429 0-2.22373 1.28426v2.56646l2.22373 1.28427 2.22371-1.28427v-2.56646zm5.81428 0-2.22372 1.28426v2.56646l2.22372 1.28427 2.22371-1.28427v-2.56646zm5.81429 0-2.22372 1.28426v2.56646l2.22372 1.28427 2.22371-1.28427v-2.56646zm5.81428 0-2.22372 1.28426v2.56646l2.22372 1.28427 2.22371-1.28427v-2.56646zm5.81429 0-2.22372 1.28426v2.56646l2.22372 1.28427 2.22371-1.28427v-2.56646zm5.81428 0-2.22372 1.28426v2.56646l2.22372 1.28427 2.22372-1.28427v-2.56646zm5.81429 0-2.22372 1.28426v2.56646l2.22372 1.28427 2.22371-1.28427v-2.56646zm5.81429 0-2.22373 1.28426v2.56646l2.22373 1.28427 2.22371-1.28427v-2.56646zm5.81428 0-2.22372 1.28426v2.56646l2.22372 1.28427 2.22371-1.28427v-2.56646zm5.81429 0-2.22372 1.28426v2.56646l2.22372 1.28427 2.22371-1.28427v-2.56646zm5.81428 0-2.22372 1.28426v2.56646l2.22372 1.28427 2.22371-1.28427v-2.56646zm-148.264291 5.81429-2.223717 1.28426v2.56646l2.223717 1.28427 2.223717-1.28427v-2.56646zm5.814292 0-2.223721 1.28426v2.56646l2.223721 1.28427 2.223711-1.28427v-2.56646zm5.814286 0-2.223721 1.28426v2.56646l2.223721 1.28427 2.223711-1.28427v-2.56646zm5.814286 0-2.223721 1.28426v2.56646l2.223721 1.28427 2.223712-1.28427v-2.56646zm5.814287 0-2.22372 1.28426v2.56646l2.22372 1.28427 2.22371-1.28427v-2.56646zm5.81429 0-2.22372 1.28426v2.56646l2.22372 1.28427 2.22371-1.28427v-2.56646zm5.81428 0-2.22372 1.28426v2.56646l2.22372 1.28427 2.22371-1.28427v-2.56646zm5.81429 0-2.22372 1.28426v2.56646l2.22372 1.28427 2.22371-1.28427v-2.56646zm5.81428 0-2.22372 1.28426v2.56646l2.22372 1.28427 2.22371-1.28427v-2.56646zm5.81429 0-2.22372 1.28426v2.56646l2.22372 1.28427 2.22371-1.28427v-2.56646zm5.81428 0-2.22372 1.28426v2.56646l2.22372 1.28427 2.22372-1.28427v-2.56646zm5.81429 0-2.22372 1.28426v2.56646l2.22372 1.28427 2.22371-1.28427v-2.56646zm5.81429 0-2.22373 1.28426v2.56646l2.22373 1.28427 2.22371-1.28427v-2.56646zm5.81428 0-2.22372 1.28426v2.56646l2.22372 1.28427 2.22371-1.28427v-2.56646zm5.81429 0-2.22372 1.28426v2.56646l2.22372 1.28427 2.22371-1.28427v-2.56646zm5.81428 0-2.22372 1.28426v2.56646l2.22372 1.28427 2.22371-1.28427v-2.56646zm5.81429 0-2.22372 1.28426v2.56646l2.22372 1.28427 2.22371-1.28427v-2.56646zm5.81428 0-2.22372 1.28426v2.56646l2.22372 1.28427 2.22372-1.28427v-2.56646zm5.81429 0-2.22372 1.28426v2.56646l2.22372 1.28427 2.22371-1.28427v-2.56646zm5.81429 0-2.22373 1.28426v2.56646l2.22373 1.28427 2.22371-1.28427v-2.56646zm5.81428 0-2.22372 1.28426v2.56646l2.22372 1.28427 2.22371-1.28427v-2.56646zm5.81429 0-2.22372 1.28426v2.56646l2.22372 1.28427 2.22371-1.28427v-2.56646zm5.81428 0-2.22372 1.28426v2.56646l2.22372 1.28427 2.22371-1.28427v-2.56646zm5.81429 0-2.22372 1.28426v2.56646l2.22372 1.28427 2.22371-1.28427v-2.56646zm5.81428 0-2.22372 1.28426v2.56646l2.22372 1.28427 2.22372-1.28427v-2.56646zm5.81429 0-2.22372 1.28426v2.56646l2.22372 1.28427 2.22371-1.28427v-2.56646zm5.81429 0-2.22373 1.28426v2.56646l2.22373 1.28427 2.22371-1.28427v-2.56646zm-154.078584 5.81428-2.223717 1.28426v2.56646l2.223717 1.28427 2.223717-1.28427v-2.56646zm5.814292 0-2.223723 1.28426v2.56646l2.223723 1.28427 2.223711-1.28427v-2.56646zm5.814286 0-2.223721 1.28426v2.56646l2.223721 1.28427 2.223711-1.28427v-2.56646zm5.814286 0-2.223721 1.28426v2.56646l2.223721 1.28427 2.22371-1.28427v-2.56646zm5.814288 0-2.223721 1.28426v2.56646l2.223721 1.28427 2.223712-1.28427v-2.56646zm5.814282 0-2.22372 1.28426v2.56646l2.22372 1.28427 2.22371-1.28427v-2.56646zm5.81429 0-2.22372 1.28426v2.56646l2.22372 1.28427 2.22371-1.28427v-2.56646zm5.81428 0-2.22372 1.28426v2.56646l2.22372 1.28427 2.22372-1.28427v-2.56646zm5.81429 0-2.22372 1.28426v2.56646l2.22372 1.28427 2.22371-1.28427v-2.56646zm5.81429 0-2.22372 1.28426v2.56646l2.22372 1.28427 2.22371-1.28427v-2.56646zm5.81428 0-2.22372 1.28426v2.56646l2.22372 1.28427 2.22371-1.28427v-2.56646zm5.81429 0-2.22372 1.28426v2.56646l2.22372 1.28427 2.22371-1.28427v-2.56646zm5.81428 0-2.22372 1.28426v2.56646l2.22372 1.28427 2.22371-1.28427v-2.56646zm5.81429 0-2.22372 1.28426v2.56646l2.22372 1.28427 2.22371-1.28427v-2.56646zm5.81428 0-2.22372 1.28426v2.56646l2.22372 1.28427 2.22372-1.28427v-2.56646zm5.81429 0-2.22372 1.28426v2.56646l2.22372 1.28427 2.22371-1.28427v-2.56646zm5.81429 0-2.22373 1.28426v2.56646l2.22373 1.28427 2.22371-1.28427v-2.56646zm5.81428 0-2.22372 1.28426v2.56646l2.22372 1.28427 2.22371-1.28427v-2.56646zm5.81429 0-2.22372 1.28426v2.56646l2.22372 1.28427 2.22371-1.28427v-2.56646zm5.81428 0-2.22372 1.28426v2.56646l2.22372 1.28427 2.22371-1.28427v-2.56646zm5.81429 0-2.22372 1.28426v2.56646l2.22372 1.28427 2.22371-1.28427v-2.56646zm5.81428 0-2.22372 1.28426v2.56646l2.22372 1.28427 2.22372-1.28427v-2.56646zm5.81429 0-2.22372 1.28426v2.56646l2.22372 1.28427 2.22371-1.28427v-2.56646zm5.81429 0-2.22373 1.28426v2.56646l2.22373 1.28427 2.22371-1.28427v-2.56646zm5.81428 0-2.22372 1.28426v2.56646l2.22372 1.28427 2.22371-1.28427v-2.56646zm5.81429 0-2.22372 1.28426v2.56646l2.22372 1.28427 2.22371-1.28427v-2.56646zm5.81428 0-2.22372 1.28426v2.56646l2.22372 1.28427 2.22371-1.28427v-2.56646zm-148.264291 5.81429-2.223717 1.28426v2.56646l2.223717 1.28427 2.223717-1.28427v-2.56646zm5.814292 0-2.223721 1.28426v2.56646l2.223721 1.28427 2.223711-1.28427v-2.56646zm5.814286 0-2.223721 1.28426v2.56646l2.223721 1.28427 2.223711-1.28427v-2.56646zm5.814286 0-2.223721 1.28426v2.56646l2.223721 1.28427 2.223712-1.28427v-2.56646zm5.814287 0-2.22372 1.28426v2.56646l2.22372 1.28427 2.22371-1.28427v-2.56646zm5.81429 0-2.22372 1.28426v2.56646l2.22372 1.28427 2.22371-1.28427v-2.56646zm5.81428 0-2.22372 1.28426v2.56646l2.22372 1.28427 2.22371-1.28427v-2.56646zm5.81429 0-2.22372 1.28426v2.56646l2.22372 1.28427 2.22371-1.28427v-2.56646zm5.81428 0-2.22372 1.28426v2.56646l2.22372 1.28427 2.22371-1.28427v-2.56646zm5.81429 0-2.22372 1.28426v2.56646l2.22372 1.28427 2.22371-1.28427v-2.56646zm5.81428 0-2.22372 1.28426v2.56646l2.22372 1.28427 2.22372-1.28427v-2.56646zm5.81429 0-2.22372 1.28426v2.56646l2.22372 1.28427 2.22371-1.28427v-2.56646zm5.81429 0-2.22373 1.28426v2.56646l2.22373 1.28427 2.22371-1.28427v-2.56646zm5.81428 0-2.22372 1.28426v2.56646l2.22372 1.28427 2.22371-1.28427v-2.56646zm5.81429 0-2.22372 1.28426v2.56646l2.22372 1.28427 2.22371-1.28427v-2.56646zm5.81428 0-2.22372 1.28426v2.56646l2.22372 1.28427 2.22371-1.28427v-2.56646zm5.81429 0-2.22372 1.28426v2.56646l2.22372 1.28427 2.22371-1.28427v-2.56646zm5.81428 0-2.22372 1.28426v2.56646l2.22372 1.28427 2.22372-1.28427v-2.56646zm5.81429 0-2.22372 1.28426v2.56646l2.22372 1.28427 2.22371-1.28427v-2.56646zm5.81429 0-2.22373 1.28426v2.56646l2.22373 1.28427 2.22371-1.28427v-2.56646zm5.81428 0-2.22372 1.28426v2.56646l2.22372 1.28427 2.22371-1.28427v-2.56646zm5.81429 0-2.22372 1.28426v2.56646l2.22372 1.28427 2.22371-1.28427v-2.56646zm5.81428 0-2.22372 1.28426v2.56646l2.22372 1.28427 2.22371-1.28427v-2.56646zm5.81429 0-2.22372 1.28426v2.56646l2.22372 1.28427 2.22371-1.28427v-2.56646zm5.81428 0-2.22372 1.28426v2.56646l2.22372 1.28427 2.22372-1.28427v-2.56646zm5.81429 0-2.22372 1.28426v2.56646l2.22372 1.28427 2.22371-1.28427v-2.56646zm5.81429 0-2.22373 1.28426v2.56646l2.22373 1.28427 2.22371-1.28427v-2.56646z" transform="translate(0 4)"/><path d="m77.351342 176.49466c-6.994369 0-12.320092 6.68161-12.320092 14.45005v47.48197c0 7.76843 5.32511 14.4521 12.320092 14.4521h361.492428c6.99498 0 12.3201-6.68367 12.3201-14.4521v-47.48197c0-7.76844-5.32572-14.45005-12.3201-14.45005z" fill="#5d5d5d" filter="url(#F)"/><path d="m389.82617 290.96484-.10156 8.82422c8.6799.59814 17.15919 2.88715 24.96094 6.73828l4.2207-7.50781c-9.0322-4.66662-18.93408-7.40927-29.08008-8.05469zm-9.30859.0684c-10.13656.63924-20.03072 3.3718-29.0586 8.02539l4.17579 7.42969c7.807-3.86354 16.29462-6.16194 24.98437-6.76562zm-37.06446 12.76563c-8.14346 5.61731-15.06948 12.82035-20.36328 21.17773l6.76172 4.00782c4.77863-7.05407 10.86338-13.12822 17.92578-17.89454zm83.40235.0586-4.26563 7.19336c7.04749 4.78921 13.11303 10.88326 17.86914 17.95313l6.74219-3.9961c-5.29157-8.34582-12.21131-15.53924-20.3457-21.15039zm-108.17774 29.28516c-4.14723 8.8198-6.49948 18.37615-6.91992 28.11328l6.90235.0801c.6452-8.50083 2.9126-16.79942 6.67968-24.44727zm132.98243.004-6.61914 3.72071c3.99586 8.12018 6.29902 16.96801 6.76953 26.00586l6.81445.0781c-.205-10.31349-2.57803-20.46841-6.96484-29.80469zm6.875 35.68164-6.73047.0781c-.37447 9.76489-2.88806 19.32853-7.36328 28.01563l4.98632 2.95507c5.30386-9.54486 8.415-20.15131 9.10743-31.04883zm-139.97852 1.61719-6.5957.0762c.86457 10.31335 3.89684 20.32796 8.89844 29.38868l5.00781-2.96875c-4.24827-8.22936-6.73787-17.2526-7.31055-26.4961z" fill="#999"/><circle cx="385.17212" cy="366.3212" fill="#1a1a1a" r="50.987553"/><path d="m77.326172 178.96094c-6.98008 0-12.294922 6.38951-12.294922 13.81836v45.40625c0 7.42883 5.314231 13.82031 12.294922 13.82031h360.753908c6.98069 0 12.29492-6.39148 12.29492-13.82031v-45.40625c0-7.42885-5.31484-13.81836-12.29492-13.81836z" fill="url(#o)"/><rect fill="#49686f" height="67.983406" rx="9.764569" ry="11.2882" width="380.28217" x="67.562256" y="181.4913"/><path d="m77.326172 185.24805c-3.079931 0-6.007813 2.8707-6.007813 7.15706v43.15025c0 4.28634 2.928789 7.15892 6.007813 7.15892h360.753908c3.07902 0 6.00781-2.87258 6.00781-7.15892v-43.15025c0-4.28636-2.92788-7.15706-6.00781-7.15706z" fill="#2094cd" filter="url(#n)"/><circle cx="385.17212" cy="366.3212" fill="url(#l)" r="40.365147"/><rect fill="#090b0d" height="23.284645" rx="8.262337" ry="8.637849" width="178.76598" x="146.3219" y="118.38226"/><path d="m359.75781 185.24805-.72265 2.26953-67.60157 9.01367-75.11132 4.50586-73.60938 10.51562-36.58203 31.16211h54.14648l1.96485-2.61914s61.59039-16.52511 69.10156-18.02734c7.51118-1.50224 114.16962-7.51172 126.1875-7.51172s43.56641-12.01758 43.56641-12.01758l2.0332-17.29101z" fill="#01aefe" fill-opacity=".722973" fill-rule="evenodd" filter="url(#R)"/><g fill="#ababab"><path d="m73.609954 217.22823h4.780083v26.0249h-4.780083z"/><path d="m83.609954 217.22823h4.780083v26.0249h-4.780083z"/><path d="m93.609954 217.22823h4.780083v26.0249h-4.780083z"/><path d="m103.609953 217.22823h4.780083v26.0249h-4.780083z"/><path d="m113.609953 206.71259h4.780083v36.540546h-4.780083z"/><path d="m123.609963 217.22823h4.780083v26.0249h-4.780083z"/><path d="m133.609963 217.22823h4.780083v26.0249h-4.780083z"/><path d="m143.609963 217.22823h4.780083v26.0249h-4.780083z"/><path d="m153.609963 217.22823h4.780083v26.0249h-4.780083z"/><path d="m163.609963 206.71259h4.780083v36.540546h-4.780083z"/><path d="m173.609963 217.22823h4.780083v26.0249h-4.780083z"/><path d="m183.609963 217.22823h4.780083v26.0249h-4.780083z"/><path d="m193.609963 217.22823h4.780083v26.0249h-4.780083z"/><path d="m203.609963 217.22823h4.780083v26.0249h-4.780083z"/><path d="m213.609963 206.71259h4.780083v36.540546h-4.780083z"/><path d="m223.609963 217.22823h4.780083v26.0249h-4.780083z"/><path d="m233.609963 217.22823h4.780083v26.0249h-4.780083z"/><path d="m243.609963 217.22823h4.780083v26.0249h-4.780083z"/><path d="m253.609963 206.71259h4.780083v36.540546h-4.780083z"/><path d="m263.609963 217.22823h4.780083v26.0249h-4.780083z"/><path d="m273.609963 217.22823h4.780083v26.0249h-4.780083z"/><path d="m283.609963 217.22823h4.780083v26.0249h-4.780083z"/><path d="m293.609963 206.71259h4.780083v36.540546h-4.780083z"/><path d="m303.609963 217.22823h4.780083v26.0249h-4.780083z"/><path d="m313.609963 217.22823h4.780083v26.0249h-4.780083z"/><path d="m323.609963 217.22823h4.780083v26.0249h-4.780083z"/><path d="m333.609963 217.22823h4.780083v26.0249h-4.780083z"/><path d="m343.609963 206.71259h4.780083v36.540546h-4.780083z"/><path d="m353.609963 217.22823h4.780083v26.0249h-4.780083z"/><path d="m363.609963 217.22823h4.780083v26.0249h-4.780083z"/><path d="m373.609963 217.22823h4.780083v26.0249h-4.780083z"/><path d="m383.609963 217.22823h4.780083v26.0249h-4.780083z"/><path d="m393.609963 206.71259h4.780083v36.540546h-4.780083z"/><path d="m403.609963 217.22823h4.780083v26.0249h-4.780083z"/><path d="m413.609963 217.22823h4.780083v26.0249h-4.780083z"/><path d="m423.609963 217.22823h4.780083v26.0249h-4.780083z"/><path d="m433.609963 217.22823h4.780083v26.0249h-4.780083z"/></g><g transform="translate(-4)"><rect fill="url(#v)" height="33.438713" rx="8.293249" ry="7.243501" width="42.820797" x="424.68585" y="93.017838"/><rect fill="url(#u)" height="34.307251" rx="8.508658" ry="7.431644" width="43.933025" x="424.12973" y="96.583565"/><path d="m432.63856 96.583121c-4.7138 0-8.5094 3.314509-8.5094 7.431639v1.16797c0-4.24461 3.7956-7.662109 8.5094-7.662109h26.91472c4.71381 0 8.5094 3.417499 8.5094 7.662109v-1.16797c0-4.11713-3.79559-7.431639-8.5094-7.431639z" fill="#eee"/></g><path d="m442.01758 87.519531a13.502672 4.2690685 0 0 0 -13.3711 3.707031c-.38563.585921-.62695 1.343634-.62695 2.185547v39.660161c0 1.84884 1.12366 3.33593 2.51953 3.33593h22.95703c1.39588 0 2.51953-1.48709 2.51953-3.33593v-39.660161c0-.845378-.24237-1.606527-.63085-2.193359a13.502672 4.2690685 0 0 0 -13.36719-3.699219z" fill="url(#g)"/><g transform="matrix(3.7094444 0 0 3.7094444 344.03873 329.38711)"><path d="m11.000001.49996561c-5.793538 0-10.500001 4.70646159-10.500001 10.50000039 0 5.793538 4.706463 10.500002 10.500001 10.5 5.793535 0 10.500004-4.706462 10.499998-10.5 0-5.7935388-4.706463-10.50000039-10.499998-10.50000039z" fill="url(#j)" stroke="url(#k)" stroke-linecap="round" stroke-linejoin="round" stroke-width=".585792"/><path d="m11 .99956571c-1.5518411 0-3.0261364.35506649-4.3374998.98749999l3.7499998 7.9499995-6.5499998-5.9499995c-1.7735536 1.8050715-2.8625007 4.2855591-2.8625007 7.0125003 0 .721028.0796086 1.422023.2250003 2.1l9.8750002-2.55-.1625-.137501 6.375-7.1624993c-1.722005-1.4039416-3.920515-2.24999999-6.3125-2.24999999zm9.637499 7.32499999-9.824999 2.3500003.0375.025-8.5374994 5.25c1.723117 3.016011 4.9693573 5.050001 7.6875004 5.05 1.2818 0 1.56156-.01457 1.8375-.0375-.359442-4.118065-.887684-10.062153-.9-10.200001l7.937499 6.3875c1.328509-1.697635 2.125002-3.830147 2.125-6.149999 0-.925596-.1265-1.8239458-.3625-2.6750006z" fill-opacity=".042553"/><path d="m11 .99956571c-1.2028389 0-2.3562752.22218049-3.4250001.61250009l2.8375001 8.3249994-7.2875006-5.0999995c-1.3321092 1.6988608-2.1249999 3.8391703-2.1249999 6.1625003 0 .47855.034816.951774.1000008 1.4125l9.9999997-1.8625-.1625-.137501 5.5625-7.7499993c-1.579413-1.0444836-3.46713-1.66249999-5.5-1.66249999zm9.8125 8.08749989-10 1.5875004.0375.025-7.8625004 6.275c1.8246003 2.43887 4.7363922 4.025 8.0125004 4.025.07986 0 .158086.0018.2375 0-.119123-4.152507-.287734-10.100234-.3-10.237501l8.3 5.887501c1.106714-1.60919 1.762501-3.551883 1.7625-5.65 0-.654673-.06706-1.2927358-.1875-1.9125004z" fill-opacity=".047872"/><path d="m11 .99956571c-.907637 0-1.7887366.12276599-2.6250005.35000009l2.5250005 9.1750002 4.7125-8.3875003c-1.381225-.7209052-2.94835-1.13749999-4.6125-1.13749999zm-8.5125006 4.74999989c-.9429161 1.5255408-1.4874999 3.3270593-1.4874999 5.2500004 0 .231297.00952.460096.0250046.6875l9.9249989-1.1-8.4624997-4.8375004zm18.4499986 4.1124996-9.974999.6000008 8.6125 5.6875c.905084-1.503677 1.425001-3.269219 1.425-5.15 0-.383583-.02033-.765083-.0625-1.1375008zm-9.924999.6750008-7.0749997 7.55c1.7429128 1.736783 4.1297895 2.821718 6.7624997 2.9z" fill-opacity=".058511"/><path d="m11 .99956571c-.548031 0-1.0882734.03994-1.612501.12499999l1.512501 9.4000003 3.725-8.8375003c-1.124882-.438822-2.3459-.68749999-3.625-.68749999zm-8.9750006 5.58749999c-.6329809 1.2845175-1.0005209 2.7285095-1.0249999 4.2499993l9.9500005-.249999zm8.9375006 3.8750003 8.949999 5.075c.695073-1.361655 1.087501-2.905505 1.0875-4.5375 0-.138803-.0069-.275063-.0125-.4125zm.05.075-5.7875003 8.6125c1.4067451.999731 3.0736037 1.652831 4.8875003 1.8125z" fill-opacity=".06383"/><path d="m11 .99956571c-.252212 0-.502443.0066-.750001.025l.650001 9.50000029 2.525-9.2250002c-.776459-.193798-1.589022-.30000039-2.425-.30000009zm-9.3625005 6.49999989c-.2950549.788122-.5003052 1.6198952-.5874996 2.4874996l9.8999991.6000008zm9.3250005 2.9625004 9.262499 4.4c.44278-1.054084.707482-2.19959.7625-3.4l-10.025-1zm.05.075-4.3625002 9.4625c.8634174.418224 1.7955196.719841 2.7749993.874999l1.5874999-10.337495z" fill-opacity=".101064"/><path d="m11.0625.99956571-.1625 9.52500029 1.5125-9.4250003c-.440493-.062323-.893123-.097173-1.35-.1zm-9.6625002 7.19999989c-.1127887.3869376-.2093361.7828092-.2749998 1.1875l9.825 1.2000004zm9.5625002 2.2625004 9.525 3.674999c.181415-.548367.328162-1.114393.412499-1.699999zm.05.075-3.7000005 9.75c.2241076.08952.455806.176461.6875004.25.2049753.06446.4145941.123632.6249997.175.054274.01335.1078819.02505.1625005.0375z" fill-opacity=".085106"/><path d="m11.499982 10.999983a.5.5 0 0 1 -1 0 .5.5 0 1 1 1 0z" fill="#fff"/><path d="m20.5 10.999629c0 5.246874-4.253608 9.500336-9.49988 9.500336-5.246752 0-9.50012-4.25351-9.50012-9.500336 0-5.2466313 4.253368-9.4996623 9.50012-9.4996623 5.246272 0 9.49988 4.253031 9.49988 9.4996623z" fill="none" opacity=".9" stroke="url(#i)" stroke-linecap="round" stroke-linejoin="round"/></g><circle cx="375.23651" cy="344.96265" fill="#595858" r="5.045643"/><circle cx="374.57928" cy="344.39929" fill="#2e2e2e" filter="url(#m)" r="4.200636" transform="matrix(.93370487 0 0 .93370487 25.828633 22.632827)"/><path d="m133.84233 182.7054h4.780083v63.734444h-4.780083z" fill="#430000" filter="url(#p)"/><path d="m132.78009 182.7054h4.780083v63.734444h-4.780083z" fill="#c00"/><path d="m77.326172 185.24805c-3.079931 0-6.007813 2.86989-6.007813 7.15625v27.48047h372.769531v-27.48047c0-4.28636-2.92788-7.15625-6.00781-7.15625z" fill="url(#G)"/><rect fill="#a7a7a7" height="25.993626" rx="7.992312" ry="5.047731" width="172.92365" x="149.24307" y="115.19553"/><rect fill="url(#q)" height="16.229097" rx="7.992312" ry="3.151546" width="172.92365" x="149.24307" y="115.19553"/><rect height="25.382437" rx="8.136588" ry="4.190541" width="59.41378" x="412.20587" y="117.06773"/><g transform="translate(-4)"><rect fill="url(#s)" height="36.912865" rx="9.154885" ry="7.996073" width="47.269711" x="422.4614" y="101.28076"/><path d="m431.61603 105.28039c-5.0718 0-9.15562 3.56627-9.15562 7.99609v.22852 20.69335 8.27735h47.27102v-8.27735-20.69335-.22852c0-4.42982-4.08382-7.99609-9.15562-7.99609z" fill="url(#r)"/><path d="m431.61603 105.28039c-5.0718 0-9.15562 3.56627-9.15562 7.99609v.22852 1.02148c0-4.24006 4.08382-7.65234 9.15562-7.65234h28.95978c5.0718 0 9.15562 3.41228 9.15562 7.65234v-1.02148-.22852c0-4.42982-4.08382-7.99609-9.15562-7.99609z" fill="#cacaca"/><path d="m237.80883 1.8895868c0 5.3184754-4.93415 11.7345942-11.02074 11.7345972-6.08659.000001-11.02075-6.4161188-11.02075-11.7345972 0-5.3184776 4.93416-9.6299548 11.02075-9.6299538 6.08659.0000032 11.02074 4.3114794 11.02074 9.6299538z" fill="#f9f9f9" filter="url(#y)" transform="matrix(1.0470588 0 0 1 208.63546 122.80773)"/><path d="m457.63529 124.21852c0 5.05404-5.16635 11.15115-11.53936 11.15115-6.37302 0-11.53938-6.09711-11.53938-11.15115 0-5.05405 5.16636-9.15116 11.53938-9.15116 6.37301.00001 11.53936 4.09712 11.53936 9.15116z" fill="#4d4d4d"/><ellipse cx="446.09592" cy="125.08159" rx="8.897828" ry="7.919384"/><ellipse cx="446.09592" cy="124.21852" fill="url(#w)" rx="8.897828" ry="7.056313"/><ellipse cx="226.78809" cy=".605809" fill="#ededed" filter="url(#x)" rx="7.568465" ry="6.018969" transform="matrix(1.0470588 0 0 1 208.63546 122.80773)"/><path d="m445.65317 119.35265a.4915939.4694998 0 0 0 -.49081.46875v4.17969h-4.37637a.4915939.4694998 0 0 0 -.49081.46875v.8457a.4915939.4694998 0 0 0 .49081.46875h4.37637v4.17774a.4915939.4694998 0 0 0 .49081.46875h.88345a.4915939.4694998 0 0 0 .49081-.46875v-4.17774h4.37843a.4915939.4694998 0 0 0 .4908-.46875v-.8457a.4915939.4694998 0 0 0 -.4908-.46875h-4.37843v-4.17969a.4915939.4694998 0 0 0 -.49081-.46875z" fill="#4d4d4d"/><path d="m440.39948 105.28039a6.1867708 1.9917012 0 0 0 -.49081.77734 6.1867708 1.9917012 0 0 0 .55011.81641h11.27633a6.1867708 1.9917012 0 0 0 .54807-.81641 6.1867708 1.9917012 0 0 0 -.49899-.77734z" fill="url(#t)"/><path d="m422.46094 140.48047v1.99609h47.26953v-1.99609z" fill="#010101" filter="url(#z)"/></g><path d="m232.52588 114.89523h2.065574v16.490553h-2.065574z" fill="#4d4d4d"/><path d="m149.24219 128.27344v2c0 1.74595 3.5664 3.15039 7.99414 3.15039h156.9375c4.42774 0 7.99219-1.40444 7.99219-3.15039v-2c0 1.74595-3.56445 3.15039-7.99219 3.15039h-156.9375c-4.42774 0-7.99414-1.40444-7.99414-3.15039z" fill="#ebebeb"/><path d="m232.65866 131.45352h2.065574v9.824386h-2.065574z" fill="#4d4d4d"/><g transform="matrix(2.6784936 0 0 2.6784936 474.15658 -377.72461)"><path d="m-148.32338 180.31832c-6.60105-.00035-11.9529 2.66267-11.95387 5.94815v2.21124c.00036 3.07371 5.35239 5.56525 11.95387 5.56492 6.60068-.00019 11.95147-2.49158 11.95183-5.56492v-2.21124c-.00097-3.28508-5.35159-5.94794-11.95183-5.94815z" fill="#161616" filter="url(#E)"/><path d="m-148.32342 178.37819c-6.34179-.00035-11.48345 2.60545-11.48438 5.82031v3.625c.00034 3.00764 5.14217 5.44564 11.48438 5.44531 6.34144-.00018 11.48208-2.43803 11.48242-5.44531v-3.625c-.00093-3.21447-5.1414-5.82011-11.48242-5.82031z" fill="url(#A)"/><ellipse cx="-148.32423" cy="183.82321" fill="url(#B)" rx="11.483119" ry="5.445603"/><ellipse cx="-148.32423" cy="183.22905" fill="#fff" filter="url(#D)" rx="8.378086" ry="3.934187" transform="matrix(1.0004139 0 0 .9840063 .061394 2.9969)"/><ellipse cx="-148.32423" cy="183.4946" rx="8.378086" ry="3.668627"/><path d="m-148.32422 179.82617a8.3780861 3.6686273 0 0 0 -6.98437 1.64844 7.3158455 6.4566011 0 0 0 6.98437 4.55859 7.3158455 6.4566011 0 0 0 6.99219-4.55664 8.3780861 3.6686273 0 0 0 -6.99219-1.65039z" fill="url(#C)"/></g><ellipse cx="442.01758" cy="81.7883" fill="#1a1a1a" filter="url(#W)" rx="6.80695" ry="2.152117" transform="matrix(1.6713486 0 0 1.6713486 -296.74789 -44.908461)"/><path d="m442.01758 77.943359c-4.55028.0019-8.51597.980057-9.62891 2.375-.78178.530157-1.3457 1.999886-1.3457 3.759766v7.347655c1.68708 5.023892 21.886 3.822334 21.94922 0v-7.347655c0-1.75714-.56192-3.22551-1.3418-3.757813-1.11091-1.396164-5.07928-2.375384-9.63281-2.376953z" fill="url(#f)"/><ellipse cx="442.01758" cy="81.7883" fill="#1a1a1a" filter="url(#W)" rx="6.80695" ry="2.152117" transform="matrix(1.3590374 0 0 1.3590374 -158.70084 -29.365058)"/><path d="m442.01758 63.257812c-3.92389.0014-7.26561.902198-7.89063 2.126954-.56575.788171-.95898 2.599382-.95898 4.722656v11.156248c.48422 4.063301 16.99368 4.302581 17.69922 0v-11.156248c0-2.101536-.3869-3.892522-.94336-4.69336-.5849-1.238241-3.94638-2.155006-7.90625-2.15625z" fill="url(#V)"/><ellipse cx="442.01758" cy="65.7883" fill="#1a1a1a" filter="url(#W)" rx="6.80695" ry="2.152117" transform="matrix(.94123803 0 0 .94123803 25.973825 4.16585)"/><path d="m436.00864 39.890461h12.01788v26.609953c-1.14578 1.565747-10.55877 1.728973-12.01788 0z" fill="url(#d)"/><path d="m423.94922 25.244141c-.80916 0-1.46094.592523-1.46094 1.328125v15.371093c0 .129975.0265.252549.0645.371094a19.487448 4.3802385 0 0 0 -.0605.271485 19.487448 4.3802385 0 0 0 19.48828 4.380859 19.487448 4.3802385 0 0 0 19.48633-4.380859 19.487448 4.3802385 0 0 0 -.0254-.15625c.0653-.150954.10547-.313812.10547-.486329v-15.371093c0-.735602-.65178-1.328125-1.46094-1.328125z" fill="url(#e)"/><ellipse cx="442.01758" cy="26.586361" fill="url(#U)" rx="19.487448" ry="4.380239"/></g></svg>