<?xml version="1.0" encoding="UTF-8" standalone="no"?>
<svg
   xmlns:dc="http://purl.org/dc/elements/1.1/"
   xmlns:cc="http://creativecommons.org/ns#"
   xmlns:rdf="http://www.w3.org/1999/02/22-rdf-syntax-ns#"
   xmlns:svg="http://www.w3.org/2000/svg"
   xmlns="http://www.w3.org/2000/svg"
   xmlns:xlink="http://www.w3.org/1999/xlink"
   xmlns:sodipodi="http://sodipodi.sourceforge.net/DTD/sodipodi-0.dtd"
   xmlns:inkscape="http://www.inkscape.org/namespaces/inkscape"
   height="22"
   viewBox="0 0 5.8208332 5.8208335"
   width="22"
   version="1.1"
   id="svg15"
   sodipodi:docname="libreoffice-draw.svg"
   inkscape:version="0.92.5 (2060ec1f9f, 2020-04-08)"
   inkscape:export-filename="/home/rizmut/Dokumen/Rizmut/Github/karasa-jaga-icon-theme/build/Karasa-Jaga/22x22/apps/libreoffice-draw.png"
   inkscape:export-xdpi="96"
   inkscape:export-ydpi="96">
  <metadata
     id="metadata21">
    <rdf:RDF>
      <cc:Work
         rdf:about="">
        <dc:format>image/svg+xml</dc:format>
        <dc:type
           rdf:resource="http://purl.org/dc/dcmitype/StillImage" />
        <dc:title></dc:title>
      </cc:Work>
    </rdf:RDF>
  </metadata>
  <defs
     id="defs19">
    <linearGradient
       gradientTransform="matrix(0.20319999,0,0,0.20319999,-8.7227832,-1.9184873)"
       id="a-3"
       gradientUnits="userSpaceOnUse"
       x1="16.970457"
       x2="17.029102"
       y1="29.596231"
       y2="1.7660453">
      <stop
         offset="0"
         stop-color="#3baef0"
         id="stop2-6" />
      <stop
         offset=".30888158"
         stop-color="#0f80c1"
         id="stop4-7" />
      <stop
         offset="1"
         stop-color="#3baef0"
         id="stop6-5" />
    </linearGradient>
    <linearGradient
       inkscape:collect="always"
       xlink:href="#a-6"
       id="linearGradient883"
       x1="2.9104166"
       y1="5.5562501"
       x2="2.9104166"
       y2="0.52916664"
       gradientUnits="userSpaceOnUse" />
    <linearGradient
       gradientTransform="matrix(0.20319999,0,0,0.20319999,10.856384,-2.9768206)"
       id="a-5"
       gradientUnits="userSpaceOnUse"
       x1="16.970457"
       x2="17.029102"
       y1="29.596231"
       y2="1.7660453">
      <stop
         offset="0"
         stop-color="#87f03b"
         id="stop2-62" />
      <stop
         offset=".38350943"
         stop-color="#4bc10f"
         id="stop4-9" />
      <stop
         offset="1"
         stop-color="#82f03b"
         id="stop6-1" />
    </linearGradient>
    <linearGradient
       gradientTransform="matrix(0.20319999,0,0,0.20319999,5.2588585,-0.33098734)"
       id="a-7"
       gradientUnits="userSpaceOnUse"
       x1="16.970457"
       x2="17.029102"
       y1="29.596231"
       y2="1.7660453">
      <stop
         offset="0"
         stop-color="#f0a63b"
         id="stop2-0" />
      <stop
         offset=".38350943"
         stop-color="#c15b0f"
         id="stop4-93" />
      <stop
         offset="1"
         stop-color="#f0893b"
         id="stop6-6" />
    </linearGradient>
    <linearGradient
       gradientTransform="matrix(0.20319999,0,0,0.20319999,1.4636752,-1.1247373)"
       id="a-6"
       gradientUnits="userSpaceOnUse"
       x1="16.970457"
       x2="17.029102"
       y1="29.596231"
       y2="1.7660453">
      <stop
         offset="0"
         stop-color="#e8f03b"
         id="stop2-2" />
      <stop
         offset=".38350943"
         stop-color="#b9c10f"
         id="stop4-6" />
      <stop
         offset="1"
         stop-color="#e8f03b"
         id="stop6-18" />
    </linearGradient>
  </defs>
  <sodipodi:namedview
     pagecolor="#ffffff"
     bordercolor="#666666"
     borderopacity="1"
     objecttolerance="10"
     gridtolerance="10"
     guidetolerance="10"
     inkscape:pageopacity="0"
     inkscape:pageshadow="2"
     inkscape:window-width="1920"
     inkscape:window-height="1003"
     id="namedview17"
     showgrid="true"
     inkscape:zoom="45.254834"
     inkscape:cx="12.891507"
     inkscape:cy="9.2441716"
     inkscape:window-x="0"
     inkscape:window-y="0"
     inkscape:window-maximized="1"
     inkscape:current-layer="svg15"
     inkscape:snap-global="false">
    <inkscape:grid
       type="xygrid"
       id="grid831" />
  </sodipodi:namedview>
  <linearGradient
     id="a"
     gradientUnits="userSpaceOnUse"
     x1="16.970457"
     x2="16.885416"
     y1="29.596231"
     y2="5.5351238"
     gradientTransform="matrix(0.2032,0,0,0.2032,0.00846685,-0.59557053)">
    <stop
       offset="0"
       stop-color="#cdcdcd"
       id="stop2" />
    <stop
       offset=".38350943"
       stop-color="#d9dbde"
       id="stop4" />
    <stop
       offset="1"
       stop-color="#f5f5f5"
       id="stop6" />
  </linearGradient>
  <path
     d="m 1.0994762,0.26458988 c -0.094892,-10e-9 -0.14070944,0.0378647 -0.17065622,0.0611188 0.001678,-0.001327 0.008741,-0.006752 0.008731,-0.006747 -0.005944,0.003085 -0.0117692,0.006395 -0.0174624,0.009922 -0.001406,0.001112 -0.007448,0.002159 -0.008731,0.003175 -0.0268937,0.0212923 -0.0629775,0.0441898 0,0.001985 -3.5763e-4,2.3978e-4 -0.001211,0.001335 -0.001587,0.001587 -0.0139763,0.009578 -0.0270008,0.020476 -0.0388944,0.0325434 -7.0714e-4,7.1323e-4 -8.636e-4,4.4704e-4 -0.001587,0.001191 -0.003691,0.00386 -0.007265,0.00783 -0.0107156,0.0119063 -3.6e-6,5.51e-6 -3.9624e-4,3.9421e-4 -3.9624e-4,3.9624e-4 -0.0258686,0.0302349 -0.0445892,0.0659119 -0.05477,0.10437858 7.9858e-4,-0.003498 8.3312e-4,-0.009385 0.001587,-0.0119063 0.004733,-0.0158325 -0.002312,0.003794 -0.006747,0.0269875 -0.003144,0.0163499 -0.004739,0.0329599 -0.004763,0.0496094 v 0.003969 c 8.83e-5,0.00278 2.2039e-4,0.005558 3.9624e-4,0.008334 l -3.9556e-4,0.2301876 v 3.9624e-4 4.49289026 c 2e-7,0.089017 0.0447353,0.1720749 0.11906252,0.2210592 h 3.9624e-4 c 0.0847605,0.056687 0.12098402,0.046034 0.14406562,0.047625 0.023082,0.00158 0.034521,0.0012 0.042069,0.0012 h 3.1343875 0.3258344 0.1623219 c 0.00739,0 0.018505,3.861e-4 0.041672,-0.0012 0.023033,-0.00158 0.060516,0.00793 0.1432719,-0.046831 2.643e-4,-1.351e-4 5.283e-4,-2.707e-4 7.921e-4,-4.067e-4 0.074747,-0.048878 0.1198141,-0.1321466 0.1198561,-0.2214561 l -10e-8,-3.0376716 C 5.0272867,2.1785977 4.9994479,2.1112122 4.949825,2.0615077 L 3.2299012,0.34198066 C 3.180197,0.29235731 3.1128114,0.26451794 3.0425762,0.26459006 l -1.190625,-1.5e-7 z m 2.8694061,1.5e-7 C 3.7328584,0.26440675 3.6145863,0.54981342 3.7815573,0.71663066 L 4.575175,1.5102483 c 0.1668172,0.166971 0.4522238,0.048699 0.4520406,-0.1873249 l 4.065e-4,-0.76861476 c -1.023e-4,-0.0614382 -0.021569,-0.12092813 -0.060722,-0.168275 3.03e-5,2.503e-5 0.0012,7.9451e-4 0.0012,7.9451e-4 -6.1e-6,-7.41e-6 -0.00219,-0.002135 -0.00238,-0.002381 -4.75e-5,-6.263e-5 -3.454e-4,-7.1526e-4 -4.064e-4,-7.9451e-4 -0.00407,-0.004779 -0.0083,-0.009412 -0.0127,-0.0138905 -7.721e-4,-7.9248e-4 -8.331e-4,-4.3282e-4 -0.00158,-0.001191 -0.012235,-0.0124048 -0.025665,-0.0235714 -0.040095,-0.0333374 -6.3e-4,-4.1046e-4 -0.0022,-0.002395 -0.00278,-0.002778 0.069589,0.046519 0.029574,0.021453 0.00199,-3.9624e-4 -0.00124,-9.7536e-4 -0.00699,-0.002112 -0.00834,-0.003175 -0.00339,-0.002061 -0.00683,-0.004046 -0.010317,-0.005953 -5.9e-6,-3.25e-6 0.00451,0.003819 0.00516,0.004366 C 4.8671577,0.3042031 4.8189627,0.26459078 4.7220199,0.2645907 Z M 0.79427935,0.54637114 c -3.57e-6,7.9366e-4 -3.57e-6,0.001587 0,0.002381 h -3.9624e-4 c 0,-6.5837e-4 3.8405e-4,-0.001687 3.9624e-4,-0.002381 z"
     id="path9"
     inkscape:connector-curvature="0"
     style="fill:#7e7a0a;stroke-width:0.04665208;fill-opacity:1"
     sodipodi:nodetypes="sccccccccccccccccccccccsccscccccccccscccccccccccccccccsccccc" />
  <path
     d="m 1.0996084,0.52916683 c -0.017653,1e-8 -0.03254,0.0193026 -0.038894,0.0235543 -0.00203,0.001363 -0.00164,0.001408 -0.00199,0.001587 l -3.96e-4,0.23944174 V 5.2865064 c 4.125e-4,2.438e-4 1.932e-4,-4.5e-6 0.00199,0.0012 0.00633,0.00423 0.02117,0.00396 0.038894,0.00396 h 3.1341209 0.325967 0.1623216 c 0.017723,0 0.032495,3.048e-4 0.038894,-0.00396 0.00181,-0.0012 0.00156,-9.348e-4 0.00199,-0.0012 l -7.1e-6,-3.0375481 -1.7197917,-1.71979163 -1.1906249,-1.5e-7 z M 4.7625001,5.2865064 v 0.00516 c 0,-0.00479 0.00106,-0.00583 0,-0.00516 z M 1.0587303,0.55430864 v -0.005556 c 0,0.00103 -2.459e-4,0.001199 -3.963e-4,0.001985 v 0.003969 c 2.4e-5,1.443e-5 3.211e-4,-3.5763e-4 3.963e-4,-3.9624e-4 z M 3.96875,0.52916667 4.7625,1.3229167 4.7629065,0.55430864 c -3.454e-4,-1.9192e-4 6.89e-5,-2.1539e-4 -0.00199,-0.001587 -0.00642,-0.004291 -0.021243,-0.0235548 -0.038897,-0.0235548 z m 0.794147,0.025142 c 7.315e-4,4.0843e-4 0,-0.001014 0,-0.005556 z"
     id="path11"
     inkscape:connector-curvature="0"
     style="fill:url(#linearGradient883);stroke-width:0.04665208;fill-opacity:1.0"
     sodipodi:nodetypes="scccccsccscccccscccccccccccccscccc" />
  <path
     d="m 1.0996745,0.26458333 c -0.094892,-2.39e-6 -0.14110225,0.0377242 -0.17104903,0.0609782 0.00168,-0.001328 0.008794,-0.006723 0.008785,-0.006718 -0.005979,0.003049 -0.0118398,0.006324 -0.0175699,0.009818 -0.001408,0.001111 -0.006986,0.002601 -0.008268,0.003617 -0.0268937,0.0212924 -0.0629775,0.0437557 0,0.00155 -3.5719e-4,2.3979e-4 -0.001175,0.001299 -0.00155,0.00155 -0.0141088,0.009563 -0.0272611,0.0204651 -0.039274,0.032556 -7.0644e-4,7.1438e-4 -8.2815e-4,8.0698e-4 -0.00155,0.00155 -0.003737,0.003851 -0.007356,0.007815 -0.0108521,0.0118856 v 5.1594e-4 c -0.0258721,0.0302367 -0.0445951,0.0659168 -0.0547767,0.10438702 7.9639e-4,-0.003498 7.9639e-4,-0.009365 0.00155,-0.0118856 0.004733,-0.0158327 -0.002283,0.003678 -0.006718,0.0268717 -0.002659,0.013807 -0.004215,0.027804 -0.004651,0.041858 v 0.005684 c 0,-6.5881e-4 5.0535e-4,-0.001889 5.1594e-4,-0.002585 -4.21e-6,8.6166e-4 -4.21e-6,0.001723 0,0.002585 h -5.1594e-4 v 0.0144693 4.73201081 c 0.0028,0.085891 0.0471147,0.1650794 0.11885581,0.2123901 h 5.1593e-4 c 0.0847613,0.056687 0.12057979,0.045951 0.14366129,0.047543 0.023082,0.00159 0.034827,0.00103 0.042375,0.00103 l 0.2237579,5.6e-6 V 0.26458894 Z"
     id="path13"
     inkscape:connector-curvature="0"
     style="stroke-width:0.26458332"
     sodipodi:nodetypes="scccccccccccccccccccccccsccs" />
  <path
     style="fill:#f8f7a6;stroke-width:0.0196549"
     inkscape:connector-curvature="0"
     id="path15"
     d="m 2.5980204,2.6460647 c -0.039994,0.00186 -0.093708,0.00922 -0.2746483,0.018666 -8.388e-4,7.51e-5 -0.00167,2.926e-4 -0.00248,5.851e-4 h -3.81e-4 c -0.051707,0.014463 -0.1029931,0.031756 -0.1510337,0.059044 -3.776e-4,1.996e-4 -7.576e-4,3.946e-4 -0.00114,5.85e-4 l -1.951e-4,1.95e-4 c -4.43e-5,2.44e-5 -1.462e-4,-2.44e-5 -1.95e-4,0 -0.058661,0.032076 -0.1164966,0.069555 -0.16456,0.1201823 -0.00166,0.00177 -0.00344,0.00342 -0.00533,0.00495 -0.062358,0.049679 -0.1052127,0.1070535 -0.1272296,0.1620844 -0.022888,0.057208 -0.026016,0.1089717 -0.00343,0.1506564 0.01939,0.035781 0.072272,0.060718 0.1306579,0.051996 0.063855,-0.00954 0.1430207,-0.04711 0.2436027,-0.1251341 l 1.95e-4,1.95e-4 c 0.1035531,-0.070188 0.1613185,-0.096539 0.2173149,-0.1163695 1.91e-4,-6.61e-5 3.824e-4,-1.311e-4 5.741e-4,-1.95e-4 0.2227832,-0.075924 0.3728544,-4.869e-4 0.4504458,0.088566 5.451e-4,5.847e-4 0.00107,0.00104 0.00171,0.00152 l 3.81e-4,3.889e-4 c 0.038338,0.029271 0.058357,0.075389 0.061521,0.1190417 0.00349,0.048211 -0.00794,0.09972 -0.026665,0.1514179 -0.037258,0.1028885 -0.1011593,0.1960555 -0.1228488,0.2256988 v 1.951e-4 l -1.95e-4,1.95e-4 C 2.7224791,3.7075039 2.6903084,3.9008455 2.6490586,4.0724954 c -6.3e-5,2.607e-4 -1.28e-4,5.208e-4 -1.95e-4,7.805e-4 -4.9e-5,1.95e-4 -1.463e-4,3.89e-4 -1.951e-4,5.848e-4 -0.020093,0.1496977 -0.012028,0.3490766 0.1131353,0.4673963 7.134e-4,6.147e-4 0.00141,0.00125 0.00209,0.0019 0.093695,0.098275 0.2248791,0.1299973 0.3536905,0.1352281 0.1284426,0.00523 0.253963,-0.015501 0.3420723,-0.023998 l 0.0019,-1.95e-4 c 0.00127,-1.107e-4 0.00254,-1.758e-4 0.00381,-1.951e-4 -0.00459,2.937e-4 -1.365e-4,-7.89e-5 0.00152,-1.95e-4 1.914e-4,-1e-6 3.828e-4,-1e-6 5.742e-4,0 h 3.81e-4 c 1.267e-4,-1.17e-5 2.535e-4,1.56e-5 3.81e-4,0 0.00104,-9.75e-5 0.00207,-3.889e-4 0.00305,-7.805e-4 0.00447,-0.0017 0.00914,-0.00279 0.013904,-0.00324 C 3.754362,4.4836968 3.6811261,4.4855646 3.8845014,4.2985707 l 3.81e-4,-3.889e-4 c 3.81e-4,-3.89e-4 8.202e-4,-8.784e-4 0.00114,-0.00134 1.257e-4,-1.957e-4 2.527e-4,-3.906e-4 3.81e-4,-5.847e-4 0.00512,-0.00684 0.00994,-0.012691 0.014285,-0.018285 1.249e-4,-2.612e-4 2.519e-4,-5.214e-4 3.81e-4,-7.806e-4 6.059e-4,-9.06e-4 0.00124,-0.00179 0.0019,-0.00266 0.1545164,-0.1919846 0.2453202,-0.3704861 0.3276092,-0.5874186 6.39e-5,-1.953e-4 1.289e-4,-3.902e-4 1.95e-4,-5.847e-4 5.316e-4,-0.00187 0.00117,-0.00372 0.0019,-0.00552 0.00114,-0.00262 4.101e-4,-0.012275 5.742e-4,-0.011808 -0.00154,-0.00448 -3.81e-4,-0.00215 -0.004,-0.00667 -0.00459,-0.00572 -0.00405,-0.00477 -0.010094,-0.00933 C 4.2101138,3.6463702 4.2003728,3.640396 4.1869658,3.63301 4.1604328,3.618395 4.1246618,3.60164 4.0881158,3.585776 4.0516208,3.569933 4.0150818,3.555394 3.9862179,3.545969 h -1.95e-4 c -0.014724,-0.00482 -0.025564,-0.008 -0.036569,-0.0099 -0.00785,-0.00137 -0.00691,-0.00145 -0.013523,-9.763e-4 h -1.951e-4 c -0.00382,2.937e-4 -0.00271,-2.937e-4 -0.00762,0.0019 0.00135,-5.847e-4 -0.00651,0.00514 -0.008,0.00838 -6.949e-4,0.00149 -0.00146,0.00296 -0.00229,0.00438 -0.031876,0.095623 -0.081608,0.1758032 -0.12209,0.264003 -0.00347,0.0048 -0.00654,0.0091 -0.00876,0.01219 -0.00222,0.00309 8.22e-5,9.75e-5 -0.00457,0.00629 -1.073e-4,9.75e-5 -2.831e-4,1.95e-4 -3.81e-4,3.889e-4 C 3.6767585,4.0523952 3.6571,4.1125241 3.3730027,4.3712464 c -0.00107,2.94e-4 -0.00215,5.543e-4 -0.00324,7.805e-4 -0.078551,0.015559 -0.1425956,0.023089 -0.1933203,0.024189 -0.050725,0.0011 -0.086289,-3.42e-5 -0.1211347,-0.02057 -0.023605,-0.013913 -0.047916,-0.046132 -0.057901,-0.084376 -0.011027,-0.042233 -0.012729,-0.09675 -0.00686,-0.169131 1.76e-4,-0.00166 4.303e-4,-0.00331 7.62e-4,-0.00495 0.00546,-0.030404 0.013322,-0.06068 0.019808,-0.092375 3.573e-4,-0.00173 8.012e-4,-0.00345 0.00133,-0.00514 0.036375,-0.1164772 0.058915,-0.215703 0.1287612,-0.3106497 l 1.951e-4,-3.889e-4 c 4.578e-4,-5.847e-4 7.991e-4,-0.00122 0.00114,-0.0019 v -1.951e-4 c 0.00605,-0.013397 0.014264,-0.033722 0.021522,-0.052949 0.00345,-0.00913 0.00673,-0.018287 0.00952,-0.026094 9.366e-4,-0.00261 0.00168,-0.00474 0.00248,-0.00705 0.00148,-0.00437 0.00353,-0.00854 0.00609,-0.012381 0.01306,-0.019375 0.033447,-0.047131 0.051044,-0.085519 0.00134,-0.00287 0.00293,-0.00561 0.00476,-0.00819 0.081694,-0.1171647 0.069672,-0.2694204 0.062291,-0.4075945 -7.89e-5,-6.986e-4 -1.439e-4,-0.0014 -1.95e-4,-0.0021 C 3.291565,3.0363977 3.272105,2.9694571 3.234917,2.9098225 l -1.951e-4,-1.95e-4 c -2.633e-4,-3.9e-4 -6.35e-4,-9.753e-4 -9.551e-4,-0.00134 l -1.95e-4,-1.951e-4 c -0.032438,-0.039344 -0.036189,-0.050677 -0.049331,-0.067995 -0.010934,-0.014408 -0.027016,-0.028045 -0.073138,-0.06114 -3.228e-4,-1.95e-4 -6.138e-4,-5.849e-4 -9.551e-4,-7.799e-4 -8.404e-4,-4.839e-4 -0.00167,-9.908e-4 -0.00248,-0.00152 -8.384e-4,-4.246e-4 -0.00167,-8.714e-4 -0.00248,-0.00134 -1.853e-4,-9.76e-5 -6.826e-4,-6.827e-4 -0.00152,-0.00134 -1.756e-4,-9.75e-5 -3.995e-4,-2.927e-4 -5.742e-4,-3.9e-4 -1.072e-4,-6.83e-5 -2.725e-4,-9.75e-5 -3.81e-4,-1.95e-4 -0.00349,-0.00228 -0.00715,-0.00468 -0.011618,-0.00762 -0.010202,-0.00669 -0.023884,-0.015622 -0.037521,-0.02457 -0.013291,-0.00872 -0.02676,-0.01743 -0.037521,-0.024379 -0.00577,-0.00373 -0.010266,-0.00664 -0.012761,-0.00819 -0.00164,-0.00102 -0.00284,-0.00176 -0.00438,-0.00266 -4.471e-4,-2.535e-4 -8.904e-4,-5.136e-4 -0.00133,-7.8e-4 -8.65e-5,-4e-5 -8.35e-5,-9.75e-5 -1.95e-4,-1.95e-4 -3.598e-4,-1.951e-4 -1.951e-4,-9.76e-5 -7.62e-4,-3.9e-4 h -1.95e-4 c -1.658e-4,-2.05e-5 -0.00217,-6.827e-4 -0.00419,-0.00152 -0.100936,-0.031999 -0.1547575,-0.043245 -0.1860823,-0.045901 -0.015801,-0.00134 -0.023794,-7.801e-4 -0.032188,0.00152 -9.459e-4,2.867e-4 -0.0019,5.468e-4 -0.00286,7.802e-4 -0.00106,6.714e-4 -0.00214,0.00131 -0.00324,0.0019 -0.010119,0.00533 -0.013501,0.00738 -0.00248,9.752e-4 -0.00263,0.00153 -0.00488,0.00276 -0.00705,0.00381 -0.00112,5.851e-4 -0.00214,0.00101 -0.00381,0.00172 -8.387e-4,3.901e-4 -0.00172,7.802e-4 -0.004,0.00152 -0.00114,3.901e-4 -0.00607,0.00152 -0.00609,0.00152 -1.16e-5,1.9e-6 -0.00894,0.00114 -0.00895,0.00114 h -0.00324 l -0.00419,-1.95e-4 c 0,0 9.658e-4,-0.0085 0.00152,-0.013904 -0.060683,-0.0076 -0.1026389,-0.013163 -0.1300852,-0.011999 -3.99e-5,1.9e-6 -1.462e-4,-2e-6 -1.95e-4,0 -4.433e-4,5.6e-6 -8.867e-4,5.6e-6 -0.00133,0 z m 0.5620573,0.038473 -0.00457,0.00609 c -0.00256,0.00538 -0.00559,0.011778 -0.010666,0.022475 0.0071,-0.013666 0.014822,-0.02879 0.015237,-0.02857 z"
     sodipodi:nodetypes="ccccccccccccccccccccccccccccccccccccccccccccccccccccccccccccccccsccccscccccccccccccccccccccccccccccccccccccccccccccccccscccccccccccc" />
</svg>
