<?xml version="1.0" encoding="UTF-8" standalone="no"?>
<svg
   xmlns:dc="http://purl.org/dc/elements/1.1/"
   xmlns:cc="http://creativecommons.org/ns#"
   xmlns:rdf="http://www.w3.org/1999/02/22-rdf-syntax-ns#"
   xmlns:svg="http://www.w3.org/2000/svg"
   xmlns="http://www.w3.org/2000/svg"
   xmlns:xlink="http://www.w3.org/1999/xlink"
   xmlns:sodipodi="http://sodipodi.sourceforge.net/DTD/sodipodi-0.dtd"
   xmlns:inkscape="http://www.inkscape.org/namespaces/inkscape"
   height="22"
   viewBox="0 0 5.8208332 5.8208335"
   width="22"
   version="1.1"
   id="svg15"
   sodipodi:docname="libreoffice-impress.svg"
   inkscape:version="0.92.5 (2060ec1f9f, 2020-04-08)"
   inkscape:export-filename="/home/rizmut/Dokumen/Rizmut/Github/karasa-jaga-icon-theme/build/Karasa-Jaga/22x22/apps/libreoffice-impress.png"
   inkscape:export-xdpi="96"
   inkscape:export-ydpi="96">
  <metadata
     id="metadata21">
    <rdf:RDF>
      <cc:Work
         rdf:about="">
        <dc:format>image/svg+xml</dc:format>
        <dc:type
           rdf:resource="http://purl.org/dc/dcmitype/StillImage" />
        <dc:title></dc:title>
      </cc:Work>
    </rdf:RDF>
  </metadata>
  <defs
     id="defs19">
    <linearGradient
       gradientTransform="matrix(0.20319999,0,0,0.20319999,-8.7227832,-1.9184873)"
       id="a-3"
       gradientUnits="userSpaceOnUse"
       x1="16.970457"
       x2="17.029102"
       y1="29.596231"
       y2="1.7660453">
      <stop
         offset="0"
         stop-color="#3baef0"
         id="stop2-6" />
      <stop
         offset=".30888158"
         stop-color="#0f80c1"
         id="stop4-7" />
      <stop
         offset="1"
         stop-color="#3baef0"
         id="stop6-5" />
    </linearGradient>
    <linearGradient
       inkscape:collect="always"
       xlink:href="#a-7"
       id="linearGradient883"
       x1="2.9104166"
       y1="5.5562501"
       x2="2.9104166"
       y2="0.52916664"
       gradientUnits="userSpaceOnUse" />
    <linearGradient
       gradientTransform="matrix(0.20319999,0,0,0.20319999,10.856384,-2.9768206)"
       id="a-5"
       gradientUnits="userSpaceOnUse"
       x1="16.970457"
       x2="17.029102"
       y1="29.596231"
       y2="1.7660453">
      <stop
         offset="0"
         stop-color="#87f03b"
         id="stop2-62" />
      <stop
         offset=".38350943"
         stop-color="#4bc10f"
         id="stop4-9" />
      <stop
         offset="1"
         stop-color="#82f03b"
         id="stop6-1" />
    </linearGradient>
    <linearGradient
       gradientTransform="matrix(0.20319999,0,0,0.20319999,5.2588585,-0.33098734)"
       id="a-7"
       gradientUnits="userSpaceOnUse"
       x1="16.970457"
       x2="17.029102"
       y1="29.596231"
       y2="1.7660453">
      <stop
         offset="0"
         stop-color="#f0a63b"
         id="stop2-0" />
      <stop
         offset=".38350943"
         stop-color="#c15b0f"
         id="stop4-93" />
      <stop
         offset="1"
         stop-color="#f0893b"
         id="stop6-6" />
    </linearGradient>
  </defs>
  <sodipodi:namedview
     pagecolor="#ffffff"
     bordercolor="#666666"
     borderopacity="1"
     objecttolerance="10"
     gridtolerance="10"
     guidetolerance="10"
     inkscape:pageopacity="0"
     inkscape:pageshadow="2"
     inkscape:window-width="1920"
     inkscape:window-height="1003"
     id="namedview17"
     showgrid="true"
     inkscape:zoom="19.666667"
     inkscape:cx="23.485645"
     inkscape:cy="2.238197"
     inkscape:window-x="0"
     inkscape:window-y="0"
     inkscape:window-maximized="1"
     inkscape:current-layer="svg15">
    <inkscape:grid
       type="xygrid"
       id="grid831" />
  </sodipodi:namedview>
  <linearGradient
     id="a"
     gradientUnits="userSpaceOnUse"
     x1="16.970457"
     x2="16.885416"
     y1="29.596231"
     y2="5.5351238"
     gradientTransform="matrix(0.2032,0,0,0.2032,0.00846685,-0.59557053)">
    <stop
       offset="0"
       stop-color="#cdcdcd"
       id="stop2" />
    <stop
       offset=".38350943"
       stop-color="#d9dbde"
       id="stop4" />
    <stop
       offset="1"
       stop-color="#f5f5f5"
       id="stop6" />
  </linearGradient>
  <path
     d="m 1.0994762,0.26458988 c -0.094892,-10e-9 -0.14070944,0.0378647 -0.17065622,0.0611188 0.001678,-0.001327 0.008741,-0.006752 0.008731,-0.006747 -0.005944,0.003085 -0.0117692,0.006395 -0.0174624,0.009922 -0.001406,0.001112 -0.007448,0.002159 -0.008731,0.003175 -0.0268937,0.0212923 -0.0629775,0.0441898 0,0.001985 -3.5763e-4,2.3978e-4 -0.001211,0.001335 -0.001587,0.001587 -0.0139763,0.009578 -0.0270008,0.020476 -0.0388944,0.0325434 -7.0714e-4,7.1323e-4 -8.636e-4,4.4704e-4 -0.001587,0.001191 -0.003691,0.00386 -0.007265,0.00783 -0.0107156,0.0119063 -3.6e-6,5.51e-6 -3.9624e-4,3.9421e-4 -3.9624e-4,3.9624e-4 -0.0258686,0.0302349 -0.0445892,0.0659119 -0.05477,0.10437858 7.9858e-4,-0.003498 8.3312e-4,-0.009385 0.001587,-0.0119063 0.004733,-0.0158325 -0.002312,0.003794 -0.006747,0.0269875 -0.003144,0.0163499 -0.004739,0.0329599 -0.004763,0.0496094 v 0.003969 c 8.83e-5,0.00278 2.2039e-4,0.005558 3.9624e-4,0.008334 l -3.9556e-4,0.2301876 v 3.9624e-4 4.49289026 c 2e-7,0.089017 0.0447353,0.1720749 0.11906252,0.2210592 h 3.9624e-4 c 0.0847605,0.056687 0.12098402,0.046034 0.14406562,0.047625 0.023082,0.00158 0.034521,0.0012 0.042069,0.0012 h 3.1343875 0.3258344 0.1623219 c 0.00739,0 0.018505,3.861e-4 0.041672,-0.0012 0.023033,-0.00158 0.060516,0.00793 0.1432719,-0.046831 2.643e-4,-1.351e-4 5.283e-4,-2.707e-4 7.921e-4,-4.067e-4 0.074747,-0.048878 0.1198141,-0.1321466 0.1198561,-0.2214561 l -10e-8,-3.0376716 C 5.0272867,2.1785977 4.9994479,2.1112122 4.949825,2.0615077 L 3.2299012,0.34198066 C 3.180197,0.29235731 3.1128114,0.26451794 3.0425762,0.26459006 l -1.190625,-1.5e-7 z m 2.8694061,1.5e-7 C 3.7328584,0.26440675 3.6145863,0.54981342 3.7815573,0.71663066 L 4.575175,1.5102483 c 0.1668172,0.166971 0.4522238,0.048699 0.4520406,-0.1873249 l 4.065e-4,-0.76861476 c -1.023e-4,-0.0614382 -0.021569,-0.12092813 -0.060722,-0.168275 3.03e-5,2.503e-5 0.0012,7.9451e-4 0.0012,7.9451e-4 -6.1e-6,-7.41e-6 -0.00219,-0.002135 -0.00238,-0.002381 -4.75e-5,-6.263e-5 -3.454e-4,-7.1526e-4 -4.064e-4,-7.9451e-4 -0.00407,-0.004779 -0.0083,-0.009412 -0.0127,-0.0138905 -7.721e-4,-7.9248e-4 -8.331e-4,-4.3282e-4 -0.00158,-0.001191 -0.012235,-0.0124048 -0.025665,-0.0235714 -0.040095,-0.0333374 -6.3e-4,-4.1046e-4 -0.0022,-0.002395 -0.00278,-0.002778 0.069589,0.046519 0.029574,0.021453 0.00199,-3.9624e-4 -0.00124,-9.7536e-4 -0.00699,-0.002112 -0.00834,-0.003175 -0.00339,-0.002061 -0.00683,-0.004046 -0.010317,-0.005953 -5.9e-6,-3.25e-6 0.00451,0.003819 0.00516,0.004366 C 4.8671577,0.3042031 4.8189627,0.26459078 4.7220199,0.2645907 Z M 0.79427935,0.54637114 c -3.57e-6,7.9366e-4 -3.57e-6,0.001587 0,0.002381 h -3.9624e-4 c 0,-6.5837e-4 3.8405e-4,-0.001687 3.9624e-4,-0.002381 z"
     id="path9"
     inkscape:connector-curvature="0"
     style="fill:#7e480a;stroke-width:0.04665208;fill-opacity:1"
     sodipodi:nodetypes="sccccccccccccccccccccccsccscccccccccscccccccccccccccccsccccc" />
  <path
     d="m 1.0996084,0.52916683 c -0.017653,1e-8 -0.03254,0.0193026 -0.038894,0.0235543 -0.00203,0.001363 -0.00164,0.001408 -0.00199,0.001587 l -3.96e-4,0.23944174 V 5.2865064 c 4.125e-4,2.438e-4 1.932e-4,-4.5e-6 0.00199,0.0012 0.00633,0.00423 0.02117,0.00396 0.038894,0.00396 h 3.1341209 0.325967 0.1623216 c 0.017723,0 0.032495,3.048e-4 0.038894,-0.00396 0.00181,-0.0012 0.00156,-9.348e-4 0.00199,-0.0012 l -7.1e-6,-3.0375481 -1.7197917,-1.71979163 -1.1906249,-1.5e-7 z M 4.7625001,5.2865064 v 0.00516 c 0,-0.00479 0.00106,-0.00583 0,-0.00516 z M 1.0587303,0.55430864 v -0.005556 c 0,0.00103 -2.459e-4,0.001199 -3.963e-4,0.001985 v 0.003969 c 2.4e-5,1.443e-5 3.211e-4,-3.5763e-4 3.963e-4,-3.9624e-4 z M 3.96875,0.52916667 4.7625,1.3229167 4.7629065,0.55430864 c -3.454e-4,-1.9192e-4 6.89e-5,-2.1539e-4 -0.00199,-0.001587 -0.00642,-0.004291 -0.021243,-0.0235548 -0.038897,-0.0235548 z m 0.794147,0.025142 c 7.315e-4,4.0843e-4 0,-0.001014 0,-0.005556 z"
     id="path11"
     inkscape:connector-curvature="0"
     style="fill:url(#linearGradient883);stroke-width:0.04665208;fill-opacity:1.0"
     sodipodi:nodetypes="scccccsccscccccscccccccccccccscccc" />
  <path
     d="m 1.0996745,0.26458333 c -0.094892,-2.39e-6 -0.14110225,0.0377242 -0.17104903,0.0609782 0.00168,-0.001328 0.008794,-0.006723 0.008785,-0.006718 -0.005979,0.003049 -0.0118398,0.006324 -0.0175699,0.009818 -0.001408,0.001111 -0.006986,0.002601 -0.008268,0.003617 -0.0268937,0.0212924 -0.0629775,0.0437557 0,0.00155 -3.5719e-4,2.3979e-4 -0.001175,0.001299 -0.00155,0.00155 -0.0141088,0.009563 -0.0272611,0.0204651 -0.039274,0.032556 -7.0644e-4,7.1438e-4 -8.2815e-4,8.0698e-4 -0.00155,0.00155 -0.003737,0.003851 -0.007356,0.007815 -0.0108521,0.0118856 v 5.1594e-4 c -0.0258721,0.0302367 -0.0445951,0.0659168 -0.0547767,0.10438702 7.9639e-4,-0.003498 7.9639e-4,-0.009365 0.00155,-0.0118856 0.004733,-0.0158327 -0.002283,0.003678 -0.006718,0.0268717 -0.002659,0.013807 -0.004215,0.027804 -0.004651,0.041858 v 0.005684 c 0,-6.5881e-4 5.0535e-4,-0.001889 5.1594e-4,-0.002585 -4.21e-6,8.6166e-4 -4.21e-6,0.001723 0,0.002585 h -5.1594e-4 v 0.0144693 4.73201081 c 0.0028,0.085891 0.0471147,0.1650794 0.11885581,0.2123901 h 5.1593e-4 c 0.0847613,0.056687 0.12057979,0.045951 0.14366129,0.047543 0.023082,0.00159 0.034827,0.00103 0.042375,0.00103 l 0.2237579,5.6e-6 V 0.26458894 Z"
     id="path13"
     inkscape:connector-curvature="0"
     style="stroke-width:0.26458332"
     sodipodi:nodetypes="scccccccccccccccccccccccsccs" />
  <rect
     style="fill:#f6cc90;stroke-width:0.09751726"
     height="0.26458332"
     ry="0.10523751"
     width="0.26458332"
     x="1.8520833"
     y="4.4979167"
     id="rect15" />
  <rect
     style="fill:#f6cc90;stroke-width:0.09751726"
     height="0.26458332"
     ry="0.10523751"
     width="0.26458332"
     x="1.8520831"
     y="3.7041667"
     id="rect17" />
  <rect
     style="fill:#f6cc90;stroke-width:0.09751726"
     height="0.26458332"
     ry="0.10523751"
     width="0.26458332"
     x="1.8520831"
     y="2.9104166"
     id="rect19" />
  <rect
     style="fill:#f6cc90;stroke-width:0.09751726"
     height="0.26458266"
     ry="0.10523751"
     width="0.52916688"
     x="2.3812497"
     y="2.9104166"
     id="rect21" />
  <rect
     style="fill:#f6cc90;stroke-width:0.09751726"
     height="0.26458332"
     ry="0.10523751"
     width="0.52916664"
     x="2.3812497"
     y="3.7041667"
     id="rect23" />
  <rect
     style="fill:#f6cc90;stroke-width:0.09751726"
     height="0.26458171"
     ry="0.10523751"
     width="1.8520831"
     x="2.3812499"
     y="4.4979167"
     id="rect25" />
  <path
     style="fill:#f6cc90;stroke-width:0.09751726"
     d="M 4.2340999,3.4395849 A 0.52916664,0.52916664 0 0 1 3.7051887,3.9687516 0.52916664,0.52916664 0 0 1 3.1757668,3.4400959 0.52916664,0.52916664 0 0 1 3.7041666,2.9104182 l 7.704e-4,0.5291667 z"
     id="path27"
     inkscape:connector-curvature="0" />
</svg>
