<?xml version="1.0" encoding="UTF-8" standalone="no"?>
<!-- Created with Inkscape (http://www.inkscape.org/) -->

<svg
   xmlns:dc="http://purl.org/dc/elements/1.1/"
   xmlns:cc="http://creativecommons.org/ns#"
   xmlns:rdf="http://www.w3.org/1999/02/22-rdf-syntax-ns#"
   xmlns:svg="http://www.w3.org/2000/svg"
   xmlns="http://www.w3.org/2000/svg"
   xmlns:sodipodi="http://sodipodi.sourceforge.net/DTD/sodipodi-0.dtd"
   xmlns:inkscape="http://www.inkscape.org/namespaces/inkscape"
   id="svg7384"
   height="16.072"
   width="16"
   version="1.1"
   inkscape:version="0.48.3.1 r9886"
   sodipodi:docname="appointment-missed-symbolic.svg">
  <defs
     id="defs13" />
  <sodipodi:namedview
     pagecolor="#ffffff"
     bordercolor="#666666"
     borderopacity="1"
     objecttolerance="10"
     gridtolerance="10"
     guidetolerance="10"
     inkscape:pageopacity="0"
     inkscape:pageshadow="2"
     inkscape:window-width="1366"
     inkscape:window-height="711"
     id="namedview11"
     showgrid="false"
     inkscape:zoom="10.383101"
     inkscape:cx="17.023915"
     inkscape:cy="3.9416839"
     inkscape:window-x="0"
     inkscape:window-y="0"
     inkscape:window-maximized="1"
     inkscape:current-layer="svg7384" />
  <metadata
     id="metadata90">
    <rdf:RDF>
      <cc:Work
         rdf:about="">
        <dc:format>image/svg+xml</dc:format>
        <dc:type
           rdf:resource="http://purl.org/dc/dcmitype/StillImage" />
        <dc:title>Gnome Symbolic Icon Theme</dc:title>
      </cc:Work>
    </rdf:RDF>
  </metadata>
  <title
     id="title9167">Gnome Symbolic Icon Theme</title>
  <path
     inkscape:connector-curvature="0"
     d="M 7.41,6 A 0.50005,0.50005 0 0 0 7,6.5 V 9 H 5.5 a 0.50005,0.50005 0 1 0 0,1 h 2 A 0.50005,0.50005 0 0 0 8,9.5 v -3 A 0.50005,0.50005 0 0 0 7.40625,6 z"
     style="text-indent:0;text-transform:none;block-progression:tb;color:#000000;fill:#bebebe"
     id="path59045" />
  <path
     style="text-indent:0;text-transform:none;block-progression:tb;color:#000000;fill:#bebebe"
     d="M 7.46875 3.0625 C 3.90865 3.0625 1.03125 5.97115 1.03125 9.53125 C 1.03125 12.741274 3.3667456 15.409258 6.4375 15.90625 C 6.4292442 15.868572 6.4042299 15.858307 6.375 15.75 C 6.2850619 15.416748 6.3124283 14.800574 6.5 14.40625 C 6.5764104 14.246358 6.6650113 14.108441 6.75 13.96875 C 4.6126471 13.624889 3 11.773552 3 9.53125 C 3 7.04265 4.98005 5.03125 7.46875 5.03125 C 8.7287446 5.03125 9.8733868 5.5449943 10.6875 6.375 C 11.008888 6.2184012 11.324163 6.15625 11.65625 6.15625 L 11.71875 6.15625 C 12.133859 6.15625 12.565165 6.2396358 12.96875 6.53125 C 13.218437 6.7116634 13.29761 7.1018839 13.4375 7.4375 C 13.43717 7.4372398 13.438148 7.4691537 13.4375 7.46875 C 13.435772 7.4676733 13.47255 7.4708139 13.46875 7.46875 C 13.472358 7.478009 13.465284 7.4906752 13.46875 7.5 C 13.525063 7.5273926 13.596801 7.5629497 13.65625 7.59375 C 12.8244 4.977177 10.35102 3.0625 7.46875 3.0625 z "
     id="path59049" />
  <path
     inkscape:connector-curvature="0"
     d="M 4.28,1 C 2.4738,1 0.9988,2.4751 0.9988,4.2812 c 0,0.40491 0.0842,0.76711 0.21875,1.125 1.206,-1.8223 3.184,-3.1023 5.4688,-3.3438 -0.6,-0.65 -1.46,-1.06 -2.41,-1.06 z m 6.4375,0 C 9.76485,1 8.909,1.41251 8.3113,2.0625 c 2.2873,0.25122 4.2705,1.541 5.4688,3.375 0.14145,-0.3658 0.21875,-0.74054 0.21875,-1.1562 0,-1.8062 -1.4751,-3.2812 -3.2812,-3.2812 z"
     style="color:#000000;fill:#bebebe"
     id="path59561" />
  <path
     inkscape:connector-curvature="0"
     d="m 3.91,12.91 a 1.0001,1.0001 0 0 0 -0.46875,0.28125 l -1.125,1.0938 a 1.0001,1.0001 0 1 0 1.375,1.4375 l 1.125,-1.0938 A 1.0001,1.0001 0 0 0 3.91,12.90995 z"
     style="text-indent:0;text-transform:none;block-progression:tb;color:#000000;fill:#bebebe"
     id="path59570" />
  <path
     style="fill:#f57900;fill-opacity:1;stroke:none"
     d="m 11.659263,7.589681 c -0.326811,0 -0.583633,0.1682926 -0.583633,0.404054 l 0,0.4265014 C 10.914195,8.5587411 10.760966,8.7100649 10.62668,8.7569481 10.098398,9.0075326 9.8137059,9.2125148 9.7063353,9.9017677 L 9.4818609,12.977067 c -0.6424818,0.642482 -1.2619816,1.229972 -1.6611108,2.065166 -0.1454595,0.305793 0.00325,0.401353 0.022448,0.583633 l 3.2548794,-0.02245 c 0.05483,0.194271 0.275225,0.336712 0.561186,0.336712 l 0.04489,0 c 0.285959,0 0.506359,-0.142441 0.561186,-0.336712 l 3.277327,0.02245 c 0.0192,-0.18228 0.145459,-0.27784 0,-0.583633 -0.399129,-0.835194 -1.01863,-1.422684 -1.661111,-2.065166 L 13.657085,9.9017677 C 13.549714,9.2125155 13.265022,9.0075326 12.73674,8.7569481 12.602455,8.7100649 12.449226,8.5587411 12.287791,8.4202364 l 0,-0.4265014 c 0,-0.2357614 -0.256823,-0.404054 -0.583634,-0.404054 l -0.04489,0 z"
     id="path3845"
     inkscape:connector-curvature="0" />
</svg>
