<svg height="48" viewBox="0 0 12.7 12.7" width="48" xmlns="http://www.w3.org/2000/svg" xmlns:xlink="http://www.w3.org/1999/xlink"><linearGradient id="a" gradientUnits="userSpaceOnUse" x1="36.5837611089" x2="36.70595998535" y1="292.85407290434" y2="234.86337624372"><stop offset="0" stop-color="#cf11d8"/><stop offset=".38350943" stop-color="#8b0c9c"/><stop offset="1" stop-color="#da11d8"/></linearGradient><g transform="matrix(.19046339625 0 0 .19046339625 -.10034476093 -43.76728158742)"><path d="m11.997125 232.57426c-.417973.00004-.813528.10773-1.136719.32421-.329743.22092-.609375.59619-.609375 1.0625v58.34961c0 .46703.281918.84066.611328 1.06055.322702.21539.716995.32425 1.134766.32422l43.737216-.003c.41786-.00002.813541-.10905 1.136719-.32422.329876-.21964.611328-.59312.611328-1.06055v-42.13671c0-.17505-.06944-.34324-.193359-.4668l-16.998013-16.93846c-.123556-.12387-.291754-.19336-.466797-.19335zm31.979437-.002c-.284564-.0006-.51734.17919-.611328.40625-.09421.22759-.05624.51976.146485.7207l12.843716 12.78245c.2009.2027.49315.2407.720703.14649.227553-.0942.407442-.32594.40625-.61133v-2.33175-9.72685c0-.46747-.281531-.84208-.611328-1.0625-.323307-.21606-.718676-.32423-1.136719-.32421l-11.755825.00075z" fill="#790a7e" stroke-width=".478399"/><path d="m12.06214 233.9599c-.18103 0-.33133.056-.39648.0996-.0651.0437-.0215.0264-.0215-.041l-.0041 58.2906c0-.0674-.0454-.0863.0195-.043.0649.0434.21668.0996.39843.0996h43.61524c.18175 0 .33477-.0559.40039-.0996.0656-.0437.0195-.0255.0195.043v-41.85951l-16.54265-16.48969zm33.53125 0 10.49984 10.4449.0041-10.38631c0 .0685.0443.085-.0215.041s-.21741-.0996-.39844-.0996z" fill="url(#a)" stroke-width=".478399"/><path d="m22.017578 5.3378906c-.802354.0000768-1.561233.2074852-2.18164.6230469-.632985.4240849-1.169922 1.1439193-1.169922 2.0390625v112.00977c0 .89652.541482 1.61304 1.173828 2.03515.619469.41347 1.375768.62311 2.177734.62305h7.316406v-117.3300794z" transform="matrix(.52093343 0 0 .52093343 .526928 229.79358)"/><path d="m12.52984 233.23384c-.86328 0-1.55867.32349-1.55867.72508v58.34972c0 .40159.69539.72508 1.55867.72508h2.81871v-59.79988z" stroke-width=".572704"/><path d="m72 64c-11.080857.0026-20.31241 3.71624-21.246094 8.546875l-.08789-.101563v24.888672.0039c.0065 2.250665 1.871638 4.424506 5.251953 6.121086l.082031.09572v-.0566c4.044765 2.01345 9.873013 3.16885 16 3.17187 6.129807-.005 11.958511-1.16334 16-3.17969v.0645l.0957-.11133c3.367319-1.69338 5.227017-3.860953 5.238281-6.105469v-.0039-13.332031-10.667969-.888672l-.08984.103516c-.931434-4.831255-10.162459-8.545813-21.244141-8.548915zm0 5.333984c8.836565-.000006 16.000022 1.790859 16 4 .000022 2.209141-7.163435 4.000006-16 4-8.836565.000006-16.000022-1.790859-16-4-.000022-2.209141 7.163435-4.000006 16-4zm16 10.154297-.000179 6.659607c-4.039032 2.018525-9.86808 3.179069-16 3.185547-6.132626-.007-11.961788-1.168249-16-3.1875l.000179-6.651794c4.044763 2.013447 9.873012 3.168852 16 3.171875 6.129101-.0045 11.957692-1.162112 16-3.177735zm-.000179 11.999451.000179 6.660706c-4.039031 2.018532-9.868079 3.179062-16 3.185542-6.133334-.007-11.962611-1.16946-16-3.189449l-.000179-6.65094c4.044763 2.013447 9.873011 3.168852 16 3.171875 6.129101-.0045 11.957691-1.162111 16-3.177734z" fill="#e6d8e6" transform="matrix(.52093343 0 0 .52093343 .526928 229.79358)"/></g></svg>