<svg height="48" viewBox="0 0 12.7 12.7" width="48" xmlns="http://www.w3.org/2000/svg" xmlns:xlink="http://www.w3.org/1999/xlink"><linearGradient id="a" gradientUnits="userSpaceOnUse" x1="36.5837611089" x2="36.70595998535" y1="292.85407290434" y2="234.86337624372"><stop offset="0" stop-color="#f0a63b"/><stop offset=".38350943" stop-color="#c15b0f"/><stop offset="1" stop-color="#f0893b"/></linearGradient><g transform="matrix(.1904634 0 0 .1904634 -.100345 -43.76728)"><path d="m11.997125 232.57426c-.417973.00004-.813528.10773-1.136719.32421-.329743.22092-.609375.59619-.609375 1.0625v58.34961c0 .46703.281918.84066.611328 1.06055.322702.21539.716995.32425 1.134766.32422l43.737216-.003c.41786-.00002.813541-.10905 1.136719-.32422.329876-.21964.611328-.59312.611328-1.06055v-42.13671c0-.17505-.06944-.34324-.193359-.4668l-16.998013-16.93846c-.123556-.12387-.291754-.19336-.466797-.19335zm31.979437-.002c-.284564-.0006-.51734.17919-.611328.40625-.09421.22759-.05624.51976.146485.7207l12.843716 12.78245c.2009.2027.49315.2407.720703.14649.227553-.0942.407442-.32594.40625-.61133v-2.33175-9.72685c0-.46747-.281531-.84208-.611328-1.0625-.323307-.21606-.718676-.32423-1.136719-.32421l-11.755825.00075z" fill="#7e480a" stroke-width=".478399"/><path d="m12.06214 233.9599c-.18103 0-.33133.056-.39648.0996-.0651.0437-.0215.0264-.0215-.041l-.0041 58.2906c0-.0674-.0454-.0863.0195-.043.0649.0434.21668.0996.39843.0996h43.61524c.18175 0 .33477-.0559.40039-.0996.0656-.0437.0195-.0255.0195.043v-41.85951l-16.54265-16.48969zm33.53125 0 10.49984 10.4449.0041-10.38631c0 .0685.0443.085-.0215.041s-.21741-.0996-.39844-.0996z" fill="url(#a)" stroke-width=".478399"/><path d="m22.017578 5.3378906c-.802354.0000768-1.561233.2074852-2.18164.6230469-.632985.4240849-1.169922 1.1439193-1.169922 2.0390625v112.00977c0 .89652.541482 1.61304 1.173828 2.03515.619469.41347 1.375768.62311 2.177734.62305h7.316406v-117.3300794z" transform="matrix(.52093343 0 0 .52093343 .526928 229.79358)"/><path d="m12.52984 233.23384c-.86328 0-1.55867.32349-1.55867.72508v58.34972c0 .40159.69539.72508 1.55867.72508h2.81871v-59.79988z" stroke-width=".572704"/><g fill="#f6cc90"><path d="m24.142607 261.74412v4.16748h2.778315v-4.16748zm0 9.72411v4.16747h2.778315v-4.16747zm0 9.6983v.0258l-.000089 4.14171v.0258h2.778315l.000089-4.19338z" stroke-width=".746637"/><path d="m43.590651 261.74425a6.9457676 6.9457676 0 0 0 -6.945759 6.94576 6.9457676 6.9457676 0 0 0 6.945759 6.94576 6.9457676 6.9457676 0 0 0 6.945758-6.94576h-6.945758z"/><path d="m35.255737 261.74451v4.1672l-5.5565-.00039v-4.1672zm-1.389158 9.72411v4.1672l-4.167342-.00051v-4.1672zm16.669834 9.69797v.0258l-.000089 4.14143v.0257l-20.837176.00004v-.0257l.000089-4.14143v-.0258z" stroke-width=".746637"/></g></g></svg>