<svg height="24" viewBox="0 0 24 24" width="24" xmlns="http://www.w3.org/2000/svg" xmlns:xlink="http://www.w3.org/1999/xlink"><linearGradient id="a" gradientUnits="userSpaceOnUse" x1="604.28386400032" x2="607.02226733481" y1="953.22524240246" y2="1087.0605685461"><stop offset="0" stop-color="#fff"/><stop offset="1" stop-color="#fff" stop-opacity="0"/></linearGradient><filter id="b" color-interpolation-filters="sRGB" height="1.120804" width="1.17822" x="-.08911" y="-.060402"><feGaussianBlur stdDeviation=".52690658"/></filter><g transform="translate(-593 -955.36377)"><path d="m12.052734 1.5332031c-1.73434-.01794-3.4740709.6108113-4.8632809 1.8632813-1.50713 1.35875-2.2773362 3.1003306-2.2851562 5.1503906-.00513 1.33626.2637381 2.219612 1.2675781 4.138672.60584 1.15821 1.2490275 2.803714 1.3359375 3.208984l.265625 1.234375a.97009947.97009947 0 0 0 .2363281.453125c-.10934.18824-.3007812.328151-.3007812.494141 0 .1265.1599956.229723.2285156.376953-.002.0022-.013632.01557-.013672.01563-.00037.00046-.1443512.247587-.1445312.248047-.00019.00046-.070312.360868-.070312.361328 0 .20983.025886.237911.041016.300781.01513.06286.030508.118205.048828.177735.03663.11906.080579.247876.1308594.378906.07129.18578.2705394.328229.4433594.480469a.97009947.97009947 0 0 0 .4648437 1.05664l.7675782.4375c.7103702.40489 1.5333622.556504 2.3574222.558594.82406.0021 1.64989-.145762 2.36914-.539062l.81836-.447266a.97009947.97009947 0 0 0 .501953-.822266c.02215-.01671.04283-.03129.06836-.05469.04013-.03677.13053-.146035.130859-.146485.000331-.00046.128737-.239774.128907-.240234s.05859-.331571.05859-.332031c0 .17508-.01463.150574-.01367.146484.00096-.0041.0078-.02991.01758-.0625.0196-.06517.05214-.159967.08594-.248047.0454-.11831.106835-.292104.08398-.552734-.01609-.18353-.151348-.353621-.267579-.519531.13968-.21056.34961-.381309.34961-.574219 0-.16598-.191451-.305901-.300781-.494141a.97009947.97009947 0 0 0 .236328-.453125l.277343-1.289062c.09975-.46515.691217-1.963351 1.222657-2.931641.98609-1.79671 1.470183-3.5163417 1.345703-5.1386718-.1244697-1.6223319-.8890217-3.0986188-2.1699217-4.2792988-1.38481-1.27647-3.119636-1.9390813-4.853516-1.9570313zm-.0098.96875c1.495795.015481 2.992788.5837319 4.205078 1.7011719 2.26931 2.09177 2.481712 4.8675281.632812 8.236328-.57573 1.04899-1.170185 2.488106-1.322265 3.197266l-.277309 1.289062h-3.279297-3.2792968l-.265625-1.234375c-.14566-.67924-.7868212-2.235511-1.4257812-3.457031-.98953-1.89171-1.16103-2.4374138-1.15625-3.6835938.007-1.8351699.6221437-3.2230837 1.9648438-4.4335937 1.2116399-1.092365 2.7073302-1.6307156 4.2031252-1.6152344zm.308593 1.1679688c-2.19348-.1036956-4.4542745 1.1447937-5.210937 3.4375-.43267 1.31099-.130665 2.7497437 1.015625 4.8398441.54107.98656 1.1152906 2.28045 1.2753906 2.875l.2910156 1.082031h2.2792968 2.28125l.291016-1.082031c.1601-.59455.732367-1.88844 1.273437-2.875 1.57707-2.8755904 1.587743-4.7219404.03906-6.5625004-.92832-1.10325-2.219068-1.6526264-3.535157-1.7148437zm-.05273.9648437c1.069156.046982 2.100668.489565 2.845703 1.375.67065.79704.930582 1.4518619.925781 2.2636719-.0048.81181-.325425 1.8472145-1.072265 3.2089845-.57436 1.04725-1.142198 2.276084-1.361328 3.089844l-.09766.361328h-1.537109-1.535156l-.09766-.361328c-.219602-.81567-.7893636-2.043454-1.3632436-3.089844-1.09046-1.9883001-1.2676394-3.0877426-.9433594-4.0703126.48751-1.47716 1.7412325-2.4129994 3.164062-2.6933594.355646-.070078.715881-.099645 1.072266-.083984zm-.296844 13.0585934c2.78247 0 3.322266.06171 3.322266.382813 0 .32105-.539796.382812-3.322266.382812-2.7824699 0-3.3222655-.06181-3.3222655-.382812 0-.32105.5397956-.382813 3.3222655-.382813zm.02734 1.277344c2.94911 0 3.329939.0484 3.193359.404297-.0853.22231-.154297.450986-.154297.509766 0 .0588-1.367582.107422-3.039062.107422-2.5355001 0-3.0639595-.0671-3.1933595-.404297-.0853-.22231-.15625-.452939-.15625-.511719 0-.0588 1.5075095-.105469 3.3496095-.105469zm-.02734 1.550781c.486313 0 .972872.01195 1.341797.0332l1.341797.07617-.818359.447266c-1.030561.56353-2.782951.559234-3.78125-.0098l-.7675786-.4375 1.3417966-.07617c.368925-.02125.855485-.0332 1.341797-.0332z" fill="#0a0a0a" filter="url(#b)" stroke-width=".255533" transform="matrix(.96037825 0 0 .96037825 593.47545 955.83926)"/><path d="m603.16147 976.07258-.73622-.41965 1.28839-.0741c.70862-.0408 1.86818-.0408 2.57679 0l1.2884.0741-.7854.42946c-.98973.54121-2.67321.53666-3.63196-.01zm-1.20078-1.42136c-.0819-.2135-.14896-.43437-.14896-.49082 0-.0565 1.44745-.10263 3.21656-.10263 2.83227 0 3.19877.0464 3.06761.38819-.0819.2135-.14896.43437-.14896.49082 0 .0565-1.31339.10262-2.91865.10262-2.43503 0-2.94332-.0643-3.0676-.38818zm-.14896-1.45226c0-.30833.51808-.36811 3.19031-.36811 2.67222 0 3.19031.0597 3.19031.36811 0 .30833-.51809.36812-3.19031.36812-2.67223 0-3.19031-.0598-3.19031-.36812zm-.2137-2.29036c-.13988-.65233-.75643-2.14591-1.37007-3.31903-.95032-1.81676-1.11492-2.34127-1.11033-3.53807.007-1.76246.59794-3.09648 1.88744-4.25902 2.32726-2.09817 5.74549-2.06278 8.074.0836 2.1794 2.00889 2.38467 4.67503.60903 7.91035-.55292 1.00742-1.12481 2.38892-1.27086 3.06998l-.26556 1.23826h-3.14964-3.14964z" fill="url(#a)" stroke-width=".245408"/></g></svg>