<svg height="48" viewBox="0 0 48 48" width="48" xmlns="http://www.w3.org/2000/svg" xmlns:xlink="http://www.w3.org/1999/xlink"><filter id="a" color-interpolation-filters="sRGB" height="1.097777" width="1.094286" x="-.047143" y="-.048889"><feGaussianBlur stdDeviation=".44373134"/></filter><g fill-rule="evenodd"><path d="m23.978516 11.513672a1.294494 1.294494 0 0 0 -.972657.533203l-8.546875 11.779297c-.651256.897347-.9882 2.046897-.472656 3.060547.515544 1.013649 1.645379 1.419922 2.757813 1.419922h14.626953c1.112897 0 2.242649-.402196 2.759765-1.417969.517117-1.015774.177813-2.164369-.474609-3.0625l-8.556641-11.779297a1.294494 1.294494 0 0 0 -1.121093-.533203zm.074218 1.292969 8.556641 11.779297c.973095 1.339573.423471 2.425781-1.238281 2.425781h-14.626953c-1.656402 0-2.206864-1.091201-1.238282-2.425781zm-9.060546 15.898437c-1.25661 0-2.28711 1.030649-2.28711 2.294922 0 1.24572 1.040109 2.294922 2.28711 2.294922h18.015624c1.256609 0 2.28711-1.030649 2.28711-2.294922 0-1.245721-1.040109-2.294922-2.28711-2.294922zm0 1.294922h18.015624c.547758 0 .992188.443865.992188 1 0 .552285-.455691 1-.992188 1h-18.015624c-.547759 0-.992188-.443865-.992188-1 0-.552285.455691-1 .992188-1z" fill="#1a1a1a" filter="url(#a)"/><path d="m24.053457 12.807542 8.555715 11.777883c.973095 1.339574.424516 2.425512-1.237236 2.425512h-14.627528c-1.656402 0-2.207428-1.090932-1.238846-2.425512zm-10.053457 18.192458c0-.552285.455306-1 .991803-1h18.016394c.547758 0 .991803.443865.991803 1 0 .552285-.455306 1-.991803 1h-18.016394c-.547758 0-.991803-.443865-.991803-1z" fill="#fff"/></g></svg>