<svg height="48" width="48" xmlns="http://www.w3.org/2000/svg" xmlns:xlink="http://www.w3.org/1999/xlink"><linearGradient id="a" gradientTransform="scale(1.086042 .92077472)" gradientUnits="userSpaceOnUse" x1="11.564139" x2="44.23415" y1="11.56346" y2="45.285797"><stop offset="0" stop-color="#15c4ff"/><stop offset="1" stop-color="#218aff"/></linearGradient><path d="m33.027344 1.65625c-4.635887-.0019754-6.730222-.0015202 1.93164.0097656-16.49593.167576-33.2643127 17.0443334-33.3007809 35.2851564v4.570312h31.5996089a6.6756225 6.6756225 0 0 0 6.408204 4.820313 6.6756225 6.6756225 0 0 0 6.675781-6.675781 6.6756225 6.6756225 0 0 0 -4.820313-6.40625v-31.6015629c-2.892573-.0003138-5.536612-.0006929-8.49414-.0019531z" fill="url(#a)"/><g transform="matrix(3 0 0 3 -.000006 -95.999954)"><path d="m13.075946 33.098953-.0078.0078c-.789083-.01206-1.575539.05337-2.346708.19773l-.0104.01041c-.7675933.144788-1.5295524.361629-2.2518321.650423l-.00911.01041-.00911.0091c-.7231222.290545-1.4215497.640244-2.0735563 1.064095-.013512.0087-.014626.02904-.028619.03772h-.0091c-.6519105.42399-1.2702106.922087-1.8198968 1.471286-.5399596.540466-1.0013861 1.14173-1.4218348 1.77957-.00917.01351-.029042.01593-.037724.02992-.4238623.651984-.7748553 1.350448-1.0654006 2.073563l-.00911.0091-.010407.01041c-.2888096.722287-.5043352 1.482936-.6491231 2.250478l-.010407.0104c-.14431.771194-.209792 1.557611-.19773 2.346743l-.00911.0091c.000686.04526.00789.09008.00911.135289l1.2865459.0078c-.00117-.04263-.00845-.08481-.00911-.127485l.00911-.0078c-.010783-.705399.047919-1.408917.1769163-2.098281l.00781-.0078c.1294196-.686096.3233097-1.368073.5814773-2.013721l.00911-.0078.00781-.0091c.259709-.646378.5733325-1.270907.9522191-1.853711.00777-.01251.025626-.01394.033822-.02601.3758331-.570157.7882684-1.107826 1.2709334-1.590943.4913596-.490925 1.0433267-.93618 1.6260694-1.315165h.00911c.012511-.0078.012634-.02606.024719-.03382.5828204-.378877 1.2073165-.691205 1.8537162-.950925l.00911-.0078.00781-.0091c.6456336-.258143 1.3276201-.452046 2.0137191-.581475l.0078-.0091c.689305-.129039 1.392857-.187698 2.098244-.176916l.0078-.0078c.03263.000495.06495.0057.09756.0065l-.01304-1.286543c-.0335-.000802-.06665-.006-.100165-.0065zm.126182 2.328531c-1.00181.01963-1.989151.168707-2.925623.470909-1.1094385.358042-2.1521265.908758-3.0778236 1.633875-.3085653.241704-.6038618.501707-.8845816.781813l-.0013.0013c-1.1204322 1.122884-1.9383012 2.483157-2.4156891 3.962406-.1193388.369811-.2178296.747649-.2939932 1.130444-.1166669.586677-.1796419 1.186017-.1912258 1.792579l1.419233.01562c.00141-.05511.0028-.110295.00521-.165208.00568-.131285.015828-.261162.027318-.391558.00902-.102076.017434-.204248.029921-.305702.0005007-.0041.0021-.0077.0026-.01171.016706-.133586.038351-.267061.06114-.399362.00109-.0064.00153-.01188.0026-.0182.014664-.08404.02714-.170228.044229-.253666l.0013-.0013c.057608-.280814.1299394-.557174.2146412-.829945.020541-.0662.044235-.132092.066344-.197731.092045-.273072.1921442-.542954.3109044-.805228.00342-.0076.00564-.01455.00911-.02211l.0013-.0013c.089622-.196454.1973237-.38504.3030947-.573708.00934-.01694.016563-.03385.026017-.05073l.0013-.0013c.087512-.156058.1792537-.309242.2757854-.460416.1166386-.180528.2362306-.360094.3668414-.53205.058307-.07796.1222587-.152876.1834206-.228951.1785129-.2191.361666-.433972.5632698-.636118l.0013-.0026c.2021485-.201601.4183188-.38476.63742-.563273.076077-.06116.1509861-.125112.2289508-.18342.1719571-.130611.3515353-.248899.5320496-.36554.1511733-.09653.3042786-.189583.4605027-.277083l.0013-.0013c.016887-.0095.033793-.01668.050735-.02602.1886653-.10577.3772522-.213472.5736751-.303098l.00129-.0013c.00758-.0035.014565-.0057.022106-.0091.2622756-.11876.5334576-.22016.8065316-.312206.06564-.02211.130241-.0445.196429-.06504.27277-.0847.549151-.157021.829945-.214641l.0013-.0013c.08344-.01709.169627-.02957.253667-.04423.0064-.001.01188-.0015.0182-.0026.132301-.02279.265772-.04443.399362-.06114.004-.0005.0077-.0021.01171-.0026.101453-.01248.203626-.0209.305701-.02992.130394-.01149.260272-.02164.391555-.02732.05491-.0024.110101-.0038.16521-.0052zm.02862 2.695372c-1.360135-.04059-2.689435.303339-3.8284143.995154-.2293533.139309-.4517829.291394-.6647368.457901l-.0013.0013-.0013.0012c-.00181.0014-.0034.0038-.00521.0052-.2132883.166836-.4175297.349083-.6113983.54245-.1920146.192637-.3698429.393161-.535952.604898-.00138.0018-.00246.0021-.0039.0039l-.0026.0026-.0013.0013c-.1664137.212908-.3185987.435431-.4579074.664783-.6917768 1.138941-1.0344599 2.467002-.9938532 3.827117l1.3660054.01296c-.00745-.215125-.00491-.429117.011709-.641323.0000824-.0011.0013-.0028.0013-.0039.00304-.03859.011753-.07597.015613-.114475.018056-.179902.039457-.359815.074148-.535951.08446-.428385.2179937-.843216.3980613-1.238416.053631-.117713.119012-.23221.1808187-.346027.041531-.0764.077131-.154458.122281-.22895.073261-.120841.1580312-.235314.2419588-.349929.00144-.0021.0013-.0045.0026-.0065.072642-.101095.1506234-.197874.228953-.295253.1062164-.128481.2116833-.256857.3304176-.375949l.0026-.0026c.1211038-.120735.2531101-.230224.3837514-.338221.097374-.07834.1941526-.156317.2952947-.228951.00215-.0013.00448-.0012.00655-.0026.1146113-.08393.2290891-.167397.3499301-.240659.07449-.04515.152547-.08205.22895-.123581.11381-.06181.22831-.127192.346028-.180819.3952-.180068.811329-.314901 1.239714-.399362.176139-.03469.354749-.05479.534652-.07285.0385-.0038.07587-.01256.114476-.01561.001.000039.0028-.0013.0039-.0013.212204-.01665.426197-.01916.641322-.01171zm.02733 2.744805c-.04751-.000641-.09446.0014-.141794.0013-.06096-.000145-.121444.00018-.18212.0026-.223143.0086-.445415.02922-.662135.07155-.325159.0635-.640361.163234-.940519.299196-.0015.000634-.0037.002-.0052.0026-.01935.0088-.03672.02084-.05593.02992-.13069.06152-.259875.12661-.383752.201633-.05914.03575-.114319.0785-.171713.117077-.03725.02494-.07408.0506-.110573.07675-.04175.0301-.08544.05408-.126184.08586-.000722.000597-.0018.002-.0027.0027-.0018.0014-.0034.0038-.0052.0052l-.0013.0013c-.130584.102066-.25579.213508-.374646.331718l-.0027.0027-.0013.0013c-.1166051.11726-.2255843.240784-.326516.369444-.00138.0018-.00379.0034-.00517.0052-.0006506.000795-.00207.0019-.00267.0027-.03181.04071-.055764.08444-.085858.126182-.026151.0365-.05181.07333-.07675.110573-.038576.05739-.081325.112583-.1170771.171714-.075025.123873-.1401091.253063-.2016324.383751-.00909.01921-.021134.0366-.029916.05594-.0006274.0015-.0006345.0024-.0013.0039-.1359614.300157-.2370004.616658-.300497.941819-.042326.21672-.061784.437857-.070248.660833-.00239.06069-.00275.121151-.0026.182121.0001944.04774-.00333.09517-.0026.143094l1.3515875.01431c-.0016-.04462-.01033-.08935-.0104-.133989-.000236-.03567.0016-.07245.0027-.107971.0054-.158131.01854-.316224.04813-.469609.01724-.08921.04232-.175829.06764-.262772.0065-.02273.0098-.04643.01691-.06895v-.0027l.0013-.0013c.0051-.01594.01289-.02972.01821-.04553.0632-.185957.143931-.366063.24326-.535952.0084-.01438.01351-.02998.02211-.04424.05839-.09652.122778-.189984.192526-.279682.07157-.09162.147131-.179442.230251-.262774.08298-.08275.171331-.160338.262773-.231552.000849-.000665.0017-.000586.0027-.0013.09091-.07094.185653-.135873.283587-.195128.01426-.0086.02983-.01506.04423-.02342.169895-.09933.349998-.180062.535954-.24326.01585-.0053.02962-.01314.04553-.0182l.0013-.0013h.0027c.02252-.0072.04622-.01038.06895-.01691.08694-.02532.174861-.05169.264073-.06894.153385-.0296.310177-.04145.468307-.04683.03552-.0011.07231-.0028.107972-.0027.04384.000067.08756.009.131386.0104zm-.05204 2.684965-.0013.0013c-.108935-.0017-.217458.0074-.323914.02732l-.0013.0013c-.105954.01999-.211197.04989-.310904.08976l-.0013.0013-.0013.0013c-.09982.04011-.196182.08849-.286188.146997-.0019.0012-.0021.004-.0039.0052h-.0013c-.08999.05852-.175185.12712-.251065.202934-.07455.07461-.138389.157811-.196429.245861-.0013.0019-.004.0021-.0052.0039-.05852.09-.106889.186366-.146998.286189l-.0013.0013-.0013.0013c-.03987.09971-.06976.204951-.08976.310906l-.0013.0013c-.01992.106459-.02898.214979-.02733.323914l-.0013.0013c.0017.109301.01447.217851.03772.325214.04651.214725.13555.422412.258871.606198.06165.0919.13098.17661.209437.254968.0784.07832.16435.149081.256269.21074.183843.123307.391521.212293.606198.258869.10734.02328.215991.03743.325213.03902l.0013-.0013c.21899.0029.436341-.04099.637419-.122281.09945-.0402.195466-.08848.284888-.146996.09021-.05892.174867-.126936.251065-.202934l.0039-.0039c.0012-.0012.0028-.0028.0039-.0039.074-.07421.138581-.155747.196429-.24326.0016-.0023.0036-.0041.0052-.0066.05852-.08942.106789-.185443.146998-.284886.08129-.20108.125302-.41843.12228-.637419l.0013-.0013c-.0016-.109223-.01575-.217875-.03902-.325213-.04657-.214679-.135562-.422354-.25887-.606199-.06165-.09192-.132418-.17788-.210739-.256269-.07836-.07845-.163075-.147778-.254968-.209439-.183785-.123321-.391473-.212358-.606198-.25887-.107365-.02326-.215912-.03608-.325214-.03772z" fill="#bebebe" opacity=".95"/><path d="m13.075946 33.098953-.0078.0078c-.789083-.01206-1.575539.05337-2.346708.19773l-.0104.01041c-.7675933.144788-1.5295524.361629-2.2518321.650423l-.00911.01041-.00911.0091c-.7231222.290545-1.4215497.640244-2.0735563 1.064095-.013512.0087-.014626.02904-.028619.03772h-.0091c-.6519105.42399-1.2702106.922087-1.8198968 1.471286-.5399596.540466-1.0013861 1.14173-1.4218348 1.77957-.00917.01351-.029042.01593-.037724.02992-.4238623.651984-.7748553 1.350448-1.0654006 2.073563l-.00911.0091-.010407.01041c-.2888096.722287-.5043352 1.482936-.6491231 2.250478l-.010407.0104c-.14431.771194-.209792 1.557611-.19773 2.346743l-.00911.0091c.000686.04526.00789.09008.00911.135289l1.2865459.0078c-.00117-.04263-.00845-.08481-.00911-.127485l.00911-.0078c-.010783-.705399.047919-1.408917.1769163-2.098281l.00781-.0078c.1294196-.686096.3233097-1.368073.5814773-2.013721l.00911-.0078.00781-.0091c.259709-.646378.5733325-1.270907.9522191-1.853711.00777-.01251.025626-.01394.033822-.02601.3758331-.570157.7882684-1.107826 1.2709334-1.590943.4913596-.490925 1.0433267-.93618 1.6260694-1.315165h.00911c.012511-.0078.012634-.02606.024719-.03382.5828204-.378877 1.2073165-.691205 1.8537162-.950925l.00911-.0078.00781-.0091c.6456336-.258143 1.3276201-.452046 2.0137191-.581475l.0078-.0091c.689305-.129039 1.392857-.187698 2.098244-.176916l.0078-.0078c.03263.000495.06495.0057.09756.0065l-.01304-1.286543c-.0335-.000802-.06665-.006-.100165-.0065zm.126182 2.328531c-1.00181.01963-1.989151.168707-2.925623.470909-1.1094385.358042-2.1521265.908758-3.0778236 1.633875-.3085653.241704-.6038618.501707-.8845816.781813l-.0013.0013c-1.1204322 1.122884-1.9383012 2.483157-2.4156891 3.962406-.1193388.369811-.2178296.747649-.2939932 1.130444-.1166669.586677-.1796419 1.186017-.1912258 1.792579l1.419233.01562c.00141-.05511.0028-.110295.00521-.165208.00568-.131285.015828-.261162.027318-.391558.00902-.102076.017434-.204248.029921-.305702.0005007-.0041.0021-.0077.0026-.01171.016706-.133586.038351-.267061.06114-.399362.00109-.0064.00153-.01188.0026-.0182.014664-.08404.02714-.170228.044229-.253666l.0013-.0013c.057608-.280814.1299394-.557174.2146412-.829945.020541-.0662.044235-.132092.066344-.197731.092045-.273072.1921442-.542954.3109044-.805228.00342-.0076.00564-.01455.00911-.02211l.0013-.0013c.089622-.196454.1973237-.38504.3030947-.573708.00934-.01694.016563-.03385.026017-.05073l.0013-.0013c.087512-.156058.1792537-.309242.2757854-.460416.1166386-.180528.2362306-.360094.3668414-.53205.058307-.07796.1222587-.152876.1834206-.228951.1785129-.2191.361666-.433972.5632698-.636118l.0013-.0026c.2021485-.201601.4183188-.38476.63742-.563273.076077-.06116.1509861-.125112.2289508-.18342.1719571-.130611.3515353-.248899.5320496-.36554.1511733-.09653.3042786-.189583.4605027-.277083l.0013-.0013c.016887-.0095.033793-.01668.050735-.02602.1886653-.10577.3772522-.213472.5736751-.303098l.00129-.0013c.00758-.0035.014565-.0057.022106-.0091.2622756-.11876.5334576-.22016.8065316-.312206.06564-.02211.130241-.0445.196429-.06504.27277-.0847.549151-.157021.829945-.214641l.0013-.0013c.08344-.01709.169627-.02957.253667-.04423.0064-.001.01188-.0015.0182-.0026.132301-.02279.265772-.04443.399362-.06114.004-.0005.0077-.0021.01171-.0026.101453-.01248.203626-.0209.305701-.02992.130394-.01149.260272-.02164.391555-.02732.05491-.0024.110101-.0038.16521-.0052zm.02862 2.695372c-1.360135-.04059-2.689435.303339-3.8284143.995154-.2293533.139309-.4517829.291394-.6647368.457901l-.0013.0013-.0013.0012c-.00181.0014-.0034.0038-.00521.0052-.2132883.166836-.4175297.349083-.6113983.54245-.1920146.192637-.3698429.393161-.535952.604898-.00138.0018-.00246.0021-.0039.0039l-.0026.0026-.0013.0013c-.1664137.212908-.3185987.435431-.4579074.664783-.6917768 1.138941-1.0344599 2.467002-.9938532 3.827117l1.3660054.01296c-.00745-.215125-.00491-.429117.011709-.641323.0000824-.0011.0013-.0028.0013-.0039.00304-.03859.011753-.07597.015613-.114475.018056-.179902.039457-.359815.074148-.535951.08446-.428385.2179937-.843216.3980613-1.238416.053631-.117713.119012-.23221.1808187-.346027.041531-.0764.077131-.154458.122281-.22895.073261-.120841.1580312-.235314.2419588-.349929.00144-.0021.0013-.0045.0026-.0065.072642-.101095.1506234-.197874.228953-.295253.1062164-.128481.2116833-.256857.3304176-.375949l.0026-.0026c.1211038-.120735.2531101-.230224.3837514-.338221.097374-.07834.1941526-.156317.2952947-.228951.00215-.0013.00448-.0012.00655-.0026.1146113-.08393.2290891-.167397.3499301-.240659.07449-.04515.152547-.08205.22895-.123581.11381-.06181.22831-.127192.346028-.180819.3952-.180068.811329-.314901 1.239714-.399362.176139-.03469.354749-.05479.534652-.07285.0385-.0038.07587-.01256.114476-.01561.001.000039.0028-.0013.0039-.0013.212204-.01665.426197-.01916.641322-.01171zm.02733 2.744805c-.04751-.000641-.09446.0014-.141794.0013-.06096-.000145-.121444.00018-.18212.0026-.223143.0086-.445415.02922-.662135.07155-.325159.0635-.640361.163234-.940519.299196-.0015.000634-.0037.002-.0052.0026-.01935.0088-.03672.02084-.05593.02992-.13069.06152-.259875.12661-.383752.201633-.05914.03575-.114319.0785-.171713.117077-.03725.02494-.07408.0506-.110573.07675-.04175.0301-.08544.05408-.126184.08586-.000722.000597-.0018.002-.0027.0027-.0018.0014-.0034.0038-.0052.0052l-.0013.0013c-.130584.102066-.25579.213508-.374646.331718l-.0027.0027-.0013.0013c-.1166051.11726-.2255843.240784-.326516.369444-.00138.0018-.00379.0034-.00517.0052-.0006506.000795-.00207.0019-.00267.0027-.03181.04071-.055764.08444-.085858.126182-.026151.0365-.05181.07333-.07675.110573-.038576.05739-.081325.112583-.1170771.171714-.075025.123873-.1401091.253063-.2016324.383751-.00909.01921-.021134.0366-.029916.05594-.0006274.0015-.0006345.0024-.0013.0039-.1359614.300157-.2370004.616658-.300497.941819-.042326.21672-.061784.437857-.070248.660833-.00239.06069-.00275.121151-.0026.182121.0001944.04774-.00333.09517-.0026.143094l1.3515875.01431c-.0016-.04462-.01033-.08935-.0104-.133989-.000236-.03567.0016-.07245.0027-.107971.0054-.158131.01854-.316224.04813-.469609.01724-.08921.04232-.175829.06764-.262772.0065-.02273.0098-.04643.01691-.06895v-.0027l.0013-.0013c.0051-.01594.01289-.02972.01821-.04553.0632-.185957.143931-.366063.24326-.535952.0084-.01438.01351-.02998.02211-.04424.05839-.09652.122778-.189984.192526-.279682.07157-.09162.147131-.179442.230251-.262774.08298-.08275.171331-.160338.262773-.231552.000849-.000665.0017-.000586.0027-.0013.09091-.07094.185653-.135873.283587-.195128.01426-.0086.02983-.01506.04423-.02342.169895-.09933.349998-.180062.535954-.24326.01585-.0053.02962-.01314.04553-.0182l.0013-.0013h.0027c.02252-.0072.04622-.01038.06895-.01691.08694-.02532.174861-.05169.264073-.06894.153385-.0296.310177-.04145.468307-.04683.03552-.0011.07231-.0028.107972-.0027.04384.000067.08756.009.131386.0104zm-.05204 2.684965-.0013.0013c-.108935-.0017-.217458.0074-.323914.02732l-.0013.0013c-.105954.01999-.211197.04989-.310904.08976l-.0013.0013-.0013.0013c-.09982.04011-.196182.08849-.286188.146997-.0019.0012-.0021.004-.0039.0052h-.0013c-.08999.05852-.175185.12712-.251065.202934-.07455.07461-.138389.157811-.196429.245861-.0013.0019-.004.0021-.0052.0039-.05852.09-.106889.186366-.146998.286189l-.0013.0013-.0013.0013c-.03987.09971-.06976.204951-.08976.310906l-.0013.0013c-.01992.106459-.02898.214979-.02733.323914l-.0013.0013c.0017.109301.01447.217851.03772.325214.04651.214725.13555.422412.258871.606198.06165.0919.13098.17661.209437.254968.0784.07832.16435.149081.256269.21074.183843.123307.391521.212293.606198.258869.10734.02328.215991.03743.325213.03902l.0013-.0013c.21899.0029.436341-.04099.637419-.122281.09945-.0402.195466-.08848.284888-.146996.09021-.05892.174867-.126936.251065-.202934l.0039-.0039c.0012-.0012.0028-.0028.0039-.0039.074-.07421.138581-.155747.196429-.24326.0016-.0023.0036-.0041.0052-.0066.05852-.08942.106789-.185443.146998-.284886.08129-.20108.125302-.41843.12228-.637419l.0013-.0013c-.0016-.109223-.01575-.217875-.03902-.325213-.04657-.214679-.135562-.422354-.25887-.606199-.06165-.09192-.132418-.17788-.210739-.256269-.07836-.07845-.163075-.147778-.254968-.209439-.183785-.123321-.391473-.212358-.606198-.25887-.107365-.02326-.215912-.03608-.325214-.03772z" fill="#bebebe" opacity=".95"/><g fill="#fff"><path d="m13.075946 33.098953-.0078.0078c-.789083-.01206-1.575539.05337-2.346708.19773l-.0104.01041c-.7675933.144788-1.5295524.361629-2.2518321.650423l-.00911.01041-.00911.0091c-.7231222.290545-1.4215497.640244-2.0735563 1.064095-.013512.0087-.014626.02904-.028619.03772h-.0091c-.6519105.42399-1.2702106.922087-1.8198968 1.471286-.5399596.540466-1.0013861 1.14173-1.4218348 1.77957-.00917.01351-.029042.01593-.037724.02992-.4238623.651984-.7748553 1.350448-1.0654006 2.073563l-.00911.0091-.010407.01041c-.2888096.722287-.5043352 1.482936-.6491231 2.250478l-.010407.0104c-.14431.771194-.209792 1.557611-.19773 2.346743l-.00911.0091c.000686.04526.00789.09008.00911.135289l1.2865459.0078c-.00117-.04263-.00845-.08481-.00911-.127485l.00911-.0078c-.010783-.705399.047919-1.408917.1769163-2.098281l.00781-.0078c.1294196-.686096.3233097-1.368073.5814773-2.013721l.00911-.0078.00781-.0091c.259709-.646378.5733325-1.270907.9522191-1.853711.00777-.01251.025626-.01394.033822-.02601.3758331-.570157.7882684-1.107826 1.2709334-1.590943.4913596-.490925 1.0433267-.93618 1.6260694-1.315165h.00911c.012511-.0078.012634-.02606.024719-.03382.5828204-.378877 1.2073165-.691205 1.8537162-.950925l.00911-.0078.00781-.0091c.6456336-.258143 1.3276201-.452046 2.0137191-.581475l.0078-.0091c.689305-.129039 1.392857-.187698 2.098244-.176916l.0078-.0078c.03263.000495.06495.0057.09756.0065l-.01304-1.286543c-.0335-.000802-.06665-.006-.100165-.0065z" opacity=".95"/><path d="m13.202128 35.427484c-1.00181.01963-1.989151.168707-2.925623.470909-1.1094385.358042-2.1521265.908758-3.0778236 1.633875-.3085653.241704-.6038618.501707-.8845816.781813l-.0013.0013c-1.1204322 1.122884-1.9383012 2.483157-2.4156891 3.962406-.1193388.369811-.2178296.747649-.2939932 1.130444-.1166669.586677-.1796419 1.186017-.1912258 1.792579l1.419233.01562c.00141-.05511.0028-.110295.00521-.165208.00568-.131285.015828-.261162.027318-.391558.00902-.102076.017434-.204248.029921-.305702.0005007-.0041.0021-.0077.0026-.01171.016706-.133586.038351-.267061.06114-.399362.00109-.0064.00153-.01188.0026-.0182.014664-.08404.02714-.170228.044229-.253666l.0013-.0013c.057608-.280814.1299394-.557174.2146412-.829945.020541-.0662.044235-.132092.066344-.197731.092045-.273072.1921442-.542954.3109044-.805228.00342-.0076.00564-.01455.00911-.02211l.0013-.0013c.089622-.196454.1973237-.38504.3030947-.573708.00934-.01694.016563-.03385.026017-.05073l.0013-.0013c.087512-.156058.1792537-.309242.2757854-.460416.1166386-.180528.2362306-.360094.3668414-.53205.058307-.07796.1222587-.152876.1834206-.228951.1785129-.2191.361666-.433972.5632698-.636118l.0013-.0026c.2021485-.201601.4183188-.38476.63742-.563273.076077-.06116.1509861-.125112.2289508-.18342.1719571-.130611.3515353-.248899.5320496-.36554.1511733-.09653.3042786-.189583.4605027-.277083l.0013-.0013c.016887-.0095.033793-.01668.050735-.02602.1886653-.10577.3772522-.213472.5736751-.303098l.00129-.0013c.00758-.0035.014565-.0057.022106-.0091.2622756-.11876.5334576-.22016.8065316-.312206.06564-.02211.130241-.0445.196429-.06504.27277-.0847.549151-.157021.829945-.214641l.0013-.0013c.08344-.01709.169627-.02957.253667-.04423.0064-.001.01188-.0015.0182-.0026.132301-.02279.265772-.04443.399362-.06114.004-.0005.0077-.0021.01171-.0026.101453-.01248.203626-.0209.305701-.02992.130394-.01149.260272-.02164.391555-.02732.05491-.0024.110101-.0038.16521-.0052z" opacity=".95"/><path d="m13.230748 38.122856c-1.360135-.04059-2.689435.303339-3.8284143.995154-.2293533.139309-.4517829.291394-.6647368.457901l-.0013.0013-.0013.0012c-.00181.0014-.0034.0038-.00521.0052-.2132883.166836-.4175297.349083-.6113983.54245-.1920146.192637-.3698429.393161-.535952.604898-.00138.0018-.00246.0021-.0039.0039l-.0026.0026-.0013.0013c-.1664137.212908-.3185987.435431-.4579074.664783-.6917768 1.138941-1.0344599 2.467002-.9938532 3.827117l1.3660054.01296c-.00745-.215125-.00491-.429117.011709-.641323.0000824-.0011.0013-.0028.0013-.0039.00304-.03859.011753-.07597.015613-.114475.018056-.179902.039457-.359815.074148-.535951.08446-.428385.2179937-.843216.3980613-1.238416.053631-.117713.119012-.23221.1808187-.346027.041531-.0764.077131-.154458.122281-.22895.073261-.120841.1580312-.235314.2419588-.349929.00144-.0021.0013-.0045.0026-.0065.072642-.101095.1506234-.197874.228953-.295253.1062164-.128481.2116833-.256857.3304176-.375949l.0026-.0026c.1211038-.120735.2531101-.230224.3837514-.338221.097374-.07834.1941526-.156317.2952947-.228951.00215-.0013.00448-.0012.00655-.0026.1146113-.08393.2290891-.167397.3499301-.240659.07449-.04515.152547-.08205.22895-.123581.11381-.06181.22831-.127192.346028-.180819.3952-.180068.811329-.314901 1.239714-.399362.176139-.03469.354749-.05479.534652-.07285.0385-.0038.07587-.01256.114476-.01561.001.000039.0028-.0013.0039-.0013.212204-.01665.426197-.01916.641322-.01171z" opacity=".95"/><path d="m13.258078 40.867661c-.04751-.000641-.09446.0014-.141794.0013-.06096-.000145-.121444.00018-.18212.0026-.223143.0086-.445415.02922-.662135.07155-.325159.0635-.640361.163234-.940519.299196-.0015.000634-.0037.002-.0052.0026-.01935.0088-.03672.02084-.05593.02992-.13069.06152-.259875.12661-.383752.201633-.05914.03575-.114319.0785-.171713.117077-.03725.02494-.07408.0506-.110573.07675-.04175.0301-.08544.05408-.126184.08586-.000722.000597-.0018.002-.0027.0027-.0018.0014-.0034.0038-.0052.0052l-.0013.0013c-.130584.102066-.25579.213508-.374646.331718l-.0027.0027-.0013.0013c-.1166051.11726-.2255843.240784-.326516.369444-.00138.0018-.00379.0034-.00517.0052-.0006506.000795-.00207.0019-.00267.0027-.03181.04071-.055764.08444-.085858.126182-.026151.0365-.05181.07333-.07675.110573-.038576.05739-.081325.112583-.1170771.171714-.075025.123873-.1401091.253063-.2016324.383751-.00909.01921-.021134.0366-.029916.05594-.0006274.0015-.0006345.0024-.0013.0039-.1359614.300157-.2370004.616658-.300497.941819-.042326.21672-.061784.437857-.070248.660833-.00239.06069-.00275.121151-.0026.182121.0001944.04774-.00333.09517-.0026.143094l1.3515875.01431c-.0016-.04462-.01033-.08935-.0104-.133989-.000236-.03567.0016-.07245.0027-.107971.0054-.158131.01854-.316224.04813-.469609.01724-.08921.04232-.175829.06764-.262772.0065-.02273.0098-.04643.01691-.06895v-.0027l.0013-.0013c.0051-.01594.01289-.02972.01821-.04553.0632-.185957.143931-.366063.24326-.535952.0084-.01438.01351-.02998.02211-.04424.05839-.09652.122778-.189984.192526-.279682.07157-.09162.147131-.179442.230251-.262774.08298-.08275.171331-.160338.262773-.231552.000849-.000665.0017-.000586.0027-.0013.09091-.07094.185653-.135873.283587-.195128.01426-.0086.02983-.01506.04423-.02342.169895-.09933.349998-.180062.535954-.24326.01585-.0053.02962-.01314.04553-.0182l.0013-.0013h.0027c.02252-.0072.04622-.01038.06895-.01691.08694-.02532.174861-.05169.264073-.06894.153385-.0296.310177-.04145.468307-.04683.03552-.0011.07231-.0028.107972-.0027.04384.000067.08756.009.131386.0104z" opacity=".95"/><path d="m13.206038 43.552626-.0013.0013c-.108935-.0017-.217458.0074-.323914.02732l-.0013.0013c-.105954.01999-.211197.04989-.310904.08976l-.0013.0013-.0013.0013c-.09982.04011-.196182.08849-.286188.146997-.0019.0012-.0021.004-.0039.0052h-.0013c-.08999.05852-.175185.12712-.251065.202934-.07455.07461-.138389.157811-.196429.245861-.0013.0019-.004.0021-.0052.0039-.05852.09-.106889.186366-.146998.286189l-.0013.0013-.0013.0013c-.03987.09971-.06976.204951-.08976.310906l-.0013.0013c-.01992.106459-.02898.214979-.02733.323914l-.0013.0013c.0017.109301.01447.217851.03772.325214.04651.214725.13555.422412.258871.606198.06165.0919.13098.17661.209437.254968.0784.07832.16435.149081.256269.21074.183843.123307.391521.212293.606198.258869.10734.02328.215991.03743.325213.03902l.0013-.0013c.21899.0029.436341-.04099.637419-.122281.09945-.0402.195466-.08848.284888-.146996.09021-.05892.174867-.126936.251065-.202934l.0039-.0039.0039-.0039c.074-.07421.138581-.155747.196429-.24326.0016-.0023.0036-.0041.0052-.0066.05852-.08942.106789-.185443.146998-.284886.08129-.20108.125302-.41843.12228-.637419l.0013-.0013c-.0016-.109223-.01575-.217875-.03902-.325213-.04657-.214679-.135562-.422354-.25887-.606199-.06165-.09192-.132418-.17788-.210739-.256269-.07836-.07845-.163075-.147778-.254968-.209439-.183785-.123321-.391473-.212358-.606198-.25887-.107365-.02326-.215912-.03608-.325214-.03772z" opacity=".95"/></g></g></svg>