<?xml version="1.0" encoding="UTF-8" standalone="no"?>
<!-- Created with Inkscape (http://www.inkscape.org/) -->

<svg
   xmlns:dc="http://purl.org/dc/elements/1.1/"
   xmlns:cc="http://creativecommons.org/ns#"
   xmlns:rdf="http://www.w3.org/1999/02/22-rdf-syntax-ns#"
   xmlns:svg="http://www.w3.org/2000/svg"
   xmlns="http://www.w3.org/2000/svg"
   xmlns:xlink="http://www.w3.org/1999/xlink"
   xmlns:sodipodi="http://sodipodi.sourceforge.net/DTD/sodipodi-0.dtd"
   xmlns:inkscape="http://www.inkscape.org/namespaces/inkscape"
   width="128"
   height="128"
   viewBox="0 0 33.866666 33.866668"
   version="1.1"
   id="svg5103"
   inkscape:version="0.92.4 (unknown)"
   sodipodi:docname="libreoffice-base.svg"
   inkscape:export-filename="/home/rizmut/Dokumen/Rizmut/Github/karasa-jaga-icon-theme/build/Karasa-Jaga/48x48/apps/libreoffice-draw.png"
   inkscape:export-xdpi="36"
   inkscape:export-ydpi="36">
  <defs
     id="defs5097">
    <linearGradient
       inkscape:collect="always"
       xlink:href="#linearGradient8063"
       id="linearGradient8844"
       gradientUnits="userSpaceOnUse"
       gradientTransform="matrix(0.47839894,0,0,0.47839894,84.09803,132.93178)"
       x1="-99.319344"
       y1="334.28647"
       x2="-99.063911"
       y2="213.06819" />
    <linearGradient
       inkscape:collect="always"
       id="linearGradient8063">
      <stop
         style="stop-color:#cf11d8;stop-opacity:1"
         offset="0"
         id="stop8057" />
      <stop
         id="stop8059"
         offset="0.38350943"
         style="stop-color:#8b0c9c;stop-opacity:1" />
      <stop
         style="stop-color:#da11d8;stop-opacity:1"
         offset="1"
         id="stop8061" />
    </linearGradient>
  </defs>
  <sodipodi:namedview
     id="base"
     pagecolor="#ffffff"
     bordercolor="#666666"
     borderopacity="1.0"
     inkscape:pageopacity="0.0"
     inkscape:pageshadow="2"
     inkscape:zoom="2.8284271"
     inkscape:cx="22.921925"
     inkscape:cy="12.610277"
     inkscape:document-units="mm"
     inkscape:current-layer="g8806"
     showgrid="true"
     units="px"
     inkscape:snap-global="true"
     inkscape:snap-smooth-nodes="false">
    <inkscape:grid
       type="xygrid"
       id="grid9580"
       spacingx="0.3527769"
       spacingy="0.3527769"
       empspacing="2" />
  </sodipodi:namedview>
  <metadata
     id="metadata5100">
    <rdf:RDF>
      <cc:Work
         rdf:about="">
        <dc:format>image/svg+xml</dc:format>
        <dc:type
           rdf:resource="http://purl.org/dc/dcmitype/StillImage" />
        <dc:title></dc:title>
      </cc:Work>
    </rdf:RDF>
  </metadata>
  <g
     inkscape:label="Layer 1"
     inkscape:groupmode="layer"
     id="layer1"
     transform="translate(0,-263.13332)">
    <g
       transform="matrix(0.50790239,0,0,0.50790239,-0.26762817,146.42061)"
       id="g8806">
      <path
         style="fill:#790a7e;fill-opacity:1;stroke-width:0.47839892"
         d="m 11.997125,232.57426 c -0.417973,4e-5 -0.813528,0.10773 -1.136719,0.32421 -0.329743,0.22092 -0.609375,0.59619 -0.609375,1.0625 v 58.34961 c 0,0.46703 0.281918,0.84066 0.611328,1.06055 0.322702,0.21539 0.716995,0.32425 1.134766,0.32422 l 43.737216,-0.003 c 0.41786,-2e-5 0.813541,-0.10905 1.136719,-0.32422 0.329876,-0.21964 0.611328,-0.59312 0.611328,-1.06055 v -42.13671 c 0,-0.17505 -0.06944,-0.34324 -0.193359,-0.4668 L 40.291016,232.76561 c -0.123556,-0.12387 -0.291754,-0.19336 -0.466797,-0.19335 z m 31.979437,-0.002 c -0.284564,-6e-4 -0.51734,0.17919 -0.611328,0.40625 -0.09421,0.22759 -0.05624,0.51976 0.146485,0.7207 l 12.843716,12.78245 c 0.2009,0.2027 0.49315,0.2407 0.720703,0.14649 0.227553,-0.0942 0.407442,-0.32594 0.40625,-0.61133 v -2.33175 -9.72685 c 0,-0.46747 -0.281531,-0.84208 -0.611328,-1.0625 -0.323307,-0.21606 -0.718676,-0.32423 -1.136719,-0.32421 l -11.755825,7.5e-4 z"
         id="path8798"
         inkscape:connector-curvature="0"
         sodipodi:nodetypes="scsscsscssccsscccccccscscc" />
      <path
         style="fill:url(#linearGradient8844);fill-opacity:1.0;stroke-width:0.47839892"
         d="m 12.06214,233.9599 c -0.18103,0 -0.33133,0.056 -0.39648,0.0996 -0.0651,0.0437 -0.0215,0.0264 -0.0215,-0.041 l -0.0041,58.2906 c 0,-0.0674 -0.0454,-0.0863 0.0195,-0.043 0.0649,0.0434 0.21668,0.0996 0.39843,0.0996 h 43.61524 c 0.18175,0 0.33477,-0.0559 0.40039,-0.0996 0.0656,-0.0437 0.0195,-0.0255 0.0195,0.043 V 250.44959 L 39.55047,233.9599 Z m 33.53125,0 10.49984,10.4449 0.0041,-10.38631 c 0,0.0685 0.0443,0.085 -0.0215,0.041 -0.0658,-0.044 -0.21741,-0.0996 -0.39844,-0.0996 z"
         id="path8800"
         inkscape:connector-curvature="0"
         sodipodi:nodetypes="sccccssccccsscccss" />
      <path
         style="opacity:1;vector-effect:none;fill:#000000;fill-opacity:1;stroke:none;stroke-width:0.99999994"
         d="M 22.017578 5.3378906 C 21.215224 5.3379674 20.456345 5.5453758 19.835938 5.9609375 C 19.202953 6.3850224 18.666016 7.1048568 18.666016 8 L 18.666016 120.00977 C 18.666016 120.90629 19.207498 121.62281 19.839844 122.04492 C 20.459313 122.45839 21.215612 122.66803 22.017578 122.66797 L 29.333984 122.66797 L 29.333984 5.3378906 L 22.017578 5.3378906 z "
         transform="matrix(0.52093343,0,0,0.52093343,0.52692835,229.79358)"
         id="rect9659" />
      <path
         inkscape:connector-curvature="0"
         id="path7131"
         d="m 12.52984,233.23384 c -0.86328,0 -1.55867,0.32349 -1.55867,0.72508 v 58.34972 c 0,0.40159 0.69539,0.72508 1.55867,0.72508 h 2.81871 v -59.79988 z"
         style="fill:#000000;fill-opacity:1;stroke-width:0.57270354" />
      <path
         style="opacity:1;vector-effect:none;fill:#e6d8e6;fill-opacity:1;stroke:none;stroke-width:1"
         d="m 72,64 c -11.080857,0.0026 -20.31241,3.71624 -21.246094,8.546875 l -0.08789,-0.101563 v 24.888672 0.0039 c 0.0065,2.250665 1.871638,4.424509 5.251953,6.121089 L 56,103.55469 v -0.0566 c 4.044765,2.01345 9.873013,3.16885 16,3.17187 6.129807,-0.005 11.958511,-1.16334 16,-3.17969 v 0.0645 l 0.0957,-0.11133 c 3.367319,-1.69338 5.227017,-3.860953 5.238281,-6.105469 v -0.0039 -13.332031 -10.667969 -0.888672 l -0.08984,0.103516 C 92.312707,67.71766 83.081682,64.003102 72,64 Z m 0,5.333984 c 8.836565,-6e-6 16.000022,1.790859 16,4 2.2e-5,2.209141 -7.163435,4.000006 -16,4 -8.836565,6e-6 -16.000022,-1.790859 -16,-4 -2.2e-5,-2.209141 7.163435,-4.000006 16,-4 z m 16,10.154297 -1.79e-4,6.659607 c -4.039032,2.018525 -9.86808,3.179069 -16,3.185547 -6.132626,-0.007 -11.961788,-1.168249 -16,-3.1875 L 56,79.494141 c 4.044763,2.013447 9.873012,3.168852 16,3.171875 6.129101,-0.0045 11.957692,-1.162112 16,-3.177735 z M 87.999821,91.487732 88,98.148438 c -4.039031,2.018532 -9.868079,3.179062 -16,3.185542 -6.133334,-0.007 -11.962611,-1.16946 -16,-3.189449 l -1.79e-4,-6.65094 c 4.044763,2.013447 9.873011,3.168852 16,3.171875 6.129101,-0.0045 11.957691,-1.162111 16,-3.177734 z"
         transform="matrix(0.52093343,0,0,0.52093343,0.52692835,229.79358)"
         id="path10037"
         inkscape:connector-curvature="0"
         sodipodi:nodetypes="cccccccccccccccccccccccccccccccccccccc" />
    </g>
  </g>
</svg>
