<?xml version="1.0" encoding="UTF-8" standalone="no"?>
<!-- Created with Inkscape (http://www.inkscape.org/) -->

<svg
   xmlns:dc="http://purl.org/dc/elements/1.1/"
   xmlns:cc="http://creativecommons.org/ns#"
   xmlns:rdf="http://www.w3.org/1999/02/22-rdf-syntax-ns#"
   xmlns:svg="http://www.w3.org/2000/svg"
   xmlns="http://www.w3.org/2000/svg"
   xmlns:xlink="http://www.w3.org/1999/xlink"
   xmlns:sodipodi="http://sodipodi.sourceforge.net/DTD/sodipodi-0.dtd"
   xmlns:inkscape="http://www.inkscape.org/namespaces/inkscape"
   width="128"
   height="128"
   viewBox="0 0 33.866666 33.866668"
   version="1.1"
   id="svg5103"
   inkscape:version="0.92.4 (unknown)"
   sodipodi:docname="libreoffice-draw.svg"
   inkscape:export-filename="/home/rizmut/Dokumen/Rizmut/Github/karasa-jaga-icon-theme/build/Karasa-Jaga/48x48/apps/libreoffice-draw.png"
   inkscape:export-xdpi="36"
   inkscape:export-ydpi="36">
  <defs
     id="defs5097">
    <linearGradient
       inkscape:collect="always"
       xlink:href="#linearGradient7821"
       id="linearGradient8844"
       gradientUnits="userSpaceOnUse"
       gradientTransform="matrix(0.47839894,0,0,0.47839894,84.09803,132.93178)"
       x1="-99.319344"
       y1="334.28647"
       x2="-99.063911"
       y2="213.06819" />
    <linearGradient
       id="linearGradient7821"
       inkscape:collect="always">
      <stop
         id="stop7815"
         offset="0"
         style="stop-color:#e8f03b;stop-opacity:1" />
      <stop
         style="stop-color:#b9c10f;stop-opacity:1"
         offset="0.38350943"
         id="stop7817" />
      <stop
         id="stop7819"
         offset="1"
         style="stop-color:#e8f03b;stop-opacity:1" />
    </linearGradient>
  </defs>
  <sodipodi:namedview
     id="base"
     pagecolor="#ffffff"
     bordercolor="#666666"
     borderopacity="1.0"
     inkscape:pageopacity="0.0"
     inkscape:pageshadow="2"
     inkscape:zoom="8"
     inkscape:cx="58.36771"
     inkscape:cy="43.901509"
     inkscape:document-units="mm"
     inkscape:current-layer="g8806"
     showgrid="true"
     units="px"
     inkscape:snap-global="true"
     inkscape:snap-smooth-nodes="false">
    <inkscape:grid
       type="xygrid"
       id="grid9580"
       spacingx="0.3527769"
       spacingy="0.3527769"
       empspacing="2" />
  </sodipodi:namedview>
  <metadata
     id="metadata5100">
    <rdf:RDF>
      <cc:Work
         rdf:about="">
        <dc:format>image/svg+xml</dc:format>
        <dc:type
           rdf:resource="http://purl.org/dc/dcmitype/StillImage" />
        <dc:title></dc:title>
      </cc:Work>
    </rdf:RDF>
  </metadata>
  <g
     inkscape:label="Layer 1"
     inkscape:groupmode="layer"
     id="layer1"
     transform="translate(0,-263.13332)">
    <g
       transform="matrix(0.50790239,0,0,0.50790239,-0.26762817,146.42061)"
       id="g8806">
      <path
         style="fill:#7e7a0a;fill-opacity:1;stroke-width:0.47839892"
         d="m 11.997125,232.57426 c -0.417973,4e-5 -0.813528,0.10773 -1.136719,0.32421 -0.329743,0.22092 -0.609375,0.59619 -0.609375,1.0625 v 58.34961 c 0,0.46703 0.281918,0.84066 0.611328,1.06055 0.322702,0.21539 0.716995,0.32425 1.134766,0.32422 l 43.737216,-0.003 c 0.41786,-2e-5 0.813541,-0.10905 1.136719,-0.32422 0.329876,-0.21964 0.611328,-0.59312 0.611328,-1.06055 v -42.13671 c 0,-0.17505 -0.06944,-0.34324 -0.193359,-0.4668 L 40.291016,232.76561 c -0.123556,-0.12387 -0.291754,-0.19336 -0.466797,-0.19335 z m 31.979437,-0.002 c -0.284564,-6e-4 -0.51734,0.17919 -0.611328,0.40625 -0.09421,0.22759 -0.05624,0.51976 0.146485,0.7207 l 12.843716,12.78245 c 0.2009,0.2027 0.49315,0.2407 0.720703,0.14649 0.227553,-0.0942 0.407442,-0.32594 0.40625,-0.61133 v -2.33175 -9.72685 c 0,-0.46747 -0.281531,-0.84208 -0.611328,-1.0625 -0.323307,-0.21606 -0.718676,-0.32423 -1.136719,-0.32421 l -11.755825,7.5e-4 z"
         id="path8798"
         inkscape:connector-curvature="0"
         sodipodi:nodetypes="scsscsscssccsscccccccscscc" />
      <path
         style="fill:url(#linearGradient8844);fill-opacity:1.0;stroke-width:0.47839892"
         d="m 12.06214,233.9599 c -0.18103,0 -0.33133,0.056 -0.39648,0.0996 -0.0651,0.0437 -0.0215,0.0264 -0.0215,-0.041 l -0.0041,58.2906 c 0,-0.0674 -0.0454,-0.0863 0.0195,-0.043 0.0649,0.0434 0.21668,0.0996 0.39843,0.0996 h 43.61524 c 0.18175,0 0.33477,-0.0559 0.40039,-0.0996 0.0656,-0.0437 0.0195,-0.0255 0.0195,0.043 V 250.44959 L 39.55047,233.9599 Z m 33.53125,0 10.49984,10.4449 0.0041,-10.38631 c 0,0.0685 0.0443,0.085 -0.0215,0.041 -0.0658,-0.044 -0.21741,-0.0996 -0.39844,-0.0996 z"
         id="path8800"
         inkscape:connector-curvature="0"
         sodipodi:nodetypes="sccccssccccsscccss" />
      <path
         style="opacity:1;vector-effect:none;fill:#000000;fill-opacity:1;stroke:none;stroke-width:0.99999994"
         d="M 22.017578 5.3378906 C 21.215224 5.3379674 20.456345 5.5453758 19.835938 5.9609375 C 19.202953 6.3850224 18.666016 7.1048568 18.666016 8 L 18.666016 120.00977 C 18.666016 120.90629 19.207498 121.62281 19.839844 122.04492 C 20.459313 122.45839 21.215612 122.66803 22.017578 122.66797 L 29.333984 122.66797 L 29.333984 5.3378906 L 22.017578 5.3378906 z "
         transform="matrix(0.52093343,0,0,0.52093343,0.52692835,229.79358)"
         id="rect9659" />
      <path
         inkscape:connector-curvature="0"
         id="path7131"
         d="m 12.52984,233.23384 c -0.86328,0 -1.55867,0.32349 -1.55867,0.72508 v 58.34972 c 0,0.40159 0.69539,0.72508 1.55867,0.72508 h 2.81871 v -59.79988 z"
         style="fill:#000000;fill-opacity:1;stroke-width:0.57270354" />
      <path
         style="fill:#f8f7a6;fill-opacity:1;stroke-width:0.18524323"
         id="path7910"
         d="m 27.091499,266.66125 c 0.442763,-0.47926 0.998732,-0.83153 1.567418,-1.1421 0.441378,-0.25226 0.917744,-0.41311 1.403505,-0.54898 3.415305,-0.17832 2.086559,-0.285 4.203557,-0.0266 0.04774,-0.0217 0.14582,-0.22537 2.077465,0.38944 0.03583,0.0112 1.020155,0.66507 1.053631,0.68243 0.89771,0.64285 0.519354,0.44641 1.145777,1.20543 0.338581,0.54295 0.517475,1.15569 0.595818,1.78593 0.06992,1.31337 0.17653,2.76254 -0.583773,3.81571 -0.1667,0.40039 -0.418931,0.70804 -0.561547,0.93557 -0.0078,0.0415 -0.227759,0.63605 -0.327504,0.85647 -0.677407,0.92084 -0.894688,1.88439 -1.238142,2.98185 -0.06334,0.31958 -0.150712,0.63614 -0.205767,0.95754 -0.234052,2.79822 0.769484,3.09575 3.746915,2.50068 3.864916,-1.01139 4.128544,-1.98638 6.32339,-5.1298 0.07563,-0.10002 0.685445,-0.95774 0.465608,-0.56348 0.105459,-0.29528 0.193671,-0.59946 0.28748,-0.89997 0.147362,-0.43711 0.321005,-0.8699 0.557596,-1.26697 0.08338,-0.19232 2.803217,0.98743 2.719778,1.17975 v 0 c -0.13052,0.30016 -0.230972,0.61471 -0.347423,0.92057 -0.171641,0.43576 -0.293592,0.89127 -0.545134,1.29264 -0.897671,1.18943 -1.693649,2.69992 -2.201083,3.35404 -0.0523,0.0677 -0.102437,0.13683 -0.153656,0.20523 -2.003355,1.91933 -4.148753,3.19795 -6.280208,3.32387 -0.120982,0.008 -0.242372,-0.004 -0.363586,-0.004 -0.05811,-1.1e-4 -0.232185,7.1e-4 -0.174138,7.1e-4 0.192431,3e-4 0.384881,-3e-4 0.577332,-4.4e-4 -1.659909,0.15172 -4.832398,0.80063 -6.548427,-1.0139 -1.127627,-1.05203 -1.226607,-2.92425 -1.040538,-4.31055 0.388775,-1.61778 0.701231,-3.43703 1.633037,-4.78391 0.406642,-0.55574 2.457264,-3.58783 0.802157,-4.85147 -0.778809,-0.89399 -2.23027,-1.60336 -4.386264,-0.86557 -0.53972,0.19114 -1.094304,0.43846 -2.085193,1.11096 -3.739894,2.90113 -4.464801,-0.25796 -2.118749,-2.09148 z"
         inkscape:connector-curvature="0"
         sodipodi:nodetypes="cccccccccccccccccccccccccccccccccccc" />
    </g>
  </g>
</svg>
