<?xml version="1.0" encoding="UTF-8" standalone="no"?>
<!-- Created with Inkscape (http://www.inkscape.org/) -->

<svg
   xmlns:dc="http://purl.org/dc/elements/1.1/"
   xmlns:cc="http://creativecommons.org/ns#"
   xmlns:rdf="http://www.w3.org/1999/02/22-rdf-syntax-ns#"
   xmlns:svg="http://www.w3.org/2000/svg"
   xmlns="http://www.w3.org/2000/svg"
   xmlns:xlink="http://www.w3.org/1999/xlink"
   xmlns:sodipodi="http://sodipodi.sourceforge.net/DTD/sodipodi-0.dtd"
   xmlns:inkscape="http://www.inkscape.org/namespaces/inkscape"
   width="48"
   height="48"
   viewBox="0 0 12.7 12.7"
   version="1.1"
   id="svg5103"
   inkscape:version="0.92.3 (2405546, 2018-03-11)"
   sodipodi:docname="libreoffice.svg"
   inkscape:export-filename="/home/rizmut/Dokumen/Rizmut/Github/karasa-jaga-icon-theme/build/Karasa-Jaga/48x48/apps/libreoffice.png"
   inkscape:export-xdpi="36"
   inkscape:export-ydpi="36">
  <defs
     id="defs5097">
    <linearGradient
       inkscape:collect="always"
       xlink:href="#linearGradient8890"
       id="linearGradient8844"
       gradientUnits="userSpaceOnUse"
       gradientTransform="matrix(0.47839894,0,0,0.47839894,84.09803,132.93178)"
       x1="-99.319344"
       y1="334.28647"
       x2="-99.063911"
       y2="213.06819" />
    <linearGradient
       inkscape:collect="always"
       id="linearGradient8890">
      <stop
         style="stop-color:#cdcdcd;stop-opacity:1"
         offset="0"
         id="stop8884" />
      <stop
         id="stop8886"
         offset="0.38350943"
         style="stop-color:#d9dbde;stop-opacity:1" />
      <stop
         style="stop-color:#f5f5f5;stop-opacity:1"
         offset="1"
         id="stop8888" />
    </linearGradient>
  </defs>
  <sodipodi:namedview
     id="base"
     pagecolor="#ffffff"
     bordercolor="#666666"
     borderopacity="1.0"
     inkscape:pageopacity="0.0"
     inkscape:pageshadow="2"
     inkscape:zoom="32"
     inkscape:cx="33.603991"
     inkscape:cy="40.740531"
     inkscape:document-units="mm"
     inkscape:current-layer="layer1"
     showgrid="true"
     units="px"
     inkscape:snap-global="true"
     inkscape:snap-smooth-nodes="false"
     inkscape:window-width="1366"
     inkscape:window-height="693"
     inkscape:window-x="0"
     inkscape:window-y="0"
     inkscape:window-maximized="1">
    <inkscape:grid
       type="xygrid"
       id="grid9580"
       spacingx="0.13229167"
       spacingy="0.13229167"
       empspacing="2" />
  </sodipodi:namedview>
  <metadata
     id="metadata5100">
    <rdf:RDF>
      <cc:Work
         rdf:about="">
        <dc:format>image/svg+xml</dc:format>
        <dc:type
           rdf:resource="http://purl.org/dc/dcmitype/StillImage" />
        <dc:title></dc:title>
      </cc:Work>
    </rdf:RDF>
  </metadata>
  <g
     inkscape:label="Layer 1"
     inkscape:groupmode="layer"
     id="layer1"
     transform="translate(0,-284.29999)">
    <g
       transform="matrix(0.50790239,0,0,0.50790239,-0.26762817,146.42061)"
       id="g8806">
      <g
         id="g1012"
         transform="matrix(0.375,0,0,0.375,-0.19161965,185.81662)">
        <path
           sodipodi:nodetypes="scsscsscssccsscccccccscscc"
           inkscape:connector-curvature="0"
           id="path8798"
           d="m 11.997125,232.57426 c -0.417973,4e-5 -0.813528,0.10773 -1.136719,0.32421 -0.329743,0.22092 -0.609375,0.59619 -0.609375,1.0625 v 58.34961 c 0,0.46703 0.281918,0.84066 0.611328,1.06055 0.322702,0.21539 0.716995,0.32425 1.134766,0.32422 l 43.737216,-0.003 c 0.41786,-2e-5 0.813541,-0.10905 1.136719,-0.32422 0.329876,-0.21964 0.611328,-0.59312 0.611328,-1.06055 v -42.13671 c 0,-0.17505 -0.06944,-0.34324 -0.193359,-0.4668 L 40.291016,232.76561 c -0.123556,-0.12387 -0.291754,-0.19336 -0.466797,-0.19335 z m 31.979437,-0.002 c -0.284564,-6e-4 -0.51734,0.17919 -0.611328,0.40625 -0.09421,0.22759 -0.05624,0.51976 0.146485,0.7207 l 12.843716,12.78245 c 0.2009,0.2027 0.49315,0.2407 0.720703,0.14649 0.227553,-0.0942 0.407442,-0.32594 0.40625,-0.61133 v -2.33175 -9.72685 c 0,-0.46747 -0.281531,-0.84208 -0.611328,-1.0625 -0.323307,-0.21606 -0.718676,-0.32423 -1.136719,-0.32421 l -11.755825,7.5e-4 z"
           style="fill:#6e7792;fill-opacity:1;stroke-width:0.47839892" />
        <path
           sodipodi:nodetypes="sccccssccccsscccss"
           inkscape:connector-curvature="0"
           id="path8800"
           d="m 12.06214,233.9599 c -0.18103,0 -0.33133,0.056 -0.39648,0.0996 -0.0651,0.0437 -0.0215,0.0264 -0.0215,-0.041 l -0.0041,58.2906 c 0,-0.0674 -0.0454,-0.0863 0.0195,-0.043 0.0649,0.0434 0.21668,0.0996 0.39843,0.0996 h 43.61524 c 0.18175,0 0.33477,-0.0559 0.40039,-0.0996 0.0656,-0.0437 0.0195,-0.0255 0.0195,0.043 V 250.44959 L 39.55047,233.9599 Z m 33.53125,0 10.49984,10.4449 0.0041,-10.38631 c 0,0.0685 0.0443,0.085 -0.0215,0.041 -0.0658,-0.044 -0.21741,-0.0996 -0.39844,-0.0996 z"
           style="fill:url(#linearGradient8844);fill-opacity:1;stroke-width:0.47839892" />
        <path
           id="rect9659"
           transform="matrix(0.52093343,0,0,0.52093343,0.52692835,229.79358)"
           d="m 22.017578,5.3378906 c -0.802354,7.68e-5 -1.561233,0.2074852 -2.18164,0.6230469 C 19.202953,6.3850224 18.666016,7.1048568 18.666016,8 v 112.00977 c 0,0.89652 0.541482,1.61304 1.173828,2.03515 0.619469,0.41347 1.375768,0.62311 2.177734,0.62305 h 7.316406 V 5.3378906 Z"
           style="opacity:1;vector-effect:none;fill:#000000;fill-opacity:1;stroke:none;stroke-width:0.99999994"
           inkscape:connector-curvature="0" />
      </g>
    </g>
  </g>
</svg>
