<?xml version="1.0" encoding="UTF-8" standalone="no"?>
<!-- Created with Inkscape (http://www.inkscape.org/) -->

<svg
   xmlns:dc="http://purl.org/dc/elements/1.1/"
   xmlns:cc="http://creativecommons.org/ns#"
   xmlns:rdf="http://www.w3.org/1999/02/22-rdf-syntax-ns#"
   xmlns:svg="http://www.w3.org/2000/svg"
   xmlns="http://www.w3.org/2000/svg"
   xmlns:xlink="http://www.w3.org/1999/xlink"
   xmlns:sodipodi="http://sodipodi.sourceforge.net/DTD/sodipodi-0.dtd"
   xmlns:inkscape="http://www.inkscape.org/namespaces/inkscape"
   width="128"
   height="128"
   viewBox="0 0 33.866666 33.866668"
   version="1.1"
   id="svg5103"
   inkscape:version="0.92.4 (unknown)"
   sodipodi:docname="libreoffice-math.svg"
   inkscape:export-filename="/home/rizmut/Dokumen/Rizmut/Github/karasa-jaga-icon-theme/build/Karasa-Jaga/48x48/apps/libreoffice-math.png"
   inkscape:export-xdpi="36"
   inkscape:export-ydpi="36">
  <defs
     id="defs5097">
    <linearGradient
       inkscape:collect="always"
       xlink:href="#linearGradient8553"
       id="linearGradient8844"
       gradientUnits="userSpaceOnUse"
       gradientTransform="matrix(0.47839894,0,0,0.47839894,84.09803,132.93178)"
       x1="-99.319344"
       y1="334.28647"
       x2="-99.063911"
       y2="213.06819" />
    <linearGradient
       id="linearGradient8553"
       inkscape:collect="always">
      <stop
         id="stop8547"
         offset="0"
         style="stop-color:#727a93;stop-opacity:1" />
      <stop
         style="stop-color:#414c67;stop-opacity:1"
         offset="0.38350943"
         id="stop8549" />
      <stop
         id="stop8551"
         offset="1"
         style="stop-color:#7b7d80;stop-opacity:1" />
    </linearGradient>
  </defs>
  <sodipodi:namedview
     id="base"
     pagecolor="#ffffff"
     bordercolor="#666666"
     borderopacity="1.0"
     inkscape:pageopacity="0.0"
     inkscape:pageshadow="2"
     inkscape:zoom="4"
     inkscape:cx="80.698689"
     inkscape:cy="78.601149"
     inkscape:document-units="mm"
     inkscape:current-layer="g8806"
     showgrid="true"
     units="px"
     inkscape:snap-global="false"
     inkscape:snap-smooth-nodes="false">
    <inkscape:grid
       type="xygrid"
       id="grid9580"
       spacingx="0.3527769"
       spacingy="0.3527769"
       empspacing="2" />
  </sodipodi:namedview>
  <metadata
     id="metadata5100">
    <rdf:RDF>
      <cc:Work
         rdf:about="">
        <dc:format>image/svg+xml</dc:format>
        <dc:type
           rdf:resource="http://purl.org/dc/dcmitype/StillImage" />
        <dc:title></dc:title>
      </cc:Work>
    </rdf:RDF>
  </metadata>
  <g
     inkscape:label="Layer 1"
     inkscape:groupmode="layer"
     id="layer1"
     transform="translate(0,-263.13332)">
    <g
       transform="matrix(0.50790239,0,0,0.50790239,-0.26762817,146.42061)"
       id="g8806">
      <path
         style="fill:#3a3f4e;fill-opacity:1;stroke-width:0.47839892"
         d="m 11.997125,232.57426 c -0.417973,4e-5 -0.813528,0.10773 -1.136719,0.32421 -0.329743,0.22092 -0.609375,0.59619 -0.609375,1.0625 v 58.34961 c 0,0.46703 0.281918,0.84066 0.611328,1.06055 0.322702,0.21539 0.716995,0.32425 1.134766,0.32422 l 43.737216,-0.003 c 0.41786,-2e-5 0.813541,-0.10905 1.136719,-0.32422 0.329876,-0.21964 0.611328,-0.59312 0.611328,-1.06055 v -42.13671 c 0,-0.17505 -0.06944,-0.34324 -0.193359,-0.4668 L 40.291016,232.76561 c -0.123556,-0.12387 -0.291754,-0.19336 -0.466797,-0.19335 z m 31.979437,-0.002 c -0.284564,-6e-4 -0.51734,0.17919 -0.611328,0.40625 -0.09421,0.22759 -0.05624,0.51976 0.146485,0.7207 l 12.843716,12.78245 c 0.2009,0.2027 0.49315,0.2407 0.720703,0.14649 0.227553,-0.0942 0.407442,-0.32594 0.40625,-0.61133 v -2.33175 -9.72685 c 0,-0.46747 -0.281531,-0.84208 -0.611328,-1.0625 -0.323307,-0.21606 -0.718676,-0.32423 -1.136719,-0.32421 l -11.755825,7.5e-4 z"
         id="path8798"
         inkscape:connector-curvature="0"
         sodipodi:nodetypes="scsscsscssccsscccccccscscc" />
      <path
         style="fill:url(#linearGradient8844);fill-opacity:1.0;stroke-width:0.47839892"
         d="m 12.06214,233.9599 c -0.18103,0 -0.33133,0.056 -0.39648,0.0996 -0.0651,0.0437 -0.0215,0.0264 -0.0215,-0.041 l -0.0041,58.2906 c 0,-0.0674 -0.0454,-0.0863 0.0195,-0.043 0.0649,0.0434 0.21668,0.0996 0.39843,0.0996 h 43.61524 c 0.18175,0 0.33477,-0.0559 0.40039,-0.0996 0.0656,-0.0437 0.0195,-0.0255 0.0195,0.043 V 250.44959 L 39.55047,233.9599 Z m 33.53125,0 10.49984,10.4449 0.0041,-10.38631 c 0,0.0685 0.0443,0.085 -0.0215,0.041 -0.0658,-0.044 -0.21741,-0.0996 -0.39844,-0.0996 z"
         id="path8800"
         inkscape:connector-curvature="0"
         sodipodi:nodetypes="sccccssccccsscccss" />
      <path
         style="opacity:1;vector-effect:none;fill:#000000;fill-opacity:1;stroke:none;stroke-width:0.99999994"
         d="M 22.017578 5.3378906 C 21.215224 5.3379674 20.456345 5.5453758 19.835938 5.9609375 C 19.202953 6.3850224 18.666016 7.1048568 18.666016 8 L 18.666016 120.00977 C 18.666016 120.90629 19.207498 121.62281 19.839844 122.04492 C 20.459313 122.45839 21.215612 122.66803 22.017578 122.66797 L 29.333984 122.66797 L 29.333984 5.3378906 L 22.017578 5.3378906 z "
         transform="matrix(0.52093343,0,0,0.52093343,0.52692835,229.79358)"
         id="rect9659" />
      <path
         inkscape:connector-curvature="0"
         id="path7131"
         d="m 12.52984,233.23384 c -0.86328,0 -1.55867,0.32349 -1.55867,0.72508 v 58.34972 c 0,0.40159 0.69539,0.72508 1.55867,0.72508 h 2.81871 v -59.79988 z"
         style="fill:#000000;fill-opacity:1;stroke-width:0.57270354" />
      <path
         inkscape:connector-curvature="0"
         id="path8676"
         d="m 28.460837,263.1349 c -0.08432,0.008 -0.14854,0.0793 -0.148439,0.16407 v 1.39256 c -2.18e-4,0.0479 0.02045,0.0936 0.0566,0.125 l 1.595685,1.39256 c 0.02999,0.0254 0.06809,0.0393 0.107419,0.0391 h 0.283207 l 6.746772,7.33507 -6.981254,7.60916 h -0.043 c -0.03933,-2.1e-4 -0.07743,0.0137 -0.107419,0.0391 l -1.601441,1.34075 c -0.03615,0.0315 -0.05682,0.0771 -0.0566,0.125 l 0.0081,1.1015 c 3.37e-4,0.0905 0.07359,0.16372 0.164059,0.16406 l 20.508363,0.0109 c 0.09047,-3.3e-4 0.163732,-0.0736 0.164069,-0.16406 l -0.0024,-2.44225 c -3.32e-4,-0.0905 -0.07359,-0.16374 -0.164069,-0.16407 H 34.301264 l 7.273476,-7.52243 c 0.06272,-0.064 0.06272,-0.16645 0,-0.23047 l -2.054671,-2.10935 c -0.0219,-0.0223 -0.04968,-0.0378 -0.0801,-0.0449 l -4.901867,-5.38935 h 14.447125 c 0.09047,-3.3e-4 0.163737,-0.0736 0.164069,-0.16407 l -4.35e-4,-2.43283 c -3.32e-4,-0.0905 -0.07359,-0.16374 -0.164069,-0.16407 l -20.508355,-0.0109 c -0.0052,-2.5e-4 -0.0104,-2.5e-4 -0.0156,0 z"
         style="fill:#d3d7e2;fill-opacity:1;stroke-width:0.20193654"
         sodipodi:nodetypes="cccccccccccccccccccccccccccccccc" />
    </g>
  </g>
</svg>
