<svg height="48" width="48" xmlns="http://www.w3.org/2000/svg" xmlns:xlink="http://www.w3.org/1999/xlink"><filter id="a" height="8.723595" width="1.127927" x="-.063964" y="-3.861798"><feGaussianBlur stdDeviation=".64363293"/></filter><linearGradient id="b" gradientUnits="userSpaceOnUse" x1="127.61469" x2="61.597126" xlink:href="#f" y1="115.77331" y2="101.32187"/><filter id="c"><feGaussianBlur stdDeviation=".67542465"/></filter><linearGradient id="d" gradientUnits="userSpaceOnUse" x1="110.7470240413" x2="65.67341856022" xlink:href="#f" y1="96.59638696696" y2="89.38843414005"/><filter id="e" height="1.336815" width="1.040252" x="-.020126" y="-.168407"><feGaussianBlur stdDeviation=".32704723"/></filter><linearGradient id="f"><stop offset="0" stop-color="#fff"/><stop offset="1" stop-color="#fff" stop-opacity="0"/></linearGradient><radialGradient id="g" cx="93.3125" cy="118.8111" gradientTransform="matrix(1.7854895 0 0 .2957901 -73.295984 87.812258)" gradientUnits="userSpaceOnUse" r="19.5" xlink:href="#f"/><filter id="h" height="1.718005" width="1.091171" x="-.045586" y="-.359002"><feGaussianBlur stdDeviation=".37323144"/></filter><clipPath id="i"><path d="m56.045076 88.051461v59.937499h70.875004v-59.937499h-24.40625v2.15625c-6.248804-1.879121-13.204354-1.849236-19.437504.09375v-2.25z"/></clipPath><filter id="j" height="2.035409" width="1.126037" x="-.063018" y="-.517704"><feGaussianBlur stdDeviation=".51364026"/></filter><radialGradient id="k" cx="136.01595" cy="50.694698" gradientTransform="matrix(.1178044 .07937894 -.5075521 .7532442 95.867862 -12.641206)" gradientUnits="userSpaceOnUse" r="10.07433" xlink:href="#f"/><radialGradient id="l" cx="81.995277" cy="50.862476" gradientTransform="matrix(.09034235 .1096227 -.2999961 .2472329 97.766299 10.607847)" gradientUnits="userSpaceOnUse" r="10.07433" xlink:href="#f"/><radialGradient id="m" cx="96.350143" cy="66.806999" gradientTransform="matrix(0 -.6929962 -.00547996 0 90.987622 119.20441)" gradientUnits="userSpaceOnUse" r="31.649858" xlink:href="#s"/><linearGradient id="n"><stop offset="0"/><stop offset="1" stop-opacity="0"/></linearGradient><radialGradient id="o" cx="96.094643" cy="62.475086" gradientTransform="matrix(0 -.6929962 -.00214437 0 93.591021 119.10696)" gradientUnits="userSpaceOnUse" r="30.94986" xlink:href="#n"/><radialGradient id="p" cx="92.454208" cy="71.239235" fx="109.07122" fy="64.119919" gradientTransform="matrix(0 -1.0120939 -.1078099 0 91.541216 148.6089)" gradientUnits="userSpaceOnUse" r="29.344931" xlink:href="#s"/><radialGradient id="q" cx="40.082912" cy="3.680032" gradientTransform="matrix(-.1004827 -.5806955 -.0951913 .0205614 115.14359 114.52996)" gradientUnits="userSpaceOnUse" r="63.893539"><stop offset="0" stop-color="#fff"/><stop offset=".63217741" stop-color="#fff" stop-opacity=".498039"/><stop offset=".75" stop-color="#ccc" stop-opacity=".247059"/><stop offset="1" stop-color="#fff" stop-opacity="0"/></radialGradient><radialGradient id="r" cx="98.227898" cy="44.293781" gradientTransform="matrix(0 -.6440242 -.09695408 -.00000009 105.80209 121.02428)" gradientUnits="userSpaceOnUse" r="63.893539" xlink:href="#s"/><linearGradient id="s"><stop offset="0" stop-color="#fff"/><stop offset="0" stop-color="#fff" stop-opacity=".498039"/><stop offset=".75" stop-color="#ccc" stop-opacity=".247059"/><stop offset="1" stop-color="#fff" stop-opacity="0"/></linearGradient><linearGradient id="t" gradientTransform="matrix(0 -.7543839 -.6752045 0 135.14813 126.78923)" gradientUnits="userSpaceOnUse" x1="94.15625" x2="94.15625" y1="58.84375" y2="50.607132"><stop offset="0" stop-opacity=".501805"/><stop offset=".13736264" stop-opacity="0"/><stop offset=".29486871" stop-color="#fff" stop-opacity="0"/><stop offset=".58544481" stop-color="#fff" stop-opacity=".790614"/><stop offset="1" stop-opacity="0"/></linearGradient><linearGradient id="u" gradientTransform="matrix(0 -.7543839 -.6752045 0 135.14813 126.78923)" gradientUnits="userSpaceOnUse" x1="94.478127" x2="94.478127" xlink:href="#n" y1="67.146591" y2="64.642754"/><linearGradient id="v" gradientTransform="matrix(0 -.7543839 -.6752045 0 135.14813 126.78923)" gradientUnits="userSpaceOnUse" x1="64.15625" x2="127.31514" xlink:href="#w" y1="63.796875" y2="63.796875"/><linearGradient id="w"><stop offset="0" stop-color="#434542"/><stop offset=".07692308" stop-color="#cecfce"/><stop offset="1" stop-color="#fff"/></linearGradient><linearGradient id="x" gradientTransform="matrix(0 -.7543839 -.6752045 0 135.14813 126.78923)" gradientUnits="userSpaceOnUse" x1="63.498344" x2="124.625" xlink:href="#w" y1="49.15625" y2="49.15625"/><linearGradient id="y" gradientTransform="matrix(0 -.6929962 -.62026 0 132.20785 119.10696)" gradientUnits="userSpaceOnUse" x1="34.981007" x2="34.981007" y1="89.296867" y2="6.874693"><stop offset="0" stop-color="#656565"/><stop offset="1" stop-color="#a6a6a6"/></linearGradient><linearGradient id="z" gradientTransform="matrix(0 -.7543839 -.6752045 0 135.14813 126.78923)" gradientUnits="userSpaceOnUse" x1="132.77945" x2="-20.653816" y1="22.707912" y2="91.103127"><stop offset="0" stop-color="#fff"/><stop offset="1" stop-color="#aeaeae"/></linearGradient><linearGradient id="A" gradientTransform="matrix(1.3755238 0 0 1.8570645 -22.548199 -92.562977)" gradientUnits="userSpaceOnUse" x1="63.911137" x2="87.757362" xlink:href="#n" y1="79.998817" y2="93.999413"/><filter id="B"><feGaussianBlur stdDeviation=".6715998"/></filter><radialGradient id="C" cx="42.617531" cy="120.64188" gradientTransform="matrix(1.909059 1.8392116 -8.6222515 7.5766472 1009.8522 -881.36145)" gradientUnits="userSpaceOnUse" r="3.406888"><stop offset="0" stop-color="#b4942a"/><stop offset="1" stop-color="#e4dcc9"/></radialGradient><linearGradient id="D" gradientTransform="matrix(.9986497 0 0 .9998891 .14044 .005323)" gradientUnits="userSpaceOnUse" x1="75.848022" x2="81.452583" y1="72.804123" y2="77.047241"><stop offset="0" stop-color="#252525"/><stop offset=".5" stop-color="#252525"/><stop offset=".75" stop-color="#252525"/><stop offset="1"/></linearGradient><linearGradient id="E" gradientTransform="matrix(.9986497 0 0 .9998891 .14044 .005323)" gradientUnits="userSpaceOnUse" x1="76.708534" x2="80.579521" y1="83.325729" y2="87.154587"><stop offset="0" stop-color="#d4a100" stop-opacity=".976471"/><stop offset="1" stop-color="#ffc712"/></linearGradient><linearGradient id="F" gradientTransform="matrix(1.2875994 1.1737414 -.5465891 .6213041 81.686465 27.89447)" gradientUnits="userSpaceOnUse" x1="11.326384" x2="14.493531" y1="57.383999" y2="57.383999"><stop offset="0" stop-color="#9a7600"/><stop offset=".09292036" stop-color="#e3ad00"/><stop offset=".5043171" stop-color="#ffcd2c"/><stop offset=".91571385" stop-color="#e3ad00"/><stop offset="1" stop-color="#b98d00"/></linearGradient><linearGradient id="G" gradientTransform="matrix(.9992082 0 0 .9993395 .108362 -.090375)" gradientUnits="userSpaceOnUse" x1="114.92793" x2="100.65602" y1="-22.560064" y2="-22.052734"><stop offset="0" stop-color="#980000"/><stop offset="1" stop-color="#db5c5c"/></linearGradient><linearGradient id="H" gradientUnits="userSpaceOnUse" x1="-12.817558" x2="82.172836" xlink:href="#f" y1="7.462277" y2="7.462277"/><filter id="I"><feGaussianBlur stdDeviation=".31468463"/></filter><radialGradient id="J" cx="34.677639" cy="7.462277" gradientTransform="matrix(-1.5103 .00264127 -.00011671 -.00911022 87.0522 7.438666)" gradientUnits="userSpaceOnUse" r="47.595196" xlink:href="#f"/><linearGradient id="K" gradientTransform="matrix(.6182226 0 0 .6232687 24.10803 47.993844)" gradientUnits="userSpaceOnUse" x1="33.342377" x2="24.450998" y1="117.83894" y2="107.35519"><stop offset="0"/><stop offset="1" stop-color="#515151"/></linearGradient><linearGradient id="L" gradientTransform="matrix(1.6732108 1.5189394 -1.5009523 1.6928488 18.675678 -24.465565)" gradientUnits="userSpaceOnUse" x1="48.498562" x2="48.732723" xlink:href="#f" y1=".811505" y2="2.365727"/><linearGradient id="M" gradientTransform="matrix(.9973012 0 0 .9997782 .28069 .010646)" gradientUnits="userSpaceOnUse" x1="92.226158" x2="96.579895" y1="54.119438" y2="57.15118"><stop offset="0" stop-color="#ea3838"/><stop offset="1" stop-color="#c40000"/></linearGradient><radialGradient id="N" cx="49.011971" cy="2.674308" gradientTransform="matrix(2.2600183 0 0 .2752449 -2.259041 -25.415382)" gradientUnits="userSpaceOnUse" r="1.724619" xlink:href="#O"/><linearGradient id="O"><stop offset="0" stop-color="#fff"/><stop offset="1" stop-color="#252525" stop-opacity="0"/></linearGradient><radialGradient id="P" cx="49.011971" cy="2.674308" gradientTransform="matrix(1.550633 0 0 .1873121 21.621938 -31.864287)" gradientUnits="userSpaceOnUse" r="1.724619" xlink:href="#O"/><radialGradient id="Q" cx="49.011971" cy="2.674308" gradientTransform="matrix(1.5495914 0 0 .1876849 -193.24041 -23.535874)" gradientUnits="userSpaceOnUse" r="1.724619" xlink:href="#O"/><g transform="matrix(.35892185655 -.35599140209 -.35892185655 -.35599140209 21.31164664105 89.1460551743)"><path d="m92.28125 30.75c-.775774.04483-1.564263.397431-2.1875 1.09375l-5.78125 6.4375c-.656458.73344-.995464 1.68138-1 2.59375-.06467.29584-.09375.615958-.09375.9375v39.90625c.05172 4.307741-.04464 8.514601-.125 12.53125h19.5c-.45682-4.461131-.84454-9.265593-.625-14.1875v-4.625c0-.679906-.31192-1.343747-1.15625-1.34375h-1.5c-.520967 0-.968756-.449193-.96875-1.03125v-2.46875l3.03125-3.34375c.36838-.411576.36838-1.088416 0-1.5l-1.9375-2.15625 1.4375-1.625c.36838-.411583.36838-1.088422 0-1.5l-2.53125-2.8125v-4.96875l2.53125-2.78125c.20757-.231912.27634-.542416.25-.84375.004-.03958.0312-.08418.0312-.125v-2.75c0-.07276-.0188-.118982-.0312-.1875-.002-.01638.003-.04622 0-.0625-.0117-.05147-.0131-.108172-.0312-.15625-.0454-.143187-.11582-.291241-.21875-.40625l-2.0625-2.28125 1.40625-1.5c.36839-.411584.36839-1.088408 0-1.5l-1.875-2.0625v-.90625c0-.291031.111281-.560098.28125-.75l-4.25-4.75c-.568002-.634556-1.318026-.919832-2.0938-.875z" fill="url(#z)"/><path d="m92.28125 30.75c-.775774.04483-1.564263.397431-2.1875 1.09375l-5.78125 6.4375c-.656458.73344-.995464 1.68138-1 2.59375-.06467.29584-.09375.615958-.09375.9375v39.90625c-.02666 4.272101-.05502 8.50618 0 12.53125h19.46875c-.31881-4.827549-.71619-9.776909-.71875-14.1875v-4.625c0-.679906-.31192-1.343747-1.15625-1.34375h-1.5c-.520967 0-.968756-.449193-.96875-1.03125v-2.46875l3.03125-3.34375c.36838-.411576.36838-1.088416 0-1.5l-1.9375-2.15625 1.4375-1.625c.36838-.411583.36838-1.088422 0-1.5l-2.53125-2.8125v-4.96875l2.53125-2.78125c.20757-.231912.27634-.542416.25-.84375.004-.03958.0312-.08418.0312-.125v-2.75c0-.07276-.0188-.118982-.0312-.1875-.002-.01638.003-.04622 0-.0625-.0117-.05147-.0131-.108172-.0312-.15625-.0454-.143187-.11582-.291241-.21875-.40625l-2.0625-2.28125 1.40625-1.5c.36839-.411584.36839-1.088408 0-1.5l-1.875-2.0625v-.90625c0-.291031.111281-.560098.28125-.75l-4.25-4.75c-.568002-.634556-1.318026-.919832-2.0938-.875z" style="fill:none;stroke-width:.648408;stroke-linecap:round;stroke-linejoin:round;stroke-dashoffset:4;stroke:url(#y)"/><path d="m101.95759 78.72081c-.0613.01395-.12478.02357-.1899.02357h-5.40164c-.520978 0-.949507-.455207-.949507-1.037279v-44.933017l3.207223 3.6069c-.169973.189902-.274302.439789-.274302.730813v.919412l1.856816 2.074553c.36839.411585.36839 1.073611 0 1.485188l-1.371512 1.508771 2.046712 2.286728c.10293.115003.16559.257587.211.400773.0182.04809.0306.08996.0422.141434.003.01629-.002.03078 0 .04716.0125.06852.0211.139397.0211.212161v2.734639c0 .04082-.0171.0783-.0211.117879.0263.301336-.0456.616767-.2532.848679l-2.532016 2.805368v4.950648l2.532016 2.828941c.36838.41158.36838 1.073611 0 1.485194l-1.455908 1.62664 1.941218 2.168856c.36838.411578.36838 1.073617 0 1.485193l-3.017326 3.371155v2.451749c-.000001.582059.428539 1.037279.949507 1.037279h1.519209c.84433 0 1.13941.640266 1.13941 1.320171v3.300432z" fill="url(#x)"/><path d="m93.454229 74.830007c0 .582072-.0016 3.56076-1.153599 3.56076h-.382779c-1.078915 0-1.227741-2.917881-1.227741-3.499953v-43.502911c.864141-.613122 1.892628-.727542 2.764119-.353608z" fill="url(#v)"/><path d="m92.10382 74.830007c0 .582072.908373 3.56076-.02089 3.56076h-.165081c-1.065223 0-1.227741-2.917881-1.227741-3.499953v-43.578351c.864141-.613121 1.892628-.727542 2.764119-.353608z" fill="url(#u)"/><path d="m101.95759 78.72081c-.0613.01395-.12478.02357-.1899.02357h-5.40164c-.520978 0-.949507-.455207-.949507-1.037279v-44.933017l3.207223 3.6069c-.169973.189902-.274302.439789-.274302.730813v.919412l1.856816 2.074553c.36839.411585.36839 1.073611 0 1.485188l-1.371512 1.508771 2.046712 2.286728c.10293.115003.16559.257587.211.400773.0182.04809.0306.08996.0422.141434.003.01629-.002.03078 0 .04716.0125.06852.0211.139397.0211.212161v2.734639c0 .04082-.0171.0783-.0211.117879.0263.301336-.0456.616767-.2532.848679l-2.532016 2.805368v4.950648l2.532016 2.828941c.36838.41158.36838 1.073611 0 1.485194l-1.455908 1.62664 1.941218 2.168856c.36838.411578.36838 1.073617 0 1.485193l-3.017326 3.371155v2.451749c-.000001.582059.428539 1.037279.949507 1.037279h1.519209c.84433 0 1.13941.640266 1.13941 1.320171v3.300432z" fill="url(#t)"/><g fill="none" stroke-dashoffset="4" stroke-linecap="round" stroke-linejoin="round"><path d="m92.125 30.75c-.698241.04483-1.408013.397431-2.03125 1.09375l2.59375 62.40625h10.09375c-.18092-4.773727-.54787-9.701222-.8125-14.1875l-.3125-4.625c0-.679906-.31192-1.343747-1.15625-1.34375h-1.5c-.520967 0-.968751-.449193-.96875-1.03125v-2.46875l3.03125-3.34375c.36838-.411576.36838-1.088416 0-1.5l-1.9375-2.15625 1.4375-1.625c.36838-.411583.36838-1.088422 0-1.5l-2.53125-2.8125v-4.96875l2.53125-2.78125c.20757-.231912.27634-.542416.25-.84375.004-.03958.0312-.08418.0312-.125v-2.75c0-.07276-.0188-.118982-.0312-.1875-.002-.01638.003-.04622 0-.0625-.0117-.05147-.0131-.108172-.0312-.15625-.0454-.143187-.11582-.291241-.21875-.40625l-2.03125-2.28125 1.375-1.5c.36839-.411584.36838-1.088408 0-1.5l-1.875-2.0625v-.90625c0-.291031.111278-.560098.28125-.75l-4.25-4.75c-.568002-.634556-1.239309-.919832-1.93755-.875z" opacity=".651639" stroke="url(#r)" stroke-width=".976218"/><path d="m92.28125 30.75c-.775774.04483-1.564263.397431-2.1875 1.09375l2.59375 62.40625h9.96875c-.32993-4.34704-.72202-9.092252-.6875-14.1875v-4.625c0-.679906-.31192-1.343747-1.15625-1.34375h-1.5c-.520967 0-.968756-.449193-.96875-1.03125v-2.46875l3.03125-3.34375c.36838-.411576.36838-1.088416 0-1.5l-1.9375-2.15625 1.4375-1.625c.36838-.411583.36838-1.088422 0-1.5l-2.53125-2.8125v-4.96875l2.53125-2.78125c.20757-.231912.27634-.542416.25-.84375.004-.03958.0312-.08418.0312-.125v-2.75c0-.07276-.0188-.118982-.0312-.1875-.002-.01638.003-.04622 0-.0625-.0117-.05147-.0131-.108172-.0312-.15625-.0454-.143187-.11582-.291241-.21875-.40625l-2.0625-2.28125 1.40625-1.5c.36839-.411584.36839-1.088408 0-1.5l-1.875-2.0625v-.90625c0-.291031.111281-.560098.28125-.75l-4.25-4.75c-.568002-.634556-1.318026-.919832-2.0938-.875z" opacity=".848361" stroke="url(#r)" stroke-width=".38616"/><path d="m92.21875 30.75c-.775774.04483-1.564263.397431-2.1875 1.09375l2.59375 62.40625h10.28125c-.11912-3.933346-.43155-8.592195-1-14.1875v-4.625c0-.679906-.31192-1.343747-1.15625-1.34375h-1.5c-.520967 0-.968755-.449193-.96875-1.03125v-2.46875l3.03125-3.34375c.36838-.411576.36838-1.088416 0-1.5l-1.9375-2.15625 1.4375-1.625c.36838-.411583.36838-1.088422 0-1.5l-2.53125-2.8125v-4.96875l2.53125-2.78125c.20757-.231912.27635-.542416.25-.84375.004-.03958.0312-.08418.0312-.125v-2.75c0-.07276-.0188-.118982-.0312-.1875-.002-.01638.003-.04622 0-.0625-.0117-.05147-.0131-.108172-.0312-.15625-.0454-.143187-.11582-.291241-.21875-.40625l-2.0625-2.28125 1.40625-1.5c.36839-.411584.36839-1.088408 0-1.5l-1.875-2.0625v-.90625c0-.291031.111274-.560098.28125-.75l-4.25-4.75c-.568002-.634556-1.318026-.919832-2.0938-.875z" stroke="url(#q)" stroke-width=".517284"/></g><path d="m87.510364 57.235393c0 11.286138-1.858864 20.640583-4.283671 22.262503v-37.681668c0-.321544.01286-.65703.07753-.95287.0045-.912371.35147-1.84364 1.007922-2.57708l.62026-.692996c1.53845 3.854473 2.577956 11.204342 2.577956 19.642111z" fill="url(#p)" opacity=".639344"/><path d="m93.457053 73.887722v-42.747967" fill="none" stroke="url(#o)" stroke-width=".140303"/><path d="m90.621512 73.808114v-42.747971" fill="none" stroke="url(#m)" stroke-width=".429921"/><path d="m92.25 30.4375c-.860889.04975-1.72866.430455-2.40625 1.1875l-5.78125 6.4375c-.697324.779098-1.043069 1.777848-1.0625 2.75-.00041.02053.000102.042 0 .0625-.06173.305701-.09375.617545-.09375.9375v39.90625c-.02666 4.272003-.05508 8.501551 0 12.53125-.0014.114802.05805.221775.15625.28125.04867.02325.102378.03399.15625.03125h19.46875c.0874-.003.16993-.04121.22878-.10594.0588-.06473.089-.150492.0837-.23781-.31902-4.830686-.7162-9.764991-.71875-14.15625v-4.625c0-.389531-.0734-.798093-.3125-1.125-.23907-.326907-.64912-.531248-1.15625-.53125h-1.5c-.334608 0-.656254-.302973-.65625-.71875v-2.3125l2.96875-3.28125c.48618-.543189.48618-1.394305 0-1.9375l-1.75-1.9375 1.25-1.40625c.48618-.543194.48618-1.39431 0-1.9375l-2.46875-2.75v-4.65625l2.46875-2.71875c.26285-.29368.29813-.680458.28125-1.03125h.0312c-.001-.0197.002-.04299 0-.0625.0101-.01369.0312.02013.0312-.09375v-2.75c0-.1127-.021-.176729-.0312-.21875.00059-.0047-.00017-.02359 0-.03125.00034-.01532.006-.02619 0-.0625-.001-.0061-.003-.0955-.0312-.1875-.003-.008.003-.02321 0-.03125-.0553-.166969-.14182-.344212-.28125-.5l-1.875-2.0625 1.21875-1.28125c.48619-.543191.48618-1.394303 0-1.9375l-1.8125-2v-.75c0-.208387.103376-.402345.21875-.53125.113212-.123862.113212-.313638 0-.4375l-4.25-4.75c-.630324-.704265-1.508107-1.018847-2.37498-.96875zm.0625 1.625c.684675-.03957 1.30694.216403 1.8125.78125l4.125 3.625c-.109668.204535-.21875.404831-.21875.65625v.90625c-.0063.07807.01593.155776.0625.21875l1.875 2.0625c.2506.279987.25059.782523 0 1.0625l-1.40625 1.5c-.01264.01965-.02312.0406-.03125.0625-.0706.118877-.05806.269449.03125.375l2.0625 2.28125c.0597.06673.12057.168729.15625.28125-.0005.01041-.0005.02084 0 .03125-.01-.02536.01-.0021.0312.09375.00036.01233-.003.0095 0 .03125-.0005.01041-.0005.02084 0 .03125.0181.09961.0312.107988.0312.125v2.75c0-.103426-.0149-.06802-.0312.09375-.002.02078-.002.04172 0 .0625.0204.233321-.0521.442477-.1875.59375l-2.53125 2.78125c-.04657.06297-.06877.140678-.0625.21875v4.96875c-.0063.07807.01593.155776.0625.21875l2.53125 2.8125c.25058.279966.25058.782528 0 1.0625l-1.4375 1.625c-.113212.123862-.113212.313638 0 .4375l1.9375 2.15625c.25058.279973.25058.782537 0 1.0625l-3.0312 3.34375c-.04657.06297-.06877.140678-.0625.21875v2.46875c-.000008.748337.573924 1.34375 1.28125 1.34375h1.5c.3372.000001.49703.106259.625.28125s.21875.459625.21875.75v4.625c.003 4.322608.37312 9.161683.6875 13.875h-18.8125c-.04958-3.930372-.02599-8.05309 0-12.21875v-39.90625c-.000001-.301997.03517-.607024.09375-.875.002-.02078.002-.04172 0-.0625.0041-.83318.336631-1.703668.9375-2.375l5.78125-5.4375c.568884-.635593 1.278091-.960087 1.96875-1z" fill="url(#l)"/><path d="m92.25 30.4375c-.860889.04975-1.72866.430455-2.40625 1.1875l-5.78125 6.4375c-.697324.779098-1.043069 1.777848-1.0625 2.75-.00041.02053.000102.042 0 .0625-.06173.305701-.09375.617545-.09375.9375v39.90625c-.02666 4.272003-.05508 8.501551 0 12.53125-.0014.114802.05805.221775.15625.28125.04867.02325.102378.03399.15625.03125h19.46875c.0874-.003.16993-.04121.22878-.10594.0588-.06473.089-.150492.0837-.23781-.31902-4.830686-.7162-9.764991-.71875-14.15625v-4.625c0-.389531-.0734-.798093-.3125-1.125-.23907-.326907-.64912-.531248-1.15625-.53125h-1.5c-.334608 0-.656254-.302973-.65625-.71875v-2.3125l2.96875-3.28125c.48618-.543189.48618-1.394305 0-1.9375l-1.75-1.9375 1.25-1.40625c.48618-.543194.48618-1.39431 0-1.9375l-2.46875-2.75v-4.65625l2.46875-2.71875c.26285-.29368.29813-.680458.28125-1.03125h.0312c-.001-.0197.002-.04299 0-.0625.0101-.01369.0312.02013.0312-.09375v-2.75c0-.1127-.021-.176729-.0312-.21875.00059-.0047-.00017-.02359 0-.03125.00034-.01532.006-.02619 0-.0625-.001-.0061-.003-.0955-.0312-.1875-.003-.008.003-.02321 0-.03125-.0553-.166969-.14182-.344212-.28125-.5l-1.875-2.0625 1.21875-1.28125c.48619-.543191.48618-1.394303 0-1.9375l-1.8125-2v-.75c0-.208387.103376-.402345.21875-.53125.113212-.123862.113212-.313638 0-.4375l-4.25-4.75c-.630324-.704265-1.508107-1.018847-2.37498-.96875zm.0625 1.625c.684675-.03957 1.30694.216403 1.8125.78125l4.125 3.625c-.109668.204535-.21875.404831-.21875.65625v.90625c-.0063.07807.01593.155776.0625.21875l1.875 2.0625c.2506.279987.25059.782523 0 1.0625l-1.40625 1.5c-.01264.01965-.02312.0406-.03125.0625-.0706.118877-.05806.269449.03125.375l2.0625 2.28125c.0597.06673.12057.168729.15625.28125-.0005.01041-.0005.02084 0 .03125-.01-.02536.01-.0021.0312.09375.00036.01233-.003.0095 0 .03125-.0005.01041-.0005.02084 0 .03125.0181.09961.0312.107988.0312.125v2.75c0-.103426-.0149-.06802-.0312.09375-.002.02078-.002.04172 0 .0625.0204.233321-.0521.442477-.1875.59375l-2.53125 2.78125c-.04657.06297-.06877.140678-.0625.21875v4.96875c-.0063.07807.01593.155776.0625.21875l2.53125 2.8125c.25058.279966.25058.782528 0 1.0625l-1.4375 1.625c-.113212.123862-.113212.313638 0 .4375l1.9375 2.15625c.25058.279973.25058.782537 0 1.0625l-3.0312 3.34375c-.04657.06297-.06877.140678-.0625.21875v2.46875c-.000008.748337.573924 1.34375 1.28125 1.34375h1.5c.3372.000001.49703.106259.625.28125s.21875.459625.21875.75v4.625c.003 4.322608.37312 9.161683.6875 13.875h-18.8125c-.04958-3.930372-.02599-8.05309 0-12.21875v-39.90625c-.000001-.301997.03517-.607024.09375-.875.002-.02078.002-.04172 0-.0625.0041-.83318.336631-1.703668.9375-2.375l5.78125-5.4375c.568884-.635593 1.278091-.960087 1.96875-1z" fill="url(#k)"/></g><path d="m89.015378 90.416233c7.126728-2.12408 14.532082-1.535658 18.561552 0" fill="none" filter="url(#j)" stroke="#000" transform="matrix(.35892185655 -.35599140209 -.35892185655 -.35599140209 19.37346812599 91.06840511773)"/><g clip-path="url(#i)" transform="matrix(.35892185655 -.35599140209 -.35892185655 -.35599140209 21.31164664105 89.1460551743)"><path d="m83.264265 89.994244c2.043322-1.347028 13.105978-2.345663 18.912665-.178011" fill="none" filter="url(#h)" opacity=".722847" stroke="#000" transform="matrix(1.0092927 0 0 .9976796 -.951229 .206677)"/><g fill-rule="evenodd"><path d="m81.396569 90.28125c-3.137843 1.306936-6.250126 4.07431-7.902518 7.125-2.469173 4.55865-6.435612 13.18085-8.635742 21.6875-.492165 1.90291-.84446 6.10228 2.389765 6.59375 16.898613 2.42267 34.072606 2.27319 50.972606 0 3.23422-.49147 2.88193-4.69084 2.38976-6.59375-2.20013-8.50665-6.16657-17.12884-8.63574-21.6875-1.65239-3.050691-4.76468-5.818068-7.90252-7.125-7.17596-2.62152-15.497682-2.656795-22.675611 0zm29.654811 24.8125c.81984.12458 1.31502.5887 1.60223 1.1875.0362.13529.0737.27101.10863.40625.10681.41301.19699.96687.21725 1.5625-.0192.60054-.10964 1.17766-.21725 1.59375-.035.13524-.0724.27096-.10863.40625-.28782.59479-.78612 1.06348-1.60223 1.1875-12.143013 1.72811-24.49009 1.63048-36.634011 0-.816111-.12402-1.314407-.59271-1.602229-1.1875-.03619-.13529-.07365-.27101-.108625-.40625-.107617-.41609-.198006-.99321-.217252-1.59375.02026-.59563.110431-1.14949.217252-1.5625.03498-.13524.07243-.27096.108625-.40625.287207-.5988.78239-1.06292 1.602229-1.1875 12.143013-1.72811 24.490091-1.63048 36.634011 0z"/><path d="m73.812501 121.5625c13.554873 1.85914 26.610809 2.09519 38.999999-.375-.39393.52084-.38025 1.04969-1.64707 1.37921-10.1038 2.62818-25.106772 3.70467-36.192741.13241-.840824-.27094-.992012-.72546-1.160188-1.13662z" fill="url(#g)" filter="url(#e)" opacity=".722847"/><path d="m92.818926 89.196383c-3.714448-.0042-7.434111.613873-10.874672 1.887339-3.008097 1.252893-5.995256 3.905833-7.579317 6.830373-1.479416 2.731345-3.525479 6.976785-5.362442 11.773405 22.036258-18.747383 26.22841-2.79034 45.086455-5.9616-1.03461-2.28277-2.02586-4.297665-2.84599-5.811805-1.58406-2.924541-4.57123-5.577484-7.57932-6.830373-3.43961-1.256558-7.130267-1.883113-10.844714-1.887339z" fill="url(#d)" filter="url(#c)" opacity=".397004"/><path d="m92.731736 88.3125c-3.87467-.0044-7.75478.640353-11.34375 1.96875-3.13784 1.306936-6.25385 4.07431-7.90625 7.125-2.46917 4.55865-6.42487 13.18085-8.625 21.6875-.22175.85739-.4003 2.16567-.25 3.40625.05948-.52963.14939-1.01725.25-1.40625 2.20013-8.50665 6.15583-17.12885 8.625-21.6875 1.6524-3.05069 4.76841-5.818064 7.90625-7.125 7.17793-2.656795 15.51154-2.62152 22.687504 0 3.13784 1.306932 6.25385 4.074309 7.90625 7.125 2.46917 4.55866 6.42488 13.18085 8.625 21.6875.10254.39644.19077.89601.25 1.4375.15783-1.25009-.0263-2.57248-.25-3.4375-2.20012-8.50665-6.15583-17.12884-8.625-21.6875-1.6524-3.050691-4.76841-5.818068-7.90625-7.125-3.58798-1.31076-7.469084-1.964341-11.343754-1.96875zm-20.125 30.9375c-.05219.30944-.11265.63716-.125 1 .01924.60054.11113 1.17766.21875 1.59375.03498.13524.08881.27096.125.40625.28783.59479.77765 1.06348 1.59375 1.1875 12.14392 1.63048 24.48199 1.72811 36.625004 0 .81611-.12402 1.30593-.59271 1.59375-1.1875.0362-.13529.09-.27101.125-.40625.10761-.41609.19949-.99321.21875-1.59375-.011-.32295-.0502-.62365-.0937-.90625-.0311.17929-.0873.35429-.125.5-.035.13524-.0888.27096-.125.40625-.28782.59479-.77764 1.06348-1.59375 1.1875-12.143014 1.72811-24.481084 1.63048-36.625004 0-.8161-.12402-1.30592-.59271-1.59375-1.1875-.03619-.13529-.09002-.27101-.125-.40625-.04433-.1714-.05903-.37732-.09375-.59375z" fill="url(#b)" opacity=".539326"/></g></g><path d="m85.900001 106.5h23.749999" fill="none" filter="url(#a)" stroke="#fff" stroke-width=".4" transform="matrix(.35892185655 -.35599140209 -.35892185655 -.35599140209 19.37346812599 91.06840511773)"/><g transform="matrix(.48038882 0 0 .48038882 -4.776393 -15.744095)"><g fill-rule="evenodd"><path d="m90.067703 48.28801c.613642-.692125 4.648657-.363057 8.944253 3.536477 4.337724 3.937759 5.210074 7.748115 4.441394 8.615025-.5003.564284-1.00061 1.128566-1.50092 1.692851-4.461914-4.050501-8.9238-8.101002-13.385691-12.151503.500309-.564283 1.000624-1.128565 1.500964-1.69285z" fill="#bf0000"/><path d="m36.000762 124 20.247-9.42653.09417-.10772-13.269004-12.28446-.127672.1459z" fill="#b3925d"/><path d="m97.750257 56.002191c-1.025821-.04502-1.882013.614542-2.665637.986566-4.174912 3.698786-21.569273 21.653428-22.000397 22.168708l-17.273332 20.659839-.106627.116066-9.682256 17.6334 23.598527-5.26172 29.942357-36.049248 3.589728-4.294461c.64726-1.199814 1.23861-7.813473-1.74155-12.76732-1.452992-2.415269-2.634989-3.146806-3.660813-3.19183zm5.402363 15.95915c-.0266.04924-.0446.143824-.0711.174098-.0129.01476 1.49247-1.049396.6753-.870498l-.60421.6964z" fill="url(#A)" filter="url(#B)"/><path d="m37.004018 123.01573 18.885171-8.78019.09416-.10769-12.551842-11.60866-.12769.14592-6.299801 20.35062z" fill="url(#C)"/></g><path d="m49.164276 108.94499c1.648961 1.50106 2.755448 1.51054 3.34488 2.0471.09525.0867.175312.18851.243795.29167l44.639991-51.266458-6.480524-5.899315-44.724863 51.363483c.214748.0564.415855.13454.602285.30424.538767.49045.717813 1.65124 2.374436 3.15928z" fill="url(#D)"/><path d="m54.219542 109.12044-1.750182 2.00168c.538752.53092.431653 1.46553 1.421976 2.36702 1.067261.97156 1.630178.45849 2.321697 1.08447l1.771382-2.02599z" opacity=".353488"/><path d="m97.156354 59.801933-44.606049 51.227617c.541583.53354.517441 1.37742 1.512824 2.28353 1.072712.97652 1.555044.55628 2.250088 1.18547l44.627263-51.251869z" fill="url(#E)"/><path d="m47.641192 104.81388-.897802 1.02682-.0345.0376c.447512.42018.395724 1.39005 1.878296 2.86086l.08229.0749.586334.53373.0823.0749c1.616252 1.35012 2.54668 1.16726 3.136095 1.7038l.947655-1.09585-5.780669-5.21679z" fill="#252525" opacity=".386047"/><path d="m43.884886 101.37497-.940801.95531c.02064.0187-.05311.1047-.03237.12358.423005.38509.412824 1.36825 1.189787 2.20191l.072.0655.318878.29029.04115.0374c.925767.72156 1.702344.46358 2.175362.82926l.940872-1.07609-3.764879-3.42723z" fill="#131313" opacity=".353488"/><path d="m44.501995 104.6749c1.032229.92922 1.738227.6105 2.287845 1.11081l44.606065-51.227604-3.824461-3.481452-44.627276 51.251876c.02096.019.04162.0379.06269.0571.42971.39116.455145 1.35294 1.495139 2.28929z" fill="url(#F)"/><path d="m99.380959-24.64492h18.073059v4.252269h-18.073059z" fill="url(#G)" transform="matrix(.7409346 .6715772 -.6655662 .7463388 0 0)"/><ellipse cx="34.677639" cy="7.462277" fill="url(#H)" filter="url(#I)" rx="47.495197" ry=".971422" transform="matrix(.3854946 -.4403693 -1.7345162 -1.5764895 62.874028 110.46407)"/><path d="m106.56087 7.4622769a71.883232.4230493 0 0 1 -71.318597.4230363 71.883232.4230493 0 0 1 -72.438996-.4163905 71.883232.4230493 0 0 1 70.180601-.4295776 71.883232.4230493 0 0 1 73.541512.4096419" fill="url(#J)" transform="matrix(.3184879 -.3665274 -1.2576415 -1.1452705 66.925762 101.47904)"/><path d="m44.721041 119.98334c-1.894932-.77816-4.469372-3.93608-5.787909-5.07837l-2.933131 9.08971z" fill="url(#K)" fill-rule="evenodd"/><path d="m97.676422 50.957862c2.773338 2.157871 4.754818 5.136648 4.863888 5.422718.10904.286071-2.586875-3.046365-4.878244-4.572341-2.273846-1.514326-5.450917-1.552229-5.685693-1.736594-.234782-.184361-1.822614-1.877275-.38221-1.814774 1.506596.06537 3.94013 1.035831 6.082259 2.700991z" fill="url(#L)" fill-rule="evenodd"/><path d="m93.653015 51.592952-2.773744 3.218036 6.482458 5.873697 2.773741-3.186793z" fill="url(#M)"/><path d="m104.60918-25.364759h7.795228v1.708078h-7.795228z" fill="url(#N)" transform="matrix(.7404161 .6721488 -.6634233 .7482443 0 0)"/><path d="m94.946716-31.829779h5.348458v1.162492h-5.348458z" fill="url(#P)" transform="matrix(.6942228 .7197602 -.7693435 .6388354 0 0)"/><path d="m-119.96733-23.501301h5.3449v1.164788h-5.3449z" fill="url(#Q)" transform="matrix(-.7514575 -.6597815 -.5893147 .8079036 0 0)"/></g></svg>