<svg height="128" viewBox="0 0 33.866666 33.866668" width="128" xmlns="http://www.w3.org/2000/svg" xmlns:xlink="http://www.w3.org/1999/xlink"><linearGradient id="a" gradientUnits="userSpaceOnUse" x1="16.93333376" x2="16.93333376" y1="25.40000064" y2="12.70000032"><stop offset="0" stop-color="#0b0b0b"/><stop offset="1" stop-color="#1d1d1d"/></linearGradient><linearGradient id="b" gradientTransform="matrix(.26458334 0 0 .29398149 0 -1.528704)" gradientUnits="userSpaceOnUse" x1="64" x2="64" y1="88" y2="56"><stop offset="0" stop-color="#7f7f81"/><stop offset=".44999999" stop-color="#b6b6b7"/><stop offset=".67499995" stop-color="#f5f5f5"/><stop offset="1" stop-color="#cfcfcf"/></linearGradient><linearGradient id="c" gradientUnits="userSpaceOnUse" x1="17.99166712" x2="17.99166712" y1="1.05833336" y2="12.70000032"><stop offset="0" stop-color="#fff"/><stop offset=".54545456" stop-color="#ebebeb"/><stop offset=".90909094" stop-color="#bababa"/><stop offset="1" stop-color="#7e7e7f"/></linearGradient><linearGradient id="d" gradientTransform="matrix(.24052172 0 0 .26458334 1.589963 .000002)" gradientUnits="userSpaceOnUse" x1="64" x2="64" y1="48" y2="72"><stop offset="0" stop-color="#6e4388"/><stop offset=".21062189" stop-color="#651d8d"/><stop offset=".5" stop-color="#ac7ec6"/><stop offset=".66666639" stop-color="#ca87dc"/><stop offset="1" stop-color="#ebeaeb"/></linearGradient><linearGradient id="e" gradientUnits="userSpaceOnUse" x1="17.99166712" x2="17.84235665582" y1="31.7500008" y2="24.77217638876"><stop offset="0" stop-color="#fefefe"/><stop offset=".5" stop-color="#f7f7f7"/><stop offset=".91002578" stop-color="#8c8c8c"/><stop offset="1" stop-color="#666"/></linearGradient><linearGradient id="f" gradientTransform="matrix(.26458334 0 0 .16558712 0 6.731744)" gradientUnits="userSpaceOnUse" x1="52" x2="76" y1="72" y2="72"><stop offset="0"/><stop offset=".66666669" stop-color="#a6a6a6" stop-opacity=".866667"/><stop offset="1" stop-opacity=".737089"/></linearGradient><linearGradient id="g" gradientUnits="userSpaceOnUse" x1="16.93333376" x2="16.93333376" y1="11.64166696" y2="16.93333376"><stop offset="0" stop-color="#baaac4"/><stop offset="1" stop-color="#baaac4" stop-opacity="0"/></linearGradient><linearGradient id="h" gradientUnits="userSpaceOnUse" x1="36.583771" x2="36.70597" y1="292.853583" y2="234.862886"><stop offset="0" stop-color="#cdcdcd"/><stop offset=".38350943" stop-color="#d9dbde"/><stop offset="1" stop-color="#f5f5f5"/></linearGradient><g transform="matrix(.5 0 0 .5 -.025564 -114.4457)"><g stroke-width=".478399"><path d="m12.05807 232.79298c-.38004 0-.73149.0981-1.01367.28711-.28218.18905-.51172.50211-.51172.8789v58.34961c0 .3768.23136.68851.51367.87696.28232.18844.63215.28711 1.01172.28711h43.61524c.37957 0 .73099-.0989 1.01367-.28711.28268-.18822.51367-.49945.51367-.87696v-42.66601a.4385371.4385371 0 0 0 -.1289-.31055l-16.40821-16.41015a.4385371.4385371 0 0 0 -.31054-.12891zm31.91797 0a.4385371.4385371 0 0 0 -.31054.75l12.78515 12.78515a.4385371.4385371 0 0 0 .75-.31054v-12.0586c0-.3775-.23113-.69007-.51367-.8789s-.63363-.28711-1.01367-.28711z" fill="#545b70"/><path d="m12.05882 233.23338c-.60238 0-1.08761.32349-1.08761.72508v58.34972c0 .40159.48523.72508 1.08761.72508h43.61466c.60237 0 1.08761-.32349 1.08761-.72508v-42.66533l-16.40853-16.40947zm31.91724 0 12.78503 12.78504v-12.05996c0-.40159-.48523-.72508-1.08761-.72508z" fill="url(#h)"/><path d="m12.05869 233.23333c-.60238 0-1.08727.32343-1.08727.72502v.1633c0-.40048.48489-.72295 1.08727-.72295h28.29388l16.4083 16.36437v-.1204l-16.4083-16.40934zm31.91743 0 .16537.16537h11.53211c.60238 0 1.08727.32247 1.08727.72295v-.1633c0-.40159-.48489-.72502-1.08727-.72502z" fill="#f7f7f8"/></g><path d="m12.05818 232.79305c-.38004 0-.73172.0978-1.01389.2868-.28218.18905-.5116.50223-.5116.87902v58.34993c0 .3768.23135.68849.51366.87694.28232.18845.63226.28681 1.01183.28681h2.04225v-60.6795z" stroke-width=".613822"/></g><g transform="matrix(.5 0 0 .5 14.287501 16.404167)"><rect height="1.068127" rx=".054608" ry=".108462" width="23.283333" x="5.291667" y="29.633333"/><rect fill="#1d1d1d" height="4.547094" rx="2.116667" transform="scale(1 -1)" width="29.633333" x="2.116667" y="-15.875"/><rect fill="url(#a)" height="11.641666" rx=".058809" ry=".080616" width="29.633333" x="2.116667" y="13.758333"/><rect fill="#b6b6b6" height="4.547094" rx="1.965476" ry="2.116667" transform="scale(1 -1)" width="27.516666" x="3.175" y="-15.875"/><rect fill="url(#b)" height="10.583333" rx=".054608" ry=".073287" width="27.516666" x="3.175" y="13.758333"/><rect fill="#111012" height="8.878242" rx=".054608" ry=".079045" width="19.049999" x="7.408333" y="4.233334"/><rect fill="#3e3c41" height="7.408333" rx=".048541" ry=".065958" width="16.933334" x="8.466666" y="5.291667"/><rect fill="#28232c" height="3.497881" rx=".055035" ry=".072666" width="24.531763" x="4.740078" y="11.318785"/><rect fill="#9f9f9f" fill-opacity=".996078" height="13.758333" rx=".06371" ry=".077951" width="14.816667" x="9.525"/><rect fill="url(#c)" height="11.641666" rx=".054608" ry=".065958" width="12.7" x="10.583334" y="1.058333"/><path d="m5.3917057 11.862858h23.1832953c.0275 0 .04964.04105.04964.09205v3.298886c0 .05099-.03322.07-.04964.09204l-1.970778 2.645833.09624 1.5875h-19.4342256l.096246-1.5875-1.9707781-2.645833c-.017928-.02407-.049642-.04105-.049642-.09204v-3.298886c0-.05099.02214-.09205.049642-.09205z" style="stroke:#1f1f1f;stroke-width:.79375;stroke-linecap:square;stroke-linejoin:round;stroke-opacity:.866667;fill:url(#d)"/><g fill-rule="evenodd"><path d="m5.8208334 24.341667-.5291667 5.291667h23.2833343l-.529167-5.291667z" fill="#424245"/><path d="m7.9212327 24.34653-1.1407241 7.564911h20.5330354l-1.140725-7.564911z" fill="#434343"/><path d="m8.471829 24.34653-1.057688 6.87841h19.038385l-1.057688-6.87841z" fill="url(#e)"/></g><rect height="2.261332" rx=".054608" ry=".070466" width="19.049999" x="7.408333" y="22.225424"/><rect fill="url(#f)" height="1.324697" rx=".054608" ry=".041279" width="6.35" x="13.758333" y="17.991667"/><rect fill="url(#g)" height="4.278507" opacity=".92" rx=".081912" ry=".266648" width="12.7" x="10.583334" y="12.098289"/><rect fill="#986aae" height="2.718378" rx=".074396" ry=".169417" width="11.534631" x="11.185044" y="12.098289"/><rect fill="#c9b1d5" height="2.230823" rx=".06826" ry=".139031" width="10.583333" x="11.641666" y="12.098289"/><rect fill="#1d1d1d" height="1.569562" rx=".06826" ry=".097819" width="10.583333" x="11.641666" y="11.641666"/><path d="m7.4083334 22.225-.142096-2.645834h19.4342296l-.242133 2.645834z" fill="#545156" fill-rule="evenodd"/></g></svg>