<svg height="24" viewBox="0 0 6.3499999 6.3500002" width="24" xmlns="http://www.w3.org/2000/svg" xmlns:xlink="http://www.w3.org/1999/xlink"><filter id="a" color-interpolation-filters="sRGB" height="1.144" width="1.144" x="-.072" y="-.072"><feGaussianBlur stdDeviation=".53285158"/></filter><g transform="translate(0 -290.64998)"><path d="m10.159705 1.2788438c-4.8945148 0-8.880859 3.9863442-8.880859 8.8808592a.88128778.88128778 0 0 0 0 .0039c.00333.94308.1571399 1.879234.4550782 2.773438a.88128778.88128778 0 0 0 .3808593.474609.88128778.88128778 0 0 0 .056641.611328c1.4801502 3.063348 4.5860954 5.014223 7.9882805 5.017584 2.581388-.0011 5.036843-1.125245 6.722656-3.080078a.88128778.88128778 0 0 0 .212891-.554687.88128778.88128778 0 0 0 .470703-.353516c.959926-1.450857 1.472855-3.152904 1.474609-4.892578 0-4.894515-3.986344-8.8808592-8.880859-8.8808592zm0 .8808594c4.41828 0 8 3.58172 8 7.9999998-.0016 1.56713-.463405 3.09929-1.328125 4.40625-2.33466-1.30576-4.091162-2.953009-6.107422-3.824219-.72405-.31286-1.4921356-.508797-2.3164056-.529297-.8242802-.0205-1.7061133.133545-2.6582032.521485-.96784.39436-2.0132476 1.018608-3.1796876 1.923828-.2684299-.80564-.4071562-1.648877-.4101562-2.498047 0-4.4182798 3.58172-7.9999998 7.9999996-7.9999998zm2.5 2.1171875c-1.246793 0-2.380859 1.1340661-2.380859 2.3808594 0 1.2467932 1.134066 2.3808591 2.380859 2.3808591s2.380859-1.1340659 2.380859-2.3808591c0-1.2467933-1.134066-2.3808594-2.380859-2.3808594zm0 .8808594a1.5 1.5 0 0 1 1.5 1.5 1.5 1.5 0 0 1 -1.5 1.5 1.5 1.5 0 0 1 -1.5-1.5 1.5 1.5 0 0 1 1.5-1.5zm-4.2753906 6.0371089c.68001.01744 1.30859.190574 1.9433596.464844 1.73607.75014 3.482288 2.378789 5.886719 3.724609-1.518862 1.76124-3.728978 2.774391-6.054688 2.775391-3.0663896-.003-5.8612521-1.758541-7.1953121-4.519531 1.2015-.95456 2.2531325-1.609309 3.1640625-1.980469.8444-.34406 1.5758398-.482244 2.255859-.464844z" fill="#0a0a0a" filter="url(#a)" transform="matrix(.26458333 0 0 .26458333 .486911 291.13689)"/><g fill="#fff"><path d="m3.8364582 292.50155a.396875.396875 0 0 0 -.396875.39687.396875.396875 0 0 0 .396875.39688.396875.396875 0 0 0 .396875-.39688.396875.396875 0 0 0 -.396875-.39687zm-1.1311968 1.59731c-.1799219-.005-.3734488.032-.5968629.12299-.2410169.0982-.5192607.27144-.8371576.524.3529701.73051 1.0924434 1.19499 1.903759 1.19579.6153441-.00026 1.200105-.26832 1.6019701-.73432-.6361721-.35608-1.0981928-.78699-1.557528-.98547-.1679495-.0726-.3342613-.11837-.5141806-.12299z"/><path d="m3.1749999 291.70831c-1.1690031 0-2.1166666.94766-2.1166666 2.11667.0007938.22467.037499.44778.1085215.66094.3086206-.23951.5852161-.40467.8412904-.50901.2519071-.10265.4852273-.1434.703318-.13798.2180882.005.4213092.0573.6128808.14004.5334688.23051.998212.66635 1.6159242 1.01183.2287905-.3458.3509803-.75119.3513984-1.16582 0-1.16901-.9476634-2.11667-2.1166667-2.11667zm.6614583.52865a.66145833.66145833 0 0 1 .6614584.66146.66145833.66145833 0 0 1 -.6614584.66146.66145833.66145833 0 0 1 -.6614583-.66146.66145833.66145833 0 0 1 .6614583-.66146z" opacity=".3"/></g></g></svg>