<svg height="24" viewBox="0 0 24 24" width="24" xmlns="http://www.w3.org/2000/svg" xmlns:xlink="http://www.w3.org/1999/xlink"><linearGradient id="a"><stop offset="0" stop-color="#fff"/><stop offset="1" stop-color="#fff" stop-opacity="0"/></linearGradient><linearGradient id="b" gradientUnits="userSpaceOnUse" x1="604.28386400032" x2="607.02226733481" xlink:href="#a" y1="953.22524240246" y2="1087.0605685461"/><filter id="c" color-interpolation-filters="sRGB" height="1.120804" width="1.17822" x="-.08911" y="-.060402"><feGaussianBlur stdDeviation=".52690658"/></filter><linearGradient id="d" gradientUnits="userSpaceOnUse" x1="612.4575385811" x2="616.67003626016" xlink:href="#a" y1="963.62424157254" y2="1060.16160720972"/><filter id="e" color-interpolation-filters="sRGB" height="1.14508" width="1.142936" x="-.071468" y="-.07254"><feGaussianBlur stdDeviation=".30059235"/></filter><g transform="translate(-593 -955.36377)"><path d="m12.052734 1.5332031c-1.73434-.01794-3.4740709.6108113-4.8632809 1.8632813-1.50713 1.35875-2.2773362 3.1003306-2.2851562 5.1503906-.00513 1.33626.2637381 2.219612 1.2675781 4.138672.60584 1.15821 1.2490275 2.803714 1.3359375 3.208984l.265625 1.234375a.97009947.97009947 0 0 0 .2363281.453125c-.10934.18824-.3007812.328151-.3007812.494141 0 .1265.1599956.229723.2285156.376953-.002.0022-.013632.01557-.013672.01563-.00037.00046-.1443512.247587-.1445312.248047-.00019.00046-.070312.360868-.070312.361328 0 .20983.025886.237911.041016.300781.01513.06286.030508.118205.048828.177735.03663.11906.080579.247876.1308594.378906.07129.18578.2705394.328229.4433594.480469a.97009947.97009947 0 0 0 .4648437 1.05664l.7675782.4375c.7103702.40489 1.5333622.556504 2.3574222.558594.82406.0021 1.64989-.145762 2.36914-.539062l.81836-.447266a.97009947.97009947 0 0 0 .501953-.822266c.02215-.01671.04283-.03129.06836-.05469.04013-.03677.13053-.146035.130859-.146485.000331-.00046.128737-.239774.128907-.240234s.05859-.331571.05859-.332031c0 .17508-.01463.150574-.01367.146484.00096-.0041.0078-.02991.01758-.0625.0196-.06517.05214-.159967.08594-.248047.0454-.11831.106835-.292104.08398-.552734-.01609-.18353-.151348-.353621-.267579-.519531.13968-.21056.34961-.381309.34961-.574219 0-.16598-.191451-.305901-.300781-.494141a.97009947.97009947 0 0 0 .236328-.453125l.277343-1.289062c.09975-.46515.691217-1.963351 1.222657-2.931641.98609-1.79671 1.470183-3.5163417 1.345703-5.1386718-.1244697-1.6223319-.8890217-3.0986188-2.1699217-4.2792988-1.38481-1.27647-3.119636-1.9390813-4.853516-1.9570313zm-.0098.96875c1.495795.015481 2.992788.5837319 4.205078 1.7011719 2.26931 2.09177 2.481712 4.8675281.632812 8.236328-.57573 1.04899-1.170185 2.488106-1.322265 3.197266l-.277309 1.289062h-3.279297-3.2792968l-.265625-1.234375c-.14566-.67924-.7868212-2.235511-1.4257812-3.457031-.98953-1.89171-1.16103-2.4374138-1.15625-3.6835938.007-1.8351699.6221437-3.2230837 1.9648438-4.4335937 1.2116399-1.092365 2.7073302-1.6307156 4.2031252-1.6152344zm.308593 1.1679688c-2.19348-.1036956-4.4542745 1.1447937-5.210937 3.4375-.43267 1.31099-.130665 2.7497437 1.015625 4.8398441.54107.98656 1.1152906 2.28045 1.2753906 2.875l.2910156 1.082031h2.2792968 2.28125l.291016-1.082031c.1601-.59455.732367-1.88844 1.273437-2.875 1.57707-2.8755904 1.587743-4.7219404.03906-6.5625004-.92832-1.10325-2.219068-1.6526264-3.535157-1.7148437zm-.05273.9648437c1.069156.046982 2.100668.489565 2.845703 1.375.67065.79704.930582 1.4518619.925781 2.2636719-.0048.81181-.325425 1.8472145-1.072265 3.2089845-.57436 1.04725-1.142198 2.276084-1.361328 3.089844l-.09766.361328h-1.537109-1.535156l-.09766-.361328c-.219602-.81567-.7893636-2.043454-1.3632436-3.089844-1.09046-1.9883001-1.2676394-3.0877426-.9433594-4.0703126.48751-1.47716 1.7412325-2.4129994 3.164062-2.6933594.355646-.070078.715881-.099645 1.072266-.083984zm-.296844 13.0585934c2.78247 0 3.322266.06171 3.322266.382813 0 .32105-.539796.382812-3.322266.382812-2.7824699 0-3.3222655-.06181-3.3222655-.382812 0-.32105.5397956-.382813 3.3222655-.382813zm.02734 1.277344c2.94911 0 3.329939.0484 3.193359.404297-.0853.22231-.154297.450986-.154297.509766 0 .0588-1.367582.107422-3.039062.107422-2.5355001 0-3.0639595-.0671-3.1933595-.404297-.0853-.22231-.15625-.452939-.15625-.511719 0-.0588 1.5075095-.105469 3.3496095-.105469zm-.02734 1.550781c.486313 0 .972872.01195 1.341797.0332l1.341797.07617-.818359.447266c-1.030561.56353-2.782951.559234-3.78125-.0098l-.7675786-.4375 1.3417966-.07617c.368925-.02125.855485-.0332 1.341797-.0332z" fill="#0a0a0a" filter="url(#c)" stroke-width=".255533" transform="matrix(.96037825 0 0 .96037825 593.47545 955.83926)"/><path d="m603.16147 976.07258-.73622-.41965 1.28839-.0741c.70862-.0408 1.86818-.0408 2.57679 0l1.2884.0741-.7854.42946c-.98973.54121-2.67321.53666-3.63196-.01zm-1.20078-1.42136c-.0819-.2135-.14896-.43437-.14896-.49082 0-.0565 1.44745-.10263 3.21656-.10263 2.83227 0 3.19877.0464 3.06761.38819-.0819.2135-.14896.43437-.14896.49082 0 .0565-1.31339.10262-2.91865.10262-2.43503 0-2.94332-.0643-3.0676-.38818zm-.14896-1.45226c0-.30833.51808-.36811 3.19031-.36811 2.67222 0 3.19031.0597 3.19031.36811 0 .30833-.51809.36812-3.19031.36812-2.67223 0-3.19031-.0598-3.19031-.36812zm-.2137-2.29036c-.13988-.65233-.75643-2.14591-1.37007-3.31903-.95032-1.81676-1.11492-2.34127-1.11033-3.53807.007-1.76246.59794-3.09648 1.88744-4.25902 2.32726-2.09817 5.74549-2.06278 8.074.0836 2.1794 2.00889 2.38467 4.67503.60903 7.91035-.55292 1.00742-1.12481 2.38892-1.27086 3.06998l-.26556 1.23826h-3.14964-3.14964z" fill="url(#b)" stroke-width=".245408"/><g transform="translate(.408264)"><path d="m18.300781 12.720703c-2.78747 0-5.046875 2.226376-5.046875 4.972656s2.259405 4.972657 5.046875 4.972657 5.046875-2.226377 5.046875-4.972657-2.259405-4.972656-5.046875-4.972656zm0 .601563v.0098c.22956.002.459067.02159.685547.05859-.25024-.0388-.502209-.05919-.755859-.05469.0239-.005.04631-.0093.07031-.01367zm0 .04297c2.42671 0 4.394531 1.937275 4.394531 4.328125 0 1.585985-.874809 2.958925-2.166015 3.712891-.119853.06917-.237251.143397-.363281.201172-.009.003-.01824.0063-.02734.01172.133561-.06073.261441-.138688.390625-.212891-.181878.106203-.364965.209183-.5625.289062-.00058.000235-.0014-.000234-.002 0-.006.002-.01045.0051-.01563.0078-.18778.0736-.379942.134021-.576172.181641.199562-.04965.398007-.111134.591797-.189454-.51368.207472-1.074532.328126-1.664063.328126-.03281 0-.06306-.0091-.0957-.0098-.0054.000029-.01017.000138-.01563 0-.16156-.003-.324165-.01631-.484375-.03711.159437.02117.321223.0313.482422.03516-2.37301-.06068-4.28125-1.965781-4.28125-4.31836 0-2.39085 1.967821-4.328125 4.394531-4.328125zm0 .523438c-.0209.0038-.0417.0058-.0625.0098.22082-.0039.440353.01503.658203.04883-.19717-.0322-.395853-.04878-.595703-.05078zm-2.570312.273437c-.233395.165122-.450193.347054-.640625.544922.19476-.203072.410958-.382847.640625-.544922zm.326172.462889c-.19727.139877-.383219.294042-.550782.46875.163666-.170058.350628-.326403.550782-.46875zm-1.544922 2.427734c-.0356.20389-.05564.410288-.05664.617188.001.0162.0011.03263.002.04883-.0023-.22302.01749-.446796.05469-.666016zm-.578125.07031c-.02616.198691-.04891.398993-.04687.599609-.00096-.0186-.000953-.03804-.002-.05664.000765-.181994.02432-.362676.04883-.542969zm8.779297.464844h.002c.001.0258.002.05222.002.07813-.0003.1582-.0092.317389-.02734.474609.02-.18285.02704-.368094.02344-.552734zm-.570313.01367c.0031.160741-.0041.321279-.02148.480469.0156-.13687.02318-.274389.02344-.412109 0-.0225-.001-.04586-.002-.06836zm-1.708984 3.21875c-.1719.11332-.351133.208216-.533203.291016.0079-.0048.01544-.0068.02344-.0098.17648-.0809.347746-.174989.509766-.28125zm-.683594.357426c-.16919.06848-.341375.120663-.515625.164063.17083-.04146.338483-.0941.501953-.158203.005-.003.0077-.0039.01367-.0059zm-.783203.21875c-.16283.0285-.324401.04669-.488281.05469.005-.00023.0096.00025.01563 0 .15904-.0087.315916-.02669.472656-.05469zm-1.183594.02539c.13948.0181.279272.02825.419922.03125.0065.00016.01253-.00014.01953 0-.146935-.003-.294096-.01197-.439453-.03125zm1.283203.525391c-.18005.0322-.362242.0525-.544922.0625-.007.00029-.01188-.00026-.01758 0 .18824-.009.37546-.0297.5625-.0625z" fill="#1a1a1a" filter="url(#e)" stroke-width="1.212286" transform="matrix(1.1557108 0 0 1.1557108 589.49715 952.8945)"/><path d="m18.300781 12.720703c-2.78747 0-5.046875 2.226376-5.046875 4.972656s2.259405 4.972657 5.046875 4.972657 5.046875-2.226377 5.046875-4.972657-2.259405-4.972656-5.046875-4.972656z" fill="#1a1a1a" filter="url(#e)" stroke-width="1.212286" transform="matrix(.6986803 0 0 .6986803 597.86117 960.98091)"/><path d="m610.64756 968.34085c-2.80457 0-5.07881 2.23893-5.07881 5.00206s2.27424 5.00432 5.07881 5.00432c2.80458 0 5.0788-2.24119 5.0788-5.00432s-2.27422-5.00206-5.0788-5.00206zm0 .60494v.009c.23097.002.46059.0215.68846.0587-.25177-.0391-.50549-.0609-.76069-.0564.024-.005.0481-.007.0722-.0113zm-2.59358.85098c-.23132.16452-.44739.3452-.63654.54174.19365-.20191.40856-.38008.63654-.54174zm.65912.60946 1.93446 1.93672 1.93446-1.93446 1.00222.99996-1.93446 1.93446 1.93446 1.93446-1.00222 1.00222-1.93446-1.93446-1.93446 1.93446-.99996-1.00222 1.93446-1.93446-1.93672-1.93446zm-2.4446 2.1963c-.043.25336-.0659.51198-.0632.76972-.00097-.0187-.001-.0377-.002-.0564.001-.23911.0243-.47765.0655-.71329zm8.81906.63429c.001.026.002.053.002.079-.00029.15917-.009.3181-.0271.47628.0201-.18398.0284-.36951.0248-.55528zm-1.97508 3.71994c-.18725.12281-.38519.23155-.58915.32505-.009.003-.018.006-.0271.0113.21042-.0957.41756-.20536.61623-.33633zm-.79004.41308c-.007.002-.01.003-.0158.007-.18893.0741-.38268.13492-.58011.18284.20138-.0502.40037-.11047.59591-.18961zm-.90516.25281c-.18114.0324-.36245.0532-.54625.0632-.007.00029-.0123-.00026-.0181 0 .1894-.009.37613-.0303.56431-.0632zm-1.36789.0294c.16799.0223.33807.0327.50788.0361-.008-.00016-.0151.00019-.0226 0-.16255-.003-.32411-.0152-.48531-.0361z" fill="url(#d)" stroke-width="1.219722"/></g></g></svg>