<svg height="24" viewBox="0 0 6.3499999 6.3500002" width="24" xmlns="http://www.w3.org/2000/svg" xmlns:xlink="http://www.w3.org/1999/xlink"><filter id="a" color-interpolation-filters="sRGB" height="1.168017" width="1.167983" x="-.083991" y="-.084009"><feGaussianBlur stdDeviation=".70407195"/></filter><g transform="translate(0 -290.64998)"><path d="m18.213752 1.6097117c-.111771-.00683-.555062.00863-.822266.064453-.307778.064296-.614612.155144-1.113281.3164064-.993179.3211802-2.710625.9211531-6.041016 2.0859375-1.8983191.6639555-3.6453909 1.2793149-4.9335935 1.7402344-.6438571.2303722-1.1733799.4241313-1.5546875.5644531-.1915908.0705056-.3445009.1250845-.4609375.1699219-.055432.021346-.1016122.041066-.1582031.064453-.022975.0095-.052965.020158-.097656.029297-.0049.001-.012277.00103-.017578.00195.062813-.017726-.00212.00243-.1992187.1308593-.8421742.5484348-1.2070313 1.3597733-1.2070313 2.2851563 0 .3040566.033301.7631236.2441407 1.2148434.2106539.451323.5649031.815954.9101562 1.080078.3507573.268336 1.1013566.620576 1.71875.939454l1.7031246.828127c1.686923.000326 3.054362 1.367765 3.054688 3.054688l-.05274 1.726562c.196948-.320108.66758-.303731.8417971.0293.196592.375058.464582.925752.59375 1.138672.326293.53787.813545 1.069316 1.21875 1.314453 1.255444.759471 2.798754.245219 3.576172-.798828.177729-.238612.226494-.359703.193359-.267578-.0046.01274.0012.04537 0 .07617.0014-.06691.000858-.139561.01758-.177734.02864-.06538.05109-.118855.07617-.181641.05187-.129836.113164-.291377.189453-.494141.152186-.404473.355687-.957311.59375-1.613281.476346-1.312526 1.091602-3.038478 1.705078-4.771484.613394-1.73277 1.224063-3.4718938 1.685547-4.8085938.230756-.6683928.424321-1.2351055.564453-1.65625.0706-.2121603.126996-.3860572.169922-.5234375.08586-.2747788.04205.091183.121094-.4824219.115002-.8346969-.203161-1.8064087-.830073-2.4042978-.141986-.135408-.519282-.4152181-.839844-.5273438-.366174-.1280807-.586934-.1324249-.849609-.1484375zm-.06641 1.0898437c.210227.012816.378921.027681.55664.089844.177719.062162.328309.17748.445313.2890625.393382.375164.576429.9220441.501953 1.4628906-.02203.1598799-.04213.1769795-.08203.3046875-.0399.1277081-.09517.2968524-.164063.5039063-.137792.4141077-.330572.9803559-.560547 1.6464843-.45995 1.3322571-1.068946 3.0680354-1.68164 4.7988274-.612694 1.730793-1.228317 3.455376-1.703125 4.763672-.237405.654148-.440746 1.20334-.589844 1.59961-.07455.198134-.134605.358828-.181641.476562-.02352.05887-.04453.107402-.0625.148438-.01797.04104.0073.03177-.08398.154296-.505027.678966-1.423576.946006-2.134766.515626-.29025-.175595-.549824-.451142-.849609-.945313-.299792-.494171-.680538-1.240706-1.300782-2.494141-.3402661-.689099-.6737991-1.340087-.9335941-1.830078-.129898-.244995-.2426743-.451321-.326172-.597656-.041749-.07317-.075584-.131638-.099609-.169922-.024025-.03828-.05737-.06985-.00781-.01758v-.002c.08204.08686-.024331-.01416-.1523437-.08984-.1280208-.075549-.3135012-.176821-.5429717-.298783-.4589408-.243924-1.0995137-.568406-1.8671875-.943359-1.5267896-.744986-2.3698443-1.168801-2.9023437-1.576172-.2662498-.203686-.465459-.41989-.5839844-.6738278-.1185254-.253939-.140625-.511647-.140625-.7519535 0-.5500217.2527468-1.0717388.7128906-1.3710937.1139488-.07425.096459-.051382.1328125-.066406.036354-.015024.080471-.031827.1347657-.052734.1085888-.0418174.2578232-.09702.4453124-.1660163.3749786-.1379927.9024622-.3287216 1.5449219-.5585937 1.2849194-.4597448 3.029759-1.0770822 4.925781-1.7402344 3.329984-1.1646423 5.055709-1.7664383 6.019532-2.078125.481911-.1558434.773161-.2401299.998047-.2871094.224883-.046979.402791-.050943.533203-.042969zm-15.3456996 3.9296876c.00456.0026.016276.00781.017578.00781-.004-.00171-.011678-.00527-.017578-.00781z" fill="#595959" filter="url(#a)" transform="matrix(.26458333 0 0 .26458333 .21578 290.86693)"/><g stroke-width=".264583"><text opacity=".8" x="232.09944" y="287.1608"><tspan stroke-width=".264583" x="232.09944" y="287.1608"/></text><text opacity=".8" x="238.4391" y="276.38123"><tspan stroke-width=".264583" x="238.4391" y="276.38123"/></text><text opacity=".8" x="-150.64612" y="268.42307"><tspan stroke-width=".264583" x="-150.64612" y="268.42307"/></text><text opacity=".8" x="-633.16302" y="465.68408"><tspan stroke-width=".264583" x="-633.16302" y="465.68408"/></text><text opacity=".8" x="-120.35369" y="166.47356"><tspan stroke-width=".264583" x="-120.35369" y="166.47356"/></text><text opacity=".8" x="93.324387" y="57.076263"><tspan stroke-width=".264583" x="93.324387" y="57.076263"/></text><text opacity=".8" x="99.664047" y="46.296688"><tspan stroke-width=".264583" x="99.664047" y="46.296688"/></text><text opacity=".8" x="-294.95224" y="44.389069"><tspan stroke-width=".264583" x="-294.95224" y="44.389069"/></text><text opacity=".8" x="91.483025" y="-27.904148"><tspan stroke-width=".264583" x="91.483025" y="-27.904148"/></text><text opacity=".8" x="484.68655" y="137.90796"><tspan stroke-width=".264583" x="484.68655" y="137.90796"/></text><text opacity=".8" x="491.02618" y="127.12837"><tspan stroke-width=".264583" x="491.02618" y="127.12837"/></text><text opacity=".8" x="96.409874" y="125.22074"><tspan stroke-width=".264583" x="96.409874" y="125.22074"/></text><text opacity=".8" x="482.84518" y="52.927582"><tspan stroke-width=".264583" x="482.84518" y="52.927582"/></text><text opacity=".8" x="-151.7207" y="112.49658"><tspan stroke-width=".264583" x="-151.7207" y="112.49658"/></text><text opacity=".8" x="-634.23749" y="309.75763"><tspan stroke-width=".264583" x="-634.23749" y="309.75763"/></text><text opacity=".8" x="-180.54182" y="334.33005"><tspan stroke-width=".264583" x="-180.54182" y="334.33005"/></text><text opacity=".8" x="112.88754" y="286.92142"><tspan stroke-width=".264583" x="112.88754" y="286.92142"/></text><text opacity=".8" x="119.2272" y="276.14185"><tspan stroke-width=".264583" x="119.2272" y="276.14185"/></text><text opacity=".8" x="-275.3891" y="274.23422"><tspan stroke-width=".264583" x="-275.3891" y="274.23422"/></text><text opacity=".8" x="111.04617" y="201.94104"><tspan stroke-width=".264583" x="111.04617" y="201.94104"/></text><text opacity=".8" x="-160.87527" y="273.51608"><tspan stroke-width=".264583" x="-160.87527" y="273.51608"/></text><text opacity=".8" x="-643.39215" y="470.7771"><tspan stroke-width=".264583" x="-643.39215" y="470.7771"/></text><text opacity=".8" x="-120.89857" y="45.569469"><tspan stroke-width=".264583" x="-120.89857" y="45.569469"/></text><text opacity=".8" x="92.779495" y="-63.827854"><tspan stroke-width=".264583" x="92.779495" y="-63.827854"/></text><text opacity=".8" x="99.119156" y="-74.607437"><tspan stroke-width=".264583" x="99.119156" y="-74.607437"/></text><text opacity=".8" x="-295.49713" y="-76.515068"><tspan stroke-width=".264583" x="-295.49713" y="-76.515068"/></text><text opacity=".8" x="90.938126" y="-148.80827"><tspan stroke-width=".264583" x="90.938126" y="-148.80827"/></text><text opacity=".8" x="484.1416" y="17.003803"><tspan stroke-width=".264583" x="484.1416" y="17.003803"/></text><text opacity=".8" x="490.48123" y="6.224261"><tspan stroke-width=".264583" x="490.48123" y="6.224261"/></text><text opacity=".8" x="95.864975" y="4.316626"><tspan stroke-width=".264583" x="95.864975" y="4.316626"/></text><text opacity=".8" x="482.30026" y="-67.976578"><tspan stroke-width=".264583" x="482.30026" y="-67.976578"/></text><text opacity=".8" x="-152.26559" y="-8.407533"><tspan stroke-width=".264583" x="-152.26559" y="-8.407533"/></text><text opacity=".8" x="-634.78241" y="188.8535"><tspan stroke-width=".264583" x="-634.78241" y="188.8535"/></text><text opacity=".8" x="-181.08673" y="213.42592"><tspan stroke-width=".264583" x="-181.08673" y="213.42592"/></text><text opacity=".8" x="41.167126" y="277.16779"><tspan stroke-width=".264583" x="41.167126" y="277.16779"/></text><text opacity=".8" x="47.50679" y="266.38821"><tspan stroke-width=".264583" x="47.50679" y="266.38821"/></text><text opacity=".8" x="-288.46552" y="215.05147"><tspan stroke-width=".264583" x="-288.46552" y="215.05147"/></text><text opacity=".8" x="-74.787498" y="105.65418"><tspan stroke-width=".264583" x="-74.787498" y="105.65418"/></text><text opacity=".8" x="-68.44783" y="94.874596"><tspan stroke-width=".264583" x="-68.44783" y="94.874596"/></text><text opacity=".8" x="-463.06412" y="92.96698"><tspan stroke-width=".264583" x="-463.06412" y="92.96698"/></text><text opacity=".8" x="-76.628845" y="20.673765"><tspan stroke-width=".264583" x="-76.628845" y="20.673765"/></text><text opacity=".8" x="316.57465" y="186.48587"><tspan stroke-width=".264583" x="316.57465" y="186.48587"/></text><text opacity=".8" x="322.91428" y="175.70628"><tspan stroke-width=".264583" x="322.91428" y="175.70628"/></text><text opacity=".8" x="-71.702011" y="173.79865"><tspan stroke-width=".264583" x="-71.702011" y="173.79865"/></text><text opacity=".8" x="314.73328" y="101.50548"><tspan stroke-width=".264583" x="314.73328" y="101.50548"/></text><text opacity=".8" x="-319.83258" y="161.07449"><tspan stroke-width=".264583" x="-319.83258" y="161.07449"/></text><text opacity=".8" x="-802.34943" y="358.33554"><tspan stroke-width=".264583" x="-802.34943" y="358.33554"/></text></g><text opacity=".8" transform="matrix(.23938177 0 0 .23938177 -189.64011 105.36491)" x="-664.2738" y="1159.4154"><tspan x="-664.2738" y="1159.4154"/></text><text opacity=".8" stroke-width=".264583" x="232.09944" y="289.07587"><tspan stroke-width=".264583" x="232.09944" y="289.07587"/></text><text opacity=".8" stroke-width=".264583" x="238.4391" y="278.2963"><tspan stroke-width=".264583" x="238.4391" y="278.2963"/></text><text opacity=".8" stroke-width=".264583" x="-150.64612" y="270.3381"><tspan stroke-width=".264583" x="-150.64612" y="270.3381"/></text><text opacity=".8" stroke-width=".264583" x="-633.16302" y="467.59912"><tspan stroke-width=".264583" x="-633.16302" y="467.59912"/></text><text opacity=".8" stroke-width=".264583" x="-120.35369" y="168.38861"><tspan stroke-width=".264583" x="-120.35369" y="168.38861"/></text><text opacity=".8" stroke-width=".264583" x="93.324387" y="58.991325"><tspan stroke-width=".264583" x="93.324387" y="58.991325"/></text><text opacity=".8" stroke-width=".264583" x="99.664047" y="48.211735"><tspan stroke-width=".264583" x="99.664047" y="48.211735"/></text><text opacity=".8" stroke-width=".264583" x="-294.95224" y="46.304115"><tspan stroke-width=".264583" x="-294.95224" y="46.304115"/></text><text opacity=".8" stroke-width=".264583" x="91.483025" y="-25.989084"><tspan stroke-width=".264583" x="91.483025" y="-25.989084"/></text><text opacity=".8" stroke-width=".264583" x="484.68655" y="139.823"><tspan stroke-width=".264583" x="484.68655" y="139.823"/></text><text opacity=".8" stroke-width=".264583" x="491.02618" y="129.04341"><tspan stroke-width=".264583" x="491.02618" y="129.04341"/></text><text opacity=".8" stroke-width=".264583" x="96.409874" y="127.13579"><tspan stroke-width=".264583" x="96.409874" y="127.13579"/></text><text opacity=".8" stroke-width=".264583" x="482.84518" y="54.842644"><tspan stroke-width=".264583" x="482.84518" y="54.842644"/></text><text opacity=".8" stroke-width=".264583" x="-151.7207" y="114.41163"><tspan stroke-width=".264583" x="-151.7207" y="114.41163"/></text><text opacity=".8" stroke-width=".264583" x="-634.23749" y="311.67267"><tspan stroke-width=".264583" x="-634.23749" y="311.67267"/></text><text opacity=".8" stroke-width=".264583" x="-180.54182" y="336.24509"><tspan stroke-width=".264583" x="-180.54182" y="336.24509"/></text><text opacity=".8" stroke-width=".264583" x="112.88754" y="288.83649"><tspan stroke-width=".264583" x="112.88754" y="288.83649"/></text><text opacity=".8" stroke-width=".264583" x="119.2272" y="278.05692"><tspan stroke-width=".264583" x="119.2272" y="278.05692"/></text><text opacity=".8" stroke-width=".264583" x="-275.3891" y="276.14926"><tspan stroke-width=".264583" x="-275.3891" y="276.14926"/></text><text opacity=".8" stroke-width=".264583" x="111.04617" y="203.85609"><tspan stroke-width=".264583" x="111.04617" y="203.85609"/></text><text opacity=".8" stroke-width=".264583" x="-160.87527" y="275.43112"><tspan stroke-width=".264583" x="-160.87527" y="275.43112"/></text><text opacity=".8" stroke-width=".264583" x="-643.39215" y="472.69217"><tspan stroke-width=".264583" x="-643.39215" y="472.69217"/></text><text opacity=".8" stroke-width=".264583" x="-120.89857" y="47.48452"><tspan stroke-width=".264583" x="-120.89857" y="47.48452"/></text><text opacity=".8" stroke-width=".264583" x="92.779495" y="-61.912792"><tspan stroke-width=".264583" x="92.779495" y="-61.912792"/></text><text opacity=".8" stroke-width=".264583" x="99.119156" y="-72.692406"><tspan stroke-width=".264583" x="99.119156" y="-72.692406"/></text><text opacity=".8" stroke-width=".264583" x="-295.49713" y="-74.600006"><tspan stroke-width=".264583" x="-295.49713" y="-74.600006"/></text><text opacity=".8" stroke-width=".264583" x="90.938126" y="-146.8932"><tspan stroke-width=".264583" x="90.938126" y="-146.8932"/></text><text opacity=".8" stroke-width=".264583" x="484.1416" y="18.918835"><tspan stroke-width=".264583" x="484.1416" y="18.918835"/></text><text opacity=".8" stroke-width=".264583" x="490.48123" y="8.139293"><tspan stroke-width=".264583" x="490.48123" y="8.139293"/></text><text opacity=".8" stroke-width=".264583" x="95.864975" y="6.23169"><tspan stroke-width=".264583" x="95.864975" y="6.23169"/></text><text opacity=".8" stroke-width=".264583" x="482.30026" y="-66.061508"><tspan stroke-width=".264583" x="482.30026" y="-66.061508"/></text><text opacity=".8" stroke-width=".264583" x="-152.26559" y="-6.492469"><tspan stroke-width=".264583" x="-152.26559" y="-6.492469"/></text><text opacity=".8" stroke-width=".264583" x="-634.78241" y="190.76855"><tspan stroke-width=".264583" x="-634.78241" y="190.76855"/></text><text opacity=".8" stroke-width=".264583" x="-181.08673" y="215.34097"><tspan stroke-width=".264583" x="-181.08673" y="215.34097"/></text><text opacity=".8" stroke-width=".264583" x="41.167126" y="279.08286"><tspan stroke-width=".264583" x="41.167126" y="279.08286"/></text><text opacity=".8" stroke-width=".264583" x="47.50679" y="268.30325"><tspan stroke-width=".264583" x="47.50679" y="268.30325"/></text><text opacity=".8" stroke-width=".264583" x="-288.46552" y="216.96654"><tspan stroke-width=".264583" x="-288.46552" y="216.96654"/></text><text opacity=".8" stroke-width=".264583" x="-74.787498" y="107.56922"><tspan stroke-width=".264583" x="-74.787498" y="107.56922"/></text><text opacity=".8" stroke-width=".264583" x="-68.44783" y="96.789642"><tspan stroke-width=".264583" x="-68.44783" y="96.789642"/></text><text opacity=".8" stroke-width=".264583" x="-463.06412" y="94.882011"><tspan stroke-width=".264583" x="-463.06412" y="94.882011"/></text><text opacity=".8" stroke-width=".264583" x="-76.628845" y="22.588846"><tspan stroke-width=".264583" x="-76.628845" y="22.588846"/></text><text opacity=".8" stroke-width=".264583" x="316.57465" y="188.40091"><tspan stroke-width=".264583" x="316.57465" y="188.40091"/></text><text opacity=".8" stroke-width=".264583" x="322.91428" y="177.62134"><tspan stroke-width=".264583" x="322.91428" y="177.62134"/></text><text opacity=".8" stroke-width=".264583" x="-71.702011" y="175.7137"><tspan stroke-width=".264583" x="-71.702011" y="175.7137"/></text><text opacity=".8" stroke-width=".264583" x="314.73328" y="103.42053"><tspan stroke-width=".264583" x="314.73328" y="103.42053"/></text><text opacity=".8" stroke-width=".264583" x="-319.83258" y="162.98955"><tspan stroke-width=".264583" x="-319.83258" y="162.98955"/></text><text opacity=".8" stroke-width=".264583" x="-802.34943" y="360.25058"><tspan stroke-width=".264583" x="-802.34943" y="360.25058"/></text><text opacity=".8" transform="matrix(.23938177 0 0 .23938177 -189.64011 107.2805)" x="-664.2738" y="1159.4154"><tspan x="-664.2738" y="1159.4154"/></text><text stroke-width=".264583" x="115.33302" y="188.72574"><tspan stroke-width=".264583" x="115.33302" y="188.72574"/><tspan stroke-width=".264583" x="115.33302" y="192.9149"/></text><text opacity=".8" stroke-width=".264583" x="238.41292" y="61.184795"><tspan stroke-width=".264583" x="238.41292" y="61.184795"/></text><text opacity=".8" stroke-width=".264583" x="-244.104" y="258.4458"><tspan stroke-width=".264583" x="-244.104" y="258.4458"/></text><text opacity=".8" stroke-width=".264583" x="430.78604" y="-14.220356"><tspan stroke-width=".264583" x="430.78604" y="-14.220356"/></text><text opacity=".8" stroke-width=".264583" x="437.12567" y="-24.999931"><tspan stroke-width=".264583" x="437.12567" y="-24.999931"/></text><text opacity=".8" stroke-width=".264583" x="42.509388" y="-26.907568"><tspan stroke-width=".264583" x="42.509388" y="-26.907568"/></text><text opacity=".8" stroke-width=".264583" x="428.9447" y="-99.200768"><tspan stroke-width=".264583" x="428.9447" y="-99.200768"/></text><path d="m3.564791 295.9044c-.1178798-.0713-.1931014-.19538-.5206902-.8574-.1810528-.36666-.3536392-.6923-.383272-.72356-.033215-.0352-.3064225-.1804-.7144431-.37969-.8061742-.39336-.8880064-.45589-.8880064-.67895 0-.10387.050766-.20352.1303517-.25529.027351-.0178.8702593-.31941 1.8730845-.67016 1.7620429-.61626 1.8275607-.63746 1.9479154-.6301.1041672.006.134344.0169.1843841.0646.075026.0716.1087753.17074.094174.27678-.015708.11398-1.2807545 3.68749-1.3278088 3.75066-.1003348.13489-.270583.17934-.3958093.10333z" fill="#fff" stroke-width=".264583"/></g></svg>