<svg height="24" width="24" xmlns="http://www.w3.org/2000/svg" xmlns:xlink="http://www.w3.org/1999/xlink"><filter id="a" color-interpolation-filters="sRGB" height="1.168017" width="1.167983" x="-.083991" y="-.084009"><feGaussianBlur stdDeviation=".70407195"/></filter><path d="m19.029297 2.4296875c-.111771-.00683-.555062.00863-.822266.064453-.307778.0642963-.614612.155144-1.113281.3164064-.993179.3211802-2.710625.9211531-6.041016 2.0859375-1.8983198.6639555-3.6453908 1.2793149-4.9335934 1.7402344-.6438571.2303723-1.1733799.4241313-1.5546875.5644531-.1915908.0705056-.3445009.1250845-.4609375.1699219-.055432.021346-.1016122.041066-.1582031.064453-.022975.0095-.052965.020158-.097656.029297-.0049.001-.012277.00103-.017578.00195.062813-.017726-.00212.00243-.1992187.1308593-.8421742.5484347-1.2070313 1.3597733-1.2070313 2.2851563 0 .3040565.033301.7631235.2441407 1.2148435.210654.451323.5649031.815954.9101562 1.080078.3507573.268336 1.1013566.620577 1.71875.939454a.4844083.4844083 0 0 1 .023437.845703c-1.0972781.6503481-1.8964843 1.8091331-1.8964843 3.0371121 0 1.832918 1.7432542 3.576172 3.5761719 3.576172 1.2076436 0 2.3434071-.777308 3.001953-1.84961a.4844083.4844083 0 0 1 .841797.0293c.196592.375058.464582.925752.59375 1.138672.326293.53787.813545 1.069316 1.21875 1.314453 1.255444.759471 2.798754.245219 3.576172-.798828.177729-.238612.226494-.359703.193359-.267578-.01657.04606-.0065.261509-.002.275391.0046.01388-.02384-.277927.01953-.376953.02864-.06538.05109-.118855.07617-.181641.05187-.129836.113164-.291377.189453-.494141.152186-.404473.355687-.957311.59375-1.613281.476346-1.312526 1.091601-3.038478 1.705078-4.771484.613394-1.73277 1.224063-3.471894 1.685547-4.808594.230756-.6683928.42432-1.2351055.564453-1.65625.0706-.2121603.126996-.3860572.169922-.5234375.08586-.2747788.04205.091183.121094-.4824219.114997-.834698-.203116-1.8064106-.830028-2.4042998-.141986-.1354079-.519282-.4152181-.839844-.5273438-.366174-.1280807-.586934-.1324249-.849609-.1484375zm-.06641 1.0898437c.210227.012816.378921.027681.55664.089844.177719.062162.328309.17748.445313.2890625.393382.375164.576429.9220441.501953 1.4628906-.02203.1598799-.04213.1769795-.08203.3046875-.0399.1277081-.09517.2968524-.164063.5039063-.137792.4141077-.330572.9803558-.560547 1.6464843-.45995 1.3322571-1.068946 3.0680358-1.68164 4.7988278-.612694 1.730793-1.228317 3.455376-1.703125 4.763672-.237405.654148-.440746 1.20334-.589844 1.59961-.07455.198134-.134605.358828-.181641.476562-.02352.05887-.04453.107402-.0625.148438-.01797.04104.0073.03177-.08398.154296-.505027.678964-1.423576.946008-2.134766.515626-.29025-.1755932-.549825-.4511422-.84961-.9453132-.299786-.494171-.680537-1.240706-1.300781-2.494141-.340266-.689099-.673799-1.340087-.933594-1.830078-.129898-.244995-.2426743-.451321-.326172-.597656-.041749-.07317-.075584-.131638-.099609-.169922-.024025-.03828-.057365-.06985-.00781-.01758a.4844083.4844083 0 0 1 0-.002c.08204.08686-.024331-.01416-.1523437-.08984-.1280154-.075639-.3135012-.176821-.5429717-.298783-.4589408-.243924-1.0995137-.568406-1.8671875-.943359-1.5267896-.744986-2.3698443-1.168801-2.9023437-1.576172-.2662498-.203686-.465459-.41989-.5839844-.673828-.1185254-.253939-.140625-.511647-.140625-.7519535 0-.5500217.2527468-1.0717388.7128906-1.3710937.1139488-.07425.096459-.051382.1328125-.066406.036354-.015024.080471-.031827.1347657-.052734.1085888-.041816.2578232-.09702.4453124-.1660163.3749786-.1379927.9024622-.3287214 1.5449219-.5585937 1.2849194-.4597448 3.0297582-1.0770822 4.9257809-1.7402344 3.329984-1.1646423 5.055709-1.7664383 6.019532-2.078125.481911-.1558434.773162-.2401299.998047-.2871094.224884-.0469795.402791-.050943.533203-.0429688zm-15.3456995 3.9296876c.00456.0026.016276.00781.017578.00781-.004-.00171-.011678-.00527-.017578-.00781zm3.3828125 8.0351562c-.2439015 0 .3911645.03172.1484375.0078-.242727-.02391.3856993.06907.1464844.02148-.239215-.04758.3779304.105957.1445312.03516-.2333991-.0708.3659606.144118.140625.05078-.2253355-.09334.3498675.179428.1347657.06445-.2151019-.114974.3297497.211677.1269531.07617-.2027967-.135504.307679.24262.1191406.08789-.1885384-.154729.2837925.272074.1113281.09961s.2543388.299867.099609.111328c-.1547294-.188538.223395.321938.087891.119141-.1355044-.202797.1911463.342055.076172.126953-.1149744-.215102.1577902.360101.064453.134766-.093337-.225336.1215821.374024.050781.140625-.070801-.233399.082739.383746.035156.144531s.045391.389212.021484.146484c-.023907-.242727.00781.392339.00781.148438s-.031719.391165-.00781.148438c.023907-.242728-.069067.385699-.021484.146484s-.1059571.37793-.035156.144531c.070801-.233399-.1441183.365961-.050781.140625.093337-.225335-.1794275.349868-.064453.134766.1149744-.215102-.2116763.32975-.076172.126953.1355044-.202797-.24262.307679-.087891.119141.1547294-.188539-.2720738.283792-.099609.111328.1724644-.172465-.2998665.254338-.1113281.09961.1885384-.154729-.3219373.223395-.1191406.08789.2027966-.135505-.342055.191146-.1269531.07617.2151018-.114975-.3601012.15779-.1347657.06445.2253356-.09334-.3740241.121582-.140625.05078.2333992-.0708-.3837462.08274-.1445312.03516.2392149-.04758-.3892114.04539-.1464844.02148s-.392339.0078-.1484375.0078-.3911645-.03172-.1484375-.0078c.242727.02391-.3856993-.06907-.1464844-.02148.239215.04758-.3779304-.105957-.1445312-.03516.2333991.0708-.3659606-.144118-.140625-.05078.2253355.09334-.3498675-.179428-.1347657-.06445.2151019.114974-.3297497-.211677-.1269531-.07617.2027967.135504-.307679-.24262-.1191406-.08789.1885384.154747-.2837925-.272056-.1113281-.099591.1724644.172464-.2543388-.299867-.0996094-.111328.1547294.188538-.223395-.321938-.0878906-.119141s-.1911463-.342055-.0761719-.126953-.1577902-.360101-.0644531-.134766c.093337.225336-.1215821-.374024-.0507813-.140625.0708009.233399-.082739-.383746-.0351562-.144531s-.0453909-.389212-.0214844-.146484c.0239065.242727-.0078125-.392339-.0078125-.148438s.031719-.391165.00781-.148438c-.023906.242728.069067-.385699.021484-.146484s.1059571-.37793.035156-.144531c-.070801.233399.1441183-.365961.050781-.140625-.093337.225335.1794275-.349868.064453-.134766-.1149744.215102.2116763-.32975.076172-.126953-.1355044.202797.24262-.307679.087891-.119141-.1547294.188539.2720738-.283792.099609-.111328-.1724644.172465.2998665-.254338.1113281-.09961-.1885384.154729.3219373-.223395.1191406-.08789-.2027966.135505.342055-.191146.1269531-.07617-.2151018.114975.3601012-.15779.1347657-.06445-.2253356.09334.3740241-.121582.140625-.05078-.2333992.0708.3837462-.08274.1445312-.03516-.2392149.04758.3892114-.04539.1464844-.02148s.392339-.0078.1484375-.0078z" fill="#595959" filter="url(#a)"/><text opacity=".8" x="877.22626" y="-13.187399"><tspan x="877.22626" y="-13.187399"/></text><text opacity=".8" x="901.18719" y="-53.929108"><tspan x="901.18719" y="-53.929108"/></text><text opacity=".8" x="-569.37115" y="-84.007248"><tspan x="-569.37115" y="-84.007248"/></text><text opacity=".8" x="-2393.0571" y="661.5462"><tspan x="-2393.0571" y="661.5462"/></text><text opacity=".8" x="-454.88007" y="-469.32822"><tspan x="-454.88007" y="-469.32822"/></text><text opacity=".8" x="352.72208" y="-882.79834"><tspan x="352.72208" y="-882.79834"/></text><text opacity=".8" x="376.68301" y="-923.54004"><tspan x="376.68301" y="-923.54004"/></text><text opacity=".8" x="-1114.7802" y="-930.74994"><tspan x="-1114.7802" y="-930.74994"/></text><text opacity=".8" x="345.7626" y="-1203.9841"><tspan x="345.7626" y="-1203.9841"/></text><text opacity=".8" x="1831.8861" y="-577.29272"><tspan x="1831.8861" y="-577.29272"/></text><text opacity=".8" x="1855.8469" y="-618.03448"><tspan x="1855.8469" y="-618.03448"/></text><text opacity=".8" x="364.38376" y="-625.24438"><tspan x="364.38376" y="-625.24438"/></text><text opacity=".8" x="1824.9266" y="-898.47839"><tspan x="1824.9266" y="-898.47839"/></text><text opacity=".8" x="-573.43256" y="-673.33569"><tspan x="-573.43256" y="-673.33569"/></text><text opacity=".8" x="-2397.1182" y="72.217857"><tspan x="-2397.1182" y="72.217857"/></text><text opacity=".8" x="-682.36279" y="165.09"><tspan x="-682.36279" y="165.09"/></text><text opacity=".8" x="426.66153" y="-14.092148"><tspan x="426.66153" y="-14.092148"/></text><text opacity=".8" x="450.62247" y="-54.833855"><tspan x="450.62247" y="-54.833855"/></text><text opacity=".8" x="-1040.8407" y="-62.043823"><tspan x="-1040.8407" y="-62.043823"/></text><text opacity=".8" x="419.70206" y="-335.27789"><tspan x="419.70206" y="-335.27789"/></text><text opacity=".8" x="-608.03253" y="-64.758072"><tspan x="-608.03253" y="-64.758072"/></text><text opacity=".8" x="-2431.7185" y="680.79541"><tspan x="-2431.7185" y="680.79541"/></text><text opacity=".8" x="-456.93948" y="-926.28857"><tspan x="-456.93948" y="-926.28857"/></text><text opacity=".8" x="350.66266" y="-1339.7588"><tspan x="350.66266" y="-1339.7588"/></text><text opacity=".8" x="374.62357" y="-1380.5005"><tspan x="374.62357" y="-1380.5005"/></text><text opacity=".8" x="-1116.8396" y="-1387.7104"><tspan x="-1116.8396" y="-1387.7104"/></text><text opacity=".8" x="343.70316" y="-1660.9446"><tspan x="343.70316" y="-1660.9446"/></text><text opacity=".8" x="1829.8265" y="-1034.2533"><tspan x="1829.8265" y="-1034.2533"/></text><text opacity=".8" x="1853.7874" y="-1074.9949"><tspan x="1853.7874" y="-1074.9949"/></text><text opacity=".8" x="362.32431" y="-1082.2048"><tspan x="362.32431" y="-1082.2048"/></text><text opacity=".8" x="1822.8671" y="-1355.439"><tspan x="1822.8671" y="-1355.439"/></text><text opacity=".8" x="-575.492" y="-1130.2961"><tspan x="-575.492" y="-1130.2961"/></text><text opacity=".8" x="-2399.1777" y="-384.74261"><tspan x="-2399.1777" y="-384.74261"/></text><text opacity=".8" x="-684.42224" y="-291.87045"><tspan x="-684.42224" y="-291.87045"/></text><text opacity=".8" x="155.5923" y="-50.956276"><tspan x="155.5923" y="-50.956276"/></text><text opacity=".8" x="179.55324" y="-91.697998"><tspan x="179.55324" y="-91.697998"/></text><text opacity=".8" x="-1090.2634" y="-285.72662"><tspan x="-1090.2634" y="-285.72662"/></text><text opacity=".8" x="-282.66141" y="-699.19678"><tspan x="-282.66141" y="-699.19678"/></text><text opacity=".8" x="-258.70047" y="-739.93848"><tspan x="-258.70047" y="-739.93848"/></text><text opacity=".8" x="-1750.1636" y="-747.14838"><tspan x="-1750.1636" y="-747.14838"/></text><text opacity=".8" x="-289.62085" y="-1020.3825"><tspan x="-289.62085" y="-1020.3825"/></text><text opacity=".8" x="1196.5026" y="-393.69113"><tspan x="1196.5026" y="-393.69113"/></text><text opacity=".8" x="1220.4634" y="-434.43286"><tspan x="1220.4634" y="-434.43286"/></text><text opacity=".8" x="-270.99973" y="-441.64282"><tspan x="-270.99973" y="-441.64282"/></text><text opacity=".8" x="1189.5431" y="-714.87689"><tspan x="1189.5431" y="-714.87689"/></text><text opacity=".8" x="-1208.816" y="-489.7341"><tspan x="-1208.816" y="-489.7341"/></text><text opacity=".8" x="-3032.5017" y="255.81946"><tspan x="-3032.5017" y="255.81946"/></text><text opacity=".8" transform="matrix(.90475 0 0 .90475 -716.75 -700.29)" x="-664.2738" y="1159.4154"><tspan x="-664.2738" y="1159.4154"/></text><text opacity=".8" x="877.22626" y="-5.949411"><tspan x="877.22626" y="-5.949411"/></text><text opacity=".8" x="901.18719" y="-46.691116"><tspan x="901.18719" y="-46.691116"/></text><text opacity=".8" x="-569.37115" y="-76.769257"><tspan x="-569.37115" y="-76.769257"/></text><text opacity=".8" x="-2393.0571" y="668.78418"><tspan x="-2393.0571" y="668.78418"/></text><text opacity=".8" x="-454.88007" y="-462.09021"><tspan x="-454.88007" y="-462.09021"/></text><text opacity=".8" x="352.72208" y="-875.5603"><tspan x="352.72208" y="-875.5603"/></text><text opacity=".8" x="376.68301" y="-916.30206"><tspan x="376.68301" y="-916.30206"/></text><text opacity=".8" x="-1114.7802" y="-923.51196"><tspan x="-1114.7802" y="-923.51196"/></text><text opacity=".8" x="345.7626" y="-1196.7461"><tspan x="345.7626" y="-1196.7461"/></text><text opacity=".8" x="1831.8861" y="-570.05475"><tspan x="1831.8861" y="-570.05475"/></text><text opacity=".8" x="1855.8469" y="-610.79651"><tspan x="1855.8469" y="-610.79651"/></text><text opacity=".8" x="364.38376" y="-618.00641"><tspan x="364.38376" y="-618.00641"/></text><text opacity=".8" x="1824.9266" y="-891.24036"><tspan x="1824.9266" y="-891.24036"/></text><text opacity=".8" x="-573.43256" y="-666.09772"><tspan x="-573.43256" y="-666.09772"/></text><text opacity=".8" x="-2397.1182" y="79.455849"><tspan x="-2397.1182" y="79.455849"/></text><text opacity=".8" x="-682.36279" y="172.32799"><tspan x="-682.36279" y="172.32799"/></text><text opacity=".8" x="426.66153" y="-6.85416"><tspan x="426.66153" y="-6.85416"/></text><text opacity=".8" x="450.62247" y="-47.595863"><tspan x="450.62247" y="-47.595863"/></text><text opacity=".8" x="-1040.8407" y="-54.805836"><tspan x="-1040.8407" y="-54.805836"/></text><text opacity=".8" x="419.70206" y="-328.03989"><tspan x="419.70206" y="-328.03989"/></text><text opacity=".8" x="-608.03253" y="-57.520081"><tspan x="-608.03253" y="-57.520081"/></text><text opacity=".8" x="-2431.7185" y="688.03345"><tspan x="-2431.7185" y="688.03345"/></text><text opacity=".8" x="-456.93948" y="-919.0506"><tspan x="-456.93948" y="-919.0506"/></text><text opacity=".8" x="350.66266" y="-1332.5208"><tspan x="350.66266" y="-1332.5208"/></text><text opacity=".8" x="374.62357" y="-1373.2626"><tspan x="374.62357" y="-1373.2626"/></text><text opacity=".8" x="-1116.8396" y="-1380.4724"><tspan x="-1116.8396" y="-1380.4724"/></text><text opacity=".8" x="343.70316" y="-1653.7065"><tspan x="343.70316" y="-1653.7065"/></text><text opacity=".8" x="1829.8265" y="-1027.0154"><tspan x="1829.8265" y="-1027.0154"/></text><text opacity=".8" x="1853.7874" y="-1067.757"><tspan x="1853.7874" y="-1067.757"/></text><text opacity=".8" x="362.32431" y="-1074.9668"><tspan x="362.32431" y="-1074.9668"/></text><text opacity=".8" x="1822.8671" y="-1348.2009"><tspan x="1822.8671" y="-1348.2009"/></text><text opacity=".8" x="-575.492" y="-1123.0581"><tspan x="-575.492" y="-1123.0581"/></text><text opacity=".8" x="-2399.1777" y="-377.50461"><tspan x="-2399.1777" y="-377.50461"/></text><text opacity=".8" x="-684.42224" y="-284.63245"><tspan x="-684.42224" y="-284.63245"/></text><text opacity=".8" x="155.5923" y="-43.718292"><tspan x="155.5923" y="-43.718292"/></text><text opacity=".8" x="179.55324" y="-84.460007"><tspan x="179.55324" y="-84.460007"/></text><text opacity=".8" x="-1090.2634" y="-278.48859"><tspan x="-1090.2634" y="-278.48859"/></text><text opacity=".8" x="-282.66141" y="-691.9588"><tspan x="-282.66141" y="-691.9588"/></text><text opacity=".8" x="-258.70047" y="-732.7005"><tspan x="-258.70047" y="-732.7005"/></text><text opacity=".8" x="-1750.1636" y="-739.91046"><tspan x="-1750.1636" y="-739.91046"/></text><text opacity=".8" x="-289.62085" y="-1013.1445"><tspan x="-289.62085" y="-1013.1445"/></text><text opacity=".8" x="1196.5026" y="-386.45316"><tspan x="1196.5026" y="-386.45316"/></text><text opacity=".8" x="1220.4634" y="-427.19489"><tspan x="1220.4634" y="-427.19489"/></text><text opacity=".8" x="-270.99973" y="-434.40482"><tspan x="-270.99973" y="-434.40482"/></text><text opacity=".8" x="1189.5431" y="-707.63892"><tspan x="1189.5431" y="-707.63892"/></text><text opacity=".8" x="-1208.816" y="-482.49609"><tspan x="-1208.816" y="-482.49609"/></text><text opacity=".8" x="-3032.5017" y="263.05743"><tspan x="-3032.5017" y="263.05743"/></text><text opacity=".8" transform="matrix(.90475 0 0 .90475 -716.75 -693.05)" x="-664.2738" y="1159.4154"><tspan x="-664.2738" y="1159.4154"/></text><text x="435.90427" y="-385.22546"><tspan x="435.90427" y="-385.22546"/><tspan x="435.90427" y="-369.3924"/></text><text opacity=".8" x="901.0882" y="-867.27002"><tspan x="901.0882" y="-867.27002"/></text><text opacity=".8" x="-922.59778" y="-121.71655"><tspan x="-922.59778" y="-121.71655"/></text><text opacity=".8" x="1628.1677" y="-1152.2659"><tspan x="1628.1677" y="-1152.2659"/></text><text opacity=".8" x="1652.1285" y="-1193.0076"><tspan x="1652.1285" y="-1193.0076"/></text><text opacity=".8" x="160.66542" y="-1200.2175"><tspan x="160.66542" y="-1200.2175"/></text><text opacity=".8" x="1621.2083" y="-1473.4517"><tspan x="1621.2083" y="-1473.4517"/></text><g fill="#fff" transform="translate(1 1)"><path d="m12.473226 18.859237c-.44553-.269533-.729832-.738448-1.967963-3.240555-.6842946-1.38582-1.3365896-2.616566-1.4485876-2.734718-.125536-.13292-1.158132-.681833-2.700257-1.43505-3.046958-1.4867411-3.356245-1.7230441-3.356245-2.5661051 0-.392608.191873-.769217.492668-.964905.103375-.06736 3.289169-1.207215 7.0793746-2.532876 6.65969-2.3291873 6.907316-2.4093088 7.3622-2.381494.393703.024.507757.063999.696885.2443647.283564.2704318.411119.6453173.355932 1.0460853-.05937.430786-4.840647 13.9369691-5.01849 14.1757341-.379218.509824-1.022676.677809-1.495972.390541z"/><circle cx="6" cy="16" r="2"/></g></svg>