<svg height="22" width="22" xmlns="http://www.w3.org/2000/svg" xmlns:xlink="http://www.w3.org/1999/xlink"><linearGradient id="a"><stop offset="0"/><stop offset="1" stop-opacity="0"/></linearGradient><linearGradient id="b"><stop offset="0" stop-color="#fff"/><stop offset="1" stop-color="#fff" stop-opacity="0"/></linearGradient><linearGradient id="c"><stop offset="0" stop-color="#fff"/><stop offset="1" stop-color="#aeaeae"/></linearGradient><radialGradient id="d" cx="34.699203" cy="23.848236" fx="25.839911" fy="27.013157" gradientTransform="matrix(.92779862 .83730913 -2.5403631 2.6301002 159.17326 -91.838611)" gradientUnits="userSpaceOnUse" r="18.765305"><stop offset="0" stop-color="#515151"/><stop offset="1"/></radialGradient><linearGradient id="e" gradientTransform="matrix(4.371392 -.831165 1.874778 4.613048 -115.1994 -110.1966)" gradientUnits="userSpaceOnUse" x1="-9.112999" x2="-10.734963" y1="52.430771" y2="49.68412"><stop offset="0" stop-color="#554513"/><stop offset="1" stop-color="#b59e69"/></linearGradient><radialGradient id="f" cx="37.498978" cy="114.05495" fx="43.631195" fy="115.16036" gradientTransform="matrix(.402277 .828901 -1.959267 .854184 144.8049 5.170721)" gradientUnits="userSpaceOnUse" r="11.61476"><stop offset="0" stop-color="#b4942a"/><stop offset="1" stop-color="#e4dcc9"/></radialGradient><radialGradient id="g" cx="-41.394871" cy="49.229198" gradientTransform="matrix(.491514 .313662 -2.114448 2.772026 89.18091 -17.73445)" gradientUnits="userSpaceOnUse" r="16.602501" xlink:href="#b"/><linearGradient id="h" gradientTransform="matrix(2.0405331 .54426487 .44337987 1.8761129 -61.877902 -134.08579)" gradientUnits="userSpaceOnUse" x1="51.674519" x2="58.674988" xlink:href="#b" y1="91.063316" y2="82.036392"/><linearGradient id="i" gradientTransform="matrix(1.608305 -.00900481 .342084 1.463618 -155.5019 -33.38711)" gradientUnits="userSpaceOnUse" x1="47.745087" x2="37.852875" xlink:href="#a" y1="100.18176" y2="107.42576"/><radialGradient id="j" cx="49.009884" cy="8.495312" fx="47.356842" fy="9.785249" gradientTransform="matrix(1.006114 .804017 .402416 -.496946 -8.95131 64.78593)" gradientUnits="userSpaceOnUse" r="3.97504" xlink:href="#c"/><radialGradient id="k" cx="49.009884" cy="8.495312" fx="47.424515" fy="9.608234" gradientTransform="matrix(1.023607 .818166 .402456 -.496915 -6.729909 60.21586)" gradientUnits="userSpaceOnUse" r="3.97504" xlink:href="#c"/><radialGradient id="l" cx="49.009884" cy="8.495312" fx="48.025326" fy="9.788682" gradientTransform="matrix(1.05859 .846463 .402535 -.496852 -5.327913 54.90227)" gradientUnits="userSpaceOnUse" r="3.97504" xlink:href="#c"/><radialGradient id="m" cx="49.009884" cy="8.495312" fx="48.361217" fy="9.435684" gradientTransform="matrix(1.076084 .86061 .402574 -.496821 -3.078406 50.29781)" gradientUnits="userSpaceOnUse" r="3.97504" xlink:href="#c"/><linearGradient id="n" gradientTransform="matrix(1.086544 -.0911518 -.132743 1.144289 8.908611 -9.844197)" gradientUnits="userSpaceOnUse" x1="59.634602" x2="50.843105" xlink:href="#a" y1="106.41199" y2="95.266502"/><linearGradient id="o" gradientTransform="matrix(.9969964 0 0 .99699635 1.78316 1.501982)" gradientUnits="userSpaceOnUse" x1="61.021961" x2="61.021961" y1="109.99655" y2="30.304302"><stop offset="0" stop-color="#3f3f3f"/><stop offset=".92857146" stop-color="#3f3f3f" stop-opacity=".867647"/><stop offset="1" stop-color="#3f3f3f" stop-opacity="0"/></linearGradient><linearGradient id="p" gradientTransform="matrix(.99699635 0 0 .9969964 -1.501982 1.783159)" gradientUnits="userSpaceOnUse" x1="-107.1504" x2="-107.1504" y1="58.338223" y2="128.11542"><stop offset="0" stop-color="#3f3f3f"/><stop offset=".5" stop-color="#3f3f3f" stop-opacity=".867647"/><stop offset="1" stop-color="#3f3f3f" stop-opacity="0"/></linearGradient><g transform="matrix(.24021367 .03414837 -.03159604 .2546658 28.309036 -14.027822)"><path d="m-98.871595 76.439892 64.022942-8.584895c.183648-.02463.350946.103446.37511.287153-16.009618 54.09133-35.873057 63.28888-55.325753 77.27126-.183648.0246-.35094-.10345-.375104-.28716l-8.985065-68.310305c-.0242-.183708.10422-.351427.28787-.376053z" fill="#fff"/><rect fill="url(#p)" height="77.837868" ry=".33446" transform="matrix(.99112926 -.13290143 .13040978 .99146018 0 0)" width="8.254837" x="-112.71593" y="58.486721"/><rect fill="url(#o)" height="82.548416" ry=".3547" transform="matrix(.13040978 .99146018 -.99112926 .13290143 0 0)" width="7.783785" x="58.486721" y="30.167507"/><g fill-rule="evenodd"><path d="m107.44727 0c-2.85944 3.3870586-5.49664 6.6338205-7.783208 9.6601562-16.038203 21.2269878-16.425494 32.4073768-24.638671 48.6113278 4.95793 4.105228 9.915112 8.209225 14.873047 12.314454 12.775772-11.735556 22.871092-14.931741 38.101562-34.482422v-36.103516z" fill="url(#d)" stroke="#000" stroke-width="2.333323" transform="matrix(.70310784 -.09428038 .08723363 .6632069 -108.68717 69.657222)"/><path d="m-46.9123 115.2964c-1.349022 7.40157.759053 15.18878-4.047066 22.20473-6.787251 9.908-31.183623 13.97436-44.816686 5.59442 13.842993-1.96808 18.236105-11.83508 26.290799-20.3453 5.208072-5.5026 11.583136-8.84423 13.867728-12.65303 2.901753 1.73306 5.803489 3.46614 8.705225 5.19918z" fill="url(#e)"/><path d="m-49.226127 114.67029c-.495831 4.43982-1.36099 12.27592-3.713481 16.43446-3.322219 5.87273-18.168032 12.56395-25.732119 8.9925 8.123709-1.68138 10.608773-12.83226 14.444306-18.02211 1.355815-1.83454 9.289023-8.05602 10.392948-10.31818 1.60108 1.08515 3.007269 1.82815 4.608346 2.91333z" fill="url(#f)"/><path d="m-50.852965 101.22964c4.36122-11.520914 3.658771-18.972754 13.083651-34.562727 9.424879-15.589971 29.0910824-39.248738 43.4656295-58.9770924.9155496-1.2565496 3.3909686.0379744 6.5206075 1.874024 3.248997 1.9060754 5.625142 3.6441624 5.011622 4.8915374-10.7492359 21.854967-22.5085319 50.152689-31.93341 65.74266-9.424885 15.589967-16.410583 18.531434-24.615875 27.797148-3.844076-2.25518-7.688151-4.51037-11.532225-6.76555z" fill="url(#g)" opacity=".293023"/><path d="m107.44727 0c-2.85944 3.3870586-5.49664 6.6338205-7.783208 9.6601562-16.038203 21.2269878-16.425494 32.4073768-24.638671 48.6113278 4.95793 4.105228 9.915112 8.209225 14.873047 12.314454 12.775772-11.735556 22.871092-14.931741 38.101562-34.482422v-36.103516z" fill="url(#h)" opacity=".293023" transform="matrix(.70310784 -.09428038 .08723363 .6632069 -108.68717 69.657222)"/><path d="m-46.9123 115.2964c-1.349022 7.40157.759053 15.18878-4.047066 22.20473-6.787251 9.908-24.093064-6.33707-16.44232-15.15914 5.115512-5.89868 9.499569-8.43597 11.784161-12.24477 2.901753 1.73306 5.803489 3.46614 8.705225 5.19918z" fill="url(#i)"/></g><g transform="matrix(1.315268 .227284 .523783 1.001007 -160.614 3.521774)"><path d="m38.34944 98.879422c.751011-1.450103 1.895586-3.192465 3.027228-4.145441l6.412295 5.187625-3.199247 3.950744zm5.560223 4.449478 3.19925-3.95078 2.266831 1.81152c-.626426 1.2552-2.096426 2.66359-3.415851 3.76577z" fill="url(#j)"/><path d="m41.361775 94.94897c.746637-1.453636 1.888528-3.198165 3.024064-4.148003l6.52432 5.278231-3.199564 3.950502zm5.656954 4.52771 3.199556-3.95053 2.306244 1.843402c-.622393 1.258459-2.095991 2.663928-3.420035 3.762378z" fill="url(#k)"/><path d="m44.345464 90.914825c.737901-1.460703 1.874426-3.209577 3.017737-4.153123l6.748372 5.459444-3.200191 3.949994zm5.850403 4.684175 3.200183-3.95003 2.385064 1.907161c-.614324 1.264978-2.095127 2.664625-3.428391 3.755622z" fill="url(#l)"/><path d="m47.385861 86.950051c.733532-1.46424 1.86737-3.215282 3.014569-4.155681l6.860405 5.550042-3.20051 3.949749zm5.947126 4.762406 3.200498-3.949777 2.424476 1.939032c-.610288 1.26824-2.094701 2.664978-3.432577 3.752246z" fill="url(#m)"/><path d="m50.41561 82.77934c-1.111349.911013-2.222017 2.602204-2.956499 4.037011l-.09357-.06297c-1.107583.914062-2.217891 2.605539-2.956497 4.03701l-.03395.0028c-1.089405.911249-2.171914 2.582859-2.918393 3.998402l-.09357-.06297c-1.131642.952977-2.251889 2.697034-3.002898 4.147137l6.245645 5.00016 1.35296 1.09048c1.319431-1.10219 2.806202-2.53846 3.432627-3.79366l-.153181-.12879c1.290777-1.082291 2.681424-2.455868 3.284367-3.675001l-.123373-.09588c1.322309-1.085948 2.782454-2.467493 3.390379-3.7193l-.182987-.161704c1.315547-1.077056 2.7547-2.43887 3.352276-3.680689l-1.689125-1.380973z" fill="url(#n)"/></g></g></svg>