<svg height="22" width="22" xmlns="http://www.w3.org/2000/svg" xmlns:xlink="http://www.w3.org/1999/xlink"><linearGradient id="a" gradientTransform="matrix(.09253752 0 0 .14870594 -6.00486 -81.716489)" gradientUnits="userSpaceOnUse" x1="399.77466" x2="399.77466" y1="1164.6696" y2="549.06134"><stop offset="0" stop-color="#717174"/><stop offset=".5" stop-color="#9c9ca1"/><stop offset="1" stop-color="#bdbdc2"/></linearGradient><linearGradient id="b" gradientTransform="matrix(.76189483 0 0 1.0158609 -3.046726 -19.300523)" gradientUnits="userSpaceOnUse" x1="119.57646" x2="15.999996" y1="23.792561" y2="109.6508"><stop offset="0" stop-color="#fff"/><stop offset=".42597079" stop-color="#fff"/><stop offset=".5892781" stop-color="#e5e5e5"/><stop offset=".80219781" stop-color="#eaeaea"/><stop offset="1" stop-color="#eee"/></linearGradient><linearGradient id="c" gradientTransform="matrix(0 -1.8256937 -2.2856842 0 118.85641 200.15699)" gradientUnits="userSpaceOnUse" x1="102.31124" x2="74.330322" y1="-5.830213" y2="32"><stop offset="0" stop-color="#fff"/><stop offset="1" stop-color="#fff" stop-opacity="0"/></linearGradient><g transform="matrix(.12890587703 0 0 .12890587703 1.75006164062 1.7807115)"><rect fill="url(#a)" height="100.84736" opacity=".75" rx="3.628262" ry="4.219727" transform="matrix(0 1 1 0 0 0)" width="100.84737" x="-6.055319" y="-5.817584"/><g fill-rule="evenodd"><rect fill="url(#b)" height="85.332382" rx="1.687967" ry="2.031721" transform="matrix(0 1 1 0 0 0)" width="85.332375" x="1.70217" y="1.939906"/><path d="m85.334414 31.999815c-21.549668 19.505031-55.110605 35.88658-83.3945084 47.277246v-49.693172c27.0784584-2.783233 61.7929094-5.606901 83.3945084-17.584074z" fill="url(#c)"/></g></g><g transform="matrix(.12890587703 0 0 .12890587703 7.74997726563 7.780627125)"><rect fill="url(#a)" height="100.84736" opacity=".75" rx="3.628262" ry="4.219727" transform="matrix(0 1 1 0 0 0)" width="100.84737" x="-6.055319" y="-5.817584"/><g fill-rule="evenodd"><rect fill="url(#b)" height="85.332382" rx="1.687967" ry="2.031721" transform="matrix(0 1 1 0 0 0)" width="85.332375" x="1.70217" y="1.939906"/><path d="m85.334414 31.999815c-21.549668 19.505031-55.110605 35.88658-83.3945084 47.277246v-49.693172c27.0784584-2.783233 61.7929094-5.606901 83.3945084-17.584074z" fill="url(#c)"/></g></g></svg>