<svg height="22" viewBox="0 0 5.8208332 5.8208335" width="22" xmlns="http://www.w3.org/2000/svg" xmlns:xlink="http://www.w3.org/1999/xlink"><linearGradient id="a" gradientUnits="userSpaceOnUse" x1="55" x2="55" y1="1036.4132" y2="1032.4822"><stop offset="0" stop-color="#003d7b"/><stop offset="1" stop-color="#003d7b" stop-opacity="0"/></linearGradient><filter id="b" color-interpolation-filters="sRGB" height="1.697208" width="1.027888" x="-.013944" y="-.348604"><feGaussianBlur stdDeviation=".70882694"/></filter><filter id="c" color-interpolation-filters="sRGB" height="1.869989" width="1.027669" x="-.013834" y="-.434994"><feGaussianBlur stdDeviation=".70324038"/></filter><linearGradient id="d" gradientUnits="userSpaceOnUse" x1="2.6458333" x2="2.6458333" y1="290.91456667" y2="293.8249833"><stop offset="0" stop-color="#102134"/><stop offset="1" stop-color="#102134" stop-opacity="0"/></linearGradient><clipPath id="e"><rect height="50.571445" rx="4" width="128.11432" x="4" y="945.83502"/></clipPath><filter id="f" color-interpolation-filters="sRGB" height="1.267833" width="1.129187" x="-.064594" y="-.133917"><feGaussianBlur stdDeviation="3.1247207"/></filter><linearGradient id="g" gradientUnits="userSpaceOnUse" x1="2.3124154417" x2="2.38124997" y1="293.12588113714" y2="296.47081662"><stop offset="0" stop-color="#587bcb"/><stop offset=".94117647" stop-color="#3f59ae"/><stop offset="1" stop-color="#3d7cdb"/></linearGradient><linearGradient id="h" gradientTransform="matrix(.36380208 0 0 .26458333 -.099219 292.76665)" gradientUnits="userSpaceOnUse" x1="6.5" x2="6.5" y1="11" y2="12"><stop offset="0" stop-color="#2a3674"/><stop offset="1" stop-color="#174072" stop-opacity="0"/></linearGradient><linearGradient id="i" gradientUnits="userSpaceOnUse" x1=".36443973" x2=".36443973" y1="294.14635850065" y2="293.64217819343"><stop offset="0" stop-color="#34608f"/><stop offset="1" stop-color="#34608f" stop-opacity="0"/></linearGradient><linearGradient id="j" gradientTransform="matrix(.0564759 0 0 .03012001 -1.167122 265.45445)" gradientUnits="userSpaceOnUse" x1="124.01234" x2="124.01234" y1="966.51019" y2="935.34326"><stop offset="0"/><stop offset="1" stop-color="#34608f" stop-opacity="0"/></linearGradient><filter id="k" color-interpolation-filters="sRGB" height="1.072142" width="1.071866" x="-.035933" y="-.036071"><feGaussianBlur stdDeviation=".66434216"/></filter><radialGradient id="l" cx="-55.685837" cy="-347.11612" gradientTransform="matrix(-.89528211 -.23989009 .26001404 -.9703857 -29.034684 -654.02683)" gradientUnits="userSpaceOnUse" r="22.14249"><stop offset="0" stop-color="#82c133"/><stop offset="1" stop-color="#72b028"/></radialGradient><linearGradient id="m" gradientUnits="userSpaceOnUse" x1="328.12448" x2="336.98077" y1="120.81158" y2="87.759453"><stop offset="0" stop-color="#96ff00"/><stop offset="1" stop-color="#609800"/></linearGradient><clipPath id="n"><circle cx="343.91208" cy="92.325096" r="36" transform="matrix(.86602539 .50000002 .49999965 -.86602561 0 0)"/></clipPath><filter id="o"><feGaussianBlur stdDeviation="2.8805897"/></filter><radialGradient id="p" cx="343.99899" cy="92" gradientTransform="matrix(.47032074 0 0 .4703204 -235.54627 -330.99181)" gradientUnits="userSpaceOnUse" r="36"><stop offset="0" stop-color="#e5ff00"/><stop offset="1" stop-color="#bff500" stop-opacity="0"/></radialGradient><linearGradient id="q" gradientUnits="userSpaceOnUse" x1="122.00004" x2="122.00004" y1="61.999996" y2="9.932843"><stop offset="0" stop-color="#004d00" stop-opacity="0"/><stop offset=".5" stop-color="#004d00"/><stop offset="1" stop-color="#004d00" stop-opacity="0"/></linearGradient><filter id="r"><feGaussianBlur stdDeviation="1.04"/></filter><linearGradient id="s" gradientTransform="matrix(0 .47393418 -.47393451 0 83.152635 278.87871)" gradientUnits="userSpaceOnUse" x1="-80.00296" x2="-45.096584" y1="-131.93112" y2="-131.93112"><stop offset="0" stop-color="#fff"/><stop offset="1" stop-color="#fff" stop-opacity="0"/></linearGradient><g transform="translate(0 -291.17915)"><rect fill="url(#a)" filter="url(#b)" height="4.39197" opacity=".577143" rx="2.439995" ry="2.195984" transform="matrix(.03307292 0 0 .06777243 .23151 226.33164)" width="153.99997" x="3.000028" y="1032.4822"/><path d="m-46.991242 13.13992h102.449726c2.216 0 4 .8652 4 1.94 0 1.0747-1.78433 1.902-4 1.94-36.945183.6329-63.1527685.7782-102.449726 0-2.215566-.044-4-.8653-4-1.94 0-1.0748 1.784-1.94 4-1.94z" filter="url(#c)" opacity=".554286" transform="matrix(.04581412 0 0 .03307292 2.699921 296.03624)"/><path d="m.52916666 291.9729c-.13229167 0-.12247682.10285-.13229167.13229l-.13229166.39688v1.32292c0 .14658.11800416.26458.26458333.26458h4.49791664c.1465792 0 .2645833-.118.2645833-.26458v-1.32292c0-.14658-.1180041-.26458-.2645833-.26458h-2.6711548c-.022278-.12858-.047096-.26459-.1069702-.26459z" fill="#3b6ca9"/><path d="m.52916666 291.9729c-.13229167 0-.12159974.10316-.13229167.13229l-.13229166.39688v1.32292c0 .14658.11800416.26458.26458333.26458v-1.5875l.13229167-.26458h1.42420247c.00353.0181.00635.0249.00982.045.021874.1268.131783.21948.2604493.21963h.2899048 2.38125v1.5875c.1465792 0 .2645833-.118.2645833-.26458v-1.32292c0-.14658-.1180041-.26458-.2645833-.26458h-2.6711564c-.022278-.12858-.047096-.26459-.1069702-.26459z" fill="url(#d)" opacity=".25"/><path clip-path="url(#e)" d="m30.012986 976.64619-26.0129822-.46865.0000002 37.10606 128.114316-.02v-40.3432c0-2.54081-2.0596-4.59317-4.62097-4.58387l-85.480364.31046c-9.375263 0-5.067235 7.84799-12 8z" fill="#16375b" fill-opacity=".801471" filter="url(#f)" transform="matrix(.03923904 0 0 .03923904 .107627 255.12383)"/><path d="m.52916666 293.5604h1.19062494l.2645834-.26458h3.3072916c.1465792 0 .2645834.118.2645834.26458v2.64584c0 .14658-.1180042.26458-.2645834.26458h-4.76249994c-.14657917 0-.26458333-.118-.26458333-.26458v-2.38125c0-.14658.11800416-.26459.26458333-.26459z" fill="url(#g)"/><path d="m.26458333 295.67707h5.29166667v.26458h-5.29166667z" fill="#385da4"/><path d="m.26458333 295.67707h5.29166667v.26458h-5.29166667z" fill="url(#h)"/><path d="m.26458333 295.94165h5.29166667v.13229h-5.29166667z" fill="#a4c0e8"/><path d="m1.984375 293.29582-.2645834.26458h-1.19062494c-.14657917 0-.26458333.11801-.26458333.26459v.26458c0-.14658.11801291-.26298.26458333-.26458h1.19062494l.2645834-.26459h3.3072916c.1465792 0 .2645834.11801.2645834.26459v-.26459c0-.14658-.1180053-.26401-.2645834-.26458z" fill="#a4c0e8"/><path d="m.79375 292.50207h1.0583333v.26458h-1.0583333z" fill="#fcf9e9"/><path d="m1.5875 292.50207h.2645833v.26458h-.2645833z" fill="#fbc66d"/><path d="m.52916666 293.5604c-.14566305 0-.2626042.1167-.26406658.262v2.91559c.00006086.006.003161-.51806.003617-.51212.010083.0849.19871489.24441.26044922.24495h.00051594v-2.91042z" fill="url(#i)" opacity=".594286"/><path d="m5.2916666 293.29582v3.175c.1465792 0 .2645834-.118.2645834-.26458v-2.64584c0-.14658-.1180042-.26458-.2645834-.26458z" fill="url(#j)" opacity=".405714"/><g transform="matrix(.06614604 0 0 .06614604 -5.332245 275.53011)"><ellipse cx="-207.73613" cy="212.29665" fill="none" rx="20.523085" ry="20.523069" stroke-width=".570085" transform="matrix(-.96592587 -.2588189 -.25881915 .9659258 0 0)"/><ellipse cx="-59.830322" cy="-331.66757" fill="#292929" filter="url(#k)" rx="22.14249" ry="22.142477" transform="matrix(-.89809327 .23387197 -.24064319 -.8728227 12.164424 -15.390993)"/><ellipse cx="-73.756378" cy="-287.72238" fill="url(#l)" rx="20.523085" ry="20.523069" transform="matrix(-.96592587 .25881888 -.25881888 -.96592587 0 0)"/><circle cx="343.99899" cy="92" r="36" style="opacity:.8;fill:none;stroke-width:6.751382;clip-path:url(#n);stroke:url(#m);filter:url(#o)" transform="matrix(-.55066046 -.14754894 -.14754899 .55066008 348.7124 258.92482)"/><ellipse cx="-73.756401" cy="-287.72238" fill="url(#p)" rx="16.931545" ry="16.931536" stroke-width=".470321" transform="matrix(-.96592583 .25881905 -.25881905 -.96592583 0 0)"/><path d="m120.01465 24.819615v9.194998h-7.32125v3.970777h7.32125v9.194998h3.97076v-9.194998h7.32126v-3.970777h-7.32126v-9.194998z" style="fill:none;stroke-width:4;stroke-linecap:round;stroke-linejoin:round;stroke:url(#q);filter:url(#r)" transform="matrix(1.2017106 0 0 1.2017106 -.897549 217.33317)"/><path d="m141.84828 244.34507v10.13508h-10.13507v7.72576h10.13507v10.13508h7.7258v-10.13508h10.13506v-7.72576h-10.13506v-10.13508z" fill="#fff" fill-rule="evenodd"/><path d="m145.71127 240.96258c-7.27803 0-13.35947 5.13926-14.82526 11.98165 2.92172 2.72366 8.46549 4.56161 14.82526 4.56161s11.90353-1.83795 14.82523-4.56161c-1.46576-6.84239-7.54721-11.98165-14.82523-11.98165z" fill="url(#s)" opacity=".8" stroke-width=".789785"/></g></g></svg>