<svg height="22" viewBox="0 0 5.8208332 5.8208336" width="22" xmlns="http://www.w3.org/2000/svg" xmlns:xlink="http://www.w3.org/1999/xlink"><linearGradient id="a" gradientTransform="matrix(.37041695 0 0 .37797536 -62.441782 -65.044062)" gradientUnits="userSpaceOnUse" x1="418" x2="418" y1="535" y2="528"><stop offset="0" stop-color="#590000"/><stop offset="1" stop-color="#bf0000"/></linearGradient><radialGradient id="b" cx="419.15976" cy="531.81116" gradientTransform="matrix(.55562499 0 0 .51858333 -140.04395 -139.63659)" gradientUnits="userSpaceOnUse" r="2.5"><stop offset="0" stop-color="#f22"/><stop offset="1" stop-color="#cd1f00"/></radialGradient><linearGradient id="c" gradientUnits="userSpaceOnUse" x1="92.39250188" x2="92.8813518587" y1="134.17540014" y2="135.99980961133"><stop offset="0" stop-color="#ffbfbf"/><stop offset="1" stop-color="#ffbfbf" stop-opacity="0"/></linearGradient><g fill="#555"><path d="m3.43760528125 1.58751890625h1.58747771875v.26457646875h-1.58747771875z"/><path d="m3.43537073438 2.38126h1.58971192188v.26457646875h-1.58971192188z"/><path d="m3.43760528125 3.1749959375h1.58747771875v.26457646875h-1.58747771875z"/><path d="m3.43760528125 3.96873359375h1.58747771875v.26457646875h-1.58747771875z"/><path d="m.79377985938.79378125h4.23130296875v.26457646875h-4.23130296875z"/><path d="m.78387951562 4.7624746875h4.23923207813v.26457646875h-4.23923207813z"/></g><g transform="matrix(.85937501719 0 0 .85937501719 -77.43358759375 -113.51071984375)"><path d="m93.133338 134.14895-1.852086 1.32292 1.852086 1.32291z" fill="none" stroke="url(#a)" stroke-linejoin="round" stroke-width=".529167"/><g fill-rule="evenodd"><path d="m93.133333 134.1754-1.852084 1.29646 1.852084 1.29646z" fill="url(#b)"/><path d="m93.133333 134.1754-1.852084 1.29646h1.847948z" fill="url(#c)"/></g></g><path d="m3.43957617188 1.3229396875h1.58747771875v.26457646875h-1.58747771875z" fill="#fff" fill-opacity=".392157"/><path d="m3.437341625 2.11668078125h1.58971192187v.26457646875h-1.58971192187z" fill="#fff" fill-opacity=".392157"/><path d="m3.43957617188 2.91041671875h1.58747771875v.26457646875h-1.58747771875z" fill="#fff" fill-opacity=".392157"/><path d="m3.43957617188 3.704154375h1.58747771875v.26457646875h-1.58747771875z" fill="#fff" fill-opacity=".392157"/><g fill="#fff" fill-opacity=".392157"><path d="m.79575057813.529202375h4.23130296875v.26457646875h-4.23130296875z"/><path d="m.78585023437 4.4978958125h4.23923207813v.26457646875h-4.23923207813z"/></g></svg>