<svg height="22" viewBox="0 0 5.8208332 5.8208336" width="22" xmlns="http://www.w3.org/2000/svg" xmlns:xlink="http://www.w3.org/1999/xlink"><linearGradient id="a" gradientTransform="matrix(.37041695 0 0 .37797536 -139.54835 82.185144)" gradientUnits="userSpaceOnUse" x1="418" x2="418" y1="535" y2="528"><stop offset="0" stop-color="#033a13"/><stop offset="1" stop-color="#398c37"/></linearGradient><radialGradient id="b" cx="419.15976" cy="531.81116" gradientTransform="matrix(.55562499 0 0 .51858333 -217.15051 7.592611)" gradientUnits="userSpaceOnUse" r="2.5"><stop offset="0" stop-color="#bbf10e"/><stop offset="1" stop-color="#5f9207"/></radialGradient><linearGradient id="c" gradientUnits="userSpaceOnUse" x1="15.28594388" x2="15.7747938587" y1="281.40460614" y2="283.22901561133"><stop offset="0" stop-color="#e0f4b8"/><stop offset="1" stop-color="#92c441" stop-opacity=".214592"/></linearGradient><g fill="#555"><path d="m3.43957617188 1.58751890625h1.58747771875v.26457646875h-1.58747771875z"/><path d="m3.43660239063 2.38126h1.58971192188v.26457646875h-1.58971192188z"/><path d="m3.43957617188 3.1749959375h1.58747771875v.26457646875h-1.58747771875z"/><path d="m3.43957617188 3.96873359375h1.58747771875v.26457646875h-1.58747771875z"/><path d="m.79377985938.79378125h4.23130296875v.26457646875h-4.23130296875z"/><path d="m.78387951562 4.7624746875h4.23923207813v.26457646875h-4.23923207813z"/></g><g transform="matrix(.85937501719 0 0 .85937501719 -11.17012298438 -240.0358221875)"><path d="m14.174695 281.37815 1.852086 1.32292-1.852086 1.32291z" fill="none" stroke="url(#a)" stroke-linejoin="round" stroke-width=".529167"/><g fill-rule="evenodd"><path d="m14.1747 281.4046 1.852083 1.29646-1.852083 1.29646z" fill="url(#b)"/><path d="m14.1747 281.4046 1.852083 1.29646h-1.847948z" fill="url(#c)"/></g></g><path d="m3.43957617188 1.3229396875h1.58747771875v.26457646875h-1.58747771875z" fill="#fff" fill-opacity=".392157"/><path d="m3.43660239063 2.11668078125h1.58971192188v.26457646875h-1.58971192188z" fill="#fff" fill-opacity=".392157"/><path d="m3.43957617188 2.91041671875h1.58747771875v.26457646875h-1.58747771875z" fill="#fff" fill-opacity=".392157"/><path d="m3.43957617188 3.704154375h1.58747771875v.26457646875h-1.58747771875z" fill="#fff" fill-opacity=".392157"/><g fill="#fff" fill-opacity=".392157"><path d="m.7937796875.529202375h4.23130296875v.26457646875h-4.23130296875z"/><path d="m.78387934375 4.4978958125h4.23923207813v.26457646875h-4.23923207813z"/></g></svg>