<svg height="22" width="22" xmlns="http://www.w3.org/2000/svg" xmlns:xlink="http://www.w3.org/1999/xlink"><linearGradient id="a" gradientTransform="matrix(1 0 0 .8610463 -108.16138 -1.436187)" gradientUnits="userSpaceOnUse" spreadMethod="reflect" x1="223.32712" x2="226.659" xlink:href="#c" y1="53.784153" y2="57.279232"/><linearGradient id="b"><stop offset="0" stop-color="#002a0d" stop-opacity=".914439"/><stop offset="1" stop-color="#002a0d" stop-opacity="0"/></linearGradient><linearGradient id="c"><stop offset="0" stop-color="#fff"/><stop offset="1" stop-color="#fff" stop-opacity="0"/></linearGradient><filter id="d" height="1.255079" width="1.231461" x="-.11573" y="-.12754"><feGaussianBlur stdDeviation=".32549158"/></filter><linearGradient id="e" gradientTransform="matrix(1 0 0 .8610463 -108.16138 -1.436187)" gradientUnits="userSpaceOnUse" spreadMethod="reflect" x1="223.32712" x2="226.659" y1="53.784153" y2="57.279232"><stop offset="0" stop-color="#cdeeff"/><stop offset="1" stop-color="#d2e8ed" stop-opacity="0"/></linearGradient><linearGradient id="f" gradientUnits="userSpaceOnUse" x1="12.176792" x2="12.176792" y1="-2.861086" y2="12.078377"><stop offset="0" stop-color="#edffbf"/><stop offset="1" stop-color="#edffbf" stop-opacity="0"/></linearGradient><linearGradient id="g"><stop offset="0" stop-color="#f0ff80"/><stop offset="1" stop-color="#f0ff80" stop-opacity="0"/></linearGradient><radialGradient id="h" cx="11.578125" cy="64.53125" gradientTransform="matrix(6.5079869 0 0 1.510917 -63.772161 -32.970115)" gradientUnits="userSpaceOnUse" r="3.578125" xlink:href="#c"/><radialGradient id="i" cx="10.312091" cy="20.258072" gradientTransform="matrix(.10528944 -3.5789739 1.8868379 .05550868 -25.309202 50.781956)" gradientUnits="userSpaceOnUse" r="9.5"><stop offset="0" stop-color="#83fc28"/><stop offset="1" stop-color="#102c07"/></radialGradient><radialGradient id="j" cx="10.759766" cy="15.06706" gradientTransform="matrix(.59220712 -.04999318 .07235929 .85715077 3.297514 .623172)" gradientUnits="userSpaceOnUse" r="10.499903"><stop offset="0" stop-color="#002a0d"/><stop offset="1" stop-color="#002a0d" stop-opacity="0"/></radialGradient><radialGradient id="k" cx="-1.281694" cy="20.198025" gradientTransform="matrix(.59220712 -.04999318 .07235929 .85715077 3.297514 .623172)" gradientUnits="userSpaceOnUse" r="10.499903" xlink:href="#b"/><linearGradient id="l" gradientUnits="userSpaceOnUse" x1="8" x2="12" y1="26" y2="-4"><stop offset="0" stop-color="#005f1e"/><stop offset="1" stop-color="#43943c"/></linearGradient><linearGradient id="m" gradientUnits="userSpaceOnUse" x1="28.00025" x2="6.000249" y1="17.99975" y2="7.999751"><stop offset="0" stop-color="#b2ff00"/><stop offset="1" stop-color="#acff00" stop-opacity="0"/></linearGradient><filter id="n" color-interpolation-filters="sRGB" height="1.031622" width="1.03079" x="-.015395" y="-.015811"><feGaussianBlur stdDeviation=".121875"/></filter><radialGradient id="o" cx="11.578125" cy="64.53125" gradientTransform="matrix(6.5079869 0 0 1.510917 -63.772161 -32.970115)" gradientUnits="userSpaceOnUse" r="3.578125" xlink:href="#g"/><linearGradient id="p" gradientTransform="matrix(1 0 0 .8610463 -108.16138 -1.436187)" gradientUnits="userSpaceOnUse" spreadMethod="reflect" x1="223.32712" x2="226.659" xlink:href="#g" y1="53.784153" y2="57.279232"/><filter id="q" color-interpolation-filters="sRGB" height="1.300108" width="1.453439" x="-.226719" y="-.150054"><feGaussianBlur stdDeviation=".67602533"/></filter><filter id="r" color-interpolation-filters="sRGB" height="1.298121" width="1.450436" x="-.225218" y="-.14906"><feGaussianBlur stdDeviation=".67154834"/></filter><radialGradient id="s" cx="13.13153" cy="8.902117" gradientTransform="matrix(.59220712 -.04999318 .07235929 .85715077 3.297514 .623172)" gradientUnits="userSpaceOnUse" r="10.499903" xlink:href="#b"/><g transform="matrix(0 1 1 0 1.000249 -.000249)"><path d="m10.984375 0c-.249345.00381-.488272.1006324-.669922.2714844l-7.9999999 7.9999996c-.00727.0071-.014432.01422-.021484.02149l-1 1c-.39036806.39053-.39036806 1.023532 0 1.414062l1 1 1 1 6.9999999 7c.39053.390368 1.023532.390368 1.414062 0l2-2c.376953-.377263.39156-.983939.0332-1.378906l-2.980465-3.32813h9.240234c.552262-.000055.999945-.447738 1-1v-4c-.000055-.5522619-.447738-.9999448-1-1h-9.085938l2.792969-3.2929688c.390368-.3905299.390368-1.0235325 0-1.4140624l-2-2c-.191323-.1914118-.452053-.2971131-.722656-.2929688z" fill="url(#l)"/><path d="m10.984375 0c-.249345.00381-.488272.1006324-.669922.2714844l-6.6484374 6.7285156-.6660156.6269531-.6855469.6445309c-.00727.0071-.014432.01422-.021484.02149l-1 1c-.39036806.39053-.39036806 1.023532 0 1.414062l1 1 1 1 6.9999999 7c.39053.390368 1.023532.390368 1.414062 0l2-2c.376953-.377263.39156-.983939.0332-1.378906l-2.980465-3.32813h9.240234c.552262-.000055.999945-.447738 1-1v-4c-.000055-.5522619-.447738-.9999448-1-1h-9.085938l2.792969-3.2929688c.390368-.3905299.390368-1.0235325 0-1.4140624l-2-2c-.191323-.1914118-.452053-.2971131-.722656-.2929688z" fill="url(#j)"/><path d="m10.984375 0c-.249345.00381-.488272.1006324-.669922.2714844l-6.6484374 6.7285156-.6660156.6269531-.6855469.6445309c-.00727.0071-.014432.01422-.021484.02149l-1 1c-.39036806.39053-.39036806 1.023532 0 1.414062l1 1 1 1 6.9999999 7c.39053.390368 1.023532.390368 1.414062 0l2-2c.376953-.377263.39156-.983939.0332-1.378906l-2.980465-3.32813h9.240234c.552262-.000055.999945-.447738 1-1v-4c-.000055-.5522619-.447738-.9999448-1-1h-9.085938l2.792969-3.2929688c.390368-.3905299.390368-1.0235325 0-1.4140624l-2-2c-.191323-.1914118-.452053-.2971131-.722656-.2929688z" fill="url(#k)" opacity=".25"/><path d="m10.984375 0c-.249345.00381-.488272.1006324-.669922.2714844l-6.6484374 6.7285156-.6660156.6269531-.6855469.6445309c-.00727.0071-.014432.01422-.021484.02149l-1 1c-.39036806.39053-.39036806 1.023532 0 1.414062l1 1 1 1 6.9999999 7c.39053.390368 1.023532.390368 1.414062 0l2-2c.376953-.377263.39156-.983939.0332-1.378906l-2.980465-3.32813h9.240234c.552262-.000055.999945-.447738 1-1v-4c-.000055-.5522619-.447738-.9999448-1-1h-9.085938l2.792969-3.2929688c.390368-.3905299.390368-1.0235325 0-1.4140624l-2-2c-.191323-.1914118-.452053-.2971131-.722656-.2929688z" fill="url(#s)"/><g fill-rule="evenodd" transform="translate(-.591792 -1.968004)"><path d="m115.65112 40c-.33944 1.154561-2.5625 6.125-2.5625 6.125l6.75-.03125v-2.09375c.00076-2.05105-1.61796-4.000656-4-4z" fill="url(#e)" filter="url(#d)" opacity=".614232" transform="matrix(.171875 0 0 -.171875 .622464 21.875)"/><path d="m115.65112 40c-.33944 1.154561-2.5625 6.125-2.5625 6.125l6.75-.03125v-2.09375c.00076-2.05105-1.61796-4.000656-4-4z" fill="url(#a)" filter="url(#d)" opacity=".749064" transform="matrix(-.00487818 -.17180577 -.17180577 .00487818 28.856084 29.563389)"/><path d="m115.65112 40c-.33944 1.154561-2.5625 6.125-2.5625 6.125l6.75-.03125v-2.09375c.00076-2.05105-1.61796-4.000656-4-4z" fill="url(#a)" filter="url(#d)" opacity=".749064" transform="matrix(-.09012751 -.14634907 -.14634907 .09012751 28.369102 15.788337)"/><path d="m115.65112 40c-.33944 1.154561-2.5625 6.125-2.5625 6.125l6.75-.03125v-2.09375c.00076-2.05105-1.61796-4.000656-4-4z" fill="url(#p)" filter="url(#d)" opacity=".749064" transform="matrix(-.09012751 .14634907 -.14634907 -.09012751 28.424493 8.215621)"/></g><path d="m11 1-6.9375 7h-.0625v.05859l-1 .94141-1 1 1 1 1 1 7 7 2-2-4.5-5h11.5v-4h-11.5l4.5-5z" fill="url(#i)"/><path d="m14.79107 59.125-2.1875 1.75c-.949856.759129-1.5 1.909063-1.5 3.125s.550144 2.365871 1.5 3.125l3.53125 2.8125 2.125-5.625z" fill="url(#h)" fill-rule="evenodd" filter="url(#r)" transform="matrix(-.1611048 0 0 -.15560479 15.652148 12.964029)"/><path d="m11 1-6.9375 7h-.0625v.05859l-1 .94141-1 1 1 1 1 1 7 7 2-2-4.5-5h11.5v-4h-11.5l4.5-5z" fill="none" filter="url(#n)" stroke="url(#m)" stroke-width=".5"/><path d="m11 2-1 1-.9414062 1h-.0585938v.0625l-7 6.9375.1425781.142578c1.6707401-.123971 3.3768777-.515489 5.0390625-1.005859l1.8183594-1.636719v1.0585938c2.207102-.7456736 4.282163-1.5701882 5.957031-2.0703126l1.154297-.3769531-3.111328-3.1113281-1-1z" fill="url(#f)" transform="matrix(0 1 1 0 .000249 -1.000249)"/><path d="m14.79107 62.338269-2.1875 1.75c-.949856.759129-1.5 1.909063-1.5 3.125s.550144 2.365871 1.5 3.125l3.53125 2.8125 2.125-5.625z" fill="url(#o)" fill-rule="evenodd" filter="url(#q)" transform="matrix(-.1611048 0 0 -.15560479 15.595131 27.464029)"/></g></svg>