<svg height="22" width="22" xmlns="http://www.w3.org/2000/svg" xmlns:xlink="http://www.w3.org/1999/xlink"><linearGradient id="a"><stop offset="0" stop-color="#717174"/><stop offset=".5" stop-color="#9c9ca1"/><stop offset="1" stop-color="#bdbdc2"/></linearGradient><linearGradient id="b" gradientTransform="matrix(.09253752 0 0 .14870594 -6.00486 -81.716489)" gradientUnits="userSpaceOnUse" x1="399.77466" x2="399.77466" xlink:href="#a" y1="1164.6696" y2="549.06134"/><linearGradient id="c" gradientTransform="matrix(.76189483 0 0 1.0158609 -3.046726 -19.300523)" gradientUnits="userSpaceOnUse" x1="119.57646" x2="15.999996" y1="23.792561" y2="109.6508"><stop offset="0" stop-color="#fff"/><stop offset=".42597079" stop-color="#fff"/><stop offset=".5892781" stop-color="#e5e5e5"/><stop offset=".80219781" stop-color="#eaeaea"/><stop offset="1" stop-color="#eee"/></linearGradient><linearGradient id="d" gradientTransform="matrix(0 -1.8256937 -2.2856842 0 118.85641 200.15699)" gradientUnits="userSpaceOnUse" x1="102.31124" x2="74.330322" y1="-5.830213" y2="32"><stop offset="0" stop-color="#fff"/><stop offset="1" stop-color="#fff" stop-opacity="0"/></linearGradient><linearGradient id="e" gradientUnits="userSpaceOnUse" x1="48.42743040423" x2="122.15165915326" y1="42.02916076467" y2="42.02916076467"><stop offset="0" stop-color="#b4b4b6"/><stop offset=".5" stop-color="#9c9ca1"/><stop offset="1" stop-color="#cdcdd1"/></linearGradient><radialGradient id="f" cx="87.28954201833" cy="-38.21734335572" gradientUnits="userSpaceOnUse" r="29.01550427961"><stop offset="0" stop-color="#a9cbfc"/><stop offset="1" stop-color="#aecffc"/></radialGradient><radialGradient id="g" cx="89.36060815" cy="-29.85897945" gradientUnits="userSpaceOnUse" r="27.14677185"><stop offset="0" stop-color="#8fbcff"/><stop offset="1" stop-color="#80b3ff"/></radialGradient><linearGradient id="h" gradientUnits="userSpaceOnUse" x1="122.70804" x2="132" xlink:href="#a" y1="2.166831" y2="37.943047"/><g transform="matrix(.171875 0 0 .171875 -.030955 -.00016)"><use height="100%" transform="translate(-75.635299 .001803)" width="100%" xlink:href="#i"/><use height="100%" transform="translate(-116 29.092303)" width="100%" xlink:href="#i"/><use height="100%" transform="translate(-115.9982 116.36381)" width="100%" xlink:href="#i"/><use height="100%" transform="translate(-29.090499 116.3638)" width="100%" xlink:href="#i"/><use height="100%" transform="translate(.362 69.819003)" width="100%" xlink:href="#i"/><g transform="matrix(.74999783 0 0 .74999783 15.999375 45.269976)"><rect fill="url(#b)" height="100.36229" opacity=".75" rx="3.628262" ry="4.219727" transform="matrix(0 1 1 0 0 0)" width="101.8187" x="-7.026659" y="-5.332515"/><g fill-rule="evenodd"><rect fill="url(#c)" height="85.332382" rx="1.687967" ry="2.031721" transform="matrix(0 1 1 0 0 0)" width="85.332375" x="1.70217" y="1.939906"/><path d="m85.334414 31.999815c-21.549668 19.505031-55.110605 35.88658-83.3945084 47.277246v-49.693172c27.0784584-2.783233 61.7929094-5.606901 83.3945084-17.584074z" fill="url(#d)"/></g></g><circle cx="85.289543" cy="42.029163" fill="url(#e)" r="36.862114"/><g transform="matrix(1.0558348 0 0 1.0558348 -6.873797 82.380362)"><circle cx="87.289543" cy="-38.217342" fill="url(#f)" r="29.015505"/><path d="m110.21469-55.9805c-15.369524 8.107768-34.969601 17.129695-51.703481 18.849667v2.317139a29.015505 29.015505 0 0 0 19.235496 23.962464c13.862291-9.340233 27.438975-21.533122 38.253295-31.329892a29.015505 29.015505 0 0 0 -5.78531-13.799378z" fill="url(#g)" fill-rule="evenodd"/></g><path id="i" d="m116-.000003h11.9982v11.638002h-11.9982z" fill="url(#h)"/><use height="100%" transform="translate(-75.635299 69.819003)" width="100%" xlink:href="#i"/></g></svg>