<svg height="22" viewBox="0 0 5.8208332 5.8208335" width="22" xmlns="http://www.w3.org/2000/svg" xmlns:xlink="http://www.w3.org/1999/xlink"><filter id="a"><feGaussianBlur stdDeviation="1.5999062"/></filter><linearGradient id="b" gradientTransform="matrix(.00535592 0 0 .00774614 .446144 287.45162)" gradientUnits="userSpaceOnUse" x1="399.77466" x2="399.77466" y1="731.09662" y2="480.60214"><stop offset="0" stop-color="#cbcbcd"/><stop offset=".5" stop-color="#e0e0e2"/><stop offset="1" stop-color="#f2f2f2"/></linearGradient><linearGradient id="c" gradientTransform="matrix(.00535592 0 0 .00774614 5.713247 303.11998)" gradientUnits="userSpaceOnUse" x1="-333.0289" x2="-333.0289" y1="-1473.6504" y2="-776.61371"><stop offset="0" stop-color="#fff"/><stop offset=".49140647" stop-color="#fff"/><stop offset="1" stop-color="#dcdcdc"/></linearGradient><g transform="translate(0 -291.17915)"><path d="m-2.611641 15.99895h77.223281c.76597 0 1.38261.72808 1.38261 1.63246v68.73718c0 .90439-.61664 1.63247-1.38261 1.63247h-77.223281c-.765966 0-1.38261-.72808-1.38261-1.63247v-68.73718c0-.90438.616644-1.63246 1.38261-1.63246z" style="opacity:.4;fill:none;stroke:#000;stroke-width:4;stroke-linecap:round;stroke-linejoin:round;stroke-dashoffset:4;filter:url(#a)" transform="matrix(.06614583 0 0 .06614583 .529167 290.64998)"/><g stroke-width=".066146"><path d="m.3560501 291.70831h5.1087328c.050672 0 .091467.0482.091467.10798v4.54655h-5.29166679v-4.54655c0-.0598.0407943-.10798.091467-.10798z" fill="url(#b)"/><path d="m.35553382 291.70831c-.0506727 0-.0909505.0477-.0909505.10749v4.54753c0 .0598.0402778.10748.0909505.10748h5.10976558c.050673 0 .09095-.0477.09095-.10748v-4.54753c0-.0598-.040278-.10749-.09095-.10749zm.0620117.16123h4.98574218c.048139 0 .086816.0452.086816.10129v4.33255c0 .0561-.038677.10129-.086816.10129h-4.98574216c-.0481391 0-.0868164-.0452-.0868164-.10129v-4.33255c0-.0561.0386773-.10129.0868164-.10129z" fill="url(#c)"/><path d="m.2645833 293.03123h5.2916666v3.43958h-5.2916666z" fill="#fff"/></g><path d="m52.54186 30.93328v-1.92136z" fill="#fff" fill-opacity=".756881" transform="matrix(.01653646 0 0 .01653646 .132292 295.41248)"/><text font-family="Bitstream Vera Sans" font-size=".557838" font-weight="bold" stroke="#000" stroke-width=".046486" transform="scale(.8438429 1.1850547)" x=".568974" y="249.5907"><tspan font-size="2.700638" stroke-width=".046486" x=".568974" y="249.5907">&lt;/&gt;</tspan></text></g></svg>