<svg height="22" width="22" xmlns="http://www.w3.org/2000/svg" xmlns:xlink="http://www.w3.org/1999/xlink"><linearGradient id="a"><stop offset="0" stop-color="#0968ef"/><stop offset="1" stop-color="#aecffc"/></linearGradient><linearGradient id="b" gradientTransform="matrix(1.9362358 0 0 1.1370159 -11.2822 5.788289)" gradientUnits="userSpaceOnUse" x1="16.263456" x2="28.913122" xlink:href="#a" y1="67.869316" y2="-12.523698"/><linearGradient id="c" gradientTransform="matrix(.72532124 -.00035579 .00035579 .72532124 -.143257 .080577)" gradientUnits="userSpaceOnUse" x1="113.15723" x2="39.268185" xlink:href="#a" y1="25.786163" y2="25.786163"/><linearGradient id="d" gradientTransform="matrix(1.9362358 0 0 1.1370159 61.535905 5.788289)" gradientUnits="userSpaceOnUse" x1="16.263456" x2="28.913122" xlink:href="#a" y1="67.869316" y2="-12.523698"/><linearGradient id="e" gradientTransform="matrix(-.72532124 .00035579 -.00035579 -.72532124 104.59056 40.487452)" gradientUnits="userSpaceOnUse" x1="113.15723" x2="39.268185" xlink:href="#a" y1="25.786163" y2="25.786163"/><g transform="matrix(.171875 0 0 .171875 .000155 -.00015)"><rect fill="url(#d)" height="104.7258" rx="2.559378" width="5.8181" x="87.27076" y="23.2736"/><rect fill="url(#b)" height="104.7258" rx="2.90905" width="5.818101" x="11.635464" y="23.2736"/><path d="m86.905253 20.346879-17.414822-14.49789-2.881618 2.884455 5.660869 8.719325-14.359189.0391.003 5.80256 14.359188-.0391-5.652438 8.578901 2.884518 3.02761 17.400592-14.514971z" fill="url(#c)" fill-rule="evenodd"/><path d="m17.542061 20.22115 17.41483 14.49789 2.88162-2.884455-5.66088-8.719325 14.35919-.0391-.0029-5.80256-14.35918.0391 5.65244-8.578901-2.88452-3.02761-17.4006 14.514971z" fill="url(#e)" fill-rule="evenodd"/><g fill="#555753"><path d="m87.838047 31.628103c3.841803-3.099578 10.366458-1.988421 13.281103 1.595928 4.80842 5.428305 6.19916 12.372189 7.96965 18.869702 1.31183 5.541294 2.26365 8.722734 2.59901 14.37149 3.88619-7.143039 8.24088-12.37021 8.3198-20.414312.10851-4.065687-2.52504-7.512495-4.28566-11.107666-1.45486-3.013818 2.54969-6.149876 5.97723-5.182778 4.20675.758982 4.90705 5.064378 4.78377 8.151622-.44387 9.181905-4.49773 18.197527-8.60091 26.589382-5.81942 11.081542-14.14415 21.358254-25.033375 29.15578-4.285661 2.857426-15.115701 6.17152-20.466613 4.450386-9.863424-4.556451-9.863424-13.669235 0-13.669235 3.545903-1.483986 12.526552 5.695126 16.156294 5.581671 5.992035-.04073 10.262901-4.813322 11.880494-9.359359 1.64227-6.014254.10357-12.227723-.912354-18.224174-1.652131-7.79456-3.516311-15.747433-7.871023-22.799302-.892643-2.738618-7.880878-4.366545-3.797416-8.009135z" stroke-width="4.931712"/><path d="m37.054856 34.68701q10.188404 0 15.560477 3.53187 5.464693 3.458327 5.464693 10.669323v26.783596h-9.632676l-2.686039-5.44501h-.370502q-3.241763 3.23759-6.854016 4.70918-3.612259 1.47165-9.910545 1.47165-6.761398 0-11.207251-3.09044-4.445853-3.09039-4.445853-9.6391 0-6.40163 5.649938-9.418414 5.649938-3.016844 16.949807-3.384785l8.79908-.221091v-1.765935q0-3.163985-2.130304-4.635578-2.037678-1.471651-5.742562-1.471651-3.704873 0-7.2245.882909-3.519634.809426-7.039268 2.060335l-4.538473-7.431739q3.982738-1.618792 8.984321-2.575301 5.001588-1.030168 10.373655-1.030168zm7.317126 22.368699-5.372067.1472q-6.668778.1472-9.262191 1.91313-2.593414 1.76594-2.593414 4.63564 0 2.50176 1.85244 3.60547 1.852439 1.03017 4.816337 1.03017 4.445853 0 7.50237-2.06034 3.056525-2.13382 3.056525-5.96003z" stroke-width="5.818182"/></g></g></svg>