<svg height="22" width="22" xmlns="http://www.w3.org/2000/svg" xmlns:xlink="http://www.w3.org/1999/xlink"><linearGradient id="a"><stop offset="0" stop-color="#fff"/><stop offset="1" stop-color="#fff" stop-opacity="0"/></linearGradient><linearGradient id="b"><stop offset="0" stop-color="#b4b4b6"/><stop offset=".5" stop-color="#9c9ca1"/><stop offset="1" stop-color="#cdcdd1"/></linearGradient><linearGradient id="c"><stop offset="0" stop-color="#fff"/><stop offset=".42597079" stop-color="#fff"/><stop offset=".5892781" stop-color="#f1f1f1"/><stop offset=".80219781" stop-color="#eaeaea"/><stop offset="1" stop-color="#dfdfdf"/></linearGradient><linearGradient id="d"><stop offset="0" stop-color="#0968ef"/><stop offset="1" stop-color="#aecffc"/></linearGradient><linearGradient id="e" gradientTransform="matrix(1.9362358 0 0 1.1370159 29.447041 -122.21111)" gradientUnits="userSpaceOnUse" x1="16.263456" x2="28.913122" xlink:href="#d" y1="67.869316" y2="-12.523698"/><linearGradient id="f" gradientTransform="matrix(.06503009 0 0 .1431311 -19.783606 -174.76887)" gradientUnits="userSpaceOnUse" x1="399.77466" x2="399.77466" xlink:href="#b" y1="1164.6696" y2="549.06134"/><linearGradient id="g" gradientTransform="matrix(.4947918 0 0 1.0000001 -63.353594 -116.11498)" gradientUnits="userSpaceOnUse" x1="42.728634" x2="105.66395" xlink:href="#c" y1="99.999985" y2="46.06414"/><linearGradient id="h" gradientTransform="matrix(.65712462 0 0 .90939753 -5.844967 -3.714151)" gradientUnits="userSpaceOnUse" x1="102.31124" x2="74.330322" xlink:href="#a" y1="-5.830213" y2="32"/><linearGradient id="i" gradientTransform="matrix(-.00035579 -.72532124 .72532124 -.00035579 87.398838 144.1397)" gradientUnits="userSpaceOnUse" x1="113.15723" x2="39.268185" xlink:href="#d" y1="25.786163" y2="25.786163"/><linearGradient id="j" gradientTransform="matrix(.06503009 0 0 .1431311 52.216396 -166.76887)" gradientUnits="userSpaceOnUse" x1="399.77466" x2="399.77466" xlink:href="#b" y1="1164.6696" y2="549.06134"/><linearGradient id="k" gradientTransform="matrix(.65972239 0 0 1.0000001 -153.82581 -108.11498)" gradientUnits="userSpaceOnUse" x1="42.728634" x2="109.83713" xlink:href="#c" y1="99.999985" y2="38.297775"/><linearGradient id="l" gradientTransform="matrix(.72259344 0 0 1.0000001 -12.372817 63.936926)" gradientUnits="userSpaceOnUse" x1="102.31124" x2="74.330322" xlink:href="#a" y1="-5.830213" y2="32"/><linearGradient id="m" gradientTransform="matrix(1.9362358 0 0 1.1370159 96.447043 -122.21111)" gradientUnits="userSpaceOnUse" x1="16.263456" x2="28.913122" xlink:href="#d" y1="67.869316" y2="-12.523698"/><linearGradient id="n" gradientTransform="matrix(-.00035579 .72532124 .72532124 .00035579 87.398838 36.037459)" gradientUnits="userSpaceOnUse" x1="113.15723" x2="39.268185" xlink:href="#d" y1="25.786163" y2="25.786163"/><g transform="matrix(.171875 0 0 .171875 .000155 -.00015)"><rect fill="url(#j)" height="63.9991" rx="3.632653" transform="rotate(90)" width="40.7267" x="75.6371" y="-75.6353"/><path d="m-110.5457-69.8172h29.0905v52.3629h-29.0905z" fill="url(#k)" fill-rule="evenodd" transform="matrix(0 -1 -1 0 0 0)"/><path d="m54.515062 81.3638c-7.719875 9.42808-15.727125 18.198733-20.235441 30.57312h19.668089c1.101572-11.84698 5.310954-21.12228 10.05139-30.57312z" fill="url(#l)" fill-rule="evenodd"/><rect fill="url(#m)" height="104.7258" rx="2.559378" transform="rotate(90)" width="5.8181" x="122.1819" y="-104.7258"/><rect fill="url(#f)" height="58.181" rx="3.632653" transform="rotate(90)" width="40.726707" x="5.8199" y="-75.6353"/><path d="m-40.7285-69.8172h29.0905v46.5448h-29.0905z" fill="url(#g)" fill-rule="evenodd" transform="matrix(0 -1 -1 0 0 0)"/><path d="m54.07331 11.638c-7.020435 8.573875-13.392809 17.045693-17.492661 28.298926h17.886111c1.001767-10.773613 3.92037-19.704353 8.231311-28.298926z" fill="url(#h)" fill-rule="evenodd"/><rect fill="url(#e)" height="104.7258" rx="1.2784" ry="2.83197" transform="rotate(90)" width="5.818101" x="52.3647" y="-104.7258"/><g fill-rule="evenodd"><path d="m107.66514 57.091201-14.49789 17.414829 2.884455 2.881616 8.719325-5.660872.0391 14.359184 5.80256-.0029-.0391-14.359183 8.5789 5.652444 3.02761-2.884524-14.51497-17.400592z" fill="url(#i)"/><path d="m107.66514 123.08596-14.49789-17.41483 2.884455-2.88162 8.719325 5.66088.0391-14.359189 5.80256.0029-.0391 14.359179 8.5789-5.65244 3.02761 2.88452-14.51497 17.4006z" fill="url(#n)"/></g></g></svg>