<svg height="22" width="22" xmlns="http://www.w3.org/2000/svg" xmlns:xlink="http://www.w3.org/1999/xlink"><linearGradient id="a"><stop offset="0" stop-color="#0968ef"/><stop offset="1" stop-color="#aecffc"/></linearGradient><linearGradient id="b" gradientTransform="matrix(.33279053 0 0 .19542461 111.06106 .99481)" gradientUnits="userSpaceOnUse" x1="16.263456" x2="28.913122" xlink:href="#a" y1="67.869316" y2="-12.523698"/><linearGradient id="c" gradientTransform="matrix(.00006115 -.12466459 -.12466459 -.00006115 6.992566 130.97799)" gradientUnits="userSpaceOnUse" x1="113.15723" x2="39.268185" xlink:href="#a" y1="25.786163" y2="25.786163"/><linearGradient id="d" gradientTransform="matrix(.33279053 0 0 .19542461 122.57669 .99481)" gradientUnits="userSpaceOnUse" x1="16.263456" x2="28.913122" xlink:href="#a" y1="67.869316" y2="-12.523698"/><linearGradient id="e" gradientTransform="matrix(.00006115 .12466459 -.12466459 .00006115 6.992566 112.02201)" gradientUnits="userSpaceOnUse" x1="113.15723" x2="39.268185" xlink:href="#a" y1="25.786163" y2="25.786163"/><g transform="translate(0 -106)"><rect fill="url(#d)" height="17.999746" rx=".439893" transform="matrix(0 1 1 0 0 0)" width=".999986" x="126.99986" y="4.000098"/><rect fill="url(#b)" height="17.999746" rx=".219725" ry=".486745" transform="matrix(0 1 1 0 0 0)" width=".999986" x="115.00003" y="4.000098"/><path d="m3.5092949 116.01653 2.4918248 2.99317-.4957657.49528-1.498634-.97296-.00672 2.46798-.997315-.00049.00672-2.46799-1.4744984.97151-.5203705-.49577 2.4947605-2.99073z" fill="url(#c)" fill-rule="evenodd"/><path d="m3.5092949 126.98347 2.4918248-2.99317-.4957657-.49528-1.498634.97296-.00672-2.46798-.997315.00049.00672 2.46799-1.4744984-.97152-.5203705.49578 2.4947605 2.99073z" fill="url(#e)" fill-rule="evenodd"/><g fill="#555753"><path d="m9.7081152 108.94203c.6603108-.53274 1.7817358-.34176 2.2826908.2743.826447.93299 1.065481 2.12647 1.369783 3.24323.225472.95241.389066 1.49922.446705 2.4701.667939-1.22771 1.416404-2.12613 1.429966-3.50871.01865-.69879-.433991-1.29121-.736598-1.90913-.250053-.518.438229-1.05701 1.027338-.89079.723035.13045.8434.87044.822209 1.40106-.07629 1.57814-.773046 3.1277-1.478281 4.57005-1.000213 1.90464-2.431026 3.67095-4.302612 5.01115-.7365979.49112-2.5980115 1.06073-3.517699.76491-1.6952764-.78314-1.6952764-2.3494 0-2.3494.6094519-.25506 2.1530011.97885 2.7768629.95935 1.0298811-.007 1.7639361-.82729 2.0419611-1.60864.282264-1.0337.0178-2.10164-.156813-3.13228-.283959-1.33969-.604366-2.70659-1.352831-3.91863-.153423-.4707-1.3545262-.7505-.6526818-1.37657z" stroke-width=".847638"/><path d="m12.807148 134.24019q1.560796 0 2.383761.68107.837155.66689.837155 2.05742v5.16481h-1.475662l-.411483-1.04999h-.05676q-.496617.62432-1.04999.9081-.553374.28378-1.518229.28378-1.035801 0-1.7168762-.59594-.6810747-.59594-.6810747-1.85876 0-1.23445.8655325-1.8162.8655324-.58175 2.5965974-.6527l1.34796-.0426v-.34053q0-.61013-.326348-.89391-.312159-.28378-.879722-.28378-.567562 0-1.106746.17026-.539184.15608-1.078368.3973l-.695264-1.4331q.610129-.31216 1.376338-.49661.76621-.19865 1.589175-.19865zm1.120935 4.31347-.822965.0284q-1.021612.0284-1.418906.36892-.397293.34053-.397293.89391 0 .48242.283781.69526.283781.19865.737831.19865.681075 0 1.149313-.3973.468239-.41148.468239-1.14931z" transform="scale(1.1219483 .89130666)"/></g></g></svg>