<?xml version="1.0" encoding="UTF-8" standalone="no"?>
<svg
   xmlns:dc="http://purl.org/dc/elements/1.1/"
   xmlns:cc="http://creativecommons.org/ns#"
   xmlns:rdf="http://www.w3.org/1999/02/22-rdf-syntax-ns#"
   xmlns:svg="http://www.w3.org/2000/svg"
   xmlns="http://www.w3.org/2000/svg"
   xmlns:sodipodi="http://sodipodi.sourceforge.net/DTD/sodipodi-0.dtd"
   xmlns:inkscape="http://www.inkscape.org/namespaces/inkscape"
   height="22"
   viewBox="0 0 5.8208332 5.8208335"
   width="22"
   version="1.1"
   id="svg18"
   sodipodi:docname="edit-select.svg"
   inkscape:version="0.92.5 (2060ec1f9f, 2020-04-08)"
   inkscape:export-filename="/home/rizmut/Dokumen/Rizmut/Github/karasa-jaga-icon-theme/src/Karasa-Jaga/22x22/actions/edit-select.png"
   inkscape:export-xdpi="96"
   inkscape:export-ydpi="96">
  <metadata
     id="metadata24">
    <rdf:RDF>
      <cc:Work
         rdf:about="">
        <dc:format>image/svg+xml</dc:format>
        <dc:type
           rdf:resource="http://purl.org/dc/dcmitype/StillImage" />
        <dc:title></dc:title>
      </cc:Work>
    </rdf:RDF>
  </metadata>
  <defs
     id="defs22" />
  <sodipodi:namedview
     pagecolor="#ffffff"
     bordercolor="#666666"
     borderopacity="1"
     objecttolerance="10"
     gridtolerance="10"
     guidetolerance="10"
     inkscape:pageopacity="0"
     inkscape:pageshadow="2"
     inkscape:window-width="1366"
     inkscape:window-height="700"
     id="namedview20"
     showgrid="true"
     inkscape:zoom="19.666667"
     inkscape:cx="2.8648267"
     inkscape:cy="10.145667"
     inkscape:window-x="0"
     inkscape:window-y="0"
     inkscape:window-maximized="1"
     inkscape:current-layer="svg18">
    <inkscape:grid
       type="xygrid"
       id="grid834" />
  </sodipodi:namedview>
  <filter
     id="a"
     height="1.306617"
     width="1.43589"
     x="-0.21794499"
     y="-0.153309"
     style="color-interpolation-filters:sRGB">
    <feGaussianBlur
       stdDeviation="3.1542391"
       id="feGaussianBlur2" />
  </filter>
  <linearGradient
     id="b"
     gradientUnits="userSpaceOnUse"
     x1="32.81356"
     x2="28.745762"
     y1="44.474575"
     y2="19.254236">
    <stop
       offset="0"
       stop-color="#070707"
       id="stop5" />
    <stop
       offset="1"
       stop-color="#474747"
       id="stop7" />
  </linearGradient>
  <g
     transform="matrix(0.09921875,0,0,0.09921875,-0.76774333,-0.32555334)"
     id="g16">
    <path
       d="m 22.720703,5.15625 c -3.013405,0.030675 -5.734347,2.7794073 -5.734375,5.792969 v 43.93164 c 3.96e-4,3.429673 3.617041,6.371437 6.97461,5.671875 l 10.515624,-2.189453 2.808594,2.027344 c 1.551689,1.121614 3.676784,1.397262 5.464844,0.712891 0.01127,-0.0042 1.189475,-0.440287 2.488281,-1.167969 0.591578,-0.331442 1.457617,-0.847678 2.304688,-1.658203 0.390507,-0.37366 1.041481,-1.084667 1.507812,-2.017578 0.576268,-1.152849 0.952286,-2.610783 0.501953,-4.41211 -0.02267,-0.09068 -0.161327,-0.768547 -0.236328,-1.123047 L 56.125,46.123047 c 2.812058,-1.90024 3.258266,-6.468596 0.869141,-8.878906 v -0.002 L 26.892578,6.8710938 C 25.805548,5.7745428 24.264668,5.1410563 22.720703,5.15625 Z"
       id="path10"
       inkscape:connector-curvature="0"
       style="opacity:0.76000001;filter:url(#a)" />
    <path
       d="m 17.042969,8.3867188 c -2.126608,0.021647 -4.046855,1.9611722 -4.046875,4.0878902 V 56.40625 c 1.4e-4,1.210187 0.570764,2.408443 1.509765,3.171875 0.939002,0.763432 2.227365,1.076924 3.41211,0.830078 l 11.251953,-2.341797 3.419922,2.466797 c 1.095643,0.791969 2.595135,0.987874 3.857422,0.503906 h 0.002 c 0.0091,-0.0034 1.09236,-0.410391 2.259765,-1.064453 0.555108,-0.311009 1.260816,-0.734296 1.958985,-1.402344 0.33225,-0.317916 0.804398,-0.831261 1.162109,-1.546874 0.413737,-0.827699 0.696141,-1.943955 0.373047,-3.236329 -0.07021,-0.280852 -0.292605,-1.376547 -0.484375,-2.308593 l 7.755859,-5.242188 C 50.46708,45.5657 51.137238,44.438161 51.253953,43.246094 51.370668,42.054026 50.93144,40.819133 50.087938,39.96875 L 19.986328,9.5957031 C 19.219194,8.8218498 18.132569,8.3759963 17.042969,8.3867188 Z"
       transform="translate(5.694915,-3.525424)"
       id="path12"
       inkscape:connector-curvature="0"
       style="fill:#ffffff" />
    <path
       d="m 23.737884,11.281217 v 40.419921 l 11.863281,-2.470703 a 0.95888433,0.95888433 0 0 1 0.755859,0.16211 l 4.425782,3.197265 c 0.285679,-0.118453 0.599894,-0.234307 1.154297,-0.544922 0.384975,-0.215689 0.749087,-0.464247 0.9375,-0.644531 0.06051,-0.0579 0.06738,-0.07382 0.08789,-0.101562 -0.320785,-1.338154 -1.054687,-5.009766 -1.054687,-5.009766 a 0.95888433,0.95888433 0 0 1 0.402343,-0.982422 l 9.074219,-6.130859 z"
       id="path14"
       inkscape:connector-curvature="0"
       style="fill:url(#b)" />
  </g>
</svg>
