<svg height="22" viewBox="0 0 5.8208335 5.8208335" width="22" xmlns="http://www.w3.org/2000/svg" xmlns:xlink="http://www.w3.org/1999/xlink"><filter id="a" color-interpolation-filters="sRGB" height="1.123846" width="1.171988" x="-.085994" y="-.061923"><feGaussianBlur stdDeviation="1.7347784"/></filter><linearGradient id="b" gradientUnits="userSpaceOnUse" x1="55.75000838596" x2="58.49998947816" xlink:href="#c" y1="48.00001385273" y2="72.750013216"/><linearGradient id="c"><stop offset="0" stop-color="#fd0000"/><stop offset="1" stop-color="#8f0000"/></linearGradient><radialGradient id="d" cx="72.631729" cy="22.787588" gradientTransform="matrix(5.297908 0 0 5.2979189 -330.76495 -52.461151)" gradientUnits="userSpaceOnUse" r="1.265237" xlink:href="#c"/><linearGradient id="e" gradientUnits="userSpaceOnUse" x1="51.57962580724" x2="54.67922538506" xlink:href="#f" y1="57.19771452443" y2="68.76557799622"/><linearGradient id="f"><stop offset="0" stop-color="#fff"/><stop offset="1" stop-color="#fff" stop-opacity="0"/></linearGradient><linearGradient id="g" gradientUnits="userSpaceOnUse" x1="43.75000838596" x2="46.49998947816" xlink:href="#c" y1="8.09999885273" y2="32.849998216"/><radialGradient id="h" cx="72.631729" cy="22.787588" gradientTransform="matrix(5.297908 0 0 5.2979189 -342.76495 -92.361166)" gradientUnits="userSpaceOnUse" r="1.265237" xlink:href="#c"/><linearGradient id="i" gradientUnits="userSpaceOnUse" x1="39.57962580724" x2="42.67922538506" xlink:href="#f" y1="17.29769952443" y2="28.86556299622"/><linearGradient id="j" gradientUnits="userSpaceOnUse" x1="31.75000838596" x2="34.49998947816" xlink:href="#c" y1="48.00001385273" y2="72.750013216"/><radialGradient id="k" cx="72.631729" cy="22.787588" gradientTransform="matrix(5.6861997 0 0 5.6862116 -382.96828 -61.145643)" gradientUnits="userSpaceOnUse" r="1.265237" xlink:href="#c"/><linearGradient id="l" gradientUnits="userSpaceOnUse" x1="27.39891699502" x2="30.72569097054" xlink:href="#f" y1="56.55028796159" y2="68.9659778545"/><g transform="matrix(.25 0 0 .25 0 -68.42917)"><path d="m23.283333 275.83333a21.167967 21.167967 0 0 0 -15.1194901 6.11591 21.167967 21.167967 0 0 0 -6.2828207 15.05076h1.0697022a20.109567 20.109567 0 0 1 5.9691448-14.29835 20.109567 20.109567 0 0 1 14.3515788-5.80947z" fill="#4d4d4d" fill-opacity=".992157"/><g transform="matrix(.54853186 0 0 .54853186 -8.128969 246.09666)"><rect fill="url(#j)" height="12" rx="1.546875" width="12" x="24" y="60"/><g stroke-width="1.073292"><rect fill="url(#k)" height="9.592542" rx=".899301" width="9.592547" x="25.233967" y="61.234982"/><path d="m26.16323 61.234996c-.498215 0-.899302.401088-.899302.899301v4.533974c.728895.06928 1.479218.112413 2.248251.112413 2.767774 0 5.314242-.466751 7.34429-1.255274v-3.391113c0-.498213-.401088-.899301-.899302-.899301z" fill="url(#l)"/></g></g><g transform="matrix(.26458333 0 0 .26458333 -9.525 288.50688)"><rect fill="url(#g)" height="12" rx="1.546875" width="12" x="36" y="20.099985"/><rect fill="url(#h)" height="8.937499" rx=".837891" width="8.937503" x="37.562511" y="21.662485"/><path d="m38.428317 21.662501c-.464192 0-.837891.3737-.837891.837891v4.224364c.679121.06455 1.378207.104736 2.094726.104736 2.578772 0 4.95135-.434878 6.842772-1.169555v-3.159545c0-.464191-.373698-.837891-.837891-.837891z" fill="url(#i)"/></g><g transform="matrix(.26458333 0 0 .26458333 7.408333 258.9)"><rect fill="url(#b)" height="12" rx="1.546875" width="12" x="48" y="60"/><rect fill="url(#d)" height="8.937499" rx=".837891" width="8.937503" x="49.562511" y="61.5625"/><path d="m50.428317 61.562516c-.464192 0-.837891.3737-.837891.837891v4.224364c.679121.06455 1.378207.104736 2.094726.104736 2.578772 0 4.95135-.434878 6.842772-1.169555v-3.159545c0-.464191-.373698-.837891-.837891-.837891z" fill="url(#e)"/></g><g fill-rule="evenodd"><path d="m51.202156 43.382184c-1.986284.0172-3.952729.863732-5.328126 2.296875s-2.142586 3.432658-2.078125 5.417968l20.994141 53.910213h.002c.455233.90897 1.098397 1.7252 1.876954 2.3789 5.590446 3.32606 16.578381 1.5129 17.35126.36202 4.67443-3.34163 12.951555-13.849354 10.522655-19.434774-.16002-.36796-.34944-.72301-.5664-1.06055l-.002-.002-37.942281-42.153808c-1.34368-1.111954-3.086036-1.730106-4.830078-1.714844z" fill="#333" fill-opacity=".772059" filter="url(#a)" transform="matrix(.25496024 -.039991 .039991 .25496024 -5.175496 272.01598)"/><path d="m9.4317813 281.15403c-.7522414.12467-1.2543375.8442-1.1117985 1.59326l7.5466402 12.90682c.107658.15084.245056.27804.40373.37377 1.403644.3418 3.602731-.57282 3.947525-.79059.847112-.83171 2.494586-3.30856 1.78806-4.42115-.03918-.0617-.08329-.12013-.131874-.17473l-11.527089-9.31545c-.275258-.16341-.5993997-.2243-.9151937-.17193z" fill="#fff"/><path d="m16.893582 294.57914-6.9750981-11.79265 10.6326961 8.31978c.810755 1.27671-2.349136 4.26334-3.657598 3.47287z"/></g></g></svg>