<svg height="22" width="22" xmlns="http://www.w3.org/2000/svg" xmlns:xlink="http://www.w3.org/1999/xlink"><linearGradient id="a"><stop offset="0" stop-color="#fd0000"/><stop offset="1" stop-color="#8f0000"/></linearGradient><linearGradient id="b"><stop offset="0" stop-color="#fff"/><stop offset="1" stop-color="#fff" stop-opacity="0"/></linearGradient><radialGradient id="c" cx="72.631729" cy="22.787588" gradientTransform="matrix(5.297908 0 0 5.2979189 -342.76495 -52.361166)" gradientUnits="userSpaceOnUse" r="1.265237" xlink:href="#a"/><linearGradient id="d" gradientUnits="userSpaceOnUse" x1="43.75000838596" x2="46.49998947816" xlink:href="#a" y1="48.09999885273" y2="72.849998216"/><linearGradient id="e" gradientUnits="userSpaceOnUse" x1="39.57962580724" x2="42.67922538506" xlink:href="#b" y1="57.29769952443" y2="68.86556299622"/><linearGradient id="f" gradientUnits="userSpaceOnUse" x1="60.7444056875" x2="69.607067875" xlink:href="#b" y1="35.4514848125" y2="78.281955875"/><filter id="g" color-interpolation-filters="sRGB" height="1.024" width="1.024" x="-.012" y="-.012"><feGaussianBlur stdDeviation=".28192153"/></filter><radialGradient id="h" cx="50.424522" cy="-81.945961" gradientTransform="matrix(.21170976 .21170976 -.21170976 .21170976 34.444596 76.214781)" gradientUnits="userSpaceOnUse" r="50.15279"><stop offset="0" stop-color="#7ae91e" stop-opacity=".996078"/><stop offset="1" stop-color="#62c916"/></radialGradient><linearGradient id="i" gradientTransform="scale(1.0975951 .9110828)" gradientUnits="userSpaceOnUse" x1="26.091133" x2="31.500689" xlink:href="#b" y1="14.856744" y2="14.856744"/><filter id="j" height="1.277481" width="1.279832" x="-.139916" y="-.138741"><feGaussianBlur stdDeviation=".28784801"/></filter><linearGradient id="k" gradientUnits="userSpaceOnUse" x1="304.88663" x2="345.62039" y1="385.86127" y2="384.62384"><stop offset="0" stop-color="#765c44"/><stop offset="1" stop-color="#765c44" stop-opacity="0"/></linearGradient><linearGradient id="l" gradientUnits="userSpaceOnUse" spreadMethod="reflect" x1="31.606251" x2="34.575108" y1="13.510336" y2="13.510336"><stop offset="0" stop-color="#fff"/><stop offset="1" stop-color="#790000" stop-opacity="0"/></linearGradient><radialGradient id="m" cx="51.991096" cy="-78.028419" gradientTransform="matrix(.19409676 .22796596 -.38579128 .32847376 21.777009 84.480509)" gradientUnits="userSpaceOnUse" r="57.039597" xlink:href="#n"/><linearGradient id="n"><stop offset="0" stop-color="#011701"/><stop offset=".80671918" stop-color="#145703"/><stop offset="1" stop-color="#2fa207" stop-opacity=".384314"/></linearGradient><radialGradient id="o" cx="43.084476" cy="-121.92532" gradientTransform="matrix(.20863924 .21473636 -.2494904 .24240652 29.970472 79.827091)" gradientUnits="userSpaceOnUse" r="57.039597" xlink:href="#n"/><radialGradient id="p" cx="84.903702" cy="-130.14005" gradientTransform="matrix(.21170976 .21170976 -.21170976 .21170976 34.444597 76.214781)" gradientUnits="userSpaceOnUse" r="57.039597" xlink:href="#n"/><linearGradient id="q" gradientUnits="userSpaceOnUse" spreadMethod="reflect" x1="88.606247" x2="91.575104" y1="13.510336" y2="13.510336"><stop offset="0" stop-color="#c8ff87"/><stop offset="1" stop-color="#abff87" stop-opacity="0"/></linearGradient><g transform="matrix(.25 0 0 .25 0 -7.03526325)"><path d="m8 64.141053v3.958947h72v-3.958947z" fill="#4d4d4d" fill-opacity=".992157"/><rect fill="url(#d)" height="12" rx="1.546875" width="12" x="36" y="60.10006"/><rect fill="url(#c)" height="8.937499" rx=".837891" width="8.937503" x="37.562511" y="61.66256"/><path d="m38.428317 61.662501c-.464192 0-.837891.3737-.837891.837891v4.224364c.679121.06455 1.378207.104736 2.094726.104736 2.578772 0 4.95135-.434878 6.842772-1.169555v-3.159545c0-.464191-.373698-.837891-.837891-.837891z" fill="url(#e)"/></g><g transform="scale(.25)"><g stroke-width=".6875"><path d="m87.562416 62.241688c.000036-1.138773-.923132-2.061936-2.0619-2.061903h-13.670197v-13.670781c.000035-1.138772-.923133-2.061936-2.061902-2.061903l-7.299698.000004c-1.13877-.000033-2.061935.92313-2.061903 2.061899v13.670781h-13.670194c-1.138773-.000033-2.061937.92313-2.061904 2.061903v7.299696c-.000033 1.138775.923131 2.061937 2.061904 2.061902h13.670194v13.670195c-.000034 1.138776.923132 2.061936 2.061904 2.0619h7.299697c1.138769.000036 2.061937-.923124 2.061902-2.0619v-13.670195h13.670197c1.138772.000035 2.061936-.923134 2.0619-2.061902z" fill="#1f5623" fill-opacity=".905882"/><path d="m87.562416 62.241688c.000036-1.138773-.923132-2.061936-2.0619-2.061903h-13.670197v-13.670781c.000035-1.138772-.923133-2.061936-2.061902-2.061903l-7.299698.000004c-1.13877-.000033-2.061935.92313-2.061903 2.061899v13.670781h-13.670194c-1.138773-.000033-2.061937.92313-2.061904 2.061903v7.299696c-.000033 1.138775.923131 2.061937 2.061904 2.061902h13.670194v13.670195c-.000034 1.138776.923132 2.061936 2.061904 2.0619h7.299697c1.138769.000036 2.061937-.923124 2.061902-2.0619v-13.670195h13.670197c1.138772.000035 2.061936-.923134 2.0619-2.061902z" fill="url(#p)"/><path d="m87.562416 62.241688c.000036-1.138773-.923132-2.061936-2.0619-2.061903h-13.670197v-13.670781c.000035-1.138772-.923133-2.061936-2.061902-2.061903l-7.299698.000004c-1.13877-.000033-2.061935.92313-2.061903 2.061899v13.670781h-13.670194c-1.138773-.000033-2.061937.92313-2.061904 2.061903v7.299696c-.000033 1.138775.923131 2.061937 2.061904 2.061902h13.670194v13.670195c-.000034 1.138776.923132 2.061936 2.061904 2.0619h7.299697c1.138769.000036 2.061937-.923124 2.061902-2.0619v-13.670195h13.670197c1.138772.000035 2.061936-.923134 2.0619-2.061902z" fill="#066704"/><path d="m87.562416 62.241688c.000036-1.138773-.923132-2.061936-2.0619-2.061903h-13.670197v-13.670781c.000035-1.138772-.923133-2.061936-2.061902-2.061903l-7.299698.000004c-1.13877-.000033-2.061935.92313-2.061903 2.061899v13.670781h-13.670194c-1.138773-.000033-2.061937.92313-2.061904 2.061903v7.299696c-.000033 1.138775.923131 2.061937 2.061904 2.061902h13.670194v13.670195c-.000034 1.138776.923132 2.061936 2.061904 2.0619h7.299697c1.138769.000036 2.061937-.923124 2.061902-2.0619v-13.670195h13.670197c1.138772.000035 2.061936-.923134 2.0619-2.061902z" fill="url(#o)"/><path d="m87.562416 62.241688c.000036-1.138773-.923132-2.061936-2.0619-2.061903h-13.670197v-13.670781c.000035-1.138772-.923133-2.061936-2.061902-2.061903l-7.299698.000004c-1.13877-.000033-2.061935.92313-2.061903 2.061899v13.670781h-13.670194c-1.138773-.000033-2.061937.92313-2.061904 2.061903v7.299696c-.000033 1.138775.923131 2.061937 2.061904 2.061902h13.670194v13.670195c-.000034 1.138776.923132 2.061936 2.061904 2.0619h7.299697c1.138769.000036 2.061937-.923124 2.061902-2.0619v-13.670195h13.670197c1.138772.000035 2.061936-.923134 2.0619-2.061902z" fill="url(#m)"/></g><g fill-rule="evenodd" transform="matrix(.6875 0 0 .6875 -.022444 -.034091)"><path d="m31.7 16 2.875-3.375c-1.051205-1.695758-3.935136-2.288018-5.9375-.3125l2.8125 3.375z" fill="url(#i)" filter="url(#j)" opacity=".498127" transform="matrix(-.64954358 .64954358 .6557809 .6557809 80.344203 61.100228)"/><path d="m31.7 16 2.875-3.375c-1.051205-1.695758-3.935136-2.288018-5.9375-.3125l2.8125 3.375z" fill="url(#i)" filter="url(#j)" opacity=".790262" transform="matrix(-.6476361 -.6476361 .64147625 -.64147625 102.80882 152.77126)"/><path d="m31.7 16 2.875-3.375c-1.051205-1.695758-3.935136-2.288018-5.9375-.3125l2.8125 3.375z" fill="url(#k)" filter="url(#j)" opacity=".498127" transform="matrix(-.58819378 .58819378 -.59384198 -.59384198 128.42011 113.04167)"/><path d="m88.7 16 2.875-3.375c-1.051205-1.695758-3.935136-2.288018-5.9375-.3125l2.8125 3.375z" fill="url(#q)" filter="url(#j)" opacity=".790262" transform="matrix(-.59384198 -.59384198 .58819378 -.58819378 112.80265 161.75846)"/><path d="m31.7 16 2.875-3.375c-1.051205-1.695758-3.935136-2.288018-5.9375-.3125l2.8125 3.375z" fill="url(#l)" filter="url(#j)" opacity=".790262" transform="matrix(-.54004786 -.54004786 -.53491131 .53491131 148.63874 100.16245)"/><path d="m88.7 16 2.875-3.375c-1.051205-1.695758-3.935136-2.288018-5.9375-.3125l2.8125 3.375z" fill="url(#q)" filter="url(#j)" opacity=".790262" transform="matrix(-.55444337 -.55444337 -.5491699 .5491699 158.16646 109.42078)"/></g><path d="m85.500516 62.241688h-15.732099v-15.73268l-7.299697-.000004v15.732684h-15.732098v7.299696h15.732098v15.732097h7.299697v-15.732097h15.732099z" fill="url(#h)" stroke-width=".6875"/><path d="m101.51439 67.699139-10.617965-.000005v22.884181l-22.883579-.000435v10.61797h22.882977l.000001 22.88297h10.617966v-22.88297l22.88298-.00001-.00001-10.617956h-22.88297zm-.75422.754216-.00061 22.129359c-.00004.41656.33766.754256.75422.754217h22.12876v9.109529h-22.12876c-.41656-.00004-.75426.33766-.75422.75422v22.12876h-9.10953v-22.12876c.00004-.41656-.337657-.75426-.754216-.75422h-22.12876v-9.109534l22.129362.000436c.416558.000039.754257-.337657.754216-.754216v-22.129961z" fill="#eef4ca" fill-opacity=".779412" filter="url(#g)" transform="matrix(.6875 0 0 .6875 -.022444 -.034091)"/><path d="m62.468889 46.509123v15.731933h-15.731933v4.761475a44.98546 26.668026 0 0 0 12.234008 1.029907 44.98546 26.668026 0 0 0 26.529172-5.17102v-.620362h-15.731932v-15.731933z" fill="url(#f)" stroke-width=".6875"/></g></svg>