<svg height="22" width="22" xmlns="http://www.w3.org/2000/svg" xmlns:xlink="http://www.w3.org/1999/xlink"><linearGradient id="a"><stop offset="0" stop-color="#fd0000"/><stop offset="1" stop-color="#8f0000"/></linearGradient><linearGradient id="b"><stop offset="0" stop-color="#fff"/><stop offset="1" stop-color="#fff" stop-opacity="0"/></linearGradient><radialGradient id="c" cx="72.631729" cy="22.787588" gradientTransform="matrix(5.297908 0 0 5.2979189 -342.76495 -52.361166)" gradientUnits="userSpaceOnUse" r="1.265237" xlink:href="#a"/><linearGradient id="d" gradientUnits="userSpaceOnUse" x1="43.75000838596" x2="46.49998947816" xlink:href="#a" y1="48.09999885273" y2="72.849998216"/><linearGradient id="e" gradientUnits="userSpaceOnUse" x1="39.57962580724" x2="42.67922538506" xlink:href="#b" y1="57.29769952443" y2="68.86556299622"/><linearGradient id="f" gradientUnits="userSpaceOnUse" x1="31.75000838596" x2="34.49998947816" xlink:href="#a" y1="8.09999885273" y2="32.849998216"/><radialGradient id="g" cx="72.631729" cy="22.787588" gradientTransform="matrix(5.297908 0 0 5.2979189 -354.76495 -92.361166)" gradientUnits="userSpaceOnUse" r="1.265237" xlink:href="#a"/><linearGradient id="h" gradientUnits="userSpaceOnUse" x1="27.57962580724" x2="30.67922538506" xlink:href="#b" y1="17.29769952443" y2="28.86556299622"/><linearGradient id="i" gradientUnits="userSpaceOnUse" x1="55.75000838596" x2="58.49998947816" xlink:href="#a" y1="8.09999885273" y2="32.849998216"/><radialGradient id="j" cx="72.631729" cy="22.787588" gradientTransform="matrix(5.297908 0 0 5.2979189 -330.76495 -92.361166)" gradientUnits="userSpaceOnUse" r="1.265237" xlink:href="#a"/><linearGradient id="k" gradientUnits="userSpaceOnUse" x1="51.57962580724" x2="54.67922538506" xlink:href="#b" y1="17.29769952443" y2="28.86556299622"/><linearGradient id="l" gradientTransform="matrix(.46284887 -.00000002 0 .27179883 36.496809 18.270406)" gradientUnits="userSpaceOnUse" x1="10.135816" x2="9.692278" y1="29.107889" y2="103.48482"><stop offset="0" stop-color="#72d13d"/><stop offset=".3553" stop-color="#35ac1c"/><stop offset=".6194" stop-color="#0f9508"/><stop offset=".7574" stop-color="#008c00"/><stop offset="1" stop-color="#007a00"/></linearGradient><g transform="scale(.25)"><path d="m8 64.141053v3.958947h72v-3.958947z" fill="#4d4d4d" fill-opacity=".992157"/><rect fill="url(#d)" height="12" rx="1.546875" width="12" x="36" y="60.10006"/><rect fill="url(#c)" height="8.937499" rx=".837891" width="8.937503" x="37.562511" y="61.66256"/><path d="m38.428317 61.662501c-.464192 0-.837891.3737-.837891.837891v4.224364c.679121.06455 1.378207.104736 2.094726.104736 2.578772 0 4.95135-.434878 6.842772-1.169555v-3.159545c0-.464191-.373698-.837891-.837891-.837891z" fill="url(#e)"/><path d="m4 24.141053v3.958947h32v-3.958947z" fill="#4d4d4d" fill-opacity=".992157"/><rect fill="url(#f)" height="12" rx="1.546875" width="12" x="24" y="20.099985"/><rect fill="url(#g)" height="8.937499" rx=".837891" width="8.937503" x="25.562511" y="21.662485"/><path d="m26.428317 21.662501c-.464192 0-.837891.3737-.837891.837891v4.224364c.679121.06455 1.378207.104736 2.094726.104736 2.578772 0 4.95135-.434878 6.842772-1.169555v-3.159545c0-.464191-.373698-.837891-.837891-.837891z" fill="url(#h)"/><path d="m48 24.141053v3.958947h36v-3.958947z" fill="#4d4d4d" fill-opacity=".992157"/><rect fill="url(#i)" height="12" rx="1.546875" width="12" x="48" y="20.099985"/><rect fill="url(#j)" height="8.937499" rx=".837891" width="8.937503" x="49.562511" y="21.662485"/><path d="m50.428317 21.662501c-.464192 0-.837891.3737-.837891.837891v4.224364c.679121.06455 1.378207.104736 2.094726.104736 2.578772 0 4.95135-.434878 6.842772-1.169555v-3.159545c0-.464191-.373698-.837891-.837891-.837891z" fill="url(#k)"/><path d="m32.489071 41.502876 1.912368-1.912367 5.7371 3.824734.0024-15.291713h3.824734l-.0024 15.291713 5.737101-3.824734 1.912368 1.912367-9.558825 11.473594z" style="opacity:.521739;fill:none;stroke:#fff;stroke-width:7.647058;stroke-linecap:round;stroke-linejoin:round;stroke-dashoffset:1.0878"/><path d="m32.495095 41.510695 1.912366-1.912366 5.7371 3.824733-.0024-15.299532h3.82353l.0036 15.299532 5.737117-3.824733 1.912367 1.912366-9.564831 11.465775-9.558824-11.465775z" fill="url(#l)"/></g></svg>