<svg height="22" viewBox="0 0 5.8208332 5.8208336" width="22" xmlns="http://www.w3.org/2000/svg" xmlns:xlink="http://www.w3.org/1999/xlink"><linearGradient id="a" gradientTransform="matrix(.26458334 0 0 .27105453 0 -.658401)" gradientUnits="userSpaceOnUse" x1="52.3629" x2="63.9991" y1="11.638" y2="87.2733"><stop offset="0" stop-color="#3b3e22"/><stop offset="1" stop-color="#454545" stop-opacity="0"/></linearGradient><linearGradient id="b" gradientUnits="userSpaceOnUse" x1="15.401437" x2="16.376609" y1="27.556832" y2="5.127874"><stop offset="0" stop-color="#555"/><stop offset="1"/></linearGradient><g transform="matrix(.171875 0 0 .171875 .000041 -.000041)"><path d="m11.137501 19.404392q0 3.413101 1.262847 5.187914 1.296979 1.740682 4.607688 1.740682 1.911336 0 3.447232-.716751 1.535896-.750883 2.218516-1.979599.785014-1.467634.785014-4.641819v-9.2153738q0-2.5598262-.614359-3.3789706-.614358-.8532753-2.593957-.9897994v-.6484893h7.918396v.6484893q-2.116123.2730481-2.66222 1.0239305-.546096.7508823-.546096 3.3448395v8.9081948q0 2.01373-.375441 3.515495-.34131 1.501765-1.262848 2.867005-.887406 1.33111-2.69635 2.047861-1.774813.716752-4.402901.716752-4.36877 0-6.4848928-2.116123-2.081992-2.150254-2.081992-6.587286v-10.6488774q0-1.8772059-.5460963-2.3891711-.5119652-.5119652-2.5256951-.6826203v-.6484893h9.6590772v.6484893q-2.047861.1706551-2.593957.7167513-.511965.5119653-.511965 2.3550401z" fill="url(#b)" stroke-width=".810844" transform="scale(1.0339949 .96712272)"/><rect fill="#010101" height="1.539372" rx=".472075" ry=".607224" stroke-width=".264583" width="27.708702" x="3.078745" y="29.24855"/><path d="m6.7003664 5.0734493c.4003773.1153974.7487714.2551895.9973551.485463.5931496.5255826.7198527 1.3933274.7198527 2.6443698v9.0522689a16.522165 9.4621341 0 0 0 2.5977738.601931v-9.6541999c0-1.2316447.112077-2.0794908.676962-2.6078408.262506-.2455291.629917-.3987874 1.0604-.521992zm15.9783536 0c.571391.1850796 1.040359.447005 1.345137.8412221.570559.715304.733806 1.8581929.733806 3.5427672v7.2983554a16.522165 9.4621341 0 0 0 .549837-.224997v-7.0733584c0-1.7055463.125302-2.8196086.662492-3.5104735.332283-.4273397.917933-.6796898 1.62264-.8735158z" fill="url(#a)"/></g></svg>