<svg height="22" width="22" xmlns="http://www.w3.org/2000/svg" xmlns:xlink="http://www.w3.org/1999/xlink"><linearGradient id="a" gradientUnits="userSpaceOnUse" x1="-96.822324" x2="101.524494" y1="-800.615054" y2="-638.331294"><stop offset="0" stop-color="#3b3e22"/><stop offset="1" stop-color="#454545" stop-opacity="0"/></linearGradient><linearGradient id="b" gradientUnits="userSpaceOnUse" x1="74.32776" x2="78.138741" y1="108.931477" y2="21.278833"><stop offset="0" stop-color="#555"/><stop offset="1"/></linearGradient><g transform="matrix(.171875 0 0 .171875 .000155 -.000155)"><path d="m91.049251 98.278945q0-6.269068-4.401686-11.070908-4.401687-4.935224-10.670755-8.403219-6.269068-3.467995-12.538136-7.069375-6.135684-3.734764-10.53737-9.470294-4.401686-5.735531-4.401686-13.338443 0-10.137217 6.802606-16.406285 6.93599-6.402453 16.2729-6.402453 5.602146 0 12.137983 2.267536 6.535837 2.267535 7.869681 2.267535 3.467996 0 4.268302-4.535071h2.801073l2.934457 28.410884h-3.33461q-3.201226-11.73783-9.870448-17.339976-6.535837-5.602146-14.538903-5.602146-6.135684 0-10.003832 3.467995-3.868148 3.467995-3.868148 8.936757 0 5.335377 4.53507 10.137217 4.535071 4.801839 15.072441 10.670754 13.205058 7.069375 19.073973 14.005365 5.868917 6.802606 5.868917 15.072441 0 10.270601-7.869683 17.339971-7.869682 6.93599-19.340743 6.93599-6.669221 0-13.605211-2.26753-6.802606-2.26754-8.403219-2.26754-1.467229 0-2.534305 1.33385-1.067075 1.20046-1.20046 3.06784h-2.934457l-4.001533-28.277499h3.067842q4.935224 12.137979 11.471061 17.873509 6.535837 5.73554 15.472594 5.73554 7.336143 0 11.871214-4.13492 4.535071-4.2683 4.535071-10.937525z" fill-opacity=".403922" stroke-width="3.168787"/><path d="m54.892799 3.2812959v-2.79470843z" fill="#fff" fill-opacity=".756881"/><g stroke-width="3.168787"><path d="m80.472978 90.143355q0-6.269068-4.401686-11.070907-4.401687-4.935224-10.670755-8.40322-6.269068-3.467995-12.538136-7.069374-6.135684-3.734764-10.53737-9.470295-4.401686-5.73553-4.401686-13.338443 0-10.137216 6.802606-16.406285 6.93599-6.402452 16.2729-6.402452 5.602146 0 12.137983 2.267535 6.535837 2.267535 7.869681 2.267535 3.467996 0 4.268302-4.53507h2.801073l2.934458 28.410883h-3.334611q-3.201226-11.73783-9.870448-17.339976-6.535837-5.602146-14.538903-5.602146-6.135683 0-10.003832 3.467995-3.868148 3.467996-3.868148 8.936757 0 5.335377 4.53507 10.137217 4.535071 4.801839 15.072441 10.670754 13.205058 7.069375 19.073973 14.005365 5.868915 6.802606 5.868915 15.072441 0 10.270601-7.869681 17.339971-7.869682 6.936-19.340743 6.936-6.669221 0-13.605211-2.26754-6.802606-2.26754-8.403219-2.26754-1.467229 0-2.534305 1.33385-1.067075 1.20046-1.200459 3.06784h-2.934458l-4.001533-28.277498h3.067842q4.935224 12.137983 11.471061 17.873513 6.535837 5.735535 15.472594 5.735535 7.336144 0 11.871214-4.13492 4.535071-4.268303 4.535071-10.937525z" fill="url(#b)"/><path d="m59.152344 21.017578c-4.734111.371248-8.801968 2.092292-12.47461 5.482422-3.966671 3.655559-5.876953 8.176621-5.876953 14.291016 0 4.513737 1.246256 8.249678 3.806641 11.585937 2.722087 3.546962 5.954026 6.448243 9.742187 8.755859 1.472882.845997 2.945529 1.680287 4.417969 2.515626a81.4534 29.0905 0 0 0 14.404297-1.28125c-1.71366-1.049566-3.545582-2.105073-5.527344-3.166016a2.8780692 2.8780692 0 0 1 -.04297-.02344c-7.163287-3.989677-12.378462-7.624643-15.76367-11.208982-3.38858-3.587908-5.320313-7.740946-5.320313-12.113281 0-4.323837 1.6838-8.264329 4.822266-11.078125 2.172343-1.947619 4.849524-3.1651 7.8125-3.759766zm26.595703 2.44336c-1.242733 1.236594-3.020109 1.933593-4.742188 1.933593-1.260032 0-2.037048-.27585-3.43164-.677734-.402393-.115959-1.085205-.358169-1.552735-.503906 1.2566.76703 2.473746 1.645616 3.640625 2.644531 3.049073 2.563216 5.484533 5.997576 7.476563 10.064453z" fill="url(#a)"/></g></g></svg>