<svg height="22" viewBox="0 0 5.8208332 5.8208336" width="22" xmlns="http://www.w3.org/2000/svg" xmlns:xlink="http://www.w3.org/1999/xlink"><linearGradient id="a" gradientTransform="matrix(.2038923 -.0003601 -.0003601 .2038923 -283.09723 242.35471)" gradientUnits="userSpaceOnUse" x1="1520.4941" x2="1437.158" y1="226.94199" y2="143.60587"><stop offset="0" stop-color="#bf0303"/><stop offset="1" stop-color="#fe9494"/></linearGradient><linearGradient id="b" gradientUnits="userSpaceOnUse" x1="3.809741" x2="3.292449" y1=".494815" y2="3.986538"><stop offset="0" stop-color="#3b3e22"/><stop offset="1" stop-color="#454545" stop-opacity="0"/></linearGradient><linearGradient id="c" gradientUnits="userSpaceOnUse" x1="2.800605" x2="2.981627" y1="4.798557" y2=".635062"><stop offset="0" stop-color="#555"/><stop offset="1"/></linearGradient><path d="m3.3522503.52916673-1.8370973 3.16776527c-.2407585.4139358-.4058428.6717075-.4945434.7730794-.0844767.1013722-.19203893.1648264-.32297773.1901693v.1012859h1.18494063v-.1012859c-.160506-.016896-.2641134-.0382193-.3105754-.0635619-.0422387-.0253429-.063562-.0778769-.063562-.1581298 0-.092925.042131-.2237878.1266073-.3927409l.3389974-.6082316c.00359.0002892.00667.00207.010335.00207h1.4164512l.1162719.7198527c.00845.076029.012401.1310571.012401.1648478 0 .1182672-.031727.1985735-.095085.2408122-.063358.042238-.1961981.073965-.3989422.095085v.1012824h1.5585619v-.1012859c-.1773987-.0168955-.2914105-.0530942-.3420968-.1080037-.0506857-.0591336-.0972878-.2048717-.1395261-.4371827l-.5953126-3.58582757zm-.2723349.92500807.2780192 1.7208253h-1.2376505z" fill="url(#c)" stroke-width=".150517"/><path d="m3.4066166.62464393-1.4498326 2.49856177a3.1037536 1.8105227 0 0 0 .084868.01465.09521982.09521982 0 0 1 .00556-.084868l.9507236-1.6458382a.09521982.09521982 0 0 1 .078301-.047486.09521982.09521982 0 0 1 .097498.079816l.2783477 1.645838a.09521982.09521982 0 0 1 -.0520327.1010343 3.1037536 1.8105227 0 0 0 .4516201-.0646615l-.4147429-2.49704637zm-.8698996 2.57181107a3.1037536 1.8105227 0 0 0 .3677625.014145 3.1037536 1.8105227 0 0 0 .3556384-.014145z" fill="url(#b)" opacity=".5"/><g transform="matrix(.12650362 0 0 .12650362 1.512487 -31.746939)"><g fill-rule="evenodd" stroke="#000" stroke-width=".611676"><path d="m15.978629 296.69414-7.7113467-7.71135 4.6394457-4.63945 9.132992 9.21693-3.043624 3.04362z" fill="#fff" stroke-opacity=".706587"/><path d="m22.552832 293.3072-9.35139-9.35138 9.384479-9.38446 9.351369 9.35137z" fill="url(#a)" stroke-linecap="round" stroke-linejoin="round" stroke-opacity=".622755"/><path d="m19.379651 290.30188-3.172885-3.17288 9.552335-9.55232 3.172863 3.17288z" fill="#fff" stroke-opacity=".48503"/></g><path d="m20.131423 287.06805-.638921-.63153.658753-.65117.06776.067-.491471.48581.205042.20268.411818-.40708.06693.0661-.411826.40707.231399.22872.525745-.51969.06776.067-.693009.68503m.885827-.87558-.638983-.63152.356864-.35275c.113098-.11182.21323-.184.300288-.21658.08757-.0331.157121-.0242.208657.0267.08516.0842.06626.22243-.05686.41465l.692683-.0933-.205515.20314-.605591.0644-.156137.15432.270256.26711-.165666.16377m-.172369-.49788.05412-.0536c.210301-.20786.270684-.35604.181189-.44451-.06588-.0651-.18701-.0106-.363318.1637l-.105179.1039.233131.23042m1.557778-1.35462-.476221-.0738.07393.47145.402281-.39764m.421183.0667-.305262-.0482-.499447.49369.04715.30329-.155336.15352-.171396-1.09372.165708-.16378 1.099358.17642-.180798.17874m.597473-.559c-.07914.0782-.189673.16896-.331604.27225l-.08976-.0887c.166141-.0982.291942-.18961.37744-.27412.06583-.0651.109343-.12657.130468-.18443.02166-.0584.01731-.10264-.01322-.13281-.02506-.0247-.05964-.0327-.103737-.0238-.04355.008-.111452.0368-.203656.0853l-.106752.0551c-.131449.0685-.231553.10969-.300326.12362-.06849.0131-.121035.002-.15759-.0345-.04924-.0487-.05671-.12116-.02253-.21754.0339-.0967.10182-.1954.203783-.29618.09084-.0898.194864-.1764.312168-.25992l.08291.0819c-.150765.0967-.256665.17517-.317733.23554-.05792.0572-.09734.1127-.118328.16648-.02099.0538-.01892.0932.0065.1182.02131.0211.05397.026.09801.0149.04398-.0111.114008-.0416.210047-.0916l.110348-.0579c.133324-.0698.234099-.11082.302404-.12312.06826-.0123.121948.00082.161107.0396.05555.0549.06219.13654.01996.24488-.04176.10782-.124991.22342-.249767.34677m.632408-.65672-.638942-.63153.658761-.65117.06776.067-.491462.48581.205022.20269.411839-.40709.06692.0661-.411799.40708.231404.22872.525726-.51968.06776.067-.692988.68503m.885786-.87557-.638939-.63152.356861-.35275c.113099-.11182.213167-.184.300244-.21658.08763-.0331.157141-.0242.208677.0267.08516.0842.06622.22242-.05686.41465l.692684-.0933-.205515.20315-.605611.0644-.156139.15432.270277.26712-.165687.16377m-.172344-.49788.05413-.0536c.210253-.20787.270684-.35604.181148-.44451-.0659-.0651-.186991-.0106-.363317.1637l-.105179.1039.233152.23042" fill="#9c0f0f" stroke="#9c0f0f" stroke-opacity=".652695" stroke-width=".203892"/><g fill-rule="evenodd"><path d="m25.263625 272.01128 8.436538 8.47851-.0064 1.67237-1.827457 1.79874-9.30033-9.3423 2.697626-2.60732z" fill="#ddd" stroke="#000" stroke-linejoin="round" stroke-opacity=".700599" stroke-width=".611676"/><path d="m25.252247 272.51923-2.265898 2.14044 2.927203 2.92721 2.307938-2.2243z" opacity=".177778"/><path d="m31.064843 278.33182-2.265898 2.14045 3.094686 2.9688 1.474401-1.42098-.02415-1.61937z" fill="#fff" opacity=".655556"/></g></g></svg>