<svg height="22" viewBox="0 0 5.8208332 5.8208336" width="22" xmlns="http://www.w3.org/2000/svg" xmlns:xlink="http://www.w3.org/1999/xlink"><linearGradient id="a" gradientTransform="matrix(.27254703 0 0 .28267622 5.361896 -1.243952)" gradientUnits="userSpaceOnUse" x1="35.816406" x2="58.066406" y1="48.56543" y2="48.56543"><stop offset="0" stop-color="#3b3e22"/><stop offset="1" stop-color="#454545" stop-opacity="0"/></linearGradient><linearGradient id="b" gradientTransform="matrix(.86023422 0 0 .86023417 5.75188 -224.67637)" gradientUnits="userSpaceOnUse" x1="18.996088" x2="20.22575" y1="294.8226" y2="266.54037"><stop offset="0" stop-color="#555"/><stop offset="1"/></linearGradient><g transform="matrix(.171875 0 0 .171875 .000036 -.000041)"><path d="m9.8040075 28.723263v-.592367q1.5919855-.296183 2.0732825-.703435.481298-.444275.925573-2.03626l4.553818-16.3641249q.407252-1.4438934.407252-2.2954202 0-.7774811-.518321-1.0736643-.481298-.3332062-2.073283-.5183207v-.5923666h9.144658v.5923666q-1.629008.2961832-2.110306.7404581-.481297.407252-.925572 1.999237l-4.553818 16.401148q-.407252 1.443893-.407252 2.332443 0 .777481.444275 1.073664.481298.259161 2.073283.444275v.592367z" fill="url(#b)" stroke-width=".879546" transform="scale(.98191997 1.0184129)"/><path d="m17.409326 4.9014954c.01356.00804.01706.026933.03035.035335.01061.00741.02934.00289.03993.010492zm3.778396.3296051-.03247.027052c.0064-.00609.01597-.00668.02235-.012698.0046-.00408.0054-.010289.0101-.014354zm-3.142808.3919925c.216051.3799985.356122.8061646.356122 1.2333957 0 .7370195-.156669 1.5774693-.436501 2.6064739l-2.840983 10.5832424a20.621185 10.578798 0 0 0 .807526.02098 20.621185 10.578798 0 0 0 .751633-.0138l3.289728-12.2931051a.95754713.99313432 0 0 1 .0022-.00221c.251636-.9353136.506687-1.5897509.935255-2.1349802z" fill="url(#a)"/></g></svg>