<svg height="22" viewBox="0 0 5.8208332 5.8208336" width="22" xmlns="http://www.w3.org/2000/svg" xmlns:xlink="http://www.w3.org/1999/xlink"><linearGradient id="a" gradientTransform="matrix(.27596654 0 0 .27333663 -.858231 -.56021)" gradientUnits="userSpaceOnUse" x1="19.96508" x2="99.980469" y1="15.855672" y2="50.37207"><stop offset="0" stop-color="#3b3e22"/><stop offset="1" stop-color="#454545" stop-opacity="0"/></linearGradient><linearGradient id="b" gradientUnits="userSpaceOnUse" x1="17.764813" x2="18.811494" y1="29.611393" y2="5.537732"><stop offset="0" stop-color="#555"/><stop offset="1"/></linearGradient><g transform="matrix(.171875 0 0 .171875 .000041 -.000041)"><path d="m21.357548 16.025485q7.070329 1.501986 7.070329 6.484187 0 3.113875-2.820805 5.018834-2.820805 1.868326-7.473301 1.868326h-11.7960921v-.915846q2.0148605-.219803 2.6010018-.696043.622775-.512873.622775-1.904959v-17.7307723q0-1.3920854-.6594088-1.9415928-.6594089-.5495074-2.564368-.6594089v-.9158457h11.3198531q4.579228 0 7.033694 1.5386208 2.491101 1.5019869 2.491101 4.3227919 0 2.088128-1.318818 3.370312-1.318818 1.24555-4.505961 2.161396zm-5.93468.805944v9.158457q0 1.208916.512874 1.721789.512873.512874 1.72179.512874 4.469326 0 4.469326-5.385173 0-6.007947-5.604975-6.007947zm0-9.3049923v8.2059773q3.370312-.07327 4.542595-1.062381 1.172282-1.025747 1.172282-3.91982 0-2.6010013-.915846-3.8099176-.915845-1.2089163-2.820804-1.2089163-1.062381 0-1.538621.4029721-.439606.4029721-.439606 1.3920855z" fill="url(#b)" stroke-width=".870302" transform="scale(1.0047992 .99522371)"/><path d="m8.1440998 5.1841297c.4686207.1213959.8591009.2933066 1.1712406.550944.6270957.5175997.8720976 1.3610694.8720976 2.3751458v12.7496585a17.58702 10.377527 0 0 0 4.595489.372635 17.58702 10.377527 0 0 0 .132593-.0027v-4.478008a.57974203.5742172 0 0 1 .409639-.546674.57974203.5742172 0 0 1 -.409639-.548809v-8.1659145c-.000001-.7415211.162843-1.3840948.631706-1.8097876a.57974203.5742172 0 0 1 .01617-.01388c.370111-.3101865.868099-.4299041 1.421875-.4826099zm9.6599072.00641c1.243637.073357 2.307593.49555 2.976342 1.3698863.734175.9598741 1.039187 2.3452566 1.039187 4.138488 0 1.997604-.388628 3.475041-1.377139 4.331745a.57974203.5742172 0 0 1 -.0065.0064c-.904199.755648-2.41219 1.050772-4.41816 1.139793h.582656c1.980818 0 3.577929.543041 4.648312 1.678991.585445.621307.997439 1.399148 1.251552 2.316421a17.58702 10.377527 0 0 0 3.819872-1.50175c-1.077139-.945436-2.725941-1.686411-4.979263-2.160533a.57974203.5742172 0 0 1 -.04096-1.112033c2.085885-.593682 3.519785-1.299941 4.286105-2.015323.768682-.741867 1.146986-1.675402 1.146986-2.937835 0-1.7024151-.691737-2.8974065-2.222824-3.8117648a.57974203.5742172 0 0 1 -.0081-.00587c-1.49504-.92829-3.730436-1.4287976-6.698066-1.4366194z" fill="url(#a)"/></g></svg>