<svg height="22" width="22" xmlns="http://www.w3.org/2000/svg" xmlns:xlink="http://www.w3.org/1999/xlink"><linearGradient id="a" gradientTransform="matrix(0 .06940294 .11152913 0 -45.287814 40.766344)" gradientUnits="userSpaceOnUse" x1="399.77466" x2="399.77466" y1="1164.6696" y2="549.06134"><stop offset="0" stop-color="#717174"/><stop offset=".5" stop-color="#9c9ca1"/><stop offset="1" stop-color="#bdbdc2"/></linearGradient><linearGradient id="b" gradientTransform="matrix(0 .57141947 .76189347 0 1.524025 42.984938)" gradientUnits="userSpaceOnUse" x1="119.57646" x2="-34.494343" y1="23.792561" y2="143.09071"><stop offset="0" stop-color="#fff"/><stop offset=".58037925" stop-color="#fff"/><stop offset=".7439568" stop-color="#e5e5e5"/><stop offset=".93391454" stop-color="#eaeaea"/><stop offset="1" stop-color="#eee"/></linearGradient><linearGradient id="c" gradientTransform="matrix(0 -1.3692663 -1.7142582 0 105.14142 195.38728)" gradientUnits="userSpaceOnUse" x1="102.31124" x2="74.330322" y1="-5.830213" y2="32"><stop offset="0" stop-color="#fff"/><stop offset="1" stop-color="#fff" stop-opacity="0"/></linearGradient><g transform="matrix(.171875 0 0 .171875 .000155 -.00015)"><path d="m85.318359 5.8203125a36.862114 36.862114 0 0 0 -36.765625 34.9082035h-33.751953c-1.753291 0-3.164062 1.213164-3.164062 2.720703v70.193361c0 1.50754 1.410771 2.7207 3.164062 2.7207h69.306641c1.753291 0 3.164062-1.21316 3.164062-2.7207v-34.167971a36.862114 36.862114 0 0 0 34.908206-36.792968 36.862114 36.862114 0 0 0 -36.861331-36.8613285z" fill="url(#a)" opacity=".75"/><g fill-rule="evenodd"><path d="m85.318359 12.046875a30.63558 30.63558 0 0 0 -30.636718 30.634766 30.63558 30.63558 0 0 0 .285156 3.865234h-35.988281c-.844178 0-1.523438.564277-1.523438 1.265625v61.4668c0 .70135.67926 1.26562 1.523438 1.26562h60.951172c.844177 0 1.523437-.56427 1.523437-1.26562v-36.236331a30.63558 30.63558 0 0 0 3.865234.27539 30.63558 30.63558 0 0 0 30.634761-30.636718 30.63558 30.63558 0 0 0 -30.634761-30.634766z" fill="url(#b)"/><path d="m109.52344 23.927734c-16.227679 8.560464-36.921633 18.086338-54.589846 19.902344v2.445313a30.63558 30.63558 0 0 0 6.091797 14.945312c-14.005067 3.433121-30.050171 4.846673-43.570313 6.236328v37.271489c21.212866-8.542979 46.382718-20.830258 62.544922-35.458989v-1.013672c12.959277-9.314997 25.45394-20.540413 35.63086-29.759765a30.63558 30.63558 0 0 0 -6.10742-14.56836z" fill="url(#c)"/></g></g></svg>