<svg height="22" width="22" xmlns="http://www.w3.org/2000/svg" xmlns:xlink="http://www.w3.org/1999/xlink"><linearGradient id="a"><stop offset="0" stop-color="#fff"/><stop offset="1" stop-color="#fff" stop-opacity="0"/></linearGradient><linearGradient id="b" gradientTransform="matrix(0 .09821272 .13095044 0 .262097 7.387886)" gradientUnits="userSpaceOnUse" x1="119.57646" x2="15.999996" xlink:href="#f" y1="23.792561" y2="109.6508"/><linearGradient id="c" gradientTransform="matrix(0 -1.3692663 -1.7142582 0 105.14142 195.38728)" gradientUnits="userSpaceOnUse" x1="102.31124" x2="74.330322" xlink:href="#a" y1="-5.830213" y2="32"/><linearGradient id="d" gradientUnits="userSpaceOnUse" x1="122.2085517279" x2="81.48185182502" xlink:href="#a" y1="18.10895227747" y2="56.33469628959"/><linearGradient id="e" gradientTransform="matrix(.125 0 0 .125 -35.02117 2.548669)" gradientUnits="userSpaceOnUse" x1="46.591778" x2="118.24603" y1="39.999996" y2="39.999996"><stop offset="0" stop-color="#ff6b6b"/><stop offset=".5" stop-color="#fc4141"/><stop offset="1" stop-color="#ff9f9f"/></linearGradient><linearGradient id="f"><stop offset="0" stop-color="#fff"/><stop offset=".42597079" stop-color="#fff"/><stop offset=".5892781" stop-color="#f9d1d1"/><stop offset=".80219781" stop-color="#fbd9d9"/><stop offset="1" stop-color="#fdd"/></linearGradient><linearGradient id="g" gradientTransform="matrix(-.171875 0 0 -.171875 29.344791 14.659914)" gradientUnits="userSpaceOnUse" x1="48.552734" x2="122.17969" xlink:href="#e" y1="42.647461" y2="42.647461"/><linearGradient id="h" gradientTransform="matrix(-.18147161 0 0 -.18147161 30.521333 .388581)" gradientUnits="userSpaceOnUse" x1="68.970383" x2="111.2084" xlink:href="#f" y1="-13.829675" y2="-61.490929"/><linearGradient id="i" gradientTransform="matrix(-.171875 0 0 -.171875 17.000003 27.000001)" gradientUnits="userSpaceOnUse" x1="11.636719" x2="87.271484" xlink:href="#e" y1="78.545898" y2="78.545898"/><g transform="matrix(.171875 0 0 .171875 .000155 -.00015)"><g><path d="m2.5449219 7c-.3013469 0-.5449219.2076886-.5449219.4667969v5.8730471 6.191406c0 .259108.243575.46875.5449219.46875h6.109375 5.8027341c.075337 0 .145829-.013513.210938-.037109.195327-.07079.332031-.23731.332031-.431641v-5.871094-6.1933591c0-.2591085-.241622-.4667969-.542969-.4667969h-6.1113279z" fill="url(#i)" transform="matrix(5.8181818 0 0 5.8181818 -.000904 .000873)"/><g fill-rule="evenodd"><path d="m3.2617188 8c-.1450931 0-.2617188.0962527-.2617188.2167969v5.1484371 5.417969c0 .120545.1166257.216797.2617188.216797h5.3671874 5.1093748c.145093 0 .261719-.096252.261719-.216797v-5.148437-5.4179691c0-.1205446-.116626-.2167969-.261719-.2167969h-5.3671872z" fill="url(#b)" transform="matrix(5.8181818 0 0 5.8181818 -.000904 .000873)"/><path d="m81.453641 58.182691c-12.271115 2.406503-52.582642 8.100966-63.998563 9.27434v37.271489c17.56034-7.072012 48.36888-20.277849 63.998047-31.685551-6.777735-2.881437 3.998704-8.675226.000516-14.860278z" fill="url(#c)"/></g></g><g><path d="m14.345703 1a6.3356758 6.3356758 0 0 0 -.314453.0332031 6.3356758 6.3356758 0 0 0 -.625.0957031 6.3356758 6.3356758 0 0 0 -.5625.1425782 6.3356758 6.3356758 0 0 0 -.105469.0332031 6.3356758 6.3356758 0 0 0 -.476562.1757813 6.3356758 6.3356758 0 0 0 -.13086.0546874 6.3356758 6.3356758 0 0 0 -.412109.1992188 6.3356758 6.3356758 0 0 0 -.181641.1015625 6.3356758 6.3356758 0 0 0 -.349609.2148437 6.3356758 6.3356758 0 0 0 -.203125.1386719 6.3356758 6.3356758 0 0 0 -.275391.2109375 6.3356758 6.3356758 0 0 0 -.246093.2070313 6.3356758 6.3356758 0 0 0 -.220703.2070312 6.3356758 6.3356758 0 0 0 -.230469.2382813 6.3356758 6.3356758 0 0 0 -.1972659.2246094 6.3356758 6.3356758 0 0 0 -.2148437.2753906 6.3356758 6.3356758 0 0 0 -.1464844.203125 6.3356758 6.3356758 0 0 0 -.2324219.3632812 6.3356758 6.3356758 0 0 0 -.0800781.140625 6.3356758 6.3356758 0 0 0 -.2265625.4492188 6.3356758 6.3356758 0 0 0 -.0410156.09375 6.3356758 6.3356758 0 0 0 -.1972657.5097656 6.3356758 6.3356758 0 0 0 -.0234374.0703125 6.3356758 6.3356758 0 0 0 -.1503907.546875 6.3356758 6.3356758 0 0 0 -.0136719.0585937 6.3356758 6.3356758 0 0 0 -.0976562.578125 6.3356758 6.3356758 0 0 0 -.0019531.0292969 6.3356758 6.3356758 0 0 0 -.0429688.4042969h.0136719a6.3356758 6.3356758 0 0 0 -.0136719.3242188 6.3356758 6.3356758 0 0 0 6.3359379 6.3359372 6.3356758 6.3356758 0 0 0 .318359-.017578v.017578a6.3356758 6.3356758 0 0 0 .3125-.033203 6.3356758 6.3356758 0 0 0 .611328-.09375 6.3356758 6.3356758 0 0 0 .015625-.001953 6.3356758 6.3356758 0 0 0 .015625-.003906 6.3356758 6.3356758 0 0 0 .546875-.138672 6.3356758 6.3356758 0 0 0 .103516-.033203 6.3356758 6.3356758 0 0 0 .490234-.179688 6.3356758 6.3356758 0 0 0 .101563-.044922 6.3356758 6.3356758 0 0 0 .445312-.21289 6.3356758 6.3356758 0 0 0 .148438-.083985 6.3356758 6.3356758 0 0 0 .384765-.234375 6.3356758 6.3356758 0 0 0 .160157-.111328 6.3356758 6.3356758 0 0 0 .330078-.253906 6.3356758 6.3356758 0 0 0 .191406-.162109 6.3356758 6.3356758 0 0 0 .253906-.236328 6.3356758 6.3356758 0 0 0 .210938-.216797 6.3356758 6.3356758 0 0 0 .208984-.238282 6.3356758 6.3356758 0 0 0 .224609-.287109 6.3356758 6.3356758 0 0 0 .132813-.185547 6.3356758 6.3356758 0 0 0 .21875-.34375 6.3356758 6.3356758 0 0 0 .109375-.189453 6.3356758 6.3356758 0 0 0 .203125-.4042969 6.3356758 6.3356758 0 0 0 .058594-.1308593 6.3356758 6.3356758 0 0 0 .189453-.4902344 6.3356758 6.3356758 0 0 0 .023437-.0722656 6.3356758 6.3356758 0 0 0 .154297-.5605469 6.3356758 6.3356758 0 0 0 .003906-.015625 6.3356758 6.3356758 0 0 0 .001953-.0136719 6.3356758 6.3356758 0 0 0 .103516-.609375 6.3356758 6.3356758 0 0 0 .044922-.4179688h-.015625a6.3356758 6.3356758 0 0 0 .015625-.3242187 6.3356758 6.3356758 0 0 0 -6.335938-6.3359375 6.3356758 6.3356758 0 0 0 -.318359.0175781zm0 6h.111328c.301347 0 .542969.2076886.542969.4667969v.1933593h-.111328c-.301347 0-.542969-.2096417-.542969-.46875z" fill="url(#g)" transform="matrix(5.8181818 0 0 5.8181818 -.000904 .000873)"/><path d="m14.345703 2.0703125c-.244346.018209-.487124.05345-.726562.1054687-.171997.035095-.342132.07877-.509766.1308594-.164266.051294-.325918.11061-.484375.1777344-.01043.00452-.02085.00908-.03125.013672-.147677.063655-.29236.1340408-.433594.2109375-.01698.00967-.03391.019437-.05078.029297-.125406.069834-.247904.1447661-.367187.2246094-.04475.030565-.08903.061818-.132813.09375-.09202.065452-.18191.1338463-.269531.2050782-.05497.045124-.109015.091358-.16211.1386718-.07485.066269-.147795.1346561-.21875.2050782-.06214.062275-.122702.1260968-.18164.1914062-.05207.057465-.102863.1160728-.152344.1757812-.07255.087564-.142251.1774544-.208984.2695313-.03126.043153-.06186.086778-.0918.1308594-.07975.1180061-.154684.2391995-.22461.3632812-.01053.018167-.02094.036396-.03125.054687-.078992.1424025-.1513351.2883927-.2167965.4375-.00262.00651-.00522.013016-.00781.019531-.0685068.1590247-.1291274.3213313-.1816411.4863286-.0533441.1669228-.0983219.3364046-.1347656.5078125-.0554571.2495666-.0926649.5028406-.1113282.7578125h.015625c-.00854.1078867-.01375.216011-.015625.3242188-.0000745 2.9081552 2.3574704 5.2657002 5.2656254 5.2656252.106253-.002.212421-.0072.318359-.01563v.01563c.590056-.0402 1.169123-.179518 1.712891-.41211.0059-.0019.01172-.0039.01758-.0059.01043-.0052.02085-.01038.03125-.01563.138837-.05986.275031-.125681.408203-.197266.02814-.01602.05614-.03229.08398-.04883.123353-.06869.243893-.142321.361328-.220703.03347-.02305.06668-.04649.09961-.07031.09884-.06958.195247-.142537.289062-.21875.06243-.05196.123639-.105362.183594-.160157.06254-.05518.12375-.111835.183594-.169922.07249-.0728.142831-.147698.210937-.224609.04594-.0512.09087-.103291.134766-.15625.0768-.0925.150413-.187612.220703-.285156.02517-.03485.04991-.07001.07422-.105469.08405-.122265.162898-.248029.236328-.376953.0099-.016873.01963-.0338.0293-.050781.07828-.1418006.149966-.2871375.214844-.4355469.0026-.00585.0052-.011714.0078-.017578.0013-.0039.0026-.00781.0039-.011719.06767-.1571419.127634-.3174883.179688-.4804688.133568-.4102009.216218-.8352617.246094-1.265625h-.01563c.0085-.1078866.01375-.2160109.01563-.3242187.000074-2.9081556-2.35747-5.2656999-5.265626-5.265625-.106253.00199-.212421.00721-.318359.015625z" fill="url(#h)" transform="matrix(5.8181818 0 0 5.8181818 -.000904 .000873)"/><path d="m109.52344 23.927734c-11.746939 6.196773-25.832044 12.883007-39.417971 16.800782h14.001953c1.753291 0 3.164062 1.213164 3.164062 2.720703v19.345703c10.316419-8.029147 20.103896-16.820127 28.359376-24.298828a30.63558 30.63558 0 0 0 -6.10742-14.56836z" fill="url(#d)" fill-rule="evenodd"/></g></g></svg>