<svg height="22" viewBox="0 0 5.8208332 5.8208335" width="22" xmlns="http://www.w3.org/2000/svg" xmlns:xlink="http://www.w3.org/1999/xlink"><linearGradient id="a" gradientTransform="matrix(0 -.06226774 -.07795634 0 4.781339 300.06444)" gradientUnits="userSpaceOnUse" x1="102.31124" x2="74.330322" y1="-5.830213" y2="32"><stop offset="0" stop-color="#fff"/><stop offset="1" stop-color="#fff" stop-opacity="0"/></linearGradient><linearGradient id="b" gradientUnits="userSpaceOnUse" x1="3.0170145871" x2="3.96873442549" y1="294.96121880653" y2="293.91392293207"><stop offset="0" stop-color="#717174"/><stop offset=".5" stop-color="#9c9ca1"/><stop offset="1" stop-color="#bdbdc2"/></linearGradient><linearGradient id="c" gradientTransform="matrix(0 .02598545 .0346473 0 .069346 293.13394)" gradientUnits="userSpaceOnUse" x1="46.960358" x2="6.233008" y1="69.911026" y2="107.97377"><stop offset="0" stop-color="#fff"/><stop offset=".42597079" stop-color="#fff"/><stop offset=".5892781" stop-color="#e5e5e5"/><stop offset=".80219781" stop-color="#eaeaea"/><stop offset="1" stop-color="#eee"/></linearGradient><g transform="translate(0 -291.17915)"><path d="m.6731103 293.03133c-.0797314 0-.14388654.0552-.14388654.12373v.40537h.2645914v-.20695c0-.008.001924-.0156.005418-.0225.001757-.003.003894-.007.006395-.01.002476-.003.005324-.006.008438-.009.009391-.008.0214389-.0133.0349946-.0156.004519-.00077.009235-.001.0140335-.001h.19522374v-.26459zm.6497989 0v.26459h.2645914v-.26459zm.5291828 0v.26459h.2645914v-.26459zm-1.32286824.79369v.26459h.2645914v-.26459zm0 .52918v.26459h.2645914v-.26459zm3.43942194.43912v.0901h-.2645026v.26459h.2645026v.26459h-.2645026v.26451h.2645026v.26468h-.2645026v.20695c0 .004-.0005027.008-.00143.0115v.00009c-.0009261.004-.00225.007-.004.0108v.00009c-.00175.003-.00393.007-.0064.01v.00009c-.00249.003-.00532.006-.00844.008-.00627.005-.013711.009-.022027.0124-.00829.003-.017404.005-.027001.005h-.1953012v.26414h.385296c.079731 0 .1438865-.0552.1438865-.12373v-1.5538a1.6763142 1.6763142 0 0 1 -.0000907 0zm-3.43942194.0901v.26459h.2645914v-.26459zm0 .52918v.26451h.2645914v-.26451zm0 .52919v.40537c0 .0685.0641552.12372.14388654.12372h.3852074v-.26459h-.1952238c-.0383892 0-.0692787-.0257-.0692787-.0575v-.20695zm.79368544.2645v.26459h.2645914v-.26459zm.5291828 0v.26459h.2645914v-.26459zm.5291828 0v.26459h.2645915v-.26459zm.5291828 0v.26459h.2645026v-.26459z" fill="#06f"/><path d="m2.4723676 294.03015c-.5580321.10943-1.1594458.16327-1.67858783.21663v1.69493c.79856113-.32161 1.71978793-.76014 2.43052853-1.27891a1.6763142 1.6763142 0 0 1 -.7519407-.63265z" fill="url(#a)" fill-rule="evenodd"/><path d="m2.2079892 293.03133a1.6763142 1.6763142 0 0 0 -.00444.0888 1.6763142 1.6763142 0 0 0 1.6763671 1.67637 1.6763142 1.6763142 0 0 0 .088819-.003v-1.63826c0-.0686-.064155-.12373-.1438868-.12373zm.2916812.26459h1.1351939c.038389 0 .069279.0257.069279.0576v1.14736a1.393161 1.393161 0 0 1 -1.2044727-1.20492z" fill="url(#b)" opacity=".75"/><path d="m2.5041113 293.29592a1.393161 1.393161 0 0 0 1.2000318 1.20083v-1.14327c0-.0319-.03089-.0576-.069279-.0576z" fill="url(#c)" fill-rule="evenodd"/><path d="m4.0143874 291.45v.28369a1.393161 1.393161 0 0 1 .2753384.0551l.1080037-.26077a1.6763142 1.6763142 0 0 0 -.3833421-.0781zm-.2645915.00053a1.6763142 1.6763142 0 0 0 -.3840528.0758l.1086255.26219a1.393161 1.393161 0 0 1 .2754273-.0544zm-.5205674.12577a1.6763142 1.6763142 0 0 0 -.00329.001zm1.4135523.0514-.1089806.26308a1.393161 1.393161 0 0 1 .2330609.15588l.2000197-.20002a1.6763142 1.6763142 0 0 0 -.3241-.21894zm-1.5212007.00044a1.6763142 1.6763142 0 0 0 -.3264982.21627l.2011748.20127a1.393161 1.393161 0 0 1 .2337713-.1557zm-.4368112.3193a1.6763142 1.6763142 0 0 0 -.00995.01zm-.075851.0851a1.6763142 1.6763142 0 0 0 -.2193826.32464l.2632591.10907a1.393161 1.393161 0 0 1 .1564098-.2334zm2.5460814.00027-.2013521.20135a1.393161 1.393161 0 0 1 .1556996.23289l.2619267-.10845a1.6763142 1.6763142 0 0 0 -.2162742-.32579zm-2.8264826.46017a1.6763142 1.6763142 0 0 0 -.012435.0298zm-.038725.10925a1.6763142 1.6763142 0 0 0 -.078072.38405h.2845757a1.393161 1.393161 0 0 1 .055245-.2756zm3.1834458.00044-.2629037.10889a1.393161 1.393161 0 0 1 .054978.27472h.2842205a1.6763142 1.6763142 0 0 0 -.076295-.38361zm-.2067705.6482a1.393161 1.393161 0 0 1 -.054357.27543l.2623709.10863a1.6763142 1.6763142 0 0 0 .074519-.38406zm-.1556991.51977a1.393161 1.393161 0 0 1 -.1556107.23386l.2006417.20064a1.6763142 1.6763142 0 0 0 .2160961-.32632zm-.3427521.421a1.393161 1.393161 0 0 1 -.233416.15668l.1085366.26201a1.6763142 1.6763142 0 0 0 .3248994-.21867zm-.4777568.25802a1.393161 1.393161 0 0 1 -.2758713.0554v.28351a1.6763142 1.6763142 0 0 0 .3842303-.0773zm.1823453.23706-.014745.006a1.6763142 1.6763142 0 0 0 .014745-.006z" fill="#06f"/></g></svg>