<svg height="22" width="22" xmlns="http://www.w3.org/2000/svg" xmlns:xlink="http://www.w3.org/1999/xlink"><linearGradient id="a"><stop offset="0" stop-color="#717174"/><stop offset=".5" stop-color="#9c9ca1"/><stop offset="1" stop-color="#bdbdc2"/></linearGradient><linearGradient id="b" gradientTransform="matrix(0 .06940294 .11152913 0 -45.287814 40.766344)" gradientUnits="userSpaceOnUse" x1="399.77466" x2="399.77466" xlink:href="#a" y1="1164.6696" y2="549.06134"/><linearGradient id="c" gradientTransform="matrix(0 .57141947 .76189347 0 1.524025 42.984938)" gradientUnits="userSpaceOnUse" x1="119.57646" x2="15.999996" y1="23.792561" y2="109.6508"><stop offset="0" stop-color="#fff"/><stop offset=".42597079" stop-color="#fff"/><stop offset=".5892781" stop-color="#e5e5e5"/><stop offset=".80219781" stop-color="#eaeaea"/><stop offset="1" stop-color="#eee"/></linearGradient><linearGradient id="d" gradientTransform="matrix(0 -1.3692663 -1.7142582 0 105.14142 195.38728)" gradientUnits="userSpaceOnUse" x1="102.31124" x2="74.330322" y1="-5.830213" y2="32"><stop offset="0" stop-color="#fff"/><stop offset="1" stop-color="#fff" stop-opacity="0"/></linearGradient><linearGradient id="e" gradientUnits="userSpaceOnUse" x1="66.343185" x2="87.271484" xlink:href="#a" y1="83.166733" y2="60.136719"/><g transform="matrix(.171875 0 0 .171875 -.000187 .00526)"><path d="m14.800781 40.728516c-1.753291 0-3.164062 1.213164-3.164062 2.720703v70.193361c0 1.50754 1.410771 2.7207 3.164062 2.7207h69.306641c1.753291 0 3.164062-1.21316 3.164062-2.7207v-34.167971a36.862114 36.862114 0 0 1 -1.953125.07031 36.862114 36.862114 0 0 1 -36.863281-36.863281 36.862114 36.862114 0 0 1 .09766-1.953125z" fill="url(#b)" opacity=".75"/><path d="m18.978516 46.546875c-.844178 0-1.523438.564277-1.523438 1.265625v61.4668c0 .70135.67926 1.26562 1.523438 1.26562h60.951172c.844177 0 1.523437-.56427 1.523437-1.26562v-29.947269a36.862114 36.862114 0 0 1 -32.751953-32.785156z" fill="url(#c)" fill-rule="evenodd"/><path d="m54.367188 62.693359c-12.271115 2.406503-25.496189 3.590298-36.91211 4.763672v37.271489c17.56034-7.072012 37.818099-16.715349 53.447266-28.123051a36.862114 36.862114 0 0 1 -16.535156-13.91211z" fill="url(#d)" fill-rule="evenodd"/><path d="m48.628906 40.728516a36.862114 36.862114 0 0 0 .396485 7.794922 36.862114 36.862114 0 0 0 38.246093 30.902343v-6.210937a30.63558 30.63558 0 0 1 -5.818359-.19336v.02148a30.63558 30.63558 0 0 1 -1.308594-.234375 30.63558 30.63558 0 0 1 -1.367187-.246094 30.63558 30.63558 0 0 1 -2.001953-.535156 30.63558 30.63558 0 0 1 -.88086-.25 30.63558 30.63558 0 0 1 -2.378906-.900391 30.63558 30.63558 0 0 1 -.40625-.160156 30.63558 30.63558 0 0 1 -2.634766-1.308594 30.63558 30.63558 0 0 1 -.05078-.02734 30.63558 30.63558 0 0 1 -15.457031-22.833984h.08203a30.63558 30.63558 0 0 1 -.164062-5.818359z" fill="url(#e)" opacity=".75"/><path d="m88.275391 5.9550781v6.2382809a30.63558 30.63558 0 0 1 6.054687 1.212891l2.375-5.734375a36.862114 36.862114 0 0 0 -8.429687-1.7167969zm-5.81836.011719a36.862114 36.862114 0 0 0 -8.445312 1.6660156l2.388672 5.7656253a30.63558 30.63558 0 0 1 6.05664-1.197266zm-11.447265 2.765625a36.862114 36.862114 0 0 0 -.07227.029297zm31.083984 1.1308593-2.396484 5.7851566a30.63558 30.63558 0 0 1 5.125004 3.427734l4.39843-4.398438a36.862114 36.862114 0 0 0 -7.12695-4.8144526zm-33.451172.00977a36.862114 36.862114 0 0 0 -7.179687 4.7558596l4.423828 4.425782a30.63558 30.63558 0 0 1 5.140625-3.423829zm-9.605469 7.0214846a36.862114 36.862114 0 0 0 -.21875.21875zm-1.667968 1.871094a36.862114 36.862114 0 0 0 -4.824219 7.138672l5.789062 2.398437a30.63558 30.63558 0 0 1 3.439454-5.132812zm55.988279.0059-4.42773 4.427735a30.63558 30.63558 0 0 1 3.42383 5.121093l5.75976-2.384765a36.862114 36.862114 0 0 0 -4.75586-7.164063zm-62.154295 10.119095a36.862114 36.862114 0 0 0 -.273437.65625zm-.851563 2.402344a36.862114 36.862114 0 0 0 -1.716796 8.445312h6.257812a30.63558 30.63558 0 0 1 1.214844-6.060547zm70.003908.0098-5.78125 2.394532a30.63558 30.63558 0 0 1 1.20898 6.041015h6.25a36.862114 36.862114 0 0 0 -1.67773-8.435547zm-4.54688 14.253907a30.63558 30.63558 0 0 1 -1.19531 6.05664l5.76953 2.388672a36.862114 36.862114 0 0 0 1.63867-8.445312zm-3.42382 11.429687a30.63558 30.63558 0 0 1 -3.42188 5.142578l4.41211 4.41211a36.862114 36.862114 0 0 0 4.75195-7.175782zm-7.53711 9.257813a30.63558 30.63558 0 0 1 -5.132816 3.445312l2.386716 5.761719a36.862114 36.862114 0 0 0 7.14453-4.808594zm-10.505863 5.673828a30.63558 30.63558 0 0 1 -6.066406 1.21875v6.234375a36.862114 36.862114 0 0 0 8.449218-1.699219zm4.009765 5.21289-.324218.134766a36.862114 36.862114 0 0 0 .324218-.134766z" fill="#06f"/></g></svg>