<svg height="22" width="22" xmlns="http://www.w3.org/2000/svg" xmlns:xlink="http://www.w3.org/1999/xlink"><linearGradient id="a"><stop offset="0" stop-color="#717174"/><stop offset=".5" stop-color="#9c9ca1"/><stop offset="1" stop-color="#bdbdc2"/></linearGradient><linearGradient id="b" gradientTransform="matrix(0 .01192863 .01916907 0 -7.78403 7.011975)" gradientUnits="userSpaceOnUse" x1="399.77466" x2="399.77466" xlink:href="#a" y1="1164.6696" y2="549.06134"/><linearGradient id="c" gradientUnits="userSpaceOnUse" x1="66.343185" x2="87.271484" xlink:href="#a" y1="83.166733" y2="60.136719"/><g transform="matrix(.171875 0 0 .171875 -.000187 .00526)"><path d="m2.5429688 7.0058594c-.3013469 0-.5429688.2076886-.5429688.4667968v12.0644528c0 .259109.2416219.46875.5429688.46875h11.9121092c.301347 0 .544922-.209641.544922-.46875v-5.873047a6.3356758 6.3356758 0 0 1 -.335938.013672 6.3356758 6.3356758 0 0 1 -.664062-.037109v5.146484c0 .120545-.116626.21875-.261719.21875h-10.4765622c-.1450931 0-.2617188-.098205-.2617188-.21875v-10.5644528c0-.1205441.1166257-.2167968.2617188-.2167968h5.1074218a6.3356758 6.3356758 0 0 1 -.0410156-.6640625 6.3356758 6.3356758 0 0 1 .0175781-.3359375z" fill="url(#b)" opacity=".75" transform="matrix(5.8181818 0 0 5.8181818 .001089 -.030604)"/><path d="m48.628906 40.728516a36.862114 36.862114 0 0 0 .396485 7.794922 36.862114 36.862114 0 0 0 38.246093 30.902343v-6.210937a30.63558 30.63558 0 0 1 -5.818359-.19336v.02148a30.63558 30.63558 0 0 1 -1.308594-.234375 30.63558 30.63558 0 0 1 -1.367187-.246094 30.63558 30.63558 0 0 1 -2.001953-.535156 30.63558 30.63558 0 0 1 -.88086-.25 30.63558 30.63558 0 0 1 -2.378906-.900391 30.63558 30.63558 0 0 1 -.40625-.160156 30.63558 30.63558 0 0 1 -2.634766-1.308594 30.63558 30.63558 0 0 1 -.05078-.02734 30.63558 30.63558 0 0 1 -15.457031-22.833984h.08203a30.63558 30.63558 0 0 1 -.164062-5.818359z" fill="url(#c)" opacity=".75"/><path d="m88.275391 5.9550781v6.2382809a30.63558 30.63558 0 0 1 6.054687 1.212891l2.375-5.734375a36.862114 36.862114 0 0 0 -8.429687-1.7167969zm-5.81836.011719a36.862114 36.862114 0 0 0 -8.445312 1.6660156l2.388672 5.7656253a30.63558 30.63558 0 0 1 6.05664-1.197266zm-11.447265 2.765625a36.862114 36.862114 0 0 0 -.07227.029297zm31.083984 1.1308593-2.396484 5.7851566a30.63558 30.63558 0 0 1 5.125004 3.427734l4.39843-4.398438a36.862114 36.862114 0 0 0 -7.12695-4.8144526zm-33.451172.00977a36.862114 36.862114 0 0 0 -7.179687 4.7558596l4.423828 4.425782a30.63558 30.63558 0 0 1 5.140625-3.423829zm-9.605469 7.0214846a36.862114 36.862114 0 0 0 -.21875.21875zm-1.667968 1.871094a36.862114 36.862114 0 0 0 -4.824219 7.138672l5.789062 2.398437a30.63558 30.63558 0 0 1 3.439454-5.132812zm55.988279.0059-4.42773 4.427735a30.63558 30.63558 0 0 1 3.42383 5.121093l5.75976-2.384765a36.862114 36.862114 0 0 0 -4.75586-7.164063zm-62.154295 10.119095a36.862114 36.862114 0 0 0 -.273437.65625zm-.851563 2.402344a36.862114 36.862114 0 0 0 -1.716796 8.445312h6.257812a30.63558 30.63558 0 0 1 1.214844-6.060547zm70.003908.0098-5.78125 2.394532a30.63558 30.63558 0 0 1 1.20898 6.041015h6.25a36.862114 36.862114 0 0 0 -1.67773-8.435547zm-4.54688 14.253907a30.63558 30.63558 0 0 1 -1.19531 6.05664l5.76953 2.388672a36.862114 36.862114 0 0 0 1.63867-8.445312zm-3.42382 11.429687a30.63558 30.63558 0 0 1 -3.42188 5.142578l4.41211 4.41211a36.862114 36.862114 0 0 0 4.75195-7.175782zm-7.53711 9.257813a30.63558 30.63558 0 0 1 -5.132816 3.445312l2.386716 5.761719a36.862114 36.862114 0 0 0 7.14453-4.808594zm-10.505863 5.673828a30.63558 30.63558 0 0 1 -6.066406 1.21875v6.234375a36.862114 36.862114 0 0 0 8.449218-1.699219zm4.009765 5.21289-.324218.134766a36.862114 36.862114 0 0 0 .324218-.134766z" fill="#06f"/></g></svg>