<svg height="22" width="22" xmlns="http://www.w3.org/2000/svg" xmlns:xlink="http://www.w3.org/1999/xlink"><linearGradient id="a"><stop offset="0" stop-color="#717174"/><stop offset=".5" stop-color="#9c9ca1"/><stop offset="1" stop-color="#bdbdc2"/></linearGradient><linearGradient id="b"><stop offset="0" stop-color="#fff"/><stop offset=".42597079" stop-color="#fff"/><stop offset=".5892781" stop-color="#e5e5e5"/><stop offset=".80219781" stop-color="#eaeaea"/><stop offset="1" stop-color="#eee"/></linearGradient><linearGradient id="c"><stop offset="0" stop-color="#fff"/><stop offset="1" stop-color="#fff" stop-opacity="0"/></linearGradient><linearGradient id="d" gradientTransform="matrix(0 .06940294 .11152913 0 -45.287814 40.766344)" gradientUnits="userSpaceOnUse" x1="399.77466" x2="399.77466" xlink:href="#a" y1="1164.6696" y2="549.06134"/><linearGradient id="e" gradientTransform="matrix(0 .57141947 .76189347 0 1.524025 42.984938)" gradientUnits="userSpaceOnUse" x1="119.57646" x2="15.999996" xlink:href="#b" y1="23.792561" y2="109.6508"/><linearGradient id="f" gradientTransform="matrix(0 -1.3692663 -1.7142582 0 105.14142 195.38728)" gradientUnits="userSpaceOnUse" x1="102.31124" x2="74.330322" xlink:href="#c" y1="-5.830213" y2="32"/><linearGradient id="g" gradientUnits="userSpaceOnUse" x1="48.45588340423" x2="122.18011215326" y1="42.68201176467" y2="42.68201176467"><stop offset="0" stop-color="#b4b4b6"/><stop offset=".5" stop-color="#9c9ca1"/><stop offset="1" stop-color="#cdcdd1"/></linearGradient><linearGradient id="h" gradientUnits="userSpaceOnUse" x1="65.97598654073" x2="110.57235477232" xlink:href="#b" y1="68.43136286231" y2="18.10895227747"/><linearGradient id="i" gradientUnits="userSpaceOnUse" x1="122.2085517279" x2="81.48185182502" xlink:href="#c" y1="18.10895227747" y2="56.33469628959"/><linearGradient id="j" gradientUnits="userSpaceOnUse" x1="66.343185" x2="87.271484" xlink:href="#a" y1="83.166733" y2="60.136719"/><g transform="matrix(.171875 0 0 .171875 .000155 -.00015)"><path d="m14.800781 40.728516c-1.753291 0-3.164062 1.213164-3.164062 2.720703v70.193361c0 1.50754 1.410771 2.7207 3.164062 2.7207h69.306641c1.753291 0 3.164062-1.21316 3.164062-2.7207v-34.167971a36.862114 36.862114 0 0 1 -1.953125.07031 36.862114 36.862114 0 0 1 -36.863281-36.863281 36.862114 36.862114 0 0 1 .09766-1.953125z" fill="url(#d)" opacity=".75"/><path d="m18.978516 46.546875c-.844178 0-1.523438.564277-1.523438 1.265625v61.4668c0 .70135.67926 1.26562 1.523438 1.26562h60.951172c.844177 0 1.523437-.56427 1.523437-1.26562v-29.947269a36.862114 36.862114 0 0 1 -32.751953-32.785156z" fill="url(#e)" fill-rule="evenodd"/><path d="m54.367188 62.693359c-12.271115 2.406503-25.496189 3.590298-36.91211 4.763672v37.271489c17.56034-7.072012 37.818099-16.715349 53.447266-28.123051a36.862114 36.862114 0 0 1 -16.535156-13.91211z" fill="url(#f)" fill-rule="evenodd"/><path d="m85.318359 5.8203125a36.862114 36.862114 0 0 0 -36.765625 34.9082035h35.554688c1.753291 0 3.164062 1.213164 3.164062 2.720703v36.02539a36.862114 36.862114 0 0 0 34.908206-36.792968 36.862114 36.862114 0 0 0 -36.861331-36.8613285z" fill="url(#g)"/><path d="m85.318359 12.046875a30.63558 30.63558 0 0 0 -30.539062 28.681641h29.328125c1.753291 0 3.164062 1.213164 3.164062 2.720703v29.798828a30.63558 30.63558 0 0 0 28.681636-30.566406 30.63558 30.63558 0 0 0 -30.634761-30.634766z" fill="url(#h)"/><path d="m109.52344 23.927734c-11.746939 6.196773-25.832044 12.883007-39.417971 16.800782h14.001953c1.753291 0 3.164062 1.213164 3.164062 2.720703v19.345703c10.316419-8.029147 20.103896-16.820127 28.359376-24.298828a30.63558 30.63558 0 0 0 -6.10742-14.56836z" fill="url(#i)" fill-rule="evenodd"/><path d="m48.552734 40.728516a36.862114 36.862114 0 0 0 -.09766 1.953125 36.862114 36.862114 0 0 0 36.863281 36.863281 36.862114 36.862114 0 0 0 1.953125-.07031v-36.02539c0-1.507539-1.410771-2.720703-3.164062-2.720703zm6.414063 5.818359h24.962891c.844177 0 1.523437.564277 1.523437 1.265625v25.230469a30.63558 30.63558 0 0 1 -26.486328-26.496094z" fill="url(#j)" opacity=".75"/></g></svg>