<svg height="22" width="22" xmlns="http://www.w3.org/2000/svg" xmlns:xlink="http://www.w3.org/1999/xlink"><linearGradient id="a"><stop offset="0" stop-color="#fff"/><stop offset="1" stop-color="#fff" stop-opacity="0"/></linearGradient><linearGradient id="b"><stop offset="0" stop-color="#0968ef"/><stop offset="1" stop-color="#aecffc"/></linearGradient><linearGradient id="c" gradientUnits="userSpaceOnUse" x1="55.039051" x2="55.039051" xlink:href="#a" y1="-10.85546" y2="85.979202"/><linearGradient id="d" gradientTransform="matrix(.89605873 0 0 1.0138249 8.321173 2.148125)" gradientUnits="userSpaceOnUse" x1="44.492756" x2="44.492756" xlink:href="#b" y1="143.22504" y2="70.334091"/><linearGradient id="e" gradientTransform="matrix(.69612174 0 0 .98928901 21.117143 5.346121)" gradientUnits="userSpaceOnUse" x1="71.754753" x2="63.999992" xlink:href="#b" y1="39.122932" y2="154.62848"/><linearGradient id="f" gradientTransform="matrix(.87271096 0 0 .99978402 8.145597 .188904)" gradientUnits="userSpaceOnUse" x1="66.103683" x2="66.103683" y1="5.944947" y2="99.655617"><stop offset="0" stop-color="#2e2e2e"/><stop offset="1" stop-color="#8f8f8f"/></linearGradient><linearGradient id="g" gradientTransform="matrix(1.3090725 0 0 1 -141.96165 0)" gradientUnits="userSpaceOnUse" x1="63.741604" x2="63.741604" xlink:href="#a" y1="116.41339" y2="128.04443"/><linearGradient id="h" gradientTransform="matrix(1.3072569 0 0 1 -31.227122 .85297)" gradientUnits="userSpaceOnUse" x1="63.741604" x2="63.741604" xlink:href="#a" y1="116.41339" y2="128.04443"/><mask id="i" maskUnits="userSpaceOnUse"><rect fill="url(#g)" height="126.29049" rx="1.543157" ry="1.992351" transform="matrix(-1 0 0 1 5.829874 -5.735076)" width="104.7258" x="-110.5439" y=".0018"/><rect fill="url(#h)" height="126.29049" rx="1.543157" ry="1.992351" transform="matrix(0 1 1 0 5.829874 -5.735076)" width="104.58055" x=".147045" y=".854762"/></mask><g mask="url(#i)" transform="matrix(.171875 0 0 .171875 -1.00201 .98541)"><path d="m31.925 14.49375-.05 139.5375c0 17.80328 13.965353 32.15625 31.34375 32.15625h1.5625c17.378397 0 31.34375-14.35297 31.34375-32.15625v-75.25625h81.1875c17.80328 0 32.125-13.996603 32.125-31.375v-1.53125c0-17.378397-14.32172-31.375-32.125-31.375h-142.25621z" style="stroke-width:5.545452;stroke-linecap:round;stroke-linejoin:round;stroke-dashoffset:1.0878;fill:url(#d);stroke:url(#e)"/><path d="m55.28125 129.4375c0 4.83482 3.883931 8.71875 8.71875 8.71875s8.71875-3.88393 8.71875-8.71875v-74.05h85.75c4.83482 0 8.71875-3.583931 8.71875-8.41875s-3.88393-9.01875-8.71875-9.01875h-103.00625z" style="opacity:.7;fill:#fff;stroke-width:5.818181;stroke-linecap:round;stroke-linejoin:round;stroke-dashoffset:1.0878;stroke:url(#f)"/><path d="m158 48.992351v10.015298c0 1.103762-.88859 1.992351-1.99235 1.992351-22.34159 3.541365-96.703255 12.200888-119.415299 7-1.103762 0-1.992351-.888589-1.992351-1.992351l.320374-48.468525s94.830636-.300249 94.956656-.298524c14.567.202814 28.12297 11.623536 28.12297 31.751751z" fill="url(#c)"/><path d="m55.28125 55.09375v74.34375c0 4.83482 3.883931 8.71875 8.71875 8.71875s8.71875-3.88393 8.71875-8.71875v-74.05h85.75c4.83482 0 8.71875-3.583931 8.71875-8.41875s-3.88393-9.01875-8.71875-9.01875h-103.10625z" style="opacity:.7;fill:#fff;stroke-width:5.818181;stroke-linecap:round;stroke-linejoin:round;stroke-dashoffset:1.0878;stroke:url(#f)"/></g></svg>