<?xml version="1.0" encoding="UTF-8" standalone="no"?>
<svg
   xmlns:dc="http://purl.org/dc/elements/1.1/"
   xmlns:cc="http://creativecommons.org/ns#"
   xmlns:rdf="http://www.w3.org/1999/02/22-rdf-syntax-ns#"
   xmlns:svg="http://www.w3.org/2000/svg"
   xmlns="http://www.w3.org/2000/svg"
   xmlns:sodipodi="http://sodipodi.sourceforge.net/DTD/sodipodi-0.dtd"
   xmlns:inkscape="http://www.inkscape.org/namespaces/inkscape"
   viewBox="0 0 22 22"
   version="1.1"
   id="svg6"
   sodipodi:docname="transform-browse.svg"
   width="22"
   height="22"
   inkscape:version="0.92.5 (2060ec1f9f, 2020-04-08)"
   inkscape:export-filename="/home/rizmut/Dokumen/Rizmut/Github/karasa-jaga-icon-theme/build/Karasa-Jaga/22x22/actions/transform-browse.png"
   inkscape:export-xdpi="96"
   inkscape:export-ydpi="96">
  <metadata
     id="metadata10">
    <rdf:RDF>
      <cc:Work
         rdf:about="">
        <dc:format>image/svg+xml</dc:format>
        <dc:type
           rdf:resource="http://purl.org/dc/dcmitype/StillImage" />
        <dc:title />
      </cc:Work>
    </rdf:RDF>
  </metadata>
  <sodipodi:namedview
     pagecolor="#ffffff"
     bordercolor="#666666"
     borderopacity="1"
     objecttolerance="10"
     gridtolerance="10"
     guidetolerance="10"
     inkscape:pageopacity="0"
     inkscape:pageshadow="2"
     inkscape:window-width="1366"
     inkscape:window-height="700"
     id="namedview8"
     showgrid="true"
     inkscape:zoom="22.627417"
     inkscape:cx="11.628631"
     inkscape:cy="11.471148"
     inkscape:window-x="0"
     inkscape:window-y="0"
     inkscape:window-maximized="1"
     inkscape:current-layer="svg6">
    <inkscape:grid
       type="xygrid"
       id="grid4520" />
  </sodipodi:namedview>
  <defs
     id="defs3051">
    <style
       type="text/css"
       id="current-color-scheme">
      .ColorScheme-Text {
        color:#232629;
      }
      </style>
    <filter
       inkscape:collect="always"
       style="color-interpolation-filters:sRGB"
       id="filter4565"
       x="-0.060660519"
       width="1.121321"
       y="-0.059353713"
       height="1.1187074">
      <feGaussianBlur
         inkscape:collect="always"
         stdDeviation="0.49849956"
         id="feGaussianBlur4567" />
    </filter>
  </defs>
  <path
     style="color:#232629;opacity:0.81000007;fill:#3a3a38;fill-opacity:1;stroke:none;stroke-width:1.28112316;filter:url(#filter4565)"
     d="M 10.570312,-0.00390625 A 1.7444823,1.7444823 0 0 0 10.494141,0 c -0.08107,0.00579974 -0.09085,0.00937905 -0.123047,0.01367188 -0.0161,0.0021464 -0.03204,0.0040131 -0.06641,0.0097656 -0.01719,0.0028762 -0.03568,0.0041781 -0.08789,0.015625 -0.02611,0.0057234 -0.132632,0.0351013 -0.132813,0.03515625 -9e-5,2.747e-5 -0.1776777,0.06442911 -0.177734,0.06445313 0,0 0.028471,0.0676992 0.03125,0.0742187 l 0.546875,-0.20898437 c -0.213788,0.01288836 -0.336735,0.18870711 -0.5351562,0.23632813 0.07587,0.17799317 0.6406252,1.50390622 0.6406252,1.50390622 0,0 -0.8559335,-1.25121983 -0.9394534,-1.37304685 C 9.0605693,0.57382541 8.489149,0.76451947 8.0761719,1.1933594 7.6380999,1.0427251 7.2008995,0.87627573 6.6914062,0.91210938 a 1.7444823,1.7444823 0 0 0 -0.044922,0.003906 c -6.423e-4,5.627e-5 -0.00131,-5.656e-5 -0.00195,0 C 4.3343755,1.1195104 2.5826873,3.305187 2.9941406,5.6328125 L 3.4648438,8.390625 c -1.422592,0.00274 -2.56552407,0.5995697 -3.26367192,1.3398438 -0.69095628,0.7326482 -0.95819226,1.5444772 -0.95898438,1.5468752 -0.3992311,1.14661 0.0388108,2.441496 1.05273438,3.109375 0.80425382,0.528993 1.83774602,1.763596 2.81640622,3.521484 0.5699803,1.023809 1.1586714,2.103773 1.9609375,3.083985 0.812689,0.992945 2.1139037,2.135789 3.9414063,2.154296 a 1.7444823,1.7444823 0 0 0 0.00781,0 c 0.00603,3.1e-5 0.013323,1.1e-5 0.019531,0 l 8.2597654,-0.002 c 1.405029,0.0011 2.598061,-1.130015 2.669922,-2.533203 a 1.7444823,1.7444823 0 0 0 0,-0.002 c 0.01616,-0.32179 0.09307,-1.831695 0.234375,-3.513672 0.138399,-1.64738 0.359806,-3.034325 0.564453,-3.835937 L 22.167969,7.7929688 C 22.841188,5.2630027 20.826633,2.8641722 18.304688,2.7988281 17.733632,1.1059179 16.083046,-0.11322272 14.220703,0.00195313 h -0.002 c -0.680769,0.04199198 -1.256849,0.30958595 -1.759766,0.64453125 -0.26056,-0.1328431 -0.50903,-0.30246285 -0.783203,-0.37109376 l 0.720703,0.375 C 11.891943,0.21223016 11.2383,-0.02227141 10.570312,-0.00390625 Z m 11.597657,7.79687505 0.0039,-0.013672 a 1.7444823,1.7444823 0 0 0 0.05469,-0.4316407 z M 2.9941406,5.6328125 2.9667969,5.3320312 a 1.7444823,1.7444823 0 0 0 0.025391,0.2949219 z m 6.609375,-5.328125 c 0,0 -0.097656,0.0722656 -0.097656,0.0722656 L 9.6230469,0.33203125 C 9.6223297,0.33098516 9.6035156,0.3046875 9.6035156,0.3046875 Z m 4.6933594,2.4023437 0.507813,0.5078126 v 0.7109374 l -3.435547,0.2441407 z m 3.675781,0.027344 c -0.0031,1.778e-4 -0.0047,0.00372 -0.0078,0.00391 -0.0028,1.816e-4 -0.005,-0.00214 -0.0078,-0.00195 z"
     id="path4537" />
  <path
     style="color:#232629;fill:#ffffff;fill-opacity:1;stroke:none;stroke-width:1.28112316"
     d="M 14.082031,0.0078125 C 13.422924,0.04824199 12.896394,0.32991379 12.451172,0.68945312 11.237014,-0.23783698 9.3532927,0.02070676 8.2382812,1.3398438 7.7494895,1.0668455 7.2012482,0.87484032 6.5664062,0.91992188 l 0.070313,-0.003906 h -0.029297 a 0.9934493,0.9934493 0 0 0 -0.085937,0.003906 C 4.6186443,1.0865611 3.1943462,2.8387317 3.5253906,4.7226562 v 0.00195 c 2.372e-4,0.00134 -2.389e-4,0.00256 0,0.00391 l 0.6738282,3.921875 C 3.5034295,8.4292273 2.8387426,8.3194728 2.1816406,8.5078125 0.33332264,9.0373363 -0.2421875,10.808594 -0.2421875,10.808594 l -0.22265625,0.626953 a 0.9934493,0.9934493 0 0 0 0.375,1.152344 l 0.58203125,0.398437 a 0.9934493,0.9934493 0 0 0 0.015625,0.0098 c 0.8729487,0.574182 2.0330535,2.583248 3.3027344,4.550781 0.512744,0.794519 0.7667852,1.880453 1.6972656,2.853516 0.7815571,0.817429 1.8620987,1.602598 3.2792969,1.59375 h 0.011719 c 2.9886929,-0.0015 5.9788659,2.93e-4 8.9687499,0 H 18 a 0.9934493,0.9934493 0 0 0 0.992188,-0.960938 l 0.02734,-0.8125 v -0.01172 c 6.53e-4,-0.0085 0.08483,-1.090711 0.234375,-2.96289 v -0.002 c 0.14889,-1.862689 0.405501,-4.106248 0.615235,-4.927735 L 21.267578,6.8359375 C 21.843064,4.6886368 20.047185,2.5888321 17.820312,2.7441406 17.698735,2.7514123 17.634354,2.8403832 17.519531,2.8613281 17.290047,1.197524 15.836051,-0.10141955 14.083984,0.0078125 Z m 0.179688,2.8925781 a 0.9934493,0.9934493 0 0 0 0.002,0 c 0.14706,-0.00929 0.445571,0.3022642 0.439453,0.3945313 a 0.9934493,0.9934493 0 0 0 -0.002,0.015625 l -0.351563,6.9140621 c -0.0053,0.104318 -0.0052,0.20397 0.01367,0.330079 0.0189,0.126108 -0.07264,0.278836 0.335938,0.654296 0.204289,0.18773 0.736554,0.322384 1.058593,0.19336 0.32204,-0.129025 0.41753,-0.297575 0.484376,-0.400391 0.13369,-0.205632 0.14809,-0.304804 0.177734,-0.419922 h -0.002 l 1.199219,-4.6406248 a 0.9934493,0.9934493 0 0 0 0.0059,-0.015625 c 0.02287,-0.09533 0.236848,-0.285263 0.375,-0.2929687 a 0.9934493,0.9934493 0 0 0 0.01758,-0.00195 c 0.149321,-0.010746 0.453496,0.3720994 0.429687,0.4609375 a 0.9934493,0.9934493 0 0 0 -0.0039,0.011719 l -1.404297,5.4921874 c -0.319804,1.252691 -0.513369,3.123165 -0.654297,4.824219 -0.103255,1.246345 -0.133018,1.937336 -0.167968,2.585937 l -7.324219,0.0039 C 8.5616286,19.006434 8.1996126,18.821729 7.7089844,18.271484 7.2183561,17.72124 6.6825454,16.859293 6.1269531,15.861328 5.2648754,14.312848 4.2601429,12.656218 2.921875,11.398438 c 0.1007622,-0.06535 0.1544987,-0.156382 0.3984375,-0.144532 0.00503,2.45e-4 0.2232508,0.0814 0.7011719,0.574219 0.477921,0.492819 1.142126,1.274196 2.0976562,2.205078 a 0.9934493,0.9934493 0 0 0 1.6640625,-0.5 c 0,0 0.029129,-0.134429 0.080078,-0.335937 a 0.9934493,0.9934493 0 0 0 -0.013672,-0.53711 c -0.010769,-0.03488 -0.016813,-0.07288 -0.017578,-0.0918 A 0.9934493,0.9934493 0 0 0 7.8183594,12.441406 L 6.4179688,4.2441406 a 0.9934493,0.9934493 0 0 0 0,-0.00586 C 6.4012344,4.1440968 6.6274159,3.839474 6.7753906,3.8164062 6.9227189,3.8172301 7.1867497,4.0357619 7.2011719,4.1328125 a 0.9934493,0.9934493 0 0 0 0.00391,0.021484 l 1.0234375,5.9765621 c 0.044409,0.259781 0.1884677,0.568579 0.4765625,0.771485 0.2880948,0.202905 0.6892456,0.249113 0.9980469,0.146484 0.617603,-0.205258 0.843962,-0.816612 0.816406,-1.2851561 L 10.142578,3.3027344 a 0.9934493,0.9934493 0 0 0 -0.002,-0.00781 c -0.0065,-0.098125 0.233259,-0.3812263 0.378906,-0.3925781 a 0.9934493,0.9934493 0 0 0 0.0039,0 c 0.148328,-0.00908 0.433571,0.2612413 0.4375,0.3574218 a 0.9934493,0.9934493 0 0 0 0,0.013672 L 11.3125,9.5625 c 0.01083,0.1944496 0.0425,0.3938121 0.167969,0.623047 0.125472,0.229235 0.42285,0.558152 0.908203,0.582031 0.485353,0.02388 0.846642,-0.303709 0.988281,-0.541016 0.141639,-0.2373061 0.173565,-0.441714 0.183594,-0.6386714 l 0.320312,-6.3183594 a 0.9934493,0.9934493 0 0 0 0,-0.00977 c 0.0041,-0.1002318 0.237878,-0.3507501 0.38086,-0.359375 z"
     id="path4" />
  <path
     sodipodi:nodetypes="cccccccccccccccccscscccccccccc"
     inkscape:connector-curvature="0"
     id="path4533"
     class="ColorScheme-Text"
     d="m 10.463367,1.9082343 v 0.00251 c 0.743774,-0.045536 1.459176,0.5816658 1.488811,1.3071551 L 12.304987,9.5078 c 0.01982,0.355732 0.246371,0.351413 0.262731,0.03011 l 0.320281,-6.3200075 c 0.02739,-0.6684772 0.628208,-1.2683167 1.313656,-1.3096639 0.792965,-0.050091 1.54254,0.6800992 1.491311,1.4526733 l -0.350308,6.9146301 c -0.0105,0.207737 0.05013,0.309987 0.115096,0.0577 l 1.198557,-4.6390192 c 0.136619,-0.5693896 0.686895,-1.0203289 1.286133,-1.0537527 0.885869,-0.063752 1.685685,0.8712577 1.461285,1.7085847 L 17.999996,11.841109 C 17.436501,14.048348 17.177116,19.342523 17.144104,20 l -8.262289,0.0035 v 0 C 7.4723764,19.989227 6.3920989,18.379349 5.2589379,16.343944 4.212097,14.463589 3.0988862,12.397931 1.5788499,11.398136 c 0,0 0.4191925,-1.203002 1.7904315,-1.136389 0.8909363,0.04328 1.6024733,1.266216 3.4433762,3.059632 0,0 0.032795,-0.152149 0.087576,-0.368814 -0.034215,-0.11083 -0.055378,-0.228152 -0.060053,-0.343724 L 5.4389495,4.4121513 C 5.3071829,3.6705424 5.9256755,2.8863719 6.695054,2.8189776 c 0.6992563,-0.04918 1.38836,0.4907095 1.488809,1.1666549 l 1.0234,5.9762835 c 0.04216,0.246626 0.339259,0.182171 0.320282,-0.1405 L 9.149713,3.3609076 C 9.102413,2.6453455 9.72868,1.9516763 10.463367,1.9082343 Z"
     style="color:#232629;fill:#3a3a38;fill-opacity:1;stroke:none;stroke-width:1.28112316" />
</svg>
