<?xml version="1.0" encoding="UTF-8" standalone="no"?>
<svg
   xmlns:dc="http://purl.org/dc/elements/1.1/"
   xmlns:cc="http://creativecommons.org/ns#"
   xmlns:rdf="http://www.w3.org/1999/02/22-rdf-syntax-ns#"
   xmlns:svg="http://www.w3.org/2000/svg"
   xmlns="http://www.w3.org/2000/svg"
   xmlns:xlink="http://www.w3.org/1999/xlink"
   xmlns:sodipodi="http://sodipodi.sourceforge.net/DTD/sodipodi-0.dtd"
   xmlns:inkscape="http://www.inkscape.org/namespaces/inkscape"
   height="22"
   width="22"
   version="1.1"
   id="svg139"
   sodipodi:docname="view-refresh.svg"
   inkscape:version="0.92.5 (2060ec1f9f, 2020-04-08)"
   inkscape:export-filename="/home/rizmut/Dokumen/Rizmut/Github/karasa-jaga-icon-theme/build/Karasa-Jaga/22x22/actions/view-refresh.png"
   inkscape:export-xdpi="96"
   inkscape:export-ydpi="96">
  <metadata
     id="metadata145">
    <rdf:RDF>
      <cc:Work
         rdf:about="">
        <dc:format>image/svg+xml</dc:format>
        <dc:type
           rdf:resource="http://purl.org/dc/dcmitype/StillImage" />
        <dc:title></dc:title>
      </cc:Work>
    </rdf:RDF>
  </metadata>
  <defs
     id="defs143">
    <radialGradient
       inkscape:collect="always"
       xlink:href="#d"
       id="radialGradient973"
       gradientUnits="userSpaceOnUse"
       gradientTransform="matrix(0.26766998,0.52137605,-0.70374718,0.36129769,108.99386,-36.061739)"
       cx="167.67001"
       cy="80.404922"
       r="59.995121" />
  </defs>
  <sodipodi:namedview
     pagecolor="#ffffff"
     bordercolor="#666666"
     borderopacity="1"
     objecttolerance="10"
     gridtolerance="10"
     guidetolerance="10"
     inkscape:pageopacity="0"
     inkscape:pageshadow="2"
     inkscape:window-width="1366"
     inkscape:window-height="703"
     id="namedview141"
     showgrid="true"
     inkscape:zoom="13.906433"
     inkscape:cx="9.5546522"
     inkscape:cy="13.556607"
     inkscape:window-x="0"
     inkscape:window-y="0"
     inkscape:window-maximized="1"
     inkscape:current-layer="svg139">
    <inkscape:grid
       type="xygrid"
       id="grid952" />
  </sodipodi:namedview>
  <linearGradient
     id="a"
     gradientUnits="userSpaceOnUse"
     x1="153.63443"
     x2="155.78662"
     y1="27.418737"
     y2="129.10634">
    <stop
       offset="0"
       stop-color="#00008c"
       id="stop2" />
    <stop
       offset=".3553"
       stop-color="#1c1cac"
       id="stop4" />
    <stop
       offset=".6194"
       stop-color="#080895"
       id="stop6" />
    <stop
       offset=".7574"
       stop-color="#00008c"
       id="stop8" />
    <stop
       offset="1"
       stop-color="#00004d"
       id="stop10" />
  </linearGradient>
  <radialGradient
     id="b"
     cx="3.1750021"
     cy="295.21469"
     gradientTransform="matrix(14.408716,-0.24081133,0.10500436,6.2828376,-12.657689,-1758.4122)"
     gradientUnits="userSpaceOnUse"
     r="2.6427331">
    <stop
       offset="0"
       stop-color="#2c41be"
       id="stop13" />
    <stop
       offset="1"
       stop-color="#2c41be"
       stop-opacity="0"
       id="stop15" />
  </radialGradient>
  <radialGradient
     id="c"
     cx="167.67001"
     cy="80.404922"
     gradientTransform="matrix(0.26766998,0.52137605,-0.70374718,0.36129769,108.99386,-36.061739)"
     gradientUnits="userSpaceOnUse"
     r="59.995121"
     xlink:href="#d" />
  <linearGradient
     id="d">
    <stop
       offset="0"
       id="stop19" />
    <stop
       offset="1"
       stop-opacity="0"
       id="stop21" />
  </linearGradient>
  <radialGradient
     id="e"
     cx="-10.165252"
     cy="66.906013"
     gradientTransform="matrix(0.45828943,0,0,1.0000813,20.447955,-0.004046)"
     gradientUnits="userSpaceOnUse"
     r="59.995121"
     xlink:href="#d" />
  <radialGradient
     id="f"
     cx="46.25367"
     cy="86.72467"
     fx="46.253662"
     gradientTransform="matrix(-2.4e-7,1.1093034,-1.0633726,0,156.30951,-2.404774)"
     gradientUnits="userSpaceOnUse"
     r="59.995121"
     xlink:href="#d" />
  <radialGradient
     id="g"
     cx="64.088867"
     cy="7.4108429"
     gradientTransform="matrix(0.3093869,0,0,0.4779247,44.260611,3.864469)"
     gradientUnits="userSpaceOnUse"
     r="59.995121"
     xlink:href="#n" />
  <filter
     id="h">
    <feGaussianBlur
       stdDeviation=".89883985"
       id="feGaussianBlur27" />
  </filter>
  <radialGradient
     id="i"
     cx="3.227911"
     cy="296.32147"
     gradientTransform="matrix(22.700648,-0.24069714,0.48498074,45.739544,-151.6958,-13432.097)"
     gradientUnits="userSpaceOnUse"
     r="2.4667511">
    <stop
       offset="0"
       stop-color="#5757ff"
       id="stop30" />
    <stop
       offset=".3553"
       stop-color="#223fd1"
       id="stop32" />
    <stop
       offset=".6194"
       stop-color="#0f1af2"
       id="stop34" />
    <stop
       offset=".7574"
       stop-color="#0000cf"
       id="stop36" />
    <stop
       offset="1"
       stop-color="#00008e"
       id="stop38" />
  </radialGradient>
  <linearGradient
     id="j"
     gradientUnits="userSpaceOnUse"
     x1="71.59375"
     x2="71.59375"
     y1="130.4063"
     y2="63.426826">
    <stop
       offset="0"
       stop-color="#80a6ff"
       id="stop41" />
    <stop
       offset="1"
       stop-color="#80a0ff"
       stop-opacity="0"
       id="stop43" />
  </linearGradient>
  <filter
     id="k">
    <feGaussianBlur
       stdDeviation=".565"
       id="feGaussianBlur46" />
  </filter>
  <linearGradient
     id="l"
     gradientUnits="userSpaceOnUse"
     x1="73.891655"
     x2="71.665802"
     y1="-5.613996"
     y2="69.168411">
    <stop
       offset="0"
       stop-color="#bfbfff"
       id="stop49" />
    <stop
       offset="1"
       stop-color="#bfbfff"
       stop-opacity="0"
       id="stop51" />
  </linearGradient>
  <radialGradient
     id="m"
     cx="3.6786859"
     cy="293.48566"
     gradientTransform="matrix(13.243284,-2.8514709,2.8704841,13.331591,-803.73795,-3842.2947)"
     gradientUnits="userSpaceOnUse"
     r="2.4667511">
    <stop
       offset="0"
       stop-color="#00f"
       id="stop54" />
    <stop
       offset="1"
       stop-color="#00004d"
       stop-opacity="0"
       id="stop56" />
  </radialGradient>
  <linearGradient
     id="n">
    <stop
       offset="0"
       stop-color="#fff"
       id="stop59" />
    <stop
       offset="1"
       stop-color="#fff"
       stop-opacity="0"
       id="stop61" />
  </linearGradient>
  <linearGradient
     id="o"
     gradientUnits="userSpaceOnUse"
     x1="75.097969"
     x2="75.097969"
     xlink:href="#n"
     y1="4.5336752"
     y2="80.174454" />
  <linearGradient
     id="p"
     gradientUnits="userSpaceOnUse"
     spreadMethod="reflect"
     x1="120.0625"
     x2="125.30366"
     xlink:href="#n"
     y1="12.569496"
     y2="14.444496" />
  <filter
     id="q"
     height="1.274647"
     width="1.301924"
     x="-0.150962"
     y="-0.13732401">
    <feGaussianBlur
       stdDeviation=".39257441"
       id="feGaussianBlur66" />
  </filter>
  <linearGradient
     id="r"
     gradientUnits="userSpaceOnUse"
     spreadMethod="reflect"
     x1="120.0625"
     x2="125.30366"
     y1="12.569496"
     y2="14.444496">
    <stop
       offset="0"
       stop-color="#637cff"
       id="stop69" />
    <stop
       offset="1"
       stop-color="#fff"
       stop-opacity="0"
       id="stop71" />
  </linearGradient>
  <filter
     id="s">
    <feGaussianBlur
       stdDeviation="1.3342697"
       id="feGaussianBlur74" />
  </filter>
  <radialGradient
     id="t"
     cx="-112.17241"
     cy="118.60459"
     fx="-113.14772"
     fy="59.708473"
     gradientTransform="matrix(0.6484284,0.1017206,-0.03125715,0.1992521,-4.56257,53.15916)"
     gradientUnits="userSpaceOnUse"
     r="59.995121">
    <stop
       offset="0"
       stop-color="#fff"
       stop-opacity="0"
       id="stop77" />
    <stop
       offset=".5"
       stop-color="#fff"
       stop-opacity=".18705"
       id="stop79" />
    <stop
       offset="1"
       stop-color="#fff"
       id="stop81" />
  </radialGradient>
  <linearGradient
     id="u"
     gradientUnits="userSpaceOnUse"
     x1="-151.43935"
     x2="-152.26776"
     xlink:href="#d"
     y1="37.68198"
     y2="57.25" />
  <linearGradient
     id="v"
     gradientUnits="userSpaceOnUse"
     x1="-132.51041"
     x2="-158.92462"
     xlink:href="#d"
     y1="39.803303"
     y2="72.881729" />
  <linearGradient
     id="w"
     gradientUnits="userSpaceOnUse"
     x1="-83.012932"
     x2="-158.92462"
     xlink:href="#d"
     y1="44.753052"
     y2="72.881729" />
  <mask
     id="x"
     maskUnits="userSpaceOnUse">
    <g
       transform="translate(248.01637,30.885255)"
       id="g95">
      <path
         d="m -184.42232,-32.47243 c -33.12519,0 -64,32.374805 -64,65.5 0,33.12519 31.37481,64 64.5,64 30.28912,0 55.33661,-26.21626 59.40625,-55.34375 l -35.03125,-5.03125 c -1.62468,11.96113 -11.93007,20.96875 -24.375,20.96875 -13.57163,0 -22.09375,-11.52212 -22.09375,-25.09375 0,-13.571634 6.02212,-20.09375 19.59375,-20.09375 6.78582,-1e-6 9.92129,-2.234956 14.375,2.21875 l -4.82718,11.327179 c -2.05587,2.05587 -2.24372,3.30578 -1.67961,4.615529 0.50857,1.180779 1.52073,2.526042 4.20973,2.526042 h 43.95331 c 3.84589,0 6.45899,-2.654379 6.45899,-6.250131 l -0.0689,-44.078018 c 0,-2.480755 -0.90251,-3.843229 -2.18147,-4.349615 -1.31432,-0.520385 -3.03321,-0.122678 -5.10709,1.9512 l -10.19531,0.195314 c -10.85935,-10.859351 -26.3749,-13.0625 -42.9375,-13.0625 z"
         id="path87"
         inkscape:connector-curvature="0"
         style="fill:url(#t)" />
      <path
         d="M -161.5,34.5 C -162,37 -180,54 -180,54 l 47.5,26 20.5,-41.5 z"
         id="path89"
         inkscape:connector-curvature="0"
         style="fill:url(#u);fill-rule:evenodd;filter:url(#s)" />
      <path
         d="m -161.5,34.5 c -0.5,2.5 -19.77817,19.889087 -19.77817,19.889087 L -151.62742,97.591883 -112,38.5 Z"
         id="path91"
         inkscape:connector-curvature="0"
         style="fill:url(#v);fill-rule:evenodd;filter:url(#s)" />
      <path
         d="m -161.5,34.5 c -0.5,2.5 -19.77817,19.889087 -19.77817,19.889087 L -151.62742,97.591883 -112,38.5 Z"
         id="path93"
         inkscape:connector-curvature="0"
         style="fill:url(#w);fill-rule:evenodd;filter:url(#s)" />
    </g>
  </mask>
  <linearGradient
     id="y"
     gradientTransform="matrix(0.6748702,0,0,0.6748171,1.300519,1.351541)"
     gradientUnits="userSpaceOnUse"
     x1="83.892097"
     x2="89.540657"
     y1="78.769623"
     y2="72.037933">
    <stop
       offset="0"
       stop-color="#00004d"
       id="stop98" />
    <stop
       offset="1"
       stop-color="#00004d"
       stop-opacity="0"
       id="stop100" />
  </linearGradient>
  <g
     mask="url(#x)"
     transform="matrix(0.1664849,0,0,0.1664849,0.33017,0.335601)"
     id="g137">
    <path
       d="m 64.09375,3.9072779 c -33.125192,0 -59.9999998,26.8747641 -59.9999998,60.0000501 0,33.125062 26.8748088,60.000052 59.9999998,60.000052 30.289114,0 55.33661,-22.21633 59.40625,-51.34381 L 88.468748,67.532369 C 86.84406,79.493334 76.538675,88.501004 64.09375,88.501004 50.522122,88.501004 39.5,77.478995 39.5,63.907328 c 2e-6,-13.571664 11.02212,-24.593902 24.59375,-24.593902 6.785817,0 12.921292,2.765094 17.375,7.218758 L 71.141573,56.859516 c -2.055862,2.056795 -2.243723,3.305627 -1.679606,4.615529 0.508575,1.1805 1.520738,2.526043 4.209727,2.526043 H 117.625 c 3.8459,0 6.45899,-2.654537 6.45899,-6.250294 l -0.0688,-44.077829 c 0,-2.480866 -0.90252,-3.843209 -2.18147,-4.349689 -1.31433,-0.5198742 -3.03321,-0.1135094 -5.10709,1.950095 L 106.53138,21.468578 C 95.672014,10.60934 80.656466,3.9061428 64.093864,3.9061428 Z"
       id="path103"
       inkscape:connector-curvature="0"
       style="fill:url(#a)" />
    <path
       d="M 63.593751,7.9063005 C 32.632051,7.9063004 7.5937509,32.944599 7.5937509,63.9063 c 0,30.961698 25.0383001,56 56.0000001,56 26.9329,0 49.121729,-18.80675 54.531249,-44 l -27.124999,-3.875 c -3.43856,11.897301 -14.44038,20.46875 -27.40625,20.46875 -15.73735,-10e-7 -28.59375,-12.856401 -28.59375,-28.59375 0,-15.737351 12.8564,-28.59375 28.59375,-28.59375 7.87242,-1e-6 15.05155,3.207804 20.21875,8.375 0.75946,0.751409 1.1875,1.775386 1.1875,2.84375 0,1.068364 -0.42804,2.092341 -1.1875,2.84375 l -10.625,10.625 H 117.125 c 2.00539,0 2.46875,-0.592164 2.46875,-2.25 l -0.0937,-44.093749 -10.625,10.656249 c -0.75141,0.759464 -1.77539,1.1875 -2.84375,1.1875 -1.06836,0 -2.09234,-0.428036 -2.84375,-1.1875 C 93.049841,14.174884 79.077111,7.9063005 63.593751,7.9063005 Z"
       style="fill:none;stroke:url(#j);stroke-width:1.50163805;stroke-linecap:round;stroke-linejoin:round;stroke-dashoffset:1.08780003;filter:url(#k)"
       id="path105"
       inkscape:connector-curvature="0" />
    <path
       d="m 64.093752,7.9062233 c -30.961699,0 -56.0000018,25.0384067 -56.0000018,55.9999717 0,30.961795 25.0383048,55.999965 56.0000018,55.999965 26.932895,0 49.121728,-18.80672 54.531248,-43.999956 L 91.499999,72.031216 C 88.061435,83.928614 77.059621,92.49995 64.093752,92.49995 c -15.737346,0 -28.59375,-12.856326 -28.59375,-28.593755 0,-15.737427 12.856402,-28.593754 28.59375,-28.593754 7.872416,0 15.051553,3.207782 20.218749,8.374966 0.759468,0.751434 1.187495,1.775291 1.187495,2.843871 0,1.06926 -0.428027,2.093117 -1.187495,2.843643 l -10.625,10.624954 H 117.625 c 2.0054,0 2.46875,-0.592522 2.46875,-2.24976 L 119.99999,13.656394 109.375,24.312677 c -0.75142,0.760515 -1.77541,1.187311 -2.84376,1.187311 -1.06835,0 -2.09234,-0.429066 -2.84375,-1.187311 C 93.549831,14.175133 79.577098,7.9064503 64.093743,7.9064503 Z"
       id="path107"
       inkscape:connector-curvature="0"
       style="fill:url(#i)" />
    <path
       d="m 64.09375,4.206297 c -33.125192,-1e-7 -60.0000002,26.574805 -60.0000001,59.7 1e-7,33.125192 26.8748101,59.999993 60.0000001,59.999993 30.289116,0 55.33661,-22.21626 59.40625,-51.343743 L 88.46875,67.531297 C 86.844066,79.492426 76.538676,88.500047 64.09375,88.500047 50.522122,88.500046 39.5,77.477928 39.5,63.906297 c 10e-7,-13.571634 11.022119,-24.59375 24.59375,-24.59375 6.785818,-1e-6 12.921294,2.765044 17.375,7.21875 L 71.141571,56.858476 c -2.05587,2.05587 -2.243725,3.30578 -1.679608,4.615529 0.508568,1.180779 1.520732,2.526042 4.209725,2.526042 H 117.625 c 3.84589,0 6.45899,-2.654379 6.45899,-6.250131 l -0.0689,-44.078018 c 0,-2.480755 -0.90251,-3.8432292 -2.18147,-4.3496147 -1.31432,-0.5203849 -3.03321,-0.1226787 -5.10709,1.9511997 L 106.53125,21.468797 C 95.671902,10.609446 80.656349,4.206297 64.09375,4.206297 Z"
       id="path109"
       inkscape:connector-curvature="0"
       style="opacity:0.74531801;fill:url(#g);filter:url(#h)" />
    <path
       d="m 64.09375,3.9072779 c -33.125192,0 -59.9999998,26.8747641 -59.9999998,60.0000501 0,33.125062 26.8748088,60.000052 59.9999998,60.000052 30.289114,0 55.33661,-22.21633 59.40625,-51.34381 L 88.468748,67.532369 C 86.84406,79.493334 76.538675,88.501004 64.09375,88.501004 50.522122,88.501004 39.5,77.478995 39.5,63.907328 c 2e-6,-13.571664 11.02212,-24.593902 24.59375,-24.593902 6.785817,0 12.921292,2.765094 17.375,7.218758 L 71.141573,56.859516 c -2.055862,2.056795 -2.243723,3.305627 -1.679606,4.615529 0.508575,1.1805 1.520738,2.526043 4.209727,2.526043 H 117.625 c 3.8459,0 6.45899,-2.654537 6.45899,-6.250294 l -0.0688,-44.077829 c 0,-2.480866 -0.90252,-3.843209 -2.18147,-4.349689 -1.31433,-0.5198742 -3.03321,-0.1135094 -5.10709,1.950095 L 106.53138,21.468578 C 95.672014,10.60934 80.656466,3.9061428 64.093864,3.9061428 Z"
       id="path111"
       inkscape:connector-curvature="0"
       style="opacity:0.79775295;fill:url(#f)" />
    <path
       d="m 64.09375,3.9072779 c -33.125192,0 -59.9999998,26.8747641 -59.9999998,60.0000501 0,33.125062 26.8748088,60.000052 59.9999998,60.000052 30.289114,0 55.33661,-22.21633 59.40625,-51.34381 L 88.468748,67.532369 C 86.84406,79.493334 76.538675,88.501004 64.09375,88.501004 50.522122,88.501004 39.5,77.478995 39.5,63.907328 c 2e-6,-13.571664 11.02212,-24.593902 24.59375,-24.593902 6.785817,0 12.921292,2.765094 17.375,7.218758 L 71.141573,56.859516 c -2.055862,2.056795 -2.243723,3.305627 -1.679606,4.615529 0.508575,1.1805 1.520738,2.526043 4.209727,2.526043 H 117.625 c 3.8459,0 6.45899,-2.654537 6.45899,-6.250294 l -0.0688,-44.077829 c 0,-2.480866 -0.90252,-3.843209 -2.18147,-4.349689 -1.31433,-0.5198742 -3.03321,-0.1135094 -5.10709,1.950095 L 106.53138,21.468578 C 95.672014,10.60934 80.656466,3.9061428 64.093864,3.9061428 Z"
       id="path113"
       inkscape:connector-curvature="0"
       style="fill:url(#e)" />
    <path
       d="m 64.09375,3.9072779 c -33.125192,0 -59.9999998,26.8747641 -59.9999998,60.0000501 0,33.125062 26.8748088,60.000052 59.9999998,60.000052 30.289114,0 55.33661,-22.21633 59.40625,-51.34381 L 88.468748,67.532369 C 86.84406,79.493334 76.538675,88.501004 64.09375,88.501004 50.522122,88.501004 39.5,77.478995 39.5,63.907328 c 2e-6,-13.571664 11.02212,-24.593902 24.59375,-24.593902 6.785817,0 12.921292,2.765094 17.375,7.218758 L 71.141573,56.859516 c -2.055862,2.056795 -2.243723,3.305627 -1.679606,4.615529 0.508575,1.1805 1.520738,2.526043 4.209727,2.526043 H 117.625 c 3.8459,0 6.45899,-2.654537 6.45899,-6.250294 l -0.0688,-44.077829 c 0,-2.480866 -0.90252,-3.843209 -2.18147,-4.349689 -1.31433,-0.5198742 -3.03321,-0.1135094 -5.10709,1.950095 L 106.53138,21.468578 C 95.672014,10.60934 80.656466,3.9061428 64.093864,3.9061428 Z"
       id="path115"
       inkscape:connector-curvature="0"
       style="opacity:0.68913903;fill:url(#radialGradient973)" />
    <path
       d="m 64.09375,3.9072779 c -33.125192,0 -59.9999998,26.8747641 -59.9999998,60.0000501 0,33.125062 26.8748088,60.000052 59.9999998,60.000052 30.289114,0 55.33661,-22.21633 59.40625,-51.34381 L 88.468748,67.532369 C 86.84406,79.493334 76.538675,88.501004 64.09375,88.501004 50.522122,88.501004 39.5,77.478995 39.5,63.907328 c 2e-6,-13.571664 11.02212,-24.593902 24.59375,-24.593902 6.785817,0 12.921292,2.765094 17.375,7.218758 L 71.141573,56.859516 c -2.055862,2.056795 -2.243723,3.305627 -1.679606,4.615529 0.508575,1.1805 1.520738,2.526043 4.209727,2.526043 H 117.625 c 3.8459,0 6.45899,-2.654537 6.45899,-6.250294 l -0.0688,-44.077829 c 0,-2.480866 -0.90252,-3.843209 -2.18147,-4.349689 -1.31433,-0.5198742 -3.03321,-0.1135094 -5.10709,1.950095 L 106.53138,21.468578 C 95.672014,10.60934 80.656466,3.9061428 64.093864,3.9061428 Z"
       id="path117"
       inkscape:connector-curvature="0"
       style="opacity:0.68913903;fill:url(#c)" />
    <path
       d="m 64.09375,3.9072779 c -33.125192,0 -59.9999998,26.8747641 -59.9999998,60.0000501 0,33.125062 26.8748088,60.000052 59.9999998,60.000052 30.289114,0 55.33661,-22.21633 59.40625,-51.34381 L 88.468748,67.532369 C 86.84406,79.493334 76.538675,88.501004 64.09375,88.501004 50.522122,88.501004 39.5,77.478995 39.5,63.907328 c 2e-6,-13.571664 11.02212,-24.593902 24.59375,-24.593902 6.785817,0 12.921292,2.765094 17.375,7.218758 L 71.141573,56.859516 c -2.055862,2.056795 -2.243723,3.305627 -1.679606,4.615529 0.508575,1.1805 1.520738,2.526043 4.209727,2.526043 H 117.625 c 3.8459,0 6.45899,-2.654537 6.45899,-6.250294 l -0.0688,-44.077829 c 0,-2.480866 -0.90252,-3.843209 -2.18147,-4.349689 -1.31433,-0.5198742 -3.03321,-0.1135094 -5.10709,1.950095 L 106.53138,21.468578 C 95.672014,10.60934 80.656466,3.9061428 64.093864,3.9061428 Z"
       id="path119"
       inkscape:connector-curvature="0"
       style="opacity:0.79775295;fill:url(#b)" />
    <g
       transform="matrix(1.5016377,0,0,1.5016377,-2.05358,-2.025035)"
       id="g125"
       style="fill:none;stroke-width:4;stroke-linecap:round;stroke-linejoin:round;stroke-dashoffset:1.08780003">
      <path
         d="M 27.823102,46.501022 C 27.739902,45.826486 27.776915,45.12681 27.697235,44.434395 26.266341,32 35.096306,25.338111 44.206846,25.338111 48.76212,25.338112 55.313338,28 55.870562,32.709447 l -5.43066,4.48014 c -1.380091,1.387337 -1.51149,2.2161 -1.132807,3.099941 0.3414,0.796809 1.026918,1.708131 2.832018,1.708131 h 25.502884 c 2.58172,1e-6 4.342427,-1.791132 4.342427,-4.217607 l -0.04196,-24.734128 c 0,-1.674056 -0.609897,-2.589519 -1.468454,-2.931237 -0.882293,-0.3511643 -2.048195,-0.09203 -3.440377,1.307458 l -4.338797,4.3747 c -7.2898,-7.328076 -17.369633,-9.6405951 -28.48799,-9.6405951 -22.236713,0 -38.2775775,15.9246981 -38.2775775,38.2781451 0,0.691495 0.028812,1.383615 0.062934,2.066627"
         id="path121"
         inkscape:connector-curvature="0"
         style="opacity:0.7;stroke:#00004d" />
      <path
         d="M 6.0632692,46.501022 C 7.1377705,67.897182 22.82856,81.92342 44.492211,81.92342 c 20.441224,0 35.345028,-11.991913 38.091507,-31.64764 L 60.942171,46.880607 c -1.096448,8.071575 -8.051248,14.15007 -16.44996,14.15007 -8.46205,0 -15.455617,-6.340803 -16.471051,-14.529655"
         id="path123"
         inkscape:connector-curvature="0"
         style="opacity:0.7;stroke:url(#y)" />
    </g>
    <path
       d="m 117.6875,10.75 0.9375,4.375 1.25,0.875 4,-2.625 c 0.24688,-1.723751 -0.35117,-3.347429 -1.9375,-4.0000001 -1.58634,-0.6525714 -3.16128,0.1267033 -4.25,1.3750001 z"
       id="path127"
       inkscape:connector-curvature="0"
       style="opacity:0.82022502;fill:url(#p);fill-rule:evenodd;filter:url(#q)" />
    <path
       d="m 117.6875,10.75 2.1875,3.125 0.5,-0.125 3.5,-0.375 c 0.24688,-1.723751 -0.35117,-3.347429 -1.9375,-4.0000001 -1.58634,-0.6525714 -3.16128,0.1267033 -4.25,1.3750001 z"
       transform="matrix(0,1,1,0,60.363582,-60.363586)"
       id="path129"
       inkscape:connector-curvature="0"
       style="opacity:0.82022502;fill:url(#r);fill-rule:evenodd;filter:url(#q)" />
    <path
       d="m 64.099866,7.9087646 c -30.96169,-2e-7 -55.9999999,25.0382984 -55.9999999,55.9999994 10e-6,0.178712 -0.00249,0.354295 0,0.53125 C 8.3531061,33.696509 33.295846,8.9087645 64.099866,8.9087646 c 15.48337,-10e-8 29.45608,6.2685824 39.593744,16.4062494 0.75142,0.759465 1.77539,1.1875 2.84375,1.1875 1.06837,10e-7 2.09234,-0.428036 2.84375,-1.1875 l 10.125,-10.15625 0.49375,37.55 c -6.90754,2.75053 -14.56555,3.86086 -22.493744,5.8875 l -18.65625,0.40625 h 19.15625 c 7.928194,-2.02663 15.186204,-3.43697 22.093744,-6.1875 l -0.0937,-38.15625 v -1 l -0.5,0.5 -10.125,10.15625 c -0.7514,0.759465 -1.77539,1.1875 -2.84375,1.1875 -1.06835,10e-7 -2.09234,-0.428036 -2.84375,-1.1875 -0.0105,-0.01047 -0.0208,-0.02079 -0.0312,-0.03125 -0.0524,-0.05229 -0.10367,-0.104166 -0.15625,-0.15625 -0.5738,-0.567871 -1.15087,-1.11515 -1.75,-1.65625 -0.0815,-0.07412 -0.16804,-0.145107 -0.25,-0.21875 C 91.590066,13.342335 78.496526,7.9087646 64.099866,7.9087646 Z m -0.65625,19.2187494 c -9.23817,0.25052 -18.40344,3.79268 -25.59375,10.6875 -7.63208,7.318434 -11.12755,17.372917 -11.3125,27.21875 0.23988,-9.80188 4.18042,-19.494066 11.8125,-26.8125 13.31613,-12.7689 33.45333,-14.098057 48.15625,-4.1875 -6.87906,-4.805074 -14.98746,-7.12523 -23.0625,-6.90625 z"
       id="path131"
       inkscape:connector-curvature="0"
       style="fill:url(#o)" />
    <path
       d="m 64.093752,7.9062233 c -30.961699,0 -56.0000018,25.0384067 -56.0000018,55.9999717 0,30.961795 25.0383048,55.999965 56.0000018,55.999965 26.932895,0 49.121728,-18.80672 54.531248,-43.999956 L 91.499999,72.031216 C 88.061435,83.928614 77.059621,92.49995 64.093752,92.49995 c -15.737346,0 -28.59375,-12.856326 -28.59375,-28.593755 0,-15.737427 12.856402,-28.593754 28.59375,-28.593754 7.872416,0 15.051553,3.207782 20.218749,8.374966 0.759468,0.751434 1.187495,1.775291 1.187495,2.843872 0,1.069259 -0.428027,2.093116 -1.187495,2.843642 l -10.625,10.624954 H 117.625 c 2.0054,0 2.46875,-0.592522 2.46875,-2.24976 l -0.0938,-44.093721 -10.62499,10.656283 c -0.75142,0.760515 -1.77541,1.187311 -2.84376,1.187311 -1.06835,0 -2.09234,-0.429066 -2.84375,-1.187311 C 93.549831,14.175133 79.577098,7.9064503 64.093743,7.9064503 Z"
       id="path133"
       inkscape:connector-curvature="0"
       style="fill:url(#m)" />
    <path
       d="m 64.093752,7.9069044 c -30.961699,0 -56.0000018,25.0384066 -56.0000018,55.9999726 0,0.567548 0.014522,1.123745 0.031261,1.686753 5.9894708,0.678787 12.1412198,1.150987 18.4062518,1.407519 -0.270699,-10.459003 3.671608,-20.974989 11.8125,-28.781273 15.339316,-14.709031 39.728562,-14.214356 54.4375,1.123745 2.763848,2.882463 4.756599,5.688422 6.562499,9.250126 L 78.843764,59.000083 h 19.156248 c 7.928198,-2.027282 15.186208,-3.437072 22.093738,-6.187637 L 120,13.656167 109.37501,24.31245 c -0.75142,0.760515 -1.77541,1.187311 -2.84376,1.187311 -1.06835,0 -2.09234,-0.429066 -2.84374,-1.187311 C 93.549837,14.174906 79.57711,7.9062233 64.093755,7.9062233 Z"
       id="path135"
       inkscape:connector-curvature="0"
       style="opacity:0.83333303;fill:url(#l)" />
  </g>
</svg>
