<svg enable-background="new 0 0 128 128" height="22" viewBox="0 0 22 22" width="22" xmlns="http://www.w3.org/2000/svg" xmlns:xlink="http://www.w3.org/1999/xlink"><radialGradient id="a" cx="125.31705" cy="135.15717" gradientTransform="matrix(.89127886 0 0 .9510679 9.430079 5.015933)" gradientUnits="userSpaceOnUse" r="139.55859"><stop offset="0" stop-color="#c3c5c6"/><stop offset=".11366145" stop-color="#e5e5e5"/><stop offset=".20296688" stop-color="#ececec"/><stop offset=".2363" stop-color="#fafafa"/><stop offset=".2722" stop-color="#fff"/><stop offset=".5313" stop-color="#fafafa"/><stop offset=".8449" stop-color="#ebecec"/><stop offset="1" stop-color="#e1e2e3"/></radialGradient><radialGradient id="b" cx="136.512182" cy="139.377682" gradientUnits="userSpaceOnUse" r="135.187556"><stop offset="0" stop-color="#3e3e3e"/><stop offset=".0151" stop-color="#505050"/><stop offset=".0558" stop-color="#7e7e7e"/><stop offset=".1357" stop-color="#c6c6c6"/><stop offset=".20990001" stop-color="#f1f1f1"/><stop offset=".24349999" stop-color="#fcfcfc"/><stop offset=".2722" stop-color="#fff"/></radialGradient><filter id="c"><feGaussianBlur stdDeviation="1.0394514"/></filter><filter id="d"><feGaussianBlur stdDeviation=".50063244"/></filter><filter id="e"><feGaussianBlur stdDeviation="1.07595"/></filter><g transform="matrix(.171875 0 0 .171875 .000309 -.000309)"><path d="m23 9 .04082 113.99347 95.37318.0763c.375-.375.586-.884.586-1.414v-112.65577z" filter="url(#c)" opacity=".306849" transform="matrix(1.0090419 0 0 1.003276 -7.594968 .671237)"/><path d="m23 9.9655172.04082 113.0279528 95.37318.0763c.375-.375.586-.884.586-1.414v-111.6902328h-95.999996z" filter="url(#c)" opacity=".306849" transform="matrix(1.0090419 0 0 1.003276 -7.594968 .671237)"/><path d="m23 8.9687825.04082 114.0246875 95.37318.0763c.375-.375.586-.884.586-1.414v-112.6869675h-95.999996z" filter="url(#c)" opacity=".553425" transform="matrix(1.0090419 0 0 1.003276 -7.594968 .671237)"/><path d="m24.919999 10.931136v109.932054l91.574001-.0578c.375-.375.586-.884.586-1.414v-108.460224h-92.160001z" filter="url(#d)" opacity=".89589" transform="matrix(1.0090419 0 0 1.003276 -7.594968 .671237)"/><path d="m17.550358 11.638184-.09761 110.545436h93.090905v-1.59047-108.954986h-92.993295z" fill="url(#b)"/><path d="m23.290262 17.25362c-.491095 0-.891279.42703-.891279.951069l.302639 96.737241c0 .525.400185.95108.891279.95108l80.935609.19967c.16667-.17785.26114-.42227.26114-.6724v-97.893668c0-.524039-.39929-.951068-.89127-.951068z" fill="url(#a)"/><g fill-rule="evenodd"><g fill="#258aff"><path d="m34.926462 17.186502v98.907698h2.891775v-98.907698z" fill-opacity=".454902"/><path d="m64.016962 17.186502v98.907698h2.891775v-98.907698z" fill-opacity=".454902"/><path d="m93.107462 17.186502v98.907698h2.891775v-98.907698z" fill-opacity=".454902"/><path d="m23.290263 25.896377h81.453397v-2.891775h-81.453398z" fill-opacity=".454902"/><path d="m23.290263 54.986877h81.453397v-2.891775h-81.453398z" fill-opacity=".454902"/><path d="m23.290263 84.077377h81.453397v-2.891775h-81.453398z" fill-opacity=".454902"/><path d="m23.290263 113.16788h81.453397v-2.89178h-81.453398z" fill-opacity=".454902"/></g><g fill="#fff" filter="url(#e)" stroke="#fff" stroke-width="4" transform="translate(.017862 -.269599)"><path d="m34.9086 29.0923h5.8181v-5.8181h-5.8181z"/><path d="m63.9991 29.0923h5.8181v-5.8181h-5.8181z"/><path d="m93.0896 29.0923h5.8181v-5.8181h-5.8181z"/><path d="m34.9086 58.1828h5.8181v-5.8181h-5.8181z"/><path d="m63.9991 58.1828h5.8181v-5.8181h-5.8181z"/><path d="m93.0896 58.1828h5.8181v-5.8181h-5.8181z"/><path d="m34.9086 87.2733h5.8181v-5.8181h-5.8181z"/><path d="m63.9991 87.2733h5.8181v-5.8181h-5.8181z"/><path d="m93.0896 87.2733h5.8181v-5.8181h-5.8181z"/><path d="m34.9086 116.3638h5.8181v-5.8181h-5.8181z"/><path d="m63.9991 116.3638h5.8181v-5.8181h-5.8181z"/><path d="m93.0896 116.3638h5.8181v-5.8181h-5.8181z"/></g><g fill="#258aff" transform="translate(.017862 -.269599)"><path d="m34.9086 29.0923h5.8181v-5.8181h-5.8181z"/><path d="m63.9991 29.0923h5.8181v-5.8181h-5.8181z"/><path d="m93.0896 29.0923h5.8181v-5.8181h-5.8181z"/><path d="m34.9086 58.1828h5.8181v-5.8181h-5.8181z"/><path d="m63.9991 58.1828h5.8181v-5.8181h-5.8181z"/><path d="m93.0896 58.1828h5.8181v-5.8181h-5.8181z"/><path d="m34.9086 87.2733h5.8181v-5.8181h-5.8181z"/><path d="m63.9991 87.2733h5.8181v-5.8181h-5.8181z"/><path d="m93.0896 87.2733h5.8181v-5.8181h-5.8181z"/><path d="m34.9086 116.3638h5.8181v-5.8181h-5.8181z"/><path d="m63.9991 116.3638h5.8181v-5.8181h-5.8181z"/><path d="m93.0896 116.3638h5.8181v-5.8181h-5.8181z"/></g></g></g></svg>