<svg height="22" width="22" xmlns="http://www.w3.org/2000/svg" xmlns:xlink="http://www.w3.org/1999/xlink"><linearGradient id="a" gradientUnits="userSpaceOnUse" x1="1106.06704" x2="1106.06704" y1="-865.99808" y2="-31.97904"><stop offset="0" stop-color="#b3b3b6"/><stop offset="1" stop-color="#cecece"/></linearGradient><filter id="b"><feGaussianBlur stdDeviation="1.5999062"/></filter><linearGradient id="c" gradientTransform="matrix(.08097133 0 0 .117107 -1.25515 -48.3532)" gradientUnits="userSpaceOnUse" x1="399.77466" x2="399.77466" y1="731.09662" y2="480.60214"><stop offset="0" stop-color="#cbcbcd"/><stop offset=".5" stop-color="#e0e0e2"/><stop offset="1" stop-color="#f2f2f2"/></linearGradient><linearGradient id="d" gradientTransform="matrix(.08097133 0 0 .117107 78.3735 188.5229)" gradientUnits="userSpaceOnUse" x1="-333.0289" x2="-333.0289" y1="-1473.6504" y2="-776.61371"><stop offset="0" stop-color="#fff"/><stop offset=".49140647" stop-color="#fff"/><stop offset="1" stop-color="#dcdcdc"/></linearGradient><g transform="matrix(.25 0 0 .25 2 -2)"><path d="m-2.611641 15.99895h77.223281c.76597 0 1.38261.72808 1.38261 1.63246v68.73718c0 .90439-.61664 1.63247-1.38261 1.63247h-77.223281c-.765966 0-1.38261-.72808-1.38261-1.63247v-68.73718c0-.90438.616644-1.63246 1.38261-1.63246z" style="opacity:.4;fill:none;stroke:#000;stroke-width:4;stroke-linecap:round;stroke-linejoin:round;stroke-dashoffset:4;filter:url(#b)"/><path d="m-2.617195 16h77.234385c.76607 0 1.38281.72806 1.38281 1.63242v68.73516h-80.000003v-68.73516c0-.90436.616732-1.63242 1.382808-1.63242z" fill="url(#c)"/><path d="m-2.625 16c-.766076 0-1.375.72064-1.375 1.625v68.75c0 .90436.608924 1.625 1.375 1.625h77.25c.76608 0 1.375-.72064 1.375-1.625v-68.75c0-.90436-.60892-1.625-1.375-1.625zm.9375 2.4375h75.375c.72777 0 1.3125.68271 1.3125 1.53125v65.5c0 .84854-.58473 1.53125-1.3125 1.53125h-75.375c-.727772 0-1.3125-.68271-1.3125-1.53125v-65.5c0-.84854.584728-1.53125 1.3125-1.53125z" fill="url(#d)"/><path d="m-4 36h80v52h-80z" fill="#fff"/><g fill-rule="evenodd" transform="matrix(.0625 0 0 .0625 -7.5 89.999995)"><path d="m631.99994-864h64v832h-64z" fill="url(#a)"/><g fill="#ddd" transform="matrix(16 0 0 16 -1282.0584 -5038.0176)"><path d="m123.62865 304.87613 8 8h-8z"/><path d="m44 60v-8l24 24h-8z" transform="translate(79.62865 236.8761)"/><path d="m123.62865 280.8761v-8l40 40h-8z"/><path d="m123.62865 264.8761v-4h4l36 36v8z"/><path d="m163.62865 280.8761v8l-28-28h8z"/><path d="m163.62865 272.87613-12-12.00003h8l4 4z"/></g><path d="m760-544.00002v128.00001h512v-128.00001z" fill="#bf0303"/></g></g></svg>