<?xml version="1.0" encoding="UTF-8" standalone="no"?>
<svg
   xmlns:dc="http://purl.org/dc/elements/1.1/"
   xmlns:cc="http://creativecommons.org/ns#"
   xmlns:rdf="http://www.w3.org/1999/02/22-rdf-syntax-ns#"
   xmlns:svg="http://www.w3.org/2000/svg"
   xmlns="http://www.w3.org/2000/svg"
   xmlns:xlink="http://www.w3.org/1999/xlink"
   xmlns:sodipodi="http://sodipodi.sourceforge.net/DTD/sodipodi-0.dtd"
   xmlns:inkscape="http://www.inkscape.org/namespaces/inkscape"
   enable-background="new 0 0 128 128"
   height="22"
   viewBox="0 0 22 22"
   width="22"
   version="1.1"
   id="svg156"
   sodipodi:docname="view-pages-continuous.svg"
   inkscape:version="0.92.5 (2060ec1f9f, 2020-04-08)"
   inkscape:export-filename="/home/rizmut/Dokumen/Rizmut/Github/karasa-jaga-icon-theme/build/Karasa-Jaga/22x22/actions/view-pages-continuous.png"
   inkscape:export-xdpi="96"
   inkscape:export-ydpi="96">
  <metadata
     id="metadata162">
    <rdf:RDF>
      <cc:Work
         rdf:about="">
        <dc:format>image/svg+xml</dc:format>
        <dc:type
           rdf:resource="http://purl.org/dc/dcmitype/StillImage" />
        <dc:title />
      </cc:Work>
    </rdf:RDF>
  </metadata>
  <defs
     id="defs160">
    <radialGradient
       inkscape:collect="always"
       xlink:href="#a"
       id="radialGradient971"
       gradientUnits="userSpaceOnUse"
       cx="100.80984"
       cy="112.93461"
       r="135.18756" />
    <radialGradient
       inkscape:collect="always"
       xlink:href="#b"
       id="radialGradient973"
       gradientUnits="userSpaceOnUse"
       gradientTransform="matrix(0.94807,0,0,0.9510679,3.32352,5.274458)"
       cx="102"
       cy="112.3047"
       r="139.55859" />
    <linearGradient
       inkscape:collect="always"
       xlink:href="#c"
       id="linearGradient975"
       gradientUnits="userSpaceOnUse"
       x1="88.591797"
       y1="96.592697"
       x2="71.262016"
       y2="79.262917" />
    <linearGradient
       inkscape:collect="always"
       xlink:href="#d"
       id="linearGradient977"
       gradientUnits="userSpaceOnUse"
       x1="85.219681"
       y1="93.219681"
       x2="61.336319"
       y2="69.336319" />
    <linearGradient
       inkscape:collect="always"
       xlink:href="#e"
       id="linearGradient979"
       gradientUnits="userSpaceOnUse"
       x1="96"
       y1="104"
       x2="88.000198"
       y2="96.000198" />
    <radialGradient
       inkscape:collect="always"
       xlink:href="#a"
       id="radialGradient981"
       gradientUnits="userSpaceOnUse"
       cx="100.80984"
       cy="112.93461"
       r="135.18756" />
    <radialGradient
       inkscape:collect="always"
       xlink:href="#b"
       id="radialGradient983"
       gradientUnits="userSpaceOnUse"
       gradientTransform="matrix(0.94807,0,0,0.9510679,3.32352,5.274458)"
       cx="102"
       cy="112.3047"
       r="139.55859" />
    <linearGradient
       inkscape:collect="always"
       xlink:href="#c"
       id="linearGradient985"
       gradientUnits="userSpaceOnUse"
       x1="88.591797"
       y1="96.592697"
       x2="71.262016"
       y2="79.262917" />
    <linearGradient
       inkscape:collect="always"
       xlink:href="#d"
       id="linearGradient987"
       gradientUnits="userSpaceOnUse"
       x1="85.219681"
       y1="93.219681"
       x2="61.336319"
       y2="69.336319" />
    <linearGradient
       inkscape:collect="always"
       xlink:href="#e"
       id="linearGradient989"
       gradientUnits="userSpaceOnUse"
       x1="96"
       y1="104"
       x2="88.000198"
       y2="96.000198" />
    <clipPath
       clipPathUnits="userSpaceOnUse"
       id="clipPath993">
      <path
         inkscape:connector-curvature="0"
         id="path995"
         d="M 17.488972,75.188447 H 115.26686 V 124.07733 H 17.488972 Z"
         style="stroke-width:1.11803329" />
    </clipPath>
    <clipPath
       clipPathUnits="userSpaceOnUse"
       id="clipPath997">
      <path
         inkscape:connector-curvature="0"
         id="path999"
         d="M 17.488972,11.642066 H 115.26686 V 65.419989 H 17.488972 Z"
         style="stroke-width:1.10554242" />
    </clipPath>
  </defs>
  <sodipodi:namedview
     pagecolor="#ffffff"
     bordercolor="#666666"
     borderopacity="1"
     objecttolerance="10"
     gridtolerance="10"
     guidetolerance="10"
     inkscape:pageopacity="0"
     inkscape:pageshadow="2"
     inkscape:window-width="1366"
     inkscape:window-height="700"
     id="namedview158"
     showgrid="true"
     inkscape:zoom="19.666667"
     inkscape:cx="0.27924097"
     inkscape:cy="-0.20634696"
     inkscape:window-x="0"
     inkscape:window-y="0"
     inkscape:window-maximized="1"
     inkscape:current-layer="g154">
    <inkscape:grid
       type="xygrid"
       id="grid969" />
  </sodipodi:namedview>
  <radialGradient
     id="a"
     cx="100.80984"
     cy="112.93461"
     gradientUnits="userSpaceOnUse"
     r="135.18756">
    <stop
       offset="0"
       stop-color="#3e3e3e"
       id="stop2" />
    <stop
       offset=".0151"
       stop-color="#505050"
       id="stop4" />
    <stop
       offset=".0558"
       stop-color="#7e7e7e"
       id="stop6" />
    <stop
       offset=".1357"
       stop-color="#c6c6c6"
       id="stop8" />
    <stop
       offset=".20990001"
       stop-color="#f1f1f1"
       id="stop10" />
    <stop
       offset=".24349999"
       stop-color="#fcfcfc"
       id="stop12" />
    <stop
       offset=".2722"
       stop-color="#fff"
       id="stop14" />
  </radialGradient>
  <radialGradient
     id="b"
     cx="102"
     cy="112.3047"
     gradientTransform="matrix(0.94807,0,0,0.9510679,3.32352,5.274458)"
     gradientUnits="userSpaceOnUse"
     r="139.55859">
    <stop
       offset="0"
       stop-color="#535557"
       id="stop17" />
    <stop
       offset=".11366145"
       stop-color="#898a8c"
       id="stop19" />
    <stop
       offset=".20296688"
       stop-color="#ececec"
       id="stop21" />
    <stop
       offset=".2363"
       stop-color="#fafafa"
       id="stop23" />
    <stop
       offset=".2722"
       stop-color="#fff"
       id="stop25" />
    <stop
       offset=".5313"
       stop-color="#fafafa"
       id="stop27" />
    <stop
       offset=".8449"
       stop-color="#ebecec"
       id="stop29" />
    <stop
       offset="1"
       stop-color="#e1e2e3"
       id="stop31" />
  </radialGradient>
  <linearGradient
     id="c"
     gradientUnits="userSpaceOnUse"
     x1="88.591797"
     x2="71.262016"
     y1="96.592697"
     y2="79.262917">
    <stop
       offset="0"
       stop-color="#fff"
       id="stop34" />
    <stop
       offset="1"
       stop-color="#555753"
       id="stop36" />
  </linearGradient>
  <linearGradient
     id="d"
     gradientUnits="userSpaceOnUse"
     x1="85.219681"
     x2="61.336319"
     y1="93.219681"
     y2="69.336319">
    <stop
       offset="0"
       id="stop39" />
    <stop
       offset="1"
       stop-color="#393b38"
       id="stop41" />
  </linearGradient>
  <linearGradient
     id="e"
     gradientUnits="userSpaceOnUse"
     x1="96"
     x2="88.000198"
     y1="104"
     y2="96.000198">
    <stop
       offset="0"
       stop-color="#888a85"
       id="stop44" />
    <stop
       offset=".0072"
       stop-color="#8c8e89"
       id="stop46" />
    <stop
       offset=".0673"
       stop-color="#abaca9"
       id="stop48" />
    <stop
       offset=".1347"
       stop-color="#c5c6c4"
       id="stop50" />
    <stop
       offset=".2115"
       stop-color="#dbdbda"
       id="stop52" />
    <stop
       offset=".3012"
       stop-color="#ebebeb"
       id="stop54" />
    <stop
       offset=".4122"
       stop-color="#f7f7f6"
       id="stop56" />
    <stop
       offset=".5679"
       stop-color="#fdfdfd"
       id="stop58" />
    <stop
       offset="1"
       stop-color="#fff"
       id="stop60" />
  </linearGradient>
  <linearGradient
     id="f"
     gradientTransform="matrix(0.84029068,0,0,0.84029086,12.600067,11.636265)"
     gradientUnits="userSpaceOnUse"
     x1="46.5448"
     x2="46.5448"
     xlink:href="#g"
     y1="69.819"
     y2="46.5466" />
  <linearGradient
     id="g">
    <stop
       offset="0"
       stop-color="#06f"
       id="stop64" />
    <stop
       offset="1"
       stop-color="#80b3ff"
       id="stop66" />
  </linearGradient>
  <linearGradient
     id="h"
     gradientTransform="matrix(0.8402905,0,0,0.84029086,32.155654,11.636265)"
     gradientUnits="userSpaceOnUse"
     x1="46.5448"
     x2="46.5448"
     xlink:href="#g"
     y1="69.819"
     y2="46.5466" />
  <linearGradient
     id="i"
     gradientTransform="matrix(0.84029082,0,0,0.84029086,51.71122,11.636263)"
     gradientUnits="userSpaceOnUse"
     x1="46.5448"
     x2="46.5448"
     xlink:href="#g"
     y1="69.819"
     y2="46.5466" />
  <linearGradient
     id="j"
     gradientUnits="userSpaceOnUse"
     x1="18.377699"
     x2="18.377699"
     xlink:href="#g"
     y1="86.749565"
     y2="38.75024" />
  <linearGradient
     id="k"
     gradientTransform="matrix(0.84029097,0,0,0.84029086,71.266793,11.636263)"
     gradientUnits="userSpaceOnUse"
     x1="46.5448"
     x2="46.5448"
     xlink:href="#g"
     y1="69.819"
     y2="46.5466" />
  <filter
     id="n">
    <feGaussianBlur
       stdDeviation="1.0394514"
       id="feGaussianBlur79" />
  </filter>
  <filter
     id="o">
    <feGaussianBlur
       stdDeviation=".50063244"
       id="feGaussianBlur82" />
  </filter>
  <filter
     id="p">
    <feGaussianBlur
       stdDeviation=".40750996"
       id="feGaussianBlur85" />
  </filter>
  <filter
     id="q">
    <feGaussianBlur
       stdDeviation=".4901192"
       id="feGaussianBlur88" />
  </filter>
  <filter
     id="r">
    <feGaussianBlur
       stdDeviation=".90565481"
       id="feGaussianBlur91" />
  </filter>
  <g
     transform="matrix(0.20454546,0,0,0.20454546,-1.577287,-3.380484)"
     id="g154">
    <g
       clip-path="url(#clipPath993)"
       transform="translate(-4.8889026,-58.661637)"
       id="g116">
      <path
         d="m 27.845077,13.841705 0.02654,106.166145 h 56.286107 c 0.53,0 1.02161,-0.22945 1.414,-0.586 L 118.414,89.579469 c 0.39239,-0.356548 0.586,-0.884 0.586,-1.414 V 13.841705 Z"
         transform="matrix(1.0090419,0,0,1.003276,-7.641977,0.929762)"
         id="path94"
         inkscape:connector-curvature="0"
         style="opacity:0.55342503;filter:url(#n)" />
      <path
         d="m 27.845077,13.872922 0.02655,106.134928 H 84.15773 c 0.53,0 1.02161,-0.22945 1.414,-0.586 L 118.414,89.579469 c 0.39239,-0.356548 0.586,-0.884 0.586,-1.414 V 13.872922 Z"
         transform="matrix(1.0090419,0,0,1.003276,-7.641977,0.929762)"
         id="path96"
         inkscape:connector-curvature="0"
         style="opacity:0.30684904;filter:url(#n)" />
      <path
         d="m 29.750812,15.546194 -1.1e-5,102.331376 53.830924,-1e-4 c 0.53,0 1.039,-0.211 1.414,-0.586 L 116.494,88.511156 c 0.375,-0.375 0.586,-0.884 0.586,-1.414 l 0.0812,-71.550962 z"
         transform="matrix(1.0090419,0,0,1.003276,-7.641977,0.929762)"
         id="path98"
         inkscape:connector-curvature="0"
         style="opacity:0.89589;filter:url(#o)" />
      <path
         d="m 27.845077,14.838439 0.02654,105.169411 h 56.286107 c 0.53,0 1.02161,-0.22945 1.414,-0.586 L 118.414,89.579469 c 0.39239,-0.356548 0.586,-0.884 0.586,-1.414 v -73.32703 z"
         transform="matrix(1.0090419,0,0,1.003276,-7.641977,0.929762)"
         id="path100"
         inkscape:connector-curvature="0"
         style="opacity:0.30684904;filter:url(#n)" />
      <path
         d="M 22.377839,16.526886 V 119.19349 h 54.36722 c 0.513401,0 1.006458,-0.20439 1.369714,-0.56765 L 109.929,89.821411 c 0.36326,-0.363255 0.56764,-0.856313 0.56764,-1.369714 l 0.0819,-71.924811 z"
         id="path102"
         inkscape:connector-curvature="0"
         style="fill:url(#radialGradient971)" />
      <path
         d="m 28.955742,22.40103 c -0.522387,0 -0.94807,0.42703 -0.94807,0.951069 l 0.307523,88.852961 c 0,0.525 0.425684,0.95108 0.94807,0.95108 h 47.210313 c 0.249342,0 0.493944,-0.10082 0.670284,-0.27867 L 105.2815,88.651213 c 0.17729,-0.17785 0.27778,-0.422273 0.27778,-0.672405 l -0.7,-64.604786 c 0,-0.524039 -0.42473,-0.951068 -0.94806,-0.951068 z"
         id="path104"
         inkscape:connector-curvature="0"
         style="fill:url(#radialGradient973)" />
      <g
         transform="matrix(1.1080161,0,0,1.1080161,-12.744784,-10.01667)"
         id="g114">
        <path
           d="m 111.52523,88.365747 c 0.26305,-0.236238 -24.821717,-1.141063 -29.856717,-1.141063 -1.654,0 -3,1.346 -3,3 0,5.035 1.211722,26.561276 1.474766,26.325036 z"
           id="path106"
           inkscape:connector-curvature="0"
           style="opacity:0.75068497;fill:url(#linearGradient975);filter:url(#p)" />
        <path
           d="m 111.52523,88.365747 c 0.39457,-0.354357 -20.412717,-0.141063 -29.856717,-0.141063 -1.103,0 -2,0.897 -2,2 0,9.444 0.0802,26.679386 0.474766,26.325036 z"
           id="path108"
           inkscape:connector-curvature="0"
           style="opacity:0.2;filter:url(#r)" />
        <path
           d="m 111.52523,88.365747 c 0.25147,-0.225842 -20.049717,0.858937 -29.856717,0.858937 -0.553,0 -1,0.447 -1,1 0,9.806996 -0.776705,26.550876 -0.525234,26.325036 z"
           id="path110"
           inkscape:connector-curvature="0"
           style="opacity:0.1;fill:url(#linearGradient977);filter:url(#q)" />
        <path
           d="M 81.278898,116.44678 111.33835,89.585303 81.390132,90.03024 Z"
           id="path112"
           inkscape:connector-curvature="0"
           style="fill:url(#linearGradient979)" />
      </g>
    </g>
    <g
       clip-path="url(#clipPath997)"
       transform="translate(-4.8889026,58.662521)"
       id="g140">
      <path
         d="m 27.845077,13.841705 0.02654,106.166145 h 56.286107 c 0.53,0 1.02161,-0.22945 1.414,-0.586 L 118.414,89.579469 c 0.39239,-0.356548 0.586,-0.884 0.586,-1.414 V 13.841705 Z"
         transform="matrix(1.0090419,0,0,1.003276,-7.641977,0.929762)"
         id="path118"
         inkscape:connector-curvature="0"
         style="opacity:0.55342503;filter:url(#n)" />
      <path
         d="m 27.845077,13.872922 0.02655,106.134928 H 84.15773 c 0.53,0 1.02161,-0.22945 1.414,-0.586 L 118.414,89.579469 c 0.39239,-0.356548 0.586,-0.884 0.586,-1.414 V 13.872922 Z"
         transform="matrix(1.0090419,0,0,1.003276,-7.641977,0.929762)"
         id="path120"
         inkscape:connector-curvature="0"
         style="opacity:0.30684904;filter:url(#n)" />
      <path
         d="m 29.750812,15.546194 -1.1e-5,102.331376 53.830924,-1e-4 c 0.53,0 1.039,-0.211 1.414,-0.586 L 116.494,88.511156 c 0.375,-0.375 0.586,-0.884 0.586,-1.414 l 0.0812,-71.550962 z"
         transform="matrix(1.0090419,0,0,1.003276,-7.641977,0.929762)"
         id="path122"
         inkscape:connector-curvature="0"
         style="opacity:0.89589;filter:url(#o)" />
      <path
         d="m 27.845077,14.838439 0.02654,105.169411 h 56.286107 c 0.53,0 1.02161,-0.22945 1.414,-0.586 L 118.414,89.579469 c 0.39239,-0.356548 0.586,-0.884 0.586,-1.414 v -73.32703 z"
         transform="matrix(1.0090419,0,0,1.003276,-7.641977,0.929762)"
         id="path124"
         inkscape:connector-curvature="0"
         style="opacity:0.30684904;filter:url(#n)" />
      <path
         d="M 22.377839,16.526886 V 119.19349 h 54.36722 c 0.513401,0 1.006458,-0.20439 1.369714,-0.56765 L 109.929,89.821411 c 0.36326,-0.363255 0.56764,-0.856313 0.56764,-1.369714 l 0.0819,-71.924811 z"
         id="path126"
         inkscape:connector-curvature="0"
         style="fill:url(#radialGradient981)" />
      <path
         d="m 28.955742,22.40103 c -0.522387,0 -0.94807,0.42703 -0.94807,0.951069 l 0.307523,88.852961 c 0,0.525 0.425684,0.95108 0.94807,0.95108 h 47.210313 c 0.249342,0 0.493944,-0.10082 0.670284,-0.27867 L 105.2815,88.651213 c 0.17729,-0.17785 0.27778,-0.422273 0.27778,-0.672405 l -0.7,-64.604786 c 0,-0.524039 -0.42473,-0.951068 -0.94806,-0.951068 z"
         id="path128"
         inkscape:connector-curvature="0"
         style="fill:url(#radialGradient983)" />
      <g
         transform="matrix(1.1080161,0,0,1.1080161,-12.744784,-10.01667)"
         id="g138">
        <path
           d="m 111.52523,88.365747 c 0.26305,-0.236238 -24.821717,-1.141063 -29.856717,-1.141063 -1.654,0 -3,1.346 -3,3 0,5.035 1.211722,26.561276 1.474766,26.325036 z"
           id="path130"
           inkscape:connector-curvature="0"
           style="opacity:0.75068497;fill:url(#linearGradient985);filter:url(#p)" />
        <path
           d="m 111.52523,88.365747 c 0.39457,-0.354357 -20.412717,-0.141063 -29.856717,-0.141063 -1.103,0 -2,0.897 -2,2 0,9.444 0.0802,26.679386 0.474766,26.325036 z"
           id="path132"
           inkscape:connector-curvature="0"
           style="opacity:0.2;filter:url(#r)" />
        <path
           d="m 111.52523,88.365747 c 0.25147,-0.225842 -20.049717,0.858937 -29.856717,0.858937 -0.553,0 -1,0.447 -1,1 0,9.806996 -0.776705,26.550876 -0.525234,26.325036 z"
           id="path134"
           inkscape:connector-curvature="0"
           style="opacity:0.1;fill:url(#linearGradient987);filter:url(#q)" />
        <path
           d="M 81.278898,116.44678 111.33835,89.585303 81.390132,90.03024 Z"
           id="path136"
           inkscape:connector-curvature="0"
           style="fill:url(#linearGradient989)" />
      </g>
    </g>
  </g>
</svg>
