<?xml version="1.0" encoding="UTF-8" standalone="no"?>
<!-- Created with Inkscape (http://www.inkscape.org/) -->

<svg
   xmlns:dc="http://purl.org/dc/elements/1.1/"
   xmlns:cc="http://creativecommons.org/ns#"
   xmlns:rdf="http://www.w3.org/1999/02/22-rdf-syntax-ns#"
   xmlns:svg="http://www.w3.org/2000/svg"
   xmlns="http://www.w3.org/2000/svg"
   version="1.1"
   width="16"
   height="16"
   id="svg2">
  <defs
     id="defs4">
    <linearGradient
       id="linearGradient3873">
      <stop
         id="stop3875"
         style="stop-color:#dadada;stop-opacity:1"
         offset="0" />
      <stop
         id="stop3877"
         style="stop-color:#ffffff;stop-opacity:1"
         offset="1" />
    </linearGradient>
  </defs>
  <metadata
     id="metadata7">
    <rdf:RDF>
      <cc:Work
         rdf:about="">
        <dc:format>image/svg+xml</dc:format>
        <dc:type
           rdf:resource="http://purl.org/dc/dcmitype/StillImage" />
        <dc:title></dc:title>
      </cc:Work>
    </rdf:RDF>
  </metadata>
  <g
     transform="translate(0,-48)"
     id="layer1">
    <path
       d="m 12.734388,48.617585 a 2.4263806,2.4263806 0 0 0 -2.25,2.4375 2.4263806,2.4263806 0 0 0 0,0.21875 l -5.71875,2.9375 a 2.4263806,2.4263806 0 0 0 -4.09375002,1.71875 2.4263806,2.4263806 0 0 0 3.68750002,2.09375 l 6.125,3.125 a 2.4263806,2.4263806 0 0 0 4.84375,-0.09375 2.4263806,2.4263806 0 0 0 -4.5625,-1.15625 l -5.5625,-2.75 a 2.4263806,2.4263806 0 0 0 0.3125,-1.21875 2.4263806,2.4263806 0 0 0 -0.125,-0.75 l 5.5,-2.75 a 2.4263806,2.4263806 0 0 0 4.4375,-1.375 2.4263806,2.4263806 0 0 0 -2.59375,-2.4375 z"
       id="path4791"
       style="color:#000000;fill:#bebebe;enable-background:new" />
  </g>
</svg>
