<?xml version="1.0" encoding="UTF-8" standalone="no"?>
<!-- Created with Inkscape (http://www.inkscape.org/) -->

<svg
   xmlns:dc="http://purl.org/dc/elements/1.1/"
   xmlns:cc="http://creativecommons.org/ns#"
   xmlns:rdf="http://www.w3.org/1999/02/22-rdf-syntax-ns#"
   xmlns:svg="http://www.w3.org/2000/svg"
   xmlns="http://www.w3.org/2000/svg"
   xmlns:sodipodi="http://sodipodi.sourceforge.net/DTD/sodipodi-0.dtd"
   xmlns:inkscape="http://www.inkscape.org/namespaces/inkscape"
   width="16"
   height="16"
   id="svg2"
   version="1.1"
   inkscape:version="0.48.3.1 r9886"
   sodipodi:docname="emblem-important-symbolic.svg"
   inkscape:export-filename="/usr/share/icons/Karasa Jaga/24x24/status/gtk-dialog-warning-panel.png"
   inkscape:export-xdpi="16.875"
   inkscape:export-ydpi="16.875">
  <defs
     id="defs4">
    <linearGradient
       id="linearGradient3873">
      <stop
         style="stop-color:#dadada;stop-opacity:1;"
         offset="0"
         id="stop3875" />
      <stop
         style="stop-color:#ffffff;stop-opacity:1;"
         offset="1"
         id="stop3877" />
    </linearGradient>
  </defs>
  <sodipodi:namedview
     id="base"
     pagecolor="#ffffff"
     bordercolor="#666666"
     borderopacity="1.0"
     inkscape:pageopacity="0.0"
     inkscape:pageshadow="2"
     inkscape:zoom="5.5"
     inkscape:cx="10.577373"
     inkscape:cy="27.889204"
     inkscape:current-layer="layer1"
     showgrid="true"
     inkscape:document-units="px"
     inkscape:grid-bbox="true"
     inkscape:window-width="1366"
     inkscape:window-height="696"
     inkscape:window-x="0"
     inkscape:window-y="0"
     inkscape:window-maximized="1"
     showguides="true"
     inkscape:guide-bbox="true">
    <sodipodi:guide
       orientation="0,1"
       position="128.56487,258.15826"
       id="guide5171" />
  </sodipodi:namedview>
  <metadata
     id="metadata7">
    <rdf:RDF>
      <cc:Work
         rdf:about="">
        <dc:format>image/svg+xml</dc:format>
        <dc:type
           rdf:resource="http://purl.org/dc/dcmitype/StillImage" />
        <dc:title></dc:title>
      </cc:Work>
    </rdf:RDF>
  </metadata>
  <g
     id="layer1"
     inkscape:label="Layer 1"
     inkscape:groupmode="layer"
     transform="translate(0,-48)">
    <path
       style="fill:#bebebe;fill-opacity:1;fill-rule:evenodd;stroke:none"
       d="M 7.936034,49.412863 C 7.5482819,49.433983 7.1997704,49.6481 7.0061628,49.984435 L 0.69754016,60.874167 c -0.20497125,0.354858 -0.20524434,0.788438 0,1.143145 0.20523863,0.354704 0.58378854,0.571978 0.99385334,0.571573 l 12.6172455,0 c 0.410066,4.81e-4 0.788616,-0.216869 0.993853,-0.571573 0.205237,-0.354707 0.204894,-0.788287 0,-1.143145 L 8.9938692,49.984435 C 8.7779022,49.60923 8.3685799,49.389093 7.936034,49.412863 z m -0.998119,2.759756 2.1242019,0 0,6.24464 -2.1242019,0 0,-6.24464 z m 1.062101,7.20437 c 0.2961463,10e-7 0.5489688,0.06811 0.7549877,0.204743 0.2060135,0.136633 0.3071101,0.614029 0.3071132,0.810438 -3.1e-6,0.18787 -0.1010997,0.661001 -0.3071132,0.806173 -0.2060189,0.136634 -0.4588414,0.204742 -0.7549877,0.204742 -0.2961502,0 -0.5489719,-0.06811 -0.754987,-0.204742 C 7.0390117,61.053171 6.9379143,60.58004 6.937915,60.39217 6.9379143,60.195761 7.0390117,59.718365 7.245029,59.581732 7.4510441,59.4451 7.7038658,59.37699 8.000016,59.376989 z"
       id="path4137"
       inkscape:connector-curvature="0" />
  </g>
</svg>
