<?xml version="1.0" encoding="UTF-8" standalone="no"?>
<!-- Created with Inkscape (http://www.inkscape.org/) -->

<svg
   xmlns:dc="http://purl.org/dc/elements/1.1/"
   xmlns:cc="http://creativecommons.org/ns#"
   xmlns:rdf="http://www.w3.org/1999/02/22-rdf-syntax-ns#"
   xmlns:svg="http://www.w3.org/2000/svg"
   xmlns="http://www.w3.org/2000/svg"
   xmlns:sodipodi="http://sodipodi.sourceforge.net/DTD/sodipodi-0.dtd"
   xmlns:inkscape="http://www.inkscape.org/namespaces/inkscape"
   id="svg7384"
   height="16"
   width="16"
   version="1.1"
   inkscape:version="0.48.3.1 r9886"
   sodipodi:docname="emblem-music-symbolic.svg">
  <defs
     id="defs5529" />
  <sodipodi:namedview
     pagecolor="#ffffff"
     bordercolor="#666666"
     borderopacity="1"
     objecttolerance="10"
     gridtolerance="10"
     guidetolerance="10"
     inkscape:pageopacity="0"
     inkscape:pageshadow="2"
     inkscape:window-width="1366"
     inkscape:window-height="696"
     id="namedview5527"
     showgrid="false"
     inkscape:zoom="5.2149124"
     inkscape:cx="28.977967"
     inkscape:cy="-21.591693"
     inkscape:window-x="0"
     inkscape:window-y="0"
     inkscape:window-maximized="1"
     inkscape:current-layer="svg7384" />
  <metadata
     id="metadata90">
    <rdf:RDF>
      <cc:Work
         rdf:about="">
        <dc:format>image/svg+xml</dc:format>
        <dc:type
           rdf:resource="http://purl.org/dc/dcmitype/StillImage" />
        <dc:title>Gnome Symbolic Icon Theme</dc:title>
      </cc:Work>
    </rdf:RDF>
  </metadata>
  <title
     id="title9167">Gnome Symbolic Icon Theme</title>
  <path
     inkscape:connector-curvature="0"
     style="fill:#808080;fill-opacity:1;fill-rule:nonzero;stroke:none"
     d="m 0.93835472,9.1348935 c -0.0320107,-0.0013 -0.0757296,0.00354 -0.11954121,0.034709 C 0.73119036,9.23196 0.64227449,9.2416392 0.64142883,9.3932612 0.62308328,12.682297 0.74291965,12.757606 0.82652573,13.183884 0.96432424,13.886473 4.591167,14.30805 6.016941,14.42943 6.1879915,14.882627 6.9702129,15.240156 7.9218933,15.270076 9.0121377,15.304351 9.9121053,14.89256 9.9309616,14.34845 9.9498208,13.80434 9.0815492,13.337703 7.991304,13.303426 7.0516394,13.273882 6.2545687,13.576497 6.0400784,14.009106 4.7113889,13.924733 1.4705066,13.59054 1.1658692,12.987219 0.95127401,12.562221 1.0245513,10.606447 0.99234099,9.1464658 c 0,0 -0.021977,-0.010251 -0.0539877,-0.011567 z"
     id="path8250" />
  <path
     inkscape:connector-curvature="0"
     id="path8165"
     d="M 1.5090692,6.7363505 C 1.4307468,6.7371535 1.35915,6.8139499 1.3355409,6.89831 c -0.021586,0.077124 0.00629,0.082378 0.011567,0.1696718 l 0.057843,1.0064625 C 1.1119278,8.5168879 1.046328,9.1709386 1.046328,9.7981561 c 0,0.9980439 0.1807796,1.9894149 1.1568533,2.1864529 0.047918,0.274778 0.2344714,0.519996 0.4010426,0.609276 0.049141,0.02845 0.096259,0.04354 0.1388222,0.04242 0.031569,-8.68e-4 0.06099,-0.02996 0.073267,-0.07327 1.67e-5,8.68e-4 0,0.03085 0,0.03085 0,0.04369 0.1732519,0.203447 0.2892137,0.208233 l 0.065555,0.0038 c 0.1423451,-0.0095 0.1569644,-0.103256 0.158103,-0.154248 0,0.04369 0.020509,0.136903 0.1542473,0.142679 l 0.073267,-0.0038 c 0.3112992,-0.01065 0.6294715,-0.280351 0.6362693,-0.852215 0,0 -0.02699,-1.106786 -0.02699,-2.2134466 0,-1.1066607 0.02699,-2.2134463 0.02699,-2.2134463 C 4.1793687,6.9192696 3.9276998,6.7633506 3.7070909,6.7633506 l -0.057843,0 c -0.1018019,-0.00506 -0.2278762,0.028827 -0.2583641,0.107973 4.85e-5,-6.541e-4 0,-0.015424 0,-0.015424 0,-0.043684 -0.037154,-0.1055892 -0.08098,-0.1041167 -0.086833,0.00292 -0.1540571,0.025845 -0.2082336,0.053986 -0.027084,0.014071 -0.053944,0.028562 -0.073267,0.042418 -0.019322,0.013855 -0.034448,0.029269 -0.046276,0.038562 -0.024596,0.01933 -0.064853,0.059312 -0.084836,0.096404 -0.00224,0.00412 -0.00224,0.00754 -0.00383,0.011569 -0.00383,-0.047727 -0.015097,-0.078957 -0.04242,-0.088692 -0.00989,-0.00765 -0.021124,-0.011671 -0.038565,-0.011569 l -0.030853,0 C 2.4918517,6.8897293 2.2020817,7.5051479 2.1954792,7.5615791 2.0175368,7.594502 1.8648173,7.6540157 1.7365938,7.7389634 1.7172789,7.4226843 1.6975733,7.1273128 1.6903176,6.9214536 1.6865559,6.8155347 1.6019008,6.7354129 1.5090771,6.736357 z"
     style="fill:#808080;fill-opacity:1;fill-rule:nonzero;stroke:none" />
  <path
     inkscape:connector-curvature="0"
     style="fill:#808080;stroke:none"
     d="M 8.1455513,0.72842512 C 5.6578601,0.79452335 3.9862153,2.169016 3.4178772,3.3814757 3.3882683,3.4446456 3.3739449,3.5054121 3.371601,3.5665722 3.3503185,3.7491994 3.4508522,3.928344 3.6685269,4.1527113 4.8995104,2.8671138 6.0718011,2.174492 8.230385,2.174492 c 2.158584,0 3.367356,0.7378982 4.546434,2.0090687 0.31907,-0.337093 0.31898,-0.4777184 0.219804,-0.73653 -0.187648,-0.4896901 -0.643958,-1.0922975 -1.330381,-1.6041701 0.03456,0.016334 0.07059,0.033911 0.104116,0.05013 C 10.951951,1.2491514 9.7792383,0.72842519 8.322936,0.72842534 c -0.050262,7e-8 -0.096658,-0.001114 -0.1465351,0 -0.00978,2.2208e-4 -0.021094,-2.592e-4 -0.030853,0 z"
     id="path61265" />
  <path
     inkscape:connector-curvature="0"
     style="opacity:0.49311924;fill:#808080;stroke:none"
     d="m 3.9963039,3.2040915 c -8.681e-4,2.097e-4 -0.00297,0.00362 -0.00383,0.00386 -0.00174,4.936e-4 -0.006,-5.8e-4 -0.00771,0 -0.00166,6.169e-4 -0.00608,0.00315 -0.00771,0.00386 -0.00159,7.379e-4 -0.00615,0.00303 -0.00771,0.00386 -7.234e-4,4.319e-4 -0.00311,0.0034 -0.00383,0.00386 -0.00145,9.477e-4 -0.00637,0.00283 -0.00771,0.00386 -6.663e-4,5.306e-4 -0.00318,0.0033 -0.00383,0.00386 -0.00253,0.0023 -0.0055,0.00509 -0.00771,0.00771 0,0 -0.3931873,0.37319 -0.7288175,0.8020851 -0.3356302,0.4288951 -0.6392845,0.9468312 -0.647838,0.9447636 -0.018693,-0.0026 -0.039411,-0.00771 -0.065555,-0.00771 -0.00318,-1.358e-4 -0.00449,8.9e-5 -0.00771,0 -0.00477,-1.358e-4 -0.0068,0 -0.011567,0 -0.3224925,0 -0.5861389,0.2567073 -0.5861389,0.5668581 0,0.3101509 0.2636464,0.5591458 0.5861389,0.5591458 0.00666,0 0.012688,2.098e-4 0.019279,0 0.3224925,0 0.5822831,-0.2489951 0.5822831,-0.5591458 0,-0.1599215 -0.065765,-0.3064019 -0.177384,-0.4087549 0.02767,-0.052848 0.2560608,-0.488688 0.5707144,-0.8907771 0.3356303,-0.4288952 0.7673793,-0.821366 0.7673793,-0.8213659 5.303e-4,-6.787e-4 -4.941e-4,-0.00317 0,-0.00386 4.688e-4,-7.034e-4 0.0034,-0.00315 0.00383,-0.00386 0.00166,-0.00289 0.0026,-0.00852 0.00383,-0.011569 2.836e-4,-7.74e-4 0.00362,-0.00307 0.00383,-0.00386 4.572e-4,-0.00157 -3.574e-4,-0.00611 0,-0.00771 7.234e-4,-0.00404 0.00376,-0.011248 0.00383,-0.015424 -4.3e-6,-0.00168 1.049e-4,-0.00602 0,-0.00771 -1.606e-4,-0.0017 -0.00362,-0.006 -0.00383,-0.00771 -3.082e-4,-0.00171 4.072e-4,-0.00599 0,-0.00771 -4.442e-4,-0.00172 -0.00333,-0.00599 -0.00383,-0.00771 -0.00268,-0.00776 -0.00702,-0.015567 -0.011567,-0.023137 -0.0021,-0.00335 -0.00528,-0.0083 -0.00771,-0.011569 -0.00762,-0.00972 -0.016371,-0.022402 -0.02699,-0.03085 -0.00362,-0.00277 -0.00763,-0.00514 -0.011567,-0.00771 l -0.053988,-0.038562 c -0.00885,-0.00579 -0.021565,-0.011331 -0.030853,-0.015424 -0.020689,-0.00868 -0.045531,-0.011192 -0.065555,-0.011569 -0.00398,7.4e-6 -0.011567,-3.332e-4 -0.015423,0 -9.404e-4,1.07e-4 -0.00246,5.48e-5 -0.00383,0 -0.00297,5.5e-6 -0.00768,-4.52e-5 -0.011567,0 -0.0013,1.51e-5 -0.00289,-8.33e-5 -0.00383,0 -0.00289,3.208e-4 -0.00879,-4.936e-4 -0.011567,0 -9.404e-4,1.851e-4 -0.00297,-2.098e-4 -0.00383,0 z M 2.4692576,5.1630299 c 0.2225237,0 0.4010426,0.1793919 0.4010426,0.4010425 0,0.2216506 -0.1785189,0.4010425 -0.4010426,0.4010425 -0.2225237,0 -0.4048985,-0.1793919 -0.4048985,-0.4010425 0,-0.2216506 0.1823748,-0.4010425 0.4048985,-0.4010425 z"
     id="path17051" />
  <path
     inkscape:connector-curvature="0"
     id="path44361"
     d="m 13.112308,6.7363505 c -0.02292,-7.668e-4 -0.04364,0.016607 -0.05784,0.038562 -0.02137,0.021215 -0.03857,0.053228 -0.03857,0.08098 0,0 -7.5e-5,0.018261 0,0.019281 -0.03048,-0.079146 -0.156561,-0.1168833 -0.258363,-0.1118291 l -0.05784,0 c -0.220609,0 -0.472282,0.155919 -0.485878,0.7480985 0,0 0.02699,1.106786 0.02699,2.2134465 0,1.1066601 -0.02699,2.2134461 -0.02699,2.2134461 0.0068,0.571865 0.32497,0.845416 0.636269,0.856071 l 0.07327,0 c 0.133742,-0.0058 0.154248,-0.09899 0.154248,-0.142679 8.68e-4,0.0504 0.01365,0.144637 0.158103,0.154248 l 0.06555,0 c 0.0638,-0.0026 0.145201,-0.05283 0.204377,-0.104117 0.05108,-0.04122 0.08879,-0.08719 0.0964,-0.111829 0.01466,0.0281 0.03728,0.04563 0.0617,0.04628 0.04256,0.0011 0.08968,-0.01396 0.138822,-0.04242 0.0024,-0.0013 0.0053,-0.0025 0.0077,-0.0038 0.0083,-0.0051 0.01478,-0.0097 0.02313,-0.01542 0.154109,-0.09871 0.316599,-0.320449 0.366336,-0.570715 0.97919,-0.195346 1.16071,-1.183336 1.16071,-2.1825906 0,-0.6128738 -0.0631,-1.2513068 -0.339343,-1.6928618 0.03255,-0.5038284 0.06556,-1.0373119 0.06556,-1.0373119 0.0053,-0.087294 -0.0054,-0.1233968 -0.02699,-0.2005213 -0.0236,-0.08439 -0.09918,-0.1510597 -0.177379,-0.1465646 -0.0767,0.00441 -0.177507,0.079178 -0.18124,0.1850966 -0.0073,0.2074703 -0.02485,0.5061483 -0.04242,0.8252221 -0.125643,-0.080934 -0.274862,-0.1416202 -0.447317,-0.173528 l 0,-0.011569 c 0,-0.00244 -0.0021,-0.013379 -0.0038,-0.019281 0,-0.0032 -0.0047,-0.014069 -0.0077,-0.023137 -0.0016,-0.00399 -0.0059,-0.01099 -0.0077,-0.015424 -0.0016,-0.00404 -0.0059,-0.010918 -0.0077,-0.015424 -0.0072,-0.016551 -0.01304,-0.033315 -0.02313,-0.053986 -0.09148,-0.1926311 -0.313729,-0.5666961 -0.539865,-0.5630019 l -0.03085,0 c -0.04025,-2.345e-4 -0.05425,0.023302 -0.0617,0.065555 -0.0016,0.00462 -0.0066,0.01 -0.0077,0.015424 -0.02131,-0.034944 -0.05796,-0.070601 -0.08098,-0.088692 -0.0473,-0.037171 -0.154106,-0.1291307 -0.327776,-0.1349661 z"
     style="fill:#808080;fill-opacity:1;fill-rule:nonzero;stroke:none" />
  <path
     inkscape:connector-curvature="0"
     style="fill:#808080;stroke:none"
     d="m 2.4075583,5.7414566 c -0.043339,0.00323 -0.078717,0.018801 -0.111829,0.065555 -0.00123,0.00185 -0.00289,0.00569 -0.00383,0.00771 -0.00123,0.00276 -0.00304,0.00862 -0.00383,0.011569 -1.975e-4,7.379e-4 1.728e-4,0.0031 0,0.00386 -2.959e-4,0.0015 -0.00362,0.0062 -0.00383,0.00771 -8.46e-5,7.523e-4 6.44e-5,0.0031 0,0.00386 0,0 1.01e-5,0.203519 0,0.2159459 -0.00456,0.00354 -0.063349,0.047301 -0.1426786,0.1079729 0,0.00122 -2.9e-6,0.00264 0,0.00386 2.68e-5,0.010585 -2.344e-4,0.020343 0,0.03085 -0.1971929,0.1508507 -0.6015633,0.4588852 -0.6015633,0.4588852 -0.066452,0.053257 -0.1730566,0.1238735 -0.1966656,0.2082335 -0.021586,0.077125 -0.00911,0.1363644 -0.00383,0.2236584 L 1.4821643,9.497373 c 1.215e-4,0.0021 -1.606e-4,0.00564 0,0.00771 -2.221e-4,6.54e-4 2.097e-4,0.00318 0,0.00383 -0.00477,0.014757 -0.00637,0.030173 -0.00771,0.046276 -0.00963,0.1144752 0.077883,0.2140671 0.1928084,0.223658 0.014367,0.00123 0.028676,0.00159 0.04242,0 0.013745,-0.00159 0.025732,-0.00739 0.038565,-0.011567 0.076965,-0.025052 0.1354568,-0.091528 0.1426786,-0.1773839 0.00239,-0.028618 -0.00297,-0.059225 -0.011567,-0.084836 -0.00434,-0.012804 -0.0088,-0.023077 -0.015423,-0.034709 -0.00666,-0.011632 -0.014504,-0.024538 -0.023134,-0.034709 -0.00109,-0.0013 0.00109,-0.0026 0,-0.00383 L 1.6980218,7.0679819 c -0.00948,-0.078494 0.00622,-0.1062654 0.069411,-0.1465348 0,-1e-7 0.5616436,-0.4289675 0.7712358,-0.586139 0.00891,-0.00668 0.033711,-0.017887 0.034709,-0.053986 2.713e-4,-0.00991 7.53e-5,-0.1205382 0,-0.2313707 0.00289,-0.083251 0.00268,-0.1537647 0,-0.1812404 -2.96e-5,-3.332e-4 0.00174,-0.00469 0,-0.011569 -2.467e-4,-0.00106 2.959e-4,-0.00725 0,-0.00771 -0.00224,-0.00351 -0.00499,-0.00776 -0.00771,-0.011569 -0.00166,-0.00233 -0.00203,-0.00535 -0.00383,-0.00771 -0.00815,-0.01085 -0.015228,-0.01941 -0.023134,-0.026993 -0.00181,-0.00156 -0.00586,-0.00214 -0.00771,-0.00386 -0.024965,-0.02293 -0.054509,-0.057932 -0.1041168,-0.057843 -0.00666,1.2e-5 -0.013086,-4.565e-4 -0.019279,0 z"
     id="path43468" />
  <path
     inkscape:connector-curvature="0"
     style="opacity:0.49311924;fill:#808080;stroke:none"
     d="m 12.360354,3.2272286 c -0.02002,3.825e-4 -0.04487,0.00289 -0.06555,0.011569 -0.0093,0.00409 -0.022,0.00964 -0.03085,0.015424 l -0.05399,0.038562 c -0.0039,0.00258 -0.008,0.00494 -0.01157,0.00771 -0.01062,0.00845 -0.01937,0.017278 -0.02699,0.026993 -0.0025,0.00326 -0.0056,0.00822 -0.0077,0.011569 -0.0046,0.00757 -0.0089,0.019237 -0.01157,0.026993 -5.43e-4,0.00172 -0.0034,0.00599 -0.0038,0.00771 -4.08e-4,0.00172 3.08e-4,0.006 0,0.00771 -2.6e-4,0.00171 -0.0037,0.00601 -0.0038,0.00771 -1.05e-4,0.00169 4e-6,0.00603 0,0.00771 1.15e-4,0.00417 0.0031,0.011385 0.0038,0.015424 3.57e-4,0.0016 -4.57e-4,0.00614 0,0.00771 2.59e-4,7.741e-4 0.0035,0.00308 0.0038,0.00386 0.0012,0.00305 0.0022,0.00868 0.0038,0.011569 4.44e-4,7.157e-4 0.0034,0.00315 0.0038,0.00386 4.94e-4,6.91e-4 -5.3e-4,0.00318 0,0.00386 0,-2e-7 0.431749,0.3924708 0.76738,0.8213659 0.314652,0.4020891 0.543045,0.8379297 0.570714,0.8907771 -0.111622,0.102353 -0.177384,0.2488333 -0.177384,0.4087548 0,0.2814139 0.213184,0.5108645 0.49359,0.5514334 -4.5e-5,0.091939 -2.46e-4,0.1808559 0,0.1889528 7.2e-5,0.00226 0.163249,-0.072467 0.165816,-0.077123 0.02638,-0.048015 0.03951,-0.080019 0.05784,-0.1156854 0.268148,-0.050754 0.470454,-0.2749563 0.470454,-0.5475773 0,-0.3101508 -0.263646,-0.5668581 -0.586139,-0.5668581 -0.0066,-2.098e-4 -0.01263,0 -0.01928,0 -0.02614,0 -0.04686,0.00511 -0.06556,0.00771 -0.0086,0.00207 -0.312208,-0.5158686 -0.647838,-0.9447636 -0.33563,-0.4288951 -0.728818,-0.802085 -0.728818,-0.802085 -0.0022,-0.00263 -0.0052,-0.00541 -0.0077,-0.00771 -6.17e-4,-5.553e-4 -0.0031,-0.00333 -0.0038,-0.00386 -0.0014,-0.00103 -0.0063,-0.00291 -0.0077,-0.00386 -7.23e-4,-4.566e-4 -0.0031,-0.00342 -0.0038,-0.00386 -0.0015,-8.247e-4 -0.0061,-0.00312 -0.0077,-0.00386 -0.0017,-7.034e-4 -0.006,-0.00324 -0.0077,-0.00386 -0.0017,-5.799e-4 -0.0059,4.936e-4 -0.0077,0 -8.69e-4,-2.344e-4 -0.003,-0.00365 -0.0038,-0.00386 -8.68e-4,-2.098e-4 -0.0029,1.851e-4 -0.0038,0 -0.0027,-4.936e-4 -0.0087,3.208e-4 -0.01157,0 -0.002,-1.604e-4 -0.0049,-4.26e-5 -0.0077,0 -0.0027,-4.936e-4 -0.0087,3.208e-4 -0.01157,0 -0.0038,-3.332e-4 -0.01144,7.4e-6 -0.01542,0 z m 1.577176,1.9550822 c 0.222523,0 0.404899,0.1793919 0.404899,0.4010425 0,0.2216506 -0.182376,0.4048987 -0.404899,0.4048987 -0.222523,0 -0.401042,-0.1832481 -0.401042,-0.4048987 0,-0.2216506 0.178519,-0.4010425 0.401042,-0.4010425 z"
     id="path44371" />
  <path
     inkscape:connector-curvature="0"
     style="fill:#808080;stroke:none"
     d="m 13.976092,5.7877307 c -0.05332,-9.6e-5 -0.09098,0.012139 -0.13111,0.065555 -0.01293,0.017223 -0.01151,0.034027 -0.01156,0.034705 -7.6e-5,0.00173 -4.93e-4,0.3949301 0,0.412611 0.001,0.0361 0.02581,0.051163 0.03471,0.057843 0.209592,0.1571716 0.771236,0.5822829 0.771236,0.5822829 0.06318,0.040269 0.0789,0.071897 0.06941,0.150391 l -0.142685,2.3638375 c -0.0011,0.00123 0.0011,0.0026 0,0.00383 -0.03453,0.040684 -0.05494,0.093153 -0.05013,0.1503908 0.0096,0.1144752 0.108732,0.1985443 0.223658,0.1889527 0.01437,-0.00123 0.02913,0 0.04242,-0.00383 0.09307,-0.02699 0.158813,-0.1157795 0.150391,-0.2159458 -0.0014,-0.016096 -0.003,-0.031519 -0.0077,-0.046276 -2.47e-4,-6.539e-4 2.47e-4,-0.00318 0,-0.00383 1.22e-4,-0.0021 -1.21e-4,-0.00564 0,-0.00771 L 15.067398,7.114277 c 0.0052,-0.087294 0.01773,-0.146534 -0.0038,-0.2236584 -0.0236,-0.08436 -0.130215,-0.1549766 -0.196665,-0.2082336 0,0 -0.734972,-0.5651877 -0.751955,-0.5784267 -9e-6,-0.012427 0,-0.215946 0,-0.215946 -0.001,-0.011988 -0.0048,-0.021345 -0.01156,-0.03085 -0.03784,-0.053433 -0.07393,-0.069315 -0.127254,-0.069411 z"
     id="path44397" />
</svg>
