<?xml version="1.0" encoding="UTF-8" standalone="no"?>
<svg
   xmlns:dc="http://purl.org/dc/elements/1.1/"
   xmlns:cc="http://creativecommons.org/ns#"
   xmlns:rdf="http://www.w3.org/1999/02/22-rdf-syntax-ns#"
   xmlns:svg="http://www.w3.org/2000/svg"
   xmlns="http://www.w3.org/2000/svg"
   xmlns:xlink="http://www.w3.org/1999/xlink"
   xmlns:sodipodi="http://sodipodi.sourceforge.net/DTD/sodipodi-0.dtd"
   xmlns:inkscape="http://www.inkscape.org/namespaces/inkscape"
   height="24"
   viewBox="0 0 24 24"
   width="24"
   version="1.1"
   id="svg147"
   sodipodi:docname="folder-open.svg"
   inkscape:version="0.92.4 (unknown)"
   inkscape:export-filename="/home/rizmut/Dokumen/Rizmut/Github/karasa-jaga-icon-theme/build/Karasa-Jaga/24x24/status/folder-open.png"
   inkscape:export-xdpi="96"
   inkscape:export-ydpi="96">
  <metadata
     id="metadata153">
    <rdf:RDF>
      <cc:Work
         rdf:about="">
        <dc:format>image/svg+xml</dc:format>
        <dc:type
           rdf:resource="http://purl.org/dc/dcmitype/StillImage" />
        <dc:title></dc:title>
      </cc:Work>
    </rdf:RDF>
  </metadata>
  <defs
     id="defs151" />
  <sodipodi:namedview
     pagecolor="#ffffff"
     bordercolor="#666666"
     borderopacity="1"
     objecttolerance="10"
     gridtolerance="10"
     guidetolerance="10"
     inkscape:pageopacity="0"
     inkscape:pageshadow="2"
     inkscape:window-width="1366"
     inkscape:window-height="698"
     id="namedview149"
     showgrid="false"
     inkscape:zoom="9.8333333"
     inkscape:cx="-1.9830508"
     inkscape:cy="12"
     inkscape:window-x="0"
     inkscape:window-y="0"
     inkscape:window-maximized="1"
     inkscape:current-layer="g145" />
  <linearGradient
     id="a"
     gradientUnits="userSpaceOnUse"
     x1="7.739838"
     x2="8"
     y1="1.357724"
     y2="14">
    <stop
       offset="0"
       stop-color="#587bcb"
       id="stop2" />
    <stop
       offset=".94117647"
       stop-color="#3f59ae"
       id="stop4" />
    <stop
       offset="1"
       stop-color="#3d7cdb"
       id="stop6" />
  </linearGradient>
  <linearGradient
     id="b"
     gradientTransform="matrix(1.375 0 0 1 -1.375 0)"
     gradientUnits="userSpaceOnUse"
     x1="6.5"
     x2="6.5"
     y1="11"
     y2="12">
    <stop
       offset="0"
       stop-color="#2a3674"
       id="stop9" />
    <stop
       offset="1"
       stop-color="#174072"
       stop-opacity="0"
       id="stop11" />
  </linearGradient>
  <linearGradient
     id="c"
     gradientUnits="userSpaceOnUse"
     x1="9"
     x2="9"
     y1="-7"
     y2="4">
    <stop
       offset="0"
       stop-color="#102134"
       id="stop14" />
    <stop
       offset="1"
       stop-color="#102134"
       stop-opacity="0"
       id="stop16" />
  </linearGradient>
  <filter
     id="d"
     color-interpolation-filters="sRGB"
     height="1.267833"
     width="1.129187"
     x="-.064594"
     y="-.133917">
    <feGaussianBlur
       stdDeviation="3.1247207"
       id="feGaussianBlur19" />
  </filter>
  <linearGradient
     id="e"
     gradientUnits="userSpaceOnUse"
     x1=".37741"
     x2=".37741"
     y1="5.214652"
     y2="3.309088">
    <stop
       offset="0"
       stop-color="#34608f"
       id="stop22" />
    <stop
       offset="1"
       stop-color="#34608f"
       stop-opacity="0"
       id="stop24" />
  </linearGradient>
  <linearGradient
     id="f"
     gradientTransform="matrix(.21345221 0 0 .1138394 -5.411169 -103.22724)"
     gradientUnits="userSpaceOnUse"
     x1="124.01234"
     x2="124.01234"
     y1="966.51019"
     y2="935.34326">
    <stop
       offset="0"
       id="stop27" />
    <stop
       offset="1"
       stop-color="#34608f"
       stop-opacity="0"
       id="stop29" />
  </linearGradient>
  <linearGradient
     id="g"
     gradientUnits="userSpaceOnUse"
     x1="55"
     x2="55"
     y1="1036.4132"
     y2="1032.4822">
    <stop
       offset="0"
       stop-color="#003d7b"
       id="stop32" />
    <stop
       offset="1"
       stop-color="#003d7b"
       stop-opacity="0"
       id="stop34" />
  </linearGradient>
  <filter
     id="h"
     color-interpolation-filters="sRGB"
     height="1.697208"
     width="1.027888"
     x="-.013944"
     y="-.348604">
    <feGaussianBlur
       stdDeviation=".70882694"
       id="feGaussianBlur37" />
  </filter>
  <filter
     id="i"
     color-interpolation-filters="sRGB"
     height="1.869989"
     width="1.027669"
     x="-.013834"
     y="-.434994">
    <feGaussianBlur
       stdDeviation=".70324038"
       id="feGaussianBlur40" />
  </filter>
  <clipPath
     id="j">
    <rect
       height="31.444271"
       rx="4"
       width="141.60004"
       x="4"
       y="941.36218"
       id="rect43" />
  </clipPath>
  <clipPath
     id="k">
    <rect
       height="174.543"
       rx="2.439995"
       ry="4.499993"
       width="232.724"
       x="-75.676788"
       y="52.349762"
       id="rect46" />
  </clipPath>
  <filter
     id="l">
    <feGaussianBlur
       stdDeviation="2.028"
       id="feGaussianBlur49" />
  </filter>
  <filter
     id="m">
    <feGaussianBlur
       stdDeviation="1.8077645"
       id="feGaussianBlur52" />
  </filter>
  <linearGradient
     id="n"
     gradientTransform="matrix(1.003095 0 0 .98228452 -1.76555 .690988)"
     gradientUnits="userSpaceOnUse"
     x1="72"
     x2="72"
     y1="0"
     y2="116.40091">
    <stop
       offset="0"
       stop-color="#eeecec"
       id="stop55" />
    <stop
       offset=".40000001"
       stop-color="#f4f4f4"
       id="stop57" />
    <stop
       offset="1"
       stop-color="#f6f5f5"
       id="stop59" />
  </linearGradient>
  <radialGradient
     id="o"
     cx="64"
     cy="64.004021"
     fx="63.793392"
     fy="47.274845"
     gradientTransform="matrix(1.689423 -.08280186 .06907651 1.3515102 -50.111719 -17.741619)"
     gradientUnits="userSpaceOnUse"
     r="47.5"
     xlink:href="#p" />
  <linearGradient
     id="p">
    <stop
       offset="0"
       stop-color="#fff"
       id="stop63" />
    <stop
       offset="1"
       stop-color="#fff"
       stop-opacity="0"
       id="stop65" />
  </linearGradient>
  <clipPath
     id="q">
    <path
       d="m17.000001 8 .782827 110h57.5c1.675283 0 3.119418.18058 4.9-1.6 8.797935-8.79794 19.757642-19.851805 27.016212-27.175957 2.44056-2.462612 2.80096-4.47117 2.80096-6.724043v-74.5z"
       id="path68" />
  </clipPath>
  <filter
     id="r"
     color-interpolation-filters="sRGB"
     height="2.025501"
     width="1.957419"
     x="-.478709"
     y="-.512751">
    <feGaussianBlur
       stdDeviation="10.140743"
       id="feGaussianBlur71" />
  </filter>
  <filter
     id="s"
     height="1.408259"
     width="1.329301"
     x="-.164651"
     y="-.20413">
    <feGaussianBlur
       stdDeviation="4.2234282"
       id="feGaussianBlur74" />
  </filter>
  <linearGradient
     id="t"
     gradientTransform="matrix(1.4094273 0 0 1.4111689 -46.598939 -46.228314)"
     gradientUnits="userSpaceOnUse"
     x1="82.15696"
     x2="94.220871"
     y1="90.381706"
     y2="102.18401">
    <stop
       offset="0"
       stop-color="#fcfcfc"
       id="stop77" />
    <stop
       offset=".52275378"
       stop-color="#f8f8f8"
       id="stop79" />
    <stop
       offset=".72337759"
       stop-color="#f0efef"
       id="stop81" />
    <stop
       offset=".89024991"
       stop-color="#e3e1e1"
       id="stop83" />
    <stop
       offset="1"
       stop-color="#cecbcb"
       id="stop85" />
  </linearGradient>
  <radialGradient
     id="u"
     cx="90.750004"
     cy="110.252967"
     gradientUnits="userSpaceOnUse"
     r="24.501278"
     xlink:href="#p" />
  <clipPath
     id="v">
    <path
       d="m112 82.502986c0 4.465301-2.79749 6.409952-5.27972 8.093625-5.10854 3.46508-14.939114 3.32536-20.720284 3.40638-.081 5.781159.16586 15.504599-3.29922 20.613139-1.68367 2.48224-5.29051 5.38687-8.20078 5.38687 2.31803 0 4.74284-1.33476 7.58402-4.08481 9.14197-8.84873 17.36714-16.13535 25.673154-25.297529 1.91895-2.116745 4.24283-3.641881 4.24283-8.117675z"
       id="path89" />
  </clipPath>
  <filter
     id="w"
     color-interpolation-filters="sRGB">
    <feGaussianBlur
       stdDeviation=".43040059"
       id="feGaussianBlur92" />
  </filter>
  <g
     transform="translate(1 7)"
     id="g145">
    <rect
       fill="url(#g)"
       filter="url(#h)"
       height="4.39197"
       opacity=".577143"
       rx="2.439995"
       ry="2.195984"
       transform="matrix(.125 0 0 .25614775 -.125 -251.09298)"
       width="169.99997"
       x="3.000028"
       y="1032.4822"
       id="rect95" />
    <path
       d="m-46.991242 13.13992h114.000023c2.216 0 4 .8652 4 1.94 0 1.0747-1.78433 1.902-4 1.94-36.945183.6329-74.7030655.7782-114.000023 0-2.215566-.044-4-.8653-4-1.94 0-1.0748 1.784-1.94 4-1.94z"
       filter="url(#i)"
       opacity=".554286"
       transform="matrix(.17315572 0 0 .125 9.204424 12.35751)"
       id="path97" />
    <path
       d="m1-5c-.5 0-.46290449.3887135-.5.5l-.5 1.5v9c0 .554.446 1 1 1h19c.554 0 1-.446 1-1v-9c0-.554-.446-1-1-1h-12.0957031c-.0842007-.4859507-.178001-1-.4042969-1z"
       fill="#3b6ca9"
       id="path99" />
    <path
       d="m1-5c-.5 0-.46290449.3887135-.5.5l-.5 1.5v9c0 .554.446 1 1 1v-10l.5-1h5.3828125c.013345.068527.023996.094239.037109.1699219.0826732.4792195.4980774.8295107.9843754.8300781h1.0957031 11v10c.554 0 1-.446 1-1v-9c0-.554-.446-1-1-1h-12.0957031c-.0842007-.4859507-.178001-1-.4042969-1z"
       fill="url(#c)"
       opacity=".25"
       id="path101" />
    <path
       clip-path="url(#j)"
       d="m30.012982 956.41796-26.0129821-.46865.0000002 50.59179 144.9714699-.02v-53.82893c0-2.54081-2.0596-4.59164-4.62097-4.58387l-102.337518.31046c-9.375263 0-5.067235 7.84799-12 8z"
       fill="#16375b"
       fill-opacity=".801471"
       filter="url(#d)"
       transform="matrix(.14830504 0 0 .14830504 -.59322 -138.2721)"
       id="path125" />
    <path
       d="m1 5h4.5l1-1h14.5c.554 0 1 .446 1 1v8c0 .554-.446 1-1 1h-20c-.554 0-1-.446-1-1v-7c0-.554.4937484-.7749993 1-1z"
       fill="url(#a)"
       id="path127" />
    <path
       d="m0 11h22v1h-22z"
       fill="#385da4"
       id="path129" />
    <path
       d="m0 11h22v1h-22z"
       fill="url(#b)"
       id="path131" />
    <path
       d="m0 12h22v.5h-22z"
       fill="#a4c0e8"
       id="path133" />
    <path
       d="m6.5 4-1 1h-4.5c-.554 0-1 .446-1 1v1c0-.554.49374843-.7749993 1-1h4.5l1-1h14.5c.554 0 1 .446 1 1v-1c0-.554-.451196-.9243029-1-1z"
       fill="#a4c0e8"
       id="path135" />
    <path
       d="m5-3h1v.9999999h-1z"
       fill="#fbc66d"
       id="path137" />
    <path
       d="m2-3h4v.9999999h-4z"
       fill="#fcf9e9"
       id="path139" />
    <path
       d="m1 4c-.5505375 0-.9925198.4410516-.9980469.9902344v8.0195316c.00023.02285.0119482.042.0136719.06445.038109.321065.7510484.923754.984375.925784.0003916.000003.00156 0 .00195 0v-10z"
       fill="url(#e)"
       opacity=".594286"
       id="path141" />
    <path
       d="m21 3v11c.554 0 1-.446 1-1v-9c0-.554-.446-1-1-1z"
       fill="url(#f)"
       opacity=".405714"
       id="path143" />
  </g>
</svg>
