<svg height="16" viewBox="0 0 4.2333332 4.2333335" width="16" xmlns="http://www.w3.org/2000/svg" xmlns:xlink="http://www.w3.org/1999/xlink"><linearGradient id="a" gradientTransform="matrix(1.3409466 0 0 1.4042444 -333.61554 -96.692224)" gradientUnits="userSpaceOnUse" x1="317.46893" x2="317.87198" y1="177.17514" y2="73.401131"><stop offset="0" stop-color="#f7f7f7"/><stop offset=".86046815" stop-color="#c3c3c3"/><stop offset="1" stop-color="#ececec"/></linearGradient><linearGradient id="b" gradientTransform="matrix(.47782032 0 0 .46826372 -33.742634 -339.62402)" gradientUnits="userSpaceOnUse" x1="224.45879" x2="232.8127" y1="934.11218" y2="934.11218"><stop offset="0" stop-color="#de4814"/><stop offset="1" stop-color="#ff6000"/></linearGradient><g transform="matrix(.02494978 0 0 .02494978 -.011285 -.11978)"><path d="m10.203965 3.295412c-5.4075238 0-9.76014224 5.6331638-9.76014224 12.632032v135.313906c.17283 4.02848.008486 8.50254.008486 12.629l9.75175124.003h150.25928l9.75435-.001.005-12.63072v-135.314186c0-6.9988682-4.35262-12.632032-9.76016-12.632032z" fill="#999"/><rect fill="url(#a)" height="137.86026" rx="9.03485" ry="11.344713" width="148.4649" x="11.056945" y="15.405447"/><path d="m11.056945 47.219357h148.4649v106.04636h-148.4649z" fill="#ececec"/><rect fill="#1a1a1a" height="84.83709" rx="3.147632" ry="3.945725" width="127.25563" x="21.661581" y="57.82399"/><path d="m11.056945 36.614719h148.4649v10.604634h-148.4649z" fill="#6d6d6d"/><circle cx="142.75569" cy="28.000147" fill="#818181" r="7.158165"/><g transform="matrix(10.31753 0 0 10.31753 -702.85315 -902.11423)"><path d="m78.606243 100.15472c-.0832-.241698-.17766-.489998-.28349-.744998-.0983-.255-.19658-.51-.29484-.765h-3.06176c-.0983.255-.20034.51-.30618.765-.0983.2551-.189.5033-.27216.744998h-1.83706c.29484-.751698.57455-1.446298.83916-2.083798.26459-.6376.52162-1.2382.7711-1.8019.25704-.5637.50652-1.0972.74844-1.6005.24947-.5101.50651-1.0067.7711-1.4899h1.68964c.25706.4832.5103.9798.75978 1.4899.24947.5033.49894 1.0368.74843 1.6005.25703.5637.51785 1.1643.78245 1.8019.2646.6375.54431 1.3321.83915 2.083798zm-2.12056-5.395698c-.0377.1007-.0945.2383-.17008.4128-.0756.1744-.16254.3758-.26083.604-.0983.2281-.2079.4798-.32885.7549-.11341.2752-.23058.5637-.35154.8657h2.23396c-.12096-.302-.23815-.5905-.35155-.8657-.11339-.2751-.22301-.5268-.32885-.7549-.0983-.2282-.18522-.4296-.26081-.604-.0756-.1746-.13608-.3121-.18145-.4128" fill="#fff"/><rect fill="#fff" height="1" ry=".5" width="7.999999" x="72.499992" y="97.178673"/><rect fill="url(#b)" height="1" ry=".416667" width="4.000001" x="73.499992" y="97.178673"/></g></g></svg>