<svg height="16" viewBox="0 0 4.2333332 4.2333335" width="16" xmlns="http://www.w3.org/2000/svg" xmlns:xlink="http://www.w3.org/1999/xlink"><linearGradient id="a" gradientUnits="userSpaceOnUse" x1="85.95896615276" x2="84.95134242205" xlink:href="#b" y1="277.74592025317" y2="277.82092583889"/><linearGradient id="b"><stop offset="0" stop-color="#8c8c8b" stop-opacity=".537255"/><stop offset="1" stop-color="#5b6f4c" stop-opacity="0"/></linearGradient><linearGradient id="c" gradientUnits="userSpaceOnUse" x1="87.28645659247" x2="88.54649246562" xlink:href="#b" y1="277.61841199644" y2="277.61841199644"/><linearGradient id="d" gradientUnits="userSpaceOnUse" x1="-5.19709150644" x2="35.63129703063" y1="420.14348196307" y2="420.14348196307"><stop offset="0" stop-color="#e72c00"/><stop offset=".8035748" stop-color="#b62200"/><stop offset="1" stop-color="#fd3100"/></linearGradient><linearGradient id="e" gradientUnits="userSpaceOnUse" x1=".94980516081" x2="30.05346763347" y1="415.66773194308" y2="415.66773194308"><stop offset="0" stop-color="#921901"/><stop offset="1" stop-color="#fd330b"/></linearGradient><linearGradient id="f" gradientUnits="userSpaceOnUse" x1="2.38603225048" x2="8.04642983333" y1="397.8017127184" y2="405.9551657753"><stop offset="0" stop-color="#fffdfd"/><stop offset="1" stop-color="#eea2a0" stop-opacity="0"/></linearGradient><radialGradient id="g" cx="93.60704" cy="1441.4597" gradientTransform="matrix(.36542727 -.1374419 .14227704 .37828281 -214.1987 -109.41505)" gradientUnits="userSpaceOnUse" r="16.134117"><stop offset="0" stop-color="#fef9f9"/><stop offset="1" stop-color="#f5c7c6" stop-opacity="0"/></radialGradient><filter id="h" color-interpolation-filters="sRGB" height="1.048" width="1.048" x="-.024" y="-.024"><feGaussianBlur stdDeviation=".21759741"/></filter><g transform="translate(-84.664739 -275.548755)"><path d="m84.666664 275.5708h4.233333v4.233333h-4.233333z" fill="none"/><path d="m84.964069 276.21483v3.33691l1.114233-.18538 1.29994.18538 1.299939-.37077-.0011-3.32836-.04092-.0327-1.257949.39496-1.29994-.18538z" fill="#ab9861"/><path d="m84.662815 275.9484v3.79527l1.265087-.21085 1.475934.21085 1.475936-.4217v-3.79526l-1.475936.42169-1.475934-.21084z" fill="#716f5d"/><path d="m84.946391 276.17837v3.24009l1.08003-.18001 1.260035.18001 1.260037-.36001v-3.24009l-1.260037.36001-1.260035-.18001z" fill="#fff"/><path d="m86.02642 275.99836-1.080028.18001v1.01643l1.080028-.33208zm0 1.27124-1.080028.33207v1.8168l1.080028-.18001z" fill="#8ece5f"/><path d="m86.02642 276.86272-1.080028.33208v.40687l1.080028-.33207z" fill="#fff"/><path d="m87.286456 279.41846 1.260037-.36001v-3.24009l-1.260037.36001z" fill="#e5dfce"/><path d="m86.026421 279.23845 1.260036.18001v-3.24009l-1.260036-.18001z" fill="#e9e3d3"/><path d="m85.78295 277.34446-.836558.25721v1.8168l1.080028-.18001v-1.31031z" fill="#e9e3d3"/><g fill="#fff"><path d="m86.02642 276.60487v1.32328l.421398 1.37051.425576.0608z"/><path d="m85.759816 276.0428-.343888.0567.610492 1.82866v-1.32328z"/><path d="m87.28646 276.55403-1.26004.30869v.40688l1.26004-.30868z"/><path d="m88.546491 276.08785-1.260031.46618v.40689l1.260031-.46619z"/></g><path d="m86.02642 275.99836v.60651l.07373.23978 1.186309-.29062v-.37566z" fill="#a4d77e"/><path d="m88.546491 275.81836-1.260031.36001v.37566l1.260031-.46618z" fill="#96d16a"/><path d="m85.824936 277.3312-.878544.27047v1.8168l1.080028-.18001.421398.0602-.421398-1.37051z" fill="#4ac7fd"/><path d="m86.02642 277.92815v1.31031l.421398.0602z" fill="#72d3fd"/><path d="m88.546491 277.69797-1.260031.46619v.0569l.180755-.0669.405777 1.09674.05143-.0147-.407195-1.10055 1.029267-.38081z" fill="#fff"/><path d="m86.699219 277.64258c-.239373.005-.47818.0243-.726563.043-.00065.00005-.0091.001-.01172.002l-1.056641.16016c-.0412.007-.06637.0361-.06641.0781a.05084763.05084763 0 0 0 0 .004l.03125.48437c.00002.0465.03151.0781.07813.0781.0076.00003.0081.00061.01172 0 .000773.00002.0023.00003.0039 0s.0076.00004.0078 0a.05084763.05084763 0 0 0 .0059-.002l.0039-.002 1.060547-.16601c.355231-.008.517211-.0491 1.130859.008.131082.0254.152991.0397.222656.0625.07109.0232.167942.0459.398438.0742.01319.001.02118 0 .02344 0a.05084763.05084763 0 0 0 .002 0c.394271-.0183.584826-.09.746094-.13086a.05084763.05084763 0 0 0 .002 0c.038-.01.05859-.0355.05859-.0762a.05084763.05084763 0 0 0 0-.004l-.03125-.5293c-.00002-.0463-.0318-.0781-.07813-.0781-.01737-.00003-.03552.002-.05273.008a.05084763.05084763 0 0 0 0 .002c-.110618.0401-.302656.11958-.640625.14063-.124502.00011-.198408-.0186-.275391-.043-.07298-.0231-.15404-.0537-.257813-.0781a.05084763.05084763 0 0 0 -.0039-.002.05084763.05084763 0 0 0 -.01367-.006c-.0004-.00008-.0044.00031-.0078 0 .00015.00002-.0012.00003-.002 0-.002-.00025-.0039.00025-.0059 0 .000475-.00002-.0047.00009-.0039 0-.10475-.0133-.208819-.022-.3125-.0254-.04944-.001-.100356-.002-.150391-.002-.02918.00005-.05751-.0003-.08789 0a.05084763.05084763 0 0 0 -.002 0z" fill="#f6b532"/><path d="m88.515308 277.77851c-.103413.0375-.325849.12806-.690326.14964-.284897.001-.388941-.0866-.583412-.1299-.409863-.0533-.814561-.0152-1.257681.018l-1.067098.16243-.0016.0217.03118.36221 1.081686-.17006c.353017-.007.527418-.0509 1.168431.009.288755.0553.163623.08.615458.13537.392006-.0183.553262-.0876.734523-.13146z" fill="#fee333"/><path d="m88.547541 275.81884-.0039.00066.000933.26784.03919.009v-.24171z" fill="#71ba3a"/><path d="m86.02642 275.99836-1.080028.18001v1.49772l1.080028-.33209zm0 1.27124-1.080028.33207v1.8168l1.080028-.18001z" fill="url(#a)"/><path d="m87.286456 279.41846 1.260037-.36001v-3.24009l-1.260037.36001z" fill="url(#c)"/><g transform="matrix(-.05698666 0 0 .05698666 88.336631 253.12819)"><path d="m35.631297 414.9239c.000003 5.93077-2.332176 10.44408-5.407732 15.00054l-15.006461 22.23218-14.37289323-21.6708c-3.19589677-4.81863-6.04130507-9.32678-6.04130247-15.56192.0000048-11.27446 9.1397475-20.4142 20.4141957-20.4142 11.274447 0 20.414189 9.13976 20.414193 20.4142z" fill="url(#d)"/><circle cx="15.501635" cy="415.66769" fill="url(#e)" r="14.551829"/><circle cx="15.501635" cy="415.66769" fill="#242b2d" r="10.431339"/><path d="m9.7537197 398.27027a16.363499 12.835884 49.535329 0 0 -6.1662878 2.12333 16.363499 12.835884 49.535329 0 0 -4.05761488 12.01991 16.257549 16.257549 0 0 1 15.85004098-12.70341 16.257549 16.257549 0 0 1 1.43927.0722 16.363499 12.835884 49.535329 0 0 -7.0654083-1.51208z" fill="url(#f)"/><path d="m27.764961 414.70417c-.00031 6.07487-4.046187 11.40611-9.896821 13.04135 2.06396-.24852 3.943413-.98556 5.510496-2.16102 2.557064-2.46339 5.095997-4.94603 4.386325-10.88033z" fill="url(#g)"/><circle cx="15.501635" cy="415.66769" fill="#374346" filter="url(#h)" r="10.87987" transform="matrix(.76266667 0 0 .76266667 3.679055 98.6518)"/></g></g></svg>