<svg height="16" viewBox="0 0 4.2333332 4.2333335" width="16" xmlns="http://www.w3.org/2000/svg" xmlns:xlink="http://www.w3.org/1999/xlink"><linearGradient id="a" gradientUnits="userSpaceOnUse" x1="36.583759" x2="36.705959" y1="292.85406" y2="234.86337"><stop offset="0" stop-color="#cdcdcd"/><stop offset=".38350943" stop-color="#d9dbde"/><stop offset="1" stop-color="#f5f5f5"/></linearGradient><linearGradient id="b" gradientTransform="matrix(1.1000154 0 0 1.259077 -6.4 -21.931205)" gradientUnits="userSpaceOnUse" x1="64" x2="63.9991" y1="96" y2="52.364712"><stop offset="0" stop-color="#080808"/><stop offset="1" stop-color="#232323"/></linearGradient><linearGradient id="c" gradientTransform="matrix(1.0731876 0 0 1.0898743 -4.878251 -.979469)" gradientUnits="userSpaceOnUse" x1="64" x2="64" y1="88" y2="56"><stop offset="0" stop-color="#7f7f81"/><stop offset=".44999999" stop-color="#b6b6b7"/><stop offset=".67499995" stop-color="#f5f5f5"/><stop offset="1" stop-color="#cfcfcf"/></linearGradient><linearGradient id="d" gradientTransform="matrix(.85938698 0 0 1.1353881 9.000004 -2.607879)" gradientUnits="userSpaceOnUse" x1="68" x2="68" y1="4" y2="48"><stop offset="0" stop-color="#fff"/><stop offset=".54545456" stop-color="#ebebeb"/><stop offset=".90909094" stop-color="#bababa"/><stop offset="1" stop-color="#7e7e7f"/></linearGradient><linearGradient id="e" gradientTransform="matrix(.90905844 0 0 1 6.010209 3.69403)" gradientUnits="userSpaceOnUse" x1="58.375481" x2="58.375481" y1="35.690582" y2="75.075203"><stop offset="0" stop-color="#6e4388"/><stop offset=".21062189" stop-color="#651d8d"/><stop offset=".346082" stop-color="#ac7ec6"/><stop offset=".5" stop-color="#ca87dc"/><stop offset="1" stop-color="#ebeaeb"/></linearGradient><linearGradient id="f" gradientUnits="userSpaceOnUse" x1="68.0009" x2="67.436577" y1="123.69399" y2="97.321114"><stop offset="0" stop-color="#fefefe"/><stop offset=".5" stop-color="#f7f7f7"/><stop offset=".91002578" stop-color="#8c8c8c"/><stop offset="1" stop-color="#666"/></linearGradient><linearGradient id="g" gradientTransform="matrix(1.0312643 0 0 .6746442 -1.999993 21.891662)" gradientUnits="userSpaceOnUse" x1="52" x2="76" y1="72" y2="72"><stop offset="0"/><stop offset=".66666669" stop-color="#a6a6a6" stop-opacity=".866667"/><stop offset="1" stop-opacity=".737089"/></linearGradient><linearGradient id="h" gradientUnits="userSpaceOnUse" x1="64.255142" x2="64.255142" y1="47.693993" y2="67.693993"><stop offset="0" stop-color="#baaac4"/><stop offset="1" stop-color="#baaac4" stop-opacity="0"/></linearGradient><g transform="matrix(.0625 0 0 .0625 -.548169 -14.19069)"><path d="m13.003906 227.05183c-2.311741.001-4.2313928 1.92067-4.2324217 4.23242v55.0332c.00103 2.31175 1.9206807 8.46472 4.2324217 8.46575h42.333985c2.311741-.001 4.231393-1.92067 4.232421-4.23242v-31.74895c-.000495-1.12149-.447227-2.19918-1.240234-2.99219l-27.517578-27.51758c-.793-.79298-1.870707-1.23973-2.992188-1.24023zm29.63086 0c-1.793653.002-3.306774 1.16574-3.90625 2.61328s-.352535 3.33957.914062 4.60937l.002.002 12.701172 12.70117.002.002c1.269703 1.26651 3.161891 1.51356 4.609375.91406s2.610894-2.11287 2.613281-3.90625v-.002-12.70117c-.001-2.31175-1.92068-4.23139-4.232421-4.23242h-12.701266-.002z" fill="#545b70" stroke-width=".478399"/><path d="m13.004037 231.28443v59.26666h42.333333v-31.75l-27.516667-27.51667zm29.633333-.00001 12.7 12.7v-12.69999z" fill="url(#a)" stroke-width=".478399"/><path d="m4.9921869-1.0000054c-.5479252.00010833-.9920793.44426243-.9921875.99218753v30.01562387c.0001079.547926.4442621.99208.9921875.992188l3.0078128.000003v-31.9999995z" stroke-width=".293002" transform="matrix(2.1166667 0 0 2.1166667 .304037 229.16776)"/></g><g transform="matrix(.02664966 0 0 .02664966 .822177 .82218)"><rect fill="#111012" height="29.538467" rx=".20271" ry=".351644" width="88.615395" x="19.69231" y="19.692301"/><rect fill="#3e3c41" height="19.69231" rx=".168174" ry=".279602" width="68.923096" x="29.538465" y="29.538456"/><rect fill="#636363" fill-opacity=".996078" height="59.076927" rx=".198656" ry=".315411" width="49.230782" x="39.384621" y="-.000009"/><rect fill="#1d1d1d" height="23.2724" rx="8" transform="scale(1 -1)" width="113.77512" x="5.819001" y="-67.694855"/><rect fill="url(#b)" height="63.218903" rx=".2445" ry=".383627" width="127.99999" y="39.384613"/><rect fill="#b6b6b6" height="29.802443" rx="7.687527" ry="3.693984" transform="scale(1 -1)" width="117.26697" x="5.493962" y="-69.625862"/><rect fill="url(#c)" height="38.616779" rx=".221498" ry=".271696" width="117.47775" x="5.502564" y="59.076923"/><rect fill="#28232c" height="19.604076" rx=".23216" ry=".352081" width="98.00779" x="14.482052" y="43.957134"/><rect fill="url(#d)" height="39.384621" rx=".177371" ry=".283042" width="29.538465" x="49.230778" y="9.846146"/><path d="m19.879936 39.036896h87.621894c.10394 0 .18325.155388.18762.347716l.49907 21.961351c.004.192706-.12556.264567-.18762.347717l-7.44861 9.999987.36375 6h-73.452194l.363764-6-7.44861-9.999987c-.06776-.09109-.183244-.155011-.187623-.347717l-.499066-21.961351c-.0044-.192706.08368-.347716.187625-.347716z" style="stroke:#1f1f1f;stroke-width:3;stroke-linecap:square;stroke-linejoin:round;stroke-opacity:.924883;fill:url(#e)"/><path d="m19.692311 88.615388v39.384622h88.615399v-39.384622z" fill="#424242" fill-rule="evenodd"/><path d="m29.538466 98.461544v19.692306h68.923087v-19.692306z" fill="url(#f)" fill-rule="evenodd"/><rect height="19.692314" rx=".206393" ry=".266329" width="88.615395" x="19.69231" y="78.769234"/><rect fill="url(#g)" height="8.000092" rx=".212846" ry=".168183" width="23.999996" x="52" y="68.000046"/><rect fill="#986aae" height="19.69231" rx=".281181" ry=".640314" width="68.923088" x="29.538465" y="39.384613"/><rect fill="url(#h)" height="27.999975" opacity=".92" rx=".30959" ry="1.007805" width="48" x="40" y="44.000023"/><rect fill="#c9b1d5" height="16.615389" rx=".257991" ry=".525472" width="48.615379" x="39.384621" y="39.384613"/><rect fill="#0c0c0c" height="9.846154" rx=".257991" ry=".266553" width="29.538465" x="49.230778" y="39.384613"/><path d="m28.000902 87.693995-.000903-7.693984h71.999997l.000904 7.693984z" fill="#545156" fill-rule="evenodd"/></g></svg>