<svg height="24" viewBox="0 0 6.3499999 6.3500002" width="24" xmlns="http://www.w3.org/2000/svg"><g fill="#555" transform="matrix(-1 0 0 1 6.35 0)"><path d="m.79375156 1.0583375h4.76249704v.2645839h-4.76249704z"/><path d="m2.3812505 1.8520887h3.1749981v.2645826h-3.1749981z"/><path d="m.79375156 2.64584h4.76249704v.2645813h-4.76249704z"/><path d="m2.3812505 3.4395838h3.1749981v.2645857h-3.1749981z"/><path d="m1.3229182 4.233335h4.2333305v.2645844h-4.2333305z"/><path d="m.79375156 5.0270862h4.76249704v.2645834h-4.76249704z"/></g><g fill="#fff" fill-opacity=".392157" transform="matrix(-1 0 0 1 6.35 -.264589)"><path d="m.79375156 1.0583375h4.76249704v.2645839h-4.76249704z"/><path d="m2.3812505 1.8520887h3.1749981v.2645826h-3.1749981z"/><path d="m.79375156 2.64584h4.76249704v.2645813h-4.76249704z"/><path d="m2.3812505 3.4395838h3.1749981v.2645857h-3.1749981z"/><path d="m1.3229182 4.233335h4.2333305v.2645844h-4.2333305z"/><path d="m.79375156 5.0270862h4.76249704v.2645834h-4.76249704z"/></g></svg>