<svg height="24" viewBox="0 0 6.3499999 6.3500002" width="24" xmlns="http://www.w3.org/2000/svg"><circle cx="3.37343522494" cy="3.37343519377" fill="#4d4d4d" r="2.57968738769"/><g transform="matrix(.26458318464 0 0 .26458318464 -297.12692496222 -91.28120564704)"><path d="m1144.5 357a9.5 9.5 0 0 1 -4.75 8.22724l-4.75-8.22724z" fill="#fff"/><path d="m1130.25 348.77276a9.5 9.5 0 0 1 9.5 0l-4.75 8.22724z" fill="#fff"/><path d="m1139.75 365.22724a9.5 9.5 0 0 1 -9.5 0l4.75-8.22724z" fill="#0968ef"/><path d="m1130.25 365.22724a9.5 9.5 0 0 1 -4.75-8.22724h9.5z" fill="#fff"/><path d="m1125.5 357a9.5 9.5 0 0 1 4.75-8.22724l4.75 8.22724z" fill="#0968ef"/><path d="m1139.75 348.77276a9.5 9.5 0 0 1 4.75 8.22724h-9.5z" fill="#0968ef"/><circle cx="1135" cy="357" fill="none" r="9.5" stroke="#4a4a4a" stroke-width=".999922"/></g></svg>