<svg height="24" width="24" xmlns="http://www.w3.org/2000/svg" xmlns:xlink="http://www.w3.org/1999/xlink"><filter id="a"><feGaussianBlur stdDeviation="2.2427184"/></filter><linearGradient id="b"><stop offset="0" stop-color="#fff"/><stop offset=".49140647" stop-color="#fff"/><stop offset="1" stop-color="#dcdcdc"/></linearGradient><linearGradient id="c" gradientUnits="userSpaceOnUse" x1="888" x2="888" xlink:href="#b" y1="-864" y2="352"/><linearGradient id="d" gradientTransform="matrix(8.0000001 0 0 8.0000039 8 -.000003)" gradientUnits="userSpaceOnUse" x1="3.5" x2="3.5" y1="8" y2="5"><stop offset="0" stop-color="#0057ae"/><stop offset="1" stop-color="#0057ae"/></linearGradient><linearGradient id="e" gradientTransform="matrix(7.5452306 0 0 7.4748734 9.591692 3.506601)" gradientUnits="userSpaceOnUse" x1="3.5" x2="3.5" y1="7.82534" y2="4.878163"><stop offset="0" stop-color="#0968ef"/><stop offset="1" stop-color="#aecffc"/></linearGradient><linearGradient id="f" gradientTransform="matrix(8.0889801 0 0 7.9869061 48.218484 -.133794)" gradientUnits="userSpaceOnUse" x1="-1.147762" x2="-1.850474" y1="7.029993" y2="4.143643"><stop offset="0" stop-color="#b3b3b3"/><stop offset=".52879584" stop-color="#fff"/><stop offset="1" stop-color="#c5c5c5"/></linearGradient><filter id="g"><feGaussianBlur stdDeviation="1.5999062"/></filter><linearGradient id="h" gradientTransform="matrix(.08097133 0 0 .117107 -1.25515 -48.3532)" gradientUnits="userSpaceOnUse" x1="399.77466" x2="399.77466" y1="731.09662" y2="480.60214"><stop offset="0" stop-color="#cbcbcd"/><stop offset=".5" stop-color="#e0e0e2"/><stop offset="1" stop-color="#f2f2f2"/></linearGradient><linearGradient id="i" gradientTransform="matrix(.08097133 0 0 .117107 78.3735 188.5229)" gradientUnits="userSpaceOnUse" x1="-333.0289" x2="-333.0289" xlink:href="#b" y1="-1473.6504" y2="-776.61371"/><g transform="matrix(.25 0 0 .25 2 -1)"><path d="m-2.611641 15.99895h85.223281c.76597 0 1.38261.72808 1.38261 1.63246v68.73718c0 .90439-.61664 1.63247-1.38261 1.63247h-85.223281c-.765966 0-1.38261-.72808-1.38261-1.63247v-68.73718c0-.90438.616644-1.63246 1.38261-1.63246z" style="opacity:.4;fill:none;stroke:#000;stroke-width:4;stroke-linecap:round;stroke-linejoin:round;stroke-dashoffset:4;filter:url(#g)"/><path d="m-2.617195 16h85.234385c.76607 0 1.38281.72806 1.38281 1.63242v68.73516h-88.000003v-68.73516c0-.90436.616732-1.63242 1.382808-1.63242z" fill="url(#h)"/><path d="m52.54186 30.93328v-1.92136z" fill="#fff" fill-opacity=".756881"/><path d="m-2.625 16c-.766076 0-1.375.72064-1.375 1.625v68.75c0 .90436.608924 1.625 1.375 1.625h85.25c.76608 0 1.375-.72064 1.375-1.625v-68.75c0-.90436-.60892-1.625-1.375-1.625zm.9375 2.4375h83.375c.72777 0 1.3125.68271 1.3125 1.53125v65.5c0 .84854-.58473 1.53125-1.3125 1.53125h-83.375c-.727772 0-1.3125-.68271-1.3125-1.53125v-65.5c0-.84854.584728-1.53125 1.3125-1.53125z" fill="url(#i)"/><path d="m-4 36h88v52h-88z" fill="#fff"/><g transform="matrix(.25 0 0 .25 2 72.000002)"><path d="m20.54186 14.933287v-1.92136z" fill="#fff" fill-opacity=".756881"/><g transform="translate(16)"><g transform="matrix(.1875 0 0 .1875 -66.500001 106)"><rect filter="url(#a)" height="72.000015" rx="2.12132" stroke="#4c4c4c" stroke-linecap="round" stroke-linejoin="round" stroke-width=".3" transform="matrix(16 0 0 16 792 -1235.2)" width="63.999996" x="4.666667" y="7.2"/><rect fill="url(#c)" height="1109.3334" rx="33.941124" width="938.66669" x="909.33331" y="-1077.3334"/></g><path d="m132.54186 78.933294v-1.92136z" fill="#fff" fill-opacity=".756881"/><g fill="#bbb" fill-rule="evenodd"><path d="m-96 136h160v16h-160z" transform="matrix(0 1 1 0 0 0)"/><path d="m-200-31.999989h48v16h-48z" transform="scale(-1 1)"/><path d="m-200 48.000004h48v16h-48z" transform="scale(-1 1)"/></g><g transform="matrix(2.6666667 0 0 2.6666667 136 -170.66668)"><rect fill="url(#d)" height="24" rx="1.985773" ry="2.276042" width="24" x="24" y="40"/><rect fill="url(#e)" height="20" rx=".881566" ry="1.001006" width="20" x="26" y="42"/><g fill-rule="evenodd"><path d="m26 41.967068 19.994108.088388.005892 5.944544h-6l-7.82985 4h-6.018445z" fill="url(#f)"/><path d="m25.911612 56h6.088388l8-4h6.082368l-.082368-4h-6l-8 4h-5.914433z" fill="#0057ae" opacity=".8"/></g></g><g transform="matrix(2.6666667 0 0 2.6666667 136 -90.66668)"><rect fill="url(#d)" height="24" rx="1.985773" ry="2.276042" width="24" x="24" y="40"/><rect fill="url(#e)" height="20" rx=".881566" ry="1.001006" width="20" x="26" y="42"/><g fill-rule="evenodd"><path d="m26 41.967068 19.994108.088388.005892 5.944544h-6l-7.82985 4h-6.018445z" fill="url(#f)"/><path d="m25.911612 56h6.088388l8-4h6.082368l-.082368-4h-6l-8 4h-5.914433z" fill="#0057ae" opacity=".8"/></g></g></g></g></g></svg>