<?xml version="1.0" encoding="UTF-8" standalone="no"?>
<!-- Created with Inkscape (http://www.inkscape.org/) -->

<svg
   xmlns:osb="http://www.openswatchbook.org/uri/2009/osb"
   xmlns:dc="http://purl.org/dc/elements/1.1/"
   xmlns:cc="http://creativecommons.org/ns#"
   xmlns:rdf="http://www.w3.org/1999/02/22-rdf-syntax-ns#"
   xmlns:svg="http://www.w3.org/2000/svg"
   xmlns="http://www.w3.org/2000/svg"
   xmlns:sodipodi="http://sodipodi.sourceforge.net/DTD/sodipodi-0.dtd"
   xmlns:inkscape="http://www.inkscape.org/namespaces/inkscape"
   width="16"
   height="16"
   viewBox="0 0 4.2333332 4.2333335"
   version="1.1"
   id="svg823"
   inkscape:version="0.92.2 (unknown)"
   sodipodi:docname="airplane-mode-symbolic.svg">
  <defs
     id="defs817">
    <linearGradient
       osb:paint="solid"
       id="linearGradient6882">
      <stop
         style="stop-color:#555555;stop-opacity:1;"
         offset="0"
         id="stop6884" />
    </linearGradient>
    <linearGradient
       osb:paint="solid"
       id="linearGradient5606">
      <stop
         style="stop-color:#000000;stop-opacity:1;"
         offset="0"
         id="stop5608" />
    </linearGradient>
  </defs>
  <sodipodi:namedview
     id="base"
     pagecolor="#ffffff"
     bordercolor="#666666"
     borderopacity="1.0"
     inkscape:pageopacity="0.0"
     inkscape:pageshadow="2"
     inkscape:zoom="3.78125"
     inkscape:cx="2.9154338"
     inkscape:cy="-30.634955"
     inkscape:document-units="mm"
     inkscape:current-layer="layer1"
     showgrid="false"
     units="px"
     inkscape:window-width="1366"
     inkscape:window-height="716"
     inkscape:window-x="0"
     inkscape:window-y="27"
     inkscape:window-maximized="1" />
  <metadata
     id="metadata820">
    <rdf:RDF>
      <cc:Work
         rdf:about="">
        <dc:format>image/svg+xml</dc:format>
        <dc:type
           rdf:resource="http://purl.org/dc/dcmitype/StillImage" />
        <dc:title></dc:title>
      </cc:Work>
    </rdf:RDF>
  </metadata>
  <g
     inkscape:label="Layer 1"
     inkscape:groupmode="layer"
     id="layer1"
     transform="translate(0,-292.76665)">
    <g
       id="layer9"
       inkscape:label="status"
       style="display:inline;fill:#bebebe;fill-opacity:1"
       transform="matrix(0.18708867,-0.18708867,0.18708867,0.18708867,23.67315,418.1338)">
      <path
         inkscape:connector-curvature="0"
         d="m 271.49699,-394.00336 c -0.79399,9.7e-4 -0.78072,0.0333 -0.53125,1.03125 l 1.625,4.96875 h -4.5 l -1.21875,-1.78125 c -0.13926,-0.20883 -0.1227,-0.21873 -0.34375,-0.21875 h -0.21875 c -0.42773,0 -0.28125,0.4375 -0.28125,0.4375 l 0.28125,2.5625 -0.28125,2.5625 c 0,0 -0.13986,0.43749 0.25,0.4375 h 0.25 c 0.21159,0 0.20422,-0.009 0.34375,-0.21875 l 1.21875,-1.78125 h 4.5 l -1.625,4.9375 c -0.26171,1.04691 -0.2647,1.06251 0.53125,1.0625 0.43199,0 0.43388,-0.0117 0.71875,-0.5 l 3.6875,-5.5 h 3.09375 c 0.554,0 1,-0.446 1,-1 0,-0.554 -0.446,-1 -1,-1 h -3.09375 l -3.6875,-5.5 c -0.2665,-0.45685 -0.28331,-0.49822 -0.65625,-0.5 z"
         id="path6273"
         style="fill:#bebebe;fill-opacity:1;stroke:none" />
    </g>
    <g
       id="layer1-0"
       inkscape:label="places"
       style="display:inline"
       transform="matrix(0.18708867,-0.18708867,0.18708867,0.18708867,-46.672148,257.61169)" />
    <g
       id="layer14"
       inkscape:label="mimetypes"
       style="display:inline"
       transform="matrix(0.18708867,-0.18708867,0.18708867,0.18708867,23.67315,418.1338)" />
    <g
       id="layer15"
       inkscape:label="emblems"
       style="display:inline"
       transform="matrix(0.18708867,-0.18708867,0.18708867,0.18708867,23.67315,418.1338)" />
    <g
       id="g71291"
       inkscape:label="emotes"
       style="display:inline"
       transform="matrix(0.18708867,-0.18708867,0.18708867,0.18708867,23.67315,418.1338)" />
    <g
       id="layer2"
       inkscape:label="categories"
       style="display:inline"
       transform="matrix(0.18708867,-0.18708867,0.18708867,0.18708867,-18.608848,285.67499)" />
    <g
       id="layer12"
       inkscape:label="actions"
       style="display:inline"
       transform="matrix(0.18708867,-0.18708867,0.18708867,0.18708867,23.67315,418.1338)" />
  </g>
</svg>
