<svg height="16.072" width="16" xmlns="http://www.w3.org/2000/svg"><g fill="#bebebe" transform="translate(-201 -397)"><path d="m208.41 403a.50005.50005 0 0 0 -.41.5v2.5h-1.5a.50005.50005 0 1 0 0 1h2a.50005.50005 0 0 0 .5-.5v-3a.50005.50005 0 0 0 -.59375-.5z"/><path d="m208.47 400.06c-3.5601 0-6.4433 2.9142-6.4433 6.4743s2.8832 6.4743 6.4433 6.4743 6.4743-2.9142 6.4743-6.4743-2.9142-6.4743-6.4743-6.4743zm0 1.9826c2.4886 0 4.4917 2.0031 4.4917 4.4917s-2.0031 4.4917-4.4917 4.4917-4.4608-2.0031-4.4608-4.4917 1.9721-4.4917 4.4608-4.4917z"/><path d="m205.28 398c-1.8062 0-3.2812 1.4751-3.2812 3.2812 0 .40491.0842.76711.21875 1.125 1.206-1.8223 3.184-3.1023 5.4688-3.3438-.6-.65-1.46-1.06-2.41-1.06zm6.4375 0c-.95265 0-1.8085.41251-2.4062 1.0625 2.2873.25122 4.2705 1.541 5.4688 3.375.14145-.3658.21875-.74054.21875-1.1562 0-1.8062-1.4751-3.2812-3.2812-3.2812z"/><path d="m204.91 409.91a1.0001 1.0001 0 0 0 -.46875.28125l-1.125 1.0938a1.0001 1.0001 0 1 0 1.375 1.4375l1.125-1.0938a1.0001 1.0001 0 0 0 -.90625-1.7188z"/><path d="m211.94 410a1.0001 1.0001 0 0 0 -.59375 1.6562l.90625 1a1.0001 1.0001 0 1 0 1.5-1.3125l-.90625-1a1.0001 1.0001 0 0 0 -.91-.35z"/></g></svg>