<svg height="16.072" width="16" xmlns="http://www.w3.org/2000/svg"><g fill="#bebebe"><g opacity=".35"><path d="m7.41 6a.50005.50005 0 0 0 -.41.5v2.5h-1.5a.50005.50005 0 1 0 0 1h2a.50005.50005 0 0 0 .5-.5v-3a.50005.50005 0 0 0 -.59375-.5z"/><path d="m7.46875 3.0625c-3.5601 0-6.4375 2.90865-6.4375 6.46875s2.8774 6.46875 6.4375 6.46875c.890025 0 1.7261547-.171167 2.5-.5a1.1335515 1.1335515 0 0 1 -.09375-.46875v-1.40625a1.1335515 1.1335515 0 0 1 .03125-.3125c-.6984299.446834-1.5433015.71875-2.4375.71875-2.4886 0-4.46875-2.0114-4.46875-4.5s1.98005-4.5 4.46875-4.5c2.2741412 0 4.13231 1.6876241 4.4375 3.875h.46875a1.1335515 1.1335515 0 0 1 .78125.3125l.3125.3125.3125-.3125a1.1335515 1.1335515 0 0 1 .125-.125c-.229201-3.3561743-3.025905-6.03125-6.4375-6.03125z"/><path d="m4.28 1c-1.8062 0-3.2812 1.4751-3.2812 3.2812 0 .40491.0842.76711.21875 1.125 1.206-1.8223 3.184-3.1023 5.4688-3.3438-.6-.65-1.46-1.06-2.41-1.06zm6.4375 0c-.95265 0-1.8085.41251-2.4062 1.0625 2.2873.25122 4.2705 1.541 5.4688 3.375.14145-.3658.21875-.74054.21875-1.1562 0-1.8062-1.4751-3.2812-3.2812-3.2812z"/><path d="m3.91 12.91a1.0001 1.0001 0 0 0 -.46875.28125l-1.125 1.0938a1.0001 1.0001 0 1 0 1.375 1.4375l1.125-1.0938a1.0001 1.0001 0 0 0 -.90625-1.7188z"/></g><path d="m11 10.036h1.375l1.125 1.0938 1.0938-1.0938h1.4062v1.4688l-1.0938 1.0625 1.0938 1.0625v1.4062h-1.4375l-1.0625-1.0625-1.0625 1.0625h-1.4375v-1.4062l1.0625-1.0625-1.0625-1.0625z"/></g></svg>