<svg height="16.072" width="16" xmlns="http://www.w3.org/2000/svg"><g fill="#bebebe"><path d="m7.41 6a.50005.50005 0 0 0 -.41.5v2.5h-1.5a.50005.50005 0 1 0 0 1h2a.50005.50005 0 0 0 .5-.5v-3a.50005.50005 0 0 0 -.59375-.5z"/><path d="m7.46875 3.0625c-3.5601 0-6.4375 2.90865-6.4375 6.46875 0 3.210024 2.3354956 5.878008 5.40625 6.375-.0082558-.037678-.0332701-.047943-.0625-.15625-.0899381-.333252-.0625717-.949426.125-1.34375.0764104-.159892.1650113-.297809.25-.4375-2.1373529-.343861-3.75-2.195198-3.75-4.4375 0-2.4886 1.98005-4.5 4.46875-4.5 1.2599946 0 2.4046368.5137443 3.21875 1.34375.321388-.1565988.636663-.21875.96875-.21875h.0625c.415109 0 .846415.0833858 1.25.375.249687.1804134.32886.5706339.46875.90625-.00033-.0002602.000648.0316537 0 .03125-.001728-.0010767.03505.0020639.03125 0 .003608.009259-.003466.0219252 0 .03125.056313.0273926.128051.0629497.1875.09375-.83185-2.616573-3.30523-4.53125-6.1875-4.53125z"/><path d="m4.28 1c-1.8062 0-3.2812 1.4751-3.2812 3.2812 0 .40491.0842.76711.21875 1.125 1.206-1.8223 3.184-3.1023 5.4688-3.3438-.6-.65-1.46-1.06-2.41-1.06zm6.4375 0c-.95265 0-1.8085.41251-2.4062 1.0625 2.2873.25122 4.2705 1.541 5.4688 3.375.14145-.3658.21875-.74054.21875-1.1562 0-1.8062-1.4751-3.2812-3.2812-3.2812z"/><path d="m3.91 12.91a1.0001 1.0001 0 0 0 -.46875.28125l-1.125 1.0938a1.0001 1.0001 0 1 0 1.375 1.4375l1.125-1.0938a1.0001 1.0001 0 0 0 -.90625-1.7188z"/></g><path d="m11.659263 7.589681c-.326811 0-.583633.1682926-.583633.404054v.4265014c-.161435.1385047-.314664.2898285-.44895.3367117-.528282.2505845-.8129741.4555667-.9203447 1.1448196l-.2244744 3.0752993c-.6424818.642482-1.2619816 1.229972-1.6611108 2.065166-.1454595.305793.00325.401353.022448.583633l3.2548794-.02245c.05483.194271.275225.336712.561186.336712h.04489c.285959 0 .506359-.142441.561186-.336712l3.277327.02245c.0192-.18228.145459-.27784 0-.583633-.399129-.835194-1.01863-1.422684-1.661111-2.065166l-.2244705-3.0752993c-.107371-.6892522-.392063-.8942351-.920345-1.1448196-.134285-.0468832-.287514-.198207-.448949-.3367117v-.4265014c0-.2357614-.256823-.404054-.583634-.404054h-.04489z" fill="#f57900"/></svg>