<?xml version="1.0" encoding="UTF-8" standalone="no"?>
<!-- Created with Inkscape (http://www.inkscape.org/) -->

<svg
   xmlns:dc="http://purl.org/dc/elements/1.1/"
   xmlns:cc="http://creativecommons.org/ns#"
   xmlns:rdf="http://www.w3.org/1999/02/22-rdf-syntax-ns#"
   xmlns:svg="http://www.w3.org/2000/svg"
   xmlns="http://www.w3.org/2000/svg"
   xmlns:sodipodi="http://sodipodi.sourceforge.net/DTD/sodipodi-0.dtd"
   xmlns:inkscape="http://www.inkscape.org/namespaces/inkscape"
   id="svg7384"
   height="16.001"
   width="16"
   version="1.1"
   inkscape:version="0.92.2 (unknown)"
   sodipodi:docname="audio-input-microphone-high-symbolic.svg">
  <sodipodi:namedview
     pagecolor="#ffffff"
     bordercolor="#666666"
     borderopacity="1"
     objecttolerance="10"
     gridtolerance="10"
     guidetolerance="10"
     inkscape:pageopacity="0"
     inkscape:pageshadow="2"
     inkscape:window-width="1366"
     inkscape:window-height="716"
     id="namedview4772"
     showgrid="false"
     inkscape:zoom="29.498157"
     inkscape:cx="8.0003424"
     inkscape:cy="7.7319435"
     inkscape:window-x="0"
     inkscape:window-y="27"
     inkscape:window-maximized="1"
     inkscape:current-layer="svg7384" />
  <metadata
     id="metadata90">
    <rdf:RDF>
      <cc:Work
         rdf:about="">
        <dc:format>image/svg+xml</dc:format>
        <dc:type
           rdf:resource="http://purl.org/dc/dcmitype/StillImage" />
        <dc:title>Gnome Symbolic Icon Theme</dc:title>
      </cc:Work>
    </rdf:RDF>
  </metadata>
  <title
     id="title9167">Gnome Symbolic Icon Theme</title>
  <defs
     id="defs7386">
    <clipPath
       id="clipPath6810-7"
       clipPathUnits="userSpaceOnUse">
      <rect
         id="rect6812-2"
         style="stroke-linejoin:round;color:#bebebe;stroke:#fff;stroke-linecap:round;stroke-width:2;fill:none"
         height="11"
         width="14"
         y="281"
         x="21" />
    </clipPath>
    <linearGradient
       x1="15"
       y1="2"
       x2="15"
       y2="21"
       id="linearGradient3696"
       gradientUnits="userSpaceOnUse">
      <stop
         id="stop3700"
         style="stop-color:#eeeeec;stop-opacity:1"
         offset="0" />
      <stop
         id="stop3702"
         style="stop-color:#babdb6;stop-opacity:1"
         offset="0.79220003" />
      <stop
         id="stop3704"
         style="stop-color:#a1a59b;stop-opacity:1"
         offset="1" />
    </linearGradient>
    <linearGradient
       x1="22.146999"
       y1="15.722"
       x2="22.402"
       y2="34.612"
       id="linearGradient4117"
       gradientUnits="userSpaceOnUse">
      <stop
         id="stop4113"
         style="stop-color:#ffffff;stop-opacity:1"
         offset="0" />
      <stop
         id="stop4115"
         style="stop-color:#ffffff;stop-opacity:0"
         offset="1" />
    </linearGradient>
    <linearGradient
       id="linearGradient5841">
      <stop
         id="stop5843"
         style="stop-color:#37e700;stop-opacity:1"
         offset="0" />
      <stop
         id="stop5849"
         style="stop-color:#3dfe00;stop-opacity:1"
         offset="0.5" />
      <stop
         id="stop5845"
         style="stop-color:#2aad00;stop-opacity:1"
         offset="1" />
    </linearGradient>
    <clipPath
       id="clipPath6810-7-6"
       clipPathUnits="userSpaceOnUse">
      <rect
         id="rect6812-2-2"
         style="stroke-linejoin:round;color:#bebebe;stroke:#fff;stroke-linecap:round;stroke-width:2;fill:none"
         height="11"
         width="14"
         y="281"
         x="21" />
    </clipPath>
  </defs>
  <g
     id="g904"
     transform="matrix(1.0498069,0,0,1.0498069,-0.23208887,-0.38686972)">
    <path
       inkscape:connector-curvature="0"
       id="path4868"
       d="m 4.6896796,0.96102052 c -1.9716772,0 -3.5657623,1.54817808 -3.6489321,3.49938558 H 0.68183617 v 1.286099 H 1.2202032 c 0.00413,0.012648 0.023138,0.018234 0.029909,0.029909 h 6.9090435 c 0.00297,-0.00865 -0.00287,-0.021229 0,-0.029909 0.00163,-0.00394 0.028244,0.00394 0.029909,0 H 8.6377044 V 4.4604061 H 8.3386116 C 8.2567224,2.5080165 6.6622065,0.96102052 4.6896796,0.96102052 Z m 0,0.71969188 c 1.5958706,0 2.8630913,1.2324921 2.9292401,2.809603 a 0.72046651,0.72046651 0 0 0 0.2990928,0.555191 v 0.011216 H 1.4426535 A 0.72046651,0.72046651 0 0 0 1.7604395,4.4903152 C 1.8276205,2.9142044 3.0951091,1.6807122 4.6896796,1.6807124 Z"
       style="fill:#bebebe;fill-opacity:1;stroke:none;stroke-width:0.95709693" />
    <path
       inkscape:connector-curvature="0"
       id="path815"
       d="m 1.5641598,5.9000624 c 0.2504839,0.495435 0.5506384,1.0000604 0.8374598,1.495464 L 2.2819825,7.4254357 2.6109846,8.1133491 3.298898,14.244751 c 0.085785,0.208552 0.3173877,0.218204 0.4785485,0.329002 h 1.824466 c 0.2356507,-0.0025 0.322937,-0.22202 0.4785485,-0.329002 L 6.7683744,8.1133491 7.0973765,7.4254357 6.9179208,7.3955264 C 7.2384736,6.9155253 7.5001324,6.4116871 7.7553806,5.9000624 Z m 0.9664435,0.566407 H 6.7908068 C 6.6764165,6.6699932 6.5746542,6.8901027 6.4468497,7.081479 A 0.56624305,0.56624305 0 0 0 6.3889004,7.5936753 L 6.2580473,7.8684669 a 0.56624305,0.56624305 0 0 0 -0.052341,0.181325 L 5.5402246,13.981175 c -0.00494,0.006 -0.024236,0.02164 -0.02804,0.02617 H 3.8989529 c -0.01856,-0.0075 -0.045952,-0.02481 -0.059819,-0.02991 L 3.1736529,8.0497919 A 0.56624305,0.56624305 0 0 0 3.1213116,7.8684669 L 2.953072,7.5170328 A 0.56624305,0.56624305 0 0 0 2.8913841,7.1113883 C 2.7643833,6.8920301 2.6545398,6.6828838 2.5306033,6.4664694 Z"
       style="fill:#bebebe;fill-opacity:1;stroke:none;stroke-width:0.95709693" />
  </g>
  <g
     id="g910"
     transform="translate(0,0.63019126)">
    <rect
       y="12.462807"
       x="9.5919828"
       height="1.8197588"
       width="5.0000005"
       id="rect2988"
       style="fill:#bebebe;fill-opacity:1;stroke:none;stroke-width:0.95387602" />
    <rect
       style="fill:#bebebe;fill-opacity:1;stroke:none;stroke-width:0.95387602"
       id="rect2990"
       width="5.0000005"
       height="1.8197588"
       x="9.5919828"
       y="9.0510368" />
    <rect
       y="5.639266"
       x="9.5919828"
       height="1.8197588"
       width="5.0000005"
       id="rect2992"
       style="fill:#bebebe;fill-opacity:1;stroke:none;stroke-width:0.95387602" />
    <rect
       style="fill:#bebebe;fill-opacity:1;stroke:none;stroke-width:0.95387602"
       id="rect2994"
       width="5.0000005"
       height="1.8197588"
       x="9.5919828"
       y="2.2269411" />
  </g>
</svg>
