<svg height="16.001" width="16" xmlns="http://www.w3.org/2000/svg"><g fill="#bebebe"><g opacity=".35" transform="matrix(1.0498069 0 0 1.0498069 -.232089 -.38687)"><path d="m4.6896796.96102052c-1.9716772 0-3.5657623 1.54817808-3.6489321 3.49938558h-.35891133v1.286099h.53836703c.00413.012648.023138.018234.029909.029909h6.9090435c.00297-.00865-.00287-.021229 0-.029909.00163-.00394.028244.00394.029909 0h.4486397v-1.286099h-.2990928c-.0818892-1.9523896-1.6764051-3.49938558-3.648932-3.49938558zm0 .71969188c1.5958706 0 2.8630913 1.2324921 2.9292401 2.809603a.72046651.72046651 0 0 0 .2990928.555191v.011216h-6.475359a.72046651.72046651 0 0 0 .317786-.5664072c.067181-1.5761108 1.3346696-2.809603 2.9292401-2.8096028z"/><path d="m1.5641598 5.9000624c.2504839.495435.5506384 1.0000604.8374598 1.495464l-.1196371.0299093.3290021.6879134.6879134 6.1314019c.085785.208552.3173877.218204.4785485.329002h1.824466c.2356507-.0025.322937-.22202.4785485-.329002l.6879134-6.1314019.3290021-.6879134-.1794557-.0299093c.3205528-.4800011.5822116-.9838393.8374598-1.495464zm.9664435.566407h4.2602035c-.1143903.2035238-.2161526.4236333-.3439571.6150096a.56624305.56624305 0 0 0 -.0579493.5121963l-.1308531.2747916a.56624305.56624305 0 0 0 -.052341.181325l-.6654817 5.9313831c-.00494.006-.024236.02164-.02804.02617h-1.6132317c-.01856-.0075-.045952-.02481-.059819-.02991l-.665481-5.9276431a.56624305.56624305 0 0 0 -.0523413-.181325l-.1682396-.3514341a.56624305.56624305 0 0 0 -.0616879-.4056445c-.1270008-.2193582-.2368443-.4285045-.3607808-.6449189z"/></g><path d="m9.591983 13.092998h5.000001v1.819759h-5.000001z" opacity=".35"/><path d="m9.591983 9.681228h5.000001v1.819759h-5.000001z" opacity=".35"/><path d="m9.591983 6.269457h5.000001v1.819759h-5.000001z" opacity=".35"/><path d="m9.591983 2.857132h5.000001v1.819759h-5.000001z" opacity=".35"/></g><g fill="#555" transform="translate(-405.00027 216.92432)"><path d="m407.34402-414.0625 12.71875 12.71875-1.40625 1.40625-12.71875-12.71875z"/><path d="m413.0002-415c-1.24595 0-2.31105.7515-2.76562 1.82813-.00023.00053.00022.001 0 .002l5.76562 5.76362v-4.59375c0-1.66208-1.33792-3-3-3zm-3 4.40625v3.59375c0 1.66208 1.33791 3 3 3 .98363 0 1.84418-.47608 2.39062-1.20312zm-3 2.59375v1c0 2.96947 2.16237 5.43216 5 5.90625v2.09375h2v-2.09375c1.39887-.23371 2.63093-.95383 3.52344-1.97656l-1.41797-1.41797c-.72909.90441-1.8347 1.48828-3.10547 1.48828-2.23342 0-4-1.76659-4-4v-1zm10 0v1c0 .18587-.029.36236-.0527.54102l1.63671 1.63671c.26447-.6756.41599-1.4083.41599-2.17773v-1z"/></g></svg>