<svg height="16" viewBox="0 0 16 14.545455" width="16" xmlns="http://www.w3.org/2000/svg"><g fill="#bebebe"><path d="m6 1-3.703125 4.5097656-.296875.9003906v-.4101562h-2v4h2v-.4101562l.296875.9003902 3.703125 4.509766h1v-14zm-.0019531 1.5800781v10.8398439l-2.8085938-3.419922-.2382812-.7246094a1.0012139 1.0012139 0 0 0 -1.7558594-.2773437h-.1933594v-1.9960938h.1914063a1.0012139 1.0012139 0 0 0 1.7578125-.2773437l.2382812-.7246094z" stroke-width=".770655" transform="translate(0 -.727273)"/><path d="m16-.7272725-2 .73736v14.5252805l2 .737359zm-3 1.10605-2 .73736v12.3131795l2 .737361zm-3.03125 1.11793-2 .74133v10.0693805l2 .74133z"/><path d="m15.999998-.7272725h-2v4.42187l2-.36328zm-3 0h-2v4.9668l2-.36328zm-3.03125 0-2-.0156v5.53516l2-.36524zm-2 10.48047v5.5195295h2v-5.154299zm3.03125.5527305v4.966799h2v-4.603519zm3 .54492v4.421879h2v-4.058589z" opacity=".35"/></g></svg>