<svg height="16" viewBox="0 0 16 14.545455" width="16" xmlns="http://www.w3.org/2000/svg"><g fill="#bebebe"><path d="m6 1-3.703125 4.5097656-.296875.9003906v-.4101562h-2v4h2v-.4101562l.296875.9003902 3.703125 4.509766h1v-14zm-.0019531 1.5800781v10.8398439l-2.8085938-3.419922-.2382812-.7246094a1.0012139 1.0012139 0 0 0 -1.7558594-.2773437h-.1933594v-1.9960938h.1914063a1.0012139 1.0012139 0 0 0 1.7578125-.2773437l.2382812-.7246094z" stroke-width=".770655" transform="translate(0 -.727273)"/><g stroke-width=".778641"><path d="m16 7.2723385c0-2.5108828-.938028-4.6577505-2.293875-5.6447554l-.899564.8096306c1.167494.8267607 1.979071 2.6883344 1.979071 4.8351248s-.811499 4.0084435-1.979071 4.8351255l.899564.809631c1.355613-.986538 2.293875-3.1332512 2.293875-5.6443675z"/><path d="m13 7.2723224c0-1.6980602-.645307-3.1804355-1.619184-4.1155051l-.831744.7421224c.751622.79943 1.237027 2.0110729 1.237027 3.3733828s-.485226 2.5739527-1.236871 3.3733835l.832055.742138c.974002-.934369 1.618717-2.4169013 1.618717-4.1151165z"/><path d="m9.999984 7.2728832c0-1.0322436-.342119-1.9793048-.8995634-2.7211932l-.8546358.7646247c.3366842.5628022.5397536 1.2366371.5397536 1.9565686 0 .7199386-.2031086 1.3937664-.5397385 1.9565679l.8545584.7646256c.5575067-.7420447.8996417-1.6891056.8996417-2.7213493z"/></g></g></svg>