<svg height="16" width="16" xmlns="http://www.w3.org/2000/svg"><path d="m11.686207 11.806015c-1.24651-.620486-1.8150575-1.692483-1.8150575-2.2014752 0-.3393274.2257565-.8642471.4445885-1.1190898.213985-.2499947.530459-.3739533.680733-.6516483.243763-.4535915.374647-1.3593896.297778-1.7575806-.05401-.2839275-.297778-.3123203-.297778-.56647 0-.2271421.05332-.5948628.05332-1.218811 0-.8794827-.335865-1.3490019-.788764-1.7575806-.4085775-.3691057-1.2250425-.7659118-2.2596475-.7659118-.2188311 0-.456361.020083-.6523411.057478-.448743.084485-.7520609.2963926-.905798.4619016l-.0063-.00346-.03532.045705c-.000692.00139-.0034.00346-.0048.00553-.191132.028392-.4992979.072713-.7624499.283235-.3545631.283235-.680734.793612-.680734 1.6730948 0 .6232556.05402.9916688.05402 1.2188108 0 .2548423-.245147.2832351-.2991621.5664701-.07686.398191.05471 1.303989.2991621 1.7575807.1502739.277695.467442.4016536.6800409.6516483.2181391.2548424.4445891.7797621.4445891 1.1190895 0 .5082995-.573395 1.5802995-1.819213 2.2014785-1.7070279.85109-2.5456529 1.241663-2.5456529 2.426542h12.4651584c0-1.184879-.839317-1.575452-2.546346-2.426542zm-5.0656815-9.8869085-.122577-.1024909c-.0651.078253-.1101121.1662015-.131577.2548422-.0831-.029086-.1772811-.042936-.285312-.042936v.159969c.128114 0 .229912.022853.311628.069251l.04433.025623.07409-.094873c0-.089334.03878-.1848992.109413-.269385z" fill="#bebebe"/></svg>