<svg height="24" viewBox="0 0 24 24" width="24" xmlns="http://www.w3.org/2000/svg"><path d="m10.509766 2.7148438v1.3457031c.977338.261605 1.968019.2949202 2.980468 0v-1.3457031c-.993843.2390723-1.986625.2249557-2.980468 0zm-1.3476566 1.375a1.1342983 1.1342983 0 0 0 -1.1601563 1.1347656v2.5859375.4003906 2.5859375.402344 2.583984.402344 2.583984.402344 2.583984a1.1342983 1.1342983 0 0 0 .8417969 1.095703c1.028484.275296 2.081756.431087 3.150391.4375-.343722-.350328-.616095-.760477-.84375-1.195312-.67438-.059231-1.3465129-.159312-2.0136722-.337891v-2.583984-.402344-2.583984-.402344-2.583984-.402344-2.5859375-.4003906-2.5859375c1.9094882.4322112 3.8170752.4593337 5.7265622 0v2.5859375.4003906 2.5859375.402344 1.568359c.241204-.0363.484406-.06048.728516-.060547.136363-.000027.270459.029621.40625.041016v-1.548828-.402344-2.5859375-.4003906-2.5859375a1.1342983 1.1342983 0 0 0 -1.400391-1.1035156c-1.732612.4167858-3.450117.3966072-5.2109372-.0019532a1.1342983 1.1342983 0 0 0 -.2246094-.0292968z" fill="#bebebe" fill-opacity=".433824"/><path d="m15.591797 13.609375a4.1456587 4.1456587 0 0 0 -4.144531 4.146484 4.1456587 4.1456587 0 0 0 4.144531 4.144532 4.1456587 4.1456587 0 0 0 4.146484-4.144532 4.1456587 4.1456587 0 0 0 -4.146484-4.146484zm-1.392578 1.845703 1.392578 1.392578 1.394531-1.392578.90625.90625-1.392578 1.394531 1.392578 1.392579-.90625.90625-1.394531-1.392579-1.392578 1.392579-.90625-.90625 1.392578-1.392579-1.392578-1.394531z" fill="#990c0c" transform="matrix(.99999999093 0 0 .99999999093 .00000031608 .00000007063)"/></svg>