<svg height="24" viewBox="0 0 24 24" width="24" xmlns="http://www.w3.org/2000/svg"><path d="m10.509766 2.7148438v1.3457031c.977338.261605 1.968019.2949202 2.980468 0v-1.3457031c-.993843.2390723-1.986625.2249557-2.980468 0zm-1.3476566 1.375a1.1342983 1.1342983 0 0 0 -1.1601563 1.1347656v2.5859375.4003906 2.5859375.402344 2.583984.402344 2.583984.402344 2.583984a1.1342983 1.1342983 0 0 0 .8417969 1.095703c.703893.188412 1.420326.313906 2.144531.38086v-1.152344c-.619741-.063867-1.237882-.159954-1.8515622-.324219v-2.583984-.402344-2.583984-.402344-2.583984-.402344-2.5859375-.4003906-2.5859375c1.9094882.4322112 3.8170752.4593337 5.7265622 0v2.5859375.4003906 2.5859375.402344 2.257812h1.134766v-2.257812-.402344-2.5859375-.4003906-2.5859375a1.1342983 1.1342983 0 0 0 -1.400391-1.1035156c-1.732612.4167858-3.450117.3966072-5.2109372-.0019532a1.1342983 1.1342983 0 0 0 -.2246094-.0292968zm6.8222656 12.3632812v2.003906h.003906v-2.003906z" fill="#bebebe"/><path d="m9.2792969 17.246094v2.455078c.5667652.151707 1.1365431.242953 1.7089841.304687v-2.503906c-.569977-.050629-1.1390063-.126845-1.7089841-.255859z" fill="#e30000"/><path d="m12.861062 14.455121c-.49245 0-.875.38256-.875.875v6.25c0 .49244.38255.875.875.875h6.25c.49245 0 .875-.38256.875-.875v-6.25c0-.49244-.38255-.875-.875-.875zm2.125 1h2v4h-2zm0 5h2v1h-2z" fill="#f57900"/></svg>