<svg height="24" viewBox="0 0 24 24" width="24" xmlns="http://www.w3.org/2000/svg"><path d="m10.509766 2.7148438v1.3457031c.977338.261605 1.968019.2949202 2.980468 0v-1.3457031c-.993843.2390723-1.986625.2249557-2.980468 0zm-1.3476566 1.375a1.1342983 1.1342983 0 0 0 -1.1601563 1.1347656v1.9238281c.5604164.0024615.9575699.5638946.7519531 1.0976563l-.7519531 1.8144532v.736328.402344 1.40625l1.1347657.205078v-1.611328-.402344-2.5859375-.4003906-2.5859375c1.9094882.4322112 3.8170752.4593337 5.7265622 0v2.5859375.4003906 2.5859375.402344 2.583984.402344 2.583984.402344 2.583984c-1.945236.566636-3.848785.502626-5.7265622 0v-2.583984-.402344-.5l-1.1347657 1.339844v2.146484a1.1342983 1.1342983 0 0 0 .8417969 1.095703c2.039485.545912 4.177934.622878 6.335938-.005859a1.1342983 1.1342983 0 0 0 .818359-1.089844v-2.583984-.402344-2.583984-.402344-2.583984-.402344-2.5859375-.4003906-2.5859375a1.1342983 1.1342983 0 0 0 -1.400391-1.1035156c-1.732612.4167858-3.450117.3966072-5.2109372-.0019532a1.1342983 1.1342983 0 0 0 -.2246094-.0292968zm-1.1601563 9.3398442v.353515.402344 2.167969l1.1347657-1.339844v-.828125-.402344-.148437z" fill="#bebebe"/><path d="m9.2789813 17.245369c1.8140127.410601 3.6280247.436368 5.4420367 0v2.455945c-1.847974.538304-3.658149.477495-5.4420367 0z" fill="#e30000"/><path d="m7.9973446 7.9540735s-5.4566004 7.7098235-4.6955933 7.4923935c.7610073-.217431 2.8265982-.108715 2.8265982-.108715l-2.1534713 5.770875 6.1759378-7.29289-4.2398972-.761007z" fill="#bebebe"/></svg>