<svg height="24" viewBox="0 0 24 24" width="24" xmlns="http://www.w3.org/2000/svg"><g fill="#bebebe"><path d="m10 2v2c1.068542.1705873 3.065984.2166469 4 0v-2zm-1.8398438 2.0117188c-.6367123-.0145188-1.1605841.4978878-1.1601562 1.1347656l.0019531 2.3535156c.0052107-.0073741.1171875-.1699219.1171875-.1699219a1.0773283 1.0773283 0 0 1 .8339844-.453125 1.0773283 1.0773283 0 0 1 .046875 0l-.0019531-1.7304687c-.0000597-.0887501.0499451-.138742.1386719-.1367188.0071127.0005109.0145326.0022807.0214843.0039063a.99899345.99899345 0 0 0 .0058594.0019531c2.0489935.4637881 5.6103795.4925372 7.6660155-.0019531.108107-.0260887.168068.0217287.167969.1328125l.001953 2.6640625v.4003906 2.5859375.402344 2.583984.402344 2.583984a.99899345.99899345 0 0 1 0 .001953l.001953.730469v1.998047c.000024.062574-.035385.107641-.09375.126953-1.827889.489817-6.0476405.429716-7.8085936 0-.06005-.018437-.0976431-.062976-.0976563-.126953a.99899345.99899345 0 0 0 0-.003906l-.0039062-.998047v-.474609l-.9960938 1.175781.0019531.300781c.0001056.513718.3454534.963231.8417969 1.095703 2.039768.502334 6.1782299.577288 8.3359379-.005859.484949-.140641.818552-.584909.818359-1.089844v-2l-.001953-.730469v-2.583984-.402344-2.583984-.402344-2.5859375-.4003906l-.001953-2.6640625c.000657-.7344729-.686414-1.2758144-1.400391-1.1035156-1.732612.4167858-5.450117.3966072-7.2109374-.0019532-.0737048-.0172354-.1489494-.02705-.2246094-.0292968zm-.1601562 6.7773432-.5898438 1.439454.5898438.105468v-1.134765-.402344z"/><path d="m7.9973446 7.954073s-5.4566004 7.709824-4.6955933 7.492394c.7610073-.217431 2.8265982-.108715 2.8265982-.108715l-2.1534713 5.770875 6.1759378-7.29289-4.2398972-.761007z"/></g></svg>