<svg height="24" viewBox="0 0 24 24" width="24" xmlns="http://www.w3.org/2000/svg"><path d="m10 2v2c1.068542.1705873 3.065984.2166469 4 0v-2zm-1.8398438 2.0117188c-.6367123-.0145188-1.1605841.4978878-1.1601562 1.1347656l.0019531 2.6640625v.4003906 2.5859375.402344 2.583984.402344 2.583984l-.0019531 1.730469.0039062 1c.0001056.513718.3454534.963231.8417969 1.095703.8066244.198648 1.9435596.328194 3.1542969.378906v-1.044921c-1.1384266-.045032-2.2180796-.136234-2.9003906-.302735-.06005-.018437-.0976431-.062976-.0976563-.126953a.99899345.99899345 0 0 0 0-.003906l-.0039062-.998047.0019531-1.726563a.99899345.99899345 0 0 1 0-.001953v-2.583984-.402344-2.583984-.402344-2.5859375-.4003906l-.0019531-2.6640625c-.0000597-.0887501.0499451-.138742.1386719-.1367188.0071127.0005109.0145326.0022807.0214843.0039063a.99899345.99899345 0 0 0 .0058594.0019531c2.0489935.4637881 5.6103795.4925372 7.6660155-.0019531.108107-.0260887.168068.0217287.167969.1328125l.001953 2.6640625v.4003906 2.5859375.402344 1.800781h.998047v-1.800781-.402344-2.5859375-.4003906l-.001953-2.6640625c.000657-.7344729-.686414-1.2758144-1.400391-1.1035156-1.732612.4167858-5.450117.3966072-7.2109374-.0019532-.0737048-.0172354-.1489494-.02705-.2246094-.0292968z" fill="#bebebe"/><g fill="#95e300"><path d="m9 17v2c.6666667.181352 1.333333.296971 2 .357422v-2.044922c-.666667-.055556-1.3333333-.145833-2-.3125z" fill="#e30000"/><path d="m12.875 14c-.49245 0-.875.38256-.875.875v6.25c0 .49244.38255.875.875.875h6.25c.49245 0 .875-.38256.875-.875v-6.25c0-.49244-.38255-.875-.875-.875zm2.125 1h2v4h-2zm0 5h2v1h-2z" fill="#f57900"/></g></svg>