<svg height="24" viewBox="0 0 24 24" width="24" xmlns="http://www.w3.org/2000/svg"><path d="m10 2v2c1.068542.1705873 3.065984.2166469 4 0v-2zm-1.8398438 2.0117188c-.6367124-.0145188-1.1605841.4978878-1.1601562 1.1347656l.0019531 2.6640625v.4003906 2.5859375.402344 2.583984.402344 2.583984l-.0019531 1.730469.0039062 1c.0001056.513718.3454534.963231.8417969 1.095703 2.039768.502334 6.1782299.577288 8.3359379-.005859.484949-.140641.818552-.584909.818359-1.089844v-2l-.001953-.730469v-2.583984-.402344-2.583984-.402344-2.5859375-.4003906l-.001953-2.6640625c.000657-.7344729-.686414-1.2758144-1.400391-1.1035156-1.732612.4167858-5.450117.3966072-7.2109374-.0019532-.0737048-.0172354-.1489495-.02705-.2246094-.0292968zm-.0234374.9980468c.0071128.0005109.0145326.0022807.0214843.0039063a.99899345.99899345 0 0 0 .0058594.0019531c2.0489935.4637881 5.6103795.4925372 7.6660155-.0019531.108107-.0260887.168068.0217287.167969.1328125l.001953 2.6640625v.4003906 2.5859375.402344 2.583984.402344 2.583984a.99899345.99899345 0 0 1 0 .001953l.001953.730469v1.998047c.000024.062574-.035385.107641-.09375.126953-1.827889.489817-6.0476405.429716-7.8085936 0-.06005-.018437-.0976431-.062976-.0976563-.126953a.99899345.99899345 0 0 0 0-.003906l-.0039062-.998047.0019531-1.726563a.99899345.99899345 0 0 1 0-.001953v-2.583984-.402344-2.583984-.402344-2.5859375-.4003906l-.0019531-2.6640625c-.0000597-.0887501.0499451-.138742.1386719-.1367188z" fill="#bebebe"/><g fill="#95e300"><path d="m9 11c2 .5 4 .5 6 0v2c-2 .544055-4 .544055-6 0z"/><path d="m9 5c2 .5 4 .5 6 0v2c-2 .5440549-4 .5440549-6 0z"/><path d="m9 8c2 .5 4 .5 6 0v2c-2 .544055-4 .544055-6 0z"/><path d="m9 14c2 .5 4 .5 6 0v2c-2 .544055-4 .544055-6 0z"/><path d="m9 17c2 .5 4 .5 6 0v2c-2 .544055-4 .544055-6 0z"/></g></svg>