<svg height="24" viewBox="0 0 24 24" width="24" xmlns="http://www.w3.org/2000/svg"><path d="m10.509766 2.7140471v1.3457031c.977338.261605 1.968019.2949202 2.980468 0v-1.3457031c-.993843.2390723-1.986625.2249557-2.980468 0zm-1.3476568 1.375a1.1342983 1.1342983 0 0 0 -1.1601563 1.1347657v2.5859374.4003907 2.5859371.402344 2.583984.402344 2.583985.402343 2.583985a1.1342983 1.1342983 0 0 0 .8417969 1.095703c2.0394852.545911 4.1779342.622837 6.3359382-.0059a1.1342983 1.1342983 0 0 0 .818359-1.089843v-2.583945-.402343-2.583985-.402344-2.583984-.402344-2.5859371-.4003907-2.5859374a1.1342983 1.1342983 0 0 0 -1.400391-1.1035157c-1.732612.4167859-3.450117.3966073-5.2109374-.0019531a1.1342983 1.1342983 0 0 0 -.2246094-.0292969zm-.025391 1.1347657c1.9094878.4322112 3.8170758.4593337 5.7265628 0v2.5859374.4003907 2.5859371.402344 2.583984.402344 2.583985.402343 2.583985c-1.945236.566636-3.848786.502626-5.7265628 0v-2.583985-.402343-2.583985-.402344-2.583984-.402344-2.5859371-.4003907z" fill="#bebebe"/></svg>