<svg height="24" viewBox="0 0 24 24" width="24" xmlns="http://www.w3.org/2000/svg"><path d="m10 2v2c1.068542.1705873 3.065984.2166469 4 0v-2zm-1.8398438 2.0117188c-.6367123-.0145188-1.1605841.4978878-1.1601562 1.1347656l.0019531 2.6640625v.4003906 2.5859375.402344 2.583984.402344 2.583984l-.0019531 1.730469.0039062 1c.0001056.513718.3454534.963231.8417969 1.095703 1.02801.253168 2.5882279.397773 4.1601559.404297a5 5 0 0 1 -.605468-1.052734c-1.292388-.032672-2.537385-.134025-3.3007816-.320313-.06005-.018437-.0976431-.062976-.0976563-.126953a.99899345.99899345 0 0 0 0-.003906l-.0039062-.998047.0019531-1.726563a.99899345.99899345 0 0 1 0-.001953v-2.583984-.402344-2.583984-.402344-2.5859375-.4003906l-.0019531-2.6640625c-.0000597-.0887501.0499451-.138742.1386719-.1367188.0071127.0005109.0145326.0022807.0214843.0039063a.99899345.99899345 0 0 0 .0058594.0019531c2.0489935.4637881 5.6103795.4925372 7.6660155-.0019531.108107-.0260887.168068.0217287.167969.1328125l.001953 2.6640625v.4003906 2.5859375.402344 1.800781a5 5 0 0 1 .998047.101562v-1.902343-.402344-2.5859375-.4003906l-.001953-2.6640625c.000657-.7344729-.686414-1.2758144-1.400391-1.1035156-1.732612.4167858-5.450117.3966072-7.2109374-.0019532-.0737048-.0172354-.1489494-.02705-.2246094-.0292968z" fill="#bebebe"/><path d="m15.991665 13.991135a4.0050286 4.0050286 0 0 0 -4.003939 4.005826 4.0050286 4.0050286 0 0 0 4.003939 4.00394 4.0050286 4.0050286 0 0 0 4.005826-4.00394 4.0050286 4.0050286 0 0 0 -4.005826-4.005826zm-1.345339 1.783093 1.345339 1.345338 1.347225-1.345338.875508.875508-1.345338 1.347225 1.345338 1.345339-.875508.875508-1.347225-1.345339-1.345339 1.345339-.875507-.875508 1.345338-1.345339-1.345338-1.347225z" fill="#990c0c" stroke-width=".966078"/></svg>