<svg height="16" width="16" xmlns="http://www.w3.org/2000/svg" xmlns:xlink="http://www.w3.org/1999/xlink"><filter id="a" color-interpolation-filters="sRGB"><feBlend in2="BackgroundImage" mode="darken"/></filter><path d="m92.301 748c-.7713.0431-1.3331.68465-1.8161 1.2222-.46673.60189-.94251 1.2592-1.0739 2.0256-.000657.22907.28412.34038.40841.51848.47078.42342.95555 1.0675.65626 1.7263-.42175.83704-1.218 1.3922-1.8325 2.0789-.49766.49947-1.1348 1.1788-1.9118.89084-.57631-.21885-.91548-.75054-1.3648-1.1129-.62168.0481-1.1702.43406-1.6902.75268-.66645.4833-1.3567 1.077-1.5985 1.8932-.14214.64969.54025.99854.96224 1.3405 1.0542.76368 2.4704.86461 3.6752.42739 1.9405-.68924 3.5042-2.1235 4.8813-3.6091 1.177-1.3385 2.3009-2.908 2.4517-4.7397.10335-1.2882-.55312-2.5653-1.5457-3.3568l-.09981-.0394-.1019-.0182z" fill="#bebebe" transform="matrix(-.30447093 -.95252163 .95252163 -.30447093 -684.20191 324.51312)"/><path d="m9.2180334.23252461a.810081.810081 0 0 0 -.10125.025272.810081.810081 0 0 0 -.6328125.80999999v4.86a.810081.810081 0 0 0 .81.81h4.0500001v1.62l2.43-2.43-2.43-2.43v1.62h-3.24v-4.05a.810081.810081 0 0 0 -.8859376-.83531249z" fill="#ddd"/><g filter="url(#a)" transform="translate(-399.0002 231.00005)"/></svg>