<?xml version="1.0" encoding="UTF-8" standalone="no"?>
<!-- Created with Inkscape (http://www.inkscape.org/) -->

<svg
   xmlns:osb="http://www.openswatchbook.org/uri/2009/osb"
   xmlns:dc="http://purl.org/dc/elements/1.1/"
   xmlns:cc="http://creativecommons.org/ns#"
   xmlns:rdf="http://www.w3.org/1999/02/22-rdf-syntax-ns#"
   xmlns:svg="http://www.w3.org/2000/svg"
   xmlns="http://www.w3.org/2000/svg"
   xmlns:xlink="http://www.w3.org/1999/xlink"
   xmlns:sodipodi="http://sodipodi.sourceforge.net/DTD/sodipodi-0.dtd"
   xmlns:inkscape="http://www.inkscape.org/namespaces/inkscape"
   version="1.1"
   width="16"
   height="16"
   id="svg7384"
   inkscape:version="0.48.3.1 r9886"
   sodipodi:docname="call-missed-symbolic.svg">
  <sodipodi:namedview
     pagecolor="#ffffff"
     bordercolor="#666666"
     borderopacity="1"
     objecttolerance="10"
     gridtolerance="10"
     guidetolerance="10"
     inkscape:pageopacity="0"
     inkscape:pageshadow="2"
     inkscape:window-width="1366"
     inkscape:window-height="696"
     id="namedview8"
     showgrid="false"
     inkscape:zoom="14.75"
     inkscape:cx="7.6653013"
     inkscape:cy="7.9989039"
     inkscape:window-x="0"
     inkscape:window-y="0"
     inkscape:window-maximized="1"
     inkscape:current-layer="svg7384">
    <inkscape:grid
       type="xygrid"
       id="grid2992" />
  </sodipodi:namedview>
  <title
     id="title9167">Gnome Symbolic Icon Theme</title>
  <defs
     id="defs11">
    <linearGradient
       id="linearGradient3785">
      <stop
         style="stop-color:#384880;stop-opacity:1;"
         offset="0"
         id="stop3787" />
      <stop
         style="stop-color:#000000;stop-opacity:1;"
         offset="1"
         id="stop3789" />
    </linearGradient>
    <linearGradient
       y2="520.1709"
       y1="408.39655"
       x2="365.97757"
       x1="365.51193"
       id="linearGradient3189"
       xlink:href="#linearGradient3785"
       gradientUnits="userSpaceOnUse"
       gradientTransform="matrix(0.08112299,0,0,0.07855526,540.8143,254.8467)"
       inkscape:collect="always" />
    <filter
       id="filter7554"
       color-interpolation-filters="sRGB"
       inkscape:collect="always">
      <feBlend
         mode="darken"
         in2="BackgroundImage"
         id="feBlend7556"
         inkscape:collect="always" />
    </filter>
    <linearGradient
       osb:paint="solid"
       id="linearGradient5606">
      <stop
         style="stop-color:#000000;stop-opacity:1;"
         offset="0"
         id="stop5608" />
    </linearGradient>
  </defs>
  <metadata
     id="metadata90">
    <rdf:RDF>
      <cc:Work
         rdf:about="">
        <dc:format>image/svg+xml</dc:format>
        <dc:type
           rdf:resource="http://purl.org/dc/dcmitype/StillImage" />
        <dc:title>Gnome Symbolic Icon Theme</dc:title>
      </cc:Work>
    </rdf:RDF>
  </metadata>
  <g
     transform="matrix(-0.30447093,-0.95252163,0.95252163,-0.30447093,-684.20191,324.51312)"
     id="layer12">
    <path
       d="m 92.301,748 c -0.7713,0.0431 -1.3331,0.68465 -1.8161,1.2222 -0.46673,0.60189 -0.94251,1.2592 -1.0739,2.0256 -6.57e-4,0.22907 0.28412,0.34038 0.40841,0.51848 0.47078,0.42342 0.95555,1.0675 0.65626,1.7263 -0.42175,0.83704 -1.218,1.3922 -1.8325,2.0789 -0.49766,0.49947 -1.1348,1.1788 -1.9118,0.89084 -0.57631,-0.21885 -0.91548,-0.75054 -1.3648,-1.1129 -0.62168,0.0481 -1.1702,0.43406 -1.6902,0.75268 -0.66645,0.4833 -1.3567,1.077 -1.5985,1.8932 -0.14214,0.64969 0.54025,0.99854 0.96224,1.3405 1.0542,0.76368 2.4704,0.86461 3.6752,0.42739 1.9405,-0.68924 3.5042,-2.1235 4.8813,-3.6091 1.177,-1.3385 2.3009,-2.908 2.4517,-4.7397 0.10335,-1.2882 -0.55312,-2.5653 -1.5457,-3.3568 l -0.09981,-0.0394 -0.1019,-0.0182 z"
       style="fill:#bebebe;enable-background:new"
       id="path44084"
       inkscape:connector-curvature="0" />
  </g>
  <path
     style="font-size:medium;font-style:normal;font-variant:normal;font-weight:normal;font-stretch:normal;text-indent:0;text-align:start;text-decoration:none;line-height:normal;letter-spacing:normal;word-spacing:normal;text-transform:none;direction:ltr;block-progression:tb;writing-mode:lr-tb;text-anchor:start;baseline-shift:baseline;color:#000000;fill:#dddddd;fill-opacity:1;stroke:none;stroke-width:2;marker:none;visibility:visible;display:inline;overflow:visible;enable-background:accumulate;font-family:Sans;-inkscape-font-specification:Sans"
     id="path6185"
     d="m 9.2180334,0.23252461 a 0.810081,0.810081 0 0 0 -0.10125,0.025272 0.810081,0.810081 0 0 0 -0.6328125,0.80999999 l 0,4.86 a 0.810081,0.810081 0 0 0 0.81,0.81 l 4.0500001,0 0,1.62 2.43,-2.43 -2.43,-2.43 0,1.62 -3.24,0 0,-4.05 A 0.810081,0.810081 0 0 0 9.2180334,0.23248411 z"
     inkscape:connector-curvature="0" />
  <g
     id="layer10"
     inkscape:label="devices"
     style="display:inline;filter:url(#filter7554)"
     transform="translate(-399.0002,231.00005)" />
  <g
     id="layer1"
     inkscape:label="places"
     style="display:inline"
     transform="translate(-158,-385.99995)" />
  <g
     id="layer14"
     inkscape:label="mimetypes"
     style="display:inline"
     transform="translate(-399.0002,231.00005)" />
  <g
     id="layer15"
     inkscape:label="emblems"
     style="display:inline"
     transform="translate(-399.0002,231.00005)" />
  <g
     id="g71291"
     inkscape:label="emotes"
     style="display:inline"
     transform="translate(-399.0002,231.00005)" />
  <g
     id="layer2"
     inkscape:label="categories"
     style="display:inline"
     transform="translate(-158,-235.99995)" />
  <g
     id="g6058"
     inkscape:label="apps"
     style="display:inline"
     transform="translate(-158,-235.99995)" />
  <g
     id="layer12-9"
     inkscape:label="actions"
     style="display:inline"
     transform="translate(-399.0002,231.00005)" />
</svg>
