<svg height="16" viewBox="0 0 4.2333332 4.2333335" width="16" xmlns="http://www.w3.org/2000/svg"><path d="m8 0a4.000976 3.9999994 0 0 0 -.3378906.015625 4.0009761 3.9999993 0 0 0 -.2109375.02734375 4.000976 3.9999994 0 0 0 -.1894531.02929688 4.0009761 3.9999993 0 0 0 -.1875.04101562 4.000976 3.9999994 0 0 0 -.2089844.0546875 4.0009761 3.9999993 0 0 0 -.1445313.046875 4.000976 3.9999994 0 0 0 -.2402343.08789063 4.0009761 3.9999993 0 0 0 -.1347657.06054687 4.000976 3.9999994 0 0 0 -.2226562.10742187 4.0009761 3.9999993 0 0 0 -.1503907.0859375 4.000976 3.9999994 0 0 0 -.1816406.11132813 4.0009761 3.9999993 0 0 0 -.1582031.11328125 4.000976 3.9999994 0 0 0 -.171875.13085938 4.0009761 3.9999993 0 0 0 -.1113281.09765622 4.000976 3.9999994 0 0 0 -.2011719.1894532 4.0009761 3.9999993 0 0 0 -.0625.0664062 4.000976 3.9999994 0 0 0 -.1894531.2167969 4.0009761 3.9999993 0 0 0 -.0957032.125 4.000976 3.9999994 0 0 0 -.1367187.1894531 4.0009761 3.9999993 0 0 0 -.0878906.1425781 4.000976 3.9999994 0 0 0 -.1230469.2148438 4.0009761 3.9999993 0 0 0 -.0527344.109375 4.000976 3.9999994 0 0 0 -.1132812.2539062 4.0009761 3.9999993 0 0 0 -.0390625.1015625 4.000976 3.9999994 0 0 0 -.0976563.3027344 4.0009761 3.9999993 0 0 0 -.0097656.0351562 4.000976 3.9999994 0 0 0 -.0761719.3378907 4.0009761 3.9999993 0 0 0 -.0136719.0898437 4.000976 3.9999994 0 0 0 -.0371093.3066406 4.0009761 3.9999993 0 0 0 -.0097657.171875 4.000976 3.9999994 0 0 0 -.0058593.1367188h.0019531v.0625h-.0019531v3.9355469l-2-.0019531v.0039062 8h.0039062 11.9960939.003906v-8-.0039062l-2 .0019531v-3.9355469h-.001953v-.0625h.001953a4.0009761 3.9999993 0 0 0 -.005859-.1367188 4.000976 3.9999994 0 0 0 -.009766-.171875 4.0009761 3.9999993 0 0 0 -.037109-.3066406 4.000976 3.9999994 0 0 0 -.013672-.0898437 4.0009761 3.9999993 0 0 0 -.076172-.3378907 4.0009761 3.9999993 0 0 0 -.005859-.0253906 4.000976 3.9999994 0 0 0 -.003907-.0097656 4.0009761 3.9999993 0 0 0 -.097656-.3027344 4.000976 3.9999994 0 0 0 -.039062-.1015625 4.0009761 3.9999993 0 0 0 -.113282-.2539062 4.000976 3.9999994 0 0 0 -.052734-.109375 4.0009761 3.9999993 0 0 0 -.123047-.2148438 4.000976 3.9999994 0 0 0 -.08789-.1425781 4.0009761 3.9999993 0 0 0 -.136719-.1894531 4.000976 3.9999994 0 0 0 -.095703-.125 4.0009761 3.9999993 0 0 0 -.189454-.2167969 4.000976 3.9999994 0 0 0 -.0625-.0664062 4.0009761 3.9999993 0 0 0 -.201171-.1894532 4.000976 3.9999994 0 0 0 -.111329-.09765622 4.0009761 3.9999993 0 0 0 -.171874-.13085938 4.000976 3.9999994 0 0 0 -.158204-.11328125 4.0009761 3.9999993 0 0 0 -.18164-.11132813 4.000976 3.9999994 0 0 0 -.1503909-.0859375 4.0009761 3.9999993 0 0 0 -.2226562-.10742187 4.000976 3.9999994 0 0 0 -.1347657-.06054687 4.0009761 3.9999993 0 0 0 -.2402343-.08789063 4.000976 3.9999994 0 0 0 -.1445313-.046875 4.0009761 3.9999993 0 0 0 -.2089844-.0546875 4.000976 3.9999994 0 0 0 -.1875-.04101562 4.0009761 3.9999993 0 0 0 -.1894531-.02929688 4.000976 3.9999994 0 0 0 -.2109375-.02734375 4.0009761 3.9999993 0 0 0 -.3378906-.015625zm0 1a2.9999999 2.9999999 0 0 1 .2636719.0136719 2.9999998 2.9999998 0 0 1 .1074219.0136719 2.9999999 2.9999999 0 0 1 .1992187.0292968 2.9999998 2.9999998 0 0 1 .0917969.0214844 2.9999999 2.9999999 0 0 1 .1953125.0488281 2.9999998 2.9999998 0 0 1 .0976562.0332031 2.9999999 2.9999999 0 0 1 .1816407.0644532 2.9999998 2.9999998 0 0 1 .1113281.0507812 2.9999999 2.9999999 0 0 1 .15625.0761719 2.9999998 2.9999998 0 0 1 .1308593.0742187 2.9999999 2.9999999 0 0 1 .1132813.0703126 2.9999998 2.9999998 0 0 1 .1484375.1054687 2.9999999 2.9999999 0 0 1 .09375.0703125 2.9999998 2.9999998 0 0 1 .132813.1171875 2.9999999 2.9999999 0 0 1 .095703.0917969 2.9999998 2.9999998 0 0 1 .091797.0957031 2.9999999 2.9999999 0 0 1 .117187.1328125 2.9999998 2.9999998 0 0 1 .070313.09375 2.9999999 2.9999999 0 0 1 .105468.1484375 2.9999998 2.9999998 0 0 1 .070313.1132813 2.9999999 2.9999999 0 0 1 .074219.1308593 2.9999998 2.9999998 0 0 1 .076171.15625 2.9999999 2.9999999 0 0 1 .050782.1113281 2.9999998 2.9999998 0 0 1 .064453.1816407 2.9999999 2.9999999 0 0 1 .033203.0976562 2.9999998 2.9999998 0 0 1 .048828.1953125 2.9999999 2.9999999 0 0 1 .021484.0917969 2.9999998 2.9999998 0 0 1 .029297.1992187 2.9999999 2.9999999 0 0 1 .013672.1074219 2.9999998 2.9999998 0 0 1 .013672.2636719v1 1 1.9335938c.000087.0202847.015299.0435031.017578.0644531h-.017578v1.0019531h.986328 1.013672v6h-10v-6h1.0136719.9863281v-1.0019531h-.0175781c.0022795-.0209499.0174912-.0441684.0175781-.0644531v-1.9335938-1-1a2.9999999 2.9999999 0 0 1 .0136719-.2636719 2.9999998 2.9999998 0 0 1 .0136719-.1074219 2.9999999 2.9999999 0 0 1 .0292968-.1992187 2.9999998 2.9999998 0 0 1 .0214844-.0917969 2.9999999 2.9999999 0 0 1 .0488281-.1953125 2.9999998 2.9999998 0 0 1 .0332031-.0976562 2.9999999 2.9999999 0 0 1 .0644532-.1816407 2.9999998 2.9999998 0 0 1 .0507812-.1113281 2.9999999 2.9999999 0 0 1 .0761719-.15625 2.9999998 2.9999998 0 0 1 .0742187-.1308593 2.9999999 2.9999999 0 0 1 .0703126-.1132813 2.9999998 2.9999998 0 0 1 .1054687-.1484375 2.9999999 2.9999999 0 0 1 .0703125-.09375 2.9999998 2.9999998 0 0 1 .1171875-.1328125 2.9999999 2.9999999 0 0 1 .0917969-.0957031 2.9999998 2.9999998 0 0 1 .0957031-.0917969 2.9999999 2.9999999 0 0 1 .1328125-.1171875 2.9999998 2.9999998 0 0 1 .09375-.0703125 2.9999999 2.9999999 0 0 1 .1484375-.1054687 2.9999998 2.9999998 0 0 1 .1132813-.0703126 2.9999999 2.9999999 0 0 1 .1308593-.0742187 2.9999998 2.9999998 0 0 1 .15625-.0761719 2.9999999 2.9999999 0 0 1 .1113281-.0507812 2.9999998 2.9999998 0 0 1 .1816407-.0644532 2.9999999 2.9999999 0 0 1 .0976562-.0332031 2.9999998 2.9999998 0 0 1 .1953125-.0488281 2.9999999 2.9999999 0 0 1 .0917969-.0214844 2.9999998 2.9999998 0 0 1 .1992187-.0292968 2.9999999 2.9999999 0 0 1 .1074219-.0136719 2.9999998 2.9999998 0 0 1 .2636719-.0136719zm0 1a1.9999999 1.9999999 0 0 0 -.15625.0078125 1.9999999 1.9999999 0 0 0 -.140625.015625 1.9999999 1.9999999 0 0 0 -.0625.0097656 1.9999999 1.9999999 0 0 0 -.1054688.0234375 1.9999999 1.9999999 0 0 0 -.1054687.0273438 1.9999999 1.9999999 0 0 0 -.0917969.03125 1.9999999 1.9999999 0 0 0 -.0820312.03125 1.9999999 1.9999999 0 0 0 -.1054688.0449218 1.9999999 1.9999999 0 0 0 -.078125.0390626 1.9999999 1.9999999 0 0 0 -.0917968.0507812 1.9999999 1.9999999 0 0 0 -.0917969.0566406 1.9999999 1.9999999 0 0 0 -.0566407.0410156 1.9999999 1.9999999 0 0 0 -.1015624.0761719 1.9999999 1.9999999 0 0 0 -.0683594.0605469 1.9999999 1.9999999 0 0 0 -.0761719.0703125 1.9999999 1.9999999 0 0 0 -.0703125.0761719 1.9999999 1.9999999 0 0 0 -.0605469.0683594 1.9999999 1.9999999 0 0 0 -.0761719.1015624 1.9999999 1.9999999 0 0 0 -.0410156.0566407 1.9999999 1.9999999 0 0 0 -.0566406.0917969 1.9999999 1.9999999 0 0 0 -.0507812.0917968 1.9999999 1.9999999 0 0 0 -.0390626.078125 1.9999999 1.9999999 0 0 0 -.0449218.1054688 1.9999999 1.9999999 0 0 0 -.03125.0820312 1.9999999 1.9999999 0 0 0 -.03125.0917969 1.9999999 1.9999999 0 0 0 -.0273438.1054687 1.9999999 1.9999999 0 0 0 -.0234375.1054688 1.9999999 1.9999999 0 0 0 -.0097656.0625 1.9999999 1.9999999 0 0 0 -.015625.140625 1.9999999 1.9999999 0 0 0 -.0078125.15625v1 1 1.9980469 1.0019531h1.015625 1.96875 1.015625v-1.0019531-1.9980469-1-1a1.9999999 1.9999999 0 0 0 -.0078125-.15625 1.9999999 1.9999999 0 0 0 -.015625-.140625 1.9999999 1.9999999 0 0 0 -.0097656-.0625 1.9999999 1.9999999 0 0 0 -.0234375-.1054688 1.9999999 1.9999999 0 0 0 -.0273438-.1054687 1.9999999 1.9999999 0 0 0 -.03125-.0917969 1.9999999 1.9999999 0 0 0 -.03125-.0820312 1.9999999 1.9999999 0 0 0 -.0449218-.1054688 1.9999999 1.9999999 0 0 0 -.0390626-.078125 1.9999999 1.9999999 0 0 0 -.0507812-.0917968 1.9999999 1.9999999 0 0 0 -.0566406-.0917969 1.9999999 1.9999999 0 0 0 -.0410156-.0566407 1.9999999 1.9999999 0 0 0 -.0761719-.1015624 1.9999999 1.9999999 0 0 0 -.0605469-.0683594 1.9999999 1.9999999 0 0 0 -.0703125-.0761719 1.9999999 1.9999999 0 0 0 -.0761719-.0703125 1.9999999 1.9999999 0 0 0 -.0683594-.0605469 1.9999999 1.9999999 0 0 0 -.1015624-.0761719 1.9999999 1.9999999 0 0 0 -.0566407-.0410156 1.9999999 1.9999999 0 0 0 -.0917969-.0566406 1.9999999 1.9999999 0 0 0 -.0917968-.0507812 1.9999999 1.9999999 0 0 0 -.078125-.0390626 1.9999999 1.9999999 0 0 0 -.1054688-.0449218 1.9999999 1.9999999 0 0 0 -.0820312-.03125 1.9999999 1.9999999 0 0 0 -.0917969-.03125 1.9999999 1.9999999 0 0 0 -.1054687-.0273438 1.9999999 1.9999999 0 0 0 -.1054688-.0234375 1.9999999 1.9999999 0 0 0 -.0625-.0097656 1.9999999 1.9999999 0 0 0 -.140625-.015625 1.9999999 1.9999999 0 0 0 -.15625-.0078125zm0 1a.99999984.99999984 0 0 1 .0996094.0058594.99999984.99999984 0 0 1 .0878906.0117187.99999985.99999985 0 0 1 .0585938.0136719.99999984.99999984 0 0 1 .03125.0097656.99999985.99999985 0 0 1 .0585937.0175782.99999984.99999984 0 0 1 .0273437.0097656.99999985.99999985 0 0 1 .0078126.0039062.99999985.99999985 0 0 1 .0585937.0273438.99999984.99999984 0 0 1 .0410156.0195312.99999985.99999985 0 0 1 .0195313.0117188.99999984.99999984 0 0 1 .0625.0371094.99999985.99999985 0 0 1 .0683594.0488281.99999985.99999985 0 0 1 .0625.0546875.99999984.99999984 0 0 1 .0234374.0214844.99999985.99999985 0 0 1 .0214844.0234374.99999984.99999984 0 0 1 .0546875.0625.99999984.99999984 0 0 1 .0488281.0683594.99999985.99999985 0 0 1 .0371094.0625.99999984.99999984 0 0 1 .0117188.0195313.99999985.99999985 0 0 1 .0195312.0410156.99999984.99999984 0 0 1 .0273438.0585937.99999985.99999985 0 0 1 .0136718.0351563.99999984.99999984 0 0 1 .0175782.0585937.99999985.99999985 0 0 1 .0097656.03125.99999984.99999984 0 0 1 .0136719.0585938.99999985.99999985 0 0 1 .0117187.0878906.99999985.99999985 0 0 1 .0058594.0996094v2 1.9980469l-1 .0019531-1-.0019531v-1.9980469-2a.99999984.99999984 0 0 1 .0058594-.0996094.99999984.99999984 0 0 1 .0117187-.0878906.99999984.99999984 0 0 1 .0136719-.0585938.99999985.99999985 0 0 1 .0097656-.03125.99999984.99999984 0 0 1 .0175782-.0585937.99999985.99999985 0 0 1 .0136718-.0351563.99999985.99999985 0 0 1 .0273438-.0585937.99999985.99999985 0 0 1 .0195312-.0410156.99999984.99999984 0 0 1 .0117188-.0195313.99999984.99999984 0 0 1 .0371094-.0625.99999984.99999984 0 0 1 .0488281-.0683594.99999985.99999985 0 0 1 .0546875-.0625.99999985.99999985 0 0 1 .0214844-.0234374.99999984.99999984 0 0 1 .0234374-.0214844.99999984.99999984 0 0 1 .0625-.0546875.99999984.99999984 0 0 1 .0566407-.0429688.99999985.99999985 0 0 1 .0117187-.0058593.99999985.99999985 0 0 1 .0625-.0371094.99999985.99999985 0 0 1 .0195313-.0117188.99999984.99999984 0 0 1 .0410156-.0195312.99999984.99999984 0 0 1 .0585937-.0273438.99999984.99999984 0 0 1 .0351563-.0136718.99999985.99999985 0 0 1 .0585937-.0175782.99999984.99999984 0 0 1 .03125-.0097656.99999985.99999985 0 0 1 .0585938-.0136719.99999985.99999985 0 0 1 .0878906-.0117187.99999985.99999985 0 0 1 .0996094-.0058594z" fill="#bebebe" transform="scale(.26458333)"/></svg>