<svg height="16" viewBox="0 0 4.2333332 4.2333335" width="16" xmlns="http://www.w3.org/2000/svg"><path d="m8 0c-2.2159997 0-4 1.8216181-4 4.0625v.9335938h2v-.9960938c0-1.1080063.8920001-2 2-2 1.1080003 0 2 .8919937 2 2v4l-8.0019531-.0039062.0039062 8.0039062h11.9999999v-8h-2v-3.9375c0-2.2400126-1.784-4.0625-3.9999999-4.0625zm.0019531.80859375c1.7735471 0 3.1972659 1.44512555 3.1972659 3.25585935v3.9335938a.80815068.80815068 0 0 0 .804687.8046875h1.195313v6.3925776h-10.3945315v-6.3925776h7.1972655a.80815068.80815068 0 0 0 .804688-.8046875v-4c0-1.5419339-1.2627525-2.8066407-2.8046879-2.8066407-1.5419353 0-2.8046875 1.2647068-2.8046875 2.8066407v.1914062h-.3925781v-.125c-.0000004-1.8117921 1.4235073-3.25585935 3.1972656-3.25585935z" fill="#bebebe" transform="scale(.26458333)"/></svg>