<svg height="16" viewBox="0 0 4.2333332 4.2333335" width="16" xmlns="http://www.w3.org/2000/svg"><path d="m8 1c-2.2160001 0-4 1.8216181-4 4.0625v1.9375h-2v8h12v-8h-2v-1.9375c0-2.2400126-1.784-4.0625-4-4.0625zm0 .6816406c1.84184 0 3.318359 1.5031994 3.318359 3.3808594v1.9375a.68250011.68250011 0 0 0 .681641.6816406h1.318359v6.6367184h-10.6367184v-6.6367184h1.3183594a.68250011.68250011 0 0 0 .6816406-.6816406v-1.9375c0-1.87869 1.4763494-3.3808594 3.3183594-3.3808594zm0 .6367188c-1.47426 0-2.6816406 1.2073706-2.6816406 2.6816406v2a.68250011.68250011 0 0 0 .6816406.6816406h4a.68250011.68250011 0 0 0 .681641-.6816406v-2c0-1.47427-1.207371-2.6816406-2.681641-2.6816406zm0 .6816406c1.1079999 0 2 .8920315 2 2v2h-4v-2c0-1.1079685.8919997-2 2-2z" fill="#bebebe" transform="scale(.26458333)"/></svg>