<svg height="16" width="16" xmlns="http://www.w3.org/2000/svg"><g fill="#bebebe"><path d="m7 0c-2.0156643 0-4 2.0259433-4 4v2h10v-2c0-1.9948605-1.963532-4-4-4zm0 2h2c1.15731 0 2 1.1700861 2 2v2h-6v-2c0-.6671267.8010827-2 2-2z"/><path d="m2 7v2.25h2.25v.5h-2.25v1.25.25h2.25v.5h-2.25v1.5h2.25v.5h-2.25v.25.5c0 .831.669 1.5 1.5 1.5h9c.831 0 1.5-.669 1.5-1.5v-.5-.25h-2.25v-.5h2.25v-1.5h-2.25v-.5h2.25v-.25-1.25h-2.25v-.5h2.25v-2.25zm6 2c1.1045695 0 2 .6715729 2 1.5 0 .554048-.4042701 1.021494-1 1.28125v1.21875c0 .554-.446.75-1 .75s-1-.196-1-.75v-1.21875c-.5957299-.259756-1-.727202-1-1.28125 0-.8284271.8954305-1.5 2-1.5z"/></g></svg>