<svg height="16" viewBox="0 0 4.2333332 4.2333335" width="16" xmlns="http://www.w3.org/2000/svg"><path d="m8 0a4.0009763 3.9999995 0 0 0 -4 4v1 1h3v-1-1a.99999988.99999988 0 0 1 1-1 .99999988.99999988 0 0 1 1 1v4l-7.0019531-.0039062.0039062 8.0039062h11.9999999v-8h-2v-3.9375l-1.001953-.0625v3.9335938c.0019.4436282.5427 1.0645089.986328 1.0664062h1.013672v6h-10v-6h5.984375c.443629-.0019 1.0137282-.5563713 1.015625-1v-4a1.9999999 1.9999999 0 0 0 -2-2 1.9999999 1.9999999 0 0 0 -2 2v1h-1v-1a2.9999999 2.9999999 0 0 1 3-3 2.9999999 2.9999999 0 0 1 3 3h1.001953a4.0009763 3.9999995 0 0 0 -4.001953-4z" fill="#bebebe" transform="scale(.26458333)"/></svg>