<svg height="16" width="16" xmlns="http://www.w3.org/2000/svg"><path d="m404.46875 338c-1.36417 0-2.46875 1.10458-2.46875 2.46875v9.0625c0 1.36417 1.10458 2.46875 2.46875 2.46875h9.0625c1.36417 0 2.46875-1.10458 2.46875-2.46875v-9.0625c0-1.36417-1.10458-2.46875-2.46875-2.46875zm0 1h9.0625c.83222 0 1.46875.63653 1.46875 1.46875v9.0625c0 .83222-.63653 1.46875-1.46875 1.46875h-9.0625c-.83222 0-1.46875-.63653-1.46875-1.46875v-9.0625c0-.83222.63653-1.46875 1.46875-1.46875z" fill="#bebebe" transform="translate(-401.00015 -337)"/><path d="m7 9.6566576c-1.0511369-1.0779699-2.5-2.6566576-2.5-2.6566576l-1.6294495 1.6715056 4.1294495 4.3284944 7.431492-7.6233536-1.629673-1.6713948s-4.548992 4.6664073-5.801819 5.951406z" fill="none" stroke-width=".125"/></svg>