<svg height="16" width="16" xmlns="http://www.w3.org/2000/svg" xmlns:xlink="http://www.w3.org/1999/xlink"><filter id="a" color-interpolation-filters="sRGB"><feBlend in2="BackgroundImage" mode="darken"/></filter><path d="m5.5 0c-1.6770715 0-2.5 1.1292762-2.5 2.6875v3.3125l-1.0625-.03125c-.5246444-.0154307-.9375.4438785-.9375.96875v.5 7.5625h1v-4.6875c0-.7285131.5839869-1.3125 1.3125-1.3125h9.1875v-1.5625-.5c0-.5248715-.412734-.9792453-.9375-.96875l-1.5625.03125v-3.3125c0-1.5582238-.8229279-2.6875-2.5-2.6875zm-.3125 1.03125 2.78125.03125c.5825076.006545 1.03125.3962382 1.03125.9375v4h-5v-4c0-.5412618.6049923-.975295 1.1875-.96875z" fill="#bebebe"/><path d="m4.0000006 9.9999997c-.554 0-1 .4460003-1 1.0000003v4c0 .554.446 1 1 1h9.9999994c.554 0 1-.446 1-1v-4c0-.554-.446-1.0000003-1-1.0000003zm.5 1.0000003h8.9999994s.5 0 .5.5v3s0 .5-.5.5h-8.9999994s-.5 0-.5-.5v-3c0-.5.5-.5.5-.5zm1.5 1c-.55228 0-1 .44772-1 1s.44772 1 1 1 1-.44772 1-1-.44772-1-1-1zm2.9999997 0c-.55228 0-.9999997.44772-.9999997 1s.4477197 1 .9999997 1 .9999997-.44772.9999997-1-.4477197-1-.9999997-1zm2.9999997 0c-.55228 0-1 .44772-1 1s.44772 1 1 1 1-.44772 1-1-.44772-1-1-1z" fill="#bebebe"/><g filter="url(#a)" transform="translate(-582.22644 294.62994)"/></svg>