<svg height="16" width="16" xmlns="http://www.w3.org/2000/svg"><path d="m7.93442 1.2466649c-.3975349.0216528-.7548396.2411726-.9533317.5859934l-6.46779511 11.1644867c-.21014264.363812-.21042265.808331 0 1.171987.21041776.363653.59851811.586408 1.01892841.585994h12.9355874c.420412.000559.808515-.222341 1.01893-.585994.210415-.363656.210064-.808175 0-1.171987l-6.4677936-11.1644867c-.2214164-.3846719-.6410659-.6103628-1.0845254-.5859934zm-1.0233017 2.829387h2.1777971v6.4021961h-2.1777971zm1.0888976 7.3861401c.3036192.000002.5628189.06982.7740365.209908.2112121.140078.3148594.629522.314863.830886-.0000036.192611-.1036545.677679-.314863.826514-.2112176.140078-.4704173.209908-.7740365.209908-.3036209 0-.5628224-.06982-.7740364-.209908-.2112139-.148826-.314863-.633903-.3148612-.826514-.0000018-.201364.1036545-.690805.3148612-.830886.211214-.140077.4704155-.209906.7740364-.209908z" fill="#ff7b1d" fill-rule="evenodd"/></svg>