<svg height="16" width="16" xmlns="http://www.w3.org/2000/svg" xmlns:xlink="http://www.w3.org/1999/xlink"><filter id="a" color-interpolation-filters="sRGB"><feBlend in2="BackgroundImage" mode="darken"/></filter><path d="m6.03125.40625c-1.6770715 0-3.09375 1.2855262-3.09375 2.84375v3.3125h-.65625c-.5248713 0-.9375.4438785-.9375.96875v.5 7.0625h1.125v-4.6875c0-.7285131.5839869-1.3125 1.3125-1.3125h8.9375v-1.0625-.5c0-.5248715-.412629-.96875-.9375-.96875h-.65625v-3.3125c0-1.5582238-1.4166779-2.84375-3.09375-2.84375zm0 1.90625h2c.5825444 0 1.03125.3962382 1.03125.9375v3.3125h-4.0625v-3.3125c0-.5412618.4487055-.9375 1.03125-.9375z" fill="#bebebe"/><path d="m4.2262406 9.8700587c-.554 0-1 .4460003-1 1.0000003v4c0 .554.446 1 1 1h9.9999994c.554 0 1-.446 1-1v-4c0-.554-.446-1.0000003-1-1.0000003zm.5 1.0000003h8.9999994s.5 0 .5.5v3s0 .5-.5.5h-8.9999994s-.5 0-.5-.5v-3c0-.5.5-.5.5-.5zm1.5 1c-.55228 0-1 .44772-1 1s.44772 1 1 1 1-.44772 1-1-.44772-1-1-1zm2.9999997 0c-.55228 0-.9999997.44772-.9999997 1s.4477197 1 .9999997 1 .9999997-.44772.9999997-1-.4477197-1-.9999997-1zm2.9999997 0c-.55228 0-1 .44772-1 1s.44772 1 1 1 1-.44772 1-1-.44772-1-1-1z" fill="#bebebe"/><g filter="url(#a)" transform="translate(-582.0002 294.5)"/></svg>