<svg height="16" width="16" xmlns="http://www.w3.org/2000/svg"><g fill="#bebebe" transform="translate(0 -48)"><path d="m7.9999995 52.299537c-1.8952462 0-3.4423128 1.525142-3.4423128 3.420388-.0000004.636377.1802323 1.242898.4823622 1.754045.00718.01214.014606.03181.021925.04384.4168679.767792 1.1728166 1.718673 1.293608 2.631066.052364.265915.055155.431092.1754045.526213h.3288833c.3069752.04147.7065474.07776 1.0305014.0877.035115 0 .07085.00063.1096277 0 .038778.000631.074511 0 .1096277 0 .307423-.0094.6866405-.04964.98665-.0877h.3727346c.1212114-.09496.144768-.259295.1973302-.526213.1257523-.949873.911295-1.935226 1.315534-2.718769.281548-.498118.460437-1.097565.460437-1.710195 0-1.895245-1.547067-3.420387-3.4423137-3.420387zm0 1.030503c1.3396652-.000001 2.4118105 1.058208 2.4118105 2.389885 0 .411029-.13.85404-.328883 1.205907a1.035709 1.035709 0 0 0 -.02192.02193c-.2855523.55349-1.008702 1.506882-1.2936083 2.718769-.231202.02601-.470931.05911-.6577666.06577-.00616.00022-.015902-.000186-.021925 0-.028749.000103-.052906.000209-.065777 0a1.035709 1.035709 0 0 0 -.043852 0c-.012888.000209-.037029.000103-.065777 0-.00959-.000035-.010048 0-.021925 0-.1919869-.0066-.4179921-.04286-.6358412-.06577-.2718843-1.140638-.9343564-2.023441-1.2497569-2.587217.000368-.0018-.011813-.04698-.021925-.06578a1.035709 1.035709 0 0 0 -.043852-.04384c-.00556-.0096.00647-.01101 0-.02193-.2113317-.357525-.3508099-.78698-.3508096-1.227824 0-1.331679 1.0721462-2.389886 2.4118115-2.389886z"/><path d="m6.53298 61.059795h3.029714v.956752h-3.029714z"/><path d="m6.91568 62.463036h2.168637v.956752h-2.168637z"/><g transform="matrix(.88123208 0 0 .88123208 -24.845923 15.253841)"><path d="m29.834976 44.818432h1.8473c.311625 0 .5625.250875.5625.5625v.875c0 .311625-.250875.5625-.5625.5625h-1.8473c-.311625 0-.5625-.250875-.5625-.5625v-.875c0-.311625.250875-.5625.5625-.5625z"/><path d="m42.818977 44.818432h1.8915c.311625 0 .5625.250875.5625.5625v.875c0 .311625-.250875.5625-.5625.5625h-1.8915c-.311625 0-.5625-.250875-.5625-.5625v-.875c0-.311625.250875-.5625.5625-.5625z"/><path d="m-13.483558 57.75605h1.847309c.311626 0 .562502.250876.562502.562503v.875004c0 .311626-.250876.562502-.562502.562502h-1.847309c-.311626 0-.562503-.250876-.562503-.562502v-.875004c0-.311627.250877-.562503.562503-.562503z" transform="matrix(.70710678 -.70710678 .70710678 .70710678 0 0)"/><path d="m-.49949819 57.75605h1.89150869c.3116264 0 .5625026.250876.5625026.562503v.875004c0 .311626-.2508762.562502-.5625026.562502h-1.89150869c-.31162642 0-.56250261-.250876-.56250261-.562502v-.875004c0-.311627.25087619-.562503.56250261-.562503z" transform="matrix(.70710678 -.70710678 .70710678 .70710678 0 0)"/><path d="m-40.271931 36.27248h1.8915c.311625 0 .5625.250875.5625.5625v.875c0 .311625-.250875.5625-.5625.5625h-1.8915c-.311625 0-.5625-.250875-.5625-.5625v-.875c0-.311625.250875-.5625.5625-.5625z" transform="rotate(-90)"/><g transform="matrix(-.70710678 -.70710678 .70710678 -.70710678 0 0)"><path d="m-66.192685-7.0431161h1.847308c.311627 0 .562503.2508762.562503.5625026v.8750039c0 .3116264-.250876.5625026-.562503.5625026h-1.847308c-.311627 0-.562503-.2508762-.562503-.5625026v-.8750039c0-.3116264.250876-.5625026.562503-.5625026z"/><path d="m-53.208623-7.0431161h1.891508c.311627 0 .562503.2508762.562503.5625026v.8750039c0 .3116264-.250876.5625026-.562503.5625026h-1.891508c-.311627 0-.562503-.2508762-.562503-.5625026v-.8750039c0-.3116264.250876-.5625026.562503-.5625026z"/></g></g></g></svg>