<svg height="16" width="16" xmlns="http://www.w3.org/2000/svg"><g fill="#ccc"><path d="m1.6523438 1.0292968c-.2281974 0-.3164586.2107768-.4121094.4277344l-.2402344.5429688.0996094 4.703125c.00895-.0004971.019339.00306.027344-.00195h3.1953122l.5273438-.4160188h-3v-3.21875l12.1503906-.0664062-.087891 2.5546874h.808594l.177734-3.126953c.0099-.2368992-.181954-.4274123-.410156-.4277344h-8.488281l-.8808594-.9707032z"/><path d="m5.6484375 6-1.6484375 1h-3.1953125c-.23693779.0094169-.44609116.1911815-.4296875.4277344l.6171875 5.1562496c.0164036.236551.1906148.42816.4277344.427735l6.5800781-.011719 6.376953.011719c.237102-.002909.413564-.191039.427735-.427735l.61914-6.1562496c.014187-.2366958-.190614-.4277344-.427734-.4277344zm.28125 1h8.4316405l-.503906 5.011719-5.8554689-.011719a1.0001 1.0001 0 0 0 -.0039062 0l-6.0683594.011719-.4804687-4.011719h2.5507812a1.0001 1.0001 0 0 0 .5195312-.1445312z"/></g></svg>