<svg height="16" width="16" xmlns="http://www.w3.org/2000/svg"><g fill="#ccc"><path d="m1.7714843 1.474616c-.2281974 0-.3164586.2107768-.4121094.4277344l-.2402344.5429688.099609 4.703125c.00895-.0004971.019339.00306.027344-.00195h3.1953126l.5273438-.4160188h-3v-3.21875h12.0625001v2.4882812h.808593l.03906-2.9355468c.009903-.2368992-.181951-.4277344-.410153-.4277344h-8.4882813l-.7421876-1.1621094z"/><path d="m5.6484375 5.9726562-1.4492187 1.1738282h-3.1953126c-.20101181.1257871-.45008678.191669-.42773432.4277344l.51757812 5.4726562c.0223523.236063.1906144.427734.4277344.427734h12.9570316c.23712 0 .409304-.191332.427734-.427734l.517578-6.6464844c.018432-.2364031-.190614-.4277344-.427734-.4277344zm.2890625.8144532h8.638672l-.457031 5.8730466h-12.244141l-.4453125-4.6992185h2.7695313a.81505199.81505199 0 0 0 .5136718-.1816406z"/></g></svg>