<svg height="16" width="16" xmlns="http://www.w3.org/2000/svg"><g fill="#ccc"><path d="m1.6523438 1.0292968c-.2281974 0-.3164586.2107768-.4121094.4277344l-.2402344.5429688.0996094 4.703125c.00895-.0004971.019339.00306.027344-.00195h3.1953122l.5273438-.4160188h-3v-3.21875l12.1503906-.0664062-.087891 2.5546874h.808594l.177734-3.126953c.0099-.2368992-.181954-.4274123-.410156-.4277344h-8.488281l-.8808594-.9707032z"/><path d="m.8039357 7h3.1960643l1.6484185-1h9.3481195c.23712 0 .442203.1913211.428016.4280169l-.619836 6.1557721c-.01417.236696-.190913.425106-.428015.428015l-6.376703-.011804-6.5798722.011804c-.2371196.000425-.411612-.191464-.42801555-.428015l-.61619638-5.1557721c-.01640366-.2365529.19108204-.4186.42801983-.4280169z"/></g></svg>