<svg height="16" width="16" xmlns="http://www.w3.org/2000/svg"><g fill="#ccc"><path d="m1.7714843 1.474616c-.2281974 0-.3164586.2107768-.4121094.4277344l-.2402344.5429688.099609 4.703125c.00895-.0004971.019339.00306.027344-.00195h3.1953126l.5273438-.4160188h-3v-3.21875h12.0625001v2.4882812h.808593l.03906-2.9355468c.009903-.2368992-.181951-.4277344-.410153-.4277344h-8.4882813l-.7421876-1.1621094z"/><path d="m5.6484375 5.9726562-1.4492187 1.1738282h-3.1953126c-.20101181.1257871-.45008678.191669-.42773432.4277344l.51757812 5.4726562c.0223523.236063.1906144.427734.4277344.427734h12.9570316c.23712 0 .409304-.191332.427734-.427734l.517578-6.6464844c.018432-.2364031-.190614-.4277344-.427734-.4277344zm-2.3886719 1.8007813h.4960938c.025007.0039.0983777.0159219.2148437.0449219.134461.0335.2855294.1110375.2558594.0859375l2.328125 2.0839843-2.328125 2.0839848c-.113903.0954-.2097075.130859-.4296875.130859h-.5371094v-.46875c0-.08837.0772568-.250956.1835938-.347656l1.2734375-1.111328a.46214353.40348392 0 0 0 0-.5703129l-1.2734375-1.1132812c.02176.01983-.0082357-.0157425-.0410156-.1328125-.0166161-.05933-.1020382-.1647063-.1425782-.2539063zm8.9335934 0a.46214353.40348392 0 0 0 .009766 0h.537109v.46875c0 .08838-.077256.2509562-.183593.3476563l-1.275391 1.1113281a.46214353.40348392 0 0 0 0 .5703121l1.273438 1.113282c.106333.09672.183593.259256.183593.347656v.470703h-.537109c-.219853 0-.313921-.036713-.427734-.132813l-2.3320318-2.0839839 2.3300778-2.0820312c.112862-.09459.212461-.1288594.421875-.1308594z"/></g></svg>