<svg height="16" width="16" xmlns="http://www.w3.org/2000/svg"><g fill="#ccc"><path d="m1.6523438 1.0292968c-.2281974 0-.3164586.2107768-.4121094.4277344l-.2402344.5429688.0996094 4.703125c.00895-.0004971.019339.00306.027344-.00195h3.1953122l.5273438-.4160188h-3v-3.21875l12.1503906-.0664062-.087891 2.5546874h.808594l.177734-3.126953c.0099-.2368992-.181954-.4274123-.410156-.4277344h-8.488281l-.8808594-.9707032z"/><path d="m5.6484375 6-1.6484375 1h-3.1953125c-.23693779.0094169-.44609116.1911815-.4296875.4277344l.6171875 5.1562496c.0164036.236551.1906148.42816.4277344.427735l6.5800781-.011719 6.376953.011719c.237102-.002909.413564-.191039.427735-.427735l.61914-6.1562496c.014187-.2366958-.190614-.4277344-.427734-.4277344zm-2.3886719 1.7734375h.4960938c.025007.0039.098378.0159219.2148437.0449219.134461.0335.2855294.111038.2558594.0859375l2.328125 2.0839843-2.328125 2.0839848c-.113903.0954-.2097075.130859-.4296875.130859h-.5371094v-.46875c0-.08837.077257-.250956.1835938-.347656l1.2734375-1.111328c.1802497-.157536.1802497-.412777 0-.5703129l-1.2734375-1.1132812c.02176.01983-.0082397-.015742-.0410156-.1328125-.0166158-.05933-.1020382-.1647063-.1425782-.2539063zm8.9335934 0c.0033.00003.006466.00003.009766 0h.537109v.46875c0 .08838-.07726.2509561-.183593.3476563l-1.275391 1.1113281c-.180249.1575359-.180249.4127761 0 .5703121l1.273438 1.113282c.106332.09672.183593.259256.183593.347656v.470703h-.537109c-.219853 0-.313922-.036709-.427734-.132813l-2.3320318-2.0839839 2.3300778-2.0820312c.112862-.09459.212461-.1288594.421875-.1308594z"/></g></svg>