<svg height="16" width="16" xmlns="http://www.w3.org/2000/svg"><g fill="#ccc"><path d="m1.7714843 1.474616c-.2281974 0-.3164586.2107768-.4121094.4277344l-.2402344.5429688.099609 4.703125c.00895-.0004971.019339.00306.027344-.00195h3.1953126l.5273438-.4160188h-3v-3.21875h12.0625001v2.4882812h.808593l.03906-2.9355468c.009903-.2368992-.181951-.4277344-.410153-.4277344h-8.4882813l-.7421876-1.1621094z"/><path d="m1.0037087 7.1464942h3.1960643l1.4486719-1.1733648h9.3481201c.23712 0 .446448.1916138.428016.4280169l-.518141 6.6455097c-.01843.236402-.190895.428015-.428015.428015h-12.9565758c-.23712 0-.4056633-.191952-.4280156-.428015l-.51814466-5.4721446c-.02235245-.2360654.2270079-.3022301.42801976-.4280172z"/></g></svg>