<svg height="16" width="16" xmlns="http://www.w3.org/2000/svg"><path d="m3 1c-1.108 0-2 .892-2 2v10c0 1.108.892 2 2 2h10c1.108 0 2-.892 2-2v-10c0-1.108-.892-2-2-2zm0 1h10c.554 0 1 .446 1 1v9c0 .554-.446 1-1 1h-10c-.554 0-1-.446-1-1v-9c0-.554.446-1 1-1zm5 1.0253906c-.1362185 0-.272437.0542413-.375.1601563l-2.5 3c-.05587.07123-.0872437.1575469-.0898438.2480469-.0129999.2669999.1878438.5564531.4648438.5644531h1.5v3.5000001c0 .261.238.5.5.5h1c.03126.003.06249.003.09375 0 .2353-.05171.40395-.2591.40625-.5v-3.5000001h1.5c.369-.012.605-.5245.375-.8125l-2.5-3c-.102563-.105915-.2387815-.1601563-.375-.1601563z" fill="#bebebe"/></svg>