<svg height="16" width="16" xmlns="http://www.w3.org/2000/svg"><g fill="#bebebe" transform="translate(-101 -318)"><rect height="2" rx=".5625" width="2.9723" x="101" y="328"/><rect height="2" rx=".5625" width="3.0165" x="113.984" y="328"/><rect height="2" rx=".5625" transform="matrix(.70711 -.70711 .70711 .70711 -155.46 190.41)" width="3.0165" x="93.984" y="284"/><rect height="2" rx=".5625" transform="matrix(0 -1 1 0 -176 418)" width="3.0165" x="93.984" y="284"/><rect height="2" rx=".5625" transform="matrix(-.70711 -.70711 .70711 -.70711 -29.593 593.46)" width="3.0165" x="93.984" y="284"/><path d="m107.25 327c-.16704.009-.32215.11722-.37496.26083l-.83643 2.217c-.10137.23354.12645.52786.4038.52166 0 0 1.0705.00012 2.567.00012s2.567-.00012 2.567-.00012c.27735.006.50517-.28812.4038-.52166l-.83643-2.217c-.0727-.19298-.33686-.30615-.54801-.23475-.21274.0692-.82049.26083-1.5863.26083-.76585 0-1.3736-.19167-1.5863-.26083-.0548-.0194-.11421-.0284-.17305-.026z"/></g></svg>