<svg height="16" width="16" xmlns="http://www.w3.org/2000/svg"><g transform="matrix(.5 0 0 .5 -.026238 -.019062)"><path d="m6.594 5.385v9.691c.797-.321 1.666-.502 2.578-.502.104 0 .206.011.309.016v-5.753h15.587v12.562h-8.983c.001.031.005.061.005.092 0 1.221-.319 2.365-.873 3.359h12.737v-19.465z" fill="#bebebe"/><path d="m6.594 5.385h21.358999v1.36h-21.358999z" fill="#9b9b9b"/><path d="m8.464 16.366c-.201 0-.364.167-.364.372v.723c-.36.096-.705.24-1.021.424l-.513-.514c-.073-.072-.16-.111-.254-.111-.094-.002-.189.033-.262.104l-1.005 1.006c-.143.143-.137.369.007.514l.515.514c-.184.316-.329.66-.425 1.021h-.723c-.205 0-.373.164-.373.365v1.416c0 .201.167.363.373.363h.723c.096.361.241.705.425 1.021l-.515.514c-.145.146-.15.371-.007.516l1.005 1.004c.144.143.369.137.516-.006l.513-.516c.316.184.661.328 1.021.424v.723c0 .207.163.373.364.373h1.416c.201 0 .364-.166.364-.373v-.723c.36-.096.705-.24 1.021-.424l.513.516c.146.143.372.148.516.006l1.005-1.004c.143-.145.137-.369-.007-.516l-.516-.514c.185-.316.329-.66.425-1.021h.724c.205 0 .372-.162.372-.363v-1.416c0-.201-.167-.365-.372-.365h-.724c-.096-.361-.24-.705-.425-1.021l.516-.514c.144-.145.149-.371.007-.514l-1.005-1.006c-.144-.143-.369-.137-.516.008l-.513.514c-.316-.184-.661-.328-1.021-.424v-.723c0-.205-.163-.372-.364-.372h-1.416zm.708 3.575c.855 0 1.55.693 1.55 1.549s-.694 1.549-1.55 1.549-1.55-.693-1.55-1.549.694-1.549 1.55-1.549z" fill="#bebebe" opacity=".7"/><g fill="#9b9b9b"><path d="m5.255 23.895-.203.201c-.145.146-.15.373-.007.516l.246.246.276-.273c-.126-.218-.226-.452-.312-.69z"/><path d="m9.172 24.039c.855 0 1.55-.693 1.55-1.549 0-.176-.036-.344-.09-.5-.209.607-.78 1.049-1.46 1.049s-1.251-.441-1.46-1.049c-.054.156-.09.324-.09.5 0 .856.694 1.549 1.55 1.549z"/><path d="m5.292 19.123.758-.76c.072-.07.168-.105.262-.104.094 0 .181.039.254.111l.513.514c.316-.184.661-.328 1.021-.424v-.723c0-.205.163-.373.364-.373h1.416c.201 0 .364.168.364.373v.723c.36.096.705.24 1.021.424l.513-.514c.146-.145.372-.15.516-.008l.759.76.239-.24c.144-.145.149-.371.007-.514l-1.005-1.006c-.144-.143-.369-.137-.516.008l-.513.514c-.316-.184-.661-.328-1.021-.424v-.723c0-.205-.163-.372-.364-.372h-1.416c-.201 0-.364.167-.364.372v.723c-.36.096-.705.24-1.021.424l-.513-.514c-.073-.072-.16-.111-.254-.111-.094-.002-.189.033-.262.104l-1.005 1.006c-.143.143-.137.369.007.514z"/><path d="m13.925 20.418h-.724c-.03-.113-.073-.223-.113-.332l-.312.311c.185.316.329.66.425 1.021h.724c.205 0 .372.164.372.363v-.998c0-.201-.167-.365-.372-.365z"/><path d="m13.088 23.895c-.086.238-.186.473-.312.689l.276.273.246-.246c.143-.143.137-.369-.007-.516z"/><path d="m4.419 21.418h.723c.096-.361.241-.705.425-1.021l-.312-.311c-.04.109-.083.219-.113.332h-.723c-.205 0-.373.164-.373.365v.998c.001-.199.168-.363.373-.363z"/><path d="m16.084 21.398c.001.031.005.061.005.092 0 .434-.045.857-.122 1.27h9.1v-1.361h-8.983z"/></g></g></svg>