<svg height="16" width="16" xmlns="http://www.w3.org/2000/svg"><g fill="#bebebe"><path d="m3 2v4.2363281c.0110463.0089306.0263913.0143865.0371094.0234375.0524615-.5659084.4521206-1.0558383.9960937-1.1835937l-.0332031-2.0761719h9v8h-2.039062v.691406c0 .107774-.017231.210013-.042969.308594h3.082031v-10z" stroke-width=".5"/><path d="m4.3097875 6.0012078c-.1960759 0-.3550844.16291-.3550844.3628886v.705291c-.3511823.0936488-.6877321.2341214-.9959919.4136148l-.500435-.5014104c-.0712108-.0702378-.1560774-.1082794-.2477786-.1082794-.0916968-.0019544-.1843724.0321924-.2555827.1014514l-.9803837.981359c-.139498.139496-.133644.3599618.00684.5014104l.5023702.5014102c-.179489.30826-.3209378.6438342-.4145862.9959916h-.7052912c-.199978 0-.363864.159982-.363864.35606v1.381316c0 .196084.16291.354109.363864.354109h.7052912c.093648.35216.2350972.687734.4145902.995994l-.502386.501408c-.141448.14242-.146326.361916-.00684.503364l.9803835.979406c.1404741.1395.3599621.13364.5033613-.006l.500435-.503362c.30826.1795.6448098.319966.9959918.413616v.705292c0 .201928.1590079.363862.3550846.363862h1.3813171c.196076 0 .3550843-.16194.3550843-.363862v-.705144c.3511825-.09364.6877322-.23412.9959923-.413616l.5004345.503362c.142426.1395.3628881.1444.5033616.006l.9803912-.979508c.139496-.14144.1336441-.35996-.00684-.503362l-.5033453-.501456c.1804659-.30826.3209416-.643834.41459-.995994h.7062668c.199978 0 .3628882-.158024.3628882-.354109v-1.381316c0-.196076-.16291-.35606-.3628882-.35606h-.7062669c-.0936483-.3521574-.2341216-.6877316-.4145899-.9959918l.5033611-.5014102c.1404739-.1414486.1453501-.361913.0068482-.5014104l-.9804036-.9813592c-.1404737-.1394988-.3599623-.1336458-.5033612.007815l-.5004348.5013992c-.3082603-.1794932-.6448101-.3199662-.9959922-.4136148v-.7052912c0-.199978-.159008-.3628882-.3550844-.3628882h-1.3813169zm.6906585 3.4874356c.8340578 0 1.5120347.6760256 1.5120347 1.5110576 0 .835035-.6770014 1.511059-1.5120348 1.511059s-1.512035-.676024-1.512035-1.511059c0-.835032.6770016-1.5110576 1.5120351-1.5110576z" opacity=".7" stroke-width=".975506"/></g></svg>