<?xml version="1.0" encoding="UTF-8" standalone="no"?>
<!-- Created with Inkscape (http://www.inkscape.org/) -->

<svg
   xmlns:dc="http://purl.org/dc/elements/1.1/"
   xmlns:cc="http://creativecommons.org/ns#"
   xmlns:rdf="http://www.w3.org/1999/02/22-rdf-syntax-ns#"
   xmlns:svg="http://www.w3.org/2000/svg"
   xmlns="http://www.w3.org/2000/svg"
   xmlns:sodipodi="http://sodipodi.sourceforge.net/DTD/sodipodi-0.dtd"
   xmlns:inkscape="http://www.inkscape.org/namespaces/inkscape"
   width="16px"
   height="16px"
   id="svg3026"
   version="1.1"
   inkscape:version="0.48.4 r9939"
   sodipodi:docname="New document 2">
  <defs
     id="defs3028" />
  <sodipodi:namedview
     id="base"
     pagecolor="#ffffff"
     bordercolor="#666666"
     borderopacity="1.0"
     inkscape:pageopacity="0.0"
     inkscape:pageshadow="2"
     inkscape:zoom="22.197802"
     inkscape:cx="8"
     inkscape:cy="8"
     inkscape:current-layer="layer1"
     showgrid="true"
     inkscape:grid-bbox="true"
     inkscape:document-units="px"
     showguides="true"
     inkscape:guide-bbox="true"
     inkscape:window-width="580"
     inkscape:window-height="707"
     inkscape:window-x="50"
     inkscape:window-y="50"
     inkscape:window-maximized="0">
    <sodipodi:guide
       orientation="1,0"
       position="8.018812,8.829703"
       id="guide3034" />
    <sodipodi:guide
       orientation="0,1"
       position="9.3702971,8.018812"
       id="guide3036" />
  </sodipodi:namedview>
  <metadata
     id="metadata3031">
    <rdf:RDF>
      <cc:Work
         rdf:about="">
        <dc:format>image/svg+xml</dc:format>
        <dc:type
           rdf:resource="http://purl.org/dc/dcmitype/StillImage" />
        <dc:title></dc:title>
      </cc:Work>
    </rdf:RDF>
  </metadata>
  <g
     id="layer1"
     inkscape:label="Layer 1"
     inkscape:groupmode="layer">
    <g
       id="g3039"
       transform="matrix(0.5,0,0,0.5,-0.02623754,-0.01906198)">
	<path
   id="path3041"
   d="m 6.594,5.385 v 9.691 c 0.797,-0.321 1.666,-0.502 2.578,-0.502 0.104,0 0.206,0.011 0.309,0.016 V 8.837 h 15.587 v 12.562 h -8.983 c 10e-4,0.031 0.005,0.061 0.005,0.092 0,1.221 -0.319,2.365 -0.873,3.359 H 27.954 V 5.385 H 6.594 z"
   style="opacity:0.7"
   inkscape:connector-curvature="0" />

	<rect
   id="rect3043"
   height="1.36"
   width="21.358999"
   y="5.3850002"
   x="6.5939999" />

	<g
   id="g3045">
		<g
   style="opacity:0.7"
   groupmode="layer"
   label="Calque 1"
   id="layer1-1">
			<path
   d="m 8.464,16.366 c -0.201,0 -0.364,0.167 -0.364,0.372 v 0.723 c -0.36,0.096 -0.705,0.24 -1.021,0.424 L 6.566,17.371 C 6.493,17.299 6.406,17.26 6.312,17.26 6.218,17.258 6.123,17.293 6.05,17.364 L 5.045,18.37 c -0.143,0.143 -0.137,0.369 0.007,0.514 l 0.515,0.514 c -0.184,0.316 -0.329,0.66 -0.425,1.021 H 4.419 c -0.205,0 -0.373,0.164 -0.373,0.365 V 22.2 c 0,0.201 0.167,0.363 0.373,0.363 h 0.723 c 0.096,0.361 0.241,0.705 0.425,1.021 l -0.515,0.514 c -0.145,0.146 -0.15,0.371 -0.007,0.516 l 1.005,1.004 c 0.144,0.143 0.369,0.137 0.516,-0.006 L 7.079,25.096 C 7.395,25.28 7.74,25.424 8.1,25.52 v 0.723 c 0,0.207 0.163,0.373 0.364,0.373 H 9.88 c 0.201,0 0.364,-0.166 0.364,-0.373 V 25.52 c 0.36,-0.096 0.705,-0.24 1.021,-0.424 l 0.513,0.516 c 0.146,0.143 0.372,0.148 0.516,0.006 l 1.005,-1.004 c 0.143,-0.145 0.137,-0.369 -0.007,-0.516 l -0.516,-0.514 c 0.185,-0.316 0.329,-0.66 0.425,-1.021 h 0.724 c 0.205,0 0.372,-0.162 0.372,-0.363 v -1.416 c 0,-0.201 -0.167,-0.365 -0.372,-0.365 h -0.724 c -0.096,-0.361 -0.24,-0.705 -0.425,-1.021 l 0.516,-0.514 c 0.144,-0.145 0.149,-0.371 0.007,-0.514 l -1.005,-1.006 c -0.144,-0.143 -0.369,-0.137 -0.516,0.008 l -0.513,0.514 c -0.316,-0.184 -0.661,-0.328 -1.021,-0.424 v -0.723 c 0,-0.205 -0.163,-0.372 -0.364,-0.372 H 8.464 l 0,-0.001 z m 0.708,3.575 c 0.855,0 1.55,0.693 1.55,1.549 0,0.856 -0.694,1.549 -1.55,1.549 -0.856,0 -1.55,-0.693 -1.55,-1.549 0,-0.856 0.694,-1.549 1.55,-1.549 z"
   connector-curvature="0"
   id="rect3267"
   inkscape:connector-curvature="0" />

		</g>

		<g
   id="g3049">
			<path
   id="path3051"
   d="m 5.255,23.895 -0.203,0.201 c -0.145,0.146 -0.15,0.373 -0.007,0.516 l 0.246,0.246 0.276,-0.273 C 5.441,24.367 5.341,24.133 5.255,23.895 z"
   inkscape:connector-curvature="0" />

			<path
   id="path3053"
   d="m 9.172,24.039 c 0.855,0 1.55,-0.693 1.55,-1.549 0,-0.176 -0.036,-0.344 -0.09,-0.5 -0.209,0.607 -0.78,1.049 -1.46,1.049 -0.68,0 -1.251,-0.441 -1.46,-1.049 -0.054,0.156 -0.09,0.324 -0.09,0.5 0,0.856 0.694,1.549 1.55,1.549 z"
   inkscape:connector-curvature="0" />

			<path
   id="path3055"
   d="m 5.292,19.123 0.758,-0.76 c 0.072,-0.07 0.168,-0.105 0.262,-0.104 0.094,0 0.181,0.039 0.254,0.111 l 0.513,0.514 C 7.395,18.7 7.74,18.556 8.1,18.46 v -0.723 c 0,-0.205 0.163,-0.373 0.364,-0.373 H 9.88 c 0.201,0 0.364,0.168 0.364,0.373 v 0.723 c 0.36,0.096 0.705,0.24 1.021,0.424 l 0.513,-0.514 c 0.146,-0.145 0.372,-0.15 0.516,-0.008 l 0.759,0.76 0.239,-0.24 c 0.144,-0.145 0.149,-0.371 0.007,-0.514 L 12.294,17.362 C 12.15,17.219 11.925,17.225 11.778,17.37 l -0.513,0.514 C 10.949,17.7 10.604,17.556 10.244,17.46 v -0.723 c 0,-0.205 -0.163,-0.372 -0.364,-0.372 H 8.464 C 8.263,16.365 8.1,16.532 8.1,16.737 V 17.46 C 7.74,17.556 7.395,17.7 7.079,17.884 L 6.566,17.37 C 6.493,17.298 6.406,17.259 6.312,17.259 6.218,17.257 6.123,17.292 6.05,17.363 l -1.005,1.006 c -0.143,0.143 -0.137,0.369 0.007,0.514 l 0.24,0.24 z"
   inkscape:connector-curvature="0" />

			<path
   id="path3057"
   d="m 13.925,20.418 h -0.724 c -0.03,-0.113 -0.073,-0.223 -0.113,-0.332 l -0.312,0.311 c 0.185,0.316 0.329,0.66 0.425,1.021 h 0.724 c 0.205,0 0.372,0.164 0.372,0.363 v -0.998 c 0,-0.201 -0.167,-0.365 -0.372,-0.365 z"
   inkscape:connector-curvature="0" />

			<path
   id="path3059"
   d="m 13.088,23.895 c -0.086,0.238 -0.186,0.473 -0.312,0.689 l 0.276,0.273 0.246,-0.246 c 0.143,-0.143 0.137,-0.369 -0.007,-0.516 l -0.203,-0.2 z"
   inkscape:connector-curvature="0" />

			<path
   id="path3061"
   d="M 4.419,21.418 H 5.142 C 5.238,21.057 5.383,20.713 5.567,20.397 L 5.255,20.086 c -0.04,0.109 -0.083,0.219 -0.113,0.332 H 4.419 c -0.205,0 -0.373,0.164 -0.373,0.365 v 0.998 c 10e-4,-0.199 0.168,-0.363 0.373,-0.363 z"
   inkscape:connector-curvature="0" />

		</g>

	</g>

	<path
   id="path3063"
   d="m 16.084,21.398 c 0.001,0.031 0.005,0.061 0.005,0.092 0,0.434 -0.045,0.857 -0.122,1.27 h 9.1 v -1.361 h -8.983 z"
   inkscape:connector-curvature="0" />

</g>
  </g>
</svg>
