<svg height="16" width="16" xmlns="http://www.w3.org/2000/svg"><path d="m2.3515625.73632812-.9394531.94140628 4.6464844 4.6464844-.078125.0410156 3.6972656 3.6972656.0410156-.078125 5.236328 5.236328.939453-.941406-5.515625-5.5156251 3.650391-6.7636719-6.7519532 3.6621094zm6.6484375 5.26367188a1 1 0 0 1 1 1 1 1 0 0 1 -.5136719.8710938l-1.3574219-1.3574219a1 1 0 0 1 .8710938-.5136719zm-4.2402344 1.0253906-3.6992187 2.0058594h5.7050781zm2.2402344 2.2402344v5.697266c.00437.000555.0292969.005859.0292969.005859l1.9882812-3.685547z" fill="#bebebe"/></svg>