<svg height="16" width="16" xmlns="http://www.w3.org/2000/svg"><g fill="#bebebe"><path d="m6.6523438 10.810547-5.65625 4.1875v1h14.0000002v-1l-5.6562502-4.1875-1.34375.6875zm.015625 1.197266.7558594.486328c.1614141.103572.3492299.158493.5410156.158203h.0625c.1917857.00029.3796015-.05463.5410156-.158203l.7558594-.486328 3.6679692 2.992187h-9.992188z"/><path d="m.9960938 5.998047v2l7 4.5625 7.0000002-4.5625v-2z"/><path d="m.9960938 6.998047v8h1v-8zm13.0000002 0v8h1v-8z" fill="#bebebe"/><path d="m.9960938 6.998047.0039062-1.498047 7-5.5 7 5.5-.0039 1.498047zm1-1h12.0000002l-5.996094-4.998047z"/></g></svg>