<svg height="16" width="16" xmlns="http://www.w3.org/2000/svg"><g fill="#bebebe"><path d="m6.65625 7.8125-5.65625 4.1875v1h14v-1l-4.287109-3.1738281a5 5 0 0 1 -1.7187504-.8339844l-.9941406.5078125zm.015625 1.1972656.7558594.4863282c.1614141.1035721.3492299.1584931.5410156.1582031h.0625c.1917857.00029.3796015-.05463.5410156-.1582031l.7558594-.4863282 3.667969 2.9921874h-9.9921878z"/><path d="m1 3v2l7 4.5625 1.71875-1.1210938a5 5 0 0 1 -.9492188-.6308593l-.7695312.5605469-6-4.3710938h5a5 5 0 0 1 .1015625-1z"/><path d="m1 4v8h1v-8zm14 3.9921875a5 5 0 0 1 -1 .5839844v3.4238281h1z" fill="#bebebe"/><path d="m16 4a4 4 0 0 1 -8 0 4 4 0 1 1 8 0z" fill="#d33636"/></g></svg>