<svg height="16" width="16" xmlns="http://www.w3.org/2000/svg"><g fill="#bebebe"><path d="m15.09375 5.2851562-.302734.1542969.302734.2617188v-.1386719zm0 2.890625a1.5331622 1.5331622 0 0 1 -.486328.2402344v2.2558594l-1.623047-1.1757812a1.5331622 1.5331622 0 0 1 -.275391.4003906l2.384766 1.7285156z"/><path d="m6.65625 8.3125-.15625.09375-.125.09375-1.46875.96875-4 2.6875v.34375h14.1875v-.34375l-2.865234-1.923828a1.5331622 1.5331622 0 0 1 -.648438.132812l2.47461 1.66211h-12.1093755l3.2226563-2.1640628 1.4667968-.96875a.47347348.47347348 0 0 0 .0234375-.015625l.0039063-.0019531.4941406.3125a1.5331622 1.5331622 0 0 1 -.2460938-.7167969zm3.2832031.6367188-.1777343.2070312.4277342.2832031z"/><path d="m.90625 4.4375v1.125 6.0625l3.75-2.71875 1.40625-1zm.4414062.8300781 3.9394532 2.6484375-.8867188.6308594a.44198593.44198593 0 0 0 -.00391.00195l-3.0488244 2.210941v-5.197266z"/><path d="m.90625 3.5v.40625.0625l6.0683594 3.9179688a1.5331622 1.5331622 0 0 1 .0039062-.0136719l.1503906-.4648438-.2128906-.1386719-.2558594.0195313a1.5331622 1.5331622 0 0 1 -1.6191406-1.2304687l-3.2089844-2.0722657h2.8242188 1.6445312l-.265625-.2285156a1.5331622 1.5331622 0 0 1 -.2382812-.2578125h-1.140625-3.28125z"/><path d="m-37.966101-8.6779655-16.560366-7.0384215-.214649 17.1640067-6.733032-16.6868627-12.288564 11.9850062 7.038421-16.5603662-17.164006-.214648 16.686862-6.733032-11.985006-12.288565 16.560366 7.038421.214649-17.164006 6.733032 16.686863 12.288564-11.985006-7.038421 16.560366 17.164006.214648-16.686862 6.733032z" transform="matrix(.16285207 -.01451735 .01451735 .16285207 20.49599 7.804651)"/></g></svg>