<svg height="16" width="16" xmlns="http://www.w3.org/2000/svg"><g fill="#bebebe"><path d="m15.09375 6.4375-5.15625 3.46875 1.40625 1 3.75 2.71875v-6.0625zm-.486328.9140625v.2109375 5.109375l-2.978516-2.160156a.48618451.48618451 0 0 0 -.0039-.002l-.832037-.5917502z"/><path d="m6.65625 10.3125-.15625.09375-.125.09375-1.46875.96875-4 2.6875v.34375h14.1875v-.34375l-4-2.6875-1.46875-.96875-.125-.09375-.15625-.09375-1.1875.75-.125.09375h-.0625l-.125-.09375zm.00586.564453.9121094.576172.1113281.08203a.47347348.47347348 0 0 0 .2832031.09375h.0625a.47347348.47347348 0 0 0 .2832031-.09375l.1113281-.08203.9121094-.576172.00391.0019a.47347348.47347348 0 0 0 .023437.01563l1.4667968.96875 3.222657 2.164063h-12.1093795l3.2226563-2.164063 1.4667968-.96875a.47347348.47347348 0 0 0 .023437-.01563z"/><path d="m.90625 6.4375v1.125 6.0625l3.75-2.71875 1.40625-1zm.4414062.8300781 3.9394532 2.6484375-.8867188.6308594a.44198593.44198593 0 0 0 -.00391.002l-3.0488244 2.210891v-5.197266z"/><path d="m.90625 6.53125v-.40625-.0625l6.4375-4.15625.3125-.1875.34375-.21875.34375.21875.3125.1875 6.4375 4.15625v.0625.40625h-.46875-3.5-1.9375-2.375-2.15625-3.28125zm.9257812-.486328h2.8242188 2.15625 2.375 1.9375 3.042969l-5.7695315-3.7265626-.3046875-.1835938a.48618451.48618451 0 0 1 -.011719-.00586l-.082031-.0527337-.0820312.0527343a.48618451.48618451 0 0 1 -.0117188.0058594l-.3046875.1835938z"/></g></svg>