<svg height="16" width="16" xmlns="http://www.w3.org/2000/svg"><g fill="#bebebe"><path d="m6.65625 7.8125-5.65625 4.1875v1h8.0722656l.5-.998047h-6.5683594l3.6679688-2.9921874.7558594.4863282c.1614141.1035721.3492299.1584931.5410156.1582031h.0625c.1917857.00029.3796015-.05463.5410156-.1582031l.7558594-.4863282 1.236328 1.0078124.474609-.9511718-1.695312-1.2539062-1.34375.6875z"/><path d="m1 3v2l7 4.5625 7-4.5625v-2zm1 1h12l-6 4.3710938z"/><path d="m1 4v8h1v-8zm13 0v5.1445312l1 1.9999998v-7.144531z" fill="#bebebe"/><path d="m12.486328 9c-.178063.00458-.340249.103524-.425781.2597656l-3.0000001 6.0000004c-.1826751.333574.0591353.74089.4394531.740234h6c.380318.000656.622128-.40666.439453-.740234l-3-6.0000004c-.090227-.1648578-.26527-.2652056-.453125-.2597656zm-.486328 2h.5.5v2h-.5-.5zm.5 3c.276142 0 .5.223858.5.5s-.223858.5-.5.5-.5-.223858-.5-.5.223858-.5.5-.5z" fill="#ff7b1d"/></g></svg>