<svg height="16" width="16" xmlns="http://www.w3.org/2000/svg" xmlns:xlink="http://www.w3.org/1999/xlink"><linearGradient id="a"><stop offset="0" stop-color="#49a3d2"/><stop offset=".704952" stop-color="#3470b4"/><stop offset="1" stop-color="#1b5699"/></linearGradient><linearGradient id="b" gradientUnits="userSpaceOnUse" x1="3.224807" x2="14.247512" xlink:href="#a" y1="56" y2="56"/><linearGradient id="c" gradientUnits="userSpaceOnUse" x1="6.479761" x2="10.594844" xlink:href="#a" y1="61.636364" y2="52.545456"/><g transform="translate(0 -48)"><path d="m1.7524882 52.106438h1.4698265v1.415815c0 1.051597.5623174 2.104467 1.3608324 2.957708.798597.853029 1.9927433 1.50218 3.4163411 1.50218 1.7366867 0 2.5723248 1.010467 2.5723248 2.229908v2.229909.991071h2.204849v-.991071-2.229909c0-2.249305-2.065944-4.212049-4.7771738-4.212049-.7628779 0-1.3941997-.341919-1.8708147-.851613-.4769091-.509693-.7015098-1.191408-.7015098-1.626063v-1.415815h1.4698996l-2.5723237-3.539538-2.5722514 3.539538z" fill="url(#c)" fill-rule="evenodd"/><path d="m11.643856 48.565886-2.5437002 3.541482h1.4731192v1.413167c0 .434655-.226053 1.11759-.7023012 1.627283-.02261.02416-.049495.04512-.072796.06852.6999703.206313 1.3415383.527999 1.8970693.942111.646777-.789552 1.083427-1.714138 1.083427-2.637911v-1.413167h1.468838l-2.603653-3.541482zm-7.3912914 9.039986c-.6486491.727256-1.0277575 1.642651-1.0277575 2.607935v2.226808.993499h2.2011144v-.993499-2.226808c0-.596129.2053331-1.143306.6123724-1.545919-.676862-.252779-1.2812244-.62286-1.7857293-1.062016z" fill="url(#b)" fill-rule="evenodd"/><path d="m39.090909 55.727273v2h-2l-6 8h-4v3h4l6-8h2v2l4-3.5zm-12 2v3h4l1.21875 1.625 1.125-1.5-2.34375-3.125zm12 6.03125v1.96875h-2l-1.21875-1.625-1.125 1.5 2.34375 3.125h2v2l4-3.5-3.96875-3.46875z" fill="#fff" opacity=".6"/></g></svg>