<svg height="16" width="16" xmlns="http://www.w3.org/2000/svg"><path d="m6 1v2h-1c-2.77 0-5 2.23-5 5s2.23 5 5 5v-2c-1.662 0-3-1.338-3-3s1.338-3 3-3h1v2l4-3zm5 2v2c1.073473 0 2.001331.5631082 2.53125 1.40625.987593.3919346 1.827262 1.0551585 2.4375 1.90625.006736-.1066986.03125-.2040443.03125-.3125 0-2.77-2.23-5-5-5zm.5 4c-2.4852814 0-4.5 2.0147186-4.5 4.5 0 2.485281 2.0147186 4.5 4.5 4.5 2.485281 0 4.5-2.014719 4.5-4.5 0-2.4852814-2.014719-4.5-4.5-4.5zm-.5 2h1v4h1v1h-3v-1h1v-2h-1v-1c1 0 1-1 1-1zm-4.96875 2.96875-.03125.03125.03125.03125c-.00197-.02051.00174-.04192 0-.0625z" fill="#bebebe" opacity=".9"/></svg>