<?xml version="1.0" encoding="UTF-8" standalone="no"?>
<!-- Created with Inkscape (http://www.inkscape.org/) -->

<svg
   xmlns:dc="http://purl.org/dc/elements/1.1/"
   xmlns:cc="http://creativecommons.org/ns#"
   xmlns:rdf="http://www.w3.org/1999/02/22-rdf-syntax-ns#"
   xmlns:svg="http://www.w3.org/2000/svg"
   xmlns="http://www.w3.org/2000/svg"
   xmlns:xlink="http://www.w3.org/1999/xlink"
   xmlns:sodipodi="http://sodipodi.sourceforge.net/DTD/sodipodi-0.dtd"
   xmlns:inkscape="http://www.inkscape.org/namespaces/inkscape"
   width="16"
   height="16"
   id="svg2"
   version="1.1"
   inkscape:version="0.48.3.1 r9886"
   sodipodi:docname="media-playlist-shuffle-symbolic.svg">
  <defs
     id="defs4">
    <linearGradient
       id="linearGradient2867-449-88-871-390-598-476-591-434-148-69">
      <stop
         offset="0"
         style="stop-color:#49a3d2;stop-opacity:1"
         id="stop4629-22" />
      <stop
         offset="0.704952"
         style="stop-color:#3470b4;stop-opacity:1"
         id="stop4631-4" />
      <stop
         offset="1"
         style="stop-color:#1b5699;stop-opacity:1"
         id="stop4633-7" />
    </linearGradient>
    <linearGradient
       y2="13.487591"
       x2="212.70323"
       y1="37.143356"
       x1="212.48347"
       gradientTransform="matrix(-0.4100229,0,0,0.5447147,95.555769,-7.2582748)"
       gradientUnits="userSpaceOnUse"
       id="linearGradient3024-5"
       xlink:href="#linearGradient2867-449-88-871-390-598-476-591-434-148-69"
       inkscape:collect="always" />
    <linearGradient
       y2="16.912945"
       x2="219.1192"
       y1="26.09388"
       x1="219.00932"
       gradientTransform="matrix(-0.4100229,0,0,0.5447147,95.555769,-7.2582748)"
       gradientUnits="userSpaceOnUse"
       id="linearGradient3943"
       xlink:href="#linearGradient2867-449-88-871-390-598-476-591-434-148-69"
       inkscape:collect="always" />
    <linearGradient
       y2="28.208714"
       x2="210.2438"
       y1="41.161266"
       x1="210.2438"
       gradientTransform="matrix(-0.4100229,0,0,0.5447147,95.555769,-7.2582748)"
       gradientUnits="userSpaceOnUse"
       id="linearGradient3945"
       xlink:href="#linearGradient2867-449-88-871-390-598-476-591-434-148-69"
       inkscape:collect="always" />
    <linearGradient
       inkscape:collect="always"
       xlink:href="#linearGradient2867-449-88-871-390-598-476-591-434-148-69"
       id="linearGradient3781"
       gradientUnits="userSpaceOnUse"
       gradientTransform="matrix(-0.4100229,0,0,0.5447147,122.64668,47.468998)"
       x1="210.2438"
       y1="41.161266"
       x2="210.2438"
       y2="28.208714" />
    <linearGradient
       inkscape:collect="always"
       xlink:href="#linearGradient2867-449-88-871-390-598-476-591-434-148-69"
       id="linearGradient3784"
       gradientUnits="userSpaceOnUse"
       gradientTransform="matrix(-0.4100229,0,0,0.5447147,122.64668,47.468998)"
       x1="219.00932"
       y1="26.09388"
       x2="219.1192"
       y2="16.912945" />
    <linearGradient
       inkscape:collect="always"
       xlink:href="#linearGradient2867-449-88-871-390-598-476-591-434-148-69"
       id="linearGradient3787"
       gradientUnits="userSpaceOnUse"
       gradientTransform="matrix(-0.4100229,0,0,0.5447147,122.64668,47.468998)"
       x1="212.48347"
       y1="37.143356"
       x2="212.70323"
       y2="13.487591" />
    <linearGradient
       inkscape:collect="always"
       xlink:href="#linearGradient2867-449-88-871-390-598-476-591-434-148-69"
       id="linearGradient3796"
       x1="3.224807"
       y1="56"
       x2="14.247512"
       y2="56"
       gradientUnits="userSpaceOnUse" />
    <linearGradient
       inkscape:collect="always"
       xlink:href="#linearGradient2867-449-88-871-390-598-476-591-434-148-69"
       id="linearGradient3804"
       x1="6.4797611"
       y1="61.636364"
       x2="10.594844"
       y2="52.545456"
       gradientUnits="userSpaceOnUse" />
  </defs>
  <sodipodi:namedview
     id="base"
     pagecolor="#ffffff"
     bordercolor="#666666"
     borderopacity="1.0"
     inkscape:pageopacity="0.0"
     inkscape:pageshadow="2"
     inkscape:zoom="5.5"
     inkscape:cx="-4.1143446"
     inkscape:cy="9.5377143"
     inkscape:current-layer="layer1"
     showgrid="true"
     inkscape:document-units="px"
     inkscape:grid-bbox="true"
     inkscape:window-width="1366"
     inkscape:window-height="711"
     inkscape:window-x="0"
     inkscape:window-y="0"
     inkscape:window-maximized="1" />
  <metadata
     id="metadata7">
    <rdf:RDF>
      <cc:Work
         rdf:about="">
        <dc:format>image/svg+xml</dc:format>
        <dc:type
           rdf:resource="http://purl.org/dc/dcmitype/StillImage" />
        <dc:title></dc:title>
      </cc:Work>
    </rdf:RDF>
  </metadata>
  <g
     id="layer1"
     inkscape:label="Layer 1"
     inkscape:groupmode="layer"
     transform="translate(0,-48)">
    <path
       inkscape:connector-curvature="0"
       id="path6784"
       style="fill:url(#linearGradient3804);fill-opacity:1;fill-rule:evenodd;stroke:none"
       d="m 1.7524882,52.106438 1.4698265,0 0,1.415815 c 0,1.051597 0.5623174,2.104467 1.3608324,2.957708 0.798597,0.853029 1.9927433,1.50218 3.4163411,1.50218 1.7366867,0 2.5723248,1.010467 2.5723248,2.229908 l 0,2.229909 0,0.991071 2.204849,0 0,-0.991071 0,-2.229909 C 12.776662,57.962744 10.710718,56 7.9994882,56 7.2366103,56 6.6052885,55.658081 6.1286735,55.148387 5.6517644,54.638694 5.4271637,53.956979 5.4271637,53.522324 l 0,-1.415815 1.4698996,0 -2.5723237,-3.539538 -2.5722514,3.539538 z" />
    <path
       style="fill:url(#linearGradient3796);fill-opacity:1.0;fill-rule:evenodd;stroke:none"
       d="m 11.643856,48.565886 -2.5437002,3.541482 1.4731192,0 0,1.413167 c 0,0.434655 -0.226053,1.11759 -0.7023012,1.627283 -0.02261,0.02416 -0.049495,0.04512 -0.072796,0.06852 0.6999703,0.206313 1.3415383,0.527999 1.8970693,0.942111 0.646777,-0.789552 1.083427,-1.714138 1.083427,-2.637911 l 0,-1.413167 1.468838,0 -2.603653,-3.541482 z m -7.3912914,9.039986 c -0.6486491,0.727256 -1.0277575,1.642651 -1.0277575,2.607935 l 0,2.226808 0,0.993499 2.2011144,0 0,-0.993499 0,-2.226808 c 0,-0.596129 0.2053331,-1.143306 0.6123724,-1.545919 -0.676862,-0.252779 -1.2812244,-0.62286 -1.7857293,-1.062016 z"
       id="path6793"
       inkscape:connector-curvature="0" />
    <path
       inkscape:connector-curvature="0"
       style="opacity:0.6;color:#000000;fill:#ffffff;fill-opacity:1;fill-rule:nonzero;stroke:none;stroke-width:1;marker:none;visibility:visible;display:inline;overflow:visible;enable-background:accumulate"
       d="m 39.090909,55.727273 0,2 -2,0 -6,8 -4,0 0,3 4,0 6,-8 2,0 0,2 4,-3.5 -4,-3.5 z m -12,2 0,3 4,0 1.21875,1.625 1.125,-1.5 -2.34375,-3.125 -4,0 z m 12,6.03125 0,1.96875 -2,0 -1.21875,-1.625 -1.125,1.5 2.34375,3.125 2,0 0,2 4,-3.5 -3.96875,-3.46875 -0.03125,0 z"
       id="path3826-1" />
  </g>
</svg>
