<svg height="16" width="16" xmlns="http://www.w3.org/2000/svg" xmlns:xlink="http://www.w3.org/1999/xlink"><radialGradient id="a" cx="8" cy="8" gradientTransform="matrix(1 0 0 .875 0 1)" gradientUnits="userSpaceOnUse" r="8"><stop offset="0" stop-color="#49a3d2"/><stop offset=".704952" stop-color="#3470b4"/><stop offset="1" stop-color="#1b5699"/></radialGradient><path d="m6 1v2h-1c-2.77 0-5 2.23-5 5s2.23 5 5 5v-2c-1.662 0-3-1.338-3-3s1.338-3 3-3h1v2l4-3zm5 2v2c1.662 0 3 1.338 3 3s-1.338 3-3 3h-1v-2l-4 3 4 3v-2h1c2.77 0 5-2.23 5-5s-2.23-5-5-5z" fill="url(#a)" opacity=".9"/></svg>