<svg height="16" width="16" xmlns="http://www.w3.org/2000/svg"><g fill="#bebebe"><path d="m4.7610647 2.0070529c-1.6495474 0-2.9831932 1.295239-3.0527748 2.927661h-.3002729v1.0759782h.4504094c.00346.010586.019358.015254.025023.025023h5.7802539c.00248-.00721-.0024-.01776 0-.025023.00136-.00328.02363.00328.025023 0h.3753411v-1.0759782h-.2502274c-.0685108-1.633411-1.4025169-2.927661-3.0527752-2.927661zm-2.6273881 4.7292988c.2095602.4144911.4606759.8366717.7006368 1.2511372h1.075978l-1.176069.025023.2752502.5755231.5755232 5.129662c.071769.174479.2655333.182554.4003639.27525h1.5263873c.1971504-.0021.270176-.185746.400364-.27525l.5755231-5.1296623.2752501-.5755231-1.1760689-.0250227h1.0259325c.2681813-.4015794.4870907-.823101.7006368-1.2511372z"/><path d="m9.591983 11.499783h5.000001v2h-5.000001z"/><path d="m9.591983 8.500027h5.000001v2h-5.000001z"/><path d="m9.591983 5.500271h5.000001v2h-5.000001z"/><path d="m9.591983 2.500027h5.000001v2h-5.000001z"/></g></svg>