<svg height="16" width="16" xmlns="http://www.w3.org/2000/svg"><g fill="#bebebe"><path d="m13 0v4.0000421l1-.0000421v10h-5-.7494593l.7494593 1 4.963741.048523.544725-.137963.500844-.649358-.00931-10.261202h1v-4zm1 1h1v2h-1z" opacity=".35"/><path d="m.5 4c-.277 0-.5.223-.5.5v8c0 .277.223.5.5.5h4.5v1h-1v1h4v-1h-1v-1h4.5c.277 0 .5-.223.5-.5v-.619141c-.164238.038344-.331391.060547-.501953.060547-.223046 0-.432513-.040043-.628906-.111328-.091433.102384-.220441.169922-.369141.169922h-9c-.277 0-.5-.223-.5-.5v-6c0-.277.223-.5.5-.5h9c.277 0 .5.223.5.5v1.6054688c.179709-.0527607.368241-.0837931.568359-.078125.146337.0042293.290496.0260223.431641.0585937v-2.5859375c0-.277-.223-.5-.5-.5z" fill="#bebebe" opacity=".35"/><g stroke-width=".9" transform="matrix(1.1128792 0 0 1.1128792 -1.856938 -1.626216)"><path d="m6.1528598 10a1.35 1.35 0 0 1 -2.7 0 1.35 1.35 0 1 1 2.7 0z"/><path d="m13.35 10a1.35 1.35 0 0 1 -2.7 0 1.35 1.35 0 1 1 2.7 0z"/><path d="m9.7514299 10a1.35 1.35 0 0 1 -2.7 0 1.35 1.35 0 1 1 2.7 0z"/></g></g></svg>