<svg height="16" width="16" xmlns="http://www.w3.org/2000/svg"><path d="m2.0625 0c-1.1705967.42310773-2.03191776 1.0347682-2.0625 2.0625v11.875c0 1.1507.91177 2.0625 2.0625 2.0625h11.875c1.1507 0 2.0625-.91177 2.0625-2.0625v-11.875c0-1.15-.9125-2.0625-2.0625-2.0625zm-1.0625 3h6l-2 2h-2zm9 0h5l-1.5 2h-2.5l-1.5-1.5zm-3 1v3l-.5.5-1.5-1.5zm2 0 1 1v1.5l-1 1-1-1v-1.5zm2.5 3h1l1 1-1 1h-1l-1-1zm-9.5 0h3l1 1-1 1h-3l-1-1zm7 1 1 1v1.5l-1 1-1-1v-1.5zm5 .5 1 1v1l-1 1-1-1v-1zm-7.5 0 .5.5v3l-2-2zm-3.5 2.5h2l2 2h-6zm7.5 0h2l1 1-1 1h-2l-1-1z" fill="#bebebe"/></svg>