<svg height="16" width="16" xmlns="http://www.w3.org/2000/svg"><path d="m13.075946 1.0989529-.0078.00781c-.789083-.012062-1.575539.053372-2.346708.19773l-.0104.010407c-.7675933.1447878-1.5295524.3616288-2.2518321.6504227l-.00911.010407-.00911.00911c-.7231222.2905458-1.4215497.6402443-2.0735563 1.0640951-.013512.00869-.014626.029044-.028619.037724h-.0091c-.6519105.4239725-1.2702106.9220691-1.8198968 1.4712682-.5399596.5404661-1.0013861 1.1417296-1.4218348 1.7795699-.00917.013507-.029042.015925-.037724.02992-.4238623.6519838-.7748553 1.3504483-1.0654006 2.073563l-.00911.00911-.010407.010408c-.2888096.7222872-.5043352 1.4829359-.6491231 2.2504782l-.010407.0104c-.14431.771194-.209792 1.557611-.19773 2.346743l-.00911.0091c.000686.04526.00789.09008.00911.135289l1.2865459.0078c-.00117-.04263-.00845-.08481-.00911-.127485l.00911-.0078c-.010783-.705399.047919-1.408917.1769163-2.098281l.00781-.0078c.1294196-.686096.3233097-1.3680726.5814773-2.0137209l.00911-.00781.00781-.00911c.259709-.6463781.5733325-1.2709075.9522191-1.8537108.007765-.0125088.0256262-.0139405.0338223-.0260157.3758331-.5701568.7882684-1.1078253 1.2709334-1.590943.4913596-.4909242 1.0433267-.93618 1.6260694-1.3151646h.00911c.012511-.00776.012634-.026056.024719-.033822.5828204-.3788766 1.2073165-.691205 1.8537162-.9509254l.00911-.00781.00781-.00911c.6456336-.2581423 1.3276198-.4520452 2.0137188-.5814742l.0078-.00911c.689305-.1290398 1.392857-.1876981 2.098244-.1769162l.0078-.00781c.03263.0004946.06495.00571.09756.00651l-.01304-1.2865428c-.0335-.0008023-.06665-.00599-.100165-.0065z" fill="#bdbdbd" fill-opacity=".34902" opacity=".95"/><g fill="#bebebe"><path d="m13.202128 3.4274837c-1.00181.0196282-1.989151.1687077-2.925623.4709096-1.1094385.3580416-2.1521265.9087575-3.0778236 1.6338742-.3085653.2417049-.6038618.5017071-.8845816.7818139l-.0013.0013c-1.1204322 1.1228834-1.9383012 2.4831562-2.4156891 3.9624056-.1193388.369811-.2178296.747649-.2939932 1.130444-.1166669.586677-.1796419 1.186017-.1912258 1.792579l1.419233.01562c.00141-.05511.0028-.110295.00521-.165208.00568-.131285.015828-.261162.027318-.391558.00902-.102076.017434-.204248.029921-.305702.0005007-.0041.0021-.0077.0026-.01171.016706-.133586.038351-.267061.06114-.399362.00109-.0064.00153-.01188.0026-.0182.014664-.08404.02714-.170228.044229-.253666l.0013-.0013c.057608-.280814.1299394-.557174.2146412-.829945.020541-.0662.044235-.132092.066344-.197731.092045-.273072.1921442-.542954.3109044-.8052278.00342-.00758.00564-.014547.00911-.022106l.0013-.00129c.0896225-.1964537.1973237-.3850404.3030947-.5737078.00934-.016936.016563-.033849.026017-.050733l.0013-.0013c.0875117-.156058.1792537-.3092427.2757854-.4604167.1166386-.1805273.2362306-.3600932.3668414-.5320499.0583075-.0779653.1222587-.1528762.1834206-.2289507.1785129-.2190997.361666-.4339718.5632698-.6361179l.0013-.0026c.2021485-.2016015.4183188-.3847597.63742-.5632727.0760768-.0611626.1509861-.1251122.2289508-.1834205.1719571-.1306113.3515353-.2488991.5320496-.3655404.1511733-.0965319.3042786-.1895827.4605027-.2770821l.0013-.0013c.016887-.00945.033793-.016679.050735-.02602.1886653-.1057698.3772522-.213471.5736751-.303098l.00129-.0013c.00758-.00346.014565-.0057.022106-.00911.2622756-.11876.5334576-.2201593.8065316-.3122051.06564-.022109.130241-.044503.196429-.065043.27277-.084701.549151-.1570218.829945-.2146412l.0013-.0013c.08344-.017087.169627-.029566.253667-.044229.0064-.00104.01188-.00151.0182-.0026.132301-.022789.265772-.044435.399362-.06114.004-.0005007.0077-.00209.01171-.0026.101453-.012483.203626-.020896.305701-.029921.130394-.011491.260272-.021641.391555-.027318.05491-.0024.110101-.00377.16521-.00521z" fill-opacity=".34902" opacity=".95"/><path d="m13.230748 6.1228558c-1.360135-.0405847-2.689435.3033395-3.8284143.9951538-.2293533.1393095-.4517829.2913949-.6647368.4579014l-.0013.0013-.0013.00123c-.00181.00138-.0034.00383-.00521.00521-.2132883.1668359-.4175297.3490827-.6113983.5424503-.1920146.192637-.3698429.3931611-.535952.6048979-.00138.00181-.00246.00209-.0039.0039l-.0026.0026-.0013.0013c-.1664137.2128675-.3185987.4353904-.4579074.664743-.6917768 1.1389408-1.0344599 2.4670018-.9938532 3.8271168l1.3660054.01296c-.00745-.215125-.00491-.429117.011709-.641323.0000824-.0011.0013-.0028.0013-.0039.00304-.03859.011753-.07597.015613-.114475.018056-.179902.039457-.359815.074148-.535951.08446-.428385.2179937-.843216.3980613-1.238416.053631-.117713.119012-.23221.1808187-.346027.041531-.0764.077131-.154458.122281-.22895.073261-.120841.1580312-.2353139.2419588-.3499294.00144-.00207.0013-.00448.0026-.00655.0726421-.101095.1506234-.1978738.228953-.2952526.1062164-.1284809.2116833-.2568573.3304176-.3759488l.0026-.0026c.1211038-.1207352.2531101-.2302244.3837514-.3382217.0973745-.0783365.1941526-.1563167.2952947-.2289507.00215-.0013.00448-.00123.00655-.0026.1146113-.083933.2290891-.1673971.3499301-.2406588.07449-.045152.152547-.08205.22895-.1235814.11381-.061813.22831-.1271918.346028-.1808185.3952-.1800683.811329-.3149008 1.239714-.3993625.176139-.034694.354749-.054787.534652-.072849.0385-.00383.07587-.012563.114476-.015613.001.0000398.0028-.0013.0039-.0013.212204-.016653.426197-.019162.641322-.01171z" fill-opacity=".34902" opacity=".95"/><path d="m13.258078 8.8676609c-.04751-.0006411-.09446.00144-.141794.0013-.06096-.0001453-.121444.0001799-.18212.0026-.223143.00858-.445415.029222-.662135.071549-.325159.063497-.640361.1632345-.940519.2991966-.0015.0006339-.0037.00202-.0052.0026-.01935.00878-.03672.020838-.05593.029916-.13069.061524-.259875.1266092-.383752.2016324-.05914.03575-.114319.078498-.171713.1170771-.03725.024937-.07408.050596-.110573.076751-.04175.030097-.08544.054079-.126184.085856-.000722.0005972-.0018.00198-.0027.00267-.0018.00138-.0034.00379-.0052.00517l-.0013.00129c-.130584.1020658-.25579.2135082-.374646.331718l-.0027.0027-.0013.0013c-.1166051.11726-.2255843.240784-.326516.369444-.00138.0018-.00379.0034-.00517.0052-.0006506.000795-.00207.0019-.00267.0027-.03181.04071-.055764.08444-.085858.126182-.026151.0365-.05181.07333-.07675.110573-.038576.05739-.081325.112583-.1170771.171714-.075025.123873-.1401091.253063-.2016324.383751-.00909.01921-.021134.0366-.029916.05594-.0006274.0015-.0006345.0024-.0013.0039-.1359614.300157-.2370004.616658-.300497.941819-.042326.21672-.061784.437857-.070248.660833-.00239.06069-.00275.121151-.0026.182121.0001944.04774-.00333.09517-.0026.143094l1.3515875.01431c-.0016-.04462-.01033-.08935-.0104-.133989-.000236-.03567.0016-.07245.0027-.107971.0054-.158131.01854-.316224.04813-.469609.01724-.08921.04232-.175829.06764-.262772.0065-.02273.0098-.04643.01691-.06895v-.0027l.0013-.0013c.0051-.01594.01289-.02972.01821-.04553.0632-.185957.143931-.366063.24326-.535952.0084-.01438.01351-.02998.02211-.04424.05839-.09652.122778-.189984.192526-.279682.07157-.09162.147131-.179442.230251-.262774.08298-.08275.171331-.160338.262773-.231552.000849-.000665.0017-.000586.0027-.0013.09091-.07094.185653-.135873.283587-.195128.01426-.0086.02983-.01506.04423-.02342.169895-.09933.349998-.180062.535954-.24326.01585-.0053.02962-.01314.04553-.0182l.0013-.0013h.0027c.02252-.0072.04622-.01038.06895-.01691.08694-.02532.174861-.05169.264073-.06894.153385-.0296.310177-.04145.468307-.04683.03552-.0011.07231-.0028.107972-.0027.04384.000067.08756.009.131386.0104z" opacity=".95"/><path d="m13.206038 11.552626-.0013.0013c-.108935-.0017-.217458.0074-.323914.02732l-.0013.0013c-.105954.01999-.211197.04989-.310904.08976l-.0013.0013-.0013.0013c-.09982.04011-.196182.08849-.286188.146997-.0019.0012-.0021.004-.0039.0052h-.0013c-.08999.05852-.175185.12712-.251065.202934-.07455.07461-.138389.157811-.196429.245861-.0013.0019-.004.0021-.0052.0039-.05852.09-.106889.186366-.146998.286189l-.0013.0013-.0013.0013c-.03987.09971-.06976.204951-.08976.310906l-.0013.0013c-.01992.106459-.02898.214979-.02733.323914l-.0013.0013c.0017.109301.01447.217851.03772.325214.04651.214725.13555.422412.258871.606198.06165.0919.13098.17661.209437.254968.0784.07832.16435.149081.256269.21074.183843.123307.391521.212293.606198.258869.10734.02328.215991.03743.325213.03902l.0013-.0013c.21899.0029.436341-.04099.637419-.122281.09945-.0402.195466-.08848.284888-.146996.09021-.05892.174867-.126936.251065-.202934l.0039-.0039.0039-.0039c.074-.07421.138581-.155747.196429-.24326.0016-.0023.0036-.0041.0052-.0066.05852-.08942.106789-.185443.146998-.284886.08129-.20108.125302-.41843.12228-.637419l.0013-.0013c-.0016-.109223-.01575-.217875-.03902-.325213-.04657-.214679-.135562-.422354-.25887-.606199-.06165-.09192-.132418-.17788-.210739-.256269-.07836-.07845-.163075-.147778-.254968-.209439-.183785-.123321-.391473-.212358-.606198-.25887-.107365-.02326-.215912-.03608-.325214-.03772z" opacity=".95"/></g></svg>