<svg height="16" width="16" xmlns="http://www.w3.org/2000/svg"><g fill="#bebebe"><path d="m.56445312 3.3105469a.151613.151613 0 0 0 -.15234374.1523437v9.0820314a.151613.151613 0 0 0 .15234374.152344h4.62890628v.949218h-.8515625a.151613.151613 0 0 0 -.1523438.152344v.564453a.151613.151613 0 0 0 .1523438.152344h4.0136719a.151613.151613 0 0 0 .1523437-.152344v-.564453a.151613.151613 0 0 0 -.1523437-.152344h-.8496094v-.949218h4.6269526a.151613.151613 0 0 0 .152344-.152344v-9.0820314a.151613.151613 0 0 0 -.152344-.1523437zm.94531248.9746093h9.6777344v7.4355468h-9.6777344z" opacity=".35" transform="translate(-.144099 .669388)"/><path d="m12.412872.41931336v4.50601434h1.304216l.06969 9.3379133-4.7072388.01725-.7773336.0048.7773336.763115 4.8841938.000115.225933-.135875.500844-.649358-.0697-9.3379881 1.318792-.00209v-4.50597221zm.61934.66673854 2.288059-.00209v3.174117l-2.288059.00209z" opacity=".35"/></g></svg>