<svg height="16" width="16" xmlns="http://www.w3.org/2000/svg" xmlns:xlink="http://www.w3.org/1999/xlink"><filter id="a" color-interpolation-filters="sRGB"><feBlend in2="BackgroundImage" mode="darken"/></filter><g fill="#bebebe"><g enable-background="new" filter="url(#a)" transform="translate(-441.0002 123)"><path d="m446.0002-122c-.554 0-1 .446-1 1v12c0 .554.446 1 1 1h6c.554 0 1-.446 1-1v-12c0-.554-.446-1-1-1zm0 1h6v7h-6zm1 8h1v1h1v-1h1v1h1v-1h1v1h-1v1h1v1h-1v1h-1v-1h-1v1h-1v-1h-1v1h-1v-1h1v-1h-1v-1h1zm0 1v1h1v-1zm1 1v1h1v-1zm1 0h1v-1h-1zm1 0v1h1v-1z" fill="#bebebe"/></g><path d="m15.998966 5.8342561v.8612481c0 .221246-.111816.4551352-.26914.6190221l-1.102397 1.1023975 1.103431 1.1034311c.157324.1638869.26914.397776.26914.6190221v.861248h-.861248c-.266514 0-.475685-.07777-.645936-.242226l-2.29092-2.3425948 2.29092-2.3425948c.172249-.1636371.378949-.2411495.645936-.2411495h.861248z"/><path d="m-.0151665 5.8342561v.8612481c0 .221246.11181584.4551352.26914002.6190221l1.10239758 1.1023975-1.10343107 1.1034311c-.15732419.1638869-.26914003.397776-.26914003.6190221v.861248h.86124808c.26651322 0 .47568452-.07777.64593602-.242226l2.2909199-2.3425948-2.2909199-2.3425948c-.1722496-.1636371-.3789491-.2411495-.64593602-.2411495h-.86124808z"/></g></svg>