<svg height="16" width="16" xmlns="http://www.w3.org/2000/svg"><g fill="#bebebe" transform="translate(.098963 .083894)"><g fill="#bebebe"><path d="m13 6.0253906a7.5 7.5 0 0 0 -6.9824219 6.9746094h1.0078125a6.5 6.5 0 0 1 5.9746094-5.9785156z" opacity=".35" transform="translate(-.098963 -.083894)"/><path d="m13 9.03125a4.5 4.5 0 0 0 -3.9667969 3.96875h1.0078129a3.5 3.5 0 0 1 2.958984-2.960938z" opacity=".35" transform="translate(-.098963 -.083894)"/><circle cx="13.401037" cy="13.416106" opacity=".35" r="1.5"/><path d="m13 3.0253906a10.5 10.5 0 0 0 -9.3808594 6.9746094h1.0722656a9.5 9.5 0 0 1 8.3085938-5.9824219z" opacity=".35" transform="translate(-.098963 -.083894)"/><path d="m13.140625.01757813a13.5 13.5 0 0 0 -12.65625 9.98242187h1.0488281a12.5 12.5 0 0 1 11.4667969-8.9824219v-.5175781c0-.17871644.059145-.33753072.140625-.48242187z" opacity=".35" transform="translate(-.098963 -.083894)"/></g><path d="m-.098963 10.916106h1.375l1.125 1.0938 1.0938-1.0938h1.4062v1.4688l-1.0938 1.0625 1.0938 1.0625v1.4062h-1.4375l-1.0625-1.0625-1.0625 1.0625h-1.4375v-1.4062l1.0625-1.0625-1.0625-1.0625z"/></g></svg>