<svg height="16" width="16" xmlns="http://www.w3.org/2000/svg"><path d="m2.0625 0c-1.1507 0-2.0625.91177-2.0625 2.0625v11.875c0 1.1507.91177 2.0625 2.0625 2.0625h11.875c1.1507 0 2.0625-.91177 2.0625-2.0625v-11.875c0-1.1507-.91177-2.0625-2.0625-2.0625zm4.53125 2.90625h4.625l-1.5 1.53125h-3.125l-.78125-.78125zm-1.0625 1.0625.75.75v1.84375l-.9375.9375-.5625-.5625v-2.21875zm2.375 3.0625h1.71875l.75.75-.75.78125h-1.71875l-.75-.78125zm-2.5625 1.03125.9375.96875v2.25l-.75.75-.75-.75v-2.65625zm5.3125 0 .5625.5625v2.65625l-.75.75-.75-.75v-2.25zm-4.0625 3.53125h2.84375l.75.75-.75.75h-2.84375l-.78125-.75z" fill="#bebebe"/></svg>