<svg height="16" width="16" xmlns="http://www.w3.org/2000/svg"><g fill="#bebebe"><path d="m13.095703 2.3105469c-.161013 0-.291015.1280491-.291015.2890625v7.4042966h1.492187v-7.4042966c0-.1610134-.130002-.2890625-.291016-.2890625z" opacity=".45"/><path d="m10.320312 4.0175781c-.161013 0-.291015.1280492-.291015.2890625v5.6972654h1.492187v-5.6972654c0-.1610133-.130002-.2890625-.291015-.2890625z" opacity=".45"/><rect height="6.828218" opacity=".45" rx=".290638" width="1.491724" x="7.254138" y="6.861964"/><rect height="5.121163" opacity=".45" rx=".290638" width="1.491724" x="4.479024" y="8.569017"/><rect height="3.414109" opacity=".45" rx=".290638" width="1.491724" x="1.703911" y="10.276073"/></g><path d="m10.99959 11.00334v1c0 .27614.10029.53779.28125.71875l.78125.78125-.78125.78125c-.18096.18096-.28125.44261-.28125.71875v1h1c.27614 0 .53779-.10029.71875-.28125l.78125-.78125.78125.78125c.18096.18096.44261.28125.71875.28125h1v-1c0-.27614-.10029-.53779-.28125-.71875l-.78125-.78125.78125-.78125c.18096-.18096.28125-.44261.28125-.71875v-1h-1c-.27614 0-.53779.10029-.71875.28125l-.78125.78125-.78125-.78125c-.18096-.18096-.44261-.28125-.71875-.28125z" fill="#dbdee0"/></svg>