<svg height="16" width="16" xmlns="http://www.w3.org/2000/svg"><g fill="#bebebe"><path d="m7.9296875 6.8691406c.000372-.0056247.0206575-.0007368.0234375.0488282a.91929163.91929163 0 0 1 -.0019531.109375c.0397823-.037684.0767143-.0693271.1152343-.109375-.0118469-.0057661.0002493-.03367-.0429687-.03125-.07458.004184-.094122-.0119534-.09375-.0175782zm.2695313 2.71875c-.005497.012501-.0196382.0432395-.0195313.0429688.000044-.00011-.0098581.0342036-.0175781.0566406.013401-.037279.0319593-.0884444.0371094-.0996094z" opacity=".45"/><rect height="11.380363" opacity=".45" rx=".290638" width="1.491724" x="12.804365" y="2.309819"/><path d="m10.605469 4.0175781c.373752.3233245.685329.7156025.916015 1.1582031v-1.1582031zm.916015 4.7597657c-.012531.022764-.020017.0478109-.033203.0703124-.342285.5841153-.838487 1.010134-1.458984 1.4824218v3.359375h1.492187z" opacity=".45"/><rect height="5.121163" opacity=".45" rx=".290638" width="1.491724" x="4.479024" y="8.569017"/><rect height="3.414109" opacity=".45" rx=".290638" width="1.491724" x="1.703911" y="10.276073"/><path d="m7.84821 3.96875c1.64243-.092 3.0955 1.17008 3.1875 2.8125-.0001 1.40136-.37771 1.92177-1.59375 2.84375-.19093.14364-.3256.2506-.375.3125-.0494.0621-.0312.0332-.0312.0312.007.52831-.47163 1-1 1s-1.007-.47169-1-1c0-.50239.22424-.94342.46875-1.25.24451-.30663.4913-.51638.71875-.6875.20405-.16056.46083-.38454.6875-.65625.0935-.1121.129-.30766.125-.4375v-.0312c-.0316-.56324-.49926-.9691-1.0625-.9375s-.9691.43676-.9375 1h-2c-.092-1.64243 1.17007-2.9079 2.8125-3zm.1875 8c.55228 0 1 .44772 1 1s-.44772 1-1 1-1-.44772-1-1 .44772-1 1-1z"/></g></svg>