<svg height="16" width="16" xmlns="http://www.w3.org/2000/svg"><g fill="#bebebe"><g><path d="m13.291016 2c-.161014 0-.291016.1300022-.291016.2910156v5.7089844c.771671 0 1.468309.3079088 2 .7949219v-6.5039063c0-.1610134-.130002-.2910156-.291016-.2910156z" opacity=".35"/><path d="m10.320312 4.0175781c-.161013 0-.291015.1280491-.291015.2890625v6.4316404c.115754-1.1728356.898185-2.1585905 1.970703-2.5488279v-3.8828125c0-.1610134-.130002-.2890625-.291016-.2890625z"/><path d="m7.2910156 6c-.1610134 0-.2910156.1300022-.2910156.2910156v7.4179684c0 .161014.1300022.291016.2910156.291016h1.4179688c.1610134 0 .2910156-.130002.2910156-.291016v-1.208984-6.2089844c0-.1610134-.1300022-.2910156-.2910156-.2910156z"/><rect height="6" rx=".290638" width="2" x="4" y="8"/><rect height="4" rx=".290638" width="2" x="1" y="10"/></g><path d="m13 9c-1.108 0-2 .91-2 2.031v.969h-.5s-.5 0-.5.5v3c0 .5.5.5.5.5h5s.5 0 .5-.5v-3c0-.5-.5-.5-.5-.5h-.5v-.969c0-1.12-.892-2.031-2-2.031zm0 1c.554 0 1 .442 1 1v1h-2v-1c0-.558.446-1 1-1z"/></g></svg>