<svg height="16" width="16" xmlns="http://www.w3.org/2000/svg"><path d="m.40429688 3.9804688a.151613.151613 0 0 0 -.13671876.1523437v9.0820315a.151613.151613 0 0 0 .15234376.152344h4.62890622v.949218h-.8515625a.151613.151613 0 0 0 -.1523437.152344v.564453a.151613.151613 0 0 0 .1523437.152344h4.0136719a.151613.151613 0 0 0 .1523437-.152344v-.511719c-.0566893-.067964-.1152995-.133806-.1679687-.205078h-.8339844v-.949218h.2871094c-.1272898-.308688-.2134137-.63784-.2695313-.976563h-6.0136718v-7.4355469h9.6777346v2.2773438c.24906-.0427327.502417-.078125.763672-.078125.114467 0 .221664.0248061.333984.0332031v-3.0546875a.151613.151613 0 0 0 -.152344-.1523437h-11.56835912a.151613.151613 0 0 0 -.015625 0z" fill="#bebebe" opacity=".35"/><path d="m15.939453.41796875-3.527344.00195313v4.50585932h1.304688l.019531 2.6796876c.328674.1571648.631493.3552915.910156.5839843l-.02539-3.2636719 1.318359-.0019531zm-.619141.66601565v3.1738281l-2.289062.0019531v-3.1738281z" fill="#bebebe" opacity=".35"/><path d="m11.805845 8.1546c-1.9330002 0-3.5000002 1.567-3.5000002 3.5s1.567 3.5 3.5000002 3.5c1.933 0 3.5-1.567 3.5-3.5s-1.567-3.5-3.5-3.5zm-2.5000002 2.9688h5.0000002v1.0312h-5.0000002z" fill="#ef2929"/></svg>