<svg height="16" width="16" xmlns="http://www.w3.org/2000/svg"><g fill="#bebebe"><path d="m.40429688 3.9804688a.151613.151613 0 0 0 -.13671876.1523437v9.0820315a.151613.151613 0 0 0 .15234376.152344h4.62890622v.949218h-.8515625a.151613.151613 0 0 0 -.1523437.152344v.564453a.151613.151613 0 0 0 .1523437.152344h4.0136719a.151613.151613 0 0 0 .1523437-.152344v-.564453a.151613.151613 0 0 0 -.1523437-.152344h-.8496094v-.949218h1.3125a1.0644431 1.0644431 0 0 1 .3085938-.666016l.3105469-.310547h-7.9277344v-7.4355469h9.6777346v3.8398438h.066406a1.0644431 1.0644431 0 0 1 .742187.3007812l.289063.28125v-5.2441406a.151613.151613 0 0 0 -.152344-.1523437h-11.56835912a.151613.151613 0 0 0 -.015625 0z" opacity=".35"/><path d="m15.939453.41796875-3.527344.00195313v4.50585932h1.304688l.029297 3.8691407h.904297l-.029297-3.8691407 1.318359-.0019531zm-.619141.66601565v3.1738281l-2.289062.0019531v-3.1738281zm-6.6503901 13.1992186-.3671875.001953.3671875.361328z" opacity=".35"/><path d="m9.7337917 9.8585h1.3750003l1.125 1.0938 1.0938-1.0938h1.4062v1.4688l-1.0938 1.0625 1.0938 1.0625v1.4062h-1.4375l-1.0625-1.0625-1.0625 1.0625h-1.4375003v-1.4062l1.0625003-1.0625-1.0625003-1.0625z"/></g></svg>