<svg height="16" width="16" xmlns="http://www.w3.org/2000/svg"><g fill="#bebebe"><path d="m13.291016 2c-.161014 0-.291016.1300022-.291016.2910156v5.2617188c.594167.4710176 1.000098 1.1878518 1 1.9492187a.99928113.99928113 0 0 1 -.001953.0234375c-.017785.7399374-.420103 1.4270654-.998047 1.8847654v2.298828c0 .161014.130002.291016.291016.291016h1.417968c.161014 0 .291016-.130002.291016-.291016v-11.4179684c0-.1610134-.130002-.2910156-.291016-.2910156z" opacity=".35"/><path d="m10.320312 4.0175781c-.161013 0-.291015.1280491-.291015.2890625v3.3925782c.414982-.4224212.925645-.7146396 1.539062-.6972657a.99928113.99928113 0 0 0 .001953 0c.146057.0042213.28874.0264466.429688.0585938v-2.7539063c0-.1610134-.130002-.2890625-.291016-.2890625zm-.291015 7.2714839v2.419922c0 .161014.130002.291016.291015.291016h1.388672c.161014 0 .291016-.130002.291016-.291016v-1.802734c-.163979.037796-.331738.060547-.501953.060547-.583121 0-1.070032-.279758-1.46875-.677735z" opacity=".35"/><path d="m7.2910156 6c-.1610134 0-.2910156.1300022-.2910156.2910156v.7851563c.1790972-.0514825.3672854-.0801177.5664062-.0742188.5749854.0166177 1.0477694.3032176 1.4335938.703125v-1.4140625c0-.1610134-.1300022-.2910156-.2910156-.2910156zm1.7089844 5.283203c-.4029571.422398-.9019094.720703-1.5058594.720703-.1733378 0-.3368178-.028644-.4941406-.072265v1.777343c0 .161014.1300022.291016.2910156.291016h1.4179688c.1610134 0 .2910156-.130002.2910156-.291016z" opacity=".35"/><path d="m5.25 8c.0877191.1162277.1770572.2308311.2519531.3574219.0733339-.1215283.1628859-.2297969.2480469-.3417969-.0151137-.0024072-.0252035-.015625-.0410156-.015625zm.234375 2.632812c-.3576478.585771-.8587828 1.075894-1.484375 1.25586v1.820312c0 .161014.1300022.291016.2910156.291016h1.4179688c.1610134 0 .2910156-.130002.2910156-.291016v-2.412109c-.1932346-.199657-.3705914-.418188-.515625-.664063z" opacity=".35"/><path d="m1.0820312 10.087891c-.0507353.052273-.0820312.124187-.0820312.203125v3.417968c0 .161014.1300022.291016.2910156.291016h1.4179688c.1610134 0 .2910156-.130002.2910156-.291016v-1.798828c-.8989288-.201394-1.6645258-.936795-1.9179688-1.822265z" opacity=".35"/><g stroke-width=".9" transform="matrix(1.1128792 0 0 1.1128792 -1.856938 -1.626216)"><path d="m6.1528598 10a1.35 1.35 0 0 1 -2.7 0 1.35 1.35 0 1 1 2.7 0z"/><path d="m13.35 10a1.35 1.35 0 0 1 -2.7 0 1.35 1.35 0 1 1 2.7 0z"/><path d="m9.7514299 10a1.35 1.35 0 0 1 -2.7 0 1.35 1.35 0 1 1 2.7 0z"/></g></g></svg>