<svg height="16" width="16" xmlns="http://www.w3.org/2000/svg"><path d="m2.8125 1.21875c-.8907584 0-1.59375.7029916-1.59375 1.59375v10.375c0 .890758.7029916 1.59375 1.59375 1.59375h10.375c.890758 0 1.59375-.702992 1.59375-1.59375v-10.375c0-.8907584-.702992-1.59375-1.59375-1.59375zm5.1875 2.375c2.162097 0 4.31912.8191256 5.96875 2.46875l-.78125.8125c-2.859474-2.8577931-7.5161696-2.8588305-10.375 0l-.78125-.8125c1.6496244-1.6496246 3.8066529-2.4687499 5.96875-2.46875zm0 2.25c1.5855382 0 3.165275.6027752 4.375 1.8125l-.78125.8125c-1.9795491-1.9795494-5.2079505-1.9795496-7.1875 0l-.78125-.8125c1.2097247-1.2097248 2.7894619-1.8125 4.375-1.8125zm0 2.96875c.9331688 0 1.6875.7543313 1.6875 1.6875 0 .933168-.7543312 1.6875-1.6875 1.6875-.9331689 0-1.6875-.754332-1.6875-1.6875 0-.9331687.7543311-1.6875 1.6875-1.6875z" fill="#f57900"/></svg>