<svg height="16" width="16" xmlns="http://www.w3.org/2000/svg"><g fill="#bebebe"><path d="m.40429688 3.9804688a.151613.151613 0 0 0 -.13671876.1523437v9.0820315a.151613.151613 0 0 0 .15234376.152344h4.62890622v.949218h-.8515625a.151613.151613 0 0 0 -.1523437.152344v.564453a.151613.151613 0 0 0 .1523437.152344h4.0136719a.151613.151613 0 0 0 .1523437-.152344v-.564453a.151613.151613 0 0 0 -.1523437-.152344h-.8496094v-.949218h4.6269529a.151613.151613 0 0 0 .152344-.152344v-.75586c-.047313.003094-.092962.015625-.140625.015625-.334884 0-.656006-.092288-.957031-.230468v.146484h-2.4511721c-.1921349.052879-.3898619.083984-.5917969.083984s-.399662-.031105-.5917969-.083984h-2.8164062c-.1921349.052879-.3898619.083984-.5917969.083984-.1954875 0-.3853989-.034617-.5722656-.083984h-2.0625v-7.4355469h9.6777346v2.7714844c.322595-.1491646.669858-.2427225 1.029297-.2324219.023187.000678.045269.0083524.068359.0097656v-3.3710937a.151613.151613 0 0 0 -.152344-.1523437h-11.56835912a.151613.151613 0 0 0 -.015625 0z" opacity=".35"/><path d="m15.939453.41796875-3.527344.00195313v4.50585932h1.304688l.025391 3.3261719c.463138.4635843.763762 1.0910576.763671 1.7480469a1.1562936 1.1562936 0 0 1 0 .027344c-.015026.624525-.302679 1.21451-.738281 1.660156l.019531 2.576172-4.7070309.017578-.7773437.003906.7773437.763672h4.8828129l.226562-.136719.501953-.648437-.070312-9.3378908 1.318359-.0019531zm-.619141.66601565v3.1738281l-2.289062.0019531v-3.1738281z" opacity=".35"/><g stroke-width=".9"><path d="m5.35 10a1.35 1.35 0 0 1 -2.7 0 1.35 1.35 0 1 1 2.7 0z"/><path d="m9.35 10a1.35 1.35 0 0 1 -2.7 0 1.35 1.35 0 1 1 2.7 0z"/><path d="m13.35 10a1.35 1.35 0 0 1 -2.7 0 1.35 1.35 0 1 1 2.7 0z"/><path d="m13.35 10a1.35 1.35 0 0 1 -2.7 0 1.35 1.35 0 1 1 2.7 0z"/></g></g></svg>