<svg height="16" width="16" xmlns="http://www.w3.org/2000/svg"><path d="m2.0625 0c-1.1507 0-2.0625.91177-2.0625 2.0625v11.875c0 1.1507.91177 2.0625 2.0625 2.0625h11.875c1.1507 0 2.0625-.91177 2.0625-2.0625v-11.875c0-1.1507-.91177-2.0625-2.0625-2.0625zm2.71875 2.90625 1.5 1.53125v2.3125l-.9375.96875-.5625-.5625zm6.4375 0v4.25l-.5625.5625-.9375-.96875v-2.3125zm-5.875 5.375.9375.96875v2.03125l-.75.75-.75-.75v-2.4375zm5.3125 0 .5625.5625v2.4375l-.75.75-.75-.75v-2.03125zm-4.0625 3.3125h2.84375l.75.75-.75.75h-2.84375l-.78125-.75z" fill="#bebebe"/></svg>