<svg height="16" width="16" xmlns="http://www.w3.org/2000/svg"><g fill="#bebebe"><path d="m13.291016 2c-.161014 0-.291016.1300022-.291016.2910156v7.7089844h2v-7.7089844c0-.1610134-.130002-.2910156-.291016-.2910156z" opacity=".35"/><path d="m10.320312 4.0175781c-.161013 0-.291015.1280491-.291015.2890625v5.6933594h1.970703v-5.6933594c0-.1610134-.130002-.2890625-.291016-.2890625z" opacity=".35"/><rect height="8" opacity=".35" rx=".290638" width="2" x="7" y="6"/><rect height="6" opacity=".35" rx=".290638" width="2" x="4" y="8"/><rect height="4" opacity=".35" rx=".290638" width="2" x="1" y="10"/><path d="m10.99959 11.00334v1c0 .27614.10029.53779.28125.71875l.78125.78125-.78125.78125c-.18096.18096-.28125.44261-.28125.71875v1h1c.27614 0 .53779-.10029.71875-.28125l.78125-.78125.78125.78125c.18096.18096.44261.28125.71875.28125h1v-1c0-.27614-.10029-.53779-.28125-.71875l-.78125-.78125.78125-.78125c.18096-.18096.28125-.44261.28125-.71875v-1h-1c-.27614 0-.53779.10029-.71875.28125l-.78125.78125-.78125-.78125c-.18096-.18096-.44261-.28125-.71875-.28125z"/></g></svg>