<svg height="16" width="16" xmlns="http://www.w3.org/2000/svg"><g fill="#bebebe"><g fill="#bebebe"><rect height="12" opacity=".35" rx=".290638" width="2" x="13" y="2"/><path d="m10.617188 4.0175781c.768073.6670388 1.282758 1.6221019 1.34375 2.7109375a.92807543.92807543 0 0 1 .001953.0527344c-.000056.7840231-.118735 1.4730053-.46875 2.0703125-.344356.587647-.841286 1.0158007-1.464844 1.4902345v3.367187c0 .161014.130002.291016.291015.291016h1.388672c.161014 0 .291016-.130002.291016-.291016v-9.4023434c0-.1610134-.130002-.2890625-.291016-.2890625z" opacity=".35"/><rect height="6" opacity=".35" rx=".290638" width="2" x="4" y="8"/><rect height="4" opacity=".35" rx=".290638" width="2" x="1" y="10"/></g><path d="m7.84821 3.9687499c1.64243-.092 3.0955 1.17008 3.1875 2.8125-.0001 1.40136-.37771 1.92177-1.59375 2.84375-.19093.14364-.3256.2506-.375.3125-.0494.0621-.0312.0332-.0312.0312.007.5283101-.47163 1.0000001-1 1.0000001s-1.007-.47169-1-1.0000001c0-.50239.22424-.94342.46875-1.25.24451-.30663.4913-.51638.71875-.6875.20405-.16056.46083-.38454.6875-.65625.0935-.1121.129-.30766.125-.4375v-.0312c-.0316-.56324-.49926-.9691-1.0625-.9375s-.9691.43676-.9375 1h-2c-.092-1.64243 1.17007-2.9079 2.8125-3zm.1875 8.0000001c.55228 0 1 .44772 1 1s-.44772 1-1 1-1-.44772-1-1 .44772-1 1-1z"/></g></svg>