<svg height="16" width="16" xmlns="http://www.w3.org/2000/svg"><path d="m7.5000029 1c-2.0936348 0-3.405585 1.5762752-3.4793889 3.6519748-.014252.070323-.0269414.1389233-.020614.2129614v1.1350638h-1.0570165c-.5223098 0-1.1378495.4546373-.9482311.9413901.012211 2.3723732.0019 4.7449179 0 7.1173369-.0004179.522265.4259214.941273.9482311.941273h9.1096655c.522309 0 .941359-.419008.941359-.941273v-7.1173369c0-.5223825-.41905-.9413901-.941359-.9413901h-1.052649v-1.1350638c0-.073839-.0064-.14299-.02062-.2129614-.073801-2.0756996-1.385745-3.6519748-3.47938-3.6519748zm.0000013 2c.9753564 0 1.4451215.7639129 1.4793838 1.727572.00303.073601.00991.1469938.020612.2198765v1.0525515h-3v-1.0251256c.01171-.081959.018592-.1645357.020611-.2473024.034263-.9636591.5040325-1.727572 1.479389-1.727572z" fill="#bebebe" fill-rule="evenodd" stroke-width="1.012175"/></svg>