<svg height="16" width="16.04027" xmlns="http://www.w3.org/2000/svg"><g fill="#bebebe" transform="translate(-280.97597 -177)"><path d="m280.97595 187.98824h5.016039v4.971845h-5.016039z" opacity=".35"/><path d="m286.0002 178.02734v3.0293c.77852-.59559 1.72768-.97653 2.73828-1.0332.80765-.0452 1.57687.12717 2.27734.4375v-2.4336z" opacity=".35"/><path d="m292.00018 188.02815h5.016039v4.971845h-5.016039z" opacity=".35"/><path d="m288.84821 181.96875c1.64243-.092 3.0955 1.17008 3.1875 2.8125-.0001 1.40136-.37771 1.92177-1.59375 2.84375-.19093.14364-.3256.2506-.375.3125-.0494.0621-.0312.0332-.0312.0312.007.52831-.47163 1-1 1s-1.007-.47169-1-1c0-.50239.22424-.94342.46875-1.25.24451-.30663.4913-.51638.71875-.6875.20405-.16056.46083-.38454.6875-.65625.0935-.1121.129-.30766.125-.4375v-.0312c-.0316-.56324-.49926-.9691-1.0625-.9375s-.9691.43676-.9375 1h-2c-.092-1.64243 1.17007-2.9079 2.8125-3zm.1875 8c.55228 0 1 .44772 1 1s-.44772 1-1 1-1-.44772-1-1 .44772-1 1-1z"/></g></svg>