<svg height="16" viewBox="0 0 16 16" width="16" xmlns="http://www.w3.org/2000/svg"><g fill="#bebebe" transform="translate(-261.0002 -237)"><path d="m269.0002 238c-1.64501 0-3 1.355-3 3v1h-1v6h2.0625c-.00017-.0138-.006-.0251-.006-.0391.003-.78968.33297-1.41878.67969-1.85352.0567-.0711.10679-.0945.16406-.1582h-1.86519a.98075356.98075356 0 0 1 -.97852-.92578c-.10596-1.89176 1.20441-3.45619 2.94336-3.90625v-.11715c0-.56412.43587-1 1-1s1 .43588 1 1v.12695c1.60614.41185 2.86407 1.78473 3 3.51367v-2.64062h-1v-1c0-1.645-1.35499-3-3-3zm4 7.16406c-.0357.63291-.16241 1.20872-.45898 1.71485-.25539.4358-.61577.7806-1.02149 1.12109h1.48047zm-3.85742 2.39844c-.006.0131-.0196.0471-.0195.0469.00006-.00016-.0293.0821-.0293.082.002-.004.007-.0134.01-.0215.0141-.0393.0335-.0953.0391-.10742zm-6.14258 2.4375v2h4.35742c-.18818-.30237-.30273-.65382-.30273-1.03125 0-.37061.12851-.68994.32226-.96875zm7.69336 0c.19375.27881.32226.59814.32226.96875 0 .37743-.11455.72888-.30273 1.03125h4.28711v-2z" opacity=".5"/><path d="m268.84821 241.96875c1.64243-.092 3.0955 1.17008 3.1875 2.8125-.0001 1.40136-.37771 1.92177-1.59375 2.84375-.19093.14364-.3256.2506-.375.3125-.0494.0621-.0312.0332-.0312.0312.007.52831-.47163 1-1 1s-1.007-.47169-1-1c0-.50239.22424-.94342.46875-1.25.24451-.30663.4913-.51638.71875-.6875.20405-.16056.46083-.38454.6875-.65625.0935-.1121.129-.30766.125-.4375v-.0312c-.0316-.56324-.49926-.9691-1.0625-.9375s-.9691.43676-.9375 1h-2c-.092-1.64243 1.17007-2.9079 2.8125-3zm.1875 8c.55228 0 1 .44772 1 1s-.44772 1-1 1-1-.44772-1-1 .44772-1 1-1z"/></g></svg>