<svg height="16" width="16" xmlns="http://www.w3.org/2000/svg"><path d="m8.0000006 1.0416974c-2.068451 0-3.7490592 1.6423222-3.8219753 3.6930538-.014081.069477-.020366.1369856-.020366.2103997v.9096865h-.4073153c-.5160271 0-.9368251.4139675-.9368251.9300664v7.2434482c0 .515983.4207981.929951.9368251.929951h8.5061011c.516027 0 .930036-.413968.930036-.929951v-7.2434482c0-.5160989-.414009-.9300664-.930036-.9300664h-.414103v-.9096865c0-.072951-.0063-.14127-.02037-.2103997-.0729151-2.0507316-1.7535231-3.6930538-3.8219743-3.6930538zm0 2.0840806c.9636241 0 1.7040283.7315935 1.7378785 1.683661a2.0874334 2.0874334 0 0 0 .020364.2172317v.8281667h-3.5164886v-.8010707a2.0874334 2.0874334 0 0 0 .0203635-.2443277c.0338504-.9520675.7742542-1.683661 1.7378784-1.683661z" fill="#bebebe" fill-rule="evenodd"/></svg>