<svg height="16" width="16" xmlns="http://www.w3.org/2000/svg" xmlns:xlink="http://www.w3.org/1999/xlink"><filter id="a" color-interpolation-filters="sRGB"><feBlend in2="BackgroundImage" mode="darken"/></filter><g fill="#bebebe"><g enable-background="new" filter="url(#a)" transform="translate(-441.0002 123)"><path d="m446.0002-122c-.554 0-1 .446-1 1v12c0 .554.446 1 1 1h6c.554 0 1-.446 1-1v-12c0-.554-.446-1-1-1zm0 1h6v7h-6zm1 8h1v1h1v-1h1v1h1v-1h1v1h-1v1h1v1h-1v1h-1v-1h-1v1h-1v-1h-1v1h-1v-1h1v-1h-1v-1h1zm0 1v1h1v-1zm1 1v1h1v-1zm1 0h1v-1h-1zm1 0v1h1v-1z" fill="#bebebe"/></g><path d="m1 3 3 4-3 4zm14 0-3 4 3 4z" fill="#bebebe"/></g></svg>