<svg height="16" width="16" xmlns="http://www.w3.org/2000/svg"><g fill="#bebebe" transform="translate(.098963 .083894)"><g fill="#bebebe"><path d="m13 6.0253906a7.5 7.5 0 0 0 -4.1132812 1.5722656c.2364709.2195698.4507033.4717677.6210937.7597657.4618847-.765089 1.1602085-1.3809692 2.0605465-1.3554688a.99928113.99928113 0 0 0 .001953 0c.225591.0065199.442806.0577313.654297.1289063a6.5 6.5 0 0 1 .775391-.109375zm-6.7304688 5.5253904a7.5 7.5 0 0 0 -.2519531 1.449219h1.0078125a6.5 6.5 0 0 1 .1699219-1.021484c-.3459086-.056277-.6532271-.213484-.9257813-.427735z" opacity=".35" transform="translate(-.098963 -.083894)"/><path d="m9.7695312 11a4.5 4.5 0 0 0 -.7363281 2h1.0078129a3.5 3.5 0 0 1 .482422-1.328125c-.286184-.169937-.5384888-.397442-.7539068-.671875z" opacity=".35" transform="translate(-.098963 -.083894)"/><circle cx="13.401037" cy="13.416106" opacity=".35" r="1.5"/><path d="m13 3.0253906a10.5 10.5 0 0 0 -8.1425781 4.5488282c.2468664.2236894.4683191.4853652.6445312.7832031.1245144-.2063442.2694191-.3973413.4277344-.5722657a9.5 9.5 0 0 1 7.0703125-3.7675781zm-8.8300781 8.8007814c-.2129099.083853-.4371172.140625-.6816407.140625-.1189405 0-.2353159-.020265-.3515624-.039063a10.5 10.5 0 0 0 -.1191407 1.072266h1.0078125a9.5 9.5 0 0 1 .1445313-1.173828z" opacity=".35" transform="translate(-.098963 -.083894)"/><path d="m13.140625.01757813a13.5 13.5 0 0 0 -13.12304687 12.98242187h1.00781247a12.5 12.5 0 0 1 .3203125-2.318359c-.210566-.350879-.34751821-.7441933-.35742185-1.1562504a.99928113.99928113 0 0 1 -.00195313-.0234375c-.00011886-1.0603016.78620198-2.0277334 1.77734378-2.3652343a12.5 12.5 0 0 1 10.2363281-6.1191407v-.5175781c0-.17871644.059145-.33753072.140625-.48242187z" opacity=".35" transform="translate(-.098963 -.083894)"/></g><g stroke-width=".9" transform="matrix(1.1128792 0 0 1.1128792 -1.955901 -1.71011)"><path d="m6.1528598 10a1.35 1.35 0 0 1 -2.7 0 1.35 1.35 0 1 1 2.7 0z"/><path d="m13.35 10a1.35 1.35 0 0 1 -2.7 0 1.35 1.35 0 1 1 2.7 0z"/><path d="m9.7514299 10a1.35 1.35 0 0 1 -2.7 0 1.35 1.35 0 1 1 2.7 0z"/></g></g></svg>