<svg height="16" width="16" xmlns="http://www.w3.org/2000/svg"><g fill-opacity=".34902"><path d="m13.076172 1.0996094-.007813.0078125c-.789083-.012062-1.576487.0529076-2.347656.1972656l-.009765.0097656c-.7675938.1447878-1.5296739.3615968-2.2519536.6503907l-.0097656.0117187-.0078126.0078125c-.7231222.2905458-1.4222121.6406023-2.0742187 1.0644531-.013512.00869-.0153039.0284294-.0292969.0371094h-.0078125c-.6519105.4239725-1.2706263.9234571-1.8203125 1.4726563-.5399596.540466-1.0014263 1.1414565-1.421875 1.7792968-.00917.013507-.0284274.0153019-.0371094.0292969-.4238623.6519838-.7758609 1.3511041-1.0664062 2.0742187l-.0078125.0078126-.0117187.0117187c-.2888096.7222872-.5036496 1.4824578-.6484376 2.2500005l-.0097656.009765c-.14431.771194-.2112807 1.558524-.1992187 2.347656l-.0078125.009766c.000686.04526.0065925.089557.0078125.134766l1.2871093.007812c-.00117-.04263-.0091056-.084278-.0097656-.126953l.0097656-.007812c-.0107829-.705399.0487371-1.410246.1777344-2.09961l.0078125-.007812c.1294196-.686096.3219106-1.368024.5800781-2.0136722l.0097657-.0078126.0078125-.0078124c.2586243-.6436787.5724571-1.2669403.9492187-1.8476563a.91929163.91929163 0 0 1 -.0097656-.0820313c-.1197272-2.1374312 1.593603-3.8517717 3.6796875-3.96875.3986151-.0223282.7826583.0331627 1.1542969.125l.0058593-.0058593.0078126-.0097657c.6456336-.2581422 1.3275732-.4506491 2.0136722-.5800781l.007812-.0097656c.689305-.1290398 1.394222-.1885163 2.09961-.1777344l.007812-.0078125c.03263.0004946.063093.0070125.095703.0078125l-.011719-1.2871093c-.0335-.0008023-.066094-.0053494-.099609-.0058594z" fill="#bdbdbd" opacity=".95"/><path d="m13.201172 3.4277344c-.959855.0188062-1.903413.1602023-2.804688.4375.42726.3238527.786613.7274707 1.052735 1.1972656.07401-.0173447.146084-.0413288.220703-.0566406l.001953-.0019532c.08344-.017087.167913-.0283057.251953-.0429687.0064-.00104.013211-.0028163.019531-.0039063.132301-.022789.264848-.0438418.398438-.0605468.004-.0005007.007709-.0014432.011719-.0019532.101453-.0124829.204565-.0222249.30664-.03125.130394-.011491.259342-.0216667.390625-.0273437.05491-.0024.110907-.0024662.166016-.0039063zm-8.1484376 4.4609375c-.4877099.7451665-.8835992 1.5438275-1.15625 2.3886721-.1193388.369811-.2168052.748064-.2929688 1.130859-.1166669.586677-.1798223 1.186407-.1914062 1.792969l1.4199218.015625c.00141-.05511.0014963-.111103.0039063-.166016.00568-.131285.0158537-.260229.0273437-.390625.00902-.102076.0187631-.205186.03125-.30664.0005007-.0041.0014532-.007709.0019532-.011719.016706-.133586.0377578-.266137.0605468-.398438.00109-.0064.0008832-.013211.0019532-.019531.014664-.08404.0278329-.168515.0449218-.251953l.0019532-.001953c.057608-.280814.1301419-.557307.2148437-.830078.020541-.0662.0442973-.131627.0664063-.197266.092045-.273072.1917866-.544367.3105468-.8066405.0034201-.00758.0043425-.0139254.0078126-.0214844l.0019531-.0019531c.089622-.1964537.1969634-.3835982.3027343-.5722656.00934-.016936.0178898-.0338973.0273438-.0507813v-.0019531c.0875117-.156058.1808121-.3097635.2773438-.4609375.1166385-.1805273.2346235-.3592933.3652343-.53125.0583075-.0779653.1224319-.1524411.1835938-.2285156.0217783-.0267299.0464178-.0515364.0683593-.078125z" fill="#bebebe" opacity=".95"/><path d="m13.230469 6.1230469c-.459491-.0137107-.911118.0328251-1.357422.1054687.031778.165872.070384.3288299.080078.5019532a.91929163.91929163 0 0 1 .001953.0507812c-.00002.2883437-.022964.5596723-.060547.8222656.018423-.0038282.036219-.0100305.054688-.0136718.176139-.0346941.355253-.0542037.535156-.0722657.0385-.00383.076628-.012575.115234-.015625.001.0000398.002807-.0019531.003907-.0019531.212204-.016653.4255-.0191707.640625-.0117188zm-5.0312502 3.4648437c-.005497.012501-.0196382.0432395-.0195313.0429688.000044-.00011-.0098581.0342036-.0175781.0566406.013401-.037279.0319593-.0884444.0371094-.0996094zm-1.7539063 1.3496094c-.1845908.598991-.2852933 1.222189-.3046875 1.859375.064187-.566346.4146557-1.007327.8769531-1.322266-.2242892-.148002-.4175106-.329139-.5722656-.537109zm-.3164063 2.160156c.0005082.044569-.0071922.088169-.0058593.132813h.0195312c-.0062377-.043959-.0105442-.088018-.0136719-.132813z" fill="#bebebe" opacity=".95"/><path d="m13.257812 8.8671875c-.04751-.0006411-.09329.0020931-.140624.0019531-.06096-.0001453-.122918-.0004669-.183594.0019532-.223143.00858-.44539.0299386-.66211.0722656-.325159.063497-.639295.162866-.939453.2988281-.0015.0006339-.004359.0013731-.005859.0019531-.01935.00878-.037431.022172-.056641.03125-.052534.0247314-.102495.0537817-.154297.0800782-.306438.3557172-.678124.6676172-1.1191402 1.0019532a.91929163.91929163 0 0 0 -.0019532.001953c-.1816844.136684-.3456047.323534-.2089844.152344-.016419.02064-.0296503.03611-.0527343.0625-.008288.00948-.0247417.026209-.0410157.042969-.1098214.280603-.2408796.512761-.4414062.701171-.0014829.002897-.0045083.004837-.0058594.007813-.0006274.0015.0006655.002406 0 .003906-.0336912.074379-.058528.152247-.0878906.228516.4554189.341649.7988281.803182.7988281 1.410156 0 .103052-.0150995.201825-.03125.300781l.2949219.003907c-.0016-.044621-.009696-.090127-.009766-.134766-.000236-.03567.000853-.071901.001954-.107422.005399-.158131.019238-.317318.048828-.470703.01724-.08921.041086-.174776.066406-.261719.0065-.02273.010468-.047792.017578-.070312v-.001954l.001953-.001953c.0051-.01594.012258-.029111.017578-.044921.0632-.185958.144812-.365268.244141-.535157.0084-.01438.012884-.030662.021484-.044922.05839-.09652.123612-.189598.19336-.279297.07157-.09162.145395-.180339.228515-.263671.08298-.08275.17223-.159255.263672-.230469 0 0 .001953-.001953.001953-.001953.09091-.07094.187222-.136058.285156-.195313.014261-.0086.028569-.015077.042969-.023437.169895-.09933.351154-.17899.53711-.242188.01585-.0053.029012-.014471.044921-.019531h.001954.001953c.02252-.0072.045629-.011048.068359-.017578.08694-.02532.176413-.05111.265625-.06836.153385-.0296.308667-.041494.466797-.046874.03552-.0011.073713-.004007.109375-.003907.04384.000067.087033.010319.130859.011719z" fill="#bebebe" opacity=".95"/><path d="m13.206038 11.552626-.0013.0013c-.108935-.0017-.217458.0074-.323914.02732l-.0013.0013c-.105954.01999-.211197.04989-.310904.08976l-.0013.0013-.0013.0013c-.09982.04011-.196182.08849-.286188.146997-.0019.0012-.0021.004-.0039.0052h-.0013c-.08999.05852-.175185.12712-.251065.202934-.07455.07461-.138389.157811-.196429.245861-.0013.0019-.004.0021-.0052.0039-.05852.09-.106889.186366-.146998.286189l-.0013.0013-.0013.0013c-.03987.09971-.06976.204951-.08976.310906l-.0013.0013c-.01992.106459-.02898.214979-.02733.323914l-.0013.0013c.0017.109301.01447.217851.03772.325214.04651.214725.13555.422412.258871.606198.06165.0919.13098.17661.209437.254968.0784.07832.16435.149081.256269.21074.183843.123307.391521.212293.606198.258869.10734.02328.215991.03743.325213.03902l.0013-.0013c.21899.0029.436341-.04099.637419-.122281.09945-.0402.195466-.08848.284888-.146996.09021-.05892.174867-.126936.251065-.202934l.0039-.0039.0039-.0039c.074-.07421.138581-.155747.196429-.24326.0016-.0023.0036-.0041.0052-.0066.05852-.08942.106789-.185443.146998-.284886.08129-.20108.125302-.41843.12228-.637419l.0013-.0013c-.0016-.109223-.01575-.217875-.03902-.325213-.04657-.214679-.135562-.422354-.25887-.606199-.06165-.09192-.132418-.17788-.210739-.256269-.07836-.07845-.163075-.147778-.254968-.209439-.183785-.123321-.391473-.212358-.606198-.25887-.107365-.02326-.215912-.03608-.325214-.03772z" fill="#bebebe" opacity=".95"/></g><path d="m7.84821 3.96875c1.64243-.092 3.0955 1.17008 3.1875 2.8125-.0001 1.40136-.37771 1.92177-1.59375 2.84375-.19093.14364-.3256.2506-.375.3125-.0494.0621-.0312.0332-.0312.0312.007.52831-.47163 1-1 1s-1.007-.47169-1-1c0-.50239.22424-.94342.46875-1.25.24451-.30663.4913-.51638.71875-.6875.20405-.16056.46083-.38454.6875-.65625.0935-.1121.129-.30766.125-.4375v-.0312c-.0316-.56324-.49926-.9691-1.0625-.9375s-.9691.43676-.9375 1h-2c-.092-1.64243 1.17007-2.9079 2.8125-3zm.1875 8c.55228 0 1 .44772 1 1s-.44772 1-1 1-1-.44772-1-1 .44772-1 1-1z" fill="#bebebe"/></svg>