<svg height="16" width="16" xmlns="http://www.w3.org/2000/svg"><g fill="#bebebe"><g opacity=".35"><path d="m13 0v4h1v10h-3.966797c-.006068.368767-.1166373.712518-.3027342 1.007812l4.2324222.041016.544921-.138672.501954-.648437-.009766-10.261719h1v-4zm1 1h1v2h-1z"/><path d="m.5 4c-.277 0-.5.223-.5.5v8c0 .277.223.5.5.5h4.5v1h-1v1h2.3867188c-.1886516-.302256-.3027344-.653568-.3027344-1.03125 0-.631833.3475629-1.130576.8183594-1.494141-.1804134-.135501-.3336348-.297746-.4648438-.474609h-4.9375c-.277 0-.5-.223-.5-.5v-6c0-.277.223-.5.5-.5h3.8886719c.6488681-.5681611 1.479692-.9402637 2.3925781-1zm7.4511719 0c1.0963809-.024407 2.1126501.402399 2.8613281 1.1191406.030554.025042.05623.0524424.080078.0839844.60085.6091813 1.004931 1.4043111 1.107422 2.3046875v-3.0078125c0-.277-.223-.5-.5-.5zm4.0488281 4.4472656c-.056392.5211636-.185963 1.0004356-.4375 1.4296875-.156471.2670209-.348138.4972409-.5625.7167969v.90625c0 .277-.223.5-.5.5h-.90625c-.0939329.180062-.2027598.345246-.375.474609.1945052.150204.359476.329189.4960938.525391h1.7851562c.277 0 .5-.223.5-.5z"/></g><path d="m7.87224 4.9687499c1.64243-.092 3.0955 1.17008 3.1875 2.8125-.0001 1.40136-.37771 1.92177-1.59375 2.8437501-.19093.14364-.3256.2506-.375.3125-.0494.0621-.0312.0332-.0312.0312.007.52831-.47163 1-1 1s-1.007-.47169-1-1c0-.50239.22424-.94342.46875-1.2500001.24451-.30663.4913-.51638.71875-.6875.20405-.16056.46083-.38454.6875-.65625.0935-.1121.129-.30766.125-.4375v-.0312c-.0316-.56324-.49926-.9691-1.0625-.9375s-.9691.43676-.9375 1h-2c-.092-1.64243 1.17007-2.9079 2.8125-3zm.1875 8.0000001c.55228 0 1 .44772 1 1s-.44772 1-1 1-1-.44772-1-1 .44772-1 1-1z"/></g></svg>