<svg height="16" width="16" xmlns="http://www.w3.org/2000/svg"><g fill="#bebebe"><path d="m.40429688 3.9804688a.151613.151613 0 0 0 -.13671876.1523437v9.0820315a.151613.151613 0 0 0 .15234376.152344h4.62890622v.949218h-.8515625a.151613.151613 0 0 0 -.1523437.152344v.564453a.151613.151613 0 0 0 .1523437.152344h4.0136719a.151613.151613 0 0 0 .1523437-.152344v-.564453a.151613.151613 0 0 0 -.1523437-.152344h-.8496094v-.949218h2.2675781l-.0136718-.013672a1.2516867 1.2516867 0 0 1 -.3671875-.884766v-.078125h-7.8828125v-7.4355469h9.6777346v4.7929688h.832031a1.2516867 1.2516867 0 0 1 .265625.03125v-5.6464844a.151613.151613 0 0 0 -.152344-.1523437h-11.56835912a.151613.151613 0 0 0 -.015625 0z" opacity=".35"/><path d="m15.939453.41796875-3.527344.00195313v4.50585932h1.304688l.037109 4.8710938a1.2516867 1.2516867 0 0 1 .339844-.0488281h.564453l-.037109-4.8222657 1.318359-.0019531zm-.619141.66601565v3.1738281l-2.289062.0019531v-3.1738281zm-6.2402339 13.1972656-.7773437.003906.7773437.763672h.1679688v-.455078a1.2516867 1.2516867 0 0 1 .0410156-.3125z" opacity=".35"/><path d="m10.50003 11h1.375l1.125 1.09375 1.09375-1.09375h1.40625v1.46875l-1.09375 1.0625 1.09375 1.0625v1.40625h-1.4375l-1.0625-1.0625-1.0625 1.0625h-1.4375v-1.40625l1.0625-1.0625-1.0625-1.0625z"/></g></svg>