<svg height="16" width="16" xmlns="http://www.w3.org/2000/svg"><g fill="#bebebe" transform="translate(.098963 .083894)"><path d="m13 6.0253906a7.5 7.5 0 0 0 -1.083984.1621094c.03551.1775022.075528.3532433.085937.5390625a.96575356.96575356 0 0 1 0 .0546875c-.00001.1399316-.009435.2739442-.017578.4082031a6.5 6.5 0 0 1 1.015625-.1679687zm-4.8417969 3.5429688c-.0056841.0129046-.019639.0471479-.0195312.046875.0000485-.0001228-.0143747.043802-.0214844.0644531.0132654-.036979.0352336-.0987924.0410156-.1113281zm-1.7207031 1.4394526a7.5 7.5 0 0 0 -.4199219 1.992188h.0585938c-.0001766-.010678-.0039063-.020535-.0039063-.03125 0-.636354.3575615-1.131429.8359375-1.492188-.1824165-.133341-.3371744-.29372-.4707031-.46875z" opacity=".35" transform="translate(-.098963 -.083894)"/><path d="m13 9.03125a4.5 4.5 0 0 0 -3.6035156 2.650391c.3547223.336831.6054686.761269.6054686 1.287109 0 .010711-.0037297.020576-.0039061.03125h.0429691a3.5 3.5 0 0 1 2.958984-2.960938z" opacity=".35" transform="translate(-.098963 -.083894)"/><circle cx="13.401037" cy="13.416106" opacity=".35" r="1.5"/><path d="m13 3.0253906a10.5 10.5 0 0 0 -2.904297.5644532c.338736.2067522.636584.4704525.900391.765625a9.5 9.5 0 0 1 2.003906-.3378907zm-8.328125 4.8359375a10.5 10.5 0 0 0 -1.6542969 5.1386719h1.0078125a9.5 9.5 0 0 1 1.8007813-5.0664062h-.7890625a.96575356.96575356 0 0 1 -.3652344-.0722657z" opacity=".35" transform="translate(-.098963 -.083894)"/><path d="m13.140625.01757813a13.5 13.5 0 0 0 -13.12304687 12.98242187h1.00781247a12.5 12.5 0 0 1 3.9824219-8.6386719c.2491076-.2834311.5390322-.5252632.8613281-.7285156a12.5 12.5 0 0 1 7.1308594-2.6152344v-.5175781c0-.17871644.059145-.33753072.140625-.48242187z" opacity=".35" transform="translate(-.098963 -.083894)"/><path d="m7.749247 3.8848559c1.64243-.092 3.0955 1.17008 3.1875 2.8125-.0001 1.40136-.37771 1.92177-1.59375 2.84375-.19093.14364-.3256.2506-.375.3125-.0494.0621-.0312.0332-.0312.0312.007.5283101-.47163 1.0000001-1 1.0000001s-1.007-.47169-1-1.0000001c0-.50239.22424-.94342.46875-1.25.24451-.30663.4913-.51638.71875-.6875.20405-.16056.46083-.38454.6875-.65625.0935-.1121.129-.30766.125-.4375v-.0312c-.0316-.56324-.49926-.9691-1.0625-.9375s-.9691.43676-.9375 1h-2c-.092-1.64243 1.17007-2.9079 2.8125-3zm.1875 8.0000001c.55228 0 1 .44772 1 1s-.44772 1-1 1-1-.44772-1-1 .44772-1 1-1z"/></g></svg>