<svg height="16" width="16" xmlns="http://www.w3.org/2000/svg"><path d="m2.0625 0c-1.1705967.42310773-2.03191776 1.0347682-2.0625 2.0625v11.875c0 1.1507.91177 2.0625 2.0625 2.0625h11.875c1.1507 0 2.0625-.91177 2.0625-2.0625v-11.875c0-1.15-.9125-2.0625-2.0625-2.0625zm-.78125 3.21875h5.53125l-1.4375 1.4375h-2.65625zm9.0625 0h4.375l-1.4375 1.4375h-2.9375l-.6875-.71875zm-3.28125.28125v3.6875l-.53125.5625-.875-.90625v-1.9375zm2.3125.71875.71875.6875v1.75l-.90625.875-.53125-.53125v-2.09375zm2.21875 2.875h1.625l.6875.71875-.6875.71875h-1.625l-.71875-.71875zm-9.0625.1875h3.03125l.71875.71875-.71875.71875h-3.03125l-.71875-.71875zm6.65625.78125.90625.90625v2.125l-.71875.6875-.71875-.6875v-2.5zm5 0 .53125.53125v2.5l-.71875.6875-.71875-.6875v-2.125zm-7.65625.21875.53125.53125v3.6875l-1.40625-1.40625v-1.9375zm-3.8125 3.0625h2.65625l1.4375 1.4375h-5.53125zm7.625 0h2.6875l.71875.71875-.71875.71875h-2.6875l-.6875-.71875z" fill="#bebebe"/></svg>