<svg height="16" width="16" xmlns="http://www.w3.org/2000/svg"><g fill="#bebebe"><g opacity=".35"><path d="m4 5v6h5.1640625v-.626953c0-.3924951.2291223-.7089845.5117187-.7089845h2.3242188v-4.6640625z"/><path d="m8 1c-1.645 0-3 1.355-3 3v2 1h1 4 1v-1-2c0-1.645-1.355-3-3-3zm0 2c.56413 0 1 .43588 1 1v1h-2v-1c0-.56412.43587-1 1-1z"/><path d="m6 13v1h-6v1h6v1h3.1640625v-3zm1 1h2v1h-2z"/><path d="m7.5 10.690493v2.309507h1v-2.309507z" stroke-width=".792656"/></g><path d="m10.50003 11h1.375l1.125 1.09375 1.09375-1.09375h1.40625v1.46875l-1.09375 1.0625 1.09375 1.0625v1.40625h-1.4375l-1.0625-1.0625-1.0625 1.0625h-1.4375v-1.40625l1.0625-1.0625-1.0625-1.0625z"/></g></svg>