<svg height="16" width="16" xmlns="http://www.w3.org/2000/svg"><path d="m2.0625 0c-1.1507 0-2.0625.91177-2.0625 2.0625v11.875c0 1.1507.91177 2.0625 2.0625 2.0625h11.875c1.1507 0 2.0625-.91177 2.0625-2.0625v-11.875c0-1.1507-.91177-2.0625-2.0625-2.0625zm8.4375 3.21875h4.34375l-1.40625 1.4375h-2.9375l-.71875-.71875zm-9.34375.28125 1.40625 1.40625v1.9375l-.875.90625-.53125-.5625zm6.03125 0v3.6875l-.53125.5625-.875-.90625v-1.9375zm2.3125.71875.71875.6875v1.75l-.875.875-.53125-.53125v-2.09375zm2.25 2.875h1.59375l.71875.71875-.71875.71875h-1.59375l-.71875-.71875zm-9.09375.1875h3.03125l.71875.71875-.71875.71875h-3.03125l-.6875-.71875zm6.6875.78125.875.90625v2.125l-.71875.6875-.6875-.6875v-2.5zm4.96875 0 .53125.53125v2.5l-.71875.6875-.6875-.6875v-2.125zm-7.65625.21875.53125.53125v3.6875l-1.40625-1.40625v-1.9375zm3.84375 3.0625h2.65625l.71875.71875-.71875.71875h-2.65625l-.71875-.71875z" fill="#bebebe"/></svg>