<svg height="16" width="16" xmlns="http://www.w3.org/2000/svg"><g fill="#bebebe"><path d="m13 0v4h1v6h1.005859l-.005859-6h1v-4zm1 1h1v2h-1zm-5.75 13 .75 1 1 .009766v-1.009766h-1z" opacity=".35"/><path d="m.5 4c-.277 0-.5.223-.5.5v8c0 .277.223.5.5.5h4.5v1h-1v1h4v-1h-1v-1h3v-1h-8.5c-.277 0-.5-.223-.5-.5v-6c0-.277.223-.5.5-.5h9c.277 0 .5.223.5.5v4.5h1v-5.5c0-.277-.223-.5-.5-.5z" fill="#bebebe" opacity=".35"/><path d="m11 11h1.375l1.125 1.09375 1.09375-1.09375h1.40625v1.46875l-1.09375 1.0625 1.09375 1.0625v1.40625h-1.4375l-1.0625-1.0625-1.0625 1.0625h-1.4375v-1.40625l1.0625-1.0625-1.0625-1.0625z"/></g></svg>