<svg height="16" width="16" xmlns="http://www.w3.org/2000/svg"><path d="m13.076172 1.0996094-.007813.0078125c-.789083-.012062-1.576487.0529076-2.347656.1972656l-.009765.0097656c-.7675938.1447878-1.5296739.3615968-2.2519536.6503907l-.0097656.0117187-.0078126.0078125c-.7231222.2905458-1.4222121.6406023-2.0742187 1.0644531-.013512.00869-.0153039.0284294-.0292969.0371094h-.0078125c-.6519105.4239725-1.2706263.9234571-1.8203125 1.4726563-.3342629.3345764-.6310818.6987901-.9140625 1.0742187a2.2809732 2.2809732 0 0 1 .4707031-.0351563 2.2809732 2.2809732 0 0 1 1.0175782.2773438c.1166698-.1327022.2259757-.2707799.3515625-.3964844.4913596-.4909242 1.0422573-.9374216 1.625-1.3164062h.0097656c.012511-.00776.0113525-.0254371.0234375-.0332032.5828204-.3788765 1.2090691-.6914514 1.8554688-.9511718l.0078124-.0078125.0078126-.0097657c.6456336-.2581422 1.3275732-.4506491 2.0136722-.5800781l.007812-.0097656c.689305-.1290398 1.394222-.1885163 2.09961-.1777344l.007812-.0078125c.03263.0004946.063093.0070125.095703.0078125l-.011719-1.2871093c-.0335-.0008023-.066094-.0053494-.099609-.0058594zm-11.1972658 7.6132812c-.2412233.6475212-.4341773 1.3177894-.5625 1.9980474l-.0097656.009765c-.14431.771194-.2112807 1.558524-.1992187 2.347656l-.0078125.009766c.000686.04526.0065925.089557.0078125.134766l1.2871093.007812c-.00117-.04263-.0091056-.084278-.0097656-.126953l.0097656-.007812c-.0107829-.705399.0487371-1.410246.1777344-2.09961l.0078125-.007812c.0717263-.380245.1679987-.756676.2792969-1.1289066a2.2809732 2.2809732 0 0 1 -.9804688-1.1367188z" fill="#bdbdbd" fill-opacity=".34902" opacity=".95"/><g fill="#bebebe"><g fill-opacity=".34902"><path d="m13.201172 3.4277344c-1.00181.0196282-1.987356.1685012-2.923828.4707031-1.1094387.3580416-2.1524282.9096489-3.0781252 1.6347656-.3085653.2417049-.6040459.5011432-.8847657.78125h-.0019531c-.1271123.1273904-.2362002.2690155-.3554688.4023438a2.2809732 2.2809732 0 0 1 .0410157.0664062 2.2809732 2.2809732 0 0 1 3.1894531-.8457031 2.2809732 2.2809732 0 0 1 .0019531 0c.016887-.00945.0338393-.0180027.0507813-.0273438.1886653-.1057698.3758427-.2131073.5722656-.3027343h.0019531c.00758-.00346.0139434-.0063557.0214844-.0097657.2622755-.1187599.5335665-.2204541.8066405-.3125.06564-.022109.131078-.0439131.197266-.0644531.27277-.084701.549284-.1572243.830078-.2148437l.001953-.0019532c.08344-.017087.167913-.0283057.251953-.0429687.0064-.00104.013211-.0028162.019531-.0039063.132301-.022789.264848-.0438418.398438-.0605468.004-.0005007.007709-.0014431.011719-.0019532.101453-.0124829.204565-.0222249.30664-.03125.130394-.011491.259342-.0216667.390625-.0273437.05491-.0024.110907-.0024663.166016-.0039063zm-7.1992189 5.5429687a2.2809732 2.2809732 0 0 1 -2.0585937 1.1835939c-.0140543.041668-.0333652.081185-.046875.123047-.1193388.369811-.2168052.748064-.2929688 1.130859-.1166669.586677-.1798223 1.186407-.1914062 1.792969l1.4199218.015625c.00141-.05511.0014963-.111103.0039063-.166016.00568-.131285.0158537-.260229.0273437-.390625.00902-.102076.0187631-.205186.03125-.30664.0005007-.0041.0014532-.007709.0019532-.011719.016706-.133586.0377578-.266137.0605468-.398438.00109-.0064.0008832-.013211.0019532-.019531.014664-.08404.0278329-.168515.0449218-.251953l.0019532-.001953c.057608-.280814.1301419-.557307.2148437-.830078.020541-.0662.0442973-.131627.0664063-.197266.092045-.273072.1917866-.544367.3105468-.8066405.0034201-.00758.0043425-.0139254.0078126-.0214844l.0019531-.0019531c.0896225-.1964537.1969634-.3835982.3027343-.5722656.00934-.016936.0178898-.0338973.0273438-.0507813v-.0019531c.0307871-.0549021.0657976-.1078809.0976562-.1621094a2.2809732 2.2809732 0 0 1 -.0332031-.0546875z" opacity=".95"/><path d="m6.8847656 9.859375c-.5244596 1.032873-.797116 2.185467-.7617187 3.371094l1.3652343.013672c-.00745-.215125-.0049002-.430372.0117188-.642579.0000824-.001099.0019531-.002806.0019531-.003906.00304-.03859.011765-.074776.015625-.113281.018056-.179902.0395278-.360973.0742188-.537109.08446-.428385.2183699-.843082.3984375-1.238282.053631-.117713.1178808-.231886.1796875-.345703.041531-.0764.0778968-.154023.1230469-.228515a2.2809732 2.2809732 0 0 1 -1.4082032-.275391z" opacity=".95"/><path d="m10.601562 9.671875c-.041069.0293475-.083032.0527763-.123046.0839844-.000722.0005972-.003007.0032162-.003907.0039062-.0018.00138-.002106.0025263-.003906.0039063l-.001953.0019531c-.130584.1020658-.256144.2138214-.375.332031l-.001953.001953-.001953.001953c-.1166053.11726-.2252404.240481-.3261721.369141-.00138.0018-.0044794.004059-.0058594.005859 0 0-.0019531.001954-.0019531.001954-.03181.04071-.0558435.085211-.0859375.126953-.026151.0365-.0512319.072132-.0761719.109375-.038576.05739-.0814354.112744-.1171875.171875-.075025.123873-.1396486.254077-.2011719.384765-.00909.01921-.022468.035348-.03125.054688-.0006274.0015.0006655.002406 0 .003906-.1359614.300157-.2372846.616245-.3007812.941406-.042326.21672-.0618485.439134-.0703125.66211-.00239.06069-.0040563.12067-.0039063.18164.0001944.04774-.0026831.094654-.0019531.142578l1.3515625.015626c-.0016-.044621-.009696-.090127-.009766-.134766-.000236-.03567.000853-.071901.001954-.107422.005399-.158131.019238-.317318.048828-.470703.01724-.08921.041086-.174776.066406-.261719.0065-.02273.010468-.047792.017578-.070312v-.001954l.001953-.001953c.0051-.01594.012258-.029111.017578-.044921.0632-.185958.144812-.365268.244141-.535157.0084-.01438.012884-.030662.021484-.044922.05839-.09652.123612-.189599.19336-.279297.07157-.09162.145395-.180339.228515-.263671.08298-.08275.17223-.159255.263672-.230469 0 0 .001953-.001953.001953-.001953.09091-.07094.187222-.136058.285156-.195313.014261-.0086.028569-.015077.042969-.023437.169895-.09933.351154-.17899.53711-.242188.01585-.0053.029012-.014471.044921-.019531h.001954.001953c.02252-.0072.045629-.011048.068359-.017578.08694-.02532.176413-.051109.265625-.06836.153385-.0296.308667-.041494.466797-.046874.03552-.0011.073713-.004007.109375-.003907.04384.000067.087033.010319.130859.011719l-.003906-.4550781a2.2809732 2.2809732 0 0 1 -2.666016-.0917969z" opacity=".95"/><path d="m13.206038 11.552626-.0013.0013c-.108935-.0017-.217458.0074-.323914.02732l-.0013.0013c-.105954.01999-.211197.04989-.310904.08976l-.0013.0013-.0013.0013c-.09982.04011-.196182.08849-.286188.146997-.0019.0012-.0021.004-.0039.0052h-.0013c-.08999.05852-.175185.12712-.251065.202934-.07455.07461-.138389.157811-.196429.245861-.0013.0019-.004.0021-.0052.0039-.05852.09-.106889.186366-.146998.286189l-.0013.0013-.0013.0013c-.03987.09971-.06976.204951-.08976.310906l-.0013.0013c-.01992.106459-.02898.214979-.02733.323914l-.0013.0013c.0017.109301.01447.217851.03772.325214.04651.214725.13555.422412.258871.606198.06165.0919.13098.17661.209437.254968.0784.07832.16435.149081.256269.21074.183843.123307.391521.212293.606198.258869.10734.02328.215991.03743.325213.03902l.0013-.0013c.21899.0029.436341-.04099.637419-.122281.09945-.0402.195466-.08848.284888-.146996.09021-.05892.174867-.126936.251065-.202934l.0039-.0039.0039-.0039c.074-.07421.138581-.155747.196429-.24326.0016-.0023.0036-.0041.0052-.0066.05852-.08942.106789-.185443.146998-.284886.08129-.20108.125302-.41843.12228-.637419l.0013-.0013c-.0016-.109223-.01575-.217875-.03902-.325213-.04657-.214679-.135562-.422354-.25887-.606199-.06165-.09192-.132418-.17788-.210739-.256269-.07836-.07845-.163075-.147778-.254968-.209439-.183785-.123321-.391473-.212358-.606198-.25887-.107365-.02326-.215912-.03608-.325214-.03772z" opacity=".95"/></g><g stroke-width=".85"><path d="m5.275 7.8776977a1.275 1.275 0 0 1 -2.55 0 1.275 1.275 0 1 1 2.55 0z"/><path d="m9.275 7.8776977a1.275 1.275 0 0 1 -2.55 0 1.275 1.275 0 1 1 2.55 0z"/><path d="m13.275 7.8776977a1.275 1.275 0 0 1 -2.55 0 1.275 1.275 0 1 1 2.55 0z"/></g></g></svg>