<svg height="16" width="16" xmlns="http://www.w3.org/2000/svg"><path d="m2.0625 0c-1.1705967.42310773-2.03191776 1.0347682-2.0625 2.0625v11.875c0 1.1507.91177 2.0625 2.0625 2.0625h11.875c1.1507 0 2.0625-.91177 2.0625-2.0625v-11.875c0-1.15-.9125-2.0625-2.0625-2.0625zm-1.0625 7v-4l2 2v1l-1.5 1.5zm9-4h5l-1.5 2h-2.5l-1.5-1.5zm-3 0v4l-.5.5-1.5-1.5v-1zm2 1 1 1v1.5l-1 1-1-1v-1.5zm2.5 3h1l1 1-1 1h-1l-1-1zm-8.5 0h2l1 1-1 1h-2l-1-1zm6 1 1 1v1.5l-1 1-1-1v-1.5zm5 .5 1 1v1l-1 1-1-1v-1zm-7.5 0 .5.5v4h-2v-3zm4 2.5h2l1 1-1 1h-2l-1-1z" fill="#bebebe"/></svg>