<svg height="16" width="16" xmlns="http://www.w3.org/2000/svg"><path d="m2.6464844 1c-.9195744 0-1.6464844.7249568-1.6464844 1.6445312v10.7109378c0 .919574.72691 1.646484 1.6464844 1.646484h10.7109376c.919574 0 1.644531-.72691 1.644531-1.646484v-10.7109378c0-.9195744-.724957-1.6445312-1.644531-1.6445312zm5.3554687 2.4511719c2.2320409 0 4.4571599 1.0059948 6.1601559 2.7089843l-.80664.8398438c-2.951977-2.9502422-7.7596246-2.9513132-10.7109378 0l-.8046874-1c1.7029895-1.7029898 3.9300687-2.548828 6.1621093-2.5488281zm-.0019531 2.484375c1.6368302 0 3.266766.6222344 4.515625 1.8710937l-.804687.8378906c-2.0435884-2.0435876-5.3782878-2.0435877-7.4218755 0l-.8046875-.8378906c1.2488591-1.2488593 2.878795-1.8710937 4.515625-1.8710937zm0 3.0644531a2 2 0 0 1 2 2 2 2 0 0 1 -2 2 2 2 0 0 1 -2-2 2 2 0 0 1 2-2z" fill="#f57900" stroke-width="1.03235"/></svg>