<svg height="16" width="16" xmlns="http://www.w3.org/2000/svg"><g fill="#bebebe"><path d="m4 5v.59375h8v-.59375zm0 5.40625v.59375h8v-.59375z" opacity=".5"/><path d="m8 1c-1.645 0-3 1.355-3 3v1.59375h6v-1.59375c0-1.645-1.355-3-3-3zm0 2c.56413 0 1 .43588 1 1v1h-2v-1c0-.56412.43587-1 1-1z" opacity=".5"/><path d="m6 13v1h-6v1h6v1h4v-1h6v-1h-6v-1zm1 1h2v1h-2z" opacity=".5"/><path d="m7.5 10.690493v2.309507h1v-2.309507z" opacity=".5" stroke-width=".792656"/><g stroke-width="1.5"><path d="m5.01 8a1.5 1.5 0 1 1 -3 0 1.5 1.5 0 1 1 3 0z"/><path d="m9.01 8a1.5 1.5 0 1 1 -3 0 1.5 1.5 0 1 1 3 0z"/><path d="m13.01 8a1.5 1.5 0 1 1 -3 0 1.5 1.5 0 1 1 3 0z"/></g></g></svg>