<svg height="16" width="16" xmlns="http://www.w3.org/2000/svg"><g fill="#bebebe"><path d="m13 0v4h1v4.2636719a4.5 4.5 0 0 1 1.003906.5l-.003906-4.7636719h1v-4zm1 1h1v2h-1zm-5.75 13 .0234375.03125a4.5 4.5 0 0 1 -.0097656-.03125z" opacity=".35"/><path d="m.5 4c-.277 0-.5.223-.5.5v8c0 .277.223.5.5.5h4.5v1h-1v1h4v-1h-1v-1h1.0332031a4.5 4.5 0 0 1 -.0332031-.5 4.5 4.5 0 0 1 .03125-.5h-6.53125c-.277 0-.5-.223-.5-.5v-6c0-.277.223-.5.5-.5h9c.277 0 .5.223.5.5v2.7636719a4.5 4.5 0 0 1 1-.2304688v-3.5332031c0-.277-.223-.5-.5-.5z" fill="#bebebe" opacity=".35"/><path d="m12.5 9c-1.933 0-3.5000002 1.567-3.5000002 3.5s1.5670002 3.5 3.5000002 3.5 3.5-1.567 3.5-3.5-1.567-3.5-3.5-3.5zm-2.5000002 3h5.0000002v1h-5.0000002z" fill="#ef2929"/></g></svg>