<svg height="16" width="16" xmlns="http://www.w3.org/2000/svg"><path d="m2.0625 0c-1.1507 0-2.0625.91177-2.0625 2.0625v11.875c0 1.1507.91177 2.0625 2.0625 2.0625h11.875c1.1507 0 2.0625-.91177 2.0625-2.0625v-11.875c0-1.1507-.91177-2.0625-2.0625-2.0625zm3 2.90625h6.15625l-1.5 1.53125h-3.125zm-.28125.28125 1.5 1.53125v2.03125l-.9375.96875-.5625-.5625zm1.625 4.0625h3.21875l.75.75-.75.75h-3.21875l-.78125-.75zm-1.0625 1.03125.9375.96875v2.03125l-1.5 1.53125v-3.96875zm1.25 3.3125h3.125l1.5 1.5h-6.15625z" fill="#bebebe"/></svg>