<svg height="16" width="16" xmlns="http://www.w3.org/2000/svg"><path d="m8.0117188 1.4746094-2.1621094 4.375-4.8320313.7011718 3.4941407 3.4082032-.8261719 4.8105466 4.3203125-2.269531 4.3203126 2.273438-.822266-4.8125005 3.496094-3.40625-4.830078-.703125zm-.0019532 1.8671875 1.4179688 2.8769531a.82740452.82740452 0 0 0 .6210936.453125l3.173828.4628906-2.296875 2.234375a.82740452.82740452 0 0 0 -.240234.7343754l.541015 3.152343-2.8320308-1.490234a.82740452.82740452 0 0 0 -.7714843.001953l-2.8378907 1.492188.5429688-3.16211a.82740452.82740452 0 0 0 -.2382812-.7324216l-2.296875-2.2382813 3.1757812-.4589843a.82740452.82740452 0 0 0 .6210938-.4511719z" fill="#bebebe"/></svg>