<svg height="16" width="16" xmlns="http://www.w3.org/2000/svg"><g fill="#bebebe" transform="translate(-.001538 -.376953)"><path d="m4.0015378 1.376953.0000002 5h1l-.0000002-4h6.0000002v4h1v-5z" stroke-width="1.056329"/><g transform="translate(.001538 .376953)"><path d="m1.9707031 6c-.475426.5462144-.604413.574424-.8125 1-.16267694 2.0729246-.16267694 2.958445 0 5.03125h.21875l1.625.054688v-1.28125c0-.06546.01275-.129411.03125-.1875v-.09375c0-.264854.5416-.494141.8125-.494141h4.1542969.7421875a4.5 4.5 0 0 1 .9316406-1.029297h-1.6738281-4v-2h4 4v1.0332031a4.5 4.5 0 0 1 .5-.0332031 4.5 4.5 0 0 1 2.443359.7246094c-.018379-.5076054-.048283-1.0456922-.101562-1.7246094-.208087-.425576-.337074-.4537856-.8125-1h-2.029297-4-4zm-.96875 6.0625.1875.84375c.012518.07898.08989.08675.15625.09375l1.75.023438-.03125-.875zm.4570313.371094 1.4394531.021484.0058594.154297-1.4003907.023437z"/><path d="m5 11-1 5h5.6777344a4.5 4.5 0 0 1 -.9160156-1h-3.2617188l.5-3h2.03125a4.5 4.5 0 0 1 .2324219-1z"/></g></g><path d="m12.5 9c-1.933 0-3.5 1.567-3.5 3.5s1.567 3.5 3.5 3.5 3.5-1.567 3.5-3.5-1.567-3.5-3.5-3.5zm-2.5 2.9688h5v1.0312h-5z" fill="#ef2929"/></svg>