<svg height="16" width="16" xmlns="http://www.w3.org/2000/svg"><g fill="#bebebe"><path d="m4.4672118.8613281v5.5429688h.7089844v-4.8652344h5.6445318v4.8652344h.677734v-5.5429688z" stroke-width="1.056329"/><path d="m2.6542969 5.3730469-.125.34375h-.46875c-.4294694.4522647-.6352799.8914838-.8125 1.34375-.1625648 2.0729246-.1625648 2.9584401 0 5.0312501h.21875 1.8125v-1.28125c0-.06541.012822-.129403.03125-.1875v-.09375c0-.264852.229098-.5.5-.5h5.0332031c.0891795-.1312426.2003598-.2444956.3027344-.3652345h-5.3359375c-.4825665 0-.8652344.3894535-.8652344.8652345v.082031c-.014331.06317-.03125.123745-.03125.199219v.916015h-1.3164063c-.1287214-1.7563806-.1331324-2.7021186.0117188-4.570312.1509434-.3809701.3404583-.7196692.6484375-1.0742188h.2714844a.36580844.36580844 0 0 0 .34375-.2402343l.0371093-.1035157h.3164063a.36580844.36580844 0 0 0 .3652344.34375h.0722656v.5410157a.36580844.36580844 0 0 0 .3652344.3652343h7.9062501a.36580844.36580844 0 0 0 .365234-.3652343v-.5410157h.041016a.36580844.36580844 0 0 0 .365234-.34375h.347657l.037109.1035157a.36580844.36580844 0 0 0 .34375.2402343h.267578c.325586.4054692.472827.7098341.652344 1.0839844.042743.5518599.046899.9408138.064453 1.3769532.136379.0667542.270273.1368378.398437.2167968-.018649-.5005088-.049183-1.031777-.101562-1.6992187-.208087-.425576-.337074-.7975356-.8125-1.34375h-.46875l-.125-.34375h-1.0625l.09375.34375h-.40625v.90625h-7.9062501v-.90625h-.4375l.0625-.34375zm-1.46875 6.7500001.1875.84375c.012532.07898.058638.08683.125.09375l1.9375-.03125-.03125-.875zm.4570312.371094 1.4082031.021484.0058594.154297-1.3691406.021484z"/><path d="m4.7851562 10.931641-.4550781 4.207031h4.6542969c-.0860139-.114071-.1673187-.229374-.2421875-.351563h-3.8027344l.3808594-3.478515h2.9472656c.0360977-.126965.0702289-.25483.1171875-.376953z"/><path d="m4.1679688 6.9960938v2.1308593h5.5195312c.602782-.5040688 1.332292-.8507608 2.140625-.9765625v-1.1542968z" opacity=".5"/></g><path d="m12.5 9c-1.933 0-3.5 1.567-3.5 3.5s1.567 3.5 3.5 3.5 3.5-1.567 3.5-3.5-1.567-3.5-3.5-3.5zm-2.5 2.9688h5v1.0312h-5z" fill="#ef2929"/></svg>