<svg height="16" width="16" xmlns="http://www.w3.org/2000/svg"><g fill="#bebebe" transform="translate(-.001538 -.376953)"><path d="m4.0015378 1.376953.0000002 5h1l-.0000002-4h6.0000002v4h1v-5z" stroke-width="1.056329"/><g transform="translate(.001538 .376953)"><path d="m1.9707031 6c-.475426.5462144-.604413.574424-.8125 1-.16267694 2.0729246-.16267694 2.958445 0 5.03125h.21875l1.625.054688v-1.28125c0-.06546.01275-.129411.03125-.1875v-.09375c0-.264854.5416-.494141.8125-.494141h4.1542969 2.558594l.513672-1.029297h-3.072266-4v-2h4 4v1.0957031c.146873-.0522928.29918-.089332.458984-.09375.560458-.01515 1.088178.2853954 1.357422.7773438a1.0001935 1.0001935 0 0 1 .017578.0332031l1.078125 2.158203c.080374-1.372447.060864-2.2991842-.070312-3.970703-.208087-.425576-.337074-.4537856-.8125-1h-2.029297-4-4zm-.96875 6.0625.1875.84375c.012518.07898.08989.08675.15625.09375l1.75.023438-.03125-.875zm.4570313.371094 1.4394531.021484.0058594.154297-1.4003907.023437z"/><path d="m5 11-1 5h4.1230469c-.121451-.316732-.1360267-.665964-.0214844-1h-2.6015625l.5-3h3.5722656l.5000004-1z"/></g></g><path d="m12.486328 9c-.178063.00458-.340249.103524-.425781.2597656l-3.0000001 6.0000004c-.1826751.333574.0591353.74089.4394531.740234h6c.380318.000656.622128-.40666.439453-.740234l-3-6.0000004c-.090227-.1648578-.26527-.2652056-.453125-.2597656zm-.486328 2h.5.5v2h-.5-.5zm.5 3c.276142 0 .5.223858.5.5s-.223858.5-.5.5-.5-.223858-.5-.5.223858-.5.5-.5z" fill="#ff7b1d"/></svg>