<svg height="16" width="16" xmlns="http://www.w3.org/2000/svg"><g fill="#bebebe"><path d="m4.4672118.8613281v5.5429688h.7089844v-4.8652344h5.6445318v4.8652344h.677734v-5.5429688z" stroke-width="1.056329"/><path d="m2.6542969 5.3730469-.125.34375h-.46875c-.4294694.4522647-.6352799.8914838-.8125 1.34375-.1625648 2.0729246-.1625648 2.9584401 0 5.0312501h.21875 1.8125v-1.28125c0-.06541.012822-.129403.03125-.1875v-.09375c0-.264852.229098-.5.5-.5h5.3261719l.2128906-.3652345h-5.5390625c-.4825665 0-.8652344.3894535-.8652344.8652345v.082031c-.014331.06317-.03125.123745-.03125.199219v.916015h-1.3164063c-.1287214-1.7563806-.1331324-2.7021186.0117188-4.570312.1509434-.3809701.3404583-.7196692.6484375-1.0742188h.2714844a.36580844.36580844 0 0 0 .34375-.2402343l.0371093-.1035157h.3164063a.36580844.36580844 0 0 0 .3652344.34375h.0722656v.5410157a.36580844.36580844 0 0 0 .3652344.3652343h7.9062501a.36580844.36580844 0 0 0 .365234-.3652343v-.5410157h.041016a.36580844.36580844 0 0 0 .365234-.34375h.347657l.037109.1035157a.36580844.36580844 0 0 0 .34375.2402343h.267578c.325586.4054692.472827.7098341.652344 1.0839844.10977 1.4172431.109755 2.3764171.058593 3.4941404l.357422.615235c.097156-1.5075014.083739-2.4509348-.054687-4.2148441-.208087-.425576-.337074-.7975356-.8125-1.34375h-.46875l-.125-.34375h-1.0625l.09375.34375h-.40625v.90625h-7.9062501v-.90625h-.4375l.0625-.34375zm10.7187501 3.4160156c-.013223.0000088-.024039.0071659-.037109.0078125l.246093.4257812c.108013.0698798.177337.1880789.189453.328125l.242188.4179688c.076415-.1121424.130859-.2350209.130859-.3769531 0-.4098035-.329348-.8027344-.771484-.8027344zm-12.1875001 3.3339845.1875.84375c.012532.07898.058638.08683.125.09375l1.9375-.03125-.03125-.875zm.4570312.371094 1.4082031.021484.0058594.154297-1.3691406.021484z"/><path d="m4.7851562 10.931641-.4550781 4.207031h2.1113281c-.0017037-.11874.0144629-.235052.0390626-.351563h-1.5410157l.3808594-3.478515h3.0761719l.21875-.376953z"/><path d="m4.1679688 6.9960938v2.1308593h5.4921874l.5605468-.9667969c.264939-.4583261.75173-.7619611 1.285156-.7910156.109457-.0060149.216154.0111906.322266.0273438v-.4003906z" opacity=".5"/></g><path d="m11.557012 8.3052296c-.219488.011955-.416764.1331568-.526356.3235402l-3.5710153 6.1641652c-.1160245.200869-.1161791.446298 0 .647081.1161764.200781.3304554.323769.5625734.32354h7.1420299c.232119.000309.446399-.122759.562574-.32354.116175-.200783.115981-.446212 0-.647081l-3.571015-6.1641652c-.122249-.2123861-.353947-.3369951-.598791-.3235402zm-.564988 1.5621685h1.202411v3.5347969h-1.202411zm.601205 4.0780549c.167635.000001.310745.03855.427363.115895.116615.07734.173841.347573.173843.458751-.000002.106345-.05723.374162-.173843.456337-.116618.07734-.259728.115895-.427363.115895-.167636 0-.310747-.03855-.427363-.115895-.116616-.08217-.173843-.349992-.173842-.456337-.000001-.111178.05723-.381409.173842-.458751.116616-.07734.259727-.115894.427363-.115895z" fill="#ff7b1d" fill-rule="evenodd"/></svg>