<svg height="16" width="16" xmlns="http://www.w3.org/2000/svg"><g fill="#bebebe" transform="translate(-773 195)"><rect height="5" rx=".5" width="1" x="780.5" y="-195"/><rect height="5" opacity=".578" rx=".5" transform="rotate(-90)" width="1" x="186.5" y="773"/><rect height="5" opacity=".335" rx=".5" transform="scale(-1)" width="1" x="-781.5" y="179"/><rect height="5" opacity=".19" rx=".5" transform="rotate(90)" width="1" x="-187.5" y="-789"/><rect height="5" opacity=".833" rx=".5" transform="matrix(.8660254 -.5 .5 .8660254 0 0)" width="1" x="769.366" y="220.553"/><rect height="5" opacity=".694" rx=".5" transform="matrix(.5 -.8660254 .8660254 .5 0 0)" width="1" x="551.947" y="574.866"/><rect height="5" opacity=".482" rx=".5" transform="matrix(-.5 -.8660254 .8660254 -.5 0 0)" width="1" x="-229.053" y="761.866"/><rect height="5" opacity=".402" rx=".5" transform="matrix(-.8660254 -.5 .5 -.8660254 0 0)" width="1" x="-583.366" y="544.447"/><rect height="5" opacity=".28" rx=".5" transform="matrix(-.8660254 .5 -.5 -.8660254 0 0)" width="1" x="-770.366" y="-236.553"/><rect height="5" opacity=".23" rx=".5" transform="matrix(-.5 .8660254 -.8660254 -.5 0 0)" width="1" x="-552.947" y="-590.866"/><rect height="5" opacity=".16" rx=".5" transform="matrix(.5 .8660254 -.8660254 .5 0 0)" width="1" x="228.053" y="-777.866"/><rect height="5" opacity=".13" rx=".5" transform="matrix(.8660254 .5 -.5 .8660254 0 0)" width="1" x="582.366" y="-560.447"/></g></svg>