<svg height="48" width="48" xmlns="http://www.w3.org/2000/svg"><g fill="#bebebe" transform="translate(0 -1004.3622)"><path d="m23.617188 1008.2372c-.0078.3626-.0024.6691 0 3.3633v4.211c-6.76763.2044-12.195313 5.7335-12.195313 12.5507 0 6.9467 5.631419 12.5781 12.578125 12.5781s12.578125-5.6314 12.578125-12.5781c0-4.2576-2.122312-8.0055-5.359375-10.2813.04316-.01.242306-.2651 2.433594-3.2812 1.114828-1.5345 1.744169-2.428 2.023437-2.8164 5.110966 3.6496 8.449219 9.62 8.449219 16.3789 0 11.1147-9.01027 20.125-20.125 20.125s-20.125-9.0103-20.125-20.125c0-10.9869 8.804105-19.921 19.742188-20.125z"/><path d="m18.84375 1020.3807c-.821522 0-1.162371 1.0456-1.15625 1.3125l-.6875 11c.153165-.6707.61755-1.1571 1.1875-1.1562h11.65625c.521856.0007.967768.4161 1.15625 1l-.59375-10.75c.02502-.3781-.39306-1.3734-1.40625-1.375zm-.0293.6387h10.419922c.2535.024.623245.4221.558218 1.1177l.09608 8.7475h-11.777342l.231774-8.7598c.05302-.7155.227488-.9798.471351-1.1054zm5.127438.7539c-1.991767 0-3.59375 1.4559-3.59375 3.25 0 1.7175 1.371769 2.7406 3.245609 2.8574-.29223-.4479-.318231-1.0292.09375-1.4375.237149-.235.619078-.3733.96875-.375.326211 0 .625213.088.90625.2813.0057 0-.0058.027 0 .031h.0625c.01555.01.01656.022.03125.031l.71875.5625c.663442-.5891 1.160641-1.0458 1.160641-1.9512 0-1.7941-1.601983-3.25-3.59375-3.25zm0 2.0625c.729226 0 1.3125.5306 1.3125 1.1875 0 .6568-.681415.7949-1.410641.7949s-1.214359-.1381-1.214359-.7949c0-.6569.583274-1.1875 1.3125-1.1875zm.651859 2.9824c-.08008.012-.210196.033-.3125.094-.246058.2439-.179445.4014.09375.6875.0268.028.09351.1304.125.1562.418853.7364.70299 1.5022 1.8125 2.0313.06267.095.152068.1698.25.25.450435.3687 1.091159.4057 1.4375.062.324685-.3218.254151-.8503-.125-1.2188l-.0625-.062v-.031c-.01238-.01-.01858-.022-.03125-.031-1.189378-.2104-2.057847-.8193-2.6875-1.75l-.093747-.0632c-.05193-.028-.166028-.1599-.40625-.125zm-4.093747 2.7188c-.391832 0-.71875.272-.71875.625 0 .3529.326918.625.71875.625.391822 0 .71875-.2721.71875-.625 0-.353-.326928-.625-.71875-.625z"/><path d="m18.565942 1032.1604c-.809818 0-1.437671.6929-1.437671 1.5257v1.1149c0 .8328.627853 1.5244 1.437671 1.5257l10.924789.017c.809819 0 1.437672-.6929 1.437672-1.5257v-1.1149c0-.8328-.627853-1.5244-1.437672-1.5257zm.01198 1.6505h2.279597l1.249213 1.3194.0695-1.3174 7.326478.011c.05801.0001.146701.031.146701.2347v1.1149c0 .2039-.08869.2349-.146701.2348l-10.924789-.017c-.05802-.0001-.146701-.031-.146701-.2348v-1.1149c0-.2039.08869-.2348.146701-.2347z"/></g></svg>