<svg height="16" width="16" xmlns="http://www.w3.org/2000/svg"><g fill="#bebebe" transform="matrix(-1 0 0 1 461.00054 274)"><path d="m453.0002-273c-3.31371 0-6 2.68629-6 6h-2l3 4 3-4h-2c0-2.20914 1.79086-4 4-4s4 1.79086 4 4c0 .0668-.0163.12927-.0195.19531.31887-.11945.65949-.19531 1.0195-.19531.34924 0 .67942.0728.99023.18555.002-.0622.01-.12292.01-.18555 0-3.31371-2.68629-6-6-6zm1 9.85742c-.32138.0832-.6526.14258-1 .14258a1 1 0 0 0 -1 1 1 1 0 0 0 1 1 1 1 0 0 0 .0996-.006c.30696-.005.60628-.0404.90039-.0898v-.9043-1.14258zm2 1.14258v.1875c.10355-.0599.20517-.12172.30469-.1875z" opacity=".35"/><path d="m458.00088-266c-1.108 0-2 .91085-2 2.03125v.96875h-1v1 2 1h1 4 1v-1-2-1h-1v-.96875c0-1.1199-.892-2.03125-2-2.03125zm0 1c.554 0 1 .4424 1 1v1h-2v-1c0-.5576.446-1 1-1z"/></g></svg>