<svg height="16" width="16" xmlns="http://www.w3.org/2000/svg"><g fill="#bebebe"><path d="m7.8769531.90429688c-1.8272738 1.57895582-4.0257716 2.50253442-6.3574219 3.16992192.9600755 4.5120099 3.3221027 9.0592242 6.4433594 10.8964842 4.2864814-3.436517 5.7849574-6.9382922 6.5292974-10.892578-2.336172-.6677151-4.538754-1.5921563-6.3691411-3.17382812zm-.2402343 1.17578122c.00915-.0000968.018298.0005553.027344.00195.2512213.033869.4827029-.00195.6933594-.00195.0359.0001276.070813.011765.099609.033203 1.3740843 1.0023127 2.8599258 1.7326589 4.4199218 2.2695313.03922.013773.07193.041612.0918.078125l.375.6835937c.0204.03617.02666.07862.01758.1191407-.704807 2.9162522-2.096229 5.5566912-4.9589892 8.1425782-.031092.02793-.071487.04325-.1132813.04297l-.3896485.146481-.3740234-.142581c-.0401945-.000133-.0790061-.014689-.109375-.04102-2.0328714-1.765875-3.7195682-4.8129124-4.6757812-8.1581938-.0113787-.0404094-.0071974-.0836161.0117187-.1210937l.3398438-.6953125c.019629-.039481.054007-.06965.095703-.083984 1.5388711-.5345842 3.0018928-1.2528809 4.3554688-2.2402344.027177-.020287.059863-.031863.09375-.033203z"/><path d="m8 3.53125c-1.1774877.8016408-2.3837462 1.4829581-3.65625 1.96875.8473689 2.5923284 2.1239816 4.947273 3.53125 6.40625 2.159504-2.0620512 3.28101-4.0718128 3.90625-6.34375-1.317426-.4937333-2.5635139-1.2022078-3.78125-2.03125z"/></g></svg>