<svg height="16" width="16" xmlns="http://www.w3.org/2000/svg"><g fill="#bebebe" transform="translate(0 -6)"><path d="m8.0117188 1.4746094-2.1621094 4.375-4.8320313.7011718 3.4941407 3.4082032-.8261719 4.8105466 4.3203125-2.269531 4.3203126 2.273438-.822266-4.8125005 3.496094-3.40625-4.830078-.703125zm-.0019532 1.8671875 1.4179688 2.8769531a.82740452.82740452 0 0 0 .6210936.453125l3.173828.4628906-2.296875 2.234375a.82740452.82740452 0 0 0 -.240234.7343754l.541015 3.152343-2.8320308-1.490234a.82740452.82740452 0 0 0 -.7714843.001953l-2.8378907 1.492188.5429688-3.16211a.82740452.82740452 0 0 0 -.2382812-.7324216l-2.296875-2.2382813 3.1757812-.4589843a.82740452.82740452 0 0 0 .6210938-.4511719z" transform="translate(0 6)"/><path d="m10.339844 6.8320312-.7324221 2.3574219c-.0622967.1994676-.2185012.3556721-.4179688.4179688l-2.3574219.7324221 2.015625 1.423828c.1710978.120762.271875.317935.2695313.527344l-.03125 2.46875 1.9765625-1.476563c.08396-.06296.18074-.1032.281381-.119302z" fill-opacity=".907843" transform="matrix(1.2833546 .20377352 -.20377352 1.2833546 -3.867199 -1.533978)"/></g></svg>