<svg height="16" width="16" xmlns="http://www.w3.org/2000/svg"><path d="m6.40625 0c-.4547356 0-.8125.39917597-.8125.90625v6.875h-3.96875a.60480376.40721971 0 0 0 -.53125.625l6.40625 7.375a.60480376.40721971 0 0 0 .4375.21875.60480376.40721971 0 0 0 .625-.21875l6.34375-7.4375a.60480376.40721971 0 0 0 -.5625-.59375h-3.9375v-6.84375c0-.50707403-.357764-.90625-.8125-.90625z" fill="#f00"/><path d="m7.59375 2.3247171c-.308826 0-.5625.3099461-.5625.71875v5.375c0 .4088039.253674.75.5625.75h.8125c.308826 0 .5625-.3411961.5625-.75v-5.375c0-.4088039-.253674-.71875-.5625-.71875zm.40625 7.9999999c-.6545597 0-1.1875.53294-1.1875 1.1875s.5329403 1.1875 1.1875 1.1875 1.1875-.53294 1.1875-1.1875-.5329403-1.1875-1.1875-1.1875z" fill="#fff"/></svg>