<svg height="16" width="16" xmlns="http://www.w3.org/2000/svg"><path d="m5.8300781-.03125c-.454724-.003248-.8112938.3991774-.8125.90625l-.0175781 7.125-3.3300781.03125c-.4857162-.011049-.7914354.3486208-.53125.625l6.4238281 7.125c.086019.115528.2483761.196706.4375.21875.2564099.02472.5077331-.06324.625-.21875l6.326172-7.1875c.21302-.2776778-.098727-.6067444-.5625-.59375h-3.388672l.017578-7.09375c.001209-.50707258-.357775-.90300197-.8125-.90625zm2.6113281 2.0566406c.3087952-.0043618.56439.3099505.5625.71875l-.0253906 5.4921875c-.0018919.4087995-.2537049.74564-.5625.75l-.8476562.0117188c-.3087952.0043619-.56439-.3412005-.5625-.75l.0253906-5.4921875c.0018919-.4087995.2537048-.71439.5625-.71875zm-.4414062 7.9746094c.5522847 0 1 .447715 1 1s-.4477153 1-1 1-1-.447715-1-1 .4477153-1 1-1z" fill="#bebebe"/></svg>