<svg height="16" width="16" xmlns="http://www.w3.org/2000/svg"><g fill="#bebebe"><path d="m5 9-3.3300781.03125c-.4857162-.011049-.79143537.3486208-.53125.625l6.4238281 6.125c.086019.115528.2483761.196706.4375.21875.2564099.02472.5077331-.06324.625-.21875l6.326172-6.1875c.21302-.2776778-.098727-.6067444-.5625-.59375h-3.388672zm3 2c.5522847 0 1 .447715 1 1s-.4477153 1-1 1-1-.447715-1-1 .4477153-1 1-1z"/><path d="m8-.02734375c-.1891239.022044-.351481.103222-.4375.21875l-6.4492518 6.18359375c-.26018552.2763792.0455338.636049.53125.625h3.3555018v2c0 .554.446 1 1 1h4c.554 0 1-.446 1-1v-2h3.388672c.46377.012994.77552-.3160722.5625-.59375l-6.326172-6.21484375c-.1172669-.15551-.3685901-.24347-.625-.21875zm.4414062 2.05273435c.3087953-.00436.56439.3099505.5625.71875l-.00586 1.2460938c.0000359.0034601.0019538.0062971.0019538.0097656 0 .00347-.00192.00631-.00195.00977l-.0019562.49023h.0039062v1.5 2c0 .554-.446 1-1 1s-1-.446-1-1v-2-1.5h.023437l.00195-.3769531c-.0054463-.0422727-.025387-.0792908-.025387-.1230469 0-.0457568.0194394-.0847802.0253906-.1289062l.0058594-1.1152344c.00189-.4087995.2537048-.71439.5625-.71875z"/></g></svg>