<svg height="16" width="16" xmlns="http://www.w3.org/2000/svg"><g fill="#bebebe" transform="translate(0 -6)"><path d="m8.0117188 1.4746094-2.1621094 4.375-4.8320313.7011718 3.4941407 3.4082032-.8261719 4.8105466 4.3203125-2.269531.1230468.064453a4.3725681 4.3725681 0 0 1 -.0019531-.064453 4.3725681 4.3725681 0 0 1 4.3730469-4.3730469 4.3725681 4.3725681 0 0 1 .806641.078125l1.693359-1.6503906-4.830078-.703125z" transform="translate(0 6)"/><path d="m12.5 15c-1.933 0-3.5 1.567-3.5 3.5s1.567 3.5 3.5 3.5 3.5-1.567 3.5-3.5-1.567-3.5-3.5-3.5zm-.5 1h1v2h2v1h-2v2h-1v-2h-2v-1h2z" fill-rule="evenodd"/></g></svg>