<svg height="16" width="16" xmlns="http://www.w3.org/2000/svg"><path d="m8 .43164062c-4.1800625.00051976-7.56783962 3.38829688-7.56835938 7.56835938.00051971 4.180063 3.38829688 7.567839 7.56835938 7.568359 4.180063-.00052 7.567839-3.388296 7.568359-7.568359-.00052-4.1800625-3.388296-7.56783968-7.568359-7.56835938zm0 1.91015628a5.262938 5.262938 0 0 1 5.148438 4.1855469h.101562v.5.3339843a5.262938 5.262938 0 0 1 .013672.2421875 5.262938 5.262938 0 0 1 -.013672.3730469v3.6582035.144531h-.035156c-.076098.204897-.29753.353515-.574219.353515h-9.28125c-.2766902 0-.4981208-.148618-.5742188-.353515h-.0351562v-.144531-3.7871098a5.262938 5.262938 0 0 1 -.0136719-.2441406 5.262938 5.262938 0 0 1 .0136719-.3710937v-.2050781-.5h.1035156a5.262938 5.262938 0 0 1 5.1464844-4.1855469zm0 1.4257812a3.8355291 3.8355291 0 0 0 -3.6796875 2.7597657h7.3593755a3.8355291 3.8355291 0 0 0 -3.679688-2.7597657z" fill="#bebebe"/></svg>