<svg height="16" width="16" xmlns="http://www.w3.org/2000/svg"><g fill="#bebebe" transform="translate(-161.03 -397)"><g transform="translate(161.03 397)"><path d="m10.970703 5-6.9374999.03125v.96875h6.9414059zm-6.9374999 2v1h6.9511719l-.005859-1zm0 2v1h5.9667969.992188l-.003907-1zm0 2v1h5.9667969v-1z"/><path d="m7.5 0a1.5 1 0 0 0 -1.5 1h-.5c-.277 0-.5.2230277-.5.5v1c0 .2769723.223.5.5.5h4c.277 0 .5-.2230277.5-.5v-1c0-.2769723-.223-.5-.5-.5h-.5a1.5 1 0 0 0 -1.5-1z"/><path d="m2.4707031 1s-1.49999998 0-1.49999998 1.5v4.5 7.46875c0 1.5312 1.49999998 1.53125 1.49999998 1.53125h3.5292969.9707031 1 .0292969 2v-1h-2-.029297-1-.970703-3v-13h.9707031v-1zm8.4999999 0v1h1.029297v8h1.970703v-3-4.5c0-1.5-1.5-1.5-1.5-1.5z"/></g><path d="m172 408h1.375l1.125 1.0938 1.0938-1.0938h1.4062v1.4688l-1.0938 1.0625 1.0938 1.0625v1.4062h-1.4375l-1.0625-1.0625-1.0625 1.0625h-1.4375v-1.4062l1.0625-1.0625-1.0625-1.0625z"/></g></svg>