<svg height="16" width="16" xmlns="http://www.w3.org/2000/svg"><g transform="translate(-161.03 -397)"><path d="m10.970703 5-6.9374999.03125v.96875h6.9374999zm-6.9374999 2v1h3.1875c.2497118-.5000995.7488486-1 1.75-1zm0 2v1h2.9375v-1zm0 2v1h2.9375v-1z" fill="#bebebe" transform="translate(161.03 397)"/><path d="m7.5 0a1.5 1 0 0 0 -1.5 1h-.5c-.277 0-.5.2230277-.5.5v1c0 .2769723.223.5.5.5h4c.277 0 .5-.2230277.5-.5v-1c0-.2769723-.223-.5-.5-.5h-.5a1.5 1 0 0 0 -1.5-1z" fill="#bebebe" transform="translate(161.03 397)"/><path d="m170 405c-1 0-1 1-1 1v6s0 1 1 1h6c1 0 1-1 1-1v-6c0-1-1-1-1-1zm2 1 2.0312.00005v4l-2.0312-.00005zm0 5 2.0312.00005-.0312.99995h-2z" fill="#f57900"/><path d="m163.5007 398s-1.5 0-1.5 1.5v11.96875c0 1.5312 1.5 1.53125 1.5 1.53125h4.5v-1h-3.9707v-13h.9707v-1zm8.5 0v1l1.0293-.0156v5.0156h1.9707v-4.5c0-1.5-1.5-1.5-1.5-1.5z" fill="#bebebe"/></g></svg>