<svg height="16" width="16" xmlns="http://www.w3.org/2000/svg"><g fill="#bebebe" stroke-linecap="square" stroke-opacity=".566502"><path d="m2 1c-.5539988 0-1 .4460012-1 1v13c0 .553998.4460012 1 1 1h7.4414062l-.609375-.609375a1.1379662 1.1379662 0 0 1 -.2460937-.390625h-6.5859375v-13h11v7.6132812l.78125-.78125a1.1379662 1.1379662 0 0 1 .21875-.1679687v-6.6640625c0-.5539988-.446002-1-1-1zm10.818359 14.841797-.158203.158203h.316406z"/><path d="m3 0v3h1v-3zm2 0v3h1v-3zm2 0v3h1v-3zm2 0v3h1v-3zm2 0v3h1v-3z"/><path d="m9.6360385 11.050252 1.7677665 1.767767-1.7677665 1.767767 1.4142135 1.414214 1.767767-1.767767 1.767767 1.767767 1.414214-1.414214-1.767767-1.767767 1.767767-1.767767-1.414214-1.4142137-1.767767 1.7677667-1.767767-1.7677667z"/><path d="m3.5 5c-.2769991 0-.5.2230009-.5.5v2c0 .2769991.2230009.5.5.5h2c.2769991 0 .5-.2230009.5-.5v-2c0-.2769991-.2230009-.5-.5-.5zm.5 1h1v1h-1zm3 0v1h5v-1zm-3.5 3c-.2769991 0-.5.2230009-.5.5v2c0 .277.2230009.5.5.5h2c.2769991 0 .5-.223.5-.5v-2c0-.2769991-.2230009-.5-.5-.5zm.5 1h1v1h-1zm3 0v1h1.5039062a1.1379662 1.1379662 0 0 1 .328125-.753906l.2460938-.246094z"/></g></svg>