<svg height="16" viewBox="0 0 16 16" width="16" xmlns="http://www.w3.org/2000/svg"><g fill="#bebebe" transform="translate(-261.0002 -237)"><circle cx="265.50021" cy="245.5" r="1.5"/><circle cx="269.50021" cy="245.5" r="1.5"/><circle cx="273.50021" cy="245.5" r="1.5"/><path d="m270.0002 237.99219c-1.01299 0-2.00781.83734-2.00781 2.00781v3h1v-3c0-.55469.59972-1.00781 1.00781-1.00781.40309 0 1.00781.46762 1.00781 1.00781v3h1v-3c0-1.16367-.98982-2.00781-2.00781-2.00781zm5.50391 1.92677s-.3572-.0148-.73047.16797c-.37327.18274-.78125.65833-.78125 1.33203v1.58104h1v-1.58104c0-.34718.094-.37155.2207-.43359.12673-.062.26953-.0664.26953-.0664zm-11.51172 1.64159v1.43945h1v-1.43945zm0 6.43945v2.46049c0 1.50573 1.27277 2.54909 2.51953 2.5.59161-.0233 1.19162-.2579 1.66601-.68164.4744-.42374.81446-1.06045.81446-1.81836v-2.46049h-1v2.46049c0 .46906-.18906.81393-.48047 1.07422s-.69391.41218-1.03906.42578c-.63741.0251-1.48047-.57443-1.48047-1.5v-2.46049zm7.01562 0v2c0 .63648.26648 1.16874.6543 1.50391.38782.33516.87254.48828 1.33789.48828.98563 0 1.99219-.80165 1.99219-1.99219v-2h-1v2c0 .60442-.57048.99219-.99219.99219-.23832 0-.50097-.0863-.68359-.24414-.18262-.15783-.3086-.37109-.3086-.74805v-2zm-8.00781-11v2h-1v1c0 1.108.892 2 2 2h1c1.108 0 2-.892 2-2v-1h-1v-2h-1v2h-1v-2z" opacity=".5"/></g></svg>