<svg height="16" width="16" xmlns="http://www.w3.org/2000/svg"><g fill="#bebebe"><path d="m.65625 1.25-.46875 11.65625c3.3036749 1.531367 6.6544135 2.139953 10.0625 1.6875v-.90625c-.5928316.084928-1.1928694.13973-1.78125.15625v-3.21875h1.78125v-.15625c0-.160992.120258-.28125.28125-.28125h5.15625l-.34375-8.90625zm13.6875.78125.3125 7.6875h-13.3125l.3125-7.65625zm-13.1875 8.59375h6.375v3.1875c-2.1505261-.074338-4.3004819-.576881-6.4375-1.5z"/><path d="m14.358565 2.0410939-12.7171296.034371-.3093356 7.630278h13.3358012l-.309336-7.6646486z" opacity=".35"/><path d="m11 11h1.375l1.125 1.09375 1.09375-1.09375h1.40625v1.46875l-1.09375 1.0625 1.09375 1.0625v1.40625h-1.4375l-1.0625-1.0625-1.0625 1.0625h-1.4375v-1.40625l1.0625-1.0625-1.0625-1.0625z"/></g></svg>