<svg height="16" width="16" xmlns="http://www.w3.org/2000/svg"><g fill="#bebebe"><g transform="matrix(.27496497 0 0 .27496497 26.628877 7.196687)"><path d="m1 1-.8125 12.072266c3.22271 1.493837 6.4906413 2.120459 9.8125 1.730468v-.886718c-.3277273.033851-.6502067.074163-1 .083984v-3h1c0-.554.669-1 1.5-1h-10.1679688l.4550782-8h12.3105466l.570313 8h.832031c.04169 0 .07638.01342.117188.01563l-.617188-9.01563zm.1757812 10h5.8242188v2.992188c-2.1505261-.074339-3.7575131-.590554-5.8945312-1.513672z" stroke-width=".274965" transform="matrix(3.6368269 0 0 3.6368269 -96.844616 -26.173105)"/><path d="m-45.573881-18.899451h-44.771327l-1.654792 29.094615h48.5z" opacity=".35"/></g><path d="m11 11h1.375l1.125 1.09375 1.09375-1.09375h1.40625v1.46875l-1.09375 1.0625 1.09375 1.0625v1.40625h-1.4375l-1.0625-1.0625-1.0625 1.0625h-1.4375v-1.40625l1.0625-1.0625-1.0625-1.0625z"/></g></svg>