<svg height="16" width="16" xmlns="http://www.w3.org/2000/svg"><g fill="#bebebe"><path d="m8 .875c-2.3584491 0-4.416283 1.3044224-5.5 3.21875h9.53125c.564722 0 1.03125.3894926 1.03125.875v4.28125c0 .4855074-.466528.875-1.03125.875h-9.625c1.0577467 2.002869 3.1695674 3.375 5.59375 3.375.6660129 0 1.3034737-.05891 1.90625-.25l3.375 2.125-1.3125-3.3125c1.410331-1.158392 2.34375-2.9074836 2.34375-4.875 0-3.4883525-2.824148-6.3125-6.3125-6.3125z" opacity=".35"/><path d="m4.3628332 7.086607a1.5 1.5 0 0 1 -3 0 1.5 1.5 0 1 1 3 0z"/><path d="m8.3628332 7.086607a1.5 1.5 0 0 1 -3 0 1.5 1.5 0 1 1 3 0z"/><path d="m12.362833 7.086607a1.5 1.5 0 0 1 -2.9999998 0 1.5 1.5 0 1 1 2.9999998 0z"/></g></svg>