<svg height="16" width="16" xmlns="http://www.w3.org/2000/svg"><path d="m8 .875c-3.4883525 0-6.3125 2.8241475-6.3125 6.3125 0 3.488352 2.8241475 6.3125 6.3125 6.3125.6660129 0 1.3034737-.05891 1.90625-.25l3.375 2.125-1.3125-3.3125c1.410331-1.158392 2.34375-2.9074836 2.34375-4.875 0-3.4883525-2.824148-6.3125-6.3125-6.3125zm0 1.4375c2.710227 0 4.875 2.1647723 4.875 4.875 0 1.511542-.711111 2.845361-1.8125 3.75a1.4418393 1.4418393 0 0 0 -.53125 1 1.4418393 1.4418393 0 0 0 -1.0625-.0625c-.4050292.128401-.8877507.1875-1.46875.1875-2.7102277 0-4.875-2.1647728-4.875-4.875 0-2.7102279 2.1647721-4.875 4.875-4.875z" fill="#bebebe"/></svg>