<svg height="16" width="16" xmlns="http://www.w3.org/2000/svg"><path d="m8 .875c-3.4883525 0-6.3125 2.8241475-6.3125 6.3125 0 3.488352 2.8241475 6.3125 6.3125 6.3125.6660129 0 1.3034737-.05891 1.90625-.25l3.375 2.125-1.3125-3.3125c1.410331-1.158392 2.34375-2.9074836 2.34375-4.875 0-3.4883525-2.824148-6.3125-6.3125-6.3125zm.4375 2.5625c.2313466.0066.4989269.1040339.71875.28125l2.46875 2c.219823.1772161.35071.400321.40625.625.184248.1400619.3125.3478546.3125.5625v.5625c0 .2070473-.139647.392521-.3125.53125-.0063.00509.0065.02629 0 .03125-.0011.00384-.03005-.00383-.03125 0-.06437.2116693-.196332.428934-.40625.59375l-2.5 1.96875c-.4441741.348741-1.0161437.368903-1.28125.03125l-.34375-.46875c-.2651063-.3376525-.1316741-.8700088.3125-1.21875l.875-.6875h-4.03125c-.5647221 0-1.03125-.3519592-1.03125-.78125v-.5625c0-.4292908.4665279-.78125 1.03125-.78125h4.125l-.9375-.75c-.4396463-.3544322-.5819325-.9157894-.3125-1.25l.375-.4375c.1347162-.167105.3311534-.2566.5625-.25z" fill="#bebebe" opacity=".36"/></svg>