<svg height="16" width="16" xmlns="http://www.w3.org/2000/svg"><path d="m8 .875c-3.4883525 0-6.3125 2.8241475-6.3125 6.3125 0 3.488352 2.8241475 6.3125 6.3125 6.3125.6660129 0 1.3034737-.05891 1.90625-.25l3.375 2.125-1.3125-3.3125c1.410331-1.158392 2.34375-2.9074836 2.34375-4.875 0-3.4883525-2.824148-6.3125-6.3125-6.3125zm-3.375 5.125h6.6875c.564722 0 1.03125.3519592 1.03125.78125v.5625c0 .4292908-.466528.78125-1.03125.78125h-6.6875c-.5647221 0-1.03125-.3519592-1.03125-.78125v-.5625c0-.4292908.4665279-.78125 1.03125-.78125z" fill="#bebebe"/></svg>