<svg height="16" width="16" xmlns="http://www.w3.org/2000/svg"><path d="m8 .875c-3.4883525 0-6.3125 2.8241475-6.3125 6.3125 0 3.488352 2.8241475 6.3125 6.3125 6.3125.6660129 0 1.3034737-.05891 1.90625-.25l3.375 2.125-1.3125-3.3125c1.410331-1.158392 2.34375-2.9074836 2.34375-4.875 0-3.4883525-2.824148-6.3125-6.3125-6.3125zm-2.28125 3c.2295667-.0186661.448459.0607525.59375.21875l1.59375 1.71875 1.71875-1.59375c.3159952-.2905819.848442-.2151934 1.21875.1875.370309.4026942.440995.9906681.125 1.28125l-1.75 1.5625 1.59375 1.71875c.290582.315995.183944.9109425-.21875 1.28125-.402694.37031-.928168.378495-1.21875.0625l-1.59375-1.71875-1.71875 1.59375c-.3159951.290582-.8796914.183943-1.25-.21875-.3703075-.4026934-.409745-.959418-.09375-1.25l1.71875-1.5625-1.5625-1.75c-.290582-.315995-.2464438-.8484417.15625-1.21875.2013469-.1851541.4579333-.2938339.6875-.3125z" fill="#bebebe" opacity=".35"/></svg>