<svg height="16.000637" width="16" xmlns="http://www.w3.org/2000/svg"><g fill="#bebebe"><path d="m10.83789 8-2.98633 2.98438c.0502.002.0976.0156.14844.0156 1.65685 0 3-1.34315 3-3zm4.16211 0s-3.13401 5-7 5v1c4.41828 0 8-6 8-6z"/><path d="m8 2c-4.4182624 0-8 6-8 6s1.7330081 2.900322 4.2734375 4.667969l.6542969-.65625c-2.3259694-1.457067-3.9277344-4.011719-3.9277344-4.011719s3.1340256-5 7-5c1.5582173 0 2.997048.8114798 4.160156 1.78125l.621094-.6210938c-1.333676-1.1735202-2.9890925-2.1601562-4.78125-2.1601562zm0 3a3 3 0 0 0 -3 3 3 3 0 0 0 1.4160156 2.525391l4.1210934-4.1210941a3 3 0 0 0 -2.537109-1.4042969zm5.734375.0859375-.601563.6015625c1.155881 1.1839544 1.867188 2.3125 1.867188 2.3125s-3.134026 5-7 5c-.6304018 0-1.2412041-.134882-1.8222656-.357422l-.7226563.722656c.7996889.388852 1.6549029.634766 2.5449219.634766 4.418264 0 8-6 8-6s-.866285-1.4431934-2.265625-2.9140625zm-2.740234 2.7402344-3.1562504 3.1562501a3 3 0 0 0 .1621094.017578 3 3 0 0 0 3-3 3 3 0 0 0 -.005859-.1738281z"/><path d="m14.530274.52929686.939453.94140624-13.5429691 13.5429689-.939453-.941406z"/></g></svg>