<svg height="16" width="16" xmlns="http://www.w3.org/2000/svg" xmlns:xlink="http://www.w3.org/1999/xlink"><filter id="a" color-interpolation-filters="sRGB"><feBlend in2="BackgroundImage" mode="darken"/></filter><path d="m8 .75c-3.4883525 0-6.3125 2.8241475-6.3125 6.3125 0 3.488352 2.8241475 6.3125 6.3125 6.3125.6660129 0 1.3034737-.058914 1.90625-.25l3.375 2.125-1.3125-3.3125c1.410331-1.158392 2.34375-2.9074836 2.34375-4.875 0-3.4883525-2.824148-6.3125-6.3125-6.3125zm-.375 1.75h1.28125c.160992 0 .28125.1202581.28125.28125v3.46875 1.28125c0 .1609919-.120258.28125-.28125.28125h-1.28125-3.46875c-.160992 0-.28125-.1202581-.28125-.28125v-1.28125c0-.1609919.120258-.3125.28125-.3125h3.1875v-3.15625c0-.1609919.120258-.28125.28125-.28125z" fill="#bebebe"/><g filter="url(#a)" transform="translate(-283.06496 212.85029)"/></svg>