<svg height="16.001" width="16" xmlns="http://www.w3.org/2000/svg"><path d="m9 3.0023046a2.5 2.5 0 0 0 -2.1640625 1.2539063 1.5 1.5 0 0 0 -.8359375-.2539063 1.5 1.5 0 0 0 -1.5 1.5 1.5 1.5 0 0 0 .1015625.5429688 2 2 0 0 0 -1.6015625 1.9570312 2 2 0 0 0 2 2.0000004h.7363281l.2714844-2.1269535a1.0010538 1.0010538 0 0 1 .9921875-.8730469h2.5a1.0010538 1.0010538 0 0 1 .970703 1.2421875l-.189453.7539063h.216797a1.0010538 1.0010538 0 0 1 1 .9375 2 2 0 0 0 1.501953-1.9335938 2 2 0 0 0 -1.564453-1.9511719 2.5 2.5 0 0 0 .064453-.5488281 2.5 2.5 0 0 0 -2.5-2.5z" fill="#555761" opacity=".6"/><path d="m9.5 8.0013509h-2.5l-.51137 3.9976241 1.51137.0024-.5 2.997624 3-5.0000241-1.5.0024z" fill="#f9c440"/></svg>