<svg enable-background="new" height="16.08288" width="16.000017" xmlns="http://www.w3.org/2000/svg" xmlns:xlink="http://www.w3.org/1999/xlink"><filter id="a" color-interpolation-filters="sRGB"><feBlend in2="BackgroundImage" mode="darken"/></filter><g transform="translate(-541.00018 273)"><path d="m547.5002-273c-1.92707 0-3.5 1.57293-3.5 3.5 0 .17852.0365.35978.0625.53125-1.72441.21437-3.0625 1.68811-3.0625 3.46875 0 1.92707 1.57293 3.5 3.5 3.5h2.5v-1-1-1c0-.82843.67157-1.5 1.5-1.5s1.5.67157 1.5 1.5v1 1 1h1.6875 2.3125c1.65093 0 3-1.34907 3-3s-1.34907-3-3-3c-.17414 0-.33381.0337-.5.0625-.10013-1.14613-1.0792-2.0625-2.25-2.0625-.0997 0-.18491.0186-.28125.0312-.22776-1.70978-1.6985-3.0312-3.46875-3.0312z" fill="#ddd"/><path d="m548.34395-265.5a.50005.50005 0 0 0 -.34375.5v4.28125a.50219246.50219246 0 0 0 -.0312.0937l-.625.625h-.0312-1.8125-.21875l-.125.15625-1 1a.50005.50005 0 1 0 .6875.6875l.84365-.8437h1.3125v1.5a.50005.50005 0 1 0 1 0v-1.8125l.6875-.6875h2.125l.75.75-1.40625 1.40625a.50005.50005 0 1 0 .6875.6875l1.40625-1.40625 1.40625 1.40625a.50005.50005 0 1 0 .6875-.6875l-3-3-.125-.15625h-.21875-2v-4a.50005.50005 0 0 0 -.59375-.5.50005.50005 0 0 0 -.0625 0z" fill="#f3f048"/><g filter="url(#a)"/></g></svg>