<svg height="16.001" width="16" xmlns="http://www.w3.org/2000/svg"><path d="m3.5 4.0019531c-.277 0-.5.223-.5.5s.223.5.5.5h9c.277 0 .5-.223.5-.5s-.223-.5-.5-.5zm1.5 2c-.277 0-.5.223-.5.5s.223.5.5.5h6c.277 0 .5-.223.5-.5s-.223-.5-.5-.5zm1.5 2c-.277 0-.5.223-.5.5s.223.5.5.5h5c.277 0 .5-.223.5-.5s-.223-.5-.5-.5zm.5 1.9999999c-.277 0-.5.223-.5.5s.223.5.5.5h2.5c.277 0 .5-.223.5-.5s-.223-.5-.5-.5zm0 2c-.277 0-.5.223-.5.5s.223.5.5.5h.5c.277 0 .5-.223.5-.5s-.223-.5-.5-.5z" fill="#bebebe" opacity=".6"/></svg>