<svg height="16" width="16" xmlns="http://www.w3.org/2000/svg"><path d="m9.000001 2.9999988a2.5 2.5 0 0 0 -2.164063 1.253906 1.5 1.5 0 0 0 -.835937-.253906 1.5 1.5 0 0 0 -1.5 1.5 1.5 1.5 0 0 0 .101562.542969 2 2 0 0 0 -1.601562 1.957031 2 2 0 0 0 2 2.0000002h6a2 2 0 0 0 2-2.0000002 2 2 0 0 0 -1.56445-1.951172 2.5 2.5 0 0 0 .0644-.548828 2.5 2.5 0 0 0 -2.5-2.5z" fill="#bebebe" opacity=".6"/><path d="m11.046877 11.011719c.04834.0061.09565.02091.140625.04687.179917.103875.240594.333755.136719.513672l-.625 1.082031c-.103875.179917-.331802.240594-.511719.136719s-.2405938-.331802-.136719-.511719l.625-1.082031c.07791-.134938.226066-.203718.371094-.185547zm-2.9082031 0c.048343.0061.095646.02091.140625.04687.1799168.103875.2405937.333755.1367187.513672l-.625 1.082031c-.103875.179922-.3318019.240599-.5117187.136724s-.2405938-.331802-.1367188-.511719l.625-1.082031c.077906-.134938.2260657-.203718.3710938-.185547zm-3.0917969 0c.048343.0061.095646.02091.140625.04687.179917.103875.240594.333755.136719.513672l-.625 1.082031c-.103875.179922-.331802.240599-.511719.136724s-.240594-.331802-.136719-.511719l.625-1.082031c.077907-.134938.226066-.203718.371094-.185547zm4.0800781.865234c.048343.0061.095646.02286.140625.04883.1799168.103875.2425469.331802.1386719.511719l-.625 1.082031c-.103875.179915-.3337551.242545-.5136719.13867s-.2405937-.333755-.1367187-.513672l.625-1.082031c.077906-.134938.2260656-.203718.3710937-.185547zm-3.0273437 0c.048343.0061.097599.02286.1425781.04883.1799168.103875.2405938.331802.1367187.511719l-.6250002 1.082029c-.103875.179917-.331802.242547-.511718.138672-.179917-.103875-.242547-.333755-.138672-.513672l.625-1.082031c.077906-.134938.226065-.203718.3710934-.185547z" fill="#64baff"/></svg>