<svg enable-background="new" height="16" width="16.000078" xmlns="http://www.w3.org/2000/svg" xmlns:xlink="http://www.w3.org/1999/xlink"><filter id="a" color-interpolation-filters="sRGB"><feBlend in2="BackgroundImage" mode="darken"/></filter><g transform="translate(-481.00012 274)"><g fill="#ddd"><path d="m487.5002-274c-1.92707 0-3.5 1.57293-3.5 3.5 0 .17852.0365.35978.0625.53125-1.72441.21437-3.0625 1.68811-3.0625 3.46875 0 1.92707 1.57293 3.5 3.5 3.5h9.5c1.65093 0 3-1.34907 3-3s-1.34907-3-3-3c-.17414 0-.33381.0337-.5.0625-.10013-1.14613-1.0792-2.0625-2.25-2.0625-.0997 0-.18491.0185-.28125.0312-.22776-1.70983-1.6985-3.0312-3.46875-3.0312z"/><path d="m483.875-262a.50005.50005 0 0 0 -.3125.28125l-1 2a.50005.50005 0 1 0 .875.4375l1-2a.50005.50005 0 0 0 -.5625-.71875z"/><path d="m486.375-262a.50005.50005 0 0 0 -.3125.28125l-1 2a.50005.50005 0 1 0 .875.4375l1-2a.50005.50005 0 0 0 -.5625-.71875z"/><path d="m488.875-262a.50005.50005 0 0 0 -.3125.28125l-1 2a.50005.50005 0 1 0 .875.4375l1-2a.50005.50005 0 0 0 -.5625-.71875z"/><path d="m491.375-262a.50005.50005 0 0 0 -.3125.28125l-1 2a.50005.50005 0 1 0 .875.4375l1-2a.50005.50005 0 0 0 -.5625-.71875z"/><path d="m493.875-262a.50005.50005 0 0 0 -.3125.28125l-1 2a.50005.50005 0 1 0 .875.4375l1-2a.50005.50005 0 0 0 -.5625-.71875z"/></g><g filter="url(#a)"/></g></svg>