<svg enable-background="new" height="16" width="16.000013" xmlns="http://www.w3.org/2000/svg" xmlns:xlink="http://www.w3.org/1999/xlink"><filter id="a" color-interpolation-filters="sRGB"><feBlend in2="BackgroundImage" mode="darken"/></filter><g transform="translate(-399.0002 273)"><g><path d="m406.0002-273-.5 1.03125c.16191-.0133.3348-.0312.5-.0312h.5l-.5-1zm0 2c-2.76142 0-5 2.23858-5 5 0 1.45145.63724 2.74284 1.625 3.65625.37328-.47435.90196-.85142 1.46875-1.125.00006-.007 0-.0242 0-.0312 0-1.92043 1.57957-3.5 3.5-3.5.92961 0 1.71393.42878 2.34375 1.03125.10471-.0117.20297-.0312.3125-.0312.265 0 .5174.0529.75.125.001-.0427 0-.082 0-.125 0-2.76142-2.23858-5-5-5zm-4.9375.0625.34375 1.0625c.21905-.25922.45953-.4997.71875-.71875zm9.875 0-1.15625.375c.27835.2219.54723.45225.78125.71875zm-10.90625 4.4375-1.03125.5 1.03125.5c-.0135-.16237-.0312-.33377-.0312-.5 0-.1652.018-.33809.0312-.5zm11.9375 0c.0148.16931.0312.3264.0312.5 0 .0275.002.0836 0 .15625v.34375l1-.5-1.03125-.5zm-4.375 1.5c-.82915 0-1.5.67085-1.5 1.5 0 .20412-.002.3035 0 .3125l.21875 1.03125-1.03125.1875c-.41122.063-.76665.29996-1 .625.54119.20058 1.10778.34375 1.71875.34375 2.02032 0 3.74257-1.21292 4.53125-2.9375-.0934-.0289-.17848-.0625-.28125-.0625-.0927 0-.17939.0306-.28125.0625l-.71875.21875-.40625-.625c-.27219-.40199-.72319-.65625-1.25-.65625zm-6.15625 2.8125-.375 1.125 1.09375-.375-.21875-.1875c-.18383-.16999-.33772-.37112-.5-.5625z" fill="#f3f048"/><path d="m407.594-266c-1.37479 0-2.5 1.12521-2.5 2.5 0 .18216-.006.35989.0312.53125-1.19744.18341-2.125 1.22219-2.125 2.46875 0 1.37479 1.12521 2.5 2.5 2.5h7c1.37479 0 2.5-1.12521 2.5-2.5s-1.12521-2.5-2.5-2.5c-.0859 0-.16624.0227-.25.0312.00016-.0105 0-.0207 0-.0312 0-1.09865-.90135-2-2-2-.206 0-.40627.035-.59375.0937-.45043-.66524-1.20321-1.0937-2.06245-1.0937z" fill="#ddd"/></g><g filter="url(#a)"/></g></svg>