<svg enable-background="new" height="16" width="16.000013" xmlns="http://www.w3.org/2000/svg" xmlns:xlink="http://www.w3.org/1999/xlink"><filter id="a" color-interpolation-filters="sRGB"><feBlend in2="BackgroundImage" mode="darken"/></filter><g transform="translate(-362.0002 274)"><path d="m370.0002-274-.5 1.03125c.16526-.0117.33177-.0312.5-.0312s.33474.0196.5.0312zm0 2c-3.31371 0-6 2.68629-6 6s2.68629 6 6 6 6-2.68629 6-6-2.68629-6-6-6zm-5.65625.34375.375 1.09375c.21793-.25121.46754-.50082.71875-.71875zm11.3125 0-1.09375.375c.25121.21793.50082.46754.71875.71875zm-12.625 5.15625-1.03125.5 1.03125.5c-.0117-.16526-.0312-.33177-.0312-.5s.0196-.33474.0312-.5zm13.9375 0c.0117.16526.0312.33177.0312.5s-.0196.33474-.0312.5l1.03125-.5zm-12.25 5.0625-.375 1.09375 1.09375-.375c-.25121-.21793-.50082-.46754-.71875-.71875zm10.5625 0c-.21793.25121-.46754.50082-.71875.71875l1.09375.375zm-5.78125 2.40625.5 1.03125.5-1.03125c-.16526.0117-.33177.0312-.5.0312s-.33474-.0196-.5-.0312z" fill="#f3f048"/><g filter="url(#a)"/></g></svg>