<svg enable-background="new" height="16.03125" width="16.000013" xmlns="http://www.w3.org/2000/svg" xmlns:xlink="http://www.w3.org/1999/xlink"><filter id="a" color-interpolation-filters="sRGB"><feBlend in2="BackgroundImage" mode="darken"/></filter><g transform="translate(-501.0002 274.03125)"><g><path d="m507.5002-274.03125c-1.92707 0-3.5 1.57293-3.5 3.5 0 .17852.0365.35978.0625.53125-1.72441.21437-3.0625 1.68811-3.0625 3.46875 0 1.80143 1.37158 3.28186 3.125 3.46875l1.3125-1.3125.34375-.34375.71875-.6875.71875.6875.34375.34375.6875.6875c.18435-.48507.43171-.93171.78125-1.28125l1.40625-1.40625.34375-.34375.71875-.6875.71875.6875.34375.34375 1.40625 1.40625c.46181.46181.82303 1.06283.96875 1.75 1.18583-.40094 2.0625-1.4952 2.0625-2.8125 0-1.65093-1.34907-3-3-3-.17414 0-.33381.0337-.5.0625-.10013-1.14613-1.0792-2.0625-2.25-2.0625-.0997 0-.18491.0186-.28125.0312-.22776-1.70983-1.6985-3.03125-3.46875-3.03125zm4 9.46875-1.03125 1.03125c-.15254.15254-.26267.31843-.34375.5h2.75c-.0811-.18157-.19121-.34746-.34375-.5z" fill="#ddd"/><path d="m511.5002-266-.34375.34375-1.40625 1.40625c-.45315.45315-.75 1.0626-.75 1.75 0 1.37479 1.12521 2.5 2.5 2.5s2.5-1.12521 2.5-2.5c0-.6874-.29685-1.29685-.75-1.75l-1.40625-1.40625zm-5 2-.34375.34375-1.40625 1.40625c-.45315.45315-.75 1.0626-.75 1.75 0 1.37479 1.12521 2.5 2.5 2.5s2.5-1.12521 2.5-2.5c0-.6874-.29685-1.29685-.75-1.75l-1.40625-1.40625z" fill="#5aafd4"/></g><g filter="url(#a)"/></g></svg>