<svg height="16" width="16" xmlns="http://www.w3.org/2000/svg"><path d="m9.000001 2.9999988a2.5 2.5 0 0 0 -2.164063 1.253906 1.5 1.5 0 0 0 -.835937-.253906 1.5 1.5 0 0 0 -1.5 1.5 1.5 1.5 0 0 0 .101562.542969 2 2 0 0 0 -1.601562 1.957031 2 2 0 0 0 2 2.0000002h6a2 2 0 0 0 2-2.0000002 2 2 0 0 0 -1.56445-1.951172 2.5 2.5 0 0 0 .0644-.548828 2.5 2.5 0 0 0 -2.5-2.5z" fill="#bebebe" opacity=".6"/><path d="m5.046875 11.011719c-.1450281-.018171-.2931875.050609-.3710938.185547l-.625 1.082031c-.103875.179917-.043198.407844.1367188.511719s.4078437.043198.5117188-.136719l.625-1.082031c.103875-.179917.043198-.409797-.1367188-.513672-.0449792-.025969-.0922823-.040818-.140625-.046875zm1.5527344 0c-.1450281-.018171-.2931875.050609-.3710938.185547l-1.125 1.947265c-.103875.179917-.0412449.409797.1386719.513672s.4078437.041245.5117187-.138672l1.125-1.947265c.103875-.179917.0431981-.409797-.1367187-.513672-.0449792-.025969-.0942354-.040818-.1425781-.046875zm1.5390625 0c-.1450281-.018171-.2931875.050609-.3710938.185547l-.875 1.515625c-.103875.179916-.043198.407843.1367188.511718s.4078437.043198.5117187-.136718l.875-1.515625c.103875-.179917.0431981-.409797-.1367187-.513672-.0449792-.025969-.0922823-.040818-.140625-.046875zm1.4882812 0c-.1450281-.018171-.2931875.050609-.3710937.185547l-1.125 1.947265c-.103875.179917-.0431981.409797.1367187.513672s.4097969.041245.5136719-.138672l1.125-1.947265c.103875-.179917.0412449-.409797-.1386719-.513672-.0449792-.025969-.0922823-.040818-.140625-.046875zm1.4199219 0c-.145028-.018171-.293188.050609-.371094.185547l-.625 1.082031c-.1038748.179917-.043198.407844.136719.511719s.407844.043198.511719-.136719l.625-1.082031c.103875-.179917.043198-.409797-.136719-.513672-.044979-.025969-.092282-.040818-.140625-.046875z" fill="#64baff"/></svg>