<svg enable-background="new" height="16" width="16" xmlns="http://www.w3.org/2000/svg" xmlns:xlink="http://www.w3.org/1999/xlink"><filter id="a" color-interpolation-filters="sRGB"><feBlend in2="BackgroundImage" mode="darken"/></filter><g transform="translate(-381.00009 274.00003)"><g><path d="m154 201a7 7 0 1 1 -14 0 7 7 0 1 1 14 0z" fill="#8c5f5f" opacity="0" transform="matrix(.93969262 .34202014 -.34202014 .93969262 319.61334 -505.15327)"/><path d="m388.7502-272.96875c-2.76278.10144-5.3087 1.80458-6.3125 4.5625-1.32225 3.63284.5234 7.67775 4.15625 9 2.75791 1.00379 5.74016.14496 7.59375-1.90625-1.32778.4286-2.8061.45165-4.21875-.0625-3.37336-1.2278-5.1028-4.9704-3.875-8.34375.51416-1.41265 1.47444-2.50836 2.65625-3.25z" fill="#ddd"/></g><g filter="url(#a)"/></g></svg>