<svg height="16" width="16" xmlns="http://www.w3.org/2000/svg"><path d="m6 3a2.5 2.5 0 0 0 -2.5 2.5 2.5 2.5 0 0 0 .0644531.5488281 2 2 0 0 0 -1.5644531 1.9511719 2 2 0 0 0 1.2988281 1.8710938c.2736502-.5066181.7095891-.9369067 1.2128907-1.2636719-.0012089-.0340776-.0115089-.067464-.0117188-.1015625a1.0001 1.0001 0 0 1 0-.0058594c0-.9162979.3774702-1.8266889 1.0253906-2.4746094.6479205-.6479204 1.5583115-1.0253906 2.4746094-1.0253906a1.0001 1.0001 0 0 0 .0019531 0c.9416782.0012254 1.7846966.4961221 2.4394529 1.1699219.062858-.015199.121895-.0417094.181641-.0664063a2 2 0 0 0 -.224609-.0605468 1.5 1.5 0 0 0 .101562-.5429688 1.5 1.5 0 0 0 -1.5-1.5 1.5 1.5 0 0 0 -.8359375.2539062 2.5 2.5 0 0 0 -2.1640625-1.2539062zm2 3a2.5 2.5 0 0 0 -2.5 2.5 2.5 2.5 0 0 0 .0644531.5488281 2 2 0 0 0 -1.5644531 1.9511719 2 2 0 0 0 2 2h6a2 2 0 0 0 2-2 2 2 0 0 0 -1.601562-1.9570312 1.5 1.5 0 0 0 .101562-.5429688 1.5 1.5 0 0 0 -1.5-1.5 1.5 1.5 0 0 0 -.835938.2539062 2.5 2.5 0 0 0 -2.164062-1.2539062z" fill="#bebebe" opacity=".6"/><path d="m53 4a2.5 2.5 0 0 0 -2.164063 1.253906 1.5 1.5 0 0 0 -.835937-.253906 1.5 1.5 0 0 0 -1.5 1.5 1.5 1.5 0 0 0 .101562.542969 2 2 0 0 0 -1.601562 1.957031 2 2 0 0 0 2 2h6a2 2 0 0 0 2-2 2 2 0 0 0 -1.564453-1.951172 2.5 2.5 0 0 0 .064453-.548828 2.5 2.5 0 0 0 -2.5-2.5z" fill="#fafafa" opacity=".6"/><path d="m11.488281 3 .183594.8164062.828125.1953126-.830078.1679687-.160156.8203125-.189453-.8300781-.820313-.1816407.816406-.1621093zm2.496094 1.5.277344 1.2246094 1.238281.2910156-1.244141.2539062-.240234 1.2304688-.285156-1.2441406-1.230469-.2714844 1.224609-.2460938z" fill="#bebebe"/></svg>