<svg enable-background="new" height="16.000488" width="16.000017" xmlns="http://www.w3.org/2000/svg" xmlns:xlink="http://www.w3.org/1999/xlink"><filter id="a" color-interpolation-filters="sRGB"><feBlend in2="BackgroundImage" mode="darken"/></filter><g transform="translate(-522.00018 274)"><g fill="#ddd"><path d="m528.5002-274c-1.92707 0-3.5 1.57293-3.5 3.5 0 .17852.0365.35978.0625.53125-1.72441.21437-3.0625 1.68811-3.0625 3.46875 0 1.92707 1.57293 3.5 3.5 3.5h.5c0-1.10457.89543-2 2-2s2 .89543 2 2h1.28125c-.17076-.29454-.28125-.63503-.28125-1 0-1.10457.89543-2 2-2s2 .89543 2 2c0 .36497-.11049.70546-.28125 1h.28125c1.65093 0 3-1.34907 3-3s-1.34907-3-3-3c-.17414 0-.33381.0337-.5.0625-.10013-1.14613-1.0792-2.0625-2.25-2.0625-.0997 0-.18491.0186-.28125.0312-.22776-1.70978-1.6985-3.0312-3.46875-3.0312z"/><path d="m6 14a1 1 0 1 1 -2 0 1 1 0 1 1 2 0z" opacity=".35" transform="matrix(1.371967 0 0 1.371967 519.14036 -279.20753)"/><path d="m6 14a1 1 0 1 1 -2 0 1 1 0 1 1 2 0z" opacity=".35" transform="matrix(1.371967 0 0 1.371967 524.14036 -280.20753)"/><path d="m6 14a1 1 0 1 1 -2 0 1 1 0 1 1 2 0z" opacity=".35" transform="matrix(1.371967 0 0 1.371967 521.14036 -282.20753)"/><path d="m6 14a1 1 0 1 1 -2 0 1 1 0 1 1 2 0z" transform="translate(523.0002 -276.99998)"/><path d="m6 14a1 1 0 1 1 -2 0 1 1 0 1 1 2 0z" transform="translate(521.0002 -274)"/><path d="m6 14a1 1 0 1 1 -2 0 1 1 0 1 1 2 0z" transform="translate(526.0002 -275)"/><path d="m6 14a1 1 0 1 1 -2 0 1 1 0 1 1 2 0z" opacity=".35" transform="matrix(1.371967 0 0 1.371967 526.14036 -283.20753)"/><path d="m6 14a1 1 0 1 1 -2 0 1 1 0 1 1 2 0z" transform="translate(528.0002 -278)"/></g><g filter="url(#a)"/></g></svg>