<svg height="16.001" width="16" xmlns="http://www.w3.org/2000/svg"><path d="m12.265518 10.771987c.13388-.240682.048-.544294-.19221-.679086l-.68675-.396502.2003-.05294c.13111-.03378.24292-.119121.3099-.236772.22083-.387893-.13871-.84877-.56869-.729016l-1.16608.311725-1.6701296-.96425 1.6682696-.9637897 1.16579.312795c.23423.06688.48258-.04483.58799-.264424.13568-.284526-.0226-.622086-.32806-.699781l-.20417-.05437.69054-.398061c.0882-.04861.15916-.123412.20411-.213568.2234-.447168-.2752-.909199-.7041-.652464l-.68697.397779.0524-.200713c.21277-.665609-.81541-.941708-.9647096-.259062l-.3128 1.165786-1.66914.963286-.00098-1.976237.85406-.853291c.0362-.03497.0669-.07533.091-.119498.28154-.511325-.3919-1.008366-.79754-.588634l-.14762.145733.00056-.792955c.0289-.694772-1.02879-.694201-.99912.000506l-.001.793829-.14571-.147634c-.47196-.471983-1.17976.235964-.7078.707947l.85479.851471-.001 1.978341-1.84333-1.064245-.31309-1.165724c-.16416-.658191-1.15271-.393308-.96578.25878l.0543.199944-.51096-.295005c-.57735-.333333-1.07732.532736-.5.866026l.51096.295004-.2008.05381c-.65819.164158-.39331 1.152708.25878.96578l1.16658-.312582 1.8442 1.0647487-1.84519 1.065543-1.16578-.312795c-.66019-.200395-.9297.811025-.25734.965709l.19971.0541-.51235.2954c-.61651.321646-.0881 1.237968.49912.86552l.51421-.296637-.0551.201438c-.16242.568828.62333.898612.91553.384242.0225-.03884.0396-.0807.0509-.124191l.31294-1.168013 1.84519-1.065552-.001 2.07983-.85407.853282c-.50493.470143.23418 1.211305.70572.707671l.14862-.147464-.00053.590907c-.007.532195.71247.704788.94824.227608.0347-.07096.0522-.149128.0509-.228122l-.00048-.589175.1467.145904c.23899.246397.64951.184173.80479-.121943.0998-.195451.0604-.433124-.097-.586005l-.85378-.853203.00021-2.078098 1.67013.96425.31259 1.166589c.1641496.658191 1.1527096.393308.9657796-.25878l-.0538-.200811.68676.396501c.24241.143419.55531.05922.69221-.18694z" fill="#bebebe" fill-rule="evenodd" opacity=".6"/></svg>