<svg enable-background="new" height="16" width="16.000078" xmlns="http://www.w3.org/2000/svg" xmlns:xlink="http://www.w3.org/1999/xlink"><filter id="a" color-interpolation-filters="sRGB"><feBlend in2="BackgroundImage" mode="darken"/></filter><g transform="translate(-441.00012 274.00003)"><path d="m447.5002-274c-1.933 0-3.5 1.567-3.5 3.5 0 .17907.0366.35942.0625.53125-1.72832.21363-3.0625 1.68263-3.0625 3.46875 0 1.88087 1.48294 3.41861 3.34375 3.5.34513-.72417.92699-1.31215 1.65625-1.65625.0814-1.8608 1.61914-3.34375 3.5-3.34375.95046 0 1.80679.38506 2.4375 1 .0214-.00045.0409 0 .0625 0 1.32203 0 2.41289.87518 2.8125 2.0625.59723.0955 1.13781.33028 1.59375.6875.36854-.48903.59375-1.08755.59375-1.75 0-1.65685-1.34315-3-3-3-.19633 0-.3767.0265-.5625.0625-.20931-1.16916-1.20814-2.0625-2.4375-2.0625-.0106 0-.0207-.00013-.0312 0-.24009-1.699-1.70349-3-3.46875-3z" fill="#ddd"/><path d="m447.625-259.96875-.125.46875-.0937.375c-.0105.0302-.0312.0937-.0312.0937v.0312c.005.001.0278-.00088.0312 0 .003.00068.0312-.00001.0312 0 0 0 .0937-.5.0937-.5-.00005-.00001.12237-.46936.125-.46875-.0105-.003-.0249.002-.0312 0z"/><path d="m449.5002-267c-1.37479 0-2.5 1.12521-2.5 2.5 0 .19324.0205.38155.0625.5625-1.16601.21027-2.0625 1.21341-2.0625 2.4375 0 1.37479 1.12521 2.5 2.5 2.5h6.75c1.37479 0 2.5-1.12521 2.5-2.5s-1.12521-2.5-2.5-2.5c-.0859 0-.16624.0227-.25.0312.00016-.0105 0-.0207 0-.0312 0-1.09865-.90135-2-2-2-.16136 0-.31813.0258-.46875.0625-.45345-.64416-1.18834-1.0625-2.03125-1.0625z" fill="#ddd"/><g filter="url(#a)"/></g></svg>