<svg height="16" width="16" xmlns="http://www.w3.org/2000/svg"><path d="m9 3a2.5 2.5 0 0 0 -2.1640625 1.2539062 1.5 1.5 0 0 0 -.8359375-.2539062 1.5 1.5 0 0 0 -1.5 1.5 1.5 1.5 0 0 0 .1015625.5429688 2 2 0 0 0 -1.6015625 1.9570312 2 2 0 0 0 2 2h6a2 2 0 0 0 2-2 2 2 0 0 0 -1.564453-1.9511719 2.5 2.5 0 0 0 .064453-.5488281 2.5 2.5 0 0 0 -2.5-2.5zm-4.5 8c-.277 0-.5.223-.5.5s.223.5.5.5h7c.277 0 .5-.223.5-.5s-.223-.5-.5-.5zm0 2c-.277 0-.5.223-.5.5s.223.5.5.5h7c.277 0 .5-.223.5-.5s-.223-.5-.5-.5z" fill="#bebebe" opacity=".6"/></svg>