<svg enable-background="new" height="16.000124" width="16.000013" xmlns="http://www.w3.org/2000/svg" xmlns:xlink="http://www.w3.org/1999/xlink"><filter id="a" color-interpolation-filters="sRGB"><feBlend in2="BackgroundImage" mode="darken"/></filter><g transform="translate(-460.0002 274)"><g><path d="m466.5002-274c-1.92707 0-3.5 1.57293-3.5 3.5 0 .17852.0365.35978.0625.53125-1.72441.21437-3.0625 1.68811-3.0625 3.46875 0 1.92707 1.57293 3.5 3.5 3.5h2.71875l-.21875-4.96875-.0312-1.03125h1.03125 2 1.03125l-.0312 1.03125-.21875 4.96875h3.21875c1.65093 0 3-1.34907 3-3s-1.34907-3-3-3c-.17414 0-.33381.0337-.5.0625-.10013-1.14613-1.0792-2.0625-2.25-2.0625-.0997 0-.18491.0186-.28125.0312-.22776-1.70978-1.6985-3.0312-3.46875-3.0312z" fill="#ddd"/><path d="m467.0002-268 .25 6h1.5l.25-6zm0 7v2h2v-2z" fill="#ef2929"/></g><g filter="url(#a)"/></g></svg>