<svg enable-background="new" height="16" width="16" xmlns="http://www.w3.org/2000/svg" xmlns:xlink="http://www.w3.org/1999/xlink"><filter id="a" color-interpolation-filters="sRGB"><feBlend in2="BackgroundImage" mode="darken"/></filter><g transform="translate(-419.0002 273)"><g><path d="m154 201a7 7 0 1 1 -14 0 7 7 0 1 1 14 0z" fill="#8c5f5f" opacity="0" transform="matrix(.93969262 .34202014 -.34202014 .93969262 357.61345 -504.15324)"/><path d="m426.7502-271.96875c-2.76278.10144-5.3087 1.80458-6.3125 4.5625-.96414 2.64895-.24422 5.50316 1.625 7.375.17709-1.17309.90919-2.1662 1.9375-2.65625.0213-.40504.13375-.79919.28125-1.15625-.66459-1.49186-.78917-3.22193-.1875-4.875.51416-1.41265 1.47444-2.50836 2.65625-3.25zm.84375 6.96875c-1.37479 0-2.5 1.12521-2.5 2.5 0 .18216-.006.35989.0312.53125-1.19744.18341-2.125 1.22219-2.125 2.46875 0 1.37479 1.12521 2.5 2.5 2.5h7c1.37479 0 2.5-1.12521 2.5-2.5s-1.12521-2.5-2.5-2.5c-.0859 0-.16624.0228-.25.0312.00016-.0105 0-.0207 0-.0312 0-1.09865-.90135-2-2-2-.206 0-.40627.0351-.59375.0937-.45038-.66519-1.20321-1.0937-2.06245-1.0937z" fill="#ddd"/></g><g filter="url(#a)"/></g></svg>