<svg height="16" width="16" xmlns="http://www.w3.org/2000/svg"><g fill="#bebebe" transform="translate(-892.002 -552)"><path d="m900.002 552c-4.41828 0-8 3.58172-8 8 0 4.418 3.23 7.072 7.012 7.9l.02-.855c-1.113-.113-1.24-.316-2.188-.795.051-.04.125-.094.125-.094l-.063-.125.219-.218.062-.22.344-.093.25-.687-.062-.157.156-.28.406-.095.188-.468-.032-.625.313-.438.031-.437c-.426-.216-.827-.434-1.25-.657l-.219-.437-.375-.094-.218-.562-.5.062-.47-.344-.468.438v.062c-.141-.041-.311-.046-.437-.125l-.094-.312v-.313l-.313.032c.026-.21.068-.447.094-.657h-.187l-.188.25-.187.094-.25-.156-.032-.313.032-.375.406-.28h.312l.063-.188.375.093.281.344.063-.594.5-.406.156-.469.375-.156.219-.281.468-.094.22-.375h-.688l.437-.187h.313l.406-.157.062.407.188-.282-.219-.156.063-.156-.157-.156-.187-.032.062-.187-.156-.281-.312.125.062-.25-.375-.22-.281.532.031.156-.281.125-.188.407-.062-.375-.5-.188-.094-.281.656-.375.282-.281.03-.344-.155-.094h-.063c.228-.158.442-.307.688-.437v.093l-.22.188-.155.375h.312l.094-.25.031-.063c.126-.09.247-.194.375-.28l.313.093c.194.135.368.272.562.406l.313-.281-.344-.125-.125-.313-.563-.062v-.063c.01-.004.022.004.031 0l.188.063.156-.156.281-.063c.071-.035.148-.065.22-.094l-.188.188.656.469v.281l-.25.281.344.688.25-.125.281-.469c.42-.132.823-.286 1.219-.469l-.031.188.187.125.344-.25-.156-.188-.25.125-.032-.031.344-.937-.344-.125c1.22389.0952 2.40012.51574 3.407 1.218l-.282-.062-.343-.125-.5.125-.313.219v.187l-.531.344.125.5.281-.219.188.219.218.125.125-.375-.062-.219.062-.156.313-.281h.125l-.125.312v.281c.123-.034.249-.046.375-.062l-.344.25-.031.156-.406.344-.407-.094v-.25l-.187.125.094.219h-.313l-.156.281c-.78788.49062-.43211 1.2683.562.75l.219.25.25.125-.156.281.219-.062.125-.281-.282-.313h.125l.25.219.063.312.219.282.062-.407.125-.062c.132.14.232.31.344.469l.437.03.219.157-.094.156-.25.22h-.343l-.47-.157-.218.031-.187.188-.5-.5-.336-.092c-1.40359.3666-2.09759.85316-1.78322 1.25761.16856.21687-.28408 1.20525.24907 1.06945.47892-.122 1.10637-.11284 1.76737-.0183.26299.0376.0519 2.38981.31826 2.45155.39517.0916.45915 2.34156.9336 1.93563.54165-.46342 1.4874-3.58854 1.79392-3.41892 0 0 .168-.136.525-.31v-.22c-.16.021-.311.052-.468.063l.312-.343.438-.313.25-.281v-.281c-.054-.104-.103-.241-.157-.344l-.218.281-.157-.219-.25-.187v-.375l.282.312.312-.03c.14.129.283.226.406.374l.094-.125c.05.338.094.68.094 1.031-.113 1.124.036 1.155-.479 2.096l.672.79c.698-1.143.794-1.37.807-2.886 0-4.41828-3.58172-8-8-8zm2.258 5.69c-.002-.002-.005-.002-.008-.003zm-5.508-3.471.281.218h.25v-.25l-.281-.125zm-.938.187-.062.157s-.103.014-.188.03c.081-.066.167-.124.25-.187zm8.438.031c.065.05.124.105.187.157l-.25.28-.343-.374h.343zm-3.031.407v.187l.125.156v.282l-.063.406.313-.063.25-.218-.22-.22c-.0639-.18013-.13669-.35701-.218-.53zm-.282.406-.187.062.031.375.281-.156zm3.657 3.344.28.343.376.782.219.25-.125.28.218.25c-.09.007-.187 0-.28 0-.171-.364-.309-.742-.438-1.124l-.22-.25-.124-.469zm-11.563.906c.042.1.219.406.219.406l.531.313.563.156.218.313.375.28.188-.062.156.094v.031l-.187.594-.157.219.032.125-.125.468.468.844.47.438.218.28-.031.657.156.344-.156.687s.002.024 0 .032c-1.85978-1.31154-2.96716-3.44427-2.97-5.72 0-.167.02-.334.032-.5z"/><path d="m8 0a8 8 0 0 0 -8 8 8 8 0 0 0 8 8 8 8 0 0 0 8-8 8 8 0 0 0 -8-8zm0 1a7 7 0 0 1 7 7 7 7 0 0 1 -7 7 7 7 0 0 1 -7-7 7 7 0 0 1 7-7z" transform="translate(892.002 552)"/></g></svg>