<svg height="16" width="16" xmlns="http://www.w3.org/2000/svg"><g fill="#bebebe" transform="translate(0 -48)"><path d="m9.2578125-.00195313c-.3599349.03858001-.9810579.03228688-1.5078125.02929688-.2633774-.0015-.4884756-.0063-.7089844 0-.2205089.0063-.3188658-.04886738-.7382812.11914063-.6122743.236733-.809005 1.00687052-.3847656 1.50781252-.030658-.08317.0466997.3165441.0585937.7675781.01235.468282-.0234131 1.1020575-.0332031 1.6640625-.017459 1.002583-.0503848 1.7600939-.0585938 1.9511719l-2.5429687 5.7929686c-.2019264.45958-.1633736.732518-.1464844 1.064453.01689.331936.0247534.621553.2363281 1.033203.2670156.519519.6440911.957664 1.1523438 1.300782.5946705.401458 1.2255635.583513 1.671875.669922.7073788.136951 1.5043281.132452 2.1582031.08789.7134846-.04863 1.7638405-.136776 2.7011715-.609375.527167-.265795 1.041426-.628769 1.390625-1.300781.262398-.504972.475005-1.012221.146485-1.802734l-2.541016-6.1191411c-.001-.02819.000688-.0493907 0-.0878907-.0027-.154003.0058-.3619218 0-.5917968-.01151-.459752-.019487-1.041091-.029297-1.625-.0098-.583908-.005793-1.2239785.003907-1.6640625.004799-.220043.019026-.416306.029296-.53125.04392-.09564.042614-.209404.058594-.265625.0094-.01746.023757-.01941.029297-.03125.0041-.01318-.0034-.0180269 0-.0292969.01363-.03109.025817-.0487437.029297-.0585938.23135-.65191295-.2850395-1.32632333-.9746095-1.27148433zm.0839844 1.08203123c.009742-.000986.02158.001.03125 0l-.0292969.0019531s-.0019531-.0019531-.0019531-.0019531zm-.2128907.0058594c-.00066.002-.0013087.0038594-.0019531.0058594-.05314.186961-.0426256.1987606-.0410156.2128906-.028147.081521-.0465075.1661031-.0546875.2519531-.012114.135581-.0276931.3526528-.0332031.6054688-.01007.456729-.0140133 1.1028511-.0039063 1.7050781.009773.581685.0175269 1.1646446.0292969 1.6347656.00471.186531-.0037.3727884 0 .5839844-.0000077-.000433-.00322.0165519 0 .1074219.004448.130194.0322333.2585302.0820313.3789062l2.5410152 6.1191404c.201351.484506.130339.429013-.105468.882813-.221551.426361-.490447.615508-.916016.830078-.694063.349944-1.5883902.448604-2.2851562.496094-.5989844.040824-1.3236973.036799-1.8769532-.070313-.3541496-.068566-.8442522-.216803-1.2695312-.503906-.3590461-.24239-.6026547-.526201-.7929688-.896484-.1217206-.236819-.1014886-.242943-.1191406-.589844-.019621-.38564-.0609316-.304674.0566406-.572266l2.5429688-5.7929686c.054544-.123394.0856669-.255853.0917968-.390625.008147-.189631.0408858-.9616577.0585938-1.9785156.009234-.5301041.0476951-1.1633857.0332031-1.7128907-.0183189-.2273364-.0317765-.5254834-.0664062-.7871093.0005918.01306.0006676.0309131 0 .0644531l-.2910157-.5136719c.2885535-.11559-.0458075-.0292756.3652344-.0410156.1836-.0052.3988068-.0016.671875 0 .4445603.00252.9343624.0004731 1.3847656-.0292969z" transform="translate(0 48)"/><path d="m7.9493039 57.19854c-1.2054006 0-2.1829551.149113-2.1829551.335333 0 .0059.00141.01069.00329.01644-.00523-.006-.012263-.01046-.016439-.01644l-1.1638043 2.656367c-.1086261.248037-.051454.896671.072327 1.137504.1544312.300469.4531302.662458.7331308.851484.3112544.210127.8181208.329703 1.1868176.401085.5104109.09882 1.2072964.133976 1.7259812.09863.6358704-.04334 1.521803-.117434 2.0909039-.404373.319066-.160873.709735-.488383.874497-.805458.12567-.241847.220114-.647957.118353-.900799l-1.252569-3.103477-.04602.0065c.01188.01581.04235.03093.03617.04602-.005-.01551-.01793-.03113-.03617-.04602-.1909887-.156111-1.0774791-.27287-2.1435052-.27287zm-2.0120009.466836c.3313324.121018 1.1079505.207117 2.0120009.207117.8878507 0 1.6513411-.08298 1.9922763-.200542-.3013343.14568-.9559435.266294-1.9988514.266294-1.0142202 0-1.6888538-.123637-2.0054258-.272869z" opacity=".35"/></g></svg>