<svg height="16" width="16" xmlns="http://www.w3.org/2000/svg"><g fill="#bebebe" transform="translate(0 -48)"><path d="m9.2240844 48.066352c-.3599349.03858-.980663.03255-1.5074176.02956-.2633774-.0015-.4888642-.0063-.709373 0-.2205089.0063-.3195149-.04978-.7389303.118228a.9546795.9546795 0 0 0 -.3842437 1.507416c-.030658-.08317.04722.317454.059114.768488.01235.468282.00979 1.034084 0 1.596089-.017459 1.002583-.050905 1.759698-.059114 1.950776l-2.54192 5.793213c-.2019264.45958-.1646752.732124-.147786 1.064059.01689.331936.024883.622852.2364577 1.034502.2670156.519519.6444784.9574 1.1527311 1.300518.5946705.401458 1.2088922.504735 1.6552037.591144.7073788.136952 1.5038013.133232 2.1576763.08867.7134846-.04863 1.7819324-.05943 2.7192634-.532029.527167-.265795 1.03999-.628506 1.389189-1.300518.262398-.504972.476306-1.012475.147786-1.802989l-2.54192-6.118343c-.001-.02819.000688-.05017 0-.08867-.0027-.154003.0058-.361269 0-.591144-.01151-.459752-.01975-1.041738-.02956-1.625647-.0098-.583908-.03925-1.156005-.02956-1.596089.0048-.220043.01929-.417086.02956-.53203.04392-.09564.04313-.209794.05911-.266015.0094-.01746.02402-.01772.02956-.02956.0041-.01318-.0034-.01829 0-.02956.01363-.03109.02608-.04926.02956-.05911a.9546795.9546795 0 0 0 -.9753886-1.27096zm-2.6010344 1.034503c.010418.0017.020107 0 .029557 0 1.1267366.158962 1.9014194.09257 2.6305916 0-.021598.07227-.04553.164347-.088672.236457-.1956926.327094-.00758 4.738959-.029557 5.024726l2.6010344 6.266128c.116052.279256.02121.736603-.118229 1.004945-.182813.351812-.621366.70822-.975388.886717-.631451.318376-1.629484.395272-2.3350192.443358-.5755107.03922-1.3548881.02097-1.9212186-.08867-.4090903-.079205-.9551621-.210213-1.3005168-.44336-.3106768-.209735-.6562514-.612443-.8276019-.945831-.1373421-.26722-.1799711-.995892-.0591144-1.27096l2.6010344-5.911442s.1883849-4.213911-.029557-4.906496c-.045619-.144972-.1308481-.239853-.1773433-.295572z"/><path d="m7.9493039 57.19854c-1.2054006 0-2.1829551.149113-2.1829551.335333 0 .0059.00141.01069.00329.01644-.00523-.006-.012263-.01046-.016439-.01644l-1.1638043 2.656367c-.1086261.248037-.051454.896671.072327 1.137504.1544312.300469.4531302.662458.7331308.851484.3112544.210127.8181208.329703 1.1868176.401085.5104109.09882 1.2072964.133976 1.7259812.09863.6358704-.04334 1.521803-.117434 2.0909039-.404373.319066-.160873.709735-.488383.874497-.805458.12567-.241847.220114-.647957.118353-.900799l-1.252569-3.103477-.04602.0065c.01188.01581.04235.03093.03617.04602-.005-.01551-.01793-.03113-.03617-.04602-.1909887-.156111-1.0774791-.27287-2.1435052-.27287zm-2.0120009.466836c.3313324.121018 1.1079505.207117 2.0120009.207117.8878507 0 1.6513411-.08298 1.9922763-.200542-.3013343.14568-.9559435.266294-1.9988514.266294-1.0142202 0-1.6888538-.123637-2.0054258-.272869z" opacity=".35"/></g></svg>