<svg height="16" width="16" xmlns="http://www.w3.org/2000/svg"><g fill="#bebebe"><path d="m1.75 0c-.4155 0-.75.3345-.75.75v13.5c0 .4155.3345.75.75.75h2.625c-.0217365-.04349-.0417194-.090296-.0625-.15625-.0525915-.164067-.0526825-.218458-.0625-.28125-.0164419-.103878-.0361235-.194078-.03125-.25.0009747-.011185.0305847-.022697.03125-.03125 0-.016972-.0004179-.014135 0-.03125.0025649-.005993-.0002699-.030843 0-.03125.0032318-.087613.017518-.192729.03125-.28125-.1587412-.0836-.28125-.244951-.28125-.4375v-5c0-.277.223-.5.5-.5h2.75v-.71875-.28125h-2.75c-.277 0-.5-.223-.5-.5v-5c0-.277.223-.5.5-.5h7c.277 0 .5.223.5.5v1.71875l1-.125v-.09375h.84375l.8125-.09375c.006599-.0007714.024633.0005965.03125 0s-.006631-.0308286 0-.03125.024611.0002459.03125 0 .055856.0000702.0625 0 .024606-.0001055.03125 0 .024612-.0002811.03125 0 .024622-.0004566.03125 0-.006614.0306184 0 .03125.024655-.0008063.03125 0 .024679-.0009804.03125 0 .024707-.0011538.03125 0 .024739-.0013264.03125 0v-2.15625c0-.4155-.3345-.75-.75-.75zm.25 1h1v1h-1zm11 0h1v1h-1zm-11 2h1v1h-1zm0 2h1v1h-1zm0 2h1v1h-1zm10.96875.78125-1.84375.21875h.375c.277 0 .5.223.5.5v2.65625c.237556-.075324.481463-.135036.75-.15625.107131-.008464.154479.013441.21875.03125zm-10.96875 1.21875h1v1h-1zm0 2h1v1h-1zm0 2h1v1h-1zm7.9375 1v.03125.0625c.0006781.009207-.0003392.022024 0 .03125.000339.009226 0 .053268 0 .0625s.000339.022024 0 .03125c-.0003392.009226.0006781.022043 0 .03125-.0004824.002972.0183162.148766-.03125.3125-.0380754.125848-.111206.209625-.15625.28125s-.0598617.120509-.0625.125c-.0080156.013643-.0228241.018097-.03125.03125h1.15625c-.334742-.238702-.606848-.576834-.75-1zm4.875.71875c-.064616.053909-.116839.109921-.1875.15625.070293-.042885.13504-.093325.1875-.15625z"/><path d="m14.793004 3.9294165-6.4958661.7266195v1.0708072.6774498.8959814 5.7583206l.0601.109266c-.042905-.02326-.084502-.04539-.1311194-.06556-.044411-.01942-.089028-.03273-.1365827-.04917-.095106-.03287-.1943534-.06196-.3004812-.08195s-.2181874-.03242-.3332613-.03824c-.1150394-.0058-.2331704-.0042-.3551149.0055-.034256.0027-.070002.0071-.1038026.01093-.016472.0019-.032809.0033-.049172.0055-.012417.0017-.025894.0037-.038244.0055-.1212715.01788-.2419289.04452-.355115.07649-.1146801.03235-.2239762.06969-.327798.114729-.052016.02257-.1041282.04561-.1529723.07102-.048735.02535-.096797.05399-.1420458.08195-.089212.05537-.1719933.116092-.2458483.18029-.037352.03251-.07086.06389-.1038034.09834-.034046.03537-.06381.0721-.092876.109266-.046346.05926-.087608.122711-.1201922.185752-.00656.01284-.015892.02527-.021856.03824-.055053.118159-.081948.240405-.081948.366041 0 .04138.00463.08038.010928.120193.00623.03982.015109.07665.027316.114729.012535.03978.025003.07704.043704.11473.035863.07226.085401.138638.1420458.202142.028326.03175.059823.06358.092876.09288.066107.05859.1408521.110728.2239955.158436.041458.0239.080408.04465.1256554.06556.2281598.106144.4964616.174643.797642.191215.1192878.0066.2451635.0045.3715045-.0055.4128883-.03262.7931354-.151297 1.0981241-.327798.087224-.05022.1663627-.105332.2403852-.163899.035897-.02854.071356-.06264.1038025-.09288.017137-.01598.033054-.03275.049172-.04917.015227-.01551.034871-.02784.049172-.0437.0008413-.001-.0008412-.0044 0-.0055.058779-.06561.1058326-.131205.1475099-.202142.041676-.07094.075723-.143779.098339-.218533.011315-.03738.021141-.07668.027316-.114728l.010928-.09834.010928-.51355.1092658-6.288262v-.043704l.1912155-.021856 4.74761-.5681833v4.9552153.191215l-.0055.469844c-.312435-.138043-.706179-.203349-1.136368-.169362-.471961.03729-.899565.192234-1.223779.409748-.03154.02116-.0634.04317-.09288.06556-.353181.246414-.573648.569816-.573648.912372 0 .662034.824935 1.134272 1.835671 1.054417.470001-.03713.895633-.191981 1.218316-.409747.01479-.0092.02931-.01788.0437-.02732.38198-.250443.622817-.591748.622817-.950615 0-.05024-.0072-.09415-.01638-.142046l.03278-.02186.07102-5.9713896.01638-1.6389913z"/></g></svg>