<svg height="16" width="16" xmlns="http://www.w3.org/2000/svg"><path d="m13.125.46875-.875.9375-.4375-.125-8.71875 6.53125-2.15625 2.21875 1.78125-.78125 7.40625-5.625.5.46875-4.65625 7.5-.96875 1.625 1.59375-1.1875 5.21875-8.09375 1.09375-1.6875-.28125-.4375.90625-.96875c-.024786-.23624213-.111347-.38636477-.40625-.375zm-12.125.15625v8.59375l1.71875-1.78125c.020104-.011816.040985-.022257.0625-.03125l.53125-.40625v-.6875l.40625.40625 1.875-1.40625zm12.875 1.8125c-.128536.015193-.261727.058253-.375.125-.05952.034877-.104038.090528-.125.15625l-2.75 8.65625c-.0023.02077-.0023.04173 0 .0625l-.125 2.1875c-.0094.04113-.0094.08387 0 .125.0078.02206.01826.04306.03125.0625.0096.01122.02003.02167.03125.03125.0096.01122.02003.02167.03125.03125.0096.01122.02003.02167.03125.03125.02915.0159.06089.02648.09375.03125.03103.0053.06272.0053.09375 0 .01041.000583.02084.000583.03125 0 .03286-.0048.0646-.01535.09375-.03125.01122-.0096.02167-.02003.03125-.03125.02402-.01739.04511-.03848.0625-.0625l1.09375-1.75c.01299-.01944.02349-.04044.03125-.0625l2.78125-8.6875c.0094-.041133.0094-.083867 0-.125-.007762-.0220583-.01826-.0430556-.03125-.0625-.138245-.331203-.360499-.5763001-.625-.65625-.126623-.038274-.277714-.046443-.40625-.03125zm-6.9375 4.25-1.875 1.4375 1.5 1.53125 1.28125-2.03125zm2.25 2.3125-1.3125 2 1.65625 1.6875h-2.96875l-1.25.9375c-.4383496.291289-.980523-.183113-.75-.65625l.15625-.28125h-1.40625v-3.25l-.28125.21875c-.028877.024191-.060314.045149-.09375.0625l-1.78125.78125c-.0483153.029237-.1010994.050351-.15625.0625v4.4375h14.03125l-2.5-2.5625-1.03125 1.65625c-.01.01084-.02041.02127-.03125.03125.002-.0028-.03335.03395-.03125.03125s-.0022.03385 0 .03125-.03355.0025-.03125 0-.03365.03365-.03125.03125-.03375.03355-.03125.03125c.0023-.0025-.0024.03365 0 .03125s-.03375.0023-.03125 0-.03385.03345-.03125.03125c-.02897.02407-.06039.04502-.09375.0625.0033-.0018-.03465.03295-.03125.03125s-.03475.0015-.03125 0-.03475.03265-.03125.03125c.0036-.0014-.03485.0012-.03125 0s-.03495.001-.03125 0-.03495.03213-.03125.03125c.0037-.000876-.03495.000711-.03125 0s-.0663.000545-.0625 0c.0036-.000604-.03485.000454-.03125 0 .0048-.000267-.0673 0-.0625 0 .0018-.000076-.02175-.0002-.03125 0s-.03305 0-.03125 0c.0036 0-.03485-.000152-.03125 0s-.03485-.000303-.03125 0-.03485-.000454-.03125 0c.0019.000273-.02135.0017-.03125 0s-.03315-.000356-.03125 0c.0037.000711-.03495-.000876-.03125 0 .0037.00088-.03495-.03225-.03125-.03125s-.03485-.0012-.03125 0-.03475-.0014-.03125 0c.0036.0014-.03475-.03275-.03125-.03125s-.03465-.0017-.03125 0-.03455-.03305-.03125-.03125c-.03336-.01748-.06478-.03843-.09375-.0625.0026.0022-.03375-.03355-.03125-.03125.0013.0011-.02455.0059-.03125 0 .0024.0024-.0023-.03375 0-.03125.0013.0011-.02455.0059-.03125 0 .0024.0024-.0023-.03375 0-.03125.0012.0012-.02535.0067-.03125 0 .0024.0024-.0023-.03375 0-.03125s-.03345-.03385-.03125-.03125c-.01084-.01-.02127-.02041-.03125-.03125.003.0045-.03394-.0671-.03125-.0625.0027.0046-.03364-.03605-.03125-.03125.0024.0048-.03334-.0674-.03125-.0625.0021.0049-.00178-.03635 0-.03125-.011765-.02013-.022204-.04101-.03125-.0625.00108.0047-.0008108-.0672 0-.0625s-.000542-.03605 0-.03125-.0002714-.0673 0-.0625 0-.03605 0-.03125.0002714-.03605 0-.03125.000542-.0673 0-.0625.0008108-.03595 0-.03125.00108-.0672 0-.0625l.125-2c.000535.0048-.000268-.0673 0-.0625s0-.03605 0-.03125.000268-.03605 0-.03125.000535-.0673 0-.0625c.0075-.03215.01797-.06353.03125-.09375l.3125-.9375z" fill="#bebebe"/></svg>