<svg height="16" width="16" xmlns="http://www.w3.org/2000/svg"><path d="m13.0625.65625-.875.9375-.4375-.125-8.71875 6.53125-2.15625 2.21875 1.78125-.78125 7.40625-5.625.5.46875-4.65625 7.5-.96875 1.625 1.59375-1.1875 5.21875-8.09375 1.09375-1.6875-.28125-.4375.90625-.96875c-.024786-.23624213-.111347-.38636477-.40625-.375zm-12.125.15625v8.59375l1.71875-1.78125a.51637526.51637526 0 0 1 .0625-.03125l.53125-.40625v-.6875l.40625.40625 1.875-1.40625zm12.875 1.8125c-.128536.015193-.261727.058253-.375.125a.27956053.27956053 0 0 0 -.125.15625l-2.75 8.65625a.27956053.27956053 0 0 0 0 .0625l-.125 2.1875a.27956053.27956053 0 0 0 0 .125.27956053.27956053 0 0 0 .03125.0625.27956053.27956053 0 0 0 .03125.03125.27956053.27956053 0 0 0 .03125.03125.27956053.27956053 0 0 0 .03125.03125.27956053.27956053 0 0 0 .09375.03125.27956053.27956053 0 0 0 .09375 0 .27956053.27956053 0 0 0 .03125 0 .27956053.27956053 0 0 0 .09375-.03125.27956053.27956053 0 0 0 .03125-.03125.27956053.27956053 0 0 0 .0625-.0625l1.09375-1.75a.27956053.27956053 0 0 0 .03125-.0625l2.78125-8.6875a.27956053.27956053 0 0 0 0-.125.27956053.27956053 0 0 0 -.03125-.0625c-.138245-.331203-.360499-.5763001-.625-.65625-.126623-.038274-.277714-.046443-.40625-.03125zm-6.9375 4.25-1.875 1.4375 1.5 1.53125 1.28125-2.03125zm2.25 2.3125-1.3125 2 1.65625 1.6875h-2.96875l-1.25.9375a.51637526.51637526 0 0 1 -.75-.65625l.15625-.28125h-1.40625v-3.25l-.28125.21875a.51637526.51637526 0 0 1 -.09375.0625l-1.78125.78125a.51637526.51637526 0 0 1 -.15625.0625v4.4375h14.03125l-2.5-2.5625-1.03125 1.65625a.53603287.53603287 0 0 1 -.03125.03125c.00199-.00275-.03335.03395-.03125.03125.0021-.00267-.0022.03385 0 .03125s-.03355.0025-.03125 0c.0023-.00249-.03365.03365-.03125.03125s-.03375.03355-.03125.03125c.0023-.00248-.0024.03365 0 .03125.00239-.0024-.03375.0023-.03125 0 .00248-.0023-.03385.03345-.03125.03125a.53603287.53603287 0 0 1 -.09375.0625c.00333-.00182-.03465.03295-.03125.03125.00341-.0017-.03475.0015-.03125 0 .00348-.00151-.03475.03265-.03125.03125.00355-.0014-.03485.0012-.03125 0s-.03495.001-.03125 0c.00365-.00104-.03495.032126-.03125.03125.00369-.000876-.03495.000711-.03125 0 .00373-.000711-.0663.000545-.0625 0 .00355-.000604-.03485.000454-.03125 0 .00477-.000267-.0673 0-.0625 0 .0018-.000076-.02175-.0002-.03125 0-.00948.0002-.03305 0-.03125 0 .0036 0-.03485-.000152-.03125 0s-.03485-.000303-.03125 0c.00359.000303-.03485-.000454-.03125 0 .00188.000273-.02135.0017-.03125 0-.00987-.0017-.03315-.000356-.03125 0 .00373.000711-.03495-.000876-.03125 0 .00369.00088-.03495-.03225-.03125-.03125.00365.001-.03485-.0012-.03125 0s-.03475-.0014-.03125 0c.00355.00136-.03475-.03275-.03125-.03125.00348.0015-.03465-.0017-.03125 0 .00341.00167-.03455-.03305-.03125-.03125a.53603287.53603287 0 0 1 -.09375-.0625c.00257.0022-.03375-.03355-.03125-.03125.00129.0011-.02455.0059-.03125 0 .0024.00239-.0023-.03375 0-.03125.00129.0011-.02455.0059-.03125 0 .0024.00239-.0023-.03375 0-.03125.00115.0012-.02535.0067-.03125 0 .0024.00239-.0023-.03375 0-.03125.0023.00248-.03345-.03385-.03125-.03125a.53603287.53603287 0 0 1 -.03125-.03125c.00297.00445-.03394-.0671-.03125-.0625.00269.00463-.03364-.03605-.03125-.03125.002395.00479-.03334-.0674-.03125-.0625.00209.00493-.00178-.03635 0-.03125a.53603287.53603287 0 0 1 -.03125-.0625c.00108.0047-.0008108-.0672 0-.0625.0008108.00475-.000542-.03605 0-.03125.000542.00479-.0002714-.0673 0-.0625.0002714.00481 0-.03605 0-.03125 0 .00482.0002714-.03605 0-.03125-.0002714.00481.000542-.0673 0-.0625-.000542.00479.0008108-.03595 0-.03125-.0008108.00475.00108-.0672 0-.0625l.125-2c.000535.00476-.000268-.0673 0-.0625.000268.00478 0-.03605 0-.03125 0 .00479.000268-.03605 0-.03125-.000268.00478.000535-.0673 0-.0625a.53603287.53603287 0 0 1 .03125-.09375l.3125-.9375z" fill="#bebebe"/></svg>