<svg height="16" viewBox="0 0 17.25 13.875" width="16" xmlns="http://www.w3.org/2000/svg"><g fill="#bebebe"><path d="m2.8853868 8.7934967c-.0714693.0839788-.5758374.6794822-.7649804.9891991-.1715961.1738147-1.18703871.9188562-1.18703871.9188562-.76402724.600652.18904691 1.182642.18904691 1.182642l1.0771278.584727c3.539188 1.548803 7.6058404-.127497 7.6058404-.127497s.9028902-.359815 2.6334672-1.134281c1.730578-.774598 2.777295-1.027828 3.55672-1.6442691.161929-.128026.246862-.2748031.281372-.4264543a.61337919.61337919 0 0 1 -.04396.03077c-.01152.00614-.02356.01149-.03517.017585a.61337919.61337919 0 0 1 -.0088.00879.61337919.61337919 0 0 1 -.0088.00443c.0037-.00187-.02194.010449-.05276.026378-.0036.00187-.0096.00692-.01319.00879-1.025139.5390726-2.951262 1.3927804-4.154634 1.7453864-1.249129.36616-2.909787.422059-3.6798201.422059-.8804894 0-2.7396257-.240635-3.7413702-.589123-.5046288-.175471-.8789381-.445339-1.1386588-.712216-.2597209-.2668772-.40375-.4920726-.479212-.7605845-.0574298-.2043499-.0420011-.3009961-.0395678-.4396441.0005873-.033958.00327-.07052.00439-.105515z"/><path d="m.83404239 12.438141.0585905.03197c.0117445.0051.0236189.0098.0353634.01488l-.0939538-.04685z"/><path d="m11.1875 3.34375c-.442754.0159694-.957748.205542-1.46875.46875-.6924933.3566911-1.3640767.8592748-1.71875 1.21875-.748503.7586376-.8793821 1.1611992-.96875 1.5625-.0445891.200224-.1491367.8064355-.25 1.40625s-.1851922 1.2199053-.1875 1.40625c-.0022.1773407.051539.2716512.09375.3125.042211.040849.1157189.09375.34375.09375.5313843 0 2.2122602-.2360039 3.6875-.625.699869-.1845999 1.638064-.5839671 2.40625-.9375.384093-.1767665.752759-.301562 1-.4375.09999-.054975.156779-.1175639.21875-.15625.001-.024266.000026-.032182 0-.0625-.000132-.1515908-.010764-.3868345-.03125-.59375-.040972-.413831-.125-.8125-.125-.8125a.57466763.57466763 0 0 1 .40625-.625s.02577.00133.03125 0c-.07752-.2395618-.16667-.487661-.28125-.71875a.57466763.57466763 0 0 1 -.6875-.125s-.75722-.8966864-2.03125-1.3125c-.0096-.00312-.02162.00307-.03125 0-.12898-.028282-.258665-.067823-.40625-.0625z" transform="matrix(1.078125 0 0 1.078125 0 -1.6875)"/><path d="m16.260347 8.7089573c-.0428.1431485-.126576.2802953-.269073.4024355-.79117.6779033-1.851413 1.0508472-3.607827 1.9024342-1.756415.851848-2.6742914 1.156676-2.6742914 1.156676s-4.1300538 1.84254-7.7220911.139104l-1.09182164-.643192s-.0442369-.02962-.10595906-.08208c.14197467.18321.3326226.300913.3326226.300913l1.0757712.584732c3.5391885 1.548803 7.6085634-.126577 7.6085634-.126577s.904306-.363419 2.634883-1.137884c1.730577-.774598 2.775292-1.02736 3.554717-1.6438013.312788-.2470204.341626-.5628097.264506-.8527614z"/><path d="m3.7777285 7.3121127c-.00851.069649-.1831562.1989975-.2323818.4324267-.049225.2334291-.1534375 1.1200151-.093869 1.3319735.059568.2119588.4078137.7745184 1.2357478 1.0624101.8279339.288024 2.8171225.554837 3.5507945.554837.7336728 0 2.402502-.06886 3.519505-.396293 1.117003-.3272985 3.090875-1.1981741 4.067009-1.7125563 1.227369-.6038001.727256-1.2843189.341568-3.532335-.05485-.2136602-.229763-.1462369-.229763-.1462369s.290903 1.7641382.107092 2.0138015c-.183681.2495323-2.678742 1.4546449-4.317197 1.8868098-1.638456.4320335-3.425635.681828-4.1451677.681828-.7195329 0-1.0871543-.3964242-1.0792992-1.0307283.0078555-.6343041.375477-2.6956293.4849256-3.1871005.1094485-.4914713.3186576-1.0683019 1.1888786-1.9503056.8702216-.8820038 2.9250007-2.33507756 4.5049347-1.954364 1.579803.5033848 2.518364 1.6371463 2.518364 1.6371463s-1.470356-2.37854273-4.317195-2.37854273c-1.7675423 0-3.9418514 1.39533853-3.9418514 1.39533853s-2.2837572 1.0465692-2.5184956 3.5676832c-.2346074 2.5212448-.6521093 2.6516405-.6806497 2.5054036-.0286713-.1463678.0456908-.8508448.0370502-.7811959z"/></g></svg>