<svg height="16" width="16.002" xmlns="http://www.w3.org/2000/svg"><g fill="#bebebe"><g fill-rule="evenodd"><path d="m1 8.0527344v6.9472656s0 1 1 1h6.9003906l-.9980468-.998047-.0019532-.001953h-5.9003906v-6.9472656zm9.712891 7.0722656c-.028857.014497-.072324.03715-.072266.037109.00025-.000109-.250136.252148-.25.251953.00007-.000095-.034952.075221-.070313.150391a1.0243522 1.0243522 0 0 1 -.013671-.003906l.011718.005859c-.0023.0048-.001706.005066-.003906.009766l.095703.035156.050782.023438.085937.03125.125.060546c.0022-.006669.003559-.006771.005859-.013671v-.001953c.02984-.090296.060567-.183727.060547-.183594 0 .000234-.007861-.34791-.007812-.347656.00001.00005-.011643-.03739-.017578-.054688zm2.804687.167969a1.0243522 1.0243522 0 0 1 .009766.011719c-.0001-.0002-.001957-.005864-.001953-.00586 0 0-.007482-.005644-.007813-.005859zm.152344.277343c-.127975.058322-.236458.09599-.335938.13086l.22461-.076172.113281-.052734z"/><path d="m2 4c-1 0-1 1-1 1v6h1v-6h12v2.6230469a1.0243522 1.0243522 0 0 1 .988281.2636719l.011719.0117187v-2.8984375s0-1-1-1z"/></g><path d="m8 0c-1.4642665-.00046099-2.7559556 1.0562137-3 2.5v1.5h1v-1.5h.0253906c.2277286-.8819932 1.063692-1.4986799 1.9746094-1.5.9116448.0004307 1.7545108.6173036 1.9824219 1.5h.0175781v1.5h1v-1.5c-.243674-1.4416044-1.5379486-2.49760439-3-2.5z"/><path d="m8 6a4 4 0 0 0 -4 4 4 4 0 0 0 3.6269531 3.978516 1.0243522 1.0243522 0 0 1 .0800781-.197266 1.0243522 1.0243522 0 0 1 -.7285156-.980469v-.482422l-1.9785156-1.318359h2a1.0243522 1.0243522 0 0 1 0-.003906v-3.996094h2v.8984375l.0136719-.0136719a1.0243522 1.0243522 0 0 1 1.2109371-.1777344 1.0243522 1.0243522 0 0 1 .519532-.6152343 4 4 0 0 0 -2.744141-1.0917969zm2.591797 2.3300781-.105469.0371094-.068359.0332031c.03949-.0164244.073904-.0297779.109375-.0429687.022468-.0094555.04007-.0175777.064453-.0273438zm-2.0644532 4.9296879c.0000098 0-.0075644.003808-.0078126.003906a1.0243522 1.0243522 0 0 1 .015625-.001953c-.0002298-.0001-.0078205-.001953-.0078124-.001953zm-.2265626.08789.0410157.115235.1074219.220703c-.0498537-.102005-.1008434-.208082-.1484376-.335938z"/><path d="m11.203001 8.004v1.187l-.176.063c-.082.03-.175.075-.275.123l-.168.082-.8340002-.832c0-.003-.01-.004-.012-.006 0 .002-.011.004-.011.006l-1.1 1.1c.011-.011.011.03 0 .02l.832.835-.082.17c-.048.1-.092.192-.121.273l-.065.178h-1.189v1.598h1.19l.064.178c.029.08.072.173.121.273l.082.17-.832.836c.011-.01.011.03 0 .02l1.1 1.099c-.011-.01.033-.01.023 0l.8340002-.832.168.082c.099.047.193.093.275.123l.176.062v1.188h1.6v-1.188l.177-.062c.082-.03.174-.075.274-.123l.172-.082.832.832c-.011-.01.034-.01.023 0l1.1-1.1c-.012.011-.012-.03 0-.02l-.835-.835.082-.17c.048-.1.092-.192.122-.274l.064-.177h1.188v-1.599h-1.188l-.064-.178c-.03503-.0931-.07509-.184237-.12-.273l-.083-.17.834-.836c-.01.01-.01-.03 0-.02l-1.1-1.099c.012.01-.033.01-.021 0l-.834.832-.17-.082c-.1-.048-.193-.093-.276-.123l-.175-.063v-1.187zm.801 2.666c.733 0 1.332.6 1.332 1.332 0 .733-.6 1.332-1.332 1.332-.733 0-1.334-.6-1.334-1.332 0-.733.601-1.332 1.334-1.332z"/></g></svg>