<svg height="16" width="16" xmlns="http://www.w3.org/2000/svg"><g fill="#bebebe"><path d="m12.550781.28515625c-1.9114 0-2.9374997.46889993-2.9374998 2.37499995 0 .39829-.4369399 1.8628301-.3125 2.21875l-1.15625 1.5625 1.625 1.5c.0205991-.0002567.0183781.064819.21875.125l1.4374998-1.09375c.35692.1241001.72567.21875 1.125.21875 1.9114 0 2.90625-1.0626499 2.90625-2.96875 0-.3982899-.09431-.80034-.21875-1.15625l-1.3125 1.40625c-.738713.0585161-1.341513-.1100526-1.71875-.59375-.387348-.3862999-.3561-1.39498.03125-1.78125l2.0625-1.12499995c-.35692-.12412-1.35067-.6875-1.75-.6875zm-.304687.87499995-.400391.21875a.81811854.81811854 0 0 0 -.185547.1386719c-.437987.4367657-.53372.9530645-.544922 1.453125-.010806.4824219.070448.9956092.482422 1.4375.582756.7158295 1.510254.9507515 2.392578.8808594a.81811854.81811854 0 0 0 .353516-.1132813c-.083901.2048124-.084078.5466385-.210938.6777344-.305172.3153668-.777928.5195313-1.582031.5195313-.270068 0-.541763-.0647538-.855469-.1738281a.81811854.81811854 0 0 0 -.765624.1230468l-.9355474.7128906-.7558594-.6972656.7207032-.9726562a.81811854.81811854 0 0 0 .1132816-.7558594c.075797.2167936.018726.0793916.037109-.0722656.018383-.1516573.058317-.3657531.103516-.5878906.045198-.2221376.095004-.4534046.136718-.6660157.041715-.2126111.082032-.3739046.082032-.6230469 0-.8062603.156587-1.0563442.410156-1.2382812.208365-.1495025.768184-.2238905 1.404297-.2617188zm-6.0078128 7.03125c-1.5688985 1.2470734-2.8671725 2.0000688-4.625 3.6249998-.0164379.0152-.0459789.01589-.0625.03125-.60289242.283291-1.03124995.914775-1.03124995 1.625 0 .97962.80162985 1.75 1.78124995 1.75.558572 0 1.0498685-.252703 1.375-.65625.031252-.03879.065797-.08362.09375-.125l4.3125-4.4999998zm-.0507812 1.0800782.7363281.6972656-3.7441406 3.90625a.81811854.81811854 0 0 0 -.0878906.109375c-.0063657.009423-.0298972.040014-.0527344.068359-.1772181.21996-.4264339.351563-.7382813.351563-.5507469 0-.9628906-.398291-.9628906-.931641 0-.381303.2461596-.737039.5605469-.884765a.81811854.81811854 0 0 0 .1835937-.119141c.0398217-.026003.0364871-.005055.0859376-.050781 1.494381-1.381402 2.667721-2.120883 4.0195312-3.1464846z"/><path d="m1.7597656.33984375-1.24999998 1.21093745 1.00195318 1.9765626c.4336.43917 1.1492112.5413387 1.7070312.2929687l5.8886719 5.9648437c-.282936.5620588-.1568542 1.3014938.296875 1.7382818l.3554687.359374c.6079734.069853.8785864.341728.8085934.81836l2.783203 2.818359c.54885.555948 1.555806.564922 2.113282.017578.557472-.547344.564475-1.551475.015625-2.107421l-2.716797-2.751954c-.691662.003012-.721441-.419922-.800781-.8105465l-.427735-.4355469c-.229264-.2371029-.540099-.3937101-.867187-.4394531-.286543-.032933-.582075.0193612-.839844.1484375-.010365-.0001911-.020883-.0000244-.03125 0l-5.8886719-5.9960938c.2629-.5577.185885-1.2862412-.265625-1.7070312zm.1074219.88671875 1.2929687.7539063c.170648.1774043.2400366.5758641.1054688.8613281a.71117717.71117717 0 0 0 -.0664062.2675781.71117717.71117717 0 0 0 -.2695313.0605469c-.2723764.1212759-.6633174.0430661-.8710937-.1367188l-.6777344-1.3359375zm8.7109375 8.4746094c.165039.0252153.33252.1079619.445313.2246093a.71117717.71117717 0 0 0 .003906.0039063l.324218.3300785c.029729.164638.030686.317951.191407.55664.179439.26649.517349.461584.886719.53711l-.171876-.175782.509766.210938c-.113482.000494-.226803-.012442-.33789-.035156l2.544921 2.576172c.245971.24915.241543.854784-.007812 1.099609-.249242.244712-.863337.239454-1.109375-.009766l-2.757813-2.792969c-.056154-.20666-.023548-.434101-.175781-.58789-.196158-.198163-.45659-.230761-.703125-.300781l-.3105468-.314453a.71117717.71117717 0 0 0 -.0117187-.011719c-.2122665-.204341-.2884112-.643709-.15625-.90625a.71117717.71117717 0 0 0 .0722656-.2539065.71117717.71117717 0 0 0 .3320309-.0742187c.129579-.0648859.28715-.0911148.431641-.0761719z"/></g></svg>