<svg height="16" width="16" xmlns="http://www.w3.org/2000/svg"><g fill="#bebebe"><path d="m12.5625.28125c-1.9114 0-2.9375.46889993-2.9375 2.375 0 .39829-.43694 1.86283-.3125 2.21875-2.0603777 2.8435701-5.4971563 4.9306346-7.6875 6.9375-.016438.0152-.045979.01589-.0625.03125-.60289247.283291-1.03125.914775-1.03125 1.625 0 .97962.8016298 1.75 1.78125 1.75.5585719 0 1.0498684-.252703 1.375-.65625.031252-.03879.065797-.08362.09375-.125 2.1998867-1.938303 4.022277-4.5116128 6.21875-6.375l1.4375-1.09375c.35692.1241.72567.21875 1.125.21875 1.9114 0 2.90625-1.06265 2.90625-2.96875 0-.39829-.09431-.80034-.21875-1.15625l-1.3125 1.40625c-.738713.058516-1.341513-.1100527-1.71875-.59375-.387348-.3863-.3561-1.39498.03125-1.78125l2.0625-1.125c-.35692-.12412-1.35067-.6875-1.75-.6875zm-.148438.8203125-.542968.296875a.79224479.79224479 0 0 0 -.179688.1347656c-.43026.4290607-.527967.9383189-.539062 1.4335938-.010715.4783272.072706.9854758.478515 1.4199219.576383.7066094 1.492424.9405415 2.369141.8710937a.79224479.79224479 0 0 0 .398438-.1445313c-.087853.2374724-.092147.6069284-.234376.7539063-.310943.3213301-.792664.5273437-1.601562.5273437-.274156 0-.550162-.0642784-.865234-.1738281a.79224479.79224479 0 0 0 -.740235.1171875l-1.4374998 1.09375a.79224479.79224479 0 0 0 -.03125.0273438c-2.3059959 1.9563015-4.128699 4.5329126-6.2304687 6.3847656a.79224479.79224479 0 0 0 -.1328125.150391c-.0070484.010434-.0315842.043589-.0546875.072265-.1818962.225766-.4381625.359375-.7578125.359375-.5643106 0-.9882812-.409567-.9882812-.957031-.0000001-.391706.2507071-.756189.5742187-.908203a.79224479.79224479 0 0 0 .1777344-.115235c.0384741-.024816.0360581-.004903.0839843-.048828 2.0877261-1.912843 5.5950718-4.023277 7.7929688-7.0566402a.79224479.79224479 0 0 0 .107422-.7265626c.072416.2071233.016613.0689986.035156-.0839843.018544-.1529829.058265-.367451.103516-.5898438.04525-.2223927.095088-.453839.136719-.6660156.041628-.2121766.082031-.3727755.082031-.6171875 0-.8109027.158703-1.0703867.419922-1.2578125.238751-.1713051.812028-.2759561 1.576171-.296875z"/><path d="m11.4375 7.84375v.8125c-.281999.040072-.529095.1392311-.78125.25l-.4375-.71875-.6874999.40625.4375.71875c-.195415.1554829-.37847.3336145-.53125.53125l-.75-.40625-.40625.6875.75.4375c-.099586.242039-.183353.481712-.21875.75h-.84375v.78125h.84375c.035281.289681.109092.584488.21875.84375l-.71875.40625.40625.6875.71875-.4375c.156643.204848.329134.402511.53125.5625l-.40625.71875.6874999.375.40625-.6875c.252155.110769.499251.178677.78125.21875v.78125h.8125v-.78125c.289681-.03528.584488-.07784.84375-.1875l.375.65625.6875-.40625-.40625-.65625c.226104-.172213.422613-.366785.59375-.59375l.65625.375.40625-.6875-.65625-.34375c.0039-.0091-.0038-.0221 0-.03125.103471-.251371.153459-.532997.1875-.8125h.78125v-.78125h-.78125c-.03983-.301912-.09835-.575805-.21875-.84375l.65625-.375-.40625-.6875-.6875.40625c-.168305-.2115301-.345204-.401327-.5625-.5625l.40625-.6875-.71875-.40625-.40625.6875c-.233458-.090275-.493132-.1562153-.75-.1875v-.8125zm.40625 2.1875c.915291 0 1.65625.772209 1.65625 1.6875s-.740959 1.65625-1.65625 1.65625-1.65625-.740959-1.65625-1.65625.740959-1.6875 1.65625-1.6875z"/></g></svg>