<svg height="16" width="16" xmlns="http://www.w3.org/2000/svg"><path d="m8 0a8 8 0 0 0 -8 8 8 8 0 0 0 8 8 8 8 0 0 0 8-8 8 8 0 0 0 -8-8zm1 1.0742188a7 7 0 0 1 5.925781 5.9257812h-2.027343a5 5 0 0 0 -3.898438-3.8984375zm-2 .0039062v2.0351562a5 5 0 0 0 -3.8867188 3.8867188h-2.0351562a7 7 0 0 1 5.921875-5.921875zm1 2.921875a4 4 0 0 1 4 4 4 4 0 0 1 -4 4 4 4 0 0 1 -4-4 4 4 0 0 1 4-4zm-6.921875 5h2.0351562a5 5 0 0 0 3.8867188 3.886719v2.035156a7 7 0 0 1 -5.921875-5.921875zm11.808594 0h2.035156a7 7 0 0 1 -5.921875 5.921875v-2.035156a5 5 0 0 0 3.886719-3.886719z" fill="#bebebe"/></svg>