<svg height="16" width="16" xmlns="http://www.w3.org/2000/svg"><g fill="#bebebe"><path d="m8 .5c-4.1374554 0-7.5 3.3625446-7.5 7.5 0 4.137455 3.3625446 7.5 7.5 7.5 4.137455 0 7.5-3.362545 7.5-7.5 0-4.1374554-3.362545-7.5-7.5-7.5zm0 .625c3.800468 0 6.875 3.0745319 6.875 6.875 0 3.800468-3.074532 6.875-6.875 6.875-3.8004681 0-6.875-3.074532-6.875-6.875 0-3.8004681 3.0745319-6.875 6.875-6.875z"/><path d="m9.1875 1.59375v2.90625a3.7171077 3.7285108.00025033 0 1 1.53125.96875 3.7171077 3.7285108.00025033 0 1 .875 1.28125h2.8125a6.5136606 6.5336429.00025033 0 0 -1.625-3.1875 6.4921993 6.5121157.00025033 0 0 -3.59375-1.96875zm-2.375.03125a6.4921993 6.5121157.00025033 0 0 -5.1875 5.125h2.90625a3.7171077 3.7285108.00025033 0 1 2.28125-2.25zm-5.21875 7.5a6.4921993 6.5121157.00025033 0 0 1.625 3.3125 6.5136606 6.5336429.00025033 0 0 3.59375 1.96875v-2.75a3.7171077 3.7285108.00025033 0 1 -1.53125-1.125 3.7171077 3.7285108.00025033 0 1 -.78125-1.40625zm10.15625 0a3.7171077 3.7285108.00025033 0 1 -2.5625 2.625v2.6875a6.5136606 6.5336429.00025033 0 0 5.25-5.3125z"/><path d="m8 4.71875c-1.8101803 0-3.28125 1.4710697-3.28125 3.28125 0 1.8101802 1.4710697 3.28125 3.28125 3.28125 1.8101802 0 3.28125-1.4710698 3.28125-3.28125 0-1.8101803-1.4710698-3.28125-3.28125-3.28125zm0 .59375c1.4796014 0 2.6875 1.2078985 2.6875 2.6875 0 1.4796014-1.2078986 2.6875-2.6875 2.6875-1.4796015 0-2.6875-1.2078986-2.6875-2.6875 0-1.4796015 1.2078985-2.6875 2.6875-2.6875z"/></g></svg>