<?xml version="1.0" encoding="UTF-8" standalone="no"?>
<!-- Created with Inkscape (http://www.inkscape.org/) -->

<svg
   xmlns:dc="http://purl.org/dc/elements/1.1/"
   xmlns:cc="http://creativecommons.org/ns#"
   xmlns:rdf="http://www.w3.org/1999/02/22-rdf-syntax-ns#"
   xmlns:svg="http://www.w3.org/2000/svg"
   xmlns="http://www.w3.org/2000/svg"
   xmlns:xlink="http://www.w3.org/1999/xlink"
   xmlns:sodipodi="http://sodipodi.sourceforge.net/DTD/sodipodi-0.dtd"
   xmlns:inkscape="http://www.inkscape.org/namespaces/inkscape"
   version="1.1"
   id="svg2"
   width="32"
   height="32"
   viewBox="0 0 32 32"
   sodipodi:docname="folder.svg"
   inkscape:version="0.92.4 (unknown)">
  <metadata
     id="metadata8">
    <rdf:RDF>
      <cc:Work
         rdf:about="">
        <dc:format>image/svg+xml</dc:format>
        <dc:type
           rdf:resource="http://purl.org/dc/dcmitype/StillImage" />
        <dc:title></dc:title>
      </cc:Work>
    </rdf:RDF>
  </metadata>
  <defs
     id="defs6">
    <linearGradient
       inkscape:collect="always"
       id="linearGradient854">
      <stop
         style="stop-color:#2a3674;stop-opacity:1"
         offset="0"
         id="stop850" />
      <stop
         style="stop-color:#174072;stop-opacity:0;"
         offset="1"
         id="stop852" />
    </linearGradient>
    <linearGradient
       inkscape:collect="always"
       id="linearGradient838">
      <stop
         style="stop-color:#587bcb;stop-opacity:1"
         offset="0"
         id="stop834" />
      <stop
         id="stop985"
         offset="0.94117647"
         style="stop-color:#3f59ae;stop-opacity:1" />
      <stop
         style="stop-color:#3d7cdb;stop-opacity:1"
         offset="1"
         id="stop836" />
    </linearGradient>
    <linearGradient
       inkscape:collect="always"
       xlink:href="#linearGradient838"
       id="linearGradient840"
       x1="8.7398376"
       y1="1.3577236"
       x2="9"
       y2="14"
       gradientUnits="userSpaceOnUse"
       gradientTransform="translate(-1)" />
    <linearGradient
       inkscape:collect="always"
       xlink:href="#linearGradient854"
       id="linearGradient856"
       x1="6.5"
       y1="11"
       x2="6.5"
       y2="12"
       gradientUnits="userSpaceOnUse"
       gradientTransform="matrix(1.8125,0,0,1,-0.8125,12)" />
    <linearGradient
       inkscape:collect="always"
       id="linearGradient4716">
      <stop
         style="stop-color:#102134;stop-opacity:1;"
         offset="0"
         id="stop4718" />
      <stop
         style="stop-color:#102134;stop-opacity:0;"
         offset="1"
         id="stop4720" />
    </linearGradient>
    <linearGradient
       inkscape:collect="always"
       xlink:href="#linearGradient4716"
       id="linearGradient906"
       x1="10"
       y1="-1"
       x2="10"
       y2="10"
       gradientUnits="userSpaceOnUse"
       gradientTransform="translate(-1,-6)" />
    <filter
       style="color-interpolation-filters:sRGB"
       inkscape:collect="always"
       id="filter4747"
       x="-0.06459371"
       width="1.1291873"
       y="-0.1339166"
       height="1.2678332">
      <feGaussianBlur
         inkscape:collect="always"
         stdDeviation="3.1247207"
         id="feGaussianBlur4749" />
    </filter>
    <linearGradient
       inkscape:collect="always"
       xlink:href="#linearGradient4608"
       id="linearGradient4614"
       x1="3"
       y1="968.26129"
       x2="-8.0192804"
       y2="902.54407"
       gradientUnits="userSpaceOnUse"
       gradientTransform="matrix(0.12499998,0,0,0.12499998,0.0024099,-115.81799)" />
    <linearGradient
       inkscape:collect="always"
       id="linearGradient4608">
      <stop
         style="stop-color:#34608f;stop-opacity:1;"
         offset="0"
         id="stop4610" />
      <stop
         style="stop-color:#34608f;stop-opacity:0;"
         offset="1"
         id="stop4612" />
    </linearGradient>
    <linearGradient
       inkscape:collect="always"
       xlink:href="#linearGradient4616"
       id="linearGradient4622"
       x1="124.01234"
       y1="966.51019"
       x2="123.73341"
       y2="904.93018"
       gradientUnits="userSpaceOnUse"
       gradientTransform="matrix(0.21345221,0,0,0.14419658,2.588831,-134.48784)" />
    <linearGradient
       id="linearGradient4616">
      <stop
         style="stop-color:#000000;stop-opacity:1;"
         offset="0"
         id="stop4618" />
      <stop
         style="stop-color:#34608f;stop-opacity:0;"
         offset="1"
         id="stop4620" />
    </linearGradient>
    <linearGradient
       inkscape:collect="always"
       xlink:href="#linearGradient4624"
       id="linearGradient4630"
       x1="55"
       y1="1036.4132"
       x2="55"
       y2="1032.4822"
       gradientUnits="userSpaceOnUse" />
    <linearGradient
       inkscape:collect="always"
       id="linearGradient4624">
      <stop
         style="stop-color:#003d7b;stop-opacity:1;"
         offset="0"
         id="stop4626" />
      <stop
         style="stop-color:#003d7b;stop-opacity:0;"
         offset="1"
         id="stop4628" />
    </linearGradient>
    <filter
       style="color-interpolation-filters:sRGB"
       inkscape:collect="always"
       id="filter4584"
       x="-0.013944133"
       width="1.0278883"
       y="-0.34860396"
       height="1.6972079">
      <feGaussianBlur
         inkscape:collect="always"
         stdDeviation="0.70882694"
         id="feGaussianBlur4586" />
    </filter>
    <filter
       style="color-interpolation-filters:sRGB"
       inkscape:collect="always"
       id="filter4724"
       x="-0.013834233"
       width="1.0276685"
       y="-0.43499437"
       height="1.8699887">
      <feGaussianBlur
         inkscape:collect="always"
         stdDeviation="0.70324038"
         id="feGaussianBlur4726" />
    </filter>
    <clipPath
       clipPathUnits="userSpaceOnUse"
       id="clipPath1180">
      <rect
         style="opacity:0.6457142;fill:#155293;fill-opacity:1;stroke:none;stroke-width:1"
         id="rect1182"
         width="195.54292"
         height="31.444271"
         x="4"
         y="941.36218"
         rx="4"
         ry="4" />
    </clipPath>
  </defs>
  <sodipodi:namedview
     pagecolor="#ffffff"
     bordercolor="#666666"
     borderopacity="1"
     objecttolerance="10"
     gridtolerance="10"
     guidetolerance="10"
     inkscape:pageopacity="0"
     inkscape:pageshadow="2"
     inkscape:window-width="1366"
     inkscape:window-height="706"
     id="namedview4"
     showgrid="true"
     inkscape:zoom="10.871767"
     inkscape:cx="21.099635"
     inkscape:cy="23.066598"
     inkscape:window-x="0"
     inkscape:window-y="0"
     inkscape:window-maximized="1"
     inkscape:current-layer="g1029"
     inkscape:snap-page="true"
     inkscape:snap-smooth-nodes="true"
     inkscape:snap-global="true">
    <inkscape:grid
       type="xygrid"
       id="grid828" />
  </sodipodi:namedview>
  <g
     id="g1029"
     transform="translate(1,14)"
     style="opacity:1">
    <path
       transform="matrix(0.17315572,0,0,0.125,9.2044236,12.35751)"
       sodipodi:nodetypes="sssssss"
       inkscape:connector-curvature="0"
       id="rect4554"
       d="M -46.991242,13.13992 H 113.20997 c 2.216,0 4,0.8652 4,1.94 0,1.0747 -1.78433,1.902 -4,1.94 -36.945184,0.6329 -120.9042545,0.7782 -160.201212,0 -2.215566,-0.044 -4,-0.8653 -4,-1.94 0,-1.0748 1.784,-1.94 4,-1.94 z"
       style="display:inline;opacity:0.55428569;fill:#000000;fill-opacity:1;stroke:none;filter:url(#filter4724);enable-background:new" />
    <rect
       transform="matrix(0.125,0,0,0.25614775,-0.125,-251.09298)"
       style="display:inline;opacity:0.57714281;fill:url(#linearGradient4630);fill-opacity:1;stroke:none;filter:url(#filter4584);enable-background:new"
       id="rect4578"
       width="233.99997"
       height="4.3919702"
       x="3.0000281"
       y="1032.4822"
       rx="2.4399951"
       ry="1.9266627" />
    <path
       sodipodi:nodetypes="sscsssssscss"
       inkscape:connector-curvature="0"
       id="rect832"
       d="m 1,-11 c -0.5,0 -0.48341039,0.383873 -0.5,0.5 L 0,-9 v 7.5 c 0,0.554 0.45059681,0.92878107 1,1 L 28,3 c 0.549403,0.071219 1,-0.446 1,-1 V -9 c 0,-0.554 -0.446,-1 -1,-1 H 7.9042969 C 7.8200962,-10.485951 7.7262959,-11 7.5,-11 Z"
       style="opacity:1;fill:#3b6ca9;fill-opacity:1;stroke:none;stroke-width:1;stroke-miterlimit:4;stroke-dasharray:none;stroke-opacity:1" />
    <path
       sodipodi:nodetypes="sscscccccccccssscss"
       inkscape:connector-curvature="0"
       id="path875"
       d="m 1,-11 c -0.5,0 -0.4629045,0.388713 -0.5,0.5 L 0,-9 v 7.5 c 0,0.554 0.446,1 1,1 V -9 l 0.5,-1 h 5.3828125 c 0.013345,0.068527 0.023996,0.094239 0.037109,0.1699219 C 7.0025947,-9.3508586 7.4179989,-9.0005674 7.9042969,-9 H 9 28 V 3 c 0.554,0 1,-0.446 1,-1 V -9 c 0,-0.554 -0.446,-1 -1,-1 H 7.9042969 C 7.8200962,-10.485951 7.7262959,-11 7.5,-11 Z"
       style="opacity:0.25;fill:url(#linearGradient906);fill-opacity:1;stroke:none;stroke-width:1;stroke-miterlimit:4;stroke-dasharray:none;stroke-opacity:1" />
    <path
       mask="none"
       transform="matrix(0.14830504,0,0,0.14830504,-0.59322015,-146.2721)"
       clip-path="url(#clipPath1180)"
       sodipodi:nodetypes="ccccssccc"
       inkscape:connector-curvature="0"
       id="path3822"
       d="m 56.984419,956.41796 -52.9844191,-0.46865 2e-7,23.62035 195.5429199,-0.0204 v -26.85749 c 0,-2.54081 -2.98686,-7.17388 -5.54823,-7.16756 l -125.937528,0.31081 c -9.375263,0 -4.139978,10.43168 -11.072743,10.58369 z"
       style="display:inline;fill:#16375b;fill-opacity:0.80147059;fill-rule:nonzero;stroke:none;filter:url(#filter4747);enable-background:new" />
    <path
       sodipodi:nodetypes="sccssssssss"
       inkscape:connector-curvature="0"
       id="rect830"
       d="m 1,-3 h 7 l 2,-2 h 19 c 0.554,0 1.016287,0.4462395 1,1 l -0.5,17 c -0.01629,0.55376 -0.446,1 -1,1 H 1.5 C 0.946,14 0.51845639,13.553692 0.5,13 L 0,-2 c -0.01845642,-0.5536925 0.44599999,-1 1,-1 z"
       style="opacity:1;fill:url(#linearGradient840);fill-opacity:1;stroke:none;stroke-width:1;stroke-miterlimit:4;stroke-dasharray:none;stroke-opacity:1" />
    <path
       style="opacity:1;fill:#385da4;fill-opacity:1;stroke:none;stroke-width:1.34629118;stroke-miterlimit:4;stroke-dasharray:none;stroke-opacity:1"
       d="M 1.3671875 23 L 1.4003906 24 L 30 24 L 30 23 L 1.3671875 23 z "
       transform="translate(-1,-14)"
       id="rect846" />
    <path
       style="opacity:1;fill:url(#linearGradient856);fill-opacity:1;stroke:none;stroke-width:1.34629118;stroke-miterlimit:4;stroke-dasharray:none;stroke-opacity:1"
       d="M 1.3671875 23 L 1.4003906 24 L 30.587891 24 L 30.617188 23 L 1.3671875 23 z "
       transform="translate(-1,-14)"
       id="rect848" />
    <path
       style="opacity:1;fill:#a4c0e8;fill-opacity:1;stroke:none;stroke-width:1.34629118;stroke-miterlimit:4;stroke-dasharray:none;stroke-opacity:1"
       d="M 1.4003906 24 L 1.4160156 24.5 L 30.574219 24.5 L 30.587891 24 L 1.4003906 24 z "
       transform="translate(-1,-14)"
       id="rect858" />
    <path
       sodipodi:nodetypes="ccsscsccscssc"
       inkscape:connector-curvature="0"
       id="path860"
       d="M 10,-5 8,-3 H 1 c -0.554,0 -1,0.446 -1,1 v 1 c 0,-0.554 0.44600003,-1 1,-1 h 7 l 2,-2 h 19 c 0.554,0 1,0.446 1,1 v -1 c 0,-0.554 -0.446,-1 -1,-1 z"
       style="opacity:1;fill:#a4c0e8;fill-opacity:1;stroke:none;stroke-width:1;stroke-miterlimit:4;stroke-dasharray:none;stroke-opacity:1" />
    <path
       sodipodi:nodetypes="ccccc"
       inkscape:connector-curvature="0"
       id="rect869"
       d="m 2,-9 h 4.5 v 0.9999999 H 2 Z"
       style="opacity:1;fill:#fcf9e9;fill-opacity:1;stroke:none;stroke-width:1.02169669;stroke-miterlimit:4;stroke-dasharray:none;stroke-opacity:1" />
    <path
       sodipodi:nodetypes="ccccc"
       inkscape:connector-curvature="0"
       id="rect871"
       d="m 5.5,-8.9999999 h 1 V -8 h -1 z"
       style="opacity:1;fill:#fbc66d;fill-opacity:1;stroke:none;stroke-width:0.48163241;stroke-miterlimit:4;stroke-dasharray:none;stroke-opacity:1" />
    <path
       sodipodi:nodetypes="sccccccs"
       inkscape:connector-curvature="0"
       id="rect4652"
       d="M 0.9980469,-2.9902344 C 0.4475094,-2.9902344 0.0055271,-2.5491828 0,-2 l 0.5019531,15.009766 c 2.3e-4,0.02285 0.011948,0.042 0.013672,0.06445 C 0.553734,13.395281 1.2666734,13.99797 1.5,14 H 1.50195 L 0.9999969,-2.9902344 Z"
       style="display:inline;opacity:0.59428573;fill:url(#linearGradient4614);fill-opacity:1;stroke:none;stroke-width:0.12499997;enable-background:new" />
    <path
       id="rect4654"
       d="m 29,-5 -0.5,19 c 0.554,0 0.978702,-0.565256 1,-1.266667 L 30,-3.7333333 C 30.021298,-4.4347434 29.554,-5 29,-5 Z"
       style="display:inline;opacity:0.40571433;fill:url(#linearGradient4622);fill-opacity:1;stroke:none;stroke-width:0.12812202;enable-background:new"
       inkscape:connector-curvature="0"
       sodipodi:nodetypes="ccssc" />
    <path
       style="opacity:1;fill:#a4c0e8;fill-opacity:1;stroke:none;stroke-width:1;stroke-miterlimit:4;stroke-dasharray:none;stroke-opacity:1"
       d="m 2,3.2125582 c -0.5,0 -0.4629045,0.388713 -0.5,0.5 l -0.5,1.5 v 0.5 l 0.5,-1.5 c 0.037095,-0.111287 0,-0.5 0.5,-0.5 h 6.5 c 0.2262959,0 0.3200962,0.514049 0.4042969,1 H 29 c 0.554,0 1,0.446 1,1 v -0.5 c 0,-0.554 -0.446,-1 -1,-1 H 8.9042969 c -0.084201,-0.485951 -0.178001,-1 -0.4042969,-1 z"
       transform="translate(-1,-14)"
       id="path1174"
       inkscape:connector-curvature="0"
       sodipodi:nodetypes="sccccsscscsscss" />
  </g>
</svg>
