<?xml version="1.0" encoding="UTF-8" standalone="no"?>
<svg
   xmlns:dc="http://purl.org/dc/elements/1.1/"
   xmlns:cc="http://creativecommons.org/ns#"
   xmlns:rdf="http://www.w3.org/1999/02/22-rdf-syntax-ns#"
   xmlns:svg="http://www.w3.org/2000/svg"
   xmlns="http://www.w3.org/2000/svg"
   xmlns:xlink="http://www.w3.org/1999/xlink"
   xmlns:sodipodi="http://sodipodi.sourceforge.net/DTD/sodipodi-0.dtd"
   xmlns:inkscape="http://www.inkscape.org/namespaces/inkscape"
   width="24"
   height="24"
   version="1.1"
   id="svg9"
   sodipodi:docname="flameshot-tray.svg"
   inkscape:version="0.92.5 (2060ec1f9f, 2020-04-08)"
   inkscape:export-filename="/home/rizmut/Dokumen/Rizmut/Github/karasa-jaga-icon-theme/build/Karasa-Jaga/24x24/status/flameshot-tray.png"
   inkscape:export-xdpi="96"
   inkscape:export-ydpi="96">
  <metadata
     id="metadata13">
    <rdf:RDF>
      <cc:Work
         rdf:about="">
        <dc:format>image/svg+xml</dc:format>
        <dc:type
           rdf:resource="http://purl.org/dc/dcmitype/StillImage" />
        <dc:title></dc:title>
      </cc:Work>
    </rdf:RDF>
  </metadata>
  <sodipodi:namedview
     pagecolor="#ffffff"
     bordercolor="#666666"
     borderopacity="1"
     objecttolerance="10"
     gridtolerance="10"
     guidetolerance="10"
     inkscape:pageopacity="0"
     inkscape:pageshadow="2"
     inkscape:window-width="1366"
     inkscape:window-height="700"
     id="namedview11"
     showgrid="true"
     inkscape:zoom="27.812867"
     inkscape:cx="9.8706799"
     inkscape:cy="15.146303"
     inkscape:window-x="0"
     inkscape:window-y="0"
     inkscape:window-maximized="1"
     inkscape:current-layer="svg9">
    <inkscape:grid
       type="xygrid"
       id="grid820" />
  </sodipodi:namedview>
  <defs
     id="defs3">
    <style
       id="current-color-scheme"
       type="text/css">
        .ColorScheme-Text {
            color:#232629;
        }
        </style>
    <linearGradient
       gradientTransform="translate(-579.5,-956.86377)"
       id="a"
       gradientUnits="userSpaceOnUse"
       x1="604.28387"
       x2="607.02228"
       y1="953.22522"
       y2="1087.0605">
      <stop
         offset="0"
         stop-color="#fff"
         id="stop2" />
      <stop
         offset="1"
         stop-color="#fff"
         stop-opacity="0"
         id="stop4" />
    </linearGradient>
    <linearGradient
       inkscape:collect="always"
       xlink:href="#a"
       id="linearGradient849"
       x1="10"
       y1="0"
       x2="10"
       y2="40"
       gradientUnits="userSpaceOnUse" />
    <filter
       inkscape:collect="always"
       style="color-interpolation-filters:sRGB"
       id="filter882"
       x="-0.061730487"
       width="1.123461"
       y="-0.058363889"
       height="1.1167278">
      <feGaussianBlur
         inkscape:collect="always"
         stdDeviation="0.46307089"
         id="feGaussianBlur884" />
    </filter>
  </defs>
  <path
     style="color:#232629;fill:#0a0a0a;fill-opacity:1;stroke:none;filter:url(#filter882);opacity:0.62"
     d="M 6.7910156 2.9550781 A 1.0374484 1.0374484 0 0 0 5.7734375 4.1210938 L 6.0039062 5.9746094 A 1.0374484 1.0374484 0 0 0 6.0058594 5.9824219 C 6.0058594 5.9824219 6.0921502 6.5066026 5.8378906 7.6953125 C 5.5845447 8.8797499 4.9506926 10.63397 3.9921875 12.115234 L 4.0058594 12.097656 C 3.3404144 13.078359 3.0259033 14.007059 3.0019531 14.867188 C 2.978003 15.727315 3.2235623 16.454662 3.4628906 17.085938 C 3.9720681 18.428994 4.7928972 19.706233 5.7148438 20.804688 A 1.0374484 1.0374484 0 0 0 5.7148438 20.806641 L 6.4042969 21.626953 A 1.0374484 1.0374484 0 0 0 8.2089844 21.195312 L 8.4550781 20.146484 A 1.0374484 1.0374484 0 0 0 8.4609375 20.123047 C 8.4609375 20.123047 8.4506743 20.113823 8.5625 19.908203 C 8.6743257 19.702583 8.8879989 19.383924 9.2988281 19.017578 C 10.108974 18.295151 11.660038 17.413252 14.904297 17.333984 L 15.037109 17.333984 A 1.0374484 1.0374484 0 0 0 15.619141 17.15625 L 15.734375 17.078125 C 21.057426 13.57626 20.996187 6.777675 20.996094 6.7675781 L 20.996094 6.7617188 L 21.003906 5.109375 A 1.0374484 1.0374484 0 0 0 19.128906 4.4921875 L 18.175781 5.7988281 C 17.197547 6.9992823 15.985441 7.5317257 15.320312 7.7871094 C 15.132741 6.1214252 14.685905 4.7878994 14.683594 4.7832031 L 14.681641 4.7792969 L 14.123047 3.609375 A 1.0374484 1.0374484 0 0 0 12.193359 3.7597656 L 11.824219 5 C 11.823471 5.0024059 11.287832 6.172418 10.123047 6.9765625 C 9.5149618 5.8752709 8.7890625 4.7929686 8.7890625 4.7929688 L 7.6074219 3.3378906 A 1.0374484 1.0374484 0 0 0 6.7910156 2.9550781 z M 6.8027344 3.9921875 L 7.984375 5.4472656 C 7.984375 5.4472656 8.86404 6.527359 9.5058594 7.9433594 C 9.5874484 8.1233633 9.6483198 8.3231054 9.7207031 8.5136719 L 10.056641 8.3378906 C 12.183496 7.4134647 12.818359 5.296875 12.818359 5.296875 L 13.1875 4.0566406 L 13.748047 5.2304688 C 13.748047 5.2304686 14.636944 7.0755099 14.441406 9.296875 L 14.988281 9.0449219 C 14.988281 9.0449219 17.430197 8.3611444 18.984375 6.4492188 L 19.966797 5.1035156 L 19.958984 6.7617188 C 19.958984 6.7617186 19.962035 13.054505 15.164062 16.210938 L 15.037109 16.296875 L 14.878906 16.296875 C 11.448314 16.380695 9.6112559 17.35074 8.609375 18.244141 C 7.6074925 19.137542 7.4453125 19.910156 7.4453125 19.910156 L 7.1992188 20.958984 L 6.5097656 20.138672 C 5.649691 19.113935 4.8876397 17.916386 4.4335938 16.71875 C 3.9795477 15.521114 3.6934404 14.403747 4.8632812 12.679688 C 5.9081219 11.065001 6.5699499 9.2286987 6.8515625 7.9121094 C 7.1331751 6.5955193 7.0332031 5.8457031 7.0332031 5.8457031 L 6.8027344 3.9921875 z M 13.261719 6.7539062 C 12.964282 7.4791404 12.464906 8.3870538 10.457031 9.2597656 L 10.017578 9.4296875 C 10.082323 9.7068909 10.13559 9.9871679 10.15625 10.273438 C 10.215745 11.097791 10.055048 11.96623 9.4980469 12.699219 C 8.8648739 13.532447 8.4340807 14.259422 8.09375 14.929688 C 8.2007772 14.815639 8.2947932 14.695458 8.4179688 14.589844 C 9.2114205 13.909516 10.080092 13.495573 10.826172 13.091797 C 11.568795 12.689891 12.180418 12.306845 12.582031 11.726562 C 13.958996 9.4853374 13.393573 7.737102 13.261719 6.7539062 z M 8.0546875 7.4882812 C 7.7545412 9.5547992 6.6589329 11.929328 5.8105469 13.134766 C 4.9621605 14.340203 5.0420314 15.303284 5.4394531 16.351562 C 5.5975693 16.768625 6.1933594 17.587891 6.1933594 17.587891 C 6.1933594 17.587891 6.1501549 17.439963 6.1699219 17.291016 C 6.3452217 15.9693 6.990163 14.231149 8.6425781 12.056641 C 9.0199365 11.560053 9.1323805 10.995052 9.0859375 10.351562 C 9.039495 9.7080758 8.81877 9.0073809 8.53125 8.3730469 C 8.2941602 7.8499686 8.297216 7.8674015 8.0546875 7.4882812 z M 18.761719 8.2363281 C 17.43951 9.2855151 15.322266 10.007812 15.322266 10.007812 L 14.705078 10.248047 L 14.701172 10.238281 L 14.242188 10.410156 C 14.188397 10.617056 14.105842 10.825242 14.029297 11.033203 A 1.0374484 1.0374484 0 0 0 14.693359 11.285156 L 14.605469 11.380859 L 14.115234 11.566406 L 13.970703 11.205078 C 13.825723 11.565515 13.652081 11.925202 13.416016 12.279297 L 13.408203 12.279297 C 12.857545 13.081297 12.081219 13.556306 11.304688 13.976562 C 10.528151 14.39682 9.7451535 14.776003 9.0761719 15.349609 C 8.3823338 15.944526 7.9902067 16.782652 7.7773438 17.527344 C 7.7716648 17.547224 7.771045 17.560348 7.765625 17.580078 C 7.8064799 17.538598 7.8321329 17.505498 7.8886719 17.455078 C 9.0465963 16.42253 11.206874 15.484804 14.570312 15.326172 C 17.9675 12.914879 18.442586 9.6205192 18.761719 8.2363281 z M 12.316406 9.2480469 C 12.251062 9.8159278 12.165437 10.396358 11.707031 11.152344 C 11.593864 11.311239 11.275189 11.473686 11.072266 11.626953 C 11.175976 11.142934 11.224391 10.656245 11.191406 10.199219 C 11.186645 10.133241 11.169224 10.081535 11.162109 10.017578 C 11.655543 9.7763668 11.966049 9.5117652 12.316406 9.2480469 z M 17.044922 10.425781 C 16.581463 11.717575 15.816533 13.094107 14.09375 14.365234 C 13.314733 14.420461 12.727316 14.594803 12.064453 14.724609 C 12.724155 14.35508 13.417856 13.860137 14.009766 13.128906 A 1.0374484 1.0374484 0 0 0 14.279297 12.855469 C 14.634802 12.322216 14.807695 11.780706 14.992188 11.244141 A 1.0374484 1.0374484 0 0 0 15.082031 11.214844 L 15.65625 10.990234 L 15.699219 10.974609 C 15.735188 10.962985 16.281974 10.77105 17.044922 10.425781 z "
     id="path851" />
  <path
     style="color:#232629;fill:url(#linearGradient849);stroke:none;fill-opacity:1"
     d="M 6.8027344 3.9921875 L 7.0332031 5.8457031 C 7.0332031 5.8457031 7.1331751 6.5955193 6.8515625 7.9121094 C 6.5699499 9.2286987 5.9081219 11.065001 4.8632812 12.679688 C 3.6934404 14.403748 3.9795477 15.521114 4.4335938 16.71875 C 4.8876397 17.916386 5.649691 19.113935 6.5097656 20.138672 L 7.1992188 20.958984 L 7.4453125 19.910156 C 7.4453125 19.910156 7.6074925 19.137542 8.609375 18.244141 C 9.6112559 17.35074 11.448314 16.380695 14.878906 16.296875 L 15.037109 16.296875 L 15.164062 16.210938 C 19.962035 13.054505 19.958984 6.7617186 19.958984 6.7617188 L 19.966797 5.1035156 L 18.984375 6.4492188 C 17.430197 8.3611444 14.988281 9.0449219 14.988281 9.0449219 L 14.441406 9.296875 C 14.636944 7.0755099 13.748047 5.2304687 13.748047 5.2304688 L 13.1875 4.0566406 L 12.818359 5.296875 C 12.818359 5.296875 12.183496 7.4134647 10.056641 8.3378906 L 9.7207031 8.5136719 C 9.6483198 8.3231054 9.5874484 8.1233633 9.5058594 7.9433594 C 8.86404 6.527359 7.984375 5.4472656 7.984375 5.4472656 L 6.8027344 3.9921875 z M 13.261719 6.7539062 C 13.393573 7.737102 13.958996 9.4853369 12.582031 11.726562 C 12.180418 12.306845 11.568795 12.689891 10.826172 13.091797 C 10.080092 13.495573 9.2114205 13.909516 8.4179688 14.589844 C 8.2947932 14.695458 8.2007772 14.81564 8.09375 14.929688 C 8.4340807 14.259423 8.8648739 13.532447 9.4980469 12.699219 C 10.055048 11.96623 10.215745 11.097791 10.15625 10.273438 C 10.13559 9.9871684 10.082323 9.7068909 10.017578 9.4296875 L 10.457031 9.2597656 C 12.464906 8.3870538 12.964282 7.4791404 13.261719 6.7539062 z M 8.0546875 7.4882812 C 8.297216 7.8674015 8.2941602 7.8499686 8.53125 8.3730469 C 8.81877 9.0073809 9.039495 9.7080753 9.0859375 10.351562 C 9.1323805 10.995051 9.0199365 11.560053 8.6425781 12.056641 C 6.990163 14.231149 6.3452217 15.9693 6.1699219 17.291016 C 6.1501549 17.439963 6.1933594 17.587891 6.1933594 17.587891 C 6.1933594 17.587891 5.5975693 16.768625 5.4394531 16.351562 C 5.0420314 15.303284 4.9621605 14.340203 5.8105469 13.134766 C 6.6589329 11.929328 7.7545412 9.5547992 8.0546875 7.4882812 z M 18.761719 8.2363281 C 18.442586 9.6205192 17.9675 12.914879 14.570312 15.326172 C 11.206874 15.484804 9.0465963 16.42253 7.8886719 17.455078 C 7.8321329 17.505498 7.8064799 17.538598 7.765625 17.580078 C 7.771045 17.560348 7.7716648 17.547224 7.7773438 17.527344 C 7.9902067 16.782652 8.3823338 15.944526 9.0761719 15.349609 C 9.7451535 14.776003 10.528152 14.39682 11.304688 13.976562 C 12.08122 13.556305 12.857545 13.081297 13.408203 12.279297 L 13.416016 12.279297 C 13.825809 11.664613 14.080311 11.032796 14.242188 10.410156 L 14.701172 10.238281 L 14.705078 10.248047 L 15.322266 10.007812 C 15.322266 10.007812 17.43951 9.2855151 18.761719 8.2363281 z "
     id="path5" />
</svg>
