<svg height="16" viewBox="0 0 4.2333332 4.2333335" width="16" xmlns="http://www.w3.org/2000/svg" xmlns:xlink="http://www.w3.org/1999/xlink"><filter id="a" color-interpolation-filters="sRGB" height="1.127088" width="1.113661" x="-.056831" y="-.063544"><feGaussianBlur stdDeviation=".39805431"/></filter><g fill-rule="evenodd" transform="matrix(.24632708 0 0 .24632708 .146049 .14606)"><path d="m7.8925781.48632812c-.6518985.0355074-1.2464274.39879719-1.5722656.96484378h.00195l-6.46679375 11.1660161a.76178985.76178985 0 0 0 -.001953 0c-.34437222.596197-.34529896 1.336842 0 1.933593.34553796.597174.9878699.967476 1.67773435.966797h12.9355469c.690201.000918 1.334195-.369695 1.679687-.966797.345323-.596813.344194-1.337482 0-1.933593a.76178985.76178985 0 0 0 -.002 0l-6.4667496-11.1660161c-.3656502-.6341448-1.0585915-1.00477081-1.7851563-.96484378zm.0410157.75976568c.4434594-.0243695.8645211.2012655 1.0859374.5859374l6.4667968 11.1660158c.210064.363812.210415.808219 0 1.171875-.210415.363653-.597166.586496-1.017578.585937h-12.9375c-.4204103.000414-.80716036-.222284-1.01757812-.585937-.21042266-.363656-.21014265-.808063 0-1.171875l6.46679692-11.1660158c.1984921-.3448207.55559-.5642846.953125-.5859374zm-1.0234376 2.8300781v6.4023441h2.1796876v-6.4023441zm.7617188.7617187h.65625v4.8789063h-.65625zm.328125 6.6250004c-.3036209.000002-.5622235.06891-.7734375.208984-.2112067.140081-.316408.630667-.3164063.832031-.0000018.192611.1051924.677346.3164063.826172.211214.140088.4698166.208984.7734375.208984.3036192.000001.5622199-.06891.7734375-.208984.2112085-.148835.3164027-.633561.3164063-.826172-.0000036-.201364-.1051942-.691953-.3164063-.832031-.2112176-.140088-.4698183-.208982-.7734375-.208984zm-.2382812.759765c-.00205.0013-.016618.02723-.029297.04687.06267-.0251.1395158-.04492.2675781-.04492.1280733.000002.2049123.01982.2675781.04492-.032817-.05084-.068555-.06406.083984.03711-.021908-.01453-.054469-.02529-.083984-.03711.00746.01155.012343.01092.017578.02734.028276.0887.042969.238975.042969.207031.0000008-.04235-.014483.108694-.042969.197266-.0052.01615.00227.01268.00586.01367.00634-.0034.015389-.0063.021484-.0098-.00137.000968-.014029.01182-.021484.0098-.063285.03387-.1388975.0625-.2910156.0625-.152136 0-.2277482-.02864-.2910156-.0625-.00745.0021-.020113-.0088-.021484-.0098.00609.0035.015144.0064.021484.0098.00359-.000991.011055.0025.00586-.01367-.028484-.08857-.042968-.239636-.042969-.197266.0000003.03197.014692-.118326.042969-.207031.00524-.01642.010122-.01579.017578-.02734-.029517.01182-.062072.02258-.083984.03711.093594-.06208.1165436-.08597.1132813-.08399z" fill="#0a0a0a" filter="url(#a)"/><path d="m7.93442 1.2466649c-.3975349.0216528-.7548396.2411726-.9533317.5859934l-6.46779511 11.1644867c-.21014264.363812-.21042265.808331 0 1.171987.21041776.363653.59851811.586408 1.01892841.585994h12.9355874c.420412.000559.808515-.222341 1.01893-.585994.210415-.363656.210064-.808175 0-1.171987l-6.4677936-11.1644867c-.2214164-.3846719-.6410659-.6103628-1.0845254-.5859934zm-1.0233017 2.829387h2.1777971v6.4021961h-2.1777971zm1.0888976 7.3861401c.3036192.000002.5628189.06982.7740365.209908.2112121.140078.3148594.629522.314863.830886-.0000036.192611-.1036545.677679-.314863.826514-.2112176.140078-.4704173.209908-.7740365.209908-.3036209 0-.5628224-.06982-.7740364-.209908-.2112139-.148826-.314863-.633903-.3148612-.826514-.0000018-.201364.1036545-.690805.3148612-.830886.211214-.140077.4704155-.209906.7740364-.209908z" fill="#ff7b1d"/></g></svg>