<svg height="16" viewBox="0 0 4.2333333 4.2333335" width="16" xmlns="http://www.w3.org/2000/svg" xmlns:xlink="http://www.w3.org/1999/xlink"><linearGradient id="a" gradientUnits="userSpaceOnUse" x1="305.14999" x2="320.8219" y1="122.01445" y2="122.01445"><stop offset="0" stop-color="#7b7b7b"/><stop offset="1" stop-color="#515151"/></linearGradient><path d="m308.4986 119.5635-2.9986-.0367v9.9744h10v-2.7702m-7.0652-5.4166h-.9348v6.2117h6.1875v-.9401m4.752-6.0824c0 2.1757-1.7649 3.9416-3.9395 3.9416-2.1745 0-3.9394-1.7659-3.9394-3.9416 0-2.1759 1.7649-3.9417 3.9394-3.9417 2.1746 0 3.9395 1.7658 3.9395 3.9417zm2.0324-.004c0 3.2964-2.6754 5.9719-5.9719 5.9719s-5.9719-2.6755-5.9719-5.9719c0-3.2965 2.6754-5.9719 5.9719-5.9719s5.9719 2.6754 5.9719 5.9719z" fill="none" stroke="url(#a)" stroke-linecap="round" stroke-linejoin="round" transform="matrix(.264583325 0 0 .264583325 -80.69419625 -30.1663225)"/></svg>