<svg height="16" viewBox="0 0 4.2333332 4.2333335" width="16" xmlns="http://www.w3.org/2000/svg" xmlns:xlink="http://www.w3.org/1999/xlink"><linearGradient id="a" gradientUnits="userSpaceOnUse" x1="256.81406" x2="288.85443" y1="120.49628" y2="70.646294"><stop offset="0"/><stop offset="1" stop-opacity="0"/></linearGradient><filter id="b" color-interpolation-filters="sRGB"><feGaussianBlur stdDeviation="1.6571087"/></filter><filter id="c" color-interpolation-filters="sRGB"><feGaussianBlur stdDeviation=".15057073"/></filter><clipPath id="d"><path d="m231.62921 110.99569c17.31393-13.716824 36.96379-26.884018 70.11522-36.87437 0 0-71.69331-78.1187672-88.11522-68.125631-9.69912 5.90215-10.92358 33.871354-4.95379 58.258837 6.14712 25.111882 19.68777 46.575314 22.95379 46.741164z"/></clipPath><radialGradient id="e" cx="253.321" cy="66.658485" gradientTransform="matrix(1 0 0 1.0903226 0 -6.020769)" gradientUnits="userSpaceOnUse" r="27.400387"><stop offset="0" stop-color="#fff"/><stop offset="1" stop-color="#fff" stop-opacity="0"/></radialGradient><filter id="f" color-interpolation-filters="sRGB"><feGaussianBlur stdDeviation="2.2118645"/></filter><linearGradient id="g" gradientUnits="userSpaceOnUse" x1="240.05066" x2="228.19365" y1="24.920795" y2="69.171783"><stop offset="0" stop-color="#0f0"/><stop offset="1" stop-color="#0f0" stop-opacity="0"/></linearGradient><filter id="h" color-interpolation-filters="sRGB" height="1.321594" width="1.235453" x="-.117726" y="-.160797"><feGaussianBlur stdDeviation="5.8271635"/></filter><linearGradient id="i" gradientUnits="userSpaceOnUse" x1="295.57062" x2="262.89542" y1="67.719147" y2="58.963852"><stop offset="0" stop-color="#ff0c0c"/><stop offset="1" stop-color="#f00000"/></linearGradient><filter id="j" color-interpolation-filters="sRGB" height="1.432307" width="1.706359" x="-.353179" y="-.216154"><feGaussianBlur stdDeviation="5.8271635"/></filter><radialGradient id="k" cx="258.32312" cy="88.262062" gradientTransform="matrix(1.1510082 -.66453489 .35977962 .62315659 -73.821372 213.90449)" gradientUnits="userSpaceOnUse" r="41.365746"><stop offset="0" stop-color="#ff0cec"/><stop offset="1" stop-color="#ff0cec" stop-opacity="0"/></radialGradient><filter id="l" color-interpolation-filters="sRGB" height="1.565087" width="1.338086" x="-.169043" y="-.282544"><feGaussianBlur stdDeviation="5.8271635"/></filter><radialGradient id="m" cx="276.30197" cy="61.70874" fx="279.1304" fy="71.516762" gradientTransform="matrix(2.1404584 0 0 1.7746318 -315.1109 -47.801551)" gradientUnits="userSpaceOnUse" r="28.961044"><stop offset="0" stop-color="#ff980c"/><stop offset="1" stop-color="#ff980c" stop-opacity="0"/></radialGradient><filter id="n" color-interpolation-filters="sRGB" height="1.594829" width="1.49138" x="-.24569" y="-.297414"><feGaussianBlur stdDeviation="5.8271635"/></filter><radialGradient id="o" cx="223.7993" cy="64.006836" gradientTransform="matrix(1.7198557 0 0 1.8516856 -161.10321 -54.513697)" gradientUnits="userSpaceOnUse" r="41.512196"><stop offset="0" stop-color="#00ffe6"/><stop offset="1" stop-color="#00ffe6" stop-opacity="0"/></radialGradient><filter id="p" color-interpolation-filters="sRGB" height="1.316449" width="1.276715" x="-.138358" y="-.158224"><feGaussianBlur stdDeviation="5.8271635"/></filter><radialGradient id="q" cx="226.29558" cy="102.51125" gradientTransform="matrix(1.320262 .7622536 -.93961452 1.6274601 26.300653 -229.36669)" gradientUnits="userSpaceOnUse" r="32.880466"><stop offset="0" stop-color="#002aff"/><stop offset="1" stop-color="#002aff" stop-opacity="0"/></radialGradient><filter id="r" color-interpolation-filters="sRGB" height="1.380266" width="1.425335" x="-.212667" y="-.190133"><feGaussianBlur stdDeviation="5.8271635"/></filter><radialGradient id="s" cx="257.91721" cy="51.729225" gradientTransform="matrix(.8660254 .5 -1.3425161 2.325306 104.00167 -192.13233)" gradientUnits="userSpaceOnUse" r="25.27907"><stop offset="0" stop-color="#f5ff00"/><stop offset="1" stop-color="#f5ff00" stop-opacity=".152466"/></radialGradient><filter id="t" color-interpolation-filters="sRGB" height="1.325565" width="1.553232" x="-.276616" y="-.162782"><feGaussianBlur stdDeviation="5.8271635"/></filter><mask id="u" maskUnits="userSpaceOnUse"><path clip-path="url(#v)" d="m139.3 212.5v194.5h215.5v-194.5zm77.8125 35.28125c21.4077.34829 84.4375 69 84.4375 69-33.15143 9.99035-52.81107 23.15818-70.125 36.875-3.26602-.16585-16.79038-21.63812-22.9375-46.75-5.96979-24.38749-4.76162-52.34785 4.9375-58.25 1.02637-.62457 2.26032-.89822 3.6875-.875z" fill="#fff" filter="url(#w)" transform="translate(0 -244.65895)"/></mask><clipPath id="v"><path d="m217.3125 249.78125c21.4077.34829 84.4375 69 84.4375 69-33.15143 9.99035-52.81107 23.15818-70.125 36.875-3.26602-.16585-16.79038-21.63812-22.9375-46.75-5.96979-24.38749-4.76162-52.34785 4.9375-58.25 1.02637-.62457 2.26032-.89822 3.6875-.875z"/></clipPath><filter id="w" color-interpolation-filters="sRGB"><feGaussianBlur stdDeviation="2.9166667"/></filter><filter id="x" color-interpolation-filters="sRGB"><feBlend in2="SourceGraphic" mode="multiply"/></filter><g transform="matrix(.03185252 0 0 .03185252 -5.82612 .06965)"><path d="m228.04194 39.35325 58.0284 39.731085-17.31659 20.144521-35.05496 11.718954c-12.61076-13.593556-30.14058-37.82811-5.65685-71.59456z" fill="url(#a)" filter="url(#b)" opacity=".53719" transform="translate(-.000003 -.000002)"/><path d="m217.30664 5.4921875c-1.37674-.022399-2.53493.240943-3.49023.8222656-2.3174 1.4101923-4.18148 4.1872459-5.54883 7.9765629s-2.2387 8.575258-2.6211 13.943359c-.76479 10.736202.42264 23.802373 3.39844 35.958984 3.0645 12.518916 7.9717 24.13474 12.51563 32.628907 2.27196 4.247084 4.45505 7.715394 6.26172 10.119144.90333 1.20187 1.7131 2.13756 2.38281 2.76562.61121.5732 1.09556.83035 1.34375.88477 17.19157-13.605974 36.78657-26.680862 69.53515-36.634769-.59404-.64596-15.71185-17.070435-33.77539-33.93164-9.21033-8.59728-19.08952-17.203837-27.98828-23.673829-8.89875-6.4699905-16.8553-10.77545-22.01367-10.8593745z" fill="#fff" filter="url(#c)"/><g clip-path="url(#d)"><ellipse cx="253.321" cy="66.658485" fill="url(#e)" filter="url(#f)" opacity=".8" rx="27.400387" ry="29.875261"/><path d="m277.53941 34.308352c-.35355 1.767766-24.39518 35.001785-24.39518 35.001785l-94.39876-32.880465 42.07286-54.093669c29.88933.870742 61.38224-4.372162 76.72108 51.972349z" fill="url(#g)" filter="url(#h)"/><path d="m288.85312 38.197439c-.70711 2.828427-14.84924 64.700271-14.84924 64.700271l39.59798-2.47487-4.5962-61.164741z" fill="url(#i)" filter="url(#j)"/><path d="m306.53079 90.876894-30.05204-15.909903-32.17336 2.828428s-10.25305 7.778174-10.25305 9.545941-10.25304 35.00179-10.25304 35.00179l29.69848 2.12132z" fill="url(#k)" filter="url(#l)"/><path d="m276.83231 26.883731-28.99138 58.336309 28.30508-4.449748 28.61701-25.248737z" fill="url(#m)" filter="url(#n)"/><path d="m182.65106-3.8858218c24.57537 16.7031288 50.42777 30.4265148 71.26094 55.8614348l-9.60661 32.890873-33.58757 23.334524c-56.40553-27.91019-57.27604-81.354175-28.06676-112.0868318z" fill="url(#o)" filter="url(#p)"/><path d="m246.42671 72.492118c-3.53553-.707107-65.76093 22.627417-65.76093 22.627417l5.65686 50.911685 56.92209-1.06066z" fill="url(#q)" filter="url(#r)"/><path d="m267.63992 1.0743328c-1.06066 2.8284271-25.45585 85.9134742-25.45585 85.9134742l50.55814-61.51829z" fill="url(#s)" filter="url(#t)"/><path d="m306.53079 90.876894-30.05204-15.909903c-9.76108-4.355727-17.6584-.962169-28.67336 1.578428 0 0-13.75305 9.028174-13.75305 10.795941s-10.25304 35.00179-10.25304 35.00179l29.69848 2.12132z" fill="url(#k)" filter="url(#l)" opacity=".483471"/><path d="m172.15106 3.6141782 82.76094 42.3614348-10.60661 38.890873-33.58757 23.334524c-56.40553-27.91019-67.77604-73.854175-38.56676-104.5868318z" fill="url(#o)" filter="url(#p)" opacity=".280992"/><path d="m267.63992 1.0743328c-1.06066 2.8284271-25.45585 85.9134742-25.45585 85.9134742l50.55814-61.51829z" fill="url(#s)" filter="url(#t)" opacity=".396694"/><ellipse cx="253.321" cy="66.658485" fill="url(#e)" filter="url(#f)" opacity=".301653" rx="27.400387" ry="29.875261"/></g><g clip-path="url(#d)" filter="url(#x)" mask="url(#u)" transform="translate(0 .005825)"><ellipse cx="253.321" cy="66.658485" fill="url(#e)" filter="url(#f)" opacity=".8" rx="27.400387" ry="29.875261"/><path d="m277.53941 34.308352c-.35355 1.767766-24.39518 35.001785-24.39518 35.001785l-94.39876-32.880465 42.07286-54.093669c29.88933.870742 61.38224-4.372162 76.72108 51.972349z" fill="url(#g)" filter="url(#h)"/><path d="m288.85312 38.197439c-.70711 2.828427-14.84924 64.700271-14.84924 64.700271l39.59798-2.47487-4.5962-61.164741z" fill="url(#i)" filter="url(#j)"/><path d="m306.53079 90.876894-30.05204-15.909903-32.17336 2.828428s-10.25305 7.778174-10.25305 9.545941-10.25304 35.00179-10.25304 35.00179l29.69848 2.12132z" fill="url(#k)" filter="url(#l)"/><path d="m276.83231 26.883731-28.99138 58.336309 28.30508-4.449748 28.61701-25.248737z" fill="url(#m)" filter="url(#n)"/><path d="m182.65106-3.8858218c24.57537 16.7031288 50.42777 30.4265148 71.26094 55.8614348l-9.60661 32.890873-33.58757 23.334524c-56.40553-27.91019-57.27604-81.354175-28.06676-112.0868318z" fill="url(#o)" filter="url(#p)"/><path d="m246.42671 72.492118c-3.53553-.707107-65.76093 22.627417-65.76093 22.627417l5.65686 50.911685 56.92209-1.06066z" fill="url(#q)" filter="url(#r)"/><path d="m267.63992 1.0743328c-1.06066 2.8284271-25.45585 85.9134742-25.45585 85.9134742l50.55814-61.51829z" fill="url(#s)" filter="url(#t)"/><path d="m306.53079 90.876894-30.05204-15.909903c-9.76108-4.355727-17.6584-.962169-28.67336 1.578428 0 0-13.75305 9.028174-13.75305 10.795941s-10.25304 35.00179-10.25304 35.00179l29.69848 2.12132z" fill="url(#k)" filter="url(#l)" opacity=".483471"/><path d="m172.15106 3.6141782 82.76094 42.3614348-10.60661 38.890873-33.58757 23.334524c-56.40553-27.91019-67.77604-73.854175-38.56676-104.5868318z" fill="url(#o)" filter="url(#p)" opacity=".280992"/><path d="m267.63992 1.0743328c-1.06066 2.8284271-25.45585 85.9134742-25.45585 85.9134742l50.55814-61.51829z" fill="url(#s)" filter="url(#t)" opacity=".396694"/><ellipse cx="253.321" cy="66.658485" fill="url(#e)" filter="url(#f)" opacity=".301653" rx="27.400387" ry="29.875261"/></g><g clip-path="url(#d)"><ellipse cx="253.321" cy="66.658485" fill="url(#e)" filter="url(#f)" opacity=".8" rx="27.400387" ry="29.875261"/><path d="m277.53941 34.308352c-.35355 1.767766-24.39518 35.001785-24.39518 35.001785l-94.39876-32.880465 42.07286-54.093669c29.88933.870742 61.38224-4.372162 76.72108 51.972349z" fill="url(#g)" filter="url(#h)"/><path d="m288.85312 38.197439c-.70711 2.828427-14.84924 64.700271-14.84924 64.700271l39.59798-2.47487-4.5962-61.164741z" fill="url(#i)" filter="url(#j)"/><path d="m306.53079 90.876894-30.05204-15.909903-32.17336 2.828428s-10.25305 7.778174-10.25305 9.545941-10.25304 35.00179-10.25304 35.00179l29.69848 2.12132z" fill="url(#k)" filter="url(#l)"/><path d="m276.83231 26.883731-28.99138 58.336309 28.30508-4.449748 28.61701-25.248737z" fill="url(#m)" filter="url(#n)"/><path d="m182.65106-3.8858218c24.57537 16.7031288 50.42777 30.4265148 71.26094 55.8614348l-9.60661 32.890873-33.58757 23.334524c-56.40553-27.91019-57.27604-81.354175-28.06676-112.0868318z" fill="url(#o)" filter="url(#p)"/><path d="m246.42671 72.492118c-3.53553-.707107-65.76093 22.627417-65.76093 22.627417l5.65686 50.911685 56.92209-1.06066z" fill="url(#q)" filter="url(#r)"/><path d="m267.63992 1.0743328c-1.06066 2.8284271-25.45585 85.9134742-25.45585 85.9134742l50.55814-61.51829z" fill="url(#s)" filter="url(#t)"/><path d="m306.53079 90.876894-30.05204-15.909903c-9.76108-4.355727-17.6584-.962169-28.67336 1.578428 0 0-13.75305 9.028174-13.75305 10.795941s-10.25304 35.00179-10.25304 35.00179l29.69848 2.12132z" fill="url(#k)" filter="url(#l)" opacity=".483471"/><path d="m172.15106 3.6141782 82.76094 42.3614348-10.60661 38.890873-33.58757 23.334524c-56.40553-27.91019-67.77604-73.854175-38.56676-104.5868318z" fill="url(#o)" filter="url(#p)" opacity=".280992"/><path d="m267.63992 1.0743328c-1.06066 2.8284271-25.45585 85.9134742-25.45585 85.9134742l50.55814-61.51829z" fill="url(#s)" filter="url(#t)" opacity=".396694"/><ellipse cx="253.321" cy="66.658485" fill="url(#e)" filter="url(#f)" opacity=".301653" rx="27.400387" ry="29.875261"/></g><g clip-path="url(#d)" filter="url(#x)" mask="url(#u)" transform="translate(0 .005825)"><ellipse cx="253.321" cy="66.658485" fill="url(#e)" filter="url(#f)" opacity=".8" rx="27.400387" ry="29.875261"/><path d="m277.53941 34.308352c-.35355 1.767766-24.39518 35.001785-24.39518 35.001785l-94.39876-32.880465 42.07286-54.093669c29.88933.870742 61.38224-4.372162 76.72108 51.972349z" fill="url(#g)" filter="url(#h)"/><path d="m288.85312 38.197439c-.70711 2.828427-14.84924 64.700271-14.84924 64.700271l39.59798-2.47487-4.5962-61.164741z" fill="url(#i)" filter="url(#j)"/><path d="m306.53079 90.876894-30.05204-15.909903-32.17336 2.828428s-10.25305 7.778174-10.25305 9.545941-10.25304 35.00179-10.25304 35.00179l29.69848 2.12132z" fill="url(#k)" filter="url(#l)"/><path d="m276.83231 26.883731-28.99138 58.336309 28.30508-4.449748 28.61701-25.248737z" fill="url(#m)" filter="url(#n)"/><path d="m182.65106-3.8858218c24.57537 16.7031288 50.42777 30.4265148 71.26094 55.8614348l-9.60661 32.890873-33.58757 23.334524c-56.40553-27.91019-57.27604-81.354175-28.06676-112.0868318z" fill="url(#o)" filter="url(#p)"/><path d="m246.42671 72.492118c-3.53553-.707107-65.76093 22.627417-65.76093 22.627417l5.65686 50.911685 56.92209-1.06066z" fill="url(#q)" filter="url(#r)"/><path d="m267.63992 1.0743328c-1.06066 2.8284271-25.45585 85.9134742-25.45585 85.9134742l50.55814-61.51829z" fill="url(#s)" filter="url(#t)"/><path d="m306.53079 90.876894-30.05204-15.909903c-9.76108-4.355727-17.6584-.962169-28.67336 1.578428 0 0-13.75305 9.028174-13.75305 10.795941s-10.25304 35.00179-10.25304 35.00179l29.69848 2.12132z" fill="url(#k)" filter="url(#l)" opacity=".483471"/><path d="m172.15106 3.6141782 82.76094 42.3614348-10.60661 38.890873-33.58757 23.334524c-56.40553-27.91019-67.77604-73.854175-38.56676-104.5868318z" fill="url(#o)" filter="url(#p)" opacity=".280992"/><path d="m267.63992 1.0743328c-1.06066 2.8284271-25.45585 85.9134742-25.45585 85.9134742l50.55814-61.51829z" fill="url(#s)" filter="url(#t)" opacity=".396694"/><path d="m280.38992 14.574333c-1.06066 2.828427-38.20585 72.413474-38.20585 72.413474l50.55814-61.51829z" fill="url(#s)" filter="url(#t)" opacity=".396694"/><ellipse cx="253.321" cy="66.658485" fill="url(#e)" filter="url(#f)" opacity=".301653" rx="27.400387" ry="29.875261"/></g></g></svg>