<svg height="16" viewBox="0 0 4.2333332 4.2333335" width="16" xmlns="http://www.w3.org/2000/svg" xmlns:xlink="http://www.w3.org/1999/xlink"><linearGradient id="a" gradientTransform="matrix(.00160677 0 0 .00215171 2.276968 -.917832)" gradientUnits="userSpaceOnUse" x1="399.77466" x2="399.77466" xlink:href="#b" y1="1164.6696" y2="549.06134"/><linearGradient id="b"><stop offset="0" stop-color="#b4b4b6"/><stop offset=".5" stop-color="#9c9ca1"/><stop offset="1" stop-color="#cdcdd1"/></linearGradient><linearGradient id="c" gradientUnits="userSpaceOnUse" x1="3.17499971873" x2="3.83746738485" xlink:href="#d" y1="2.050808974" y2=".52916659181"/><linearGradient id="d"><stop offset="0" stop-color="#fff"/><stop offset=".42597079" stop-color="#fff"/><stop offset=".5892781" stop-color="#f1f1f1"/><stop offset=".80219781" stop-color="#eaeaea"/><stop offset="1" stop-color="#dfdfdf"/></linearGradient><linearGradient id="e" gradientTransform="matrix(.0264368 0 0 .02390035 .862526 .146761)" gradientUnits="userSpaceOnUse" x1="102.31124" x2="74.330322" xlink:href="#f" y1="-5.830213" y2="32"/><linearGradient id="f"><stop offset="0" stop-color="#fff"/><stop offset="1" stop-color="#fff" stop-opacity="0"/></linearGradient><linearGradient id="g" gradientTransform="matrix(.00160677 0 0 .0030124 .424885 .461285)" gradientUnits="userSpaceOnUse" x1="399.77466" x2="399.77466" xlink:href="#b" y1="1164.6696" y2="549.06134"/><linearGradient id="h" gradientTransform="matrix(.01105028 0 0 .01837384 .616946 1.866783)" gradientUnits="userSpaceOnUse" x1="83.997162" x2="124.09152" xlink:href="#d" y1="164.27599" y2="27.999992"/><linearGradient id="i" gradientTransform="matrix(.02723552 0 0 .04134114 -1.053527 1.719792)" gradientUnits="userSpaceOnUse" x1="102.31124" x2="74.330322" xlink:href="#f" y1="-5.830213" y2="32"/><linearGradient id="j" gradientTransform="matrix(.00160677 0 0 .00215171 2.276968 .934252)" gradientUnits="userSpaceOnUse" x1="399.77466" x2="399.77466" xlink:href="#b" y1="1164.6696" y2="549.06134"/><linearGradient id="k" gradientUnits="userSpaceOnUse" x1="3.17499971873" x2="3.83746738485" xlink:href="#d" y1="3.902892974" y2="2.38125059181"/><linearGradient id="l" gradientTransform="matrix(.0264368 0 0 .02390035 .862526 1.998844)" gradientUnits="userSpaceOnUse" x1="102.31124" x2="74.330322" xlink:href="#f" y1="-5.830213" y2="32"/><linearGradient id="m" gradientTransform="matrix(.00160677 0 0 .0030124 .424885 -1.390798)" gradientUnits="userSpaceOnUse" x1="399.77466" x2="399.77466" xlink:href="#b" y1="1164.6696" y2="549.06134"/><linearGradient id="n" gradientTransform="matrix(.01105028 0 0 .01837384 .616946 .014699)" gradientUnits="userSpaceOnUse" x1="83.997162" x2="124.09152" xlink:href="#d" y1="164.27599" y2="27.999992"/><linearGradient id="o" gradientTransform="matrix(.02723552 0 0 .04134114 -1.053527 -.132292)" gradientUnits="userSpaceOnUse" x1="102.31124" x2="74.330322" xlink:href="#f" y1="-5.830213" y2="32"/><g transform="translate(-2.116666)"><rect fill="url(#a)" height="1.322917" rx=".094494" ry=".091587" width="1.5875" x="2.38125" y=".264583"/><g fill-rule="evenodd"><rect fill="url(#c)" height=".79375" rx=".049609" ry=".047772" width="1.058333" x="2.645833" y=".529167"/><path d="m3.2814934.5291667c-.2824391.22533443-.5472.46905908-.7121412.7648112h.7195767c.040302-.283147.166114-.53893268.3395478-.7648112z" fill="url(#e)"/></g></g><g transform="translate(-.267076 .264584)"><rect fill="url(#g)" height="1.852083" rx=".094494" ry=".091587" width="1.5875" x=".529167" y="2.116667"/><g fill-rule="evenodd"><rect fill="url(#h)" height="1.322917" rx=".049609" ry=".047772" width="1.060826" x=".79375" y="2.38125"/><path d="m1.4385233 2.38125c-.2909725.3897677-.56373224.8113455-.73365675 1.3229167h.74131675c.0415197-.4897679.1711327-.9322079.3498061-1.3229167z" fill="url(#i)"/></g></g><g transform="translate(0 .264583)"><rect fill="url(#j)" height="1.322917" rx=".094494" ry=".091587" width="1.5875" x="2.38125" y="2.116667"/><g fill-rule="evenodd"><rect fill="url(#k)" height=".79375" rx=".049609" ry=".047772" width="1.058333" x="2.645833" y="2.38125"/><path d="m3.2814934 2.38125c-.2824391.2253345-.5472.4690591-.7121412.7648112h.7195767c.040302-.283147.166114-.5389327.3395478-.7648112z" fill="url(#l)"/></g></g><g transform="translate(1.84959)"><rect fill="url(#m)" height="1.852083" rx=".094494" ry=".091587" width="1.5875" x=".529167" y=".264583"/><g fill-rule="evenodd"><rect fill="url(#n)" height="1.322917" rx=".049609" ry=".047772" width="1.060826" x=".79375" y=".529167"/><path d="m1.4385233.5291667c-.2909725.38976772-.56373224.8113454-.73365675 1.3229167h.74131675c.0415197-.4897679.1711327-.9322079.3498061-1.3229167z" fill="url(#o)"/></g></g></svg>