<svg height="16" viewBox="0 0 16 16" width="16" xmlns="http://www.w3.org/2000/svg" xmlns:xlink="http://www.w3.org/1999/xlink"><linearGradient id="a"><stop offset="0" stop-color="#7c9fcf"/><stop offset=".5" stop-color="#7c9ece"/><stop offset="1" stop-color="#7b9dcf"/></linearGradient><linearGradient id="b" gradientUnits="userSpaceOnUse" x1="64.00014448" x2="64.00014448" y1="118.21885896" y2="8.382498"><stop offset="0" stop-color="#fff"/><stop offset=".4375" stop-color="#fff"/><stop offset=".71875" stop-color="#f1f1f1"/><stop offset=".84375" stop-color="#eaeaea"/><stop offset="1" stop-color="#dfdfdf"/></linearGradient><linearGradient id="c" gradientUnits="userSpaceOnUse" x1="5.101148" x2="122.89871" xlink:href="#a" y1="63.624363" y2="63.624363"/><linearGradient id="d" gradientUnits="userSpaceOnUse" x1="66.565071" x2="22.787996" y1="87.500175" y2="-44.472157"><stop offset="0" stop-color="#fff"/><stop offset=".39715832" stop-color="#fff"/><stop offset=".79970485" stop-color="#f1f1f1"/><stop offset=".90234375" stop-color="#eaeaea"/><stop offset="1" stop-color="#dfdfdf"/></linearGradient><linearGradient id="e" gradientUnits="userSpaceOnUse" x1="-5.896006" x2="38.491138" xlink:href="#a" y1="-44.78648" y2="123.49805"/><g transform="matrix(.10067576625 -.02697599 .02697599 .10067576625 -1.89322075 1.028624)"><path d="m64.228516 7.21875a8.033933 8.033933 0 0 0 -4.947266 1.5292969l-50.8671875 36.9531251a8.033933 8.033933 0 0 0 -2.9199219 8.982422l19.4257814 59.794926a8.033933 8.033933 0 0 0 7.640625 5.55078l62.873047.004a8.033933 8.033933 0 0 0 7.640626-5.55078l19.43164-59.79502a8.033933 8.033933 0 0 0 -2.91797-8.980469l-50.863281-36.957031a8.033933 8.033933 0 0 0 -4.496093-1.53125z" fill="url(#c)"/><path d="m95.433604 112-62.872784-.00294-19.425964-59.796479 50.866879-36.953311 50.863405 36.958072z" fill="url(#b)"/></g><path d="m69.651329 78.391236-44.845039-13.41391-32.3281215 33.851189-1.1004934-46.795293-42.1843321-20.285278 44.164897-15.507172 6.25677024-46.388179 28.39590076 37.2113328 46.051229-8.3841937-26.615265 38.5050409z" style="opacity:.891386;stroke-width:8.67168;stroke-linecap:round;stroke-linejoin:round;stroke-dashoffset:1.0878;fill:url(#d);stroke:url(#e)" transform="matrix(.0793725175 .0454062425 -.04540632875 .07934994 9.79493125 6.2206915)"/></svg>