<svg height="16" viewBox="0 0 16 16" width="16" xmlns="http://www.w3.org/2000/svg" xmlns:xlink="http://www.w3.org/1999/xlink"><linearGradient id="a" gradientUnits="userSpaceOnUse" x1="99.313477" x2="111.6865" y1="210.5" y2="210.5"><stop offset="0" stop-color="#b4b4b6"/><stop offset=".5" stop-color="#9c9ca1"/><stop offset="1" stop-color="#cdcdd1"/></linearGradient><linearGradient id="b" gradientTransform="matrix(.63637437 0 0 .63752362 296.72284 123.49004)" gradientUnits="userSpaceOnUse" x1="103.1433" x2="109.42765" y1="216.02077" y2="208.15129"><stop offset="0" stop-color="#fff"/><stop offset=".42597079" stop-color="#fff"/><stop offset=".5892781" stop-color="#e5e5e5"/><stop offset=".80219781" stop-color="#eaeaea"/><stop offset="1" stop-color="#eee"/></linearGradient><linearGradient id="c" gradientUnits="userSpaceOnUse" x1="47.994141" x2="103.82617" y1="56.083008" y2="56.083008"><stop offset="0" stop-color="#fff"/><stop offset="1" stop-color="#fff" stop-opacity="0"/></linearGradient><g transform="matrix(1.1120890625 0 0 1.1081051875 -395.602925 -276.5984375)"><circle cx="105.5" cy="210.5" r="5.5" style="fill:none;stroke-width:1.373036;stroke-linecap:round;stroke-linejoin:round;stroke-miterlimit:0;stroke:url(#a)" transform="matrix(.727881 0 0 .728748 287.069 104.2892)"/><g fill-rule="evenodd"><ellipse cx="363.86035" cy="257.68878" fill="url(#b)" rx="3.500059" ry="3.50638"/><path d="m97.025391 33.525391c-14.986448 7.713252-33.010579 15.684531-49.007813 17.953125a28.006048 27.956117 0 0 0 -.023437.458984 28.006048 27.956117 0 0 0 19.716797 26.703125c12.994116-8.981726 25.561269-20.058442 36.115232-29.585937a28.006048 27.956117 0 0 0 -6.800779-15.529297z" fill="url(#c)" transform="matrix(.12497512 0 0 .12542443 354.36218 251.17443)"/></g></g><g fill="none" stroke-linecap="square"><g fill-opacity=".952941" stroke="#5fbaff" transform="translate(-679.1341 -99.11638)"><path d="m679.6341 99.61638h1"/><path d="m679.6341 101.61638v1"/><path d="m682.6341 99.61638h1"/><path d="m685.6341 99.61638h1"/><path d="m688.6341 99.61638h1"/><path d="m691.6341 99.61638h1"/><path d="m681.6341 114.61638h1"/><path d="m684.6341 114.61638h1"/><path d="m687.6341 114.61638h1"/><path d="m690.6341 114.61638h1"/><path d="m693.6341 114.61638h1"/><path d="m679.6341 104.61638v1"/><path d="m679.6341 107.61638v1"/><path d="m679.6341 110.61638v1"/><path d="m679.6341 113.61638v1"/><path d="m694.6341 111.61638v1"/><path d="m694.6341 108.61638v1"/><path d="m694.6341 105.61638v1"/><path d="m694.6341 102.61638v1"/><path d="m694.6341 99.61638v1"/></g><g stroke="#8c0000" transform="translate(53 -95)"><path d="m-48.5 99.5h1"/><path d="m-48.5 101.5v1"/><path d="m-45.5 99.5h1"/><path d="m-42.5 99.5h1"/><path d="m-48.5 104.5v1"/><path d="m-48.5 107.5v1"/><path d="m-46.5 108.5h1"/><path d="m-43.5 108.5h1"/><path d="m-40.5 108.5h1"/><path d="m-39.5 99.5v1"/><path d="m-39.5 102.5v1"/><path d="m-39.5 105.5v1"/></g></g></svg>