<svg enable-background="new 0 0 128 128" height="16" viewBox="0 0 16 16" width="16" xmlns="http://www.w3.org/2000/svg" xmlns:xlink="http://www.w3.org/1999/xlink"><linearGradient id="a"><stop offset="0" stop-color="#fff"/><stop offset="1" stop-color="#fff" stop-opacity="0"/></linearGradient><linearGradient id="b" gradientTransform="matrix(0 1 -1 0 -39.9985 140.0029)" gradientUnits="userSpaceOnUse" x1="-84.002403" x2="-23.516129" xlink:href="#a" y1="-383.9971" y2="-383.9975"/><filter id="c"><feGaussianBlur stdDeviation="2.8805897"/></filter><clipPath id="d"><circle cx="343.99899" cy="92" r="36"/></clipPath><linearGradient id="e" gradientTransform="matrix(0 1 -1 0 -39.9985 140.0029)" gradientUnits="userSpaceOnUse" x1="-86.120354" x2="-56.357521" y1="-381.09921" y2="-373.1243"><stop offset="0" stop-color="#00448c"/><stop offset="1" stop-color="#006ebf"/></linearGradient><linearGradient id="f" gradientTransform="matrix(0 .7388168 -.7388168 0 -5.522656 67.255699)" gradientUnits="userSpaceOnUse" x1="-80.00296" x2="-45.096584" xlink:href="#b" y1="-131.93112" y2="-131.93112"/><linearGradient id="g" gradientUnits="userSpaceOnUse" x1="328.12448" x2="336.98077" y1="120.81158" y2="87.759453"><stop offset="0" stop-color="#00caff"/><stop offset="1" stop-color="#002465"/></linearGradient><filter id="h" height="2.148387" width="2.148387" x="-.574194" y="-.574194"><feGaussianBlur stdDeviation="1.9139785"/></filter><filter id="i"><feGaussianBlur stdDeviation="2.2580645"/></filter><radialGradient id="j" cx="92.011353" cy="35.987209" gradientTransform="matrix(1.5023157 .832348 -1.5039612 2.7145189 7.92956 -138.29871)" gradientUnits="userSpaceOnUse" r="20"><stop offset="0" stop-color="#888a85"/><stop offset=".05255456" stop-color="#8c8e89"/><stop offset=".0673" stop-color="#abaca9"/><stop offset=".1347" stop-color="#c5c6c4"/><stop offset=".2115" stop-color="#dbdbda"/><stop offset=".3012" stop-color="#ebebeb"/><stop offset=".4122" stop-color="#f7f7f6"/><stop offset=".5679" stop-color="#fdfdfd"/><stop offset="1" stop-color="#fff"/></radialGradient><filter id="k"><feGaussianBlur stdDeviation="1.3978495"/></filter><radialGradient id="l" cx="100" cy="30.018749" gradientTransform="matrix(1 0 0 .8317708 0 5.050029)" gradientUnits="userSpaceOnUse" r="12"><stop offset="0" stop-color="#353535"/><stop offset="1"/></radialGradient><linearGradient id="m" gradientTransform="matrix(0 .7388168 -.7388168 0 -5.522656 67.255699)" gradientUnits="userSpaceOnUse" x1="-69.375381" x2="-26.062887" xlink:href="#b" y1="-137.41249" y2="-137.41249"/><linearGradient id="n" gradientUnits="userSpaceOnUse" x1="38.895172" x2="121.59636" y1="66.665695" y2="66.665695"><stop offset="0" stop-color="#be9000"/><stop offset="1" stop-color="#b68a00"/></linearGradient><radialGradient id="o" cx="64.245117" cy="66.666397" gradientTransform="matrix(.99799039 .06336543 -.01762177 .27753862 1.303887 44.092977)" gradientUnits="userSpaceOnUse" r="55.883793" xlink:href="#p"/><linearGradient id="p"><stop offset="0"/><stop offset="1" stop-opacity="0"/></linearGradient><radialGradient id="q" cx="79.842957" cy="8.71136" gradientTransform="matrix(-.04309695 .99907089 -.27068507 -.01167655 118.53146 -6.434667)" gradientUnits="userSpaceOnUse" r="55.883793" xlink:href="#p"/><radialGradient id="r" cx="61.745636" cy="81.787704" gradientTransform="matrix(.60055947 -.01380792 .0138283 .60144596 23.532724 29.771267)" gradientUnits="userSpaceOnUse" r="53.588345" xlink:href="#s"/><linearGradient id="s"><stop offset="0" stop-color="#eaf209"/><stop offset="1" stop-color="#c7c634" stop-opacity="0"/></linearGradient><radialGradient id="t" cx="86.40406" cy="355.98929" gradientTransform="matrix(-.50101706 .39536053 -.25808676 -.32705811 153.61276 158.00082)" gradientUnits="userSpaceOnUse" r="55.883793" xlink:href="#p"/><radialGradient id="u" cx="130.66731" cy="99.297249" gradientTransform="matrix(.37714665 .31428878 -.52316391 .6277969 133.33531 -10.073092)" gradientUnits="userSpaceOnUse" r="42.423828" xlink:href="#p"/><radialGradient id="v" cx="-24.423079" cy="155.70058" gradientTransform="matrix(-.2853501 .39949012 -.44000435 -.31428883 104.20711 138.69108)" gradientUnits="userSpaceOnUse" r="42.423828" xlink:href="#p"/><radialGradient id="w" cx="68.344757" cy="79.286057" gradientTransform="matrix(.89273806 .02389254 -.01609512 .60138957 5.936359 27.19911)" gradientUnits="userSpaceOnUse" r="53.588345"><stop offset="0" stop-color="#fcff0f"/><stop offset="1" stop-color="#db8900"/></radialGradient><linearGradient id="x" gradientUnits="userSpaceOnUse" x1="71.809433" x2="72.415733" y1="30.338589" y2="76.767159"><stop offset="0" stop-color="#fffe63"/><stop offset="1" stop-color="#fff" stop-opacity="0"/></linearGradient><radialGradient id="y" cx="85.333977" cy="47.086971" gradientTransform="matrix(.81715093 -.06285776 .01928388 .25069047 14.695219 44.225659)" gradientUnits="userSpaceOnUse" r="42.423828" xlink:href="#a"/><linearGradient id="z" gradientUnits="userSpaceOnUse" x1="85.333977" x2="80.000641" xlink:href="#s" y1="95.999352" y2="13.332676"/><filter id="A" color-interpolation-filters="sRGB" height="1.027172" width="1.021491" x="-.010746" y="-.013586"><feGaussianBlur stdDeviation=".33210518"/></filter><g transform="scale(.125)"><g transform="matrix(1.4999998 0 0 1.4999998 -56.000956 -39.999013)"><path d="m63.84375 32c-1.000017.02905-1.916832.418102-2.740234.962891a2.6681006 2.6681006 0 0 0 -.804688.52539l-19.527344 18.720703a2.6681006 2.6681006 0 0 0 -.021484.019532c-.311505.304953-.567121.66264-.755859 1.05664l.517578-.732422c-1.397911 1.399918-2.689453 3.433727-2.689453 5.964844 0 2.600009 1.234381 4.720319 2.564453 6.302734a2.6681006 2.6681006 0 0 0 .15625.169922l-.150391-.166015c.111423.13219.234276.266261.371094.398437a2.6681006 2.6681006 0 0 0 .01953.01758l.0059.0039 19.466797 18.558593c.000004.000004.01139.0076.01172.0078a2.6681006 2.6681006 0 0 0 .02539.02539c.01309.01265.03174.01095.04492.02344.07617.05214.220261.149903.417968.285156-.17031-.119807-.257855-.182093-.371093-.261719 1.617979 1.501699 3.850546 1.812549 5.695312 1.03125 1.875065-.794382 3.256455-2.64772 3.255822-4.914046v-10.664062h31.732422c.0684.0379.15192.09529.16016.103515.009.0085.0659.09233.10351.160156v26.109375.291016c.00072 2.93071 2.40523 5.3352 5.33594 5.33594h10.66601c2.9307-.00074 5.33522-2.40523 5.33594-5.33594v-21.332031-.002c-.00012-.480909-.0577-.514965-.11328-.714844.0517-.592473.11237-1.231331.11328-2.003906a2.6681006 2.6681006 0 0 0 0-.0039v-.002a2.6681006 2.6681006 0 0 0 0-.002l-.002-2.607422c0-7.022335-1.41668-12.520193-5.11524-16.21875s-9.19641-5.115234-16.21875-5.115234h-10.665961l-21.332031.0059v-10.671782c.000513-2.990756-2.504742-5.419051-5.492188-5.332031z" fill="url(#n)"/><path d="m63.918609 34.53971c-.699198.02014-1.365437.301691-1.867187.789062l-19.528645 18.719403.09961-.0918c-1.257232 1.110484-2.259766 2.753485-2.259766 4.560547s.851687 3.338973 1.96875 4.667969c.06155.07228.126735.141382.195313.207031l19.528644 18.613284c1.772741 1.71712 4.73846.462158 4.740235-2.005859v-13.205079l34.537767.000653c.4021.000008 1.13059.287117 1.6914.847656.56082.56054.84766 1.288038.84766 1.689454v26.376953.290368c.00025 1.54349 1.25143 2.79468 2.79492 2.79492h10.66667c1.54349-.00024 2.79468-1.25143 2.79493-2.79492v-21.333336c-.00051-.267177-.0393-.532901-.11524-.789063.0492-.640352.11446-1.271999.11524-1.933594v-.0039c-.0003-14.732658-2.79493-21.273445-29.461599-21.401694h-.002c-.663074.000294-1.295906.06631-1.9375.115234-.255519-.07574-.520556-.114542-.787062-.11524h-21.145186v-13.20508c-.000679-1.575329-1.302297-2.838949-2.876954-2.792969z" fill="#d3a036" fill-opacity=".913725"/><path d="m63.918609 34.53971c-.699198.02014-1.365437.301691-1.867187.789062l-19.528645 18.719403.09961-.0918c-1.257232 1.110484-2.259766 2.753485-2.259766 4.560547s.851687 3.338973 1.96875 4.667969c.06155.07228.126735.141382.195313.207031l19.528644 18.613284c1.772741 1.71712 4.73846.462158 4.740235-2.005859v-13.205079l34.537767.000653c.4021.000008 1.13059.287117 1.6914.847656.56082.56054.84766 1.288038.84766 1.689454v26.376953.290368c.00025 1.54349 1.25143 2.79468 2.79492 2.79492h10.66667c1.54349-.00024 2.79468-1.25143 2.79493-2.79492v-21.333336c-.00051-.267177-.0393-.532901-.11524-.789063.0492-.640352.11446-1.271999.11524-1.933594v-.0039c-.0003-14.732658-8.12826-21.273445-29.461599-21.401694h-.002c-.663074.000294-1.295906.06631-1.9375.115234-.255519-.07574-.520556-.114542-.787062-.11524h-21.145186v-13.20508c-.000679-1.575329-1.302297-2.838949-2.876954-2.792969z" fill="url(#o)" opacity=".5"/><path d="m63.918609 34.53971c-.699198.02014-1.365437.301691-1.867187.789062l-19.528645 18.719403.09961-.0918c-1.257232 1.110484-2.259766 2.753485-2.259766 4.560547s.851687 3.338973 1.96875 4.667969c.06155.07228.126735.141382.195313.207031l19.528644 18.613284c1.772741 1.71712 4.73846.462158 4.740235-2.005859v-13.205079l34.537767.000653c.4021.000008 1.13059.287117 1.6914.847656.56082.56054.84766 1.288038.84766 1.689454v26.376953.290368c.00025 1.54349 1.25143 2.79468 2.79492 2.79492h10.66667c1.54349-.00024 2.79468-1.25143 2.79493-2.79492v-21.333336c-.00051-.267177-.0393-.532901-.11524-.789063.0492-.640352.11446-1.271999.11524-1.933594v-.0039c-.0003-14.732658-3.67629-21.273445-29.461599-21.401694h-.002c-.663074.000294-1.295906.06631-1.9375.115234-.255519-.07574-.520556-.114542-.787062-.11524h-21.145186v-13.20508c-.000679-1.575329-1.302297-2.838949-2.876954-2.792969z" fill="url(#q)" opacity=".5"/><path d="m64.000641 37.332679-19.528645 18.719402c-1.751219 1.54681-1.751219 3.25052 0 5.333985l19.528645 18.613284v-16.000001l37.332689.000653c2.66667.000047 5.33398 2.665361 5.33398 5.332032v26.37695.290368h10.66667v-21.333336h-.16406c.10305-.896096.16298-1.805081.16406-2.726563-.00027-13.222041-9.44462-18.606772-26.666669-18.606772-.921714.000408-1.830184.05967-2.726562.162109v-.162109h-23.940108z" fill="url(#r)"/><path d="m63.918609 34.53971c-.699198.02014-1.365437.301691-1.867187.789062l-19.528645 18.719403.09961-.0918c-1.257232 1.110484-2.259766 2.753485-2.259766 4.560547s.851687 3.338973 1.96875 4.667969c.06155.07228.126735.141382.195313.207031l19.528644 18.613284c1.772741 1.71712 4.73846.462158 4.740235-2.005859v-13.205079l34.537767.000653c.4021.000008 1.13059.287117 1.6914.847656.56082.56054.84766 1.288038.84766 1.689454v26.376953.290368c.00025 1.54349 1.25143 2.79468 2.79492 2.79492h10.66667c1.54349-.00024 2.79468-1.25143 2.79493-2.79492v-21.333336c-.00051-.267177-.0393-.532901-.11524-.789063.0492-.640352.11446-1.271999.11524-1.933594v-.0039c-.0003-14.732658-8.12826-21.273445-29.461599-21.401694h-.002c-.663074.000294-1.295906.06631-1.9375.115234-.255519-.07574-.520556-.114542-.787062-.11524h-21.145186v-13.20508c-.000679-1.575329-1.302297-2.838949-2.876954-2.792969z" fill="url(#t)" opacity=".5"/><path d="m63.84375 32c-1.000017.02905-1.916832.418102-2.740234.962891a2.6681006 2.6681006 0 0 0 -.804688.52539l-19.527344 18.720703a2.6681006 2.6681006 0 0 0 -.021484.019532c-.311505.304953-.567121.66264-.755859 1.05664l.517578-.732422c-1.397911 1.399918-2.689453 3.433727-2.689453 5.964844 0 2.600009 1.234381 4.720319 2.564453 6.302734a2.6681006 2.6681006 0 0 0 .15625.169922l-.150391-.166015c.111423.13219.234276.266261.371094.398437a2.6681006 2.6681006 0 0 0 .01953.01758l.0059.0039 19.466797 18.558593c.000004.000004.01139.0076.01172.0078a2.6681006 2.6681006 0 0 0 .02539.02539c.01309.01265.03174.01095.04492.02344.07617.05214.220261.149903.417968.285156-.17031-.119807-.257855-.182093-.371093-.261719 1.617979 1.501699 3.850546 1.812549 5.695312 1.03125 1.875065-.794382 3.256455-2.64772 3.255822-4.914046v-10.664062h31.732422c.0684.0379.15192.09529.16016.103515.009.0085.0659.09233.10351.160156v26.109375.291016c.00072 2.93071 2.40523 5.3352 5.33594 5.33594h10.66601c2.9307-.00074 5.33522-2.40523 5.33594-5.33594v-21.332031-.002c-.00012-.480909-.0577-.514965-.11328-.714844.0517-.592473.11237-1.231331.11328-2.003906a2.6681006 2.6681006 0 0 0 0-.0039v-.002a2.6681006 2.6681006 0 0 0 0-.002l-.002-2.607422c0-7.022335-1.41668-12.520193-5.11524-16.21875s-9.19641-5.115234-16.21875-5.115234h-10.665961l-21.332031.0059v-10.671782c.000513-2.990756-2.504742-5.419051-5.492188-5.332031z" fill="url(#u)" transform="translate(0 .000002)"/><path d="m63.84375 32c-1.000017.02905-1.916832.418102-2.740234.962891a2.6681006 2.6681006 0 0 0 -.804688.52539l-19.527344 18.720703a2.6681006 2.6681006 0 0 0 -.021484.019532c-.311505.304953-.567121.66264-.755859 1.05664l.517578-.732422c-1.397911 1.399918-2.689453 3.433727-2.689453 5.964844 0 2.600009 1.234381 4.720319 2.564453 6.302734a2.6681006 2.6681006 0 0 0 .15625.169922l-.150391-.166015c.111423.13219.234276.266261.371094.398437a2.6681006 2.6681006 0 0 0 .01953.01758l.0059.0039 19.466797 18.558593c.000004.000004.01139.0076.01172.0078a2.6681006 2.6681006 0 0 0 .02539.02539c.01309.01265.03174.01095.04492.02344.07617.05214.220261.149903.417968.285156-.17031-.119807-.257855-.182093-.371093-.261719 1.617979 1.501699 3.850546 1.812549 5.695312 1.03125 1.875065-.794382 3.256455-2.64772 3.255822-4.914046v-10.664062h31.732422c.0684.0379.15192.09529.16016.103515.009.0085.0659.09233.10351.160156v26.109375.291016c.00072 2.93071 2.40523 5.3352 5.33594 5.33594h10.66601c2.9307-.00074 5.33522-2.40523 5.33594-5.33594v-21.332031-.002c-.00012-.480909-.0577-.514965-.11328-.714844.0517-.592473.11237-1.231331.11328-2.003906a2.6681006 2.6681006 0 0 0 0-.0039v-.002a2.6681006 2.6681006 0 0 0 0-.002l-.002-2.607422c0-7.022335-1.41668-12.520193-5.11524-16.21875s-9.19641-5.115234-16.21875-5.115234h-10.665961l-21.332031.0059v-10.671782c.000513-2.990756-2.504742-5.419051-5.492188-5.332031z" fill="url(#v)" transform="translate(0 .000002)"/><path d="m64.000641 37.332679-19.528645 18.719402c-1.751219 1.54681-1.751219 3.25052 0 5.333985l19.528645 18.613284v-16.000001l31.999355.000653c10.667314.000218 10.667314 2.665362 10.667314 5.332032v26.37695.290368h10.66667v-21.333336h-.16406c.10305-.896096.16298-1.805081.16406-2.726563-.00027-13.222041-3.38812-18.606772-24.000002-18.606772-.921714.000408-4.496851.05967-5.393229.162109v-.162109h-23.940108z" fill="url(#w)"/><path d="m64.000641 37.332679-19.118489 18.320965c15.249724 5.331715 42.449022 3.352479 64.425128 10.220703l7.75131 2.422528c.27539-10.806002-6.99504-14.964194-23.724612-14.964194-.921714.000408-4.496851.05967-5.393229.162109v-.162109h-23.940108z" fill="url(#x)"/><g fill="none"><path d="m63.84375 32c-1.000017.02905-1.916832.418102-2.740234.962891a2.6681006 2.6681006 0 0 0 -.804688.52539l-19.527344 18.720703a2.6681006 2.6681006 0 0 0 -.021484.019532c-.311505.304953-.567121.66264-.755859 1.05664l.517578-.732422c-1.397911 1.399918-2.689453 3.433727-2.689453 5.964844 0 2.600009 1.234381 4.720319 2.564453 6.302734a2.6681006 2.6681006 0 0 0 .15625.169922l-.150391-.166015c.111423.13219.234276.266261.371094.398437a2.6681006 2.6681006 0 0 0 .01953.01758l.0059.0039 19.466797 18.558593c.000004.000004.01139.0076.01172.0078a2.6681006 2.6681006 0 0 0 .02539.02539c.01309.01265.03174.01095.04492.02344.07617.05214.220261.149903.417968.285156-.17031-.119807-.257855-.182093-.371093-.261719 1.617979 1.501699 3.850546 1.812549 5.695312 1.03125 1.875065-.794382 3.256455-2.64772 3.255822-4.914046v-10.664062h31.732422c.0684.0379.15192.09529.16016.103515.009.0085.0659.09233.10351.160156v26.109375.291016c.00072 2.93071 2.40523 5.3352 5.33594 5.33594h10.66601c2.9307-.00074 5.33522-2.40523 5.33594-5.33594v-21.332031-.002c-.00012-.480909-.0577-.514965-.11328-.714844.0517-.592473.11237-1.231331.11328-2.003906a2.6681006 2.6681006 0 0 0 0-.0039v-.002a2.6681006 2.6681006 0 0 0 0-.002l-.002-2.607422c0-7.022335-1.41668-12.520193-5.11524-16.21875s-9.19641-5.115234-16.21875-5.115234h-10.665961l-21.332031.0059v-10.671782c.000513-2.990756-2.504742-5.419051-5.492188-5.332031z" stroke="url(#y)" stroke-width="5.333334" transform="translate(0 .000002)"/><path d="m64.000641 37.332679-19.528645 18.719402c-1.751219 1.54681-1.751219 3.25052 0 5.333985l19.528645 18.613284v-16.000001l31.999355.000653c10.667314.000218 10.667314 2.665362 10.667314 5.332032v26.37695.290368h10.66667v-21.333336h-.16406c.10305-.896096.16298-1.805081.16406-2.726563-.00027-13.222041-3.38812-18.606772-24.000002-18.606772-.921714.000408-4.496851.05967-5.393229.162109v-.162109h-23.940108z" filter="url(#A)" stroke="url(#z)"/></g></g><circle cx="100" cy="36" fill-opacity=".680473" filter="url(#i)" r="28" transform="matrix(1.138896 0 0 1.138896 -21.889598 -1.111168)"/><circle cx="343.99899" cy="92" fill="url(#e)" r="36" transform="matrix(-.858425 .2300143 -.2300143 -.858425 408.45865 35.850447)"/><circle cx="92" cy="36" fill="url(#j)" filter="url(#k)" opacity=".975544" r="20" transform="matrix(1.1995995 0 0 1.1995995 -18.406698 -7.155252)"/><path d="m88 20.0375v19.9625h24v-8h-16v-11.9625z" fill="url(#l)"/><circle cx="343.99899" cy="92" r="36" style="opacity:.8;fill:none;stroke-width:6.751382;clip-path:url(#d);stroke:url(#g);filter:url(#c)" transform="matrix(-.858425 -.2300143 -.2300143 .858425 408.45865 36.149589)"/><path d="m92.000037 8.1482072c-11.345716 0-20.826095 8.0116058-23.111114 18.6782148 4.554661 4.245895 13.196893 7.111109 23.111114 7.111109 9.914233 0 18.556453-2.865214 23.111113-7.111109-2.28501-10.666609-11.7654-18.6782148-23.111113-18.6782148z" fill="url(#f)" opacity=".8"/><circle cx="96" cy="8" filter="url(#h)" r="4" transform="matrix(.4375 0 0 .4375 50 6.5)"/><path d="m88 20.0375v19.9625h24v-8h-16v-11.9625z" fill="url(#l)"/><path d="m88 20.03125v13.75c1.303847.103833 2.64111.15625 4 .15625 4.90701 0 9.49508-.713704 13.4375-1.9375h-9.4375v-11.96875z" fill="url(#m)" opacity=".8"/></g></svg>