<svg height="16" width="16" xmlns="http://www.w3.org/2000/svg" xmlns:xlink="http://www.w3.org/1999/xlink"><linearGradient id="a" gradientTransform="matrix(.9166667 0 0 .4444445 1.333334 3.555557)" gradientUnits="userSpaceOnUse" x1="15.999999" x2="112" y1="100" y2="27.999998"><stop offset="0" stop-color="#fff"/><stop offset=".42597079" stop-color="#fff"/><stop offset=".5892781" stop-color="#f1f1f1"/><stop offset=".80219781" stop-color="#eaeaea"/><stop offset="1" stop-color="#dfdfdf"/></linearGradient><linearGradient id="b" gradientTransform="matrix(.1053583 0 0 .07807154 1.162114 -34.902122)" gradientUnits="userSpaceOnUse" x1="399.77466" x2="399.77466" y1="1164.6696" y2="549.06134"><stop offset="0" stop-color="#b4b4b6"/><stop offset=".5" stop-color="#9c9ca1"/><stop offset="1" stop-color="#cdcdd1"/></linearGradient><linearGradient id="c"><stop offset="0" stop-color="#0968ef"/><stop offset="1" stop-color="#aecffc"/></linearGradient><linearGradient id="d" gradientUnits="userSpaceOnUse" x1="22.0625" x2="53.125" y1="32" y2="32"><stop offset="0" stop-color="#fff"/><stop offset="1" stop-color="#fff" stop-opacity="0"/></linearGradient><linearGradient id="e" gradientTransform="matrix(.63420955 .7731612 -.7731612 .63420955 56.39716 -55.642643)" gradientUnits="userSpaceOnUse" x1="113.15723" x2="39.268185" xlink:href="#c" y1="25.786163" y2="25.786163"/><linearGradient id="f" gradientTransform="matrix(-.63420951 -.77316124 .77316124 -.63420951 69.533362 183.990299)" gradientUnits="userSpaceOnUse" x1="113.15723" x2="39.268185" xlink:href="#c" y1="25.786163" y2="25.786163"/><g transform="scale(.125)"><rect fill="url(#b)" height="56" rx="2.857143" ry="2.769231" width="56" x="8" y="8"/><rect fill="url(#a)" fill-rule="evenodd" height="40" rx="1.5" ry="1.444445" width="40" x="16" y="16"/><path d="m36 16c-10.683566 9.428082-12.979672 27.625616-19.21875 40h27.21875c1.52447-11.846983-1.435306-30.549154 5.125-40z" fill="url(#d)" fill-rule="evenodd"/><g transform="translate(56 56)"><rect fill="url(#b)" height="56" rx="2.857143" ry="2.769231" width="56" x="8" y="8"/><g fill-rule="evenodd"><rect fill="url(#a)" height="40" rx="1.5" ry="1.444445" width="40" x="16" y="16"/><path d="m36 16c-10.683566 9.428082-12.979672 27.625616-19.21875 40h27.21875c1.52447-11.846983-1.435306-30.549154 5.125-40z" fill="url(#d)"/></g></g><g fill-rule="evenodd" transform="translate(1.03473 -.000004)"><path d="m70.96527 16.000004c9.538669 1.86206 19.750913 8.037014 30.18555 20.757808l4.35156-13.656227 5.59375.552718-.24219 31.240215-30.683593-5.871081.707032-5.722658 14.087894-1.468762c-8.718425-10.628561-16.698156-15.759496-24.000003-17.48436z" fill="url(#e)"/><path d="m15.076598 73.453106 30.683591 5.871119-.707029 5.722659-14.087892 1.46872c8.718423 10.6286 16.698155 15.759536 24.000002 17.484396v8.34765c-9.53867-1.86209-19.750916-8.03701-30.185552-20.757796l-4.35156 13.656216-5.59375-.55272z" fill="url(#f)"/></g></g></svg>