<svg height="16" viewBox="0 0 4.2333333 4.2333335" width="16" xmlns="http://www.w3.org/2000/svg" xmlns:xlink="http://www.w3.org/1999/xlink"><linearGradient id="a" gradientTransform="matrix(.70440663 0 0 .41364876 8.595869 252.53884)" gradientUnits="userSpaceOnUse" x1="16.263456" x2="28.913122" y1="67.869316" y2="-12.523698"><stop offset="0" stop-color="#0968ef"/><stop offset="1" stop-color="#aecffc"/></linearGradient><g transform="matrix(.125 0 0 .125 0 -32.89167)"><rect fill="url(#a)" height="33.866089" rx="1.058319" stroke-width=".363802" width="2.116666" x="16.933334" y="263.13336"/><path d="m16.933334 286.00761v.40907h-5.490182v-.40907q.861205-.0214 1.184156-.17225.322953-.15071.322953-.55978 0-.51672-.409072-1.44252l-.882736-2.06688h-5.6408921l-.9903862 2.51903q-.1722411.45212-.1722411.83967 0 .88273 1.4640487.88273v.40907h-4.2629654v-.40907q.796615-.0431 1.2272179-.60285.4521322-.58131 1.4425185-2.92809l4.4782652-10.57129h.4306028l5.3610007 12.22911q.516723 1.18415.861204 1.50711.344483.32295 1.076508.36601zm-10.5497609-5.12417h4.9734579l-2.4974939-5.92079z" stroke-width=".538253"/><path d="m32.814377 292.0653-.165611.37405-5.020128-2.22272.165613-.37404q.796134.32909 1.152507.3219.356317-.007.52193-.3811.209195-.47248.209957-1.48463l.02962-2.24729-5.157933-2.28373-1.925425 1.9024q-.340535.34368-.497434.69805-.357375.80715.981325 1.39987l-.165612.37405-3.897982-1.72586.165613-.37405q.74586.2831 1.366212-.0544.648765-.34849 2.504453-2.09339l8.374646-7.85317.393735.17433-.04896 13.35249q-.0069 1.29196.177315 1.72673.184242.43477.836161.77051zm-7.571992-8.95654 4.547643 2.01352.113373-6.42499z" stroke-width=".538253"/><rect height="2.116667" rx="1.058334" ry="1.058331" transform="matrix(.91438267 .40485101 -.40485101 .91438267 0 0)" width="14.816667" x="133.37051" y="256.30023"/></g></svg>