<svg height="16" viewBox="0 0 4.2333333 4.2333335" width="16" xmlns="http://www.w3.org/2000/svg"><g stroke-width=".538253" transform="matrix(.125 0 0 .125 0 -32.89167)"><path d="m24.371992 296.59096v.40907h-5.490182v-.40907q.861205-.0214 1.184156-.17225.322953-.15071.322953-.55978 0-.51672-.409072-1.44252l-.882736-2.06688h-5.640892l-.990386 2.51903q-.172241.45212-.172241.83967 0 .88273 1.464048.88273v.40907h-4.262965v-.40907q.796615-.0431 1.227218-.60285.452132-.58131 1.442518-2.92809l4.478266-10.57129h.430602l5.361001 12.22911q.516723 1.18415.861204 1.50711.344483.32295 1.076508.36601zm-10.549761-5.12417h4.973458l-2.497494-5.92079z"/><path d="m24.371992 279.68299v.40907h-5.490182v-.40907q.861205-.0214 1.184156-.17225.322953-.15071.322953-.55978 0-.51672-.409072-1.44252l-.882736-2.06688h-5.640892l-.990386 2.51903q-.172241.45212-.172241.83967 0 .88273 1.464048.88273v.40907h-4.2629649v-.40907q.7966149-.0431 1.2272179-.60285.452132-.58131 1.442518-2.92809l4.478266-10.57129h.430602l5.361001 12.22911q.516723 1.18415.861204 1.50711.344483.32295 1.076508.36601zm-10.549761-5.12417h4.973458l-2.497494-5.92079z"/></g></svg>