<svg height="16" viewBox="0 0 4.2333333 4.2333335" width="16" xmlns="http://www.w3.org/2000/svg" xmlns:xlink="http://www.w3.org/1999/xlink"><linearGradient id="a" gradientTransform="matrix(.70440663 0 0 .41364876 8.595869 252.53884)" gradientUnits="userSpaceOnUse" x1="16.263456" x2="28.913122" y1="67.869316" y2="-12.523698"><stop offset="0" stop-color="#0968ef"/><stop offset="1" stop-color="#aecffc"/></linearGradient><g transform="matrix(.125 0 0 .125 0 -32.89167)"><rect fill="url(#a)" height="33.866089" rx="1.058319" stroke-width=".363802" width="2.116666" x="16.933334" y="263.13336"/><path d="m16.933334 286.00761v.40907h-5.490182v-.40907q.861205-.0214 1.184156-.17225.322953-.15071.322953-.55978 0-.51672-.409072-1.44252l-.882736-2.06688h-5.6408921l-.9903862 2.51903q-.1722411.45212-.1722411.83967 0 .88273 1.4640487.88273v.40907h-4.2629654v-.40907q.796615-.0431 1.2272179-.60285.4521322-.58131 1.4425185-2.92809l4.4782652-10.57129h.4306028l5.3610007 12.22911q.516723 1.18415.861204 1.50711.344483.32295 1.076508.36601zm-10.5497609-5.12417h4.9734579l-2.4974939-5.92079z" stroke-width=".538253"/><path d="m33.927317 279.65762v.40907h-5.490182v-.40907q.861205-.0214 1.184156-.17225.322953-.15071.322953-.55978 0-.51672-.409072-1.44252l-.882736-2.06688h-5.640892l-.990386 2.51903q-.172241.45212-.172241.83967 0 .88273 1.464048.88273v.40907h-4.262965v-.40907q.796615-.0431 1.227218-.60285.452132-.58131 1.442518-2.92809l4.478266-10.57129h.430602l5.361001 12.22911q.516723 1.18415.861204 1.50711.344483.32295 1.076508.36601zm-10.549761-5.12417h4.973458l-2.497494-5.92079z" stroke-width=".538253"/><rect height="2.116667" rx="1.058334" ry="1.058331" width="14.816667" x="2.116667" y="288.53336"/><rect height="2.116667" rx="1.058334" ry="1.058331" width="14.816667" x="19.049999" y="282.18335"/></g></svg>