<svg height="16" viewBox="0 0 4.2333332 4.2333335" width="16" xmlns="http://www.w3.org/2000/svg" xmlns:xlink="http://www.w3.org/1999/xlink"><linearGradient id="a" gradientTransform="matrix(0 -.26458333 -.26458333 0 4.233451 297.00007)" gradientUnits="userSpaceOnUse" x1="24.999807" x2="23.999807" y1="10.768957" y2="-4.231043"><stop offset="0" stop-color="#005f1e"/><stop offset="1" stop-color="#43943c"/></linearGradient><radialGradient id="b" cx="21.664968" cy="5.806535" gradientTransform="matrix(-.0190575 -.15246 -.13657466 .01707183 3.190398 296.10294)" gradientUnits="userSpaceOnUse" r="7.74912" xlink:href="#c"/><linearGradient id="c"><stop offset="0"/><stop offset="1" stop-opacity="0"/></linearGradient><radialGradient id="d" cx="6.5" cy="9.859922" gradientTransform="matrix(-.0190575 -.15246 -.13657466 .01707183 3.190398 296.10294)" gradientUnits="userSpaceOnUse" r="7.74912" xlink:href="#c"/><radialGradient id="e" cx="6.713591" cy="4.018276" gradientTransform="matrix(-.0190575 -.15246 -.13657466 .01707183 3.190398 296.10294)" gradientUnits="userSpaceOnUse" r="7.74912" xlink:href="#c"/><radialGradient id="f" cx="6.479648" cy="6.53534" gradientTransform="matrix(0 -.58348723 -.3111932 0 4.415007 299.987)" gradientUnits="userSpaceOnUse" r="6.801777"><stop offset="0" stop-color="#83fc28"/><stop offset="1" stop-color="#102c07"/></radialGradient><linearGradient id="g" gradientUnits="userSpaceOnUse" x1="10.60174542268" x2="11.65560368268" y1="288.34989019302" y2="294.14611062302"><stop offset="0" stop-color="#edffbf"/><stop offset="1" stop-color="#edffbf" stop-opacity="0"/></linearGradient><linearGradient id="h" gradientUnits="userSpaceOnUse" x1="-2.999567" x2="17.000433" y1="12.000433" y2="14.000433"><stop offset="0" stop-color="#b2ff00"/><stop offset="1" stop-color="#acff00" stop-opacity="0"/></linearGradient><filter id="i" color-interpolation-filters="sRGB" height="1.0552" width="1.042461" x="-.021231" y="-.0276"><feGaussianBlur stdDeviation=".115"/></filter><g transform="translate(0 -292.76665)"><g stroke-width=".264583"><path d="m3.9688675 295.01983c-.0008996.064-.024937.1255-.067696.17312l-1.4552082 1.5875c-.00319.003-.00646.007-.00982.01l-.1322917.13229c-.1033277.10328-.2708096.10328-.3741373 0l-.1322917-.13229c-.00336-.003-.00663-.006-.00982-.01l-1.45520868-1.5875c-.0942065-.1047-.0898903-.26485.009819-.36432l.26458334-.26458c.0968208-.0968.25145921-.10372.35656732-.016l.62425132.5643v-2.08101c.0000146-.14612.118464-.26457.2645833-.26458h.5291667c.1461193.00001.2645687.11846.2645833.26458v2.08101l.6242514-.5643c.1051078-.0877.2597464-.0807.3565673.016l.2645833.26458c.050644.0506.078611.11961.077515.1912z" fill="url(#a)"/><path d="m3.9688675 295.01983c-.0008996.064-.024937.1255-.067696.17312l-1.4552082 1.5875c-.00319.003-.00646.007-.00982.01l-.1322917.13229c-.1033277.10328-.2708096.10328-.3741373 0l-.1322917-.13229c-.00336-.003-.00663-.006-.00982-.01l-1.45520868-1.5875c-.0942065-.1047-.0898903-.26485.009819-.36432l.26458334-.26458c.0968208-.0968.25145921-.10372.35656732-.016l.62425132.5643v-2.08101c.0000146-.14612.118464-.26457.2645833-.26458h.5291667c.1461193.00001.2645687.11846.2645833.26458v2.08101l.6242514-.5643c.1051078-.0877.2597464-.0807.3565673.016l.2645833.26458c.050644.0506.078611.11961.077515.1912z" fill="url(#b)"/><path d="m3.9688675 295.01983c-.0008996.064-.024937.1255-.067696.17312l-1.4552082 1.5875c-.00319.003-.00646.007-.00982.01l-.1322917.13229c-.1033277.10328-.2708096.10328-.3741373 0l-.1322917-.13229c-.00336-.003-.00663-.006-.00982-.01l-1.45520868-1.5875c-.0942065-.1047-.0898903-.26485.009819-.36432l.26458334-.26458c.0968208-.0968.25145921-.10372.35656732-.016l.62425132.5643v-2.08101c.0000146-.14612.118464-.26457.2645833-.26458h.5291667c.1461193.00001.2645687.11846.2645833.26458v2.08101l.6242514-.5643c.1051078-.0877.2597464-.0807.3565673.016l.2645833.26458c.050644.0506.078611.11961.077515.1912z" fill="url(#d)"/><path d="m3.9688675 295.01983c-.0008996.064-.024937.1255-.067696.17312l-1.4552082 1.5875c-.00319.003-.00646.007-.00982.01l-.1322917.13229c-.1033277.10328-.2708096.10328-.3741373 0l-.1322917-.13229c-.00336-.003-.00663-.006-.00982-.01l-1.45520868-1.5875c-.0942065-.1047-.0898903-.26485.009819-.36432l.26458334-.26458c.0968208-.0968.25145921-.10372.35656732-.016l.62425132.5643v-2.08101c.0000146-.14612.118464-.26457.2645833-.26458h.5291667c.1461193.00001.2645687.11846.2645833.26458v2.08101l.6242514-.5643c.1051078-.0877.2597464-.0807.3565673.016l.2645833.26458c.050644.0506.078611.11961.077515.1912z" fill="url(#e)"/><path d="m3.7042842 295.0157-1.4552084 1.5875-.1322916.13229-.1322917-.13229-1.45520836-1.5875.26458333-.26458 1.05833333.92604v-2.64584h.5291667v2.64584l1.0583333-.92604z" fill="url(#f)"/></g><path d="m1.8520863 293.03121v1.93528c.1770116-.004.3541831-.004.5291666-.001v-1.93425zm-1.05833339 1.71979-.26458334.26458.0894002.0972c.17460193-.0364.33848392-.0655.48989263-.0863zm2.64583339 0-.2444295.21394c.1376251-.004.2797241-.0104.4361489-.0222z" fill="url(#g)" stroke-width=".526929"/><path d="m7.5 2-6 5.5-.5.5.5.5 6 5.5 1-1-3.5-4h10v-2h-10l3.5-4z" fill="none" filter="url(#i)" stroke="url(#h)" stroke-width=".5" transform="matrix(0 -.26458333 -.26458333 0 4.233451 297.00007)"/></g></svg>