<?xml version="1.0" encoding="UTF-8" standalone="no"?>
<svg
   xmlns:dc="http://purl.org/dc/elements/1.1/"
   xmlns:cc="http://creativecommons.org/ns#"
   xmlns:rdf="http://www.w3.org/1999/02/22-rdf-syntax-ns#"
   xmlns:svg="http://www.w3.org/2000/svg"
   xmlns="http://www.w3.org/2000/svg"
   xmlns:xlink="http://www.w3.org/1999/xlink"
   xmlns:sodipodi="http://sodipodi.sourceforge.net/DTD/sodipodi-0.dtd"
   xmlns:inkscape="http://www.inkscape.org/namespaces/inkscape"
   enable-background="new 0 0 128 128"
   height="16"
   viewBox="0 0 16 16"
   width="16"
   version="1.1"
   id="svg142"
   sodipodi:docname="insert-page-break.svg"
   inkscape:version="0.92.5 (2060ec1f9f, 2020-04-08)">
  <metadata
     id="metadata148">
    <rdf:RDF>
      <cc:Work
         rdf:about="">
        <dc:format>image/svg+xml</dc:format>
        <dc:type
           rdf:resource="http://purl.org/dc/dcmitype/StillImage" />
        <dc:title></dc:title>
      </cc:Work>
    </rdf:RDF>
  </metadata>
  <defs
     id="defs146" />
  <sodipodi:namedview
     pagecolor="#ffffff"
     bordercolor="#666666"
     borderopacity="1"
     objecttolerance="10"
     gridtolerance="10"
     guidetolerance="10"
     inkscape:pageopacity="0"
     inkscape:pageshadow="2"
     inkscape:window-width="1366"
     inkscape:window-height="700"
     id="namedview144"
     showgrid="false"
     inkscape:zoom="14.75"
     inkscape:cx="0.57627119"
     inkscape:cy="8"
     inkscape:window-x="0"
     inkscape:window-y="0"
     inkscape:window-maximized="1"
     inkscape:current-layer="svg142" />
  <radialGradient
     id="a"
     cx="102"
     cy="32.3047"
     fx="102"
     fy="32.3047"
     gradientUnits="userSpaceOnUse"
     r="139.5585"
     xlink:href="#m" />
  <radialGradient
     id="b"
     cx="102"
     cy="112.3047"
     gradientTransform="matrix(.9787234 0 0 .9818182 1.361705 -78.836364)"
     gradientUnits="userSpaceOnUse"
     r="139.55859"
     xlink:href="#l" />
  <linearGradient
     id="c"
     gradientUnits="userSpaceOnUse"
     x1="85.219681"
     x2="61.336319"
     y1="93.219681"
     y2="69.336319">
    <stop
       offset="0"
       id="stop4" />
    <stop
       offset="1"
       stop-color="#393b38"
       id="stop6" />
  </linearGradient>
  <linearGradient
     id="d"
     gradientUnits="userSpaceOnUse"
     x1="96"
     x2="88.000198"
     y1="104"
     y2="96.000198">
    <stop
       offset="0"
       stop-color="#888a85"
       id="stop9" />
    <stop
       offset=".0072"
       stop-color="#8c8e89"
       id="stop11" />
    <stop
       offset=".0673"
       stop-color="#abaca9"
       id="stop13" />
    <stop
       offset=".1347"
       stop-color="#c5c6c4"
       id="stop15" />
    <stop
       offset=".2115"
       stop-color="#dbdbda"
       id="stop17" />
    <stop
       offset=".3012"
       stop-color="#ebebeb"
       id="stop19" />
    <stop
       offset=".4122"
       stop-color="#f7f7f6"
       id="stop21" />
    <stop
       offset=".5679"
       stop-color="#fdfdfd"
       id="stop23" />
    <stop
       offset="1"
       stop-color="#fff"
       id="stop25" />
  </linearGradient>
  <radialGradient
     id="e"
     cx="102"
     cy="194.3047"
     fx="102"
     fy="194.3047"
     gradientUnits="userSpaceOnUse"
     r="139.5585"
     xlink:href="#m" />
  <radialGradient
     id="f"
     cx="102"
     cy="112.3047"
     gradientTransform="matrix(.9787234 0 0 .9818182 1.361705 83.163636)"
     gradientUnits="userSpaceOnUse"
     r="139.55859"
     xlink:href="#l" />
  <linearGradient
     id="g">
    <stop
       offset="0"
       stop-color="#06f"
       id="stop30" />
    <stop
       offset="1"
       stop-color="#80b3ff"
       id="stop32" />
  </linearGradient>
  <linearGradient
     id="h"
     gradientUnits="userSpaceOnUse"
     x1="8"
     x2="8"
     xlink:href="#g"
     y1="88"
     y2="40" />
  <linearGradient
     id="i"
     gradientUnits="userSpaceOnUse"
     x1="112"
     x2="112"
     xlink:href="#g"
     y1="72"
     y2="40" />
  <linearGradient
     id="j"
     gradientUnits="userSpaceOnUse"
     x1="88"
     x2="88"
     xlink:href="#g"
     y1="72"
     y2="40" />
  <linearGradient
     id="k"
     gradientUnits="userSpaceOnUse"
     x1="56"
     x2="56"
     xlink:href="#g"
     y1="72"
     y2="40" />
  <radialGradient
     id="l"
     cx="102"
     cy="112.3047"
     gradientTransform="matrix(.9787234 0 0 .9818182 1.361705 1.163636)"
     gradientUnits="userSpaceOnUse"
     r="139.55859">
    <stop
       offset="0"
       stop-color="#535557"
       id="stop39" />
    <stop
       offset=".11366145"
       stop-color="#898a8c"
       id="stop41" />
    <stop
       offset=".20296688"
       stop-color="#ececec"
       id="stop43" />
    <stop
       offset=".2363"
       stop-color="#fafafa"
       id="stop45" />
    <stop
       offset=".2722"
       stop-color="#fff"
       id="stop47" />
    <stop
       offset=".5313"
       stop-color="#fafafa"
       id="stop49" />
    <stop
       offset=".8449"
       stop-color="#ebecec"
       id="stop51" />
    <stop
       offset="1"
       stop-color="#e1e2e3"
       id="stop53" />
  </radialGradient>
  <radialGradient
     id="m"
     cx="102"
     cy="112.3047"
     gradientUnits="userSpaceOnUse"
     r="139.5585">
    <stop
       offset="0"
       stop-color="#00537d"
       id="stop56" />
    <stop
       offset=".0151"
       stop-color="#186389"
       id="stop58" />
    <stop
       offset=".0558"
       stop-color="#558ca8"
       id="stop60" />
    <stop
       offset=".0964"
       stop-color="#89afc3"
       id="stop62" />
    <stop
       offset=".1357"
       stop-color="#b3ccd8"
       id="stop64" />
    <stop
       offset=".1737"
       stop-color="#d4e2e9"
       id="stop66" />
    <stop
       offset=".2099"
       stop-color="#ecf2f5"
       id="stop68" />
    <stop
       offset=".2435"
       stop-color="#fafcfd"
       id="stop70" />
    <stop
       offset=".2722"
       stop-color="#fff"
       id="stop72" />
  </radialGradient>
  <filter
     id="n">
    <feGaussianBlur
       stdDeviation="1.0394514"
       id="feGaussianBlur75" />
  </filter>
  <filter
     id="o">
    <feGaussianBlur
       stdDeviation=".50063244"
       id="feGaussianBlur78" />
  </filter>
  <filter
     id="p">
    <feGaussianBlur
       stdDeviation=".4901192"
       id="feGaussianBlur81" />
  </filter>
  <filter
     id="q">
    <feGaussianBlur
       stdDeviation=".90565481"
       id="feGaussianBlur84" />
  </filter>
  <filter
     id="r"
     height="1.247155"
     width="1.247155"
     x="-.123577"
     y="-.123577">
    <feGaussianBlur
       stdDeviation="1.7720846"
       id="feGaussianBlur87" />
  </filter>
  <g
     transform="matrix(.125 0 0 .125 0 .0125)"
     id="g140">
    <g
       id="g102">
      <g
         stroke-width="1.038686"
         id="g96">
        <path
           d="m16 90v38h96v-38z"
           filter="url(#o)"
           opacity=".89589"
           id="path90" />
        <path
           d="m14 89 .01367 39h99.98633v-39z"
           filter="url(#n)"
           opacity=".835616"
           id="path92" />
        <path
           d="m14 88 .01563 40h99.98437v-40z"
           filter="url(#n)"
           opacity=".715069"
           id="path94" />
      </g>
      <path
         d="m16 90v38h96v-38z"
         fill="url(#e)"
         id="path98" />
      <path
         d="m24.679688 98c-.539277 0-.980469.44144-.980469.982422l.09375 29.017578h80.207031v-29.017578c0-.540982-.43827-.982422-.97852-.982422z"
         fill="url(#f)"
         id="path100" />
    </g>
    <g
       id="g126">
      <g
         stroke-width="1.038686"
         id="g110">
        <path
           d="m16 0v40h61.121094c.552083 0 1.082031-.219029 1.472656-.607422l32.79492-32.9003905c.39063-.3883929.61133-.9159152.61133-1.4648437v-5.0273438z"
           filter="url(#o)"
           opacity=".89589"
           id="path104" />
        <path
           d="m14.027344 0 .01563 42h63.677734c.552083 0 1.082031-.219029 1.472656-.607422l34.195306-33.9999999c.39063-.3883928.61133-.9159151.61133-1.4648437v-5.9277344z"
           filter="url(#n)"
           opacity=".715069"
           id="path106" />
        <path
           d="m14.027344 0 .01563 42h63.677734c.552083 0 1.082031-.219029 1.472656-.607422 13.850955-8.503846 25.146206-19.955548 34.195306-33.9999999.39063-.3883928.61133-.9159151.61133-1.4648437v-5.9277344z"
           filter="url(#n)"
           opacity=".835616"
           id="path108" />
      </g>
      <path
         d="m16 0v40h61.171875c.53 0 1.039063-.210938 1.414063-.585938l32.828122-32.8281245c.375-.375.58594-.8840625.58594-1.4140625v-5.171875z"
         fill="url(#a)"
         id="path112" />
      <path
         d="m23.900391 0 .099609 31.017578c0 .54197.43924.982422.978516.982422h51.914062c.257404 0 .509364-.103509.691406-.287109l26.128906-26.2324222c.18303-.1836001.28711-.4351414.28711-.6933594v-4.7871094z"
         fill="url(#b)"
         id="path114" />
      <g
         transform="translate(.000002 -80)"
         id="g124">
        <path
           d="m111.414 86.586c.25-.25-26.379-1.586-31.414-1.586-1.654 0-3 1.346-3 3 0 5.035 1.336 31.664 1.586 31.414z"
           filter="url(#r)"
           opacity=".906849"
           id="path116" />
        <path
           d="m111.414 86.586c.375-.375-21.97-.586-31.414-.586-1.103 0-2 .897-2 2 0 9.444.211 31.789.586 31.414z"
           filter="url(#q)"
           opacity=".2"
           id="path118" />
        <path
           d="m111.414 86.586c.239-.239-21.607.414-31.414.414-.553 0-1 .447-1 1 0 9.807-.653 31.653-.414 31.414z"
           fill="url(#c)"
           filter="url(#p)"
           opacity=".1"
           id="path120" />
        <path
           d="m78.586 119.414s11.914-9.914 17.414-15.414 15.414-17.414 15.414-17.414-21.164 1.414-31.414 1.414c0 10.25-1.414 31.414-1.414 31.414z"
           fill="url(#d)"
           id="path122" />
      </g>
    </g>
    <g
       id="g138">
      <path
         d="m32 64c-8.376698 5.43954-23.6233029 18.560459-32 24v-48c8.3766972 5.439541 23.623303 18.560459 32 24z"
         fill="url(#h)"
         id="path128" />
      <path
         d="m40 56h24v16h-24z"
         fill="url(#k)"
         id="path130" />
      <path
         d="m72 56h24v16h-24z"
         fill="url(#j)"
         id="path132" />
      <path
         d="m104 56h24v16h-24z"
         fill="url(#i)"
         id="path134" />
      <path
         d="m8 56.052734v15.894532c3.497188-2.745361 6.765701-5.232021 10.330078-7.947266-3.564377-2.715245-6.83289-5.201905-10.330078-7.947266z"
         fill="#bfd9ff"
         id="path136" />
    </g>
  </g>
</svg>
