<svg height="16" width="16" xmlns="http://www.w3.org/2000/svg" xmlns:xlink="http://www.w3.org/1999/xlink"><linearGradient id="a"><stop offset="0" stop-color="#fff"/><stop offset="1" stop-color="#fff" stop-opacity="0"/></linearGradient><filter id="b" height="1.157943" width="1.244782" x="-.122391" y="-.078971"><feGaussianBlur stdDeviation=".321914"/></filter><filter id="c"><feGaussianBlur stdDeviation=".395"/></filter><filter id="d"><feGaussianBlur stdDeviation=".4349886"/></filter><radialGradient id="e" cx="70.460922" cy="14.625686" gradientTransform="matrix(.9650814 .2619502 -.9201984 3.3902106 17.309062 -57.693239)" gradientUnits="userSpaceOnUse" r="3.15625"><stop offset="0" stop-color="#ffe280"/><stop offset="1" stop-color="#f0ff80" stop-opacity="0"/></radialGradient><radialGradient id="f" cx="71.775223" cy="16.0865" gradientTransform="matrix(.9650814 .2619502 -.9201984 3.3902106 9.309062 -57.693239)" gradientUnits="userSpaceOnUse" r="3.15625" xlink:href="#a"/><linearGradient id="g" gradientTransform="matrix(-.00000001 -.12499999 .12499999 -.00000001 -.495391 9.47956)" gradientUnits="userSpaceOnUse" x1="96.373123" x2="96.373123" y1="120.42788" y2="46.089832"><stop offset="0" stop-color="#002a0d"/><stop offset="1" stop-color="#002a0d" stop-opacity="0"/></linearGradient><linearGradient id="h" gradientTransform="matrix(-.00000001 -.12499999 .12499999 -.00000001 -.495391 9.97956)" gradientUnits="userSpaceOnUse" x1="71.626404" x2="46.225941" y1="123.73875" y2="28.942928"><stop offset="0" stop-color="#ff4900"/><stop offset="1" stop-color="#4d3500"/></linearGradient><radialGradient id="i" cx="47.934944" cy="77.572655" fx="48.230755" fy="84.389229" gradientTransform="matrix(1.4429896 .00000008 -.00000008 1.3852701 -6.365246 -31.441692)" gradientUnits="userSpaceOnUse" r="50"><stop offset="0" stop-color="#d00"/><stop offset="1" stop-color="#0e0600"/></radialGradient><linearGradient id="j" gradientUnits="userSpaceOnUse" x1="115.785248" x2="115.992706" y1="112.5" y2="44.287056"><stop offset="0" stop-color="#e0ffe0"/><stop offset="1" stop-color="#bfffbf" stop-opacity="0"/></linearGradient><linearGradient id="k" gradientTransform="matrix(-.00000001 -.12499999 .12499999 -.00000001 -.495391 11.47956)" gradientUnits="userSpaceOnUse" x1="35.629562" x2="46.758774" y1="11.479795" y2="70.827744"><stop offset="0" stop-color="#ffd6bf"/><stop offset="1" stop-color="#ffbfbf" stop-opacity="0"/></linearGradient><linearGradient id="l" gradientUnits="userSpaceOnUse" x1="84" x2="62.345421" xlink:href="#a" y1="67.238144" y2="40.171875"/><g transform="matrix(-.00000001 -.12499999 .12499999 -.00000001 -.495391 14.47956)"><g fill-rule="evenodd"><path d="m1.5 4c-.2410433 0-.4325676.1720716-.4804688.3984375-.00549.032455-.016667.064214-.015625.097656.00171.054835.014258 1.1213005.033203 2.1855468.0726106.1862402.2503465.3183597.4628908.3183597h13c.270075 0 .485325-.2131292.496094-.4804688.0096-1.0668236-.0051-2.1106188-.04492-2.2304687-.01932-.041391-.04679-.077104-.07617-.1113281-.012-.015014-.02359-.029516-.03711-.042969-.089068-.0823601-.206459-.1347654-.337894-.1347654z" fill="url(#h)" transform="matrix(-.00000069 8.0000006 -8.0000006 -.00000069 99.836488 3.963133)"/><path d="m1.5 4c-.2410433 0-.4325676.1720716-.4804688.3984375-.0054888.032455-.0166672.0642141-.015625.0976563.0011353.0364866.0126052 1.1893654.0214844 2.1289062.0563335.214493.241956.375.4746094.375h13c.266613 0 .478272-.2082174.494141-.4707031-.0012-1.1491445-.01186-2.1454414-.04297-2.2402344-.01932-.041391-.04679-.077104-.07617-.1113281-.012-.015014-.02359-.029516-.03711-.042969-.089065-.0823601-.206456-.1347654-.337891-.1347654z" fill="url(#g)" opacity=".536946" transform="matrix(-.00000069 8.0000006 -8.0000006 -.00000069 99.836488 3.963133)"/><path d="m1.5 4c-.2410433 0-.4325676.1720716-.4804688.3984375-.00549.032455-.016667.064214-.015625.097656.00171.054835.014258 1.1213005.033203 2.1855468.0726106.1862402.2503465.3183597.4628908.3183597h13c.270075 0 .485325-.2131292.496094-.4804688.0096-1.0668236-.0051-2.1106188-.04492-2.2304687-.01932-.041391-.04679-.077104-.07617-.1113281-.012-.015014-.02359-.029516-.03711-.042969-.089068-.0823601-.206459-.1347654-.337894-.1347654z" style="opacity:.536946;fill:#4d0000;stroke:#4d0000;stroke-width:.125;stroke-linejoin:round;filter:url(#d)" transform="matrix(-.00000069 8.0000006 -8.0000006 -.00000069 99.836488 3.963133)"/><path d="m59.836483 19.963131-8.000001-.000004-.000008 96.000013h8.000001l.101025-21.593999-.02344-52.773438v-.002z" fill="url(#i)"/></g><path d="m59.836483 19.963131-8.000001-.000004-.000008 96.000013h8.000001l.161572-21.593999-.02344-52.773438v-.002z" fill="none" filter="url(#c)" stroke="url(#j)" stroke-width=".5"/><path d="m63.875 12c-.799041.02487-1.572946.283948-2.21875.75l-1.676719 11.167975 7.989219-8.292975c-.08779-.946211-.499493-1.832841-1.1875-2.5-.777377-.75382-1.823927-1.158727-2.90625-1.125z" fill="url(#f)" fill-rule="evenodd" filter="url(#b)" opacity=".85"/><path d="m71.898995 4.0368609c-.799041.02487-1.572946.283948-2.21875.75l-1.045774 11.7652471 7.358274-8.8902471c-.08779-.946211-.499493-1.832841-1.1875-2.5-.777377-.75382-1.823927-1.158727-2.90625-1.125z" fill="url(#e)" fill-rule="evenodd" filter="url(#b)" opacity=".35" transform="matrix(1 0 0 -1 -8 127.7793)"/><path d="m2 5.0000001v1l6.3339849-.0000001c.035839-.3366533.063605-.6697919.070312-1z" fill="url(#k)" fill-rule="evenodd" transform="matrix(-.00000069 8.0000006 -8.0000006 -.00000069 99.836488 3.963133)"/><path d="m80.180233 19.681881-.34375.28125-.04669 21.411869.02399 29.494389-7.933723-5.184527c-6.841916-4.471053 8.306123-45.787164.45642-46.096732l-.5.375c8.051341.325047-6.913448 41.6242.16858 46.127982l8.152473 5.184527-.02399-29.681889z" fill="url(#l)" fill-rule="evenodd" transform="translate(-20)"/></g></svg>