<svg height="16" viewBox="0 0 4.2333332 4.2333335" width="16" xmlns="http://www.w3.org/2000/svg" xmlns:xlink="http://www.w3.org/1999/xlink"><linearGradient id="a" gradientTransform="matrix(.00229536 0 0 -.00368859 .289929 298.62614)" gradientUnits="userSpaceOnUse" x1="-11.041996" x2="1141.647" y1="904.03656" y2="872.30853"><stop offset="0" stop-color="#717174"/><stop offset=".5" stop-color="#9c9ca1"/><stop offset="1" stop-color="#bdbdc2"/></linearGradient><g stroke-width=".033073" transform="translate(0 -292.76665)"><path d="m.35456491 294.08563c-.0498587 0-.0899816.0467-.0899816.10464v2.43655c0 .058.0401229.10464.0899816.10464h2.46587009c.049859 0 .089982-.0466.089982-.10464v-1.06712-.21187-.008a1.1390358 1.1390358 0 0 1 -.1144633.008 1.1390358 1.1390358 0 0 1 -.1500554-.01c-.5161923-.065-.9227625-.47142-.9878596-.9876a1.1390358 1.1390358 0 0 1 -.010206-.13235 1.1390358 1.1390358 0 0 1 .00756-.13223h-.00756zm.21645966.26458h.85834553a1.3554649 1.3554649 0 0 0 1.2164632 1.2153v.85099c0 .0279-.018663.0504-.041858.0504h-2.03295073c-.0231954 0-.0418579-.0225-.0418579-.0504v-2.0159c0-.0279.0186626-.0504.0418579-.0504z" fill="url(#a)" opacity=".75"/><path d="m2.6458333 292.8691a1.3554649 1.3554649 0 0 0 -.2486928.049l.08307.20057c.054345-.0154.1097023-.0266.1656229-.0338zm.2645834.001v.20858c.056819.007.1129405.0186.168013.0341l.080809-.19495a1.3554649 1.3554649 0 0 0 -.248822-.0477zm.494285.14637-.080615.19457c.051306.0271.1006558.0576.1472132.0922l.1481177-.14811a1.3554649 1.3554649 0 0 0 -.2147156-.13863zm-1.2528951.00052a1.3554649 1.3554649 0 0 0 -.2139404.13914l.1547063.15471c.045178-.0343.092692-.0654.1425624-.0927zm1.6579093.32201-.1512828.15128c.014124.0172.027786.0348.040889.0529l.00484-.004c.021813.0301.041396.0614.059945.0931l.193593-.0802a1.3554649 1.3554649 0 0 0 -.1479884-.21265zm-2.0621481.00097a1.3554649 1.3554649 0 0 0 -.148053.21213l.2019902.0836c.00546-.009.010421-.019.016149-.0282.00156-.003.00313-.005.00472-.007.023341-.0377.049433-.0736.076998-.10832zm2.3169772.45385-.1940447.0804c.017692.058.030592.11719.038822.17699h.2127779a1.3554649 1.3554649 0 0 0 -.057555-.25734zm-2.5719359.00032a1.3554649 1.3554649 0 0 0 -.058588.25719h.2192373c.00897-.0589.022524-.11696.040566-.1737zm2.4220098.52161c-.00589.0611-.016497.12194-.032362.1819l.2013444.0834a1.3554649 1.3554649 0 0 0 .046315-.26529zm-.1293849.42807c-.00887.017-.017991.0339-.027712.0504-.015133.0254-.031251.0502-.048318.0744-.00197.003-.00395.006-.00594.009-.00612.009-.012513.017-.018862.0254l.1557401.15574a1.3554649 1.3554649 0 0 0 .1474714-.23067zm-.2837683.35005c-.015527.0129-.031261.0255-.047477.0375l.00284.003c-.036039.0257-.073657.0491-.1123959.0705l.083263.20096a1.3554649 1.3554649 0 0 0 .2284102-.15742zm-.4009444.21355-.0003227.00007c-.062003.0188-.1254939.0322-.1897819.0402v.12144.0963a1.3554649 1.3554649 0 0 0 .2736913-.0562z" fill="#06f"/></g></svg>