<svg height="16" viewBox="0 0 4.2333332 4.2333335" width="16" xmlns="http://www.w3.org/2000/svg" xmlns:xlink="http://www.w3.org/1999/xlink"><linearGradient id="a" gradientUnits="userSpaceOnUse" x1="2.021167" x2="4.169385" xlink:href="#f" y1="295.241796" y2="292.237943"/><linearGradient id="b" gradientTransform="matrix(0 .01889851 .02519804 0 -.081888 294.18875)" gradientUnits="userSpaceOnUse" x1="119.57646" x2="15.999996" xlink:href="#f" y1="23.792561" y2="109.6508"/><linearGradient id="c" gradientTransform="matrix(0 -.04528563 -.05669552 0 3.345042 299.22914)" gradientUnits="userSpaceOnUse" x1="102.31124" x2="69.663071" xlink:href="#d" y1="-5.830213" y2="63.666851"/><linearGradient id="d"><stop offset="0" stop-color="#fff"/><stop offset="1" stop-color="#fff" stop-opacity="0"/></linearGradient><linearGradient id="e" gradientUnits="userSpaceOnUse" x1="4.101041" x2="3.042708" xlink:href="#d" y1="293.824983" y2="294.486442"/><linearGradient id="f"><stop offset="0" stop-color="#fff"/><stop offset=".42597079" stop-color="#fff"/><stop offset=".5892781" stop-color="#f9d1d1"/><stop offset=".80219781" stop-color="#fbd9d9"/><stop offset="1" stop-color="#fdd"/></linearGradient><linearGradient id="g" gradientTransform="matrix(.03307292 0 0 .03307292 2.472065 292.73693)" gradientUnits="userSpaceOnUse" x1="46.591778" x2="118.24603" y1="39.999996" y2="39.999996"><stop offset="0" stop-color="#ff6b6b"/><stop offset=".5" stop-color="#fc4141"/><stop offset="1" stop-color="#ff9f9f"/></linearGradient><linearGradient id="h" gradientUnits="userSpaceOnUse" x1=".264583" x2="2.910417" xlink:href="#g" y1="295.41296" y2="295.41296"/><linearGradient id="i" gradientUnits="userSpaceOnUse" x1="1.42937" x2="4.133592" xlink:href="#g" y1="294.2182" y2="294.2182"/><linearGradient id="j" gradientUnits="userSpaceOnUse" x1="1.42937" x2="4.133598" xlink:href="#g" y1="294.21841" y2="294.21841"/><g stroke-width=".033073" transform="translate(0 -292.76665)"><path d="m.35450035 294.09003c-.0498587 0-.089917.0464-.089917.10438v1.27951 1.15755c0 .058.0400583.10439.089917.10439h1.17253835 1.2934612c.012464 0 .024368-.003.03514-.008.032319-.0158.054777-.0526.054777-.0961v-1.2795-1.15756c0-.058-.040058-.10438-.089917-.10438h-1.1725383zm.21652425.26458h.8583456a1.355465 1.355465 0 0 0 1.2164634 1.21543v.85059c0 .0279-.018663.0506-.041858.0506h-.8583456a1.355465 1.355465 0 0 0 -1.21646331-1.21543v-.8506c0-.0279.0186625-.0506.0418579-.0506zm1.0774537 0h.9554974c.023195 0 .041858.0227.041858.0506v.94775a1.1390359 1.1390359 0 0 1 -.9973553-.99839zm-1.11931161 1.11828a1.1390359 1.1390359 0 0 1 .99735521.99839h-.9554973c-.0231954 0-.0418579-.0227-.0418579-.0506z" fill="url(#h)"/><path d="m.57980959 294.35461c-.0279194 0-.0506429.0187-.0506429.0419v.85834 1.17461c0 .0232.0227235.0419.0506429.0419h1.16478691.8505942c.027919 0 .050643-.0187.050643-.0419v-.85835-1.1746c0-.0232-.022724-.0419-.050643-.0419h-1.1647869z" fill="url(#b)" fill-rule="evenodd"/><path d="m2.6458336 294.61919c-.3643851.0655-1.79417253.36373-2.11666691.39688v1.23261c.51382851-.20693 1.61707531-.77059 2.11666691-1.10032z" fill="url(#c)" fill-rule="evenodd"/><path d="m2.6525513 292.86685c-.2760027.0273-.5369952.13856-.747758.31884-.0333.0284-.065205.0584-.095601.0899-.029548.0304-.057657.0621-.084233.0951-.1666779.20575-.269438.45583-.2955892.71933h.00672c-.00415.0414-.00639.083-.00672.12454-.0000044.74861.6068641 1.35548 1.3554729 1.35547.041931-.00012.083834-.002.1255736-.006v.006c.275104-.0272.5352995-.13796.7456909-.31729l.00206-.002c.00696-.006.013848-.013.020672-.0196.025855-.0225.050851-.0459.074931-.0703.029548-.0304.057656-.0621.084232-.0951.166678-.20576.2694381-.45583.2955893-.71934h-.00672c.00415-.0414.00639-.0829.00672-.12454.000004-.74861-.6068644-1.35547-1.3554733-1.35547-.041931.00012-.083834.002-.1255737.006z" fill="url(#i)"/><path d="m2.7781896 292.86685a1.3554649 1.3554649 0 0 0 -1.3488195 1.22318h.2184621 1.1726028c.049859 0 .089982.0467.089982.10465v1.15755.12144.0963a1.3554649 1.3554649 0 0 0 1.2231815-1.34772 1.3554649 1.3554649 0 0 0 -1.3554085-1.35541z" fill="url(#j)"/><path d="m2.6551353 293.08337c-.2536477.0299-.4898813.14421-.6707601.32453-.0091.008-.018056.0171-.026872.0258-.00121.001-.00242.003-.00362.004-.1698388.17857-.2771838.4074-.3059244.65216h.00827c-.00497.0408-.00773.0819-.00827.12299.0000481.629.5099446 1.1389 1.1389486 1.13895.04127-.00018.082499-.003.1235067-.007v.007c.2494987-.0295.4822347-.14072.6619752-.31626.012136-.0113.024024-.0228.035657-.0346.1718657-.17903.2805568-.4093.3095419-.65577h-.00878c.00515-.0408.00808-.0819.00878-.12299-.0000482-.62921-.5102596-1.13919-1.1394655-1.13895-.041097.00019-.082154.003-.12299.007z" fill="url(#a)"/><path d="m3.6570768 293.49878c-.4088205.21486-.8903621.44385-1.3621262.59125h.5254847c.049859 0 .089982.0467.089982.10464v.69977c.360192-.28513.7011433-.59089.9918645-.85422a1.1390359 1.1390359 0 0 0 -.245205-.54144z" fill="url(#e)" fill-rule="evenodd"/></g></svg>