<svg height="16" viewBox="0 0 16 16" width="16" xmlns="http://www.w3.org/2000/svg" xmlns:xlink="http://www.w3.org/1999/xlink"><linearGradient id="a"><stop offset="0" stop-color="#fd0000"/><stop offset="1" stop-color="#8f0000"/></linearGradient><linearGradient id="b" gradientUnits="userSpaceOnUse" x1="2.5" x2="2.999997" xlink:href="#a" y1="10.499999" y2="15"/><radialGradient id="c" cx="72.631729" cy="22.787588" gradientTransform="matrix(1.185546 0 0 1.185549 -83.608263 -13.015791)" gradientUnits="userSpaceOnUse" r="1.265237" xlink:href="#a"/><linearGradient id="d"><stop offset="0" stop-color="#fff"/><stop offset="1" stop-color="#fff" stop-opacity="0"/></linearGradient><linearGradient id="e" gradientUnits="userSpaceOnUse" x1="1.951383" x2="2.645" xlink:href="#d" y1="11.523261" y2="14.111875"/><linearGradient id="f" gradientUnits="userSpaceOnUse" x1="12.499998" x2="12.999995" xlink:href="#a" y1="-.500001" y2="4"/><radialGradient id="g" cx="72.631729" cy="22.787588" fx="72.631729" fy="22.787588" gradientTransform="matrix(1.185546 0 0 1.185549 -73.608265 -24.015791)" gradientUnits="userSpaceOnUse" r="1.265237" xlink:href="#a"/><linearGradient id="h" gradientUnits="userSpaceOnUse" x1="11.951381" x2="12.644998" xlink:href="#d" y1=".523261" y2="3.111875"/><linearGradient id="i" gradientUnits="userSpaceOnUse" x1="2.887138" x2="4.274372" xlink:href="#d" y1=".046522" y2="5.223749"/><linearGradient id="j" gradientUnits="userSpaceOnUse" x1="5" x2="5" xlink:href="#g" y1="0" y2="4.5"/><radialGradient id="k" cx="4.024414" cy="5.997086" fx="4.024414" fy="5.997086" gradientTransform="matrix(2.5000001 .00000002 -.00000001 .99999997 -6.061034 .002914)" gradientUnits="userSpaceOnUse" r="1" xlink:href="#g"/><g transform="translate(0 1)"><path d="m1.28125 12h2.4375c.15625 0 .28125.125.28125.28125v2.4375c0 .15625-.125.28125-.28125.28125h-2.4375c-.15625 0-.28125-.125-.28125-.28125v-2.4375c0-.15625.125-.28125.28125-.28125zm0 0" fill="url(#b)"/><path d="m1.6875 12.5h1.625c.105469 0 .1875.08203.1875.1875v1.625c0 .105469-.082031.1875-.1875.1875h-1.625c-.105469 0-.1875-.082031-.1875-.1875v-1.625c0-.105469.082031-.1875.1875-.1875zm0 0" fill="url(#c)"/><path d="m1.695312 12.5c-.105468 0-.1875.08203-.1875.1875v.945312c.152344.01563.308594.02344.46875.02344.574219 0 1.105469-.09766 1.53125-.261719v-.707033c0-.105469-.085937-.1875-.1875-.1875zm0 0" fill="url(#e)"/></g><g transform="translate(2)"><path d="m11.28125 1h2.4375c.15625 0 .28125.125.28125.28125v2.4375c0 .15625-.125.28125-.28125.28125h-2.4375c-.15625 0-.28125-.125-.28125-.28125v-2.4375c0-.15625.125-.28125.28125-.28125zm0 0" fill="url(#f)"/><path d="m11.6875 1.5h1.625c.105469 0 .1875.082031.1875.1875v1.625c0 .105469-.082031.1875-.1875.1875h-1.625c-.105469 0-.1875-.082031-.1875-.1875v-1.625c0-.105469.082031-.1875.1875-.1875zm0 0" fill="url(#g)"/><path d="m11.695312 1.5c-.105468 0-.1875.082031-.1875.1875v.945312c.152344.015626.308594.023438.46875.023438.574219 0 1.105469-.097656 1.53125-.261719v-.707031c0-.105469-.08594-.1875-.1875-.1875zm0 0" fill="url(#h)"/></g><path d="m2.265625 10.5-.265625 2.5h1l.265625-2.5c.6530577-3.650394 4.8339565-7.1600621 7.734375-7.3232233l2-.1767767v-1l-2 .1767767c-4.4438642.647727-8.642218 4.7765498-8.734375 8.3232233z" fill="#4f4a4f" fill-opacity=".996078"/><g transform="translate(2 2)"><rect fill="url(#j)" height="6" rx=".5" width="6" x="1" y="1"/><rect fill="url(#k)" height="4" rx=".25" width="4" x="2" y="2"/><path d="m2.375 2c-.210936 0-.375.164062-.375.375v1.890624c.304688.031252.617188.046876.9375.046876 1.148438 0 2.210938-.195312 3.0625-.523438v-1.414062c0-.210938-.17188-.375-.375-.375zm0 0" fill="url(#i)"/></g></svg>