<svg height="16" width="16" xmlns="http://www.w3.org/2000/svg" xmlns:xlink="http://www.w3.org/1999/xlink"><linearGradient id="a" gradientUnits="userSpaceOnUse" x1="60.000023" x2="63.999996" xlink:href="#d" y1="35.999994" y2="72.000001"/><radialGradient id="b" cx="72.631729" cy="22.787588" gradientTransform="matrix(9.484369 0 0 9.4843886 -628.86608 -152.12633)" gradientUnits="userSpaceOnUse" r="1.265237" xlink:href="#d"/><linearGradient id="c" gradientUnits="userSpaceOnUse" x1="55.611087" x2="61.160022" y1="44.186089" y2="64.894997"><stop offset="0" stop-color="#fff"/><stop offset="1" stop-color="#fff" stop-opacity="0"/></linearGradient><linearGradient id="d"><stop offset="0" stop-color="#fd0000"/><stop offset="1" stop-color="#8f0000"/></linearGradient><path d="m3 10v.999701l10 .000598v-1z" fill="#646464" fill-opacity=".933333" stroke-width=".142319"/><path d="m12.00397.8620455v-.34933863z" fill="#fff" fill-opacity=".756881" stroke-width=".125"/><path d="m16.300914 7.5362555v-.190842z" fill="#fff" fill-opacity=".756881" stroke-width=".125"/><g transform="matrix(.125 0 0 .125 3 -5)"><rect fill="url(#a)" height="24" rx="2.25" width="24.000011" x="48.000004" y="48"/><rect fill="url(#b)" height="16.000002" rx="1.5" width="16.00001" x="52.000027" y="52"/><path d="m53.55 52c-.831 0-1.5.669-1.5 1.5v7.5625c1.21577.115562 2.46728.1875 3.75.1875 4.616543 0 8.863957-.778523 12.25-2.09375v-5.65625c0-.831-.668998-1.5-1.5-1.5z" fill="url(#c)"/></g><g fill="#646464" fill-opacity=".933333"><path d="m7 5h-.9997006l-.0002994 10h1z" stroke-width=".160109"/><path d="m11 4h-.999701l-.000299 11h1z" stroke-width=".146576"/><path d="m1 5v.999701l4 .000299v-1z" stroke-width=".102062"/></g><g transform="matrix(.125 0 0 .125 -6.000001 -2)"><rect fill="url(#a)" height="24" rx="2.25" width="24.000011" x="48.000004" y="48"/><rect fill="url(#b)" height="16.000002" rx="1.5" width="16.00001" x="52.000027" y="52"/><path d="m53.55 52c-.831 0-1.5.669-1.5 1.5v7.5625c1.21577.115562 2.46728.1875 3.75.1875 4.616543 0 8.863957-.778523 12.25-2.09375v-5.65625c0-.831-.668998-1.5-1.5-1.5z" fill="url(#c)"/></g><path d="m6 14v.999701l5 .000299v-1z" fill="#646464" fill-opacity=".933333" stroke-width=".114109"/><g transform="matrix(.125 0 0 .125 -1 7)"><rect fill="url(#a)" height="24" rx="2.25" width="24.000011" x="48.000004" y="48"/><rect fill="url(#b)" height="16.000002" rx="1.5" width="16.00001" x="52.000027" y="52"/><path d="m53.55 52c-.831 0-1.5.669-1.5 1.5v7.5625c1.21577.115562 2.46728.1875 3.75.1875 4.616543 0 8.863957-.778523 12.25-2.09375v-5.65625c0-.831-.668998-1.5-1.5-1.5z" fill="url(#c)"/></g><g transform="matrix(.125 0 0 .125 3 7)"><rect fill="url(#a)" height="24" rx="2.25" width="24.000011" x="48.000004" y="48"/><rect fill="url(#b)" height="16.000002" rx="1.5" width="16.00001" x="52.000027" y="52"/><path d="m53.55 52c-.831 0-1.5.669-1.5 1.5v7.5625c1.21577.115562 2.46728.1875 3.75.1875 4.616543 0 8.863957-.778523 12.25-2.09375v-5.65625c0-.831-.668998-1.5-1.5-1.5z" fill="url(#c)"/></g><g transform="matrix(.125 0 0 .125 6.999998 3)"><rect fill="url(#a)" height="24" rx="2.25" width="24.000011" x="48.000004" y="48"/><rect fill="url(#b)" height="16.000002" rx="1.5" width="16.00001" x="52.000027" y="52"/><path d="m53.55 52c-.831 0-1.5.669-1.5 1.5v7.5625c1.21577.115562 2.46728.1875 3.75.1875 4.616543 0 8.863957-.778523 12.25-2.09375v-5.65625c0-.831-.668998-1.5-1.5-1.5z" fill="url(#c)"/></g><path d="m2 7h-.9997006l-.0002994 4h1z" fill="#646464" fill-opacity=".933333" stroke-width=".101262"/><g transform="matrix(.125 0 0 .125 -1 -2)"><rect fill="url(#a)" height="24" rx="2.25" width="24.000011" x="48.000004" y="48"/><rect fill="url(#b)" height="16.000002" rx="1.5" width="16.00001" x="52.000027" y="52"/><path d="m53.55 52c-.831 0-1.5.669-1.5 1.5v7.5625c1.21577.115562 2.46728.1875 3.75.1875 4.616543 0 8.863957-.778523 12.25-2.09375v-5.65625c0-.831-.668998-1.5-1.5-1.5z" fill="url(#c)"/></g><g transform="matrix(.125 0 0 .125 -6.000001 3)"><rect fill="url(#a)" height="24" rx="2.25" width="24.000011" x="48.000004" y="48"/><rect fill="url(#b)" height="16.000002" rx="1.5" width="16.00001" x="52.000027" y="52"/><path d="m53.55 52c-.831 0-1.5.669-1.5 1.5v7.5625c1.21577.115562 2.46728.1875 3.75.1875 4.616543 0 8.863957-.778523 12.25-2.09375v-5.65625c0-.831-.668998-1.5-1.5-1.5z" fill="url(#c)"/></g></svg>