<svg height="16" width="16" xmlns="http://www.w3.org/2000/svg" xmlns:xlink="http://www.w3.org/1999/xlink"><linearGradient id="a"><stop offset="0" stop-color="#fd0000"/><stop offset="1" stop-color="#8f0000"/></linearGradient><radialGradient id="b" cx="72.631729" cy="22.787588" gradientTransform="matrix(9.484369 0 0 9.4843886 -628.86608 -152.12633)" gradientUnits="userSpaceOnUse" r="1.265237" xlink:href="#a"/><linearGradient id="c" gradientUnits="userSpaceOnUse" x1="60.000023" x2="63.999996" xlink:href="#a" y1="35.999994" y2="72.000001"/><linearGradient id="d" gradientUnits="userSpaceOnUse" x1="55.611087" x2="61.160022" y1="44.186089" y2="64.894997"><stop offset="0" stop-color="#fff"/><stop offset="1" stop-color="#fff" stop-opacity="0"/></linearGradient><g transform="scale(.125)"><path d="m32 16v7.997605l72 .002395v-8z" fill="#646464" fill-opacity=".933333"/><g transform="translate(-40 -40)"><rect fill="url(#c)" height="24" rx="2.25" width="24.000011" x="48.000004" y="48"/><rect fill="url(#b)" height="16.000002" rx="1.5" width="16.00001" x="52.000027" y="52"/><path d="m53.55 52c-.831 0-1.5.669-1.5 1.5v7.5625c1.21577.115562 2.46728.1875 3.75.1875 4.616543 0 8.863957-.778523 12.25-2.09375v-5.65625c0-.831-.668998-1.5-1.5-1.5z" fill="url(#d)"/></g><path d="m96.03176 6.896364v-2.794709z" fill="#fff" fill-opacity=".756881"/><path d="m130.40731 60.290044v-1.526736z" fill="#fff" fill-opacity=".756881"/><g transform="translate(48 -40)"><rect fill="url(#c)" height="24" rx="2.25" width="24.000011" x="48.000004" y="48"/><rect fill="url(#b)" height="16.000002" rx="1.5" width="16.00001" x="52.000027" y="52"/><path d="m53.55 52c-.831 0-1.5.669-1.5 1.5v7.5625c1.21577.115562 2.46728.1875 3.75.1875 4.616543 0 8.863957-.778523 12.25-2.09375v-5.65625c0-.831-.668998-1.5-1.5-1.5z" fill="url(#d)"/></g><g transform="translate(-40 48)"><rect fill="url(#c)" height="24" rx="2.25" width="24.000011" x="48.000004" y="48"/><rect fill="url(#b)" height="16.000002" rx="1.5" width="16.00001" x="52.000027" y="52"/><path d="m53.55 52c-.831 0-1.5.669-1.5 1.5v7.5625c1.21577.115562 2.46728.1875 3.75.1875 4.616543 0 8.863957-.778523 12.25-2.09375v-5.65625c0-.831-.668998-1.5-1.5-1.5z" fill="url(#d)"/></g><path d="m24 32h-7.997605l-.002395 64h8z" fill="#646464" fill-opacity=".933333"/><path d="m115.85938 39.999995a76 76 0 0 0 -76.000005 76.000005 76 76 0 0 0 .203125 4h7.9375a68 68 0 0 1 -.140625-4 68 68 0 0 1 68.000005-68.000005 68 68 0 0 1 4 .203125v-8.0625a76 76 0 0 0 -4-.140625z" fill="#06f"/></g></svg>