<svg height="16" width="16" xmlns="http://www.w3.org/2000/svg" xmlns:xlink="http://www.w3.org/1999/xlink"><linearGradient id="a"><stop offset="0" stop-color="#fff"/><stop offset="1" stop-color="#fff" stop-opacity="0"/></linearGradient><linearGradient id="b"><stop offset="0" stop-color="#0968ef"/><stop offset="1" stop-color="#aecffc"/></linearGradient><linearGradient id="c" gradientUnits="userSpaceOnUse" x1="44.502156" x2="44.502156" xlink:href="#b" y1="167.19379" y2="94.302841"/><linearGradient id="d" gradientTransform="matrix(.7768707 0 0 .9757987 14.289682 27.123138)" gradientUnits="userSpaceOnUse" x1="71.754753" x2="63.999992" xlink:href="#b" y1="39.122932" y2="154.62848"/><linearGradient id="e" gradientUnits="userSpaceOnUse" x1="66.113083" x2="66.113083" y1="47.939508" y2="144.57809"><stop offset="0"/><stop offset="1" stop-color="#8f8f8f"/></linearGradient><linearGradient id="f" gradientUnits="userSpaceOnUse" x1="-33.89937" x2="-17.39621" xlink:href="#a" y1="56.603775" y2="56.603775"/><mask id="g" maskUnits="userSpaceOnUse"><path d="m-147.81133-8h130.4151v129.20755h-130.4151z" fill="url(#f)" transform="rotate(-90)"/></mask><linearGradient id="h" gradientTransform="matrix(1.0000758 0 0 1 -.002122 23.96875)" gradientUnits="userSpaceOnUse" x1="55.039051" x2="55.039051" xlink:href="#a" y1="-6.079279" y2="85.979202"/><linearGradient id="i" gradientUnits="userSpaceOnUse" x1="105.308179" x2="121.811339" xlink:href="#a" y1="82.603773" y2="82.603773"/><mask id="j" maskUnits="userSpaceOnUse"><path d="m-8.603775 17.999994h130.4151v129.20755h-130.4151z" fill="url(#i)" mask="url(#g)" transform="matrix(0 1 -1 0 147.20754 6.188674)"/></mask><g mask="url(#j)" transform="scale(.125)"><path d="m28.0094 27.9875v126.325h72v-54.34375h54.34375v-72z" style="stroke-width:8;stroke-linecap:round;stroke-linejoin:round;stroke-dashoffset:1.0878;fill:url(#c);stroke:url(#d)"/><path d="m52.0094 51.96875v24 84.53125h24v-84.53125h84.53125v-24h-84.53125-15.954242z" style="fill:#fff;stroke-width:8;stroke-linecap:round;stroke-linejoin:round;stroke-dashoffset:1.0878;stroke:url(#e)"/><path d="m152.0094 61.961101v7.015298c0 1.103762-.88866 1.992351-1.9925 1.992351-23.02213 5.577738-99.460307 7.249811-121.724398.7l-.293015-43.59373c1.684018 0 91.074503.16039 94.069863.02237 15.46192-.712454 29.94005 14.769111 29.94005 33.863711z" fill="url(#h)"/><path d="m52.0094 60.377358v15.591392 84.53125h24v-84.53125h84.53125v-24h-84.53125-15.632041z" style="opacity:.3;fill:#fff;stroke-width:8;stroke-linecap:round;stroke-linejoin:round;stroke-dashoffset:1.0878;stroke:url(#e)"/></g></svg>