<svg height="16" viewBox="0 0 16 16" width="16" xmlns="http://www.w3.org/2000/svg" xmlns:xlink="http://www.w3.org/1999/xlink"><linearGradient id="a" gradientTransform="matrix(2.499161 0 0 1.671823 -82.24308 -178.7565)" gradientUnits="userSpaceOnUse" x1="161.73599" x2="164.3598" y1="172.2059" y2="180.6826"><stop offset="0" stop-color="#fff"/><stop offset=".42597079" stop-color="#fff"/><stop offset=".5892781" stop-color="#f1f1f1"/><stop offset=".80219781" stop-color="#eaeaea"/><stop offset="1" stop-color="#dfdfdf"/></linearGradient><linearGradient id="b" gradientUnits="userSpaceOnUse" x1="320.96942" x2="333.87659" y1="116.19397" y2="116.19397"><stop offset="0" stop-color="#b4b4b6"/><stop offset=".5" stop-color="#9c9ca1"/><stop offset="1" stop-color="#cdcdd1"/></linearGradient><linearGradient id="c" gradientTransform="matrix(3.4203251 0 0 3.0921658 -221.85152 -33.47448)" gradientUnits="userSpaceOnUse" x1="102.31124" x2="74.330322" y1="-5.830213" y2="32"><stop offset="0" stop-color="#fff"/><stop offset="1" stop-color="#fff" stop-opacity="0"/></linearGradient><g transform="translate(-319.423002 -108.194)"><path d="m319.423 108.194h16v16h-16z" fill="none" stroke-width=".986811"/><g fill-rule="evenodd"><path d="m321.4694 109.627c4.013-1.1346 7.9876-1.2788 11.9072 0-.9623 3.0613-.1342 5.9645-.5253 8.9123-.3223 2.4291-2.7191 3.8905-5.3932 5.1263-2.235-1.2411-4.943-2.2279-5.4283-5.1263-.4927-2.942.3044-6.6428-.5604-8.9123z" fill="url(#a)" stroke="url(#b)" stroke-linejoin="round" stroke-miterlimit="0" stroke-width="1.000001"/><g fill="#81a2d1" transform="matrix(.0362255 0 0 .0374743 341.0312 112.2468)"><path d="m-477.8634 129.033c-47.7622-35.34842 40.4745-98.71298 71.2745-29.15779 30.8001 69.55519-22.9969 107.72809-39.6868 64.79499 17.4149-.107 34.161-19.3157 13.7689-48.5962-20.3922-29.28054-43.9-18.63973-45.3566 12.959z"/><path d="m-406.5888 201.5225c42.8118-38.3565 24.4831-122.22255-19.4385-158.74789 9.1169-27.50161 24.6669-51.989057 51.026-70.86957 21.4731 16.69615 40.2672 37.030722 51.0261 70.86957-46.9482 33.5572-62.3216 121.69019-19.4385 158.74789-7.7569 14.5018-13.3081 31.1485-31.5875 37.2323-14.3245-5.0387-25.9002-19.2379-31.5876-37.2323z"/><path d="m-273.4425 129.033c47.7622-35.34842-40.4745-98.71298-71.2745-29.15779-30.8001 69.55519 22.9969 107.72809 39.6868 64.79499-17.4149-.107-34.161-19.3157-13.7689-48.5962 20.3922-29.28054 43.9-18.63973 45.3566 12.959z"/><path d="m-443.0312 121.4688a10.001 10.001 0 1 0 0 20h135.25a10.001 10.001 0 1 0 0-20z" stroke-width="20"/></g><path d="m99.556641 12.943359c-24.204083 20.191962-52.196987 46.352298-73.392579 71.78125 2.216541 8.787908 7.247714 14.831465 14.212891 20.009771 6.911991 5.13876 15.556811 9.27503 23.955078 13.81835 9.745695-4.60075 18.837043-9.53442 25.585938-15.24218 7.228231-6.113153 11.807771-12.8056 12.916011-21.158206 2.78588-20.997725-2.863141-43.234322 3.2129-67.423828-2.16161-.632117-4.32282-1.260821-6.490239-1.785157z" fill="url(#c)" transform="matrix(.125 0 0 .125 319.423 108.194)"/></g></g></svg>