<?xml version="1.0" encoding="UTF-8" standalone="no"?>
<svg
   xmlns:dc="http://purl.org/dc/elements/1.1/"
   xmlns:cc="http://creativecommons.org/ns#"
   xmlns:rdf="http://www.w3.org/1999/02/22-rdf-syntax-ns#"
   xmlns:svg="http://www.w3.org/2000/svg"
   xmlns="http://www.w3.org/2000/svg"
   xmlns:xlink="http://www.w3.org/1999/xlink"
   xmlns:sodipodi="http://sodipodi.sourceforge.net/DTD/sodipodi-0.dtd"
   xmlns:inkscape="http://www.inkscape.org/namespaces/inkscape"
   height="16"
   width="16"
   version="1.1"
   id="svg145"
   sodipodi:docname="wizard_tabular.svg"
   inkscape:version="0.92.5 (2060ec1f9f, 2020-04-08)"
   inkscape:export-filename="/home/rizmut/Dokumen/Rizmut/Github/karasa-jaga-icon-theme/build/Karasa-Jaga/16x16/actions/wizard_tabular.png"
   inkscape:export-xdpi="96"
   inkscape:export-ydpi="96">
  <metadata
     id="metadata151">
    <rdf:RDF>
      <cc:Work
         rdf:about="">
        <dc:format>image/svg+xml</dc:format>
        <dc:type
           rdf:resource="http://purl.org/dc/dcmitype/StillImage" />
        <dc:title></dc:title>
      </cc:Work>
    </rdf:RDF>
  </metadata>
  <defs
     id="defs149" />
  <sodipodi:namedview
     pagecolor="#ffffff"
     bordercolor="#666666"
     borderopacity="1"
     objecttolerance="10"
     gridtolerance="10"
     guidetolerance="10"
     inkscape:pageopacity="0"
     inkscape:pageshadow="2"
     inkscape:window-width="1366"
     inkscape:window-height="700"
     id="namedview147"
     showgrid="false"
     inkscape:zoom="14.75"
     inkscape:cx="0.57627119"
     inkscape:cy="8"
     inkscape:window-x="0"
     inkscape:window-y="0"
     inkscape:window-maximized="1"
     inkscape:current-layer="g143" />
  <linearGradient
     id="a"
     gradientTransform="scale(1.0975951 .9110828)"
     gradientUnits="userSpaceOnUse"
     x1="26.091133"
     x2="31.500689"
     xlink:href="#c"
     y1="14.856744"
     y2="14.856744" />
  <linearGradient
     id="b"
     gradientUnits="userSpaceOnUse"
     spreadMethod="reflect"
     x1="88.606247"
     x2="91.575104"
     y1="13.510336"
     y2="13.510336">
    <stop
       offset="0"
       stop-color="#c8ff87"
       id="stop3" />
    <stop
       offset="1"
       stop-color="#abff87"
       stop-opacity="0"
       id="stop5" />
  </linearGradient>
  <linearGradient
     id="c">
    <stop
       offset="0"
       stop-color="#fff"
       id="stop8" />
    <stop
       offset="1"
       stop-color="#fff"
       stop-opacity="0"
       id="stop10" />
  </linearGradient>
  <radialGradient
     id="d"
     cx="84.903702"
     cy="-130.14005"
     gradientTransform="matrix(.30794145 .30794145 -.30794145 .30794145 46.491338 107.57052)"
     gradientUnits="userSpaceOnUse"
     r="57.039597"
     xlink:href="#e" />
  <linearGradient
     id="e">
    <stop
       offset="0"
       stop-color="#011701"
       id="stop14" />
    <stop
       offset=".80671918"
       stop-color="#145703"
       id="stop16" />
    <stop
       offset="1"
       stop-color="#2fa207"
       stop-opacity=".384314"
       id="stop18" />
  </linearGradient>
  <radialGradient
     id="f"
     cx="43.084476"
     cy="-121.92532"
     gradientTransform="matrix(.30347528 .31234377 -.3628951 .35259129 39.983519 112.82479)"
     gradientUnits="userSpaceOnUse"
     r="57.039597"
     xlink:href="#e" />
  <radialGradient
     id="g"
     cx="51.991096"
     cy="-78.028419"
     gradientTransform="matrix(.28232256 .33158686 -.56115095 .47778001 28.065755 119.5934)"
     gradientUnits="userSpaceOnUse"
     r="57.039597"
     xlink:href="#e" />
  <filter
     id="h"
     height="1.277481"
     width="1.279832"
     x="-.139916"
     y="-.138741">
    <feGaussianBlur
       stdDeviation=".28784801"
       id="feGaussianBlur23" />
  </filter>
  <linearGradient
     id="i"
     gradientUnits="userSpaceOnUse"
     x1="304.88663"
     x2="345.62039"
     y1="385.86127"
     y2="384.62384">
    <stop
       offset="0"
       stop-color="#765c44"
       id="stop26" />
    <stop
       offset="1"
       stop-color="#765c44"
       stop-opacity="0"
       id="stop28" />
  </linearGradient>
  <linearGradient
     id="j"
     gradientUnits="userSpaceOnUse"
     spreadMethod="reflect"
     x1="31.606251"
     x2="34.575108"
     y1="13.510336"
     y2="13.510336">
    <stop
       offset="0"
       stop-color="#fff"
       id="stop31" />
    <stop
       offset="1"
       stop-color="#790000"
       stop-opacity="0"
       id="stop33" />
  </linearGradient>
  <radialGradient
     id="k"
     cx="50.424522"
     cy="-81.945961"
     gradientTransform="matrix(.30794145 .30794145 -.30794145 .30794145 46.491337 107.57052)"
     gradientUnits="userSpaceOnUse"
     r="50.15279">
    <stop
       offset="0"
       stop-color="#7ae91e"
       stop-opacity=".996078"
       id="stop36" />
    <stop
       offset="1"
       stop-color="#62c916"
       id="stop38" />
  </radialGradient>
  <filter
     id="l"
     color-interpolation-filters="sRGB"
     height="1.024"
     width="1.024"
     x="-.012"
     y="-.012">
    <feGaussianBlur
       stdDeviation=".28192153"
       id="feGaussianBlur41" />
  </filter>
  <linearGradient
     id="m"
     gradientUnits="userSpaceOnUse"
     x1="84.745605"
     x2="97.636749"
     xlink:href="#c"
     y1="48.278454"
     y2="110.57732" />
  <g
     transform="matrix(.125 0 0 .125 -.008059 -.007506)"
     id="g143">
    <path
       d="m24 24h88v80h-88z"
       fill="#fff"
       id="path45" />
    <g
       fill="#c8c8c8"
       id="g65">
      <path
         d="m24 80h24v8h-24z"
         id="path47" />
      <path
         d="m40 16h8v96h-8z"
         id="path49" />
      <path
         d="m88 16v56 32h8v-32-56z"
         id="path51" />
      <path
         d="m24 104v8h24 48v-8h-48z"
         id="path53" />
      <path
         d="m64 16v64 8 16h8v-16-8-64z"
         id="path55" />
      <path
         d="m16 16h8v96h-8z"
         id="path57" />
      <path
         d="m16 16h80v8h-80z"
         id="path59" />
      <path
         d="m24 32h64v8h-64z"
         id="path61" />
      <path
         d="m24 56h64v8h-64z"
         id="path63" />
    </g>
    <g
       fill="#55a811"
       id="g77">
      <path
         d="m40 16h32v8h-32z"
         id="path67" />
      <path
         d="m16 32h56v8h-56z"
         id="path69" />
      <path
         d="m16 56h32v8h-32z"
         id="path71" />
      <path
         d="m16 40h8v24h-8z"
         id="path73" />
      <path
         d="m40 24h8v32h-8z"
         id="path75" />
    </g>
    <g
       fill="#555"
       id="g85">
      <path
         d="m64 40h8v16h-8z"
         id="path79" />
      <path
         d="m48 56h16v8h-16z"
         id="path81" />
      <path
         d="m64 56h16v16h-16z"
         id="path83" />
    </g>
    <path
       d="m48 24h16v8h-16z"
       fill="#caffac"
       id="path87" />
    <path
       d="m64 16h8v24h-8z"
       fill="#55a811"
       id="path89" />
    <path
       d="m24 40h16v16h-16z"
       fill="#caffac"
       id="path91" />
    <path
       d="m24 64h16v40h-16z"
       fill="#d8d8d8"
       fill-opacity=".541176"
       id="path93" />
    <g
       fill="#c8c8c8"
       id="g109">
      <path
         d="m48 80h48v8h-48z"
         id="path95" />
      <path
         d="m112 16h8v96h-8z"
         id="path97" />
      <path
         d="m96 104h16v8h-16z"
         id="path99" />
      <path
         d="m96 80h16v8h-16z"
         id="path101" />
      <path
         d="m96 56h16v8h-16z"
         id="path103" />
      <path
         d="m96 32h16v8h-16z"
         id="path105" />
      <path
         d="m96 16h16v8h-16z"
         id="path107" />
    </g>
  </g>
</svg>
