<svg height="16" viewBox="0 0 4.2333333 4.2333335" width="16" xmlns="http://www.w3.org/2000/svg" xmlns:xlink="http://www.w3.org/1999/xlink"><linearGradient id="a" gradientUnits="userSpaceOnUse" x1="14.816667" x2="14.816667" y1="29.633333" y2="6.35"><stop offset="0" stop-color="#0fd1ff"/><stop offset="1" stop-color="#7df2ff"/></linearGradient><linearGradient id="b" gradientUnits="userSpaceOnUse" x1="40" x2="112" y1="36" y2="36"><stop offset="0" stop-color="#edab1e"/><stop offset="1" stop-color="#f0d845"/></linearGradient><g transform="scale(.125)"><path d="m5.2916663 20.108333v10.583333h23.2833337v-10.583333c-2.775723 2.072464-5.694696 5.041556-8.924819 5.182252-2.403126-1.901907-1.75727-5.04966-1.804072-7.951269.491743-1.792166-.569271-1.415268.911289-2.347472 3.251699-.615304 6.6356-2.954897 5.21176-6.0135666-1.894143-1.9515163-4.300926-1.7879957-6.614923-1.6036181-3.064903.7672104-3.392938 3.1089577-3.717619 5.8219777-.639765 3.781132-.963397 8.198006-2.53906 11.358955-2.5939155.804574-4.6038285-2.881961-5.8058897-4.447259z" fill="url(#a)" stroke="#5560ed" stroke-opacity=".835294" stroke-width="2.11667"/><path d="m76 0a35.999998 35.999998 0 0 0 -36 36 35.999998 35.999998 0 0 0 36 36 35.999998 35.999998 0 0 0 36-36 35.999998 35.999998 0 0 0 -36-36zm0 8a28 28 0 0 1 28 28 28 28 0 0 1 -28 28 28 28 0 0 1 -28-28 28 28 0 0 1 28-28z" fill="url(#b)" transform="scale(.26458333)"/></g></svg>