<?xml version="1.0" encoding="UTF-8" standalone="no"?>
<svg
   xmlns:dc="http://purl.org/dc/elements/1.1/"
   xmlns:cc="http://creativecommons.org/ns#"
   xmlns:rdf="http://www.w3.org/1999/02/22-rdf-syntax-ns#"
   xmlns:svg="http://www.w3.org/2000/svg"
   xmlns="http://www.w3.org/2000/svg"
   xmlns:xlink="http://www.w3.org/1999/xlink"
   xmlns:sodipodi="http://sodipodi.sourceforge.net/DTD/sodipodi-0.dtd"
   xmlns:inkscape="http://www.inkscape.org/namespaces/inkscape"
   enable-background="new 0 0 128 128"
   height="16"
   viewBox="0 0 16 16"
   width="16"
   version="1.1"
   id="svg121"
   sodipodi:docname="view-pages-facing.svg"
   inkscape:version="0.92.5 (2060ec1f9f, 2020-04-08)"
   inkscape:export-filename="/home/rizmut/Dokumen/Rizmut/Github/karasa-jaga-icon-theme/build/Karasa-Jaga/16x16/actions/view-pages-facing.png"
   inkscape:export-xdpi="96"
   inkscape:export-ydpi="96">
  <metadata
     id="metadata127">
    <rdf:RDF>
      <cc:Work
         rdf:about="">
        <dc:format>image/svg+xml</dc:format>
        <dc:type
           rdf:resource="http://purl.org/dc/dcmitype/StillImage" />
        <dc:title></dc:title>
      </cc:Work>
    </rdf:RDF>
  </metadata>
  <defs
     id="defs125">
    <radialGradient
       inkscape:collect="always"
       xlink:href="#a"
       id="radialGradient936"
       gradientUnits="userSpaceOnUse"
       cx="94"
       cy="112.3047"
       r="139.5585" />
    <radialGradient
       inkscape:collect="always"
       xlink:href="#b"
       id="radialGradient938"
       gradientUnits="userSpaceOnUse"
       gradientTransform="matrix(0.9787234,0,0,0.9818182,-6.638295,1.163636)"
       cx="102"
       cy="112.3047"
       r="139.55859" />
    <linearGradient
       inkscape:collect="always"
       xlink:href="#c"
       id="linearGradient940"
       gradientUnits="userSpaceOnUse"
       x1="85.219681"
       y1="93.219681"
       x2="61.336319"
       y2="69.336319" />
    <linearGradient
       inkscape:collect="always"
       xlink:href="#d"
       id="linearGradient942"
       gradientUnits="userSpaceOnUse"
       x1="96"
       y1="104"
       x2="88.000198"
       y2="96.000198" />
  </defs>
  <sodipodi:namedview
     pagecolor="#ffffff"
     bordercolor="#666666"
     borderopacity="1"
     objecttolerance="10"
     gridtolerance="10"
     guidetolerance="10"
     inkscape:pageopacity="0"
     inkscape:pageshadow="2"
     inkscape:window-width="1366"
     inkscape:window-height="700"
     id="namedview123"
     showgrid="true"
     inkscape:zoom="14.75"
     inkscape:cx="-4.3296354"
     inkscape:cy="9.4279868"
     inkscape:window-x="0"
     inkscape:window-y="0"
     inkscape:window-maximized="1"
     inkscape:current-layer="svg121">
    <inkscape:grid
       type="xygrid"
       id="grid934" />
  </sodipodi:namedview>
  <radialGradient
     id="a"
     cx="94"
     cy="112.3047"
     gradientUnits="userSpaceOnUse"
     r="139.5585">
    <stop
       offset="0"
       stop-color="#00537d"
       id="stop2" />
    <stop
       offset=".0151"
       stop-color="#186389"
       id="stop4" />
    <stop
       offset=".0558"
       stop-color="#558ca8"
       id="stop6" />
    <stop
       offset=".0964"
       stop-color="#89afc3"
       id="stop8" />
    <stop
       offset=".1357"
       stop-color="#b3ccd8"
       id="stop10" />
    <stop
       offset=".1737"
       stop-color="#d4e2e9"
       id="stop12" />
    <stop
       offset=".2099"
       stop-color="#ecf2f5"
       id="stop14" />
    <stop
       offset=".2435"
       stop-color="#fafcfd"
       id="stop16" />
    <stop
       offset=".2722"
       stop-color="#fff"
       id="stop18" />
  </radialGradient>
  <radialGradient
     id="b"
     cx="102"
     cy="112.3047"
     gradientTransform="matrix(.9787234 0 0 .9818182 -6.638295 1.163636)"
     gradientUnits="userSpaceOnUse"
     r="139.55859">
    <stop
       offset="0"
       stop-color="#535557"
       id="stop21" />
    <stop
       offset=".11366145"
       stop-color="#898a8c"
       id="stop23" />
    <stop
       offset=".20296688"
       stop-color="#ececec"
       id="stop25" />
    <stop
       offset=".2363"
       stop-color="#fafafa"
       id="stop27" />
    <stop
       offset=".2722"
       stop-color="#fff"
       id="stop29" />
    <stop
       offset=".5313"
       stop-color="#fafafa"
       id="stop31" />
    <stop
       offset=".8449"
       stop-color="#ebecec"
       id="stop33" />
    <stop
       offset="1"
       stop-color="#e1e2e3"
       id="stop35" />
  </radialGradient>
  <linearGradient
     id="c"
     gradientUnits="userSpaceOnUse"
     x1="85.219681"
     x2="61.336319"
     y1="93.219681"
     y2="69.336319">
    <stop
       offset="0"
       id="stop38" />
    <stop
       offset="1"
       stop-color="#393b38"
       id="stop40" />
  </linearGradient>
  <linearGradient
     id="d"
     gradientUnits="userSpaceOnUse"
     x1="96"
     x2="88.000198"
     y1="104"
     y2="96.000198">
    <stop
       offset="0"
       stop-color="#888a85"
       id="stop43" />
    <stop
       offset=".0072"
       stop-color="#8c8e89"
       id="stop45" />
    <stop
       offset=".0673"
       stop-color="#abaca9"
       id="stop47" />
    <stop
       offset=".1347"
       stop-color="#c5c6c4"
       id="stop49" />
    <stop
       offset=".2115"
       stop-color="#dbdbda"
       id="stop51" />
    <stop
       offset=".3012"
       stop-color="#ebebeb"
       id="stop53" />
    <stop
       offset=".4122"
       stop-color="#f7f7f6"
       id="stop55" />
    <stop
       offset=".5679"
       stop-color="#fdfdfd"
       id="stop57" />
    <stop
       offset="1"
       stop-color="#fff"
       id="stop59" />
  </linearGradient>
  <filter
     id="e">
    <feGaussianBlur
       stdDeviation="1.0394514"
       id="feGaussianBlur62" />
  </filter>
  <filter
     id="f">
    <feGaussianBlur
       stdDeviation=".50063244"
       id="feGaussianBlur65" />
  </filter>
  <filter
     id="g">
    <feGaussianBlur
       stdDeviation=".4901192"
       id="feGaussianBlur68" />
  </filter>
  <filter
     id="h">
    <feGaussianBlur
       stdDeviation=".90565481"
       id="feGaussianBlur71" />
  </filter>
  <filter
     id="i"
     height="1.247155"
     width="1.247155"
     x="-.123577"
     y="-.123577">
    <feGaussianBlur
       stdDeviation="1.7720846"
       id="feGaussianBlur74" />
  </filter>
  <g
     transform="matrix(-0.125,0,0,0.125,9.0000012,3)"
     id="g97">
    <path
       d="m 23,9 0.04082,57.931035 h 32.331177 c 0.53,0 1.081207,-0.172668 1.414,-0.586 l 15.548,-19.310763 c 0.332793,-0.413333 0.586,-0.884 0.586,-1.414 V 9.0000001 Z"
       transform="matrix(1.0416667,0,0,1.0357143,-17.958333,-3.321534)"
       id="path77"
       inkscape:connector-curvature="0"
       style="opacity:0.71506898;filter:url(#e)" />
    <path
       d="m 24.919999,10.931136 -2e-6,54.068969 29.875998,-1e-4 c 0.53,0 1.039,-0.211 1.414,-0.586 L 70.413997,46.165306 c 0.375,-0.375 0.586,-0.884 0.586,-1.414 v -33.82017 z"
       transform="matrix(1.0416667,0,0,1.0357143,-17.958333,-3.321534)"
       id="path79"
       inkscape:connector-curvature="0"
       style="opacity:0.89589;filter:url(#f)" />
    <path
       d="m 23,9.9655172 0.04082,56.9655178 h 32.331181 c 0.53,0 1.039,-0.211 1.414,-0.586 12.209338,-9.10602 5.06945,-7.225478 15.548002,-19.310763 0.375,-0.375 0.586,-0.884 0.586,-1.414 V 9.9655173 Z"
       transform="matrix(1.0416667,0,0,1.0357143,-17.958333,-3.321534)"
       id="path81"
       inkscape:connector-curvature="0"
       style="opacity:0.83561599;filter:url(#e)" />
    <path
       d="M 8.0000019,8 8,64 h 31.171996 c 0.53,0 1.085878,-0.169363 1.414,-0.586 l 14.828,-18.828004 c 0.328122,-0.416636 0.586,-0.884 0.586,-1.414 V 8.0000001 Z"
       id="path83"
       style="fill:url(#radialGradient936)"
       inkscape:connector-curvature="0" />
    <path
       d="m 16.678725,16 c -0.539276,0 -0.978723,0.440836 -0.978723,0.981818 L 16,55.01818 C 16,55.56015 16.439447,56 16.978723,56 h 21.913018 c 0.257404,0 0.509915,-0.10407 0.691957,-0.28767 l 8.129528,-12.231134 c 0.18303,-0.1836 0.28677,-0.435927 0.28677,-0.694145 V 16.981818 C 47.999996,16.440836 47.561526,16 47.021276,16 Z"
       id="path85"
       style="fill:url(#radialGradient938)"
       inkscape:connector-curvature="0" />
    <g
       transform="matrix(0.56753569,-0.05510502,0.05510502,0.56753569,-12.002745,0.559767)"
       id="g95">
      <path
         d="M 111.414,86.586 C 111.664,86.336 85.035,85 80,85 c -1.654,0 -3,1.346 -3,3 0,5.035 1.336,31.664 1.586,31.414 z"
         id="path87"
         inkscape:connector-curvature="0"
         style="opacity:0.90684904;filter:url(#i)" />
      <path
         d="M 111.414,86.586 C 111.789,86.211 89.444,86 80,86 c -1.103,0 -2,0.897 -2,2 0,9.444 0.211,31.789 0.586,31.414 z"
         id="path89"
         inkscape:connector-curvature="0"
         style="opacity:0.2;filter:url(#h)" />
      <path
         d="M 111.414,86.586 C 111.653,86.347 89.807,87 80,87 c -0.553,0 -1,0.447 -1,1 0,9.807 -0.653,31.653 -0.414,31.414 z"
         id="path91"
         style="opacity:0.1;fill:url(#linearGradient940);filter:url(#g)"
         inkscape:connector-curvature="0" />
      <path
         d="m 78.586,119.414 c 0,0 11.914,-9.914 17.414,-15.414 5.5,-5.5 15.414,-17.414 15.414,-17.414 0,0 -21.164,1.414 -31.414,1.414 0,10.25 -1.414,31.414 -1.414,31.414 z"
         id="path93"
         style="fill:url(#linearGradient942)"
         inkscape:connector-curvature="0" />
    </g>
  </g>
  <g
     transform="matrix(.125 0 0 .125 8.000001 3)"
     id="g119">
    <path
       d="m23 9 .04082 57.931035h32.331177c.53 0 1.081207-.172668 1.414-.586l15.548-19.310763c.332793-.413333.586-.884.586-1.414v-36.6202719z"
       transform="matrix(1.0416667 0 0 1.0357143 -17.958333 -3.321534)"
       id="path99"
       filter="url(#e)"
       opacity=".715069" />
    <path
       d="m24.919999 10.931136-.000002 54.068969 29.875998-.0001c.53 0 1.039-.211 1.414-.586l14.204002-18.248699c.375-.375.586-.884.586-1.414v-33.82017z"
       transform="matrix(1.0416667 0 0 1.0357143 -17.958333 -3.321534)"
       id="path101"
       filter="url(#f)"
       opacity=".89589" />
    <path
       d="m23 9.9655172.04082 56.9655178h32.331181c.53 0 1.039-.211 1.414-.586 12.209338-9.10602 5.06945-7.225478 15.548002-19.310763.375-.375.586-.884.586-1.414v-35.6547547z"
       transform="matrix(1.0416667 0 0 1.0357143 -17.958333 -3.321534)"
       id="path103"
       filter="url(#e)"
       opacity=".835616" />
    <path
       d="m8.0000019 8-.0000019 56h31.171996c.53 0 1.085878-.169363 1.414-.586l14.828-18.828004c.328122-.416636.586-.884.586-1.414v-35.1719959z"
       id="path105"
       fill="url(#a)" />
    <path
       d="m16.678725 16c-.539276 0-.978723.440836-.978723.981818l.299998 38.036362c0 .54197.439447.98182.978723.98182h21.913018c.257404 0 .509915-.10407.691957-.28767l8.129528-12.231134c.18303-.1836.28677-.435927.28677-.694145v-25.805233c0-.540982-.43847-.981818-.97872-.981818z"
       id="path107"
       fill="url(#b)" />
    <g
       transform="matrix(.56753569 -.05510502 .05510502 .56753569 -12.002745 .559767)"
       id="g117">
      <path
         d="m111.414 86.586c.25-.25-26.379-1.586-31.414-1.586-1.654 0-3 1.346-3 3 0 5.035 1.336 31.664 1.586 31.414z"
         id="path109"
         filter="url(#i)"
         opacity=".906849" />
      <path
         d="m111.414 86.586c.375-.375-21.97-.586-31.414-.586-1.103 0-2 .897-2 2 0 9.444.211 31.789.586 31.414z"
         id="path111"
         filter="url(#h)"
         opacity=".2" />
      <path
         d="m111.414 86.586c.239-.239-21.607.414-31.414.414-.553 0-1 .447-1 1 0 9.807-.653 31.653-.414 31.414z"
         id="path113"
         filter="url(#g)"
         fill="url(#c)"
         opacity=".1" />
      <path
         d="m78.586 119.414s11.914-9.914 17.414-15.414 15.414-17.414 15.414-17.414-21.164 1.414-31.414 1.414c0 10.25-1.414 31.414-1.414 31.414z"
         id="path115"
         fill="url(#d)" />
    </g>
  </g>
</svg>
