<?xml version="1.0" encoding="UTF-8" standalone="no"?>
<svg
   xmlns:dc="http://purl.org/dc/elements/1.1/"
   xmlns:cc="http://creativecommons.org/ns#"
   xmlns:rdf="http://www.w3.org/1999/02/22-rdf-syntax-ns#"
   xmlns:svg="http://www.w3.org/2000/svg"
   xmlns="http://www.w3.org/2000/svg"
   xmlns:xlink="http://www.w3.org/1999/xlink"
   xmlns:sodipodi="http://sodipodi.sourceforge.net/DTD/sodipodi-0.dtd"
   xmlns:inkscape="http://www.inkscape.org/namespaces/inkscape"
   enable-background="new 0 0 128 128"
   height="16"
   viewBox="0 0 16 16"
   width="16"
   version="1.1"
   id="svg142"
   sodipodi:docname="view-pages-continuous.svg"
   inkscape:version="0.92.5 (2060ec1f9f, 2020-04-08)"
   inkscape:export-filename="/home/rizmut/Dokumen/Rizmut/Github/karasa-jaga-icon-theme/build/Karasa-Jaga/16x16/actions/view-pages-continuous.png"
   inkscape:export-xdpi="96"
   inkscape:export-ydpi="96">
  <metadata
     id="metadata148">
    <rdf:RDF>
      <cc:Work
         rdf:about="">
        <dc:format>image/svg+xml</dc:format>
        <dc:type
           rdf:resource="http://purl.org/dc/dcmitype/StillImage" />
        <dc:title></dc:title>
      </cc:Work>
    </rdf:RDF>
  </metadata>
  <defs
     id="defs146">
    <filter
       id="n-3">
      <feGaussianBlur
         stdDeviation="1.0394514"
         id="feGaussianBlur75-6" />
    </filter>
  </defs>
  <sodipodi:namedview
     pagecolor="#ffffff"
     bordercolor="#666666"
     borderopacity="1"
     objecttolerance="10"
     gridtolerance="10"
     guidetolerance="10"
     inkscape:pageopacity="0"
     inkscape:pageshadow="2"
     inkscape:window-width="1366"
     inkscape:window-height="700"
     id="namedview144"
     showgrid="true"
     inkscape:zoom="29.5"
     inkscape:cx="8.7282504"
     inkscape:cy="3.3307955"
     inkscape:window-x="0"
     inkscape:window-y="0"
     inkscape:window-maximized="1"
     inkscape:current-layer="g102">
    <inkscape:grid
       type="xygrid"
       id="grid974" />
  </sodipodi:namedview>
  <radialGradient
     id="a"
     cx="102"
     cy="32.3047"
     fx="102"
     fy="32.3047"
     gradientUnits="userSpaceOnUse"
     r="139.5585"
     xlink:href="#m" />
  <radialGradient
     id="b"
     cx="102"
     cy="112.3047"
     gradientTransform="matrix(0.9787234,0,0,0.9818182,1.361705,-78.836364)"
     gradientUnits="userSpaceOnUse"
     r="139.55859"
     xlink:href="#l" />
  <linearGradient
     id="c"
     gradientUnits="userSpaceOnUse"
     x1="85.219681"
     x2="61.336319"
     y1="93.219681"
     y2="69.336319">
    <stop
       offset="0"
       id="stop4" />
    <stop
       offset="1"
       stop-color="#393b38"
       id="stop6" />
  </linearGradient>
  <linearGradient
     id="d"
     gradientUnits="userSpaceOnUse"
     x1="96"
     x2="88.000198"
     y1="104"
     y2="96.000198">
    <stop
       offset="0"
       stop-color="#888a85"
       id="stop9" />
    <stop
       offset=".0072"
       stop-color="#8c8e89"
       id="stop11" />
    <stop
       offset=".0673"
       stop-color="#abaca9"
       id="stop13" />
    <stop
       offset=".1347"
       stop-color="#c5c6c4"
       id="stop15" />
    <stop
       offset=".2115"
       stop-color="#dbdbda"
       id="stop17" />
    <stop
       offset=".3012"
       stop-color="#ebebeb"
       id="stop19" />
    <stop
       offset=".4122"
       stop-color="#f7f7f6"
       id="stop21" />
    <stop
       offset=".5679"
       stop-color="#fdfdfd"
       id="stop23" />
    <stop
       offset="1"
       stop-color="#fff"
       id="stop25" />
  </linearGradient>
  <radialGradient
     id="e"
     cx="102"
     cy="194.3047"
     fx="102"
     fy="194.3047"
     gradientUnits="userSpaceOnUse"
     r="139.5585"
     xlink:href="#m" />
  <radialGradient
     id="f"
     cx="102"
     cy="112.3047"
     gradientTransform="matrix(0.9787234,0,0,0.9818182,1.361705,83.163636)"
     gradientUnits="userSpaceOnUse"
     r="139.55859"
     xlink:href="#l" />
  <linearGradient
     id="g">
    <stop
       offset="0"
       stop-color="#06f"
       id="stop30" />
    <stop
       offset="1"
       stop-color="#80b3ff"
       id="stop32" />
  </linearGradient>
  <linearGradient
     id="h"
     gradientUnits="userSpaceOnUse"
     x1="8"
     x2="8"
     xlink:href="#g"
     y1="88"
     y2="40" />
  <linearGradient
     id="i"
     gradientUnits="userSpaceOnUse"
     x1="112"
     x2="112"
     xlink:href="#g"
     y1="72"
     y2="40" />
  <linearGradient
     id="j"
     gradientUnits="userSpaceOnUse"
     x1="88"
     x2="88"
     xlink:href="#g"
     y1="72"
     y2="40" />
  <linearGradient
     id="k"
     gradientUnits="userSpaceOnUse"
     x1="56"
     x2="56"
     xlink:href="#g"
     y1="72"
     y2="40" />
  <radialGradient
     id="l"
     cx="102"
     cy="112.3047"
     gradientTransform="matrix(.9787234 0 0 .9818182 1.361705 1.163636)"
     gradientUnits="userSpaceOnUse"
     r="139.55859">
    <stop
       offset="0"
       stop-color="#535557"
       id="stop39" />
    <stop
       offset=".11366145"
       stop-color="#898a8c"
       id="stop41" />
    <stop
       offset=".20296688"
       stop-color="#ececec"
       id="stop43" />
    <stop
       offset=".2363"
       stop-color="#fafafa"
       id="stop45" />
    <stop
       offset=".2722"
       stop-color="#fff"
       id="stop47" />
    <stop
       offset=".5313"
       stop-color="#fafafa"
       id="stop49" />
    <stop
       offset=".8449"
       stop-color="#ebecec"
       id="stop51" />
    <stop
       offset="1"
       stop-color="#e1e2e3"
       id="stop53" />
  </radialGradient>
  <radialGradient
     id="m"
     cx="102"
     cy="112.3047"
     gradientUnits="userSpaceOnUse"
     r="139.5585">
    <stop
       offset="0"
       stop-color="#00537d"
       id="stop56" />
    <stop
       offset=".0151"
       stop-color="#186389"
       id="stop58" />
    <stop
       offset=".0558"
       stop-color="#558ca8"
       id="stop60" />
    <stop
       offset=".0964"
       stop-color="#89afc3"
       id="stop62" />
    <stop
       offset=".1357"
       stop-color="#b3ccd8"
       id="stop64" />
    <stop
       offset=".1737"
       stop-color="#d4e2e9"
       id="stop66" />
    <stop
       offset=".2099"
       stop-color="#ecf2f5"
       id="stop68" />
    <stop
       offset=".2435"
       stop-color="#fafcfd"
       id="stop70" />
    <stop
       offset=".2722"
       stop-color="#fff"
       id="stop72" />
  </radialGradient>
  <filter
     id="n">
    <feGaussianBlur
       stdDeviation="1.0394514"
       id="feGaussianBlur75" />
  </filter>
  <filter
     id="o">
    <feGaussianBlur
       stdDeviation=".50063244"
       id="feGaussianBlur78" />
  </filter>
  <filter
     id="p">
    <feGaussianBlur
       stdDeviation=".4901192"
       id="feGaussianBlur81" />
  </filter>
  <filter
     id="q">
    <feGaussianBlur
       stdDeviation=".90565481"
       id="feGaussianBlur84" />
  </filter>
  <filter
     id="r"
     height="1.247155"
     width="1.247155"
     x="-.123577"
     y="-.123577">
    <feGaussianBlur
       stdDeviation="1.7720846"
       id="feGaussianBlur87" />
  </filter>
  <g
     transform="matrix(.125 0 0 .125 0 .0125)"
     id="g140">
    <g
       id="g102"
       clip-path="none"
       transform="translate(0,-18.1)">
      <path
         d="m 14,88 0.01563,58 H 114 V 88 Z"
         id="path94"
         inkscape:connector-curvature="0"
         style="opacity:0.71506898;stroke-width:1.03868604;filter:url(#n-3)"
         sodipodi:nodetypes="ccccc" />
      <g
         id="g96"
         style="stroke-width:1.03868604">
        <path
           d="m 16,90 v 38 h 96 V 90 Z"
           id="path90"
           inkscape:connector-curvature="0"
           style="opacity:0.89589;filter:url(#o)" />
        <path
           d="m 14,89 0.01367,55 H 114 V 89 Z"
           id="path92"
           inkscape:connector-curvature="0"
           style="opacity:0.83561599;filter:url(#n)"
           sodipodi:nodetypes="ccccc" />
      </g>
      <path
         d="m 16,90 v 56 h 96 V 90 Z"
         id="path98"
         style="fill:url(#e)"
         inkscape:connector-curvature="0"
         sodipodi:nodetypes="ccccc" />
      <path
         d="m 24.679688,98 c -0.539277,0 -0.980469,0.44144 -0.980469,0.982422 L 23.792969,146 H 104 V 98.982422 C 104,98.44144 103.56173,98 103.02148,98 Z"
         id="path100"
         style="fill:url(#f)"
         inkscape:connector-curvature="0"
         sodipodi:nodetypes="scccsss" />
    </g>
    <g
       id="g126"
       clip-path="none"
       mask="none"
       transform="translate(0,16)">
      <g
         id="g110"
         style="stroke-width:1.03868604">
        <path
           d="m 16,0 v 40 h 61.121094 c 0.552083,0 1.082031,-0.219029 1.472656,-0.607422 L 111.38867,6.4921875 C 111.7793,6.1037946 112,5.5762723 112,5.0273438 V 0 Z"
           id="path104"
           inkscape:connector-curvature="0"
           style="opacity:0.89589;filter:url(#o)" />
        <path
           d="m 14.027344,0 0.01563,42 h 63.677734 c 0.552083,0 1.082031,-0.219029 1.472656,-0.607422 L 113.38867,7.3925781 C 113.7793,7.0041853 114,6.476663 114,5.9277344 V 0 Z"
           id="path106"
           inkscape:connector-curvature="0"
           style="opacity:0.71506898;filter:url(#n)" />
        <path
           d="m 14.027344,-16 0.01563,58 h 63.677734 c 0.552083,0 1.082031,-0.219029 1.472656,-0.607422 C 93.044319,32.888732 104.33957,21.43703 113.38867,7.3925781 113.7793,7.0041853 114,6.476663 114,5.9277344 V -16 Z"
           id="path108"
           inkscape:connector-curvature="0"
           style="opacity:0.83561599;filter:url(#n)"
           sodipodi:nodetypes="ccsccscc" />
      </g>
      <path
         d="m 16,-16 v 56 h 61.171875 c 0.53,0 1.039063,-0.210938 1.414063,-0.585938 L 111.41406,6.5859375 C 111.78906,6.2109375 112,5.701875 112,5.171875 V -16 Z"
         id="path112"
         style="fill:url(#a)"
         inkscape:connector-curvature="0"
         sodipodi:nodetypes="ccsssscc" />
      <path
         d="M 23.900391,-16 24,31.017578 C 24,31.559548 24.43924,32 24.978516,32 h 51.914062 c 0.257404,0 0.509364,-0.103509 0.691406,-0.287109 L 103.71289,5.4804688 C 103.89592,5.2968687 104,5.0453274 104,4.7871094 V -16 Z"
         id="path114"
         style="fill:url(#b)"
         inkscape:connector-curvature="0"
         sodipodi:nodetypes="ccssccscc" />
      <g
         transform="translate(2e-6,-80)"
         id="g124">
        <path
           d="M 111.414,86.586 C 111.664,86.336 85.035,85 80,85 c -1.654,0 -3,1.346 -3,3 0,5.035 1.336,31.664 1.586,31.414 z"
           id="path116"
           inkscape:connector-curvature="0"
           style="opacity:0.90684904;filter:url(#r)" />
        <path
           d="M 111.414,86.586 C 111.789,86.211 89.444,86 80,86 c -1.103,0 -2,0.897 -2,2 0,9.444 0.211,31.789 0.586,31.414 z"
           id="path118"
           inkscape:connector-curvature="0"
           style="opacity:0.2;filter:url(#q)" />
        <path
           d="M 111.414,86.586 C 111.653,86.347 89.807,87 80,87 c -0.553,0 -1,0.447 -1,1 0,9.807 -0.653,31.653 -0.414,31.414 z"
           id="path120"
           style="opacity:0.1;fill:url(#c);filter:url(#p)"
           inkscape:connector-curvature="0" />
        <path
           d="m 78.586,119.414 c 0,0 11.914,-9.914 17.414,-15.414 5.5,-5.5 15.414,-17.414 15.414,-17.414 0,0 -21.164,1.414 -31.414,1.414 0,10.25 -1.414,31.414 -1.414,31.414 z"
           id="path122"
           style="fill:url(#d)"
           inkscape:connector-curvature="0" />
      </g>
    </g>
  </g>
</svg>
