<svg height="16" width="16" xmlns="http://www.w3.org/2000/svg" xmlns:xlink="http://www.w3.org/1999/xlink"><linearGradient id="a"><stop offset="0" stop-color="#fcfcfc"/><stop offset=".52275378" stop-color="#f8f8f8"/><stop offset=".72337759" stop-color="#f0efef"/><stop offset=".89024991" stop-color="#e3e1e1"/><stop offset="1" stop-color="#cecbcb"/></linearGradient><filter id="b"><feGaussianBlur stdDeviation="2.4187877"/></filter><radialGradient id="c" cx="15.9996" cy="86.127174" gradientTransform="matrix(1.7777778 0 0 1.8271606 -12.444134 -72.033779)" gradientUnits="userSpaceOnUse" r="47.998798" xlink:href="#a"/><linearGradient id="d" gradientTransform="matrix(.94444451 0 0 .90909088 3.555465 4.1214)" gradientUnits="userSpaceOnUse" x1="61.331799" x2="74.664803" y1="21.336" y2="101.334"><stop offset="0" stop-color="#96ccff"/><stop offset="1" stop-color="#5b88c1"/></linearGradient><linearGradient id="e" gradientTransform="matrix(.94444451 0 0 .90909088 3.555465 4.1214)" gradientUnits="userSpaceOnUse" x1="61.331799" x2="74.664803" xlink:href="#a" y1="21.336" y2="101.334"/><radialGradient id="f" cx="87.5" cy="35.875004" fx="89.841835" fy="49.577999" gradientTransform="matrix(.99150354 -.13044703 .1304408 .9914561 -3.936123 11.720628)" gradientUnits="userSpaceOnUse" r="19.872202"><stop offset="0" stop-color="#d3fcff" stop-opacity="0"/><stop offset=".55311084" stop-color="#baf5fc" stop-opacity=".247059"/><stop offset=".75562102" stop-color="#83b5eb" stop-opacity=".498039"/><stop offset="1" stop-color="#537fc6" stop-opacity=".784483"/></radialGradient><radialGradient id="g" cx="199.99719" cy="96.868515" gradientTransform="matrix(1 0 0 1.0004806 0 -.035878)" gradientUnits="userSpaceOnUse" r="32.512764" xlink:href="#r"/><linearGradient id="h" gradientUnits="userSpaceOnUse" spreadMethod="reflect" x1="183.60056" x2="205.3282" y1="77.033615" y2="114.667"><stop offset="0" stop-color="#fff"/><stop offset=".19999996" stop-color="#fff" stop-opacity="0"/><stop offset="1" stop-color="#fff" stop-opacity="0"/></linearGradient><radialGradient id="i" cx="177.12991" cy="42.65752" gradientTransform="matrix(1 0 0 1.0004806 0 -.035878)" gradientUnits="userSpaceOnUse" r="32.512764" xlink:href="#r"/><linearGradient id="j" gradientUnits="userSpaceOnUse" x1="165.64815" x2="198.18205" y1="33.308235" y2="89.6586"><stop offset="0" stop-color="#fff"/><stop offset="1" stop-color="#555753"/></linearGradient><radialGradient id="k" cx="177.12991" cy="42.65752" gradientTransform="matrix(1.7311303 .19371147 -.19380456 1.7319623 -121.23783 -65.55117)" gradientUnits="userSpaceOnUse" r="32.512764"><stop offset="0"/><stop offset="1" stop-opacity="0"/></radialGradient><radialGradient id="l" cx="71.998199" cy="40.002201" gradientUnits="userSpaceOnUse" r="5.3332" xlink:href="#r"/><linearGradient id="m" gradientUnits="userSpaceOnUse" x1="177.079659" x2="188.722489" xlink:href="#r" y1="-52.541746" y2="-9.09009"/><radialGradient id="n" cx="146.66299" cy="120.00019" gradientTransform="matrix(2.0000008 0 0 2.000001 -146.66311 -117.3337)" gradientUnits="userSpaceOnUse" r="5.3332" xlink:href="#w"/><linearGradient id="o" gradientTransform="matrix(1.9999981 0 0 6.9999995 -122.03227 -631.66929)" gradientUnits="userSpaceOnUse" x1="149.32961" x2="154.66281" xlink:href="#w" y1="85.334404" y2="85.334404"/><linearGradient id="p" gradientUnits="userSpaceOnUse" x1="179.293269" x2="184.626469" xlink:href="#w" y1="-50.328096" y2="-50.328096"/><linearGradient id="q" gradientTransform="matrix(1.3636204 -.24311453 .24897975 1.3965183 -231.23261 -36.440302)" gradientUnits="userSpaceOnUse" x1="101.5314" x2="101.5314" xlink:href="#r" y1="18.620571" y2="58.619572"/><linearGradient id="r"><stop offset="0" stop-color="#fff"/><stop offset="1" stop-color="#fff" stop-opacity="0"/></linearGradient><filter id="s" color-interpolation-filters="sRGB"><feGaussianBlur stdDeviation=".15467289"/></filter><filter id="t" color-interpolation-filters="sRGB"><feGaussianBlur stdDeviation=".19214062"/></filter><filter id="u" color-interpolation-filters="sRGB"><feGaussianBlur stdDeviation="2.0893418"/></filter><filter id="v" color-interpolation-filters="sRGB"><feGaussianBlur stdDeviation=".66771187"/></filter><linearGradient id="w" gradientUnits="userSpaceOnUse" x1="94.343803" x2="86.535599" y1="102.3447" y2="94.536598"><stop offset="0" stop-color="#5c5c5c"/><stop offset=".31394675" stop-color="#eff0ef"/><stop offset=".72916669" stop-color="#aaaba9"/><stop offset="1" stop-color="#535551"/></linearGradient><filter id="x" height="1.227933" width="1.227933" x="-.113966" y="-.113966"><feGaussianBlur stdDeviation="3.7988827"/></filter><filter id="y" height="1.201117" width="1.201117" x="-.100559" y="-.100559"><feGaussianBlur stdDeviation="3.3519553"/></filter><g transform="matrix(.125 0 0 .125 -.166625 -.167025125)"><path d="m9.333 9.336201h80v80h-80z" filter="url(#b)" opacity=".68984"/><path d="m9.333 9.336201h80v80h-80z" filter="url(#y)"/><path d="m9.333 9.336201h80v80h-80z" fill="#fff"/><path d="m9.333 9.336201h80v80h-80z" fill="url(#c)" opacity=".299465"/><path d="m17.333 17.336201h64v64h-64z" fill="url(#d)"/></g><g transform="matrix(.125 0 0 .125 1.833375 3.832974875)"><path d="m9.333 9.336201h80v80h-80z" filter="url(#b)" opacity=".68984"/><path d="m9.333 9.336201h80v80h-80z" filter="url(#x)"/><path d="m9.333 9.336201h80v80h-80z" fill="#fff"/><path d="m17.333 17.336201h64v64h-64z" fill="url(#e)"/></g><g transform="matrix(.1277222875 0 0 .1277222875 18.75665125 4.486877125)"><path d="m179.29326-54.244732h5.3332v6.583196h-5.3332z" fill="url(#p)" opacity=".971015" transform="matrix(1.02013930991 -.86474557343 .86976916405 1.01344769682 -200.51744 256.40187)"/><path d="m176.62666-47.66153h10.666389v31.999203h-10.666389z" fill="url(#o)" transform="matrix(1.02013930991 -.86474557343 .86976916405 1.01344769682 -200.51744 256.40187)"/><path d="m157.3294 122.6668a5.3332 5.3332 0 0 1 -2.6666 4.61869 5.3332 5.3332 0 0 1 -5.3332 0 5.3332 5.3332 0 0 1 -2.6666-4.61869h5.3332z" fill="url(#n)" transform="matrix(1.02013930991 -.86474557343 .86976916405 1.01344769682 -290.38774771794 90.15826879616)"/><path d="m179.29326-47.66153h2.66658v31.999199h-2.66658z" fill="url(#m)" opacity=".971015" transform="matrix(1.02013930991 -.86474557343 .86976916405 1.01344769682 -200.51744 256.40187)"/><circle cx="87.5" cy="35.875004" fill="url(#f)" r="19.872202" transform="matrix(2.1549699 -.06707309 .06707309 2.1549699 -280.96704 -59.16079)"/><g transform="matrix(1.4546882 -.04527691 .04527691 1.4546882 -357.20773 -88.129187)"><path d="m181.34375 43.179688c-17.38944 0-31.47656 14.087118-31.47656 31.476562s14.08712 31.47656 31.47656 31.47656 31.44531-14.086498 31.44531-31.47656-14.05587-31.476563-31.44531-31.476562zm0 1.640624c16.48273 0 29.83594 13.353213 29.83594 29.835938s-13.35254 29.86719-29.83594 29.86719-29.86719-13.383791-29.86719-29.86719 13.38446-29.835938 29.86719-29.835938z" fill="url(#k)" filter="url(#v)" transform="matrix(.91617705 0 0 .91617705 15.199521 6.258093)"/><path d="m181.34375 42.097656c-17.97497 0-32.55859 14.583628-32.55859 32.558594s14.58362 32.55859 32.55859 32.55859 32.52734-14.584283 32.52734-32.55859-14.55237-32.558594-32.52734-32.558594zm0 3.804688c15.89813 0 28.75391 12.855774 28.75391 28.753906s-12.8565 28.78516-28.75391 28.78516-28.78516-12.887747-28.78516-28.78516 12.88703-28.753906 28.78516-28.753906z" fill="url(#g)" filter="url(#u)" opacity=".540984" transform="matrix(.81712719 0 0 .81712719 33.160106 13.652997)"/><path d="m181.34375 42.09375c-17.9772 0-32.5625 14.5853-32.5625 32.5625s14.5853 32.5625 32.5625 32.5625 32.53125-14.585964 32.53125-32.5625-14.55405-32.5625-32.53125-32.5625zm0 3.8125c15.8959 0 28.75 12.854098 28.75 28.75s-12.85482 28.78125-28.75 28.78125-28.78125-12.886072-28.78125-28.78125 12.88535-28.75 28.78125-28.75z" fill="url(#j)"/><path d="m181.34375 43.376953c-17.28301 0-31.2793 13.99629-31.2793 31.279297s13.99629 31.2793 31.2793 31.2793 31.24805-13.995443 31.24805-31.2793-13.96504-31.279297-31.24805-31.279297zm0 1.246094c16.589 0 30.0332 13.444209 30.0332 30.033203s-13.44328 30.06445-30.0332 30.06445-30.06445-13.474529-30.06445-30.06445 13.47545-30.033203 30.06445-30.033203z" fill="url(#i)" opacity=".519126" transform="matrix(1.0317053 0 0 1.0317053 -5.749097 -2.367074)"/><path d="m181.34375 42.980469c-17.49707 0-31.67578 14.178707-31.67578 31.675781s14.17871 31.67578 31.67578 31.67578 31.64453-14.178323 31.64453-31.67578-14.14746-31.675781-31.64453-31.675781zm0 2.039062c16.37527 0 29.63672 13.261453 29.63672 29.636719s-13.26103 29.66797-29.63672 29.66797-29.66797-13.292286-29.66797-29.66797 13.2927-29.636719 29.66797-29.636719z" fill="url(#h)" filter="url(#t)"/><path d="m181.34375 43.730469c-17.09248 0-30.92578 13.833298-30.92578 30.925781s13.8333 30.92578 30.92578 30.92578 30.89453-13.832031 30.89453-30.92578-13.80205-30.925781-30.89453-30.925781zm0 .539062c16.77922 0 30.38672 13.607504 30.38672 30.386719s-13.60612 30.41797-30.38672 30.41797-30.41797-13.637374-30.41797-30.41797 13.63875-30.386719 30.41797-30.386719z" fill="url(#g)" filter="url(#s)" transform="matrix(.95352862 0 0 .95352862 8.426593 3.469478)"/></g><path d="m-96.677842-26.991475c-17.378568 3.098368-33.353998 20.5665869-31.263238 32.2936351 1.52063 8.5291719 21.47487 9.0222139 36.591972 6.3270479 13.238308-2.3602162 37.519365-9.3879087 36.107484-17.3070985-2.276251-12.7673935-24.753028-24.2879655-41.436218-21.3135845z" fill="url(#q)"/><g fill="url(#l)"><circle cx="71.998199" cy="40.002201" opacity=".52459" r="5.3332" transform="matrix(1.9917453 -.36548089 .36548089 1.9917453 -219.98847 -52.693074)"/><circle cx="71.998199" cy="40.002201" opacity=".52459" r="5.3332" transform="matrix(1.3278302 -.24365392 .24365392 1.3278302 -224.75197 .525542)"/></g></g></svg>