<svg height="48" width="48" xmlns="http://www.w3.org/2000/svg" xmlns:xlink="http://www.w3.org/1999/xlink"><linearGradient id="a" gradientTransform="matrix(.82563 0 0 .82427 50.908 -2.0123)" gradientUnits="userSpaceOnUse" x1="-24.067" x2="-22.759" y1="16.999" y2="50.969"><stop offset="0" stop-color="#fff"/><stop offset="1" stop-color="#c8c8c8"/></linearGradient><rect fill="#999" height="46" rx="2.7487" ry="2.1454" width="46" x="1" y="1"/><path d="m-752.59 800.69c-1.6662-.0247-2.9162.88173-3.6562 1.9688-.75408 1.1076-1.0707 2.3684-1.0938 3.375-.005.22776-.11786.48659-.375.875-.24014.36274-.5597.80184-.84375 1.25-.008.0129-.0231.0183-.0312.0312-.008.008-.0232.0233-.0312.0312-.0129.0207-.0185.0417-.0312.0625-.16617.16428-.38698.35287-.625.59375-.0304-.0326-.12829-.15767-.15625-.1875-.18343-.30998-.21937-.32374 0-.0312a.9799.9799 0 0 0 -.0625-.0625.9799.9799 0 0 0 -.0312-.0312c-.008-.0124.009-.0195 0-.0312a.9799.9799 0 0 0 -.0625-.0625.9799.9799 0 0 0 0-.0312.9799.9799 0 0 0 -.0312-.0312c-.00035-.00037.0219.0472-.0312 0-.0153-.0265-.0469-.0362-.0625-.0625-.005-.008.005-.0232 0-.0312.0135.014.0279.0526-.0312 0-.26765-.44691-.52671-.88931-.78125-1.25-.39047-.55332-.52138-.57872-.53125-1-.0226-.98854-.30443-2.2616-1.0625-3.375-.73471-1.0791-1.9846-1.9617-3.625-1.9375-1.5928.0235-2.8542.67071-3.5938 1.6562-.76888 1.0247-1.0312 2.3529-1.0312 3.7812 0 2.7101 1.6472 5.0372 4 5.4062a.9799.9799 0 0 0 .1875 0 .9799.9799 0 0 0 .0312 0l3.7812.0312a.9799.9799 0 0 0 .28125-.0312l.0937.1875a.9799.9799 0 0 0 -.21875.1875c-.58257.66679-1.1291 1.3869-1.6875 2.0938-.37614.47613-.64723.97583-1 1.4688l-15.688-12.062-.0312-.0312-.0312.0312c-.30374-.22485-.59233-.21402-.875-.1875v-.0937c-.0398-.001-.0515-.001-.0937 0a.9799.9799 0 0 0 -.28125.0312c-.54894.19196-.87846.73732-.875 1.3125.00014.0235-.0326.0389-.0312.0625v24.688c-.001.76015.58312 1.3448 1.3438 1.3438h2.625a.9799.9799 0 0 0 .53125-.125.9799.9799 0 0 0 .46875.125h4a.9799.9799 0 0 0 .53125-.125.9799.9799 0 0 0 .46875.125h4a.9799.9799 0 0 0 .53125-.125.9799.9799 0 0 0 .46875.125h4a.9799.9799 0 0 0 .53125-.125.9799.9799 0 0 0 .46875.125h4a.9799.9799 0 0 0 .53125-.125.9799.9799 0 0 0 .46875.125h8.5938c1.3276.004 1.8694-1.6532.8125-2.4375l-1.9688-1.5312a.9799.9799 0 0 0 -.46875-.1875c.26144-1.0216.47217-2.2079.46875-3.7812-.003-1.1818-.46746-2.4744-1.2188-3.875-.74521-1.3892-1.7436-2.8092-2.7812-4.1875-.92701-1.2314-1.4598-1.7507-2.3125-2.75a.9799.9799 0 0 0 .25-.3125l.0312-.0625a.9799.9799 0 0 0 .5625.1875l3.6562-.0312a.9799.9799 0 0 0 .125 0c2.4384-.29528 4.2188-2.6727 4.2188-5.4688 0-1.4568-.33116-2.7962-1.0938-3.8125-.7518-1.002-2.0186-1.6638-3.625-1.6875zm-13.156 3.5938c.69191-.0118 1.2038.24904 1.4688.53125.30814.32823.46875.75498.46875 1.2188v2.875l-2-.0312a.9799.9799 0 0 0 -.0312 0 .9799.9799 0 0 0 -.125-.0312c-.47554-.0665-.84269-.33976-1.1562-.8125-.31356-.47274-.53125-1.1453-.53125-1.9062 0-.82463.15917-1.2375.40625-1.4688.26825-.25107.67476-.36094 1.5-.375zm13.156.125c.8042.0137 1.2827.14761 1.5.34375.21419.19336.34375.52336.34375 1.375 0 .76283-.2003 1.4774-.5 1.9375-.30213.46381-.69433.72106-1.125.78125l-2.0938.0312-.0625-2.875c-.0142-.82136.51408-1.618 1.9375-1.5938zm-6.5625 7.8125c.0558 0 .125.0551.125.15625 0 .10113-.0692.15625-.125.15625s-.15625-.1-.15625-.15625c0-.0563.10044-.15625.15625-.15625zm-.125 4.9062 2.2188 4.4062-3.1875-2.4062a.9799.9799 0 0 0 -.0312-.0312l1-1.9688zm-15.6.88 6.2188 4.6875h-6.2188z" opacity=".15" transform="translate(789.86 -789.65)"/><path d="m-752.56 799.59c-2.0391-.0302-3.72 1.1854-4.5938 2.4688-.90323 1.3266-1.2524 2.676-1.2812 3.9375.002-.0856.0358-.0249-.1875.3125-.14395.21744-.36076.54869-.5625.84375-.1606-.23529-.33309-.52651-.46875-.71875-.445-.63058-.31025-.31014-.3125-.40625-.0278-1.2167-.33331-2.5911-1.25-3.9375-.87606-1.2867-2.5494-2.4672-4.5625-2.4375-1.8498.0273-3.5144.86356-4.4375 2.0938-.97405 1.2981-1.25 2.8641-1.25 4.4375 0 1.4013.43588 2.7118 1.125 3.8125l-9.5625-7.375c-.0215-.0176-.0411-.0146-.0625-.0312-.53891-.41889-1.0493-.49547-1.5312-.46875v-.0312c-.0738-.002-.0766-.003-.15625 0a2.0648 2.0648 0 0 0 -.375.0625 2.0648 2.0648 0 0 0 -.25.0625c-.9874.34528-1.597 1.2787-1.5938 2.3125h-.0312v.125 24.625c-.002 1.3777 1.0592 2.4395 2.4375 2.4375h2.625a2.0648 2.0648 0 0 0 .5-.0625 2.0648 2.0648 0 0 0 .5.0625h4a2.0648 2.0648 0 0 0 .5-.0625 2.0648 2.0648 0 0 0 .5.0625h4a2.0648 2.0648 0 0 0 .5-.0625 2.0648 2.0648 0 0 0 .5.0625h4a2.0648 2.0648 0 0 0 .5-.0625 2.0648 2.0648 0 0 0 .5.0625h4a2.0648 2.0648 0 0 0 .5-.0625 2.0648 2.0648 0 0 0 .5.0625h8.5938c2.4134.007 3.3259-2.8871 1.4688-4.3438l.0312-.0312-.0625-.0312-1.7812-1.4062c.17374-.92672.28392-1.9874.28125-3.2188-.003-1.5223-.57645-2.8863-1.375-4.375-.78849-1.4699-1.7885-2.9421-2.8438-4.3438-.40141-.53322-.59902-.68672-1-1.1875l2.3438-.0312a2.0648 2.0648 0 0 0 .21875 0c3.0974-.37508 5.1875-3.2999 5.1875-6.5625 0-1.631-.36231-3.2025-1.3125-4.4688-.92745-1.2362-2.6052-2.0975-4.4688-2.125zm-13.19 5.79c.41591-.007.66341.16184.6875.1875.10622.11315.15625.24692.15625.46875v1.75h-.78125-.0312-.0937c-.14305-.02-.23141-.0802-.40625-.34375-.17484-.2636-.34375-.74145-.34375-1.3125 0-.67397.11607-.73764.0625-.6875-.018.0169.009-.0499.75-.0625zm13.156.125c.7132.0122.8809.15245.78125.0625-.10614-.0958-.0312-.17359-.0312.5625 0 .58709-.15963 1.1091-.3125 1.3438-.14375.22067-.25852.26338-.34375.28125h-.90625l-.0312-1.75c-.004-.22946-.0824-.51576.84375-.5zm-7.0312 6.2188c.19033.2038.38619.38436.625.65625.0349.0398.0569.0514.0937.0937a2.0648 2.0648 0 0 0 .71.53c-.13575.21785-.30543.33645-.53125.4375l-.5625-1.0625-.34375-.65625zm-7.5938.6875c.23712.0724.43485.21037.6875.25a2.0648 2.0648 0 0 0 .375.0312l1.9688.0312c-.17934.22522-.38462.43108-.5625.65625-.15037.19035-.25854.40001-.40625.59375l-2.0625-1.5625zm-6.5625 7.7812 1.875 1.4062h-1.875z" opacity=".07" transform="translate(789.86 -789.65)"/><path d="m37.25 12c-1.3293-.0197-2.2244.6528-2.8438 1.5625-.61937.90971-.91975 2.0675-.9375 2.8438-.012.51078-.24359.94049-.53125 1.375-.28765.43451-.63634.90191-.90625 1.3438-.0141.0277-.0424.0389-.0625.0625-.19056.18809-.49737.49171-.8125.8125.41894.45622.77365.81247 1.3438 1.4688l.375-.75c.11125-.22938.47887-.27702.65625-.0937l.4375.4375 3.6562-.0312c1.8433-.22321 3.375-2.1252 3.375-4.5 0-1.2994-.3131-2.4283-.90625-3.2188-.59315-.79058-1.4696-1.2923-2.8438-1.3126zm-13.156.0625c-1.3608.0201-2.2388.51668-2.8125 1.2812-.58358.77772-.84375 1.8902-.84375 3.1875 0 2.3113 1.4114 4.1589 3.1875 4.4375.0172-.00053.0453-.00053.0625 0l3.7812.03125c.39282-.18302.90018-.0122 1.0938.375l8.7188 17.25c.14741-.2434.19436-.25441.40625-.8125.39326-1.0358.78599-2.599.78125-4.7812-.002-.87429-.41639-2.0852-1.125-3.4062-.70612-1.3164-1.6658-2.7053-2.6875-4.0625-2.0019-2.6592-4.1855-5.0687-5.0312-5.9688-.0186-.0248-.0467-.0358-.0625-.0625-.009-.008-.02285-.0226-.03125-.0312.002.002.00065-.0272 0-.0312-.009-.008-.02285-.0224-.03125-.0312-.0142-.0212-.0348-.0117-.0625-.0625-.009-.008-.02285-.0226-.03125-.0312-.2588-.46834-.60092-.94233-.90625-1.375-.34123-.48354-.67075-.81628-.6875-1.5312-.0179-.78247-.29144-1.9407-.90625-2.8438-.60704-.8916-1.5088-1.5505-2.8125-1.5312zm-.03125 1.5938c.94119-.016 1.7363.32982 2.2188.84375.49051.52249.71875 1.1927.71875 1.875v3c.005.44643-.42783.84879-.875.84375l-2.25-.0312c-.0436-.005-.08278-.0193-.125-.0312-1.5517-.21685-2.5312-1.8225-2.5312-3.6875 0-.9607.20013-1.7021.71875-2.1875.52683-.49309 1.2239-.60965 2.125-.625zm13.219.125c.8864.0151 1.6215.13921 2.125.59375.50351.45455.65625 1.1378.65625 2.0938 0 .92156-.22394 1.8051-.65625 2.4688-.43232.66367-1.0716 1.1152-1.8125 1.2188-.0172.001-.0453.001-.0625 0l-2.75.0312c-.20104-.006-.36935-.17429-.375-.375l-.0625-3.4375c-.0234-1.356 1.0649-2.6256 2.9375-2.5938zm-29.031.71875c-.157.0549-.2596.20918-.25.375v24.75c-.00029.20239.17228.37529.375.375h2.625v-2.5c0-.277.223-.5.5-.5s.5.223.5.5v2.5h4v-2.5c0-.277.223-.5.5-.5s.5.223.5.5v2.5h4v-2.5c0-.277.223-.5.5-.5s.5.223.5.5v2.5h4v-2.5c0-.277.223-.5.5-.5s.5.223.5.5v2.5h4v-2.5c0-.277.223-.5.5-.5s.5.223.5.5v2.5h8.5938c.32292.001.47792-.49518.21875-.6875l-1.9688-1.5312c-.0452.13385-.0788.28481-.125.40625-.22967.60491-.39669.82942-.5 1-.3842.66297-1.5277.62047-1.875-.0625l-2.6875-5.3438-4.6562-3.5312-4.5625 9.0625c-.11712.22616-.48885.25456-.65625.0625 0 0-.48003-.55403-.90625-1.6562-.31396-.81196-.60483-2.2158-.75-3.7188h-8.125v-7.625l8.0312 6.0625c.0195-1.7084 1.0705-3.6905 2.4375-5.6875l-15.845-12.188c-.0918-.0754-.22809-.0901-.34375-.0625-.009-.00028-.02265-.00028-.03125 0zm22.438 7.4062c.45599 0 .8125.35725.8125.8125 0 .45522-.35651.8125-.8125.8125-.45598 0-.84375-.35728-.84375-.8125 0-.45525.38777-.8125.84375-.8125zm-2.3125 1.0625c-.56007.64104-1.0971 1.3235-1.6562 2.0312-2.0847 2.6389-3.9189 5.6434-3.9062 7.5312.0156 2.3204.42134 3.8947.8125 4.9062.21945.56754.29801.59422.4375.8125l6-11.969-1.6875-3.3125z" fill="url(#a)"/></svg>