<svg height="16" width="16" xmlns="http://www.w3.org/2000/svg"><path d="m5 2v12h11v-12zm-2 1v10l1-.111328v-9.7773439zm-2 1v8l1-.300781v-7.2988284zm13 0c-.01967 2.0971113.03131 3.7643643 0 5.8613281l-.011719-.0039062a.92821202 1.346675 59.1014 0 1 -1.240234 1.2226561.92821202 1.346675 59.1014 0 1 -1.25-.666016.92821202 1.346675 59.1014 0 1 1.25-1.3339839.92821202 1.346675 59.1014 0 1 .251953-.046875c.005685-.8443761.002111-1.6888262 0-2.5332031-.977649.2061611-2.018466.3196318-3 .5-.027235 1.2103013.02966 2.60028 0 3.810547l-.0058594-.003906a.92821202 1.346675 59.1014 0 1 -1.2460937 1.273437.92821202 1.346675 59.1014 0 1 -1.25-.666016.92821202 1.346675 59.1014 0 1 1.25-1.333984.92821202 1.346675 59.1014 0 1 .2734375-.048828c-.0204896-1.843713-.0214844-3.687465-.0214844-5.53125z" fill="#bebebe"/></svg>