<svg height="16" width="16" xmlns="http://www.w3.org/2000/svg"><g fill="#bebebe" transform="translate(0 -1036.3622)"><path d="m1 1041.3622c-.554 0-1 .446-1 1v7c0 .554.446 1 1 1h14c.554 0 1-.446 1-1v-7c0-.554-.446-1-1-1zm3.5 2c1.3807119 0 2.5 1.1193 2.5 2.5s-1.1192881 2.5-2.5 2.5c-1.3807118 0-2.5-1.1193-2.5-2.5s1.1192882-2.5 2.5-2.5zm5 1h4c.277 0 .5.223.5.5s-.223.5-.5.5h-4c-.277 0-.5-.223-.5-.5s.223-.5.5-.5zm0 2h4c.277 0 .5.223.5.5s-.223.5-.5.5h-4c-.277 0-.5-.223-.5-.5s.223-.5.5-.5z"/><rect height="1" rx=".5" transform="matrix(.70710678 -.70710678 .70710678 .70710678 0 0)" width="7" x="-732.04547" y="742.00629"/><rect height="1" rx=".5" transform="matrix(.70710678 .70710678 .70710678 -.70710678 0 0)" width="7" x="736.17792" y="-731.87384"/></g></svg>