<svg height="16" viewBox="0 0 16 16" width="16" xmlns="http://www.w3.org/2000/svg"><g fill="#bebebe"><path d="m1 0v5h5l-1.71875-1.71875c1.0226391-.8028675 2.318003-1.28125 3.71875-1.28125 3.313708 0 6 2.6862915 6 6 0 .3380878-.040011.677161-.09375 1h2.03125c.041167-.3288322.0625-.6600097.0625-1 0-4.418278-3.581722-8-8-8-1.9568721 0-3.7661949.6769384-5.15625 1.84375zm6.90625 2.96875a1.0001 1.0001 0 0 0 -.125.03125 1.0001 1.0001 0 0 0 -.78125 1v3.6875a1.0001 1.0001 0 0 0 0 .09375 1.0001 1.0001 0 0 0 .125.75 1.0001 1.0001 0 0 0 .03125.03125 1.0001 1.0001 0 0 0 .03125.0625 1.0001 1.0001 0 0 0 .03125.03125 1.0001 1.0001 0 0 0 .03125.03125 1.0001 1.0001 0 0 0 .03125.03125 1.0001 1.0001 0 0 0 .03125.03125 1.0001 1.0001 0 0 0 .0625.03125 1.0001 1.0001 0 0 0 .03125.03125 1.0001 1.0001 0 0 0 .03125.03125 1.0001 1.0001 0 0 0 .0625.03125 1.0001 1.0001 0 0 0 .125.0625l1.375.8125v-.75h2.46875a1.0077822 1.0077822 0 0 0 -.375-.375l-2.09375-1.21875v-3.40625a1.0001 1.0001 0 0 0 -1.09375-1.03125zm-7.65625 3.03125c-.1637044.637743-.25 1.31119-.25 2 0 4.418278 3.5817219 8 8 8 .3399903 0 .6711678-.021333 1-.0625v-2.03125c-.3228389.053739-.6619122.09375-1 .09375-3.3137086 0-6-2.686292-6-6 0-.700711.1229842-1.374865.34375-2z"/><path d="m11 10v6l5-3z"/></g></svg>