<svg height="48" width="48" xmlns="http://www.w3.org/2000/svg" xmlns:xlink="http://www.w3.org/1999/xlink"><linearGradient id="a" gradientUnits="userSpaceOnUse" x1="69.428606" x2="69.280074" y1="5.726686" y2="43.29662"><stop offset="0" stop-color="#fff"/><stop offset="1" stop-color="#c8c8c8"/></linearGradient><rect fill="#999" height="46" rx="2.7487" ry="2.1454" width="46" x="1" y="1"/><g transform="translate(-45.76508 .296878)"><path d="m54.40625 4.9375c-1.124188 0-2.267995.7374625-2.75 1.34375s-.631925 1.04468-.75 1.3125a2.6957473 2.6957473 0 0 0 -.03125.0625l-.5625 1.34375a2.6957473 2.6957473 0 0 0 -.1875 1.125l.25 6.65625a2.6957473 2.6957473 0 0 0 .0625.5625c-1.000045.698205-1.750072 1.802943-1.65625 3.15625l1.25 18.40625c.119611 1.724604 1.660309 3.5625 3.71875 3.5625h31.96875c2.057344 0 3.639087-1.740736 3.75-3.59375l1.28125-21.28125c.082274-1.372256-.586715-2.417928-1.53125-3.09375a2.6957473 2.6957473 0 0 0 .0625-.5l.125-2.3125a2.6957473 2.6957473 0 0 0 0-.03125c.090044-2.154932-1.727257-3.84375-3.71875-3.84375h-19.4375l-1.03125-1.625a2.6957473 2.6957473 0 0 0 -2.28125-1.25z" opacity=".07"/><path d="m54.40625 6.25c-.71038 0-1.395787.4375132-1.71875.84375s-.444518.7636397-.5625 1.03125a1.3723804 1.3723804 0 0 0 -.03125.03125l-.5625 1.34375a1.3723804 1.3723804 0 0 0 -.09375.59375l.25 6.65625a1.3723804 1.3723804 0 0 0 .75 1.15625c-1.217823.0484-2.440017 1.111428-2.34375 2.5l1.25 18.40625c.08075 1.164221 1.071387 2.34375 2.40625 2.34375h31.96875c1.334304 0 2.363892-1.113982 2.4375-2.34375l1.28125-21.28125c.08442-1.408138-1.088797-2.352068-2.3125-2.4375a1.3723804 1.3723804 0 0 0 .84375-1.1875l.125-2.3125c.057819-1.383718-1.116262-2.46875-2.40625-2.46875h-20.1875l-1.40625-2.21875a1.3723804 1.3723804 0 0 0 -1.15625-.65625z" opacity=".15"/><path d="m54.390724 7.6114936c-.56249 0-.768133.5527792-1.003906 1.0875651l-.585613 1.3385433.250977 6.650881c.02218-.0012.01853 0 .04183 0h7.863937l3.597332-2.844403h22.044118l.125488-2.300618c.0244-.58394-.483235-1.045737-1.045736-1.045737h-20.914723l-1.840496-2.8862314h-8.533207zm9.578943 8.7841834-3.597332 2.886231h-7.863936c-.584035.02321-1.08616.462651-1.045736 1.045737l1.254883 18.404955c.04044.583083.461252 1.045737 1.045737 1.045737h31.957696c.584485 0 1.010813-.462297 1.045735-1.045737l1.296714-21.291187c.03498-.583437-.503082-1.045736-1.087566-1.045736z" fill="url(#a)"/></g></svg>