<svg height="48" width="48" xmlns="http://www.w3.org/2000/svg" xmlns:xlink="http://www.w3.org/1999/xlink"><linearGradient id="a" gradientTransform="matrix(.77273 0 0 .82353 -49.164915 1.236764)" gradientUnits="userSpaceOnUse" x1="90.443" x2="90.765" y1="16.396" y2="60.396"><stop offset="0" stop-color="#fff"/><stop offset="1" stop-color="#c8c8c8"/></linearGradient><rect fill="#999" height="46" rx="2.7487" ry="2.1454" width="46" x="1" y="1"/><path d="m17.875 1.84375a1.9123235 1.9123235 0 0 0 -1.71875 1.90625v9a1.9123235 1.9123235 0 0 0 .40625 1.15625c-.0087.01015-.02278.02106-.03125.03125-.479941.577456-.713415 1.163705-.84375 1.71875-.370361 1.577212-1.164472 3.10732-1.5 5.3125-1.032333 6.784771-1.236967 13.465244-.53125 20.625.07822.79351.49921 1.587619 1 2.0625s1.012035.702678 1.4375.875c5.671645 2.297126 11.104248 2.086598 15.96875-.03125.383818-.167102.900365-.37657 1.40625-.84375s.942004-1.294966 1-2.125c.505664-7.237061.489883-13.528355-.5-20.5625-.304103-2.160971-1.20059-3.909771-1.53125-5.3125-.130564-.55388-.364139-1.141416-.84375-1.71875-.0047-.0056-.02648.0056-.03125 0a1.9123235 1.9123235 0 0 0 0-.03125 1.9123235 1.9123235 0 0 0 .40625-1.15625v-9a1.9123235 1.9123235 0 0 0 -1.90625-1.90625h-12a1.9123235 1.9123235 0 0 0 -.1875 0z" opacity=".07"/><path d="m17.875 2.875a.88397186.88397186 0 0 0 -.6875.875v9a.88397186.88397186 0 0 0 .875.875h12a.88397186.88397186 0 0 0 .875-.875v-9a.88397186.88397186 0 0 0 -.875-.875h-12a.88397186.88397186 0 0 0 -.1875 0zm2.5625 5.75h.75v1.25h-.75zm6.5 0h.75v1.25h-.75zm-8.125 5.25c-.61203 0-1.168224.319563-1.5.71875s-.519298.86236-.625 1.3125c-.40558 1.727198-1.19549 3.217426-1.5 5.21875-1.020048 6.704031-1.197898 13.294569-.5 20.375.05566.564664.336179 1.073105.6875 1.40625s.723718.50638 1.09375.65625c5.44994 2.207331 10.547946 2.019912 15.1875 0 .348915-.151906.738196-.3279 1.09375-.65625s.646832-.855464.6875-1.4375c.502618-7.19347.478599-13.389796-.5-20.34375-.270797-1.924295-1.130315-3.650471-1.5-5.21875-.10597-.449549-.293418-.913357-.625-1.3125s-.887886-.71875-1.5-.71875zm5.3125 5.65625.21875.40625a.88397186.88397186 0 0 0 -.1875.09375.88397186.88397186 0 0 0 -.25-.125c.07155-.127131.147535-.247855.21875-.375zm3.3125 3.0625h1.25v1.40625c-.24714.06659-.502292.142698-.71875.34375-.100783-.139306-.122431-.317517-.25-.375-.133924-.06035-.191613-.01865-.28125-.03125zm-6.78125 3.0625c.22763.11705.417866.354834.53125.71875-.01114-.03576.0023.211162-.09375.4375-.09601.226338-.264272.43998-.3125.46875-.02565.0033-.150605-.07238-.5.09375-.05823.02769-.09769.109751-.15625.15625-.02705-.03205-.0394-.101994-.0625-.125-.102128-.101696-.174875-.144195-.28125-.25-.28918-.287639-.373782-.594142-.34375-.84375.03003-.249608.154508-.459508.46875-.625.251619-.132509.52237-.1483.75-.03125zm3.34375 10.71875a.88397186.88397186 0 0 0 .21875.15625l.375.21875a.88397186.88397186 0 0 0 .0625.03125c-.141881-.06853.279031.331121.375.53125.203808.425027.169825.814602 0 1.09375-.165205.271554-.441187.458514-.875.46875-.01384-.000507-.01771.000742-.03125 0-.37172-.02036-.64523-.135464-.78125-.25-.140973-.118707-.21875-.235615-.21875-.5625 0-.542324.07727-.766307.15625-.90625s.204087-.272848.46875-.5l-.03125-.03125c.09954-.057063.181655-.163429.28125-.25z" opacity=".15"/><path d="m18.797085 14.739364c-.69564 0-1.080947.623872-1.25 1.3438-.435855 1.856126-1.222153 3.329912-1.5 5.156-1.009488 6.634626-1.191177 13.143757-.5 20.156.07254.735894.605236 1.082658 1.25 1.3438 5.259362 2.130143 10.053812 1.935727 14.5 0 .637823-.277688 1.198455-.606088 1.25-1.3438.5-7.156.468898-13.270978-.5-20.156-.242167-1.720848-1.09677-3.445414-1.5-5.156-.16966-.719734-.55435-1.3438-1.25-1.3438zm5.2812 3 1.75 3h-1.1875v8.4062c.16637 0 1.7948-1.6603 2.3438-2.4062.23717-.32228.375-.78695.375-1.2188 0-.65123.21509-.78125-.28125-.78125h-.53125v-3.0312h3v3.0312h-.5c-.43251.0507-.73084.27785-.8125 1-.12172 1.0769-.58512 1.7891-2.2812 3.5l-1.3125 1.4375v5.0937l.375.21875c.26661.12878.63033.55761.8125.9375.64922 1.3539-.23049 2.8125-1.7188 2.8125-1.0785-.0395-1.875-.60154-1.875-1.6875 0-1.2774.41785-1.6165.9375-2.0625.41719-.20153.47425-.3206.46875-.96875-.007-.71629-.07958-.62885-1.4062-1.7812-2.0254-1.7595-2.2934-2.2032-2.5312-3.9687-.17543-1.3022-.05893-.99913-.5625-1.5-.92689-.92195-.75966-2.2939.34375-2.875.99401-.52347 2.1681.0534 2.5312 1.2188.17897.57429-.23634 1.5625-.8125 1.9062-.52724.31456-.74557-.22196-.625.9375.0669.64174.21173 1.396.34375 1.6562.22674.44704 2.446 2.5312 2.6875 2.5312v-12.406h-1.2188c.56932-.98857 1.136-2.0054 1.6875-3zm-6.0312-13.9999998v8.9999998l12-.0039v-9.0000001zm1.4999 4 2.5001-.00449v2.9999998l-2.5001.0045zm6.5001 0h2.4999v2.9999998h-2.4999z" fill="url(#a)"/></svg>