<svg height="16" width="16" xmlns="http://www.w3.org/2000/svg"><g fill="#bebebe" transform="translate(.333285 -.325396)"><path d="m1.3613976 6.3261716c-.1673696 0-.6946826.5576069-.6946826.8365568v7.6951356c0 .27895.6056405.467532.7730101.467532h12.7269899s.5-.164613.5-.443563v-7.6951349c0-.2789499-.3542-.8605265-.521571-.8605265zm.8138741 1.0025964 11.3013473.0777519c.151755.00104.190096.283956.190096.5160878v5.9027883c0 .232133-.29445.5-.29445.5h-11.3682916c-.1517582 0-.3372584-.267867-.3372584-.5v-6c0-.2321318.3568026-.4976721.5085567-.496628z"/><path d="m13.0992 1.2559932-3.1216238.9010872 1.5125398 1.7699929 2.188354-.6114521zm-5.2456155 1.5125392-2.47799.7079973 1.448176 1.7378112 2.4136267-.6758155c-.3767997-.506549-.8548291-1.1405819-1.3838127-1.769993zm-4.6019815 1.3194494-2.41362674.7079972.28963524 1.9952647 3.507804-.9654507c-.4211073-.5635069-.8899086-1.163629-1.3838125-1.7378112z"/><path d="m6.166715 8.325396 5.219599 2.692168-5.219599 2.807832z"/></g></svg>