<svg height="16" width="16" xmlns="http://www.w3.org/2000/svg"><g fill="#bebebe"><path d="m8.15625.35470297c-.2313766 0-.4715251.10233207-.6482497.25929987h-.032413l-6.96868416 6.70938436a.16407997.16407997 0 0 1 -.0324125 0c-.36720498.3490401-.367205.8502216 0 1.1992619l7.00109716 6.6445589c.3652393.347173.9960856.347173 1.3613244 0l7.0010968-6.6445589c.367204-.3490403.367205-.8502215 0-1.1992619a.16407997.16407997 0 0 1 -.03241 0l-6.9686868-6.70938436c-.17861-.16977442-.4404543-.25929987-.6806622-.25929987zm-.064825 1.62062423a.16407997.16407997 0 0 1 .032413 0 .16407997.16407997 0 0 1 .032412 0 .16407997.16407997 0 0 1 .032412 0 .16407997.16407997 0 0 1 .032413 0 .16407997.16407997 0 0 1 .032412.032413l6.0611345 5.7694222a.16407997.16407997 0 0 1 .03241.032412.16407997.16407997 0 0 1 .03241.032413.16407997.16407997 0 0 1 0 .032412.16407997.16407997 0 0 1 0 .032413.16407997.16407997 0 0 1 0 .032412.16407997.16407997 0 0 1 -.03241.064825.16407997.16407997 0 0 1 -.03241.032412l-6.061134 5.7694226a.16407997.16407997 0 0 1 -.032412.03241.16407997.16407997 0 0 1 -.032413 0 .16407997.16407997 0 0 1 -.032412 0 .16407997.16407997 0 0 1 -.032412 0 .16407997.16407997 0 0 1 -.032413 0 .16407997.16407997 0 0 1 -.032412-.03241l-6.0611356-5.7694222a.16407997.16407997 0 0 1 -.032412-.032412.16407997.16407997 0 0 1 -.032412-.032412.16407997.16407997 0 0 1 0-.032413.16407997.16407997 0 0 1 0-.032412.16407997.16407997 0 0 1 0-.032413.16407997.16407997 0 0 1 .032412-.064825.16407997.16407997 0 0 1 .032412-.032412l6.0611347-5.7694231a.16407997.16407997 0 0 1 .032412-.032413z"/><path d="m8.1619258 4.2035937-1.429145.9281049.7128899.1109692a.14227514.14227514 0 0 1 .1143317.1883092l-.8574864 2.4783061c.9414906-.08242 1.8136191.4316908 2.1252234 1.40897l1.9873516-1.967176a.14227514.14227514 0 0 1 .218575.020175l.332906.4976793.363172-1.856207-1.7654131.073979.4102471.5044039a.14227514.14227514 0 0 1 -.03699.2118496l-2.0646939 1.2710978a.14227514.14227514 0 0 1 -.2152123-.1378694l.2791035-2.3068084a.14227514.14227514 0 0 1 .1681343-.1210571l.6826278.1378704zm-1.3316274 4.5699021c-.050584-.00111-.073977-.0005465-.1244188.00336-.050444.00395-.071263.00784-.1210581.016815-.049796.00897-.072405.013008-.1210563.026901-.048653.013893-.067309.021671-.1143319.040352-.047021.018681-.06941.027159-.1143311.05044-.044923.023281-.061871.036241-.1042438.063891-.042374.02765-.061481.038874-.1008806.070617-.039402.031742-.054759.04855-.090794.084066-.036034.035518-.051758.051854-.084066.090792-.03231.03894-.045721.05555-.073979.097519-.028259.041969-.039963.063024-.063891.1076059-.023928.044582-.034443.064222-.053802.1109692-.019359.046748-.025758.065886-.040353.1143322-.014595.048449-.020579.071396-.030266.1210557-.00969.049663-.012135.07068-.016813.1210586-.00455.049023-.00702.073276-.00672.121057.0000078.0013-.00001.002 0 .0034.00116.04605.00437.06715.010087.114332.00588.04856.00963.06993.020176.117695.010553.04777.015156.06781.030264.11433.015109.04653.024185.06949.043716.114334.01953.04485.026671.06149.05044.104244.023768.04275.036107.06398.063891.104243.027783.04026.042439.05677.073979.09416.031541.03739.045702.05325.080705.08743.035001.03417.049292.04671.08743.07734.038137.03063.056602.04381.097517.07061.040916.02681.06093.03779.1042449.06053.043313.02273.062299.032.1076059.05044.045306.01844.064092.02636.1109693.04035.046875.014.069688.01751.1176937.0269.048006.0094.069005.01209.1176946.0168.048689.0048.068775.0067.1176936.0067.048918 0 .069005-.0021.1176954-.0067.048689-.0048.069688-.0074.1176936-.0168.048006-.0094.070819-.0129.1176946-.0269.046876-.01399.065665-.0219.1109691-.04035.045305-.01844.064293-.02771.1076059-.05044.043313-.02273.063327-.03372.1042428-.06053.040916-.02681.059381-.03998.097518-.07061s.052428-.04317.087431-.07734c.035001-.03416.049163-.05004.080704-.08743.031542-.03739.046196-.05389.073979-.09416.027783-.04026.040123-.06149.063891-.104243.023768-.04275.030911-.05939.050439-.104244.019529-.04485.028606-.06781.043716-.114334.015109-.04652.019717-.06657.030265-.11433.010542-.04776.014287-.06913.020175-.117695.00573-.04718.00892-.06829.010087-.114332.0000346-.0013-.000033-.0019 0-.0034.0003666-.046393-.00244-.070048-.00673-.1176949-.00442-.049006-.00766-.069349-.016815-.1176941-.00914-.048348-.013098-.070461-.026901-.1176937-.013804-.04723-.022028-.068666-.040353-.114332s-.02777-.063936-.05044-.107607c-.022671-.04367-.03036-.062981-.057166-.1042437-.026806-.041262-.039932-.059053-.070618-.097518-.030684-.038465-.046428-.05549-.080704-.090793-.0342761-.0353059-.0498883-.0488995-.0874305-.0807079-.0375412-.0318084-.0537028-.0459655-.0941564-.0739794-.0404515-.0280129-.0612613-.0365758-.1042427-.0605277-.0429826-.023953-.0591387-.0341379-.1042438-.0538046-.0451041-.0196667-.0675293-.0285221-.114331-.043715-.0468008-.0151929-.0662768-.0196873-.1143319-.0302644-.0480544-.0105858-.0688403-.0143163-.1176945-.020177-.048854-.00586-.071863-.009-.1210563-.010087z" fill-opacity=".990942"/></g></svg>