<svg height="16" width="16" xmlns="http://www.w3.org/2000/svg"><path d="m6.5 1c-3.0375661 0-5.5 2.4624339-5.5 5.5s2.4624339 5.5 5.5 5.5c1.1689106-.0026 2.3066094-.377453 3.2480469-1.070312l3.2726761 3.455507c.542473.52281 1.143147.754026 1.36914.519532l.529297-.566406c.225996-.234494-.02784-.848282-.570312-1.371094l-3.251192-3.4535551c.587784-.895277.901396-1.9426862.902344-3.0136719 0-3.0375661-2.4624339-5.5-5.5-5.5zm0 1c2.4852814 0 4.5 2.0147186 4.5 4.5s-2.0147186 4.5-4.5 4.5-4.5-2.0147186-4.5-4.5 2.0147186-4.5 4.5-4.5z" fill="#bebebe"/></svg>