<?xml version="1.0" encoding="UTF-8" standalone="no"?>
<!-- Created with Inkscape (http://www.inkscape.org/) -->

<svg
   xmlns:dc="http://purl.org/dc/elements/1.1/"
   xmlns:cc="http://creativecommons.org/ns#"
   xmlns:rdf="http://www.w3.org/1999/02/22-rdf-syntax-ns#"
   xmlns:svg="http://www.w3.org/2000/svg"
   xmlns="http://www.w3.org/2000/svg"
   xmlns:xlink="http://www.w3.org/1999/xlink"
   xmlns:sodipodi="http://sodipodi.sourceforge.net/DTD/sodipodi-0.dtd"
   xmlns:inkscape="http://www.inkscape.org/namespaces/inkscape"
   width="16px"
   height="16px"
   id="svg3925"
   version="1.1"
   inkscape:version="0.92.2 (unknown)"
   sodipodi:docname="folder-templates-symbolic.svg">
  <defs
     id="defs3927">
    <linearGradient
       inkscape:collect="always"
       xlink:href="#linearGradient3569"
       id="linearGradient4548"
       gradientUnits="userSpaceOnUse"
       x1="136.23065"
       y1="40.918156"
       x2="54.675591"
       y2="-40.636906" />
    <linearGradient
       id="linearGradient3569">
      <stop
         id="stop3571"
         offset="0"
         style="stop-color:#161616;stop-opacity:1;" />
      <stop
         id="stop3573"
         offset="1"
         style="stop-color:#3a3a3a;stop-opacity:1;" />
    </linearGradient>
    <linearGradient
       id="linearGradient4565">
      <stop
         id="stop4567"
         offset="0"
         style="stop-color:#161616;stop-opacity:1;" />
      <stop
         id="stop4569"
         offset="1"
         style="stop-color:#3a3a3a;stop-opacity:1;" />
    </linearGradient>
  </defs>
  <sodipodi:namedview
     id="base"
     pagecolor="#ffffff"
     bordercolor="#666666"
     borderopacity="1.0"
     inkscape:pageopacity="0.0"
     inkscape:pageshadow="2"
     inkscape:zoom="11.098901"
     inkscape:cx="12.867193"
     inkscape:cy="0.69446957"
     inkscape:current-layer="layer1"
     showgrid="true"
     inkscape:grid-bbox="true"
     inkscape:document-units="px"
     inkscape:window-width="1366"
     inkscape:window-height="716"
     inkscape:window-x="0"
     inkscape:window-y="27"
     inkscape:window-maximized="1"
     showguides="true"
     inkscape:guide-bbox="true"
     inkscape:snap-global="false" />
  <metadata
     id="metadata3930">
    <rdf:RDF>
      <cc:Work
         rdf:about="">
        <dc:format>image/svg+xml</dc:format>
        <dc:type
           rdf:resource="http://purl.org/dc/dcmitype/StillImage" />
        <dc:title />
      </cc:Work>
    </rdf:RDF>
  </metadata>
  <g
     id="layer1"
     inkscape:label="Layer 1"
     inkscape:groupmode="layer">
    <g
       id="g7563">
      <path
         style="fill:#bebebe;fill-opacity:1;stroke:none"
         d="M 2.3242188 1.2304688 L 2.3242188 15.259766 L 13.970703 15.259766 L 13.970703 5.0566406 L 12.914062 4.1308594 L 12.914062 14.300781 L 3.4140625 14.300781 L 3.4140625 2.1894531 L 10.701172 2.1894531 L 9.6074219 1.2304688 L 2.3242188 1.2304688 z "
         id="path4618" />
      <path
         d="m 7.388223,5.6976183 -0.5068973,0 C 6.3289362,5.6976245 5.9585116,5.7748765 5.7700508,5.9293743 5.5815883,6.0838842 5.4321187,6.436556 5.3216416,6.9873908 l -0.2242046,0 0.04874,-1.7129791 5.497887,0 0.05849,1.7129791 -0.224205,0 C 10.361365,6.4298385 10.208646,6.0771666 10.02019,5.9293743 9.8382219,5.7748765 9.4710465,5.6976245 8.9186629,5.6976183 l -0.5263934,0 0,5.1590897 c -3.4e-6,0.356032 0.058485,0.591147 0.1754645,0.705345 0.1169726,0.107481 0.3736704,0.171298 0.770094,0.191451 l 0,0.191449 -2.8561714,0 0,-0.191449 c 0.4029164,-0.02015 0.6531155,-0.08733 0.750598,-0.201527 0.1039765,-0.114199 0.1559659,-0.38626 0.1559684,-0.816185 l 0,-5.0381737"
         style="font-size:11.7132225px;font-style:normal;font-variant:normal;font-weight:normal;font-stretch:normal;fill:#bebebe;fill-opacity:1;stroke:none;font-family:Norasi;-inkscape-font-specification:Norasi"
         id="path7539"
         inkscape:connector-curvature="0" />
      <path
         inkscape:connector-curvature="0"
         sodipodi:nodetypes="cccccc"
         id="path17656"
         d="m 7.1108743,0.45786715 7.5780417,7.59390365 -0.07558,-7.56698978 -7.5024746,-0.0266578 5.08e-5,0 -4.22e-5,0 z"
         style="opacity:0.93050196;fill:#bebebe;fill-opacity:1;stroke:none;display:inline;enable-background:new" />
    </g>
  </g>
</svg>
