<svg height="16" width="16" xmlns="http://www.w3.org/2000/svg"><g fill="#bebebe" stroke-width="2.81263" transform="matrix(.32739078 0 0 .38610758 -16.511008 -1.681684)"><path d="m77.5703 6.9454345c-11.317079 0-20.630635 6.3193555-21.648617 15.5397085h-5.489571l8.107675 8.633172 8.107674-8.633172h-5.29251c1.001307-6.722239 7.890308-11.035445 16.215349-11.035445 9.013029 0 16.327956 6.104178 16.327956 13.625397-.000003 7.521219-7.314924 13.625398-16.327956 13.625398-4.889999 0-9.280846-1.799942-12.274118-4.645022l-3.969382 3.068529c3.98185 3.735752 9.784188 6.080755 16.2435 6.080756 11.996656 0 21.733071-8.122088 21.733072-18.129661 0-10.007573-9.736418-18.1296605-21.733072-18.1296605z"/><path d="m77.329628 13.603649h-2.036302l-.425584 12.334763 12.817229-.294791.000002-1.726635-8.744626.294792z"/></g></svg>