<svg height="16" width="16" xmlns="http://www.w3.org/2000/svg"><path d="m14 1-8 1.5-.058594 9.566406.072266.128906c-.051-.02765-.1008369-.05219-.15625-.07617-.05279-.02308-.1055824-.03905-.1621094-.05859-.113051-.03907-.2312699-.0739-.3574219-.09766s-.2596984-.03996-.3964844-.04687c-.136745-.0069-.2769219-.0037-.421875.0078-.04072.0032-.082869.0071-.1230468.01172-.01958.0023-.039144.0052-.058594.0078-.01476.002-.032195.0038-.046875.0059-.144153.02125-.287333.0538-.421875.0918-.136318.03846-.2652608.08123-.3886718.134765-.06183.02683-.1235807.05574-.1816407.08594-.05793.03013-.1161358.06442-.1699219.09766-.1060439.06582-.2032256.136581-.2910156.212891-.0444.03864-.085841.07624-.125.117187-.04047.04204-.074825.08668-.109375.130859-.05509.07044-.1038461.145769-.1425781.220704-.0078.01526-.020254.0295-.027344.04492-.06544.140453-.095703.286205-.095703.435546 0 .04919.00423.09526.011719.142578.0074.04733.018693.09145.033203.136719.0149.04729.028551.09191.050781.136719.04263.0859.1025888.164748.1699218.240234.03367.03774.070085.07456.109375.109375.07858.06965.1687472.132744.2675782.189453.04928.02841.094653.05131.1484374.07617.271209.126171.5912118.208817.9492188.228516.141795.0078.2912272.0041.4414062-.0078.490792-.03878.9421535-.178869 1.3046876-.388672.103682-.0597.1971672-.125696.2851562-.195313.04267-.03392.086432-.07343.125-.109375.02037-.01899.039434-.03907.058594-.05859.0181-.01843.039641-.03387.056641-.05273.001-.0012-.001-.0046 0-.0059.06987-.07799.1262402-.155913.1757812-.240235.04954-.08432.1442359-.05106.1711194-.139916.01345-.04443.079795-.03752.087135-.08275l.1018545-.230185.1145003-.269812v-7l6.0059-1.6757812v5.8906252.226562l-.0059.558594c-.371384-.164089-.840206-.241572-1.351562-.201172-.561011.04432-1.067738.227774-1.453125.486328-.03749.02515-.07629.05152-.111328.07813-.4198191.292907-.6816408.676796-.6816408 1.083985 0 .786947.9801998 1.348829 2.1816408 1.253906.558681-.04414.760925-.180599 1.144491-.439453.01758-.01091.03367-.02198.05078-.0332.420706-.28208.89267-.64566 1.201006-1.216632.02838-.05255.03057-.223159.01974-.280091v-.231801zm-1 1v1.5l-6 1.5v-1.5z" fill="#bebebe"/></svg>