<svg height="16" width="16" xmlns="http://www.w3.org/2000/svg"><path d="m1.7714844 0c-.2281974 0-.3164586.2107768-.4121094.4277344l-.2402344.5429688.0996094 4.703125c.00895-.0004971.019339.00306.027344-.00195h3.1953122l.5273438-.4160188h-3v-3.21875h12.0625v2.4882812h.808594l.03906-2.9355468c.009902-.2368992-.181952-.4277344-.410154-.4277344h-8.4882812l-.7421876-1.1621094z" fill="#ccc"/><path d="m1.0036823 4.7225902h3.1960643l1.4486719-1.1733648h9.3481195c.23712 0 .442203.1913211.428016.4280169l-.518141 8.6455097c-.01417.236696-.190895.428015-.428015.428015h-12.9565752c-.23712 0-.411612-.191464-.4280156-.428015l-.51814473-7.4721449c-.01640366-.2365529.19108204-.4186.42801983-.4280169z" fill="#ccc"/><path d="m6 13v1h-6v1h6v1h4v-1h6v-1h-6v-1zm1 1h2v1h-2z" fill="#bebebe"/></svg>