<svg height="16" width="16" xmlns="http://www.w3.org/2000/svg"><path d="m6.0386468 1.6129992c-2.1925727-.4292578-4.3092843.9943385-4.7385421 3.1869113-.42925815 2.1925744.9864224 4.3497205 3.1789951 4.7789782 1.1475358.2246628 2.2771589-.0804548 3.1647183-.7239648.0901019.1198705.1877749.2379445.3085083.3542997l4.8430796 4.6429254c.542473.52281 1.141766.754186 1.367761.519692l.531024-.56781c.225996-.234494-.02875-.848598-.571226-1.37141l-4.8026433-4.6350079c-.1356181-.1307029-.2999177-.2459945-.4377335-.3376138.1785183-.3389482.3064973-.7077058.383406-1.1005417.4292578-2.1925729-1.0347756-4.3172008-3.2273474-4.7464584zm-.3404087 1.7387474c1.2333218.2414575 2.0704659 1.43398 1.8290083 2.6673022-.2414575 1.2333225-1.4744161 2.0625501-2.7077379 1.8210926-1.2333227-.2414576-2.0221146-1.4664998-1.7806571-2.6998222.2414576-1.2333222 1.426064-2.0300302 2.6593867-1.7885726z" fill="#bebebe"/></svg>