<svg height="16" width="16" xmlns="http://www.w3.org/2000/svg"><g fill="#bebebe" transform="matrix(.82578026 0 0 .82578026 18.580309 -2.825463)"><path d="m-20.078355 4.6325435-.07378 18.1646385h14.6054912v-13.9262228l-4.051223-4.2384157zm1.210976 1.2109759h8.476832l3.6329271 3.0274398.0000001 12.7152468h-12.1097592z" fill-opacity=".902043"/><path d="m-10.390547 4.6325435v4.2384157h3.6329272 1.210976l-4.051223-4.2384157z"/><path d="m-13.553346 10.321246h-.61384c-.668931.000008-1.117506.09356-1.345727.280651-.228224.187108-.409228.614185-.543013 1.281233h-.271507l.05902-2.074377h6.657809l.07083 2.074377h-.271507c-.141665-.675183-.326604-1.10226-.554819-1.281233-.220359-.187093-.665-.280643-1.333923-.280651h-.63745v6.247534c-.000004.431146.07082.715864.212484.854155.141651.130157.452505.207438.932565.231843v.23184h-3.458755v-.23184c.487922-.0244.790907-.105755.908956-.244044.125913-.138293.188871-.467752.188874-.988381v-6.101107"/><path d="m-13.889208 3.9760335 9.176825 9.1960345-.09153-9.1634424-9.085316-.032282h.000061-.000051z" opacity=".930502"/></g></svg>