<svg enable-background="new 0 0 22 22" height="22" viewBox="0 0 22 22" width="22" xmlns="http://www.w3.org/2000/svg"><path d="m18.084964 1.1246697-1.110748 1.1900865-.555374-.1586782-11.0678046 8.290936-2.737199 2.816538 2.2611644-.991739 9.4016842-7.1405186.634712.5950432-5.910763 9.5206924-1.229756 2.062816 2.023147-1.507443 6.624815-10.2744131 1.388435-2.1421558-.357026-.5553737 1.150417-1.2297561c-.031466-.2998918-.141348-.4904613-.515704-.4760346zm-15.3917865.1983478v10.9091265l2.1818253-2.2611643a.65549998.65549998 0 0 1 .079335-.039672l.6743823-.5157042v-.8727301l.5157042.5157042 2.380173-1.78513-5.8314235-5.9504329zm16.3438555 2.3008339c-.163168.019287-.332244.073948-.476035.1586782a.3548813.3548813 0 0 0 -.158678.1983477l-3.490921 10.9884657a.3548813.3548813 0 0 0 0 .07934l-.158678 2.776869a.3548813.3548813 0 0 0 0 .158678.3548813.3548813 0 0 0 .03967.07934.3548813.3548813 0 0 0 .03967.03967.3548813.3548813 0 0 0 .03967.03967.3548813.3548813 0 0 0 .03967.03967.3548813.3548813 0 0 0 .119008.03967.3548813.3548813 0 0 0 .119009 0 .3548813.3548813 0 0 0 .03967 0 .3548813.3548813 0 0 0 .119009-.03967.3548813.3548813 0 0 0 .03967-.03967.3548813.3548813 0 0 0 .07934-.07934l1.388434-2.221495a.3548813.3548813 0 0 0 .03967-.07934l3.530586-11.0281362a.3548813.3548813 0 0 0 0-.1586782.3548813.3548813 0 0 0 -.03967-.079339c-.175491-.4204377-.457626-.7315702-.79339-.8330607-.160739-.0485859-.352538-.0589558-.515704-.0396695zm-8.806641 5.3950591-2.3801729 1.8247995 1.9041384 1.943808 1.6264515-2.578521zm2.856208 2.9355465-1.666122 2.538851 2.102487 2.142156h-3.7686075l-1.586782 1.190086a.65549998.65549998 0 0 1 -.9520692-.83306l.1983477-.357026h-1.7851298v-4.125633l-.3570259.277687a.65549998.65549998 0 0 1 -.1190087.07934l-2.2611643.991739a.65549998.65549998 0 0 1 -.1983478.07934v5.633076h17.8116285l-3.173564-3.252903-1.309095 2.102486a.68045386.68045386 0 0 1 -.03967.03967c.0025-.0035-.04234.0431-.03967.03967.0027-.0034-.0028.04297 0 .03967s-.04259.0031-.03967 0c.003-.0031-.04272.04272-.03967.03967.0031-.0031-.04285.04259-.03967.03967.003-.0031-.0031.04272 0 .03967.0031-.0031-.04285.003-.03967 0 .0031-.003-.04297.04247-.03967.03967a.68045386.68045386 0 0 1 -.119009.07934c.0042-.0023-.04398.04183-.03967.03967.0043-.0021-.04411.0019-.03967 0 .0044-.0019-.04411.04145-.03967.03967.0045-.0018-.04424.0015-.03967 0 .0045-.0015-.04436.0013-.03967 0 .0047-.0013-.04436.04078-.03967.03967.0047-.0011-.04436.000902-.03967 0 .0047-.000903-.08417.000692-.07934 0 .0045-.000767-.04424.000576-.03967 0 .0061-.00034-.08543 0-.07934 0 .0023-.000096-.02761-.000254-.03967 0-.01206.000253-.04196 0-.03967 0 .0045 0-.04424-.000193-.03967 0 .0045.000192-.04424-.000385-.03967 0 .0045.000385-.04424-.000576-.03967 0 .0024.000346-.0271.0021-.03967 0s-.04208-.000452-.03967 0c.0047.000902-.04436-.0011-.03967 0 .0047.0011-.04436-.04094-.03967-.03967.0047.0013-.04424-.0015-.03967 0 .0045.0015-.04411-.0018-.03967 0 .0045.0018-.04411-.04157-.03967-.03967.0044.0019-.04398-.0021-.03967 0 .0043.0021-.04385-.04196-.03967-.03967a.68045386.68045386 0 0 1 -.119009-.07934c.0033.0028-.04284-.04259-.03967-.03967.0017.0014-.03116.0075-.03967 0 .0031.0031-.003-.04284 0-.03967.0017.0014-.03116.0075-.03967 0 .0031.0031-.003-.04285 0-.03967.0015.0015-.03218.0085-.03967 0 .0031.0031-.003-.04285 0-.03967.003.0031-.04247-.04297-.03967-.03967a.68045386.68045386 0 0 1 -.03967-.03967c.0038.0057-.04309-.08518-.03967-.07934.0034.0058-.04271-.04576-.03967-.03967.0031.0061-.04232-.08556-.03967-.07934.0027.0062-.0023-.04615 0-.03967a.68045386.68045386 0 0 1 -.03967-.07934c.0014.0059-.001-.0853 0-.07934.001.0059-.000688-.04576 0-.03967.000687.0061-.000346-.08543 0-.07934.000343.0061 0-.04576 0-.03967 0 .0061.000343-.04576 0-.03967-.000346.0061.000687-.08543 0-.07934-.000688.0061.001-.04564 0-.03967-.001.0059.0014-.0853 0-.07934l.158678-2.538851c.000679.0061-.00034-.08543 0-.07934.00034.0061 0-.04576 0-.03967 0 .0061.00034-.04576 0-.03967-.00034.0061.000679-.08543 0-.07934a.68045386.68045386 0 0 1 .03967-.119008l.396695-1.190087-1.586782-1.626451z" fill="#bebebe"/></svg>