<svg enable-background="new 0 0 22 22" height="22" viewBox="0 0 22 22" width="22" xmlns="http://www.w3.org/2000/svg"><g fill="#bebebe"><path d="m11 2c-4.971 0-9 4.029-9 9s4.029 9 9 9 9-4.029 9-9-4.029-9-9-9zm0 2c3.866 0 7 3.135 7 7 0 3.867-3.134 7-7 7s-7-3.133-7-7c0-3.865 3.134-7 7-7z"/><path d="m15.143 12.804v-6.38c0-.275-.205-.462-.457-.417l-4.594.835c-.252.045-.457.307-.457.583v5.135l.008.013c-.492-.15-1.108-.065-1.671.289-.938.588-1.369 1.69-.963 2.456s1.497.909 2.434.318c.666-.418 1.068-1.092 1.106-1.722l.011.016v-5.354c0-.274.157-.538.409-.582l2.791-.503c.252-.045.457.143.457.418v3.649l.01.014c-.492-.15-1.109-.065-1.672.289-.938.588-1.369 1.689-.963 2.455s1.496.91 2.434.318c.665-.418 1.068-1.091 1.106-1.721l.011.016z"/></g></svg>