<svg enable-background="new 0 0 22 22" height="22" viewBox="0 0 22 22" width="22" xmlns="http://www.w3.org/2000/svg"><path d="m18.123 2.012-8.913 1.506c-.482.081-.877.552-.877 1.048v9.24l.017.023c-.944-.271-2.127-.118-3.209.52-1.8 1.061-2.628 3.042-1.848 4.421.779 1.379 2.873 1.638 4.673.573 1.277-.752 2.051-1.964 2.124-3.098l.02.027v-.226-.001-9.405c0-.495.394-.968.876-1.048l5.359-.906c.482-.081.877.258.877.753v6.565l.018.025c-.944-.271-2.127-.119-3.209.52-1.801 1.061-2.628 3.041-1.848 4.42.779 1.379 2.871 1.639 4.672.574 1.277-.752 2.051-1.964 2.124-3.099l.021.029v-11.708c0-.495-.395-.833-.877-.753z" fill="#bebebe"/></svg>