<svg height="22" width="22" xmlns="http://www.w3.org/2000/svg"><path d="m3.71875 3.46875c-.162253 0-.3125.1316925-.3125.28125v1.65625h-.8125c-.162253 0-.3125.1316924-.3125.28125l-.03125 2.8125h1.53125l.0625-1.4375c.01057-.3478486.309805-.65625.6875-.65625h.4375v-.625-.375-.28125c0-.00837-.000355-.022959 0-.03125 0-.011588-.00074-.01982 0-.03125.01509-.1600386.097642-.3020093.21875-.40625.05868-.050508.081442-.0956633.15625-.125.0067-.00287.02448.00271.03125 0 .07678-.030719.161266-.023613.25-.03125.02614-.00225.06687-.03125.09375-.03125h3.0625c.02688 0 .03636.029.0625.03125.09515.00819.200063-.003294.28125.03125.157158.06687.305986.2078648.375.34375.03498.075735.03125.1629977.03125.25v.28125.28125.71875h7.46875.125.34375c.377695 0 .6875.3082409.6875.65625l-.03125 1.34375h1.53125l.0625-2.71875c.001-.064272-.02219-.0751983-.09375-.125-.06005-.041802-.169493-.0951388-.28125-.15625h-2.21875-.125-5.90625v-1.65625c0-.064281-.02219-.0751983-.09375-.125-.06005-.041802-.169493-.0951378-.28125-.15625h-2.21875-.125-2.3125zm16.84375 5.15625-19.40625.125c-.21560899.1632252-.22492.420793-.1875.6875l.90625 9.09375 18.5625-.0625.625-9.28125zm-9.28125.78125c.272316 0 1.154712 2.300553 1.375 2.46875.220306.168161 2.572062.321667 2.65625.59375.08414.272083-1.915812 1.69664-2 1.96875-.08414.272084.876556 2.863053.65625 3.03125-.220306.168161-2.415211-1.5-2.6875-1.5-.272316 0-2.467211 1.668197-2.6875 1.5-.220306-.168161.771652-2.75914.6875-3.03125-.08428-.271661-2.115438-1.697088-2.03125-1.96875.08419-.272558 2.435693-.425194 2.65625-.59375.21966-.168556 1.102442-2.46875 1.375-2.46875z" fill="#bebebe"/></svg>