<svg height="22" width="22" xmlns="http://www.w3.org/2000/svg"><path d="m11 2c-4.9706 0-9 4.0294-9 9s4.0294 9 9 9 9-4.0294 9-9c0-1.0873187-.2092-2.1288329-.5625-3.09375l-1.5625 1.59375c.10743.4890036.1875.979126.1875 1.5 0 3.895314-3.167186 7.0625-7.0625 7.0625-3.8953142 0-7.0625-3.167186-7.0625-7.0625 0-3.8953142 3.1671858-7.0625 7.0625-7.0625 2.126479 0 4.016812.9465711 5.3125 2.4375l1.375-1.40625c-1.647137-1.8252507-4.035295-2.96875-6.6875-2.96875zm8.46875 1.96875-1.4375 1.4375-1.375 1.40625-6.21875 6.375-2.90625-3-1.53125 1.8125 4.4375 4.375 7.28125-7.53125 1.46875-1.53125 1.625-1.65625z" fill="#fff"/></svg>