<svg height="22" width="22" xmlns="http://www.w3.org/2000/svg"><path d="m11.938 2.0625-1.782 2.0625-2.1872-1.5938-.6876 2.6563-2.6874-.5.5312 2.6875-2.6562.7188 1.6562 2.1872-2.0625 1.813 2.4375 1.25-1.0938 2.5 2.75.094.125 2.718 2.5-1.125 1.2808 2.407 1.782-2.063 2.187 1.594.688-2.657 2.687.5-.531-2.687 2.656-.719-1.656-2.187 2.063-1.8128-2.438-1.25 1.094-2.5-2.75-.0937-.125-2.7187-2.5 1.125-1.281-2.4063zm-.938 3.9375c.554 0 1 .446 1 1v5c0 .554-.446 1-1 1s-1-.446-1-1v-5c0-.554.446-1 1-1zm0 8c.554 0 1 .446 1 1s-.446 1-1 1-1-.446-1-1 .446-1 1-1z" fill="#bebebe"/></svg>