<svg enable-background="new 0 0 22 22" height="22" viewBox="0 0 22 22" width="22" xmlns="http://www.w3.org/2000/svg"><g fill="#bebebe"><path d="m3.7108578 2.15625c-.1622529 0-.3042425.1293314-.3042425.2788889v1.64798h-.8113132c-.1622529 0-.3042424.1293313-.3042424.2788889l-.044194 2.8237782h1.5465658l.044194-1.4546871c.0105678-.3478486.3068508-.6338385.6845455-.6338385h.4310102v-.6338384-.3803031-.2788889c0-.00837-.0003554-.017063 0-.025354 0-.011588.024614-.013924.025353-.025354.015089-.1600386.081724-.3014159.2028283-.4056566.058679-.050508.1026668-.097431.1774748-.1267677.00666-.00287.018576.00271.025354 0 .076783-.030719.1648021-.04307.2535354-.050707.026144-.00225.049177-.025354.076061-.025354h3.0677781c.026884 0 .049917.023104.076061.025354.095145.00819.1977024.016163.2788889.050707.1571579.06687.2859352.1937108.3549496.329596.034984.075735.050707.1665331.050707.2535354v.2788889.2788889.7352526h7.4539407.126767.35495c.377695 0 .684545.2858294.684545.6338385l-.04419 1.3532729h1.546566l.04419-2.722364c.001-.064272-.0045-.076966-.07606-.1267677-.06005-.041802-.167132-.09101-.278889-.1521212h-2.231112-.126767-5.907375v-1.64798c0-.064281-.0045-.076966-.07606-.1267677-.06005-.041802-.167132-.091009-.278889-.1521212h-2.2311117-.1267677-2.307172z"/><path d="m1.1641978 7.4239375 19.3875252-.1222948.498394.5707528-.604323 9.2900505-18.568452.043063-.91250255-9.0885066c-.03741777-.2667067-.01625061-.5298397.19935835-.6930649z"/></g></svg>