<svg height="16" width="16" xmlns="http://www.w3.org/2000/svg"><path d="m8 0a6 6 0 0 0 -6 6 6 6 0 0 0 1.8828125 4.359375l.4355469-.984375a5 5 0 0 1 -1.3183594-3.375 5 5 0 0 1 5-5 5 5 0 0 1 5 5 5 5 0 0 1 -1.318359 3.375l.433593.980469a6 6 0 0 0 1.884766-4.355469 6 6 0 0 0 -6-6zm0 2a4 4 0 0 0 -4 4 4 4 0 0 0 .7714844 2.3515625l.2558594-.578125.2402343-.5429687a3 3 0 0 1 -.2675781-1.2304688 3 3 0 0 1 .0585938-.5839844c.0007675-.0038211.0011708-.0079027.0019531-.0117187.0020606-.0100517.0056502-.0192807.0078125-.0292969a3 3 0 0 1 2.2949218-2.3027344c.0203556-.0044845.0400448-.0096088.0605469-.0136718a3 3 0 0 1 .5761719-.0585938 3 3 0 0 1 .5839844.0585938 3 3 0 0 1 .0117187.0019531c.0100517.0020606.0192807.0056502.0292969.0078125a3 3 0 0 1 2.302734 2.2949218c.004485.0203556.009609.0400448.013672.0605469a3 3 0 0 1 .058594.5761719 3 3 0 0 1 -.267578 1.2324219l.496094 1.1210937a4 4 0 0 0 .771484-2.3535156 4 4 0 0 0 -4-4zm0 2c-1.1045695 0-2 .8954305-2 2s.8954305 2 2 2 2-.8954305 2-2-.8954305-2-2-2zm-2.0585938 4.1777344-3.4628906 7.8222656h2.1855469l.4433594-1h5.7851561l.44336 1h2.185546l-3.46289-7.8203125c-.4987417.4713084-1.1439839.7573935-1.8281252.8105469l.4472656 1.0097656h-1.3554688l.4472656-1.0117188c-.6841412-.0531533-1.3293836-.3392384-1.828125-.8105468zm.4941407 3.8222656h3.1289062l.4433589 1h-4.0156245z" fill="#bebebe"/></svg>