<svg height="16" viewBox="0 0 16 16" width="16" xmlns="http://www.w3.org/2000/svg"><path d="m14.125 9.60911c0 1.3376-1.148 2.34663-2.670281 2.34663-1.280594-.005-2.098313-.58594-2.654875-1.88197l-.141719-.31525-1.231094-2.80744c-.395937-.96328-1.392375-1.60853-2.479656-1.60853-1.493625 0-2.708625 1.21538-2.708625 2.71006 0 1.49435 1.215 2.70969 2.708625 2.70969 1.012562 0 1.933562-.55759 2.403531-1.45556.01609-.0307.04819-.0506.0845-.0489.03491.001.06706.0231.081.0549l.497156 1.14828c.01394.0318.0084.0678-.01325.0946-.752781.91822-1.865875 1.44438-3.052937 1.44438-2.1765 0-3.947375-1.77119-3.947375-3.94741 0-2.17762 1.770875-3.94878 3.947375-3.94878 1.647969 0 2.9775.88681 3.647875 2.43425.0062.0153.674531 1.57916 1.261781 2.91881.347.79079.622875 1.27366 1.534125 1.30435.869375.0297 1.506906-.47828 1.506906-1.18463 0-.6284-.391062-.78453-1.273656-1.07884-1.524344-.50169-2.351125-1.01388-2.351125-2.27922 0-1.23697.854719-2.03691 2.176531-2.03691.868688 0 1.505532.38163 1.947532 1.16616.01188.022.01463.0475.0077.0716-.007.0241-.02375.0443-.04609.0552l-.824656.42106c-.0405.0213-.09013.008-.116656-.0282-.280657-.39315-.593532-.56734-1.013907-.56734-.548093 0-.946156.37356-.946156.88925 0 .63581.492344.79084 1.309313 1.04778.106875.0338.218531.0692.333812.10644 1.282031.41831 2.024344.92206 2.024344 2.26562z" fill="#bebebe" fill-rule="evenodd"/></svg>