<svg height="16" width="16" xmlns="http://www.w3.org/2000/svg"><g fill="#bebebe"><path d="m6 13v1h-6v1h6v1h4v-1h6v-1h-6v-1zm1 1h2v1h-2z"/><path d="m4 0c-.03684.12815712-.0002576.2683176 0 .42578125l.01758 10.74608975c.0008086.494299.2259991.828129.48242.828129h6c.256421 0 .518389-.33383.51758-.828129l-.01758-10.74608975c-.000258-.15746364.03685-.29762415 0-.42578125h-.400391zm1 1h5l.01758 9.90234c.000089.0502-.01067.05714-.01758.09766h-4.964842c-.00691-.04052-.0174889-.04746-.017578-.09766z" stroke-width=".69165"/><path d="m8 1h1v10h-1z" stroke-width=".953273"/><path d="m6 2h1v5h-1z" stroke-width=".576835"/><g stroke-width=".37321" transform="rotate(90)"><path d="m2-7h1v2h-1z"/><path d="m6-7h1v2h-1z"/></g></g></svg>