<svg height="16" width="16" xmlns="http://www.w3.org/2000/svg"><g fill="#bebebe"><path d="m2.7865285 10.437133c-1.0282937.499786-1.6666017 1.124397-1.6666017 1.837535v.427335c0 1.588055 3.0783654 2.863137 6.8800732 2.863136 3.801708 0 6.880073-1.275081 6.880073-2.863136v-.427335c0-.713138-.638308-1.337749-1.666602-1.837535-.217382.188161-.450042.35734-.686404.520815l.683734.472737c.227806.14244.496321.287968.614293.413979.187219.199994.221679.32199.221679.430004v.427335c0 .127865-.05152.287421-.291122.523484-.239601.236064-.657048.504748-1.209888.734479-1.105681.459466-2.7380479.771872-4.545763.771872-1.8077152-.000001-3.4400826-.312406-4.5457626-.771872-.5528398-.229731-.9702871-.498415-1.2098887-.734479-.2396017-.236063-.291121-.395625-.291121-.523484v-.427335c0-.108006.034459-.23001.2216793-.430004.1246969-.133202.4020974-.287394.6490132-.438016l.7051007-.435346c-.2534047-.172111-.515046-.335091-.7424924-.534169z" fill-rule="evenodd"/><path d="m6.1221508 11.372582c-3.0759663-1.125893-4.4657713-4.8363339-2.8935566-7.7250077 1.7215814-3.16314307 5.7270764-3.90259138 8.3466108-1.5408593 1.264908 1.1404234 1.856035 2.454644 1.856035 4.1264181 0 3.8282609-3.7285678 6.4500319-7.3090892 5.1394489zm3.852935-1.084685c.6398982-.3056677.7116522-.4610975.7760822-1.6807202.064096-1.2135314.011772-1.3827648-.540314-1.744442-.6592781-.4319718-.820459-1.357749-.3101639-1.7812724.1656239-.1374585.6780569-.2857684 1.1386919-.3295788.567617-.0539807.863276-.2153307.917308-.5006233.102638-.5417543-.609665-.8167107-1.184991-.4574171-.719361.4492496-.9093592.3271012-.7815331-.502414.1107011-.7183784.0440231-.8162879-.8384936-1.2310178-1.3474678-.6332295-2.0414461-.4040625-2.3999491.7925236-.1656002.5527095-.6007079 1.1997087-1.0358406 1.540255-.8442322.660699-.8228125 1.5138983.0311909 1.2428492.6648736-.2110243 1.3332282.2130754 1.6888738 1.0716683.2638174.6369189.2366332.8942998-.2072151 1.9623133-.5886533 1.4164482-.6287323 1.7930502-.2106746 1.9793872.4802307.214051 2.1896116.0051 2.9570248-.361511zm-4.4578943-1.2637621c0-.3140181-.1620932-.7054689-.360208-.8698895-.1981149-.1644207-.3602092-.6170059-.3602092-1.0057479 0-.8865022-.3888571-1.6357817-.8489391-1.6357817-.7557901 0-.3024796 2.5657221.6682104 3.7821898.3958937.4961179.9011459.3442999.9011459-.2707707z" stroke-width="1.127652"/></g></svg>