<svg height="16" width="16" xmlns="http://www.w3.org/2000/svg"><g fill="#bebebe"><path d="m2.8320312 10.146484a7 3.5 0 0 0 -1.8320312 2.353516 7 3.5 0 0 0 7 3.5 7 3.5 0 0 0 7-3.5 7 3.5 0 0 0 -1.818359-2.345703c-.1572.272025-.334073.528374-.529297.769531a6 2.5 0 0 1 1.347656 1.576172 6 2.5 0 0 1 -6 2.5 6 2.5 0 0 1 -6-2.5 6 2.5 0 0 1 1.3515625-1.580078c-.1949464-.243771-.3646546-.503841-.5195313-.773438z" fill="#bebebe"/><path d="m5.9201867 11.776303c-3.3997465-1.244404-4.93584401-5.3454122-3.198136-8.5381513 1.9027972-3.49609956 6.3299156-4.3133831 9.2251853-1.7030522 1.398054 1.2604657 2.051403 2.7130229 2.051403 4.56077 0 4.2312285-4.1210408 7.1289705-8.0784523 5.6804335zm4.2584993-1.19886c.707256-.337842.786561-.509632.857774-1.857635.07084-1.3412692.01302-1.5283163-.597188-1.928064-.7286746-.4774417-.9068218-1.5006675-.342812-1.9687715.183057-.1519275.749429-.3158487 1.258551-.3642706.627366-.0596632.954146-.2379966 1.013865-.5533196.113443-.5987801-.673839-.9026785-1.309723-.5055653-.795082.4965381-1.00508.3615323-.863798-.5552988.122353-.7939957.048655-.9022114-.9267557-1.3605962-1.4893038-.69988406-2.2563312-.4465947-2.6525707.8759455-.1830314.6108885-.6639391 1.3259915-1.1448745 1.7023843-.9330971.730245-.9094226 1.673253.034474 1.3736729.7348591-.2332368 1.4735657.2355041 1.866647 1.1844737.2915872.7039616.2615415.9884347-.2290269 2.1688687-.6506158 1.5655449-.6949134 1.9817899-.2328505 2.1877399.5307805.236582 2.4200929.0057 3.2682853-.399564zm-4.9271375-1.3967872c0-.3470721-.1791552-.7797275-.3981238-.9614552-.2189687-.1817279-.3981253-.6819528-.3981253-1.1116141 0-.9798167-.4297888-1.8079663-.9382996-1.8079663-.8353454 0-.3343188 2.8357932.7385471 4.1803079.437566.5483399.9960016.3805414.9960016-.2992723z" stroke-width="1.24635"/></g></svg>