<svg height="16" width="16" xmlns="http://www.w3.org/2000/svg"><g fill="#bebebe"><path d="m.96450266 12h3.03549734l.035497 1h-3.035497zm.03549734-3h6v1h-6zm0-3h6v1h-6zm0-3h6v1h-6z"/><path d="m15.263027 1.7401977-6.6132322.7397475v.00563h-.00557v8.5543738l.05562.100117c-.1225812-.06528-.261968-.116299-.411589-.155737-.1010164-.02663-.2117298-.04786-.3225963-.06118-.00188-.000213-.0037.000214-.00557 0-.054625-.0065-.1102183-.01371-.1668602-.01669-.00182-.000092-.00376.00009-.00557 0-.056748-.0028-.1139079-.000739-.1724222 0-.00188.000024-.00364-.000027-.00557 0-.060458.000939-.1214727.000683-.1835468.0056-.017012.0014-.033156.0039-.050055.0056-.01682.0019-.033748.0037-.050061.0056-.2194398.02524-.4298.07595-.622945.144612-.1673085.05943-.3234492.131518-.4616469.216918-.046186.02852-.091165.05804-.1334884.08899-.126611.09269-.2364003.195462-.3225964.30591-.0009134.0011.0009134.0045 0 .0056-.027608.03563-.055045.06863-.077868.105678-.024684.03962-.042318.08137-.061183.122365-.01818.03963-.032063.07612-.044496.116801-.026328.08355-.038931.16373-.038931.250291 0 .126374.028667.245611.08343.355968.01818.03682.037571.071.061183.105678.0009134.0013-.0009134.0042 0 .0056.022971.0334.050129.06331.077868.09455.00108.0011-.00108.0044 0 .0056.028029.03135.062004.06.094554.08899.034499.03078.071973.06105.1112404.08899.076289.05429.1579234.102123.2502903.144612.1385521.06373.2940691.111484.4616468.144612.2218468.04385.467811.05861.7230613.03893.5404481-.0427 1.0291324-.232268 1.3682549-.500582.038789-.03069.070852-.06191.1056784-.09455.066709-.06249.1271537-.126186.1779841-.19467.0009135-.0012-.0009134-.0043 0-.0056.024775-.0336.051694-.06534.072307-.100117.0009134-.0015-.0009134-.0041 0-.0056.020365-.03467.039603-.07002.05562-.105678.0007397-.0016-.0007398-.004 0-.0056.015768-.03557.03327-.0693.044496-.105679.0005337-.0018-.0005343-.0038 0-.0056.0016-.0056.00399-.01111.00557-.01669.0005343-.0018-.0005337-.0038 0-.0056.00853-.0309.017156-.06322.022248-.09455l.011124-.08343v-.01112-.0056-.02225-.08343l.011124-.417151.1112403-6.4018755v-.044493l.19467-.022255 1.7075379-.2057939 3.125851-.3670926v5.0391824.2002323l-.0056.4783333c-.03976-.01761-.08001-.03489-.122364-.0501-.296497-.106433-.656879-.1526401-1.040096-.1223643-.521195.041181-.991565.2204423-1.32932.4727713-.0034.0026-.0078.003-.01112.0056-.357357.250553-.578449.581335-.578449.928856 0 .673996.839839 1.154766 1.868836 1.073468.462802-.03656.876968-.184812 1.201395-.394903.01022-.0066.02336-.0099.03337-.01669.0022-.0014.0034-.0042.0056-.0056.04232-.02871.0893-.05258.127926-.08343.0422-.03101.08434-.06691.122365-.100116.266188-.232455.422712-.51718.422712-.812054 0-.05115-.0073-.09585-.01668-.144612l.03894-.02225.07231-6.0737168c.197518-.5155763.043-1.3224148.01671-1.6741838l.01668-1.4071894z"/></g></svg>