<?xml version="1.0" encoding="UTF-8" standalone="no"?>
<!-- Created with Inkscape (http://www.inkscape.org/) -->

<svg
   xmlns:osb="http://www.openswatchbook.org/uri/2009/osb"
   xmlns:dc="http://purl.org/dc/elements/1.1/"
   xmlns:cc="http://creativecommons.org/ns#"
   xmlns:rdf="http://www.w3.org/1999/02/22-rdf-syntax-ns#"
   xmlns:svg="http://www.w3.org/2000/svg"
   xmlns="http://www.w3.org/2000/svg"
   xmlns:xlink="http://www.w3.org/1999/xlink"
   xmlns:sodipodi="http://sodipodi.sourceforge.net/DTD/sodipodi-0.dtd"
   xmlns:inkscape="http://www.inkscape.org/namespaces/inkscape"
   id="svg7384"
   height="16"
   width="16"
   version="1.1"
   inkscape:version="0.92.4 (unknown)"
   sodipodi:docname="playlist-symbolic.svg">
  <defs
     id="defs12">
    <linearGradient
       id="linearGradient4978">
      <stop
         id="stop4980"
         offset="0"
         style="stop-color:#ffffff;stop-opacity:1;" />
      <stop
         id="stop4982"
         offset="1"
         style="stop-color:#ffffff;stop-opacity:0.74374998;" />
    </linearGradient>
    <linearGradient
       gradientTransform="translate(4.6330676,-7.8953025)"
       y2="1042.1121"
       x2="16.716539"
       y1="1025.8176"
       x1="8.5924969"
       gradientUnits="userSpaceOnUse"
       id="linearGradient31768"
       xlink:href="#linearGradient31755"
       inkscape:collect="always" />
    <linearGradient
       id="linearGradient31755"
       inkscape:collect="always">
      <stop
         id="stop31757"
         offset="0"
         style="stop-color:#ffffff;stop-opacity:1;" />
      <stop
         id="stop31759"
         offset="1"
         style="stop-color:#ffffff;stop-opacity:0;" />
    </linearGradient>
    <linearGradient
       id="linearGradient3785">
      <stop
         style="stop-color:#384880;stop-opacity:1;"
         offset="0"
         id="stop3787" />
      <stop
         style="stop-color:#000000;stop-opacity:1;"
         offset="1"
         id="stop3789" />
    </linearGradient>
    <linearGradient
       y2="520.1709"
       y1="408.39655"
       x2="365.97757"
       x1="365.51193"
       id="linearGradient3189"
       xlink:href="#linearGradient3785"
       gradientUnits="userSpaceOnUse"
       gradientTransform="matrix(0.08112299,0,0,0.07855526,540.8143,254.8467)"
       inkscape:collect="always" />
    <linearGradient
       osb:paint="solid"
       id="linearGradient5606">
      <stop
         style="stop-color:#000000;stop-opacity:1;"
         offset="0"
         id="stop5608" />
    </linearGradient>
  </defs>
  <sodipodi:namedview
     pagecolor="#ffffff"
     bordercolor="#666666"
     borderopacity="1"
     objecttolerance="10"
     gridtolerance="10"
     guidetolerance="10"
     inkscape:pageopacity="0"
     inkscape:pageshadow="2"
     inkscape:window-width="1366"
     inkscape:window-height="714"
     id="namedview10"
     showgrid="true"
     inkscape:zoom="29.5"
     inkscape:cx="5.1218981"
     inkscape:cy="7.0571098"
     inkscape:window-x="0"
     inkscape:window-y="28"
     inkscape:window-maximized="1"
     inkscape:current-layer="svg7384">
    <inkscape:grid
       type="xygrid"
       id="grid830" />
  </sodipodi:namedview>
  <metadata
     id="metadata90">
    <rdf:RDF>
      <cc:Work
         rdf:about="">
        <dc:format>image/svg+xml</dc:format>
        <dc:type
           rdf:resource="http://purl.org/dc/dcmitype/StillImage" />
        <dc:title>Gnome Symbolic Icon Theme</dc:title>
      </cc:Work>
    </rdf:RDF>
  </metadata>
  <title
     id="title9167">Gnome Symbolic Icon Theme</title>
  <g
     id="g8271">
    <path
       d="M 0.96450266,12 H 4 l 0.035497,1 H 1 Z M 1,9 h 6 v 1 H 1 Z M 1,6 H 7 V 7 H 1 Z M 1,3 H 7 V 4 H 1 Z"
       style="color:#ffffff;fill:#bebebe;fill-opacity:1"
       id="path7249-8-0-4"
       inkscape:connector-curvature="0"
       sodipodi:nodetypes="cccccccccccccccccccc" />
    <path
       id="path10472-3"
       d="M 15.263027,1.7401977 8.6497948,2.4799452 v 0.00563 h -0.00557 v 8.5543738 l 0.05562,0.100117 c -0.1225812,-0.06528 -0.261968,-0.116299 -0.411589,-0.155737 -0.1010164,-0.02663 -0.2117298,-0.04786 -0.3225963,-0.06118 -0.00188,-2.13e-4 -0.0037,2.14e-4 -0.00557,0 -0.054625,-0.0065 -0.1102183,-0.01371 -0.1668602,-0.01669 -0.00182,-9.2e-5 -0.00376,9e-5 -0.00557,0 -0.056748,-0.0028 -0.1139079,-7.39e-4 -0.1724222,0 -0.00188,2.4e-5 -0.00364,-2.7e-5 -0.00557,0 -0.060458,9.39e-4 -0.1214727,6.83e-4 -0.1835468,0.0056 -0.017012,0.0014 -0.033156,0.0039 -0.050055,0.0056 -0.01682,0.0019 -0.033748,0.0037 -0.050061,0.0056 -0.2194398,0.02524 -0.4298,0.07595 -0.622945,0.144612 -0.1673085,0.05943 -0.3234492,0.131518 -0.4616469,0.216918 -0.046186,0.02852 -0.091165,0.05804 -0.1334884,0.08899 -0.126611,0.09269 -0.2364003,0.195462 -0.3225964,0.30591 -9.134e-4,0.0011 9.134e-4,0.0045 0,0.0056 -0.027608,0.03563 -0.055045,0.06863 -0.077868,0.105678 -0.024684,0.03962 -0.042318,0.08137 -0.061183,0.122365 -0.01818,0.03963 -0.032063,0.07612 -0.044496,0.116801 -0.026328,0.08355 -0.038931,0.16373 -0.038931,0.250291 0,0.126374 0.028667,0.245611 0.08343,0.355968 0.01818,0.03682 0.037571,0.071 0.061183,0.105678 9.134e-4,0.0013 -9.134e-4,0.0042 0,0.0056 0.022971,0.0334 0.050129,0.06331 0.077868,0.09455 0.00108,0.0011 -0.00108,0.0044 0,0.0056 0.028029,0.03135 0.062004,0.06 0.094554,0.08899 0.034499,0.03078 0.071973,0.06105 0.1112404,0.08899 0.076289,0.05429 0.1579234,0.102123 0.2502903,0.144612 0.1385521,0.06373 0.2940691,0.111484 0.4616468,0.144612 0.2218468,0.04385 0.467811,0.05861 0.7230613,0.03893 0.5404481,-0.0427 1.0291324,-0.232268 1.3682549,-0.500582 0.038789,-0.03069 0.070852,-0.06191 0.1056784,-0.09455 0.066709,-0.06249 0.1271537,-0.126186 0.1779841,-0.19467 9.135e-4,-0.0012 -9.134e-4,-0.0043 0,-0.0056 0.024775,-0.0336 0.051694,-0.06534 0.072307,-0.100117 9.134e-4,-0.0015 -9.134e-4,-0.0041 0,-0.0056 0.020365,-0.03467 0.039603,-0.07002 0.05562,-0.105678 7.397e-4,-0.0016 -7.398e-4,-0.004 0,-0.0056 0.015768,-0.03557 0.03327,-0.0693 0.044496,-0.105679 5.337e-4,-0.0018 -5.343e-4,-0.0038 0,-0.0056 0.0016,-0.0056 0.00399,-0.01111 0.00557,-0.01669 5.343e-4,-0.0018 -5.337e-4,-0.0038 0,-0.0056 0.00853,-0.0309 0.017156,-0.06322 0.022248,-0.09455 l 0.011124,-0.08343 v -0.01112 -0.0056 -0.02225 -0.08343 l 0.011124,-0.417151 0.1112403,-6.4018755 v -0.044493 l 0.19467,-0.022255 1.7075379,-0.2057939 3.125851,-0.3670926 v 5.0391824 0.2002323 l -0.0056,0.4783333 c -0.03976,-0.01761 -0.08001,-0.03489 -0.122364,-0.0501 -0.296497,-0.106433 -0.656879,-0.1526401 -1.040096,-0.1223643 -0.521195,0.041181 -0.991565,0.2204423 -1.32932,0.4727713 -0.0034,0.0026 -0.0078,0.003 -0.01112,0.0056 -0.357357,0.250553 -0.578449,0.581335 -0.578449,0.928856 0,0.673996 0.839839,1.154766 1.868836,1.073468 0.462802,-0.03656 0.876968,-0.184812 1.201395,-0.394903 0.01022,-0.0066 0.02336,-0.0099 0.03337,-0.01669 0.0022,-0.0014 0.0034,-0.0042 0.0056,-0.0056 0.04232,-0.02871 0.0893,-0.05258 0.127926,-0.08343 0.0422,-0.03101 0.08434,-0.06691 0.122365,-0.100116 0.266188,-0.232455 0.422712,-0.51718 0.422712,-0.812054 0,-0.05115 -0.0073,-0.09585 -0.01668,-0.144612 l 0.03894,-0.02225 0.07231,-6.0737168 c 0.197518,-0.5155763 0.043,-1.3224148 0.01671,-1.6741838 l 0.01668,-1.4071894 z"
       style="fill:#bebebe;fill-opacity:1;stroke:none"
       inkscape:connector-curvature="0"
       sodipodi:nodetypes="ccccccccccccccccccccccccscccccccccccccccccccccccccccccccccccccccccsccccccscccccc" />
  </g>
</svg>
