<svg height="16" width="16" xmlns="http://www.w3.org/2000/svg"><g fill="#bebebe"><path d="m1 3v1h3.6875l.296875-.296875c.5305111-.5305089 1.3706915-.6200023 2.015625-.2832031v-.4199219zm0 3v1h2.5175781c.2385193-.12921.5060077-.2098104.7910157-.2109375-.2197018-.2209689-.3575848-.4970853-.4277344-.7890625zm0 3v1h1.703125c-.0601902-.1725056-.0996094-.3543028-.0996094-.5449219v-.4550781zm-.03515625 3 .03515625 1h2.9394531c-.1210092-.317475-.1422644-.668287-.0722656-1z"/><path d="m9.105301 3.226662c-.2654655 0-.4791796.2137148-.4791796.4791803v1.0781565c-.4817711.1097025-.9271545.2978669-1.332722.5540516l-.7636945-.7636929c-.1877135-.1877125-.486134-.1877125-.6738474 0l-.6738482.6738474c-.1877134.1877126-.1877134.4861347 0 .6738473l.7636945.7636954c-.2561855.4055675-.4443499.8509484-.5540523 1.3327212h-1.0781565c-.2654664-.0000008-.4791812.2137149-.4791812.4791796v.9583623c0 .2654635.2137148.4791776.4791812.4791776h1.0781565c.1097024.4817717.2978668.9271537.5540523 1.3327217l-.7636945.763695c-.1877134.187711-.1877134.486132 0 .673848l.6738482.673847c.1877118.187712.4861339.187715.6738474 0l.7636945-.763695c.4055675.256188.8509509.444351 1.332722.554054v1.078157c0 .265464.2137141.47918.4791796.47918h.958361c.265467 0 .479181-.213716.479181-.47918v-1.078157c.481772-.109703.927153-.297866 1.332721-.554054l.763694.763695c.187714.187712.486136.187712.673849 0l.673846-.673847c.187713-.187714.187715-.486137 0-.673848l-.763694-.763695c.256186-.405568.44435-.850949.554053-1.3327217h1.078156c.265468 0 .479181-.2137141.479181-.4791784v-.9583624c0-.2654646-.213713-.4791795-.479181-.4791795h-1.078156c-.109703-.4817729-.297867-.9271537-.554053-1.3327213l.763694-.7636945c.187713-.1877126.187713-.4861347 0-.6738482l-.673846-.6738465c-.187713-.1877125-.486135-.1877125-.673849 0l-.763694.7636938c-.405568-.2561856-.850949-.44435-1.332721-.5540525v-1.0781565c0-.2654655-.213714-.4791803-.479181-.4791803zm.4791812 3.8334445c1.0580298-.0000017 1.9167238.8586931 1.9167238 1.916723 0 1.0580295-.858694 1.9167205-1.9167238 1.9167205-1.0580308 0-1.9167223-.858691-1.9167223-1.9167205.0000009-1.0580299.8586915-1.916723 1.9167223-1.916723z"/></g></svg>