<?xml version="1.0" encoding="UTF-8" standalone="no"?>
<!-- Created with Inkscape (http://www.inkscape.org/) -->

<svg
   xmlns:osb="http://www.openswatchbook.org/uri/2009/osb"
   xmlns:dc="http://purl.org/dc/elements/1.1/"
   xmlns:cc="http://creativecommons.org/ns#"
   xmlns:rdf="http://www.w3.org/1999/02/22-rdf-syntax-ns#"
   xmlns:svg="http://www.w3.org/2000/svg"
   xmlns="http://www.w3.org/2000/svg"
   xmlns:xlink="http://www.w3.org/1999/xlink"
   xmlns:sodipodi="http://sodipodi.sourceforge.net/DTD/sodipodi-0.dtd"
   xmlns:inkscape="http://www.inkscape.org/namespaces/inkscape"
   id="svg7384"
   height="16"
   width="16"
   version="1.1"
   inkscape:version="0.92.4 (unknown)"
   sodipodi:docname="playlist-automatic-symbolic.svg">
  <defs
     id="defs12">
    <linearGradient
       id="linearGradient4978">
      <stop
         id="stop4980"
         offset="0"
         style="stop-color:#ffffff;stop-opacity:1;" />
      <stop
         id="stop4982"
         offset="1"
         style="stop-color:#ffffff;stop-opacity:0.74374998;" />
    </linearGradient>
    <linearGradient
       gradientTransform="translate(4.6330676,-7.8953025)"
       y2="1042.1121"
       x2="16.716539"
       y1="1025.8176"
       x1="8.5924969"
       gradientUnits="userSpaceOnUse"
       id="linearGradient31768"
       xlink:href="#linearGradient31755"
       inkscape:collect="always" />
    <linearGradient
       id="linearGradient31755"
       inkscape:collect="always">
      <stop
         id="stop31757"
         offset="0"
         style="stop-color:#ffffff;stop-opacity:1;" />
      <stop
         id="stop31759"
         offset="1"
         style="stop-color:#ffffff;stop-opacity:0;" />
    </linearGradient>
    <linearGradient
       id="linearGradient3785">
      <stop
         style="stop-color:#384880;stop-opacity:1;"
         offset="0"
         id="stop3787" />
      <stop
         style="stop-color:#000000;stop-opacity:1;"
         offset="1"
         id="stop3789" />
    </linearGradient>
    <linearGradient
       y2="520.1709"
       y1="408.39655"
       x2="365.97757"
       x1="365.51193"
       id="linearGradient3189"
       xlink:href="#linearGradient3785"
       gradientUnits="userSpaceOnUse"
       gradientTransform="matrix(0.08112299,0,0,0.07855526,540.8143,254.8467)"
       inkscape:collect="always" />
    <linearGradient
       osb:paint="solid"
       id="linearGradient5606">
      <stop
         style="stop-color:#000000;stop-opacity:1;"
         offset="0"
         id="stop5608" />
    </linearGradient>
  </defs>
  <sodipodi:namedview
     pagecolor="#ffffff"
     bordercolor="#666666"
     borderopacity="1"
     objecttolerance="10"
     gridtolerance="10"
     guidetolerance="10"
     inkscape:pageopacity="0"
     inkscape:pageshadow="2"
     inkscape:window-width="1366"
     inkscape:window-height="714"
     id="namedview10"
     showgrid="true"
     inkscape:zoom="14.75"
     inkscape:cx="10.581368"
     inkscape:cy="5.5756375"
     inkscape:window-x="0"
     inkscape:window-y="28"
     inkscape:window-maximized="1"
     inkscape:current-layer="svg7384">
    <inkscape:grid
       type="xygrid"
       id="grid830" />
  </sodipodi:namedview>
  <metadata
     id="metadata90">
    <rdf:RDF>
      <cc:Work
         rdf:about="">
        <dc:format>image/svg+xml</dc:format>
        <dc:type
           rdf:resource="http://purl.org/dc/dcmitype/StillImage" />
        <dc:title>Gnome Symbolic Icon Theme</dc:title>
      </cc:Work>
    </rdf:RDF>
  </metadata>
  <title
     id="title9167">Gnome Symbolic Icon Theme</title>
  <g
     id="g8271">
    <path
       style="color:#ffffff;fill:#bebebe;fill-opacity:1"
       d="M 1 3 L 1 4 L 4.6875 4 L 4.984375 3.703125 C 5.5148861 3.1726161 6.3550665 3.0831227 7 3.4199219 L 7 3 L 1 3 z M 1 6 L 1 7 L 3.5175781 7 C 3.7560974 6.87079 4.0235858 6.7901896 4.3085938 6.7890625 C 4.088892 6.5680936 3.951009 6.2919772 3.8808594 6 L 1 6 z M 1 9 L 1 10 L 2.703125 10 C 2.6429348 9.8274944 2.6035156 9.6456972 2.6035156 9.4550781 L 2.6035156 9 L 1 9 z M 0.96484375 12 L 1 13 L 3.9394531 13 C 3.8184439 12.682525 3.7971887 12.331713 3.8671875 12 L 0.96484375 12 z "
       id="path7249-8-0-4" />
  </g>
  <path
     style="color:#ffffff;display:inline;overflow:visible;visibility:visible;fill:#bebebe;fill-opacity:1;fill-rule:nonzero;stroke:none;stroke-width:1;marker:none;enable-background:accumulate"
     id="rect3557"
     d="m 9.105301,3.226662 c -0.2654655,0 -0.4791796,0.2137148 -0.4791796,0.4791803 V 4.7839988 C 8.1443503,4.8937013 7.6989669,5.0818657 7.2933994,5.3380504 L 6.5297049,4.5743575 c -0.1877135,-0.1877125 -0.486134,-0.1877125 -0.6738474,0 L 5.1820093,5.2482049 c -0.1877134,0.1877126 -0.1877134,0.4861347 0,0.6738473 L 5.9457038,6.6857476 C 5.6895183,7.0913151 5.5013539,7.536696 5.3916515,8.0184688 H 4.313495 c -0.2654664,-8e-7 -0.4791812,0.2137149 -0.4791812,0.4791796 v 0.9583623 c 0,0.2654635 0.2137148,0.4791776 0.4791812,0.4791776 H 5.3916515 C 5.5013539,10.41696 5.6895183,10.862342 5.9457038,11.26791 l -0.7636945,0.763695 c -0.1877134,0.187711 -0.1877134,0.486132 0,0.673848 L 5.8558575,13.3793 c 0.1877118,0.187712 0.4861339,0.187715 0.6738474,0 l 0.7636945,-0.763695 c 0.4055675,0.256188 0.8509509,0.444351 1.332722,0.554054 v 1.078157 c 0,0.265464 0.2137141,0.47918 0.4791796,0.47918 h 0.958361 c 0.265467,0 0.479181,-0.213716 0.479181,-0.47918 v -1.078157 c 0.481772,-0.109703 0.927153,-0.297866 1.332721,-0.554054 l 0.763694,0.763695 c 0.187714,0.187712 0.486136,0.187712 0.673849,0 l 0.673846,-0.673847 c 0.187713,-0.187714 0.187715,-0.486137 0,-0.673848 L 13.223259,11.26791 c 0.256186,-0.405568 0.44435,-0.850949 0.554053,-1.3327217 h 1.078156 c 0.265468,0 0.479181,-0.2137141 0.479181,-0.4791784 V 8.4976475 c 0,-0.2654646 -0.213713,-0.4791795 -0.479181,-0.4791795 H 13.777312 C 13.667609,7.5366951 13.479445,7.0913143 13.223259,6.6857467 l 0.763694,-0.7636945 c 0.187713,-0.1877126 0.187713,-0.4861347 0,-0.6738482 L 13.313107,4.5743575 c -0.187713,-0.1877125 -0.486135,-0.1877125 -0.673849,0 L 11.875564,5.3380513 C 11.469996,5.0818657 11.024615,4.8937013 10.542843,4.7839988 V 3.7058423 c 0,-0.2654655 -0.213714,-0.4791803 -0.479181,-0.4791803 z m 0.4791812,3.8334445 c 1.0580298,-1.7e-6 1.9167238,0.8586931 1.9167238,1.916723 0,1.0580295 -0.858694,1.9167205 -1.9167238,1.9167205 -1.0580308,0 -1.9167223,-0.858691 -1.9167223,-1.9167205 9e-7,-1.0580299 0.8586915,-1.916723 1.9167223,-1.916723 z"
     inkscape:connector-curvature="0" />
</svg>
