<svg height="16" width="16" xmlns="http://www.w3.org/2000/svg"><path d="m5 2v12h11v-12zm-2 1v10l1-.111328v-9.7773439zm10.792969.9296875-.015625 1.3828125-.017578 1.6386719-.070313 3.9707031-.033203.021484c.00918.047896.015625.092338.015625.142579 0 .358866-.239114.700729-.621094.951171-.01439.00944-.030132.018144-.044922.027344-.322683.217766-.748749.373026-1.21875.410156-1.010736.079855-1.833984-.392654-1.833984-1.054687 0-.342556.219085-.665696.572266-.91211.02948-.022389.06221-.045246.09375-.066406.324214-.217514.750695-.372866 1.222656-.410156.430189-.033987.824284.031879 1.136719.169922l.005859-.4707032v-.1914063-2.9550781l-2.748047.5683594-.191406.0214843v.0449219l-.1093751 4.287109-.0097657.513672-.0117187.09961c-.00618.038048-.0160338.075901-.0273437.113281-.02262.074754-.0559763.14781-.0976563.21875-.041678.070938-.0896575.137515-.1484375.203125-.000841.0011.000841.004859 0 .005859-.0143.01586-.0335981.027459-.0488281.042969-.01612.01642-.0316882.032848-.0488281.048828-.032443.03024-.0676157.06521-.1035157.09375-.074022.058567-.1530143.113843-.2402343.164063-.3049886.176501-.684768.293552-1.0976563.326172-.126341.009999-.2537591.012459-.3730469.005859-.3011804-.016572-.5687152-.085262-.796875-.191406-.0452474-.02091-.083542-.040554-.125-.064453-.0831434-.047708-.1585024-.099614-.2246094-.158204-.033053-.0293-.065424-.062-.09375-.09375-.0566447-.063504-.104762-.128912-.140625-.201172-.0187009-.037689-.0323868-.075454-.0449218-.115234-.012207-.038079-.0211138-.075414-.0273438-.115234-.006298-.039813-.0097656-.077761-.0097656-.119141 0-.125635.0269782-.249029.0820312-.367187.005964-.01297.0149244-.02427.0214844-.03711.0325842-.063041.0727947-.126287.1191406-.185547.0290661-.037166.059704-.074005.09375-.109375.0329434-.03445.0661637-.067099.1035157-.099609.073855-.064198.1568817-.124318.2460937-.179687.0452488-.027961.0938432-.056682.1425782-.082032.048844-.02541.1003277-.047742.1523437-.070312.1038218-.045039.2134449-.082885.328125-.115235.1131861-.03197.2341973-.058292.3554687-.076171.0123501-.0018.0246924-.00416.0371094-.00586.016363-.0022.0323561-.003959.0488282-.005859.0338005-.00383.0712127-.009019.1054687-.011719.1219445-.0097.2384762-.009706.3535156-.003906.1150739.00582.2278566.017119.3339844.037109s.2056753.049161.3007813.082031c.047553.01644.0923087.029408.1367187.048828.046619.020171.0879494.043147.1308594.066407l-.0605469-.109375v-3.7578128-.8964843-.6777344-1.0703125zm-12.792969.0703125v8l1-.300781v-7.2988284z" fill="#bebebe"/></svg>