<svg height="16" width="16" xmlns="http://www.w3.org/2000/svg"><path d="m7.9966976.4001524c-4.1990573 0-7.5965452 3.4040936-7.5965452 7.60315 0 4.1990576 3.3974535 7.5965456 7.5965452 7.5965456 4.1990914 0 7.6031504-3.397488 7.6031504-7.5965456 0-4.1990564-3.404094-7.60315-7.6031504-7.60315zm0 1.1163618c3.5796094 0 6.4867884 2.9072202 6.4867884 6.4867882 0 3.5795686-2.90722 6.4867896-6.4867884 6.4867896-3.579569 0-6.4801836-2.907221-6.4801836-6.4867896 0-3.579568 2.9005723-6.4867882 6.4801836-6.4867882zm-3.9039635 3.2499998-1.2550817 2.8272356h1.2550817l2.8272356 2.8206304h.6275404l-2.8272356-2.8206304h.3170731l2.8206298 2.8206304h1.5325202l-.013212.0066h-5.3307932l-.6275404 1.565549h.9446135 4.7032519l.9380091-1.882622-.5879072.297256-2.8140241-2.807419.6275404-.9446135h4.7098579l1.255082-1.8826221h-9.1026428z" fill="#bebebe"/></svg>