<svg height="16" width="16" xmlns="http://www.w3.org/2000/svg"><g fill="#aeaeae"><path d="m7.9093529.5930978c-.9462203 0-1.7106174.596188-2.0666475 1.4069022h-2.8426954l-.00001 1h10v-1h-2.994861c-.3601511-.8163814-1.1481285-1.4069022-2.0957861-1.4069022zm0 1.1384253c.2759333 0 .5106868.1070504.7180197.2684769h-1.4360391c.1988059-.1622314.4407451-.2684769.7180194-.2684769z"/><path d="m3 4v10h1v-.5-8.5h8v8.5.5h1v-10z"/><path d="m3 14c0 .554.446 1 1 1h8c.554 0 1-.446 1-1l-1-.5c-.07756.286587-.326802.5-.638672.5h-6.7226561c-.3118701 0-.5611086-.213413-.6386719-.5z"/><rect height="5" ry=".337045" width="1" x="6" y="7"/><rect height="5" ry=".337045" width="1" x="9" y="7"/></g></svg>