<svg height="16" width="16" xmlns="http://www.w3.org/2000/svg"><path d="m8 1-8 7 1.5 1.5 1.5-1.5 5-4 5 4 1.5 1.5 1.5-1.5zm3 1.03125v.65625l2 1.6875v-2.34375zm-3 .1347656 6.601562 5.6171875-.353515.3007813-.765625-.6523438c-.0058-.00464-.01165-.0092-.01758-.013672l-5.0000002-4c-.2718944-.2170391-.6577932-.2170391-.9296876 0l-5 4c-.00593.00447-.011787.00903-.017578.013672l-.7656231.6523438-.3535156-.3007813zm0 2.8339844-5 4v6h3v-4h4v4h3v-6zm0 1.1875 4 3.3125v4.5h-1v-3c.000435-.512553-.487447-1.0004348-1-1h-4c-.5125535-.000435-1.0004348.487447-1 1l.0418561 2.950628-1.0418561.049372v-4.5z" fill="#bebebe"/></svg>