<svg height="16" width="16" xmlns="http://www.w3.org/2000/svg"><g fill="#aeaeae"><path d="m8.7602384.1807693c-.8975966-.29942175-1.8113707.02424444-2.4056473.68063649l-2.6966172-.89954002-.3164488.94860939 9.4861279 3.16439364.316439-.9486131-2.840963-.9476921c-.083309-.8883951-.6439306-1.69791792-1.5428906-1.9977943zm-.3602427 1.0799251c.2617544.087313.4505691.2631508.5961661.4818903l-1.3622449-.4544201c.2399261-.090984.503053-.115211.7660788-.02747z"/><path d="m3 4v10h1v-.5-8.5h8v8.5.5h1v-10z"/><path d="m3 14c0 .554.446 1 1 1h8c.554 0 1-.446 1-1l-1-.5c-.07756.286587-.326802.5-.638672.5h-6.7226561c-.3118701 0-.5611086-.213413-.6386719-.5z"/><rect height="5" ry=".337045" width="1" x="6" y="7"/><rect height="5" ry=".337045" width="1" x="9" y="7"/></g></svg>