<?xml version="1.0" encoding="UTF-8" standalone="no"?>
<!-- Created with Inkscape (http://www.inkscape.org/) -->

<svg
   xmlns:dc="http://purl.org/dc/elements/1.1/"
   xmlns:cc="http://creativecommons.org/ns#"
   xmlns:rdf="http://www.w3.org/1999/02/22-rdf-syntax-ns#"
   xmlns:svg="http://www.w3.org/2000/svg"
   xmlns="http://www.w3.org/2000/svg"
   xmlns:sodipodi="http://sodipodi.sourceforge.net/DTD/sodipodi-0.dtd"
   xmlns:inkscape="http://www.inkscape.org/namespaces/inkscape"
   id="svg7384"
   height="16"
   width="16"
   version="1.1"
   inkscape:version="0.48.3.1 r9886"
   sodipodi:docname="application-certificate-symbolic.svg">
  <defs
     id="defs12" />
  <sodipodi:namedview
     pagecolor="#ffffff"
     bordercolor="#666666"
     borderopacity="1"
     objecttolerance="10"
     gridtolerance="10"
     guidetolerance="10"
     inkscape:pageopacity="0"
     inkscape:pageshadow="2"
     inkscape:window-width="1366"
     inkscape:window-height="711"
     id="namedview10"
     showgrid="false"
     showguides="false"
     inkscape:guide-bbox="true"
     inkscape:zoom="10.429825"
     inkscape:cx="22.232579"
     inkscape:cy="-3.9643711"
     inkscape:window-x="0"
     inkscape:window-y="0"
     inkscape:window-maximized="1"
     inkscape:current-layer="svg7384">
    <sodipodi:guide
       orientation="1,0"
       position="11.254237,4.8474576"
       id="guide3977" />
    <sodipodi:guide
       orientation="0,1"
       position="15.724137,10.35492"
       id="guide3981" />
  </sodipodi:namedview>
  <metadata
     id="metadata90">
    <rdf:RDF>
      <cc:Work
         rdf:about="">
        <dc:format>image/svg+xml</dc:format>
        <dc:type
           rdf:resource="http://purl.org/dc/dcmitype/StillImage" />
        <dc:title>Gnome Symbolic Icon Theme</dc:title>
      </cc:Work>
    </rdf:RDF>
  </metadata>
  <title
     id="title9167">Gnome Symbolic Icon Theme</title>
  <path
     style="fill:#bebebe;fill-opacity:1;stroke:none"
     d="M 1.40625 2.28125 C 0.87445667 2.28125 0.4375 2.5735987 0.4375 2.90625 L 0.4375 12.9375 C 0.4375 13.270152 0.87445667 13.5625 1.40625 13.5625 L 8.1875 13.5625 L 8.1875 11.78125 L 2.25 11.78125 L 2.25 4.15625 L 13.65625 4.15625 L 13.65625 11.78125 L 12.59375 11.78125 L 12.59375 11.9375 L 12.59375 13.28125 L 12.59375 13.5625 L 14.5625 13.5625 C 15.094293 13.5625 15.53125 13.270152 15.53125 12.9375 L 15.53125 2.90625 C 15.53125 2.5735987 15.094293 2.28125 14.5625 2.28125 L 1.40625 2.28125 z M 10.53125 5.84375 L 9.96875 6.5 L 8.8125 6.5 L 8.8125 7.65625 L 8.125 8.5625 L 8.8125 8.5625 L 8.84375 15.46875 L 10.53125 13.875 L 12.21875 15.46875 L 12.21875 8.5625 L 12.9375 8.5625 L 12.21875 7.65625 L 12.25 6.5 L 11.09375 6.5 L 10.5625 5.84375 L 10.53125 5.84375 z "
     id="rect4110" />
</svg>
