<?xml version="1.0" encoding="UTF-8" standalone="no"?>
<!-- Created with Inkscape (http://www.inkscape.org/) -->

<svg
   xmlns:dc="http://purl.org/dc/elements/1.1/"
   xmlns:cc="http://creativecommons.org/ns#"
   xmlns:rdf="http://www.w3.org/1999/02/22-rdf-syntax-ns#"
   xmlns:svg="http://www.w3.org/2000/svg"
   xmlns="http://www.w3.org/2000/svg"
   xmlns:sodipodi="http://sodipodi.sourceforge.net/DTD/sodipodi-0.dtd"
   xmlns:inkscape="http://www.inkscape.org/namespaces/inkscape"
   width="16px"
   height="16px"
   id="svg8474"
   version="1.1"
   inkscape:version="0.48.3.1 r9886"
   sodipodi:docname="audio-x-generic-symbolic.svg">
  <defs
     id="defs8476" />
  <sodipodi:namedview
     id="base"
     pagecolor="#ffffff"
     bordercolor="#666666"
     borderopacity="1.0"
     inkscape:pageopacity="0.0"
     inkscape:pageshadow="2"
     inkscape:zoom="15.696216"
     inkscape:cx="4.2175551"
     inkscape:cy="7.4832525"
     inkscape:current-layer="layer1"
     showgrid="true"
     inkscape:grid-bbox="true"
     inkscape:document-units="px"
     inkscape:window-width="1366"
     inkscape:window-height="736"
     inkscape:window-x="0"
     inkscape:window-y="0"
     inkscape:window-maximized="1" />
  <metadata
     id="metadata8479">
    <rdf:RDF>
      <cc:Work
         rdf:about="">
        <dc:format>image/svg+xml</dc:format>
        <dc:type
           rdf:resource="http://purl.org/dc/dcmitype/StillImage" />
        <dc:title />
      </cc:Work>
    </rdf:RDF>
  </metadata>
  <g
     id="layer1"
     inkscape:label="Layer 1"
     inkscape:groupmode="layer">
    <path
       style="fill:#bebebe;fill-opacity:1;stroke:none"
       d="m 13.662871,1.2146297 -7.7215059,0.8637179 0,1.272847 0,0.805271 0,1.065035 0,6.8448004 0.07144,0.129882 c -0.051,-0.02765 -0.1004459,-0.05395 -0.155859,-0.07793 -0.05279,-0.02308 -0.105826,-0.03891 -0.162353,-0.05845 -0.113051,-0.03907 -0.231024,-0.07365 -0.357176,-0.09741 -0.126152,-0.02376 -0.259355,-0.03854 -0.396141,-0.04546 -0.136745,-0.0069 -0.277165,-0.005 -0.422118,0.0065 -0.04072,0.0032 -0.08321,0.0084 -0.123388,0.01299 -0.01958,0.0023 -0.039,0.0039 -0.05845,0.0065 -0.01476,0.002 -0.03078,0.0044 -0.04546,0.0065 -0.144153,0.02125 -0.287576,0.05292 -0.422118,0.09092 -0.136318,0.03846 -0.266236,0.08284 -0.389647,0.136377 -0.06183,0.02683 -0.123775,0.05422 -0.181835,0.08442 -0.05793,0.03013 -0.115061,0.06417 -0.168847,0.09741 -0.106044,0.06582 -0.204445,0.137996 -0.292235,0.214306 -0.0444,0.03864 -0.08423,0.07595 -0.123389,0.116894 -0.04047,0.04204 -0.07585,0.0857 -0.1103999,0.129882 -0.05509,0.07044 -0.1041381,0.145865 -0.1428701,0.2208 -0.0078,0.01526 -0.01889,0.03004 -0.02598,0.04546 -0.06544,0.140453 -0.09741,0.285765 -0.09741,0.435106 0,0.04919 0.0055,0.09555 0.01299,0.142871 0.0074,0.04733 0.01796,0.09111 0.03247,0.136376 0.0149,0.04729 0.02972,0.09157 0.05195,0.136377 0.04263,0.0859 0.101514,0.164796 0.168847,0.240282 0.03367,0.03774 0.07111,0.07558 0.1103999,0.1104 0.07858,0.06965 0.1674281,0.13162 0.266259,0.188329 0.04928,0.02841 0.09558,0.05307 0.149364,0.07793 0.271209,0.126171 0.590134,0.207595 0.948141,0.227294 0.141795,0.0078 0.291421,0.0054 0.4416,-0.0065 0.490792,-0.03878 0.942784,-0.179844 1.305318,-0.389647 0.103682,-0.0597 0.197752,-0.125206 0.285741,-0.194823 0.04267,-0.03392 0.08482,-0.07446 0.123388,-0.1104 0.02037,-0.01899 0.03929,-0.03893 0.05845,-0.05845 0.0181,-0.01843 0.04145,-0.03309 0.05845,-0.05195 0.001,-0.0012 -10e-4,-0.0052 0,-0.0065 0.06987,-0.07799 0.125801,-0.15596 0.175342,-0.240282 0.04954,-0.08432 0.09001,-0.170907 0.116894,-0.259765 0.01345,-0.04443 0.02513,-0.09115 0.03247,-0.136376 l 0.01299,-0.116894 0.01299,-0.610447 0.129882,-7.4747304 0,-0.05195 0.227294,-0.02598 5.643388,-0.675388 0,5.8901644 0,0.227294 -0.0065,0.558494 C 12.323862,10.882638 11.855826,10.80501 11.34447,10.84541 c -0.561011,0.04432 -1.069295,0.228505 -1.4546819,0.487059 -0.03749,0.02515 -0.07536,0.05132 -0.1104,0.07793 -0.419819,0.292907 -0.681883,0.677329 -0.681883,1.084518 0,0.786947 0.9805829,1.348287 2.1820239,1.253364 0.558681,-0.04414 1.064622,-0.228204 1.448188,-0.487058 0.01758,-0.01091 0.03484,-0.02125 0.05195,-0.03247 0.454052,-0.297696 0.74033,-0.703398 0.74033,-1.129976 0,-0.05972 -0.0086,-0.111918 -0.01947,-0.168848 l 0.03896,-0.02598 0.08442,-7.0980704 0.01947,-1.948236 z"
       id="path4932"
       inkscape:connector-curvature="0"
       sodipodi:nodetypes="ccccccccsscscccccccccsccsccscsccssccccccscccccccccccsscsscssccccc" />
  </g>
</svg>
