<?xml version="1.0" encoding="UTF-8" standalone="no"?>
<!-- Created with Inkscape (http://www.inkscape.org/) -->

<svg
   xmlns:dc="http://purl.org/dc/elements/1.1/"
   xmlns:cc="http://creativecommons.org/ns#"
   xmlns:rdf="http://www.w3.org/1999/02/22-rdf-syntax-ns#"
   xmlns:svg="http://www.w3.org/2000/svg"
   xmlns="http://www.w3.org/2000/svg"
   xmlns:xlink="http://www.w3.org/1999/xlink"
   xmlns:sodipodi="http://sodipodi.sourceforge.net/DTD/sodipodi-0.dtd"
   xmlns:inkscape="http://www.inkscape.org/namespaces/inkscape"
   version="1.1"
   id="svg2"
   width="22"
   height="22"
   viewBox="0 0 22 22"
   sodipodi:docname="document-open.svg"
   inkscape:version="0.92.3 (2405546, 2018-03-11)"
   inkscape:export-filename="/home/rizmut/Dokumen/Rizmut/Github/karasa-jaga-icon-theme/build/Karasa-Jaga/22x22/actions/document-open.png"
   inkscape:export-xdpi="96"
   inkscape:export-ydpi="96">
  <metadata
     id="metadata8">
    <rdf:RDF>
      <cc:Work
         rdf:about="">
        <dc:format>image/svg+xml</dc:format>
        <dc:type
           rdf:resource="http://purl.org/dc/dcmitype/StillImage" />
        <dc:title></dc:title>
      </cc:Work>
    </rdf:RDF>
  </metadata>
  <defs
     id="defs6">
    <linearGradient
       inkscape:collect="always"
       id="linearGradient854">
      <stop
         style="stop-color:#2a3674;stop-opacity:1"
         offset="0"
         id="stop850" />
      <stop
         style="stop-color:#174072;stop-opacity:0;"
         offset="1"
         id="stop852" />
    </linearGradient>
    <linearGradient
       inkscape:collect="always"
       id="linearGradient838">
      <stop
         style="stop-color:#587bcb;stop-opacity:1"
         offset="0"
         id="stop834" />
      <stop
         id="stop985"
         offset="0.94117647"
         style="stop-color:#3f59ae;stop-opacity:1" />
      <stop
         style="stop-color:#3d7cdb;stop-opacity:1"
         offset="1"
         id="stop836" />
    </linearGradient>
    <linearGradient
       inkscape:collect="always"
       xlink:href="#linearGradient838"
       id="linearGradient840"
       x1="8.7398376"
       y1="1.3577236"
       x2="9"
       y2="14"
       gradientUnits="userSpaceOnUse"
       gradientTransform="translate(-1)" />
    <linearGradient
       inkscape:collect="always"
       xlink:href="#linearGradient854"
       id="linearGradient856"
       x1="6.5"
       y1="11"
       x2="6.5"
       y2="12"
       gradientUnits="userSpaceOnUse"
       gradientTransform="matrix(1.375,0,0,1,-1.375,0)" />
    <linearGradient
       inkscape:collect="always"
       id="linearGradient4716">
      <stop
         style="stop-color:#102134;stop-opacity:1;"
         offset="0"
         id="stop4718" />
      <stop
         style="stop-color:#102134;stop-opacity:0;"
         offset="1"
         id="stop4720" />
    </linearGradient>
    <linearGradient
       inkscape:collect="always"
       xlink:href="#linearGradient4716"
       id="linearGradient906"
       x1="10"
       y1="-1"
       x2="10"
       y2="10"
       gradientUnits="userSpaceOnUse"
       gradientTransform="translate(-1,-6)" />
    <filter
       style="color-interpolation-filters:sRGB"
       inkscape:collect="always"
       id="filter4747"
       x="-0.06459371"
       width="1.1291873"
       y="-0.1339166"
       height="1.2678332">
      <feGaussianBlur
         inkscape:collect="always"
         stdDeviation="3.1247207"
         id="feGaussianBlur4749" />
    </filter>
    <linearGradient
       inkscape:collect="always"
       xlink:href="#linearGradient4608"
       id="linearGradient4614"
       x1="3"
       y1="968.26129"
       x2="3"
       y2="953.01678"
       gradientUnits="userSpaceOnUse"
       gradientTransform="matrix(0.12499998,0,0,0.12499998,0.0024099,-115.81799)" />
    <linearGradient
       inkscape:collect="always"
       id="linearGradient4608">
      <stop
         style="stop-color:#34608f;stop-opacity:1;"
         offset="0"
         id="stop4610" />
      <stop
         style="stop-color:#34608f;stop-opacity:0;"
         offset="1"
         id="stop4612" />
    </linearGradient>
    <linearGradient
       inkscape:collect="always"
       xlink:href="#linearGradient4616"
       id="linearGradient4622"
       x1="124.01234"
       y1="966.51019"
       x2="124.01234"
       y2="935.34326"
       gradientUnits="userSpaceOnUse"
       gradientTransform="matrix(0.21345221,0,0,0.1138394,-5.411169,-103.22724)" />
    <linearGradient
       id="linearGradient4616">
      <stop
         style="stop-color:#000000;stop-opacity:1;"
         offset="0"
         id="stop4618" />
      <stop
         style="stop-color:#34608f;stop-opacity:0;"
         offset="1"
         id="stop4620" />
    </linearGradient>
    <linearGradient
       inkscape:collect="always"
       xlink:href="#linearGradient4624"
       id="linearGradient4630"
       x1="55"
       y1="1036.4132"
       x2="55"
       y2="1032.4822"
       gradientUnits="userSpaceOnUse" />
    <linearGradient
       inkscape:collect="always"
       id="linearGradient4624">
      <stop
         style="stop-color:#003d7b;stop-opacity:1;"
         offset="0"
         id="stop4626" />
      <stop
         style="stop-color:#003d7b;stop-opacity:0;"
         offset="1"
         id="stop4628" />
    </linearGradient>
    <filter
       style="color-interpolation-filters:sRGB"
       inkscape:collect="always"
       id="filter4584"
       x="-0.013944133"
       width="1.0278883"
       y="-0.34860396"
       height="1.6972079">
      <feGaussianBlur
         inkscape:collect="always"
         stdDeviation="0.70882694"
         id="feGaussianBlur4586" />
    </filter>
    <filter
       style="color-interpolation-filters:sRGB"
       inkscape:collect="always"
       id="filter4724"
       x="-0.013834233"
       width="1.0276685"
       y="-0.43499437"
       height="1.8699887">
      <feGaussianBlur
         inkscape:collect="always"
         stdDeviation="0.70324038"
         id="feGaussianBlur4726" />
    </filter>
    <clipPath
       clipPathUnits="userSpaceOnUse"
       id="clipPath1047">
      <rect
         ry="4"
         rx="4"
         y="941.36218"
         x="4"
         height="31.444271"
         width="141.60004"
         id="rect1049"
         style="opacity:0.6457142;fill:#155293;fill-opacity:1;stroke:none;stroke-width:1" />
    </clipPath>
    <clipPath
       clipPathUnits="userSpaceOnUse"
       id="clipPath3208">
      <rect
         style="opacity:0.29411765;fill:#5b3816;fill-opacity:0.51351348;stroke:none"
         id="rect3210"
         width="232.724"
         height="174.543"
         x="-75.676788"
         y="52.349762"
         rx="2.4399951"
         ry="4.4999933" />
    </clipPath>
    <filter
       id="filter4123"
       inkscape:collect="always">
      <feGaussianBlur
         id="feGaussianBlur4125"
         stdDeviation="2.028"
         inkscape:collect="always" />
    </filter>
    <filter
       id="filter3814"
       inkscape:collect="always">
      <feGaussianBlur
         id="feGaussianBlur3816"
         stdDeviation="1.8077645"
         inkscape:collect="always" />
    </filter>
    <linearGradient
       gradientTransform="matrix(1.003095,0,0,0.98228452,-1.7655502,0.69098836)"
       gradientUnits="userSpaceOnUse"
       y2="116.40091"
       x2="72"
       y1="0"
       x1="72"
       id="linearGradient4524-4"
       xlink:href="#linearGradient4518-3"
       inkscape:collect="always" />
    <linearGradient
       id="linearGradient4518-3">
      <stop
         id="stop4520-1"
         offset="0"
         style="stop-color:#eeecec;stop-opacity:1" />
      <stop
         style="stop-color:#f4f4f4;stop-opacity:1"
         offset="0.40000001"
         id="stop5969-4" />
      <stop
         id="stop4522-9"
         offset="1"
         style="stop-color:#f6f5f5;stop-opacity:1" />
    </linearGradient>
    <radialGradient
       gradientUnits="userSpaceOnUse"
       gradientTransform="matrix(1.689423,-0.08280186,0.06907651,1.3515102,-50.111719,-17.741619)"
       r="47.5"
       fy="47.274845"
       fx="63.793392"
       cy="64.004021"
       cx="64"
       id="radialGradient5988-0"
       xlink:href="#linearGradient5982-7"
       inkscape:collect="always" />
    <linearGradient
       id="linearGradient5982-7"
       inkscape:collect="always">
      <stop
         id="stop5984-8"
         offset="0"
         style="stop-color:#ffffff;stop-opacity:1;" />
      <stop
         id="stop5986-6"
         offset="1"
         style="stop-color:#ffffff;stop-opacity:0;" />
    </linearGradient>
    <clipPath
       id="clipPath6093-7"
       clipPathUnits="userSpaceOnUse">
      <path
         style="fill:#ffffff;fill-opacity:1"
         d="m 17.000001,8 0.782827,110 h 57.5 c 1.675283,0 3.119418,0.18058 4.9,-1.6 C 88.980763,107.60206 99.94047,96.548195 107.19904,89.224043 109.6396,86.761431 110,84.752873 110,82.5 V 8 Z"
         id="path6095-4"
         sodipodi:nodetypes="cccssccc"
         inkscape:connector-curvature="0" />
    </clipPath>
    <filter
       style="color-interpolation-filters:sRGB"
       height="2.0255013"
       y="-0.51275069"
       width="1.9574188"
       x="-0.47870937"
       id="filter6171-8"
       inkscape:collect="always">
      <feGaussianBlur
         id="feGaussianBlur6173-8"
         stdDeviation="10.140743"
         inkscape:collect="always" />
    </filter>
    <clipPath
       id="clipPath1001"
       clipPathUnits="userSpaceOnUse">
      <path
         style="fill:#ffffff;fill-opacity:1"
         d="m 17.000001,8 0.782827,110 h 57.5 c 1.675283,0 3.119418,0.18058 4.9,-1.6 C 88.980763,107.60206 99.94047,96.548195 107.19904,89.224043 109.6396,86.761431 110,84.752873 110,82.5 V 8 Z"
         id="path999"
         sodipodi:nodetypes="cccssccc"
         inkscape:connector-curvature="0" />
    </clipPath>
    <filter
       height="1.408259"
       y="-0.2041295"
       width="1.3293014"
       x="-0.16465071"
       id="filter4087"
       inkscape:collect="always">
      <feGaussianBlur
         id="feGaussianBlur4089"
         stdDeviation="4.2234282"
         inkscape:collect="always" />
    </filter>
    <linearGradient
       y2="102.18401"
       x2="94.220871"
       y1="90.381706"
       x1="82.15696"
       gradientTransform="matrix(1.4094273,0,0,1.4111689,-46.598939,-46.228314)"
       gradientUnits="userSpaceOnUse"
       id="linearGradient3895-3"
       xlink:href="#linearGradient3897-7"
       inkscape:collect="always" />
    <linearGradient
       id="linearGradient3897-7">
      <stop
         id="stop3899-4"
         offset="0"
         style="stop-color:#fcfcfc;stop-opacity:1" />
      <stop
         style="stop-color:#f8f8f8;stop-opacity:1"
         offset="0.52275378"
         id="stop3901-5" />
      <stop
         id="stop3903-2"
         offset="0.72337759"
         style="stop-color:#f0efef;stop-opacity:1;" />
      <stop
         id="stop3905-5"
         offset="0.89024991"
         style="stop-color:#e3e1e1;stop-opacity:1;" />
      <stop
         id="stop3907-4"
         offset="1"
         style="stop-color:#cecbcb;stop-opacity:1" />
    </linearGradient>
    <radialGradient
       gradientUnits="userSpaceOnUse"
       gradientTransform="matrix(1.3067347,0,0,1.3067347,-27.83617,-33.818441)"
       r="18.750002"
       fy="110.25299"
       fx="90.75"
       cy="110.25299"
       cx="90.75"
       id="radialGradient3919-5"
       xlink:href="#linearGradient5982-7"
       inkscape:collect="always" />
    <clipPath
       id="clipPath3889-6"
       clipPathUnits="userSpaceOnUse">
      <path
         style="fill:url(#linearGradient3893);fill-opacity:1;stroke:none"
         d="m 112,82.502986 c 0,4.465301 -2.79749,6.409952 -5.27972,8.093625 -5.10854,3.46508 -14.939114,3.32536 -20.720284,3.40638 -0.081,5.781159 0.16586,15.504599 -3.29922,20.613139 -1.68367,2.48224 -5.29051,5.38687 -8.20078,5.38687 2.31803,0 4.74284,-1.33476 7.58402,-4.08481 9.14197,-8.84873 17.36714,-16.13535 25.673154,-25.297529 C 109.67612,88.503916 112,86.97878 112,82.502986 Z"
         id="path3891-5"
         inkscape:connector-curvature="0"
         sodipodi:nodetypes="cscscssc" />
    </clipPath>
    <filter
       style="color-interpolation-filters:sRGB"
       id="filter3909-6"
       inkscape:collect="always">
      <feGaussianBlur
         id="feGaussianBlur3911-9"
         stdDeviation="0.43040059"
         inkscape:collect="always" />
    </filter>
  </defs>
  <sodipodi:namedview
     pagecolor="#ffffff"
     bordercolor="#666666"
     borderopacity="1"
     objecttolerance="10"
     gridtolerance="10"
     guidetolerance="10"
     inkscape:pageopacity="0"
     inkscape:pageshadow="2"
     inkscape:window-width="1366"
     inkscape:window-height="693"
     id="namedview4"
     showgrid="true"
     inkscape:zoom="10.871767"
     inkscape:cx="10.605016"
     inkscape:cy="10.396522"
     inkscape:window-x="0"
     inkscape:window-y="0"
     inkscape:window-maximized="1"
     inkscape:current-layer="g1029"
     inkscape:snap-page="true"
     inkscape:snap-smooth-nodes="true"
     inkscape:snap-global="true"
     showguides="true"
     inkscape:guide-bbox="true">
    <inkscape:grid
       type="xygrid"
       id="grid828" />
  </sodipodi:namedview>
  <g
     id="g1029"
     transform="translate(1,7)">
    <rect
       transform="matrix(0.125,0,0,0.25614775,-0.125,-251.09298)"
       style="display:inline;opacity:0.57714281;fill:url(#linearGradient4630);fill-opacity:1;stroke:none;filter:url(#filter4584);enable-background:new"
       id="rect4578"
       width="169.99997"
       height="4.3919702"
       x="3.0000281"
       y="1032.4822"
       rx="2.4399951"
       ry="2.1959839" />
    <path
       transform="matrix(0.17315572,0,0,0.125,9.2044236,12.35751)"
       sodipodi:nodetypes="sssssss"
       inkscape:connector-curvature="0"
       id="rect4554"
       d="M -46.991242,13.13992 H 61.233632 c 2.216,0 4,0.8652 4,1.94 0,1.0747 -1.78433,1.902 -4,1.94 -36.945183,0.6329 -68.9279165,0.7782 -108.224874,0 -2.215566,-0.044 -4,-0.8653 -4,-1.94 0,-1.0748 1.784,-1.94 4,-1.94 z"
       style="display:inline;opacity:0.55428569;fill:#000000;fill-opacity:1;stroke:none;filter:url(#filter4724);enable-background:new" />
    <path
       sodipodi:nodetypes="sscsssssscss"
       inkscape:connector-curvature="0"
       id="rect832"
       d="M 1,-5 C 0.5,-5 0.53709551,-4.6112865 0.5,-4.5 L 0,-3 v 9 c 0,0.554 0.446,1 1,1 h 18 c 0.554,0 1,-0.446 1,-1 v -9 c 0,-0.554 -0.446,-1 -1,-1 H 7.9042969 C 7.8200962,-4.4859507 7.7262959,-5 7.5,-5 Z"
       style="opacity:1;fill:#3b6ca9;fill-opacity:1;stroke:none;stroke-width:1;stroke-miterlimit:4;stroke-dasharray:none;stroke-opacity:1" />
    <path
       sodipodi:nodetypes="sscscccccccccssscss"
       inkscape:connector-curvature="0"
       id="path875"
       d="M 1,-5 C 0.5,-5 0.53709551,-4.6112865 0.5,-4.5 L 0,-3 V 6 C 0,6.554 0.446,7 1,7 V -3 l 0.5,-1 h 5.3828125 c 0.013345,0.068527 0.023996,0.094239 0.037109,0.1699219 C 7.0025947,-3.3508586 7.4179989,-3.0005674 7.9042969,-3 H 9 19 V 7 c 0.554,0 1,-0.446 1,-1 v -9 c 0,-0.554 -0.446,-1 -1,-1 H 7.9042969 C 7.8200962,-4.4859507 7.7262959,-5 7.5,-5 Z"
       style="opacity:0.25;fill:url(#linearGradient906);fill-opacity:1;stroke:none;stroke-width:1;stroke-miterlimit:4;stroke-dasharray:none;stroke-opacity:1" />
    <g
       id="layer1-1"
       inkscape:label="Livello 1"
       transform="matrix(0.171875,0,0,-0.171875,0.0050194,14.997434)"
       clip-path="url(#clipPath3208)">
      <path
         transform="matrix(1.003095,0,0,0.98228452,-1.7655506,0.69098557)"
         sodipodi:nodetypes="ccsssccccccc"
         inkscape:connector-curvature="0"
         id="path5990"
         d="M 13.333,5.3364 V 123.6668 L 63.1875,123.6 c 2.115554,-0.003 4.528919,-1.77169 7,-4.25 0.71234,-0.71442 1.440746,-1.39395 2.15625,-2.09375 0.415612,-0.40649 0.832187,-0.81443 1.25,-1.21875 7.773958,-7.40962 26.98341,-25.122599 34.21875,-33.099999 0.42065,-0.42064 0.81207,-0.8111 1.15625,-1.1875 1.46444,-1.49766 2.76158,-2.8378 2.99375,-5.8625 L 112,75.156251 111.9972,5.3364 Z"
         style="opacity:0.45606695;fill:#000000;fill-opacity:1;filter:url(#filter4123)" />
      <path
         transform="matrix(1.003095,0,0,0.98228452,-1.7655506,-0.3090144)"
         d="m 13.34375,3.5039062 0.09766,0.00391 c -0.116561,-0.011043 -0.234998,-0.011044 -0.351562,0 a 1.0280226,1.0280226 0 0 0 -0.115235,0.017578 c -0.884985,0.1872727 -1.47381,0.9176866 -1.470703,1.8222656 V 123.65625 a 1.0280226,1.0280226 0 0 0 0,0.0176 c 0.01849,1.02971 0.790762,1.80366 1.820313,1.82226 a 1.0280226,1.0280226 0 0 0 0.01953,0 h 48.8125 c 1.665878,0 4.036021,0.24848 7.107422,-1.83203 a 1.0280226,1.0280226 0 0 0 0.287109,-0.29297 c -0.05475,0.0809 -0.07562,0.0982 -0.03125,0.0586 0.0578,-0.0515 0.151363,-0.13059 0.261719,-0.22071 0.220712,-0.18022 0.508961,-0.40573 0.773438,-0.61328 0.264476,-0.20754 0.497588,-0.39062 0.658203,-0.52539 0.04015,-0.0337 0.07576,-0.0627 0.121093,-0.10547 0.02267,-0.0214 0.04603,-0.0428 0.0918,-0.0957 0.02288,-0.0265 0.05118,-0.0588 0.09766,-0.13281 0.0096,-0.0152 0.01965,-0.0375 0.03516,-0.0684 9.781586,-9.33524 27.455859,-28.656496 38.511716,-39.847658 l 0.004,-0.0039 c 1.71036,-1.710501 3.76562,-3.869783 3.76562,-8.503906 V 5.34375 a 1.0280226,1.0280226 0 0 0 0,-0.019531 c -0.0186,-1.0295278 -0.79071,-1.8017087 -1.82031,-1.8203126 a 1.0280226,1.0280226 0 0 0 -0.0195,0 z"
         id="path3314"
         style="fill:#000000;fill-opacity:1;filter:url(#filter3814)"
         inkscape:original="M 13.1875 4.53125 C 12.818918 4.609246 12.529956 4.967008 12.53125 5.34375 L 12.53125 123.65625 C 12.53885 124.07954 12.920464 124.4611 13.34375 124.46875 L 62.15625 124.46875 C 63.930251 124.46875 65.829207 124.74865 68.6875 122.8125 C 68.829003 122.58432 71.218784 120.82456 70.53125 121.25 C 80.188854 112.07585 98.162197 92.41186 109.34375 81.09375 C 111.06182 79.375681 112.8125 77.674752 112.8125 73.3125 L 112.8125 5.34375 C 112.80483 4.9204809 112.42327 4.5388981 112 4.53125 L 13.34375 4.53125 C 13.29182 4.52633 13.239428 4.52633 13.1875 4.53125 z "
         inkscape:radius="1.0279198"
         sodipodi:type="inkscape:offset" />
      <path
         inkscape:connector-curvature="0"
         sodipodi:nodetypes="cccssccc"
         id="path34"
         d="M 11.608716,5.836076 V 122.16698 h 49.485099 c 1.680486,0 3.926459,-0.55989 7.021752,-3.56934 8.897609,-8.6509 32.175353,-31.250103 39.456483,-38.511869 2.44813,-2.441635 3.01026,-4.433083 3.01026,-6.66676 l -0.003,-67.582935 z"
         style="fill:#ffffff;fill-opacity:1" />
      <path
         sodipodi:nodetypes="ccsssccscccc"
         inkscape:connector-curvature="0"
         id="path3967"
         d="m 17.07938,10.744349 c -0.340895,0 -0.501546,0.230461 -0.501546,0.491142 V 115.78527 c 0,0.80702 0.681425,1.474 1.504643,1.47343 l 44.496615,-0.0308 c 0.05324,-4e-5 0.812893,0.0229 1.504643,0.0308 1.783165,-0.0393 3.141667,-0.74038 4.369516,-1.56504 1.055122,-0.28588 25.815399,-23.810974 34.964739,-32.837827 1.36662,-1.348301 2.19223,-3.878226 2.19223,-4.808882 v -66.81146 c 0,-0.317 -0.16372,-0.491143 -0.50156,-0.491143 z"
         style="fill:url(#linearGradient4524-4);fill-opacity:1" />
      <path
         style="opacity:0.84653476;fill:url(#radialGradient5988-0);fill-opacity:1"
         d="m 17.07938,10.644349 c -0.340895,0 -0.501546,0.230461 -0.501546,0.491142 V 115.68527 c 0,0.80703 0.68144,1.46853 1.504643,1.47343 l 46.36344,0.27591 c 0.05324,3.2e-4 3.284015,-0.008 3.975766,5e-5 6.561216,-4.42387 26.757215,-26.379267 35.730127,-35.221607 0.65937,-0.724227 0.45902,-0.363513 1.45841,-1.578984 V 11.135491 c 0,-0.317 -0.16372,-0.491143 -0.50156,-0.491143 z"
         id="path5980"
         inkscape:connector-curvature="0"
         sodipodi:nodetypes="ccssscccccc" />
      <path
         id="path2197"
         d=""
         style="fill:#000000"
         inkscape:connector-curvature="0" />
      <path
         transform="matrix(1.258302,0,0,1.2610357,-31.355772,-28.164007)"
         sodipodi:nodetypes="cscscssc"
         inkscape:connector-curvature="0"
         id="path6153"
         d="m 114.4,82.502986 c 0,4.465301 -9.3766,4.299815 -11.85883,5.983488 -5.108537,3.46508 -16.574334,-0.810699 -22.355504,-0.729679 -0.081,5.781159 0.365076,18.386735 0.365076,24.536755 0,2.97817 -3.440475,11.20945 -6.350745,11.20945 -2.091359,1.5337 3.488204,8.21101 6.734971,5.31989 9.501888,-8.46107 35.131682,-30.022701 43.350822,-39.262886 2.04044,-2.29392 -4.90514,-9.844666 -9.88579,-7.057018 z"
         style="opacity:0.60563378;fill:#000000;fill-opacity:1;stroke:none;filter:url(#filter6171-8)"
         clip-path="url(#clipPath6093-7)" />
      <path
         transform="matrix(1.3586765,0,0,1.3616521,-42.382653,-40.155635)"
         clip-path="url(#clipPath6093-7)"
         style="opacity:0.64319249;fill:#000000;fill-opacity:1;stroke:none;filter:url(#filter4087)"
         d="m 113.9,82.502986 c 0,4.465301 -7.96273,7.457662 -10.95287,7.881439 -6.394981,0.906328 -15.304541,-0.844131 -21.085711,-0.763111 -0.081,5.781159 3.397918,20.001056 -0.06716,25.109596 -1.68367,2.48224 -3.883991,8.07209 -6.794261,8.07209 -2.091359,1.5337 3.488204,11.21101 6.734971,8.31989 9.501888,-8.46107 45.998941,-30.20138 54.218081,-39.441569 2.04044,-2.29392 -17.0724,-11.965986 -22.05305,-9.178335 z"
         id="path6081"
         inkscape:connector-curvature="0"
         sodipodi:nodetypes="cscscssc" />
      <path
         sodipodi:nodetypes="cscscssc"
         inkscape:connector-curvature="0"
         id="path6011"
         d="m 110.63455,70.194961 c 0,6.22666 -3.89615,8.938389 -7.35324,11.28619 -7.11485,4.831902 -21.758838,3.808851 -29.810472,3.92183 -0.112812,8.061568 0.720236,21.530529 -4.105701,28.654139 -2.344905,3.46138 -6.904898,8.42993 -10.95813,8.42993 3.228399,0 6.605514,-1.86127 10.562523,-5.69609 12.732335,-12.33915 24.187814,-22.50002 35.75589,-35.27627 2.67259,-2.951702 5.90913,-5.078441 5.90913,-11.319729 z"
         style="fill:url(#linearGradient3895-3);fill-opacity:1;stroke:none" />
      <path
         sodipodi:nodetypes="cscsccccsscccc"
         inkscape:connector-curvature="0"
         id="path6122"
         d="m 110.66063,69.760596 c -0.44065,5.437134 -4.51314,7.338042 -6.73057,8.843942 -5.25734,3.570397 -12.241076,3.279514 -34.154353,3.279514 0,19.761338 0.513212,28.553598 -3.305002,33.382518 -2.272989,2.87466 -6.824021,6.07997 -10.532933,6.90254 5.082113,0 8.629228,-1.08751 11.949253,-4.30502 0.472301,-0.5418 1.415698,-1.55003 2.15657,-2.69493 3.94064,-5.81684 3.837814,-17.294735 3.837814,-29.263474 8.051633,-0.11295 22.202451,1.162156 29.317291,-3.669742 0.64822,-0.440215 2.63774,-2.020759 3.2183,-2.58944 3.22475,-3.158721 3.92397,-5.17219 4.24363,-9.885908 z M 55.937772,122.16911 c -0.219575,0.0485 -0.436533,0.0579 -0.652846,0.087 0.218648,-0.0234 0.432367,-0.0468 0.652846,-0.087 z"
         style="fill:#ffffff;fill-opacity:1;stroke:none" />
      <path
         transform="matrix(1.3927341,0,0,1.3944553,-45.351691,-44.851769)"
         clip-path="url(#clipPath3889-6)"
         sodipodi:nodetypes="cc"
         inkscape:connector-curvature="0"
         id="path3873"
         d="M 108.97651,89.508691 79.934895,118.21077"
         style="fill:none;stroke:url(#radialGradient3919-5);stroke-width:1.82707405;stroke-linecap:butt;stroke-linejoin:miter;stroke-miterlimit:4;stroke-dasharray:none;stroke-opacity:1;filter:url(#filter3909-6)" />
    </g>
    <path
       mask="none"
       transform="matrix(0.14830504,0,0,0.14830504,-0.59322015,-138.2721)"
       clip-path="url(#clipPath1047)"
       sodipodi:nodetypes="ccccssccc"
       inkscape:connector-curvature="0"
       id="path3822"
       d="m 30.012982,956.41796 -26.0129821,-0.46865 2e-7,50.59179 138.2286099,-0.02 v -53.82893 c 0,-2.54081 -2.0596,-4.59219 -4.62097,-4.58387 l -95.594658,0.31046 c -9.375263,0 -5.067235,7.84799 -12,8 z"
       style="display:inline;fill:#16375b;fill-opacity:0.80147059;fill-rule:nonzero;stroke:none;filter:url(#filter4747);enable-background:new" />
    <path
       sodipodi:nodetypes="sccssssssss"
       inkscape:connector-curvature="0"
       id="rect830"
       d="m 1,5 h 4.5 l 1,-1 H 20 c 0.554,0 1,0.446 1,1 v 8 c 0,0.554 -0.446,1 -1,1 H 1 C 0.446,14 0,13.554 0,13 V 6 C 0,5.446 0.4937484,5.2250007 1,5 Z"
       style="opacity:1;fill:url(#linearGradient840);fill-opacity:1;stroke:none;stroke-width:1;stroke-miterlimit:4;stroke-dasharray:none;stroke-opacity:1" />
    <path
       sodipodi:nodetypes="ccccc"
       inkscape:connector-curvature="0"
       id="rect846"
       d="m 0,11 h 21 v 1 H 0 Z"
       style="opacity:1;fill:#385da4;fill-opacity:1;stroke:none;stroke-width:1.17260396;stroke-miterlimit:4;stroke-dasharray:none;stroke-opacity:1" />
    <path
       sodipodi:nodetypes="ccccc"
       inkscape:connector-curvature="0"
       id="rect848"
       d="m 0,11 h 21 v 1 H 0 Z"
       style="opacity:1;fill:url(#linearGradient856);fill-opacity:1;stroke:none;stroke-width:1.17260396;stroke-miterlimit:4;stroke-dasharray:none;stroke-opacity:1" />
    <path
       sodipodi:nodetypes="ccccc"
       inkscape:connector-curvature="0"
       id="rect858"
       d="m 0,12 h 21 v 0.5 H 0 Z"
       style="opacity:1;fill:#a4c0e8;fill-opacity:1;stroke:none;stroke-width:1.17260396;stroke-miterlimit:4;stroke-dasharray:none;stroke-opacity:1" />
    <path
       sodipodi:nodetypes="ccsscsccscssc"
       inkscape:connector-curvature="0"
       id="path860"
       d="m 6.5,4 -1,1 H 1 C 0.446,5 0,5.446 0,6 V 7 C 0,6.446 0.49374843,6.2250007 1,6 h 4.5 l 1,-1 H 20 c 0.554,0 1,0.446 1,1 V 5 C 21,4.446 20.554,4 20,4 Z"
       style="opacity:1;fill:#a4c0e8;fill-opacity:1;stroke:none;stroke-width:1;stroke-miterlimit:4;stroke-dasharray:none;stroke-opacity:1" />
    <path
       sodipodi:nodetypes="ccccc"
       inkscape:connector-curvature="0"
       id="rect871"
       d="m 5,-3 h 1 v 0.9999999 H 5 Z"
       style="opacity:1;fill:#fbc66d;fill-opacity:1;stroke:none;stroke-width:0.48163241;stroke-miterlimit:4;stroke-dasharray:none;stroke-opacity:1" />
    <path
       sodipodi:nodetypes="ccccc"
       inkscape:connector-curvature="0"
       id="rect869"
       d="m 2,-3 h 4 v 0.9999999 H 2 Z"
       style="opacity:1;fill:#fcf9e9;fill-opacity:1;stroke:none;stroke-width:0.96326482;stroke-miterlimit:4;stroke-dasharray:none;stroke-opacity:1" />
    <path
       sodipodi:nodetypes="sccccccs"
       inkscape:connector-curvature="0"
       id="rect4652"
       d="M 1,4 C 0.4494625,4 0.0074802,4.4410516 0.0019531,4.9902344 v 8.0195316 c 2.3e-4,0.02285 0.0119482,0.042 0.0136719,0.06445 C 0.053734,13.395281 0.7666734,13.99797 1,14 c 3.916e-4,3e-6 0.00156,0 0.00195,0 V 4 Z"
       style="display:inline;opacity:0.59428573;fill:url(#linearGradient4614);fill-opacity:1;stroke:none;stroke-width:0.12499997;enable-background:new" />
    <path
       id="rect4654"
       d="m 20,3 v 11 c 0.554,0 1,-0.446 1,-1 V 4 C 21,3.446 20.554,3 20,3 Z"
       style="display:inline;opacity:0.40571433;fill:url(#linearGradient4622);fill-opacity:1;stroke:none;stroke-width:0.1138394;enable-background:new"
       inkscape:connector-curvature="0"
       sodipodi:nodetypes="ccssc" />
  </g>
</svg>
