<?xml version="1.0" encoding="UTF-8" standalone="no"?>
<svg
   xmlns:dc="http://purl.org/dc/elements/1.1/"
   xmlns:cc="http://creativecommons.org/ns#"
   xmlns:rdf="http://www.w3.org/1999/02/22-rdf-syntax-ns#"
   xmlns:svg="http://www.w3.org/2000/svg"
   xmlns="http://www.w3.org/2000/svg"
   xmlns:sodipodi="http://sodipodi.sourceforge.net/DTD/sodipodi-0.dtd"
   xmlns:inkscape="http://www.inkscape.org/namespaces/inkscape"
   enable-background="new 0 0 128 128"
   height="22"
   viewBox="0 0 22 22"
   width="22"
   version="1.1"
   id="svg159"
   sodipodi:docname="document-close.svg"
   inkscape:version="0.92.3 (2405546, 2018-03-11)"
   inkscape:export-filename="/home/rizmut/Dokumen/Rizmut/Github/karasa-jaga-icon-theme/build/Karasa-Jaga/22x22/actions/document-close.png"
   inkscape:export-xdpi="96"
   inkscape:export-ydpi="96">
  <metadata
     id="metadata165">
    <rdf:RDF>
      <cc:Work
         rdf:about="">
        <dc:format>image/svg+xml</dc:format>
        <dc:type
           rdf:resource="http://purl.org/dc/dcmitype/StillImage" />
        <dc:title></dc:title>
      </cc:Work>
    </rdf:RDF>
  </metadata>
  <defs
     id="defs163" />
  <sodipodi:namedview
     pagecolor="#ffffff"
     bordercolor="#666666"
     borderopacity="1"
     objecttolerance="10"
     gridtolerance="10"
     guidetolerance="10"
     inkscape:pageopacity="0"
     inkscape:pageshadow="2"
     inkscape:window-width="1366"
     inkscape:window-height="693"
     id="namedview161"
     showgrid="true"
     inkscape:zoom="6.9532167"
     inkscape:cx="-15.166464"
     inkscape:cy="9.241442"
     inkscape:window-x="0"
     inkscape:window-y="0"
     inkscape:window-maximized="1"
     inkscape:current-layer="g129">
    <inkscape:grid
       type="xygrid"
       id="grid991" />
  </sodipodi:namedview>
  <filter
     id="a"
     height="1.072142"
     width="1.071866"
     x="-0.035932999"
     y="-0.036070999"
     style="color-interpolation-filters:sRGB">
    <feGaussianBlur
       stdDeviation=".66434216"
       id="feGaussianBlur2" />
  </filter>
  <radialGradient
     id="b"
     cx="-55.685837"
     cy="-347.11612"
     gradientTransform="matrix(-0.86504954,-0.23178932,0.25123373,-0.93761707,-20.024968,-685.26085)"
     gradientUnits="userSpaceOnUse"
     r="22.14249">
    <stop
       offset="0"
       stop-color="#f00d0d"
       id="stop5" />
    <stop
       offset="1"
       stop-color="#8e0c0c"
       id="stop7" />
  </radialGradient>
  <linearGradient
     id="c"
     gradientUnits="userSpaceOnUse"
     x1="328.12448"
     x2="336.98077"
     y1="120.81158"
     y2="87.759453">
    <stop
       offset="0"
       stop-color="#ff5a00"
       id="stop10" />
    <stop
       offset="1"
       stop-color="#983d00"
       id="stop12" />
  </linearGradient>
  <clipPath
     id="d">
    <circle
       cx="343.91208"
       cy="92.325096"
       r="36"
       transform="matrix(0.86602539,0.50000002,0.49999965,-0.86602561,0,0)"
       id="circle15" />
  </clipPath>
  <filter
     id="e">
    <feGaussianBlur
       stdDeviation="2.8805897"
       id="feGaussianBlur18" />
  </filter>
  <radialGradient
     id="f"
     cx="343.99899"
     cy="92"
     gradientTransform="matrix(0.41312598,0,0,0.41312571,-205.35142,-369.33358)"
     gradientUnits="userSpaceOnUse"
     r="36">
    <stop
       offset="0"
       stop-color="#ff9800"
       id="stop21" />
    <stop
       offset="1"
       stop-color="#f5a800"
       stop-opacity="0"
       id="stop23" />
  </radialGradient>
  <linearGradient
     id="g"
     gradientTransform="matrix(0,0.45792999,-0.45793032,0,86.389161,323.04227)"
     gradientUnits="userSpaceOnUse"
     x1="-80.00296"
     x2="-45.096584"
     y1="-131.93112"
     y2="-131.93112">
    <stop
       offset="0"
       stop-color="#fff"
       id="stop26" />
    <stop
       offset="1"
       stop-color="#fff"
       stop-opacity="0"
       id="stop28" />
  </linearGradient>
  <linearGradient
     id="h"
     gradientUnits="userSpaceOnUse"
     x1="122.00004"
     x2="122.00004"
     y1="61.999996"
     y2="9.9328432">
    <stop
       offset="0"
       stop-color="#4d2000"
       stop-opacity="0"
       id="stop31" />
    <stop
       offset=".5"
       stop-color="#4d0f00"
       id="stop33" />
    <stop
       offset="1"
       stop-color="#4d1d00"
       stop-opacity="0"
       id="stop35" />
  </linearGradient>
  <filter
     id="i">
    <feGaussianBlur
       stdDeviation="1.04"
       id="feGaussianBlur38" />
  </filter>
  <linearGradient
     id="j"
     gradientUnits="userSpaceOnUse"
     x1="88.591797"
     x2="71.262016"
     y1="96.592697"
     y2="79.262917">
    <stop
       offset="0"
       stop-color="#fff"
       id="stop41" />
    <stop
       offset="1"
       stop-color="#555753"
       id="stop43" />
  </linearGradient>
  <linearGradient
     id="k"
     gradientUnits="userSpaceOnUse"
     x1="85.219681"
     x2="61.336319"
     y1="93.219681"
     y2="69.336319">
    <stop
       offset="0"
       id="stop46" />
    <stop
       offset="1"
       stop-color="#393b38"
       id="stop48" />
  </linearGradient>
  <linearGradient
     id="l"
     gradientUnits="userSpaceOnUse"
     x1="96"
     x2="88.000198"
     y1="104"
     y2="96.000198">
    <stop
       offset="0"
       stop-color="#888a85"
       id="stop51" />
    <stop
       offset=".0072"
       stop-color="#8c8e89"
       id="stop53" />
    <stop
       offset=".0673"
       stop-color="#abaca9"
       id="stop55" />
    <stop
       offset=".1347"
       stop-color="#c5c6c4"
       id="stop57" />
    <stop
       offset=".2115"
       stop-color="#dbdbda"
       id="stop59" />
    <stop
       offset=".3012"
       stop-color="#ebebeb"
       id="stop61" />
    <stop
       offset=".4122"
       stop-color="#f7f7f6"
       id="stop63" />
    <stop
       offset=".5679"
       stop-color="#fdfdfd"
       id="stop65" />
    <stop
       offset="1"
       stop-color="#fff"
       id="stop67" />
  </linearGradient>
  <radialGradient
     id="m"
     cx="102"
     cy="112.3047"
     gradientTransform="matrix(0.94807,0,0,0.9510679,3.32352,5.274458)"
     gradientUnits="userSpaceOnUse"
     r="139.55859">
    <stop
       offset="0"
       stop-color="#535557"
       id="stop70" />
    <stop
       offset=".11366145"
       stop-color="#898a8c"
       id="stop72" />
    <stop
       offset=".20296688"
       stop-color="#ececec"
       id="stop74" />
    <stop
       offset=".2363"
       stop-color="#fafafa"
       id="stop76" />
    <stop
       offset=".2722"
       stop-color="#fff"
       id="stop78" />
    <stop
       offset=".5313"
       stop-color="#fafafa"
       id="stop80" />
    <stop
       offset=".8449"
       stop-color="#ebecec"
       id="stop82" />
    <stop
       offset="1"
       stop-color="#e1e2e3"
       id="stop84" />
  </radialGradient>
  <radialGradient
     id="n"
     cx="100.80984"
     cy="112.93461"
     gradientUnits="userSpaceOnUse"
     r="135.18756">
    <stop
       offset="0"
       stop-color="#3e3e3e"
       id="stop87" />
    <stop
       offset=".0151"
       stop-color="#505050"
       id="stop89" />
    <stop
       offset=".0558"
       stop-color="#7e7e7e"
       id="stop91" />
    <stop
       offset=".1357"
       stop-color="#c6c6c6"
       id="stop93" />
    <stop
       offset=".20990001"
       stop-color="#f1f1f1"
       id="stop95" />
    <stop
       offset=".24349999"
       stop-color="#fcfcfc"
       id="stop97" />
    <stop
       offset=".2722"
       stop-color="#fff"
       id="stop99" />
  </radialGradient>
  <filter
     id="o">
    <feGaussianBlur
       stdDeviation="1.0394514"
       id="feGaussianBlur102" />
  </filter>
  <filter
     id="p">
    <feGaussianBlur
       stdDeviation=".50063244"
       id="feGaussianBlur105" />
  </filter>
  <filter
     id="q">
    <feGaussianBlur
       stdDeviation=".40750996"
       id="feGaussianBlur108" />
  </filter>
  <filter
     id="r">
    <feGaussianBlur
       stdDeviation=".4901192"
       id="feGaussianBlur111" />
  </filter>
  <filter
     id="s">
    <feGaussianBlur
       stdDeviation=".90565481"
       id="feGaussianBlur114" />
  </filter>
  <g
     transform="matrix(0.20454546,0,0,0.20454546,-2.577287,-3.380484)"
     id="g129">
    <path
       d="m 27.64618,18.714555 0.225437,101.293295 h 56.286107 c 0.53,0 1.02161,-0.22945 1.414,-0.586 L 118.414,89.579469 c 0.39239,-0.356548 0.586,-0.884 0.586,-1.414 l -0.1989,-69.450914 z"
       transform="matrix(1.0090419,0,0,1.003276,-7.641977,0.929762)"
       id="path117"
       inkscape:connector-curvature="0"
       style="opacity:0.55342503;filter:url(#o)"
       sodipodi:nodetypes="ccscsscc" />
    <path
       d="M 27.64618,18.745772 27.871627,120.00785 H 84.15773 c 0.53,0 1.02161,-0.22945 1.414,-0.586 L 118.414,89.579469 c 0.39239,-0.356548 0.586,-0.884 0.586,-1.414 l -0.1989,-69.419697 z"
       transform="matrix(1.0090419,0,0,1.003276,-7.641977,0.929762)"
       id="path119"
       inkscape:connector-curvature="0"
       style="opacity:0.30684904;filter:url(#o)"
       sodipodi:nodetypes="ccscsscc" />
    <path
       d="m 29.551915,20.419044 0.198886,97.458526 53.830924,-1e-4 c 0.53,0 1.039,-0.211 1.414,-0.586 L 116.494,88.511156 c 0.375,-0.375 0.586,-0.884 0.586,-1.414 l -0.1177,-66.678112 z"
       transform="matrix(1.0090419,0,0,1.003276,-7.641977,0.929762)"
       id="path121"
       inkscape:connector-curvature="0"
       style="opacity:0.89589;filter:url(#p)"
       sodipodi:nodetypes="cccccccc" />
    <path
       d="m 27.64618,19.711289 0.225437,100.296561 h 56.286107 c 0.53,0 1.02161,-0.22945 1.414,-0.586 L 118.414,89.579469 c 0.39239,-0.356548 0.586,-0.884 0.586,-1.414 l -0.1989,-68.45418 z"
       transform="matrix(1.0090419,0,0,1.003276,-7.641977,0.929762)"
       id="path123"
       inkscape:connector-curvature="0"
       style="opacity:0.30684904;filter:url(#o)"
       sodipodi:nodetypes="ccscsscc" />
    <path
       d="m 22.177144,21.415699 0.200695,97.777791 h 54.36722 c 0.513401,0 1.006458,-0.20439 1.369714,-0.56765 L 109.929,89.821411 c 0.36326,-0.363255 0.56764,-0.856313 0.56764,-1.369714 l -0.1188,-67.035998 z"
       id="path125"
       inkscape:connector-curvature="0"
       style="fill:url(#n)"
       sodipodi:nodetypes="ccsccccc" />
    <path
       d="m 28.755047,27.289843 c -0.522387,0 -0.94807,0.42703 -0.94807,0.951069 l 0.508218,83.964148 c 0,0.525 0.425684,0.95108 0.94807,0.95108 h 47.210313 c 0.249342,0 0.493944,-0.10082 0.670284,-0.27867 L 105.2815,88.651213 c 0.17729,-0.17785 0.27778,-0.422273 0.27778,-0.672405 l -0.9007,-59.715973 c 0,-0.524039 -0.42473,-0.951068 -0.94806,-0.951068 z"
       id="path127"
       inkscape:connector-curvature="0"
       style="fill:url(#m)"
       sodipodi:nodetypes="cccsscccccc" />
  </g>
  <g
     transform="matrix(0.22663966,0,0,0.22663966,-4.184175,-5.429348)"
     id="g139">
    <path
       d="m 111.52523,88.365747 c 0.26305,-0.236238 -24.821717,-1.141063 -29.856717,-1.141063 -1.654,0 -3,1.346 -3,3 0,5.035 1.211722,26.561276 1.474766,26.325036 z"
       id="path131"
       inkscape:connector-curvature="0"
       style="opacity:0.75068497;fill:url(#j);filter:url(#q)" />
    <path
       d="m 111.52523,88.365747 c 0.39457,-0.354357 -20.412717,-0.141063 -29.856717,-0.141063 -1.103,0 -2,0.897 -2,2 0,9.444 0.0802,26.679386 0.474766,26.325036 z"
       id="path133"
       inkscape:connector-curvature="0"
       style="opacity:0.2;filter:url(#s)" />
    <path
       d="m 111.52523,88.365747 c 0.25147,-0.225842 -20.049717,0.858937 -29.856717,0.858937 -0.553,0 -1,0.447 -1,1 0,9.806996 -0.776705,26.550876 -0.525234,26.325036 z"
       id="path135"
       inkscape:connector-curvature="0"
       style="opacity:0.1;fill:url(#k);filter:url(#r)" />
    <path
       d="M 81.278898,116.44678 111.33835,89.585303 81.390132,90.03024 Z"
       id="path137"
       inkscape:connector-curvature="0"
       style="fill:url(#l)" />
  </g>
  <g
     transform="matrix(0.27273195,0,0,0.27273195,-23.668759,-66.776653)"
     id="g157">
    <ellipse
       cx="-220.42743"
       cy="255.3185"
       rx="19.830044"
       ry="19.830032"
       transform="matrix(-0.96592587,-0.2588189,-0.25881915,0.9659258,0,0)"
       id="ellipse141"
       style="fill:none;stroke-width:0.550834" />
    <ellipse
       cx="-59.830322"
       cy="-331.66757"
       rx="22.14249"
       ry="22.142477"
       transform="matrix(-0.86776569,0.22597441,-0.23251696,-0.84334855,17.798137,38.709723)"
       id="ellipse143"
       style="fill:#292929;filter:url(#a)" />
    <ellipse
       cx="-63.236477"
       cy="-331.32599"
       rx="19.830044"
       ry="19.830032"
       transform="rotate(165.00001)"
       id="ellipse145"
       style="fill:url(#b)" />
    <circle
       cx="343.99899"
       cy="92"
       r="36"
       style="opacity:0.8;fill:none;stroke:url(#c);stroke-width:6.75138187;filter:url(#e)"
       transform="matrix(-0.53206533,-0.14256639,-0.14256644,0.53206495,342.9813,303.76222)"
       clip-path="url(#d)"
       id="circle147" />
    <ellipse
       cx="-63.2365"
       cy="-331.32602"
       rx="14.872535"
       ry="14.872525"
       transform="rotate(165)"
       id="ellipse149"
       style="fill:url(#f);stroke-width:0.41312599" />
    <path
       d="m 146.83527,286.40654 c -7.03226,0 -12.90835,4.96571 -14.32464,11.57705 2.82305,2.63167 8.17963,4.40756 14.32464,4.40756 6.14499,0 11.50156,-1.77589 14.32461,-4.40756 -1.41629,-6.61134 -7.29237,-11.57705 -14.32461,-11.57705 z"
       id="path151"
       inkscape:connector-curvature="0"
       style="opacity:0.8;fill:url(#g);stroke-width:0.76311499" />
    <path
       d="m 120.01465,21.014613 v 13 H 108.8884 v 3.970777 h 11.12625 v 13 h 3.97076 v -13 h 11.12626 v -3.970777 h -11.12626 v -13 z"
       style="fill:none;stroke:url(#h);stroke-width:4;stroke-linecap:round;stroke-linejoin:round;filter:url(#i)"
       transform="matrix(0.67592846,-0.67592846,0.67592846,0.67592846,40.038528,363.59052)"
       id="path153"
       inkscape:connector-curvature="0" />
    <path
       d="m 135.36421,296.14896 7.52056,7.52055 -7.52055,7.52055 3.95048,3.95048 7.52054,-7.52055 7.52055,7.52055 3.95048,-3.95048 -7.52055,-7.52055 7.52056,-7.52055 -3.95048,-3.95048 -7.52056,7.52055 -7.52055,-7.52055 z"
       id="path155"
       inkscape:connector-curvature="0"
       style="fill:#ffffff;fill-rule:evenodd" />
  </g>
</svg>
