<?xml version="1.0" encoding="UTF-8" standalone="no"?>
<svg
   xmlns:dc="http://purl.org/dc/elements/1.1/"
   xmlns:cc="http://creativecommons.org/ns#"
   xmlns:rdf="http://www.w3.org/1999/02/22-rdf-syntax-ns#"
   xmlns:svg="http://www.w3.org/2000/svg"
   xmlns="http://www.w3.org/2000/svg"
   xmlns:xlink="http://www.w3.org/1999/xlink"
   xmlns:sodipodi="http://sodipodi.sourceforge.net/DTD/sodipodi-0.dtd"
   xmlns:inkscape="http://www.inkscape.org/namespaces/inkscape"
   height="22"
   width="22"
   version="1.1"
   id="svg93"
   sodipodi:docname="go-previous.svg"
   inkscape:version="0.92.3 (2405546, 2018-03-11)"
   inkscape:export-filename="/home/rizmut/Dokumen/Rizmut/Github/karasa-jaga-icon-theme/build/Karasa-Jaga/22x22/actions/go-previous.png"
   inkscape:export-xdpi="96"
   inkscape:export-ydpi="96">
  <metadata
     id="metadata99">
    <rdf:RDF>
      <cc:Work
         rdf:about="">
        <dc:format>image/svg+xml</dc:format>
        <dc:type
           rdf:resource="http://purl.org/dc/dcmitype/StillImage" />
        <dc:title />
      </cc:Work>
    </rdf:RDF>
  </metadata>
  <defs
     id="defs97">
    <linearGradient
       inkscape:collect="always"
       xlink:href="#c"
       id="linearGradient906"
       gradientUnits="userSpaceOnUse"
       gradientTransform="matrix(1,0,0,0.8610463,-108.16138,-1.436187)"
       x1="223.32712"
       y1="53.784153"
       x2="226.659"
       y2="57.279232"
       spreadMethod="reflect" />
  </defs>
  <sodipodi:namedview
     pagecolor="#ffffff"
     bordercolor="#666666"
     borderopacity="1"
     objecttolerance="10"
     gridtolerance="10"
     guidetolerance="10"
     inkscape:pageopacity="0"
     inkscape:pageshadow="2"
     inkscape:window-width="1366"
     inkscape:window-height="693"
     id="namedview95"
     showgrid="true"
     inkscape:snap-global="true"
     inkscape:zoom="9.8333333"
     inkscape:cx="4.5598962"
     inkscape:cy="11.057116"
     inkscape:window-x="0"
     inkscape:window-y="0"
     inkscape:window-maximized="1"
     inkscape:current-layer="g81">
    <inkscape:grid
       type="xygrid"
       id="grid908" />
  </sodipodi:namedview>
  <linearGradient
     id="a"
     gradientTransform="matrix(1,0,0,0.8610463,-108.16138,-1.436187)"
     gradientUnits="userSpaceOnUse"
     spreadMethod="reflect"
     x1="223.32712"
     x2="226.659"
     xlink:href="#c"
     y1="53.784153"
     y2="57.279232" />
  <linearGradient
     id="b">
    <stop
       offset="0"
       stop-color="#002a0d"
       stop-opacity=".914439"
       id="stop3" />
    <stop
       offset="1"
       stop-color="#002a0d"
       stop-opacity="0"
       id="stop5" />
  </linearGradient>
  <linearGradient
     id="c">
    <stop
       offset="0"
       stop-color="#fff"
       id="stop8" />
    <stop
       offset="1"
       stop-color="#fff"
       stop-opacity="0"
       id="stop10" />
  </linearGradient>
  <filter
     id="d"
     height="1.255079"
     width="1.231461"
     x="-0.11573"
     y="-0.12754001">
    <feGaussianBlur
       stdDeviation=".32549158"
       id="feGaussianBlur13" />
  </filter>
  <linearGradient
     id="e"
     gradientTransform="matrix(1,0,0,0.8610463,-108.16138,-1.436187)"
     gradientUnits="userSpaceOnUse"
     spreadMethod="reflect"
     x1="223.32712"
     x2="226.659"
     y1="53.784153"
     y2="57.279232">
    <stop
       offset="0"
       stop-color="#cdeeff"
       id="stop16" />
    <stop
       offset="1"
       stop-color="#d2e8ed"
       stop-opacity="0"
       id="stop18" />
  </linearGradient>
  <linearGradient
     id="f"
     gradientUnits="userSpaceOnUse"
     x1="15.428552"
     x2="15.428552"
     y1="0.138914"
     y2="15.078377"
     gradientTransform="translate(0,-2)">
    <stop
       offset="0"
       stop-color="#edffbf"
       id="stop21" />
    <stop
       offset="1"
       stop-color="#edffbf"
       stop-opacity="0"
       id="stop23" />
  </linearGradient>
  <linearGradient
     id="g">
    <stop
       offset="0"
       stop-color="#f0ff80"
       id="stop26" />
    <stop
       offset="1"
       stop-color="#f0ff80"
       stop-opacity="0"
       id="stop28" />
  </linearGradient>
  <radialGradient
     id="h"
     cx="11.578125"
     cy="64.53125"
     gradientTransform="matrix(6.5079869,0,0,1.510917,-63.772161,-32.970115)"
     gradientUnits="userSpaceOnUse"
     r="3.578125"
     xlink:href="#c" />
  <radialGradient
     id="i"
     cx="10"
     cy="18.155405"
     gradientTransform="matrix(2.7367639,0.02069401,-0.01427307,1.8876003,-17.108506,-18.477089)"
     gradientUnits="userSpaceOnUse"
     r="9.5">
    <stop
       offset="0"
       stop-color="#83fc28"
       id="stop32" />
    <stop
       offset="1"
       stop-color="#102c07"
       id="stop34" />
  </radialGradient>
  <radialGradient
     id="j"
     cx="10.759766"
     cy="15.06706"
     gradientTransform="matrix(0.59220712,-0.04999318,0.07235929,0.85715077,3.297514,0.623172)"
     gradientUnits="userSpaceOnUse"
     r="10.499903">
    <stop
       offset="0"
       stop-color="#002a0d"
       id="stop37" />
    <stop
       offset="1"
       stop-color="#002a0d"
       stop-opacity="0"
       id="stop39" />
  </radialGradient>
  <radialGradient
     id="k"
     cx="-1.2816941"
     cy="20.198025"
     gradientTransform="matrix(0.59220712,-0.04999318,0.07235929,0.85715077,3.297514,0.623172)"
     gradientUnits="userSpaceOnUse"
     r="10.499903"
     xlink:href="#b" />
  <linearGradient
     id="l"
     gradientUnits="userSpaceOnUse"
     x1="8"
     x2="12"
     y1="28"
     y2="-2"
     gradientTransform="translate(0,-2)">
    <stop
       offset="0"
       stop-color="#005f1e"
       id="stop43" />
    <stop
       offset="1"
       stop-color="#43943c"
       id="stop45" />
  </linearGradient>
  <linearGradient
     id="m"
     gradientUnits="userSpaceOnUse"
     x1="13.313708"
     x2="21"
     y1="25.577166"
     y2="12.25"
     gradientTransform="translate(0,-2)">
    <stop
       offset="0"
       stop-color="#b2ff00"
       id="stop48" />
    <stop
       offset="1"
       stop-color="#acff00"
       stop-opacity="0"
       id="stop50" />
  </linearGradient>
  <filter
     id="n"
     height="1.0316221"
     width="1.03079"
     x="-0.015395"
     y="-0.015811"
     style="color-interpolation-filters:sRGB">
    <feGaussianBlur
       stdDeviation=".121875"
       id="feGaussianBlur53" />
  </filter>
  <radialGradient
     id="o"
     cx="11.578125"
     cy="64.53125"
     gradientTransform="matrix(6.5079869,0,0,1.510917,-63.772161,-32.970115)"
     gradientUnits="userSpaceOnUse"
     r="3.578125"
     xlink:href="#g" />
  <linearGradient
     id="p"
     gradientTransform="matrix(1,0,0,0.8610463,-108.16138,-1.436187)"
     gradientUnits="userSpaceOnUse"
     spreadMethod="reflect"
     x1="223.32712"
     x2="226.659"
     xlink:href="#g"
     y1="53.784153"
     y2="57.279232" />
  <filter
     id="q"
     height="1.300108"
     width="1.453439"
     x="-0.22671901"
     y="-0.15005399"
     style="color-interpolation-filters:sRGB">
    <feGaussianBlur
       stdDeviation=".67602533"
       id="feGaussianBlur58" />
  </filter>
  <filter
     id="r"
     height="1.298121"
     width="1.450436"
     x="-0.225218"
     y="-0.14906"
     style="color-interpolation-filters:sRGB">
    <feGaussianBlur
       stdDeviation=".67154834"
       id="feGaussianBlur61" />
  </filter>
  <radialGradient
     id="s"
     cx="13.13153"
     cy="8.9021168"
     gradientTransform="matrix(0.59220712,-0.04999318,0.07235929,0.85715077,3.297514,0.623172)"
     gradientUnits="userSpaceOnUse"
     r="10.499903"
     xlink:href="#b" />
  <g
     id="g924"
     transform="translate(0,1)">
    <path
       sodipodi:nodetypes="cccccccccccccccccccccc"
       style="fill:url(#l)"
       inkscape:connector-curvature="0"
       id="path65"
       d="M 10.984375,0 C 10.73503,0.00381 10.496103,0.1006324 10.314453,0.2714844 L 2.3144531,8.271484 c -0.00727,0.0071 -0.014432,0.01422 -0.021484,0.02149 l -1,1 c -0.39036806,0.39053 -0.39036806,1.023532 0,1.414062 l 1,1 1,1 6.9999999,7 c 0.39053,0.390368 1.023532,0.390368 1.414062,0 l 2,-2 c 0.376953,-0.377263 0.39156,-0.983939 0.0332,-1.378906 L 10.759766,13 H 20 c 0.552262,-5.5e-5 0.999945,-0.447738 1,-1 V 8 C 20.999945,7.4477381 20.552262,7.0000552 20,7 h -9.085938 l 2.792969,-3.2929688 c 0.390368,-0.3905299 0.390368,-1.0235325 0,-1.4140624 l -2,-2 C 11.515708,0.101557 11.254978,-0.0041443 10.984375,0 Z" />
    <path
       sodipodi:nodetypes="cccccccccccccccccccccccc"
       style="fill:url(#j)"
       inkscape:connector-curvature="0"
       id="path67"
       d="M 10.984375,0 C 10.73503,0.00381 10.496103,0.1006324 10.314453,0.2714844 L 3.6660156,7 3,7.6269531 2.3144531,8.271484 c -0.00727,0.0071 -0.014432,0.01422 -0.021484,0.02149 l -1,1 c -0.39036806,0.39053 -0.39036806,1.023532 0,1.414062 l 1,1 1,1 6.9999999,7 c 0.39053,0.390368 1.023532,0.390368 1.414062,0 l 2,-2 c 0.376953,-0.377263 0.39156,-0.983939 0.0332,-1.378906 L 10.759766,13 H 20 c 0.552262,-5.5e-5 0.999945,-0.447738 1,-1 V 8 C 20.999945,7.4477381 20.552262,7.0000552 20,7 h -9.085938 l 2.792969,-3.2929688 c 0.390368,-0.3905299 0.390368,-1.0235325 0,-1.4140624 l -2,-2 C 11.515708,0.101557 11.254978,-0.0041443 10.984375,0 Z" />
    <path
       sodipodi:nodetypes="cccccccccccccccccccccccc"
       style="opacity:0.25;fill:url(#k)"
       inkscape:connector-curvature="0"
       id="path69"
       d="M 10.984375,0 C 10.73503,0.00381 10.496103,0.1006324 10.314453,0.2714844 L 3.6660156,7 3,7.6269531 2.3144531,8.271484 c -0.00727,0.0071 -0.014432,0.01422 -0.021484,0.02149 l -1,1 c -0.39036806,0.39053 -0.39036806,1.023532 0,1.414062 l 1,1 1,1 6.9999999,7 c 0.39053,0.390368 1.023532,0.390368 1.414062,0 l 2,-2 c 0.376953,-0.377263 0.39156,-0.983939 0.0332,-1.378906 L 10.759766,13 H 20 c 0.552262,-5.5e-5 0.999945,-0.447738 1,-1 V 8 C 20.999945,7.4477381 20.552262,7.0000552 20,7 h -9.085938 l 2.792969,-3.2929688 c 0.390368,-0.3905299 0.390368,-1.0235325 0,-1.4140624 l -2,-2 C 11.515708,0.101557 11.254978,-0.0041443 10.984375,0 Z" />
    <path
       sodipodi:nodetypes="cccccccccccccccccccccccc"
       style="fill:url(#s)"
       inkscape:connector-curvature="0"
       id="path71"
       d="M 10.984375,0 C 10.73503,0.00381 10.496103,0.1006324 10.314453,0.2714844 L 3.6660156,7 3,7.6269531 2.3144531,8.271484 c -0.00727,0.0071 -0.014432,0.01422 -0.021484,0.02149 l -1,1 c -0.39036806,0.39053 -0.39036806,1.023532 0,1.414062 l 1,1 1,1 6.9999999,7 c 0.39053,0.390368 1.023532,0.390368 1.414062,0 l 2,-2 c 0.376953,-0.377263 0.39156,-0.983939 0.0332,-1.378906 L 10.759766,13 H 20 c 0.552262,-5.5e-5 0.999945,-0.447738 1,-1 V 8 C 20.999945,7.4477381 20.552262,7.0000552 20,7 h -9.085938 l 2.792969,-3.2929688 c 0.390368,-0.3905299 0.390368,-1.0235325 0,-1.4140624 l -2,-2 C 11.515708,0.101557 11.254978,-0.0041443 10.984375,0 Z" />
    <g
       transform="translate(-0.59179173,-1.9680035)"
       style="fill-rule:evenodd"
       id="g81">
      <path
         style="opacity:0.61423202;fill:url(#e);filter:url(#d)"
         inkscape:connector-curvature="0"
         id="path73"
         transform="matrix(0.171875,0,0,-0.171875,0.62246375,21.875)"
         d="m 115.65112,40 c -0.33944,1.154561 -2.5625,6.125 -2.5625,6.125 l 6.75,-0.03125 V 44 c 7.6e-4,-2.05105 -1.61796,-4.000656 -4,-4 z" />
      <path
         style="opacity:0.74906401;fill:url(#linearGradient906);filter:url(#d)"
         inkscape:connector-curvature="0"
         id="path75"
         transform="matrix(-0.00487818,-0.17180577,-0.17180577,0.00487818,28.856084,29.563389)"
         d="m 115.65112,40 c -0.33944,1.154561 -2.5625,6.125 -2.5625,6.125 l 6.75,-0.03125 V 44 c 7.6e-4,-2.05105 -1.61796,-4.000656 -4,-4 z" />
      <path
         style="opacity:0.74906401;fill:url(#a);filter:url(#d)"
         inkscape:connector-curvature="0"
         id="path77"
         transform="matrix(-0.09012751,-0.14634907,-0.14634907,0.09012751,28.369102,15.788337)"
         d="m 115.65112,40 c -0.33944,1.154561 -2.5625,6.125 -2.5625,6.125 l 6.75,-0.03125 V 44 c 7.6e-4,-2.05105 -1.61796,-4.000656 -4,-4 z" />
      <path
         style="opacity:0.74906401;fill:url(#p);filter:url(#d)"
         inkscape:connector-curvature="0"
         id="path79"
         transform="matrix(-0.09012751,0.14634907,-0.14634907,-0.09012751,28.369102,8.14767)"
         d="m 115.65112,40 c -0.33944,1.154561 -2.5625,6.125 -2.5625,6.125 l 6.75,-0.03125 V 44 c 7.6e-4,-2.05105 -1.61796,-4.000656 -4,-4 z" />
    </g>
    <path
       sodipodi:nodetypes="cccccccccccccccc"
       style="fill:url(#i)"
       inkscape:connector-curvature="0"
       id="path83"
       d="M 11,1 4.0625,8 H 4 V 8.05859 L 3,9 l -1,1 1,1 1,1 7,7 2,-2 -4.5,-5 H 20 V 8 H 8.5 L 13,3 Z" />
    <path
       sodipodi:nodetypes="ccscccc"
       style="fill:url(#h);fill-rule:evenodd;filter:url(#r)"
       inkscape:connector-curvature="0"
       id="path85"
       transform="matrix(-0.1611048,0,0,-0.15560479,15.652148,12.964029)"
       d="m 14.79107,59.125 -2.1875,1.75 c -0.949856,0.759129 -1.5,1.909063 -1.5,3.125 0,1.215937 0.550144,2.365871 1.5,3.125 l 3.53125,2.8125 2.125,-5.625 z" />
    <path
       sodipodi:nodetypes="cccccccccccccccc"
       style="fill:none;stroke:url(#m);stroke-width:0.5;filter:url(#n)"
       inkscape:connector-curvature="0"
       id="path87"
       d="M 11,1 4.0625,8 H 4 V 8.05859 L 3,9 l -1,1 1,1 1,1 7,7 2,-2 -4.5,-5 H 20 V 8 H 8.5 L 13,3 Z" />
    <path
       sodipodi:nodetypes="cccccccscccc"
       style="fill:url(#f)"
       inkscape:connector-curvature="0"
       id="path89"
       d="M 11,1 4.0625,8 H 4 V 8.05859 L 3,9 2,10 2.054687,10.05469 c 1.2639038,0.08869 2.5472232,0.15039 3.8671875,0.15039 5.5780205,0 9.7147115,-0.825794 13.8300785,-2.205078 H 8.5 l 4.5,-5 z" />
    <path
       sodipodi:nodetypes="ccscccc"
       style="fill:url(#o);fill-rule:evenodd;filter:url(#q)"
       inkscape:connector-curvature="0"
       id="path91"
       transform="matrix(-0.1611048,0,0,-0.15560479,15.595131,27.464029)"
       d="m 14.79107,62.338269 -2.1875,1.75 c -0.949856,0.759129 -1.5,1.909063 -1.5,3.125 0,1.215937 0.550144,2.365871 1.5,3.125 l 3.53125,2.8125 2.125,-5.625 z" />
  </g>
</svg>
