<?xml version="1.0" encoding="UTF-8" standalone="no"?>
<!-- Created with Inkscape (http://www.inkscape.org/) -->

<svg
   xmlns:dc="http://purl.org/dc/elements/1.1/"
   xmlns:cc="http://creativecommons.org/ns#"
   xmlns:rdf="http://www.w3.org/1999/02/22-rdf-syntax-ns#"
   xmlns:svg="http://www.w3.org/2000/svg"
   xmlns="http://www.w3.org/2000/svg"
   xmlns:xlink="http://www.w3.org/1999/xlink"
   xmlns:sodipodi="http://sodipodi.sourceforge.net/DTD/sodipodi-0.dtd"
   xmlns:inkscape="http://www.inkscape.org/namespaces/inkscape"
   width="32"
   height="32"
   viewBox="0 0 8.4666665 8.466667"
   version="1.1"
   id="svg5103"
   inkscape:version="0.92.3 (2405546, 2018-03-11)"
   sodipodi:docname="libreoffice-draw.svg"
   inkscape:export-filename="/home/rizmut/Dokumen/Rizmut/Github/karasa-jaga-icon-theme/build/Karasa-Jaga/32x32/apps/libreoffice-draw.png"
   inkscape:export-xdpi="96"
   inkscape:export-ydpi="96">
  <defs
     id="defs5097">
    <inkscape:path-effect
       effect="spiro"
       id="path-effect1093"
       is_visible="true" />
    <linearGradient
       inkscape:collect="always"
       xlink:href="#linearGradient7821"
       id="linearGradient8844"
       gradientUnits="userSpaceOnUse"
       gradientTransform="matrix(0.22958737,0,0,0.22958737,39.772925,-47.15172)"
       x1="-99.319344"
       y1="334.28647"
       x2="-99.063911"
       y2="213.06819" />
    <linearGradient
       id="linearGradient7821"
       inkscape:collect="always">
      <stop
         id="stop7815"
         offset="0"
         style="stop-color:#e8f03b;stop-opacity:1" />
      <stop
         style="stop-color:#b9c10f;stop-opacity:1"
         offset="0.38350943"
         id="stop7817" />
      <stop
         id="stop7819"
         offset="1"
         style="stop-color:#e8f03b;stop-opacity:1" />
    </linearGradient>
  </defs>
  <sodipodi:namedview
     id="base"
     pagecolor="#ffffff"
     bordercolor="#666666"
     borderopacity="1.0"
     inkscape:pageopacity="0.0"
     inkscape:pageshadow="2"
     inkscape:zoom="4"
     inkscape:cx="4.4468565"
     inkscape:cy="13.547769"
     inkscape:document-units="mm"
     inkscape:current-layer="g828"
     showgrid="true"
     units="px"
     inkscape:snap-global="false"
     inkscape:snap-smooth-nodes="false"
     inkscape:window-width="1366"
     inkscape:window-height="693"
     inkscape:window-x="0"
     inkscape:window-y="0"
     inkscape:window-maximized="1">
    <inkscape:grid
       type="xygrid"
       id="grid9580"
       spacingx="0.13229167"
       spacingy="0.13229167"
       empspacing="2" />
  </sodipodi:namedview>
  <metadata
     id="metadata5100">
    <rdf:RDF>
      <cc:Work
         rdf:about="">
        <dc:format>image/svg+xml</dc:format>
        <dc:type
           rdf:resource="http://purl.org/dc/dcmitype/StillImage" />
        <dc:title></dc:title>
      </cc:Work>
    </rdf:RDF>
  </metadata>
  <g
     inkscape:label="Layer 1"
     inkscape:groupmode="layer"
     id="layer1"
     transform="translate(0,-288.53332)">
    <g
       transform="matrix(0.50790239,0,0,0.50790239,-0.26762817,146.42061)"
       id="g8806">
      <g
         id="g828"
         transform="matrix(0.25,0,0,0.25,0.22146713,222.00734)">
        <path
           transform="matrix(2.0837337,0,0,2.0837337,1.2218449,231.18341)"
           style="fill:#7e7a0a;fill-opacity:1;stroke-width:0.22958736"
           d="M 5.203125,2 C 5.145645,2 5.1015199,2.040887 5.0527344,2.042969 4.5844825,2.0199123 4.1630602,2.3252201 4.0390625,2.777344 c 0.00207,-0.00847 0.00194,-0.024659 0.00391,-0.03125 0.017787,-0.059501 -0.00855,0.015458 -0.025391,0.1035156 -0.0033,0.021394 -0.0059,0.04289 -0.00781,0.064453 -0.00426,0.033052 -0.00687,0.066297 -0.00781,0.099609 -7.457e-4,0.0078 -0.0014,0.015618 -0.00196,0.023438 v 0.019531 c 4.659e-4,0.011078 0.00112,0.022147 0.00195,0.033203 L 4,28.947229 c 4.494e-4,0.337219 0.1708101,0.651505 0.453125,0.835937 v 0.002 c 0.012197,0.0081 0.024569,0.0159 0.037109,0.02344 0.1116829,0.06602 0.00957,0.0035 -0.03125,-0.02148 0.3064573,0.203495 0.4581662,0.21289 0.7421875,0.21289 H 25.798828 c 0.283648,0 0.439347,-0.01224 0.742188,-0.21289 0.0013,-6.64e-4 0.0026,-0.0013 0.0039,-0.002 C 26.82856,29.60077 26.999781,29.28552 27,28.947229 L 27,11.5 c -9.6e-5,-0.29648 -0.131731,-0.577635 -0.359375,-0.767578 l -9,-8.5000001 C 17.460878,2.0823382 17.234166,2.000086 17,2 Z M 21,2 c -0.945781,-4.656e-4 -1.363721,1.1906624 -0.625,1.78125 l 5,5 C 26.029951,9.3054039 27.000347,8.8388673 27,8 l 0.002,-4.9453125 c 2.85e-4,-0.2305252 -0.07908,-0.454071 -0.224656,-0.6328125 4e-6,5.5e-6 -0.0056,-0.00564 -0.0059,-0.00586 -2.55e-4,-3.414e-4 -0.0034,-0.00525 -0.0039,-0.00586 -0.01564,-0.018157 -0.03193,-0.035747 -0.04883,-0.052734 -0.0027,-0.00277 -0.0032,-0.00125 -0.0059,-0.00391 -0.04749,-0.048827 -0.09985,-0.092674 -0.15625,-0.1308594 -0.0018,-0.00116 -0.0062,-0.00671 -0.0078,-0.00781 h -0.002 c -0.0013,-6.528e-4 -0.0026,-0.0013 -0.0039,-0.00195 -0.01787,-0.011648 -0.03611,-0.022721 -0.05469,-0.033203 -4.8e-5,-2.69e-5 0.02657,0.021778 0.0332,0.027344 C 26.233106,2.020856 26.074909,2 25.800781,2 Z"
           id="path841"
           inkscape:connector-curvature="0"
           sodipodi:nodetypes="sccccccccccccccsscccccccsccccccccccccccccsc" />
        <path
           style="fill:url(#linearGradient8844);fill-opacity:1.0;stroke-width:0.22958736"
           d="M 5.203125,3 C 5.116249,3 5.0429847,3.025951 5.0117188,3.046875 c -0.01,0.00671 -0.00806,0.00693 -0.00977,0.00781 L 5,28.947229 c 0.00203,0.0012 9.507e-4,-2.2e-5 0.00977,0.0059 0.031146,0.02083 0.104183,0.04687 0.1914063,0.04687 h 19.7988247 0.798827 c 0.08722,0 0.159915,-0.0259 0.191406,-0.04687 0.0089,-0.0059 0.0077,-0.0046 0.0098,-0.0059 l -3.3e-5,-17.44723 -9,-8.5000005 z M 26,28.947229 v 0.02539 c 0,-0.02357 0.0052,-0.02869 0,-0.02539 z M 5.0019531,3.0546875 v -0.027344 c 0,0.00507 -0.00121,0.0059 -0.00195,0.00977 v 0.019531 c 1.181e-4,7.1e-5 0.00158,-0.00176 0.00195,-0.00195 z m 15.9980479,-0.054689 5,5.0000002 0.002,-4.9453112 c -0.0017,-9.445e-4 3.39e-4,-0.00106 -0.0098,-0.00781 C 25.96061,3.0257591 25.887659,3 25.800781,3 Z m 5.001952,0.054689 c 0.0036,0.00201 0,-0.00499 0,-0.027344 z"
           transform="matrix(2.0837337,0,0,2.0837337,1.2218449,231.18341)"
           id="path8800"
           inkscape:connector-curvature="0"
           sodipodi:nodetypes="sccccscsccccsccccccccccccsccccc" />
        <path
           inkscape:connector-curvature="0"
           id="rect9659"
           transform="matrix(0.52093343,0,0,0.52093343,0.52692835,229.79358)"
           d="m 20.685546,10.667955 c -0.802354,7.7e-5 -1.561233,0.207485 -2.18164,0.623047 -0.632985,0.424085 -1.169922,1.143919 -1.169922,2.039062 v 105.337896 1.34181 c 0,0.89652 0.541482,1.61304 1.173828,2.03515 0.619469,0.41347 1.375768,0.62311 2.177734,0.62305 h 8.648438 V 10.667955 Z"
           style="opacity:1;vector-effect:none;fill:#000000;fill-opacity:1;stroke:none;stroke-width:0.99999994"
           sodipodi:nodetypes="ccscsccccc" />
        <path
           style="fill:#f8f7a6;fill-opacity:1;stroke-width:0.20282681"
           d="m 32.300117,264.45324 c -0.452743,0.0211 -0.979862,0.0963 -2.83789,0.19336 a 0.68391683,0.68391683 0 0 0 -0.148438,0.0254 c -0.551322,0.1542 -1.126945,0.3451 -1.68164,0.66015 -0.0012,6.5e-4 -0.0027,10e-4 -0.0039,0.002 -0.630108,0.3443 -1.280999,0.76116 -1.835937,1.3457 -0.708148,0.56417 -1.211849,1.22703 -1.480469,1.89844 -0.273895,0.68459 -0.340848,1.40303 -0.0078,2.01758 0.333036,0.61454 1.113955,0.93533 1.910156,0.8164 0.796201,-0.11893 1.689871,-0.56287 2.769531,-1.40039 l -0.03516,0.0254 c 1.051385,-0.71355 1.572251,-0.94222 2.126953,-1.13867 2.138973,-0.72895 3.365333,-0.0419 4.058594,0.75391 a 0.68391683,0.68391683 0 0 0 0.101562,0.0937 c 0.294103,0.22454 0.395077,0.46419 0.421875,0.83398 0.0268,0.36979 -0.06902,0.85236 -0.24414,1.33594 -0.350233,0.96716 -0.998957,1.92501 -1.195313,2.19336 a 0.68391683,0.68391683 0 0 0 -0.0098,0.0156 c -1.143617,1.65305 -1.470817,3.72801 -1.888672,5.4668 a 0.68391683,0.68391683 0 0 0 -0.01367,0.0684 c -0.217844,1.62303 -0.163614,3.87725 1.333984,5.29297 1.101979,1.15586 2.620975,1.50741 4.025391,1.56445 1.39831,0.0568 2.736874,-0.16419 3.607422,-0.24805 l 0.01953,-0.002 a 0.68391683,0.68391683 0 0 0 0.02344,0 c 7e-6,0 0.0088,-0.002 0.0098,-0.002 -0.02418,0.003 -0.03696,0.004 0.0293,-0.002 a 0.68391683,0.68391683 0 0 0 0.177734,-0.043 c 2.489414,-0.23033 4.876096,-1.68273 7.064453,-3.7793 a 0.68391683,0.68391683 0 0 0 0.07422,-0.084 c 0.05587,-0.0746 0.111455,-0.14673 0.164063,-0.21484 v -0.002 c 0.656413,-0.84657 1.480568,-2.44538 2.412109,-3.67969 a 0.68391683,0.68391683 0 0 0 0.03516,-0.0488 c 0.345613,-0.55147 0.485052,-1.09766 0.654297,-1.52734 a 0.68391683,0.68391683 0 0 0 0.002,-0.006 c 0.136233,-0.35781 0.244493,-0.69186 0.369141,-0.97852 a 0.68391683,0.68391683 0 0 0 0,-0.002 c 0.08307,-0.19146 0.06062,-0.39598 0.01953,-0.51562 -0.04109,-0.11965 -0.09079,-0.18438 -0.130859,-0.23438 -0.08014,-0.1 -0.139956,-0.14513 -0.201172,-0.19141 -0.122432,-0.0925 -0.248984,-0.16767 -0.398438,-0.25 -0.298907,-0.16466 -0.677354,-0.34368 -1.064453,-0.51171 -0.387098,-0.16804 -0.777171,-0.32183 -1.101562,-0.42774 -0.162196,-0.053 -0.30191,-0.0949 -0.453125,-0.12109 -0.07561,-0.0131 -0.149534,-0.0273 -0.277344,-0.0176 -0.0639,0.005 -0.146205,0.0147 -0.261719,0.0664 -0.113043,0.0506 -0.270784,0.17477 -0.355468,0.35937 -0.274627,0.47635 -0.47731,0.97058 -0.638672,1.44922 a 0.68391683,0.68391683 0 0 0 -0.0039,0.0156 c -0.08358,0.26776 -0.163675,0.5175 -0.246093,0.76368 -0.02498,0.0338 -0.06547,0.0746 -0.09766,0.11718 -0.15683,0.20733 -0.367607,0.50194 -0.375,0.51172 a 0.68391683,0.68391683 0 0 0 -0.01563,0.0215 c -1.213236,1.73757 -1.878574,2.82974 -2.679687,3.57226 -0.798871,0.74045 -1.788071,1.2303 -3.84375,1.76953 -1.575246,0.31201 -2.538069,0.29208 -2.861328,0.10157 -0.16271,-0.0959 -0.258133,-0.20725 -0.34375,-0.53516 -0.08456,-0.32387 -0.112354,-0.85164 -0.05469,-1.5625 0.05073,-0.28276 0.130706,-0.59513 0.201172,-0.93945 0.381406,-1.22154 0.603576,-2.16886 1.248047,-3.04493 a 0.68391683,0.68391683 0 0 0 0.07227,-0.12304 c 0.07196,-0.15903 0.156878,-0.37674 0.234375,-0.58203 0.03875,-0.10265 0.07416,-0.1989 0.101562,-0.27539 0.01079,-0.0301 0.01894,-0.0556 0.02734,-0.0801 0.119346,-0.17705 0.363329,-0.50942 0.570312,-0.96094 0.983164,-1.41018 0.815316,-3.15028 0.740235,-4.56055 a 0.68391683,0.68391683 0 0 0 -0.0059,-0.0469 c -0.09481,-0.76269 -0.314329,-1.53379 -0.75,-2.23242 a 0.68391683,0.68391683 0 0 0 -0.05273,-0.0742 c -0.31825,-0.38562 -0.330922,-0.46531 -0.498047,-0.68555 -0.167124,-0.22024 -0.383025,-0.39656 -0.884765,-0.75586 a 0.68391683,0.68391683 0 0 0 -0.05078,-0.0312 c 0.0016,0.001 -0.01155,-0.008 -0.0078,-0.006 a 0.68391683,0.68391683 0 0 0 -0.002,-0.002 c -0.0068,-0.004 -0.01267,-0.009 -0.02344,-0.0156 -0.03108,-0.0202 -0.07588,-0.0492 -0.128906,-0.084 -0.106046,-0.0695 -0.246673,-0.16203 -0.386719,-0.25391 -0.140046,-0.0919 -0.280475,-0.18277 -0.390625,-0.2539 -0.05508,-0.0356 -0.101774,-0.0656 -0.140625,-0.0898 -0.01943,-0.0121 -0.03545,-0.0219 -0.05469,-0.0332 -0.0096,-0.006 -0.02092,-0.0128 -0.03711,-0.0215 -0.0081,-0.004 -0.01722,-0.008 -0.0332,-0.0156 -0.01569,-0.007 -0.08658,-0.0359 -0.08984,-0.0371 h -0.002 c -1.0797,-0.34354 -1.662239,-0.47028 -2.058593,-0.5039 -0.198355,-0.0168 -0.358212,-0.0113 -0.521485,0.0332 -8.72e-4,2.4e-4 -0.0011,0.002 -0.002,0.002 -0.895272,-0.1111 -1.288699,-0.17134 -1.697266,-0.15234 z m 1.523438,0.22265 c -0.01335,0.007 -0.0337,0.013 -0.04492,0.0195 -0.05478,0.0321 -0.09965,0.0447 0.03711,-0.0176 z"
           id="path7910-9"
           inkscape:connector-curvature="0" />
      </g>
    </g>
  </g>
</svg>
