<svg enable-background="new 0 0 128 128" height="48" viewBox="0 0 48 48" width="48" xmlns="http://www.w3.org/2000/svg" xmlns:xlink="http://www.w3.org/1999/xlink"><linearGradient id="a"><stop offset="0" stop-color="#fff"/><stop offset="1" stop-color="#555753"/></linearGradient><linearGradient id="b" gradientUnits="userSpaceOnUse" x1="94.343803" x2="86.535599" xlink:href="#a" y1="102.3447" y2="94.536598"/><linearGradient id="c" gradientUnits="userSpaceOnUse" x1="95" x2="86.586502" xlink:href="#a" y1="103" y2="94.586502"/><linearGradient id="d" gradientUnits="userSpaceOnUse" x1="95" x2="87.292999" y1="103" y2="95.292999"><stop offset="0" stop-color="#fff"/><stop offset="1" stop-color="#393b38"/></linearGradient><linearGradient id="e" gradientUnits="userSpaceOnUse" x1="96" x2="88.000198" y1="104" y2="96.000198"><stop offset="0" stop-color="#888a85"/><stop offset=".0072" stop-color="#8c8e89"/><stop offset=".0673" stop-color="#abaca9"/><stop offset=".1347" stop-color="#c5c6c4"/><stop offset=".2115" stop-color="#dbdbda"/><stop offset=".3012" stop-color="#ebebeb"/><stop offset=".4122" stop-color="#f7f7f6"/><stop offset=".5679" stop-color="#fdfdfd"/><stop offset="1" stop-color="#fff"/></linearGradient><radialGradient id="f" cx="102" cy="112.3047" gradientTransform="matrix(.9787234 0 0 .9818182 1.361705 1.163636)" gradientUnits="userSpaceOnUse" r="139.55859"><stop offset="0" stop-color="#535557"/><stop offset=".11366145" stop-color="#898a8c"/><stop offset=".20296688" stop-color="#ececec"/><stop offset=".2363" stop-color="#fafafa"/><stop offset=".2722" stop-color="#fff"/><stop offset=".5313" stop-color="#fafafa"/><stop offset=".8449" stop-color="#ebecec"/><stop offset="1" stop-color="#e1e2e3"/></radialGradient><radialGradient id="g" cx="102.000002" cy="112.3047" gradientUnits="userSpaceOnUse" r="139.5585"><stop offset="0" stop-color="#00537d"/><stop offset=".0151" stop-color="#186389"/><stop offset=".0558" stop-color="#558ca8"/><stop offset=".0964" stop-color="#89afc3"/><stop offset=".1357" stop-color="#b3ccd8"/><stop offset=".1737" stop-color="#d4e2e9"/><stop offset=".2099" stop-color="#ecf2f5"/><stop offset=".2435" stop-color="#fafcfd"/><stop offset=".2722" stop-color="#fff"/></radialGradient><filter id="h"><feGaussianBlur stdDeviation="1.0394514"/></filter><filter id="i"><feGaussianBlur stdDeviation=".50063244"/></filter><filter id="j" color-interpolation-filters="sRGB" height="1.048" width="1.048" x="-.024" y="-.024"><feGaussianBlur stdDeviation=".79012543"/></filter><radialGradient id="k" cx="-65.04158" cy="84.778641" gradientUnits="userSpaceOnUse" r="36.458652"><stop offset="0" stop-color="#92e128"/><stop offset="1" stop-color="#569d0a" stop-opacity=".996078"/></radialGradient><filter id="l" color-interpolation-filters="sRGB" height="1.048" width="1.048" x="-.024" y="-.024"><feGaussianBlur stdDeviation=".72917305"/></filter><filter id="m" color-interpolation-filters="sRGB" height="1.096" width="1.096" x="-.048" y="-.048"><feGaussianBlur stdDeviation=".78129363"/></filter><linearGradient id="n" gradientTransform="matrix(1 0 0 .80878252 0 .272859)" gradientUnits="userSpaceOnUse" x1="-67.976425" x2="-66.816696" y1="24.103317" y2="72.311111"><stop offset="0" stop-color="#fff"/><stop offset="1" stop-color="#fff" stop-opacity="0"/></linearGradient><g transform="matrix(.375 0 0 .375 0 -.0012)"><path d="m23 9 .04082 112h61.13118c.53 0 1.039-.211 1.414-.586l32.828-32.828c.375-.375.586-.884.586-1.414v-77.172z" filter="url(#h)" opacity=".306849" transform="matrix(1.0416667 0 0 1.0357143 -9.958333 -3.321534)"/><path d="m24.919999 10.931136v108.137934l58.676001-.0001c.53 0 1.039-.211 1.414-.586l31.484-31.765936c.375-.375.586-.884.586-1.414v-74.371898z" filter="url(#i)" opacity=".89589" transform="matrix(1.0416667 0 0 1.0357143 -9.958333 -3.321534)"/><path d="m23 9.9655172.040816 111.0344828h61.131184c.53 0 1.039-.211 1.414-.586l32.828-32.828c.375-.375.586-.884.586-1.414v-76.2064828z" filter="url(#h)" opacity=".306849" transform="matrix(1.0416667 0 0 1.0357143 -9.958333 -3.321534)"/><path d="m16.000002 8v112h61.172c.53 0 1.039-.211 1.414-.586l32.827998-32.828c.375-.375.586-.884.586-1.414v-77.172z" fill="url(#g)"/><path d="m19.678725 10.7c-.539276 0-.978723.440836-.978723.981818l-.1 104.736362c0 .54197.439447.98182.978723.98182l57.313022.6c.257404 0 .509915-.10407.691957-.28767l32.129526-32.23113c.18303-.1836.28677-.435927.28677-.694145l-.7-73.105237c0-.540982-.43847-.981818-.97872-.981818z" fill="url(#f)"/><g transform="translate(.000002)"><path d="m111.414 86.586c.25-.25-18.379 6.414-23.414 6.414-1.654 0-3 1.346-3 3 0 5.035-6.664 23.664-6.414 23.414z" fill="url(#b)" opacity=".1"/><path d="m111.414 86.586c.375-.375-13.97 7.414-23.414 7.414-1.103 0-2 .897-2 2 0 9.444-7.789 23.789-7.414 23.414z" fill="url(#c)" opacity=".1"/><path d="m111.414 86.586c.239-.239-13.607 8.414-23.414 8.414-.553 0-1 .447-1 1 0 9.807-8.653 23.653-8.414 23.414z" fill="url(#d)" opacity=".1"/><path d="m78.586 119.414s11.914-9.914 17.414-15.414 15.414-17.414 15.414-17.414-13.164 9.414-23.414 9.414c0 10.25-9.414 23.414-9.414 23.414z" fill="url(#e)"/></g></g><g transform="matrix(.26420523 0 0 .26420523 54.67025625 -5.823393375)"><circle cx="-65.04158" cy="63.78297" fill="#858585" filter="url(#j)" opacity=".759" r="39.506271"/><circle cx="-65.04158" cy="61.78297" fill="#588429" r="38.398045"/><circle cx="-65.04158" cy="61.78297" fill="url(#k)" filter="url(#l)" r="36.458652"/><g transform="translate(-44.687018 .853764)"><path d="m-24.261719 42.306641a1.6067665 1.6067665 0 0 0 -1.607422 1.607421v14.017579h-14.017578a1.6067665 1.6067665 0 0 0 -1.607422 1.607421v7.814454a1.6067665 1.6067665 0 0 0 1.607422 1.607422h14.017578v14.017578a1.6067665 1.6067665 0 0 0 1.607422 1.607422h7.814453a1.6067665 1.6067665 0 0 0 1.607422-1.607422v-14.017578h14.01757838a1.6067665 1.6067665 0 0 0 1.60742187-1.607422v-7.814454a1.6067665 1.6067665 0 0 0 -1.60742187-1.607421h-14.01757838v-14.017579a1.6067665 1.6067665 0 0 0 -1.607422-1.607421z" fill="#4d7424" filter="url(#m)" transform="matrix(1.2 0 0 1.2 4.070912 -12.585841)"/><path d="m-25.042969 35.755859a.86251455.86251455 0 0 0 -.863281.863282v17.888671h-17.886719a.86251455.86251455 0 0 0 -.863281.863282v9.375a.86251455.86251455 0 0 0 .863281.863281h17.886719v17.888672a.86251455.86251455 0 0 0 .863281.863281h9.376953a.86251455.86251455 0 0 0 .863282-.863281v-17.888672h17.8867184a.86251455.86251455 0 0 0 .8632812-.863281v-9.375a.86251455.86251455 0 0 0 -.8632812-.863282h-17.8867184v-17.888671a.86251455.86251455 0 0 0 -.863282-.863282z" fill="#fff"/></g><ellipse cx="-65.04158" cy="50.241848" fill="url(#n)" rx="28.978132" ry="23.437006"/></g></svg>