<svg height="48" viewBox="0 0 12.7 12.7" width="48" xmlns="http://www.w3.org/2000/svg" xmlns:xlink="http://www.w3.org/1999/xlink"><linearGradient id="a"><stop offset="0" stop-color="#717174"/><stop offset=".5" stop-color="#9c9ca1"/><stop offset="1" stop-color="#bdbdc2"/></linearGradient><linearGradient id="b"><stop offset="0" stop-color="#fff"/><stop offset=".42597079" stop-color="#fff"/><stop offset=".5892781" stop-color="#e5e5e5"/><stop offset=".80219781" stop-color="#eaeaea"/><stop offset="1" stop-color="#eee"/></linearGradient><linearGradient id="c"><stop offset="0" stop-color="#fff"/><stop offset="1" stop-color="#fff" stop-opacity="0"/></linearGradient><linearGradient id="d" gradientTransform="matrix(.09253752 0 0 .14870594 -6.00486 -81.716489)" gradientUnits="userSpaceOnUse" x1="399.77466" x2="399.77466" xlink:href="#a" y1="1164.6696" y2="549.06134"/><linearGradient id="e" gradientTransform="matrix(.76189483 0 0 1.0158609 -3.046726 -19.300523)" gradientUnits="userSpaceOnUse" x1="119.57646" x2="15.999996" xlink:href="#b" y1="23.792561" y2="109.6508"/><linearGradient id="f" gradientTransform="matrix(0 -1.5567869 -1.9490254 0 106.80782 178.18008)" gradientUnits="userSpaceOnUse" x1="98.412094" x2="80.140785" xlink:href="#c" y1="14.666067" y2="43.85453"/><linearGradient id="g" gradientUnits="userSpaceOnUse" x1="14.111111" x2="31.044445" y1="274.42221" y2="274.42221"><stop offset="0" stop-color="#b4b4b6"/><stop offset=".5" stop-color="#9c9ca1"/><stop offset="1" stop-color="#cdcdd1"/></linearGradient><linearGradient id="h" gradientUnits="userSpaceOnUse" x1="31.05534584097" x2="33.51384356" xlink:href="#a" y1="265.11773815528" y2="274.58352851936"/><linearGradient id="i" gradientUnits="userSpaceOnUse" x1="12.700001" x2="31.044445" xlink:href="#b" y1="282.88885" y2="267.36664"/><linearGradient id="j" gradientUnits="userSpaceOnUse" x1="24" x2="42" xlink:href="#c" y1="19.999994" y2="11.999994"/><g transform="matrix(.375 0 0 .375 0 -98.67499)"><use height="100%" transform="translate(-17.638884 .000014)" width="100%" xlink:href="#k"/><use height="100%" transform="translate(-27.516662 9.877806)" width="100%" xlink:href="#k"/><use height="100%" transform="translate(-27.516666 27.516695)" width="100%" xlink:href="#k"/><use height="100%" transform="translate(-9.877776 27.516695)" width="100%" xlink:href="#k"/><use height="100%" transform="translate(.000005 17.638901)" width="100%" xlink:href="#k"/><path d="m-2.418799 260.71451h38.704266v38.704266h-38.704266z" fill="#e7e7e7" opacity="0"/><g transform="matrix(.19843693 0 0 .19843693 4.233168 275.11099)"><rect fill="url(#d)" height="78.22245" opacity=".75" rx="3.628262" ry="4.219727" transform="matrix(0 1 1 0 0 0)" width="78.22245" x="7.195595" y="3.5564"/><g fill-rule="evenodd"><rect fill="url(#e)" height="71.11132" rx="1.687967" ry="2.031721" transform="matrix(0 1 1 0 0 0)" width="71.11132" x="10.751161" y="7.111966"/><path d="m78.223283 34.790808c-18.375614 16.632131-46.993355 30.60084-71.1113172 40.313773v-42.373857c23.0900672-2.37329 52.6914212-4.781059 71.1113172-14.994113z" fill="url(#f)"/></g></g><path id="k" d="m30.338884 264.5444h2.116671v2.116661h-2.116671z" fill="url(#h)"/><circle cx="22.577778" cy="274.42221" fill="url(#g)" r="8.466667"/><circle cx="22.577778" cy="274.42221" fill="url(#i)" r="7.761111"/><path d="m40.314453 8.8183594c-5.79639 3.0346146-13.02382 6.3177766-19.310547 7.0937496a11 11 0 0 0 -.003906.087891 11 11 0 0 0 7.044922 10.25c5.355679-3.610579 10.593611-8.300779 14.796875-12.107422a11 11 0 0 0 -2.527344-5.3242186z" fill="url(#j)" fill-rule="evenodd" transform="matrix(.70555556 0 0 .70555556 0 263.13331)"/></g></svg>