<svg height="48" width="48" xmlns="http://www.w3.org/2000/svg" xmlns:xlink="http://www.w3.org/1999/xlink"><linearGradient id="a" gradientTransform="matrix(.01012142 0 0 .01626492 -71.03189 127.18706)" gradientUnits="userSpaceOnUse" x1="399.77466" x2="399.77466" y1="1164.6696" y2="549.06134"><stop offset="0" stop-color="#717174"/><stop offset=".5" stop-color="#9c9ca1"/><stop offset="1" stop-color="#cdcdd1"/></linearGradient><linearGradient id="b" gradientTransform="matrix(.07812501 0 0 .1041667 -70.374995 134.45835)" gradientUnits="userSpaceOnUse" x1="119.57646" x2="15.999996" y1="23.792561" y2="109.6508"><stop offset="0" stop-color="#fff"/><stop offset=".42597079" stop-color="#fff"/><stop offset=".5892781" stop-color="#e5e5e5"/><stop offset=".80219781" stop-color="#eaeaea"/><stop offset="1" stop-color="#eee"/></linearGradient><linearGradient id="c" gradientTransform="matrix(0 -.14400507 -.18028758 0 146.87019 -52.919642)" gradientUnits="userSpaceOnUse" x1="102.31124" x2="74.330322" xlink:href="#d" y1="-5.830213" y2="32"/><linearGradient id="d"><stop offset="0" stop-color="#fff"/><stop offset="1" stop-color="#fff" stop-opacity="0"/></linearGradient><radialGradient id="e" cx="-65.375" cy="141.125" gradientTransform="matrix(.9374998 0 0 .9374995 -4.085953 8.820384)" gradientUnits="userSpaceOnUse" r="4"><stop offset="0" stop-color="#a9cbfc"/><stop offset="1" stop-color="#aecffc"/></radialGradient><radialGradient id="f" cx="141.125" cy="-65.375" gradientTransform="matrix(.64835825 0 0 .64639782 51.199684 -21.352393)" gradientUnits="userSpaceOnUse" r="4"><stop offset="0" stop-color="#8fbcff"/><stop offset="1" stop-color="#80b3ff"/></radialGradient><linearGradient id="g" gradientTransform="matrix(0 -.13680524 -.17127373 0 146.76003 -54.012449)" gradientUnits="userSpaceOnUse" x1="102.31124" x2="74.330322" xlink:href="#d" y1="-5.830213" y2="32"/><g transform="matrix(2.742823725 0 0 2.742823725 -367.5810225 198.8121615)"><rect fill="url(#a)" height="8.020933" rx=".396846" ry=".461539" transform="matrix(0 1 1 0 0 0)" width="8.020932" x="-67.744843" y="138.75519"/><g fill-rule="evenodd"><rect fill="url(#e)" height="7.291751" rx=".173085" ry=".208333" transform="matrix(0 1 1 0 0 0)" width="7.291759" x="-67.380257" y="139.11978"/><path d="m146.22924-65.454352c-1.5282 1.379015-5.05424 4.560528-7.06 5.365854l-.023-3.742519c1.92027-.196776 5.55107-2.470692 7.08296-3.317479z" fill="url(#f)"/></g></g><g transform="matrix(2.742822675 0 0 2.742822675 -352.79526375 213.59762025)"><rect fill="url(#a)" height="8.020929" opacity=".75" rx=".396846" ry=".461539" transform="matrix(0 1 1 0 0 0)" width="8.020976" x="-69.489586" y="137.01041"/><g fill-rule="evenodd"><rect fill="url(#b)" height="7.291779" rx=".173085" ry=".208333" transform="matrix(0 1 1 0 0 0)" width="7.291722" x="-69.125" y="137.375"/><path d="m144.66676-66.937474c-1.69976 1.538491-5.06078 4.50321-7.29173 5.401668v-3.919638c2.13587-.219533 5.58786-2.427379 7.29173-3.372093z" fill="url(#c)"/></g></g><g transform="matrix(2.742822675 0 0 2.742822675 -372.79528125 194.597619)"><rect fill="url(#a)" height="8.02094" opacity=".75" rx=".396846" ry=".461539" transform="matrix(0 1 1 0 0 0)" width="8.020931" x="-69.489586" y="137.375"/><g fill-rule="evenodd"><rect fill="url(#b)" height="7.291759" rx=".173085" ry=".208333" transform="matrix(0 1 1 0 0 0)" width="7.291758" x="-69.125" y="137.73959"/><path d="m144.66676-67.329431c-1.61478 1.461571-4.80776 4.278063-6.92716 5.131601v-3.723668c2.02908-.208557 5.30848-2.306017 6.92716-3.203498z" fill="url(#g)"/></g></g></svg>