<svg viewBox="0 0 22 22" xmlns="http://www.w3.org/2000/svg" xmlns:xlink="http://www.w3.org/1999/xlink"><radialGradient id="a" cx="11" cy="11" gradientTransform="matrix(1 0 0 1.6 0 -6.6)" gradientUnits="userSpaceOnUse" r="5"><stop offset="0" stop-color="#fff"/><stop offset="1" stop-color="#fff" stop-opacity=".944444"/></radialGradient><filter id="b" color-interpolation-filters="sRGB" height="1.12" width="1.18" x="-.09" y="-.06"><feGaussianBlur stdDeviation=".45"/></filter><path d="m6 2c-.5522619.0000552-.9999448.4477381-1 1v16c.0000552.552262.4477381.999945 1 1h10c.552262-.000055.999945-.447738 1-1v-16c-.000055-.5522619-.447738-.9999448-1-1zm0 1h10v16h-10zm3 1v1h4v-1zm-2 2v5.5l1.1035156-.275391c.024083-.08925.0576988-.175243.0898438-.261718.00309-.0174.0371666-.115101.0253906-.085938-.00322.008.0130928-.025754.0117188-.021484v-.001953c.050238-.120702.1081326-.238213.1738281-.351563l-.5859375-.9765624.7070312-.7070312.9765625.5859375c.047229-.02711.097919-.0477896.1464844-.0722657.026833-.018067.1308657-.0709055.0957031-.0546874-.021118.00974.05738-.0214604.0625-.0214844.1354971-.05863.2730734-.1104513.4160154-.1484375l.277344-1.1074219h1l.275391 1.1035156c.107767.029094.21276.066621.316406.1074219.01801.00709.036817.0120942.054687.0195313-.0038-.00174.021305.0062862.015625.0039062-.04679-.019654.0689.0325589.117188.0605469.07366.035.14806.068405.21875.109375l.976562-.5859375.707032.7070312-.585938.9765624c.01087.01894.018847.039434.029297.058594.0167.02287.070194.120474.052734.085937-.02342-.04633.031132.06966.050782.125.03006.06713.055028.135907.080078.205078.03788.089571.083563.223774.064453.160157-.0082-.0272.015955.068315.015625.072265.0012.0046.002706.009102.003906.013672l1.107422.277344v-5.5zm1 1h2.5c-.459166-.0001816-.8594642.3123251-.9707031.7578125l-.1074219.4316406-.3828125-.2285156c-.3202698-.1922458-.7209812-.1899861-1.0390625.0058594zm3.527344 0h2.472656v.96875c-.317716-.1964481-.718429-.1994609-1.039062-.0078125l-.382813.2285156-.107422-.4316406c-.108636-.4357613-.494424-.7456702-.943359-.7578125zm-.527344 3a2 2 0 0 0 -2 2 2 2 0 0 0 2 2 2 2 0 0 0 2-2 2 2 0 0 0 -2-2zm0 1a1 1 0 0 1 1 1 1 1 0 0 1 -1 1 1 1 0 0 1 -1-1 1 1 0 0 1 1-1zm-4 1.5v3.5 1h2 4 2v-1-3.5l-1.103516.275391c-.0067.0247-.0181.047765-.02539.072265-.000429.0073-.026698.11004-.017578.082032.01226-.03764-.029162.07299-.044922.103515-.03732.100836-.08097.198642-.128906.294922-.018061.04727-.075105.161668-.052735.121094.0076-.01386-.025621.039669-.025391.037109-.0022.0038-.003659.007899-.005859.011719l.585938.976562-.707032.707032-.976562-.585938c-.0043.0025-.009402.00336-.013672.005859.000439.001501-.061802.040481-.044922.03125.04726-.025829-.07501.034947-.140625.060547-.08324.03994-.167365.07731-.253906.109375-.04869.02342-.170429.067345-.125.052735.03279-.01055-.072543.018494-.095703.021484-.0159.0045-.030895.011375-.046875.015625l-.277344 1.107422h-1l-.275391-1.103516c-.150439-.04061-.2954609-.09687-.4374996-.160156-.012282-.0024-.1018786-.039574-.0761719-.027344.036256.01725-.0684362-.038533-.0976563-.058593-.0366379-.01925-.075477-.033908-.1113281-.054688l-.9765625.585938-.7070312-.707032.5859375-.976562c-.064939-.11315-.1222912-.231199-.171875-.351563-.0007858-.0019-.0011732-.003859-.0019531-.005859-.00185-.000348-.0326317-.069371-.0253907-.050781.01939.04977-.0243736-.0792-.0410156-.146485-.018396-.05567-.0415176-.10926-.0566406-.166015zm2.421875 3.310547.046875.189453h-.3652344zm3.15625 0 .318359.189453h-.365234z" fill="#0a0a0a" filter="url(#b)"/><path d="m6 3v16h10v-16zm3 1h4v1h-4zm-2 2h8v5.5l-1.107422-.277344c-.0672-.2522-.166996-.494403-.296875-.720703l.585938-.9765624-.707032-.7070312-.976562.5859375c-.226716-.1314-.469668-.2324813-.722656-.3007813l-.275391-1.1035156h-1l-.277344 1.1074219c-.2521217.067-.4944009.166975-.7207029.296875l-.9765625-.5859375-.7070312.7070312.5859375.9765624c-.131391.2267-.2325113.469656-.3007813.722656l-1.1035156.275391zm4.089844 4.001953a2 2 0 0 1 1.896484 1.767578l-.001953.482422a2 2 0 0 1 -2.117187 1.744141 2 2 0 0 1 -1.867188-2.007813 2 2 0 0 1 1.890625-1.984375 2 2 0 0 1 .199219-.001953zm-4.089844 2.498047 1.1074219.277344c.0672.2522.166996.494403.296875.720703l-.5859375.976562.7070312.707032.9765625-.585938c.226716.1314.4696683.232481.7226559.300781l.275391 1.103516h1l.277344-1.107422c.252122-.067.494401-.166975.720703-.296875l.976562.585938.707032-.707032-.585938-.976562c.131391-.2267.232511-.469656.300781-.722656l1.103516-.275391v3.5 1h-2-4-2v-1z" fill="url(#a)"/></svg>