<svg height="24" width="24" xmlns="http://www.w3.org/2000/svg" xmlns:xlink="http://www.w3.org/1999/xlink"><linearGradient id="a" gradientUnits="userSpaceOnUse" x1="60" x2="60" y1="84" y2="-44"><stop offset="0" stop-color="#0968ef"/><stop offset="1" stop-color="#aecffc"/></linearGradient><linearGradient id="b"><stop offset="0" stop-color="#fd0000"/><stop offset="1" stop-color="#8f0000"/></linearGradient><linearGradient id="c" gradientUnits="userSpaceOnUse" x1="116.34141850267" x2="120.84986371154" y1="70.98455687015" y2="87.81030398263"><stop offset="0" stop-color="#fff"/><stop offset="1" stop-color="#fff" stop-opacity="0"/></linearGradient><radialGradient id="d" cx="72.631729" cy="22.787588" gradientTransform="matrix(7.7059398 0 0 7.7059557 -440.37922 -87.940462)" gradientUnits="userSpaceOnUse" r="1.265237" xlink:href="#b"/><linearGradient id="e" gradientUnits="userSpaceOnUse" x1="121.81646423229" x2="125.81638057691" xlink:href="#b" y1="58.18281769568" y2="94.182311388"/><g transform="matrix(.1875 0 0 .1875 -.000015 .00002)"><path d="m42.428242 77.031991c-6.873052-5.088768-7.259957-15.100417-2.356546-21.673151 6.726682-9.01672 19.896314-9.507729 28.527372-3.021859 11.764207 8.840296 12.383955 26.067778 3.854783 37.339227-11.553502 15.268152-33.968891 16.046312-48.610499 4.892642-19.7155666-15.018907-20.6877156-44.034905-6.180018-62.957532 19.423706-25.3346562 56.798677-26.5432519 81.134304-7.769962 15.952902 12.306582 25.403362 31.599141 26.494212 51.606862" fill="none" stroke="url(#a)" stroke-width="5.333" transform="translate(-5 8)"/><rect fill="url(#e)" height="16.000017" rx="2.249968" width="16.000023" x="112.00014" y="74.666603"/><rect fill="url(#d)" height="10.666683" rx="1.218733" width="10.666681" x="114.66681" y="77.333267"/><path d="m115.88477 77.333984c-.67518 0-1.21875.543572-1.21875 1.21875v6.234375c.60119.03652 1.20821.0625 1.82812.0625 3.26081 0 6.29512-.479627 8.83984-1.30664v-4.990235c0-.675178-.54357-1.21875-1.21875-1.21875z" fill="url(#c)"/><g transform="translate(-82.666768 .000003)"><rect fill="url(#e)" height="16.000017" rx="2.249968" width="16.000023" x="112.00014" y="74.666603"/><rect fill="url(#d)" height="10.666683" rx="1.218733" width="10.666681" x="114.66681" y="77.333267"/><path d="m115.88477 77.333984c-.67518 0-1.21875.543572-1.21875 1.21875v6.234375c.60119.03652 1.20821.0625 1.82812.0625 3.26081 0 6.29512-.479627 8.83984-1.30664v-4.990235c0-.675178-.54357-1.21875-1.21875-1.21875z" fill="url(#c)"/></g></g></svg>