<svg height="24" viewBox="0 0 24 24" width="24" xmlns="http://www.w3.org/2000/svg" xmlns:xlink="http://www.w3.org/1999/xlink"><linearGradient id="a" gradientUnits="userSpaceOnUse" x1="58.651283" x2="78.743713" y1="18.026964" y2="51.113689"><stop offset="0" stop-color="#e4e7eb"/><stop offset="1" stop-color="#f0f2f4"/></linearGradient><linearGradient id="b" gradientUnits="userSpaceOnUse" x1="53.749546" x2="93.753166" y1="7.869188" y2="58.52047"><stop offset="0" stop-color="#fff"/><stop offset="1" stop-color="#fff" stop-opacity="0"/></linearGradient><g transform="matrix(.1875 0 0 .1875 -.000006375 11.5000225)"><path d="m16 8.0039062a5.3305706 5.3305706 0 0 0 -4.09375 8.7421878l26.666016 32a5.3305706 5.3305706 0 0 0 4.09375 1.917968h69.333984a5.3305706 5.3305706 0 0 0 4.09375-8.742187l-26.666016-32a5.3305706 5.3305706 0 0 0 -4.09375-1.9179688z" fill="#848484" fill-opacity=".952941"/><path d="m16.000022 13.3332 26.6667 32.00004h69.333418l-26.666698-32.00004z" fill="url(#a)"/><path d="m16.000022 13.3332 15.693661 18.870929c8.276134.624083 14.44238 1.751346 22.991592 1.764115 19.858152-.0017 27.305195-1.496568 43.981517-4.635024l-13.33335-16.00002z" fill="url(#b)"/></g><g transform="matrix(.1875 0 0 .1875 -.000010125 6.500035)"><path d="m16 8.0039062a5.3305706 5.3305706 0 0 0 -4.09375 8.7421878l26.666016 32a5.3305706 5.3305706 0 0 0 4.09375 1.917968h69.333984a5.3305706 5.3305706 0 0 0 4.09375-8.742187l-26.666016-32a5.3305706 5.3305706 0 0 0 -4.09375-1.9179688z" fill="#848484" fill-opacity=".952941"/><path d="m16.000022 13.3332 26.6667 32.00004h69.333418l-26.666698-32.00004z" fill="url(#a)"/><path d="m16.000022 13.3332 15.693661 18.870929c8.276134.624083 14.44238 1.751346 22.991592 1.764115 19.858152-.0017 27.305195-1.496568 43.981517-4.635024l-13.33335-16.00002z" fill="url(#b)"/></g><g transform="matrix(.1875 0 0 .1875 -.000006375 1.50001)"><path d="m16 8.0039062a5.3305706 5.3305706 0 0 0 -4.09375 8.7421878l26.666016 32a5.3305706 5.3305706 0 0 0 4.09375 1.917968h69.333984a5.3305706 5.3305706 0 0 0 4.09375-8.742187l-26.666016-32a5.3305706 5.3305706 0 0 0 -4.09375-1.9179688z" fill="#848484" fill-opacity=".952941"/><path d="m16.000022 13.3332 26.6667 32.00004h69.333418l-26.666698-32.00004z" fill="url(#a)"/><path d="m16.000022 13.3332 15.693661 18.870929c8.276134.624083 14.44238 1.751346 22.991592 1.764115 19.858152-.0017 27.305195-1.496568 43.981517-4.635024l-13.33335-16.00002z" fill="url(#b)"/></g><g fill="none" fill-opacity=".952941" stroke="#5fbaff" stroke-linecap="square" stroke-width=".666625" transform="matrix(1.5 0 0 1.5 -1018.701156 -148.67456)"><path d="m679.46743 99.449694h1.33334"/><path d="m682.80077 99.449694h1.33334"/><path d="m686.13411 99.449694h1.33334"/><path d="m689.46745 99.449694h1.33334"/><path d="m692.80078 99.449694h1.33334"/><g transform="matrix(0 1 -1 0 794.25048 -580.01774)"><path d="m679.46743 99.449694h1.33334"/><path d="m682.80077 99.449694h1.33334"/><path d="m686.13411 99.449694h1.33334"/><path d="m689.46745 99.449694h1.33334"/><path d="m692.80078 99.449694h1.33334"/></g><g transform="matrix(0 1 -1 0 778.91712 -578.6844)"><path d="m679.46743 99.449694h1.33334"/><path d="m682.80077 99.449694h1.33334"/><path d="m686.13411 99.449694h1.33334"/><path d="m689.46745 99.449694h1.33334"/><path d="m692.80078 99.449694.66667-.000008"/></g><g transform="matrix(-1 0 0 -1 1374.26822 214.23274)"><path d="m679.46743 99.449694h1.33334"/><path d="m682.80077 99.449694h1.33334"/><path d="m686.13411 99.449694h1.33334"/><path d="m689.46745 99.449694h1.33334"/><path d="m692.80078 99.449694h1.33334"/></g></g></svg>