<svg height="24" width="24" xmlns="http://www.w3.org/2000/svg" xmlns:xlink="http://www.w3.org/1999/xlink"><linearGradient id="a" gradientTransform="matrix(.9166667 0 0 .4444445 1.333334 3.555557)" gradientUnits="userSpaceOnUse" x1="15.999999" x2="112" y1="100" y2="27.999998"><stop offset="0" stop-color="#fff"/><stop offset=".42597079" stop-color="#fff"/><stop offset=".5892781" stop-color="#f1f1f1"/><stop offset=".80219781" stop-color="#eaeaea"/><stop offset="1" stop-color="#dfdfdf"/></linearGradient><linearGradient id="b" gradientTransform="matrix(.1053583 0 0 .07807154 1.162114 -34.902122)" gradientUnits="userSpaceOnUse" x1="399.77466" x2="399.77466" y1="1164.6696" y2="549.06134"><stop offset="0" stop-color="#b4b4b6"/><stop offset=".5" stop-color="#9c9ca1"/><stop offset="1" stop-color="#cdcdd1"/></linearGradient><linearGradient id="c"><stop offset="0" stop-color="#0968ef"/><stop offset="1" stop-color="#aecffc"/></linearGradient><linearGradient id="d" gradientUnits="userSpaceOnUse" x1="22.0625" x2="53.125" y1="32" y2="32"><stop offset="0" stop-color="#fff"/><stop offset="1" stop-color="#fff" stop-opacity="0"/></linearGradient><linearGradient id="e" gradientTransform="matrix(-.12331698 .19191107 .19191107 .12331698 11.703936 248.42568)" gradientUnits="userSpaceOnUse" x1="113.15723" x2="39.268185" xlink:href="#c" y1="25.786163" y2="25.786163"/><linearGradient id="f" gradientTransform="matrix(.09972696 -.18391508 -.18391508 -.09972696 24.215808 310.28697)" gradientUnits="userSpaceOnUse" x1="113.15723" x2="39.268185" xlink:href="#c" y1="25.786163" y2="25.786163"/><g transform="matrix(.1875 0 0 .1875 -.000001 0)"><path d="m.000086.000012h127.99992v127.99992h-127.99992z" fill="none" opacity="0" stroke-width="5.33333"/><rect fill="url(#b)" height="53.33326" rx="2.857143" ry="2.769231" width="53.33334" x="10.66666" y="10.66674"/><rect fill="url(#a)" fill-rule="evenodd" height="42.66671" rx="1.5" ry="1.444445" width="42.66663" x="16" y="16"/><path d="m36 16c-10.683566 9.428082-12.979672 27.625616-19.21875 40h27.21875c1.52447-11.846983-1.435306-30.549154 5.125-40z" fill="url(#d)" fill-rule="evenodd"/><g transform="translate(56 56)"><rect fill="url(#b)" height="53.33334" rx="2.857143" ry="2.769231" width="53.33326" x="8" y="8"/><g fill-rule="evenodd"><rect fill="url(#a)" height="42.66663" rx="1.5" ry="1.444445" width="42.66671" x="13.33329" y="13.33337"/><path d="m37.5416 13.33337c-10.683566 9.428082-14.521272 30.292246-20.76035 42.66663h27.21875c1.52447-11.846983.106294-33.215784 6.6666-42.66663z" fill="url(#d)"/></g></g><g fill-rule="evenodd"><g transform="matrix(-3.7795276 0 0 3.7795276 118.855231 -984.38256)"><path d="m12.363281 263.58594c-2.7315087.0806-5.5534955 1.59957-8.1093748 4.8457l-.5976562-1.32226a1.0989086 1.0989086 0 0 0 -1.2363281-.6211l-1.2539063.27344a1.0989086 1.0989086 0 0 0 -.85546872 1.20898l.87890622 7.07227a1.0989086 1.0989086 0 0 0 1.4199219.91406l6.7988281-2.14062a1.0989086 1.0989086 0 0 0 .7363279-1.31055l-.3124998-1.27734a1.0989086 1.0989086 0 0 0 -1.0800781-.8379l-.7460937.01c1.5906492-1.76419 3.0735616-2.69494 4.4101566-2.71875a1.0989086 1.0989086 0 0 0 1.080078-1.09766v-1.90039a1.0989086 1.0989086 0 0 0 -1.132813-1.09765z" fill="#fff" fill-opacity=".838235"/><path d="m12.397113 264.68455c-2.7612822.0815-5.6882779 1.64196-8.3974205 5.85804l-1.3461711-2.97967-1.2526367.27285.8784993 7.07192 6.7980347-2.1394-.3116091-1.27796-3.2308104.0388c2.3687987-3.68642 4.6944028-4.90578 6.8621138-4.9444z" fill="url(#e)"/></g><g transform="matrix(-3.7795276 0 0 3.7795276 134.463279 -1004.8542)"><path d="m31.005859 284.45117a.97297127.97297127 0 0 0 -.332031.0684l-6.072266 2.41992a.97297127.97297127 0 0 0 -.566406 1.20508l.373047 1.14844a.97297127.97297127 0 0 0 1.009766.66797l.96875-.084c-1.591253 2.23643-3.097483 2.90241-4.566407 2.90039a.97297127.97297127 0 0 0 -.974609.97263v1.75195a.97297127.97297127 0 0 0 .984375.97266c2.716639-.0351 5.501968-1.59289 7.835938-5.07422l.671875 1.23242a.97297127.97297127 0 0 0 1.130859.46875l1.126953-.33398a.97297127.97297127 0 0 0 .675781-1.125l-1.285156-6.41016a.97297127.97297127 0 0 0 -.980469-.78125z" fill="#fff" fill-opacity=".915441"/><path d="m31.03335 285.42463-6.071464 2.41949.371553 1.14773 2.952274-.25528c-2.086339 3.84759-4.325027 5.01659-6.467304 5.01365v1.75079c2.726261-.0352 5.556783-1.57416 7.938533-5.96656l1.43402 2.63344 1.127064-.33435z" fill="url(#f)"/></g></g></g></svg>