<svg height="24" viewBox="0 0 6.3499999 6.3500002" width="24" xmlns="http://www.w3.org/2000/svg" xmlns:xlink="http://www.w3.org/1999/xlink"><linearGradient id="a" gradientUnits="userSpaceOnUse" x1="14.816667" x2="14.816667" y1="29.633333" y2="6.35"><stop offset="0" stop-color="#0fd1ff"/><stop offset="1" stop-color="#7df2ff"/></linearGradient><linearGradient id="b" gradientUnits="userSpaceOnUse" x1="40" x2="112" y1="36" y2="36"><stop offset="0" stop-color="#edab1e"/><stop offset="1" stop-color="#f0d845"/></linearGradient><g transform="matrix(.1875 0 0 .1875 -.000004 .000004)"><path d="m4.9388951 19.755538v10.583346h23.9889189v-9.87779c-2.775723 2.072464-6.04751 4.688795-9.277633 4.829491-2.403126-1.901907-1.75727-5.04966-1.804072-7.951269.491743-1.792166-.569271-1.415268.911289-2.347472 3.251699-.615304 6.6356-2.954897 5.21176-6.0135666-1.894143-1.9515163-4.300926-1.7879957-6.614923-1.6036181-3.064903.7672104-3.392938 3.1089577-3.717619 5.8219777-.639765 3.781132-.963397 8.198006-2.53906 11.358955-2.5939155.804574-4.9565997-3.234756-6.1586609-4.800054z" fill="url(#a)" stroke="#5560ed" stroke-opacity=".835294" stroke-width="1.411023"/><path d="m76 0a35.999998 35.999998 0 0 0 -36 36 35.999998 35.999998 0 0 0 36 36 35.999998 35.999998 0 0 0 36-36 35.999998 35.999998 0 0 0 -36-36zm0 5.3339844c16.936819-.0000023 30.66602 13.7291976 30.66602 30.6660156 0 16.936819-13.729201 30.666019-30.66602 30.666016-16.936815 0-30.666016-13.729201-30.666016-30.666016 0-16.936817 13.729201-30.6660156 30.666016-30.6660156z" fill="url(#b)" transform="scale(.26458333)"/></g></svg>