<svg height="16" viewBox="0 0 4.2333332 4.2333335" width="16" xmlns="http://www.w3.org/2000/svg" xmlns:xlink="http://www.w3.org/1999/xlink"><filter id="a"><feGaussianBlur stdDeviation="2.4"/></filter><linearGradient id="b" gradientUnits="userSpaceOnUse" x1="2.11666685116" x2="2.11666685116" xlink:href="#c" y1="293.82497774521" y2="293.29581102521"/><linearGradient id="c"><stop offset="0" stop-color="#cbcbcd"/><stop offset=".5" stop-color="#e0e0e2"/><stop offset="1" stop-color="#fff"/></linearGradient><linearGradient id="d" gradientTransform="matrix(.00374914 0 0 .00559444 .021259 290.22153)" gradientUnits="userSpaceOnUse" x1="399.77466" x2="399.77466" xlink:href="#c" y1="681.00012" y2="549.33234"/><g transform="translate(0 -292.76665)"><path d="m91.480617 232.8761h104.296063c1.02599 0 7.85197 7.40364 7.85197 8.61484v100.62746c0 1.21119-.82598 2.18627-1.85197 2.18627h-116.296063c-1.025991 0-1.85197-.97508-1.85197-2.18627v-100.62746c0-1.2112 6.825979-8.61484 7.85197-8.61484z" filter="url(#a)" opacity=".5" transform="matrix(.03307292 0 0 .03086805 -2.633552 285.97509)"/><g stroke-width=".033073"><rect fill="url(#b)" height="1.322917" rx=".213532" ry=".264583" width="3.704167" x=".264583" y="293.29581"/><path d="m.26458294 294.35414h3.70416656v2.11667h-3.70416656z" fill="url(#d)"/><path d="m2.5863897 294.01081v-.0908z" fill="#fff" fill-opacity=".756881"/><path d="m.26458305 294.02341h3.70416645v2.4474h-3.70416645z" fill="#fff"/></g><text font-family="Bitstream Vera Sans" font-size=".433589" font-weight="bold" stroke="#000" stroke-width=".036132" transform="scale(.8438429 1.1850547)" x=".366201" y="249.80994"><tspan font-size="2.099116" stroke-width=".036132" x=".366201" y="249.80994">&lt;/&gt;</tspan></text></g></svg>