<svg height="16" width="16" xmlns="http://www.w3.org/2000/svg" xmlns:xlink="http://www.w3.org/1999/xlink"><linearGradient id="a" gradientTransform="matrix(.129048 0 0 .07807154 -7.875381 -2.902123)" gradientUnits="userSpaceOnUse" x1="399.77466" x2="399.77466" y1="1164.6696" y2="549.06134"><stop offset="0" stop-color="#7c9fcf"/><stop offset=".5" stop-color="#7c9ece"/><stop offset="1" stop-color="#7b9dcf"/></linearGradient><linearGradient id="b" gradientTransform="matrix(1.1666667 0 0 .4444445 -10.666665 35.555557)" gradientUnits="userSpaceOnUse" x1="10.428571" x2="106" y1="146.125" y2="3.250002"><stop offset="0" stop-color="#fff"/><stop offset=".42597079" stop-color="#fff"/><stop offset=".5892781" stop-color="#f1f1f1"/><stop offset=".80219781" stop-color="#eaeaea"/><stop offset="1" stop-color="#dfdfdf"/></linearGradient><linearGradient id="c" gradientUnits="userSpaceOnUse" x1="66.90672699375" x2="109.4826016375" y1="53.1198208" y2="53.1198208"><stop offset="0" stop-color="#fff"/><stop offset="1" stop-color="#fff" stop-opacity="0"/></linearGradient><g transform="scale(.125)"><path d="m43.03125.25c-1.534154 0-2.78125 1.2608928-2.78125 2.84375v36.90625h-36.90625c-1.5828572 0-2.84375 1.247097-2.84375 2.78125v42.4375c0 1.534154 1.2608929 2.78125 2.84375 2.78125h36.90625v36.90625c0 1.58286 1.247097 2.84375 2.78125 2.84375h42.4375c1.534154 0 2.78125-1.2609 2.78125-2.84375v-36.90625h36.90625c1.58286 0 2.84375-1.247093 2.84375-2.78125v-42.4375c0-1.534154-1.26089-2.78125-2.84375-2.78125h-36.90625v-36.90625c0-1.5828572-1.247093-2.84375-2.78125-2.84375z" fill="url(#a)"/><g fill-rule="evenodd"><path d="m49.4375 8c-.800222 0-1.4375.6689999-1.4375 1.5v38.5h-38.5c-.8309999 0-1.5.63728-1.5 1.4375v29.125c0 .800222.6689999 1.4375 1.5 1.4375h38.5v38.5c0 .831.63728 1.5 1.4375 1.5h29.125c.800222 0 1.4375-.669 1.4375-1.5v-38.5h38.5c.831 0 1.5-.63728 1.5-1.4375v-29.125c0-.800222-.669-1.4375-1.5-1.4375h-38.5v-38.5c0-.8309999-.63728-1.5-1.4375-1.5z" fill="url(#b)"/><path d="m80 36.625c-12.330336 11.41906-23.536964 23.821498-30.90625 38.4375h37.3125c1.231419-9.569615 3.997376-18.612725 7.90625-27.0625h-14.3125z" fill="url(#c)"/></g></g></svg>