<svg height="16" width="16" xmlns="http://www.w3.org/2000/svg" xmlns:xlink="http://www.w3.org/1999/xlink"><linearGradient id="a" gradientTransform="matrix(1.4864046 .6019652 -.7331387 1.8103052 -22.991267 -66.133508)" gradientUnits="userSpaceOnUse" x1="144.78481" x2="63.089115" y1="-56.087624" y2="62.056267"><stop offset="0" stop-color="#fff"/><stop offset="1" stop-color="#fff" stop-opacity="0"/></linearGradient><linearGradient id="b" gradientUnits="userSpaceOnUse" x1="-6.35703777134" x2="-50.92652275444" y1="137.01006964837" y2="50.81845821016"><stop offset="0" stop-color="#fff"/><stop offset=".42597079" stop-color="#fff"/><stop offset=".5892781" stop-color="#f1f1f1"/><stop offset=".80219781" stop-color="#eaeaea"/><stop offset="1" stop-color="#dfdfdf"/></linearGradient><linearGradient id="c" gradientUnits="userSpaceOnUse" x1="-29.803954272" x2="-29.803954272" y1="139.92603099866" y2="34.19582203463"><stop offset="0" stop-color="#7c9fcf"/><stop offset=".5" stop-color="#7c9ece"/><stop offset="1" stop-color="#7b9dcf"/></linearGradient><g transform="matrix(.1875 0 0 .1875 0 -8)"><path d="m-23.999999 125.33353a40.000198 40.000198 0 0 1 -34.641189-20.00009 40.000198 40.000198 0 0 1 0-40.000203 40.000198 40.000198 0 0 1 34.641189-20.000099l-.000001 40.000198z" style="opacity:.891386;stroke-width:5.33336;stroke-linecap:round;stroke-linejoin:round;stroke-dashoffset:1.0878;fill:url(#b);stroke:url(#c)" transform="scale(-1 1)"/><path d="m74.832134 23.488277c-14.039242 8.930758-29.093489 22.644846-34.7933 44.636724l26.218751 23.125c-.180299-14.745541 17.977793-16.033418 25.837935-31.549018-3.594268-13.413992-6.782814-25.869102-17.263386-36.212706z" fill="url(#a)" fill-rule="evenodd"/></g></svg>