<svg height="16" viewBox="0 0 4.2333332 4.2333335" width="16" xmlns="http://www.w3.org/2000/svg" xmlns:xlink="http://www.w3.org/1999/xlink"><linearGradient id="a" gradientTransform="matrix(-.10848522 0 0 .14412243 13.051703 290.98624)" gradientUnits="userSpaceOnUse" x1="100.77747" x2="100.77747" y1="17.859186" y2="38.055252"><stop offset="0" stop-color="#343434"/><stop offset="1" stop-color="#353535"/></linearGradient><linearGradient id="b" gradientUnits="userSpaceOnUse" x1="2.6458343" x2="2.38125097" y1="293.29581666" y2="295.94164996"><stop offset="0" stop-color="#fff"/><stop offset="1" stop-color="#fff" stop-opacity="0"/></linearGradient><g transform="translate(0 -292.76665)"><path d="m1.7445978 293.5604a.1374031.13928181 0 0 0 -.066146.0413l-1.37252607 1.4056a.1374031.13928181 0 0 0 .008268.19844l1.33118497 1.2237a.1374031.13928181 0 0 0 .09095.0413h2.0918623a.1374031.13928181 0 0 0 .1405599-.14056v-2.6293a.1374031.13928181 0 0 0 -.1405593-.14048h-2.0505209a.1374031.13928181 0 0 0 -.016536 0 .1374031.13928181 0 0 0 -.016537 0zm.3555338.59531.4795573.46303.4712891-.46303.3886068.38861-.4630208.47129.4630208.48783-.3886068.37207-.4712891-.46302-.4795573.46302-.3803385-.38034.4630208-.47956-.4630208-.47129z" fill="url(#a)" opacity=".7"/><path d="m1.8303806 293.82499-1.24281821 1.27227.34261475.31523a3.571875 1.190625 0 0 0 2.77399096-.4439v-1.1436z" fill="url(#b)"/></g></svg>