<svg height="16" viewBox="0 0 4.2333332 4.2333335" width="16" xmlns="http://www.w3.org/2000/svg" xmlns:xlink="http://www.w3.org/1999/xlink"><filter id="a" color-interpolation-filters="sRGB" height="1.869989" width="1.027669" x="-.013834" y="-.434994"><feGaussianBlur stdDeviation=".70324038"/></filter><linearGradient id="b" gradientUnits="userSpaceOnUse" x1="55" x2="55" y1="1036.4132" y2="1032.4822"><stop offset="0" stop-color="#003d7b"/><stop offset="1" stop-color="#003d7b" stop-opacity="0"/></linearGradient><filter id="c" color-interpolation-filters="sRGB" height="1.697208" width="1.027888" x="-.013944" y="-.348604"><feGaussianBlur stdDeviation=".70882694"/></filter><linearGradient id="d" gradientUnits="userSpaceOnUse" x1="2.3812503" x2="2.3812503" y1="292.50206667" y2="295.4124833"><stop offset="0" stop-color="#102134"/><stop offset="1" stop-color="#102134" stop-opacity="0"/></linearGradient><clipPath id="e"><rect height="28.072842" rx="4" width="101.14289" x="4" y="941.36218"/></clipPath><filter id="f" color-interpolation-filters="sRGB" height="1.267833" width="1.129187" x="-.064594" y="-.133917"><feGaussianBlur stdDeviation="3.1247207"/></filter><linearGradient id="g" gradientUnits="userSpaceOnUse" x1="2.11666697" x2="2.11666697" y1="294.08956665" y2="296.73539995"><stop offset="0" stop-color="#5678c8"/><stop offset=".94117647" stop-color="#3f59ae"/><stop offset="1" stop-color="#3d7cdb"/></linearGradient><linearGradient id="h" gradientUnits="userSpaceOnUse" x1="1.455208645" x2="1.455208645" y1="295.94164996" y2="296.20623329"><stop offset="0" stop-color="#174072"/><stop offset="1" stop-color="#174072" stop-opacity="0"/></linearGradient><linearGradient id="i" gradientUnits="userSpaceOnUse" x1=".09985673" x2=".09985673" y1="294.14635850065" y2="293.64217819343"><stop offset="0" stop-color="#34608f"/><stop offset="1" stop-color="#34608f" stop-opacity="0"/></linearGradient><linearGradient id="j" gradientTransform="matrix(.0564759 0 0 .03012001 -3.019205 265.45444)" gradientUnits="userSpaceOnUse" x1="124.01234" x2="124.01234" y1="966.51019" y2="935.34326"><stop offset="0"/><stop offset="1" stop-color="#34608f" stop-opacity="0"/></linearGradient><filter id="k" color-interpolation-filters="sRGB" height="1.072142" width="1.071866" x="-.035933" y="-.036071"><feGaussianBlur stdDeviation=".66434216"/></filter><radialGradient id="l" cx="-55.685837" cy="-347.11612" gradientTransform="matrix(-.91762954 -.24587809 .26650439 -.99460792 -14.509941 -705.18366)" gradientUnits="userSpaceOnUse" r="22.14249"><stop offset="0" stop-color="#82c133"/><stop offset="1" stop-color="#72b028"/></radialGradient><linearGradient id="m" gradientUnits="userSpaceOnUse" x1="328.12448" x2="336.98077" y1="120.81158" y2="87.759453"><stop offset="0" stop-color="#96ff00"/><stop offset="1" stop-color="#609800"/></linearGradient><clipPath id="n"><circle cx="343.91208" cy="92.325096" r="36" transform="matrix(.86602539 .50000002 .49999965 -.86602561 0 0)"/></clipPath><filter id="o"><feGaussianBlur stdDeviation="2.8805897"/></filter><radialGradient id="p" cx="343.99899" cy="92" gradientTransform="matrix(.46130197 0 0 .46130166 -219.03541 -372.17548)" gradientUnits="userSpaceOnUse" r="36"><stop offset="0" stop-color="#e5ff00"/><stop offset="1" stop-color="#bff500" stop-opacity="0"/></radialGradient><linearGradient id="q" gradientTransform="matrix(0 .51133072 -.51133109 0 76.138665 324.51289)" gradientUnits="userSpaceOnUse" x1="-80.00296" x2="-45.096584" y1="-131.93112" y2="-131.93112"><stop offset="0" stop-color="#fff"/><stop offset="1" stop-color="#fff" stop-opacity="0"/></linearGradient><linearGradient id="r" gradientUnits="userSpaceOnUse" x1="122.00004" x2="122.00004" y1="61.999996" y2="9.932843"><stop offset="0" stop-color="#314d00" stop-opacity="0"/><stop offset=".5" stop-color="#194d00"/><stop offset="1" stop-color="#2d4d00" stop-opacity="0"/></linearGradient><filter id="s"><feGaussianBlur stdDeviation="1.04"/></filter><g transform="translate(0 -292.76665)"><path d="m-46.991242 21.13992h114.000023c2.216 0 4 .8652 4 1.94 0 1.0747-1.78433 1.902-4 1.94-36.945183.6329-74.7030655.7782-114.000023 0-2.215566-.044-4-.8653-4-1.94 0-1.0748 1.784-1.94 4-1.94z" filter="url(#a)" opacity=".554286" transform="matrix(.03307292 0 0 .03307292 1.785647 296.03624)"/><rect fill="url(#b)" filter="url(#c)" height="4.39199" opacity=".577143" rx="2.439995" ry="2.195995" transform="matrix(.03307292 0 0 .06777243 -.033073 226.33163)" width="121.99997" x="3.000028" y="1032.4822"/><path d="m.13229167 293.03123c-.13229167 0-.13229167.10125-.13229167.13229v.39688 1.32291c0 .14658.11800417.26459.26458333.26459h3.43958337c.1465791 0 .2645833-.11801.2645833-.26459v-1.32291c0-.14658-.1180042-.26459-.2645833-.26459h-2.1419881c-.022278-.12857-.047096-.26458-.1069703-.26458z" fill="#3b6ca9"/><path d="m.13229167 293.03123c-.13229167 0-.13229167.10125-.13229167.13229v.39688 1.32291c0 .14658.11800417.26459.26458333.26459v-1.5875-.26459h1.02732747c.00353.0181.00635.0249.00982.045.021874.1268.131783.21948.2604494.21963h.2899047 1.8520834v1.5875c.1465791 0 .2645833-.11801.2645833-.26459v-1.32291c0-.14658-.1180042-.26459-.2645833-.26459h-2.1419897c-.022278-.12857-.047096-.26458-.1069703-.26458z" fill="url(#d)" opacity=".25"/><path clip-path="url(#e)" d="m25.67146 956.10785-21.6714601-.15854.0000002 57.33469 107.8857499-.02v-60.57188c0-2.54081-2.05959-4.58387-4.62097-4.58387h-69.59332c-9.375263 0-5.067235 7.84799-12 8z" fill="#16375b" fill-opacity=".801471" filter="url(#f)" transform="matrix(.03923904 0 0 .03923904 -.156956 256.71132)"/><path d="m.26458333 294.35415h.66145834l.26458333-.26459h2.778125c.1465792 0 .2645833.11801.2645833.26459v2.11666c0 .14658-.1180041.26459-.2645833.26459h-3.70416667c-.14657916 0-.26458333-.11801-.26458333-.26459v-1.85208c0-.14658.11800417-.26458.26458333-.26458z" fill="url(#g)"/><path d="m1.190625 294.08956-.26458333.26459h-.66145834c-.14657916 0-.26458333.118-.26458333.26458v.26458c0-.14658.11830148-.25525.26458333-.26458h.66145834l.26458333-.26458h2.778125c.1465792 0 .2645833.118.2645833.26458v-.26458c0-.14658-.1180041-.26459-.2645833-.26459z" fill="#a4c0e8"/><path d="m.26458333 293.29581h.79374997v.26459h-.79374997z" fill="#fcf9e9"/><path d="m.79375 293.29581h.2645833v.26459h-.2645833z" fill="#fbc66d"/><path d="m0 295.94165h4.2333333v.26458h-4.2333333z" fill="#385da4"/><path d="m0 295.94165h1.8520833 2.38125v.26458h-4.2333333z" fill="url(#h)"/><path d="m0 296.20623h4.2333333v.13229h-4.2333333z" fill="#a4c0e8"/><path d="m.26458333 294.35415c-.14566304 0-.26260419.11669-.26406657.262v1.85725c.00006085.006.00316129.0111.00361735.017.01008301.0849.19871489.24441.26044922.24495h.00051594v-2.38125z" fill="url(#i)" opacity=".594286"/><path d="m3.96875 294.08956v2.64584c.1465792 0 .2645833-.11801.2645833-.26459v-2.11666c0-.14658-.1180041-.26459-.2645833-.26459z" fill="url(#j)" opacity=".405714"/><g transform="matrix(.05540039 0 0 .05540039 -4.965904 277.23841)"><ellipse cx="-217.13077" cy="255.38551" fill="none" rx="22.14249" ry="22.142477" stroke-width=".615069" transform="matrix(-.96592586 -.2588189 -.25881915 .9659258 0 0)"/><ellipse cx="-59.830322" cy="-331.66757" fill="#292929" filter="url(#k)" rx="22.14249" ry="22.142477" transform="matrix(-.93421983 .2432797 -.25032328 -.9079328 4.714699 17.679705)"/><ellipse cx="-60.347961" cy="-329.73572" fill="url(#l)" rx="21.035366" ry="21.035353" transform="matrix(-.96592587 .25881888 -.25881888 -.96592587 0 0)"/><circle cx="343.99899" cy="92" r="36" style="opacity:.8;fill:none;stroke-width:6.751382;clip-path:url(#n);stroke:url(#m);filter:url(#o)" transform="matrix(-.56440567 -.15123195 -.151232 .56440527 351.70189 302.97936)"/><ellipse cx="-60.347996" cy="-329.73572" fill="url(#p)" rx="16.606871" ry="16.606859" stroke-width=".461302" transform="matrix(-.96592583 .25881905 -.25881905 -.96592583 0 0)"/><path d="m143.63359 283.60495c-7.85231 0-14.41363 5.54478-15.99508 12.92708 3.15226 2.93856 9.13349 4.92155 15.99508 4.92155 6.86158 0 12.8428-1.98299 15.99506-4.92155-1.58145-7.3823-8.14276-12.92708-15.99506-12.92708z" fill="url(#q)" opacity=".8" stroke-width=".852104"/><path d="m120.01465 21.014613v13h-11.12625v3.970777h11.12625v11.061281h3.97076v-11.061281h11.12626v-3.970777h-11.12626v-13z" style="fill:none;stroke-width:4;stroke-linecap:round;stroke-linejoin:round;stroke:url(#r);filter:url(#s)" transform="matrix(1.2316998 0 0 1.2316998 -6.63385 260.53982)"/><path d="m140.03421 285.26955v13.70421h-13.7042v7.1987h13.7042v13.7042h7.1987v-13.7042h13.70421v-7.1987h-13.70421v-13.70421z" fill="#fff" fill-rule="evenodd"/></g></g></svg>