<svg height="16" viewBox="0 0 16 16" width="16" xmlns="http://www.w3.org/2000/svg" xmlns:xlink="http://www.w3.org/1999/xlink"><linearGradient id="a" gradientUnits="userSpaceOnUse" x1="58.651283" x2="78.743713" y1="18.026964" y2="51.113689"><stop offset="0" stop-color="#e4e7eb"/><stop offset="1" stop-color="#f0f2f4"/></linearGradient><linearGradient id="b" gradientUnits="userSpaceOnUse" x1="53.749546" x2="93.753166" y1="7.869188" y2="58.52047"><stop offset="0" stop-color="#fff"/><stop offset="1" stop-color="#fff" stop-opacity="0"/></linearGradient><g transform="scale(.125)"><g transform="translate(0 72.007812)"><path d="m8 8.0078125c-6.4643877.0014235-10.2527664 7.2775515-6.546875 12.5742185l28 32c1.495209 2.136784 3.938908 3.409665 6.546875 3.410157h84c6.46439-.0014 10.25277-7.27755 6.54688-12.574219l-28.000005-32c-1.495209-2.1367834-3.938908-3.4096651-6.546875-3.4101565z" fill="#848484" fill-opacity=".952941"/><path d="m8 16 28 32h84l-28-32z" fill="url(#a)"/><path d="m8 16 14.574769 16.649885c8.276134.624083 15.561292 1.30559 24.110504 1.318359 19.858152-.0017 40.450625-1.873544 57.126947-5.012l-11.81222-12.956244z" fill="url(#b)"/></g><path d="m8 8h80v48.949153h-80z" fill="#55acd1" stroke-width="1.596706"/><g fill="#fff" stroke-width="1.070421"><path d="m35.336439 41.787234h-11.688992l-2.098024 6.294072h-6.550973l11.089556-31.21346h7.107592l10.789838 31.21346h-6.59379zm-1.75549-5.352102-4.067597-12.202793-4.067598 12.202793z"/><path d="m81.00155 39.089775q0 1.541405-.513802 2.997177-.513802 1.455772-1.669856 2.868727-1.113237 1.412955-3.382529 2.269291-2.269291.856336-5.394919.856336h-14.043916v-31.21346h13.915466q2.911543 0 5.009567.856336 2.140841.856337 3.168445 2.226475 1.07042 1.327321 1.541405 2.611826.470985 1.284504.470985 2.526192 0 2.012391-.984786 3.510979-.984787 1.455772-3.296895 2.911544 5.180835 3.039994 5.180835 7.578577zm-18.5825-16.869827v7.064775h6.979142q4.538583 0 4.538583-3.510979 0-3.553796-4.538583-3.553796zm0 12.416878v8.092378h7.664211q4.752667 0 4.752667-4.024781 0-4.067597-4.752667-4.067597z"/></g><g stroke-width="2"><path d="m80 0h40v8h-40z"/><path d="m80 72.00006h40v7.99996h-40z"/><path d="m104 8v64h-8v-64z"/></g></g></svg>