<svg height="16" viewBox="0 0 4.2333332 4.2333335" width="16" xmlns="http://www.w3.org/2000/svg" xmlns:xlink="http://www.w3.org/1999/xlink"><filter id="a"><feGaussianBlur stdDeviation="1.92"/></filter><linearGradient id="b" gradientUnits="userSpaceOnUse" x1="101.09873" x2="101.09873" y1="35.740467" y2="99.845909"><stop offset="0" stop-color="#e5edf8"/><stop offset="1" stop-color="#fafafa"/></linearGradient><linearGradient id="c" gradientUnits="userSpaceOnUse" x1="101.09873" x2="101.09873" y1="36.7673" y2="88.340691"><stop offset="0" stop-color="#cfdff4"/><stop offset="1" stop-color="#fafafa"/></linearGradient><clipPath id="d"><path d="m8 30.477533h112v71.191017h-112z"/></clipPath><filter id="e"><feGaussianBlur stdDeviation="1.5362957"/></filter><linearGradient id="f" gradientTransform="matrix(1 0 0 .9090909 0 13.090909)" gradientUnits="userSpaceOnUse" x1="68.019264" x2="68.019264" xlink:href="#g" y1="48.347881" y2="98.134933"/><linearGradient id="g"><stop offset="0" stop-color="#e0e0e0"/><stop offset="1" stop-color="#fff"/></linearGradient><clipPath id="h"><path d="m8 28.500002h112v71.191017h-112z"/></clipPath><filter id="i"><feGaussianBlur stdDeviation="1.56"/></filter><linearGradient id="j" gradientTransform="matrix(1 0 0 .9090909 0 6.545455)" gradientUnits="userSpaceOnUse" x1="87.53772" x2="87.53772" xlink:href="#g" y1="86.377098" y2="23.310532"/><linearGradient id="k" gradientUnits="userSpaceOnUse" x1="88.56501" x2="88.56501" y1="104.00008" y2="102"><stop offset="0"/><stop offset="1" stop-opacity="0"/></linearGradient><linearGradient id="l" gradientUnits="userSpaceOnUse" x1="70.382027" x2="70.382027" y1="32" y2="35"><stop offset="0" stop-color="#fff"/><stop offset="1" stop-color="#fff" stop-opacity="0"/></linearGradient><g opacity=".5" transform="matrix(.03265717 0 0 .03265717 -.14429 -.67483)"><path d="m8 32.5h112v72h-112z" style="opacity:.5;stroke:#000;stroke-width:8;stroke-linecap:round;stroke-linejoin:round;filter:url(#a)"/><path d="m8 32h112v72h-112z" fill="url(#b)" opacity="1"/><path d="m8 32h112v72h-112z" fill="url(#c)" opacity="1"/><path clip-path="url(#d)" d="m8 32.5 56 40 56-40v-4h-112z" fill="#00438a" filter="url(#e)" opacity=".5" transform="matrix(1 0 0 -.9994652 0 132.46123)"/><path d="m8 100.36364 56-36.36364 56 36.36364v3.63636h-112z" fill="url(#f)" opacity="1"/><path clip-path="url(#h)" d="m8 32.5 56 40 56-40v-4h-112z" fill="#00438a" filter="url(#i)" opacity=".6" transform="matrix(1 0 0 .9772727 0 5.147728)"/><path d="m8 35.636364 56 36.363636 56-36.363636v-3.636364h-112z" fill="url(#j)" opacity="1"/><path d="m8 100v4h112v-4z" fill="url(#k)" opacity=".2"/><path d="m8 32v3h112v-3z" fill="url(#l)" opacity="1"/></g><g transform="matrix(.03265717 0 0 .03265717 .16429 .55949)"><path d="m8 32.5h112v72h-112z" style="opacity:.5;stroke:#000;stroke-width:8;stroke-linecap:round;stroke-linejoin:round;filter:url(#a)"/><path d="m8 32h112v72h-112z" fill="url(#b)"/><path d="m8 32h112v72h-112z" fill="url(#c)"/><path clip-path="url(#d)" d="m8 32.5 56 40 56-40v-4h-112z" fill="#00438a" filter="url(#e)" opacity=".5" transform="matrix(1 0 0 -.9994652 0 132.46123)"/><path d="m8 100.36364 56-36.36364 56 36.36364v3.63636h-112z" fill="url(#f)"/><path clip-path="url(#h)" d="m8 32.5 56 40 56-40v-4h-112z" fill="#00438a" filter="url(#i)" opacity=".6" transform="matrix(1 0 0 .9772727 0 5.147728)"/><path d="m8 35.636364 56 36.363636 56-36.363636v-3.636364h-112z" fill="url(#j)"/><path d="m8 100v4h112v-4z" fill="url(#k)" opacity=".2"/><path d="m8 32v3h112v-3z" fill="url(#l)"/></g></svg>