<svg height="16" viewBox="0 0 4.2333333 4.2333335" width="16" xmlns="http://www.w3.org/2000/svg" xmlns:xlink="http://www.w3.org/1999/xlink"><linearGradient id="a" gradientUnits="userSpaceOnUse" x1=".529174" x2="5.820834" y1="293.82498" y2="293.82498"><stop offset="0" stop-color="#4a4a4a"/><stop offset="1" stop-color="#737373"/></linearGradient><g transform="matrix(.66666625 0 0 .66666625 -.00000066666 -193.7709929138)"><path d="m.79375 291.70831h5.556253v5.291662h-5.556253z" fill="#4d4d4d" fill-rule="evenodd" stroke-width=".264583"/><path d="m13.333984 13.333984v50.666016.002 50.66407h50.666016 50.66602v-50.66607-50.666016h-50.66602z" fill="#0968ef" stroke-width="5.33333" transform="matrix(.04960941 0 0 .04960941 -.000002 290.64997)"/><path d="m2.3092825 291.44372-.8659019.90715 1.082384 1.13393 1.0823841-1.13393-.865902-.90715zm1.2988662.90715 1.082384 1.13393.8659019-.90715v-.45357l-.6494198-.68036h-.4329642zm1.082384 1.13393-1.082384 1.13392 1.082384 1.13393.8659019-.90714v-.45357zm0 2.26785-.4329642.45357h.8659284zm-1.082384-1.13393-1.0823841-1.13392-1.082384 1.13392 1.082384 1.13393zm-1.0823841 1.13393-.4329642.45357h.865902zm-1.082384-1.13393-.64944628-.68035v1.36071zm0-2.26785-.64944628-.68036v1.36071z" fill="#fff"/><path d="m.595311 291.24527h5.159378v5.159392h-5.159378z" fill="none" stroke="url(#a)" stroke-linecap="round" stroke-linejoin="round" stroke-width=".396875"/></g></svg>