<svg height="16" viewBox="0 0 16 16" width="16" xmlns="http://www.w3.org/2000/svg" xmlns:xlink="http://www.w3.org/1999/xlink"><linearGradient id="a"><stop offset="0" stop-color="#fff"/><stop offset="1" stop-color="#fff" stop-opacity="0"/></linearGradient><linearGradient id="b"><stop offset="0" stop-color="#e4e7eb"/><stop offset="1" stop-color="#f0f2f4"/></linearGradient><linearGradient id="c" gradientUnits="userSpaceOnUse" x1="48" x2="67.999542" xlink:href="#b" y1="16" y2="56.001251"/><linearGradient id="d" gradientUnits="userSpaceOnUse" x1="58.651283" x2="78.743713" xlink:href="#b" y1="18.026964" y2="51.113689"/><linearGradient id="e" gradientUnits="userSpaceOnUse" x1="53.749546" x2="93.753166" xlink:href="#a" y1="7.869188" y2="58.52047"/><linearGradient id="f" gradientTransform="matrix(7.999104 0 0 -7.999352 -7719.1282 1527.886)" gradientUnits="userSpaceOnUse" x1="974.00012" x2="973" y1="175.99985" y2="190.00098"><stop offset="0" stop-color="#0968ef"/><stop offset="1" stop-color="#aecffc"/></linearGradient><linearGradient id="g" gradientUnits="userSpaceOnUse" x1="48" x2="56" xlink:href="#a" y1="8" y2="40"/><g transform="scale(.125)"><g transform="translate(.000002 -8.000001)"><path d="m8 80.007812c-6.4643877.0014-10.2527664 7.277552-6.546875 12.574219l6.546875 7.482419zm8 0v29.199218l8 9.14258v-38.341798zm16 0v46.894528c1.200521.6958 2.572403 1.08958 4 1.08985h4v-47.984378zm16 0v47.984378h8v-47.984378zm16 0v47.984378h8v-47.984378zm16 0v47.984378h8v-47.984378zm16 1.089844v46.894534h8v-38.341799l-5.453125-6.232422c-.676734-.967111-1.554257-1.745012-2.546875-2.320313zm16 17.695313v29.199221h8c6.46439-.001 10.25276-7.27755 6.54688-12.57422z" fill="#848484" fill-opacity=".952941" transform="translate(0 -72)"/><path d="m8 16 28 32h84l-28-32z" fill="url(#d)"/><path d="m8 16 14.574769 16.649885c8.276134.624083 15.561292 1.30559 24.110504 1.318359 19.858152-.0017 40.450625-1.873544 57.126947-5.012l-11.81222-12.956244z" fill="url(#e)"/></g><g transform="translate(-.000002 72.000001)"><path d="m8 8.0078125c-6.4643877.0014235-10.2527664 7.2775515-6.546875 12.5742185l28 32c1.495209 2.136784 3.938908 3.409665 6.546875 3.410157h84c6.46439-.0014 10.25277-7.27755 6.54688-12.574219l-28.000005-32c-1.495209-2.1367834-3.938908-3.4096651-6.546875-3.4101565z" fill="#848484" fill-opacity=".952941"/><path d="m8 16 28 32h84l-28-32z" fill="url(#c)"/><path d="m8 16 14.574769 16.649885c8.276134.624083 15.561292 1.30559 24.110504 1.318359 19.858152-.0017 40.450625-1.873544 57.126947-5.012l-11.81222-12.956244z" fill="url(#g)"/></g><path d="m67.999544 120-19.99776-23.998056h15.998208l.000008-72.000692 7.999104 7.99935-.000008 64.001342h15.998208z" fill="url(#f)" fill-rule="evenodd" stroke-width="7.999228"/></g></svg>