<svg height="16" width="16" xmlns="http://www.w3.org/2000/svg" xmlns:xlink="http://www.w3.org/1999/xlink"><linearGradient id="a"><stop offset="0" stop-color="#fff"/><stop offset="1" stop-color="#fff" stop-opacity="0"/></linearGradient><linearGradient id="b"><stop offset="0" stop-color="#b4b4b6"/><stop offset=".5" stop-color="#9c9ca1"/><stop offset="1" stop-color="#cdcdd1"/></linearGradient><linearGradient id="c"><stop offset="0" stop-color="#fff"/><stop offset=".42597079" stop-color="#fff"/><stop offset=".5892781" stop-color="#f1f1f1"/><stop offset=".80219781" stop-color="#eaeaea"/><stop offset="1" stop-color="#dfdfdf"/></linearGradient><linearGradient id="d" gradientTransform="matrix(.6389833 0 0 .3828125 20.74564 1.925)" gradientUnits="userSpaceOnUse" x1="102.31124" x2="74.330322" xlink:href="#a" y1="-5.830213" y2="32"/><linearGradient id="e" gradientTransform="matrix(.2500001 0 0 .5555557 -36.000005 -103.55555)" gradientUnits="userSpaceOnUse" x1="-8.271346" x2="124.09152" xlink:href="#c" y1="116.19998" y2="27.999992"/><linearGradient id="f" gradientTransform="matrix(.04048566 0 0 .09108347 -42.627571 -146.05248)" gradientUnits="userSpaceOnUse" x1="183.64876" x2="998.75214" xlink:href="#b" y1="917.64343" y2="903.13214"/><linearGradient id="g" gradientTransform="matrix(.04048566 0 0 .09108347 -130.62757 -146.05248)" gradientUnits="userSpaceOnUse" x1="183.64876" x2="998.75214" xlink:href="#b" y1="917.64343" y2="903.13214"/><linearGradient id="h" gradientTransform="matrix(.2500001 0 0 .5555557 -124.00001 -103.55555)" gradientUnits="userSpaceOnUse" x1="-8.271346" x2="124.09152" xlink:href="#c" y1="116.19998" y2="27.999992"/><linearGradient id="i" gradientTransform="matrix(.6389833 0 0 .3828125 20.74564 89.924998)" gradientUnits="userSpaceOnUse" x1="73.952415" x2="55.172585" xlink:href="#a" y1="-5.028566" y2="36.767353"/><linearGradient id="j" gradientTransform="matrix(.99999988 .00049044 .00049044 -.99999988 8.16033 119.95104)" gradientUnits="userSpaceOnUse" x1="47.831841" x2="47.8083" y1="15.974501" y2="63.974495"><stop offset="0" stop-color="#0968ef"/><stop offset="1" stop-color="#aecffc"/></linearGradient><g transform="scale(.125)"><g transform="translate(-16 16)"><rect fill="url(#f)" height="48.000072" rx="3.823639" transform="matrix(0 -1 -1 0 0 0)" width="112" x="-112" y="-104"/><g fill-rule="evenodd"><rect fill="url(#e)" height="32" rx="2.180037" transform="matrix(0 -1 -1 0 0 0)" width="96.000008" x="-104" y="-96"/><path d="m79.212615 8.05c-6.826621 3.60919-13.225947 7.51293-17.212614 12.25h17.392328c.974111-4.53517 4.015013-8.6321 8.206942-12.25z" fill="url(#d)"/></g></g><g transform="translate(-32 -72)"><rect fill="url(#g)" height="48.000088" rx="3.823639" transform="matrix(0 -1 -1 0 0 0)" width="111.99996" x="-200" y="-80"/><g fill-rule="evenodd"><rect fill="url(#h)" height="31.999981" rx="2.180037" transform="matrix(0 -1 -1 0 0 0)" width="96.000015" x="-192" y="-72"/><path d="m63.613344 96c-6.826621 3.60919-13.225947 7.51293-17.212614 12.25h17.392328c.974111-4.53517 4.015013-8.6321 8.206942-12.25z" fill="url(#i)"/></g></g><g transform="translate(48 -72)"><rect fill="url(#g)" height="48.000088" rx="3.823639" transform="matrix(0 -1 -1 0 0 0)" width="111.99996" x="-200" y="-80"/><g fill-rule="evenodd"><rect fill="url(#h)" height="31.999981" rx="2.180037" transform="matrix(0 -1 -1 0 0 0)" width="96.000015" x="-192" y="-72"/><path d="m63.613344 96c-6.826621 3.60919-13.225947 7.51293-17.212614 12.25h17.392328c.974111-4.53517 4.015013-8.6321 8.206942-12.25z" fill="url(#i)"/></g></g><g fill-rule="evenodd"><path d="m104.16406 67.962891a4.0357019 4.0357019 0 0 0 -2.90234 1.251953l-3.976564 4.173828a4.0357019 4.0357019 0 0 0 -.447265 5.003906l3.667969 5.56836-70.750001-.04297 3.605469-5.470703a4.0357019 4.0357019 0 0 0 -.447266-5.003906l-3.976562-4.173828a4.0357019 4.0357019 0 0 0 -5.505859-.316406l-23.99023475 20.011719a4.0357019 4.0357019 0 0 0 .001953 6.201172l24.00976575 19.988284a4.0357019 4.0357019 0 0 0 5.4375-.25l3.972656-3.97852a4.0357019 4.0357019 0 0 0 .529297-5.04883l-3.759766-5.79101 70.925778-.043-3.751949 5.78125a4.0357019 4.0357019 0 0 0 .529297 5.04883l3.972652 3.97656a4.0357019 4.0357019 0 0 0 5.4375.25l24.00977-19.988282a4.0357019 4.0357019 0 0 0 .002-6.201172l-23.99028-20.011688a4.0357019 4.0357019 0 0 0 -2.60352-.935547z" fill="#fff" fill-opacity=".319853"/><path d="m104.18359 71.998047-3.97656 4.173828 7.79297 11.828125-85.732422-.050781 7.72461-11.722657-3.976563-4.173828-23.9902344 20.011719 24.0097654 19.988277 3.972656-3.97851-7.804687-12.019532 85.789065-.05078-7.80078 12.017572 3.97265 3.97657 24.00977-19.988282z" fill="url(#j)"/></g></g></svg>