<svg height="16" viewBox="0 0 4.2333332 4.2333335" width="16" xmlns="http://www.w3.org/2000/svg" xmlns:xlink="http://www.w3.org/1999/xlink"><filter id="a"><feGaussianBlur stdDeviation="2.4"/></filter><linearGradient id="b" gradientUnits="userSpaceOnUse" x1="2.11666685116" x2="2.11666685116" xlink:href="#c" y1="293.82497774521" y2="293.29581102521"/><linearGradient id="c"><stop offset="0" stop-color="#cbcbcd"/><stop offset=".5" stop-color="#e0e0e2"/><stop offset="1" stop-color="#fff"/></linearGradient><linearGradient id="d" gradientTransform="matrix(.00374914 0 0 .00559444 .021259 290.22153)" gradientUnits="userSpaceOnUse" x1="399.77466" x2="399.77466" xlink:href="#c" y1="681.00012" y2="549.33234"/><linearGradient id="e" gradientTransform="matrix(8.0000001 0 0 8.0000039 8 -.000003)" gradientUnits="userSpaceOnUse" x1="3.5" x2="3.5" y1="8" y2="5"><stop offset="0" stop-color="#0057ae"/><stop offset="1" stop-color="#0057ae"/></linearGradient><linearGradient id="f" gradientTransform="matrix(7.5452306 0 0 7.4748734 9.591692 3.506601)" gradientUnits="userSpaceOnUse" x1="3.5" x2="3.5" y1="7.82534" y2="4.878163"><stop offset="0" stop-color="#0968ef"/><stop offset="1" stop-color="#aecffc"/></linearGradient><linearGradient id="g" gradientTransform="matrix(8.0889801 0 0 7.9869061 48.218484 -.133794)" gradientUnits="userSpaceOnUse" x1="-1.147762" x2="-1.850474" y1="7.029993" y2="4.143643"><stop offset="0" stop-color="#b3b3b3"/><stop offset=".52879584" stop-color="#fff"/><stop offset="1" stop-color="#c5c5c5"/></linearGradient><g transform="translate(0 -292.76665)"><path d="m91.480617 232.8761h104.296063c1.02599 0 7.85197 7.40364 7.85197 8.61484v100.62746c0 1.21119-.82598 2.18627-1.85197 2.18627h-116.296063c-1.025991 0-1.85197-.97508-1.85197-2.18627v-100.62746c0-1.2112 6.825979-8.61484 7.85197-8.61484z" filter="url(#a)" opacity=".5" transform="matrix(.03307292 0 0 .03086805 -2.633552 285.97509)"/><g stroke-width=".033073"><rect fill="url(#b)" height=".793749" rx=".213532" ry=".264583" width="3.704167" x=".264583" y="293.29581"/><path d="m.26458313 293.82498h3.70416667v2.64583h-3.70416659z" fill="url(#d)"/><path d="m.26458313 294.08956h3.70416647l.0000002 2.38125h-3.70416648z" fill="#fff"/></g><path d="m2.58639 293.74623v-.0908z" fill="#fff" fill-opacity=".756881"/><path d="m1.5875 294.08957h.264583v2.381251h-.264583z" opacity=".277228"/><path d="m2.116666 294.35416h1.5875v.264583h-1.5875z" opacity=".277228"/><path d="m2.116666 294.88333h.79375v.264583h-.79375z" opacity=".277228"/><path d="m2.116666 295.41248h1.5875v.264583h-1.5875z" opacity=".277228"/><path d="m2.116666 295.94165h1.058334v.264583h-1.058334z" opacity=".277228"/><g transform="matrix(.03307292 0 0 .03307292 -.264584 294.08956)"><rect fill="url(#e)" height="24" rx="1.985773" ry="2.276042" width="24" x="24" y="40"/><rect fill="url(#f)" height="20" rx=".881566" ry="1.001006" width="20" x="26" y="42"/><g fill-rule="evenodd"><path d="m26 41.967068 19.994108.088388.005892 5.944544h-6l-7.82985 4h-6.018445z" fill="url(#g)"/><path d="m25.911612 56h6.088388l8-4h6.082368l-.082368-4h-6l-8 4h-5.914433z" fill="#0057ae" opacity=".8"/></g></g><g transform="matrix(.03307292 0 0 .03307292 -.264583 293.03123)"><rect fill="url(#e)" height="24" rx="1.985773" ry="2.276042" width="24" x="24" y="40"/><rect fill="url(#f)" height="20" rx=".881566" ry="1.001006" width="20" x="26" y="42"/><g fill-rule="evenodd"><path d="m26 41.967068 19.994108.088388.005892 5.944544h-6l-7.82985 4h-6.018445z" fill="url(#g)"/><path d="m25.911612 56h6.088388l8-4h6.082368l-.082368-4h-6l-8 4h-5.914433z" fill="#0057ae" opacity=".8"/></g></g></g></svg>