<svg height="16" viewBox="0 0 4.2333332 4.2333335" width="16" xmlns="http://www.w3.org/2000/svg" xmlns:xlink="http://www.w3.org/1999/xlink"><filter id="a"><feGaussianBlur stdDeviation="2.4"/></filter><linearGradient id="b" gradientUnits="userSpaceOnUse" x1="2.11666685116" x2="2.11666685116" xlink:href="#c" y1="293.82497774521" y2="293.29581102521"/><linearGradient id="c"><stop offset="0" stop-color="#cbcbcd"/><stop offset=".5" stop-color="#e0e0e2"/><stop offset="1" stop-color="#fff"/></linearGradient><linearGradient id="d" gradientTransform="matrix(.00374914 0 0 .00559444 .021259 290.22153)" gradientUnits="userSpaceOnUse" x1="399.77466" x2="399.77466" xlink:href="#c" y1="681.00012" y2="549.33234"/><linearGradient id="e" gradientTransform="matrix(8.0000001 0 0 8.0000039 8 -.000003)" gradientUnits="userSpaceOnUse" x1="3.5" x2="3.5" y1="8" y2="5"><stop offset="0" stop-color="#0057ae"/><stop offset="1" stop-color="#0057ae"/></linearGradient><linearGradient id="f" gradientTransform="matrix(7.5452306 0 0 7.4748734 9.591692 3.506601)" gradientUnits="userSpaceOnUse" x1="3.5" x2="3.5" y1="7.82534" y2="4.878163"><stop offset="0" stop-color="#0968ef"/><stop offset="1" stop-color="#aecffc"/></linearGradient><linearGradient id="g" gradientTransform="matrix(8.0889801 0 0 7.9869061 48.218484 -.133794)" gradientUnits="userSpaceOnUse" x1="-1.147762" x2="-1.850474" y1="7.029993" y2="4.143643"><stop offset="0" stop-color="#b3b3b3"/><stop offset=".52879584" stop-color="#fff"/><stop offset="1" stop-color="#c5c5c5"/></linearGradient><linearGradient id="h" gradientUnits="userSpaceOnUse" x1="975.628648" x2="975.628648" xlink:href="#i" y1="-339.12392" y2="-19.12392"/><linearGradient id="i"><stop offset="0" stop-color="#d2d2d3"/><stop offset="1" stop-color="#d2d2d3" stop-opacity="0"/></linearGradient><mask id="j" maskUnits="userSpaceOnUse"><path d="m87.628647 324.8761h112v24h-112z" fill="url(#k)" fill-rule="evenodd"/></mask><linearGradient id="k" gradientUnits="userSpaceOnUse" x1="191.62865" x2="191.62865" y1="332.8761" y2="348.8761"><stop offset="0" stop-color="#fff"/><stop offset="1" stop-color="#fff" stop-opacity="0"/></linearGradient><linearGradient id="l" gradientUnits="userSpaceOnUse" x1="191.62865" x2="191.62865" xlink:href="#i" y1="324.8761" y2="364.8761"/><g transform="translate(0 -292.76665)"><path d="m91.480617 232.8761h104.296063c1.02599 0 7.85197 7.40364 7.85197 8.61484v100.62746c0 1.21119-.82598 2.18627-1.85197 2.18627h-116.296063c-1.025991 0-1.85197-.97508-1.85197-2.18627v-100.62746c0-1.2112 6.825979-8.61484 7.85197-8.61484z" filter="url(#a)" opacity=".5" transform="matrix(.03307292 0 0 .03086805 -2.633552 285.97509)"/><g stroke-width=".033073"><rect fill="url(#b)" height=".793749" rx=".213532" ry=".264583" width="3.704167" x=".264583" y="293.29581"/><path d="m.26458313 293.82498h3.70416667v2.64583h-3.70416659z" fill="url(#d)"/><path d="m2.58639 294.01081v-.0908z" fill="#fff" fill-opacity=".756881"/><path d="m.26458313 294.08956h3.70416647l.0000002 2.38125h-3.70416648z" fill="#fff"/></g><g transform="matrix(.00413411 0 0 .00413411 -.329194 295.75612)"><g transform="matrix(8 0 0 8 463.62865 -531.12392)"><rect fill="url(#e)" height="24" rx="1.985773" ry="2.276042" width="24" x="24" y="40"/><rect fill="url(#f)" height="20" rx=".881566" ry="1.001006" width="20" x="26" y="42"/><g fill-rule="evenodd"><path d="m26 41.967068 19.994108.088388.005892 5.944544h-6l-7.82985 4h-6.018445z" fill="url(#g)"/><path d="m25.911612 56h6.088388l8-4h6.082368l-.082368-4h-6l-8 4h-5.914433z" fill="#0057ae" opacity=".8"/></g></g><g transform="matrix(8 0 0 8 143.62865 -531.12392)"><rect fill="url(#e)" height="24" rx="1.985773" ry="2.276042" width="24" x="24" y="40"/><rect fill="url(#f)" height="20" rx=".881566" ry="1.001006" width="20" x="26" y="42"/><g fill-rule="evenodd"><path d="m26 41.967068 19.994108.088388.005892 5.944544h-6l-7.82985 4h-6.018445z" fill="url(#g)"/><path d="m25.911612 56h6.088388l8-4h6.082368l-.082368-4h-6l-8 4h-5.914433z" fill="#0057ae" opacity=".8"/></g></g><path d="m335.62865-339.12392c-70.912 0-128 57.088-128 128v128c0 47.51412 25.75449 88.66342 64 110.75v-238.75c0-35.456 28.544-64 64-64h512c35.456 0 64 28.544 64 64v238.75c38.24552-22.08658 64-63.23588 64-110.75v-128c0-70.912-57.088-128-128-128z" fill="url(#h)" fill-rule="evenodd"/><g mask="url(#j)" transform="matrix(8 0 0 8 -557.40055 -2554.1327)"><path d="m111.62865 324.8761c-8.864 0-16 7.136-16 16v16c0 5.93927 3.219311 11.08293 8 13.84375v-29.84375c0-4.432 3.568-8 8-8h64c4.432 0 8 3.568 8 8v29.84375c4.78069-2.76082 8-7.90448 8-13.84375v-16c0-8.864-7.136-16-16-16z" fill="url(#l)" fill-rule="evenodd" mask="none"/></g></g></g></svg>