<svg height="16" viewBox="0 0 4.2333332 4.2333335" width="16" xmlns="http://www.w3.org/2000/svg" xmlns:xlink="http://www.w3.org/1999/xlink"><filter id="a"><feGaussianBlur stdDeviation="2.4"/></filter><linearGradient id="b" gradientUnits="userSpaceOnUse" x1="143.62865" x2="143.62865" xlink:href="#c" y1="268.8761" y2="252.8761"/><linearGradient id="c"><stop offset="0" stop-color="#cbcbcd"/><stop offset=".5" stop-color="#e0e0e2"/><stop offset="1" stop-color="#fff"/></linearGradient><linearGradient id="d" gradientTransform="matrix(.1133598 0 0 .1691546 80.271448 159.92147)" gradientUnits="userSpaceOnUse" x1="399.77466" x2="399.77466" xlink:href="#c" y1="681.00012" y2="549.33234"/><linearGradient id="e" gradientUnits="userSpaceOnUse" x1="149.343897" x2="149.343897" y1="324.900992" y2="204.854346"><stop offset="0" stop-color="#9c9c9c"/><stop offset="1" stop-color="#9c9c9c" stop-opacity="0"/></linearGradient><g transform="matrix(.03307292 0 0 .03307292 -2.633552 -7.83418)"><path d="m91.480617 232.8761h104.296063c1.02599 0 7.85197 7.40364 7.85197 8.61484v100.62746c0 1.21119-.82598 2.18627-1.85197 2.18627h-116.296063c-1.025991 0-1.85197-.97508-1.85197-2.18627v-100.62746c0-1.2112 6.825979-8.61484 7.85197-8.61484z" filter="url(#a)" opacity=".5" transform="matrix(1 0 0 .9333333 .000003 31.525086)"/><rect fill="url(#b)" height="23.999981" rx="6.45639" ry="8.000001" width="112" x="87.628647" y="252.8761"/><path d="m87.628648 268.87608h112.000002v80.00002h-112z" fill="url(#d)"/><path d="m87.628648 276.87608h111.999992l.00001 72.00002h-111.999997z" fill="#fff"/><path d="m95.628649 284.87609v8h48.000001v-8zm56.000001 0v8h16v-8zm24 0v8h16v-8zm-80.000001 16v8h32.000001v-8zm56.000001 0v8h8v-8zm24 0v8h16v-8zm-80.000001 16v8h48.000001v-8zm56.000001 0v8h16v-8zm24 0v8h16v-8zm-80.000001 16v8h48.000001v-8zm56.000001 0v8h16v-8zm24 0v8h16v-8z" fill="url(#e)" fill-rule="evenodd"/></g></svg>