<svg height="48" width="48" xmlns="http://www.w3.org/2000/svg" xmlns:xlink="http://www.w3.org/1999/xlink"><linearGradient id="a" gradientTransform="matrix(.06503009 0 0 .1431311 -19.783613 -145.67798)" gradientUnits="userSpaceOnUse" x1="399.77466" x2="399.77466" y1="1164.6696" y2="549.06134"><stop offset="0" stop-color="#d48888"/><stop offset=".5" stop-color="#d08080" stop-opacity=".945098"/><stop offset="1" stop-color="#d28181" stop-opacity=".443137"/></linearGradient><linearGradient id="b" gradientTransform="matrix(.4947918 0 0 1.0000001 -63.353587 -87.024094)" gradientUnits="userSpaceOnUse" x1="63.365482" x2="105.66395" y1="81.206779" y2="46.06414"><stop offset="0" stop-color="#fff"/><stop offset=".42597079" stop-color="#fff"/><stop offset=".5892781" stop-color="#ffe0e0"/><stop offset=".80219781" stop-color="#ffd5d5"/><stop offset="1" stop-color="#fccaca"/></linearGradient><linearGradient id="c" gradientTransform="matrix(.65712462 0 0 .90939753 -34.935852 -3.714158)" gradientUnits="userSpaceOnUse" x1="102.31124" x2="74.330322" y1="-5.830213" y2="32"><stop offset="0" stop-color="#fff"/><stop offset="1" stop-color="#fff" stop-opacity="0"/></linearGradient><g transform="matrix(.34375 0 0 .34375 24.00031 1.999704)"><rect fill="url(#a)" height="34.908951" rx="3.632653" transform="rotate(90)" width="29.090071" x="5.819893" y="-46.544415"/><g fill-rule="evenodd"><path d="m-32.000863-43.635462h23.2727274v29.090909h-23.2727274z" fill="url(#b)" transform="matrix(0 -1 -1 0 0 0)"/><path d="m29.192519 8.7281356c-7.020435 8.5738754-6.769583 6.2005564-10.869435 17.4537894h17.886111c1.001767-10.773613-2.702856-8.859216 1.608085-17.4537894z" fill="url(#c)"/></g></g><g transform="matrix(.34375 0 0 .34375 15.965072 27.999704)"><rect fill="url(#a)" height="34.908951" rx="3.632653" transform="rotate(90)" width="29.090071" x="5.819893" y="-46.544415"/><g fill-rule="evenodd"><path d="m-32.000863-43.635462h23.2727274v29.090909h-23.2727274z" fill="url(#b)" transform="matrix(0 -1 -1 0 0 0)"/><path d="m29.192519 8.7281356c-7.020435 8.5738754-6.769583 6.2005564-10.869435 17.4537894h17.886111c1.001767-10.773613-2.702856-8.859216 1.608085-17.4537894z" fill="url(#c)"/></g></g><g transform="matrix(.34375 0 0 .34375 14.00031 15.999704)"><rect fill="url(#a)" height="34.908951" rx="3.632653" transform="rotate(90)" width="29.090071" x="5.819893" y="-46.544415"/><g fill-rule="evenodd"><path d="m-32.000863-43.635462h23.2727274v29.090909h-23.2727274z" fill="url(#b)" transform="matrix(0 -1 -1 0 0 0)"/><path d="m29.192519 8.7281356c-7.020435 8.5738754-6.769583 6.2005564-10.869435 17.4537894h17.886111c1.001767-10.773613-2.702856-8.859216 1.608085-17.4537894z" fill="url(#c)"/></g></g><g transform="matrix(.34375 0 0 .34375 -.034928 3.999704)"><rect fill="url(#a)" height="34.908951" rx="3.632653" transform="rotate(90)" width="29.090071" x="5.819893" y="-46.544415"/><g fill-rule="evenodd"><path d="m-32.000863-43.635462h23.2727274v29.090909h-23.2727274z" fill="url(#b)" transform="matrix(0 -1 -1 0 0 0)"/><path d="m29.192519 8.7281356c-7.020435 8.5738754-6.769583 6.2005564-10.869435 17.4537894h17.886111c1.001767-10.773613-2.702856-8.859216 1.608085-17.4537894z" fill="url(#c)"/></g></g><g transform="matrix(.34375 0 0 .34375 -.034928 31.999704)"><rect fill="url(#a)" height="34.908951" rx="3.632653" transform="rotate(90)" width="29.090071" x="5.819893" y="-46.544415"/><g fill-rule="evenodd"><path d="m-32.000863-43.635462h23.2727274v29.090909h-23.2727274z" fill="url(#b)" transform="matrix(0 -1 -1 0 0 0)"/><path d="m29.192519 8.7281356c-7.020435 8.5738754-6.769583 6.2005564-10.869435 17.4537894h17.886111c1.001767-10.773613-2.702856-8.859216 1.608085-17.4537894z" fill="url(#c)"/></g></g><g transform="matrix(.34375 0 0 .34375 29.965072 13.999704)"><rect fill="url(#a)" height="34.908951" rx="3.632653" transform="rotate(90)" width="29.090071" x="5.819893" y="-46.544415"/><g fill-rule="evenodd"><path d="m-32.000863-43.635462h23.2727274v29.090909h-23.2727274z" fill="url(#b)" transform="matrix(0 -1 -1 0 0 0)"/><path d="m29.192519 8.7281356c-7.020435 8.5738754-6.769583 6.2005564-10.869435 17.4537894h17.886111c1.001767-10.773613-2.702856-8.859216 1.608085-17.4537894z" fill="url(#c)"/></g></g></svg>