<svg height="48" width="48" xmlns="http://www.w3.org/2000/svg" xmlns:xlink="http://www.w3.org/1999/xlink"><linearGradient gradientUnits="userSpaceOnUse" x1="86.88201248139" x2="95.70883902098" y1="93.75643919115" y2="102.58326471875"><stop offset="0" stop-color="#fcfcfc"/><stop offset=".52275378" stop-color="#f8f8f8"/><stop offset=".77457333" stop-color="#f0efef"/><stop offset=".90122044" stop-color="#e3e1e1"/><stop offset="1" stop-color="#cecbcb"/></linearGradient><radialGradient id="a" cx="90.750004025" cy="110.25296681175" gradientUnits="userSpaceOnUse" r="24.50127823847" xlink:href="#b"/><linearGradient id="b"><stop offset="0" stop-color="#fff"/><stop offset="1" stop-color="#fff" stop-opacity="0"/></linearGradient><clipPath id="c"><path d="m112 82.502986c0 4.465301-2.79749 6.409952-5.27972 8.093625-5.10854 3.46508-13.938044 1.321114-19.719214 1.402134-.081 5.781159-.83521 17.508845-4.30029 22.617385-1.68367 2.48224-5.29051 5.38687-8.20078 5.38687 2.31803 0 4.74284-1.33476 7.58402-4.08481 9.14197-8.84873 17.36714-16.13535 25.673154-25.297529 1.91895-2.116745 4.24283-3.641881 4.24283-8.117675z"/></clipPath><filter id="d" color-interpolation-filters="sRGB"><feGaussianBlur stdDeviation=".43040059"/></filter><linearGradient id="e" gradientUnits="userSpaceOnUse" x1="70.5876808794" x2="81.95317100142" y1="87.53742507045" y2="98.90291788431"><stop offset="0" stop-color="#fcfcfc"/><stop offset=".52275378" stop-color="#f8f8f8"/><stop offset=".72337759" stop-color="#f0efef"/><stop offset=".89024991" stop-color="#e3e1e1"/><stop offset="1" stop-color="#cecbcb"/></linearGradient><clipPath id="f"><path d="m17.000001 8 .782827 110h57.5c1.675283 0 3.119418.18058 4.9-1.6 8.797935-8.79794 21.555682-20.986749 28.814252-28.310901 2.44056-2.462612 1.00292-.754699 1.00292-3.007572v-77.081527z"/></clipPath><filter id="g" color-interpolation-filters="sRGB" height="1.241294" width="1.225275" x="-.112638" y="-.120647"><feGaussianBlur stdDeviation="2.3860572"/></filter><radialGradient id="h" cx="64" cy="64.004021" fx="63.793392" fy="47.274845" gradientTransform="matrix(1.6842105 -.08429519 .06886339 1.3758846 -56.196801 -18.66323)" gradientUnits="userSpaceOnUse" r="47.5" xlink:href="#b"/><filter id="i" color-interpolation-filters="sRGB" height="2.025501" width="1.957419" x="-.478709" y="-.512751"><feGaussianBlur stdDeviation="10.140743"/></filter><linearGradient id="j" gradientUnits="userSpaceOnUse" x1="64.0002" x2="64.0002" y1=".000003" y2="116.400913"><stop offset="0" stop-color="#eeecec"/><stop offset=".40000001" stop-color="#f4f4f4"/><stop offset="1" stop-color="#f6f5f5"/></linearGradient><filter id="k"><feGaussianBlur stdDeviation="1.5615"/></filter><filter id="l"><feGaussianBlur stdDeviation="2.028"/></filter><linearGradient id="m" gradientTransform="matrix(0 1.0099851 -1.0099851 0 128.64009 -20.035653)" gradientUnits="userSpaceOnUse" x1="63.998402" x2="63.998402" y1="2.012823" y2="74.721313"><stop offset="0" stop-color="#fefefe"/><stop offset=".23920465" stop-color="#e9eaea"/><stop offset="1" stop-color="#fdfdfd"/></linearGradient><linearGradient id="n" gradientTransform="matrix(0 -1.0293895 1.0293895 0 11.93834 80.22496)" gradientUnits="userSpaceOnUse" x1="64.129814" x2="5.126446" y1="56.231236" y2="56.231236"><stop offset="0"/><stop offset=".56999999" stop-opacity=".588235"/><stop offset=".74199998" stop-color="#3b3b3b" stop-opacity=".72"/><stop offset="1" stop-color="#fff" stop-opacity="0"/></linearGradient><filter id="o" color-interpolation-filters="sRGB"><feGaussianBlur stdDeviation="1.7999096"/></filter><filter id="p" color-interpolation-filters="sRGB"><feGaussianBlur stdDeviation=".89030997"/></filter><g transform="matrix(.375 0 0 .375 .001199 -.0012)"><path d="m5.3332 5.3364v117.8304l49.8545.4332c2.115476.0184 4.528919-1.77169 7-4.25.71234-.71442 1.440746-1.39395 2.15625-2.09375.415612-.40649.832187-.81443 1.25-1.21875 7.773958-7.40962 26.98341-25.122599 34.21875-33.099999.42065-.42064.81207-.8111 1.15625-1.1875 1.46444-1.49766 2.76158-2.8378 2.99375-5.8625l.0375-.73125-.003-69.819851z" filter="url(#l)" opacity=".456067"/><path d="m5.3332 5.3364v118.3304l49.3318.3c1.527964 0 3.65713-.98408 6.387944-2.83388 13.12308-9.55847 28.544696-29.242774 39.797346-40.632849 1.74325-1.74325 3.24991-3.03751 3.24991-7.20007l-.0028-67.963601z" fill-opacity=".847162" filter="url(#k)"/><path d="m5.3332 5.3364v117.3304h49.3318c1.675283 0 3.914297-.56468 7-3.6 8.870045-8.72523 32.07567-31.518599 39.33424-38.842759 2.44056-2.46261 3.00096-4.47117 3.00096-6.72404l-.0028-68.163601z" fill="#fff"/><path d="m8.5002 8.000003c-.339844 0-.5.234618-.5.5v109.968747c0 .82158.679323 1.5 1.5 1.5h48.6875c.05308 0 .810384.0234 1.5.0313 1.777664-.0401 3.131974-.75374 4.356035-1.59328 1.051866-.29103 25.980435-26.619589 35.101555-35.809239 1.36239-1.37262 2.18546-3.94817 2.18546-4.89561l.00005-69.201918c0-.322717-.16322-.5-.5-.5z" fill="url(#j)"/><path d="m8.5002 8.000003c-.339844 0-.5.234618-.5.5v109.968747c0 .82158.679323 1.49946 1.5 1.5l47.5.0313c.05308.00003 3.273884-.008 3.9635.00005 6.540972-4.50366 29.9679-28.953329 38.91313-37.955139 1.47685-1.65649.4576-.37007 1.45391-1.60746l.00006-71.937498c0-.322717-.16322-.5-.5-.5z" fill="url(#h)" opacity=".846535"/><path clip-path="url(#f)" d="m114.4 82.502986c0 4.465301-10.35333 4.544899-12.83556 6.228572-5.108544 3.46508-13.006225-2.168513-18.787395-2.087488-1.323172 15.00574 1.387776 20.08773-1.659095 25.82359-1.407065 2.64885-4.007683 11.03535-6.917953 11.03535-2.091359 1.53369 3.488204 8.211 6.734971 5.31988 9.501888-8.46107 35.131682-30.022699 43.350822-39.262884 2.04044-2.29392-4.90514-9.844666-9.88579-7.05702z" filter="url(#i)" opacity=".34728" transform="matrix(1.2774204 0 0 1.2774204 -39.076086 -28.013102)"/><path clip-path="url(#f)" d="m113.9 80.247307c0 4.465301-5.43022 8.164019-7.91245 9.847692-5.10854 3.46508-16.273806-.08102-22.054976 0-1.735145 8.131786.420402 22.046681-1.331798 24.721131-1.643721 2.50887-4.69051 7.98687-7.60078 7.98687-2.091359 1.5337 3.488204 11.21101 6.734971 8.31989 9.501888-8.46107 45.998943-30.20138 54.218083-39.441569 2.04044-2.29392-17.0724-14.221665-22.05305-11.434014z" filter="url(#g)" opacity=".40099" transform="matrix(1.3299764 0 0 1.3299764 -44.963343 -37.156423)"/><path d="m103.99401 72.570604c0 5.938743-3.72059 8.525082-7.0219 10.764323-6.794238 4.608475-18.62029 1.892719-26.30911 2.000473-.107728 7.688805-1.027789 23.15068-5.636263 29.94492-2.239241 3.30132-7.036253 7.16441-10.906844 7.16441 3.082925 0 6.307865-1.7752 10.086567-5.4327 12.158605-11.76861 23.097887-21.459634 34.14469-33.645117 2.55216-2.815215 5.64286-4.843615 5.64286-10.796309z" fill="url(#e)"/><path d="m104.01895 73.115242c-.42084 5.185724-5.08438 7.318602-8.17936 9.417895-5.020443 3.405327-18.50819 2.801263-26.50799 2.801263 0 7.9998-1.047447 23.49711-5.453 30.22372-1.912401 2.91993-4.654194 5.79882-8.19598 6.58338 2.633964-.48185 5.299865-2.47561 8.470288-5.54435.451018-.51674.763801-.90298 1.471286-1.99496 4.608475-6.79423 6.151059-10.68893 6.374006-26.60119 7.68882-.107728 17.861768.354215 24.656-4.254259.619-.41986 2.51897-1.313671 3.06727-1.861967 2.04322-2.043229 3.9922-4.273773 4.29748-8.769532zm-48.33633 49.026258c-.209681.0464-.416863.0551-.623426.0831.208794-.0225.412882-.0446.623426-.0831z" fill="#fff"/><path clip-path="url(#c)" d="m117.31456 81.861283-44.675455 43.487067" fill="none" filter="url(#d)" stroke="url(#a)" stroke-width="1.2" transform="matrix(1.3299764 0 0 1.3299764 -44.963343 -37.156423)"/><path d="m63.121094 5.1660156c.341318-.075982.128057-.040121-.283203.3476563a1.9953476 1.9953476 0 0 1 -2.779297-.041016l1.263672 1.265625-33.546875 31.1191408c-.000888.000838.000883.0011 0 .002-.368537.346706-.310542.06067-.310547.671875 0 .612603-.06092.323234.310547.673828a1.9953476 1.9953476 0 0 1 .04492.04297l8.15625 8.1875a1.9953476 1.9953476 0 0 1 .0039.0059c.0014.0014.0025.000603.0039.002a1.9953476 1.9953476 0 0 1 .002.002c.435153.417979.748473.42397 1.220703.07227a1.9953476 1.9953476 0 0 1 .01563-.01367l15.84375-12.65625a1.9953476 1.9953476 0 0 1 3.240235 1.50586l1 38.1875a1.9953476 1.9953476 0 0 1 .002.04297c.0026.540186.0643.802729.09375.951172h11.15039c.78323-.0037.947424-.167952.951172-.951172a1.9953476 1.9953476 0 0 1 .002-.04297l1-38.1875a1.9953476 1.9953476 0 0 1 3.240235-1.50586l15.84375 12.65625a1.9953476 1.9953476 0 0 1 .0039.0039c.176726.123005 1.059301.07199 1.205078-.06641h.002a1.9953476 1.9953476 0 0 1 .0098-.01172l8.25-8.21875a1.9953476 1.9953476 0 0 1 .03906-.03711c.247682-.23375.216803-.230116.216797-.642578 0-.294918-.01095-.420569-.279297-.673828l-34.986533-32.4259581a1.9953476 1.9953476 0 0 1 -.01953-.017578c-.08893-.084596-.203613-.133991-.326172-.140625a1.9953476 1.9953476 0 0 1 -.345704-.0488282c-.458339-.1069222-.148981-.0784731-.238281-.0585938z" fill="url(#n)" filter="url(#p)" transform="matrix(0 1.0099851 -1.0099851 0 130.15975 -20.035653)"/><path d="m62.849609 3.9433594c-.173097.038534-.495152.3056815-.871093.6601562a.74276471.74276471 0 0 1 -1.013672.00586l.390625.3906244-34.439453 31.947266c-.000759.000716-.0012.0012-.002.002l-.002.002c-.42557.401399-.701163.628001-.701171 1.580078 0 .955462.276979 1.179942.705078 1.583984a.74276471.74276471 0 0 1 .01563.01758l8.15625 8.1875a.74276471.74276471 0 0 1 .0039.0039c.0056.0057.01181.01186.01758.01758.0012.0012.0027.000798.0039.002.000644.000635.0013.0013.002.002.850072.817738 1.936037.862329 2.863282.160156a.74276471.74276471 0 0 1 .02734-.02344l15.84375-12.65625a.74276471.74276471 0 0 1 1.205079.560547l1 38.1875a.74276471.74276471 0 0 1 0 .01563c.0034.716407.07531 1.363151.240234 1.708984.164446.344821.276845.486308.923828.490234h11.339844c1.369627-.0066 2.192664-.8296 2.199218-2.199218a.74276471.74276471 0 0 1 0-.01563l1-38.1875a.74276471.74276471 0 0 1 1.205079-.560547l15.84375 12.65625a.74276471.74276471 0 0 1 .02734.02344c.736696.555121 2.177767.474427 2.837891-.164062.0061-.006.01154-.01338.01758-.01953a.74276471.74276471 0 0 1 .0059-.0039l8.25-8.21875a.74276471.74276471 0 0 1 .01367-.01563c.523656-.494205.611336-.955457.611326-1.552734 0-.553523-.14247-1.082507-.673826-1.583984l-34.994124-32.4337821a.74276471.74276471 0 0 1 -.0078-.00586c-.304646-.2897916-.703221-.461649-1.12306-.4843744a.74276471.74276471 0 0 1 -.126953-.0195313c-.342961-.0800067-.429806-.141826-.794922-.0605468z" fill="url(#n)" filter="url(#o)" opacity=".381188" transform="matrix(0 1.0099851 -1.0099851 0 130.15975 -20.035653)"/><path d="m124.81837 44.28838-33.26939 35.34871c-.0802.085-.19183.13311-.30865.13311s-.22847-.0481-.30865-.13311l-8.31735-8.31734c-.14584-.15078-.15964-.38549-.0325-.55233l16.08237-20.11108h-44.86818c-.2328-.001-.42125-.18956-.42236-.42236v-12.47602c.001-.2328.18956-.42125.42236-.42236h44.86818l-16.08237-20.111082c-.12715-.166837-.11335-.401546.0325-.552324l8.31735-8.317344c.0802-.08496.19183-.13311.30865-.13311.11681 0 .22847.04815.30865.13311l33.26939 35.34871c.23889.16924 0 .40754 0 .58482z" fill="url(#m)"/><path d="m124.91858 43.84215c-.0112-.0489-.0571-.11351-.11687-.15582l-33.26789-35.332503c-.0802-.08496-.19482-.116866-.31164-.116867-.11682 0-.1925.03191-.27269.116867l-1.44392 2.259411 31.12533 33.073092c.23889.16923 0 .40706 0 .58433l-31.12533 33.11206 1.44392 2.25941c.0802.085.15587.11686.27269.11686s.23147-.0319.31164-.11686l33.26789-35.37147c0-.13295.15046-.28178.11687-.42851z" fill="#fff"/></g></svg>