<svg height="48" width="48" xmlns="http://www.w3.org/2000/svg" xmlns:xlink="http://www.w3.org/1999/xlink"><linearGradient gradientUnits="userSpaceOnUse" x1="86.88201248139" x2="95.70883902098" y1="93.75643919115" y2="102.58326471875"><stop offset="0" stop-color="#fcfcfc"/><stop offset=".52275378" stop-color="#f8f8f8"/><stop offset=".77457333" stop-color="#f0efef"/><stop offset=".90122044" stop-color="#e3e1e1"/><stop offset="1" stop-color="#cecbcb"/></linearGradient><radialGradient id="a" cx="90.750004025" cy="110.25296681175" gradientUnits="userSpaceOnUse" r="24.50127823847" xlink:href="#b"/><linearGradient id="b"><stop offset="0" stop-color="#fff"/><stop offset="1" stop-color="#fff" stop-opacity="0"/></linearGradient><clipPath id="c"><path d="m112 82.502986c0 4.465301-2.79749 6.409952-5.27972 8.093625-5.10854 3.46508-13.938044 1.321114-19.719214 1.402134-.081 5.781159-.83521 17.508845-4.30029 22.617385-1.68367 2.48224-5.29051 5.38687-8.20078 5.38687 2.31803 0 4.74284-1.33476 7.58402-4.08481 9.14197-8.84873 17.36714-16.13535 25.673154-25.297529 1.91895-2.116745 4.24283-3.641881 4.24283-8.117675z"/></clipPath><filter id="d" color-interpolation-filters="sRGB"><feGaussianBlur stdDeviation=".43040059"/></filter><linearGradient id="e" gradientUnits="userSpaceOnUse" x1="94.19528151151" x2="103.87998076566" y1="92.69983928538" y2="102.38454083328"><stop offset="0" stop-color="#fcfcfc"/><stop offset=".52275378" stop-color="#f8f8f8"/><stop offset=".72337759" stop-color="#f0efef"/><stop offset=".89024991" stop-color="#e3e1e1"/><stop offset="1" stop-color="#cecbcb"/></linearGradient><clipPath id="f"><path d="m17.000001 8 .782827 110h59.065655c1.675283 0 2.806287.18058 4.586869-1.6 8.797935-8.79794 18.391507-17.653307 25.682938-24.944742 2.80383-2.803822 2.88171-3.533737 2.88171-7.939386v-75.515872z"/></clipPath><filter id="g" color-interpolation-filters="sRGB" height="1.241294" width="1.225275" x="-.112638" y="-.120647"><feGaussianBlur stdDeviation="2.3860572"/></filter><radialGradient id="h" cx="64" cy="64.004021" fx="63.793392" fy="47.274845" gradientTransform="matrix(1.6842105 -.08429519 .06886339 1.3758846 -37.533198 -18.663097)" gradientUnits="userSpaceOnUse" r="47.5" xlink:href="#b"/><filter id="i" color-interpolation-filters="sRGB" height="2.025501" width="1.957419" x="-.478709" y="-.512751"><feGaussianBlur stdDeviation="10.140743"/></filter><linearGradient id="j" gradientUnits="userSpaceOnUse" x1="82.663803" x2="82.663803" y1=".000136" y2="116.401046"><stop offset="0" stop-color="#eeecec"/><stop offset=".40000001" stop-color="#f4f4f4"/><stop offset="1" stop-color="#f6f5f5"/></linearGradient><filter id="k"><feGaussianBlur stdDeviation="2.028"/></filter><linearGradient id="l" gradientTransform="matrix(0 1.0099851 -1.0099851 0 80.738693 -12.02346)" gradientUnits="userSpaceOnUse" x1="59.432156" x2="59.432156" y1="87.764748" y2="5.917404"><stop offset="0" stop-color="#fefefe"/><stop offset=".23920465" stop-color="#e9eaea"/><stop offset="1" stop-color="#fdfdfd"/></linearGradient><linearGradient id="m" gradientTransform="matrix(0 -1.0293895 1.0293895 0 11.93834 80.22496)" gradientUnits="userSpaceOnUse" x1="4.038081" x2="63.029797" y1="30.748707" y2="30.748707"><stop offset="0"/><stop offset=".14905235"/><stop offset=".56999999" stop-opacity=".588235"/><stop offset=".74199998" stop-color="#3b3b3b" stop-opacity=".72"/><stop offset="1" stop-color="#fff" stop-opacity="0"/></linearGradient><filter id="n" color-interpolation-filters="sRGB"><feGaussianBlur stdDeviation="1.7999096"/></filter><filter id="o" color-interpolation-filters="sRGB"><feGaussianBlur stdDeviation=".89030997"/></filter><linearGradient id="p" gradientTransform="matrix(0 -1.0293895 1.0293895 0 11.93834 80.22496)" gradientUnits="userSpaceOnUse" x1="29.686653" x2="73.289223" y1="38.443279" y2="38.443279"><stop offset="0"/><stop offset=".19252202"/><stop offset=".56999999" stop-opacity=".588235"/><stop offset=".74199998" stop-color="#3b3b3b" stop-opacity=".72"/><stop offset="1" stop-color="#fff" stop-opacity="0"/></linearGradient><filter id="q"><feGaussianBlur stdDeviation="2.0063009"/></filter><radialGradient id="r" cx="74.664803" cy="53.335243" gradientTransform="matrix(1.1925946 0 0 1.1925542 -14.282636 -10.269838)" gradientUnits="userSpaceOnUse" r="35.77544"><stop offset="0" stop-color="#fcfcfc"/><stop offset="1" stop-color="#fcfcfc" stop-opacity="0"/></radialGradient><g transform="matrix(.375 0 0 .375 .001199 -.0012)"><path d="m23.996803 5.3365333v117.8303967l55.8545.4332c2.115492.0164 4.528919-1.77169 7-4.25.71234-.71442 1.440746-1.39395 2.15625-2.09375.415612-.40649.832187-.81443 1.25-1.21875 7.773958-7.40962 21.883407-19.122596 29.118747-27.099996.42065-.42064.81207-.8111 1.15625-1.1875 1.46444-1.49766 2.76158-2.8378 2.99375-5.8625l.0375-.73125-.003-75.8198507z" filter="url(#k)" opacity=".59116"/><path d="m23.996803 5.3365333v117.8303967l55.3318.3c1.527964 0 3.65713-.98408 6.387944-2.83388 13.12308-9.55847 22.544693-21.742771 33.797343-33.132846 1.74325-1.74325 3.24991-3.03751 3.24991-7.20007l-.0028-74.9636007z" fill-opacity=".847162" filter="url(#q)"/><path d="m23.996803 5.3365333v117.3303967h55.3318c1.675283 0 3.914297-.56468 7-3.6 8.870045-8.72523 26.075667-24.518596 33.334237-31.842756 2.44056-2.46261 3.00096-4.47117 3.00096-6.72404l-.0028-75.1636007z" fill="#fff"/><path d="m27.163803 8.0001363c-.339844 0-.5.234618-.5.5v109.9687437c0 .82158.679323 1.5 1.5 1.5h48.6875c.05308 0 .810384.0234 1.5.0313 1.777664-.0401 3.131974-.75374 4.356035-1.59328 1.051866-.29103 25.980432-26.619586 35.101552-35.809236 1.36239-1.37262 2.18546-3.94817 2.18546-4.89561l.00005-69.2019177c0-.322717-.16322-.5-.5-.5z" fill="url(#j)"/><path d="m27.163803 8.0001363c-.339844 0-.5.234618-.5.5v109.9687437c0 .82158.679323 1.49951 1.5 1.5l52.5.0313c.05308.00003 3.273884-.008 3.9635.00005 6.540972-4.50366 24.967897-22.953326 33.913127-31.955136 1.47685-1.65649.4576-.37007 1.45391-1.60746l.00006-77.9374977c0-.322717-.16322-.5-.5-.5z" fill="url(#h)" opacity=".846535"/><path clip-path="url(#f)" d="m114.4 82.502986c0 4.465301-10.35333 4.544899-12.83556 6.228572-5.108544 3.46508-13.006225-2.168513-18.787395-2.087488-1.323172 15.00574 1.387776 20.08773-1.659095 25.82359-1.407065 2.64885-4.007683 11.03535-6.917953 11.03535-2.091359 1.53369 3.488204 8.211 6.734971 5.31988 9.501888-8.46107 35.131682-30.022699 43.350822-39.262884 2.04044-2.29392-4.90514-9.844666-9.88579-7.05702z" filter="url(#i)" opacity=".34728" transform="matrix(1.2774204 0 0 1.2774204 -20.412483 -28.012969)"/><path d="m63.125 5.15625c.341318-.075982.13001-.044027-.28125.34375-.180432.1729642-.39368.3115756-.625.40625-.02065.01078-.04149.021199-.0625.03125l-34.375 31.90625-.03125.03125c-.307849.269477-.281245.07715-.28125.65625 0 .612603-.05897.336906.3125.6875.01053.0103.02095.02072.03125.03125l8.15625 8.1875c.01042-.000082.02083-.000082.03125 0 .419505.394913.732683.426122 1.1875.09375.0103-.01053.02072-.02095.03125-.03125l15.84375-12.65625c.575332-.465644 1.41944-.570856 2.091471-.260688.672032.310169 1.139608 1.020774 1.158529 1.760688l.0099 39.177614c.000327.02083.000327.04167 0 .0625.0026.540917.06438.789622.09375.9375h13.136478c.783229-.0037.933752-.154281.9375-.9375-.000327-.02083-.000327-.04167 0-.0625l.009872-39.177614c.01892-.739914.486497-1.450519 1.158529-1.760688.672031-.310168 1.516139-.204956 2.091471.260688l15.84375 12.65625c.162465.123825 1.009528.06954 1.1875-.0625.0047-.0035.02755.0036.03125 0l8.25-8.21875c.0103-.01053.02072-.02095.03125-.03125.247682-.233751.218756-.243788.21875-.65625 0-.278737-.02225-.429259-.25-.65625l-.03125-.03125-34.96875-32.40625c-.01053-.010301-.02095-.020718-.03125-.03125-.08893-.084596-.189941-.118366-.3125-.125-.126608-.00884-.252367-.029804-.375-.0625-.458339-.1069222-.12945-.0823793-.21875-.0625z" fill="url(#p)" filter="url(#o)" transform="matrix(0 1.0099851 -1.0099851 0 82.258353 -12.02346)"/><path d="m62.84375 3.9375c-.173098.038534-.499059.3017753-.875.65625-.103688.09655-.235547.1624798-.375.1875h-.03125l-34.65625 32.15625c-.428162.404083-.687492.638286-.6875 1.59375 0 .955462.259401 1.189708.6875 1.59375.01041-.000219.02084-.000219.03125 0l8.15625 8.1875c.0072.0073.02381.02394.03125.03125.83409.806782 1.89548.848188 2.8125.1875.02033-.01139.04119-.02182.0625-.03125-.000219-.01042-.000219-.02083 0-.03125l15.84375-12.65625c.428793-.357988 1.212978.0039 1.21875.5625l.0099 38.1875c.000219.01041.000219.02083 0 .03125.0034.716407.05382 1.372917.21875 1.71875.164928.345833.285459.465618.9375.46875h13.323976c1.369627-.0066 2.180946-.817882 2.1875-2.1875-.000219-.01042-.000219-.02084 0-.03125l.009874-38.1875c.0058-.558557.789957-.920488 1.21875-.5625l15.84375 12.65625c.000219.01042.000219.02083 0 .03125.0073.0056.02377-.0055.03125 0 .01072.0101.02115.02053.03125.03125.749008.519238 2.134253.438292 2.78125-.1875.0073-.0072.02394-.02381.03125-.03125l8.25-8.21875c.01041-.000219.02084-.000219.03125 0 .52366-.494205.59376-.965223.59375-1.5625 0-.553523-.12489-1.092273-.65625-1.59375l-35-32.4375c-.304634-.2897922-.705161-.4460246-1.125-.46875-.042466-.006772-.084343-.017241-.125-.03125-.342961-.0800067-.447385-.1437792-.8125-.0625z" fill="url(#m)" filter="url(#n)" opacity=".381188" transform="matrix(0 1.0099851 -1.0099851 0 82.258353 -12.02346)"/><path d="m76.916973 52.300573-33.26939 35.34871c-.0802.085-.19183.13311-.30865.13311s-.22847-.0481-.30865-.13311l-8.31735-8.31734c-.14584-.15078-.15964-.38549-.0325-.55233l16.08237-20.11108h-44.8681797c-.2328-.001-.42125-.18956-.42236-.42236v-12.47602c.001-.2328.18956-.42125.42236-.42236h44.8681797l-16.08237-20.111082c-.12715-.166837-.11335-.401546.0325-.552324l8.31735-8.317344c.0802-.08496.19183-.13311.30865-.13311.11681 0 .22847.04815.30865.13311l33.26939 35.34871c.23889.16924 0 .40754 0 .58482z" fill="url(#l)"/><path d="m77.017183 51.854343c-.0112-.0489-.0571-.11351-.11687-.15582l-33.26789-35.332503c-.0802-.08496-.19482-.116866-.31164-.116867-.11682 0-.1925.03191-.27269.116867l-1.44392 2.259411 31.12533 33.073092c.23889.16923 0 .40706 0 .58433l-31.12533 33.11206 1.44392 2.25941c.0802.085.15587.11686.27269.11686s.23147-.0319.31164-.11686l33.26789-35.37147c0-.13295.15046-.28178.11687-.42851z" fill="#fff"/><path clip-path="url(#f)" d="m113.9 80.247307c0 4.465301-5.43022 8.164019-7.91245 9.847692-5.10854 3.46508-16.273806-.08102-22.054976 0-1.735145 8.131786.420402 22.046681-1.331798 24.721131-1.643721 2.50887-4.69051 7.98687-7.60078 7.98687-2.091359 1.5337 3.488204 11.21101 6.734971 8.31989 9.501888-8.46107 45.998943-30.20138 54.218083-39.441569 2.04044-2.29392-17.0724-14.221665-22.05305-11.434014z" filter="url(#g)" opacity=".40099" transform="matrix(1.1332922 0 0 1.1332922 -4.267426 -13.5536)"/><path d="m122.6613 79.946396c0 5.060489-3.17037 7.264346-5.98347 9.172436-5.78946 3.926949-16.797671 1.457082-23.349427 1.548901-.09179 6.551742.05527 19.882757-3.871682 25.672237-1.908089 2.8131-5.995693 6.10489-9.29388 6.10489 2.627005 0 5.375024-1.51267 8.594911-4.62928 10.360523-10.0282 19.682038-18.286066 29.095178-28.669492 2.17473-2.398886 4.80837-4.127316 4.80837-9.199692z" fill="url(#e)"/><path d="m122.68255 80.410489c-.3586 4.418832-4.33248 6.236288-6.96975 8.025126-4.27799 2.901729-15.56766 2.232118-22.384397 2.232118 0 6.816747-1.09599 20.177107-4.850026 25.908947-1.629585 2.48811-3.965906 4.94126-6.983914 5.6098 2.244439-.4106 4.516092-2.10951 7.217656-4.72443.384319-.44032.650846-.76944 1.253704-1.69993 3.926949-5.78946 5.839204-8.86873 6.02918-22.427787 6.551757-.09179 14.622477.06236 20.411937-3.864588.52746-.35777 2.14645-1.119398 2.61366-1.58661 1.74107-1.741064 3.40182-3.641744 3.66195-7.472646zm-41.188087 41.775991c-.178672.0395-.355215.047-.53123.0708.177917-.0191.351823-.038.53123-.0708z" fill="#fff"/><path clip-path="url(#c)" d="m117.31456 81.861283-44.675455 43.487067" fill="none" filter="url(#d)" stroke="url(#a)" stroke-width="1.2" transform="matrix(1.1332922 0 0 1.1332922 -4.267426 -13.5536)"/><path d="m77.428803 59.001933-33.78122 28.64735c-.0802.085-.19183.13311-.30865.13311s-.22847-.0481-.30865-.13311l-8.31735-8.31734c-.14584-.15078-.15964-.38549-.0325-.55233l16.08237-20.11108h-14.86818c-.2328-.001-.42125-.18956-.42236-.42236v-12.47602c.001-.2328.18956-.42125.42236-.42236h14.86818l-16.08237-20.111082c-.12715-.166837-.11335-.401546.0325-.552324l8.31735-8.317344c.0802-.08496.19183-.13311.30865-.13311.11681 0 .22847.04815.30865.13311l33.78122 29.36419c4.395815 3.821044 4.301236 9.623141 0 13.2707z" fill="url(#r)"/></g></svg>