<svg enable-background="new 0 0 128 128" height="48" viewBox="0 0 48 48" width="48" xmlns="http://www.w3.org/2000/svg" xmlns:xlink="http://www.w3.org/1999/xlink"><radialGradient id="a" cx="129.38803" cy="136.27953" gradientTransform="matrix(.9787234 0 0 .9818182 1.361705 1.163636)" gradientUnits="userSpaceOnUse" r="139.55859"><stop offset="0" stop-color="#535557"/><stop offset=".11366145" stop-color="#d3d3d4"/><stop offset=".20296688" stop-color="#ececec"/><stop offset=".2363" stop-color="#fafafa"/><stop offset=".2722" stop-color="#fff"/><stop offset=".5313" stop-color="#fafafa"/><stop offset=".8449" stop-color="#ebecec"/><stop offset="1" stop-color="#e1e2e3"/></radialGradient><radialGradient id="b" cx="133.330002" cy="134.44235" gradientUnits="userSpaceOnUse" r="139.5585"><stop offset="0" stop-color="#dcdcdc"/><stop offset=".0151" stop-color="#b5def2"/><stop offset=".0558" stop-color="#558ca8"/><stop offset=".0964" stop-color="#89afc3"/><stop offset=".1357" stop-color="#b3ccd8"/><stop offset=".1737" stop-color="#d4e2e9"/><stop offset=".2099" stop-color="#ecf2f5"/><stop offset=".2435" stop-color="#fafcfd"/><stop offset=".2722" stop-color="#fff"/></radialGradient><filter id="c"><feGaussianBlur stdDeviation="1.0394514"/></filter><filter id="d"><feGaussianBlur stdDeviation=".50063244"/></filter><radialGradient id="e" cx="48" cy="-.2148" gradientTransform="matrix(.9792 0 0 .9725 133.0002 20.8762)" gradientUnits="userSpaceOnUse" r="55.147999"><stop offset="0" stop-color="#72d13d"/><stop offset=".3553" stop-color="#35ac1c"/><stop offset=".6194" stop-color="#0f9508"/><stop offset=".7574" stop-color="#008c00"/><stop offset="1" stop-color="#007a00"/></radialGradient><radialGradient id="f" cx="19.796871" cy="20.327793" fx="19.796871" fy="20.327793" gradientTransform="matrix(-.03385372 .59922592 .61456802 .028125 22.843189 15.60108)" gradientUnits="userSpaceOnUse" r="16" xlink:href="#e"/><radialGradient id="g" cx="19.796871" cy="20.327793" fx="19.796871" fy="20.327793" gradientTransform="matrix(.03385372 .59922592 -.61456793 .028125 65.154611 15.56828)" gradientUnits="userSpaceOnUse" r="16" xlink:href="#e"/><g transform="matrix(.375 0 0 .375 0 .000037)"><path d="m23 9 .0039 10.827283.03692 101.172717 95.37318-.007c.375-.375.586-.884.586-1.414v-110.579z" filter="url(#c)" opacity=".306849" transform="matrix(1.0416667 0 0 1.0357143 -9.958333 -3.321534)"/><path d="m24.919999 10.931136v108.137934l91.574001.00019c.375-.375.586-.884.586-1.414v-106.724124z" filter="url(#d)" opacity=".89589" transform="matrix(1.0416667 0 0 1.0357143 -9.958333 -3.321534)"/><path d="m23 9.9655172.040816 111.0344828 95.373184-.0071c.375-.375.586-.884.586-1.414v-109.6133828z" filter="url(#c)" opacity=".306849" transform="matrix(1.0416667 0 0 1.0357143 -9.958333 -3.321534)"/><path d="m16.000002 8v112l95.413998-.014c.375-.375.586-.884.586-1.414v-110.572z" fill="url(#b)"/><path d="m19.678725 10.7c-.539276 0-.978723.440836-.978723.981818l-.1 104.736362c0 .54197.439447.98182.978723.98182l90.134505-.0664c.18303-.1836.28677-.43593.28677-.69415l-.7-104.957632c0-.540982-.43847-.981818-.97872-.981818z" fill="url(#a)"/><g fill-rule="evenodd"><path d="m42.6656 8.003v111.9972h1.356463v-111.9972z" fill="#042cff"/><path d="m50.6654 28.0028 10.6664 9.6v-19.2z" fill="url(#g)"/><path d="m37.3324 28.0356-10.6664 9.6v-19.2z" fill="url(#f)"/><path d="m42.6656 83.977936h-26.666v1.356464h26.666z" fill="#042cff"/><path d="m45.3322 83.977936h66.665v1.356464h-66.665z" fill="#042cff"/></g></g></svg>