<svg enable-background="new 0 0 128 128" height="48" viewBox="0 0 48 48" width="48" xmlns="http://www.w3.org/2000/svg" xmlns:xlink="http://www.w3.org/1999/xlink"><filter id="a"><feGaussianBlur stdDeviation="1.0394514"/></filter><filter id="b"><feGaussianBlur stdDeviation=".50063244"/></filter><radialGradient id="c" cx="82.000002" cy="104.3047" gradientUnits="userSpaceOnUse" r="139.5585"><stop offset="0" stop-color="#00537d"/><stop offset=".0151" stop-color="#186389"/><stop offset=".0558" stop-color="#558ca8"/><stop offset=".0964" stop-color="#89afc3"/><stop offset=".1357" stop-color="#b3ccd8"/><stop offset=".1737" stop-color="#d4e2e9"/><stop offset=".2099" stop-color="#ecf2f5"/><stop offset=".2435" stop-color="#fafcfd"/><stop offset=".2722" stop-color="#fff"/></radialGradient><radialGradient id="d" cx="102" cy="112.3047" gradientTransform="matrix(.9787234 0 0 .9818182 -18.638296 -6.836364)" gradientUnits="userSpaceOnUse" r="139.55859"><stop offset="0" stop-color="#535557"/><stop offset=".11366145" stop-color="#898a8c"/><stop offset=".20296688" stop-color="#ececec"/><stop offset=".2363" stop-color="#fafafa"/><stop offset=".2722" stop-color="#fff"/><stop offset=".5313" stop-color="#fafafa"/><stop offset=".8449" stop-color="#ebecec"/><stop offset="1" stop-color="#e1e2e3"/></radialGradient><linearGradient id="e"><stop offset="0" stop-color="#fff"/><stop offset="1" stop-color="#555753"/></linearGradient><linearGradient id="f" gradientUnits="userSpaceOnUse" x1="94.343803" x2="86.535599" xlink:href="#e" y1="102.3447" y2="94.536598"/><linearGradient id="g" gradientUnits="userSpaceOnUse" x1="95" x2="86.586502" xlink:href="#e" y1="103" y2="94.586502"/><linearGradient id="h" gradientUnits="userSpaceOnUse" x1="95" x2="87.292999" y1="103" y2="95.292999"><stop offset="0" stop-color="#fff"/><stop offset="1" stop-color="#393b38"/></linearGradient><linearGradient id="i" gradientUnits="userSpaceOnUse" x1="96" x2="88.000198" y1="104" y2="96.000198"><stop offset="0" stop-color="#888a85"/><stop offset=".0072" stop-color="#8c8e89"/><stop offset=".0673" stop-color="#abaca9"/><stop offset=".1347" stop-color="#c5c6c4"/><stop offset=".2115" stop-color="#dbdbda"/><stop offset=".3012" stop-color="#ebebeb"/><stop offset=".4122" stop-color="#f7f7f6"/><stop offset=".5679" stop-color="#fdfdfd"/><stop offset="1" stop-color="#fff"/></linearGradient><g transform="matrix(.375 0 0 .375 .0037535 .007622625)"><path d="m33.880063 16.079081v102.989789l49.715937.0001c.53 0 1.039-.211 1.414-.586l32.924-31.765936c.375-.375.586-.884.586-1.414l-.15888-69.223953z" filter="url(#b)" opacity=".89589" transform="matrix(1.0416667 0 0 1.0357143 -29.958333 -11.321534)"/><path d="m31.320031 13.504336v108.139284l52.851969.0322c.53 0 1.039-.211 1.414-.586l34.748-33.50382c.375-.375.586-.884.586-1.414l.001-72.667664z" filter="url(#a)" opacity=".306849" transform="matrix(1.0416667 0 0 1.0357143 -29.958333 -11.321534)"/><path d="m5.3334 5.3318v106.668l51.838602.0002c.53 0 1.039-.211 1.414-.586l34.327998-32.828c.375-.375.586-.884.586-1.414l-.1655-71.8402z" fill="url(#c)"/><path d="m9.0001 7.9985c-.539276 0-.978723.440836-.978723.981818l-.047349 99.370962c0 .54197.439447.98182.978723.98182l47.938996.0669c.257404 0 .509915-.10407.691957-.28767l32.829526-31.03113c.18303-.1836.28677-.435927.28677-.694145l-.0322-68.372105c0-.540982-.43847-.981818-.97872-.981818z" fill="url(#d)"/><g transform="translate(-19.999998 -8)"><path d="m111.414 86.586c.25-.25-18.379 6.414-23.414 6.414-1.654 0-3 1.346-3 3 0 5.035-6.664 23.664-6.414 23.414z" fill="url(#f)" opacity=".1"/><path d="m111.414 86.586c.375-.375-13.97 7.414-23.414 7.414-1.103 0-2 .897-2 2 0 9.444-7.789 23.789-7.414 23.414z" fill="url(#g)" opacity=".1"/><path d="m111.414 86.586c.239-.239-13.607 8.414-23.414 8.414-.553 0-1 .447-1 1 0 9.807-8.653 23.653-8.414 23.414z" fill="url(#h)" opacity=".1"/><path d="m78.586 119.414s11.914-9.914 17.414-15.414 15.414-17.414 15.414-17.414-13.164 9.414-23.414 9.414c0 10.25-9.414 23.414-9.414 23.414z" fill="url(#i)"/></g></g><g transform="matrix(.375 0 0 .375 11.003891 4.99090125)"><path d="m33.880063 16.079081v102.989789l49.715937.0001c.53 0 1.039-.211 1.414-.586l32.924-31.765936c.375-.375.586-.884.586-1.414l-.15888-69.223953z" filter="url(#b)" opacity=".89589" transform="matrix(1.0416667 0 0 1.0357143 -29.958333 -11.321534)"/><path d="m31.320031 13.504336v108.139284l52.851969.0322c.53 0 1.039-.211 1.414-.586l34.748-33.50382c.375-.375.586-.884.586-1.414l.001-72.667664z" filter="url(#a)" opacity=".306849" transform="matrix(1.0416667 0 0 1.0357143 -29.958333 -11.321534)"/><path d="m5.3334 5.3318v106.668l51.838602.0002c.53 0 1.039-.211 1.414-.586l34.327998-32.828c.375-.375.586-.884.586-1.414l-.1655-71.8402z" fill="url(#c)"/><path d="m9.0001 7.9985c-.539276 0-.978723.440836-.978723.981818l-.047349 99.370962c0 .54197.439447.98182.978723.98182l47.938996.0669c.257404 0 .509915-.10407.691957-.28767l32.829526-31.03113c.18303-.1836.28677-.435927.28677-.694145l-.0322-68.372105c0-.540982-.43847-.981818-.97872-.981818z" fill="url(#d)"/><g transform="translate(-19.999998 -8)"><path d="m111.414 86.586c.25-.25-18.379 6.414-23.414 6.414-1.654 0-3 1.346-3 3 0 5.035-6.664 23.664-6.414 23.414z" fill="url(#f)" opacity=".1"/><path d="m111.414 86.586c.375-.375-13.97 7.414-23.414 7.414-1.103 0-2 .897-2 2 0 9.444-7.789 23.789-7.414 23.414z" fill="url(#g)" opacity=".1"/><path d="m111.414 86.586c.239-.239-13.607 8.414-23.414 8.414-.553 0-1 .447-1 1 0 9.807-8.653 23.653-8.414 23.414z" fill="url(#h)" opacity=".1"/><path d="m78.586 119.414s11.914-9.914 17.414-15.414 15.414-17.414 15.414-17.414-13.164 9.414-23.414 9.414c0 10.25-9.414 23.414-9.414 23.414z" fill="url(#i)"/></g></g></svg>