<svg height="48" width="48" xmlns="http://www.w3.org/2000/svg" xmlns:xlink="http://www.w3.org/1999/xlink"><linearGradient id="a"><stop offset="0" stop-color="#fd0000"/><stop offset="1" stop-color="#8f0000"/></linearGradient><linearGradient id="b"><stop offset="0" stop-color="#fff"/><stop offset="1" stop-color="#fff" stop-opacity="0"/></linearGradient><radialGradient id="c" cx="72.631729" cy="22.787588" gradientTransform="matrix(7.0638773 0 0 7.0638919 -465.02133 -115.27921)" gradientUnits="userSpaceOnUse" r="1.265237" xlink:href="#a"/><linearGradient id="d" gradientUnits="userSpaceOnUse" x1="50.331949" x2="53.99859" xlink:href="#a" y1="18.669005" y2="51.669004"/><linearGradient id="e" gradientUnits="userSpaceOnUse" x1="44.771442" x2="48.904242" xlink:href="#b" y1="30.932605" y2="46.356423"/><linearGradient id="f" gradientUnits="userSpaceOnUse" x1="66.333339" x2="69.99998" xlink:href="#a" y1="69.399999" y2="102.399998"/><radialGradient id="g" cx="72.631729" cy="22.787588" gradientTransform="matrix(7.0638773 0 0 7.0638919 -449.01994 -64.54822)" gradientUnits="userSpaceOnUse" r="1.265237" xlink:href="#a"/><linearGradient id="h" gradientUnits="userSpaceOnUse" x1="60.772833" x2="64.905633" xlink:href="#b" y1="81.663599" y2="97.087417"/><linearGradient id="i" gradientUnits="userSpaceOnUse" x1="82.331949" x2="85.99859" xlink:href="#a" y1="18.669005" y2="51.669004"/><radialGradient id="j" cx="72.631729" cy="22.787588" gradientTransform="matrix(7.0638773 0 0 7.0638919 -433.02133 -115.27921)" gradientUnits="userSpaceOnUse" r="1.265237" xlink:href="#a"/><linearGradient id="k" gradientUnits="userSpaceOnUse" x1="76.771442" x2="80.904242" xlink:href="#b" y1="30.932605" y2="46.356423"/><linearGradient id="l" gradientTransform="matrix(.32238966 -.00000001 0 .18931695 61.46201 54.143222)" gradientUnits="userSpaceOnUse" x1="45.049786" x2="9.692278" y1="92.52153" y2="103.48482"><stop offset="0" stop-color="#72d13d"/><stop offset=".3553" stop-color="#35ac1c"/><stop offset=".6194" stop-color="#0f9508"/><stop offset=".7574" stop-color="#008c00"/><stop offset="1" stop-color="#007a00"/></linearGradient><g transform="matrix(.375 0 0 .375 .000599 -.000601)"><path d="m7.9998 42.670606v2.6h47.9988v-2.6z" fill="#4d4d4d" fill-opacity=".992157"/><rect fill="url(#d)" height="16" rx="1.546875" width="16" x="39.9986" y="34.668999"/><rect fill="url(#c)" height="11.916666" rx=".837891" width="11.916671" x="42.081947" y="36.752335"/><path d="m43.236364 36.752341c-.618922 0-1.117188.498267-1.117188 1.117188v5.632485c.905495.08607 1.83761.139648 2.792968.139648 3.438363 0 6.6018-.579838 9.123696-1.559407v-4.212726c0-.618921-.498263-1.117188-1.117188-1.117188z" fill="url(#e)"/><path d="m10.6664 93.4016v2.6h106.664v-2.6z" fill="#4d4d4d" fill-opacity=".992157"/><g transform="translate(15.998596)"><rect fill="url(#f)" height="16" rx="1.546875" width="16" x="56" y="85.399994"/><rect fill="url(#g)" height="11.916666" rx=".837891" width="11.916671" x="58.083347" y="87.48333"/><path d="m59.237755 87.483335c-.618922 0-1.117188.498267-1.117188 1.117188v5.632485c.905495.08607 1.83761.139648 2.792968.139648 3.438363 0 6.6018-.579838 9.123696-1.559407v-4.212726c0-.618921-.498263-1.117188-1.117188-1.117188z" fill="url(#h)"/></g><path d="m74.9998 42.670606v2.6h47.9988v-2.6z" fill="#4d4d4d" fill-opacity=".992157"/><rect fill="url(#i)" height="16" rx="1.546875" width="16" x="71.998596" y="34.668999"/><rect fill="url(#j)" height="11.916666" rx=".837891" width="11.916671" x="74.081947" y="36.752335"/><path d="m75.236364 36.752341c-.618922 0-1.117188.498267-1.117188 1.117188v5.632485c.905495.08607 1.83761.139648 2.792968.139648 3.438363 0 6.6018-.579838 9.123696-1.559407v-4.212726c0-.618921-.498263-1.117188-1.117188-1.117188z" fill="url(#k)"/><path d="m32 34.71875a2.6252625 2.6252625 0 0 0 -2.625 2.625v10.453125l-.826172-.603516a2.6252625 2.6252625 0 0 0 -3.404297.263672l-1.3125 1.3125a2.6252625 2.6252625 0 0 0 -.144531 3.556641l7.65625 9a2.6252625 2.6252625 0 0 0 4 0l7.65625-9a2.6252625 2.6252625 0 0 0 -.166016-3.578125l-1.34375-1.3125a2.6252625 2.6252625 0 0 0 -3.382812-.242188l-.826172.603516v-10.453125a2.6252625 2.6252625 0 0 0 -2.625-2.625z" fill="#fff" opacity=".454106" transform="translate(32.00219 18.6996)"/><path d="m57.67469 69.330858 1.33203-1.332029 4.99607 4.064052-.001-16.027681h2.66321l.003 16.027681 4.99594-4.064052 1.33203 1.332029-7.66216 9.986293-7.65803-9.986293h-.00066-.00033z" fill="url(#l)"/><g transform="translate(-16.0014)"><rect fill="url(#f)" height="16" rx="1.546875" width="16" x="56" y="85.399994"/><rect fill="url(#g)" height="11.916666" rx=".837891" width="11.916671" x="58.083347" y="87.48333"/><path d="m59.237755 87.483335c-.618922 0-1.117188.498267-1.117188 1.117188v5.632485c.905495.08607 1.83761.139648 2.792968.139648 3.438363 0 6.6018-.579838 9.123696-1.559407v-4.212726c0-.618921-.498263-1.117188-1.117188-1.117188z" fill="url(#h)"/></g></g></svg>