<svg height="48" width="48" xmlns="http://www.w3.org/2000/svg" xmlns:xlink="http://www.w3.org/1999/xlink"><linearGradient id="a"><stop offset="0" stop-color="#fd0000"/><stop offset="1" stop-color="#8f0000"/></linearGradient><linearGradient id="b"><stop offset="0" stop-color="#fff"/><stop offset="1" stop-color="#fff" stop-opacity="0"/></linearGradient><radialGradient id="c" cx="72.631729" cy="22.787588" gradientTransform="matrix(7.0638773 0 0 7.0638919 -449.01994 -96.54822)" gradientUnits="userSpaceOnUse" r="1.265237" xlink:href="#a"/><linearGradient id="d" gradientUnits="userSpaceOnUse" x1="66.333339" x2="69.99998" xlink:href="#a" y1="37.399999" y2="70.399998"/><linearGradient id="e" gradientUnits="userSpaceOnUse" x1="60.772833" x2="64.905633" xlink:href="#b" y1="49.663599" y2="65.087417"/><linearGradient id="f" gradientUnits="userSpaceOnUse" x1="95.924838" x2="95.924838" xlink:href="#p" y1="84.248741" y2="107.440575"/><linearGradient id="g" gradientUnits="userSpaceOnUse" x1="59.999996" x2="57.434441" y1="92.973083" y2="55.07938"><stop offset="0" stop-color="#fff5e4"/><stop offset=".25" stop-color="#ffecd0"/><stop offset=".5" stop-color="#ffd390"/><stop offset="1" stop-color="#ffc46a"/></linearGradient><linearGradient id="h" gradientUnits="userSpaceOnUse" spreadMethod="reflect" x1="88.60625" x2="91.575107" xlink:href="#o" y1="13.510336" y2="13.510336"/><linearGradient id="i" gradientUnits="userSpaceOnUse" spreadMethod="reflect" x1="31.60625" x2="34.575107" xlink:href="#o" y1="13.510336" y2="13.510336"/><linearGradient id="j" gradientUnits="userSpaceOnUse" spreadMethod="reflect" x1="88.60625" x2="91.575107" xlink:href="#p" y1="13.510336" y2="13.510336"/><linearGradient id="k" gradientUnits="userSpaceOnUse" x1="304.88663" x2="345.62039" xlink:href="#u" y1="385.86127" y2="384.62384"/><linearGradient id="l" gradientTransform="scale(1.0975951 .9110828)" gradientUnits="userSpaceOnUse" x1="26.091133" x2="31.500689" xlink:href="#u" y1="14.856744" y2="14.856744"/><linearGradient id="m" gradientTransform="scale(1.0975951 .9110828)" gradientUnits="userSpaceOnUse" x1="26.091133" x2="31.500689" xlink:href="#b" y1="14.856744" y2="14.856744"/><linearGradient id="n" gradientUnits="userSpaceOnUse" x1="101.400752" x2="101.400752" y1="111.282479" y2="66.395515"><stop offset="0" stop-color="#810000"/><stop offset="1" stop-color="#c50000"/></linearGradient><linearGradient id="o"><stop offset="0" stop-color="#fff"/><stop offset="1" stop-color="#252525" stop-opacity="0"/></linearGradient><linearGradient id="p"><stop offset="0" stop-color="#ff8787"/><stop offset="1" stop-color="#ff8787" stop-opacity="0"/></linearGradient><filter id="q"><feGaussianBlur stdDeviation=".45754832"/></filter><filter id="r" height="1.277481" width="1.279832" x="-.139916" y="-.138741"><feGaussianBlur stdDeviation=".28784801"/></filter><filter id="s" height="1.296071" width="1.232837" x="-.116419" y="-.148036"><feGaussianBlur stdDeviation="2.5695681"/></filter><clipPath id="t"><path d="m-64.510272 10.75c-1.042316.0084-2.040208.423209-2.78125 1.15625l-16.96875 16.96875c-1.561474 1.562119-1.561474 4.094131 0 5.65625l25.4375 25.46875-25.4375 25.46875c-1.561474 1.562119-1.561474 4.094131 0 5.65625l16.96875 16.96875c1.562119 1.56147 4.094131 1.56147 5.65625 0l25.46875-25.4375 25.46875 25.4375c1.5621191 1.56147 4.0941311 1.56147 5.6562501 0l16.9687499-16.96875c1.56147-1.562119 1.56147-4.094131 0-5.65625l-25.4375-25.46875 25.4375-25.46875c1.56147-1.562119 1.56147-4.094131 0-5.65625l-16.9687499-16.96875c-1.562119-1.561474-4.094131-1.561474-5.6562501 0l-25.46875 25.4375-25.46875-25.4375c-.764077-.756011-1.800247-1.172731-2.875-1.15625zm31.1875 63.40625c-.751409-.759464-1.775386-1.18681-2.84375-1.18681s-2.092341.427346-2.84375 1.18681z"/></clipPath><linearGradient id="u"><stop offset="0" stop-color="#765c44"/><stop offset="1" stop-color="#765c44" stop-opacity="0"/></linearGradient><radialGradient id="v" cx="-36.592777" cy="90.072952" gradientTransform="matrix(.4576062 0 0 .782313 -19.847694 18.82067)" gradientUnits="userSpaceOnUse" r="25.986174"><stop offset="0"/><stop offset="1" stop-opacity="0"/></radialGradient><radialGradient id="w" cx="101.96217" cy="107.68211" gradientUnits="userSpaceOnUse" r="19.858841"><stop offset="0" stop-color="#f00"/><stop offset="1" stop-color="#7f0000"/></radialGradient><g transform="matrix(.375 0 0 .375 .000599 -.000601)"><path d="m7.997 61.4016v2.6h112v-2.6z" fill="#4d4d4d" fill-opacity=".992157"/><rect fill="url(#d)" height="16" rx="1.546875" width="16" x="56" y="53.399994"/><rect fill="url(#c)" height="11.916666" rx=".837891" width="11.916671" x="58.083347" y="55.48333"/><path d="m59.237755 55.483335c-.618922 0-1.117188.498267-1.117188 1.117188v5.632485c.905495.08607 1.83761.139648 2.792968.139648 3.438363 0 6.6018-.579838 9.123696-1.559407v-4.212726c0-.618921-.498263-1.117188-1.117188-1.117188z" fill="url(#e)"/><g transform="matrix(1.0544408 0 0 1.0402244 -8.847996 -8.011953)"><path d="m88.47965 79.007098c-.4972.004-.97321.201873-1.32669.551546l-8.09432 8.094324c-.74485.74515-.74485 1.952956 0 2.698106l12.13403 12.148946-12.13403 12.14893c-.74485.74515-.74485 1.95296 0 2.69811l8.09432 8.09432c.74515.74485 1.95295.74485 2.6981 0l12.14895-12.13403 12.14893 12.13403c.74516.74485 1.95296.74485 2.69811 0l8.09432-8.09432c.74485-.74515.74485-1.95295 0-2.69811l-12.13403-12.14893 12.13404-12.148944c.74484-.745152.74484-1.952958-.00001-2.69811l-8.09432-8.094323c-.74515-.744843-1.95295-.744845-2.69811.000002l-12.14893 12.134032-12.14895-12.134035c-.36447-.360627-.85873-.559406-1.37141-.551544zm14.87686 30.245642c-.35843-.36228-.84688-.56613-1.3565-.56613-.50963 0-.99808.20385-1.35651.56613z" fill="url(#n)"/><g fill-rule="evenodd"><path clip-path="url(#t)" d="m-62.57895 106.7868 26.162951-26.870061 25.809397 26.516501-25.809397-40.305083z" filter="url(#s)" stroke="#000" stroke-width=".894304" transform="matrix(.4770136 0 0 .4770136 119.27747 73.879199)"/><path d="m31.7 16 2.875-3.375c-1.051205-1.695758-3.935136-2.288018-5.9375-.3125l2.8125 3.375z" fill="url(#m)" filter="url(#r)" opacity=".498127" transform="matrix(0 .8892682 -.8892682 0 134.58273 87.900608)"/><path d="m31.7 16 2.875-3.375c-1.051205-1.695758-3.935136-2.288018-5.9375-.3125l2.8125 3.375z" fill="url(#l)" filter="url(#r)" opacity=".790262" transform="matrix(.8782235 0 0 -.8782235 60.73951 135.2747)"/><path d="m31.7 16 2.875-3.375c-1.051205-1.695758-3.935136-2.288018-5.9375-.3125l2.8125 3.375z" fill="url(#k)" filter="url(#r)" opacity=".498127" transform="matrix(0 .8052763 .8052763 0 70.31204 90.546684)"/></g><path d="m115.49198 82.641174-13.49197 13.491979-13.49198-13.491978-6.36687 6.36686 13.49199 13.491975-13.49199 13.49198 6.36687 6.36686 13.49197-13.49198 13.49198 13.49198 6.36686-6.36686-13.49198-13.49198 13.49198-13.491977z" fill="url(#w)" opacity=".921348"/><g fill-rule="evenodd"><path d="m88.7 16 2.875-3.375c-1.051205-1.695758-3.935136-2.288018-5.9375-.3125l2.8125 3.375z" fill="url(#j)" filter="url(#r)" opacity=".790262" transform="matrix(.8052763 0 0 -.8052763 44.32666 134.58564)"/><path clip-path="url(#t)" d="m-62.57895 106.7868 26.162951-26.870061 25.809397 26.516501-25.809397-40.305083z" fill="url(#v)" filter="url(#s)" transform="matrix(.4770136 0 0 -.4770136 119.27747 130.89587)"/><path d="m31.7 16 2.875-3.375c-1.051205-1.695758-3.935136-2.288018-5.9375-.3125l2.8125 3.375z" fill="url(#i)" filter="url(#r)" opacity=".790262" transform="matrix(.732329 0 0 .732329 65.33576 71.46747)"/><path d="m88.7 16 2.875-3.375c-1.051205-1.695758-3.935136-2.288018-5.9375-.3125l2.8125 3.375z" fill="url(#h)" filter="url(#r)" opacity=".790262" transform="matrix(.75185 0 0 .75185 49.05509 71.283073)"/></g><path d="m88.284271 18.368396-28.284271 28.28427-28.284271-28.28427-13.347333 13.347333 28.28427 28.284271-28.28427 28.284271 13.347333 13.347339 28.284271-28.284276 28.284271 28.284276 13.347339-13.347339-28.284276-28.284271 28.284276-28.284271z" style="opacity:.921348;fill:none;stroke-width:2.788576;stroke-linecap:round;stroke-linejoin:round;stroke-dashoffset:1.0878;stroke:url(#g);filter:url(#q)" transform="matrix(.4770136 0 0 .4770136 73.3792 73.879201)"/><path d="m88.50946 82.643479-6.36599 6.365994 12.37296 12.372967c.22495.003.44463.0149.6708.0149 7.86406 0 13.27157-1.619471 18.51493-4.233494l7.70718-7.70717c.0689-.238599.13207-.473416.17889-.715524l-6.09768-6.097673-13.49055 13.490539z" fill="url(#f)"/></g></g></svg>