<svg height="48" width="48" xmlns="http://www.w3.org/2000/svg" xmlns:xlink="http://www.w3.org/1999/xlink"><linearGradient id="a"><stop offset="0" stop-color="#0968ef"/><stop offset="1" stop-color="#aecffc"/></linearGradient><linearGradient id="b" gradientTransform="matrix(.1295541 0 0 .06505961 -13.741441 33.58222)" gradientUnits="userSpaceOnUse" x1="399.77466" x2="399.77466" y1="1322.7012" y2="675.8042"><stop offset="0" stop-color="#b4b4b6"/><stop offset=".5" stop-color="#9696a7"/><stop offset="1" stop-color="#eaecec"/></linearGradient><linearGradient id="c" gradientTransform="matrix(.1295541 0 0 -.00650596 -13.942699 76.884007)" gradientUnits="userSpaceOnUse" x1="399.77466" x2="399.77466" y1="1322.7012" y2="-687.91089"><stop offset="0" stop-color="#fff"/><stop offset=".42597079" stop-color="#fff"/><stop offset=".5892781" stop-color="#f1f1f1"/><stop offset=".80219781" stop-color="#eaeaea"/><stop offset="1" stop-color="#dfdfdf"/></linearGradient><linearGradient id="d" gradientTransform="matrix(.1295541 0 0 .01301192 -13.741441 -108.48434)" gradientUnits="userSpaceOnUse" x1="433.9509" x2="433.9509" y1="549.52295" y2="857.27325"><stop offset="0"/><stop offset="1" stop-opacity="0"/></linearGradient><linearGradient id="e" gradientUnits="userSpaceOnUse" x1="53.416799" x2="53.416799" y1="93.361856" y2="61.334886"><stop offset="0" stop-opacity=".361386"/><stop offset="1" stop-opacity="0"/></linearGradient><linearGradient id="f" gradientTransform="matrix(.00000001 -.31921154 -.18745064 0 33.527611 47.888892)" gradientUnits="userSpaceOnUse" x1="12.131731" x2="12.131735" xlink:href="#a" y1="120.57536" y2="-48.434216"/><linearGradient id="g" gradientTransform="matrix(-.00000001 -.31921154 .18745064 0 91.802588 47.889093)" gradientUnits="userSpaceOnUse" x1="12.131731" x2="12.131735" xlink:href="#a" y1="120.57536" y2="-48.434216"/><g transform="matrix(.375 0 0 .375 .000599 -.000601)"><rect fill="url(#b)" height="32.000015" opacity=".544554" rx="4" width="103.997" x="10.666799" y="69.333984"/><path d="m14.666799 69.302737c-2.216 0-4 1.784-4 4l-.000399-1.301337h103.9974l.003 1.301337c0-2.216-1.784-4-4-4z" fill="url(#c)"/><rect fill="url(#d)" height="8.00059" opacity=".70297" rx="3.999996" ry="3.469666" transform="scale(1 -1)" width="109.3306" x="7.999799" y="-101.33459"/><path d="m13.330598 69.335388h2.6666v13.332996h-2.6666z" fill-opacity=".285714"/><path d="m21.330397 69.335388h2.6658v8.0012h-2.6658z" fill-opacity=".285714"/><path d="m29.3302 69.335388h2.666599v7.999796h-2.666599z" fill-opacity=".285714"/><path d="m12.066799 66.633987c-2.2160004 0-4.0000004 1.784-4.0000004 4l-.1 26.700002c0 2.216 1.784 4.000001 4.0000004 4.000001h2.7c-2.216 0-4-1.784001-4-4.000001v-24.000002c0-2.216 1.784-4 4-4h96.000001c2.216 0 4 1.784 4 4v24.000002c0 2.216-1.784 4.000001-4 4.000001h2.6638c2.216 0 4-1.784001 4-4.000001v-26.665202c0-2.216-1.784-4-4-4z" fill="url(#e)" opacity=".871287"/><path d="m26.666 34.669-6.233201 7.999599 19.566201.000201v2.6666l-19.566201-.000201 6.233201 8.000001h-2.637792l-8.028609-8.000001v-2.6666l8.028609-7.999599zm-13.333001.000004.000001 18.666196h-2.6666v-18.6662z" fill="url(#f)"/><g fill-opacity=".285714"><path d="m37.329998 69.335388h2.666599v7.999796h-2.666599z"/><path d="m45.330601 69.335388h2.6666v13.332996h-2.6666z"/><path d="m53.330399 69.335388h2.6658v8.0012h-2.6658z"/><path d="m61.3302 69.335388h2.666599v7.999796h-2.666599z"/><path d="m69.330002 69.335388h2.666599v7.999796h-2.666599z"/><path d="m77.330605 69.335388h2.6666v13.332996h-2.6666z"/><path d="m85.330399 69.335388h2.6658v8.0012h-2.6658z"/><path d="m93.3302 69.335388h2.666599v7.999796h-2.666599z"/><path d="m101.33 69.335388h2.666599v7.999796h-2.666599z"/><path d="m109.3306 69.335388h2.6666v13.332996h-2.6666z"/></g><path d="m98.664199 34.669201 6.233201 7.999599-19.566201.000201v2.6666l19.566201-.000201-6.233201 8.000001h2.637791l8.02861-8.000001v-2.6666l-8.02861-7.999599zm13.333001.000004v18.666196h2.6666v-18.6662z" fill="url(#g)"/><path d="m21.333 77.3553v2h2.65625v-2zm8 0v2h2.65625v-2zm8 0v2h2.65625v-2zm16 0v2h2.65625v-2zm8 0v2h2.65625v-2zm8 0v2h2.65625v-2zm16 0v2h2.65625v-2zm8 0v2h2.65625v-2zm8 0v2h2.65625v-2zm-88 5.3125v2h2.65625v-2zm32 0v2h2.65625v-2zm32 0v2h2.65625v-2zm32 0v2h2.65625v-2z" fill="#fff" fill-opacity=".456647"/></g></svg>