<svg height="48" width="48" xmlns="http://www.w3.org/2000/svg" xmlns:xlink="http://www.w3.org/1999/xlink"><linearGradient id="a" gradientTransform="matrix(.01012142 0 0 .01626492 -71.03189 127.18706)" gradientUnits="userSpaceOnUse" x1="399.77466" x2="399.77466" y1="1164.6696" y2="549.06134"><stop offset="0" stop-color="#717174"/><stop offset=".5" stop-color="#9c9ca1"/><stop offset="1" stop-color="#cdcdd1"/></linearGradient><radialGradient id="b" cx="-65.375" cy="141.125" gradientTransform="matrix(.9374998 0 0 .9374995 -4.085953 8.820384)" gradientUnits="userSpaceOnUse" r="4"><stop offset="0" stop-color="#a9cbfc"/><stop offset="1" stop-color="#aecffc"/></radialGradient><radialGradient id="c" cx="141.125" cy="-65.375" gradientTransform="matrix(.89595165 0 0 .89324258 15.092315 -6.559943)" gradientUnits="userSpaceOnUse" r="4"><stop offset="0" stop-color="#8fbcff"/><stop offset="1" stop-color="#80b3ff"/></radialGradient><linearGradient id="d" gradientTransform="matrix(.07812501 0 0 .1041667 -70.374995 134.45835)" gradientUnits="userSpaceOnUse" x1="128.00131" x2="20.666651" y1="31.499931" y2="115.50096"><stop offset="0" stop-color="#fff"/><stop offset=".42597079" stop-color="#fff"/><stop offset=".5892781" stop-color="#e5e5e5"/><stop offset=".80219781" stop-color="#eaeaea"/><stop offset="1" stop-color="#eee"/></linearGradient><linearGradient id="e" gradientTransform="matrix(0 -.1944077 -.24338929 0 150.55811 -47.649248)" gradientUnits="userSpaceOnUse" x1="102.31124" x2="74.330322" y1="-5.830213" y2="32"><stop offset="0" stop-color="#fff"/><stop offset="1" stop-color="#fff" stop-opacity="0"/></linearGradient><g transform="matrix(2.742822675 0 0 2.742822675 -372.79528125 194.597619)"><rect fill="url(#a)" height="10.573055" opacity=".75" rx=".396846" ry=".461539" transform="matrix(0 1 1 0 0 0)" width="10.573047" x="-69.489586" y="137.375"/><g fill-rule="evenodd"><rect fill="url(#d)" height="9.843874" rx=".173085" ry=".208333" transform="matrix(0 1 1 0 0 0)" width="9.843873" x="-69.125" y="137.73959"/><path d="m147.58347-66.573405c-2.29469 2.076972-6.83209 5.669198-9.84388 6.882122v-5.291535c2.88344-.296371 7.54365-2.866814 9.84388-4.142183z" fill="url(#e)"/></g></g><g transform="matrix(2.742823725 0 0 2.742823725 -358.581015 207.812154)"><rect fill="url(#a)" height="10.573051" rx=".396846" ry=".461539" transform="matrix(0 1 1 0 0 0)" width="10.573073" x="-70.296951" y="136.20306"/><g fill-rule="evenodd"><rect fill="url(#b)" height="9.84387" rx=".173085" ry=".208333" transform="matrix(0 1 1 0 0 0)" width="9.843854" x="-69.932365" y="136.56766"/><path d="m146.41153-67.503449c-2.11179 1.90563-6.98434 6.302091-9.75606 7.414952l-.0318-5.171702c2.65357-.271921 7.67089-3.414194 9.78777-4.58435z" fill="url(#c)"/></g></g></svg>