<svg enable-background="new 0 0 128 128" height="48" viewBox="0 0 48 48" width="48" xmlns="http://www.w3.org/2000/svg" xmlns:xlink="http://www.w3.org/1999/xlink"><linearGradient id="a"><stop offset="0" stop-color="#fff"/><stop offset="1" stop-color="#fff" stop-opacity="0"/></linearGradient><linearGradient id="b"><stop offset="0" stop-color="#fff"/><stop offset="1" stop-color="#555753"/></linearGradient><linearGradient id="c" gradientUnits="userSpaceOnUse" x1="94.343803" x2="86.535599" xlink:href="#b" y1="102.3447" y2="94.536598"/><linearGradient id="d" gradientUnits="userSpaceOnUse" x1="95" x2="86.586502" xlink:href="#w" y1="103" y2="94.586502"/><linearGradient id="e" gradientUnits="userSpaceOnUse" x1="95" x2="87.292999" y1="103" y2="95.292999"><stop offset="0" stop-color="#fff"/><stop offset="1" stop-color="#393b38"/></linearGradient><linearGradient id="f" gradientUnits="userSpaceOnUse" x1="96" x2="88.000198" y1="104" y2="96.000198"><stop offset="0" stop-color="#888a85"/><stop offset=".0072" stop-color="#8c8e89"/><stop offset=".0673" stop-color="#abaca9"/><stop offset=".1347" stop-color="#c5c6c4"/><stop offset=".2115" stop-color="#dbdbda"/><stop offset=".3012" stop-color="#ebebeb"/><stop offset=".4122" stop-color="#f7f7f6"/><stop offset=".5679" stop-color="#fdfdfd"/><stop offset="1" stop-color="#fff"/></linearGradient><radialGradient id="g" cx="102" cy="112.3047" gradientTransform="matrix(.9787234 0 0 .9818182 1.361705 1.163636)" gradientUnits="userSpaceOnUse" r="139.55859"><stop offset="0" stop-color="#535557"/><stop offset=".11366145" stop-color="#898a8c"/><stop offset=".20296688" stop-color="#ececec"/><stop offset=".2363" stop-color="#fafafa"/><stop offset=".2722" stop-color="#fff"/><stop offset=".5313" stop-color="#fafafa"/><stop offset=".8449" stop-color="#ebecec"/><stop offset="1" stop-color="#e1e2e3"/></radialGradient><radialGradient id="h" cx="102.000002" cy="112.3047" gradientUnits="userSpaceOnUse" r="139.5585"><stop offset="0" stop-color="#00537d"/><stop offset=".0151" stop-color="#186389"/><stop offset=".0558" stop-color="#558ca8"/><stop offset=".0964" stop-color="#89afc3"/><stop offset=".1357" stop-color="#b3ccd8"/><stop offset=".1737" stop-color="#d4e2e9"/><stop offset=".2099" stop-color="#ecf2f5"/><stop offset=".2435" stop-color="#fafcfd"/><stop offset=".2722" stop-color="#fff"/></radialGradient><filter id="i"><feGaussianBlur stdDeviation="1.0394514"/></filter><linearGradient id="j"><stop offset="0" stop-color="#0968ef"/><stop offset="1" stop-color="#aecffc"/></linearGradient><filter id="k"><feGaussianBlur stdDeviation=".50063244"/></filter><linearGradient id="l" gradientUnits="userSpaceOnUse" x1="179.293269" x2="184.626469" xlink:href="#m" y1="-50.328096" y2="-50.328096"/><linearGradient id="m" gradientUnits="userSpaceOnUse" x1="94.343803" x2="86.535599" y1="102.3447" y2="94.536598"><stop offset="0" stop-color="#5c5c5c"/><stop offset=".31394675" stop-color="#eff0ef"/><stop offset=".72916669" stop-color="#aaaba9"/><stop offset="1" stop-color="#535551"/></linearGradient><linearGradient id="n" gradientTransform="matrix(1.9999981 0 0 6.9999995 -122.03227 -631.66929)" gradientUnits="userSpaceOnUse" x1="149.32961" x2="154.66281" xlink:href="#m" y1="85.334404" y2="85.334404"/><radialGradient id="o" cx="146.66299" cy="120.00019" gradientTransform="matrix(2.0000008 0 0 2.000001 -146.66311 -117.3337)" gradientUnits="userSpaceOnUse" r="5.3332" xlink:href="#m"/><linearGradient id="p" gradientUnits="userSpaceOnUse" x1="177.079659" x2="188.722489" xlink:href="#a" y1="-52.541746" y2="-9.09009"/><radialGradient id="q" cx="87.5" cy="35.875004" fx="89.841835" fy="49.577999" gradientTransform="matrix(.99150354 -.13044703 .1304408 .9914561 -3.936123 11.720628)" gradientUnits="userSpaceOnUse" r="19.872202"><stop offset="0" stop-color="#d3fcff" stop-opacity="0"/><stop offset=".55311084" stop-color="#baf5fc" stop-opacity=".247059"/><stop offset=".75562102" stop-color="#83b5eb" stop-opacity=".498039"/><stop offset="1" stop-color="#537fc6" stop-opacity=".784483"/></radialGradient><radialGradient id="r" cx="177.12991" cy="42.65752" gradientTransform="matrix(1.7311303 .19371147 -.19380456 1.7319623 -121.23783 -65.55117)" gradientUnits="userSpaceOnUse" r="32.512764"><stop offset="0"/><stop offset="1" stop-opacity="0"/></radialGradient><filter id="s" color-interpolation-filters="sRGB"><feGaussianBlur stdDeviation=".66771187"/></filter><radialGradient id="t" cx="199.99719" cy="96.868515" gradientTransform="matrix(1 0 0 1.0004806 0 -.035878)" gradientUnits="userSpaceOnUse" r="32.512764" xlink:href="#a"/><filter id="u" color-interpolation-filters="sRGB"><feGaussianBlur stdDeviation="2.0893418"/></filter><linearGradient id="v" gradientUnits="userSpaceOnUse" x1="165.64815" x2="198.18205" xlink:href="#w" y1="33.308235" y2="89.6586"/><linearGradient id="w" gradientUnits="userSpaceOnUse" x1="95" x2="86.586502" xlink:href="#b" y1="103" y2="94.586502"/><radialGradient id="x" cx="177.12991" cy="42.65752" gradientTransform="matrix(1 0 0 1.0004806 0 -.035878)" gradientUnits="userSpaceOnUse" r="32.512764" xlink:href="#a"/><linearGradient id="y" gradientUnits="userSpaceOnUse" spreadMethod="reflect" x1="183.60056" x2="205.3282" y1="77.033615" y2="114.667"><stop offset="0" stop-color="#fff"/><stop offset=".19999996" stop-color="#fff" stop-opacity="0"/><stop offset="1" stop-color="#fff" stop-opacity="0"/></linearGradient><filter id="z" color-interpolation-filters="sRGB"><feGaussianBlur stdDeviation=".19214062"/></filter><filter id="A" color-interpolation-filters="sRGB"><feGaussianBlur stdDeviation=".15467289"/></filter><linearGradient id="B" gradientTransform="matrix(1.0260038 .00517786 -.00530278 1.0507565 -46.364189 -12.329575)" gradientUnits="userSpaceOnUse" x1="101.5314" x2="101.5314" xlink:href="#a" y1="18.620571" y2="58.619572"/><radialGradient id="C" cx="71.998199" cy="40.002201" gradientUnits="userSpaceOnUse" r="5.3332" xlink:href="#a"/><linearGradient id="D" gradientTransform="matrix(0 1.0477857 -1.0477857 0 50.434271 -6.870744)" gradientUnits="userSpaceOnUse" x1="100.02859" x2="38.063507" xlink:href="#j" y1="20.118034" y2="20.118034"/><linearGradient id="E" gradientUnits="userSpaceOnUse" x1="105.934382" x2="41.008254" xlink:href="#j" y1="23.980316" y2="23.980316"/><g transform="matrix(.375 0 0 .375 .000599 .000037)"><path d="m23 9 .04082 112h61.13118c.53 0 1.039-.211 1.414-.586l32.828-32.828c.375-.375.586-.884.586-1.414v-77.172z" filter="url(#i)" opacity=".306849" transform="matrix(1.0416667 0 0 1.0357143 -9.958333 -3.321534)"/><path d="m24.919999 10.931136v108.137934l58.676001-.0001c.53 0 1.039-.211 1.414-.586l31.484-31.765936c.375-.375.586-.884.586-1.414v-74.371898z" filter="url(#k)" opacity=".89589" transform="matrix(1.0416667 0 0 1.0357143 -9.958333 -3.321534)"/><path d="m23 9.9655172.040816 111.0344828h61.131184c.53 0 1.039-.211 1.414-.586l32.828-32.828c.375-.375.586-.884.586-1.414v-76.2064828z" filter="url(#i)" opacity=".306849" transform="matrix(1.0416667 0 0 1.0357143 -9.958333 -3.321534)"/><path d="m16.000002 8v112h61.172c.53 0 1.039-.211 1.414-.586l32.827998-32.828c.375-.375.586-.884.586-1.414v-77.172z" fill="url(#h)"/><path d="m19.678725 10.7c-.539276 0-.978723.440836-.978723.981818l-.1 104.736362c0 .54197.439447.98182.978723.98182l57.313022.6c.257404 0 .509915-.10407.691957-.28767l32.129526-32.23113c.18303-.1836.28677-.435927.28677-.694145l-.7-73.105237c0-.540982-.43847-.981818-.97872-.981818z" fill="url(#g)"/><g transform="translate(.000002)"><path d="m111.414 86.586c.25-.25-18.379 6.414-23.414 6.414-1.654 0-3 1.346-3 3 0 5.035-6.664 23.664-6.414 23.414z" fill="url(#c)" opacity=".1"/><path d="m111.414 86.586c.375-.375-13.97 7.414-23.414 7.414-1.103 0-2 .897-2 2 0 9.444-7.789 23.789-7.414 23.414z" fill="url(#d)" opacity=".1"/><path d="m111.414 86.586c.239-.239-13.607 8.414-23.414 8.414-.553 0-1 .447-1 1 0 9.807-8.653 23.653-8.414 23.414z" fill="url(#e)" opacity=".1"/><path d="m78.586 119.414s11.914-9.914 17.414-15.414 15.414-17.414 15.414-17.414-13.164 9.414-23.414 9.414c0 10.25-9.414 23.414-9.414 23.414z" fill="url(#f)"/></g><path d="m37.3324 24.002599h58.6652l-3.143358 3.143357 14.668998-4.491143-14.668998-4.491143 3.143358 3.143357-58.6652.028972z" fill="url(#E)" fill-rule="evenodd"/><g transform="translate(22.834996 -.003302)"><path d="m179.29326-54.244732h5.3332v6.583196h-5.3332z" fill="url(#l)" opacity=".971015" transform="matrix(1.15939946 -.66639083 .67253941 1.15372465 -107.78037 253.50492)"/><path d="m176.62666-47.66153h10.666389v31.999203h-10.666389z" fill="url(#n)" transform="matrix(1.15939946 -.66639083 .67253941 1.15372465 -107.78037 253.50492)"/><path d="m157.3294 122.6668a5.3332 5.3332 0 0 1 -2.6666 4.61869 5.3332 5.3332 0 0 1 -5.3332 0 5.3332 5.3332 0 0 1 -2.6666-4.61869h5.3332z" fill="url(#o)" transform="matrix(1.15939946 -.66639083 .67253941 1.15372465 -166.167422 73.780526)"/><path d="m179.29326-47.66153h2.66658v31.999199h-2.66658z" fill="url(#p)" opacity=".971015" transform="matrix(1.15939946 -.66639083 .67253941 1.15372465 -107.78037 253.50492)"/><circle cx="87.5" cy="35.875004" fill="url(#q)" r="19.872202" transform="matrix(1.5790267 .23923462 -.23923462 1.5790267 -79.561954 -35.53228)"/><g transform="matrix(1.0659043 .16149268 -.16149268 1.0659043 -131.23625 -66.830742)"><path d="m181.34375 43.179688c-17.38944 0-31.47656 14.087118-31.47656 31.476562s14.08712 31.47656 31.47656 31.47656 31.44531-14.086498 31.44531-31.47656-14.05587-31.476563-31.44531-31.476562zm0 1.640624c16.48273 0 29.83594 13.353213 29.83594 29.835938s-13.35254 29.86719-29.83594 29.86719-29.86719-13.383791-29.86719-29.86719 13.38446-29.835938 29.86719-29.835938z" fill="url(#r)" filter="url(#s)" transform="matrix(.91617705 0 0 .91617705 15.199521 6.258093)"/><path d="m181.34375 42.097656c-17.97497 0-32.55859 14.583628-32.55859 32.558594s14.58362 32.55859 32.55859 32.55859 32.52734-14.584283 32.52734-32.55859-14.55237-32.558594-32.52734-32.558594zm0 3.804688c15.89813 0 28.75391 12.855774 28.75391 28.753906s-12.8565 28.78516-28.75391 28.78516-28.78516-12.887747-28.78516-28.78516 12.88703-28.753906 28.78516-28.753906z" fill="url(#t)" filter="url(#u)" opacity=".540984" transform="matrix(.81712719 0 0 .81712719 33.160106 13.652997)"/><path d="m181.34375 42.09375c-17.9772 0-32.5625 14.5853-32.5625 32.5625s14.5853 32.5625 32.5625 32.5625 32.53125-14.585964 32.53125-32.5625-14.55405-32.5625-32.53125-32.5625zm0 3.8125c15.8959 0 28.75 12.854098 28.75 28.75s-12.85482 28.78125-28.75 28.78125-28.78125-12.886072-28.78125-28.78125 12.88535-28.75 28.78125-28.75z" fill="url(#v)"/><path d="m181.34375 43.376953c-17.28301 0-31.2793 13.99629-31.2793 31.279297s13.99629 31.2793 31.2793 31.2793 31.24805-13.995443 31.24805-31.2793-13.96504-31.279297-31.24805-31.279297zm0 1.246094c16.589 0 30.0332 13.444209 30.0332 30.033203s-13.44328 30.06445-30.0332 30.06445-30.06445-13.474529-30.06445-30.06445 13.47545-30.033203 30.06445-30.033203z" fill="url(#x)" opacity=".519126" transform="matrix(1.0317053 0 0 1.0317053 -5.749097 -2.367074)"/><path d="m181.34375 42.980469c-17.49707 0-31.67578 14.178707-31.67578 31.675781s14.17871 31.67578 31.67578 31.67578 31.64453-14.178323 31.64453-31.67578-14.14746-31.675781-31.64453-31.675781zm0 2.039062c16.37527 0 29.63672 13.261453 29.63672 29.636719s-13.26103 29.66797-29.63672 29.66797-29.66797-13.292286-29.66797-29.66797 13.2927-29.636719 29.66797-29.636719z" fill="url(#y)" filter="url(#z)"/><path d="m181.34375 43.730469c-17.09248 0-30.92578 13.833298-30.92578 30.925781s13.8333 30.92578 30.92578 30.92578 30.89453-13.832031 30.89453-30.92578-13.80205-30.925781-30.89453-30.925781zm0 .539062c16.77922 0 30.38672 13.607504 30.38672 30.386719s-13.60612 30.41797-30.38672 30.41797-30.41797-13.637374-30.41797-30.41797 13.63875-30.386719 30.41797-30.386719z" fill="url(#t)" filter="url(#A)" transform="matrix(.95352862 0 0 .95352862 8.426593 3.469478)"/></g><path d="m50.405977 12.543528c-13.075834-.06598-27.050524 10.525156-27.095053 19.348723-.03239 6.417447 14.439877 9.44439 25.814159 9.501794 9.960657.05026 28.590803-1.823763 28.620873-7.782253.048478-9.606335-14.787356-21.004916-27.339979-21.068264z" fill="url(#B)"/><g fill="url(#C)"><circle cx="71.998199" cy="40.002201" opacity=".52459" r="5.3332" transform="matrix(1.5 0 0 1.5 -35.999099 -22.667702)"/><circle cx="71.998199" cy="40.002201" opacity=".52459" r="5.3332" transform="translate(-46.584589 15.469267)"/></g></g><path d="m23.9994 16.002799v13.333h13.333v-13.333zm2.6666 2.6666h7.9998v7.9998h-7.9998z" fill="#797979"/><path d="m29.3326 29.335799v74.665201l-3.143357-3.14336 4.491143 14.669 4.491143-14.669-3.143357 3.14336-.02897-74.665201z" fill="url(#D)" fill-rule="evenodd"/></g></svg>