<svg enable-background="new 0 0 128 128" height="48" viewBox="0 0 48 48" width="48" xmlns="http://www.w3.org/2000/svg" xmlns:xlink="http://www.w3.org/1999/xlink"><radialGradient id="a" cx="129.38803" cy="136.27953" gradientTransform="matrix(.9787234 0 0 .9818182 1.361705 1.163636)" gradientUnits="userSpaceOnUse" r="139.55859"><stop offset="0" stop-color="#535557"/><stop offset=".11366145" stop-color="#d3d3d4"/><stop offset=".20296688" stop-color="#ececec"/><stop offset=".2363" stop-color="#fafafa"/><stop offset=".2722" stop-color="#fff"/><stop offset=".5313" stop-color="#fafafa"/><stop offset=".8449" stop-color="#ebecec"/><stop offset="1" stop-color="#e1e2e3"/></radialGradient><radialGradient id="b" cx="133.330002" cy="134.44235" gradientUnits="userSpaceOnUse" r="139.5585"><stop offset="0" stop-color="#dcdcdc"/><stop offset=".0151" stop-color="#b5def2"/><stop offset=".0558" stop-color="#558ca8"/><stop offset=".0964" stop-color="#89afc3"/><stop offset=".1357" stop-color="#b3ccd8"/><stop offset=".1737" stop-color="#d4e2e9"/><stop offset=".2099" stop-color="#ecf2f5"/><stop offset=".2435" stop-color="#fafcfd"/><stop offset=".2722" stop-color="#fff"/></radialGradient><filter id="c"><feGaussianBlur stdDeviation="1.0394514"/></filter><filter id="d"><feGaussianBlur stdDeviation=".50063244"/></filter><radialGradient id="e" cx="48" cy="-.2148" gradientTransform="matrix(.9792 0 0 .9725 133.0002 20.8762)" gradientUnits="userSpaceOnUse" r="55.147999"><stop offset="0" stop-color="#72d13d"/><stop offset=".3553" stop-color="#35ac1c"/><stop offset=".6194" stop-color="#0f9508"/><stop offset=".7574" stop-color="#008c00"/><stop offset="1" stop-color="#007a00"/></radialGradient><radialGradient id="f" cx="19.796871" cy="20.327793" fx="19.796871" fy="20.327793" gradientTransform="matrix(-.03385372 .59922592 .61456802 .028125 22.843189 15.60108)" gradientUnits="userSpaceOnUse" r="16" xlink:href="#e"/><radialGradient id="g" cx="19.796871" cy="20.327793" fx="19.796871" fy="20.327793" gradientTransform="matrix(.03385372 .59922592 -.61456793 .028125 65.154611 15.56828)" gradientUnits="userSpaceOnUse" r="16" xlink:href="#e"/><filter id="h" color-interpolation-filters="sRGB" height="1.042" width="1.056" x="-.028" y="-.021"><feGaussianBlur stdDeviation=".21"/></filter><linearGradient id="i" gradientTransform="matrix(.63960237 0 0 -.63960237 84.429001 4.553674)" gradientUnits="userSpaceOnUse" x1="36" x2="36" y1="20" y2="4"><stop offset="0" stop-color="#e05f5b"/><stop offset="1" stop-color="#b83b2e" stop-opacity=".98848"/></linearGradient><linearGradient id="j" gradientTransform="scale(1 -1)" gradientUnits="userSpaceOnUse" x1="30.476562" x2="42.523438" y1="11.499024" y2="11.499024"><stop offset="0" stop-color="#eda4a2"/><stop offset="1" stop-color="#db8f87" stop-opacity=".988235"/></linearGradient><filter id="k" color-interpolation-filters="sRGB" height="1.040019" width="1.059957" x="-.029979" y="-.02001"><feGaussianBlur stdDeviation=".15047852"/></filter><filter id="l" color-interpolation-filters="sRGB" height="1.046286" width="1.162" x="-.081" y="-.023143"><feGaussianBlur stdDeviation=".18000003"/></filter><g transform="matrix(.375 0 0 .375 0 .000037)"><path d="m23 9 .0039 10.827283.03692 101.172717 95.37318-.007c.375-.375.586-.884.586-1.414v-110.579z" filter="url(#c)" opacity=".306849" transform="matrix(1.0416667 0 0 1.0357143 -9.958333 -3.321534)"/><path d="m24.919999 10.931136v108.137934l91.574001.00019c.375-.375.586-.884.586-1.414v-106.724124z" filter="url(#d)" opacity=".89589" transform="matrix(1.0416667 0 0 1.0357143 -9.958333 -3.321534)"/><path d="m23 9.9655172.040816 111.0344828 95.373184-.0071c.375-.375.586-.884.586-1.414v-109.6133828z" filter="url(#c)" opacity=".306849" transform="matrix(1.0416667 0 0 1.0357143 -9.958333 -3.321534)"/><path d="m16.000002 8v112l95.413998-.014c.375-.375.586-.884.586-1.414v-110.572z" fill="url(#b)"/><path d="m19.678725 10.7c-.539276 0-.978723.440836-.978723.981818l-.1 104.736362c0 .54197.439447.98182.978723.98182l90.134505-.0664c.18303-.1836.28677-.43593.28677-.69415l-.7-104.957632c0-.540982-.43847-.981818-.97872-.981818z" fill="url(#a)"/><g fill-rule="evenodd"><path d="m42.6656 8.003v111.9972h1.356463v-111.9972z" fill="#042cff"/><path d="m50.6654 28.0028 10.6664 9.6v-19.2z" fill="url(#g)"/><path d="m37.3324 28.0356-10.6664 9.6v-19.2z" fill="url(#f)"/><path d="m42.6656 83.977936h-26.666v1.356464h26.666z" fill="#042cff"/><path d="m45.3322 83.977936h66.665v1.356464h-66.665z" fill="#042cff"/></g><g transform="translate(.001564 -.000001)"><path d="m36.5-.5c-2.178012.00189-4.345122.8280234-5.972656 2.2753906-1.627535 1.4473673-2.700795 3.503128-2.957032 5.6660156-.0027.021378-.004.042907-.0039.064453l-.0625.5585937c-.0024.018791-.0037.037702-.0039.056641v14.8789061c.000028.276131.223869.499972.5.5h7c.276131-.000028.499972-.223869.5-.5v-15.5a1 1 0 0 1 1-1 1 1 0 0 1 1 1v15.5c.000028.276131.223869.499972.5.5h7c.276131-.000028.499972-.223869.5-.5v-14.8789062c-.000226-.018939-.0015-.03785-.0039-.056641l-.07031-.6210937v-.00195c-.256184-2.1622097-1.328412-4.2187346-2.955099-5.6660185-1.626687-1.44728384-3.793381-2.27250004-5.970703-2.2753906z" fill-opacity=".923664" filter="url(#h)" opacity=".3" transform="matrix(2.6666667 0 0 2.6666667 -.001597 -.000099)"/><g fill="#a51e1e"><path d="m101.33173 19.999901 18.47918.000001.18749 1.655367v39.677968h-18.66667z"/><path d="m36.5 0a8.4999999 8.4999999 0 0 0 -8.433594 7.5h6.933594a1.5 1.5 0 0 1 1.5-1.5 1.5 1.5 0 0 1 1.5 1.5h6.929688a8.4999999 8.4999999 0 0 0 -8.429688-7.5z" transform="matrix(2.6666667 0 0 2.6666667 -.001597 -.000099)"/><path d="m93.331736 19.999899-18.47918.000001-.18749 1.655367v39.677968h18.66667z"/></g><path d="m36.498047.99804688c-1.81467.00206192-3.61858.69056672-4.974609 1.89648432-1.481516 1.5114895-2.523438 3.1054687-2.523438 5.1054688v14h5v-14.5c.04763-.5309678.128259-.7649416.208984-.9980469.396991-.9117407 1.296595-1.5015062 2.291016-1.5019531.993712.00122 1.892354.590862 2.289062 1.5019531h.002c.08068.2331053.161309.4670791.208938.9980469v14.5h5v-14c-.342732-1.8134-1.30347-3.9467421-2.525391-5.1035156-1.355323-1.2058483-3.160514-1.8955428-4.974609-1.89843752z" fill="url(#i)" transform="matrix(2.6666667 0 0 2.6666667 -.001597 -.000099)"/><path d="m28 15v8h7v-8zm10 0v8h7v-8z" fill="#7c3530" fill-opacity=".988235" transform="matrix(2.6666667 0 0 2.6666667 -.001597 -.000099)"/><path d="m36.498047 2.4746094c-1.427527.0021123-2.881763.5603121-3.957031 1.5019531-1.329272 1.3667806-2.064454 2.5541444-2.064454 4.0234375v12.523438h2.046876v-13.023438a1.4764492 1.4764492 0 0 1 .0059-.1328125c.057387-.6401964.203901-1.1131375.285115-1.3476563a1.4764492 1.4764492 0 0 1 .04102-.1074218c.629853-1.4465474 2.066802-2.3879629 3.644527-2.3886719a1.4764492 1.4764492 0 0 1 .002 0c1.28354.00158 2.358199.7321476 3.095703 1.7441406a1.4764492 1.4764492 0 0 1 .544922.6445313 1.4764492 1.4764492 0 0 1 .04297.1074218c.08106.2341942.227721.7073748.285156 1.3476563a1.4764492 1.4764492 0 0 1 .005811.1328125v13.023438h2.046876v-12.3242192c-.302574-1.5090658-1.224176-3.4186881-2.052735-4.2128907-1.075539-.9476307-2.538829-1.5089413-3.970703-1.5117187z" fill="url(#j)" filter="url(#k)" opacity=".68" transform="matrix(2.6666667 0 0 2.6666667 -3.996391 -2.599057)"/><path d="m29 15v7h5v-7zm10 0v7h5v-7z" fill="#f2e5e3" fill-opacity=".988235" transform="matrix(2.6666667 0 0 2.6666667 -.001597 -.000099)"/><path d="m77.331734 39.999901h5.333335v18.666668h-5.333335z" fill="#fffbfb" fill-opacity=".988235" filter="url(#l)"/><path d="m105.33173 39.999901h5.333335v18.666668h-5.333335z" fill="#fffbfb" fill-opacity=".988235" filter="url(#l)"/></g></g></svg>