<svg enable-background="new 0 0 128 128" height="48" viewBox="0 0 48 48" width="48" xmlns="http://www.w3.org/2000/svg" xmlns:xlink="http://www.w3.org/1999/xlink"><linearGradient id="a" gradientTransform="matrix(1.4054834 0 0 .71794868 -23.643734 39.384517)" gradientUnits="userSpaceOnUse" x1="28" x2="32" xlink:href="#b" y1="64" y2="64"/><radialGradient id="b" cx="48" cy="-.2148" gradientTransform="matrix(.9792 0 0 .9725 133.0002 20.8762)" gradientUnits="userSpaceOnUse" r="55.147999"><stop offset="0" stop-color="#72d13d"/><stop offset=".3553" stop-color="#35ac1c"/><stop offset=".6194" stop-color="#0f9508"/><stop offset=".7574" stop-color="#008c00"/><stop offset="1" stop-color="#007a00"/></radialGradient><linearGradient id="c" gradientTransform="matrix(0 1.4054834 -.71794868 0 101.94712 -31.642236)" gradientUnits="userSpaceOnUse" x1="28" x2="32" xlink:href="#b" y1="64" y2="64"/><linearGradient id="d" gradientTransform="matrix(.63960237 0 0 -.63960237 84.429001 4.553674)" gradientUnits="userSpaceOnUse" x1="36" x2="36" y1="20" y2="4"><stop offset="0" stop-color="#e05f5b"/><stop offset="1" stop-color="#b83b2e" stop-opacity=".98848"/></linearGradient><linearGradient id="e" gradientTransform="scale(1 -1)" gradientUnits="userSpaceOnUse" x1="30.476562" x2="42.523438" y1="11.499024" y2="11.499024"><stop offset="0" stop-color="#eda4a2"/><stop offset="1" stop-color="#db8f87" stop-opacity=".988235"/></linearGradient><filter id="f" color-interpolation-filters="sRGB" height="1.040019" width="1.059957" x="-.029979" y="-.02001"><feGaussianBlur stdDeviation=".15047852"/></filter><filter id="g" color-interpolation-filters="sRGB" height="1.046286" width="1.162" x="-.081" y="-.023143"><feGaussianBlur stdDeviation=".18000003"/></filter><filter id="h" color-interpolation-filters="sRGB" height="1.042" width="1.056" x="-.028" y="-.021"><feGaussianBlur stdDeviation=".21"/></filter><linearGradient id="i"><stop offset="0" stop-color="#fff"/><stop offset="1" stop-color="#555753"/></linearGradient><linearGradient id="j" gradientUnits="userSpaceOnUse" x1="94.343803" x2="86.535599" xlink:href="#i" y1="102.3447" y2="94.536598"/><linearGradient id="k" gradientUnits="userSpaceOnUse" x1="95" x2="86.586502" xlink:href="#i" y1="103" y2="94.586502"/><linearGradient id="l" gradientUnits="userSpaceOnUse" x1="95" x2="87.292999" y1="103" y2="95.292999"><stop offset="0" stop-color="#fff"/><stop offset="1" stop-color="#393b38"/></linearGradient><linearGradient id="m" gradientUnits="userSpaceOnUse" x1="96" x2="88.000198" y1="104" y2="96.000198"><stop offset="0" stop-color="#888a85"/><stop offset=".0072" stop-color="#8c8e89"/><stop offset=".0673" stop-color="#abaca9"/><stop offset=".1347" stop-color="#c5c6c4"/><stop offset=".2115" stop-color="#dbdbda"/><stop offset=".3012" stop-color="#ebebeb"/><stop offset=".4122" stop-color="#f7f7f6"/><stop offset=".5679" stop-color="#fdfdfd"/><stop offset="1" stop-color="#fff"/></linearGradient><radialGradient id="n" cx="102" cy="112.3047" gradientTransform="matrix(.9787234 0 0 .9818182 1.361705 1.163636)" gradientUnits="userSpaceOnUse" r="139.55859"><stop offset="0" stop-color="#535557"/><stop offset=".11366145" stop-color="#898a8c"/><stop offset=".20296688" stop-color="#ececec"/><stop offset=".2363" stop-color="#fafafa"/><stop offset=".2722" stop-color="#fff"/><stop offset=".5313" stop-color="#fafafa"/><stop offset=".8449" stop-color="#ebecec"/><stop offset="1" stop-color="#e1e2e3"/></radialGradient><radialGradient id="o" cx="102.000002" cy="112.3047" gradientUnits="userSpaceOnUse" r="139.5585"><stop offset="0" stop-color="#00537d"/><stop offset=".0151" stop-color="#186389"/><stop offset=".0558" stop-color="#558ca8"/><stop offset=".0964" stop-color="#89afc3"/><stop offset=".1357" stop-color="#b3ccd8"/><stop offset=".1737" stop-color="#d4e2e9"/><stop offset=".2099" stop-color="#ecf2f5"/><stop offset=".2435" stop-color="#fafcfd"/><stop offset=".2722" stop-color="#fff"/></radialGradient><filter id="p"><feGaussianBlur stdDeviation="1.0394514"/></filter><filter id="q"><feGaussianBlur stdDeviation=".50063244"/></filter><g transform="matrix(.375 0 0 .375 .000599 .000037)"><path d="m23 9 .04082 112h61.13118c.53 0 1.039-.211 1.414-.586l32.828-32.828c.375-.375.586-.884.586-1.414v-77.172z" filter="url(#p)" opacity=".306849" transform="matrix(1.0416667 0 0 1.0357143 -9.958333 -3.321534)"/><path d="m24.919999 10.931136v108.137934l58.676001-.0001c.53 0 1.039-.211 1.414-.586l31.484-31.765936c.375-.375.586-.884.586-1.414v-74.371898z" filter="url(#q)" opacity=".89589" transform="matrix(1.0416667 0 0 1.0357143 -9.958333 -3.321534)"/><path d="m23 9.9655172.040816 111.0344828h61.131184c.53 0 1.039-.211 1.414-.586l32.828-32.828c.375-.375.586-.884.586-1.414v-76.2064828z" filter="url(#p)" opacity=".306849" transform="matrix(1.0416667 0 0 1.0357143 -9.958333 -3.321534)"/><path d="m16.000002 8v112h61.172c.53 0 1.039-.211 1.414-.586l32.827998-32.828c.375-.375.586-.884.586-1.414v-77.172z" fill="url(#o)"/><path d="m19.678725 10.7c-.539276 0-.978723.440836-.978723.981818l-.1 104.736362c0 .54197.439447.98182.978723.98182l57.313022.6c.257404 0 .509915-.10407.691957-.28767l32.129526-32.23113c.18303-.1836.28677-.435927.28677-.694145l-.7-73.105237c0-.540982-.43847-.981818-.97872-.981818z" fill="url(#n)"/><g transform="translate(.000002)"><path d="m111.414 86.586c.25-.25-18.379 6.414-23.414 6.414-1.654 0-3 1.346-3 3 0 5.035-6.664 23.664-6.414 23.414z" fill="url(#j)" opacity=".1"/><path d="m111.414 86.586c.375-.375-13.97 7.414-23.414 7.414-1.103 0-2 .897-2 2 0 9.444-7.789 23.789-7.414 23.414z" fill="url(#k)" opacity=".1"/><path d="m111.414 86.586c.239-.239-13.607 8.414-23.414 8.414-.553 0-1 .447-1 1 0 9.807-8.653 23.653-8.414 23.414z" fill="url(#l)" opacity=".1"/><path d="m78.586 119.414s11.914-9.914 17.414-15.414 15.414-17.414 15.414-17.414-13.164 9.414-23.414 9.414c0 10.25-9.414 23.414-9.414 23.414z" fill="url(#m)"/></g><path d="m112 8v5.333333l-90.668264-.000099v-5.3333327z" fill="url(#c)" opacity=".99" stroke-width=".666667"/><path d="m15.998403 7.9999013h5.333333v111.9999987h-5.333333z" fill="url(#a)" opacity=".99" stroke-width=".666667"/><path d="m36.5-.5c-2.178012.00189-4.345122.8280234-5.972656 2.2753906-1.627535 1.4473673-2.700795 3.503128-2.957032 5.6660156-.0027.0213781-.004006.0429072-.003906.0644532l-.0625.5585937c-.0024.018791-.003706.0377016-.003906.0566407v14.8789062c.000028.276131.223869.499972.5.5h7c.276131-.000028.499972-.223869.5-.5v-15.5a1 1 0 0 1 1-1 1 1 0 0 1 1 1v15.5c.000028.276131.223869.499972.5.5h7c.276131-.000028.499972-.223869.5-.5v-14.8789062c-.000226-.0189391-.001506-.0378497-.003906-.0566407l-.070313-.6210937v-.0019532c-.256163-2.1622068-1.328391-4.2187317-2.955078-5.6660156-1.626687-1.44728384-3.793381-2.27250004-5.970703-2.2753906z" fill-opacity=".923664" filter="url(#h)" opacity=".3" transform="matrix(2.6666667 0 0 2.6666667 -.001597 -.000099)"/><g fill="#a51e1e"><path d="m101.33173 19.999901 18.47918.000001.18749 1.655367v39.677968h-18.66667z"/><path d="m36.5 0a8.4999999 8.4999999 0 0 0 -8.433594 7.5h6.933594a1.5 1.5 0 0 1 1.5-1.5 1.5 1.5 0 0 1 1.5 1.5h6.929688a8.4999999 8.4999999 0 0 0 -8.429688-7.5z" transform="matrix(2.6666667 0 0 2.6666667 -.001597 -.000099)"/><path d="m93.331736 19.999899-18.47918.000001-.18749 1.655367v39.677968h18.66667z"/></g><path d="m36.498047.99804688c-1.81467.00206192-3.61858.69056672-4.974609 1.89648432-1.481516 1.5114895-2.523438 3.1054687-2.523438 5.1054688v14h5v-14.5c.04763-.5309678.128259-.7649416.208984-.9980469.396991-.9117407 1.296595-1.5015062 2.291016-1.5019531.993712.00122 1.892354.590862 2.289062 1.5019531h.002c.08068.2331053.161309.4670791.208938.9980469v14.5h5v-14c-.342732-1.8134-1.30347-3.9467421-2.525391-5.1035156-1.355323-1.2058483-3.160514-1.8955428-4.974609-1.89843752z" fill="url(#d)" transform="matrix(2.6666667 0 0 2.6666667 -.001597 -.000099)"/><path d="m28 15v8h7v-8zm10 0v8h7v-8z" fill="#7c3530" fill-opacity=".988235" transform="matrix(2.6666667 0 0 2.6666667 -.001597 -.000099)"/><path d="m36.498047 2.4746094c-1.427527.0021123-2.881763.5603121-3.957031 1.5019531-1.329272 1.3667806-2.064454 2.5541444-2.064454 4.0234375v12.523438h2.046876v-13.023438a1.4764492 1.4764492 0 0 1 .0059-.1328125c.057387-.6401964.203901-1.1131375.285115-1.3476563a1.4764492 1.4764492 0 0 1 .04102-.1074218c.629853-1.4465474 2.066802-2.3879629 3.644527-2.3886719a1.4764492 1.4764492 0 0 1 .002 0c1.28354.00158 2.358199.7321476 3.095703 1.7441406a1.4764492 1.4764492 0 0 1 .544922.6445313 1.4764492 1.4764492 0 0 1 .04297.1074218c.08106.2341942.227721.7073748.285156 1.3476563a1.4764492 1.4764492 0 0 1 .005811.1328125v13.023438h2.046876v-12.3242192c-.302574-1.5090658-1.224176-3.4186881-2.052735-4.2128907-1.075539-.9476307-2.538829-1.5089413-3.970703-1.5117187z" fill="url(#e)" filter="url(#f)" opacity=".68" transform="matrix(2.6666667 0 0 2.6666667 -3.996391 -2.599057)"/><path d="m29 15v7h5v-7zm10 0v7h5v-7z" fill="#f2e5e3" fill-opacity=".988235" transform="matrix(2.6666667 0 0 2.6666667 -.001597 -.000099)"/><path d="m77.331734 39.999901h5.333335v18.666668h-5.333335z" fill="#fffbfb" fill-opacity=".988235" filter="url(#g)"/><path d="m105.33173 39.999901h5.333335v18.666668h-5.333335z" fill="#fffbfb" fill-opacity=".988235" filter="url(#g)"/></g></svg>