<svg enable-background="new 0 0 128 128" height="48" viewBox="0 0 48 48" width="48" xmlns="http://www.w3.org/2000/svg" xmlns:xlink="http://www.w3.org/1999/xlink"><radialGradient id="a" cx="129.38803" cy="136.27953" gradientTransform="matrix(.9787234 0 0 .9818182 1.361705 1.163636)" gradientUnits="userSpaceOnUse" r="139.55859"><stop offset="0" stop-color="#535557"/><stop offset=".11366145" stop-color="#d3d3d4"/><stop offset=".20296688" stop-color="#ececec"/><stop offset=".2363" stop-color="#fafafa"/><stop offset=".2722" stop-color="#fff"/><stop offset=".5313" stop-color="#fafafa"/><stop offset=".8449" stop-color="#ebecec"/><stop offset="1" stop-color="#e1e2e3"/></radialGradient><radialGradient id="b" cx="133.330002" cy="134.44235" gradientUnits="userSpaceOnUse" r="139.5585"><stop offset="0" stop-color="#dcdcdc"/><stop offset=".0151" stop-color="#b5def2"/><stop offset=".0558" stop-color="#558ca8"/><stop offset=".0964" stop-color="#89afc3"/><stop offset=".1357" stop-color="#b3ccd8"/><stop offset=".1737" stop-color="#d4e2e9"/><stop offset=".2099" stop-color="#ecf2f5"/><stop offset=".2435" stop-color="#fafcfd"/><stop offset=".2722" stop-color="#fff"/></radialGradient><filter id="c"><feGaussianBlur stdDeviation="1.0394514"/></filter><filter id="d"><feGaussianBlur stdDeviation=".50063244"/></filter><filter id="e" height="2.271233" width="2.271233" x="-.635616" y="-.635616"><feGaussianBlur stdDeviation=".70622289"/></filter><g transform="matrix(.375 0 0 .375 .000599 .000037)"><path d="m23 9 .0039 10.827283.03692 101.172717 95.37318-.007c.375-.375.586-.884.586-1.414v-110.579z" filter="url(#c)" opacity=".306849" transform="matrix(1.0416667 0 0 1.0357143 -9.958333 -3.321534)"/><path d="m24.919999 10.931136v108.137934l91.574001.00019c.375-.375.586-.884.586-1.414v-106.724124z" filter="url(#d)" opacity=".89589" transform="matrix(1.0416667 0 0 1.0357143 -9.958333 -3.321534)"/><path d="m23 9.9655172.040816 111.0344828 95.373184-.0071c.375-.375.586-.884.586-1.414v-109.6133828z" filter="url(#c)" opacity=".306849" transform="matrix(1.0416667 0 0 1.0357143 -9.958333 -3.321534)"/><path d="m16.000002 8v112l95.413998-.014c.375-.375.586-.884.586-1.414v-110.572z" fill="url(#b)"/><path d="m19.678725 10.7c-.539276 0-.978723.440836-.978723.981818l-.1 104.736362c0 .54197.439447.98182.978723.98182l90.134505-.0664c.18303-.1836.28677-.43593.28677-.69415l-.7-104.957632c0-.540982-.43847-.981818-.97872-.981818z" fill="url(#a)"/><g fill="#258aff"><rect fill-opacity=".456647" height="1.419844" rx="0" ry=".709922" width="90.664398" x="18.666201" y="19.916153"/><rect fill-opacity=".456647" height="1.419844" rx="0" ry=".709922" width="90.664398" x="18.666201" y="41.248955"/><rect fill-opacity=".456647" height="1.419844" rx="0" ry=".709922" width="90.664398" x="18.666201" y="62.581757"/><rect fill-opacity=".456647" height="1.419844" rx="0" ry=".709922" width="90.664398" x="18.666201" y="83.914558"/><rect fill-opacity=".456647" height="1.419844" rx="0" ry=".709922" width="90.664398" x="18.666201" y="105.24735"/><rect fill-opacity=".456647" height="1.419844" rx="0" ry=".709922" transform="rotate(90)" width="106.664" x="10.6696" y="-31.999201"/><rect fill-opacity=".456647" height="1.419844" rx="0" ry=".709922" transform="rotate(90)" width="106.664" x="10.6696" y="-53.332001"/><rect fill-opacity=".456647" height="1.419844" rx="0" ry=".709922" transform="rotate(90)" width="106.664" x="10.6696" y="-74.664803"/><rect fill-opacity=".456647" height="1.419844" rx="0" ry=".709922" transform="rotate(90)" width="106.664" x="10.6696" y="-95.997597"/></g><rect fill="#fff" filter="url(#e)" height="2.6666" ry=".709922" stroke="#fff" stroke-width="1.9" width="2.6666" x="29.3326" y="18.669399"/><rect fill="#258aff" height="2.6666" ry=".709922" width="2.6666" x="29.3326" y="18.669399"/><rect fill="#fff" filter="url(#e)" height="2.6666" ry=".709922" stroke="#fff" stroke-width="1.9" width="2.6666" x="50.665401" y="18.669399"/><rect fill="#258aff" height="2.6666" ry=".709922" width="2.6666" x="50.665401" y="18.669399"/><rect fill="#fff" filter="url(#e)" height="2.6666" ry=".709922" stroke="#fff" stroke-width="1.9" width="2.6666" x="71.998199" y="18.669399"/><rect fill="#258aff" height="2.6666" ry=".709922" width="2.6666" x="71.998199" y="18.669399"/><rect fill="#fff" filter="url(#e)" height="2.6666" ry=".709922" stroke="#fff" stroke-width="1.9" width="2.6666" x="93.331001" y="18.669399"/><rect fill="#258aff" height="2.6666" ry=".709922" width="2.6666" x="93.331001" y="18.669399"/><rect fill="#fff" filter="url(#e)" height="2.6666" ry=".709922" stroke="#fff" stroke-width="1.9" width="2.6666" x="29.332598" y="40.002201"/><rect fill="#258aff" height="2.6666" ry=".709922" width="2.6666" x="29.332598" y="40.002201"/><rect fill="#fff" filter="url(#e)" height="2.6666" ry=".709922" stroke="#fff" stroke-width="1.9" width="2.6666" x="50.665401" y="40.002201"/><rect fill="#258aff" height="2.6666" ry=".709922" width="2.6666" x="50.665401" y="40.002201"/><rect fill="#fff" filter="url(#e)" height="2.6666" ry=".709922" stroke="#fff" stroke-width="1.9" width="2.6666" x="71.998199" y="40.002201"/><rect fill="#258aff" height="2.6666" ry=".709922" width="2.6666" x="71.998199" y="40.002201"/><rect fill="#fff" filter="url(#e)" height="2.6666" ry=".709922" stroke="#fff" stroke-width="1.9" width="2.6666" x="93.331001" y="40.002201"/><rect fill="#258aff" height="2.6666" ry=".709922" width="2.6666" x="93.331001" y="40.002201"/><rect fill="#fff" filter="url(#e)" height="2.6666" ry=".709922" stroke="#fff" stroke-width="1.9" width="2.6666" x="29.332596" y="61.334999"/><rect fill="#258aff" height="2.6666" ry=".709922" width="2.6666" x="29.332596" y="61.334999"/><rect fill="#fff" filter="url(#e)" height="2.6666" ry=".709922" stroke="#fff" stroke-width="1.9" width="2.6666" x="50.665401" y="61.334999"/><rect fill="#258aff" height="2.6666" ry=".709922" width="2.6666" x="50.665401" y="61.334999"/><rect fill="#fff" filter="url(#e)" height="2.6666" ry=".709922" stroke="#fff" stroke-width="1.9" width="2.6666" x="71.998199" y="61.334999"/><rect fill="#258aff" height="2.6666" ry=".709922" width="2.6666" x="71.998199" y="61.334999"/><rect fill="#fff" filter="url(#e)" height="2.6666" ry=".709922" stroke="#fff" stroke-width="1.9" width="2.6666" x="93.331001" y="61.334999"/><rect fill="#258aff" height="2.6666" ry=".709922" width="2.6666" x="93.331001" y="61.334999"/><rect fill="#fff" filter="url(#e)" height="2.6666" ry=".709922" stroke="#fff" stroke-width="1.9" width="2.6666" x="29.332594" y="82.667801"/><rect fill="#258aff" height="2.6666" ry=".709922" width="2.6666" x="29.332594" y="82.667801"/><rect fill="#fff" filter="url(#e)" height="2.6666" ry=".709922" stroke="#fff" stroke-width="1.9" width="2.6666" x="50.665401" y="82.667801"/><rect fill="#258aff" height="2.6666" ry=".709922" width="2.6666" x="50.665401" y="82.667801"/><rect fill="#fff" filter="url(#e)" height="2.6666" ry=".709922" stroke="#fff" stroke-width="1.9" width="2.6666" x="71.998199" y="82.667801"/><rect fill="#258aff" height="2.6666" ry=".709922" width="2.6666" x="71.998199" y="82.667801"/><rect fill="#fff" filter="url(#e)" height="2.6666" ry=".709922" stroke="#fff" stroke-width="1.9" width="2.6666" x="93.331001" y="82.667801"/><rect fill="#258aff" height="2.6666" ry=".709922" width="2.6666" x="93.331001" y="82.667801"/><rect fill="#fff" filter="url(#e)" height="2.6666" ry=".709922" stroke="#fff" stroke-width="1.9" width="2.6666" x="29.332592" y="104.0006"/><rect fill="#258aff" height="2.6666" ry=".709922" width="2.6666" x="29.332592" y="104.0006"/><rect fill="#fff" filter="url(#e)" height="2.6666" ry=".709922" stroke="#fff" stroke-width="1.9" width="2.6666" x="50.665401" y="104.0006"/><rect fill="#258aff" height="2.6666" ry=".709922" width="2.6666" x="50.665401" y="104.0006"/><rect fill="#fff" filter="url(#e)" height="2.6666" ry=".709922" stroke="#fff" stroke-width="1.9" width="2.6666" x="71.998199" y="104.0006"/><rect fill="#258aff" height="2.6666" ry=".709922" width="2.6666" x="71.998199" y="104.0006"/><rect fill="#fff" filter="url(#e)" height="2.6666" ry=".709922" stroke="#fff" stroke-width="1.9" width="2.6666" x="93.331001" y="104.0006"/><rect fill="#258aff" height="2.6666" ry=".709922" width="2.6666" x="93.331001" y="104.0006"/></g></svg>