<svg height="48" width="48" xmlns="http://www.w3.org/2000/svg" xmlns:xlink="http://www.w3.org/1999/xlink"><filter id="a"><feGaussianBlur stdDeviation=".80626257"/></filter><filter id="b"><feGaussianBlur stdDeviation="2.4187877"/></filter><radialGradient id="c" cx="15.9996" cy="86.127174" gradientTransform="matrix(1.7777778 0 0 1.8271606 -12.444134 -72.033779)" gradientUnits="userSpaceOnUse" r="47.998798"><stop offset="0" stop-color="#fcfcfc"/><stop offset=".52275378" stop-color="#f8f8f8"/><stop offset=".72337759" stop-color="#f0efef"/><stop offset=".89024991" stop-color="#e3e1e1"/><stop offset="1" stop-color="#cecbcb"/></radialGradient><linearGradient id="d" gradientTransform="matrix(.94444451 0 0 .90909088 3.555465 4.1214)" gradientUnits="userSpaceOnUse" x1="61.331799" x2="74.664803" y1="21.336" y2="101.334"><stop offset="0" stop-color="#96ccff"/><stop offset="1" stop-color="#5b88c1"/></linearGradient><linearGradient id="e" gradientTransform="matrix(.94444451 0 0 .90909088 3.555465 4.1214)" gradientUnits="userSpaceOnUse" x1="61.331799" x2="74.664803" y1="21.336" y2="101.334"><stop offset="0" stop-color="#fcfcfc"/><stop offset=".52275378" stop-color="#f8f8f8"/><stop offset=".77457333" stop-color="#f0efef"/><stop offset=".90122044" stop-color="#e3e1e1"/><stop offset="1" stop-color="#cecbcb"/></linearGradient><radialGradient id="f" cx="71.998199" cy="40.002201" gradientUnits="userSpaceOnUse" r="5.3332" xlink:href="#g"/><linearGradient id="g"><stop offset="0" stop-color="#fff"/><stop offset="1" stop-color="#fff" stop-opacity="0"/></linearGradient><filter id="h" color-interpolation-filters="sRGB"><feGaussianBlur stdDeviation=".15467289"/></filter><radialGradient id="i" cx="199.99719" cy="96.868515" gradientTransform="matrix(1 0 0 1.0004806 0 -.035878)" gradientUnits="userSpaceOnUse" r="32.512764" xlink:href="#g"/><filter id="j" color-interpolation-filters="sRGB"><feGaussianBlur stdDeviation=".19214062"/></filter><linearGradient id="k" gradientUnits="userSpaceOnUse" spreadMethod="reflect" x1="183.60056" x2="205.3282" y1="77.033615" y2="114.667"><stop offset="0" stop-color="#fff"/><stop offset=".19999996" stop-color="#fff" stop-opacity="0"/><stop offset="1" stop-color="#fff" stop-opacity="0"/></linearGradient><radialGradient id="l" cx="177.12991" cy="42.65752" gradientTransform="matrix(1 0 0 1.0004806 0 -.035878)" gradientUnits="userSpaceOnUse" r="32.512764" xlink:href="#g"/><linearGradient id="m" gradientUnits="userSpaceOnUse" x1="165.64815" x2="198.18205" y1="33.308235" y2="89.6586"><stop offset="0" stop-color="#fff"/><stop offset="1" stop-color="#555753"/></linearGradient><filter id="n" color-interpolation-filters="sRGB"><feGaussianBlur stdDeviation="2.0893418"/></filter><filter id="o" color-interpolation-filters="sRGB"><feGaussianBlur stdDeviation=".66771187"/></filter><radialGradient id="p" cx="177.12991" cy="42.65752" gradientTransform="matrix(1.7311303 .19371147 -.19380456 1.7319623 -121.23783 -65.55117)" gradientUnits="userSpaceOnUse" r="32.512764"><stop offset="0"/><stop offset="1" stop-opacity="0"/></radialGradient><radialGradient id="q" cx="87.5" cy="35.875004" fx="89.841835" fy="49.577999" gradientTransform="matrix(.99150354 -.13044703 .1304408 .9914561 -3.936123 11.720628)" gradientUnits="userSpaceOnUse" r="19.872202"><stop offset="0" stop-color="#d3fcff" stop-opacity="0"/><stop offset=".55311084" stop-color="#baf5fc" stop-opacity=".247059"/><stop offset=".75562102" stop-color="#83b5eb" stop-opacity=".498039"/><stop offset="1" stop-color="#537fc6" stop-opacity=".784483"/></radialGradient><linearGradient id="r" gradientUnits="userSpaceOnUse" x1="177.079659" x2="188.722489" xlink:href="#g" y1="-52.541746" y2="-9.09009"/><radialGradient id="s" cx="146.66299" cy="120.00019" gradientTransform="matrix(2.0000008 0 0 2.000001 -146.66311 -117.3337)" gradientUnits="userSpaceOnUse" r="5.3332" xlink:href="#u"/><linearGradient id="t" gradientTransform="matrix(1.9999981 0 0 6.9999995 -122.03227 -631.66929)" gradientUnits="userSpaceOnUse" x1="149.32961" x2="154.66281" xlink:href="#u" y1="85.334404" y2="85.334404"/><linearGradient id="u" gradientUnits="userSpaceOnUse" x1="94.343803" x2="86.535599" y1="102.3447" y2="94.536598"><stop offset="0" stop-color="#5c5c5c"/><stop offset=".31394675" stop-color="#eff0ef"/><stop offset=".72916669" stop-color="#aaaba9"/><stop offset="1" stop-color="#535551"/></linearGradient><linearGradient id="v" gradientUnits="userSpaceOnUse" x1="179.293269" x2="184.626469" xlink:href="#u" y1="-50.328096" y2="-50.328096"/><linearGradient id="w" gradientTransform="matrix(1.0260038 .00517786 -.00530278 1.0507565 -24.255534 -6.996377)" gradientUnits="userSpaceOnUse" x1="101.5314" x2="101.5314" xlink:href="#g" y1="18.620571" y2="58.619572"/><g transform="matrix(.375 0 0 .375 -.999975 -.999976)"><path d="m13.333 14.3362h77.331398v77.480446h-77.331398z" filter="url(#b)" opacity=".68984"/><path d="m13.333 13.636201h77.331398v77.031403h-77.331398z" filter="url(#a)"/><path d="m13.333 13.3362h77.331398v77.331398h-77.331398z" fill="#fff"/><path d="m13.333 13.3362h77.331398v77.331398h-77.331398z" fill="url(#c)" opacity=".299465"/><path d="m15.9996 16.0028h71.998199v71.998199h-71.998199z" fill="url(#d)"/></g><g transform="matrix(.375 0 0 .375 5.99985 7.999799)"><path d="m13.333 14.3362h77.331398v77.480446h-77.331398z" filter="url(#b)" opacity=".68984"/><path d="m13.333 13.636201h77.331398v77.031403h-77.331398z" filter="url(#a)"/><path d="m13.333 13.3362h77.331398v77.331398h-77.331398z" fill="#fff"/><path d="m13.333 13.3362h77.331398v77.331398h-77.331398z" fill="#fff" opacity=".299465"/><path d="m15.9996 16.0028h71.998199v71.998199h-71.998199z" fill="url(#e)"/></g><g transform="matrix(.375 0 0 .375 0 -.000001)"><path d="m179.29326-54.244732h5.3332v6.583196h-5.3332z" fill="url(#v)" opacity=".971015" transform="matrix(1.15939945767 -.66639082915 .67253941251 1.15372464999 -85.671715 258.83812)"/><path d="m176.62666-47.66153h10.666389v31.999203h-10.666389z" fill="url(#t)" transform="matrix(1.15939945767 -.66639082915 .67253941251 1.15372464999 -85.671715 258.83812)"/><path d="m157.3294 122.6668a5.3332 5.3332 0 0 1 -2.6666 4.61869 5.3332 5.3332 0 0 1 -5.3332 0 5.3332 5.3332 0 0 1 -2.6666-4.61869h5.3332z" fill="url(#s)" transform="matrix(1.15939945767 -.66639082915 .67253941251 1.15372464999 -144.05876701815 79.11372592224)"/><path d="m179.29326-47.66153h2.66658v31.999199h-2.66658z" fill="url(#r)" opacity=".971015" transform="matrix(1.15939945767 -.66639082915 .67253941251 1.15372464999 -85.671715 258.83812)"/><circle cx="87.5" cy="35.875004" fill="url(#q)" r="19.872202" transform="matrix(1.5790267 .23923462 -.23923462 1.5790267 -57.453299 -30.199082)"/><g transform="matrix(1.0659043 .16149268 -.16149268 1.0659043 -109.1276 -61.497544)"><path d="m181.34375 43.179688c-17.38944 0-31.47656 14.087118-31.47656 31.476562s14.08712 31.47656 31.47656 31.47656 31.44531-14.086498 31.44531-31.47656-14.05587-31.476563-31.44531-31.476562zm0 1.640624c16.48273 0 29.83594 13.353213 29.83594 29.835938s-13.35254 29.86719-29.83594 29.86719-29.86719-13.383791-29.86719-29.86719 13.38446-29.835938 29.86719-29.835938z" fill="url(#p)" filter="url(#o)" transform="matrix(.91617705 0 0 .91617705 15.199521 6.258093)"/><path d="m181.34375 42.097656c-17.97497 0-32.55859 14.583628-32.55859 32.558594s14.58362 32.55859 32.55859 32.55859 32.52734-14.584283 32.52734-32.55859-14.55237-32.558594-32.52734-32.558594zm0 3.804688c15.89813 0 28.75391 12.855774 28.75391 28.753906s-12.8565 28.78516-28.75391 28.78516-28.78516-12.887747-28.78516-28.78516 12.88703-28.753906 28.78516-28.753906z" fill="url(#i)" filter="url(#n)" opacity=".540984" transform="matrix(.81712719 0 0 .81712719 33.160106 13.652997)"/><path d="m181.34375 42.09375c-17.9772 0-32.5625 14.5853-32.5625 32.5625s14.5853 32.5625 32.5625 32.5625 32.53125-14.585964 32.53125-32.5625-14.55405-32.5625-32.53125-32.5625zm0 3.8125c15.8959 0 28.75 12.854098 28.75 28.75s-12.85482 28.78125-28.75 28.78125-28.78125-12.886072-28.78125-28.78125 12.88535-28.75 28.78125-28.75z" fill="url(#m)"/><path d="m181.34375 43.376953c-17.28301 0-31.2793 13.99629-31.2793 31.279297s13.99629 31.2793 31.2793 31.2793 31.24805-13.995443 31.24805-31.2793-13.96504-31.279297-31.24805-31.279297zm0 1.246094c16.589 0 30.0332 13.444209 30.0332 30.033203s-13.44328 30.06445-30.0332 30.06445-30.06445-13.474529-30.06445-30.06445 13.47545-30.033203 30.06445-30.033203z" fill="url(#l)" opacity=".519126" transform="matrix(1.0317053 0 0 1.0317053 -5.749097 -2.367074)"/><path d="m181.34375 42.980469c-17.49707 0-31.67578 14.178707-31.67578 31.675781s14.17871 31.67578 31.67578 31.67578 31.64453-14.178323 31.64453-31.67578-14.14746-31.675781-31.64453-31.675781zm0 2.039062c16.37527 0 29.63672 13.261453 29.63672 29.636719s-13.26103 29.66797-29.63672 29.66797-29.66797-13.292286-29.66797-29.66797 13.2927-29.636719 29.66797-29.636719z" fill="url(#k)" filter="url(#j)"/><path d="m181.34375 43.730469c-17.09248 0-30.92578 13.833298-30.92578 30.925781s13.8333 30.92578 30.92578 30.92578 30.89453-13.832031 30.89453-30.92578-13.80205-30.925781-30.89453-30.925781zm0 .539062c16.77922 0 30.38672 13.607504 30.38672 30.386719s-13.60612 30.41797-30.38672 30.41797-30.41797-13.637374-30.41797-30.41797 13.63875-30.386719 30.41797-30.386719z" fill="url(#i)" filter="url(#h)" transform="matrix(.95352862 0 0 .95352862 8.426593 3.469478)"/></g><path d="m72.514632 17.876726c-13.075834-.06598-27.050524 10.525156-27.095053 19.348723-.03239 6.417447 14.439877 9.44439 25.814159 9.501794 9.960657.05026 28.590803-1.823763 28.620873-7.782253.04848-9.606335-14.787356-21.004916-27.339979-21.068264z" fill="url(#w)"/><g fill="url(#f)"><circle cx="71.998199" cy="40.002201" opacity=".52459" r="5.3332" transform="matrix(1.5 0 0 1.5 -13.890444 -17.334504)"/><circle cx="71.998199" cy="40.002201" opacity=".52459" r="5.3332" transform="translate(-24.475934 20.802465)"/></g></g></svg>