<svg height="24" viewBox="0 0 6.3499999 6.3500002" width="24" xmlns="http://www.w3.org/2000/svg" xmlns:xlink="http://www.w3.org/1999/xlink"><filter id="a" color-interpolation-filters="sRGB" height="1.077086" width="1.067544" x="-.033772" y="-.038543"><feGaussianBlur stdDeviation="1.7187398"/></filter><linearGradient id="b" gradientUnits="userSpaceOnUse" x1="92.09334228914" x2="92.63381081627" y1="152.15074258752" y2="12.9953380506"><stop offset="0" stop-color="#f7f7f7"/><stop offset=".86046815" stop-color="#c3c3c3"/><stop offset="1" stop-color="#ececec"/></linearGradient><linearGradient id="c" gradientTransform="matrix(.68027208 0 0 .66666658 -56.98641 -532.67471)" gradientUnits="userSpaceOnUse" x1="223" x2="235" y1="934.11218" y2="934.11218"><stop offset="0" stop-color="#de4814"/><stop offset="1" stop-color="#ff6000"/></linearGradient><g transform="matrix(.03219235 0 0 .03219235 .427976 .44166)"><path d="m258.37825 73.04211c-3.89026 0-7.02161 3.754433-7.02161 8.419091v90.185029c0 .36285.0256.7172.0623 1.0677v7.16438h5.48337c.47628.12143.96855.187 1.4759.187h108.09896c.50736 0 .99963-.0656 1.47591-.187h5.48337v-7.16438c.0368-.3505.0623-.70485.0623-1.0677v-90.185029c0-4.664658-3.13135-8.419091-7.02162-8.419091z" fill="#b2b2b2" fill-opacity=".757353" filter="url(#a)" transform="matrix(1.3635562 0 0 1.3647434 -340.67939 -86.317507)"/><path d="m12.657152 10.93707c-5.2344815 0-9.4452661 5.212197-9.447815 11.68804l-.049028 124.56024c.1672994 3.72744.00821 7.86715.00821 11.68524l9.439693.003h145.450938l9.44221-.001.005-11.68683.049-124.56065c.003-6.475843-4.21358-11.73899-9.44783-11.68804h-7.02532z" fill="#999"/><rect fill="url(#b)" height="131.50122" rx="9.03485" ry="10.833339" width="147.93887" x="11.362163" y="19.155897"/><path d="m11.362163 47.921787h147.93886v102.73533h-147.93886z" fill="#ececec"/><rect fill="#1a1a1a" height="82.188263" rx="3.295787" ry="3.945725" width="131.50122" x="19.58099" y="60.250027"/><path d="m11.362163 43.812374h147.93887v8.218828h-147.93887z" fill="#6d6d6d"/><circle cx="149.63034" cy="28.19635" fill="#818181" r="6.158165"/><g transform="matrix(6.5613249 0 0 6.5613249 -570.80089 -477.2147)"><path d="m102.6731 93.166672c-.10676-.3464-.22806-.7023-.36391-1.0679-.12616-.3655-.25233-.7311-.37846-1.0966h-3.930234c-.12617.3655-.25716.7311-.39302 1.0966-.12617.3657-.24262.7215-.34936 1.0679h-2.35814c.37846-1.0774.73753-2.0731 1.07718-2.987.33964-.9139.66958-1.775.98983-2.583.32994-.8081.65019-1.5729.96073-2.2944.32023-.7311.65018-1.443.98982-2.1356h2.168914c.32996.6926.65503 1.4045.97528 2.1356.32023.7215.64047 1.4863.96072 2.2944.32994.808.66474 1.6691 1.00439 2.583s.69871 1.9096 1.07717 2.987zm-2.722054-7.7345c-.0485.1443-.12131.3415-.21833.5916-.0971.2501-.20865.5387-.33481.8658s-.26687.6878-.42214 1.0823c-.14557.3944-.29598.808-.45125 1.241h2.867624c-.15527-.433-.30569-.8466-.45126-1.241-.14556-.3945-.28627-.7552-.42213-1.0823-.12616-.3271-.23776-.6157-.33479-.8658-.097-.2501-.17468-.4473-.232914-.5916" fill="#fff"/><rect fill="#383534" height="3.757851" ry="1.460856" width="12.526169" x="93.736916" y="88.177139"/><rect fill="#fff" height="1.252617" ry=".499992" width="10.020935" x="94.989532" y="89.429756"/><rect fill="url(#c)" height="1.252617" ry=".500007" width="6.263084" x="94.989532" y="89.429756"/></g></g></svg>