<svg height="24" viewBox="0 0 6.3499999 6.3500002" width="24" xmlns="http://www.w3.org/2000/svg" xmlns:xlink="http://www.w3.org/1999/xlink"><linearGradient id="a" gradientUnits="userSpaceOnUse" x1="78.13997407724" x2="76.62854769305" xlink:href="#b" y1="283.07908986138" y2="283.19159755425"/><linearGradient id="b"><stop offset="0" stop-color="#8c8c8b" stop-opacity=".537255"/><stop offset="1" stop-color="#5b6f4c" stop-opacity="0"/></linearGradient><linearGradient id="c" gradientUnits="userSpaceOnUse" x1="80.13120261001" x2="82.02124727614" xlink:href="#b" y1="282.88782771347" y2="282.88782771347"/><linearGradient id="d" gradientUnits="userSpaceOnUse" x1="-5.19709150644" x2="35.63129703063" y1="420.14348196307" y2="420.14348196307"><stop offset="0" stop-color="#e72c00"/><stop offset=".8035748" stop-color="#b62200"/><stop offset="1" stop-color="#fd3100"/></linearGradient><linearGradient id="e" gradientUnits="userSpaceOnUse" x1=".94980516081" x2="30.05346763347" y1="415.66773194308" y2="415.66773194308"><stop offset="0" stop-color="#921901"/><stop offset="1" stop-color="#fd330b"/></linearGradient><linearGradient id="f" gradientUnits="userSpaceOnUse" x1="2.38603225048" x2="8.04642983333" y1="397.8017127184" y2="405.9551657753"><stop offset="0" stop-color="#fffdfd"/><stop offset="1" stop-color="#eea2a0" stop-opacity="0"/></linearGradient><radialGradient id="g" cx="93.60704" cy="1441.4597" gradientTransform="matrix(.36542727 -.1374419 .14227704 .37828281 -214.1987 -109.41505)" gradientUnits="userSpaceOnUse" r="16.134117"><stop offset="0" stop-color="#fef9f9"/><stop offset="1" stop-color="#f5c7c6" stop-opacity="0"/></radialGradient><filter id="h" color-interpolation-filters="sRGB" height="1.048" width="1.048" x="-.024" y="-.024"><feGaussianBlur stdDeviation=".21759741"/></filter><path d="m0 .000002h6.35v6.35h-6.35z" fill="none"/><g transform="translate(-76.199997 -279.804138)"><path d="m76.647638 280.78247v5.00534l1.671342-.27807 1.9499.27807 1.949899-.55615-.0016-4.99252-.06138-.049-1.886914.59243-1.9499-.27807z" fill="#ab9861"/><path d="m19.147587 83.439862-.000001 195.934328 65.311451-10.88523 76.196683 10.88523 76.19669-21.77047v-195.934342l-76.19669 21.770482-76.196682-10.88524z" fill="#716f5d" transform="matrix(.02556536 0 0 .02556536 76.135704 278.65276)"/><path d="m76.621121 280.72777v4.86012l1.620037-.27001 1.890044.27001 1.890045-.54001v-4.86012l-1.890045.54001-1.890043-.27z" fill="#fff"/><path d="m78.241157 280.45777-1.620034.27v1.52464l1.620034-.49811zm0 1.90684-1.620034.49811v2.72518l1.620034-.27001z" fill="#8ece5f"/><path d="m78.241157 281.7543-1.620034.49811v.61031l1.620034-.49811z" fill="#fff"/><path d="m80.131202 285.58789 1.890045-.54001v-4.86012l-1.890045.54001z" fill="#e5dfce"/><path d="m78.241158 285.31788 1.890045.27001v-4.86012l-1.890044-.27z" fill="#e9e3d3"/><path d="m77.875953 282.4769-1.25483.38582v2.72518l1.620034-.27001v-1.96545z" fill="#e9e3d3"/><g fill="#fff"><path d="m78.241157 281.36753v1.98491l.632093 2.05575.638362.0912z"/><path d="m77.841253 280.52443-.515829.085.915733 2.74298v-1.98491z"/><path d="m80.131208 281.29127-1.890051.46303v.61031l1.890051-.46302z"/><path d="m82.021245 280.592-1.890037.69927v.61032l1.890037-.69928z"/></g><path d="m78.241157 280.45777v.90976l.110596.35966 1.779455-.43592v-.5635z" fill="#a4d77e"/><path d="m82.021245 280.18777-1.890037.54v.5635l1.890037-.69927z" fill="#96d16a"/><path d="m77.938933 282.45701-1.31781.40571v2.72518l1.620034-.27001.632093.0903-.632093-2.05575z" fill="#4ac7fd"/><path d="m78.241157 283.35244v1.96545l.632093.0903z" fill="#72d3fd"/><path d="m82.021245 283.00717-1.890037.69928v.0853l.271131-.10032.608662 1.64511.07714-.0221-.61079-1.65082 1.543894-.57121z" fill="#fff"/><path d="m79.386275 282.99902c-.04445.00007-.08892.00057-.133422.001-.356007.007-.714458.0378-1.087294.0658-.0039.00029-.0079.00071-.01206.001l-1.585183.24131c-.01875.003-.03405.0207-.03406.0396l.04677.73406c.000009.0209.01903.04.03997.0401.008.00002.01621-.00055.02442-.002h.000147l1.614105-.25381c.529616-.0118.778349-.074 1.713566.0129.200706.0389.245185.0627.3447.0952.101456.0331.238928.0659.582332.10798.0089.001.01777.001.02655.00097.583527-.0272.85594-.13173 1.10425-.19456.01714-.004.03028-.0212.03028-.0389l-.04677-.80131c-.000009-.021-.01909-.0401-.04007-.0401h-.000049c-.01802-.00003-.03585.003-.05266.009-.000025.00001-.000074.00002-.000099.00005-.162446.0589-.466089.18358-.987978.2151-.194596.00017-.317374-.0276-.436216-.0652-.119404-.0378-.238056-.0898-.399589-.12577h-.00005c-.000848-.00019-.0018-.00031-.0026-.00048-.000075 0-.000124 0-.000199 0-.0036-.00072-.0072-.001-.01085-.002h-.000049c-.159315-.0207-.317588-.0325-.475652-.0377-.0741-.002-.148146-.003-.222226-.003zm-2.740862 1.12192-.004.00034c.0013-.00001.0027-.00012.004-.00034z" fill="#f6b532"/><path d="m81.97447 283.12798c-.155119.0563-.488771.19209-1.035483.22446-.427344.002-.583409-.12991-.875114-.19486-.614791-.0799-1.221835-.0228-1.886512.027l-1.60064.24365-.0024.0326.04677.54331 1.622521-.25509c.529523-.0108.791123-.0764 1.752638.0136.433131.083.245434.12006.923182.20305.588006-.0274.82989-.13145 1.101779-.19719z" fill="#fee333"/><path d="m82.022819 280.18848-.0058.001.0014.40176.05879.014v-.36256z" fill="#71ba3a"/><path d="m78.241157 280.45777-1.620034.27v2.24657l1.620034-.49812zm0 1.90684-1.620034.49811v2.72518l1.620034-.27001z" fill="url(#a)"/><path d="m80.131202 285.58789 1.890045-.54001v-4.86012l-1.890045.54001z" fill="url(#c)"/><g transform="matrix(-.06320624 0 0 .06320624 81.598971 255.90127)"><path d="m35.631297 414.9239c.000003 5.93077-2.332176 10.44408-5.407732 15.00054l-15.006461 22.23218-14.37289323-21.6708c-3.19589677-4.81863-6.04130507-9.32678-6.04130247-15.56192.0000048-11.27446 9.1397475-20.4142 20.4141957-20.4142 11.274447 0 20.414189 9.13976 20.414193 20.4142z" fill="url(#d)"/><circle cx="15.501635" cy="415.66769" fill="url(#e)" r="14.551829"/><circle cx="15.501635" cy="415.66769" fill="#242b2d" r="10.431339"/><path d="m9.7537197 398.27027a16.363499 12.835884 49.535329 0 0 -6.1662878 2.12333 16.363499 12.835884 49.535329 0 0 -4.05761488 12.01991 16.257549 16.257549 0 0 1 15.85004098-12.70341 16.257549 16.257549 0 0 1 1.43927.0722 16.363499 12.835884 49.535329 0 0 -7.0654083-1.51208z" fill="url(#f)"/><path d="m27.764961 414.70417c-.00031 6.07487-4.046187 11.40611-9.896821 13.04135 2.06396-.24852 3.943413-.98556 5.510496-2.16102 2.557064-2.46339 5.095997-4.94603 4.386325-10.88033z" fill="url(#g)"/><circle cx="15.501635" cy="415.66769" fill="#374346" filter="url(#h)" r="10.87987" transform="matrix(.76266667 0 0 .76266667 3.679055 98.6518)"/></g></g></svg>