<svg height="24" viewBox="0 0 6.3499999 6.3500002" width="24" xmlns="http://www.w3.org/2000/svg" xmlns:xlink="http://www.w3.org/1999/xlink"><linearGradient id="a" gradientUnits="userSpaceOnUse" x1="16.97045802091" x2="17.0291022116" y1="29.59623147388" y2="1.76604537276"><stop offset="0" stop-color="#f0a63b"/><stop offset=".38350943" stop-color="#c15b0f"/><stop offset="1" stop-color="#f0893b"/></linearGradient><g transform="matrix(.09751725888 0 0 .09751725888 -.11068412988 -22.61077629902)"><path d="m5.3691406 1.6289062c-.4669874.0000001-.6924678.1863422-.8398437.3007813.00826-.00653.043015-.033227.042969-.033203a1.3028977 1.3028977 0 0 0 -.085937.048828c-.00692.00547-.036656.010627-.042969.015625-.1323509.1047848-.3099285.2174693 0 .00977-.00176.00118-.00596.00657-.00781.00781a1.3028977 1.3028977 0 0 0 -.1914093.1601544c-.00348.00351-.00425.0022-.00781.00586a1.3028977 1.3028977 0 0 0 -.052734.058594c-.0000177.0000271-.00195.00194-.00195.00195a1.3028977 1.3028977 0 0 0 -.2695372.5136741c.00393-.017215.0041-.046188.00781-.058594.023294-.077916-.011377.01867-.033203.1328126a1.3028977 1.3028977 0 0 0 -.023438.2441406v.019531a1.3028977 1.3028977 0 0 0 .00195.041016l-.00195 1.1328126a1.3028977 1.3028977 0 0 0 0 .00195v24.7148472a1.3028977 1.3028977 0 0 0 .5859376 1.08789 1.3028977 1.3028977 0 0 0 .00195 0c.4171285.27897.5953939.226544.7089843.234375.1135905.0078.1698869.0059.2070313.0059h18.0293024 1.603516.798828c.03635 0 .09107.0019.205078-.0059.113351-.0078.297814.03903.705078-.230469a1.3028977 1.3028977 0 0 0 .0039-.002 1.3028977 1.3028977 0 0 0 .589843-1.089843v-16.902297a1.3028977 1.3028977 0 0 0 -.380852-.921875l-9.115234-9.1132814a1.3028977 1.3028977 0 0 0 -.921875-.3808594h-7.8125004zm16.0742184 0a1.3028977 1.3028977 0 0 0 -.921875 2.2246094l4.556641 4.5566406a1.3028977 1.3028977 0 0 0 2.224609-.921875l.002-4.4335937a1.3028977 1.3028977 0 0 0 -.298829-.828125c.000149.0001232.0059.00391.0059.00391-.00003-.0000365-.0108-.010506-.01172-.011719-.000234-.0003082-.0017-.00352-.002-.00391a1.3028977 1.3028977 0 0 0 -.0625-.068359c-.0038-.0039-.0041-.00213-.0078-.00586a1.3028977 1.3028977 0 0 0 -.197316-.164062c-.0031-.00202-.01083-.011784-.01367-.013672.342465.2289319.145541.1055759.0098-.00195-.0061-.0048-.03439-.010395-.04102-.015625a1.3028977 1.3028977 0 0 0 -.05078-.029297c-.000029-.000016.02219.018795.02539.021484-.145145-.1136536-.382326-.3085963-.859408-.3085963zm-17.5761715 1.3867188a1.3028977 1.3028977 0 0 0 0 .011719h-.00195c0-.00324.00189-.0083.00195-.011719z" fill="#7e480a" stroke-width=".229587" transform="matrix(2.0837337 0 0 2.0837337 1.221845 231.18341)"/><path d="m5.369791 2.9309581c-.086876 0-.1601403.094993-.1914062.1159169-.01.00671-.00806.00693-.00977.00781l-.0019488 1.178355v24.714189c.00203.0012.0009507-.000022.00977.0059.031146.02083.1041833.01949.1914066.01949h18.0279904 1.604168.798827c.08722 0 .159915.0015.191406-.01949.0089-.0059.0077-.0046.0098-.0059l-.000034-16.901689-9.114584-9.1145834h-7.8124999zm20.630209 26.0162709v.02539c0-.02357.0052-.02869 0-.02539zm-20.8313809-25.8925415v-.027344c0 .00507-.00121.0059-.00195.00977v.019531c.0001181.000071.00158-.00176.00195-.00195zm16.2740889-.1237309 4.557292 4.5572918.002-4.4335609c-.0017-.0009445.000339-.00106-.0098-.00781-.03159-.021118-.104542-.1159194-.19142-.1159194zm4.559245.1237309c.0036.00201 0-.00499 0-.027344z" fill="url(#a)" stroke-width=".229587" transform="matrix(2.0837337 0 0 2.0837337 1.221845 231.18341)"/><path d="m4.15625 1c-.3586463.0000001-.5332997.1425795-.6464844.2304688.0063469-.0050155.033239-.0254091.0332032-.0253907a1.0006254 1.0006254 0 0 0 -.0664063.0371094c-.0053169.0041977-.0264016.0098333-.03125.0136719-.1016455.0804747-.2380251.1653758 0 .0058594-.0013546.0009063-.0044391.0049082-.0058594.0058593a1.0006254 1.0006254 0 0 0 -.1484375.1230469c-.0026743.0026984-.003126.0030513-.0058594.0058594a1.0006254 1.0006254 0 0 0 -.0410156.0449218v.0019532a1.0006254 1.0006254 0 0 0 -.2070312.3945312c.003015-.0132209.0030111-.0353946.0058594-.0449218.0178898-.0598399-.0086285.0139008-.0253907.1015624a1.0006254 1.0006254 0 0 0 -.0175781.1582032v.0214844c0-.0024914.001906-.0071423.0019531-.0097657a1.0006254 1.0006254 0 0 0 0 .0097657h-.0019531v.0546874 19.8847658a1.0006254 1.0006254 0 0 0 .4492188.802734 1.0006254 1.0006254 0 0 0 .0019531 0c.3203547.214249.4557313.173674.5429687.179688.0872375.006015.1316294.003906.1601563.003906h1.8457031v-22z" transform="matrix(2.7131949 0 0 2.7131949 1.135021 231.86435)"/><g fill="#f6cc90"><rect height="2.713195" ry="1.079168" width="2.713195" x="22.84058" y="283.41504"/><rect height="2.713195" ry="1.079168" width="2.713195" x="22.84058" y="275.27548"/><rect height="2.713195" ry="1.079168" width="2.713195" x="22.84058" y="267.13589"/><rect height="2.713188" ry="1.079168" width="5.426392" x="28.26697" y="267.13589"/><rect height="2.713195" ry="1.079168" width="5.42639" x="28.26697" y="275.27548"/><rect height="2.713195" ry="1.079168" width="21.705559" x="28.26697" y="283.41504"/><path d="m49.980391 272.56229a5.4263897 5.4263897 0 0 1 -5.42377 5.42639 5.4263897 5.4263897 0 0 1 -5.429007-5.42115 5.4263897 5.4263897 0 0 1 5.418526-5.43163l.0079 5.42639z"/></g></g></svg>