<svg height="24" viewBox="0 0 6.3499999 6.3500002" width="24" xmlns="http://www.w3.org/2000/svg" xmlns:xlink="http://www.w3.org/1999/xlink"><linearGradient id="a" gradientUnits="userSpaceOnUse" x1="16.97045802091" x2="17.0291022116" y1="29.59623147388" y2="1.76604537276"><stop offset="0" stop-color="#cdcdcd"/><stop offset=".38350943" stop-color="#d9dbde"/><stop offset="1" stop-color="#f5f5f5"/></linearGradient><linearGradient id="b" gradientUnits="userSpaceOnUse" x1="16.933332" x2="16.933332" y1="288.53329" y2="275.83331"><stop offset="0" stop-color="#0b0b0b"/><stop offset="1" stop-color="#1d1d1d"/></linearGradient><linearGradient id="c" gradientTransform="matrix(.26458333 0 0 .29398147 0 261.6046)" gradientUnits="userSpaceOnUse" x1="64" x2="64" y1="88" y2="56"><stop offset="0" stop-color="#7f7f81"/><stop offset=".44999999" stop-color="#b6b6b7"/><stop offset=".67499995" stop-color="#f5f5f5"/><stop offset="1" stop-color="#cfcfcf"/></linearGradient><linearGradient id="d" gradientUnits="userSpaceOnUse" x1="17.991667" x2="17.991667" y1="264.19162" y2="275.83331"><stop offset="0" stop-color="#fff"/><stop offset=".54545456" stop-color="#ebebeb"/><stop offset=".90909094" stop-color="#bababa"/><stop offset="1" stop-color="#7e7e7f"/></linearGradient><linearGradient id="e" gradientTransform="matrix(.24052171 0 0 .26458333 1.589963 263.13331)" gradientUnits="userSpaceOnUse" x1="64" x2="64" y1="48" y2="72"><stop offset="0" stop-color="#6e4388"/><stop offset=".21062189" stop-color="#651d8d"/><stop offset=".5" stop-color="#ac7ec6"/><stop offset=".66666639" stop-color="#ca87dc"/><stop offset="1" stop-color="#ebeaeb"/></linearGradient><linearGradient id="f" gradientUnits="userSpaceOnUse" x1="17.991667" x2="17.842356" y1="294.8833" y2="287.90549"><stop offset="0" stop-color="#fefefe"/><stop offset=".5" stop-color="#f7f7f7"/><stop offset=".91002578" stop-color="#8c8c8c"/><stop offset="1" stop-color="#666"/></linearGradient><linearGradient id="g" gradientTransform="matrix(.26458333 0 0 .16558711 0 269.86505)" gradientUnits="userSpaceOnUse" x1="52" x2="76" y1="72" y2="72"><stop offset="0"/><stop offset=".66666669" stop-color="#a6a6a6" stop-opacity=".866667"/><stop offset="1" stop-opacity=".737089"/></linearGradient><linearGradient id="h" gradientUnits="userSpaceOnUse" x1="17.000601" x2="17.000601" y1="274.77496" y2="280.06662"><stop offset="0" stop-color="#baaac4"/><stop offset="1" stop-color="#baaac4" stop-opacity="0"/></linearGradient><path d="m5.3691406 1.6289062c-.4669874.0000001-.6924678.1863422-.8398437.3007813.00826-.00653.043015-.033227.042969-.033203a1.3028977 1.3028977 0 0 0 -.085937.048828c-.00692.00547-.036656.010627-.042969.015625-.1323509.1047848-.3099285.2174693 0 .00977-.00176.00118-.00596.00657-.00781.00781a1.3028977 1.3028977 0 0 0 -.1914093.1601544c-.00348.00351-.00425.0022-.00781.00586a1.3028977 1.3028977 0 0 0 -.052734.058594c-.0000177.0000271-.00195.00194-.00195.00195a1.3028977 1.3028977 0 0 0 -.2695372.5136741c.00393-.017215.0041-.046188.00781-.058594.023294-.077916-.011377.01867-.033203.1328126a1.3028977 1.3028977 0 0 0 -.023438.2441406v.019531a1.3028977 1.3028977 0 0 0 .00195.041016l-.00195 1.1328126a1.3028977 1.3028977 0 0 0 0 .00195v24.7148472a1.3028977 1.3028977 0 0 0 .5859376 1.08789 1.3028977 1.3028977 0 0 0 .00195 0c.4171285.27897.5953939.226544.7089843.234375.1135905.0078.1698869.0059.2070313.0059h18.0293024 1.603516.798828c.03635 0 .09107.0019.205078-.0059.113351-.0078.297814.03903.705078-.230469a1.3028977 1.3028977 0 0 0 .0039-.002 1.3028977 1.3028977 0 0 0 .589843-1.089843v-16.902297a1.3028977 1.3028977 0 0 0 -.380852-.921875l-9.115234-9.1132814a1.3028977 1.3028977 0 0 0 -.921875-.3808594h-7.8125004zm16.0742184 0a1.3028977 1.3028977 0 0 0 -.921875 2.2246094l4.556641 4.5566406a1.3028977 1.3028977 0 0 0 2.224609-.921875l.002-4.4335937a1.3028977 1.3028977 0 0 0 -.298829-.828125c.000149.0001232.0059.00391.0059.00391-.00003-.0000365-.0108-.010506-.01172-.011719-.000234-.0003082-.0017-.00352-.002-.00391a1.3028977 1.3028977 0 0 0 -.0625-.068359c-.0038-.0039-.0041-.00213-.0078-.00586a1.3028977 1.3028977 0 0 0 -.197316-.164062c-.0031-.00202-.01083-.011784-.01367-.013672.342465.2289319.145541.1055759.0098-.00195-.0061-.0048-.03439-.010395-.04102-.015625a1.3028977 1.3028977 0 0 0 -.05078-.029297c-.000029-.000016.02219.018795.02539.021484-.145145-.1136536-.382326-.3085963-.859408-.3085963zm-17.5761715 1.3867188a1.3028977 1.3028977 0 0 0 0 .011719h-.00195c0-.00324.00189-.0083.00195-.011719z" fill="#6e7792" stroke-width=".229587" transform="matrix(.20319999866 0 0 .20319999866 -.25611639639 -.06640356474)"/><path d="m5.369791 2.9309581c-.086876 0-.1601403.094993-.1914062.1159169-.01.00671-.00806.00693-.00977.00781l-.0019488 1.178355v24.714189c.00203.0012.0009507-.000022.00977.0059.031146.02083.1041833.01949.1914066.01949h18.0279904 1.604168.798827c.08722 0 .159915.0015.191406-.01949.0089-.0059.0077-.0046.0098-.0059l-.000034-16.901689-9.114584-9.1145834h-7.8124999zm20.630209 26.0162709v.02539c0-.02357.0052-.02869 0-.02539zm-20.8313809-25.8925415v-.027344c0 .00507-.00121.0059-.00195.00977v.019531c.0001181.000071.00158-.00176.00195-.00195zm16.2740889-.1237309 4.557292 4.5572918.002-4.4335609c-.0017-.0009445.000339-.00106-.0098-.00781-.03159-.021118-.104542-.1159194-.19142-.1159194zm4.559245.1237309c.0036.00201 0-.00499 0-.027344z" fill="url(#a)" stroke-width=".229587" transform="matrix(.20319999866 0 0 .20319999866 -.25611639639 -.06640356474)"/><path d="m4.15625 1c-.3586463.0000001-.5332997.1425795-.6464844.2304688.00635-.00502.033239-.025409.033203-.025391a1.0006254 1.0006254 0 0 0 -.066406.037109c-.00532.0042-.026402.00983-.03125.013672-.1016455.080475-.2380251.1653758 0 .00586-.00135.0009063-.00444.00491-.00586.00586a1.0006254 1.0006254 0 0 0 -.148437.1230462c-.00267.0027-.00313.00305-.00586.00586a1.0006254 1.0006254 0 0 0 -.041016.044922v.00195a1.0006254 1.0006254 0 0 0 -.2070302.3945336c.00301-.013221.00301-.035395.00586-.044922.01789-.05984-.00863.013901-.025391.1015624a1.0006254 1.0006254 0 0 0 -.0175784.1582034v.021484c0-.00249.00191-.00714.00195-.00977a1.0006254 1.0006254 0 0 0 0 .00977h-.00195v.054687 19.8847656a1.0006254 1.0006254 0 0 0 .4492188.802734 1.0006254 1.0006254 0 0 0 .00195 0c.3203578.21425.4557344.173675.5429718.179689.0872375.006015.1316294.003906.1601563.003906h1.8457031v-22z" transform="matrix(.26458332946 0 0 .26458332946 -.26458323488 -.00000016248)"/><g transform="matrix(.12890671878 0 0 .12890671878 2.18285607234 -31.73685515074)"><rect height="1.068127" rx=".054608" ry=".108462" width="23.283333" x="5.291667" y="292.76663"/><rect fill="#1d1d1d" height="7.183735" rx="2.116667" transform="scale(1 -1)" width="30.787445" x="1.539372" y="-280.06686"/><rect fill="url(#b)" height="12.314979" rx=".058809" ry=".080616" width="30.787445" x="1.539372" y="276.98813"/><rect fill="#b6b6b6" height="5.131225" rx="1.965476" ry="2.116667" transform="scale(1 -1)" width="27.195576" x="3.591869" y="-279.04062"/><rect fill="url(#c)" height="10.262475" rx=".054608" ry=".073287" width="26.682453" x="3.591869" y="276.98813"/><rect fill="#111012" height="8.723122" rx=".054608" ry=".079045" width="22.064337" x="5.644365" y="266.72565"/><rect fill="#3e3c41" height="6.972047" rx=".048541" ry=".065958" width="18.472469" x="7.696861" y="268.77814"/><rect fill="#28232c" height="4.040584" rx=".055035" ry=".072666" width="24.653723" x="4.618117" y="273.90939"/><rect fill="#9f9f9f" fill-opacity=".996078" height="14.367486" rx=".06371" ry=".077951" width="14.367475" x="9.749358" y="262.62064"/><rect fill="url(#d)" height="10.262468" rx=".054608" ry=".065958" width="10.262482" x="11.801854" y="264.67316"/><path d="m5.3917056 273.93783h23.1832944c.0275 0 .04964.0411.04964.092v4.35722c0 .051-.03322.07-.04964.092l-1.970778 2.64583.09624 1.5875h-19.4342247l.096246-1.5875-1.9707781-2.64583c-.017928-.0241-.049642-.041-.049642-.092v-4.35722c0-.051.02214-.092.049642-.092z" style="stroke:#1f1f1f;stroke-width:.79375;stroke-linecap:square;stroke-linejoin:round;stroke-opacity:.924883;fill:url(#e)"/><g fill-rule="evenodd"><path d="m5.8208333 287.47497-.5291666 5.29167h23.2833333l-.529167-5.29167z" fill="#424245"/><path d="m7.9212326 287.47983-2.2768675 7.98076h22.5774599l-2.049007-7.98076z" fill="#434343"/><path d="m8.471829 287.47983-1.0576881 6.87841h19.0383841l-1.057688-6.87841z" fill="url(#f)"/></g><rect height="2.261332" rx=".054608" ry=".070466" width="19.049999" x="7.408333" y="285.35873"/><rect fill="url(#g)" height="1.963572" rx=".054608" ry=".041279" width="6.157489" x="13.854351" y="281.18204"/><rect fill="url(#h)" height="6.157489" opacity=".92" rx=".081912" ry=".266648" width="12.314979" x="10.775606" y="273.90939"/><rect fill="#986aae" height="4.000225" rx=".074396" ry=".169417" width="11.951473" x="11.139112" y="273.90939"/><rect fill="#c9b1d5" height="3.078745" rx=".06826" ry=".139031" width="10.788397" x="11.599673" y="273.90939"/><rect fill="#1d1d1d" height="1.539372" rx=".06826" ry=".070525" width="9.235995" x="12.315217" y="273.90939"/><path d="m7.4083333 285.3583-.142096-2.64583h19.4342287l-.242133 2.64583z" fill="#545156" fill-rule="evenodd"/></g></svg>