<svg height="24" viewBox="0 0 6.3499999 6.3500002" width="24" xmlns="http://www.w3.org/2000/svg" xmlns:xlink="http://www.w3.org/1999/xlink"><linearGradient id="a" gradientUnits="userSpaceOnUse" x1="16.97045802091" x2="17.0291022116" y1="29.59623147388" y2="1.76604537276"><stop offset="0" stop-color="#e8f03b"/><stop offset=".38350943" stop-color="#b9c10f"/><stop offset="1" stop-color="#e8f03b"/></linearGradient><g transform="matrix(.09751725888 0 0 .09751725888 -.11068412988 -22.61077629902)"><path d="m5.3691406 1.6289062c-.4669874.0000001-.6924678.1863422-.8398437.3007813.00826-.00653.043015-.033227.042969-.033203a1.3028977 1.3028977 0 0 0 -.085937.048828c-.00692.00547-.036656.010627-.042969.015625-.1323509.1047848-.3099285.2174693 0 .00977-.00176.00118-.00596.00657-.00781.00781a1.3028977 1.3028977 0 0 0 -.1914093.1601544c-.00348.00351-.00425.0022-.00781.00586a1.3028977 1.3028977 0 0 0 -.052734.058594c-.0000177.0000271-.00195.00194-.00195.00195a1.3028977 1.3028977 0 0 0 -.2695372.5136741c.00393-.017215.0041-.046188.00781-.058594.023294-.077916-.011377.01867-.033203.1328126a1.3028977 1.3028977 0 0 0 -.023438.2441406v.019531a1.3028977 1.3028977 0 0 0 .00195.041016l-.00195 1.1328126a1.3028977 1.3028977 0 0 0 0 .00195v24.7148472a1.3028977 1.3028977 0 0 0 .5859376 1.08789 1.3028977 1.3028977 0 0 0 .00195 0c.4171285.27897.5953939.226544.7089843.234375.1135905.0078.1698869.0059.2070313.0059h18.0293024 1.603516.798828c.03635 0 .09107.0019.205078-.0059.113351-.0078.297814.03903.705078-.230469a1.3028977 1.3028977 0 0 0 .0039-.002 1.3028977 1.3028977 0 0 0 .589843-1.089843v-16.902297a1.3028977 1.3028977 0 0 0 -.380852-.921875l-9.115234-9.1132814a1.3028977 1.3028977 0 0 0 -.921875-.3808594h-7.8125004zm16.0742184 0a1.3028977 1.3028977 0 0 0 -.921875 2.2246094l4.556641 4.5566406a1.3028977 1.3028977 0 0 0 2.224609-.921875l.002-4.4335937a1.3028977 1.3028977 0 0 0 -.298829-.828125c.000149.0001232.0059.00391.0059.00391-.00003-.0000365-.0108-.010506-.01172-.011719-.000234-.0003082-.0017-.00352-.002-.00391a1.3028977 1.3028977 0 0 0 -.0625-.068359c-.0038-.0039-.0041-.00213-.0078-.00586a1.3028977 1.3028977 0 0 0 -.197316-.164062c-.0031-.00202-.01083-.011784-.01367-.013672.342465.2289319.145541.1055759.0098-.00195-.0061-.0048-.03439-.010395-.04102-.015625a1.3028977 1.3028977 0 0 0 -.05078-.029297c-.000029-.000016.02219.018795.02539.021484-.145145-.1136536-.382326-.3085963-.859408-.3085963zm-17.5761715 1.3867188a1.3028977 1.3028977 0 0 0 0 .011719h-.00195c0-.00324.00189-.0083.00195-.011719z" fill="#7e7a0a" stroke-width=".229587" transform="matrix(2.0837337 0 0 2.0837337 1.221845 231.18341)"/><path d="m5.369791 2.9309581c-.086876 0-.1601403.094993-.1914062.1159169-.01.00671-.00806.00693-.00977.00781l-.0019488 1.178355v24.714189c.00203.0012.0009507-.000022.00977.0059.031146.02083.1041833.01949.1914066.01949h18.0279904 1.604168.798827c.08722 0 .159915.0015.191406-.01949.0089-.0059.0077-.0046.0098-.0059l-.000034-16.901689-9.114584-9.1145834h-7.8124999zm20.630209 26.0162709v.02539c0-.02357.0052-.02869 0-.02539zm-20.8313809-25.8925415v-.027344c0 .00507-.00121.0059-.00195.00977v.019531c.0001181.000071.00158-.00176.00195-.00195zm16.2740889-.1237309 4.557292 4.5572918.002-4.4335609c-.0017-.0009445.000339-.00106-.0098-.00781-.03159-.021118-.104542-.1159194-.19142-.1159194zm4.559245.1237309c.0036.00201 0-.00499 0-.027344z" fill="url(#a)" stroke-width=".229587" transform="matrix(2.0837337 0 0 2.0837337 1.221845 231.18341)"/><path d="m4.15625 1c-.3586463.0000001-.5332997.1425795-.6464844.2304688.0063469-.0050155.033239-.0254091.0332032-.0253907a1.0006254 1.0006254 0 0 0 -.0664063.0371094c-.0053169.0041977-.0264016.0098333-.03125.0136719-.1016455.0804747-.2380251.1653758 0 .0058594-.0013546.0009063-.0044391.0049082-.0058594.0058593a1.0006254 1.0006254 0 0 0 -.1484375.1230469c-.0026743.0026984-.003126.0030513-.0058594.0058594a1.0006254 1.0006254 0 0 0 -.0410156.0449218v.0019532a1.0006254 1.0006254 0 0 0 -.2070312.3945312c.003015-.0132209.0030111-.0353946.0058594-.0449218.0178898-.0598399-.0086285.0139008-.0253907.1015624a1.0006254 1.0006254 0 0 0 -.0175781.1582032v.0214844c0-.0024914.001906-.0071423.0019531-.0097657a1.0006254 1.0006254 0 0 0 0 .0097657h-.0019531v.0546874 19.8847658a1.0006254 1.0006254 0 0 0 .4492188.802734 1.0006254 1.0006254 0 0 0 .0019531 0c.3203547.214249.4557313.173674.5429687.179688.0872375.006015.1316294.003906.1601563.003906h1.8457031v-22z" transform="matrix(2.7131949 0 0 2.7131949 1.135021 231.86435)"/><path d="m30.608427 264.42506c-.410118.0191-.960933.0945-2.816407.19141-.0086.00077-.01709.003-.02539.006a.54409276.54409276 0 0 1 -.0039 0c-.530279.14831-1.056192.32565-1.548829.60547a.54409276.54409276 0 0 1 -.01172.006.54409276.54409276 0 0 1 -.002.002c-.000455.00025-.0015-.00025-.002 0-.601543.32893-1.19463.71326-1.6875 1.23242a.54409276.54409276 0 0 1 -.05469.0508c-.639457.50944-1.078914 1.09779-1.304688 1.66211-.234708.58664-.266783 1.11746-.03516 1.54492.198841.36692.741119.62264 1.339844.5332.654802-.0978 1.466619-.48309 2.498047-1.2832l.002.002c1.061934-.71979 1.654294-.99001 2.228515-1.19336a.54409276.54409276 0 0 1 .0059-.002c2.284552-.77857 3.823471-.005 4.61914.90821.0056.006.01099.0107.01758.0156a.54409276.54409276 0 0 1 .0039.004c.39313.30014.598418.77306.630859 1.2207.03583.49438-.08146 1.02259-.273437 1.55273-.38207 1.05509-1.037349 2.01048-1.259766 2.31446a.54409276.54409276 0 0 1 0 .002s-.002.002-.002.002c-1.042024 1.50716-1.371922 3.4898-1.794922 5.25a.54409276.54409276 0 0 1 -.002.008c-.000502.002-.0015.004-.002.006-.206041 1.53509-.123343 3.57964 1.160156 4.79296a.54409276.54409276 0 0 1 .02148.0195c.960801 1.00777 2.306045 1.33307 3.626954 1.38671 1.317126.0536 2.604287-.15896 3.507812-.24609l.01953-.002a.54409276.54409276 0 0 1 .03906-.002c-.04704.003-.0014-.00081.01563-.002a.54409276.54409276 0 0 1 .0059 0 .54409276.54409276 0 0 1 .0039 0c.0013-.00012.0026.00016.0039 0 .01068-.001.02119-.004.03125-.008a.54409276.54409276 0 0 1 .142578-.0332c2.294384-.21228 4.568717-1.57137 6.689453-3.60157l.0039-.004c.0039-.004.0084-.009.01172-.0137a.54409276.54409276 0 0 1 .0039-.006c.05251-.0701.101898-.13014.146485-.1875a.54409276.54409276 0 0 1 .0039-.008.54409276.54409276 0 0 1 .01953-.0273c.583869-.75302 1.423562-2.36839 2.392578-3.65234a.54409276.54409276 0 0 1 .0078-.008c.0012-.002.000796-.004.002-.006.285393-.4576.411201-.92976.59375-1.39843a.54409276.54409276 0 0 1 .0098-.0234.54409276.54409276 0 0 1 0-.002c.121814-.31994.226312-.63171.353516-.9336a.54409276.54409276 0 0 1 .002-.006.54409276.54409276 0 0 1 .01953-.0566c.01168-.0269.0042-.12588.0059-.12109-.01576-.0459-.0039-.022-.04102-.0684-.04704-.0587-.04155-.0489-.103515-.0957-.09274-.07-.192589-.1313-.330079-.20704-.272082-.14987-.638904-.32169-1.013671-.48437-.374242-.16246-.748936-.31156-1.044922-.4082a.54409276.54409276 0 0 1 -.002 0c-.150984-.0494-.262153-.082-.375-.10157-.08053-.014-.07085-.0149-.138672-.01h-.002c-.03914.003-.02774-.003-.07813.0195.01385-.006-.0668.0527-.08203.0859a.54409276.54409276 0 0 1 -.02344.0449c-.248197.43051-.435646.88715-.587891 1.33789-.00064.002-.0013.004-.002.006a.54409276.54409276 0 0 1 0 .004c-.08382.26853-.164657.51848-.248047.76757a.54409276.54409276 0 0 1 -.07813.15235c-.06779.0917-.101359.12082-.101562.12109-.07353.0972-.163114.21992-.234375.31836-.03563.0492-.06709.0933-.08984.125s.000843.001-.04687.0645c-.0011.001-.0029.002-.0039.004-1.197844 1.71553-1.859254 2.82213-2.740235 3.63867-.870232.80659-1.969319 1.33929-4.048828 1.88477a.54409276.54409276 0 0 1 -.0332.008c-.805504.15955-1.462261.23677-1.982422.24805-.52016.0113-.884861-.00035-1.242187-.21094-.242061-.14267-.491357-.47307-.59375-.86524-.113076-.43308-.130529-.99213-.07031-1.73437a.54409276.54409276 0 0 1 .0078-.0508c.05595-.31178.136609-.62225.203125-.94727a.54409276.54409276 0 0 1 .01367-.0527c.372928-1.19439.604064-2.21191 1.320312-3.18555a.54409276.54409276 0 0 1 .002-.004c.0047-.006.0082-.0125.01172-.0195v-.002c.06209-.13738.146276-.34581.220703-.54297.03533-.0936.06898-.18753.09766-.26758.0096-.0268.01726-.0486.02539-.0723a.54409276.54409276 0 0 1 .0625-.12695c.13393-.19868.342983-.48331.523437-.87696a.54409276.54409276 0 0 1 .04883-.084c.837639-1.20145.714358-2.76277.638671-4.17969a.54409276.54409276 0 0 1 -.002-.0215c-.08703-.70007-.286611-1.38652-.667968-1.99805a.54409276.54409276 0 0 1 -.002-.002c-.0027-.004-.0065-.01-.0098-.0137l-.002-.002c-.332623-.40346-.371093-.51967-.50586-.69726-.112119-.14775-.277034-.28759-.75-.62696-.0033-.002-.0063-.006-.0098-.008a.54409276.54409276 0 0 1 -.02539-.0156.54409276.54409276 0 0 1 -.02539-.0137c-.0019-.001-.007-.007-.01562-.0137-.0018-.001-.0041-.003-.0059-.004-.0011-.0007-.0028-.001-.0039-.002-.03582-.0234-.07334-.048-.119141-.0781-.104615-.0686-.244921-.1602-.384765-.25196-.136289-.0894-.274418-.17874-.384766-.25-.05917-.0383-.105279-.0681-.130859-.084-.01684-.0105-.02916-.018-.04492-.0273a.54409276.54409276 0 0 1 -.01367-.008c-.000887-.00041-.000856-.001-.002-.002-.0037-.002-.002-.001-.0078-.004h-.002c-.0017-.00021-.02225-.007-.04297-.0156-1.035063-.32814-1.586981-.44346-1.908203-.4707-.162029-.0137-.243998-.008-.330078.0156a.54409276.54409276 0 0 1 -.0293.008.54409276.54409276 0 0 1 -.0332.0195c-.103762.0547-.138446.0757-.02539.01-.02697.0157-.05005.0283-.07227.0391-.01147.006-.02192.0104-.03906.0176-.0086.004-.01763.008-.04102.0156-.01169.004-.06226.0156-.0625.0156-.000119.00002-.09172.0117-.0918.0117h-.0332s-.04297-.002-.04297-.002.0099-.0872.01563-.14258c-.622287-.0779-1.052534-.13498-1.333984-.12305-.000409.00002-.0015-.00002-.002 0a.54409276.54409276 0 0 1 -.01367 0zm5.763671.39453-.04687.0625c-.0262.0552-.05729.12078-.109376.23047.07276-.14014.151995-.29523.15625-.29297z" fill="#f8f7a6" stroke-width=".201553"/></g></svg>