<?xml version="1.0" encoding="UTF-8" standalone="no"?>
<!-- Created with Inkscape (http://www.inkscape.org/) -->

<svg
   xmlns:dc="http://purl.org/dc/elements/1.1/"
   xmlns:cc="http://creativecommons.org/ns#"
   xmlns:rdf="http://www.w3.org/1999/02/22-rdf-syntax-ns#"
   xmlns:svg="http://www.w3.org/2000/svg"
   xmlns="http://www.w3.org/2000/svg"
   xmlns:sodipodi="http://sodipodi.sourceforge.net/DTD/sodipodi-0.dtd"
   xmlns:inkscape="http://www.inkscape.org/namespaces/inkscape"
   id="svg2"
   version="1.1"
   inkscape:version="0.48.3.1 r9886"
   width="24"
   height="24"
   sodipodi:docname="preferences-system-directory.png">
  <metadata
     id="metadata8">
    <rdf:RDF>
      <cc:Work
         rdf:about="">
        <dc:format>image/svg+xml</dc:format>
        <dc:type
           rdf:resource="http://purl.org/dc/dcmitype/StillImage" />
        <dc:title></dc:title>
      </cc:Work>
    </rdf:RDF>
  </metadata>
  <defs
     id="defs6" />
  <sodipodi:namedview
     pagecolor="#ffffff"
     bordercolor="#666666"
     borderopacity="1"
     objecttolerance="10"
     gridtolerance="10"
     guidetolerance="10"
     inkscape:pageopacity="0"
     inkscape:pageshadow="2"
     inkscape:window-width="1366"
     inkscape:window-height="701"
     id="namedview4"
     showgrid="false"
     inkscape:zoom="9.8333333"
     inkscape:cx="-3.6101695"
     inkscape:cy="12"
     inkscape:window-x="0"
     inkscape:window-y="0"
     inkscape:window-maximized="1"
     inkscape:current-layer="svg2" />
  <path
     id="path7090"
     d="m 11.999702,0.34014672 c -6.4407658,0 -11.65981573,5.21905078 -11.65981573,11.65981628 0,0.205528 0.0021,0.412407 0.0125606,0.615326 0.0101973,0.195111 0.0240512,0.385196 0.0439543,0.577653 0.0201577,0.194919 0.0456207,0.391972 0.0753481,0.583933 0.0241495,0.155939 0.0514409,0.310793 0.0816284,0.464634 0.0242701,0.124528 0.0534256,0.247373 0.0816295,0.370452 0.0115755,0.05039 0.0191916,0.100521 0.0313937,0.150692 0.54294109,2.233414 1.73103039,4.215812 3.35290209,5.738866 0.00145,0.004 0.0048,0.0083 0.00625,0.01258 0.029274,0.02743 0.058358,0.05449 0.0879,0.08162 0.014196,0.01307 0.029698,0.02469 0.04395,0.03767 0.088168,0.08015 0.1793847,0.154862 0.2699907,0.232317 0.1129997,0.09656 0.2286666,0.190287 0.3453376,0.282545 0.050182,0.03969 0.09985,0.08042 0.1506916,0.119301 0.1012355,0.07741 0.2038503,0.151909 0.3076636,0.22604 0.019322,0.01378 0.037092,0.03024 0.056504,0.04394 0.1248723,0.08801 0.2545908,0.16799 0.3830082,0.251155 0.067215,0.04358 0.1327744,0.08964 0.2009229,0.131857 0.037405,0.02313 0.075346,0.04633 0.1130199,0.06907 0.1488878,0.08989 0.2989439,0.174112 0.4520782,0.257429 0.00503,0.0027 0.00759,0.0098 0.012576,0.01258 0.1543963,0.08371 0.312417,0.161754 0.4709124,0.238595 0.014363,0.0069 0.029531,0.01191 0.043939,0.01884 0.1377234,0.06609 0.2800204,0.127602 0.4206801,0.188363 0.059374,0.02564 0.1159371,0.05696 0.1758072,0.08162 0.051991,0.02143 0.1045974,0.04211 0.1569731,0.06279 0.128395,0.05071 0.2587089,0.09817 0.3892863,0.144413 0.1003643,0.03557 0.199787,0.07387 0.3013877,0.106741 0.049534,0.01602 0.1008669,0.02859 0.1506905,0.04394 0.1532293,0.04729 0.3087794,0.09078 0.4646344,0.131853 0.029486,0.0078 0.058302,0.01758 0.0879,0.02511 0.1268872,0.03234 0.2544981,0.05974 0.3830082,0.08791 0.052539,0.0115 0.1041729,0.02685 0.1569742,0.03767 0.1721064,0.03521 0.3463612,0.06666 0.5211435,0.09418 0.01678,0.0027 0.03338,0.0036 0.05023,0.0064 0.0252,0.0036 0.0501,0.0088 0.07535,0.01253 0.168353,0.02462 0.337981,0.04546 0.508589,0.06278 0.125235,0.01275 0.250349,0.01637 0.37673,0.02511 0.07163,0.0049 0.14151,0.01517 0.213479,0.01884 0.198731,0.01005 0.401529,0.01258 0.602766,0.01258 0.224539,0 0.444162,-0.0064 0.665561,-0.01884 0.173328,-0.0098 0.349923,-0.02036 0.521144,-0.03767 0.0018,-2.01e-4 0.004,2.01e-4 0.0064,0 0.02309,-0.0022 0.04604,-0.0036 0.06907,-0.0064 0.137966,-0.01486 0.271645,-0.03687 0.408124,-0.05652 0.09492,-0.01365 0.188368,-0.02806 0.282549,-0.04394 0.04202,-0.0071 0.0837,-0.01128 0.125576,-0.01884 0.03361,-0.0061 0.06694,-0.01253 0.100465,-0.01884 0.101258,-0.01915 0.20107,-0.04104 0.301387,-0.06279 0.236774,-0.0514 0.472058,-0.110271 0.703229,-0.175811 0.0294,-0.0084 0.05864,-0.0166 0.08791,-0.02511 0.250457,-0.07312 0.497723,-0.14943 0.740905,-0.238596 0.0088,-0.0031 0.01633,-0.0093 0.0251,-0.01258 0.05532,-0.02045 0.108316,-0.04157 0.163252,-0.06279 0.06933,-0.02681 0.13852,-0.05358 0.207201,-0.08161 0.04407,-0.01804 0.08802,-0.03794 0.131857,-0.0565 0.172779,-0.07321 0.34646,-0.151143 0.514862,-0.232316 0.170456,-0.08217 0.33658,-0.167359 0.50231,-0.257434 0.155287,-0.08439 0.307428,-0.172585 0.458356,-0.26371 0.01039,-0.0064 0.02099,-0.01249 0.03141,-0.01884 0.04447,-0.02703 0.08779,-0.05404 0.131853,-0.08162 0.0018,-0.0022 0.004,-0.004 0.0064,-0.0064 1.674291,-1.049984 3.064954,-2.510671 4.024743,-4.2445 0.01267,-0.02286 0.02515,-0.04609 0.03767,-0.06907 0.0022,-0.004 0.004,-0.0085 0.0064,-0.01258 0.04287,-0.07893 0.08448,-0.158579 0.125576,-0.238599 0.06105,-0.118792 0.118755,-0.236786 0.175807,-0.357892 0.0452,-0.096 0.08923,-0.19142 0.131858,-0.288826 0.0192,-0.04376 0.03785,-0.08779 0.0565,-0.131859 0.0281,-0.06647 0.05472,-0.133826 0.08163,-0.200923 0.0027,-0.0061 0.0036,-0.01276 0.0064,-0.01884 0.04251,-0.10654 0.08613,-0.21216 0.125579,-0.320221 0.04148,-0.113418 0.08125,-0.230317 0.119298,-0.345337 0.03758,-0.113933 0.07261,-0.229883 0.106742,-0.345337 0.03879,-0.131025 0.07873,-0.262663 0.113015,-0.395569 0.02667,-0.103647 0.05148,-0.209186 0.07535,-0.313942 0.01924,-0.08409 0.03911,-0.16637 0.0565,-0.251151 0.0073,-0.03548 0.01191,-0.07117 0.01884,-0.106742 0.03002,-0.153814 0.05771,-0.308725 0.08162,-0.464638 0.01369,-0.08937 0.02609,-0.179964 0.03767,-0.269989 0.01356,-0.104609 0.02689,-0.208481 0.03767,-0.313943 0.0018,-0.01884 0.0045,-0.03767 0.0064,-0.0565 0.01633,-0.168232 0.02859,-0.33833 0.03767,-0.508588 4.02e-4,-0.0084 -3.99e-4,-0.01673 0,-0.02511 0.0036,-0.07248 0.004,-0.146937 0.0064,-0.219762 0.004,-0.126783 0.0064,-0.255222 0.0064,-0.383008 0,-0.132072 -0.0022,-0.264557 -0.0064,-0.395569 -8.96e-4,-0.02322 -0.0054,-0.04587 -0.0064,-0.06907 -0.0036,-0.0945 -0.0066,-0.188644 -0.01258,-0.282548 -8.94e-4,-0.01258 8.95e-4,-0.02511 0,-0.03767 -0.009,-0.135809 -0.01777,-0.273622 -0.03141,-0.408125 -0.0124,-0.12212 -0.02783,-0.243194 -0.04394,-0.364174 -0.0098,-0.07404 -0.02018,-0.146155 -0.03141,-0.219757 -0.0082,-0.05289 -0.01633,-0.104318 -0.02511,-0.15697 -0.02304,-0.1383942 -0.04747,-0.2777113 -0.07535,-0.4144058 -0.02282,-0.1115891 -0.04934,-0.2223695 -0.07535,-0.332777 -0.01844,-0.078428 -0.03651,-0.1545114 -0.0565,-0.2323211 -0.04264,-0.166021 -0.08844,-0.3329467 -0.138135,-0.4960281 -0.0059,-0.019021 -0.01293,-0.037539 -0.01884,-0.056515 C 23.08144,8.3501836 23.022195,8.167494 22.956414,7.9877172 22.890975,7.8088988 22.816757,7.6348953 22.74293,7.4602954 22.669159,7.2858262 22.592526,7.1154426 22.510614,6.9454298 22.497546,6.9184009 22.486176,6.8907354 22.472941,6.863807 22.403459,6.7224102 22.328164,6.5812267 22.253179,6.4431269 22.210715,6.3649554 22.171769,6.2878851 22.127604,6.2108103 l -0.0064,0 C 20.110508,2.7032356 16.332665,0.34014672 11.999729,0.34014672 z m 0,2.02806618 c 0.332481,0 0.661969,0.017361 0.985778,0.050232 0.155699,0.015795 0.311213,0.039645 0.464634,0.062787 0.0061,8.949e-4 0.01271,-8.948e-4 0.01884,0 0.01459,0.00223 0.02935,0.00403 0.04394,0.00627 0.07427,0.011678 0.146069,0.024297 0.219762,0.037676 0.09007,0.016377 0.180823,0.031367 0.269988,0.050228 0.08892,0.018838 0.175718,0.041524 0.263716,0.062787 0.20159,0.048715 0.400074,0.1020743 0.596487,0.1632516 0.146351,0.04552 0.289977,0.092191 0.43324,0.1444135 0.004,0.00179 0.0083,0.00475 0.01258,0.00627 0.0018,8.949e-4 0.0045,-8.948e-4 0.0064,0 0.03321,0.012171 0.06745,0.025147 0.100465,0.037676 0.05265,0.020001 0.104765,0.041927 0.15697,0.062787 0.09753,0.039019 0.192905,0.077236 0.288826,0.1192976 0.02743,0.01204 0.05435,0.025421 0.08163,0.037673 0.11988,0.053913 0.240675,0.110919 0.357893,0.1695292 0.04443,0.022237 0.0878,0.046172 0.131857,0.069069 0.09863,0.051243 0.198507,0.1024529 0.295105,0.1569741 0.08933,0.050439 0.176178,0.103782 0.26371,0.1569686 0.04859,0.029531 0.09639,0.057554 0.144414,0.0879 0.03401,0.021478 0.06672,0.047155 0.100465,0.069069 0.0916,0.059519 0.186855,0.119566 0.276267,0.1820854 0.0085,0.00592 0.01664,0.012889 0.02511,0.018842 0.0209,0.014721 0.04202,0.029084 0.06279,0.043939 0.108864,0.077948 0.214804,0.156294 0.320221,0.2385947 0.06961,0.054326 0.139142,0.1070768 0.207201,0.1632522 0.055,0.045413 0.109288,0.091541 0.163251,0.1381355 0.06225,0.053745 0.121249,0.107948 0.182085,0.1632467 0.05724,0.052025 0.113557,0.1036144 0.169531,0.1569741 0.05629,0.053633 0.114553,0.108272 0.169529,0.1632467 0.05732,0.057341 0.113672,0.1170418 0.169529,0.1758073 0.419781,0.4417156 0.799589,0.9228164 1.130192,1.4378563 0.02389,0.037226 0.04568,0.075446 0.06907,0.1130199 0.03584,0.057531 0.07208,0.1174807 0.106741,0.1758072 0.0094,0.015927 0.01575,0.034278 0.02511,0.050227 0.04689,0.079981 0.09352,0.1571662 0.138136,0.2385991 0.0059,0.01061 0.01307,0.020763 0.01884,0.031407 0.0475,0.087486 0.09329,0.1746222 0.138131,0.2637114 0.02529,0.050227 0.05091,0.099962 0.07535,0.1506916 0.02411,0.050104 0.04579,0.1001075 0.06907,0.150695 0.04211,0.091362 0.08001,0.1833787 0.119297,0.2762665 0.04924,0.1163583 0.09967,0.2329756 0.144414,0.3516157 0.01028,0.027476 0.0213,0.054035 0.03141,0.081623 0.02891,0.078819 0.05474,0.158836 0.08163,0.2385958 0.02367,0.070286 0.04698,0.1424757 0.06907,0.213479 0.01119,0.035975 0.02063,0.070588 0.03141,0.1067418 0.0149,0.049881 0.02984,0.100476 0.04394,0.1506905 0.01678,0.059966 0.03455,0.1216557 0.05024,0.1820854 0.0018,0.00637 0.0046,0.012442 0.0064,0.018842 0.02681,0.1043516 0.05197,0.2082618 0.07535,0.3139425 0.01119,0.050316 0.02103,0.1000846 0.03141,0.1506916 0.0018,0.0085 0.0046,0.01669 0.0064,0.02511 0.02998,0.148436 0.05229,0.29498 0.07535,0.4458 0.02058,0.134731 0.04157,0.271614 0.0565,0.408125 0.0027,0.02501 0.0036,0.05027 0.0064,0.07534 0.01477,0.145236 0.02318,0.292447 0.03141,0.439517 8.95e-4,0.01686 0.0054,0.03334 0.0064,0.05024 0.0084,0.164527 0.01258,0.329417 0.01258,0.496028 0,0.123585 -0.0018,0.247993 -0.0064,0.370454 -0.0018,0.04175 -0.004,0.08399 -0.0064,0.125575 -1.07e-4,0.0022 1.08e-4,0.004 0,0.0064 -0.0078,0.151591 -0.02295,0.302412 -0.03767,0.452074 -8.94e-4,0.01028 8.96e-4,0.02108 0,0.03141 -0.0036,0.0374 -0.0084,0.07577 -0.01258,0.113015 -0.02721,0.239759 -0.06227,0.475423 -0.106742,0.709512 -0.0084,0.04425 -0.01611,0.08783 -0.02511,0.131853 -0.01481,0.07231 -0.03383,0.141777 -0.05024,0.213483 -0.0192,0.08396 -0.03513,0.168057 -0.05651,0.251156 -0.0082,0.03141 -0.01673,0.06289 -0.02511,0.09418 -0.02085,0.07789 -0.04629,0.15523 -0.06907,0.232318 -0.01039,0.03548 -0.0205,0.07142 -0.03141,0.106742 -0.0027,0.0083 -0.0036,0.01691 -0.0064,0.02511 -0.0071,0.02318 -0.01777,0.04599 -0.02511,0.06907 -0.03911,0.122399 -0.07548,0.243956 -0.119302,0.364171 -0.0018,0.0045 -0.0047,0.0083 -0.0064,0.01258 -0.02394,0.06546 -0.05003,0.129863 -0.07535,0.194646 -0.03191,0.08164 -0.0664,0.164335 -0.100465,0.244873 -0.01072,0.02524 -0.02049,0.05022 -0.03141,0.07535 -0.02765,0.06388 -0.0589,0.125222 -0.08791,0.188368 -0.01978,0.04304 -0.03611,0.08915 -0.0565,0.131853 -0.0048,0.01016 -0.0077,0.02121 -0.01253,0.03141 -0.04537,0.0942 -0.09611,0.183798 -0.144414,0.276266 -0.02385,0.04565 -0.04452,0.09291 -0.06907,0.138136 -0.03069,0.0565 -0.06242,0.113718 -0.09418,0.169529 -0.04614,0.08099 -0.09601,0.159104 -0.144413,0.238596 -0.01128,0.01853 -0.02,0.03808 -0.03142,0.0565 -0.02605,0.04211 -0.05497,0.0839 -0.08163,0.12557 -0.03508,0.05484 -0.0706,0.109188 -0.106742,0.163252 -1.727319,2.585562 -4.669041,4.288454 -8.011796,4.288454 -4.2500129,0 -7.8568584,-2.754268 -9.1357179,-6.573953 -0.011638,-0.03481 -0.020149,-0.07176 -0.031396,-0.106742 -0.020864,-0.06481 -0.04328,-0.129236 -0.062781,-0.194645 -0.018574,-0.06222 -0.032892,-0.125616 -0.050227,-0.188364 -0.019166,-0.06935 -0.045145,-0.13724 -0.062781,-0.207201 -0.016307,-0.06476 -0.028961,-0.129378 -0.04395,-0.194645 -0.015882,-0.06902 -0.029564,-0.137616 -0.04395,-0.207201 -0.00134,-0.0064 -0.00491,-0.01253 -0.00625,-0.01884 -0.00771,-0.03758 -0.011593,-0.07528 -0.018842,-0.113014 -0.022997,-0.119679 -0.044274,-0.23668 -0.062781,-0.357893 -0.013939,-0.09118 -0.026314,-0.184264 -0.037673,-0.276267 -0.00491,-0.03996 -0.00815,-0.07921 -0.012565,-0.119302 -0.00458,-0.04175 -0.00849,-0.08367 -0.012565,-0.125575 -0.01462,-0.149689 -0.029989,-0.300457 -0.037673,-0.452079 -0.00804,-0.15794 -0.012252,-0.31733 -0.012565,-0.477189 -1.23e-5,-0.0064 0,-0.01253 0,-0.01884 0,-1.866148 0.5316772,-3.6102684 1.4504125,-5.0858635 C 3.9184001,6.7538464 4.0235894,6.59707 4.1324465,6.4432376 4.1462402,6.4237701 4.1624687,6.4061008 4.1763964,6.3867339 4.2856065,6.2346897 4.3977529,6.0860219 4.5154313,5.9408566 4.630418,5.7990108 4.7443347,5.6551881 4.867047,5.5201766 4.8790089,5.5070195 4.8926909,5.4955602 4.9047199,5.4825037 5.0401179,5.3351549 5.1811707,5.1942082 5.3254022,5.0555411 5.4696348,4.9168728 5.6185751,4.7832429 5.771199,4.6536941 5.9057101,4.539525 6.0448977,4.4276779 6.1856054,4.3209183 c 0.016597,-0.012621 0.033518,-0.025197 0.050227,-0.037673 0.00223,-0.00179 0.00402,-0.00447 0.00625,-0.00625 0.028682,-0.021433 0.058961,-0.04166 0.0879,-0.062792 0.1292852,-0.094389 0.2615145,-0.1882919 0.3955689,-0.276272 0.010164,-0.0067 0.02121,-0.012219 0.031407,-0.018842 0.1503286,-0.097851 0.3023806,-0.1930164 0.4583565,-0.2825445 0.024337,-0.013961 0.050863,-0.02389 0.075346,-0.037673 0.150571,-0.084594 0.3029134,-0.1682805 0.4583519,-0.2448772 0.015123,-0.00748 0.028771,-0.017714 0.043939,-0.025108 0.162151,-0.078842 0.3289415,-0.1499121 0.4960281,-0.2197605 0.078987,-0.033027 0.1585624,-0.063222 0.2385947,-0.094181 0.075714,-0.029264 0.1494161,-0.06051 0.2260397,-0.087904 0.1085734,-0.03884 0.2224455,-0.071746 0.3327758,-0.1067417 0.072699,-0.023044 0.1463246,-0.047699 0.2197616,-0.069065 0.081399,-0.02367 0.1626033,-0.047512 0.2448728,-0.06907 0.039739,-0.010421 0.079356,-0.021478 0.1192979,-0.031412 0.1275133,-0.03168 0.2598319,-0.061382 0.3892909,-0.087903 0.119181,-0.024386 0.237154,-0.042866 0.357898,-0.062787 0.02529,-0.00403 0.05001,-0.00854 0.07535,-0.012574 0.01678,-0.00268 0.03343,-0.00359 0.05023,-0.00627 0.155425,-0.023536 0.313147,-0.046769 0.470912,-0.062792 0.155716,-0.015795 0.313097,-0.029353 0.470912,-0.037676 0.171274,-0.00908 0.341327,-0.012574 0.514866,-0.012574 z m -4.6777405,4.7405283 -2.4801441,4.2696148 1.8083085,0 3.8928851,4.269616 0.95438,0 -3.8991585,-4.269616 0.4709124,0 3.8991631,4.269616 2.310609,0 -0.01253,0.0064 -7.7418171,0 -1.3750645,2.373402 1.3248377,0 7.1139299,0 0.232312,-0.395568 0.722073,-1.243207 0.696951,-1.199261 -0.916713,0.439517 -3.880325,-4.250777 1.073682,-1.4190177 6.768594,0 1.651336,-2.8505968 -12.6141971,0 z"
     style="fill:#000000;fill-opacity:1;stroke:none"
     inkscape:connector-curvature="0" />
</svg>
