<svg enable-background="new 0 0 128 128" height="64" viewBox="0 0 64 64" width="64" xmlns="http://www.w3.org/2000/svg" xmlns:xlink="http://www.w3.org/1999/xlink"><linearGradient id="a"><stop offset="0" stop-color="#fff"/><stop offset="1" stop-color="#555753"/></linearGradient><linearGradient id="b" gradientUnits="userSpaceOnUse" x1="94.343803" x2="86.535599" xlink:href="#a" y1="102.3447" y2="94.536598"/><linearGradient id="c" gradientUnits="userSpaceOnUse" x1="95" x2="86.586502" xlink:href="#a" y1="103" y2="94.586502"/><linearGradient id="d" gradientUnits="userSpaceOnUse" x1="95" x2="87.292999" y1="103" y2="95.292999"><stop offset="0" stop-color="#fff"/><stop offset="1" stop-color="#393b38"/></linearGradient><linearGradient id="e" gradientUnits="userSpaceOnUse" x1="96" x2="88.000198" y1="104" y2="96.000198"><stop offset="0" stop-color="#888a85"/><stop offset=".0072" stop-color="#8c8e89"/><stop offset=".0673" stop-color="#abaca9"/><stop offset=".1347" stop-color="#c5c6c4"/><stop offset=".2115" stop-color="#dbdbda"/><stop offset=".3012" stop-color="#ebebeb"/><stop offset=".4122" stop-color="#f7f7f6"/><stop offset=".5679" stop-color="#fdfdfd"/><stop offset="1" stop-color="#fff"/></linearGradient><radialGradient id="f" cx="102" cy="112.3047" gradientTransform="matrix(.9787234 0 0 .9818182 1.361705 1.163636)" gradientUnits="userSpaceOnUse" r="139.55859"><stop offset="0" stop-color="#535557"/><stop offset=".11366145" stop-color="#898a8c"/><stop offset=".20296688" stop-color="#ececec"/><stop offset=".2363" stop-color="#fafafa"/><stop offset=".2722" stop-color="#fff"/><stop offset=".5313" stop-color="#fafafa"/><stop offset=".8449" stop-color="#ebecec"/><stop offset="1" stop-color="#e1e2e3"/></radialGradient><radialGradient id="g" cx="102.000002" cy="112.3047" gradientUnits="userSpaceOnUse" r="139.5585"><stop offset="0" stop-color="#00537d"/><stop offset=".0151" stop-color="#186389"/><stop offset=".0558" stop-color="#558ca8"/><stop offset=".0964" stop-color="#89afc3"/><stop offset=".1357" stop-color="#b3ccd8"/><stop offset=".1737" stop-color="#d4e2e9"/><stop offset=".2099" stop-color="#ecf2f5"/><stop offset=".2435" stop-color="#fafcfd"/><stop offset=".2722" stop-color="#fff"/></radialGradient><filter id="h"><feGaussianBlur stdDeviation="1.0394514"/></filter><linearGradient id="i"><stop offset="0" stop-color="#0968ef"/><stop offset="1" stop-color="#aecffc"/></linearGradient><linearGradient id="j" gradientUnits="userSpaceOnUse" x1="106.02859" x2="44.063507" xlink:href="#i" y1="24.118034" y2="24.118034"/><filter id="k"><feGaussianBlur stdDeviation=".50063244"/></filter><linearGradient id="l" gradientTransform="matrix(0 1 -1 0 50 -2)" gradientUnits="userSpaceOnUse" x1="100.02859" x2="38.063507" xlink:href="#i" y1="20.118034" y2="20.118034"/><g transform="scale(.5)"><path d="m24.919999 10.931136v108.137934l58.676001-.0001c.53 0 1.039-.211 1.414-.586l31.484-31.765936c.375-.375.586-.884.586-1.414v-74.371898z" filter="url(#k)" opacity=".89589" transform="matrix(1.0416667 0 0 1.0357143 -9.958333 -3.321534)"/><path d="m23 9.9655172.040816 111.0344828h61.131184c.53 0 1.039-.211 1.414-.586l32.828-32.828c.375-.375.586-.884.586-1.414v-76.2064828z" filter="url(#h)" opacity=".306849" transform="matrix(1.0416667 0 0 1.0357143 -9.958333 -3.321534)"/><path d="m16.000002 8v112h61.172c.53 0 1.039-.211 1.414-.586l32.827998-32.828c.375-.375.586-.884.586-1.414v-77.172z" fill="url(#g)"/><path d="m18.978725 10c-.539276 0-.978723.440836-.978723.981818v106.036362c0 .54197.439447.98182.978723.98182h57.913022c.257404 0 .509915-.10407.691957-.28767l32.129526-32.23113c.18303-.1836.28677-.435927.28677-.694145v-73.805237c0-.540982-.43847-.981818-.97872-.981818z" fill="url(#f)"/><g transform="translate(.000002)"><path d="m111.414 86.586c.25-.25-18.379 6.414-23.414 6.414-1.654 0-3 1.346-3 3 0 5.035-6.664 23.664-6.414 23.414z" fill="url(#b)" opacity=".1"/><path d="m111.414 86.586c.375-.375-13.97 7.414-23.414 7.414-1.103 0-2 .897-2 2 0 9.444-7.789 23.789-7.414 23.414z" fill="url(#c)" opacity=".1"/><path d="m111.414 86.586c.239-.239-13.607 8.414-23.414 8.414-.553 0-1 .447-1 1 0 9.807-8.653 23.653-8.414 23.414z" fill="url(#d)" opacity=".1"/><path d="m78.586 119.414s11.914-9.914 17.414-15.414 15.414-17.414 15.414-17.414-13.164 9.414-23.414 9.414c0 10.25-9.414 23.414-9.414 23.414z" fill="url(#e)"/></g><path d="m38 24h59l-3 3 14-4-14-4 3 3h-59z" fill="url(#j)" fill-rule="evenodd"/><path d="m24 16v14h14v-14zm2 2h10v10l-9.9375.03125z" fill="#797979"/><path d="m30 30v72l-3-3 4 14 4-14-3 3v-72z" fill="url(#l)" fill-rule="evenodd"/></g></svg>