<svg height="128" viewBox="0 0 128 128" width="128" xmlns="http://www.w3.org/2000/svg" xmlns:xlink="http://www.w3.org/1999/xlink"><linearGradient id="a" gradientUnits="userSpaceOnUse" x1="23.865234" x2="54.101562" y1="41.735352" y2="41.735352"><stop offset="0" stop-color="#a8a8a8"/><stop offset=".05606237" stop-color="#d7d7d7"/><stop offset=".50266331" stop-color="#fdfdfd"/><stop offset=".95123559" stop-color="#d7d7d7"/><stop offset="1" stop-color="#a8a8a8"/></linearGradient><linearGradient id="b" gradientUnits="userSpaceOnUse" x1="23.864408" x2="54.101695" y1="32.881355" y2="32.881355"><stop offset="0" stop-color="#fdfdfd"/><stop offset="1" stop-color="#e9e9e9"/></linearGradient><filter id="c" color-interpolation-filters="sRGB" height="1.070445" width="1.036402" x="-.018201" y="-.035223"><feGaussianBlur stdDeviation=".22930998"/></filter><filter id="d" color-interpolation-filters="sRGB" height="1.108964" width="1.053762" x="-.026881" y="-.054482"><feGaussianBlur stdDeviation=".3417086"/></filter><radialGradient id="e" cx="67.796608" cy="58.00127" gradientTransform="matrix(1.0727352 -.040147 .03429004 .91623631 -6.920066 18.007711)" gradientUnits="userSpaceOnUse" r="52.349123"><stop offset="0" stop-color="#fdfdfd"/><stop offset=".5" stop-color="#f7f7f7"/><stop offset="1" stop-color="#e5e5e5"/></radialGradient><filter id="f" color-interpolation-filters="sRGB" height="1.385518" width="1.071059" x="-.03553" y="-.192759"><feGaussianBlur stdDeviation="1.5499553"/></filter><filter id="g" color-interpolation-filters="sRGB" height="1.031956" width="1.019216" x="-.009608" y="-.015978"><feGaussianBlur stdDeviation=".41914551"/></filter><filter id="h" color-interpolation-filters="sRGB" height="1.188009" width="1.027247" x="-.013623" y="-.094005"><feGaussianBlur stdDeviation=".66386276"/></filter><path d="m7.5663361 115.63716h112.8673239l-6.08454-16.94887h-100.698245z" fill="#cfcfcf" filter="url(#f)" transform="matrix(.97930272 0 0 1.7026302 1.324625 -77.995842)"/><path d="m5.5240667 115.63716h116.9518633l-8.12681-16.94887h-100.698245z" fill="#0a0a0a" fill-opacity=".830882" filter="url(#h)" transform="matrix(.88100272 0 0 1.5504329 7.615825 -61.864099)"/><path d="m11.650875 52.677967h104.698245l-2 62.959193h-100.698245z" fill="url(#e)" stroke="#818181" stroke-width=".5"/><path d="m11.650875-52.677967h104.698245l-12 31.95606h-80.698245z" fill="#f7f7f7" stroke="#b1b1b1" stroke-width=".2" transform="scale(1 -1)"/><g transform="matrix(.86813488 0 0 .86813488 11.190351 -10.877409)"><ellipse cx="38.983051" cy="44.677967" fill="#797979" filter="url(#d)" rx="15.254237" ry="7.526336"/><path d="m53.976562 31.978516a15.118644 7.6610169 0 0 1 .05664.228515c-.01458-.07802-.03698-.15264-.05664-.228515zm-30.111328.902343v10.949219c-.0012 4.231202 6.767118 7.661702 15.117188 7.66211 8.350833.000138 15.120332-3.430522 15.11914-7.66211v-10.949219a15.118644 7.6610169 0 0 1 -15.11914 7.66211 15.118644 7.6610169 0 0 1 -15.117188-7.66211z" fill="url(#a)"/><ellipse cx="38.983051" cy="33.032692" fill="#fff" filter="url(#c)" rx="15.118644" ry="7.812355"/><ellipse cx="38.983051" cy="32.881355" fill="url(#b)" rx="15.118644" ry="7.661017"/></g><g transform="translate(2.016948 -.542373)"><ellipse cx="38.983051" cy="44.677967" fill="#bfbfbf" filter="url(#d)" rx="15.254237" ry="7.526336"/><path d="m53.976562 31.978516a15.118644 7.6610169 0 0 1 .05664.228515c-.01458-.07802-.03698-.15264-.05664-.228515zm-30.111328.902343v10.949219c-.0012 4.231202 6.767118 7.661702 15.117188 7.66211 8.350833.000138 15.120332-3.430522 15.11914-7.66211v-10.949219a15.118644 7.6610169 0 0 1 -15.11914 7.66211 15.118644 7.6610169 0 0 1 -15.117188-7.66211z" fill="url(#a)"/><ellipse cx="38.983051" cy="33.032692" fill="#fff" filter="url(#c)" rx="15.118644" ry="7.812355"/><ellipse cx="38.983051" cy="32.881355" fill="url(#b)" rx="15.118644" ry="7.661017"/></g><g transform="matrix(.86813488 0 0 .86813488 49.124555 -10.877409)"><ellipse cx="38.983051" cy="44.677967" fill="#797979" filter="url(#d)" rx="15.254237" ry="7.526336"/><path d="m53.976562 31.978516a15.118644 7.6610169 0 0 1 .05664.228515c-.01458-.07802-.03698-.15264-.05664-.228515zm-30.111328.902343v10.949219c-.0012 4.231202 6.767118 7.661702 15.117188 7.66211 8.350833.000138 15.120332-3.430522 15.11914-7.66211v-10.949219a15.118644 7.6610169 0 0 1 -15.11914 7.66211 15.118644 7.6610169 0 0 1 -15.117188-7.66211z" fill="url(#a)"/><ellipse cx="38.983051" cy="33.032692" fill="#fff" filter="url(#c)" rx="15.118644" ry="7.812355"/><ellipse cx="38.983051" cy="32.881355" fill="url(#b)" rx="15.118644" ry="7.661017"/></g><g transform="translate(48.016948 -.542373)"><ellipse cx="38.983051" cy="44.677967" fill="#bfbfbf" filter="url(#d)" rx="15.254237" ry="7.526336"/><path d="m53.976562 31.978516a15.118644 7.6610169 0 0 1 .05664.228515c-.01458-.07802-.03698-.15264-.05664-.228515zm-30.111328.902343v10.949219c-.0012 4.231202 6.767118 7.661702 15.117188 7.66211 8.350833.000138 15.120332-3.430522 15.11914-7.66211v-10.949219a15.118644 7.6610169 0 0 1 -15.11914 7.66211 15.118644 7.6610169 0 0 1 -15.117188-7.66211z" fill="url(#a)"/><ellipse cx="38.983051" cy="33.032692" fill="#fff" filter="url(#c)" rx="15.118644" ry="7.812355"/><ellipse cx="38.983051" cy="32.881355" fill="url(#b)" rx="15.118644" ry="7.661017"/></g><path d="m11.650391 52.677734 2 62.958986h100.699219l2-62.958986zm.542968.330078h103.613281l-1.97852 61.757808h-99.656245z" fill="#fff" filter="url(#g)"/></svg>