<svg height="128" viewBox="0 0 128 128" width="128" xmlns="http://www.w3.org/2000/svg" xmlns:xlink="http://www.w3.org/1999/xlink"><linearGradient id="a" gradientUnits="userSpaceOnUse" x1="74.486003" x2="10.147" y1="12.388915" y2="74.463917"><stop offset=".048" stop-color="#fff44f"/><stop offset=".111" stop-color="#ffe847"/><stop offset=".225" stop-color="#ffc830"/><stop offset=".368" stop-color="#ff980e"/><stop offset=".401" stop-color="#ff8b16"/><stop offset=".462" stop-color="#ff672a"/><stop offset=".534" stop-color="#ff3647"/><stop offset=".705" stop-color="#e31587"/></linearGradient><radialGradient id="b" cx="71.513" cy="8.8748" gradientUnits="userSpaceOnUse" r="80.796997"><stop offset=".129" stop-color="#ffbd4f"/><stop offset=".186" stop-color="#ffac31"/><stop offset=".247" stop-color="#ff9d17"/><stop offset=".283" stop-color="#ff980e"/><stop offset=".403" stop-color="#ff563b"/><stop offset=".467" stop-color="#ff3750"/><stop offset=".71" stop-color="#f5156c"/><stop offset=".782" stop-color="#eb0878"/><stop offset=".86" stop-color="#e50080"/></radialGradient><radialGradient id="c" cx="41.9891" cy="41.907" gradientUnits="userSpaceOnUse" r="80.796997"><stop offset=".3" stop-color="#960e18"/><stop offset=".351" stop-color="#b11927" stop-opacity=".74"/><stop offset=".435" stop-color="#db293d" stop-opacity=".343"/><stop offset=".497" stop-color="#f5334b" stop-opacity=".094"/><stop offset=".53" stop-color="#ff3750" stop-opacity="0"/></radialGradient><radialGradient id="d" cx="51.7298" cy="-9.4611" gradientUnits="userSpaceOnUse" r="58.534"><stop offset=".132" stop-color="#fff44f"/><stop offset=".252" stop-color="#ffdc3e"/><stop offset=".506" stop-color="#ff9d12"/><stop offset=".526" stop-color="#ff980e"/></radialGradient><radialGradient id="e" cx="33.0521" cy="63.0115" gradientUnits="userSpaceOnUse" r="38.471001"><stop offset=".353" stop-color="#3a8ee6"/><stop offset=".472" stop-color="#5c79f0"/><stop offset=".669" stop-color="#9059ff"/><stop offset="1" stop-color="#c139e6"/></radialGradient><radialGradient id="f" cx="-7935.6201" cy="-8491.5459" gradientTransform="matrix(.972 -.235 .275 1.138 10095.002 7833.7939)" gradientUnits="userSpaceOnUse" r="20.396999"><stop offset=".206" stop-color="#9059ff" stop-opacity="0"/><stop offset=".278" stop-color="#8c4ff3" stop-opacity=".064"/><stop offset=".747" stop-color="#7716a8" stop-opacity=".45"/><stop offset=".975" stop-color="#6e008b" stop-opacity=".6"/></radialGradient><radialGradient id="g" cx="40.969" cy="5.5691" gradientUnits="userSpaceOnUse" r="27.676001"><stop offset="0" stop-color="#ffe226"/><stop offset=".121" stop-color="#ffdb27"/><stop offset=".295" stop-color="#ffc82a"/><stop offset=".502" stop-color="#ffa930"/><stop offset=".732" stop-color="#ff7e37"/><stop offset=".792" stop-color="#ff7139"/></radialGradient><radialGradient id="h" cx="62.7229" cy="-11.9855" gradientUnits="userSpaceOnUse" r="118.081"><stop offset=".113" stop-color="#fff44f"/><stop offset=".456" stop-color="#ff980e"/><stop offset=".622" stop-color="#ff5634"/><stop offset=".716" stop-color="#ff3647"/><stop offset=".904" stop-color="#e31587"/></radialGradient><radialGradient id="i" cx="-7927.165" cy="-8522.8594" gradientTransform="matrix(.105 .995 -.653 .069 -4680.304 8470.1869)" gradientUnits="userSpaceOnUse" r="86.499001"><stop offset="0" stop-color="#fff44f"/><stop offset=".06" stop-color="#ffe847"/><stop offset=".168" stop-color="#ffc830"/><stop offset=".304" stop-color="#ff980e"/><stop offset=".356" stop-color="#ff8b16"/><stop offset=".455" stop-color="#ff672a"/><stop offset=".57" stop-color="#ff3647"/><stop offset=".737" stop-color="#e31587"/></radialGradient><radialGradient id="j" cx="40.3172" cy="15.8201" gradientUnits="userSpaceOnUse" r="73.720001"><stop offset=".137" stop-color="#fff44f"/><stop offset=".48" stop-color="#ff980e"/><stop offset=".592" stop-color="#ff5634"/><stop offset=".655" stop-color="#ff3647"/><stop offset=".904" stop-color="#e31587"/></radialGradient><radialGradient id="k" cx="59.7771" cy="20.1346" gradientUnits="userSpaceOnUse" r="80.685997"><stop offset=".094" stop-color="#fff44f"/><stop offset=".231" stop-color="#ffe141"/><stop offset=".509" stop-color="#ffaf1e"/><stop offset=".626" stop-color="#ff980e"/></radialGradient><linearGradient id="l" gradientUnits="userSpaceOnUse" x1="73.713" x2="18.967" y1="12.056915" y2="66.801915"><stop offset=".167" stop-color="#fff44f" stop-opacity=".8"/><stop offset=".266" stop-color="#fff44f" stop-opacity=".634"/><stop offset=".489" stop-color="#fff44f" stop-opacity=".217"/><stop offset=".6" stop-color="#fff44f" stop-opacity="0"/></linearGradient><g transform="matrix(1.52381 0 0 1.52381 -2.604641 3.07276)"><path d="m79.616 26.826915c-1.684-4.052-5.1-8.427-7.775-9.81a40.266 40.266 0 0 1 3.925 11.764l.007.065c-4.382-10.925-11.813-15.33-17.882-24.9220005-.307-.485-.614-.971-.913-1.484-.171-.293-.308-.557-.427-.8a7.053 7.053 0 0 1 -.578-1.535.1.1 0 0 0 -.088-.1.138.138 0 0 0 -.073 0c-.005 0-.013.009-.019.011s-.019.011-.028.015l.015-.026c-9.735 5.7-13.038 16.2520005-13.342 21.5300005a19.387 19.387 0 0 0 -10.666 4.111 11.587 11.587 0 0 0 -1-.758 17.968 17.968 0 0 1 -.109-9.473 28.705 28.705 0 0 0 -9.329 7.21h-.018c-1.536-1.947-1.428-8.367-1.34-9.708a6.928 6.928 0 0 0 -1.294.687 28.225 28.225 0 0 0 -3.788 3.245 33.845 33.845 0 0 0 -3.623 4.347v.006-.007a32.733 32.733 0 0 0 -5.2 11.743l-.052.256c-.073.341-.336 2.049-.381 2.42 0 .029-.006.056-.009.085a36.937 36.937 0 0 0 -.629 5.343v.2a38.759 38.759 0 0 0 76.954 6.554c.065-.5.118-.995.176-1.5a39.857 39.857 0 0 0 -2.514-19.469zm-44.67 30.338c.181.087.351.181.537.264l.027.017q-.282-.135-.564-.281zm40.83-28.31v-.037l.007.041z" fill="url(#a)"/><path d="m79.616 26.826915c-1.684-4.052-5.1-8.427-7.775-9.81a40.266 40.266 0 0 1 3.925 11.764v.037l.007.041a35.1 35.1 0 0 1 -1.206 26.158c-4.442 9.531-15.194 19.3-32.024 18.825-18.185-.515-34.2-14.009-37.194-31.683-.545-2.787 0-4.2.274-6.465a28.876 28.876 0 0 0 -.623 5.348v.2a38.759 38.759 0 0 0 76.954 6.554c.065-.5.118-.995.176-1.5a39.857 39.857 0 0 0 -2.514-19.469z" fill="url(#b)"/><path d="m79.616 26.826915c-1.684-4.052-5.1-8.427-7.775-9.81a40.266 40.266 0 0 1 3.925 11.764v.037l.007.041a35.1 35.1 0 0 1 -1.206 26.158c-4.442 9.531-15.194 19.3-32.024 18.825-18.185-.515-34.2-14.009-37.194-31.683-.545-2.787 0-4.2.274-6.465a28.876 28.876 0 0 0 -.623 5.348v.2a38.759 38.759 0 0 0 76.954 6.554c.065-.5.118-.995.176-1.5a39.857 39.857 0 0 0 -2.514-19.469z" fill="url(#c)"/><path d="m60.782 31.382915c.084.059.162.118.241.177a21.1 21.1 0 0 0 -3.6-4.695c-12.046-12.048-3.157-26.1230005-1.658-26.8380005l.015-.022c-9.735 5.7-13.038 16.2520005-13.342 21.5300005.452-.031.9-.069 1.362-.069a19.56 19.56 0 0 1 16.982 9.917z" fill="url(#d)"/><path d="m43.825 33.788915c-.064.964-3.47 4.289-4.661 4.289-11.021 0-12.81 6.667-12.81 6.667.488 5.614 4.4 10.238 9.129 12.684.216.112.435.213.654.312q.569.252 1.138.466a17.235 17.235 0 0 0 5.043.973c19.317.906 23.059-23.1 9.119-30.066a13.38 13.38 0 0 1 9.345 2.269 19.56 19.56 0 0 0 -16.982-9.917c-.46 0-.91.038-1.362.069a19.387 19.387 0 0 0 -10.666 4.111c.591.5 1.258 1.168 2.663 2.553 2.63 2.591 9.375 5.275 9.39 5.59z" fill="url(#e)"/><path d="m43.825 33.788915c-.064.964-3.47 4.289-4.661 4.289-11.021 0-12.81 6.667-12.81 6.667.488 5.614 4.4 10.238 9.129 12.684.216.112.435.213.654.312q.569.252 1.138.466a17.235 17.235 0 0 0 5.043.973c19.317.906 23.059-23.1 9.119-30.066a13.38 13.38 0 0 1 9.345 2.269 19.56 19.56 0 0 0 -16.982-9.917c-.46 0-.91.038-1.362.069a19.387 19.387 0 0 0 -10.666 4.111c.591.5 1.258 1.168 2.663 2.553 2.63 2.591 9.375 5.275 9.39 5.59z" fill="url(#f)"/><path d="m29.965 24.356915c.314.2.573.374.8.531a17.968 17.968 0 0 1 -.109-9.473 28.705 28.705 0 0 0 -9.329 7.21c.189-.005 5.811-.106 8.638 1.732z" fill="url(#g)"/><path d="m5.354 42.158915c2.991 17.674 19.009 31.168 37.194 31.683 16.83.476 27.582-9.294 32.024-18.825a35.1 35.1 0 0 0 1.206-26.158v-.037c0-.029-.006-.046 0-.037l.007.065c1.375 8.977-3.191 17.674-10.329 23.555l-.022.05c-13.908 11.327-27.218 6.834-29.912 5q-.282-.135-.564-.281c-8.109-3.876-11.459-11.264-10.741-17.6a9.953 9.953 0 0 1 -9.181-5.775 14.618 14.618 0 0 1 14.249-.572 19.3 19.3 0 0 0 14.552.572c-.015-.315-6.76-3-9.39-5.59-1.405-1.385-2.072-2.052-2.663-2.553a11.587 11.587 0 0 0 -1-.758c-.23-.157-.489-.327-.8-.531-2.827-1.838-8.449-1.737-8.635-1.732h-.018c-1.536-1.947-1.428-8.367-1.34-9.708a6.928 6.928 0 0 0 -1.294.687 28.225 28.225 0 0 0 -3.788 3.245 33.845 33.845 0 0 0 -3.638 4.337v.006-.007a32.733 32.733 0 0 0 -5.2 11.743c-.019.079-1.396 6.099-.717 9.221z" fill="url(#h)"/><path d="m57.425 26.864915a21.1 21.1 0 0 1 3.6 4.7c.213.161.412.321.581.476 8.787 8.1 4.183 19.55 3.84 20.365 7.138-5.881 11.7-14.578 10.329-23.555-4.384-10.93-11.815-15.335-17.884-24.9270005-.307-.485-.614-.971-.913-1.484-.171-.293-.308-.557-.427-.8a7.053 7.053 0 0 1 -.578-1.535.1.1 0 0 0 -.088-.1.138.138 0 0 0 -.073 0c-.005 0-.013.009-.019.011s-.019.011-.028.015c-1.499.711-10.388 14.7860005 1.66 26.8340005z" fill="url(#i)"/><path d="m61.6 32.035915c-.169-.155-.368-.315-.581-.476-.079-.059-.157-.118-.241-.177a13.38 13.38 0 0 0 -9.345-2.269c13.94 6.97 10.2 30.972-9.119 30.066a17.235 17.235 0 0 1 -5.043-.973q-.569-.213-1.138-.466c-.219-.1-.438-.2-.654-.312l.027.017c2.694 1.839 16 6.332 29.912-5l.022-.05c.347-.81 4.951-12.263-3.84-20.36z" fill="url(#j)"/><path d="m26.354 44.744915s1.789-6.667 12.81-6.667c1.191 0 4.6-3.325 4.661-4.289a19.3 19.3 0 0 1 -14.552-.572 14.618 14.618 0 0 0 -14.249.572 9.953 9.953 0 0 0 9.181 5.775c-.718 6.337 2.632 13.725 10.741 17.6.181.087.351.181.537.264-4.733-2.445-8.641-7.069-9.129-12.683z" fill="url(#k)"/><path d="m79.616 26.826915c-1.684-4.052-5.1-8.427-7.775-9.81a40.266 40.266 0 0 1 3.925 11.764l.007.065c-4.382-10.925-11.813-15.33-17.882-24.9220005-.307-.485-.614-.971-.913-1.484-.171-.293-.308-.557-.427-.8a7.053 7.053 0 0 1 -.578-1.535.1.1 0 0 0 -.088-.1.138.138 0 0 0 -.073 0c-.005 0-.013.009-.019.011s-.019.011-.028.015l.015-.026c-9.735 5.7-13.038 16.2520005-13.342 21.5300005.452-.031.9-.069 1.362-.069a19.56 19.56 0 0 1 16.982 9.917 13.38 13.38 0 0 0 -9.345-2.269c13.94 6.97 10.2 30.972-9.119 30.066a17.235 17.235 0 0 1 -5.043-.973q-.569-.213-1.138-.466c-.219-.1-.438-.2-.654-.312l.027.017q-.282-.135-.564-.281c.181.087.351.181.537.264-4.733-2.446-8.641-7.07-9.129-12.684 0 0 1.789-6.667 12.81-6.667 1.191 0 4.6-3.325 4.661-4.289-.015-.315-6.76-3-9.39-5.59-1.405-1.385-2.072-2.052-2.663-2.553a11.587 11.587 0 0 0 -1-.758 17.968 17.968 0 0 1 -.109-9.473 28.705 28.705 0 0 0 -9.329 7.21h-.018c-1.536-1.947-1.428-8.367-1.34-9.708a6.928 6.928 0 0 0 -1.294.687 28.225 28.225 0 0 0 -3.788 3.245 33.845 33.845 0 0 0 -3.623 4.347v.006-.007a32.733 32.733 0 0 0 -5.2 11.743l-.052.256c-.073.341-.4 2.073-.447 2.445a45.094 45.094 0 0 0 -.572 5.403v.2a38.759 38.759 0 0 0 76.954 6.554c.065-.5.118-.995.176-1.5a39.857 39.857 0 0 0 -2.514-19.469zm-3.845 1.991.007.041z" fill="url(#l)"/></g></svg>