<svg viewBox="0 0 955.45 986.16" xmlns="http://www.w3.org/2000/svg" xmlns:xlink="http://www.w3.org/1999/xlink"><linearGradient id="a" gradientTransform="matrix(.76 .03 .05 -1.12 11228.23 11186.79)" gradientUnits="userSpaceOnUse" x1="-14371.64" x2="-14108.4" y1="9293.53" y2="9293.53"><stop offset="0" stop-color="#0083ff"/><stop offset=".18" stop-color="#0096f6"/><stop offset=".51" stop-color="#00b3e6"/><stop offset=".79" stop-color="#00c6dd"/><stop offset="1" stop-color="#00ccda"/></linearGradient><linearGradient id="b" gradientTransform="matrix(1 0 0 -1 1081.94 986.01)" gradientUnits="userSpaceOnUse" x1="-541.3" x2="-732.73" y1="256.54" y2="882.77"><stop offset="0" stop-color="#000f40" stop-opacity=".6"/><stop offset=".61" stop-color="#000f40" stop-opacity=".18"/><stop offset="1" stop-color="#000f40" stop-opacity="0"/></linearGradient><linearGradient id="c" gradientTransform="matrix(1 0 0 -1 0 986.01)" gradientUnits="userSpaceOnUse" x1="540.64" x2="349.2" y1="256.54" y2="882.77"><stop offset="0" stop-color="#000f43" stop-opacity=".4"/><stop offset=".48" stop-color="#001962" stop-opacity=".17"/><stop offset="1" stop-color="#002079" stop-opacity="0"/></linearGradient><linearGradient id="d" gradientTransform="matrix(1.22 .12 .12 -1.22 10478.03 10900.02)" gradientUnits="userSpaceOnUse" x1="-8570.46" x2="-8685.71" y1="7439.08" y2="7447.98"><stop offset="0" stop-color="#002275"/><stop offset="1" stop-color="#005fe7"/></linearGradient><linearGradient id="e" gradientTransform="matrix(1.22 .12 .12 -1.22 10478.03 10900.02)" gradientUnits="userSpaceOnUse" x1="-8653.32" x2="-8545.37" y1="7586.86" y2="7698.98"><stop offset=".05" stop-color="#005fe7"/><stop offset=".19" stop-color="#005ce1"/><stop offset=".38" stop-color="#0052cf"/><stop offset=".6" stop-color="#0043b2"/><stop offset=".84" stop-color="#002d8a"/><stop offset=".95" stop-color="#002275"/></linearGradient><linearGradient id="f" gradientTransform="matrix(1.22 .12 .12 -1.22 10478.03 10900.02)" gradientUnits="userSpaceOnUse" x1="-8856.78" x2="-8625.9" y1="7335.52" y2="7334.98"><stop offset="0" stop-color="#002079"/><stop offset=".99" stop-color="#000f40"/></linearGradient><radialGradient id="g" cx="584.1" cy="600.57" fx="717.51404" fy="478.327653" gradientTransform="matrix(1 0 0 -1 0 986.01)" gradientUnits="userSpaceOnUse" r="751.57"><stop offset=".16" stop-color="#58c1ff"/><stop offset=".24" stop-color="#4cb8ff"/><stop offset=".39" stop-color="#2ea0ff"/><stop offset=".54" stop-color="#0a84ff"/><stop offset=".76" stop-color="#0060df"/><stop offset=".8" stop-color="#0067de"/><stop offset=".85" stop-color="#007bdd"/><stop offset=".91" stop-color="#009cda"/><stop offset=".98" stop-color="#00c8d7"/></radialGradient><linearGradient id="h" gradientTransform="matrix(1.23 0 0 -1.22 10201.91 11050.28)" gradientUnits="userSpaceOnUse" x1="-7658.58" x2="-7729.61" y1="9078.09" y2="8279.7"><stop offset="0" stop-color="#00feff"/><stop offset=".3" stop-color="#04c9ff"/><stop offset=".61" stop-color="#0897ff"/><stop offset=".77" stop-color="#0a84ff"/><stop offset=".79" stop-color="#0a84ff" stop-opacity=".93"/><stop offset=".84" stop-color="#0a84ff" stop-opacity=".76"/><stop offset=".9" stop-color="#0a84ff" stop-opacity=".49"/><stop offset=".98" stop-color="#0a84ff" stop-opacity=".11"/><stop offset="1" stop-color="#0a84ff" stop-opacity="0"/></linearGradient><linearGradient id="i" gradientTransform="matrix(1.22 .12 .12 -1.22 10478.03 10900.02)" gradientUnits="userSpaceOnUse" x1="-9129.99" x2="-8993.52" y1="7770.74" y2="7770.74"><stop offset="0" stop-color="#003eaa"/><stop offset=".3" stop-color="#0054c5" stop-opacity=".68"/><stop offset=".78" stop-color="#0076ef" stop-opacity=".19"/><stop offset="1" stop-color="#0083ff" stop-opacity="0"/></linearGradient><linearGradient id="j" gradientTransform="matrix(1 0 0 -1 0 986.01)" gradientUnits="userSpaceOnUse" x1="553.42" x2="358.4" y1="650.09" y2="653.09"><stop offset="0" stop-color="#00feff" stop-opacity=".25"/><stop offset=".54" stop-color="#2ddfff" stop-opacity=".12"/><stop offset="1" stop-color="#58c1ff" stop-opacity="0"/></linearGradient><linearGradient id="k" gradientTransform="matrix(.99 .1 .1 -.99 -255.6 2416.49)" gradientUnits="userSpaceOnUse" x1="208.63" x2="90.81" y1="2142.48" y2="2394.32"><stop offset=".19" stop-color="#002275" stop-opacity=".7"/><stop offset=".63" stop-color="#009dc2" stop-opacity=".36"/><stop offset=".94" stop-color="#00feff" stop-opacity=".1"/></linearGradient><linearGradient id="l" gradientTransform="matrix(.99 .1 .1 -.99 223.54 856.07)" gradientUnits="userSpaceOnUse" x1="-43.75" x2="50.36" y1="388.32" y2="281.43"><stop offset="0" stop-color="#002275" stop-opacity=".8"/><stop offset=".07" stop-color="#002479" stop-opacity=".74"/><stop offset=".95" stop-color="#003eaa" stop-opacity="0"/></linearGradient><linearGradient id="m" gradientTransform="matrix(.99 .1 .1 -.99 223.54 856.07)" gradientUnits="userSpaceOnUse" x1="136.86" x2="136.9" y1="206.19" y2="259.62"><stop offset="0" stop-color="#002275" stop-opacity=".6"/><stop offset=".24" stop-color="#002275" stop-opacity=".34"/><stop offset=".49" stop-color="#002275" stop-opacity=".15"/><stop offset=".72" stop-color="#002275" stop-opacity=".04"/><stop offset=".93" stop-color="#002275" stop-opacity="0"/></linearGradient><linearGradient id="n" gradientTransform="matrix(1 0 0 -1 0 986.01)" gradientUnits="userSpaceOnUse" x1="569.33" x2="877.68" y1="1064.11" y2="374.6"><stop offset="0" stop-color="#00feff"/><stop offset=".28" stop-color="#03dfff"/><stop offset=".9" stop-color="#0992ff"/><stop offset="1" stop-color="#0a84ff"/></linearGradient><linearGradient id="o" gradientTransform="matrix(1 0 0 -1 0 986.01)" gradientUnits="userSpaceOnUse" x1="680.88" x2="536.1" y1="556.54" y2="167.79"><stop offset="0" stop-color="#0060df"/><stop offset=".09" stop-color="#0067e5" stop-opacity=".81"/><stop offset=".21" stop-color="#006eec" stop-opacity=".59"/><stop offset=".33" stop-color="#0075f2" stop-opacity=".41"/><stop offset=".46" stop-color="#007af7" stop-opacity=".26"/><stop offset=".58" stop-color="#007efa" stop-opacity=".15"/><stop offset=".71" stop-color="#0081fd" stop-opacity=".06"/><stop offset=".85" stop-color="#0082fe" stop-opacity=".02"/><stop offset="1" stop-color="#0083ff" stop-opacity="0"/></linearGradient><linearGradient id="p" gradientTransform="matrix(1 0 0 -1 0 986.01)" gradientUnits="userSpaceOnUse" x1="640" x2="747.99" y1="1020.28" y2="109.82"><stop offset="0" stop-color="#75feff"/><stop offset=".28" stop-color="#5adfff"/><stop offset=".9" stop-color="#1692ff"/><stop offset="1" stop-color="#0a84ff"/></linearGradient><linearGradient id="q" gradientTransform="matrix(1 0 0 -1 0 986.01)" gradientUnits="userSpaceOnUse" x1="735.59" x2="653.1" y1="578.41" y2="230.43"><stop offset="0" stop-color="#9ee7ff"/><stop offset=".14" stop-color="#8cdbff" stop-opacity=".88"/><stop offset=".46" stop-color="#5ebdff" stop-opacity=".57"/><stop offset=".92" stop-color="#168cff" stop-opacity=".08"/><stop offset="1" stop-color="#0a84ff" stop-opacity="0"/></linearGradient><linearGradient id="r" gradientTransform="matrix(1 0 0 -1 0 986.01)" gradientUnits="userSpaceOnUse" x1="649" x2="724.57" y1="1002.59" y2="429.48"><stop offset="0" stop-color="#00feff"/><stop offset=".14" stop-color="#0bf7ff" stop-opacity=".88"/><stop offset=".46" stop-color="#26e4ff" stop-opacity=".57"/><stop offset=".92" stop-color="#51c6ff" stop-opacity=".08"/><stop offset="1" stop-color="#58c1ff" stop-opacity="0"/></linearGradient><linearGradient id="s" gradientTransform="matrix(1 0 0 -1 0 986.01)" gradientUnits="userSpaceOnUse" x1="662.8" x2="1060.94" y1="968.07" y2="345.6"><stop offset="0" stop-color="#00feff"/><stop offset=".14" stop-color="#01efff" stop-opacity=".88"/><stop offset=".46" stop-color="#04caff" stop-opacity=".57"/><stop offset=".92" stop-color="#098eff" stop-opacity=".08"/><stop offset="1" stop-color="#0a84ff" stop-opacity="0"/></linearGradient><linearGradient id="t" x1="754.44" x2="313.86" xlink:href="#q" y1="521.58" y2="178"/><linearGradient id="u" x1="358.66" x2="43.38" xlink:href="#s" y1="754.08" y2="513.58"/><linearGradient id="v" x1="145.65" x2="130.45" xlink:href="#s" y1="859.21" y2="726.91"/><linearGradient id="w" x1="292.53" x2="195.52" xlink:href="#s" y1="562.84" y2="368.82"/><path d="m916.77 436.39-20.31-67.59-58.09-109.92-66.44-70.23-70.55-50.5-61.25-24.11-73.49-26.21-121-7.73-76.3 13.81-62.26 19.2-110.47 64.83-69.05 77.23-63.66 103.69-25.04 88.24-4.68 133.87 23.87 91.28 52.66 103.92 37.14 50.2 51.36 47.21 64.14 43.51 79.1 34.5 132.36 15.58 69.12 1.93 102.29-28.89 91.43-50.32 58.83-50.32 45.61-54.57 64.49-126.59 14.24-86.59z" fill="#061a58"/><path d="m447.85 140.94-54.18 53.91 88.39 35.93z" fill="#133691"/><path d="m482.06 230.78-34.21-89.84 99.97 8.07z" fill="#1943ae"/><path d="m482.06 230.78 171.14-5.2-105.38-76.57z" fill="#2053cf"/><path d="m653.2 225.58-105.38-76.57 92.67-.57z" fill="#2660eb"/><path d="m653.2 225.58 97.45-6.38-110.16-70.76z" fill="#306dff"/><path d="m750.65 219.2-110.16-70.76 54.76-5.85z" fill="#235adb"/><path d="m750.65 219.2-55.4-76.61 76.68 46.06z" fill="#2660eb"/><path d="m824.01 266.11-73.36-46.91 21.28-30.55z" fill="#2053cf"/><path d="m750.65 219.2-12.27 52.48 67.1 26.89z" fill="#1c4abd"/><path d="m750.65 219.2 73.36 46.91-18.53 32.46z" fill="#1a46b4"/><path d="m653.2 225.58 97.45-6.38-12.27 52.48z" fill="#2660eb"/><path d="m653.2 225.58 85.18 46.1-63.08 72.45z" fill="#235adb"/><path d="m653.2 225.58-76.99 69.88 99.09 48.67z" fill="#1f51ca"/><path d="m482.06 230.78 171.14-5.2-76.99 69.88z" fill="#1f50c9"/><path d="m675.3 344.13 63.08-72.45 46.6 90.62z" fill="#2053cf"/><path d="m738.38 271.68 46.6 90.62 20.5-63.73z" fill="#1b48b9"/><path d="m784.98 362.3 20.5-63.73 48.82 116.44z" fill="#173fa5"/><path d="m805.48 298.57 74.4 54.64-25.58 61.8z" fill="#12348d"/><path d="m805.48 298.57 74.4 54.64-55.87-87.1z" fill="#143895"/><path d="m824.01 266.11 14.36-7.23 41.51 94.33z" fill="#0f2f82"/><path d="m879.88 353.21 16.58 15.59-58.09-109.92z" fill="#05154c"/><path d="m824.01 266.11 14.36-7.23-66.44-70.23z" fill="#163c9e"/><path d="m913.04 489.2-16.58-120.4 20.31 67.59-4 52.81z" fill="#051753"/><path d="m879.88 353.21 33.16 135.99-16.58-120.4z" fill="#061a57"/><path d="m854.3 415.01 58.74 74.19-33.16-135.99z" fill="#05154c"/><path d="m912.77 489.2 4-52.81 4.05 135.43-7.78-82.62z" fill="#081f63"/><path d="m903.2 596.22 17.62-24.4-7.78-82.62z" fill="#12348d"/><path d="m906.58 658.41-14.09 6.81 28.33-93.4z" fill="#123392"/><path d="m892.49 665.22 28.33-93.4-17.62 24.4z" fill="#0c2674"/><path d="m903.2 596.22 9.84-107.02-30.18 35.7z" fill="#081f63"/><path d="m892.49 665.22 10.71-69-58.21 98.1z" fill="#0f2f82"/><path d="m854.3 415.01 58.74 74.19-30.18 35.7z" fill="#061a57"/><path d="m903.2 596.22-20.34-71.32-30.69 87.85z" fill="#081e5f"/><path d="m844.99 694.32 58.21-98.1-51.03 16.53z" fill="#092167"/><path d="m842.09 785 64.49-126.59-14.09 6.81z" fill="#163aa2"/><path d="m842.09 785 50.4-119.78-47.15 87.31z" fill="#163aa2"/><path d="m845.34 752.53 47.15-87.31-47.5 29.1z" fill="#0e2b7e"/><path d="m796.48 839.57 48.86-87.04-3.25 32.47z" fill="#123392"/><path d="m734.31 868.24 62.17-28.67-58.83 50.32z" fill="#1a45b2"/><path d="m796.48 839.57 48.86-87.04-111.03 115.71z" fill="#123392"/><path d="m734.31 868.24 3.34 21.65-51.85 16.08z" fill="#133493"/><g fill="#1a45b2"><path d="m646.22 940.21 39.58-34.24 51.85-16.08z"/><path d="m646.22 940.21 39.58-34.24-128.64 48.1z"/><path d="m543.93 969.1 102.29-28.89-89.06 13.86z"/><path d="m474.81 967.17 69.12 1.93 13.23-15.03z"/></g><path d="m342.45 951.59-7.55-12.07 139.91 27.65z" fill="#1f51ca"/><path d="m342.45 951.59-7.55-12.07-71.55-22.43z" fill="#173fad"/><path d="m199.21 873.58-51.36-47.21 115.5 90.72z" fill="#173fad"/><path d="m147.85 826.37-37.14-50.2 24.67 8.14z" fill="#1b47b5"/><path d="m147.85 826.37 115.5 90.72-37.78-48.3z" fill="#163aa3"/><path d="m147.85 826.37 77.72 42.42-90.19-84.48z" fill="#173fad"/><path d="m225.57 868.79 109.33 70.73-71.55-22.43z" fill="#133595"/><path d="m225.57 868.79 109.33 70.73 1.81-41.59z" fill="#163ba4"/><path d="m394.33 924.94-59.43 14.58 1.81-41.59z" fill="#163aa2"/><path d="m135.38 784.31-24.67-8.14-16.5-74.08z" fill="#2053cf"/><path d="m110.71 776.17-52.66-103.92 36.16 29.84z" fill="#306dff"/><path d="m40.73 560.38 53.48 141.71-36.16-29.84" fill="#1f51ca"/><path d="m58.05 672.25-23.87-91.28 6.55-20.59z" fill="#2257d7"/><path d="m40.73 560.38-6.55 20.59 4.68-133.87z" fill="#11318d"/><path d="m63.9 358.86 16.38-6.09-41.42 94.33z" fill="#0c2674"/><path d="m38.86 447.1 31.36-5.85 10.06-88.48z" fill="#102f88"/><path d="m40.73 560.38-1.87-113.28 31.36-5.85z" fill="#133595"/><path d="m70.22 441.25-2.11 96.66-27.38 22.47z" fill="#12328e"/><path d="m127.56 255.17-47.28 97.6-16.38 6.09z" fill="#0b2572"/><path d="m127.56 255.17 60.39-57.81 8.66-19.42z" fill="#020b2e"/><path d="m196.61 177.94 71.85-35.81-80.51 55.23z" fill="#092064"/><path d="m196.61 177.94 110.47-64.83-38.62 29.02z" fill="#030f41"/><path d="m268.46 142.13 100.88-48.22-62.26 19.2z" fill="#081e5f"/><path d="m369.34 93.91-39.44 42.6-61.44 5.62z" fill="#081f61"/><path d="m329.9 136.51 93.97-37.68-54.53-4.92z" fill="#0d2a78"/><path d="m445.64 80.1-76.3 13.81 54.53 4.92z" fill="#11338b"/><path d="m517.8 97.89-93.93.94 21.77-18.73" fill="#153a99"/><path d="m445.64 80.1 121 7.73-48.84 10.06z" fill="#0d2a78"/><path d="m517.8 97.89 48.84-10.06 73.49 26.21z" fill="#2053ce"/><path d="m695.25 142.59-55.12-28.55 61.25 24.11z" fill="#1e4dc3"/><path d="m695.25 142.59 6.13-4.44 70.55 50.5z" fill="#1e4fc7"/><path d="m334.9 939.52 139.91 27.65-80.48-42.23z" fill="#1a45b2"/><path d="m474.81 967.17-80.48-42.23 78.76-14.71z" fill="#163aa2"/><path d="m557.16 954.07-82.35 13.1-1.72-56.94z" fill="#1a45b2"/><path d="m557.16 954.07-84.07-43.84 115.86-31.21z" fill="#1741aa"/><path d="m685.8 905.97-128.64 48.1 31.79-75.05" fill="#1a45b2"/><path d="m685.8 905.97 5.88-75.1-102.73 48.15z" fill="#133493"/><path d="m685.8 905.97 5.88-75.1 42.63 37.37z" fill="#163aa2"/><path d="m734.31 868.24-42.63-37.37 103-68.63z" fill="#133493"/><path d="m734.31 868.24 60.37-106 50.66-9.71z" fill="#1a45b2"/><path d="m845.34 752.53-.35-58.21-50.31 67.92z" fill="#092167"/><path d="m640.13 114.04.36 34.4 54.76-5.85" fill="#2258d9"/><path d="m640.49 148.44-.36-34.4-122.33-16.15z" fill="#2257d7"/><path d="m517.8 97.89 30.02 51.12 92.67-.57z" fill="#2257d7"/><path d="m517.8 97.89 30.02 51.12-99.97-8.07z" fill="#1a46b3"/><path d="m423.87 98.83 23.98 42.11 69.95-43.05z" fill="#163c9f"/><path d="m329.9 136.51 93.97-37.68 23.98 42.11z" fill="#103186"/><path d="m393.67 194.85-63.77-58.34 117.95 4.43z" fill="#163c9e"/><path d="m268.46 142.13-80.51 55.23 38.15 36.75z" fill="#031043"/><path d="m329.9 136.51-103.8 97.6 42.36-91.98z" fill="#030f41"/><path d="m226.1 234.11 66.23 11.05 37.57-108.65z" fill="#05164e"/><path d="m292.33 245.16 37.57-108.65 63.77 58.34z" fill="#092064"/><path d="m127.56 255.17 4.04 39.27 56.35-97.08z" fill="#030f41"/><path d="m80.28 352.77 47.28-97.6 4.04 39.27z" fill="#091f64"/><path d="m131.6 294.44 56.35-97.08 38.15 36.75z" fill="#041345"/><path d="m128.19 378.6 3.41-84.16-51.32 58.33z" fill="#0a226b"/><path d="m128.19 378.6 3.41-84.16 66.59 54.2z" fill="#091f64"/><path d="m198.19 348.64 27.91-114.53-94.5 60.33z" fill="#061853"/><path d="m198.19 348.64 27.91-114.53 66.23 11.05z" fill="#030f42"/><path d="m70.22 441.25 10.06-88.48 47.91 25.83z" fill="#0b2572"/><path d="m94.21 702.09-26.1-164.18-27.38 22.47z" fill="#173da9"/><path d="m135.38 784.31-41.17-82.22 44.12 6.21z" fill="#1a45b2"/><path d="m94.21 702.09 44.12 6.21-30.89-72.32z" fill="#1741aa"/><path d="m94.21 702.09-26.1-164.18 39.33 98.07z" fill="#10308b"/><path d="m135.38 784.31 46.37 8.95-43.42-84.96z" fill="#123390"/><path d="m135.38 784.31 90.19 84.48-43.82-75.53z" fill="#133493"/><path d="m225.57 868.79 32.63-31.46-76.45-44.07z" fill="#1a45b2"/><path d="m225.57 868.79 111.14 29.14-78.51-60.6z" fill="#163aa2"/><path d="m336.71 897.93 57.62 27.01 78.76-14.71z" fill="#1a45b2"/><path d="m336.71 897.93 37.67-79.08 98.71 91.38z" fill="#123392"/><path d="m68.11 537.91 64.37-.09-62.26-96.57z" fill="#102f87"/><path d="m70.22 441.25 62.26 96.57-4.29-159.22z" fill="#081f63"/><path d="m68.11 537.91 39.33 98.07 25.04-98.16z" fill="#163ba4"/><path d="m107.44 635.98 25.04-98.16 31.13 77.56z" fill="#11318c"/><path d="m138.33 708.3 25.28-92.92-56.17 20.6z" fill="#123390"/><path d="m138.33 708.3 119.37 74.17-94.09-167.09z" fill="#123392"/><path d="m181.75 793.26 75.95-10.79-119.37-74.17z" fill="#163aa2"/><path d="m258.2 837.33-.5-54.86-75.95 10.79z" fill="#1741aa"/><path d="m258.2 837.33-.5-54.86 116.68 36.38z" fill="#123392"/><path d="m258.2 837.33 78.51 60.6 37.67-79.08z" fill="#123392"/><path d="m473.09 910.23 9.91-90.14-108.62-1.24z" fill="#0e2b80"/><path d="m473.09 910.23 9.91-90.14 105.95 58.93z" fill="#143698"/><path d="m588.95 879.02-4.12-101.33-101.83 42.4z" fill="#0d2878"/><path d="m588.95 879.02-4.12-101.33 106.85 53.18z" fill="#123392"/><path d="m584.83 777.69 66.11-60.04 40.74 113.22z" fill="#081f63"/><path d="m691.68 830.87 49.98-151.77-90.72 38.55z" fill="#061a57"/><path d="m794.68 762.24-103 68.63 49.98-151.77z" fill="#0f2f82"/><path d="m794.68 762.24 50.31-67.92-103.33-15.22z" fill="#092167"/><path d="m844.99 694.32-103.33-15.22 110.51-66.35z" fill="#05164f"/><path d="m882.86 524.9-71.91-51.33 41.22 139.18z" fill="#051753"/><path d="m882.86 524.9-28.56-109.89-43.35 58.56z" fill="#031043"/><path d="m741.66 679.1 110.51-66.35-107.11-47.81z" fill="#031043"/><path d="m741.66 679.1-100.16-101.49 9.44 140.04z" fill="#030f41"/><path d="m584.83 777.69-76.9-68.28 143.01 8.24z" fill="#092167"/><path d="m584.83 777.69-101.83 42.4 24.93-110.68z" fill="#0f2f82"/><path d="m374.38 818.85 108.62 1.24-134.25-88.04z" fill="#123390"/><path d="m374.38 818.85-25.63-86.8-91.05 50.42z" fill="#0f2d84"/><path d="m257.7 782.47 17.03-88.15 74.02 37.73z" fill="#0e2b7e"/><path d="m274.73 694.32-111.12-78.94 94.09 167.09z" fill="#0f2e86"/><path d="m483 820.09 24.93-110.68-159.18 22.64z" fill="#081f63"/><path d="m132.48 537.82 31.93-102.22-36.22-57z" fill="#0a236c"/><path d="m128.19 378.6 36.22 57 33.78-86.96z" fill="#081f63"/><path d="m198.19 348.64 140.14-40.96-46-62.52z" fill="#05164e"/><path d="m198.19 348.64 140.14-40.96-74.02 151.64z" fill="#030f41"/><path d="m741.66 679.1-100.16-101.49 103.56-12.67z" fill="#05164f"/><path d="m852.17 612.75-41.22-139.18-65.89 91.37z" fill="#030f42"/><path d="m650.94 717.65-114.54-111.05 105.1-28.99z" fill="#030f41"/><path d="m507.93 709.41 143.01 8.24-114.54-111.05z" fill="#05164f"/><path d="m507.93 709.41-78.33-63.96 106.8-38.85z" fill="#031042"/><path d="m810.95 473.57 43.35-58.56-69.32-52.71z" fill="#0f2e82"/><path d="m198.19 348.64 66.12 110.68-99.9-23.72z" fill="#061853"/><path d="m164.41 435.6 99.9 23.72-67.56 106.7z" fill="#081f63"/><path d="m338.33 307.68 55.34-112.83-101.34 50.31z" fill="#081e5f"/><path d="m196.75 566.02-32.34-130.42-31.93 102.22" fill="#091f64"/><path d="m132.48 537.82 64.27 28.2-33.14 49.36z" fill="#11318c"/><path d="m196.75 566.02 77.98 128.3-111.12-78.94z" fill="#0e2b7e"/><path d="m274.73 694.32 10.42-155.23-88.4 26.93z" fill="#092167"/><path d="m274.73 694.32 154.87-48.87-144.45-106.36z" fill="#061a57"/><path d="m429.6 645.45-15.09-120.01-129.36 13.65z" fill="#05164f"/><path d="m536.4 606.6-106.8 38.85-15.09-120.01z" fill="#041245"/><path d="m414.51 525.44 109.23-40.97 12.66 122.13z" fill="#030f42"/><path d="m348.75 732.05 159.18-22.64-78.33-63.96z" fill="#092167"/><path d="m348.75 732.05-74.02-37.73 154.87-48.87z" fill="#0c2674"/><path d="m338.33 307.68 94.86 10.06-39.52-122.89z" fill="#0c2771"/><path d="m482.06 230.78-88.39-35.93 39.52 122.89z" fill="#153a99"/><path d="m482.06 230.78 94.15 64.68-143.02 22.28z" fill="#163da0"/><path d="m433.19 317.74 140.29 74.6-49.74 92.13z" fill="#11338b"/><path d="m573.48 392.34 2.73-96.88-143.02 22.28z" fill="#163ca0"/><path d="m573.48 392.34 2.73-96.88 99.09 48.67z" fill="#1a45b2"/><path d="m433.19 317.74 90.55 166.73-158.82-79.77z" fill="#0c266e"/><path d="m414.51 525.44 109.23-40.97-158.82-79.77z" fill="#071b5c"/><path d="m523.74 484.47 140.08-25.65-90.34-66.48z" fill="#0f2f82"/><path d="m675.3 344.13-11.48 114.69-90.34-66.48z" fill="#1741aa"/><path d="m675.3 344.13 66.12 90.04-77.6 24.65z" fill="#153a99"/><path d="m784.98 362.3-109.68-18.17 66.12 90.04z" fill="#1945b1"/><path d="m741.42 434.17 69.53 39.4-25.97-111.27z" fill="#12338c"/><path d="m745.06 564.94 65.89-91.37-69.53-39.4z" fill="#081e60"/><path d="m745.06 564.94-3.64-130.77-77.6 24.65z" fill="#081e5f"/><path d="m663.82 458.82-22.32 118.79 103.56-12.67" fill="#061a57"/><path d="m523.74 484.47 140.08-25.65-22.32 118.79z" fill="#031042"/><path d="m536.4 606.6 105.1-28.99-117.76-93.14z" fill="#05164f"/><path d="m338.33 307.68 26.59 97.02 68.27-86.96z" fill="#05174f"/><path d="m338.33 307.68-74.02 151.64 100.61-54.62z" fill="#061853"/><path d="m364.92 404.7-79.77 134.39 129.36-13.65z" fill="#030f41"/><path d="m285.15 539.09 79.77-134.39-100.61 54.62z" fill="#041245"/><path d="m196.75 566.02 67.56-106.7 20.84 79.77z" fill="#061a58"/><path d="m922.81 571.94v-.19l-4-135.4v-.48l-20.3-67.57v-.11l-.06-.14v-.05l-58.31-110v-.05l-.07-.11-.07-.1v-.06l-.06-.07v-.05l-66.44-70.28-.12-.1-.09-.08-70.52-50.48h-.07l-.15-.08-.15-.08-61.49-24.26h-.12l-73.48-26.26h-.54l-121-7.72h-.48l-76.29 13.72h-.25l-62.19 19.17-.14.06-.16.07h-.08l-110.58 65-.09.06-.08.06-.08.06-.07.05-.08.08-.06.06-69 77.21v.12l-.06.09-63.88 103.78v.06l-.06.11v.12l-.05.14v.06l-25.09 88.24v.4l-4.86 134v.63l23.86 91.18v.07a1.08 1.08 0 0 0 .08.19v.1l52.69 103.89.1.17 37.13 50.21v.06l.11.11.08.09 51.36 47.22.13.1.1.09 64.14 43.51.15.09h.08l79.09 34.5h.08l.18.06h.31l132.37 15.58h.18l69.11 1.93h.07a1.27 1.27 0 0 0 .39 0h.14l102.29-28.89h.29l.12-.05 91.38-50.29.15-.11.12-.09 58.81-50.29.06-.06.08-.07.07-.08 45.61-54.56a1.43 1.43 0 0 0 .16-.24v-.09l64.49-126.59v-.09a.15.15 0 0 1 .07-.15v-.34l14.23-86.57v-.16a3.25 3.25 0 0 0 .81-.06zm-722.35 300.06-13.3-12.23 29.92 23.5zm194.14 50.85-46.75-21.92 110.65 10zm17-399.13-122.74 13 75.69-127.51zm-42.8-114.83 150 75.32-103.18 38.67zm44 118.74 14.2 113.45-136.51-100.54zm12.48 117.1-148.28 46.8 10-148.67zm-8.28-115.21 115 76.55-100.73 36.65zm1.83-3.59 103.17-38.68 12 115.33zm158.53-133.22 95.64-45.26-10.82 107.68zm81.55 65-131.43 24 46.66-86.44zm-135.17 22.56-85.62-157.64 132.64 70.53zm-4.8-.45-150.94-75.82 64.88-82.64zm-233.07 54.18-19.23-73.62 92.86-50.38zm-12.71 153.88-73.36-120.7 83.2-25.33zm149.84-38.23-74.63 79.94-68.37-34.83zm110.5-39.84-26.62 96.12-73.23-59.8zm-7.28-120.81 110.94 87.75-99 27.31zm2.23-3.34 132.87-24.34-21.17 112.68zm137.66-29.66 10.66-106.48 61.38 83.59zm73.38-19.11 3.4 121.94-75.75-99zm-163.92-47.75 2.55-90.51 92.58 45.46zm-4-.08-132.14-70.27 134.71-21zm-205.77 11.28-24.8-90.34 88.35 9.37zm-3.23 3.36-93.73 50.88 69-141.26zm-79.84 134-81.4 24.8 62.21-98.26zm-14.73 149.38-101.63-72.2 30.32-45.15zm8.2 10.23 68.3 34.81-84 46.52zm153.6-49.13 73.35 59.89-149 21.2zm107.65-37.8 108.26 105-135.17-7.79zm2.87-2.78 99.36-27.4 8.93 132.4zm124.68-144.01 76.39 99.79-97.39 11.92zm78.56-25.94 64.44 36.56-61.11 84.79zm.68-4.21 40-65.91 23.82 102zm-2.94-2.87-61.48-83.67 101.91 16.89zm-161.57-135.57 72.16-65.5 20.71 111.07zm-142.73 20.13 45.78-81.46 88.22 60.59zm-95.62-9.13 51.89-105.81 37.07 115.25zm-77.25 149.12-62.9-105.28 133.31-39zm-66.56 105.88-30.43-122.69 94 22.31zm-33.51 50.13-27.9-69.51 57.6 25.27zm108.46 84.08-15.75 81.54-87-154.56zm75 39.8 23.87 80.82-108.63-33.83zm157.82-23.21-23.66 105-127.4-83.52zm140.72 7.57-61.24 55.63-71.25-63.26zm-2.21-136.53 94.31 95.55-85.42 36.31zm1.93-3.75 97.22-11.88-3.2 107.15zm164.41-101.09 38.81 131.16-100.9-45zm-22-110.79 63.33 48.15-39.6 53.5zm-109-24.51 58.81-67.52 43.43 84.46zm-2.65-3-20.61-110.37 79.29 42.91zm-100.54-46.78-87.8-60.32 159.61-4.86zm-142.31 19.85-36.81-114.45 82.32 33.47zm-95.69-8.93-42.63-57.95 93.92-46.63zm-3 2.72-130.54 38.17 87.72-96.42zm-74.84 149.72-93.05-22.09 31.46-81zm-66.33 106.27-58.91-25.85 29.27-93.7zm-32.83 51.66-50.67 18.58 22.59-88.55zm91.14 162.44-111.49-69.27 23.61-86.78zm113.5 41.56-105.46 16.79-.46-49.79zm-13.42-81.5 124 81.3-100.3-1.14zm156.93-23.55 72 63.91-95.35 39.68zm140.93 8 38 105.71-99.74-49.67zm3.39-2.39 84.91-36.09-46.78 142.05zm93.53-150.77 100.88 45-104.11 62.5zm67.55-89.41 66 47.08-28.15 80.59zm-.75-5.45 39.64-53.56 26.13 100.5zm-26.49-111.58 18.41-57.23 43.85 104.57zm-2.77-4.47-41.94-81.57 60.4 24.21zm-124.3-130 87.83-5.75-11.07 47.33zm-173.91 1.53 61.84-76.9 99.11 72zm-3.65-1.84-31.84-83.62 93 7.52zm-4.13.39-81.34-33.06 49.86-49.61zm-182.73 14 34.98-101.17 59.37 54.32zm-93.82 100.33 25.6-105.11 60.78 10.14zm-38 89.7-32.84-51.68 63.46-27.15zm-1.75 4.7-28.07 89.85-3.77-140zm-32.35 103.92-22.9 89.73-35.93-89.65zm-59.74-3.91 1.92-88.09 56.73 88zm90.5 82.68-22.75 83.63-27.81-65.09zm91.34 162.68-69.09 9.81-39.49-77.28zm3.75 3.51.45 49.07-68.4-39.42zm115.25 36.65-35 73.41-72.88-56.25zm4.08.74 92.41 85.55-127.74-11.53zm4.53-1.26 101.22 1.15-9.23 84zm203.39-40.27 3.86 94.9-99.23-55.19zm4 .35 100.1 49.83-96.26 45.12zm155.27-97.26 49.73 77.93-96.61 64.34zm3.46-2 95.69 14.1-46.59 62.9zm1.78-3.78 102.35-61.44-6.68 75.49zm135.16-146.44 18.07 63.4-45.36 14.69zm-24-107.82 51.84 65.46-26.63 31.5zm-48.56-119.24 67.32 49.44-23.15 55.91zm-69.4-34 10.86-46.45 48.49 70.19zm-85.84-47-11.69-70.91 101.27 65zm-4.44-2.37-96.51-70.08 84.87-.53zm-196.32-81.64 63-38.77 27 46zm-60.5 52.65-58.34-53.37 107.91 4.05zm-102.61 50.82-60.59-10.11 95-89.27zm-94 102.19-62-50.46 88-56.16zm-2.63 3-64 27.4 3.12-77zm-64.08 182.63-57.55-89.27 53.58-57.91zm-24.93 105.44-10.92 54.6-21.55-135.59zm2.77 6.53 27 63.13-38.51-5.41zm70 147.82-40.66-7.84 2.53-66.68zm76.8 47.22-28.93 27.84-38.78-66.85zm3.45 2.23 69.32 53.53-98.18-25.74zm226.28-16.67 99 55.07-108.26 29.17zm204.76 10.84-5.42 69.25-89.31-24.85zm99.35-65.56-55 96.54-38.82-34zm54.23-68.25.31 50.55-44 8.42zm11-86.09 44.73-14.49-51 86zm31-88.87 25.39-30-8.28 90zm-28.4-110.68 22.8-55.06 29.54 121.15zm-48.5-116.69 16-28 48.27 75.26zm-2.78-3.19-47.38-68.58 63.39 40.53zm-159-145 48-5.12 48.52 67.09zm-97.32-2.81-26.42-45 108 44.49zm-100.39-8.85-21.27-37.36 83.33-.83zm-4.23.65-105-3.94 83.62-33.53zm-212.17 86.82 37.58-81.62 54.51-5zm-6.75 5.1-34.36-33.1 72.51-49.74zm-2.58 3.07-85.42 54.53 50.94-87.75zm-96.56 141.53-42.87-23.11 45.92-52.21zm-1.32 3.81-52.1 56.28 9-79.47zm-58.87 157.87-22 18 23.71-95.77zm.55 4.72 22.48 141.28-46-122zm69.58 168.28-2.58 66.43-36-71.85zm44.21 85 36.53 63-75.2-70.41zm154.17 104.4-1.59 36.49-95.92-62.06zm3.94 1.56 49.78 23.34-51.36 12.64zm132.59 11.61 1.55 51.18-72.35-38zm114.34-30.57-29.34 69.3-77.6-40.47zm4.6-.6 89.24 24.83-118.53 44.34zm103.25-46.4 37.81 33.14-43 33.46zm102.64-71 43.59-8.35-95.59 99.58zm51.33-19.32-.3-49.27 40.17-24.61zm3.54-56.31 48.81-82.25-9 57.84zm62.24-177.62 5.69 60.47-12.9 17.87zm-29.64-151.5 11.15 10.49 11.15 81zm-56.53-92.39 10.49-5.28 30.34 68.94zm-73.42-48.26 18.42-26.44 45.09 67zm-2.86-2.89-48-66.4 66.47 39.92zm-108.2-69.49-.3-28.87 46.26 24zm-4-.78-105.72-43.56 105.41 13.92zm-209.13-48.67 16.83-14.48 55.84 13.71zm-91.92 34.57 32.73-35.34 45.26 4.08zm-8.41 3.25-49.56 4.53 81.37-38.89zm-136.34 57.11 5.48-12.3 45.48-22.67zm-59.66 96.41-3.31-32.17 49.47-47.36zm-3.44 5.66-41 46.64 37.8-78zm-61.16 145.78-26.19 4.89 34.59-78.77zm-.87 4.23-25.05 101.22-1.59-96.25zm22.15 252-29.77-24.59-14.26-92.12zm41.75 85.14-19-6.28-12.74-57.13zm81.29 78.59-63.19-34.51-10.14-34.19zm11.52 10.85 27.36 35-83.6-65.73zm10.23 6.64 87 56.28-56.92-17.84zm159.59 50.13 67.6 35.47-117.51-23.29zm81.13-13.48 75.68 39.35-74.13 11.79zm200.87-1.84-30.72 26.58-69.13 10.71zm56.78-39.84 2.56 16.58-39.7 12.3zm103-106.65-40.79 72.68-52 24zm11.39-12.13 27.36-50.66-29.18 69.47zm57.87-156.19 10.33-14.3-16.6 54.74zm9.9-108v-.09l-.15-1.06 1-13.56 1 35.11zm-2.75-20-10.25-75 12.8 42.58zm-30.7-117-18.86-42.86 26.39 49.94zm-56.86-88.51-37.66-56 48 50.78zm-125.82-121 2.52-1.82 29 20.73zm-3.8-2.19-19.57-10.19 21.76 8.56zm-165.26-42.84 36.69-7.56 55.21 19.69zm-12-1.62-50-12.31 83.76 5.35zm-94.64.92-39-3.51 54.52-9.87zm-137.5 34.91 22.33-16.76 35.94-11.08zm-18.3 8.75-19.37 9.64 29.73-17.45zm-81.13 55.77-22.94 22 26.23-29.34zm-107.44 155-10.16 3.81 39.62-64.53zm-13.29 9.2 11-4.09-27.79 63.36zm-27.37 164.42.58 35.27-2 6.41zm1.91 44.28 10 64.83-13.79-52.92zm52.36 134.11 12.89 57.86-41.14-81.17zm41.35 82.69 9 30.11-26.64-36zm199.83 155.32 3.73 6-39.1-17.05zm10 8.51-4.59-7.34 85.06 16.81zm208.41 7.2-9 10.15-46.69-1.3zm6.2-1 55.66-8.67-63.93 18.06zm128.61-48.19 32.64-10.12-57.56 31.68zm52.27-21.73-2.56-16.61 47.7-22zm103.32-124.14-2.23 22.32-31.37 37.53zm51.6-95.17 8.06-3.89-36.89 72.42zm10.73-9.63-9 4.37 18.19-60z" fill="#58c1ff" fill-opacity=".3"/><path d="m80 726.72c51.48 39.42 209.8 68.08 396.9 68.08s345.08-28.62 397-67.94" fill="none" stroke="#f9f9fa" stroke-linecap="round" stroke-miterlimit="10" stroke-width="6"/><path d="m770.28 91.82c-23.95 27.88-35.1 90.64-10.82 154.26s61.5 49.8 84.7 114.67c30.62 85.6 16.37 200.59 16.37 200.59s36.82 106.6 62.47-6.64c56.79-212.7-152.72-410.5-152.72-462.88z" fill="url(#a)"/><path d="m810.67 803.89a245.54 245.54 0 0 1 -30.12 18.18 702.48 702.48 0 0 0 38.3-63c9.46-10.47 18.15-20.65 25.15-31.65 3.44-5.41 7.31-12.08 11.42-19.82 24.92-44.9 52.4-117.56 53.18-192.2v-5.69a257.57 257.57 0 0 0 -5.67-55.71c.2 1.43.38 2.86.56 4.29-.22-1.1-.41-2.21-.64-3.31.37 2 .66 4 1 6 5.09 43.22 1.47 85.37-16.68 116.45-.29.45-.58.88-.87 1.32 9.41-47.23 12.56-99.39 2.09-151.6 0 0-4.19-25.38-35.38-102.44-18.01-44.35-49.83-80.71-78.01-107.21-24.69-30.55-47.11-51-59.47-64.06-25.82-27.19-36.64-47.57-41.09-60.87-3.85-1.93-53.14-49.81-57.05-51.63-21.51 33.35-89.16 137.67-57 235.15 14.58 44.17 51.47 90 90.07 115.74 1.69 1.94 23 25 33.09 77.16 10.45 53.85 5 95.86-16.54 158-25.28 54.51-90.01 108.39-150.71 113.9-129.67 11.78-177.15-65.11-177.15-65.11 46.34 18.52 97.57 14.65 128.72-4.56 31.4-19.43 50.39-33.83 65.81-28.15 15.2 5.65 27.3-10.76 16.44-27.77a78.52 78.52 0 0 0 -79.4-34.57c-31.43 5.11-60.23 30-101.41 5.89a82.13 82.13 0 0 1 -7.73-5.06c-2.71-1.79 8.83 2.72 6.13.69-8-4.35-22.2-13.84-25.88-17.22-.61-.56 6.22 2.18 5.61 1.62-38.51-31.71-33.7-53.13-32.49-66.57 1-10.75 8-24.52 19.75-30.11 5.69 3.11 9.24 5.48 9.24 5.48s-2.43-5-3.74-7.58c.46-.2.9-.15 1.36-.34 4.66 2.25 15 8.1 20.41 11.67 7.07 5 9.33 9.44 9.33 9.44s1.86-1 .48-5.37c-.5-1.78-2.65-7.45-9.65-13.17h.44a81.61 81.61 0 0 1 11.87 8.24c2-7.18 5.53-14.68 4.75-28.09-.48-9.43-.26-11.87-1.92-15.51-1.49-3.13.83-4.35 3.42-1.1a32.65 32.65 0 0 0 -2.21-7.4v-.24c3.23-11.24 68.25-40.46 73-43.88a67.2 67.2 0 0 0 19.13-20.8c3.62-5.76 6.34-13.85 7-26.11.36-8.84-3.76-14.73-69.51-21.62-18-1.77-28.53-14.8-34.53-26.82-1.09-2.59-2.21-4.94-3.33-7.28a57.31 57.31 0 0 1 -2.56-8.43c10.75-30.87 28.81-57 55.37-76.7 1.45-1.32-5.78.34-4.34-1 1.69-1.54 12.71-6 14.79-7 2.54-1.2-10.88-6.9-22.73-5.51-12.07 1.36-14.63 2.8-21.07 5.53 2.67-2.66 11.17-6.15 9.18-6.13-13 2-29.18 9.56-43 18.12a10.66 10.66 0 0 1 .83-4.35c-6.44 2.73-22.26 13.79-26.87 23.14a44.19 44.19 0 0 0 .27-5.4 84.57 84.57 0 0 0 -13.19 13.82l-.24.22c-37.36-15-70.23-16-98.05-9.28-6.09-6.11-9.06-1.64-22.91-32.07-.94-1.83.72 1.81 0 0-2.28-5.9 1.39 7.87 0 0-23.28 18.37-53.92 39.19-68.63 53.89-.18.59 17.16-4.9 0 0-6 1.72-5.6 5.28-6.51 37.5-.22 2.44 0 5.18-.22 7.38-11.75 15-19.75 27.64-22.78 34.21-15.19 26.18-31.93 67-48.15 131.55a334.2 334.2 0 0 1 25.77-50.36c-13.49 34.27-26.53 88.08-29.14 171a482.08 482.08 0 0 1 12.53-50.66 473 473 0 0 0 34.74 201.04c9.33 22.82 24.76 57.46 51 95.4 82.53 86.84 198.95 140.9 327.85 140.9 134.61-.03 255.46-58.91 338.49-152.41z" fill="url(#b)"/><path d="m810.67 803.89a245.54 245.54 0 0 1 -30.12 18.18 702.48 702.48 0 0 0 38.3-63c9.46-10.47 18.15-20.65 25.15-31.65 3.44-5.41 7.31-12.08 11.42-19.82 24.92-44.9 52.4-117.56 53.18-192.2v-5.69a257.57 257.57 0 0 0 -5.67-55.71c.2 1.43.38 2.86.56 4.29-.22-1.1-.41-2.21-.64-3.31.37 2 .66 4 1 6 5.09 43.22 1.47 85.37-16.68 116.45-.29.45-.58.88-.87 1.32 9.41-47.23 12.56-99.39 2.09-151.6 0 0-4.19-25.38-35.38-102.44-18.01-44.35-49.83-80.71-78.01-107.21-24.69-30.55-47.11-51-59.47-64.06-25.82-27.19-36.64-47.57-41.09-60.87-3.85-1.93-53.14-49.81-57.05-51.63-21.51 33.35-89.16 137.67-57 235.15 14.58 44.17 51.47 90 90.07 115.74 1.69 1.94 23 25 33.09 77.16 10.45 53.85 5 95.86-16.54 158-25.28 54.51-90.01 108.39-150.71 113.9-129.67 11.78-177.15-65.11-177.15-65.11 46.34 18.52 97.57 14.65 128.72-4.56 31.4-19.43 50.39-33.83 65.81-28.15 15.2 5.65 27.3-10.76 16.44-27.77a78.52 78.52 0 0 0 -79.4-34.57c-31.43 5.11-60.23 30-101.41 5.89a82.13 82.13 0 0 1 -7.73-5.06c-2.71-1.79 8.83 2.72 6.13.69-8-4.35-22.2-13.84-25.88-17.22-.61-.56 6.22 2.18 5.61 1.62-38.51-31.71-33.7-53.13-32.49-66.57 1-10.75 8-24.52 19.75-30.11 5.69 3.11 9.24 5.48 9.24 5.48s-2.43-5-3.74-7.58c.46-.2.9-.15 1.36-.34 4.66 2.25 15 8.1 20.41 11.67 7.07 5 9.33 9.44 9.33 9.44s1.86-1 .48-5.37c-.5-1.78-2.65-7.45-9.65-13.17h.44a81.61 81.61 0 0 1 11.87 8.24c2-7.18 5.53-14.68 4.75-28.09-.48-9.43-.26-11.87-1.92-15.51-1.49-3.13.83-4.35 3.42-1.1a32.65 32.65 0 0 0 -2.21-7.4v-.24c3.23-11.24 68.25-40.46 73-43.88a67.2 67.2 0 0 0 19.13-20.8c3.62-5.76 6.34-13.85 7-26.11.36-8.84-3.76-14.73-69.51-21.62-18-1.77-28.53-14.8-34.53-26.82-1.09-2.59-2.21-4.94-3.33-7.28a57.31 57.31 0 0 1 -2.56-8.43c10.75-30.87 28.81-57 55.37-76.7 1.45-1.32-5.78.34-4.34-1 1.69-1.54 12.71-6 14.79-7 2.54-1.2-10.88-6.9-22.73-5.51-12.07 1.36-14.63 2.8-21.07 5.53 2.67-2.66 11.17-6.15 9.18-6.13-13 2-29.18 9.56-43 18.12a10.66 10.66 0 0 1 .83-4.35c-6.44 2.73-22.26 13.79-26.87 23.14a44.19 44.19 0 0 0 .27-5.4 84.57 84.57 0 0 0 -13.19 13.82l-.24.22c-37.36-15-70.23-16-98.05-9.28-6.09-6.11-9.06-1.64-22.91-32.07-.94-1.83.72 1.81 0 0-2.28-5.9 1.39 7.87 0 0-23.28 18.37-53.92 39.19-68.63 53.89-.18.59 17.16-4.9 0 0-6 1.72-5.6 5.28-6.51 37.5-.22 2.44 0 5.18-.22 7.38-11.75 15-19.75 27.64-22.78 34.21-15.19 26.18-31.93 67-48.15 131.55a334.2 334.2 0 0 1 25.77-50.36c-13.49 34.27-26.53 88.08-29.14 171a482.08 482.08 0 0 1 12.53-50.66 473 473 0 0 0 34.74 201.04c9.33 22.82 24.76 57.46 51 95.4 82.53 86.84 198.95 140.9 327.85 140.9 134.61-.03 255.46-58.91 338.49-152.41z" fill="url(#c)"/><path d="m711.1 867c162.9-18.86 235-186.7 142.38-190-83.63-2.7-219.48 198.87-142.38 190z" fill="url(#d)"/><path d="m865.21 642.68c112.05-65.21 82.79-206.08 82.79-206.08s-43.25 50.24-72.62 130.32c-28.98 79.3-77.54 115.15-10.17 75.76z" fill="url(#e)"/><path d="m509.47 950.32c156.23 49.85 290.53-73.22 207.74-114.32-75.21-37.07-281.89 90.75-207.74 114.32z" fill="url(#f)"/><path d="m638.58 21.68.53-.57a1.8 1.8 0 0 0 -.53.57zm238.27 680.81c3.8-5.36 8.94-22.53 13.48-30.21 27.58-44.52 27.78-80 27.78-80.84 16.66-83.22 15.15-117.2 4.9-180-8.25-50.6-44.32-123.09-75.57-158-32.2-36-9.51-24.25-40.69-50.52-27.33-30.29-53.82-60.29-68.25-72.36-104.28-87.21-101.93-105.72-99.92-108.88-.34.37-.84.92-1.47 1.64-1.23-4.92-2.11-9.06-2.11-9.06s-57 57-69 152c-7.83 62 15.38 126.68 49 168a381.17 381.17 0 0 0 59 58c25.4 36.48 39.38 81.49 39.38 129.91 0 121.24-98.34 219.53-219.65 219.53a220.14 220.14 0 0 1 -49.13-5.52c-57.24-10.91-90.29-39.78-106.77-59.38-9.45-11.23-13.46-19.42-13.46-19.42 51.28 18.37 108 14.53 142.47-4.52 34.75-19.26 55.77-33.55 72.84-27.92 16.82 5.61 30.21-10.67 18.2-27.54-11.77-16.85-42.4-41-87.88-34.29-34.79 5.07-66.66 29.76-112.24 5.84a92.59 92.59 0 0 1 -8.55-5c-3-1.77 9.77 2.69 6.79.68-8.87-4.32-24.57-13.73-28.64-17.07-.68-.56 6.88 2.16 6.2 1.6-42.62-31.45-37.3-52.69-36-66 1.07-10.66 8.81-24.32 21.86-29.86 6.3 3.08 10.23 5.43 10.23 5.43s-2.69-4.92-4.14-7.51c.51-.19 1-.15 1.5-.34 5.16 2.23 16.58 8 22.59 11.57 7.83 4.95 10.32 9.36 10.32 9.36s2.06-1 .54-5.33c-.56-1.77-2.93-7.39-10.68-13.07h.48a91.65 91.65 0 0 1 13.13 8.17c2.19-7.12 6.12-14.56 5.25-27.86-.53-9.35-.28-11.78-2.12-15.39-1.65-3.1.92-4.31 3.78-1.09a29.87 29.87 0 0 0 -2.44-7.34v-.24c3.57-11.14 75.53-40.12 80.77-43.51a70.12 70.12 0 0 0 21.17-20.63c4-5.72 7-13.73 7.75-25.89.25-5.48-1.44-9.82-20.5-14-11.44-2.49-29.14-4.91-56.43-7.47-19.9-1.76-31.58-14.68-38.21-26.6-1.21-2.57-2.45-4.9-3.68-7.22a53.41 53.41 0 0 1 -2.83-8.34 158.47 158.47 0 0 1 61.28-76.06c1.6-1.31-6.4.33-4.8-1 1.87-1.52 14.06-5.93 16.37-6.92 2.81-1.19-12-6.84-25.16-5.47-13.36 1.35-16.19 2.78-23.32 5.49 3-2.64 12.37-6.1 10.16-6.08-14.4 2-32.3 9.48-47.6 18a9.75 9.75 0 0 1 .92-4.31c-7.13 2.71-24.64 13.67-29.73 23a39.79 39.79 0 0 0 .29-5.35 89 89 0 0 0 -14.6 13.7l-.27.22c-41.3-14.95-77.69-15.91-108.44-9.2-6.74-6.06-17.57-15.23-32.89-45.4-1-1.82-1.6 3.75-2.4 2-6-13.81-9.55-36.44-9-52 0 0-12.32 5.61-22.51 29.06-1.89 4.21-3.11 6.54-4.32 8.87-.56.68 1.27-7.7 1-7.24-1.77 3-6.36 7.19-8.37 12.62-1.38 4-3.32 6.27-4.56 11.29l-.29.46c-.1-1.48.37-6.08 0-5.14a237 237 0 0 0 -12.31 29.84c-5.49 18-11.88 42.61-12.89 74.57-.24 2.42 0 5.14-.25 7.32-13.01 14.73-21.87 27.27-25.21 33.79-16.82 25.94-35.34 66.43-53.29 130.46a319.8 319.8 0 0 1 28.54-50c-14.93 33.99-29.36 87.36-32.25 169.53a437.48 437.48 0 0 1 13.87-50.24c-2.58 54.8 3.81 122.74 38.45 199.39 20.57 45.09 67.92 136.65 183.62 208.1s39.36 29.3 107 51.26c5 1.81 10.06 3.6 15.23 5.33q-2.43-1-4.71-2a484.42 484.42 0 0 0 138.8 20.4c175.18.15 226.85-70.2 226.85-70.2l-.51.38q3.71-3.48 7.14-7.26c-27.63 26.12-90.74 27.84-114.29 26 40.22-11.81 66.69-21.81 118.17-41.52q9-3.36 18.48-7.64l2-.94c1.25-.58 2.49-1.13 3.75-1.74a348.86 348.86 0 0 0 70.26-44c51.7-41.3 63-81.56 68.83-108.1-.82 2.54-3.37 8.47-5.17 12.32-13.31 28.48-42.84 46-74.91 61a689.46 689.46 0 0 0 42.44-62.59c10.47-10.35 13.7-26.59 21.55-37.51z" fill="url(#g)"/><path d="m813.92 801.24c21.08-23.24 40-49.82 54.35-80 36.9-77.58 94-206.58 49-341.31-35.5-106.45-84.27-164.68-146.16-221.55-100.55-92.38-128.63-133.6-128.63-158.12 0 0-116.09 129.41-65.74 264.38s153.46 130 221.68 270.87c80.27 165.74-64.95 346.61-185 397.24 7.35-1.63 267-60.38 280.61-208.88-.35 2.73-6.2 43.8-80.11 77.37z" fill="url(#h)"/><path d="m477.59 319.63c.39-8.77-4.16-14.66-76.68-21.46-29.84-2.76-41.26-30.33-44.75-41.94-10.61 27.56-15 56.49-12.64 91.48 1.61 22.92 17 47.52 24.37 62 0 0 1.64-2.13 2.39-2.91 13.86-14.43 71.94-36.42 77.39-39.54 6.02-3.84 28.91-20.57 29.92-47.63z" fill="url(#i)"/><path d="m477.59 319.63c.39-8.77-4.16-14.66-76.68-21.46-29.84-2.76-41.26-30.33-44.75-41.94-10.61 27.56-15 56.49-12.64 91.48 1.61 22.92 17 47.52 24.37 62 0 0 1.64-2.13 2.39-2.91 13.86-14.43 71.94-36.42 77.39-39.54 6.02-3.84 28.91-20.57 29.92-47.63z" fill="url(#j)"/><path d="m158.31 156.73c-1-1.82-1.6 3.75-2.4 2-6-13.81-9.58-36.2-8.72-52 0 0-12.32 5.61-22.51 29.06-1.89 4.21-3.11 6.54-4.32 8.86-.56.68 1.27-7.7 1-7.24-1.77 3-6.36 7.19-8.35 12.38-1.65 4.24-3.35 6.52-4.61 11.77-.39 1.43.39-6.32 0-5.38-23.68 45.76-28.21 115.05-25.71 112.12 50.48-53.9 108.31-66.68 108.31-66.68-6.15-4.53-19.53-17.63-32.7-44.89z" fill="url(#k)"/><path d="m349.84 720.36c-69.72-29.77-149-71.75-146-167.14 4.08-125.62 117.16-100.79 117.16-100.79-4.27 1-15.68 9.16-19.72 17.82-4.27 10.83-12.07 35.28 11.55 60.9 37.09 40.19-76.2 95.36 98.66 199.57 4.41 2.4-41-1.43-61.64-10.36z" fill="url(#l)"/><path d="m325.07 657.76c49.44 17.21 107 14.19 141.52-4.86 23.09-12.85 52.7-33.43 70.92-28.35-15.78-6.24-27.73-9.15-42.1-9.86-2.45 0-5.38-.05-8-.32a138.21 138.21 0 0 0 -15.76.86c-8.9.82-18.77 6.43-27.74 5.53-.48 0 8.7-3.77 8-3.61-4.75 1-9.92 1.21-15.37 1.88-3.47.39-6.45.82-9.89 1-103 8.73-190-55.81-190-55.81-7.41 25 33.17 74.3 88.52 93.57z" fill="url(#m)"/><path d="m813.74 801.9c104.16-102.27 156.86-226.58 134.58-366 0 0 8.9 71.5-24.85 144.63 16.21-71.39 18.1-160.11-25-252-57.47-122.64-152.02-187.16-188.12-214.08-54.69-40.79-77.35-82.32-77.78-90.9-16.34 33.48-65.77 148.2-5.31 247 56.64 92.56 145.86 120 208.33 205 115.08 156.37-21.85 326.35-21.85 326.35z" fill="url(#n)"/><path d="m798.81 535.81c-36.4-75.2-81.84-108-124.81-143.55 5 7 6.23 9.47 9 14 37.83 40.32 93.61 138.66 53.11 262.11-76.23 232.37-381.11 122.94-413.11 92.21 12.93 134.49 238 198.84 384.6 111.63 83.4-78.95 150.87-213.21 91.21-336.4z" fill="url(#o)"/><path d="m814.12 686.64.94-4.85c.32-1.75.75-3.6 1-5.61.61-4 1.38-8.47 1.87-13.43a237.9 237.9 0 0 0 1.48-35 223.29 223.29 0 0 0 -5.81-43.75 232.05 232.05 0 0 0 -17.42-48.75 336.56 336.56 0 0 0 -29.59-49.81c-5.8-8.24-12.31-16.18-19.09-24.06s-14.23-15.38-21.92-22.79-15.83-14.59-24.14-21.59-16.85-14-25.36-21-17-14.14-25.3-21.61-16.23-15.28-23.73-23.51a243.77 243.77 0 0 1 -20.75-26l-2.3-3.42c-.79-1.13-1.57-2.27-2.28-3.45l-4.37-7c-1.44-2.34-2.72-4.77-4.08-7.14l-2-3.57c-.66-1.2-1.24-2.43-1.86-3.64l-3.67-7.29c-1.14-2.46-2.22-4.94-3.34-7.4-2.31-4.88-4.12-9.94-6.13-14.88l-.74-1.86-.64-1.9-1.27-3.79c-.83-2.52-1.71-5-2.49-7.54l-2-7.63-1-3.8c-.36-1.26-.53-2.55-.8-3.82a212.28 212.28 0 0 1 -3.8-59.83 261.53 261.53 0 0 1 10.19-53.46 310.75 310.75 0 0 1 17-44.06 373.62 373.62 0 0 1 18.17-33.81 366.73 366.73 0 0 1 24.69-36c2.56-3.27 5.11-6.43 7.66-9.35a1 1 0 0 1 1.31 0 1 1 0 0 1 .17 1.29c-2.42 2.81-5 6-7.55 9.3a376 376 0 0 0 -43 70.76 309.24 309.24 0 0 0 -16.54 43.94 256.66 256.66 0 0 0 -9.66 53 213.15 213.15 0 0 0 4.27 58.87c.13.63.24 1.26.38 1.88l.49 1.86 1 3.73c.68 2.48 1.28 5 2 7.48l2.49 7.4 1.25 3.72c.41 1.24 1 2.45 1.42 3.67l2.94 7.35.74 1.84.82 1.81 1.64 3.63 1.64 3.64c.55 1.21 1.08 2.44 1.7 3.62l3.63 7.16a247.86 247.86 0 0 0 37.41 53.14c7.43 8.06 15.32 15.72 23.5 23.07s16.66 14.36 25.13 21.33 17 13.82 25.32 20.84 16.44 14.16 24.23 21.51 15.15 15 22.09 22.84a287.17 287.17 0 0 1 19.3 24.16 341.24 341.24 0 0 1 30 50.05l.79 1.55.72 1.58 1.44 3.14c.94 2.09 1.93 4.15 2.81 6.23l2.51 6.25 1.17 3.12c.39 1 .73 2.08 1.1 3.12l2.15 6.17c.37 1 .68 2 1 3.07l.91 3.07c.59 2 1.23 4 1.77 6.06l1.48 6a227.32 227.32 0 0 1 6.11 44.51 241.84 241.84 0 0 1 -1.32 35.8c-1.06 10.17-2.69 18.44-3.92 24.66a282.32 282.32 0 0 1 -9.88 35.23 298.31 298.31 0 0 1 -12.74 30.91c-4.59 9.51-9.21 18.33-14 26.26l-1.73 3-1.73 2.86-3.45 5.54c-2.34 3.55-4.57 7-6.77 10.15-4.42 6.36-8.57 12-12.3 16.73l-5.27 6.59-4.57 5.37-2 2.26-1.76 1.93q-1.64 1.8-2.79 3c-1.52 1.59-2.37 2.37-2.47 2.28s.57-1.07 1.94-2.88 3.49-4.39 6.08-7.84c5.29-6.85 12.79-16.85 21.36-29.85 2.08-3.28 4.3-6.7 6.51-10.34s4.5-7.43 6.7-11.46q6.82-12 13.38-26.17c1.06-2.37 2.2-4.74 3.23-7.2l3.12-7.46c2-5.08 4-10.27 5.8-15.67a292.34 292.34 0 0 0 9.38-34.06z" fill="url(#p)"/><path d="m739.36 650c.52-2.06 1.32-4.8 2-8.22s1.74-7.41 2.49-12c.4-2.29.87-4.71 1.29-7.26l1.11-8 .29-2.11.22-2.16.44-4.45c.14-1.51.32-3 .43-4.59l.28-4.75a262.14 262.14 0 0 0 -.93-41.93l-.27-2.79-.37-2.79-.75-5.61c-.23-1.88-.61-3.74-.92-5.63s-.61-3.77-1-5.65l-1.17-5.64c-.2-.94-.38-1.89-.6-2.82l-.68-2.81-1.37-5.61-1.55-5.56a272.56 272.56 0 0 0 -15.87-42.08 267.22 267.22 0 0 0 -19.66-34.4c-3.27-4.92-6.59-9.3-9.61-13.26s-6-7.34-8.54-10.2l-1.86-2.06-.45-.5a1.5 1.5 0 0 1 -.3-.4l-.18-.29-.64-1.08-2.19-3.78c-1.32-2.18-2.34-3.71-2.92-4.59-.8-1.19-1.6-2.35-2.36-3.45a1 1 0 0 1 .3-1.27.94.94 0 0 1 1.3.14c.77 1.07 1.59 2.24 2.43 3.46.65 1 1.75 2.59 3.14 4.85l2.31 3.82.64 1a.24.24 0 0 0 .09.11l.22.24.46.5 1.92 2.1a222.87 222.87 0 0 1 18.55 23.67 269.68 269.68 0 0 1 20 34.53 274 274 0 0 1 16.24 42.32l1.6 5.59 1.42 5.64.71 2.82.62 2.84 1.22 5.67c.39 1.89.69 3.79 1 5.68s.72 3.77 1 5.66l.8 5.65.39 2.81.29 2.81a264.72 264.72 0 0 1 1.26 42.32 258 258 0 0 1 -3.87 33.84c-.76 4.67-1.76 8.67-2.47 12.2s-1.51 6.33-2.06 8.47l-1.66 6.3-1.86 6-1.8 5.72c-.63 1.85-1.27 3.64-1.9 5.38-2.54 6.94-5.14 13-7.49 17.84-4.71 9.79-8.32 15.14-8.77 14.89s2.33-6.26 6.35-16.34c2-5 4.28-11.11 6.57-18 .57-1.72 1.15-3.49 1.71-5.31l1.66-5.6 1.74-5.82z" fill="url(#q)"/><path d="m716.89 368.69c-2.35-1.89-5.54-4.37-9.35-7.54l-6.23-5.15c-2.24-1.86-4.58-3.92-7.09-6.07a404.29 404.29 0 0 1 -34.4-33.24 292.74 292.74 0 0 1 -35.56-48c-1.31-2.31-2.66-4.62-4-7l-3.62-7.22-.91-1.81c-.29-.61-.55-1.24-.82-1.86l-1.63-3.74-1.63-3.75c-.51-1.26-1-2.55-1.45-3.83l-1.44-3.84c-.49-1.28-1-2.56-1.36-3.88l-2.4-7.76-2.1-8c-.37-1.32-.66-2.66-.94-4l-.85-4a223.53 223.53 0 0 1 -4.1-32.31 249.74 249.74 0 0 1 .42-31.43 279.77 279.77 0 0 1 3.68-29.26c1.69-9.27 3.71-18 5.86-26.11a361.71 361.71 0 0 1 13.28-39.89c4.07-10.17 7.26-17 8.51-19.69.86-1.85 1.72-3.65 2.56-5.35a1 1 0 0 1 1.25-.35 1 1 0 0 1 .51 1.2c-.79 1.65-1.65 3.47-2.51 5.34-1.35 2.85-4.57 9.85-8.57 20.09a363.43 363.43 0 0 0 -13 39.91 298 298 0 0 0 -9 54.85 250.51 250.51 0 0 0 -.18 31 222.27 222.27 0 0 0 4.27 31.68l.86 3.94.43 2 .52 1.95 2.11 7.79 2.48 7.67c.38 1.29.88 2.53 1.36 3.79l1.43 3.75c.49 1.25.93 2.51 1.45 3.74l1.62 3.66 1.61 3.65c.27.6.52 1.22.82 1.81l.9 1.77 3.58 7 3.91 6.79a290.31 290.31 0 0 0 35.21 47 402 402 0 0 0 34.17 32.77c2.51 2.13 4.85 4.18 7.09 6l6.26 5.13c3.82 3.17 7.07 5.68 9.47 7.62l26.81 21.21c8.08 6.44 15.15 12.25 20.91 17.2l7.67 6.72c2.2 2 4 3.78 5.55 5.22 3 2.89 4.51 4.56 4.33 4.76s-2.1-1.14-5.47-3.73l-14.17-11.06-21.46-16.5c-8.19-6.24-17.22-13.12-26.65-20.64z" fill="url(#r)"/><path d="m925.73 401.72c-.5-1.87-1-4.07-1.73-6.54s-1.49-5.25-2.42-8.28l-1.51-4.73c-.52-1.65-1.07-3.36-1.71-5.1l-4-11.24-2.17-6.14-2.5-6.4-2.62-6.71c-.92-2.28-1.75-4.64-2.8-7l-6.27-14.58c-2.29-5-4.76-10.1-7.25-15.38l-.94-2-1-2-2.06-4-4.19-8.06c-.69-1.37-1.45-2.71-2.22-4.05l-2.34-4-4.68-8.24-5.08-8.21-2.57-4.15c-.43-.69-.85-1.4-1.3-2.08l-1.38-2c-3.7-5.45-7.31-11.08-11.36-16.47-2-2.72-4-5.49-6-8.21l-6.3-8.15c-1.06-1.35-2.1-2.72-3.19-4.05l-3.32-4-6.69-8-7-7.79c-1.17-1.29-2.3-2.62-3.5-3.88l-3.59-3.8c-2.4-2.53-4.77-5.09-7.2-7.59l-7.37-7.42c-2.43-2.49-4.95-4.89-7.45-7.3s-5-4.83-7.5-7.19l-15.09-14c-10-9.2-19.77-18.32-29.12-27.29-18.7-17.93-35.79-35.19-50-51s-25.56-30.19-32.86-42a104.24 104.24 0 0 1 -8-15.28 54.94 54.94 0 0 1 -3-9.2 36.36 36.36 0 0 1 -1-7.28 1 1 0 0 0 -1-.84.91.91 0 0 0 -1 .85v.06a37.31 37.31 0 0 0 1 7.67 57.38 57.38 0 0 0 3.22 9.94 107.1 107.1 0 0 0 8.33 15.83 230.52 230.52 0 0 0 14 19.82c5.57 7.13 12 14.72 19.12 22.68 14.24 15.91 31.27 33.23 49.86 51.19 9.29 9 19 18.12 28.92 27.33l14.93 14 7.39 7.17c2.47 2.39 4.94 4.79 7.34 7.27l7.26 7.38 7.09 7.55 3.54 3.78c1.16 1.27 2.29 2.58 3.44 3.86l6.83 7.73 6.57 7.89 3.27 3.93c1.07 1.33 2.09 2.68 3.14 4l6.21 8c2 2.7 3.94 5.44 5.9 8.14 4 5.34 7.52 10.92 11.16 16.31 1.85 2.67 3.46 5.48 5.15 8.2l5 8.13 4.6 8.16c1.49 2.71 3.07 5.33 4.45 8l4.11 8 2 3.92c.68 1.3 1.34 2.59 1.93 3.9a545.2 545.2 0 0 1 23.28 55.87l4.02 11.35.9 2.58.79 2.5 1.5 4.72c.93 3 1.68 5.8 2.41 8.28s1.23 4.7 1.74 6.6l.73 2.83.65 2.83 1.29 5.58c.73 3.71 1.57 7.32 2.16 10.9l1 5.29.8 5.19c.57 3.41.93 6.76 1.38 10 1.6 13 2.24 24.61 2.54 34.24.52 19.29-.2 30.75.45 30.8.25 0 .71-2.93 1.26-8.34s1-13.29 1.09-23.12a307.49 307.49 0 0 0 -9.47-77.16z" fill="url(#s)"/><path d="m577.29 723c1.42-.52 3-1.31 4.85-2.12l6.14-2.78 7.21-3.68 2-1 2-1.14 4.19-2.4c2.91-1.58 5.82-3.54 8.93-5.5s6.22-4.24 9.51-6.53c1.66-1.13 3.26-2.4 4.9-3.69l5-3.91 5-4.28c1.68-1.45 3.42-2.9 5-4.51l5-4.78c1.69-1.63 3.29-3.39 5-5.11l2.51-2.62c.84-.88 1.61-1.83 2.43-2.74l4.88-5.61a242.24 242.24 0 0 0 18-25.16 239.39 239.39 0 0 0 14.82-28.69 234.94 234.94 0 0 0 10.5-31.1 232.14 232.14 0 0 0 5.68-32.06c.41-5.35.94-10.64 1-15.9.23-5.25.11-10.45 0-15.57a236.67 236.67 0 0 0 -2.93-29.45c-.69-4.68-1.68-9.19-2.58-13.59l-1.55-6.44c-.48-2.12-1.14-4.16-1.69-6.19l-.85-3c-.29-1-.62-2-.93-2.93l-1.83-5.67-2-5.37-1-2.59-1-2.49-2-4.8c-.67-1.54-1.37-3-2-4.46s-1.27-2.85-1.93-4.17l-1.93-3.83a211.15 211.15 0 0 0 -10.73-18.7l-3.29-5a1 1 0 0 1 .15-1.11l.43-.16h-.49l.45-.16a.93.93 0 0 1 1.06.28l3.36 5a212.54 212.54 0 0 1 11.2 19.34 218.69 218.69 0 0 1 15.71 39.84c1.24 4.07 2.22 8.36 3.31 12.75l1.4 6.74c.25 1.14.46 2.29.65 3.45l.59 3.51a248.2 248.2 0 0 1 3.05 29.66l.18 7.79v3.94l-.09 4c0 5.3-.55 10.65-.91 16a219.8 219.8 0 0 1 -49 118.39l-4.91 5.71c-.82.93-1.6 1.89-2.44 2.79l-2.53 2.66c-1.69 1.75-3.31 3.53-5 5.21l-5 4.93c-.85.79-1.65 1.62-2.51 2.37l-2.57 2.24-5 4.37-5.07 4c-1.67 1.3-3.27 2.63-5 3.78l-4.88 3.48c-.8.56-1.58 1.14-2.37 1.68l-2.37 1.57c-3.17 2-6.11 4-9.08 5.66l-4.27 2.46-2 1.17c-.67.37-1.36.71-2 1.05l-7.39 3.79c-2.3 1.09-4.43 2-6.32 2.89s-3.55 1.67-5 2.21a205.44 205.44 0 0 1 -33.27 10.63c-2.58.56-5.07 1.13-7.5 1.63l-7.17 1.17-3.35.54-3.24.36-6.06.64c-1.92.24-3.76.29-5.49.38l-4.87.22c-3 .18-5.62 0-7.73 0-4.22-.13-6.5-.34-6.5-.62s2.36-.57 6.64-.92c2.14-.18 4.76-.3 7.8-.7l4.87-.53 2.66-.28c.91-.1 1.84-.27 2.8-.41 3.81-.62 8-1.07 12.49-2l6.94-1.36 7.31-1.78a231.31 231.31 0 0 0 32.02-10.69z" fill="url(#t)"/><path d="m351.94 263c1-2.74 2.18-6 3.6-9.69s3.21-7.86 5.47-12.36a162.23 162.23 0 0 1 19.1-30.7 152.53 152.53 0 0 1 34.89-32.47c1.84-1.25 3.77-2.43 5.74-3.6l1.49-.86.54-.31.19-.1.32-.17h.09c.12 0 0 0-.06-.07h-.1l-.42-.09q-3.41-.72-6.93-1.23a126.12 126.12 0 0 0 -29.7-.78 112.84 112.84 0 0 0 -26.45 5.73 102 102 0 0 0 -13.72 6c-4.56 2.42-9.26 5.06-14 7.77s-9.53 5.59-14.28 8.68c-1.2.76-2.38 1.55-3.56 2.35s-2.36 1.61-3.52 2.45a76.69 76.69 0 0 0 -6.73 5.32c-.5.48-1 1-1.48 1.46l-.35.37-.39.47c-.09.15-.25.22-.3.42h-.17-.09l-.19.1-.69.37a3 3 0 0 1 -.64.26c-.27.07-.56.33-.86.12l-1.51-.56-2.09-.74c-2.8-1-5.65-1.88-8.52-2.77q-8.62-2.68-17.62-4.73l-.79-.18-.85-.2a190.45 190.45 0 0 0 -29.58-4.16 132 132 0 0 0 -30.22 2.23c-5 .87-10 2-15 3.22s-9.91 2.68-14.8 4.23a239.93 239.93 0 0 0 -28.58 11.22 209.57 209.57 0 0 0 -50.18 32.6 177.19 177.19 0 0 0 -19.89 20.65c-1.53 1.77-2.89 3.67-4.3 5.51s-2.71 3.75-4 5.63l-3.92 5.61c-1.28 1.87-2.6 3.69-3.75 5.61l-7 11.19-6.34 11.09c-1.07 1.8-2 3.64-3 5.46l-2.8 5.43c-.92 1.79-1.88 3.53-2.74 5.3l-2.54 5.26c-3.43 6.89-6.32 13.63-9.14 20-2.65 6.39-5.18 12.39-7.29 18.05s-4 10.9-5.76 15.66-3.11 9.09-4.27 12.91l-1.66 5.29-1.32 4.46c-.81 2.68-1.38 4.79-1.79 6.25-1 3.42-1.84 6.8-2.62 10a1 1 0 0 1 -1.15.61.92.92 0 0 1 -.72-1.09c.76-3.15 1.62-6.58 2.6-10.08.43-1.6 1-3.84 1.88-6.64l1.36-4.63 1.69-5.44c.59-2 1.27-4 2-6.22s1.48-4.52 2.33-6.95c1.73-4.84 3.57-10.18 5.8-15.87s4.64-11.8 7.34-18.24l4.35-9.84c.73-1.69 1.52-3.38 2.35-5.08l2.48-5.17 2.49-5.32 2.77-5.32 2.82-5.43c.48-.91.94-1.84 1.45-2.75l1.55-2.73c2.09-3.65 4.15-7.4 6.37-11.14l7-11.26c.58-1 1.22-1.89 1.86-2.82l1.92-2.81 3.89-5.67 2-2.86 2.11-2.8 2.13-2.81c.72-.93 1.49-1.83 2.24-2.75a181 181 0 0 1 20.13-20.85 204.59 204.59 0 0 1 23.81-18 230.67 230.67 0 0 1 26.75-14.8 240 240 0 0 1 58.82-18.93c5.09-.9 10.2-1.62 15.34-2.05 1.28-.11 2.57-.21 3.86-.27s2.58-.12 3.87-.14c2.58 0 5.14.08 7.7.13a194.48 194.48 0 0 1 30 4.12l.86.2.81.18q9.07 2 17.83 4.67c2.91.89 5.79 1.8 8.64 2.78l2.13.75.62.22c.11 0 .13.06.18 0l.1-.14.28-.34.41-.44c.54-.61 1.11-1.11 1.67-1.66a78.53 78.53 0 0 1 7-5.58c1.19-.86 2.38-1.71 3.59-2.51s2.4-1.63 3.61-2.4c4.81-3.15 9.64-6 14.39-8.81s9.43-5.39 14.09-7.89a104.82 104.82 0 0 1 14.19-6.25 116.45 116.45 0 0 1 27.36-6 129.84 129.84 0 0 1 30.39.7q3.62.51 7.13 1.23c.35.07 1.77.37 2.79.62s2.17.53 3.13.83l2.93.87 1.45.44.3.1h.16-.1l-.85.38-3.37 1.53-.84.38c-.28.13-.57.26-.77.37l-1.33.7-1.33.69-.66.35-.32.17-.18.1-1.43.83c-1 .54-1.88 1.13-2.81 1.7s-1.84 1.16-2.73 1.76a148.58 148.58 0 0 0 -33.92 31.52 159.38 159.38 0 0 0 -18.71 30c-2.22 4.44-3.86 8.6-5.41 12.24s-2.62 6.94-3.6 9.7a232.16 232.16 0 0 0 -8.08 30 198.75 198.75 0 0 0 -3.66 28.22 127.54 127.54 0 0 0 .92 25.09l.47 2.85c.15.94.3 1.87.54 2.79.44 1.83.8 3.64 1.32 5.37s.92 3.45 1.46 5.1 1 3.27 1.55 4.83a274.52 274.52 0 0 0 11.74 28.76c3.09 6.56 4.88 10.07 4.63 10.22s-2.53-3.27-6.14-9.81a212.22 212.22 0 0 1 -13.21-29c-1.15-3.19-2.27-6.57-3.3-10.15-.52-1.79-1-3.65-1.44-5.52s-.73-3.87-1.11-5.87a131.29 131.29 0 0 1 -1.09-25.76 189.56 189.56 0 0 1 3.59-28.37 227.44 227.44 0 0 1 8.01-29.8z" fill="url(#u)"/><path d="m915.07 657.63 2.85-6.3 4-9.2 4.75-11.72 2.52-6.71c.86-2.32 1.8-4.7 2.62-7.19 1.7-5 3.56-10.18 5.18-15.68.82-2.75 1.77-5.52 2.53-8.38l2.36-8.69c.85-2.92 1.46-5.92 2.17-8.93l1-4.53c.36-1.51.71-3 1-4.57l1.74-9.24.43-2.32.34-2.33.69-4.66c1-6.19 1.55-12.42 2.24-18.53.44-6.13 1-12.15 1.12-18 .46-11.7.34-22.7-.22-32.32a283.63 283.63 0 0 0 -4.08-36.28c-.21-1.15-.43-2.28-.65-3.34a1 1 0 0 1 .77-1 .92.92 0 0 1 1.14.63c.23 1 .48 2.2.7 3.38a287 287 0 0 1 4.51 36.94c.13 2.42.32 4.92.4 7.5l.24 8c0 5.44.12 11.14-.13 17-.09 5.88-.58 11.93-1 18.08-.64 6.13-1.12 12.39-2.08 18.62l-.64 4.68-.32 2.34-.42 2.33-1.66 9.3c-.25 1.55-.6 3.08-.94 4.6l-1 4.56c-.69 3-1.28 6.05-2.1 9l-2.29 8.75c-.36 1.45-.79 2.86-1.21 4.26l-1.25 4.18-1.23 4.1-.61 2-.66 2-2.57 7.7a445.76 445.76 0 0 1 -16.62 41.7c-11.91 26.19-23.65 43.64-24.6 43s9.51-19.44 20.98-44.73z" fill="#fff" opacity=".25"/><path d="m779.41 865.32c5-3 16.85-10 31.16-20.3l5.49-4 5.63-4.28 2.9-2.2 2.88-2.32 5.87-4.75 5.84-5c2-1.69 4-3.39 5.82-5.18s3.73-3.64 5.59-5.48 3.59-3.81 5.27-5.82a140 140 0 0 0 9.53-12.29 147.13 147.13 0 0 0 8-12.74 169.73 169.73 0 0 0 11.32-24.49 158.72 158.72 0 0 0 7.92-29.47c.15-1 .3-1.91.41-2.81a1 1 0 0 1 1.07-.74.92.92 0 0 1 .87 1c-.1.9-.23 1.88-.38 2.88a161.08 161.08 0 0 1 -7.79 30.28 171.81 171.81 0 0 1 -11.21 24.91 151.5 151.5 0 0 1 -8 13 143.71 143.71 0 0 1 -9.54 12.57c-1.68 2.06-3.51 4-5.29 6a78.84 78.84 0 0 1 -5.63 5.64c-1.95 1.79-3.87 3.58-5.82 5.3l-5.81 5.12-5.84 4.85-2.86 2.37-2.89 2.24-5.62 4.39c-1.85 1.4-3.7 2.72-5.48 4-14.29 10.46-26.22 17.71-31.39 20.8-20.72 12.39-37.24 18.66-37.67 17.61-.2-.47 3.73-2.72 10.19-6.37s15.48-8.77 25.46-14.72z" fill="#fff" opacity=".25"/><path d="m518.09 981.82 6.73-.27 9.74-.6c7.4-.51 16.5-1.28 26.66-2.52 1.27-.15 2.56-.27 3.86-.46l3.94-.57 8.15-1.18c2.77-.39 5.56-1 8.4-1.46s5.73-1 8.63-1.6l8.75-1.93 4.43-1c1.47-.35 2.93-.77 4.41-1.16l8.85-2.37c.74-.2 1.48-.38 2.21-.61l2.18-.7 4.36-1.41c2.9-1 5.82-1.82 8.68-2.85l8.49-3.14 4.19-1.56 4.1-1.67 8-3.29a270.77 270.77 0 0 0 28.13-14 118.17 118.17 0 0 0 19.1-13.55 49.59 49.59 0 0 0 8-8.69c.3-.46.61-.92.89-1.37a10.55 10.55 0 0 0 .72-1.36 1.05 1.05 0 0 1 1.22-.39c.55.15.71.64.56 1.2a8.18 8.18 0 0 1 -.78 1.53 11.59 11.59 0 0 1 -1 1.51 52.49 52.49 0 0 1 -8.44 9.36 124.32 124.32 0 0 1 -19.42 14 279.54 279.54 0 0 1 -28.23 14.4l-8 3.37-4.09 1.72-4.19 1.6-8.45 3.2c-2.86 1-5.79 2-8.7 2.94l-4.38 1.46-2.19.73-2.22.63-8.87 2.47c-1.48.4-2.94.84-4.42 1.2l-4.43 1-8.77 2c-2.9.63-5.8 1.13-8.65 1.68s-5.65 1.13-8.42 1.55l-8.16 1.34c-2.67.42-5.28.83-7.83 1.11-10.2 1.33-19.35 2.18-26.82 2.76l-9.87.67-6.89.3c-28 1.17-48.35-1.16-48.24-2.29s21.05-.55 48.08-1.73z" fill="#fff" opacity=".25"/><path d="m155.86 160.77-1.92-3.17c-.67-1.32-1.53-2.79-2.33-4.54a76.5 76.5 0 0 1 -4.61-13.42 117.38 117.38 0 0 1 -3-19.64q-.21-2.84-.31-5.89v-2.17l-.09.09-.09.1-.45.5c-1.5 1.68-3 3.43-4.56 5.24-4.08 4.77-8.43 10.15-12.83 16s-8.84 12.16-13 18.82c-2.14 3.3-4.08 6.77-6.06 10.21l-2.78 5.28c-.48.87-.9 1.77-1.31 2.67l-1.25 2.7a150.27 150.27 0 0 0 -8 21.95c-2 7.28-3.66 14.35-4.93 20.92s-2.16 12.65-2.85 18c-1.33 10.61-1.78 18.1-1.91 20.49l-.16 3.35a1 1 0 0 1 -1 .83.93.93 0 0 1 -1-.85c0-1.06.07-2.21.12-3.39.12-2.63.5-10.29 1.76-21 .64-5.37 1.53-11.49 2.71-18.13s2.79-13.77 4.77-21.13a149.36 149.36 0 0 1 7.78-22.29l1.24-2.75.62-1.38.69-1.35 2.76-5.38c2-3.5 3.9-7 6-10.38 4.15-6.77 8.54-13.19 12.93-19.11s8.7-11.4 12.77-16.27c1.54-1.83 3.05-3.6 4.55-5.3l.68-.77 1.06-1.17 2.11-2.32 2.07-2.23 1-1.11.25-.26.12-.12v1c-.06 2.15-.18 4.38-.16 6.33v4.27q.1 2.94.33 5.7a113.79 113.79 0 0 0 3 18.89 72.43 72.43 0 0 0 4.42 12.74c.34.85.79 1.57 1.15 2.28l1.05 2 1.9 3.13c3.67 5.91 7.49 11.2 11 15.9s6.66 8.8 9.31 12.2c5.3 6.8 8.45 10.86 8 11.24s-4.4-3.19-10.36-9.65c-3-3.23-6.43-7.2-10.1-11.82a169.38 169.38 0 0 1 -11.09-15.84z" fill="url(#v)"/><path d="m205.1 584.1c-.35-1.58-.67-3.73-1.13-6.35-.25-1.31-.43-2.74-.61-4.3l-.6-5a142.7 142.7 0 0 1 .09-25.65 151.74 151.74 0 0 1 6.15-31.3 99.91 99.91 0 0 1 6.59-16 81.94 81.94 0 0 1 22.32-26.87l3.43-2.59c1.14-.85 2.35-1.59 3.51-2.38l1.75-1.16c.59-.37 1.2-.71 1.79-1.07l3.56-2.09a81.56 81.56 0 0 1 28.77-8.82 122.24 122.24 0 0 1 22.47-.45c5.84.42 9.8 1.07 11.38 1.32 1.08.18 2.13.37 3.13.58a1 1 0 0 1 -.39 1.92c-.94-.18-2-.35-3.06-.52-1.69-.25-5.7-.85-11.5-1.19a119.36 119.36 0 0 0 -22.12.74 78.89 78.89 0 0 0 -27.63 8.93c-2.26 1.39-4.63 2.69-6.85 4.28-1.11.78-2.29 1.49-3.37 2.35l-3.27 2.52a78.82 78.82 0 0 0 -21.08 26 97.19 97.19 0 0 0 -6.17 15.5 148.72 148.72 0 0 0 -5.71 30.5 139.8 139.8 0 0 0 .09 24.89l.61 4.86c.19 1.52.36 2.93.61 4.21.47 2.57.79 4.7 1.14 6.28 1.31 6.35 2.86 12.2 4.4 17.41s3.11 9.75 4.52 13.49c2.73 7.52 4.67 11.87 4.17 12.15s-3.37-3.86-6.85-11.32a132.29 132.29 0 0 1 -5.42-13.49c-.86-2.62-1.78-5.38-2.53-8.31s-1.49-5.91-2.19-9.07z" fill="url(#w)"/></svg>