<?xml version="1.0" encoding="UTF-8" standalone="no"?>
<!-- Created with Inkscape (http://www.inkscape.org/) -->

<svg
   xmlns:dc="http://purl.org/dc/elements/1.1/"
   xmlns:cc="http://creativecommons.org/ns#"
   xmlns:rdf="http://www.w3.org/1999/02/22-rdf-syntax-ns#"
   xmlns:svg="http://www.w3.org/2000/svg"
   xmlns="http://www.w3.org/2000/svg"
   xmlns:xlink="http://www.w3.org/1999/xlink"
   xmlns:sodipodi="http://sodipodi.sourceforge.net/DTD/sodipodi-0.dtd"
   xmlns:inkscape="http://www.inkscape.org/namespaces/inkscape"
   id="svg7384"
   height="16"
   width="16"
   version="1.1"
   inkscape:version="0.92.2 (unknown)"
   sodipodi:docname="x-office-document-symbolic.svg">
  <defs
     id="defs10">
    <linearGradient
       id="linearGradient4565">
      <stop
         style="stop-color:#161616;stop-opacity:1;"
         offset="0"
         id="stop4567" />
      <stop
         style="stop-color:#3a3a3a;stop-opacity:1;"
         offset="1"
         id="stop4569" />
    </linearGradient>
    <linearGradient
       id="linearGradient3569">
      <stop
         style="stop-color:#161616;stop-opacity:1;"
         offset="0"
         id="stop3571" />
      <stop
         style="stop-color:#3a3a3a;stop-opacity:1;"
         offset="1"
         id="stop3573" />
    </linearGradient>
    <linearGradient
       y2="-40.636906"
       x2="54.675591"
       y1="40.918156"
       x1="136.23065"
       gradientUnits="userSpaceOnUse"
       id="linearGradient4548"
       xlink:href="#linearGradient3569"
       inkscape:collect="always" />
  </defs>
  <sodipodi:namedview
     pagecolor="#ffffff"
     bordercolor="#666666"
     borderopacity="1"
     objecttolerance="10"
     gridtolerance="10"
     guidetolerance="10"
     inkscape:pageopacity="0"
     inkscape:pageshadow="2"
     inkscape:window-width="1317"
     inkscape:window-height="716"
     id="namedview8"
     showgrid="false"
     inkscape:zoom="14.75"
     inkscape:cx="2.7161406"
     inkscape:cy="6.5254463"
     inkscape:window-x="49"
     inkscape:window-y="27"
     inkscape:window-maximized="1"
     inkscape:current-layer="svg7384" />
  <metadata
     id="metadata90">
    <rdf:RDF>
      <cc:Work
         rdf:about="">
        <dc:format>image/svg+xml</dc:format>
        <dc:type
           rdf:resource="http://purl.org/dc/dcmitype/StillImage" />
        <dc:title>Gnome Symbolic Icon Theme</dc:title>
      </cc:Work>
    </rdf:RDF>
  </metadata>
  <title
     id="title9167">Gnome Symbolic Icon Theme</title>
  <g
     id="g835"
     transform="matrix(1,0,0,-0.94507616,0,15.560609)">
    <path
       id="rect7217"
       d="m 2.21875,0.59375 v 14.8125 H 6.984375 13.78125 V 3.8984375 3.8125 L 10.375,0.59375 Z M 9.9375,1.25 13.03125,3.9375 13.175781,3.8984375 13.1875,14.75 8,14.773438 H 7.9355469 L 2.8125,14.75 2.84375,1.28125 Z"
       style="fill:#bebebe;fill-opacity:0.9020427;stroke:none"
       inkscape:connector-curvature="0" />
    <path
       sodipodi:nodetypes="cccccc"
       inkscape:connector-curvature="0"
       id="path7212"
       d="m 10.399923,1.0711876 0.121037,2.8764119 2.795,0.039625 V 3.5485288 L 10.761202,1.071188 Z"
       style="fill:#bebebe;fill-opacity:1;stroke:none" />
  </g>
  <g
     id="g831"
     transform="translate(0,0.08624257)">
    <path
       d="m 6.4199999,3.2033899 c -0.86024,0 -1.5563,0.72246 -1.5563,1.5827 0,0.86024 0.69608,1.5563 1.5563,1.5563 0.86024,0 1.5827,-0.69608 1.5827,-1.5563 0,-0.86023 -0.72246,-1.5827 -1.5827,-1.5827 z m 0,1.0024 c 0.3198,0 0.58032,0.26053 0.58032,0.58032 0,0.3198 -0.26052,0.55395 -0.58032,0.55395 -0.3198,0 -0.55394,-0.23415 -0.55394,-0.55395 0,-0.31979 0.23414,-0.58032 0.55394,-0.58032 z"
       style="color:#000000;text-indent:0;text-transform:none;fill:#bebebe"
       id="path35728"
       inkscape:connector-curvature="0" />
    <rect
       x="9.141243"
       y="5.7966104"
       width="2.282486"
       height="1"
       style="color:#000000;fill:#bebebe;stroke-width:1.06828976"
       id="rect35730" />
    <rect
       x="4.5762711"
       y="7.7966108"
       width="6.8474574"
       height="1"
       style="color:#000000;fill:#bebebe;stroke-width:1.06828976"
       id="rect35732" />
    <rect
       x="4.5762711"
       y="9.7966099"
       width="6.8474574"
       height="1"
       style="color:#000000;fill:#bebebe;stroke-width:1.06828976"
       id="rect35734" />
  </g>
</svg>
