<?xml version="1.0" encoding="UTF-8" standalone="no"?>
<!-- Created with Inkscape (http://www.inkscape.org/) -->

<svg
   xmlns:dc="http://purl.org/dc/elements/1.1/"
   xmlns:cc="http://creativecommons.org/ns#"
   xmlns:rdf="http://www.w3.org/1999/02/22-rdf-syntax-ns#"
   xmlns:svg="http://www.w3.org/2000/svg"
   xmlns="http://www.w3.org/2000/svg"
   xmlns:sodipodi="http://sodipodi.sourceforge.net/DTD/sodipodi-0.dtd"
   xmlns:inkscape="http://www.inkscape.org/namespaces/inkscape"
   version="1.1"
   width="16"
   height="16"
   id="svg7384"
   inkscape:version="0.92.2 (unknown)"
   sodipodi:docname="display-projector-symbolic.svg">
  <sodipodi:namedview
     pagecolor="#ffffff"
     bordercolor="#666666"
     borderopacity="1"
     objecttolerance="10"
     gridtolerance="10"
     guidetolerance="10"
     inkscape:pageopacity="0"
     inkscape:pageshadow="2"
     inkscape:window-width="1366"
     inkscape:window-height="706"
     id="namedview7"
     showgrid="false"
     inkscape:zoom="10.429825"
     inkscape:cx="2.1813715"
     inkscape:cy="14.238335"
     inkscape:window-x="0"
     inkscape:window-y="0"
     inkscape:window-maximized="1"
     inkscape:current-layer="svg7384" />
  <title
     id="title9167">Gnome Symbolic Icon Theme</title>
  <defs
     id="defs11" />
  <metadata
     id="metadata90">
    <rdf:RDF>
      <cc:Work
         rdf:about="">
        <dc:format>image/svg+xml</dc:format>
        <dc:type
           rdf:resource="http://purl.org/dc/dcmitype/StillImage" />
        <dc:title>Gnome Symbolic Icon Theme</dc:title>
      </cc:Work>
    </rdf:RDF>
  </metadata>
  <path
     style="fill:#bebebe;fill-opacity:0.90196078;stroke:none"
     d="M 7.9765625,8.4394531 C 5.8802429,8.452134 3.6480693,8.5977931 0.84765625,9.4238281 0.74211359,9.4658288 0.57162269,9.4137587 0.51757812,9.2324219 v 0.2929687 3.0546874 0.197266 C 2.1873834,13.458469 3.8293227,13.86529 5.4511719,14.050781 4.7981133,13.501278 4.3847656,12.724146 4.3847656,11.84375 c -1e-6,-1.72865 1.5960463,-3.0585938 3.4628906,-3.0585938 1.8668442,6e-7 3.4667968,1.3289578 3.4667968,3.0585938 0,0.850583 -0.388436,1.603055 -1.003906,2.148438 1.740322,-0.226944 3.463621,-0.656589 5.171875,-1.214844 V 12.580078 9.5253906 9.0234375 c 0.01754,0.3099297 -0.203841,0.4521821 -0.333984,0.4003906 -2.800413,-0.826035 -5.02868,-0.9716939 -7.1250005,-0.984375 -0.015551,-9.35e-5 -0.031334,8.04e-5 -0.046875,0 z m 3.3164065,1.09375 c 1.008215,0.1250959 2.103643,0.3552951 3.291015,0.6874999 v 1.849609 c -0.85302,0.261716 -1.706663,0.421163 -2.560546,0.601563 0.06787,-0.275867 0.189453,-0.532086 0.189453,-0.828125 0,-0.903157 -0.386235,-1.664077 -0.919922,-2.3105469 z M 4.3476562,9.6074219 C 3.8498191,10.241339 3.4863276,10.975048 3.4863281,11.84375 c 0,0.29815 0.1286905,0.554128 0.1972657,0.832031 C 2.9308194,12.505853 2.1822946,12.373988 1.4160156,12.089844 V 10.21875 C 2.4729227,9.9232892 3.4360906,9.7346865 4.3476562,9.6074219 Z m 3.5,0.8359371 c -0.9984238,0 -1.7004776,1.061711 -1.7004767,1.824053 0,0.762341 0.7337507,1.44336 1.734375,1.44336 1.0006255,0 1.7363282,-0.68102 1.7363282,-1.44336 0,-0.762341 -0.7718027,-1.824053 -1.7702265,-1.824053 z m 0,0.898438 c 0.585263,0 0.871789,0.742933 0.871789,0.925615 0,0.18441 -0.2448422,0.544922 -0.8378907,0.544922 -0.5930472,0 -0.8359374,-0.358976 -0.8359374,-0.544922 -3e-7,-0.184217 0.2167757,-0.925615 0.8020391,-0.925615 z"
     id="path3102"
     inkscape:connector-curvature="0"
     sodipodi:nodetypes="cccccccsssccccccccccccsccsccccscsssssscs" />
  <path
     style="opacity:0.98999999;fill:#bebebe;fill-opacity:0.90196078;fill-rule:evenodd;stroke:none"
     d="M 7.9863281 2.0703125 C 5.4800545 2.0767153 3.0378615 2.3590809 1.9589844 3.4746094 C 1.8386409 3.5990418 1.7635829 3.7452991 1.7324219 3.875 C 1.3609969 5.4209597 0.53515625 7.7089844 0.53515625 7.7089844 C 0.53180325 7.7266244 0.52923075 7.7437106 0.52734375 7.7597656 C 0.52000875 7.7400576 0.5117527 7.7204716 0.5078125 7.6972656 C 0.5026775 7.7593636 0.5108098 7.8099233 0.5234375 7.8554688 C 0.5209225 7.8642388 0.517931 7.8664983 0.515625 7.8789062 C 0.5039616 7.9417823 0.5023008 7.9985619 0.5078125 8.046875 C 0.50836581 8.051945 0.50707162 8.057592 0.5078125 8.0625 C 0.4990095 8.3547484 0.72893493 8.439804 0.85742188 8.3886719 C 3.6578361 7.5626364 5.8900085 7.416977 7.9863281 7.4042969 C 8.0018581 7.4043773 8.0176511 7.404203 8.0332031 7.4042969 C 10.129523 7.4169779 12.357791 7.5626364 15.158203 8.3886719 C 15.288347 8.4404629 15.509723 8.2982107 15.492188 7.9882812 C 15.494988 7.9556293 15.495688 7.920159 15.492188 7.8828125 C 15.497188 7.8483255 15.497687 7.8067786 15.492188 7.7597656 C 15.496887 7.7227256 15.495987 7.682214 15.492188 7.6386719 C 15.489387 7.6596169 15.485529 7.6784536 15.480469 7.6972656 C 15.480376 7.6970541 15.476762 7.6898231 15.476562 7.6894531 C 15.455552 7.6315767 14.647875 5.4009734 14.28125 3.875 C 14.250109 3.745303 14.176984 3.5990417 14.056641 3.4746094 C 12.977777 2.359084 10.539475 2.0767117 8.0332031 2.0703125 C 8.0175791 2.070273 8.0019521 2.0703125 7.9863281 2.0703125 z M 7.9863281 2.9199219 L 7.9882812 2.9199219 C 8.0044175 2.9199192 8.0190455 2.919891 8.03125 2.9199219 C 9.2531762 2.9230418 10.444355 2.9961621 11.414062 3.1894531 C 12.383772 3.3827441 13.103374 3.7108942 13.445312 4.0644531 C 13.453909 4.0733411 13.460584 4.0971486 13.455078 4.0742188 C 13.785031 5.4475527 14.291938 6.8265934 14.492188 7.3867188 C 12.039201 6.7663819 9.9274882 6.5661109 8.0390625 6.5546875 C 8.0136882 6.5545343 7.9964239 6.5547195 7.9902344 6.5546875 A 0.84986029 0.84986029 0 0 0 7.9804688 6.5546875 C 6.0925421 6.5661071 3.9783346 6.7648197 1.5253906 7.3847656 C 1.7182948 6.8425397 2.2263659 5.4570301 2.5585938 4.0742188 C 2.5512456 4.1048038 2.558549 4.0766163 2.5703125 4.0644531 C 2.9119044 3.7112567 3.6327436 3.3827771 4.6035156 3.1894531 C 5.573731 2.99624 6.7651333 2.9231223 7.9863281 2.9199219 z "
     id="path4827" />
  <path
     inkscape:connector-curvature="0"
     style="fill:#bebebe;fill-opacity:0.90196078;stroke:none;stroke-width:1.05862212"
     d="m 7.8494178,9.3145399 c -1.6194305,0 -2.9342297,1.2696881 -2.9342297,2.8338741 0,1.564186 1.3147992,2.832357 2.9342297,2.832357 1.6194295,0 2.9342302,-1.26817 2.9342292,-2.832357 0,-1.564187 -1.3147997,-2.8338741 -2.9342292,-2.8338741 z m 0,0.6740105 c 1.2499726,0 2.2645862,0.9931616 2.2645862,2.2159046 1e-6,1.222741 -1.0146136,2.214389 -2.2645862,2.214389 -1.2499725,0 -2.2645867,-0.991646 -2.2645867,-2.214389 -1.1e-6,-1.222743 1.0146142,-2.2159046 2.2645867,-2.2159046 z"
     id="path1881" />
</svg>
