<?xml version="1.0" encoding="UTF-8" standalone="no"?>
<!-- Created with Inkscape (http://www.inkscape.org/) -->

<svg
   xmlns:osb="http://www.openswatchbook.org/uri/2009/osb"
   xmlns:dc="http://purl.org/dc/elements/1.1/"
   xmlns:cc="http://creativecommons.org/ns#"
   xmlns:rdf="http://www.w3.org/1999/02/22-rdf-syntax-ns#"
   xmlns:svg="http://www.w3.org/2000/svg"
   xmlns="http://www.w3.org/2000/svg"
   xmlns:xlink="http://www.w3.org/1999/xlink"
   xmlns:sodipodi="http://sodipodi.sourceforge.net/DTD/sodipodi-0.dtd"
   xmlns:inkscape="http://www.inkscape.org/namespaces/inkscape"
   version="1.1"
   width="16"
   height="16"
   id="svg7384"
   inkscape:version="0.48.3.1 r9886"
   sodipodi:docname="drive-harddisk-system-symbolic.svgz">
  <sodipodi:namedview
     pagecolor="#ffffff"
     bordercolor="#666666"
     borderopacity="1"
     objecttolerance="10"
     gridtolerance="10"
     guidetolerance="10"
     inkscape:pageopacity="0"
     inkscape:pageshadow="2"
     inkscape:window-width="1366"
     inkscape:window-height="696"
     id="namedview7"
     showgrid="false"
     showguides="true"
     inkscape:guide-bbox="true"
     inkscape:zoom="20.85965"
     inkscape:cx="8.5032983"
     inkscape:cy="14.14984"
     inkscape:window-x="0"
     inkscape:window-y="0"
     inkscape:window-maximized="1"
     inkscape:current-layer="svg7384" />
  <title
     id="title9167">Gnome Symbolic Icon Theme</title>
  <defs
     id="defs11">
    <radialGradient
       gradientTransform="matrix(2.0028749,0,0,2.103321,-27.472015,-17.454038)"
       gradientUnits="userSpaceOnUse"
       xlink:href="#linearGradient3798-3"
       id="radialGradient3922"
       fy="13.70627"
       fx="8"
       r="5.4887881"
       cy="13.70627"
       cx="8" />
    <linearGradient
       id="linearGradient3798-3">
      <stop
         offset="0"
         style="stop-color:#bebebe;stop-opacity:0.69800001"
         id="stop3800-9" />
      <stop
         offset="1"
         style="stop-color:#bebebe;stop-opacity:1"
         id="stop3802-0" />
    </linearGradient>
    <linearGradient
       gradientTransform="matrix(1,0,0,-1,0,16)"
       gradientUnits="userSpaceOnUse"
       xlink:href="#linearGradient3798-3"
       id="linearGradient3899"
       y2="14.985587"
       x2="8.2128801"
       y1="0.95885509"
       x1="8.2128801" />
    <linearGradient
       id="linearGradient3785">
      <stop
         style="stop-color:#384880;stop-opacity:1;"
         offset="0"
         id="stop3787" />
      <stop
         style="stop-color:#000000;stop-opacity:1;"
         offset="1"
         id="stop3789" />
    </linearGradient>
    <linearGradient
       y2="520.1709"
       y1="408.39655"
       x2="365.97757"
       x1="365.51193"
       id="linearGradient3189"
       xlink:href="#linearGradient3785"
       gradientUnits="userSpaceOnUse"
       gradientTransform="matrix(0.08112299,0,0,0.07855526,540.8143,254.8467)"
       inkscape:collect="always" />
    <filter
       id="filter7554"
       color-interpolation-filters="sRGB"
       inkscape:collect="always">
      <feBlend
         mode="darken"
         in2="BackgroundImage"
         id="feBlend7556"
         inkscape:collect="always" />
    </filter>
    <linearGradient
       osb:paint="solid"
       id="linearGradient5606">
      <stop
         style="stop-color:#000000;stop-opacity:1;"
         offset="0"
         id="stop5608" />
    </linearGradient>
  </defs>
  <metadata
     id="metadata90">
    <rdf:RDF>
      <cc:Work
         rdf:about="">
        <dc:format>image/svg+xml</dc:format>
        <dc:type
           rdf:resource="http://purl.org/dc/dcmitype/StillImage" />
        <dc:title>Gnome Symbolic Icon Theme</dc:title>
      </cc:Work>
    </rdf:RDF>
  </metadata>
  <g
     id="layer9"
     inkscape:label="status"
     style="display:inline"
     transform="translate(-261.0002,83)" />
  <path
     style="fill:#c0c0c0;fill-opacity:1;stroke:none;filter:url(#filter7554)"
     id="path5978"
     d="M 1,0 C 0,0 0,1 0,1 l 0,11 c 0,1 1,1 1,1 l 14,0 c 1,0 1,-1 1,-1 L 16,1 C 16,1 16,0 15,0 L 1,0 z M 1,1 15,1 15,12 1,12 1,1 z"
     inkscape:connector-curvature="0" />
  <path
     style="color:#bebebe;fill:#c0c0c0;fill-opacity:1;fill-rule:nonzero;stroke:none;stroke-width:1.20000005000000010;marker:none;visibility:visible;display:inline;overflow:visible;filter:url(#filter7554);enable-background:accumulate"
     sodipodi:nodetypes="ccccccccc"
     id="path5981"
     d="m 6,13 0,1 c 0,1 -1,1 -1,1 0,0 -2,0 -2,1 l 10,0 c 0,-1 -2,-1 -2,-1 0,0 -1,0 -1,-1 l 0,-1 z"
     inkscape:connector-curvature="0" />
  <g
     id="layer1"
     inkscape:label="places"
     style="display:inline"
     transform="translate(-20,-534)" />
  <g
     id="layer14"
     inkscape:label="mimetypes"
     style="display:inline"
     transform="translate(-261.0002,83)" />
  <g
     id="layer15"
     inkscape:label="emblems"
     style="display:inline"
     transform="translate(-261.0002,83)" />
  <g
     id="g71291"
     inkscape:label="emotes"
     style="display:inline"
     transform="translate(-261.0002,83)" />
  <g
     id="layer2"
     inkscape:label="categories"
     style="display:inline"
     transform="translate(-20,-384)" />
  <g
     id="g6058"
     inkscape:label="apps"
     style="display:inline"
     transform="translate(-20,-384)" />
  <g
     id="layer12"
     inkscape:label="actions"
     style="display:inline"
     transform="translate(-261.0002,83)" />
  <path
     style="fill:#c0c0c0;fill-opacity:1;stroke:none"
     d="m 14.165858,2.7048671 c 0,-0.5116855 -0.453136,-0.9224202 -1.007016,-0.9224202 l -10.3262144,0 c -0.5538802,0 -0.9984851,0.4107347 -0.9984851,0.9224202 l 0,7.5922179 c 0,0.511693 0.4446049,0.92242 0.9984851,0.92242 l 10.3262144,0 c 0.55388,0 1.007015,-0.410727 1.007015,-0.92242 z m -1.228904,3.5714171 c 0,1.7286847 -1.516787,3.1299232 -3.3880243,3.1299232 -0.9444111,0 -1.8007218,-0.3544982 -2.4151333,-0.93031 L 7.7055781,7.8688349 c 0.00911,-0.012747 0.017676,-0.02591 0.025612,-0.039408 l 0.03418,-0.039408 c 0.00451,-0.005 0.00451,-0.010831 0.00902,-0.015746 C 7.9754704,7.5303575 8.0752134,7.2532324 8.073076,6.9701086 8.0712724,6.6666233 7.925644,6.3560061 7.6805161,6.1501805 7.2546514,5.7926165 6.6371106,5.8019476 6.1699868,6.0555783 6.2918429,4.4292441 7.7580559,3.1464105 9.5494708,3.1464105 c 1.8712352,0 3.3880242,1.40123 3.3880242,3.1299147 z m -2.150579,0 c 0,-0.6329064 -0.552347,-1.1510486 -1.2374453,-1.1510486 -0.6850973,0 -1.2374355,0.5181422 -1.2374355,1.1510486 0,0.6329062 0.5523382,1.143167 1.2374355,1.143167 0.6850983,0 1.2374453,-0.5102608 1.2374453,-1.143167 z m -3.6354167,1.011482 -0.067367,0.074648 C 6.1128917,7.9088995 5.4672137,8.6655762 5.247725,9.6978532 5.237715,9.7088472 5.224097,9.7186012 5.213635,9.7293452 L 5.19659,9.7450912 5.145366,9.8002472 5.137246,9.7918572 C 4.7528968,10.120931 4.2013072,10.176152 3.8656801,9.8943523 3.5076785,9.5937577 3.5322715,9.0317429 3.9169043,8.6408035 4.0005045,8.5558064 4.0905347,8.4902313 4.1899891,8.4358361 4.7417862,7.4728757 5.5435179,7.2025989 6.311593,6.8390696 6.3384677,6.811743 6.4239888,6.7705021 6.4532984,6.7472416 6.7516527,6.510132 6.9257159,6.4602855 7.1801327,6.6738431 7.4318801,7.0290077 7.1903234,7.2275517 7.1514543,7.2876456 z M 4.462632,3.3828875 c 0,0.3400685 -0.2975426,0.6228254 -0.6656537,0.6228254 -0.3681112,0 -0.6656538,-0.2827569 -0.6656538,-0.6228254 0,-0.3400766 0.2975426,-0.6149523 0.6656538,-0.6149523 0.3681111,0 0.6656537,0.2748757 0.6656537,0.6149523 z"
     id="rect3020"
     inkscape:connector-curvature="0"
     sodipodi:nodetypes="ssssssssscsccccccccsccsssssscccccccccccccssssss" />
  <g
     id="g3077"
     transform="translate(10.408746,17.875525)" />
  <path
     style="text-indent:0;text-transform:none;block-progression:tb;color:#bebebe;fill:#bebebe"
     d="m 248.85191,-258.30082 c -3.11976,0.0441 -5.70435,2.70501 -5.75,5.93522 l -0.40625,31.57924 c -0.046,3.25697 2.58987,5.93522 5.75,5.93522 l 25.3125,0 c 3.16013,0 5.85131,-2.67953 5.75,-5.93522 l -0.96875,-31.48247 c -0.0263,-3.28474 -2.59407,-6.02591 -5.75,-6.03199 l -23.84375,0 z"
     id="rect42761"
     inkscape:connector-curvature="0"
     sodipodi:nodetypes="cccssccccc" />
</svg>
