<svg height="48" viewBox="0 0 12.7 12.7" width="48" xmlns="http://www.w3.org/2000/svg" xmlns:xlink="http://www.w3.org/1999/xlink"><filter id="a" color-interpolation-filters="sRGB" height="1.048" width="1.048" x="-.024" y="-.024"><feGaussianBlur stdDeviation="2.1770482"/></filter><linearGradient id="b" gradientUnits="userSpaceOnUse" x1="303.7977" x2="73.500549" xlink:href="#c" y1="512.95911" y2="530.10199"/><linearGradient id="c"><stop offset="0" stop-color="#8c8c8b" stop-opacity=".537255"/><stop offset="1" stop-color="#5b6f4c" stop-opacity="0"/></linearGradient><linearGradient id="d" gradientUnits="userSpaceOnUse" x1="160.65572" x2="236.85242" xlink:href="#c" y1="169.00987" y2="169.00987"/><radialGradient id="e" cx="-291.85776" cy="340.35464" gradientTransform="matrix(1.8044412 -2.5717771 .64617648 .45337813 324.3276 -457.40049)" gradientUnits="userSpaceOnUse" r="9.755338"><stop offset="0" stop-color="#242b2d"/><stop offset="1" stop-color="#242b2d" stop-opacity="0"/></radialGradient><linearGradient id="f" gradientUnits="userSpaceOnUse" x1="-3.125017" x2="34.128284" y1="420.43021" y2="420.43021"><stop offset="0" stop-color="#e72c00"/><stop offset=".8035748" stop-color="#b62200"/><stop offset="1" stop-color="#fd3100"/></linearGradient><linearGradient id="g" gradientUnits="userSpaceOnUse" x1="1.83783742585" x2="29.16543566016" y1="415.66772724433" y2="415.66772724433"><stop offset="0" stop-color="#921901"/><stop offset="1" stop-color="#fd330b"/></linearGradient><linearGradient id="h" gradientUnits="userSpaceOnUse" x1="13.623913" x2="33.211216" y1="1353.2048" y2="1381.4191"><stop offset="0" stop-color="#fffdfd"/><stop offset="1" stop-color="#eea2a0" stop-opacity="0"/></linearGradient><radialGradient id="i" cx="93.60704" cy="1441.4597" gradientTransform="matrix(1.177087 -.44271758 .45829215 1.2184963 -677.18626 -272.18727)" gradientUnits="userSpaceOnUse" r="16.134117"><stop offset="0" stop-color="#fef9f9"/><stop offset="1" stop-color="#f5c7c6" stop-opacity="0"/></radialGradient><filter id="j" color-interpolation-filters="sRGB" height="1.048" width="1.048" x="-.024" y="-.024"><feGaussianBlur stdDeviation=".21759741"/></filter><path d="m-.0000004-.00000003919h12.69999984v12.69999984h-12.69999984z" fill="none"/><path d="m-.0000004-.00000003919h12.69999984v12.69999984h-12.69999984z" fill="none"/><g transform="matrix(.04960937438 0 0 .04960937438 -.0000004 -2.10947795012)"><path d="m20.216665 83.534377-.000001 196.730713 65.690766-10.92948 76.63922 10.92948 76.63922-21.85896-.063-196.226756-2.41255-1.930035-74.16367 23.285036-76.639219-10.929484z" fill="#ab9861"/><path d="m19.147587 83.439862-.000001 195.934328 65.311451-10.88523 76.196683 10.88523 76.19669-21.77047v-195.934342l-76.19669 21.770482-76.196682-10.88524z" fill="#525252" filter="url(#a)" transform="matrix(1.0055506 0 0 1.0055506 -.040994 -.277018)"/><path d="m19.147587 81.927957-.000001 195.934333 65.311451-10.88523 76.196683 10.88523 76.19669-21.77047v-195.934347l-76.19669 21.770482-76.196682-10.88524z" fill="#fff"/><path d="m319.21484 113.54688-246.845699 41.14062v232.31055l246.845699-75.89844zm0 290.54687-246.845699 75.89844v415.23633l246.845699-41.14258z" fill="#8ece5f" transform="matrix(.26458333 0 0 .26458333 0 41)"/><path d="m319.21484 311.09961-246.845699 75.89844v92.99414l246.845699-75.89844z" fill="#fff" transform="matrix(.26458333 0 0 .26458333 0 41)"/><path d="m160.65572 277.86229 76.19669-21.77047v-195.934347l-76.19669 21.770482z" fill="#e5dfce"/><path d="m84.459037 266.97706 76.196683 10.88523v-195.934335l-76.196682-10.88524z" fill="#e9e3d3"/><g transform="matrix(.26458333 0 0 .26458333 0 41)"><path d="m263.56836 421.20312-191.199219 58.78907v415.23633l246.845699-41.14258v-299.47656z" fill="#e9e3d3"/><path d="m319.21484 252.16797v302.44141l96.3125 313.23632 97.26758 13.89453z" fill="#fff"/><path d="m258.28125 123.70312-78.59726 12.95784 139.53085 417.94842v-302.44141z" fill="#fff"/><path d="m607.20312 240.54883-287.98828 70.55078v92.99414l287.98828-70.55078z" fill="#fff"/><path d="m895.18945 134-287.98633 106.54883v92.99414l287.98633-106.54883z" fill="#fff"/><path d="m319.21484 113.54688v138.62109l16.85157 54.80273 271.13671-66.42187v-85.86133z" fill="#a4d77e"/><path d="m895.18945 72.40625-287.98633 82.28125v85.86133l287.98633-106.54883z" fill="#96d16a"/><path d="m273.16481 418.17266-200.795669 61.81953v415.23633l246.845699-41.14258 96.3125 13.75976-96.3125-313.23632z" fill="#4ac7fd"/><path d="m319.21484 554.60938v299.47656l96.3125 13.75976z" fill="#72d3fd"/><path d="m895.18945 502-287.98633 106.55078v12.99414l41.3125-15.28515 92.74219 250.66601 11.75391-3.35742-93.06641-251.53711 235.24414-87.03516z" fill="#fff"/></g><path d="m132.51172 184.96289c-1.78506.003-3.57138.0231-5.35938.0586-14.30351.28281-28.735018 1.52154-43.773434 2.64844-.132966.01-.265703.0242-.398437.0449l-63.910157 9.72852a.51778749.51778749 0 0 0 -.439453.51172v19.22265a.51778749.51778749 0 0 0 .515625.51758c.271589.001.54379-.0174.814454-.0586a.51778749.51778749 0 0 0 .002 0l65.136718-10.24219c21.351774-.4705 31.466484-3.00164 69.359374.52539 8.19066 1.58566 10.10592 2.58992 14.06641 3.88281 4.01643 1.31116 9.45649 2.61512 23.26953 4.30665.29496.0364.59038.0468.88477.0332 23.41061-1.09324 34.19358-5.25537 44.29883-7.8125a.51778749.51778749 0 0 0 .39062-.50196v-21.93359a.51778749.51778749 0 0 0 -.51758-.51758c-.60184-.001-1.19663.10104-1.75195.30078-6.49796 2.35594-18.96094 7.46464-40.17578 8.74024-7.97064.0103-13.08884-1.1443-17.94727-2.68164-4.88904-1.54704-9.61224-3.62105-16.01562-5.04688a.51778749.51778749 0 0 0 -.002 0c-.14893-.033-.3004-.06-.45507-.0801-6.38378-.82992-12.72936-1.30103-19.07227-1.51172-2.9732-.0987-5.94494-.1401-8.91992-.13477z" fill="#f6b532"/><path d="m236.85221 189.06267c-6.25358 2.26733-19.7047 7.7439-41.74526 9.04888-17.22826.0602-23.52001-5.23713-35.28002-7.8557-24.78513-3.22215-49.25797-.91985-76.054268 1.08813l-64.529392 9.82268-.0956 1.31132v11.53231l65.411511-10.28384c21.347609-.43491 31.893939-3.0809 70.657179.54681 17.46161 3.34598 9.89463 4.84009 37.21789 8.18606 23.70531-1.10701 33.45682-5.29975 44.41796-7.94978z" fill="#fee333"/><path d="m236.91576 60.186408-.23512.0727.0532 16.196639 2.36994.566876v-14.616457z" fill="#71ba3a"/><path d="m319.21484 113.54688-246.845699 41.14062v342.31055l246.845699-75.89844zm0 290.54687-246.845699 75.89844v415.23633l246.845699-41.14258z" fill="url(#b)" transform="matrix(.26458333 0 0 .26458333 0 41)"/><path d="m160.65572 277.86229 76.19669-21.77047v-195.934347l-76.19669 21.770482z" fill="url(#d)"/><g transform="matrix(-2.3887765 0 0 2.3887765 221.33606 -843.32476)"><path d="m39.670691 422.47543c2.894014 3.11635-11.241967 18.13433-15.378233 21.97547-4.136266 3.84113-7.490978 7.24202-10.384977 4.12565-2.893999-3.11636-1.886946-8.75653 2.249312-12.59765 4.136258-3.84113 20.619898-16.61983 23.513898-13.50347z" fill="url(#e)"/><path d="m34.128286 415.66769c.000002 5.41145-2.127962 9.52956-4.934211 13.68704l-13.69244 20.28545-13.1143487-19.77323c-2.91605218-4.39669-5.5123059-8.51009-5.5123035-14.19926.0000044-10.28722 8.3394371-18.62665 18.6266522-18.62665 10.287215 0 18.626647 8.33944 18.626651 18.62665z" fill="url(#f)"/><circle cx="15.501635" cy="415.66769" fill="url(#g)" r="13.663797"/><circle cx="15.501635" cy="415.66769" fill="#242b2d" r="11.541328"/><path d="m39.119141 1354.8262a56.624433 44.417436 49.535329 0 0 -21.337891 7.3476 56.624433 44.417436 49.535329 0 0 -14.0410156 41.5938 56.257804 56.257804 0 0 1 54.8476566-43.959 56.257804 56.257804 0 0 1 4.980468.25 56.624433 44.417436 49.535329 0 0 -24.449218-5.2324z" fill="url(#h)" transform="matrix(.26458333 0 0 .26458333 0 41)"/><path d="m102.20898 1416.0664c-.001 19.5679-13.033276 36.7405-31.878902 42.0078 6.648274-.8005 12.702227-3.1746 17.75-6.9609 8.236621-7.9349 16.414842-15.9318 14.128902-35.0469z" fill="url(#i)" transform="matrix(.26458333 0 0 .26458333 0 41)"/><circle cx="15.501635" cy="415.66769" fill="#374346" filter="url(#j)" r="10.87987" transform="matrix(.94766555 0 0 .94766555 .81127 21.753741)"/></g></g></svg>