<?xml version="1.0" encoding="UTF-8" standalone="no"?>
<!-- Created with Inkscape (http://www.inkscape.org/) -->

<svg
   xmlns:osb="http://www.openswatchbook.org/uri/2009/osb"
   xmlns:dc="http://purl.org/dc/elements/1.1/"
   xmlns:cc="http://creativecommons.org/ns#"
   xmlns:rdf="http://www.w3.org/1999/02/22-rdf-syntax-ns#"
   xmlns:svg="http://www.w3.org/2000/svg"
   xmlns="http://www.w3.org/2000/svg"
   xmlns:sodipodi="http://sodipodi.sourceforge.net/DTD/sodipodi-0.dtd"
   xmlns:inkscape="http://www.inkscape.org/namespaces/inkscape"
   sodipodi:docname="fluxgui-panel.svg"
   height="24"
   id="svg6530"
   version="1.1"
   inkscape:version="0.91 r13725"
   viewBox="0 0 24 24"
   width="24"
   inkscape:export-filename="/usr/share/icons/Karasa Jaga/24x24/status/fluxgui-panel.png"
   inkscape:export-xdpi="90"
   inkscape:export-ydpi="90">
  <defs
     id="defs6532">
    <linearGradient
       id="linearGradient5606"
       osb:paint="solid">
      <stop
         id="stop5608"
         offset="0"
         style="stop-color:#000000;stop-opacity:1;" />
    </linearGradient>
    <filter
       inkscape:collect="always"
       style="color-interpolation-filters:sRGB"
       id="filter4222"
       x="-0.071999996"
       width="1.144"
       y="-0.072000004"
       height="1.144">
      <feGaussianBlur
         inkscape:collect="always"
         stdDeviation="0.53285158"
         id="feGaussianBlur4224" />
    </filter>
  </defs>
  <sodipodi:namedview
     inkscape:bbox-nodes="true"
     bordercolor="#666666"
     borderopacity="1.0"
     inkscape:current-layer="layer1"
     inkscape:cx="3.3649388"
     inkscape:cy="9.1262516"
     inkscape:document-units="px"
     id="base"
     inkscape:object-nodes="true"
     inkscape:object-paths="true"
     pagecolor="#ffffff"
     inkscape:pageopacity="0"
     inkscape:pageshadow="2"
     showgrid="false"
     inkscape:snap-bbox="true"
     inkscape:snap-bbox-edge-midpoints="true"
     inkscape:snap-bbox-midpoints="true"
     inkscape:snap-smooth-nodes="true"
     units="px"
     inkscape:window-height="707"
     inkscape:window-maximized="1"
     inkscape:window-width="1366"
     inkscape:window-x="0"
     inkscape:window-y="0"
     inkscape:zoom="12.24699">
    <inkscape:grid
       empspacing="4"
       id="grid8845"
       originx="-593"
       originy="-72.99839"
       type="xygrid" />
  </sodipodi:namedview>
  <metadata
     id="metadata6535">
    <rdf:RDF>
      <cc:Work
         rdf:about="">
        <dc:format>image/svg+xml</dc:format>
        <dc:type
           rdf:resource="http://purl.org/dc/dcmitype/StillImage" />
        <dc:title></dc:title>
      </cc:Work>
    </rdf:RDF>
  </metadata>
  <g
     inkscape:groupmode="layer"
     id="layer1"
     inkscape:label="panel"
     style="display:inline"
     transform="translate(-593,-955.36377)">
    <path
       style="opacity:1;fill:#0a0a0a;fill-opacity:1;stroke:none;stroke-width:16;stroke-linecap:square;stroke-miterlimit:4;stroke-dasharray:none;stroke-opacity:1;filter:url(#filter4222)"
       d="M 12 3.1191406 C 7.1054848 3.1191406 3.1191406 7.1054848 3.1191406 12 A 0.88128778 0.88128778 0 0 0 3.1191406 12.003906 C 3.1224724 12.946986 3.2762805 13.88314 3.5742188 14.777344 A 0.88128778 0.88128778 0 0 0 3.9550781 15.251953 A 0.88128778 0.88128778 0 0 0 4.0117188 15.863281 C 5.4918693 18.926623 8.5978145 20.877498 12 20.880859 C 14.581388 20.879749 17.036843 19.755614 18.722656 17.800781 A 0.88128778 0.88128778 0 0 0 18.935547 17.246094 A 0.88128778 0.88128778 0 0 0 19.40625 16.892578 C 20.366176 15.441721 20.879105 13.739674 20.880859 12 C 20.880859 7.1054848 16.894515 3.1191406 12 3.1191406 z M 12 4 C 16.41828 4 20 7.58172 20 12 C 19.99842 13.56713 19.536595 15.09929 18.671875 16.40625 C 16.337215 15.10049 14.580713 13.453241 12.564453 12.582031 C 11.840403 12.269171 11.072317 12.073234 10.248047 12.052734 C 9.4237668 12.032234 8.5419337 12.186279 7.5898438 12.574219 C 6.6220038 12.968579 5.5765962 13.592827 4.4101562 14.498047 C 4.1417263 13.692407 4.003 12.84917 4 12 C 4 7.58172 7.58172 4 12 4 z M 14.5 6.1171875 C 13.253207 6.1171875 12.119141 7.2512536 12.119141 8.4980469 C 12.119141 9.7448401 13.253207 10.878906 14.5 10.878906 C 15.746793 10.878906 16.880859 9.7448401 16.880859 8.4980469 C 16.880859 7.2512536 15.746793 6.1171875 14.5 6.1171875 z M 14.5 6.9980469 A 1.5 1.5 0 0 1 16 8.4980469 A 1.5 1.5 0 0 1 14.5 9.9980469 A 1.5 1.5 0 0 1 13 8.4980469 A 1.5 1.5 0 0 1 14.5 6.9980469 z M 10.224609 13.035156 C 10.904619 13.052596 11.533199 13.22573 12.167969 13.5 C 13.904039 14.25014 15.650257 15.878789 18.054688 17.224609 C 16.535826 18.985849 14.32571 19.999 12 20 C 8.93361 19.99697 6.1387475 18.241459 4.8046875 15.480469 C 6.0061875 14.525909 7.05782 13.87116 7.96875 13.5 C 8.81315 13.15594 9.5445898 13.017756 10.224609 13.035156 z "
       id="path3348"
       transform="translate(593,955.36377)" />
    <path
       inkscape:connector-curvature="0"
       d="m 607.5,962.36182 a 1.5,1.5 0 0 0 -1.5,1.5 1.5,1.5 0 0 0 1.5,1.5 1.5,1.5 0 0 0 1.5,-1.5 1.5,1.5 0 0 0 -1.5,-1.5 z m -4.27539,6.03711 c -0.68002,-0.0174 -1.41146,0.12078 -2.25586,0.46484 -0.91093,0.37116 -1.96256,1.02591 -3.16406,1.98047 1.33406,2.76099 4.12892,4.5165 7.19531,4.51953 2.32571,-0.001 4.53583,-1.01415 6.05469,-2.77539 -2.40443,-1.34582 -4.15065,-2.97447 -5.88672,-3.72461 -0.63477,-0.27427 -1.26335,-0.4474 -1.94336,-0.46484 z"
       id="path6678"
       style="opacity:1;fill:#ffffff;fill-opacity:1;stroke:none;stroke-width:16;stroke-linecap:square;stroke-miterlimit:4;stroke-dasharray:none;stroke-opacity:1" />
    <path
       inkscape:connector-curvature="0"
       d="m 605,959.36377 c -4.41828,0 -8,3.58172 -8,8 0.003,0.84917 0.14173,1.69241 0.41016,2.49805 1.16644,-0.90522 2.21184,-1.52947 3.17968,-1.92383 0.95209,-0.38794 1.83393,-0.54198 2.65821,-0.52148 0.82427,0.0205 1.59235,0.21643 2.3164,0.52929 2.01626,0.87121 3.77277,2.51846 6.10743,3.82422 0.86472,-1.30696 1.32654,-2.83912 1.32812,-4.40625 0,-4.41828 -3.58172,-8 -8,-8 z m 2.5,1.99805 a 2.5,2.5 0 0 1 2.5,2.5 2.5,2.5 0 0 1 -2.5,2.5 2.5,2.5 0 0 1 -2.5,-2.5 2.5,2.5 0 0 1 2.5,-2.5 z"
       id="path6710"
       style="opacity:0.3;fill:#ffffff;fill-opacity:1;stroke:none;stroke-width:16;stroke-linecap:square;stroke-miterlimit:4;stroke-dasharray:none;stroke-opacity:1" />
  </g>
  <g
     inkscape:groupmode="layer"
     id="layer2"
     inkscape:label="animations"
     transform="translate(-593,-503.00161)" />
</svg>
