<?xml version="1.0" encoding="UTF-8" standalone="no"?>
<!-- Created with Inkscape (http://www.inkscape.org/) -->

<svg
   xmlns:dc="http://purl.org/dc/elements/1.1/"
   xmlns:cc="http://creativecommons.org/ns#"
   xmlns:rdf="http://www.w3.org/1999/02/22-rdf-syntax-ns#"
   xmlns:svg="http://www.w3.org/2000/svg"
   xmlns="http://www.w3.org/2000/svg"
   xmlns:xlink="http://www.w3.org/1999/xlink"
   xmlns:sodipodi="http://sodipodi.sourceforge.net/DTD/sodipodi-0.dtd"
   xmlns:inkscape="http://www.inkscape.org/namespaces/inkscape"
   version="1.1"
   id="svg2"
   width="22"
   height="22"
   viewBox="0 0 22 22"
   sodipodi:docname="folder-open.svg"
   inkscape:version="0.92.4 (unknown)"
   inkscape:export-filename="/home/rizmut/Dokumen/Rizmut/Github/karasa-jaga-icon-theme/build/Karasa-Jaga/22x22/status/folder-open.png"
   inkscape:export-xdpi="96"
   inkscape:export-ydpi="96">
  <metadata
     id="metadata8">
    <rdf:RDF>
      <cc:Work
         rdf:about="">
        <dc:format>image/svg+xml</dc:format>
        <dc:type
           rdf:resource="http://purl.org/dc/dcmitype/StillImage" />
        <dc:title></dc:title>
      </cc:Work>
    </rdf:RDF>
  </metadata>
  <defs
     id="defs6">
    <linearGradient
       inkscape:collect="always"
       id="linearGradient854">
      <stop
         style="stop-color:#2a3674;stop-opacity:1"
         offset="0"
         id="stop850" />
      <stop
         style="stop-color:#174072;stop-opacity:0;"
         offset="1"
         id="stop852" />
    </linearGradient>
    <linearGradient
       inkscape:collect="always"
       id="linearGradient838">
      <stop
         style="stop-color:#587bcb;stop-opacity:1"
         offset="0"
         id="stop834" />
      <stop
         id="stop985"
         offset="0.94117647"
         style="stop-color:#3f59ae;stop-opacity:1" />
      <stop
         style="stop-color:#3d7cdb;stop-opacity:1"
         offset="1"
         id="stop836" />
    </linearGradient>
    <linearGradient
       inkscape:collect="always"
       xlink:href="#linearGradient838"
       id="linearGradient840"
       x1="8.7398376"
       y1="1.3577236"
       x2="9"
       y2="14"
       gradientUnits="userSpaceOnUse"
       gradientTransform="translate(-1)" />
    <linearGradient
       inkscape:collect="always"
       xlink:href="#linearGradient854"
       id="linearGradient856"
       x1="6.5"
       y1="11"
       x2="6.5"
       y2="12"
       gradientUnits="userSpaceOnUse"
       gradientTransform="matrix(1.375,0,0,1,-1.375,0)" />
    <linearGradient
       inkscape:collect="always"
       id="linearGradient4716">
      <stop
         style="stop-color:#102134;stop-opacity:1;"
         offset="0"
         id="stop4718" />
      <stop
         style="stop-color:#102134;stop-opacity:0;"
         offset="1"
         id="stop4720" />
    </linearGradient>
    <linearGradient
       inkscape:collect="always"
       xlink:href="#linearGradient4716"
       id="linearGradient906"
       x1="10"
       y1="-1"
       x2="10"
       y2="10"
       gradientUnits="userSpaceOnUse"
       gradientTransform="translate(-1,-6)" />
    <filter
       style="color-interpolation-filters:sRGB"
       inkscape:collect="always"
       id="filter4747"
       x="-0.06459371"
       width="1.1291873"
       y="-0.1339166"
       height="1.2678332">
      <feGaussianBlur
         inkscape:collect="always"
         stdDeviation="3.1247207"
         id="feGaussianBlur4749" />
    </filter>
    <linearGradient
       inkscape:collect="always"
       xlink:href="#linearGradient4608"
       id="linearGradient4614"
       x1="3"
       y1="968.26129"
       x2="3"
       y2="953.01678"
       gradientUnits="userSpaceOnUse"
       gradientTransform="matrix(0.12499998,0,0,0.12499998,0.0024099,-115.81799)" />
    <linearGradient
       inkscape:collect="always"
       id="linearGradient4608">
      <stop
         style="stop-color:#34608f;stop-opacity:1;"
         offset="0"
         id="stop4610" />
      <stop
         style="stop-color:#34608f;stop-opacity:0;"
         offset="1"
         id="stop4612" />
    </linearGradient>
    <linearGradient
       inkscape:collect="always"
       xlink:href="#linearGradient4616"
       id="linearGradient4622"
       x1="124.01234"
       y1="966.51019"
       x2="124.01234"
       y2="935.34326"
       gradientUnits="userSpaceOnUse"
       gradientTransform="matrix(0.21345221,0,0,0.1138394,-5.411169,-103.22724)" />
    <linearGradient
       id="linearGradient4616">
      <stop
         style="stop-color:#000000;stop-opacity:1;"
         offset="0"
         id="stop4618" />
      <stop
         style="stop-color:#34608f;stop-opacity:0;"
         offset="1"
         id="stop4620" />
    </linearGradient>
    <linearGradient
       inkscape:collect="always"
       xlink:href="#linearGradient4624"
       id="linearGradient4630"
       x1="55"
       y1="1036.4132"
       x2="55"
       y2="1032.4822"
       gradientUnits="userSpaceOnUse" />
    <linearGradient
       inkscape:collect="always"
       id="linearGradient4624">
      <stop
         style="stop-color:#003d7b;stop-opacity:1;"
         offset="0"
         id="stop4626" />
      <stop
         style="stop-color:#003d7b;stop-opacity:0;"
         offset="1"
         id="stop4628" />
    </linearGradient>
    <filter
       style="color-interpolation-filters:sRGB"
       inkscape:collect="always"
       id="filter4584"
       x="-0.013944133"
       width="1.0278883"
       y="-0.34860396"
       height="1.6972079">
      <feGaussianBlur
         inkscape:collect="always"
         stdDeviation="0.70882694"
         id="feGaussianBlur4586" />
    </filter>
    <filter
       style="color-interpolation-filters:sRGB"
       inkscape:collect="always"
       id="filter4724"
       x="-0.013834233"
       width="1.0276685"
       y="-0.43499437"
       height="1.8699887">
      <feGaussianBlur
         inkscape:collect="always"
         stdDeviation="0.70324038"
         id="feGaussianBlur4726" />
    </filter>
    <clipPath
       clipPathUnits="userSpaceOnUse"
       id="clipPath1047">
      <rect
         ry="4"
         rx="4"
         y="941.36218"
         x="4"
         height="31.444271"
         width="141.60004"
         id="rect1049"
         style="opacity:0.6457142;fill:#155293;fill-opacity:1;stroke:none;stroke-width:1" />
    </clipPath>
    <clipPath
       clipPathUnits="userSpaceOnUse"
       id="clipPath3208">
      <rect
         style="opacity:0.29411765;fill:#5b3816;fill-opacity:0.51351348;stroke:none"
         id="rect3210"
         width="232.724"
         height="174.543"
         x="-75.676788"
         y="52.349762"
         rx="2.4399951"
         ry="4.4999933" />
    </clipPath>
    <linearGradient
       id="linearGradient4518-3">
      <stop
         id="stop4520-1"
         offset="0"
         style="stop-color:#eeecec;stop-opacity:1" />
      <stop
         style="stop-color:#f4f4f4;stop-opacity:1"
         offset="0.40000001"
         id="stop5969-4" />
      <stop
         id="stop4522-9"
         offset="1"
         style="stop-color:#f6f5f5;stop-opacity:1" />
    </linearGradient>
    <clipPath
       id="clipPath6093-7"
       clipPathUnits="userSpaceOnUse">
      <path
         style="fill:#ffffff;fill-opacity:1"
         d="m 17.000001,8 0.782827,110 h 57.5 c 1.675283,0 3.119418,0.18058 4.9,-1.6 C 88.980763,107.60206 99.94047,96.548195 107.19904,89.224043 109.6396,86.761431 110,84.752873 110,82.5 V 8 Z"
         id="path6095-4"
         sodipodi:nodetypes="cccssccc"
         inkscape:connector-curvature="0" />
    </clipPath>
    <clipPath
       id="clipPath1001"
       clipPathUnits="userSpaceOnUse">
      <path
         style="fill:#ffffff;fill-opacity:1"
         d="m 17.000001,8 0.782827,110 h 57.5 c 1.675283,0 3.119418,0.18058 4.9,-1.6 C 88.980763,107.60206 99.94047,96.548195 107.19904,89.224043 109.6396,86.761431 110,84.752873 110,82.5 V 8 Z"
         id="path999"
         sodipodi:nodetypes="cccssccc"
         inkscape:connector-curvature="0" />
    </clipPath>
    <linearGradient
       id="linearGradient3897-7">
      <stop
         id="stop3899-4"
         offset="0"
         style="stop-color:#fcfcfc;stop-opacity:1" />
      <stop
         style="stop-color:#f8f8f8;stop-opacity:1"
         offset="0.52275378"
         id="stop3901-5" />
      <stop
         id="stop3903-2"
         offset="0.72337759"
         style="stop-color:#f0efef;stop-opacity:1;" />
      <stop
         id="stop3905-5"
         offset="0.89024991"
         style="stop-color:#e3e1e1;stop-opacity:1;" />
      <stop
         id="stop3907-4"
         offset="1"
         style="stop-color:#cecbcb;stop-opacity:1" />
    </linearGradient>
    <clipPath
       id="clipPath3889-6"
       clipPathUnits="userSpaceOnUse">
      <path
         style="fill:url(#linearGradient3893);fill-opacity:1;stroke:none"
         d="m 112,82.502986 c 0,4.465301 -2.79749,6.409952 -5.27972,8.093625 -5.10854,3.46508 -14.939114,3.32536 -20.720284,3.40638 -0.081,5.781159 0.16586,15.504599 -3.29922,20.613139 -1.68367,2.48224 -5.29051,5.38687 -8.20078,5.38687 2.31803,0 4.74284,-1.33476 7.58402,-4.08481 9.14197,-8.84873 17.36714,-16.13535 25.673154,-25.297529 C 109.67612,88.503916 112,86.97878 112,82.502986 Z"
         id="path3891-5"
         inkscape:connector-curvature="0"
         sodipodi:nodetypes="cscscssc" />
    </clipPath>
  </defs>
  <sodipodi:namedview
     pagecolor="#ffffff"
     bordercolor="#666666"
     borderopacity="1"
     objecttolerance="10"
     gridtolerance="10"
     guidetolerance="10"
     inkscape:pageopacity="0"
     inkscape:pageshadow="2"
     inkscape:window-width="1366"
     inkscape:window-height="698"
     id="namedview4"
     showgrid="true"
     inkscape:zoom="10.871767"
     inkscape:cx="-6.3655464"
     inkscape:cy="10.396522"
     inkscape:window-x="0"
     inkscape:window-y="0"
     inkscape:window-maximized="1"
     inkscape:current-layer="g1029"
     inkscape:snap-page="true"
     inkscape:snap-smooth-nodes="true"
     inkscape:snap-global="true"
     showguides="true"
     inkscape:guide-bbox="true">
    <inkscape:grid
       type="xygrid"
       id="grid828" />
  </sodipodi:namedview>
  <g
     id="g1029"
     transform="translate(1,7)">
    <rect
       transform="matrix(0.125,0,0,0.25614775,-0.125,-251.09298)"
       style="display:inline;opacity:0.57714281;fill:url(#linearGradient4630);fill-opacity:1;stroke:none;filter:url(#filter4584);enable-background:new"
       id="rect4578"
       width="169.99997"
       height="4.3919702"
       x="3.0000281"
       y="1032.4822"
       rx="2.4399951"
       ry="2.1959839" />
    <path
       transform="matrix(0.17315572,0,0,0.125,9.2044236,12.35751)"
       sodipodi:nodetypes="sssssss"
       inkscape:connector-curvature="0"
       id="rect4554"
       d="M -46.991242,13.13992 H 61.233632 c 2.216,0 4,0.8652 4,1.94 0,1.0747 -1.78433,1.902 -4,1.94 -36.945183,0.6329 -68.9279165,0.7782 -108.224874,0 -2.215566,-0.044 -4,-0.8653 -4,-1.94 0,-1.0748 1.784,-1.94 4,-1.94 z"
       style="display:inline;opacity:0.55428569;fill:#000000;fill-opacity:1;stroke:none;filter:url(#filter4724);enable-background:new" />
    <path
       sodipodi:nodetypes="sscsssssscss"
       inkscape:connector-curvature="0"
       id="rect832"
       d="M 1,-5 C 0.5,-5 0.53709551,-4.6112865 0.5,-4.5 L 0,-3 v 9 c 0,0.554 0.446,1 1,1 h 18 c 0.554,0 1,-0.446 1,-1 v -9 c 0,-0.554 -0.446,-1 -1,-1 H 7.9042969 C 7.8200962,-4.4859507 7.7262959,-5 7.5,-5 Z"
       style="opacity:1;fill:#3b6ca9;fill-opacity:1;stroke:none;stroke-width:1;stroke-miterlimit:4;stroke-dasharray:none;stroke-opacity:1" />
    <path
       sodipodi:nodetypes="sscscccccccccssscss"
       inkscape:connector-curvature="0"
       id="path875"
       d="M 1,-5 C 0.5,-5 0.53709551,-4.6112865 0.5,-4.5 L 0,-3 V 6 C 0,6.554 0.446,7 1,7 V -3 l 0.5,-1 h 5.3828125 c 0.013345,0.068527 0.023996,0.094239 0.037109,0.1699219 C 7.0025947,-3.3508586 7.4179989,-3.0005674 7.9042969,-3 H 9 19 V 7 c 0.554,0 1,-0.446 1,-1 v -9 c 0,-0.554 -0.446,-1 -1,-1 H 7.9042969 C 7.8200962,-4.4859507 7.7262959,-5 7.5,-5 Z"
       style="opacity:0.25;fill:url(#linearGradient906);fill-opacity:1;stroke:none;stroke-width:1;stroke-miterlimit:4;stroke-dasharray:none;stroke-opacity:1" />
    <path
       mask="none"
       transform="matrix(0.14830504,0,0,0.14830504,-0.59322015,-138.2721)"
       clip-path="url(#clipPath1047)"
       sodipodi:nodetypes="ccccssccc"
       inkscape:connector-curvature="0"
       id="path3822"
       d="m 30.012982,956.41796 -26.0129821,-0.46865 2e-7,50.59179 138.2286099,-0.02 v -53.82893 c 0,-2.54081 -2.0596,-4.59219 -4.62097,-4.58387 l -95.594658,0.31046 c -9.375263,0 -5.067235,7.84799 -12,8 z"
       style="display:inline;fill:#16375b;fill-opacity:0.80147059;fill-rule:nonzero;stroke:none;filter:url(#filter4747);enable-background:new" />
    <path
       sodipodi:nodetypes="sccssssssss"
       inkscape:connector-curvature="0"
       id="rect830"
       d="m 1,5 h 4.5 l 1,-1 H 20 c 0.554,0 1,0.446 1,1 v 8 c 0,0.554 -0.446,1 -1,1 H 1 C 0.446,14 0,13.554 0,13 V 6 C 0,5.446 0.4937484,5.2250007 1,5 Z"
       style="opacity:1;fill:url(#linearGradient840);fill-opacity:1;stroke:none;stroke-width:1;stroke-miterlimit:4;stroke-dasharray:none;stroke-opacity:1" />
    <path
       sodipodi:nodetypes="ccccc"
       inkscape:connector-curvature="0"
       id="rect846"
       d="m 0,11 h 21 v 1 H 0 Z"
       style="opacity:1;fill:#385da4;fill-opacity:1;stroke:none;stroke-width:1.17260396;stroke-miterlimit:4;stroke-dasharray:none;stroke-opacity:1" />
    <path
       sodipodi:nodetypes="ccccc"
       inkscape:connector-curvature="0"
       id="rect848"
       d="m 0,11 h 21 v 1 H 0 Z"
       style="opacity:1;fill:url(#linearGradient856);fill-opacity:1;stroke:none;stroke-width:1.17260396;stroke-miterlimit:4;stroke-dasharray:none;stroke-opacity:1" />
    <path
       sodipodi:nodetypes="ccccc"
       inkscape:connector-curvature="0"
       id="rect858"
       d="m 0,12 h 21 v 0.5 H 0 Z"
       style="opacity:1;fill:#a4c0e8;fill-opacity:1;stroke:none;stroke-width:1.17260396;stroke-miterlimit:4;stroke-dasharray:none;stroke-opacity:1" />
    <path
       sodipodi:nodetypes="ccsscsccscssc"
       inkscape:connector-curvature="0"
       id="path860"
       d="m 6.5,4 -1,1 H 1 C 0.446,5 0,5.446 0,6 V 7 C 0,6.446 0.49374843,6.2250007 1,6 h 4.5 l 1,-1 H 20 c 0.554,0 1,0.446 1,1 V 5 C 21,4.446 20.554,4 20,4 Z"
       style="opacity:1;fill:#a4c0e8;fill-opacity:1;stroke:none;stroke-width:1;stroke-miterlimit:4;stroke-dasharray:none;stroke-opacity:1" />
    <path
       sodipodi:nodetypes="ccccc"
       inkscape:connector-curvature="0"
       id="rect871"
       d="m 5,-3 h 1 v 0.9999999 H 5 Z"
       style="opacity:1;fill:#fbc66d;fill-opacity:1;stroke:none;stroke-width:0.48163241;stroke-miterlimit:4;stroke-dasharray:none;stroke-opacity:1" />
    <path
       sodipodi:nodetypes="ccccc"
       inkscape:connector-curvature="0"
       id="rect869"
       d="m 2,-3 h 4 v 0.9999999 H 2 Z"
       style="opacity:1;fill:#fcf9e9;fill-opacity:1;stroke:none;stroke-width:0.96326482;stroke-miterlimit:4;stroke-dasharray:none;stroke-opacity:1" />
    <path
       sodipodi:nodetypes="sccccccs"
       inkscape:connector-curvature="0"
       id="rect4652"
       d="M 1,4 C 0.4494625,4 0.0074802,4.4410516 0.0019531,4.9902344 v 8.0195316 c 2.3e-4,0.02285 0.0119482,0.042 0.0136719,0.06445 C 0.053734,13.395281 0.7666734,13.99797 1,14 c 3.916e-4,3e-6 0.00156,0 0.00195,0 V 4 Z"
       style="display:inline;opacity:0.59428573;fill:url(#linearGradient4614);fill-opacity:1;stroke:none;stroke-width:0.12499997;enable-background:new" />
    <path
       id="rect4654"
       d="m 20,3 v 11 c 0.554,0 1,-0.446 1,-1 V 4 C 21,3.446 20.554,3 20,3 Z"
       style="display:inline;opacity:0.40571433;fill:url(#linearGradient4622);fill-opacity:1;stroke:none;stroke-width:0.1138394;enable-background:new"
       inkscape:connector-curvature="0"
       sodipodi:nodetypes="ccssc" />
  </g>
</svg>
