<?xml version="1.0" encoding="UTF-8" standalone="no"?>
<svg
   xmlns:dc="http://purl.org/dc/elements/1.1/"
   xmlns:cc="http://creativecommons.org/ns#"
   xmlns:rdf="http://www.w3.org/1999/02/22-rdf-syntax-ns#"
   xmlns:svg="http://www.w3.org/2000/svg"
   xmlns="http://www.w3.org/2000/svg"
   xmlns:xlink="http://www.w3.org/1999/xlink"
   xmlns:sodipodi="http://sodipodi.sourceforge.net/DTD/sodipodi-0.dtd"
   xmlns:inkscape="http://www.inkscape.org/namespaces/inkscape"
   viewBox="0 0 22 22"
   version="1.1"
   id="svg6"
   sodipodi:docname="kdeconnect-tray.svg"
   inkscape:version="0.92.4 (unknown)"
   inkscape:export-filename="/home/rizmut/Dokumen/Rizmut/Github/karasa-jaga-icon-theme/build/Karasa-Jaga/22x22/status/kdeconnect-tray.png"
   inkscape:export-xdpi="96"
   inkscape:export-ydpi="96">
  <metadata
     id="metadata10">
    <rdf:RDF>
      <cc:Work
         rdf:about="">
        <dc:format>image/svg+xml</dc:format>
        <dc:type
           rdf:resource="http://purl.org/dc/dcmitype/StillImage" />
        <dc:title></dc:title>
      </cc:Work>
    </rdf:RDF>
  </metadata>
  <sodipodi:namedview
     pagecolor="#ffffff"
     bordercolor="#666666"
     borderopacity="1"
     objecttolerance="10"
     gridtolerance="10"
     guidetolerance="10"
     inkscape:pageopacity="0"
     inkscape:pageshadow="2"
     inkscape:window-width="1366"
     inkscape:window-height="705"
     id="namedview8"
     showgrid="true"
     inkscape:pagecheckerboard="true"
     inkscape:zoom="15.170655"
     inkscape:cx="15.406257"
     inkscape:cy="8.7335694"
     inkscape:window-x="0"
     inkscape:window-y="0"
     inkscape:window-maximized="1"
     inkscape:current-layer="svg6">
    <inkscape:grid
       type="xygrid"
       id="grid817" />
  </sodipodi:namedview>
  <defs
     id="defs3051">
    <style
       type="text/css"
       id="current-color-scheme">
      .ColorScheme-Text {
        color:#232629;
      }
      </style>
    <linearGradient
       inkscape:collect="always"
       id="linearGradient878">
      <stop
         style="stop-color:#ffffff;stop-opacity:1;"
         offset="0"
         id="stop874" />
      <stop
         style="stop-color:#ffffff;stop-opacity:0.94444442"
         offset="1"
         id="stop876" />
    </linearGradient>
    <radialGradient
       inkscape:collect="always"
       xlink:href="#linearGradient878"
       id="radialGradient845"
       cx="11"
       cy="11"
       fx="11"
       fy="11"
       r="5"
       gradientTransform="matrix(1,0,0,1.6,0,-6.6)"
       gradientUnits="userSpaceOnUse" />
    <filter
       inkscape:collect="always"
       style="color-interpolation-filters:sRGB"
       id="filter887"
       x="-0.09"
       width="1.18"
       y="-0.06"
       height="1.12">
      <feGaussianBlur
         inkscape:collect="always"
         stdDeviation="0.45"
         id="feGaussianBlur889" />
    </filter>
  </defs>
  <path
     style="color:#232629;fill:#0a0a0a;fill-opacity:1;stroke:none;filter:url(#filter887)"
     d="M 6 2 C 5.4477381 2.0000552 5.0000552 2.4477381 5 3 L 5 19 C 5.0000552 19.552262 5.4477381 19.999945 6 20 L 16 20 C 16.552262 19.999945 16.999945 19.552262 17 19 L 17 3 C 16.999945 2.4477381 16.552262 2.0000552 16 2 L 6 2 z M 6 3 L 16 3 L 16 19 L 6 19 L 6 3 z M 9 4 L 9 5 L 13 5 L 13 4 L 9 4 z M 7 6 L 7 11.5 L 8.1035156 11.224609 C 8.1275986 11.135359 8.1612144 11.049366 8.1933594 10.962891 C 8.1964494 10.945491 8.230526 10.84779 8.21875 10.876953 C 8.21553 10.884953 8.2318428 10.851199 8.2304688 10.855469 C 8.2304688 10.855469 8.2304688 10.853516 8.2304688 10.853516 C 8.2807068 10.732814 8.3386014 10.615303 8.4042969 10.501953 L 7.8183594 9.5253906 L 8.5253906 8.8183594 L 9.5019531 9.4042969 C 9.5491821 9.3771869 9.5998721 9.3565073 9.6484375 9.3320312 C 9.6752705 9.3139642 9.7793032 9.2611257 9.7441406 9.2773438 C 9.7230226 9.2870838 9.8015206 9.2558834 9.8066406 9.2558594 C 9.9421377 9.1972294 10.079714 9.1454081 10.222656 9.1074219 L 10.5 8 L 11.5 8 L 11.775391 9.1035156 C 11.883158 9.1326096 11.988151 9.1701366 12.091797 9.2109375 C 12.109807 9.2180275 12.128614 9.2230317 12.146484 9.2304688 C 12.142684 9.2287288 12.167789 9.236755 12.162109 9.234375 C 12.115319 9.214721 12.231009 9.2669339 12.279297 9.2949219 C 12.352957 9.3299219 12.427357 9.3633269 12.498047 9.4042969 L 13.474609 8.8183594 L 14.181641 9.5253906 L 13.595703 10.501953 C 13.606573 10.520893 13.61455 10.541387 13.625 10.560547 C 13.6417 10.583417 13.695194 10.681021 13.677734 10.646484 C 13.654314 10.600154 13.708866 10.716144 13.728516 10.771484 C 13.758576 10.838614 13.783544 10.907391 13.808594 10.976562 C 13.846474 11.066133 13.892157 11.200336 13.873047 11.136719 C 13.864847 11.109519 13.889002 11.205034 13.888672 11.208984 C 13.889872 11.213584 13.891378 11.218086 13.892578 11.222656 L 15 11.5 L 15 6 L 7 6 z M 8 7 L 10.5 7 C 10.040834 6.9998184 9.6405358 7.3123251 9.5292969 7.7578125 L 9.421875 8.1894531 L 9.0390625 7.9609375 C 8.7187927 7.7686917 8.3180813 7.7709514 8 7.9667969 L 8 7 z M 11.527344 7 L 14 7 L 14 7.96875 C 13.682284 7.7723019 13.281571 7.7692891 12.960938 7.9609375 L 12.578125 8.1894531 L 12.470703 7.7578125 C 12.362067 7.3220512 11.976279 7.0121423 11.527344 7 z M 11 10 A 2 2 0 0 0 9 12 A 2 2 0 0 0 11 14 A 2 2 0 0 0 13 12 A 2 2 0 0 0 11 10 z M 11 11 A 1 1 0 0 1 12 12 A 1 1 0 0 1 11 13 A 1 1 0 0 1 10 12 A 1 1 0 0 1 11 11 z M 7 12.5 L 7 16 L 7 17 L 9 17 L 13 17 L 15 17 L 15 16 L 15 12.5 L 13.896484 12.775391 C 13.889784 12.800091 13.878384 12.823156 13.871094 12.847656 C 13.870665 12.854956 13.844396 12.957696 13.853516 12.929688 C 13.865776 12.892048 13.824354 13.002678 13.808594 13.033203 C 13.771274 13.134039 13.727624 13.231845 13.679688 13.328125 C 13.661627 13.375395 13.604583 13.489793 13.626953 13.449219 C 13.634553 13.435359 13.601332 13.488888 13.601562 13.486328 C 13.599362 13.490128 13.597903 13.494227 13.595703 13.498047 L 14.181641 14.474609 L 13.474609 15.181641 L 12.498047 14.595703 C 12.493747 14.598203 12.488645 14.599063 12.484375 14.601562 C 12.484814 14.603063 12.422573 14.642043 12.439453 14.632812 C 12.486713 14.606983 12.364443 14.667759 12.298828 14.693359 C 12.215588 14.733299 12.131463 14.770669 12.044922 14.802734 C 11.996232 14.826154 11.874493 14.870079 11.919922 14.855469 C 11.952712 14.844919 11.847379 14.873963 11.824219 14.876953 C 11.808319 14.881453 11.793324 14.888328 11.777344 14.892578 L 11.5 16 L 10.5 16 L 10.224609 14.896484 C 10.07417 14.855874 9.9291481 14.799614 9.7871094 14.736328 C 9.7748274 14.733928 9.6852308 14.696754 9.7109375 14.708984 C 9.7471935 14.726234 9.6425013 14.670451 9.6132812 14.650391 C 9.5766433 14.631141 9.5378042 14.616483 9.5019531 14.595703 L 8.5253906 15.181641 L 7.8183594 14.474609 L 8.4042969 13.498047 C 8.3393579 13.384897 8.2820057 13.266848 8.2324219 13.146484 C 8.2316361 13.144584 8.2312487 13.142625 8.2304688 13.140625 C 8.2286188 13.140277 8.1978371 13.071254 8.2050781 13.089844 C 8.2244681 13.139614 8.1807045 13.010644 8.1640625 12.943359 C 8.1456665 12.887689 8.1225449 12.834099 8.1074219 12.777344 L 7 12.5 z M 9.421875 15.810547 L 9.46875 16 L 9.1035156 16 L 9.421875 15.810547 z M 12.578125 15.810547 L 12.896484 16 L 12.53125 16 L 12.578125 15.810547 z "
     id="path847" />
  <path
     style="fill:url(#radialGradient845);fill-opacity:1.0;stroke:none"
     d="M 6 3 L 6 19 L 16 19 L 16 3 L 6 3 z M 9 4 L 13 4 L 13 5 L 9 5 L 9 4 z M 7 6 L 15 6 L 15 11.5 L 13.892578 11.222656 C 13.825378 10.970456 13.725582 10.728253 13.595703 10.501953 L 14.181641 9.5253906 L 13.474609 8.8183594 L 12.498047 9.4042969 C 12.271331 9.2728969 12.028379 9.1718156 11.775391 9.1035156 L 11.5 8 L 10.5 8 L 10.222656 9.1074219 C 9.9705343 9.1744219 9.7282551 9.2743969 9.5019531 9.4042969 L 8.5253906 8.8183594 L 7.8183594 9.5253906 L 8.4042969 10.501953 C 8.2729059 10.728653 8.1717856 10.971609 8.1035156 11.224609 L 7 11.5 L 7 6 z M 11.089844 10.001953 A 2 2 0 0 1 12.986328 11.769531 L 12.984375 12.251953 A 2 2 0 0 1 10.867188 13.996094 A 2 2 0 0 1 9 11.988281 A 2 2 0 0 1 10.890625 10.003906 A 2 2 0 0 1 11.089844 10.001953 z M 7 12.5 L 8.1074219 12.777344 C 8.1746219 13.029544 8.2744179 13.271747 8.4042969 13.498047 L 7.8183594 14.474609 L 8.5253906 15.181641 L 9.5019531 14.595703 C 9.7286691 14.727103 9.9716214 14.828184 10.224609 14.896484 L 10.5 16 L 11.5 16 L 11.777344 14.892578 C 12.029466 14.825578 12.271745 14.725603 12.498047 14.595703 L 13.474609 15.181641 L 14.181641 14.474609 L 13.595703 13.498047 C 13.727094 13.271347 13.828214 13.028391 13.896484 12.775391 L 15 12.5 L 15 16 L 15 17 L 13 17 L 9 17 L 7 17 L 7 16 L 7 12.5 z "
     class="ColorScheme-Text"
     id="path4" />
</svg>
