<?xml version="1.0" encoding="UTF-8" standalone="no"?>
<svg
   xmlns:dc="http://purl.org/dc/elements/1.1/"
   xmlns:cc="http://creativecommons.org/ns#"
   xmlns:rdf="http://www.w3.org/1999/02/22-rdf-syntax-ns#"
   xmlns:svg="http://www.w3.org/2000/svg"
   xmlns="http://www.w3.org/2000/svg"
   xmlns:xlink="http://www.w3.org/1999/xlink"
   xmlns:sodipodi="http://sodipodi.sourceforge.net/DTD/sodipodi-0.dtd"
   xmlns:inkscape="http://www.inkscape.org/namespaces/inkscape"
   height="22"
   width="22"
   version="1.1"
   id="svg8"
   sodipodi:docname="plasmavault.svg"
   inkscape:version="0.92.4 (unknown)"
   inkscape:export-filename="/home/rizmut/Dokumen/Rizmut/Github/karasa-jaga-icon-theme/build/Karasa-Jaga/22x22/status/plasmavault.png"
   inkscape:export-xdpi="96"
   inkscape:export-ydpi="96">
  <metadata
     id="metadata14">
    <rdf:RDF>
      <cc:Work
         rdf:about="">
        <dc:format>image/svg+xml</dc:format>
        <dc:type
           rdf:resource="http://purl.org/dc/dcmitype/StillImage" />
        <dc:title></dc:title>
      </cc:Work>
    </rdf:RDF>
  </metadata>
  <defs
     id="defs12">
    <linearGradient
       inkscape:collect="always"
       id="linearGradient878">
      <stop
         style="stop-color:#ffffff;stop-opacity:1;"
         offset="0"
         id="stop874" />
      <stop
         style="stop-color:#ffffff;stop-opacity:0.94444442"
         offset="1"
         id="stop876" />
    </linearGradient>
    <radialGradient
       inkscape:collect="always"
       xlink:href="#linearGradient878"
       id="radialGradient856"
       cx="8"
       cy="3.4392085"
       fx="8"
       fy="3.4392085"
       r="7.5252142"
       gradientTransform="matrix(1,0,0,0.86259486,3.1006903,5.0128485)"
       gradientUnits="userSpaceOnUse" />
    <filter
       inkscape:collect="always"
       style="color-interpolation-filters:sRGB"
       id="filter874"
       x="-0.067694763"
       width="1.1353895"
       y="-0.076890036"
       height="1.1537801">
      <feGaussianBlur
         inkscape:collect="always"
         stdDeviation="0.48093974"
         id="feGaussianBlur876" />
    </filter>
  </defs>
  <sodipodi:namedview
     pagecolor="#ffffff"
     bordercolor="#666666"
     borderopacity="1"
     objecttolerance="10"
     gridtolerance="10"
     guidetolerance="10"
     inkscape:pageopacity="0"
     inkscape:pageshadow="2"
     inkscape:window-width="1366"
     inkscape:window-height="705"
     id="namedview10"
     showgrid="true"
     inkscape:zoom="29.5"
     inkscape:cx="9.8668586"
     inkscape:cy="10.585805"
     inkscape:window-x="0"
     inkscape:window-y="0"
     inkscape:window-maximized="1"
     inkscape:current-layer="svg8">
    <inkscape:grid
       type="xygrid"
       id="grid821" />
  </sodipodi:namedview>
  <path
     style="fill:#0a0a0a;fill-opacity:1;filter:url(#filter874)"
     d="m 4.7539062,3.9941406 c -0.4310055,0 -0.879602,0.2889673 -1.0664062,0.5273438 C 3.5006957,4.759861 3.4457244,4.9323289 3.4003906,5.0351562 L 3.1601562,5.578125 a 1.0293998,1.0293998 0 0 0 -0.087891,0.4375 L 3.140625,9.2285156 C 2.7333147,9.4853486 2.4399423,9.9339784 2.4785156,10.490234 a 1.0001,1.0001 0 0 0 0.00195,0.01758 l 0.6152343,7.138672 v 0.002 c 0.048539,0.686296 0.6518048,1.357421 1.4257813,1.357421 H 17.478516 c 0.774229,0 1.383935,-0.668229 1.425781,-1.367187 v 0.01563 l 0.619141,-8.1562501 a 1.0001,1.0001 0 0 0 0,-0.015625 c 0.03088,-0.515159 -0.22135,-0.9553122 -0.597657,-1.2207031 l 0.101563,-1.78125 a 1.0293998,1.0293998 0 0 0 0.002,-0.015625 c 0.03403,-0.8141712 -0.637245,-1.4988705 -1.4375,-1.5 a 1.0293998,1.0293998 0 0 0 -0.002,0 H 9.5566406 L 8.9824219,4.3320312 A 1.0293998,1.0293998 0 0 0 8.2207031,3.9941406 Z m 0,1.0136719 H 8.2207031 L 9.1015625,5.9785156 H 17.589844 C 17.818046,5.9788377 18.0099,6.1693508 18,6.40625 l -0.146484,2.5722656 h 0.24414 c 0.23712,0 0.441925,0.1910394 0.427735,0.4277344 L 17.90625,17.5625 c -0.01417,0.236696 -0.190614,0.429688 -0.427734,0.429688 H 4.5214844 c -0.23712,0 -0.4113304,-0.193137 -0.4277344,-0.429688 L 3.4765625,10.40625 C 3.4601589,10.169697 3.6693122,9.9879156 3.90625,9.9785156 h 0.2792969 l -0.083984,-4 0.2402344,-0.5429687 C 4.4374477,5.2185894 4.5257089,5.0078125 4.7539062,5.0078125 Z M 17.101562,6.9785156 4.9511719,7.0449219 v 2.9335937 h 2.1503906 l 1.6484375,-1 h 8.283203 z M 8.3652344,8.0703125 A 1.0001,1.0001 0 0 0 8.2304688,8.1386719 L 6.8222656,8.9941406 H 5.9804688 V 8.0839844 Z"
     id="path826"
     inkscape:connector-curvature="0" />
  <path
     style="fill:url(#radialGradient856);fill-opacity:1"
     d="m 4.7530341,5.008789 c -0.2281974,0 -0.3164586,0.2107768 -0.4121094,0.4277343 l -0.2402344,0.5429688 0.083984,4 H 3.9053778 C 3.66844,9.9888921 3.4592867,10.170673 3.4756903,10.407226 l 0.6171875,7.15625 c 0.016404,0.236551 0.1906144,0.427735 0.4277344,0.427735 H 17.477643 c 0.23712,0 0.413564,-0.191039 0.427735,-0.427735 l 0.61914,-8.1562499 c 0.01419,-0.236695 -0.190614,-0.427734 -0.427734,-0.427734 H 17.852643 L 17.999128,6.4072265 C 18.009028,6.1703273 17.817173,5.9798142 17.588971,5.9794921 H 9.1006903 L 8.2198309,5.008789 Z m 12.3476559,1.9707031 -0.06836,2 H 8.7491278 l -1.6484375,1 H 4.9502997 V 7.0458983 Z"
     id="path2"
     inkscape:connector-curvature="0" />
  <path
     inkscape:connector-curvature="0"
     style="fill:currentColor;fill-opacity:1;stroke:none"
     class="ColorScheme-Text"
     d="m 14.057,10.756 c 1.254165,0.0021 2.284496,0.990975 2.338,2.244 H 17 v 4 h -6 v -4 h 0.717 c 0.05354,-1.253797 1.085061,-2.243001 2.34,-2.244 z m -0.008,0.781 C 13.22877,11.5427 12.55246,12.181429 12.5,13 h 3.115 c -0.0527,-0.822016 -0.734297,-1.462053 -1.558,-1.463 -0.0027,-7e-6 -0.0053,-7e-6 -0.008,0 z"
     id="path4"
     sodipodi:nodetypes="ccccccccccccc" />
</svg>
