<?xml version="1.0" encoding="UTF-8" standalone="no"?>
<!-- Created with Inkscape (http://www.inkscape.org/) -->

<svg
   xmlns:dc="http://purl.org/dc/elements/1.1/"
   xmlns:cc="http://creativecommons.org/ns#"
   xmlns:rdf="http://www.w3.org/1999/02/22-rdf-syntax-ns#"
   xmlns:svg="http://www.w3.org/2000/svg"
   xmlns="http://www.w3.org/2000/svg"
   xmlns:sodipodi="http://sodipodi.sourceforge.net/DTD/sodipodi-0.dtd"
   xmlns:inkscape="http://www.inkscape.org/namespaces/inkscape"
   id="svg2817"
   height="24"
   width="24"
   version="1.0"
   inkscape:version="0.91 r13725"
   sodipodi:docname="telegram-attention-panel.svg"
   inkscape:export-filename="/usr/share/icons/Karasa Jaga/24x24/status/telegram-attention-panel.png"
   inkscape:export-xdpi="90"
   inkscape:export-ydpi="90">
  <sodipodi:namedview
     pagecolor="#ffffff"
     bordercolor="#666666"
     borderopacity="1"
     objecttolerance="10"
     gridtolerance="10"
     guidetolerance="10"
     inkscape:pageopacity="0"
     inkscape:pageshadow="2"
     inkscape:window-width="1366"
     inkscape:window-height="707"
     id="namedview222"
     showgrid="false"
     inkscape:zoom="14.071425"
     inkscape:cx="-8.7123699"
     inkscape:cy="10.015533"
     inkscape:window-x="0"
     inkscape:window-y="0"
     inkscape:window-maximized="1"
     inkscape:current-layer="svg2817" />
  <defs
     id="defs221">
    <filter
       inkscape:collect="always"
       style="color-interpolation-filters:sRGB"
       id="filter4390"
       x="-0.083991392"
       width="1.1679828"
       y="-0.08400861"
       height="1.1680172">
      <feGaussianBlur
         inkscape:collect="always"
         stdDeviation="0.70407195"
         id="feGaussianBlur4392" />
    </filter>
  </defs>
  <metadata
     id="metadata57">
    <rdf:RDF>
      <cc:Work
         rdf:about="">
        <dc:format>image/svg+xml</dc:format>
        <dc:type
           rdf:resource="http://purl.org/dc/dcmitype/StillImage" />
        <dc:title />
      </cc:Work>
    </rdf:RDF>
  </metadata>
  <path
     style="opacity:1;fill:#595959;fill-opacity:1;filter:url(#filter4390)"
     d="m 19.029297,2.4296875 c -0.111771,-0.00683 -0.555062,0.00863 -0.822266,0.064453 C 17.899253,2.5584368 17.592419,2.6492845 17.09375,2.8105469 16.100571,3.1317271 14.383125,3.7317 11.052734,4.8964844 9.1544142,5.5604399 7.4073432,6.1757993 6.1191406,6.6367188 5.4752835,6.8670911 4.9457607,7.0608501 4.5644531,7.2011719 4.3728623,7.2716775 4.2199522,7.3262564 4.1035156,7.3710938 c -0.055432,0.021346 -0.1016122,0.041066 -0.1582031,0.064453 -0.022975,0.0095 -0.052965,0.020158 -0.097656,0.029297 -0.0049,0.001 -0.012277,0.00103 -0.017578,0.00195 0.062813,-0.017726 -0.00212,0.00243 -0.1992187,0.1308593 -0.8421742,0.5484347 -1.2070313,1.3597733 -1.2070313,2.2851563 0,0.3040565 0.033301,0.7631235 0.2441407,1.2148435 0.210654,0.451323 0.5649031,0.815954 0.9101562,1.080078 0.3507573,0.268336 1.1013566,0.620577 1.71875,0.939454 a 0.4844083,0.4844083 0 0 1 0.023437,0.845703 C 4.2230343,14.613236 3.4238281,15.772021 3.4238281,17 c 0,1.832918 1.7432542,3.576172 3.5761719,3.576172 1.2076436,0 2.3434071,-0.777308 3.001953,-1.84961 a 0.4844083,0.4844083 0 0 1 0.841797,0.0293 c 0.196592,0.375058 0.464582,0.925752 0.59375,1.138672 0.326293,0.53787 0.813545,1.069316 1.21875,1.314453 1.255444,0.759471 2.798754,0.245219 3.576172,-0.798828 0.177729,-0.238612 0.226494,-0.359703 0.193359,-0.267578 -0.01657,0.04606 -0.0065,0.261509 -0.002,0.275391 0.0046,0.01388 -0.02384,-0.277927 0.01953,-0.376953 0.02864,-0.06538 0.05109,-0.118855 0.07617,-0.181641 0.05187,-0.129836 0.113164,-0.291377 0.189453,-0.494141 0.152186,-0.404473 0.355687,-0.957311 0.59375,-1.613281 0.476346,-1.312526 1.091601,-3.038478 1.705078,-4.771484 0.613394,-1.73277 1.224063,-3.471894 1.685547,-4.808594 0.230756,-0.6683928 0.42432,-1.2351055 0.564453,-1.65625 0.0706,-0.2121603 0.126996,-0.3860572 0.169922,-0.5234375 0.08586,-0.2747788 0.04205,0.091183 0.121094,-0.4824219 C 21.663775,4.6750706 21.345662,3.703358 20.71875,3.1054688 20.576764,2.9700609 20.199468,2.6902507 19.878906,2.578125 19.512732,2.4500443 19.291972,2.4457001 19.029297,2.4296875 Z m -0.06641,1.0898437 c 0.210227,0.012816 0.378921,0.027681 0.55664,0.089844 0.177719,0.062162 0.328309,0.17748 0.445313,0.2890625 0.393382,0.375164 0.576429,0.9220441 0.501953,1.4628906 -0.02203,0.1598799 -0.04213,0.1769795 -0.08203,0.3046875 -0.0399,0.1277081 -0.09517,0.2968524 -0.164063,0.5039063 -0.137792,0.4141077 -0.330572,0.9803558 -0.560547,1.6464843 -0.45995,1.3322571 -1.068946,3.0680358 -1.68164,4.7988278 -0.612694,1.730793 -1.228317,3.455376 -1.703125,4.763672 -0.237405,0.654148 -0.440746,1.20334 -0.589844,1.59961 -0.07455,0.198134 -0.134605,0.358828 -0.181641,0.476562 -0.02352,0.05887 -0.04453,0.107402 -0.0625,0.148438 -0.01797,0.04104 0.0073,0.03177 -0.08398,0.154296 -0.505027,0.678964 -1.423576,0.946008 -2.134766,0.515626 C 12.932407,20.097845 12.672832,19.822296 12.373047,19.328125 12.073261,18.833954 11.69251,18.087419 11.072266,16.833984 10.732,16.144885 10.398467,15.493897 10.138672,15.003906 10.008774,14.758911 9.8959977,14.552585 9.8125,14.40625 c -0.041749,-0.07317 -0.075584,-0.131638 -0.099609,-0.169922 -0.024025,-0.03828 -0.057365,-0.06985 -0.00781,-0.01758 a 0.4844083,0.4844083 0 0 1 0,-0.002 c 0.08204,0.08686 -0.024331,-0.01416 -0.1523437,-0.08984 C 9.4247219,14.051269 9.2392361,13.950087 9.0097656,13.828125 8.5508248,13.584201 7.9102519,13.259719 7.1425781,12.884766 5.6157885,12.13978 4.7727338,11.715965 4.2402344,11.308594 3.9739846,11.104908 3.7747754,10.888704 3.65625,10.634766 3.5377246,10.380827 3.515625,10.123119 3.515625,9.8828125 c 0,-0.5500217 0.2527468,-1.0717388 0.7128906,-1.3710937 0.1139488,-0.07425 0.096459,-0.051382 0.1328125,-0.066406 0.036354,-0.015024 0.080471,-0.031827 0.1347657,-0.052734 C 4.6046826,8.3507628 4.753917,8.2955588 4.9414062,8.2265625 5.3163848,8.0885698 5.8438684,7.8978411 6.4863281,7.6679688 7.7712475,7.208224 9.5160863,6.5908866 11.412109,5.9277344 14.742093,4.7630921 16.467818,4.1612961 17.431641,3.8496094 17.913552,3.693766 18.204803,3.6094795 18.429688,3.5625 18.654572,3.5155205 18.832479,3.511557 18.962891,3.5195312 Z M 3.6171875,7.4492188 c 0.00456,0.0026 0.016276,0.00781 0.017578,0.00781 -0.004,-0.00171 -0.011678,-0.00527 -0.017578,-0.00781 z M 7,15.484375 c -0.2439015,0 0.3911645,0.03172 0.1484375,0.0078 -0.242727,-0.02391 0.3856993,0.06907 0.1464844,0.02148 -0.239215,-0.04758 0.3779304,0.105957 0.1445312,0.03516 -0.2333991,-0.0708 0.3659606,0.144118 0.140625,0.05078 -0.2253355,-0.09334 0.3498675,0.179428 0.1347657,0.06445 -0.2151019,-0.114974 0.3297497,0.211677 0.1269531,0.07617 -0.2027967,-0.135504 0.307679,0.24262 0.1191406,0.08789 -0.1885384,-0.154729 0.2837925,0.272074 0.1113281,0.09961 -0.1724644,-0.172464 0.2543388,0.299867 0.099609,0.111328 -0.1547294,-0.188538 0.223395,0.321938 0.087891,0.119141 -0.1355044,-0.202797 0.1911463,0.342055 0.076172,0.126953 -0.1149744,-0.215102 0.1577902,0.360101 0.064453,0.134766 -0.093337,-0.225336 0.1215821,0.374024 0.050781,0.140625 -0.070801,-0.233399 0.082739,0.383746 0.035156,0.144531 -0.047583,-0.239215 0.045391,0.389212 0.021484,0.146484 -0.023907,-0.242727 0.00781,0.392339 0.00781,0.148438 0,-0.243901 -0.031719,0.391165 -0.00781,0.148438 0.023907,-0.242728 -0.069067,0.385699 -0.021484,0.146484 0.047583,-0.239215 -0.1059571,0.37793 -0.035156,0.144531 0.070801,-0.233399 -0.1441183,0.365961 -0.050781,0.140625 0.093337,-0.225335 -0.1794275,0.349868 -0.064453,0.134766 0.1149744,-0.215102 -0.2116763,0.32975 -0.076172,0.126953 0.1355044,-0.202797 -0.24262,0.307679 -0.087891,0.119141 0.1547294,-0.188539 -0.2720738,0.283792 -0.099609,0.111328 0.1724644,-0.172465 -0.2998665,0.254338 -0.1113281,0.09961 0.1885384,-0.154729 -0.3219373,0.223395 -0.1191406,0.08789 0.2027966,-0.135505 -0.342055,0.191146 -0.1269531,0.07617 0.2151018,-0.114975 -0.3601012,0.15779 -0.1347657,0.06445 0.2253356,-0.09334 -0.3740241,0.121582 -0.140625,0.05078 0.2333992,-0.0708 -0.3837462,0.08274 -0.1445312,0.03516 0.2392149,-0.04758 -0.3892114,0.04539 -0.1464844,0.02148 0.242727,-0.02391 -0.392339,0.0078 -0.1484375,0.0078 0.2439015,0 -0.3911645,-0.03172 -0.1484375,-0.0078 0.242727,0.02391 -0.3856993,-0.06907 -0.1464844,-0.02148 0.239215,0.04758 -0.3779304,-0.105957 -0.1445312,-0.03516 0.2333991,0.0708 -0.3659606,-0.144118 -0.140625,-0.05078 0.2253355,0.09334 -0.3498675,-0.179428 -0.1347657,-0.06445 0.2151019,0.114974 -0.3297497,-0.211677 -0.1269531,-0.07617 0.2027967,0.135504 -0.307679,-0.24262 -0.1191406,-0.08789 C 6.2276009,18.326604 5.75527,17.899801 5.9277344,18.072266 6.1001988,18.24473 5.6733956,17.772399 5.828125,17.960938 5.9828544,18.149476 5.60473,17.639 5.7402344,17.841797 5.8757388,18.044594 5.5490881,17.499742 5.6640625,17.714844 5.7790369,17.929946 5.5062723,17.354743 5.5996094,17.580078 5.6929464,17.805414 5.4780273,17.206054 5.5488281,17.439453 5.619629,17.672852 5.4660891,17.055707 5.5136719,17.294922 5.5612547,17.534137 5.468281,16.90571 5.4921875,17.148438 5.516094,17.391165 5.484375,16.756099 5.484375,17 c 0,0.243901 0.031719,-0.391165 0.00781,-0.148438 -0.023906,0.242728 0.069067,-0.385699 0.021484,-0.146484 -0.047583,0.239215 0.1059571,-0.37793 0.035156,-0.144531 -0.070801,0.233399 0.1441183,-0.365961 0.050781,-0.140625 -0.093337,0.225335 0.1794275,-0.349868 0.064453,-0.134766 -0.1149744,0.215102 0.2116763,-0.32975 0.076172,-0.126953 -0.1355044,0.202797 0.24262,-0.307679 0.087891,-0.119141 -0.1547294,0.188539 0.2720738,-0.283792 0.099609,-0.111328 -0.1724644,0.172465 0.2998665,-0.254338 0.1113281,-0.09961 -0.1885384,0.154729 0.3219373,-0.223395 0.1191406,-0.08789 -0.2027966,0.135505 0.342055,-0.191146 0.1269531,-0.07617 -0.2151018,0.114975 0.3601012,-0.15779 0.1347657,-0.06445 -0.2253356,0.09334 0.3740241,-0.121582 0.140625,-0.05078 -0.2333992,0.0708 0.3837462,-0.08274 0.1445312,-0.03516 -0.2392149,0.04758 0.3892114,-0.04539 0.1464844,-0.02148 -0.242727,0.02391 0.392339,-0.0078 0.1484375,-0.0078 z"
     id="path4394" />
  <path
     id="path4416"
     d="M 5.3203124,13.962888 C 4.2230343,14.613236 3.4238281,15.772021 3.4238281,17 c 0,1.832918 1.7432542,3.576172 3.5761719,3.576172 1.2076436,0 2.3434071,-0.777308 3.001953,-1.84961 0.196949,-0.320107 0.667581,-0.303726 0.841797,0.0293 C 9.705081,14.216748 6.6010439,12.604271 5.3203124,13.962888 Z m 4.8183596,1.041018 C 10.008774,14.758911 9.8959977,14.552585 9.8125,14.40625 9.770751,14.33308 9.736916,14.274612 9.712891,14.236328 9.688866,14.198048 9.655526,14.166478 9.705081,14.218748 l 0,-0.002 c 0.08204,0.08686 -0.024331,-0.01416 -0.1523437,-0.08984 L 9.0097656,13.828125 Z M 7,15.484375 c -0.2439015,0 0.3911645,0.03172 0.1484375,0.0078 -0.242727,-0.02391 0.3856993,0.06907 0.1464844,0.02148 -0.239215,-0.04758 0.3779304,0.105957 0.1445312,0.03516 -0.2333991,-0.0708 0.3659606,0.144118 0.140625,0.05078 -0.2253355,-0.09334 0.3498675,0.179428 0.1347657,0.06445 -0.2151019,-0.114974 0.3297497,0.211677 0.1269531,0.07617 -0.2027967,-0.135504 0.307679,0.24262 0.1191406,0.08789 -0.1885384,-0.154729 0.2837925,0.272074 0.1113281,0.09961 -0.1724644,-0.172464 0.2543388,0.299867 0.099609,0.111328 -0.1547294,-0.188538 0.223395,0.321938 0.087891,0.119141 -0.1355044,-0.202797 0.1911463,0.342055 0.076172,0.126953 -0.1149744,-0.215102 0.1577902,0.360101 0.064453,0.134766 -0.093337,-0.225336 0.1215821,0.374024 0.050781,0.140625 -0.070801,-0.233399 0.082739,0.383746 0.035156,0.144531 -0.047583,-0.239215 0.045391,0.389212 0.021484,0.146484 -0.023907,-0.242727 0.00781,0.392339 0.00781,0.148438 0,-0.243901 -0.031719,0.391165 -0.00781,0.148438 0.023907,-0.242728 -0.069067,0.385699 -0.021484,0.146484 0.047583,-0.239215 -0.1059571,0.37793 -0.035156,0.144531 0.070801,-0.233399 -0.1441183,0.365961 -0.050781,0.140625 0.093337,-0.225335 -0.1794275,0.349868 -0.064453,0.134766 0.1149744,-0.215102 -0.2116763,0.32975 -0.076172,0.126953 0.1355044,-0.202797 -0.24262,0.307679 -0.087891,0.119141 0.1547294,-0.188539 -0.2720738,0.283792 -0.099609,0.111328 0.1724644,-0.172465 -0.2998665,0.254338 -0.1113281,0.09961 0.1885384,-0.154729 -0.3219373,0.223395 -0.1191406,0.08789 0.2027966,-0.135505 -0.342055,0.191146 -0.1269531,0.07617 0.2151018,-0.114975 -0.3601012,0.15779 -0.1347657,0.06445 0.2253356,-0.09334 -0.3740241,0.121582 -0.140625,0.05078 0.2333992,-0.0708 -0.3837462,0.08274 -0.1445312,0.03516 0.2392149,-0.04758 -0.3892114,0.04539 -0.1464844,0.02148 0.242727,-0.02391 -0.392339,0.0078 -0.1484375,0.0078 0.2439015,0 -0.3911645,-0.03172 -0.1484375,-0.0078 0.242727,0.02391 -0.3856993,-0.06907 -0.1464844,-0.02148 0.239215,0.04758 -0.3779304,-0.105957 -0.1445312,-0.03516 0.2333991,0.0708 -0.3659606,-0.144118 -0.140625,-0.05078 0.2253355,0.09334 -0.3498675,-0.179428 -0.1347657,-0.06445 0.2151019,0.114974 -0.3297497,-0.211677 -0.1269531,-0.07617 0.2027967,0.135504 -0.307679,-0.24262 -0.1191406,-0.08789 C 6.2276009,18.326604 5.75527,17.899801 5.9277344,18.072266 6.1001988,18.24473 5.6733956,17.772399 5.828125,17.960938 5.9828544,18.149476 5.60473,17.639 5.7402344,17.841797 5.8757388,18.044594 5.5490881,17.499742 5.6640625,17.714844 5.7790369,17.929946 5.5062723,17.354743 5.5996094,17.580078 5.6929464,17.805414 5.4780273,17.206054 5.5488281,17.439453 5.619629,17.672852 5.4660891,17.055707 5.5136719,17.294922 5.5612547,17.534137 5.468281,16.90571 5.4921875,17.148438 5.516094,17.391165 5.484375,16.756099 5.484375,17 c 0,0.243901 0.031719,-0.391165 0.00781,-0.148438 -0.023906,0.242728 0.069067,-0.385699 0.021484,-0.146484 -0.047583,0.239215 0.1059571,-0.37793 0.035156,-0.144531 -0.070801,0.233399 0.1441183,-0.365961 0.050781,-0.140625 -0.093337,0.225335 0.1794275,-0.349868 0.064453,-0.134766 -0.1149744,0.215102 0.2116763,-0.32975 0.076172,-0.126953 -0.1355044,0.202797 0.24262,-0.307679 0.087891,-0.119141 -0.1547294,0.188539 0.2720738,-0.283792 0.099609,-0.111328 -0.1724644,0.172465 0.2998665,-0.254338 0.1113281,-0.09961 -0.1885384,0.154729 0.3219373,-0.223395 0.1191406,-0.08789 -0.2027966,0.135505 0.342055,-0.191146 0.1269531,-0.07617 -0.2151018,0.114975 0.3601012,-0.15779 0.1347657,-0.06445 -0.2253356,0.09334 0.3740241,-0.121582 0.140625,-0.05078 -0.2333992,0.0708 0.3837462,-0.08274 0.1445312,-0.03516 -0.2392149,0.04758 0.3892114,-0.04539 0.1464844,-0.02148 -0.242727,0.02391 0.392339,-0.0078 0.1484375,-0.0078 z"
     style="opacity:1;fill:#5384be;fill-opacity:1;filter:url(#filter4390)"
     inkscape:connector-curvature="0"
     sodipodi:nodetypes="csscccccccccccccccscssssssssssssssssssssssssssscccscscssssssssscsssssssssssssscc" />
  <text
     id="text4087-2-6-5"
     font-size="12.666px"
     xml:space="preserve"
     y="-13.187399"
     x="877.22626"
     style="font-size:12.66600037px;font-family:'Bitstream Vera Sans';opacity:0.8;fill:#000000"><tspan
       id="tspan4089-7-2-9"
       y="-13.187399"
       x="877.22626" /></text>
  <text
     id="text4087-2-6-5-5"
     font-size="12.666px"
     xml:space="preserve"
     y="-53.929108"
     x="901.18719"
     style="font-size:12.66600037px;font-family:'Bitstream Vera Sans';opacity:0.8;fill:#000000"><tspan
       id="tspan4089-7-2-9-6"
       y="-53.929108"
       x="901.18719" /></text>
  <text
     id="text4087-2-6-5-2"
     font-size="12.666px"
     xml:space="preserve"
     y="-84.007248"
     x="-569.37115"
     style="font-size:12.66600037px;font-family:'Bitstream Vera Sans';opacity:0.8;fill:#000000"><tspan
       id="tspan4089-7-2-9-2"
       y="-84.007248"
       x="-569.37115" /></text>
  <text
     id="text4087-2-6-5-59"
     font-size="12.666px"
     xml:space="preserve"
     y="661.5462"
     x="-2393.0571"
     style="font-size:12.66600037px;font-family:'Bitstream Vera Sans';opacity:0.8;fill:#000000"><tspan
       id="tspan4089-7-2-9-4"
       y="661.5462"
       x="-2393.0571" /></text>
  <text
     id="text4087-2-6-5-1"
     font-size="12.666px"
     xml:space="preserve"
     y="-469.32822"
     x="-454.88007"
     style="font-size:12.66600037px;font-family:'Bitstream Vera Sans';opacity:0.8;fill:#000000"><tspan
       id="tspan4089-7-2-9-7"
       y="-469.32822"
       x="-454.88007" /></text>
  <text
     id="text4087-2-6-5-7"
     font-size="12.666px"
     xml:space="preserve"
     y="-882.79834"
     x="352.72208"
     style="font-size:12.66600037px;font-family:'Bitstream Vera Sans';opacity:0.8;fill:#000000"><tspan
       id="tspan4089-7-2-9-1"
       y="-882.79834"
       x="352.72208" /></text>
  <text
     id="text4087-2-6-5-5-3"
     font-size="12.666px"
     xml:space="preserve"
     y="-923.54004"
     x="376.68301"
     style="font-size:12.66600037px;font-family:'Bitstream Vera Sans';opacity:0.8;fill:#000000"><tspan
       id="tspan4089-7-2-9-6-5"
       y="-923.54004"
       x="376.68301" /></text>
  <text
     id="text4087-2-6-5-3"
     font-size="12.666px"
     xml:space="preserve"
     y="-930.74994"
     x="-1114.7802"
     style="font-size:12.66600037px;font-family:'Bitstream Vera Sans';opacity:0.8;fill:#000000"><tspan
       id="tspan4089-7-2-9-18"
       y="-930.74994"
       x="-1114.7802" /></text>
  <text
     id="text4087-2-6-5-4"
     font-size="12.666px"
     xml:space="preserve"
     y="-1203.9841"
     x="345.7626"
     style="font-size:12.66600037px;font-family:'Bitstream Vera Sans';opacity:0.8;fill:#000000"><tspan
       id="tspan4089-7-2-9-9"
       y="-1203.9841"
       x="345.7626" /></text>
  <text
     id="text4087-2-6-5-7-1"
     font-size="12.666px"
     xml:space="preserve"
     y="-577.29272"
     x="1831.8861"
     style="font-size:12.66600037px;font-family:'Bitstream Vera Sans';opacity:0.8;fill:#000000"><tspan
       id="tspan4089-7-2-9-1-8"
       y="-577.29272"
       x="1831.8861" /></text>
  <text
     id="text4087-2-6-5-5-5"
     font-size="12.666px"
     xml:space="preserve"
     y="-618.03448"
     x="1855.8469"
     style="font-size:12.66600037px;font-family:'Bitstream Vera Sans';opacity:0.8;fill:#000000"><tspan
       id="tspan4089-7-2-9-6-9"
       y="-618.03448"
       x="1855.8469" /></text>
  <text
     id="text4087-2-6-5-75"
     font-size="12.666px"
     xml:space="preserve"
     y="-625.24438"
     x="364.38376"
     style="font-size:12.66600037px;font-family:'Bitstream Vera Sans';opacity:0.8;fill:#000000"><tspan
       id="tspan4089-7-2-9-3"
       y="-625.24438"
       x="364.38376" /></text>
  <text
     id="text4087-2-6-5-4-8"
     font-size="12.666px"
     xml:space="preserve"
     y="-898.47839"
     x="1824.9266"
     style="font-size:12.66600037px;font-family:'Bitstream Vera Sans';opacity:0.8;fill:#000000"><tspan
       id="tspan4089-7-2-9-9-8"
       y="-898.47839"
       x="1824.9266" /></text>
  <text
     id="text4087-2-6-5-45"
     font-size="12.666px"
     xml:space="preserve"
     y="-673.33569"
     x="-573.43256"
     style="font-size:12.66600037px;font-family:'Bitstream Vera Sans';opacity:0.8;fill:#000000"><tspan
       id="tspan4089-7-2-9-75"
       y="-673.33569"
       x="-573.43256" /></text>
  <text
     id="text4087-2-6-5-59-7"
     font-size="12.666px"
     xml:space="preserve"
     y="72.217857"
     x="-2397.1182"
     style="font-size:12.66600037px;font-family:'Bitstream Vera Sans';opacity:0.8;fill:#000000"><tspan
       id="tspan4089-7-2-9-4-0"
       y="72.217857"
       x="-2397.1182" /></text>
  <text
     id="text4087-2-6-5-8"
     font-size="12.666px"
     xml:space="preserve"
     y="165.09"
     x="-682.36279"
     style="font-size:12.66600037px;font-family:'Bitstream Vera Sans';opacity:0.8;fill:#000000"><tspan
       id="tspan4089-7-2-9-19"
       y="165.09"
       x="-682.36279" /></text>
  <text
     id="text4087-2-6-5-7-5"
     font-size="12.666px"
     xml:space="preserve"
     y="-14.092148"
     x="426.66153"
     style="font-size:12.66600037px;font-family:'Bitstream Vera Sans';opacity:0.8;fill:#000000"><tspan
       id="tspan4089-7-2-9-1-2"
       y="-14.092148"
       x="426.66153" /></text>
  <text
     id="text4087-2-6-5-5-0"
     font-size="12.666px"
     xml:space="preserve"
     y="-54.833855"
     x="450.62247"
     style="font-size:12.66600037px;font-family:'Bitstream Vera Sans';opacity:0.8;fill:#000000"><tspan
       id="tspan4089-7-2-9-6-2"
       y="-54.833855"
       x="450.62247" /></text>
  <text
     id="text4087-2-6-5-26"
     font-size="12.666px"
     xml:space="preserve"
     y="-62.043823"
     x="-1040.8407"
     style="font-size:12.66600037px;font-family:'Bitstream Vera Sans';opacity:0.8;fill:#000000"><tspan
       id="tspan4089-7-2-9-90"
       y="-62.043823"
       x="-1040.8407" /></text>
  <text
     id="text4087-2-6-5-4-3"
     font-size="12.666px"
     xml:space="preserve"
     y="-335.27789"
     x="419.70206"
     style="font-size:12.66600037px;font-family:'Bitstream Vera Sans';opacity:0.8;fill:#000000"><tspan
       id="tspan4089-7-2-9-9-5"
       y="-335.27789"
       x="419.70206" /></text>
  <text
     id="text4087-2-6-5-55"
     font-size="12.666px"
     xml:space="preserve"
     y="-64.758072"
     x="-608.03253"
     style="font-size:12.66600037px;font-family:'Bitstream Vera Sans';opacity:0.8;fill:#000000"><tspan
       id="tspan4089-7-2-9-32"
       y="-64.758072"
       x="-608.03253" /></text>
  <text
     id="text4087-2-6-5-59-9"
     font-size="12.666px"
     xml:space="preserve"
     y="680.79541"
     x="-2431.7185"
     style="font-size:12.66600037px;font-family:'Bitstream Vera Sans';opacity:0.8;fill:#000000"><tspan
       id="tspan4089-7-2-9-4-1"
       y="680.79541"
       x="-2431.7185" /></text>
  <text
     id="text4087-2-6-5-1-8"
     font-size="12.666px"
     xml:space="preserve"
     y="-926.28857"
     x="-456.93948"
     style="font-size:12.66600037px;font-family:'Bitstream Vera Sans';opacity:0.8;fill:#000000"><tspan
       id="tspan4089-7-2-9-7-8"
       y="-926.28857"
       x="-456.93948" /></text>
  <text
     id="text4087-2-6-5-7-8"
     font-size="12.666px"
     xml:space="preserve"
     y="-1339.7588"
     x="350.66266"
     style="font-size:12.66600037px;font-family:'Bitstream Vera Sans';opacity:0.8;fill:#000000"><tspan
       id="tspan4089-7-2-9-1-9"
       y="-1339.7588"
       x="350.66266" /></text>
  <text
     id="text4087-2-6-5-5-52"
     font-size="12.666px"
     xml:space="preserve"
     y="-1380.5005"
     x="374.62357"
     style="font-size:12.66600037px;font-family:'Bitstream Vera Sans';opacity:0.8;fill:#000000"><tspan
       id="tspan4089-7-2-9-6-4"
       y="-1380.5005"
       x="374.62357" /></text>
  <text
     id="text4087-2-6-5-3-4"
     font-size="12.666px"
     xml:space="preserve"
     y="-1387.7104"
     x="-1116.8396"
     style="font-size:12.66600037px;font-family:'Bitstream Vera Sans';opacity:0.8;fill:#000000"><tspan
       id="tspan4089-7-2-9-18-3"
       y="-1387.7104"
       x="-1116.8396" /></text>
  <text
     id="text4087-2-6-5-4-7"
     font-size="12.666px"
     xml:space="preserve"
     y="-1660.9446"
     x="343.70316"
     style="font-size:12.66600037px;font-family:'Bitstream Vera Sans';opacity:0.8;fill:#000000"><tspan
       id="tspan4089-7-2-9-9-54"
       y="-1660.9446"
       x="343.70316" /></text>
  <text
     id="text4087-2-6-5-7-1-2"
     font-size="12.666px"
     xml:space="preserve"
     y="-1034.2533"
     x="1829.8265"
     style="font-size:12.66600037px;font-family:'Bitstream Vera Sans';opacity:0.8;fill:#000000"><tspan
       id="tspan4089-7-2-9-1-8-0"
       y="-1034.2533"
       x="1829.8265" /></text>
  <text
     id="text4087-2-6-5-5-5-6"
     font-size="12.666px"
     xml:space="preserve"
     y="-1074.9949"
     x="1853.7874"
     style="font-size:12.66600037px;font-family:'Bitstream Vera Sans';opacity:0.8;fill:#000000"><tspan
       id="tspan4089-7-2-9-6-9-8"
       y="-1074.9949"
       x="1853.7874" /></text>
  <text
     id="text4087-2-6-5-75-4"
     font-size="12.666px"
     xml:space="preserve"
     y="-1082.2048"
     x="362.32431"
     style="font-size:12.66600037px;font-family:'Bitstream Vera Sans';opacity:0.8;fill:#000000"><tspan
       id="tspan4089-7-2-9-3-9"
       y="-1082.2048"
       x="362.32431" /></text>
  <text
     id="text4087-2-6-5-4-8-1"
     font-size="12.666px"
     xml:space="preserve"
     y="-1355.439"
     x="1822.8671"
     style="font-size:12.66600037px;font-family:'Bitstream Vera Sans';opacity:0.8;fill:#000000"><tspan
       id="tspan4089-7-2-9-9-8-8"
       y="-1355.439"
       x="1822.8671" /></text>
  <text
     id="text4087-2-6-5-45-0"
     font-size="12.666px"
     xml:space="preserve"
     y="-1130.2961"
     x="-575.492"
     style="font-size:12.66600037px;font-family:'Bitstream Vera Sans';opacity:0.8;fill:#000000"><tspan
       id="tspan4089-7-2-9-75-2"
       y="-1130.2961"
       x="-575.492" /></text>
  <text
     id="text4087-2-6-5-59-5"
     font-size="12.666px"
     xml:space="preserve"
     y="-384.74261"
     x="-2399.1777"
     style="font-size:12.66600037px;font-family:'Bitstream Vera Sans';opacity:0.8;fill:#000000"><tspan
       id="tspan4089-7-2-9-4-00"
       y="-384.74261"
       x="-2399.1777" /></text>
  <text
     id="text4087-2-6-5-264"
     font-size="12.666px"
     xml:space="preserve"
     y="-291.87045"
     x="-684.42224"
     style="font-size:12.66600037px;font-family:'Bitstream Vera Sans';opacity:0.8;fill:#000000"><tspan
       id="tspan4089-7-2-9-8"
       y="-291.87045"
       x="-684.42224" /></text>
  <text
     id="text4087-2-6-5-42"
     font-size="12.666px"
     xml:space="preserve"
     y="-50.956276"
     x="155.5923"
     style="font-size:12.66600037px;font-family:'Bitstream Vera Sans';opacity:0.8;fill:#000000"><tspan
       id="tspan4089-7-2-9-93"
       y="-50.956276"
       x="155.5923" /></text>
  <text
     id="text4087-2-6-5-5-05"
     font-size="12.666px"
     xml:space="preserve"
     y="-91.697998"
     x="179.55324"
     style="font-size:12.66600037px;font-family:'Bitstream Vera Sans';opacity:0.8;fill:#000000"><tspan
       id="tspan4089-7-2-9-6-49"
       y="-91.697998"
       x="179.55324" /></text>
  <text
     id="text4087-2-6-5-1-4"
     font-size="12.666px"
     xml:space="preserve"
     y="-285.72662"
     x="-1090.2634"
     style="font-size:12.66600037px;font-family:'Bitstream Vera Sans';opacity:0.8;fill:#000000"><tspan
       id="tspan4089-7-2-9-7-7"
       y="-285.72662"
       x="-1090.2634" /></text>
  <text
     id="text4087-2-6-5-7-56"
     font-size="12.666px"
     xml:space="preserve"
     y="-699.19678"
     x="-282.66141"
     style="font-size:12.66600037px;font-family:'Bitstream Vera Sans';opacity:0.8;fill:#000000"><tspan
       id="tspan4089-7-2-9-1-1"
       y="-699.19678"
       x="-282.66141" /></text>
  <text
     id="text4087-2-6-5-5-8"
     font-size="12.666px"
     xml:space="preserve"
     y="-739.93848"
     x="-258.70047"
     style="font-size:12.66600037px;font-family:'Bitstream Vera Sans';opacity:0.8;fill:#000000"><tspan
       id="tspan4089-7-2-9-6-7"
       y="-739.93848"
       x="-258.70047" /></text>
  <text
     id="text4087-2-6-5-3-42"
     font-size="12.666px"
     xml:space="preserve"
     y="-747.14838"
     x="-1750.1636"
     style="font-size:12.66600037px;font-family:'Bitstream Vera Sans';opacity:0.8;fill:#000000"><tspan
       id="tspan4089-7-2-9-18-39"
       y="-747.14838"
       x="-1750.1636" /></text>
  <text
     id="text4087-2-6-5-4-4"
     font-size="12.666px"
     xml:space="preserve"
     y="-1020.3825"
     x="-289.62085"
     style="font-size:12.66600037px;font-family:'Bitstream Vera Sans';opacity:0.8;fill:#000000"><tspan
       id="tspan4089-7-2-9-9-3"
       y="-1020.3825"
       x="-289.62085" /></text>
  <text
     id="text4087-2-6-5-7-1-0"
     font-size="12.666px"
     xml:space="preserve"
     y="-393.69113"
     x="1196.5026"
     style="font-size:12.66600037px;font-family:'Bitstream Vera Sans';opacity:0.8;fill:#000000"><tspan
       id="tspan4089-7-2-9-1-8-5"
       y="-393.69113"
       x="1196.5026" /></text>
  <text
     id="text4087-2-6-5-5-5-5"
     font-size="12.666px"
     xml:space="preserve"
     y="-434.43286"
     x="1220.4634"
     style="font-size:12.66600037px;font-family:'Bitstream Vera Sans';opacity:0.8;fill:#000000"><tspan
       id="tspan4089-7-2-9-6-9-2"
       y="-434.43286"
       x="1220.4634" /></text>
  <text
     id="text4087-2-6-5-75-9"
     font-size="12.666px"
     xml:space="preserve"
     y="-441.64282"
     x="-270.99973"
     style="font-size:12.66600037px;font-family:'Bitstream Vera Sans';opacity:0.8;fill:#000000"><tspan
       id="tspan4089-7-2-9-3-1"
       y="-441.64282"
       x="-270.99973" /></text>
  <text
     id="text4087-2-6-5-4-8-18"
     font-size="12.666px"
     xml:space="preserve"
     y="-714.87689"
     x="1189.5431"
     style="font-size:12.66600037px;font-family:'Bitstream Vera Sans';opacity:0.8;fill:#000000"><tspan
       id="tspan4089-7-2-9-9-8-4"
       y="-714.87689"
       x="1189.5431" /></text>
  <text
     id="text4087-2-6-5-45-3"
     font-size="12.666px"
     xml:space="preserve"
     y="-489.7341"
     x="-1208.816"
     style="font-size:12.66600037px;font-family:'Bitstream Vera Sans';opacity:0.8;fill:#000000"><tspan
       id="tspan4089-7-2-9-75-7"
       y="-489.7341"
       x="-1208.816" /></text>
  <text
     id="text4087-2-6-5-59-8"
     font-size="12.666px"
     xml:space="preserve"
     y="255.81946"
     x="-3032.5017"
     style="font-size:12.66600037px;font-family:'Bitstream Vera Sans';opacity:0.8;fill:#000000"><tspan
       id="tspan4089-7-2-9-4-2"
       y="255.81946"
       x="-3032.5017" /></text>
  <g
     id="layer4-0"
     transform="matrix(0.90475,0,0,0.90475,-716.75,-700.29)">
    <text
       id="text4087-2-6-5-20"
       font-size="14px"
       xml:space="preserve"
       y="1159.4154"
       x="-664.2738"
       style="font-size:14px;font-family:'Bitstream Vera Sans';opacity:0.8;fill:#000000"><tspan
         id="tspan4089-7-2-9-82"
         y="1159.4154"
         x="-664.2738" /></text>
  </g>
  <text
     id="text4087-2-6-5-9"
     font-size="12.666px"
     xml:space="preserve"
     y="-5.9494114"
     x="877.22626"
     style="font-size:12.66600037px;font-family:'Bitstream Vera Sans';opacity:0.8;fill:#000000"><tspan
       id="tspan4089-7-2-9-43"
       y="-5.9494114"
       x="877.22626" /></text>
  <text
     id="text4087-2-6-5-5-51"
     font-size="12.666px"
     xml:space="preserve"
     y="-46.691116"
     x="901.18719"
     style="font-size:12.66600037px;font-family:'Bitstream Vera Sans';opacity:0.8;fill:#000000"><tspan
       id="tspan4089-7-2-9-6-74"
       y="-46.691116"
       x="901.18719" /></text>
  <text
     id="text4087-2-6-5-2-3"
     font-size="12.666px"
     xml:space="preserve"
     y="-76.769257"
     x="-569.37115"
     style="font-size:12.66600037px;font-family:'Bitstream Vera Sans';opacity:0.8;fill:#000000"><tspan
       id="tspan4089-7-2-9-2-1"
       y="-76.769257"
       x="-569.37115" /></text>
  <text
     id="text4087-2-6-5-59-4"
     font-size="12.666px"
     xml:space="preserve"
     y="668.78418"
     x="-2393.0571"
     style="font-size:12.66600037px;font-family:'Bitstream Vera Sans';opacity:0.8;fill:#000000"><tspan
       id="tspan4089-7-2-9-4-6"
       y="668.78418"
       x="-2393.0571" /></text>
  <text
     id="text4087-2-6-5-1-9"
     font-size="12.666px"
     xml:space="preserve"
     y="-462.09021"
     x="-454.88007"
     style="font-size:12.66600037px;font-family:'Bitstream Vera Sans';opacity:0.8;fill:#000000"><tspan
       id="tspan4089-7-2-9-7-4"
       y="-462.09021"
       x="-454.88007" /></text>
  <text
     id="text4087-2-6-5-7-2"
     font-size="12.666px"
     xml:space="preserve"
     y="-875.5603"
     x="352.72208"
     style="font-size:12.66600037px;font-family:'Bitstream Vera Sans';opacity:0.8;fill:#000000"><tspan
       id="tspan4089-7-2-9-1-26"
       y="-875.5603"
       x="352.72208" /></text>
  <text
     id="text4087-2-6-5-5-3-4"
     font-size="12.666px"
     xml:space="preserve"
     y="-916.30206"
     x="376.68301"
     style="font-size:12.66600037px;font-family:'Bitstream Vera Sans';opacity:0.8;fill:#000000"><tspan
       id="tspan4089-7-2-9-6-5-1"
       y="-916.30206"
       x="376.68301" /></text>
  <text
     id="text4087-2-6-5-3-2"
     font-size="12.666px"
     xml:space="preserve"
     y="-923.51196"
     x="-1114.7802"
     style="font-size:12.66600037px;font-family:'Bitstream Vera Sans';opacity:0.8;fill:#000000"><tspan
       id="tspan4089-7-2-9-18-8"
       y="-923.51196"
       x="-1114.7802" /></text>
  <text
     id="text4087-2-6-5-4-89"
     font-size="12.666px"
     xml:space="preserve"
     y="-1196.7461"
     x="345.7626"
     style="font-size:12.66600037px;font-family:'Bitstream Vera Sans';opacity:0.8;fill:#000000"><tspan
       id="tspan4089-7-2-9-9-2"
       y="-1196.7461"
       x="345.7626" /></text>
  <text
     id="text4087-2-6-5-7-1-8"
     font-size="12.666px"
     xml:space="preserve"
     y="-570.05475"
     x="1831.8861"
     style="font-size:12.66600037px;font-family:'Bitstream Vera Sans';opacity:0.8;fill:#000000"><tspan
       id="tspan4089-7-2-9-1-8-8"
       y="-570.05475"
       x="1831.8861" /></text>
  <text
     id="text4087-2-6-5-5-5-8"
     font-size="12.666px"
     xml:space="preserve"
     y="-610.79651"
     x="1855.8469"
     style="font-size:12.66600037px;font-family:'Bitstream Vera Sans';opacity:0.8;fill:#000000"><tspan
       id="tspan4089-7-2-9-6-9-6"
       y="-610.79651"
       x="1855.8469" /></text>
  <text
     id="text4087-2-6-5-75-8"
     font-size="12.666px"
     xml:space="preserve"
     y="-618.00641"
     x="364.38376"
     style="font-size:12.66600037px;font-family:'Bitstream Vera Sans';opacity:0.8;fill:#000000"><tspan
       id="tspan4089-7-2-9-3-3"
       y="-618.00641"
       x="364.38376" /></text>
  <text
     id="text4087-2-6-5-4-8-8"
     font-size="12.666px"
     xml:space="preserve"
     y="-891.24036"
     x="1824.9266"
     style="font-size:12.66600037px;font-family:'Bitstream Vera Sans';opacity:0.8;fill:#000000"><tspan
       id="tspan4089-7-2-9-9-8-3"
       y="-891.24036"
       x="1824.9266" /></text>
  <text
     id="text4087-2-6-5-45-33"
     font-size="12.666px"
     xml:space="preserve"
     y="-666.09772"
     x="-573.43256"
     style="font-size:12.66600037px;font-family:'Bitstream Vera Sans';opacity:0.8;fill:#000000"><tspan
       id="tspan4089-7-2-9-75-8"
       y="-666.09772"
       x="-573.43256" /></text>
  <text
     id="text4087-2-6-5-59-7-0"
     font-size="12.666px"
     xml:space="preserve"
     y="79.455849"
     x="-2397.1182"
     style="font-size:12.66600037px;font-family:'Bitstream Vera Sans';opacity:0.8;fill:#000000"><tspan
       id="tspan4089-7-2-9-4-0-4"
       y="79.455849"
       x="-2397.1182" /></text>
  <text
     id="text4087-2-6-5-8-7"
     font-size="12.666px"
     xml:space="preserve"
     y="172.32799"
     x="-682.36279"
     style="font-size:12.66600037px;font-family:'Bitstream Vera Sans';opacity:0.8;fill:#000000"><tspan
       id="tspan4089-7-2-9-19-6"
       y="172.32799"
       x="-682.36279" /></text>
  <text
     id="text4087-2-6-5-7-5-8"
     font-size="12.666px"
     xml:space="preserve"
     y="-6.8541603"
     x="426.66153"
     style="font-size:12.66600037px;font-family:'Bitstream Vera Sans';opacity:0.8;fill:#000000"><tspan
       id="tspan4089-7-2-9-1-2-9"
       y="-6.8541603"
       x="426.66153" /></text>
  <text
     id="text4087-2-6-5-5-0-0"
     font-size="12.666px"
     xml:space="preserve"
     y="-47.595863"
     x="450.62247"
     style="font-size:12.66600037px;font-family:'Bitstream Vera Sans';opacity:0.8;fill:#000000"><tspan
       id="tspan4089-7-2-9-6-2-6"
       y="-47.595863"
       x="450.62247" /></text>
  <text
     id="text4087-2-6-5-26-8"
     font-size="12.666px"
     xml:space="preserve"
     y="-54.805836"
     x="-1040.8407"
     style="font-size:12.66600037px;font-family:'Bitstream Vera Sans';opacity:0.8;fill:#000000"><tspan
       id="tspan4089-7-2-9-90-7"
       y="-54.805836"
       x="-1040.8407" /></text>
  <text
     id="text4087-2-6-5-4-3-9"
     font-size="12.666px"
     xml:space="preserve"
     y="-328.03989"
     x="419.70206"
     style="font-size:12.66600037px;font-family:'Bitstream Vera Sans';opacity:0.8;fill:#000000"><tspan
       id="tspan4089-7-2-9-9-5-0"
       y="-328.03989"
       x="419.70206" /></text>
  <text
     id="text4087-2-6-5-55-3"
     font-size="12.666px"
     xml:space="preserve"
     y="-57.520081"
     x="-608.03253"
     style="font-size:12.66600037px;font-family:'Bitstream Vera Sans';opacity:0.8;fill:#000000"><tspan
       id="tspan4089-7-2-9-32-3"
       y="-57.520081"
       x="-608.03253" /></text>
  <text
     id="text4087-2-6-5-59-9-3"
     font-size="12.666px"
     xml:space="preserve"
     y="688.03345"
     x="-2431.7185"
     style="font-size:12.66600037px;font-family:'Bitstream Vera Sans';opacity:0.8;fill:#000000"><tspan
       id="tspan4089-7-2-9-4-1-7"
       y="688.03345"
       x="-2431.7185" /></text>
  <text
     id="text4087-2-6-5-1-8-3"
     font-size="12.666px"
     xml:space="preserve"
     y="-919.0506"
     x="-456.93948"
     style="font-size:12.66600037px;font-family:'Bitstream Vera Sans';opacity:0.8;fill:#000000"><tspan
       id="tspan4089-7-2-9-7-8-2"
       y="-919.0506"
       x="-456.93948" /></text>
  <text
     id="text4087-2-6-5-7-8-6"
     font-size="12.666px"
     xml:space="preserve"
     y="-1332.5208"
     x="350.66266"
     style="font-size:12.66600037px;font-family:'Bitstream Vera Sans';opacity:0.8;fill:#000000"><tspan
       id="tspan4089-7-2-9-1-9-5"
       y="-1332.5208"
       x="350.66266" /></text>
  <text
     id="text4087-2-6-5-5-52-2"
     font-size="12.666px"
     xml:space="preserve"
     y="-1373.2626"
     x="374.62357"
     style="font-size:12.66600037px;font-family:'Bitstream Vera Sans';opacity:0.8;fill:#000000"><tspan
       id="tspan4089-7-2-9-6-4-6"
       y="-1373.2626"
       x="374.62357" /></text>
  <text
     id="text4087-2-6-5-3-4-5"
     font-size="12.666px"
     xml:space="preserve"
     y="-1380.4724"
     x="-1116.8396"
     style="font-size:12.66600037px;font-family:'Bitstream Vera Sans';opacity:0.8;fill:#000000"><tspan
       id="tspan4089-7-2-9-18-3-8"
       y="-1380.4724"
       x="-1116.8396" /></text>
  <text
     id="text4087-2-6-5-4-7-7"
     font-size="12.666px"
     xml:space="preserve"
     y="-1653.7065"
     x="343.70316"
     style="font-size:12.66600037px;font-family:'Bitstream Vera Sans';opacity:0.8;fill:#000000"><tspan
       id="tspan4089-7-2-9-9-54-9"
       y="-1653.7065"
       x="343.70316" /></text>
  <text
     id="text4087-2-6-5-7-1-2-6"
     font-size="12.666px"
     xml:space="preserve"
     y="-1027.0154"
     x="1829.8265"
     style="font-size:12.66600037px;font-family:'Bitstream Vera Sans';opacity:0.8;fill:#000000"><tspan
       id="tspan4089-7-2-9-1-8-0-0"
       y="-1027.0154"
       x="1829.8265" /></text>
  <text
     id="text4087-2-6-5-5-5-6-4"
     font-size="12.666px"
     xml:space="preserve"
     y="-1067.757"
     x="1853.7874"
     style="font-size:12.66600037px;font-family:'Bitstream Vera Sans';opacity:0.8;fill:#000000"><tspan
       id="tspan4089-7-2-9-6-9-8-1"
       y="-1067.757"
       x="1853.7874" /></text>
  <text
     id="text4087-2-6-5-75-4-0"
     font-size="12.666px"
     xml:space="preserve"
     y="-1074.9668"
     x="362.32431"
     style="font-size:12.66600037px;font-family:'Bitstream Vera Sans';opacity:0.8;fill:#000000"><tspan
       id="tspan4089-7-2-9-3-9-4"
       y="-1074.9668"
       x="362.32431" /></text>
  <text
     id="text4087-2-6-5-4-8-1-8"
     font-size="12.666px"
     xml:space="preserve"
     y="-1348.2009"
     x="1822.8671"
     style="font-size:12.66600037px;font-family:'Bitstream Vera Sans';opacity:0.8;fill:#000000"><tspan
       id="tspan4089-7-2-9-9-8-8-7"
       y="-1348.2009"
       x="1822.8671" /></text>
  <text
     id="text4087-2-6-5-45-0-0"
     font-size="12.666px"
     xml:space="preserve"
     y="-1123.0581"
     x="-575.492"
     style="font-size:12.66600037px;font-family:'Bitstream Vera Sans';opacity:0.8;fill:#000000"><tspan
       id="tspan4089-7-2-9-75-2-8"
       y="-1123.0581"
       x="-575.492" /></text>
  <text
     id="text4087-2-6-5-59-5-6"
     font-size="12.666px"
     xml:space="preserve"
     y="-377.50461"
     x="-2399.1777"
     style="font-size:12.66600037px;font-family:'Bitstream Vera Sans';opacity:0.8;fill:#000000"><tspan
       id="tspan4089-7-2-9-4-00-2"
       y="-377.50461"
       x="-2399.1777" /></text>
  <text
     id="text4087-2-6-5-264-4"
     font-size="12.666px"
     xml:space="preserve"
     y="-284.63245"
     x="-684.42224"
     style="font-size:12.66600037px;font-family:'Bitstream Vera Sans';opacity:0.8;fill:#000000"><tspan
       id="tspan4089-7-2-9-8-7"
       y="-284.63245"
       x="-684.42224" /></text>
  <text
     id="text4087-2-6-5-42-9"
     font-size="12.666px"
     xml:space="preserve"
     y="-43.718292"
     x="155.5923"
     style="font-size:12.66600037px;font-family:'Bitstream Vera Sans';opacity:0.8;fill:#000000"><tspan
       id="tspan4089-7-2-9-93-3"
       y="-43.718292"
       x="155.5923" /></text>
  <text
     id="text4087-2-6-5-5-05-9"
     font-size="12.666px"
     xml:space="preserve"
     y="-84.460007"
     x="179.55324"
     style="font-size:12.66600037px;font-family:'Bitstream Vera Sans';opacity:0.8;fill:#000000"><tspan
       id="tspan4089-7-2-9-6-49-2"
       y="-84.460007"
       x="179.55324" /></text>
  <text
     id="text4087-2-6-5-1-4-8"
     font-size="12.666px"
     xml:space="preserve"
     y="-278.48859"
     x="-1090.2634"
     style="font-size:12.66600037px;font-family:'Bitstream Vera Sans';opacity:0.8;fill:#000000"><tspan
       id="tspan4089-7-2-9-7-7-3"
       y="-278.48859"
       x="-1090.2634" /></text>
  <text
     id="text4087-2-6-5-7-56-0"
     font-size="12.666px"
     xml:space="preserve"
     y="-691.9588"
     x="-282.66141"
     style="font-size:12.66600037px;font-family:'Bitstream Vera Sans';opacity:0.8;fill:#000000"><tspan
       id="tspan4089-7-2-9-1-1-1"
       y="-691.9588"
       x="-282.66141" /></text>
  <text
     id="text4087-2-6-5-5-8-7"
     font-size="12.666px"
     xml:space="preserve"
     y="-732.7005"
     x="-258.70047"
     style="font-size:12.66600037px;font-family:'Bitstream Vera Sans';opacity:0.8;fill:#000000"><tspan
       id="tspan4089-7-2-9-6-7-8"
       y="-732.7005"
       x="-258.70047" /></text>
  <text
     id="text4087-2-6-5-3-42-9"
     font-size="12.666px"
     xml:space="preserve"
     y="-739.91046"
     x="-1750.1636"
     style="font-size:12.66600037px;font-family:'Bitstream Vera Sans';opacity:0.8;fill:#000000"><tspan
       id="tspan4089-7-2-9-18-39-1"
       y="-739.91046"
       x="-1750.1636" /></text>
  <text
     id="text4087-2-6-5-4-4-5"
     font-size="12.666px"
     xml:space="preserve"
     y="-1013.1445"
     x="-289.62085"
     style="font-size:12.66600037px;font-family:'Bitstream Vera Sans';opacity:0.8;fill:#000000"><tspan
       id="tspan4089-7-2-9-9-3-4"
       y="-1013.1445"
       x="-289.62085" /></text>
  <text
     id="text4087-2-6-5-7-1-0-9"
     font-size="12.666px"
     xml:space="preserve"
     y="-386.45316"
     x="1196.5026"
     style="font-size:12.66600037px;font-family:'Bitstream Vera Sans';opacity:0.8;fill:#000000"><tspan
       id="tspan4089-7-2-9-1-8-5-2"
       y="-386.45316"
       x="1196.5026" /></text>
  <text
     id="text4087-2-6-5-5-5-5-5"
     font-size="12.666px"
     xml:space="preserve"
     y="-427.19489"
     x="1220.4634"
     style="font-size:12.66600037px;font-family:'Bitstream Vera Sans';opacity:0.8;fill:#000000"><tspan
       id="tspan4089-7-2-9-6-9-2-7"
       y="-427.19489"
       x="1220.4634" /></text>
  <text
     id="text4087-2-6-5-75-9-4"
     font-size="12.666px"
     xml:space="preserve"
     y="-434.40482"
     x="-270.99973"
     style="font-size:12.66600037px;font-family:'Bitstream Vera Sans';opacity:0.8;fill:#000000"><tspan
       id="tspan4089-7-2-9-3-1-9"
       y="-434.40482"
       x="-270.99973" /></text>
  <text
     id="text4087-2-6-5-4-8-18-9"
     font-size="12.666px"
     xml:space="preserve"
     y="-707.63892"
     x="1189.5431"
     style="font-size:12.66600037px;font-family:'Bitstream Vera Sans';opacity:0.8;fill:#000000"><tspan
       id="tspan4089-7-2-9-9-8-4-4"
       y="-707.63892"
       x="1189.5431" /></text>
  <text
     id="text4087-2-6-5-45-3-5"
     font-size="12.666px"
     xml:space="preserve"
     y="-482.49609"
     x="-1208.816"
     style="font-size:12.66600037px;font-family:'Bitstream Vera Sans';opacity:0.8;fill:#000000"><tspan
       id="tspan4089-7-2-9-75-7-9"
       y="-482.49609"
       x="-1208.816" /></text>
  <text
     id="text4087-2-6-5-59-8-3"
     font-size="12.666px"
     xml:space="preserve"
     y="263.05743"
     x="-3032.5017"
     style="font-size:12.66600037px;font-family:'Bitstream Vera Sans';opacity:0.8;fill:#000000"><tspan
       id="tspan4089-7-2-9-4-2-5"
       y="263.05743"
       x="-3032.5017" /></text>
  <g
     id="layer4-0-7"
     transform="matrix(0.90475,0,0,0.90475,-716.75,-693.05)">
    <text
       id="text4087-2-6-5-20-0"
       font-size="14px"
       xml:space="preserve"
       y="1159.4154"
       x="-664.2738"
       style="font-size:14px;font-family:'Bitstream Vera Sans';opacity:0.8;fill:#000000"><tspan
         id="tspan4089-7-2-9-82-8"
         y="1159.4154"
         x="-664.2738" /></text>
  </g>
  <text
     id="text7276"
     font-size="12.666px"
     xml:space="preserve"
     y="-385.22546"
     x="435.90427"
     style="font-size:12.66600037px;font-family:'Droid Sans';fill:#000000"><tspan
       id="tspan7278"
       y="-385.22546"
       x="435.90427" /><tspan
       id="tspan7280"
       y="-369.3924"
       x="435.90427" /></text>
  <text
     id="text4087-2-6-5-51"
     font-size="12.666px"
     xml:space="preserve"
     y="-867.27002"
     x="901.0882"
     style="font-size:12.66600037px;font-family:'Bitstream Vera Sans';opacity:0.8;fill:#000000"><tspan
       id="tspan4089-7-2-9-97"
       y="-867.27002"
       x="901.0882" /></text>
  <text
     id="text4087-2-6-5-59-2"
     font-size="12.666px"
     xml:space="preserve"
     y="-121.71655"
     x="-922.59778"
     style="font-size:12.66600037px;font-family:'Bitstream Vera Sans';opacity:0.8;fill:#000000"><tspan
       id="tspan4089-7-2-9-4-4"
       y="-121.71655"
       x="-922.59778" /></text>
  <text
     id="text4087-2-6-5-7-7"
     font-size="12.666px"
     xml:space="preserve"
     y="-1152.2659"
     x="1628.1677"
     style="font-size:12.66600037px;font-family:'Bitstream Vera Sans';opacity:0.8;fill:#000000"><tspan
       id="tspan4089-7-2-9-1-6"
       y="-1152.2659"
       x="1628.1677" /></text>
  <text
     id="text4087-2-6-5-5-6"
     font-size="12.666px"
     xml:space="preserve"
     y="-1193.0076"
     x="1652.1285"
     style="font-size:12.66600037px;font-family:'Bitstream Vera Sans';opacity:0.8;fill:#000000"><tspan
       id="tspan4089-7-2-9-6-53"
       y="-1193.0076"
       x="1652.1285" /></text>
  <text
     id="text4087-2-6-5-54"
     font-size="12.666px"
     xml:space="preserve"
     y="-1200.2175"
     x="160.66542"
     style="font-size:12.66600037px;font-family:'Bitstream Vera Sans';opacity:0.8;fill:#000000"><tspan
       id="tspan4089-7-2-9-0"
       y="-1200.2175"
       x="160.66542" /></text>
  <text
     id="text4087-2-6-5-4-1"
     font-size="12.666px"
     xml:space="preserve"
     y="-1473.4517"
     x="1621.2083"
     style="font-size:12.66600037px;font-family:'Bitstream Vera Sans';opacity:0.8;fill:#000000"><tspan
       id="tspan4089-7-2-9-9-28"
       y="-1473.4517"
       x="1621.2083" /></text>
  <g
     id="g4343"
     transform="translate(1.0000002,1)">
    <path
       style="opacity:1;fill:#ffffff"
       inkscape:connector-curvature="0"
       d="m 12.473226,18.859237 c -0.44553,-0.269533 -0.729832,-0.738448 -1.967963,-3.240555 -0.6842946,-1.38582 -1.3365896,-2.616566 -1.4485876,-2.734718 -0.125536,-0.13292 -1.158132,-0.681833 -2.700257,-1.43505 -3.046958,-1.4867411 -3.356245,-1.7230441 -3.356245,-2.5661051 0,-0.392608 0.191873,-0.769217 0.492668,-0.964905 0.103375,-0.06736 3.289169,-1.207215 7.0793746,-2.532876 6.65969,-2.3291873 6.907316,-2.4093088 7.3622,-2.381494 0.393703,0.024 0.507757,0.063999 0.696885,0.2443647 0.283564,0.2704318 0.411119,0.6453173 0.355932,1.0460853 -0.05937,0.430786 -4.840647,13.9369691 -5.01849,14.1757341 -0.379218,0.509824 -1.022676,0.677809 -1.495972,0.390541 z"
       id="path4193" />
    <circle
       r="2"
       cy="16"
       cx="6"
       id="path4369"
       style="opacity:1;fill:#5294e2;fill-opacity:1;stroke:none;stroke-width:2;stroke-linecap:butt;stroke-linejoin:miter;stroke-miterlimit:4;stroke-dasharray:none;stroke-opacity:1" />
  </g>
</svg>
