<?xml version="1.0" encoding="UTF-8" standalone="no"?>
<svg
   xmlns:dc="http://purl.org/dc/elements/1.1/"
   xmlns:cc="http://creativecommons.org/ns#"
   xmlns:rdf="http://www.w3.org/1999/02/22-rdf-syntax-ns#"
   xmlns:svg="http://www.w3.org/2000/svg"
   xmlns="http://www.w3.org/2000/svg"
   xmlns:xlink="http://www.w3.org/1999/xlink"
   xmlns:sodipodi="http://sodipodi.sourceforge.net/DTD/sodipodi-0.dtd"
   xmlns:inkscape="http://www.inkscape.org/namespaces/inkscape"
   height="22"
   width="22"
   version="1.1"
   id="svg12"
   sodipodi:docname="uninstall.svg"
   inkscape:version="0.92.4 (unknown)"
   inkscape:export-filename="/home/rizmut/Dokumen/Rizmut/Github/karasa-jaga-icon-theme/build/Karasa-Jaga/22x22/status/uninstall.png"
   inkscape:export-xdpi="96"
   inkscape:export-ydpi="96">
  <metadata
     id="metadata18">
    <rdf:RDF>
      <cc:Work
         rdf:about="">
        <dc:format>image/svg+xml</dc:format>
        <dc:type
           rdf:resource="http://purl.org/dc/dcmitype/StillImage" />
        <dc:title />
      </cc:Work>
    </rdf:RDF>
  </metadata>
  <defs
     id="defs16">
    <linearGradient
       inkscape:collect="always"
       id="linearGradient878">
      <stop
         style="stop-color:#ffffff;stop-opacity:1;"
         offset="0"
         id="stop874" />
      <stop
         style="stop-color:#ffffff;stop-opacity:0.94444442"
         offset="1"
         id="stop876" />
    </linearGradient>
    <radialGradient
       inkscape:collect="always"
       xlink:href="#linearGradient878"
       id="radialGradient880"
       cx="10.873831"
       cy="2.48757"
       fx="10.873831"
       fy="2.48757"
       r="9.0039061"
       gradientUnits="userSpaceOnUse"
       gradientTransform="matrix(1.5548807,-0.05553145,0.03569153,0.99936285,-6.4962945,0.61785459)" />
    <radialGradient
       inkscape:collect="always"
       xlink:href="#linearGradient878"
       id="radialGradient1018"
       cx="17"
       cy="17"
       fx="17"
       fy="17"
       r="3"
       gradientUnits="userSpaceOnUse" />
    <filter
       inkscape:collect="always"
       style="color-interpolation-filters:sRGB"
       id="filter881"
       x="-0.072"
       width="1.144"
       y="-0.072"
       height="1.144">
      <feGaussianBlur
         inkscape:collect="always"
         stdDeviation="0.6"
         id="feGaussianBlur883" />
    </filter>
  </defs>
  <sodipodi:namedview
     pagecolor="#ffffff"
     bordercolor="#666666"
     borderopacity="1"
     objecttolerance="10"
     gridtolerance="10"
     guidetolerance="10"
     inkscape:pageopacity="0"
     inkscape:pageshadow="2"
     inkscape:window-width="1366"
     inkscape:window-height="705"
     id="namedview14"
     showgrid="true"
     inkscape:pagecheckerboard="true"
     inkscape:snap-global="false"
     inkscape:zoom="16.000001"
     inkscape:cx="11.830482"
     inkscape:cy="9.6187641"
     inkscape:window-x="0"
     inkscape:window-y="0"
     inkscape:window-maximized="1"
     inkscape:current-layer="svg12">
    <inkscape:grid
       type="xygrid"
       id="grid828" />
  </sodipodi:namedview>
  <path
     style="fill:#0a0a0a;fill-opacity:1;stroke-width:1.12538326;filter:url(#filter881)"
     d="M 10.998047 1 C 8.2395567 1.0037795 5.5714198 2.2805348 3.6972656 4.296875 L 2.8867188 2.6777344 C 2.4161168 1.7391643 1.0012541 2.0730942 1 3.1230469 L 1 9.3125 C 1.0004675 9.6556811 1.1775834 9.9745301 1.46875 10.15625 C 1.1775831 10.338045 1.0004675 10.656781 1 11 C 0.99975554 13.618116 2.0764685 16.220978 3.9277344 18.072266 C 5.779 19.923517 8.3819151 21.000227 11 21 L 11.001953 21 C 12.267336 20.998257 13.50866 20.716974 14.667969 20.230469 C 15.345151 20.71496 16.16669 20.998049 17 20.998047 C 18.037506 20.99805 19.067749 20.573867 19.806641 19.845703 C 20.366942 19.95116 20.999095 19.579551 21 18.876953 L 21 12.125 C 20.999624 11.771236 20.811527 11.443981 20.505859 11.265625 C 20.813169 11.071735 20.990556 10.725965 20.96875 10.363281 C 20.808918 7.8587022 19.665216 5.4291485 17.835938 3.7109375 C 16.006658 1.9927264 13.511634 1.0028347 11.001953 1 L 10.998047 1 z M 11 1.9960938 A 9.0030653 9.0030653 0 0 1 19.974609 10.425781 L 17.845703 9.5722656 A 7 7 0 0 0 11 4 A 7 7 0 0 0 4.0585938 10.138672 L 2.1503906 9.3730469 A 9.0030653 9.0030653 0 0 1 2.1640625 9.3125 L 1.9960938 9.3125 L 1.9960938 3.1230469 L 3.4746094 6.0761719 A 9.0030653 9.0030653 0 0 1 11 1.9960938 z M 11 5 A 6.0000001 6.0000001 0 0 1 17 11 A 6.0000001 6.0000001 0 0 1 16.632812 13.041016 C 16.277577 13.081744 15.92702 13.159999 15.591797 13.287109 L 15.556641 13.199219 C 15.820039 12.860004 15.998047 12.456579 15.998047 12 C 15.998047 10.910151 15.089849 10.001953 14 10.001953 L 14.275391 10.001953 L 12.927734 6.6289062 A 0.99850869 0.99850869 0 0 0 12 6.0019531 L 10 6.0019531 A 0.99850869 0.99850869 0 0 0 9.0722656 6.6289062 L 7.7246094 10.001953 L 8 10.001953 C 6.9101512 10.001953 6.0019531 10.910151 6.0019531 12 C 6.0019531 12.456579 6.1799611 12.860004 6.4433594 13.199219 L 6.0722656 14.128906 A 0.99850869 0.99850869 0 0 0 6.015625 14.332031 A 6.0000001 6.0000001 0 0 1 5 11 A 6.0000001 6.0000001 0 0 1 11 5 z M 10 7 L 12 7 L 13.599609 11 L 14 11 C 14.554 11 15 11.446 15 12 C 15 12.422425 14.739865 12.778783 14.371094 12.925781 L 14.695312 13.736328 A 4 4 0 0 0 13.882812 14.5 L 12.984375 14.5 L 12.449219 13 L 9.5 13 L 8.9550781 14.5 L 7 14.5 L 7.6289062 12.925781 C 7.2601348 12.778783 7 12.422425 7 12 C 7 11.446 7.4459999 11 8 11 L 8.4003906 11 L 10 7 z M 10.984375 8.9042969 L 10.224609 11 L 11.734375 11 L 10.984375 8.9042969 z M 1.9960938 11 L 4.0566406 11.824219 A 7 7 0 0 0 11 18 A 7 7 0 0 0 13.058594 17.679688 A 4 4 0 0 0 13.890625 19.513672 A 9.0030653 9.0030653 0 0 1 11 20.003906 A 9.0030653 9.0030653 0 0 1 1.9960938 11 z M 17.984375 11.318359 L 19.923828 12.09375 L 20.003906 12.125 L 20.003906 14.367188 A 4 4 0 0 0 17.671875 13.060547 A 7 7 0 0 0 17.984375 11.318359 z M 10.199219 13.998047 L 11.746094 13.998047 L 12.044922 14.835938 A 0.99850869 0.99850869 0 0 0 12.984375 15.498047 L 13.304688 15.498047 C 13.15717 15.861215 13.077549 16.246889 13.039062 16.636719 A 6.0000001 6.0000001 0 0 1 11 17 A 6.0000001 6.0000001 0 0 1 7.0371094 15.498047 L 8.9550781 15.498047 A 0.99850869 0.99850869 0 0 0 9.8925781 14.841797 L 10.199219 13.998047 z M 17 14 A 2.9999907 2.9999907 0 0 1 20 17 A 2.9999907 2.9999907 0 0 1 17 20 A 2.9999907 2.9999907 0 0 1 14 17 A 2.9999907 2.9999907 0 0 1 17 14 z M 15.939453 15.232422 L 15.232422 15.939453 L 16.292969 17 L 15.232422 18.060547 L 15.939453 18.767578 L 17 17.707031 L 18.060547 18.767578 L 18.767578 18.060547 L 17.707031 17 L 18.767578 15.939453 L 18.060547 15.232422 L 17 16.292969 L 15.939453 15.232422 z "
     id="path820" />
  <path
     style="fill:url(#radialGradient880);fill-opacity:1;stroke-width:1.12538326"
     d="M 11 1.9960938 A 9.0030653 9.0030653 0 0 0 3.4746094 6.0761719 L 1.9960938 3.1230469 L 1.9960938 9.3125 L 2.1640625 9.3125 A 9.0030653 9.0030653 0 0 0 2.1503906 9.3730469 L 4.0585938 10.138672 A 7 7 0 0 1 11 4 A 7 7 0 0 1 17.845703 9.5722656 L 19.974609 10.425781 A 9.0030653 9.0030653 0 0 0 11 1.9960938 z M 10 7 L 8.4003906 11 L 8 11 C 7.4459999 11 7 11.446 7 12 C 7 12.422425 7.2601348 12.778783 7.6289062 12.925781 L 7 14.5 L 8.9550781 14.5 L 9.5 13 L 12.449219 13 L 12.984375 14.5 L 13.882812 14.5 A 4 4 0 0 1 14.695312 13.736328 L 14.371094 12.925781 C 14.739865 12.778783 15 12.422425 15 12 C 15 11.446 14.554 11 14 11 L 13.599609 11 L 12 7 L 10 7 z M 10.984375 8.9042969 L 11.734375 11 L 10.224609 11 L 10.984375 8.9042969 z M 1.9960938 11 A 9.0030653 9.0030653 0 0 0 11 20.003906 A 9.0030653 9.0030653 0 0 0 13.890625 19.513672 A 4 4 0 0 1 13.058594 17.679688 A 7 7 0 0 1 11 18 A 7 7 0 0 1 4.0566406 11.824219 L 1.9960938 11 z M 17.984375 11.318359 A 7 7 0 0 1 17.671875 13.060547 A 4 4 0 0 1 20.003906 14.367188 L 20.003906 12.125 L 19.923828 12.09375 L 17.984375 11.318359 z "
     id="path2" />
  <path
     style="fill:url(#radialGradient1018);fill-opacity:1.0"
     d="M 17 14 A 2.9999907 2.9999907 0 0 0 14 17 A 2.9999907 2.9999907 0 0 0 17 20 A 2.9999907 2.9999907 0 0 0 20 17 A 2.9999907 2.9999907 0 0 0 17 14 z M 15.939453 15.232422 L 17 16.292969 L 18.060547 15.232422 L 18.767578 15.939453 L 17.707031 17 L 18.767578 18.060547 L 18.060547 18.767578 L 17 17.707031 L 15.939453 18.767578 L 15.232422 18.060547 L 16.292969 17 L 15.232422 15.939453 L 15.939453 15.232422 z "
     id="path7" />
</svg>
