<svg height="16" width="16" xmlns="http://www.w3.org/2000/svg"><path d="m3.0601137 1.2324172c-1.4825532.7298586-2.4693707 2.1763127-2.76429795 3.9621604-.27148993 1.6439383.23013014 3.4030493 1.44357785 4.9757364 1.2099271 1.568124 3.9878554 3.988562 5.4978815 4.79145.7165778.381008.8635028.372498 1.965723-.368573 2.2116109-1.486964 4.8366889-3.925338 5.5900249-5.1907376.764071-1.2834305.979421-2.0429877.982861-3.5321585.002949-1.2597177-.037987-1.4151343-.430002-2.2114384-1.037413-2.1072837-3.258686-3.31867112-5.259977-2.71341026-.6457346.32083926-1.4341969.95225606-2.2108177.94870656-.7184029-.0032828-1.4266736-.617214-2.0024643-.91892586-1.5919329-.37065083-2.0982098-.00540574-2.8125093.25719026z" fill="#bebebe"/></svg>