<svg height="16" width="16" xmlns="http://www.w3.org/2000/svg"><path d="m1.21875.5v15h2.90625 7.75 2.90625v-15h-.96875v.90625h-.96875v-.90625h-.96875-7.75-.96875v.90625h-.96875v-.90625zm2.90625 1.34375h7.75v.875 1.34375 3.28125h-7.75v-3.28125-1.34375zm-1.9375.875h.96875v1.34375h-.96875zm10.65625 0h.96875v1.34375h-.96875zm-10.65625 2.65625h.96875v1.3125h-.96875zm10.65625 0h.96875v1.3125h-.96875zm-10.65625 2.625h.96875v1.3125h-.96875zm10.65625 0h.96875v1.3125h-.96875zm-8.71875.65625h7.75v1.96875 1.3125 2.21875h-7.75v-2.21875-1.3125zm-1.9375 1.96875h.96875v1.3125h-.96875zm10.65625 0h.96875v1.3125h-.96875zm-10.65625 2.65625h.96875v1.3125h-.96875zm10.65625 0h.96875v1.3125h-.96875z" fill="#bebebe"/></svg>