<svg height="16" width="16" xmlns="http://www.w3.org/2000/svg" xmlns:xlink="http://www.w3.org/1999/xlink"><linearGradient id="a" gradientTransform="matrix(1 0 0 -1 0 16)" gradientUnits="userSpaceOnUse" x1="8.21288" x2="8.21288" y1=".958855" y2="14.985587"><stop offset="0" stop-color="#bebebe" stop-opacity=".698"/><stop offset="1" stop-color="#bebebe"/></linearGradient><path d="m6.75 15v-2.1875c-.4487872-.117378-.8597203-.301606-1.25-.53125l-1.5625 1.5625-1.78125-1.78125 1.5625-1.5625c-.2296441-.39028-.4138722-.8012128-.53125-1.25h-2.1875v-2.5h2.1875c.1173778-.4487872.3016059-.85972.53125-1.25l-1.5625-1.5625 1.78125-1.78125 1.5625 1.5625c.3902797-.229644.8012128-.413872 1.25-.53125v-2.1875h2.5v2.1875c.4487872.117378.85972.301606 1.25.53125l1.5625-1.5625 1.78125 1.78125-1.5625 1.5625c.229644.39028.413872.8012128.53125 1.25h2.1875v2.5h-2.1875c-.117378.4487872-.301606.85972-.53125 1.25l1.5625 1.5625-1.78125 1.78125-1.5625-1.5625c-.39028.229644-.8012128.413872-1.25.53125v2.1875zm1.25-5c1.1045695 0 2-.8954305 2-2s-.8954305-2-2-2-2 .8954305-2 2 .8954305 2 2 2z" fill="url(#a)"/><path d="m6.75 1v2.1875c-.4487872.117378-.8597203.301606-1.25.53125l-1.5625-1.5625-1.78125 1.78125 1.5625 1.5625c-.2296441.39028-.4138722.8012128-.53125 1.25h-2.1875v2.5h2.1875c.1173778.4487872.3016059.85972.53125 1.25l-1.5625 1.5625 1.78125 1.78125 1.5625-1.5625c.3902797.229644.8012128.413872 1.25.53125v2.1875h2.5v-2.1875c.4487872-.117378.85972-.301606 1.25-.53125l1.5625 1.5625 1.78125-1.78125-1.5625-1.5625c.229644-.39028.413872-.8012128.53125-1.25h2.1875v-2.5h-2.1875c-.117378-.4487872-.301606-.85972-.53125-1.25l1.5625-1.5625-1.78125-1.78125-1.5625 1.5625c-.39028-.229644-.8012128-.413872-1.25-.53125v-2.1875zm.875 1h.75v2.03125c.827336.077246 1.5840203.4025641 2.1875.90625l1.40625-1.4375.53125.53125-1.4375 1.40625c.503686.6034797.829004 1.3601641.90625 2.1875h2.03125v.75h-2.03125c-.07725.827336-.402564 1.5840203-.90625 2.1875l1.4375 1.40625-.53125.53125-1.40625-1.4375c-.6034797.503686-1.360164.829004-2.1875.90625v2.03125h-.75v-2.03125c-.827336-.077246-1.5840203-.402564-2.1875-.90625l-1.40625 1.4375-.53125-.53125 1.4375-1.40625c-.5036859-.6034797-.8290038-1.360164-.90625-2.1875h-2.03125v-.75h2.03125c.0772462-.8273359.4025641-1.5840203.90625-2.1875l-1.4375-1.40625.53125-.53125 1.40625 1.4375c.6034797-.5036859 1.360164-.8290038 2.1875-.90625z" fill="#bebebe"/></svg>