<svg height="16" width="16" xmlns="http://www.w3.org/2000/svg"><g fill="#bebebe"><path d="m1 3v10h14v-10zm1 1h12v8h-12z" stroke-width="1.161449"/><path d="m6.4179592 6.1524876c.1389632-.00259.2756638.049901.3549416.1465165l1.731372 2.1090134c.039951.048894.1119179.056275.1609619.016509l1.1143514-.903863c.175574-.1426472.4916509-.1177598.6314659.041272l2.60428 2.9612865c.09326.106079.08911.20609.02889.301287-.06021.0952-.188517.175408-.36526.175408h-9.3749955c-.168633 0-.296067-.07467-.359069-.165089-.063-.09042-.0712-.186168.0062-.29097l3.1243021-4.2324721c.072761-.098527.2035964-.156312.3425596-.1588983zm.033018.9843438c-.036046.0006625-.06968.018244-.090798.047463l-2.2287027 3.0170046c-.057358.07602-.00237.184785.09286.183661h7.4413925c.100592.0018.154518-.117629.08667-.191916l-1.65708-1.8861435c-.040963-.0462975-.111258-.0517751-.1588982-.0123818l-1.1287968.9162446c-.1794565.1458018-.5044856.1173452-.6397203-.0474631l-1.6261276-1.9831329c-.021971-.027666-.055472-.043654-.090799-.043336z" stroke-width=".938813"/></g></svg>