<svg height="16" width="16" xmlns="http://www.w3.org/2000/svg"><path d="m7.936034 49.412863c-.3877521.02112-.7362636.235237-.9298712.571572l-6.30862264 10.889732c-.20497125.354858-.20524434.788438 0 1.143145.20523863.354704.58378854.571978.99385334.571573h12.6172455c.410066.000481.788616-.216869.993853-.571573.205237-.354707.204894-.788287 0-1.143145l-6.3086228-10.889732c-.215967-.375205-.6252893-.595342-1.0578352-.571572zm-.998119 2.759756h2.1242019v6.24464h-2.1242019zm1.062101 7.20437c.2961463.000001.5489688.06811.7549877.204743.2060135.136633.3071101.614029.3071132.810438-.0000031.18787-.1010997.661001-.3071132.806173-.2060189.136634-.4588414.204742-.7549877.204742-.2961502 0-.5489719-.06811-.754987-.204742-.2060173-.145172-.3071147-.618303-.307114-.806173-.0000007-.196409.1010967-.673805.307114-.810438.2060151-.136632.4588368-.204742.754987-.204743z" fill="#bebebe" fill-rule="evenodd" transform="translate(0 -48)"/></svg>