<?xml version="1.0" encoding="UTF-8" standalone="no"?>
<!-- Created with Inkscape (http://www.inkscape.org/) -->

<svg
   xmlns:dc="http://purl.org/dc/elements/1.1/"
   xmlns:cc="http://creativecommons.org/ns#"
   xmlns:rdf="http://www.w3.org/1999/02/22-rdf-syntax-ns#"
   xmlns:svg="http://www.w3.org/2000/svg"
   xmlns="http://www.w3.org/2000/svg"
   xmlns:sodipodi="http://sodipodi.sourceforge.net/DTD/sodipodi-0.dtd"
   xmlns:inkscape="http://www.inkscape.org/namespaces/inkscape"
   id="svg7384"
   height="16.062"
   width="16.05"
   version="1.1"
   inkscape:version="0.48.3.1 r9886"
   sodipodi:docname="emblem-synchronizing-symbolic.svg">
  <defs
     id="defs5267" />
  <sodipodi:namedview
     pagecolor="#ffffff"
     bordercolor="#666666"
     borderopacity="1"
     objecttolerance="10"
     gridtolerance="10"
     guidetolerance="10"
     inkscape:pageopacity="0"
     inkscape:pageshadow="2"
     inkscape:window-width="1366"
     inkscape:window-height="714"
     id="namedview5265"
     showgrid="false"
     inkscape:zoom="11.313709"
     inkscape:cx="-6.569293"
     inkscape:cy="-5.8221878"
     inkscape:window-x="0"
     inkscape:window-y="22"
     inkscape:window-maximized="1"
     inkscape:current-layer="svg7384" />
  <metadata
     id="metadata90">
    <rdf:RDF>
      <cc:Work
         rdf:about="">
        <dc:format>image/svg+xml</dc:format>
        <dc:type
           rdf:resource="http://purl.org/dc/dcmitype/StillImage" />
        <dc:title>Gnome Symbolic Icon Theme</dc:title>
      </cc:Work>
    </rdf:RDF>
  </metadata>
  <title
     id="title9167">Gnome Symbolic Icon Theme</title>
  <path
     style="fill:#bebebe;fill-opacity:1;stroke:none"
     d="m 8.1357486,-0.03149986 c -4.300156,0 -7.87457298,3.48295456 -8.01820098,7.75240376 l 2.65796698,0 c 0.135833,-2.8310269 2.496554,-5.0944367 5.360234,-5.0944367 1.708914,0 3.0716364,0.8937474 4.0312504,2.170673 l -2.126374,1.8605769 3.18956,0 2.702267,0 0,-5.3602334 L 14.027576,3.20236 C 12.58918,1.3257006 10.65866,-0.03149986 8.1357486,-0.03149986 z M 13.230185,8.3410963 c -0.135832,2.8310267 -2.496554,5.0944367 -5.3602334,5.0944367 -1.708914,0 -3.027337,-0.893747 -3.986951,-2.170673 l 2.126374,-1.8605769 -3.23386,0 -2.65796698,0 0,5.3602329 1.86057698,-1.860576 c 1.438395,1.876659 3.368916,3.18956 5.891827,3.18956 4.3001554,0 7.9188724,-3.482955 8.0625004,-7.7524037 l -2.702267,0 z"
     id="path5403"
     inkscape:connector-curvature="0" />
</svg>
