<svg height="16.062" width="16.05" xmlns="http://www.w3.org/2000/svg"><path d="m8.1357486-.03149986c-4.300156 0-7.87457298 3.48295456-8.01820098 7.75240376h2.65796698c.135833-2.8310269 2.496554-5.0944367 5.360234-5.0944367 1.708914 0 3.0716364.8937474 4.0312504 2.170673l-2.126374 1.8605769h3.18956 2.702267v-5.3602334l-1.904876 1.9048763c-1.438396-1.8766594-3.368916-3.23385986-5.8918274-3.23385986zm5.0944364 8.37259616c-.135832 2.8310267-2.496554 5.0944367-5.3602334 5.0944367-1.708914 0-3.027337-.893747-3.986951-2.170673l2.126374-1.8605769h-3.23386-2.65796698v5.3602329l1.86057698-1.860576c1.438395 1.876659 3.368916 3.18956 5.891827 3.18956 4.3001554 0 7.9188724-3.482955 8.0625004-7.7524037z" fill="#bebebe"/></svg>