<svg height="16" width="16" xmlns="http://www.w3.org/2000/svg"><g fill="#808080"><path d="m.93835472 9.1348935c-.0320107-.0013-.0757296.00354-.11954121.034709-.08762315.0623575-.17653902.0720367-.17738468.2236587-.01834555 3.2890358.10149082 3.3643448.1850969 3.7906228.13779851.702589 3.76464127 1.124166 5.19041527 1.245546.1710505.453197.9532719.810726 1.9049523.840646 1.0902444.034275 1.990212-.377516 2.0090683-.921626.0188592-.54411-.8494124-1.010747-1.9396576-1.045024-.9396646-.029544-1.7367353.273071-1.9512256.70568-1.3286895-.084373-4.5695718-.418566-4.8742092-1.021887-.21459519-.424998-.1413179-2.380772-.17352821-3.8407532 0 0-.021977-.010251-.0539877-.011567z"/><path d="m1.5090692 6.7363505c-.0783224.000803-.1499192.0775994-.1735283.1619595-.021586.077124.00629.082378.011567.1696718l.057843 1.0064625c-.2930231.4424436-.3586229 1.0964943-.3586229 1.7237118 0 .9980439.1807796 1.9894149 1.1568533 2.1864529.047918.274778.2344714.519996.4010426.609276.049141.02845.096259.04354.1388222.04242.031569-.000868.06099-.02996.073267-.07327.0000167.000868 0 .03085 0 .03085 0 .04369.1732519.203447.2892137.208233l.065555.0038c.1423451-.0095.1569644-.103256.158103-.154248 0 .04369.020509.136903.1542473.142679l.073267-.0038c.3112992-.01065.6294715-.280351.6362693-.852215 0 0-.02699-1.106786-.02699-2.2134466 0-1.1066607.02699-2.2134463.02699-2.2134463-.0135997-.5921715-.2652686-.7480905-.4858775-.7480905h-.057843c-.1018019-.00506-.2278762.028827-.2583641.107973.0000485-.0006541 0-.015424 0-.015424 0-.043684-.037154-.1055892-.08098-.1041167-.086833.00292-.1540571.025845-.2082336.053986-.027084.014071-.053944.028562-.073267.042418-.019322.013855-.034448.029269-.046276.038562-.024596.01933-.064853.059312-.084836.096404-.00224.00412-.00224.00754-.00383.011569-.00383-.047727-.015097-.078957-.04242-.088692-.00989-.00765-.021124-.011671-.038565-.011569h-.030853c-.2897715-.0047316-.5795415.610687-.586144.6671182-.1779424.0329229-.3306619.0924366-.4588854.1773843-.0193149-.3162791-.0390205-.6116506-.0462762-.8175098-.0037617-.1059189-.0884168-.1860407-.1812405-.1850966z"/><path d="m8.1455513.72842512c-2.4876912.06609823-4.159336 1.44059088-4.7276741 2.65305058-.0296089.0631699-.0439323.1239364-.0462762.1850965-.0212825.1826272.0792512.3617718.2969259.5861391 1.2309835-1.2855975 2.4032742-1.9782193 4.5618581-1.9782193 2.158584 0 3.367356.7378982 4.546434 2.0090687.31907-.337093.31898-.4777184.219804-.73653-.187648-.4896901-.643958-1.0922975-1.330381-1.6041701.03456.016334.07059.033911.104116.05013-.818407-.6438392-1.9911197-1.16456541-3.447422-1.16456526-.050262.00000007-.096658-.001114-.1465351 0-.00978.00022208-.021094-.0002592-.030853 0z"/><path d="m3.9963039 3.2040915c-.0008681.0002097-.00297.00362-.00383.00386-.00174.0004936-.006-.00058-.00771 0-.00166.0006169-.00608.00315-.00771.00386-.00159.0007379-.00615.00303-.00771.00386-.0007234.0004319-.00311.0034-.00383.00386-.00145.0009477-.00637.00283-.00771.00386-.0006663.0005306-.00318.0033-.00383.00386-.00253.0023-.0055.00509-.00771.00771 0 0-.3931873.37319-.7288175.8020851s-.6392845.9468312-.647838.9447636c-.018693-.0026-.039411-.00771-.065555-.00771-.00318-.0001358-.00449.000089-.00771 0-.00477-.0001358-.0068 0-.011567 0-.3224925 0-.5861389.2567073-.5861389.5668581 0 .3101509.2636464.5591458.5861389.5591458.00666 0 .012688.0002098.019279 0 .3224925 0 .5822831-.2489951.5822831-.5591458 0-.1599215-.065765-.3064019-.177384-.4087549.02767-.052848.2560608-.488688.5707144-.8907771.3356303-.4288952.7673793-.821366.7673793-.8213659.0005303-.0006787-.0004941-.00317 0-.00386.0004688-.0007034.0034-.00315.00383-.00386.00166-.00289.0026-.00852.00383-.011569.0002836-.000774.00362-.00307.00383-.00386.0004572-.00157-.0003574-.00611 0-.00771.0007234-.00404.00376-.011248.00383-.015424-.0000043-.00168.0001049-.00602 0-.00771-.0001606-.0017-.00362-.006-.00383-.00771-.0003082-.00171.0004072-.00599 0-.00771-.0004442-.00172-.00333-.00599-.00383-.00771-.00268-.00776-.00702-.015567-.011567-.023137-.0021-.00335-.00528-.0083-.00771-.011569-.00762-.00972-.016371-.022402-.02699-.03085-.00362-.00277-.00763-.00514-.011567-.00771l-.053988-.038562c-.00885-.00579-.021565-.011331-.030853-.015424-.020689-.00868-.045531-.011192-.065555-.011569-.00398.0000074-.011567-.0003332-.015423 0-.0009404.000107-.00246.0000548-.00383 0-.00297.0000055-.00768-.0000452-.011567 0-.0013.0000151-.00289-.0000833-.00383 0-.00289.0003208-.00879-.0004936-.011567 0-.0009404.0001851-.00297-.0002098-.00383 0zm-1.5270463 1.9589384c.2225237 0 .4010426.1793919.4010426.4010425s-.1785189.4010425-.4010426.4010425-.4048985-.1793919-.4048985-.4010425.1823748-.4010425.4048985-.4010425z" opacity=".493119"/><path d="m13.112308 6.7363505c-.02292-.0007668-.04364.016607-.05784.038562-.02137.021215-.03857.053228-.03857.08098 0 0-.000075.018261 0 .019281-.03048-.079146-.156561-.1168833-.258363-.1118291h-.05784c-.220609 0-.472282.155919-.485878.7480985 0 0 .02699 1.106786.02699 2.2134465 0 1.1066601-.02699 2.2134461-.02699 2.2134461.0068.571865.32497.845416.636269.856071h.07327c.133742-.0058.154248-.09899.154248-.142679.000868.0504.01365.144637.158103.154248h.06555c.0638-.0026.145201-.05283.204377-.104117.05108-.04122.08879-.08719.0964-.111829.01466.0281.03728.04563.0617.04628.04256.0011.08968-.01396.138822-.04242.0024-.0013.0053-.0025.0077-.0038.0083-.0051.01478-.0097.02313-.01542.154109-.09871.316599-.320449.366336-.570715.97919-.195346 1.16071-1.183336 1.16071-2.1825906 0-.6128738-.0631-1.2513068-.339343-1.6928618.03255-.5038284.06556-1.0373119.06556-1.0373119.0053-.087294-.0054-.1233968-.02699-.2005213-.0236-.08439-.09918-.1510597-.177379-.1465646-.0767.00441-.177507.079178-.18124.1850966-.0073.2074703-.02485.5061483-.04242.8252221-.125643-.080934-.274862-.1416202-.447317-.173528v-.011569c0-.00244-.0021-.013379-.0038-.019281 0-.0032-.0047-.014069-.0077-.023137-.0016-.00399-.0059-.01099-.0077-.015424-.0016-.00404-.0059-.010918-.0077-.015424-.0072-.016551-.01304-.033315-.02313-.053986-.09148-.1926311-.313729-.5666961-.539865-.5630019h-.03085c-.04025-.0002345-.05425.023302-.0617.065555-.0016.00462-.0066.01-.0077.015424-.02131-.034944-.05796-.070601-.08098-.088692-.0473-.037171-.154106-.1291307-.327776-.1349661z"/><path d="m2.4075583 5.7414566c-.043339.00323-.078717.018801-.111829.065555-.00123.00185-.00289.00569-.00383.00771-.00123.00276-.00304.00862-.00383.011569-.0001975.0007379.0001728.0031 0 .00386-.0002959.0015-.00362.0062-.00383.00771-.0000846.0007523.0000644.0031 0 .00386 0 0 .0000101.203519 0 .2159459-.00456.00354-.063349.047301-.1426786.1079729 0 .00122-.0000029.00264 0 .00386.0000268.010585-.0002344.020343 0 .03085-.1971929.1508507-.6015633.4588852-.6015633.4588852-.066452.053257-.1730566.1238735-.1966656.2082335-.021586.077125-.00911.1363644-.00383.2236584l.1426625 2.4062465c.0001215.0021-.0001606.00564 0 .00771-.0002221.000654.0002097.00318 0 .00383-.00477.014757-.00637.030173-.00771.046276-.00963.1144752.077883.2140671.1928084.223658.014367.00123.028676.00159.04242 0 .013745-.00159.025732-.00739.038565-.011567.076965-.025052.1354568-.091528.1426786-.1773839.00239-.028618-.00297-.059225-.011567-.084836-.00434-.012804-.0088-.023077-.015423-.034709-.00666-.011632-.014504-.024538-.023134-.034709-.00109-.0013.00109-.0026 0-.00383l-.1427805-2.3638302c-.00948-.078494.00622-.1062654.069411-.1465348 0-.0000001.5616436-.4289675.7712358-.586139.00891-.00668.033711-.017887.034709-.053986.0002713-.00991.0000753-.1205382 0-.2313707.00289-.083251.00268-.1537647 0-.1812404-.0000296-.0003332.00174-.00469 0-.011569-.0002467-.00106.0002959-.00725 0-.00771-.00224-.00351-.00499-.00776-.00771-.011569-.00166-.00233-.00203-.00535-.00383-.00771-.00815-.01085-.015228-.01941-.023134-.026993-.00181-.00156-.00586-.00214-.00771-.00386-.024965-.02293-.054509-.057932-.1041168-.057843-.00666.000012-.013086-.0004565-.019279 0z"/><path d="m12.360354 3.2272286c-.02002.0003825-.04487.00289-.06555.011569-.0093.00409-.022.00964-.03085.015424l-.05399.038562c-.0039.00258-.008.00494-.01157.00771-.01062.00845-.01937.017278-.02699.026993-.0025.00326-.0056.00822-.0077.011569-.0046.00757-.0089.019237-.01157.026993-.000543.00172-.0034.00599-.0038.00771-.000408.00172.000308.006 0 .00771-.00026.00171-.0037.00601-.0038.00771-.000105.00169.000004.00603 0 .00771.000115.00417.0031.011385.0038.015424.000357.0016-.000457.00614 0 .00771.000259.0007741.0035.00308.0038.00386.0012.00305.0022.00868.0038.011569.000444.0007157.0034.00315.0038.00386.000494.000691-.00053.00318 0 .00386 0-.0000002.431749.3924708.76738.8213659.314652.4020891.543045.8379297.570714.8907771-.111622.102353-.177384.2488333-.177384.4087548 0 .2814139.213184.5108645.49359.5514334-.000045.091939-.000246.1808559 0 .1889528.000072.00226.163249-.072467.165816-.077123.02638-.048015.03951-.080019.05784-.1156854.268148-.050754.470454-.2749563.470454-.5475773 0-.3101508-.263646-.5668581-.586139-.5668581-.0066-.0002098-.01263 0-.01928 0-.02614 0-.04686.00511-.06556.00771-.0086.00207-.312208-.5158686-.647838-.9447636-.33563-.4288951-.728818-.802085-.728818-.802085-.0022-.00263-.0052-.00541-.0077-.00771-.000617-.0005553-.0031-.00333-.0038-.00386-.0014-.00103-.0063-.00291-.0077-.00386-.000723-.0004566-.0031-.00342-.0038-.00386-.0015-.0008247-.0061-.00312-.0077-.00386-.0017-.0007034-.006-.00324-.0077-.00386-.0017-.0005799-.0059.0004936-.0077 0-.000869-.0002344-.003-.00365-.0038-.00386-.000868-.0002098-.0029.0001851-.0038 0-.0027-.0004936-.0087.0003208-.01157 0-.002-.0001604-.0049-.0000426-.0077 0-.0027-.0004936-.0087.0003208-.01157 0-.0038-.0003332-.01144.0000074-.01542 0zm1.577176 1.9550822c.222523 0 .404899.1793919.404899.4010425s-.182376.4048987-.404899.4048987-.401042-.1832481-.401042-.4048987.178519-.4010425.401042-.4010425z" opacity=".493119"/><path d="m13.976092 5.7877307c-.05332-.000096-.09098.012139-.13111.065555-.01293.017223-.01151.034027-.01156.034705-.000076.00173-.000493.3949301 0 .412611.001.0361.02581.051163.03471.057843.209592.1571716.771236.5822829.771236.5822829.06318.040269.0789.071897.06941.150391l-.142685 2.3638375c-.0011.00123.0011.0026 0 .00383-.03453.040684-.05494.093153-.05013.1503908.0096.1144752.108732.1985443.223658.1889527.01437-.00123.02913 0 .04242-.00383.09307-.02699.158813-.1157795.150391-.2159458-.0014-.016096-.003-.031519-.0077-.046276-.000247-.0006539.000247-.00318 0-.00383.000122-.0021-.000121-.00564 0-.00771l.142666-2.4062608c.0052-.087294.01773-.146534-.0038-.2236584-.0236-.08436-.130215-.1549766-.196665-.2082336 0 0-.734972-.5651877-.751955-.5784267-.000009-.012427 0-.215946 0-.215946-.001-.011988-.0048-.021345-.01156-.03085-.03784-.053433-.07393-.069315-.127254-.069411z"/></g></svg>