<svg height="32" viewBox="0 0 8.4666665 8.4666669" width="32" xmlns="http://www.w3.org/2000/svg" xmlns:xlink="http://www.w3.org/1999/xlink"><linearGradient id="a"><stop offset="0" stop-color="#eba9f2"/><stop offset=".3488954" stop-color="#ed82f2"/><stop offset=".67611599" stop-color="#b32c75"/><stop offset=".90122044" stop-color="#6c2372"/><stop offset="1" stop-color="#79216f"/></linearGradient><linearGradient id="b" gradientUnits="userSpaceOnUse" x1="312.49457" x2="312.49457" xlink:href="#a" y1="103.31777" y2="141.64658"/><filter id="c" color-interpolation-filters="sRGB" height="1.212969" width="1.082105" x="-.041053" y="-.106484"><feGaussianBlur stdDeviation=".13033333"/></filter><linearGradient id="d" gradientUnits="userSpaceOnUse" x1="238.03914" x2="222.05669" xlink:href="#a" y1="83.768745" y2="111.86872"/><linearGradient id="e" gradientUnits="userSpaceOnUse" x1="256.8475" x2="270.44095" xlink:href="#a" y1="93.082817" y2="82.628227"/><linearGradient id="f" gradientUnits="userSpaceOnUse" x1="260.96295" x2="246.21834" y1="50.94503" y2="112.95956"><stop offset="0" stop-color="#eba9f2"/><stop offset=".3488954" stop-color="#ed82f2"/><stop offset=".53168297" stop-color="#b32c75"/><stop offset=".92909157" stop-color="#6c2372"/><stop offset="1" stop-color="#79216f"/></linearGradient><linearGradient id="g" gradientUnits="userSpaceOnUse" x1="251.21294" x2="234.97209" xlink:href="#a" y1="108.5622" y2="90.178543"/><filter id="h" color-interpolation-filters="sRGB" height="1.077086" width="1.067544" x="-.033772" y="-.038543"><feGaussianBlur stdDeviation="1.7187398"/></filter><linearGradient id="i" gradientUnits="userSpaceOnUse" x1="91.8797" x2="92.403087" y1="150.072569" y2="15.315158"><stop offset="0" stop-color="#f7f7f7"/><stop offset=".86046815" stop-color="#c3c3c3"/><stop offset="1" stop-color="#ececec"/></linearGradient><g transform="matrix(.04352592 0 0 .04352592 .516036 .44744)"><path d="m258.37825 73.04211c-3.89026 0-7.02161 3.754433-7.02161 8.419091v90.185029c0 .36285.0256.7172.0623 1.0677v7.16438h5.48337c.47628.12143.96855.187 1.4759.187h108.09896c.50736 0 .99963-.0656 1.47591-.187h5.48337v-7.16438c.0368-.3505.0623-.70485.0623-1.0677v-90.185029c0-4.664658-3.13135-8.419091-7.02162-8.419091z" fill="#b2b2b2" fill-opacity=".757353" filter="url(#h)" transform="matrix(1.3278879 0 0 1.3290441 -329.53562 -81.799619)"/><path d="m15.334913 15.028639c-5.038203 0-9.0935477 4.897852-9.0935477 10.98314v117.651041c.1610261 3.50264.0079 7.39269.0079 10.98051l9.0857297.003h139.996915l9.08816-.001.005-10.98199v-117.651561c0-6.085288-4.05534-10.98314-9.09356-10.98314z" fill="#999"/><rect fill="url(#i)" height="127.65382" rx="8.749305" ry="10.490952" width="145.89006" x="12.459184" y="20.113914"/><path d="m12.459184 50.507683h145.98235v97.669487h-145.98235z" fill="#ececec"/><path d="m12.459184 44.428928h145.89008v6.078754h-145.89008z" fill="#6d6d6d"/><circle cx="146.17818" cy="32.307224" fill="#818181" r="6.102767"/><g transform="matrix(2.8093178 0 0 2.8093178 -632.70558 -159.16891)"><path d="m247.94971 105.43167 3.26323 3.31803 4.15625-1.06249-3.4315-3.27503z" fill="#220625" filter="url(#c)"/><path d="m229.2716 94.353385 2.47259 2.615305v4.71875l-2.47259-2.806341z" fill="#c6489e"/><path d="m243.72428 83.768749 3.0824 2.168699-15.06249 11.03124-2.47259-2.615303z" fill="url(#d)"/><path d="m254.74971 76.831665 3.46323 1.918036 4.15625-1.062493-3.6315-1.875025z" fill="#eba9f2"/><path d="m262.74667 79.920094 3.71626 2.048356v5.062509l-3.71626-2.426308z" fill="#bf3e90"/><path d="m262.74667 95.30231 3.71626 2.697395v5.000005l-3.71626-2.89982z" fill="#802673"/><path d="m272.58169 88.165932 4.13125 2.396278-10.25001 7.437495-3.71626-2.697395z" fill="url(#e)"/><path d="m262.74668 79.920098 3.71625 2.048352 15.09376 5.312505-4.32736-2.26343z" fill="#eba9f2"/><path d="m254.74971 76.831665 3.46323 1.918036-7.00001 29.812499-3.17983-3.12502z" fill="url(#f)"/><path d="m233.85406 95.753944 2.70263 2.683494s10.25 3.531252 10.25 3.531252l-2.99808-2.785281z" fill="url(#g)"/><path d="m310.09902 107.46618-4.75535.23896-8.00902 24.89502 4.75535-.21165zm4.68384 4.42117v4.42471l11.72749 4.78722-11.72749 4.79963v4.37008l17.26944-7.10956v-4.12426zm-22.4896.20727-17.23368 7.14205v4.12426l17.23368 7.11532v-4.37008l-11.72748-4.78722 11.72748-4.79963z" fill="url(#b)" transform="matrix(.87401517 -.16593686 0 1.1441449 -8.662058 6.187184)"/></g></g></svg>