<svg height="32" viewBox="0 0 8.4666665 8.466667" width="32" xmlns="http://www.w3.org/2000/svg" xmlns:xlink="http://www.w3.org/1999/xlink"><linearGradient id="a" gradientTransform="matrix(0 .26458333 -.26458333 0 33.959689 282.70038)" gradientUnits="userSpaceOnUse" x1="32" x2="32" y1="-56" y2="28"><stop offset="0" stop-color="#9fc5fb"/><stop offset="1" stop-color="#096df6"/></linearGradient><g transform="matrix(.25 0 0 .25 0 -65.78333)"><g stroke-width="1.058333" transform="matrix(.38087038 0 0 .38087038 18.980239 166.98814)"><path d="m-50.028672 291.31511q0-.762.169333-1.397.169333-.67733.592667-1.22766.423333-.59267.804333-1.05834.381-.46566 1.143-.93133.762-.508 1.27-.80433.508-.33867 1.524-.762 1.058333-.46567 1.608666-.67734.550334-.254 1.735667-.71966 1.185333-.46567 1.735667-.67734v-2.58233q0-3.51367-3.217334-3.51367-1.269999 0-2.158999.635-.889.59267-.889 1.43934 0 .33866.08467.93133.127.59267.127.762 0 .71967-.592666 1.27-.550334.508-1.312334.508-.719666 0-1.27-.55033-.550333-.55034-.550333-1.27 0-1.98967 2.032-3.34434 2.074333-1.39699 5.08-1.39699 3.471333 0 4.783666 1.69333 1.312334 1.651 1.312334 5.08v8.255q0 1.397.254 1.94733.296333.508 1.016.508.889 0 1.862666-.80433v1.10066q-1.100666 1.22767-1.947333 1.69334-.804333.42333-1.862667.42333-1.312333 0-1.947333-.71967-.592667-.71966-.762-2.37066-3.640667 3.09033-6.180666 3.09033-1.947334 0-3.217334-1.27-1.227666-1.27-1.227666-3.25967zm10.583333-1.10066v-6.13834q-3.81 1.397-5.334 2.70934-1.524 1.31233-1.524 3.175 0 1.73566.846667 2.58233.846666.84667 1.820333.84667 1.439333 0 3.090333-.97367.677333-.381.889-.80433.211667-.42334.211667-1.397z"/><path d="m-26.288934 266.59245v12.954q.635-1.56634 2.286-2.58234 1.651-1.01599 3.598333-1.01599 3.175 0 5.291666 2.66699 2.159 2.62467 2.159 6.51934 0 4.52966-2.878666 7.62-2.836333 3.09033-7.027333 3.09033-2.54 0-4.783667-.84667-2.201333-.889-2.201333-1.86266v-21.971q0-1.31233-.423333-1.73567-.381-.42333-1.651-.42333-.465667 0-.719667.0423v-.67733q3.259667-.80433 6.138333-1.86267zm0 15.19766v10.668q0 .80434 1.227666 1.43934 1.227667.59266 2.878667.59266 2.624667 0 4.064-1.94733 1.439333-1.94733 1.439333-5.461 0-3.85233-1.481666-6.13833-1.439334-2.32834-3.937-2.32834-1.651 0-2.921.97367-1.27.97367-1.27 2.20133z"/><path d="m-11.895599 266.80412h2.8363329l9.69433303 29.20999h-2.87866663z"/><path d="m7.4454408 266.59245v12.954q.635-1.56634 2.286-2.58234 1.6510002-1.01599 3.5983332-1.01599 3.175 0 5.291666 2.66699 2.159 2.62467 2.159 6.51934 0 4.52966-2.878666 7.62-2.836333 3.09033-7.027333 3.09033-2.5400002 0-4.7836668-.84667-2.2013333-.889-2.2013333-1.86266v-21.971q0-1.31233-.4233333-1.73567-.381-.42333-1.6509999-.42333-.4656667 0-.7196667.0423v-.67733q3.2596666-.80433 6.1383332-1.86267zm0 15.19766v10.668q0 .80434 1.2276667 1.43934 1.2276666.59266 2.8786665.59266 2.624667 0 4.064-1.94733 1.439333-1.94733 1.439333-5.461 0-3.85233-1.481666-6.13833-1.439334-2.32834-3.937-2.32834-1.6510002 0-2.9210002.97367-1.27.97367-1.27 2.20133z"/><path d="m22.897109 286.40445q0-4.699 2.751667-7.57767 2.793999-2.87866 6.519333-2.87866 2.667 0 4.572 1.31233 1.947333 1.27 1.947333 3.048 0 .71966-.592667 1.27-.592667.508-1.439333.508-1.439333 0-1.989667-1.94734l-.254-.93133q-.338666-1.18533-.846666-1.60867-.508-.42333-1.651-.42333-2.582334 0-4.191 2.07433-1.566333 2.032-1.566333 5.29167 0 3.64067 1.820333 5.969 1.862666 2.286 4.741333 2.286 1.820333 0 3.132667-.84667 1.312333-.889 2.836333-3.13266l.592666.381q-.423333.84666-.762 1.397-.296333.55033-1.142999 1.651-.804334 1.10066-1.608667 1.778-.804333.67733-2.116667 1.27-1.312333.55033-2.709333.55033-3.513667 0-5.799666-2.62467-2.243667-2.667-2.243667-6.81566z"/></g><path d="m33.035709 288.35969-5.30614-4.42143-.8785.92191 1.72393 2.61482-8.23929-.004h-1.39113-.99425l-12.4746898.004 1.72392-2.61482-.8785-.92191-5.3040698 4.42143 5.3040698 4.41937.8785-.8785-1.72392-2.65823 12.4746898-.002h2.38538l8.23929.002-1.72393 2.65823.8785.8785z" fill="url(#a)" fill-rule="evenodd"/></g></svg>