<svg height="32" viewBox="0 0 8.4666665 8.4666669" width="32" xmlns="http://www.w3.org/2000/svg" xmlns:xlink="http://www.w3.org/1999/xlink"><linearGradient id="a" gradientTransform="matrix(0 .00459072 .00737719 0 -2.995601 291.22984)" gradientUnits="userSpaceOnUse" x1="399.77466" x2="399.77466" y1="1164.6696" y2="549.06134"><stop offset="0" stop-color="#717174"/><stop offset=".5" stop-color="#9c9ca1"/><stop offset="1" stop-color="#bdbdc2"/></linearGradient><linearGradient id="b" gradientUnits="userSpaceOnUse" x1="3" x2="35" xlink:href="#a" y1="20" y2="16"/><g transform="translate(0 -288.53332)"><path d="m5.8208336 288.80268v.26652a2.2503635 2.2503635 0 0 1 .3207813.0401l.067955-.25347a2.5151011 2.5151011 0 0 0 -.3887359-.0531zm-.2645835.002a2.5151011 2.5151011 0 0 0 -.3893819.0488l.068988.25735a2.2503635 2.2503635 0 0 1 .3203939-.0435zm-.6449219.11769a2.5151011 2.5151011 0 0 0 -.362381.1509l.1316458.22789a2.2503635 2.2503635 0 0 1 .2997233-.12157zm1.5537811.002-.068213.25476a2.2503635 2.2503635 0 0 1 .2980433.12441l.1338421-.23177a2.5151011 2.5151011 0 0 0 -.3636724-.1474zm-1.9804992.1797a2.5151011 2.5151011 0 0 0 -.011756.007zm2.5729698.10064-.1329377.23035a2.2503635 2.2503635 0 0 1 .2559275.19715l.1868103-.18694a2.5151011 2.5151011 0 0 0 -.3098001-.24056zm-2.738076.00013a2.5151011 2.5151011 0 0 0 -.3112213.23901l.1873271.18745a2.2503635 2.2503635 0 0 1 .2557983-.19818zm-.4119903.3328a2.5151011 2.5151011 0 0 0 -.03682.0368zm-.086429.0934a2.5151011 2.5151011 0 0 0 -.2411998.31005l.2303477.13294a2.2503635 2.2503635 0 0 1 .1976624-.25618zm3.7336221.001-.187456.18745a2.2503635 2.2503635 0 0 1 .1979203.25516l.2285391-.13191a2.5151011 2.5151011 0 0 0 -.2390034-.3107zm-4.1078887.53743a2.5151011 2.5151011 0 0 0 -.1479238.36419l.254894.0683a2.2503635 2.2503635 0 0 1 .1246694-.29869zm4.4790547.003-.2278928.13152a2.2503635 2.2503635 0 0 1 .1218266.29934l.2570903-.0689a2.5151011 2.5151011 0 0 0 -.1510241-.362zm-4.6489409.42788a2.5151011 2.5151011 0 0 0 -.026613.0992zm-.046896.1894a2.5151011 2.5151011 0 0 0 -.053227.38938h.2666504a2.2503635 2.2503635 0 0 1 .040178-.32156zm4.9161084.00013-.2573491.069a2.2503635 2.2503635 0 0 1 .043925.32026h.2627749a2.5151011 2.5151011 0 0 0 -.049351-.38925zm-4.9711438.43963a2.5151011 2.5151011 0 0 0 -.00297.0835 2.5151011 2.5151011 0 0 0 .00297.0836zm5.0270831.0809v.006a2.5151011 2.5151011 0 0 0 .0001323-.004 2.5151011 2.5151011 0 0 0 -.0001323-.003zm-.271172.13332a2.2503635 2.2503635 0 0 1 -.039403.32091l.253473.068a2.5151011 2.5151011 0 0 0 .05258-.38887zm.1826763.52904-.00594.0218a2.5151011 2.5151011 0 0 0 .00594-.0218zm-.2919717.0473a2.2503635 2.2503635 0 0 1 -.1241531.29844l.2317689.13384a2.5151011 2.5151011 0 0 0 .147278-.36406zm-.2555399.52814a2.2503635 2.2503635 0 0 1 -.1970167.25657l.1869393.18694a2.5151011 2.5151011 0 0 0 .2408126-.31032zm-.3844726.44351a2.2503635 2.2503635 0 0 1 -.2555407.19844l.1320337.2288a2.5151011 2.5151011 0 0 0 .3109629-.23978zm.3237526.0576-.042375.0424a2.5151011 2.5151011 0 0 0 .042375-.0424zm-.8080901.27389a2.2503635 2.2503635 0 0 1 -.2999817.12208l.068988.25735a2.5151011 2.5151011 0 0 0 .3626389-.15154zm.2448168.16678-.067954.0393a2.5151011 2.5151011 0 0 0 .067954-.0393zm-.8003387.0243a2.2503635 2.2503635 0 0 1 -.3209104.0442v.26291a2.5151011 2.5151011 0 0 0 .3898984-.0495zm.2968813.19844-.074543.0199a2.5151011 2.5151011 0 0 0 .074543-.0199zm-.8131288.11226a2.5151011 2.5151011 0 0 0 .061624.003 2.5151011 2.5151011 0 0 0 .062141-.003z" fill="#06f" stroke-width=".066146"/><path d="m3.7910156 11c-.4383227 0-.7910156.30302-.7910156.679688v16.640624c0 .376819.3526929.679688.7910156.679688h16.4179684c.438324 0 .791016-.302642.791016-.679688v-8.333984a9.5058939 9.5058939 0 0 1 -1.492188-.208984 9.5058939 9.5058939 0 0 0 .492188.103515v7.802735c0 .17537-.169814.316406-.380859.316406h-15.2382816c-.2110454 0-.3808594-.141036-.3808594-.316406v-15.367188c0-.17537.1698143-.316406.3808594-.316406h7.7324216a9.5058939 9.5058939 0 0 0 .101563.527344 9.5058939 9.5058939 0 0 1 -.208985-1.527344zm8.5234374 1.900391a9.5058939 9.5058939 0 0 0 .152344.552734 9.5058939 9.5058939 0 0 1 -.152344-.552734zm.240235.785156a9.5058939 9.5058939 0 0 0 .253906.662109 9.5058939 9.5058939 0 0 1 -.253906-.662109zm.316406.783203a9.5058939 9.5058939 0 0 0 .36914.732422 9.5058939 9.5058939 0 0 1 -.36914-.732422zm.404297.785156a9.5058939 9.5058939 0 0 0 .466797.734375 9.5058939 9.5058939 0 0 1 -.466797-.734375zm.660156.982422a9.5058939 9.5058939 0 0 0 .396484.501953 9.5058939 9.5058939 0 0 1 -.396484-.501953zm.582031.697266a9.5058939 9.5058939 0 0 0 .472656.488281 9.5058939 9.5058939 0 0 1 -.472656-.488281zm.753906.728515a9.5058939 9.5058939 0 0 0 .433594.367188 9.5058939 9.5058939 0 0 1 -.433594-.367188zm.841797.650391a9.5058939 9.5058939 0 0 0 .373047.255859 9.5058939 9.5058939 0 0 1 -.373047-.255859zm.775391.480469a9.5058939 9.5058939 0 0 0 .433594.238281 9.5058939 9.5058939 0 0 1 -.433594-.238281zm.814453.404297a9.5058939 9.5058939 0 0 0 .488281.207031 9.5058939 9.5058939 0 0 1 -.488281-.207031zm.933594.349609a9.5058939 9.5058939 0 0 0 .460937.144531 9.5058939 9.5058939 0 0 1 -.460937-.144531z" fill="url(#b)" stroke-width=".25" transform="matrix(.26458333 0 0 .26458333 0 288.53332)"/><path d="m3.1766796 291.44374a2.5151011 2.5151011 0 0 0 2.3795705 2.37776v-.26381a2.2503635 2.2503635 0 0 1 -1.8520834-1.1808 2.2503635 2.2503635 0 0 1 -.087075-.18604 2.2503635 2.2503635 0 0 1 -.022996-.0589 2.2503635 2.2503635 0 0 1 -.054131-.15102 2.2503635 2.2503635 0 0 1 -.018345-.0663 2.2503635 2.2503635 0 0 1 -.036949-.14831 2.2503635 2.2503635 0 0 1 -.012273-.058h.0022a2.2503635 2.2503635 0 0 1 -.031393-.26458z" fill="url(#a)" opacity=".75" stroke-width=".066146"/></g></svg>