<svg height="32" width="32" xmlns="http://www.w3.org/2000/svg" xmlns:xlink="http://www.w3.org/1999/xlink"><linearGradient id="a" gradientUnits="userSpaceOnUse" x1="14.214549" x2="17.881189" xlink:href="#d" y1="13.67841" y2="46.67841"/><radialGradient id="b" cx="72.631729" cy="22.787588" gradientTransform="matrix(7.0638773 0 0 7.0638919 -501.13873 -120.26981)" gradientUnits="userSpaceOnUse" r="1.265237" xlink:href="#d"/><linearGradient id="c" gradientUnits="userSpaceOnUse" x1="8.654038" x2="12.786838" xlink:href="#e" y1="25.942007" y2="41.365826"/><linearGradient id="d"><stop offset="0" stop-color="#fd0000"/><stop offset="1" stop-color="#8f0000"/></linearGradient><linearGradient id="e"><stop offset="0" stop-color="#fff"/><stop offset="1" stop-color="#fff" stop-opacity="0"/></linearGradient><radialGradient id="f" cx="72.631729" cy="22.787588" gradientTransform="matrix(7.8874774 0 0 7.8874937 -560.9604 -138.69036)" gradientUnits="userSpaceOnUse" r="1.265237" xlink:href="#d"/><linearGradient id="g" gradientUnits="userSpaceOnUse" x1="8.270743" x2="12.885399" xlink:href="#e" y1="24.568764" y2="41.790894"/><g transform="scale(.25)"><path d="m96.759766 22.566406-16.038746.029219c-42.664343 1.555213-60.194181 30.937255-60.206487 65.210014l.02258 18.420921 4.017579-.0293.0072-18.391447c-1.158296-37.363242 25.256863-62.518298 56.159188-61.084475l15.99767.0091z" fill="#4d4d4d"/><g transform="translate(12.118799 66.321592)"><rect fill="url(#a)" height="16" rx="1.546875" width="16" x="3.8812" y="29.678408"/><rect fill="url(#b)" height="11.916666" rx=".837891" width="11.916671" x="5.964551" y="31.761745"/><path d="m7.1189636 31.761745c-.61893 0-1.11719.498267-1.11719 1.117188v5.632487c.90549.0861 1.83761.13965 2.79297.13965 3.4383604 0 6.6018004-.57984 9.1236904-1.55941v-4.212727c0-.618921-.49826-1.117188-1.11719-1.117188z" fill="url(#c)"/></g><g transform="translate(92.118799 -13.678408)"><rect fill="url(#a)" height="16" rx="1.546875" width="16" x="3.8812" y="29.678408"/><rect fill="url(#b)" height="11.916666" rx=".837891" width="11.916671" x="5.964551" y="31.761745"/><path d="m7.1189636 31.761745c-.61893 0-1.11719.498267-1.11719 1.117188v5.632487c.90549.0861 1.83761.13965 2.79297.13965 3.4383604 0 6.6018004-.57984 9.1236904-1.55941v-4.212727c0-.618921-.49826-1.117188-1.11719-1.117188z" fill="url(#c)"/></g><g transform="matrix(1.7536286 0 0 1.7536286 17.193817 -28.044904)"><rect fill="url(#a)" height="15.966892" rx="1.546875" width="15.966892" x="3.8812" y="29.678408"/><g stroke-width="1.116593"><rect fill="url(#f)" height="13.306068" rx=".935583" width="13.306074" x="5.267681" y="31.067043"/><path d="m6.5566893 31.067044c-.6910931 0-1.2474468.556361-1.2474468 1.247444v6.289197c1.011064.09614 2.0518629.155932 3.1186114.155932 3.8392501 0 7.3715261-.647445 10.1874511-1.741226v-4.703903c0-.691083-.556354-1.247444-1.247447-1.247444z" fill="url(#g)"/></g></g></g></svg>