<svg height="32" viewBox="0 0 32 32" width="32" xmlns="http://www.w3.org/2000/svg" xmlns:xlink="http://www.w3.org/1999/xlink"><linearGradient id="a" gradientTransform="matrix(.125 0 0 .125 -43.868628 -2.366586)" gradientUnits="userSpaceOnUse" x1="46.591778" x2="118.24603" y1="39.999996" y2="39.999996"><stop offset="0" stop-color="#ff6b6b"/><stop offset=".5" stop-color="#fc4141"/><stop offset="1" stop-color="#ff9f9f"/></linearGradient><linearGradient id="b"><stop offset="0" stop-color="#fff"/><stop offset=".42597079" stop-color="#fff"/><stop offset=".5892781" stop-color="#f9d1d1"/><stop offset=".80219781" stop-color="#fbd9d9"/><stop offset="1" stop-color="#fdd"/></linearGradient><linearGradient id="c" gradientUnits="userSpaceOnUse" x1="48.025391" x2="84" xlink:href="#a" y1="61.973633" y2="61.973633"/><linearGradient id="d" gradientUnits="userSpaceOnUse" x1="12" x2="84" xlink:href="#a" y1="80" y2="80"/><linearGradient id="e" gradientUnits="userSpaceOnUse" x1="47.955078" x2="124.00195" xlink:href="#a" y1="42.023438" y2="42.023438"/><linearGradient id="f" gradientUnits="userSpaceOnUse" x1="61.384575" x2="112.21442" xlink:href="#b" y1="58.160755" y2="11.951803"/><linearGradient id="g" gradientUnits="userSpaceOnUse" x1="130.698" x2="79.868164" xlink:href="#h" y1="21.193592" y2="53.539864"/><linearGradient id="h"><stop offset="0" stop-color="#fff"/><stop offset="1" stop-color="#fff" stop-opacity="0"/></linearGradient><linearGradient id="i" gradientTransform="matrix(0 .57141948 .76189349 0 1.524017 42.98484)" gradientUnits="userSpaceOnUse" x1="119.57646" x2="15.999996" xlink:href="#b" y1="23.792561" y2="109.6508"/><linearGradient id="j" gradientTransform="matrix(0 -1.3692663 -1.7142582 0 105.14142 195.38719)" gradientUnits="userSpaceOnUse" x1="102.31124" x2="74.330322" xlink:href="#h" y1="-5.830213" y2="32"/><g transform="scale(.25)"><path d="m15.164062 44c-1.753291 0-3.164062 1.213165-3.164062 2.720703v66.558597c0 1.50754 1.410771 2.7207 3.164062 2.7207h65.671876c1.753291 0 3.164062-1.21316 3.164062-2.7207v-33.332034a38.023575 38.023575 0 0 1 -35.974609-35.947266z" fill="url(#d)"/><path d="m17.523438 48c-.844178 0-1.523438.564277-1.523438 1.265625v61.468755c0 .70134.67926 1.26562 1.523438 1.26562h60.953124c.844178 0 1.523438-.56428 1.523438-1.26562v-31.207036a38.023575 38.023575 0 0 1 -31.550781-31.527344z" fill="url(#i)" fill-rule="evenodd"/><path d="m53.699219 62.074219c-13.085253 2.27686-26.953551 3.551767-37.699219 4.65625v37.269531c16.614895-6.691249 38.976825-16.018308 55.667969-26.773438a38.023575 38.023575 0 0 1 -17.96875-15.152343z" fill="url(#j)" fill-rule="evenodd"/><path d="m85.978516 4a38.023575 38.023575 0 0 0 -38.023438 38.023438 38.023575 38.023575 0 0 0 .070313 1.976562h32.810547c1.753291 0 3.164062 1.213165 3.164062 2.720703v33.226563a38.023575 38.023575 0 0 0 1.978516.09961 38.023575 38.023575 0 0 0 38.023434-38.023438 38.023575 38.023575 0 0 0 -38.023434-38.023438z" fill="url(#e)"/><path d="m85.978516 8a34.021244 34.021244 0 0 0 -34.021485 34.021484 34.021244 34.021244 0 0 0 .070313 1.978516h28.808594c1.753291 0 3.164062 1.213165 3.164062 2.720703v29.222656a34.021244 34.021244 0 0 0 1.978516.09961 34.021244 34.021244 0 0 0 34.021484-34.021485 34.021244 34.021244 0 0 0 -34.021484-34.021484z" fill="url(#f)"/><path d="m112.85938 21.193359c-18.021073 9.506515-41.002253 20.084862-60.623052 22.101563v.705078h28.59961c1.753291 0 3.164062 1.213165 3.164062 2.720703v20.822266c12.976338-9.719762 25.37269-20.866355 35.64258-30.169922a34.021243 34.021243 0 0 0 -6.7832-16.179688z" fill="url(#g)" fill-rule="evenodd"/><path d="m48.025391 44a38.023575 38.023575 0 0 0 35.974609 35.947266v-33.226563c0-1.507538-1.410771-2.720703-3.164062-2.720703zm4.470703 4h25.980468c.844178 0 1.523438.564277 1.523438 1.265625v26.216797a34.021244 34.021244 0 0 1 -27.503906-27.482422z" fill="url(#c)"/></g></svg>