<svg height="32" viewBox="0 0 8.4666665 8.4666669" width="32" xmlns="http://www.w3.org/2000/svg" xmlns:xlink="http://www.w3.org/1999/xlink"><linearGradient id="a" gradientUnits="userSpaceOnUse" x1="8.645128" x2="5.282946" xlink:href="#b" y1="289.935188" y2="292.074759"/><linearGradient id="b"><stop offset="0" stop-color="#fff"/><stop offset="1" stop-color="#fff" stop-opacity="0"/></linearGradient><linearGradient id="c" gradientUnits="userSpaceOnUse" x1="4.060334" x2="7.422516" xlink:href="#d" y1="292.380412" y2="289.323882"/><linearGradient id="d"><stop offset="0" stop-color="#fff"/><stop offset=".42597079" stop-color="#fff"/><stop offset=".5892781" stop-color="#f9d1d1"/><stop offset=".80219781" stop-color="#fbd9d9"/><stop offset="1" stop-color="#fdd"/></linearGradient><linearGradient id="e" gradientTransform="matrix(.26458333 0 0 .26458333 0 288.53332)" gradientUnits="userSpaceOnUse" x1="11.988281" x2="31" xlink:href="#f" y1="10.505859" y2="10.505859"/><linearGradient id="f" gradientTransform="matrix(.125 0 0 .125 -25.156763 .887652)" gradientUnits="userSpaceOnUse" x1="46.591778" x2="118.24603" y1="39.999996" y2="39.999996"><stop offset="0" stop-color="#ff6b6b"/><stop offset=".5" stop-color="#fc4141"/><stop offset="1" stop-color="#ff9f9f"/></linearGradient><linearGradient id="g" gradientTransform="matrix(0 -.09057126 -.11339104 0 6.954667 301.45736)" gradientUnits="userSpaceOnUse" x1="95.954445" x2="74.330322" xlink:href="#b" y1="11.166008" y2="32"/><linearGradient id="h" gradientTransform="matrix(0 .03779702 .05039608 0 .100807 291.37658)" gradientUnits="userSpaceOnUse" x1="119.57646" x2="15.999996" xlink:href="#d" y1="23.792561" y2="109.6508"/><linearGradient id="i" gradientTransform="matrix(.26458333 0 0 .26458333 0 288.53332)" gradientUnits="userSpaceOnUse" x1="3" x2="21" xlink:href="#f" y1="20" y2="20"/><g stroke-width=".264583" transform="translate(0 -288.53332)"><path d="m1.0030395 291.44373c-.11597284 0-.2092895.0801-.2092895.17984v2.20503 2.1978c0 .0997.0933167.17983.2092895.17983h2.1704103 2.1735105c.115973 0 .2092897-.0801.2092897-.17983v-2.20503-2.1978c0-.0997-.093317-.17984-.2092897-.17984h-2.1704101z" fill="url(#i)"/><path d="m1.1591024 291.70832c-.055839 0-.1007691.0373-.1007691.0837v2.06396 2.00194c0 .0464.04493.0837.1007691.0837h1.9859253 2.04587c.055839 0 .100769-.0373.100769-.0837v-2.06395-2.00195c0-.0464-.04493-.0837-.100769-.0837h-1.9859254z" fill="url(#h)" fill-rule="evenodd"/><path d="m5.2916667 292.23748c-.8655352.15061-3.5225522.63672-4.2333334.70978v2.46522c1.0990061-.44259 3.1292837-1.14067 4.2333334-1.85208z" fill="url(#g)" fill-rule="evenodd"/><path d="m5.6869915 288.7979a2.5151011 2.5151011 0 0 0 -2.5150922 2.51509 2.5151011 2.5151011 0 0 0 .00465.13074h.00206a2.5151011 2.5151011 0 0 0 2.5083776 2.38435 2.5151011 2.5151011 0 0 0 2.5150918-2.51509 2.5151011 2.5151011 0 0 0 -.00465-.13074h-.00156a2.5151011 2.5151011 0 0 0 -2.5088794-2.38435z" fill="url(#e)"/><path d="m5.6869915 289.06248a2.2503635 2.2503635 0 0 0 -2.2499921 2.25051 2.2503635 2.2503635 0 0 0 .00465.13074h.00156a2.2503635 2.2503635 0 0 0 2.2437802 2.11925 2.2503635 2.2503635 0 0 0 2.2505085-2.24999 2.2503635 2.2503635 0 0 0 -.00465-.13126h-.00206a2.2503635 2.2503635 0 0 0 -2.2437966-2.11925z" fill="url(#c)"/><path d="m7.4651777 289.93517c-1.1920188.62882-2.7121281 1.32853-4.0099623 1.46193v.0466h1.8917449c.115973 0 .2092897.0803.2092897.17997v1.3773c.8583306-.64292 1.6782979-1.38022 2.3576082-1.99561a2.2503635 2.2503635 0 0 0 -.4486805-1.07022z" fill="url(#a)" fill-rule="evenodd"/></g></svg>