<svg height="32" width="32" xmlns="http://www.w3.org/2000/svg" xmlns:xlink="http://www.w3.org/1999/xlink"><linearGradient id="a" gradientUnits="userSpaceOnUse" x1="14.214549" x2="17.881189" xlink:href="#d" y1="13.67841" y2="46.67841"/><radialGradient id="b" cx="72.631729" cy="22.787588" gradientTransform="matrix(7.0638773 0 0 7.0638919 -501.13873 -120.26981)" gradientUnits="userSpaceOnUse" r="1.265237" xlink:href="#d"/><linearGradient id="c" gradientUnits="userSpaceOnUse" x1="8.654038" x2="12.786838" y1="25.942007" y2="41.365826"><stop offset="0" stop-color="#fff"/><stop offset="1" stop-color="#fff" stop-opacity="0"/></linearGradient><linearGradient id="d"><stop offset="0" stop-color="#fd0000"/><stop offset="1" stop-color="#8f0000"/></linearGradient><g transform="scale(.25)"><path d="m16 20-.03657 80.0182 4.017454-.0155.184124-79.954995z" fill="#4d4d4d"/><g transform="translate(8.130495 -17.621651)"><rect fill="url(#a)" height="16" rx="1.546875" width="16" x="3.8812" y="29.678408"/><rect fill="url(#b)" height="11.916666" rx=".837891" width="11.916671" x="5.964551" y="31.761745"/><path d="m7.1189636 31.761745c-.61893 0-1.11719.498267-1.11719 1.117188v5.632487c.90549.0861 1.83761.13965 2.79297.13965 3.4383604 0 6.6018004-.57984 9.1236904-1.55941v-4.212727c0-.618921-.49826-1.117188-1.11719-1.117188z" fill="url(#c)"/></g><g transform="translate(8.130495 70.264835)"><rect fill="url(#a)" height="16" rx="1.546875" width="16" x="3.8812" y="29.678408"/><rect fill="url(#b)" height="11.916666" rx=".837891" width="11.916671" x="5.964551" y="31.761745"/><path d="m7.1189636 31.761745c-.61893 0-1.11719.498267-1.11719 1.117188v5.632487c.90549.0861 1.83761.13965 2.79297.13965 3.4383604 0 6.6018004-.57984 9.1236904-1.55941v-4.212727c0-.618921-.49826-1.117188-1.11719-1.117188z" fill="url(#c)"/></g><path d="m108.0182 16.03657-80.0182-.03657.01554 4.017454 79.95499.184124z" fill="#4d4d4d"/><g transform="translate(96.107105 -17.621651)"><rect fill="url(#a)" height="16" rx="1.546875" width="16" x="3.8812" y="29.678408"/><rect fill="url(#b)" height="11.916666" rx=".837891" width="11.916671" x="5.964551" y="31.761745"/><path d="m7.1189636 31.761745c-.61893 0-1.11719.498267-1.11719 1.117188v5.632487c.90549.0861 1.83761.13965 2.79297.13965 3.4383604 0 6.6018004-.57984 9.1236904-1.55941v-4.212727c0-.618921-.49826-1.117188-1.11719-1.117188z" fill="url(#c)"/></g><path d="m30 8.0996094c-13.22408-.4419294-21.2883468 5.6933466-22 21.9003906h1c.3623888-15.983664 9.090907-20.8032973 21-21z" fill="#06f" transform="scale(4)"/></g></svg>