<svg height="32" width="32" xmlns="http://www.w3.org/2000/svg" xmlns:xlink="http://www.w3.org/1999/xlink"><linearGradient id="a"><stop offset="0" stop-color="#fff"/><stop offset="1" stop-color="#fff" stop-opacity="0"/></linearGradient><linearGradient id="b"><stop offset="0" stop-color="#0968ef"/><stop offset="1" stop-color="#aecffc"/></linearGradient><linearGradient id="c" gradientUnits="userSpaceOnUse" x1="44.492756" x2="44.492756" xlink:href="#b" y1="143.22504" y2="70.334091"/><linearGradient id="d" gradientTransform="matrix(.7768707 0 0 .9757987 14.280282 3.154388)" gradientUnits="userSpaceOnUse" x1="71.754753" x2="63.999992" xlink:href="#b" y1="39.122932" y2="154.62848"/><linearGradient id="e" gradientUnits="userSpaceOnUse" x1="55.039051" x2="55.039051" xlink:href="#a" y1="-2.005248" y2="85.979202"/><linearGradient id="f" gradientTransform="matrix(1.3 0 0 1 -31.2 0)" gradientUnits="userSpaceOnUse" x1="63.741604" x2="63.741604" xlink:href="#a" y1="116.41339" y2="128.04443"/><linearGradient id="g" gradientTransform="matrix(1.3 0 0 1 -139.19999 -.00001)" gradientUnits="userSpaceOnUse" x1="63.741604" x2="63.741604" xlink:href="#a" y1="116.41339" y2="128.04443"/><mask id="h" maskUnits="userSpaceOnUse"><rect fill="url(#f)" height="120.00004" rx="1.543157" ry="1.992351" width="104" y="8"/><rect fill="url(#g)" height="120.00004" rx="1.543157" ry="1.992351" transform="rotate(-90)" width="104" x="-108" y="8"/></mask><linearGradient id="i" gradientUnits="userSpaceOnUse" x1="66.103683" x2="66.103683" y1="5.944947" y2="99.655617"><stop offset="0" stop-color="#2e2e2e"/><stop offset="1" stop-color="#8f8f8f"/></linearGradient><g mask="url(#h)" transform="scale(.25)"><path d="m38 30v32 114c0 14.404 11.596 26 26 26s26-11.596 26-26v-93.9375l101.9375.1875c14.40397.026935 26.03557-15.564775 26.0625-29.96875s-11.53353-22.004315-25.9375-22.03125l-122-.25z" style="stroke-width:4;stroke-linecap:round;stroke-linejoin:round;stroke-dashoffset:1.0878;fill:url(#c);stroke:url(#d)"/><path d="m58 130.53125c0 3.324 2.4881 6 5.5625 6h.875c3.0744 0 5.5625-2.676 5.5625-6v-68.53125h70c3.324 0 6-2.676 6-6s-2.676-6-6-6h-82z" style="fill:#fff;stroke-width:4;stroke-linecap:round;stroke-linejoin:round;stroke-dashoffset:1.0878;stroke:url(#i)"/><path d="m154 53.992351v5.015298c0 1.103762-.88859 1.992351-1.99235 1.992351-20.70591 3.967675-94.072291 17.034088-112.00765 13-1.103762 0-1.992351-.888589-1.992351-1.992351l-.007649-42.007649c0-.07577 92.1514.000314 92.2269.00094 15.86759.131564 23.7731 14.046379 23.7731 23.991411z" fill="url(#e)"/><path d="m58 62v68.53125c0 3.324 2.4881 6 5.5625 6h.875c3.0744 0 5.5625-2.676 5.5625-6v-68.53125h70c3.324 0 6-2.676 6-6s-2.676-6-6-6h-82z" style="opacity:.652174;fill:#fff;stroke-width:4;stroke-linecap:round;stroke-linejoin:round;stroke-dashoffset:1.0878;stroke:url(#i)"/></g></svg>