<?xml version="1.0" encoding="UTF-8" standalone="no"?>
<svg
   xmlns:dc="http://purl.org/dc/elements/1.1/"
   xmlns:cc="http://creativecommons.org/ns#"
   xmlns:rdf="http://www.w3.org/1999/02/22-rdf-syntax-ns#"
   xmlns:svg="http://www.w3.org/2000/svg"
   xmlns="http://www.w3.org/2000/svg"
   xmlns:xlink="http://www.w3.org/1999/xlink"
   xmlns:sodipodi="http://sodipodi.sourceforge.net/DTD/sodipodi-0.dtd"
   xmlns:inkscape="http://www.inkscape.org/namespaces/inkscape"
   enable-background="new 0 0 128 128"
   height="32"
   viewBox="0 0 32 32"
   width="32"
   version="1.1"
   id="svg132"
   sodipodi:docname="view-pages-facing.svg"
   inkscape:version="0.92.5 (2060ec1f9f, 2020-04-08)"
   inkscape:export-filename="/home/rizmut/Dokumen/Rizmut/Github/karasa-jaga-icon-theme/build/Karasa-Jaga/32x32/actions/view-pages-facing.png"
   inkscape:export-xdpi="96"
   inkscape:export-ydpi="96">
  <metadata
     id="metadata138">
    <rdf:RDF>
      <cc:Work
         rdf:about="">
        <dc:format>image/svg+xml</dc:format>
        <dc:type
           rdf:resource="http://purl.org/dc/dcmitype/StillImage" />
        <dc:title></dc:title>
      </cc:Work>
    </rdf:RDF>
  </metadata>
  <defs
     id="defs136">
    <linearGradient
       inkscape:collect="always"
       xlink:href="#c"
       id="linearGradient947"
       gradientUnits="userSpaceOnUse"
       x1="88.591797"
       y1="96.592697"
       x2="71.262016"
       y2="79.262917" />
    <linearGradient
       inkscape:collect="always"
       xlink:href="#d"
       id="linearGradient949"
       gradientUnits="userSpaceOnUse"
       x1="85.219681"
       y1="93.219681"
       x2="61.336319"
       y2="69.336319" />
    <linearGradient
       inkscape:collect="always"
       xlink:href="#e"
       id="linearGradient951"
       gradientUnits="userSpaceOnUse"
       x1="96"
       y1="104"
       x2="88.000198"
       y2="96.000198" />
  </defs>
  <sodipodi:namedview
     pagecolor="#ffffff"
     bordercolor="#666666"
     borderopacity="1"
     objecttolerance="10"
     gridtolerance="10"
     guidetolerance="10"
     inkscape:pageopacity="0"
     inkscape:pageshadow="2"
     inkscape:window-width="1366"
     inkscape:window-height="700"
     id="namedview134"
     showgrid="true"
     inkscape:zoom="14.75"
     inkscape:cx="5.7995744"
     inkscape:cy="16.621259"
     inkscape:window-x="0"
     inkscape:window-y="0"
     inkscape:window-maximized="1"
     inkscape:current-layer="g130">
    <inkscape:grid
       type="xygrid"
       id="grid945" />
  </sodipodi:namedview>
  <radialGradient
     id="a"
     cx="102"
     cy="112.3047"
     gradientTransform="translate(52 28.000104)"
     gradientUnits="userSpaceOnUse"
     r="139.5585"
     xlink:href="#i" />
  <radialGradient
     id="b"
     cx="102"
     cy="112.3047"
     gradientTransform="matrix(.9787234 0 0 .9818182 53.361705 29.16374)"
     gradientUnits="userSpaceOnUse"
     r="139.55859"
     xlink:href="#h" />
  <linearGradient
     id="c"
     gradientUnits="userSpaceOnUse"
     x1="88.591797"
     x2="71.262016"
     y1="96.592697"
     y2="79.262917">
    <stop
       offset="0"
       stop-color="#fff"
       id="stop4" />
    <stop
       offset="1"
       stop-color="#555753"
       id="stop6" />
  </linearGradient>
  <linearGradient
     id="d"
     gradientUnits="userSpaceOnUse"
     x1="85.219681"
     x2="61.336319"
     y1="93.219681"
     y2="69.336319">
    <stop
       offset="0"
       id="stop9" />
    <stop
       offset="1"
       stop-color="#393b38"
       id="stop11" />
  </linearGradient>
  <linearGradient
     id="e"
     gradientUnits="userSpaceOnUse"
     x1="96"
     x2="88.000198"
     y1="104"
     y2="96.000198">
    <stop
       offset="0"
       stop-color="#888a85"
       id="stop14" />
    <stop
       offset=".0072"
       stop-color="#8c8e89"
       id="stop16" />
    <stop
       offset=".0673"
       stop-color="#abaca9"
       id="stop18" />
    <stop
       offset=".1347"
       stop-color="#c5c6c4"
       id="stop20" />
    <stop
       offset=".2115"
       stop-color="#dbdbda"
       id="stop22" />
    <stop
       offset=".3012"
       stop-color="#ebebeb"
       id="stop24" />
    <stop
       offset=".4122"
       stop-color="#f7f7f6"
       id="stop26" />
    <stop
       offset=".5679"
       stop-color="#fdfdfd"
       id="stop28" />
    <stop
       offset="1"
       stop-color="#fff"
       id="stop30" />
  </linearGradient>
  <radialGradient
     id="f"
     cx="102"
     cy="112.3047"
     gradientTransform="translate(-8,28.000104)"
     gradientUnits="userSpaceOnUse"
     r="139.5585"
     xlink:href="#i" />
  <radialGradient
     id="g"
     cx="102"
     cy="112.3047"
     gradientTransform="matrix(0.9787234,0,0,0.9818182,-6.638295,29.16374)"
     gradientUnits="userSpaceOnUse"
     r="139.55859"
     xlink:href="#h" />
  <radialGradient
     id="h"
     cx="102"
     cy="112.3047"
     gradientTransform="matrix(.9787234 0 0 .9818182 -10.638295 -2.836364)"
     gradientUnits="userSpaceOnUse"
     r="139.55859">
    <stop
       offset="0"
       stop-color="#535557"
       id="stop35" />
    <stop
       offset=".11366145"
       stop-color="#898a8c"
       id="stop37" />
    <stop
       offset=".20296688"
       stop-color="#ececec"
       id="stop39" />
    <stop
       offset=".2363"
       stop-color="#fafafa"
       id="stop41" />
    <stop
       offset=".2722"
       stop-color="#fff"
       id="stop43" />
    <stop
       offset=".5313"
       stop-color="#fafafa"
       id="stop45" />
    <stop
       offset=".8449"
       stop-color="#ebecec"
       id="stop47" />
    <stop
       offset="1"
       stop-color="#e1e2e3"
       id="stop49" />
  </radialGradient>
  <radialGradient
     id="i"
     cx="102"
     cy="112.3047"
     gradientTransform="translate(-12 -4)"
     gradientUnits="userSpaceOnUse"
     r="139.5585">
    <stop
       offset="0"
       stop-color="#00537d"
       id="stop52" />
    <stop
       offset=".0151"
       stop-color="#186389"
       id="stop54" />
    <stop
       offset=".0558"
       stop-color="#558ca8"
       id="stop56" />
    <stop
       offset=".0964"
       stop-color="#89afc3"
       id="stop58" />
    <stop
       offset=".1357"
       stop-color="#b3ccd8"
       id="stop60" />
    <stop
       offset=".1737"
       stop-color="#d4e2e9"
       id="stop62" />
    <stop
       offset=".2099"
       stop-color="#ecf2f5"
       id="stop64" />
    <stop
       offset=".2435"
       stop-color="#fafcfd"
       id="stop66" />
    <stop
       offset=".2722"
       stop-color="#fff"
       id="stop68" />
  </radialGradient>
  <filter
     id="j">
    <feGaussianBlur
       stdDeviation="1.0394514"
       id="feGaussianBlur71" />
  </filter>
  <filter
     id="k">
    <feGaussianBlur
       stdDeviation=".50063244"
       id="feGaussianBlur74" />
  </filter>
  <filter
     id="l">
    <feGaussianBlur
       stdDeviation=".40750996"
       id="feGaussianBlur77" />
  </filter>
  <filter
     id="m">
    <feGaussianBlur
       stdDeviation=".4901192"
       id="feGaussianBlur80" />
  </filter>
  <filter
     id="n">
    <feGaussianBlur
       stdDeviation=".90565481"
       id="feGaussianBlur83" />
  </filter>
  <g
     transform="scale(.25)"
     id="g130">
    <g
       id="g106"
       transform="matrix(-1,0,0,1,68.000059,0)">
      <path
         d="m 23,5.1378308 0.04082,61.7932002 h 34.251177 c 0.53,0 1.046457,-0.203604 1.414,-0.586 L 76.174001,48.17113 c 0.367542,-0.382395 0.589522,-0.884012 0.586,-1.414 V 5.1378307 Z"
         transform="matrix(1.0416667,0,0,1.0357143,-17.958333,24.67857)"
         id="path86"
         inkscape:connector-curvature="0"
         style="opacity:0.30684904;filter:url(#j)" />
      <path
         d="M 24.919999,7.0689668 V 65.000101 l 31.795998,-1e-4 c 0.53,0 1.039,-0.211 1.414,-0.586 L 74.254001,47.302164 c 0.375,-0.375 0.586,-0.884 0.586,-1.414 V 7.0689668 Z"
         transform="matrix(1.0416667,0,0,1.0357143,-17.958333,24.67857)"
         id="path88"
         inkscape:connector-curvature="0"
         style="opacity:0.89589;filter:url(#k)" />
      <path
         d="m 23,6.103348 0.04082,60.827683 h 34.251181 c 0.53,0 1.046457,-0.203604 1.414,-0.586 L 76.174005,48.17113 c 0.367542,-0.382395 0.589615,-0.884013 0.586,-1.414 V 6.1033479 Z"
         transform="matrix(1.0416667,0,0,1.0357143,-17.958333,24.67857)"
         id="path90"
         inkscape:connector-curvature="0"
         style="opacity:0.30684904;filter:url(#j)" />
      <path
         d="m 8.0000018,32 -10e-8,60.0001 H 41.171998 c 0.53,0 1.04805,-0.202163 1.414,-0.586 L 59.414,73.763559 c 0.365949,-0.383837 0.586,-0.884 0.586,-1.414 V 32 Z"
         id="path92"
         style="fill:url(#f)"
         inkscape:connector-curvature="0" />
      <path
         d="m 11.678725,34.7 c -0.539276,0 -0.978723,0.440836 -0.978723,0.981818 l -0.7,53.336462 c 0,0.54197 0.439447,0.98182 0.978723,0.98182 h 29.913018 c 0.257404,0 0.509915,-0.10407 0.691957,-0.28767 L 57.71323,72.658759 C 57.89626,72.475159 58,72.222832 58,71.964614 V 34.981818 C 58,34.440836 57.56153,34 57.02128,34 Z"
         id="path94"
         style="fill:url(#g)"
         inkscape:connector-curvature="0" />
      <g
         transform="matrix(0.57284286,-0.01669599,0.01669599,0.57284286,-5.593249,24.843056)"
         id="g104">
        <path
           d="M 111.414,86.586 C 111.664,86.336 85.035,85 80,85 c -1.654,0 -3,1.346 -3,3 0,5.035 1.336,31.664 1.586,31.414 z"
           id="path96"
           style="opacity:0.1;fill:url(#linearGradient947);filter:url(#l)"
           inkscape:connector-curvature="0" />
        <path
           d="M 111.414,86.586 C 111.789,86.211 89.444,86 80,86 c -1.103,0 -2,0.897 -2,2 0,9.444 0.211,31.789 0.586,31.414 z"
           id="path98"
           inkscape:connector-curvature="0"
           style="opacity:0.49300005;filter:url(#n)" />
        <path
           d="M 111.414,86.586 C 111.653,86.347 89.807,87 80,87 c -0.553,0 -1,0.447 -1,1 0,9.807 -0.653,31.653 -0.414,31.414 z"
           id="path100"
           style="opacity:0.1;fill:url(#linearGradient949);filter:url(#m)"
           inkscape:connector-curvature="0" />
        <path
           d="m 78.586,119.414 c 0,0 11.914,-9.914 17.414,-15.414 5.5,-5.5 15.414,-17.414 15.414,-17.414 0,0 -21.164,1.414 -31.414,1.414 0,10.25 -1.414,31.414 -1.414,31.414 z"
           id="path102"
           style="fill:url(#linearGradient951)"
           inkscape:connector-curvature="0" />
      </g>
    </g>
    <g
       id="g128">
      <path
         d="m23 5.1378308.04082 61.7932002h34.251177c.53 0 1.046457-.203604 1.414-.586l17.468004-18.173901c.367542-.382395.589522-.884012.586-1.414v-41.6192993z"
         filter="url(#j)"
         opacity=".306849"
         transform="matrix(1.0416667 0 0 1.0357143 42.041667 24.67857)"
         id="path108" />
      <path
         d="m24.919999 7.0689668v57.9311342l31.795998-.0001c.53 0 1.039-.211 1.414-.586l16.124004-17.111837c.375-.375.586-.884.586-1.414v-38.8191972z"
         filter="url(#k)"
         opacity=".89589"
         transform="matrix(1.0416667 0 0 1.0357143 42.041667 24.67857)"
         id="path110" />
      <path
         d="m23 6.103348.04082 60.827683h34.251181c.53 0 1.046457-.203604 1.414-.586l17.468004-18.173901c.367542-.382395.589615-.884013.586-1.414v-40.6537821z"
         filter="url(#j)"
         opacity=".306849"
         transform="matrix(1.0416667 0 0 1.0357143 42.041667 24.67857)"
         id="path112" />
      <path
         d="m68.000002 32v60.0001h33.171998c.53 0 1.04805-.202163 1.414-.586l16.828-17.650541c.36595-.383837.586-.884.586-1.414v-40.349559z"
         fill="url(#a)"
         id="path114" />
      <path
         d="m71.678725 34.7c-.539276 0-.978723.440836-.978723.981818l-.7 53.336462c0 .54197.439447.98182.978723.98182h29.913015c.25741 0 .50992-.10407.69196-.28767l16.12953-17.053671c.18303-.1836.28677-.435927.28677-.694145v-36.982796c0-.540982-.43847-.981818-.97872-.981818z"
         fill="url(#b)"
         id="path116" />
      <g
         transform="matrix(.57284286 -.01669599 .01669599 .57284286 54.406751 24.843056)"
         id="g126">
        <path
           d="m111.414 86.586c.25-.25-26.379-1.586-31.414-1.586-1.654 0-3 1.346-3 3 0 5.035 1.336 31.664 1.586 31.414z"
           fill="url(#c)"
           filter="url(#l)"
           opacity=".1"
           id="path118" />
        <path
           d="m111.414 86.586c.375-.375-21.97-.586-31.414-.586-1.103 0-2 .897-2 2 0 9.444.211 31.789.586 31.414z"
           filter="url(#n)"
           opacity=".493"
           id="path120" />
        <path
           d="m111.414 86.586c.239-.239-21.607.414-31.414.414-.553 0-1 .447-1 1 0 9.807-.653 31.653-.414 31.414z"
           fill="url(#d)"
           filter="url(#m)"
           opacity=".1"
           id="path122" />
        <path
           d="m78.586 119.414s11.914-9.914 17.414-15.414 15.414-17.414 15.414-17.414-21.164 1.414-31.414 1.414c0 10.25-1.414 31.414-1.414 31.414z"
           fill="url(#e)"
           id="path124" />
      </g>
    </g>
  </g>
</svg>
