<?xml version="1.0" encoding="UTF-8" standalone="no"?>
<svg
   xmlns:dc="http://purl.org/dc/elements/1.1/"
   xmlns:cc="http://creativecommons.org/ns#"
   xmlns:rdf="http://www.w3.org/1999/02/22-rdf-syntax-ns#"
   xmlns:svg="http://www.w3.org/2000/svg"
   xmlns="http://www.w3.org/2000/svg"
   xmlns:xlink="http://www.w3.org/1999/xlink"
   xmlns:sodipodi="http://sodipodi.sourceforge.net/DTD/sodipodi-0.dtd"
   xmlns:inkscape="http://www.inkscape.org/namespaces/inkscape"
   enable-background="new 0 0 128 128"
   height="32"
   viewBox="0 0 32 32"
   width="32"
   version="1.1"
   id="svg170"
   sodipodi:docname="view-pages-facing-first-centered.svg"
   inkscape:version="0.92.5 (2060ec1f9f, 2020-04-08)"
   inkscape:export-filename="/home/rizmut/Dokumen/Rizmut/Github/karasa-jaga-icon-theme/build/Karasa-Jaga/32x32/actions/view-pages-facing-first-centered.png"
   inkscape:export-xdpi="96"
   inkscape:export-ydpi="96">
  <metadata
     id="metadata176">
    <rdf:RDF>
      <cc:Work
         rdf:about="">
        <dc:format>image/svg+xml</dc:format>
        <dc:type
           rdf:resource="http://purl.org/dc/dcmitype/StillImage" />
        <dc:title></dc:title>
      </cc:Work>
    </rdf:RDF>
  </metadata>
  <defs
     id="defs174">
    <radialGradient
       inkscape:collect="always"
       xlink:href="#a"
       id="radialGradient985"
       gradientUnits="userSpaceOnUse"
       cx="90"
       cy="108.3047"
       r="139.5585" />
    <radialGradient
       inkscape:collect="always"
       xlink:href="#b"
       id="radialGradient987"
       gradientUnits="userSpaceOnUse"
       gradientTransform="matrix(0.9787234,0,0,0.9818182,-10.638295,-2.836364)"
       cx="102"
       cy="112.3047"
       r="139.55859" />
    <linearGradient
       inkscape:collect="always"
       xlink:href="#c"
       id="linearGradient989"
       gradientUnits="userSpaceOnUse"
       x1="88.591797"
       y1="96.592697"
       x2="71.262016"
       y2="79.262917" />
    <linearGradient
       inkscape:collect="always"
       xlink:href="#d"
       id="linearGradient991"
       gradientUnits="userSpaceOnUse"
       x1="85.219681"
       y1="93.219681"
       x2="61.336319"
       y2="69.336319" />
    <linearGradient
       inkscape:collect="always"
       xlink:href="#e"
       id="linearGradient993"
       gradientUnits="userSpaceOnUse"
       x1="96"
       y1="104"
       x2="88.000198"
       y2="96.000198" />
  </defs>
  <sodipodi:namedview
     pagecolor="#ffffff"
     bordercolor="#666666"
     borderopacity="1"
     objecttolerance="10"
     gridtolerance="10"
     guidetolerance="10"
     inkscape:pageopacity="0"
     inkscape:pageshadow="2"
     inkscape:window-width="1366"
     inkscape:window-height="700"
     id="namedview172"
     showgrid="true"
     inkscape:zoom="14.75"
     inkscape:cx="8.8886247"
     inkscape:cy="20.552777"
     inkscape:window-x="0"
     inkscape:window-y="0"
     inkscape:window-maximized="1"
     inkscape:current-layer="svg170">
    <inkscape:grid
       type="xygrid"
       id="grid983" />
  </sodipodi:namedview>
  <radialGradient
     id="a"
     cx="90"
     cy="108.3047"
     gradientUnits="userSpaceOnUse"
     r="139.5585">
    <stop
       offset="0"
       stop-color="#00537d"
       id="stop2" />
    <stop
       offset=".0151"
       stop-color="#186389"
       id="stop4" />
    <stop
       offset=".0558"
       stop-color="#558ca8"
       id="stop6" />
    <stop
       offset=".0964"
       stop-color="#89afc3"
       id="stop8" />
    <stop
       offset=".1357"
       stop-color="#b3ccd8"
       id="stop10" />
    <stop
       offset=".1737"
       stop-color="#d4e2e9"
       id="stop12" />
    <stop
       offset=".2099"
       stop-color="#ecf2f5"
       id="stop14" />
    <stop
       offset=".2435"
       stop-color="#fafcfd"
       id="stop16" />
    <stop
       offset=".2722"
       stop-color="#fff"
       id="stop18" />
  </radialGradient>
  <radialGradient
     id="b"
     cx="102"
     cy="112.3047"
     gradientTransform="matrix(.9787234 0 0 .9818182 -10.638295 -2.836364)"
     gradientUnits="userSpaceOnUse"
     r="139.55859">
    <stop
       offset="0"
       stop-color="#535557"
       id="stop21" />
    <stop
       offset=".11366145"
       stop-color="#898a8c"
       id="stop23" />
    <stop
       offset=".20296688"
       stop-color="#ececec"
       id="stop25" />
    <stop
       offset=".2363"
       stop-color="#fafafa"
       id="stop27" />
    <stop
       offset=".2722"
       stop-color="#fff"
       id="stop29" />
    <stop
       offset=".5313"
       stop-color="#fafafa"
       id="stop31" />
    <stop
       offset=".8449"
       stop-color="#ebecec"
       id="stop33" />
    <stop
       offset="1"
       stop-color="#e1e2e3"
       id="stop35" />
  </radialGradient>
  <linearGradient
     id="c"
     gradientUnits="userSpaceOnUse"
     x1="88.591797"
     x2="71.262016"
     y1="96.592697"
     y2="79.262917">
    <stop
       offset="0"
       stop-color="#fff"
       id="stop38" />
    <stop
       offset="1"
       stop-color="#555753"
       id="stop40" />
  </linearGradient>
  <linearGradient
     id="d"
     gradientUnits="userSpaceOnUse"
     x1="85.219681"
     x2="61.336319"
     y1="93.219681"
     y2="69.336319">
    <stop
       offset="0"
       id="stop43" />
    <stop
       offset="1"
       stop-color="#393b38"
       id="stop45" />
  </linearGradient>
  <linearGradient
     id="e"
     gradientUnits="userSpaceOnUse"
     x1="96"
     x2="88.000198"
     y1="104"
     y2="96.000198">
    <stop
       offset="0"
       stop-color="#888a85"
       id="stop48" />
    <stop
       offset=".0072"
       stop-color="#8c8e89"
       id="stop50" />
    <stop
       offset=".0673"
       stop-color="#abaca9"
       id="stop52" />
    <stop
       offset=".1347"
       stop-color="#c5c6c4"
       id="stop54" />
    <stop
       offset=".2115"
       stop-color="#dbdbda"
       id="stop56" />
    <stop
       offset=".3012"
       stop-color="#ebebeb"
       id="stop58" />
    <stop
       offset=".4122"
       stop-color="#f7f7f6"
       id="stop60" />
    <stop
       offset=".5679"
       stop-color="#fdfdfd"
       id="stop62" />
    <stop
       offset="1"
       stop-color="#fff"
       id="stop64" />
  </linearGradient>
  <filter
     id="f">
    <feGaussianBlur
       stdDeviation="1.0394514"
       id="feGaussianBlur67" />
  </filter>
  <filter
     id="g">
    <feGaussianBlur
       stdDeviation=".50063244"
       id="feGaussianBlur70" />
  </filter>
  <filter
     id="h">
    <feGaussianBlur
       stdDeviation=".40750996"
       id="feGaussianBlur73" />
  </filter>
  <filter
     id="i">
    <feGaussianBlur
       stdDeviation=".4901192"
       id="feGaussianBlur76" />
  </filter>
  <filter
     id="j">
    <feGaussianBlur
       stdDeviation=".90565481"
       id="feGaussianBlur79" />
  </filter>
  <g
     transform="matrix(0.25,0,0,0.25,9,2.6e-5)"
     id="g102">
    <path
       d="m 23,9 0.04082,57.931031 h 34.251177 c 0.53,0 1.046457,-0.203604 1.414,-0.586 L 76.174001,48.17113 c 0.367542,-0.382395 0.589522,-0.884012 0.586,-1.414 V 8.9999999 Z"
       transform="matrix(1.0416667,0,0,1.0357143,-21.958333,-7.321534)"
       id="path82"
       inkscape:connector-curvature="0"
       style="opacity:0.30684904;filter:url(#f)" />
    <path
       d="m 24.919999,10.931136 v 54.068965 l 31.795998,-1e-4 c 0.53,0 1.039,-0.211 1.414,-0.586 L 74.254001,47.302164 c 0.375,-0.375 0.586,-0.884 0.586,-1.414 V 10.931136 Z"
       transform="matrix(1.0416667,0,0,1.0357143,-21.958333,-7.321534)"
       id="path84"
       inkscape:connector-curvature="0"
       style="opacity:0.89589;filter:url(#g)" />
    <path
       d="m 23,9.9655172 0.04082,56.9655138 h 34.251181 c 0.53,0 1.046457,-0.203604 1.414,-0.586 L 76.174005,48.17113 c 0.367542,-0.382395 0.589615,-0.884013 0.586,-1.414 V 9.9655171 Z"
       transform="matrix(1.0416667,0,0,1.0357143,-21.958333,-7.321534)"
       id="path86"
       inkscape:connector-curvature="0"
       style="opacity:0.30684904;filter:url(#f)" />
    <path
       d="m 4.0000019,4.0000001 -2e-7,55.9999959 H 37.171998 c 0.53,0 1.04805,-0.202163 1.414,-0.586 L 55.414,41.763455 c 0.365949,-0.383837 0.586,-0.884 0.586,-1.414 V 4 Z"
       id="path88"
       style="fill:url(#radialGradient985)"
       inkscape:connector-curvature="0" />
    <path
       d="m 7.6787249,6.7000001 c -0.539276,0 -0.978723,0.440836 -0.978723,0.981818 L 6.0000017,57.018176 c 0,0.54197 0.439447,0.98182 0.978723,0.98182 H 36.891743 c 0.257404,0 0.509915,-0.10407 0.691957,-0.28767 L 53.71323,40.658655 C 53.89626,40.475055 54,40.222728 54,39.96451 V 6.981818 C 54,6.440836 53.56153,6 53.02128,6 Z"
       id="path90"
       style="fill:url(#radialGradient987)"
       inkscape:connector-curvature="0" />
    <g
       transform="matrix(0.57284286,-0.01669599,0.01669599,0.57284286,-9.593249,-7.157048)"
       id="g100">
      <path
         d="M 111.414,86.586 C 111.664,86.336 85.035,85 80,85 c -1.654,0 -3,1.346 -3,3 0,5.035 1.336,31.664 1.586,31.414 z"
         id="path92"
         style="opacity:0.1;fill:url(#linearGradient989);filter:url(#h)"
         inkscape:connector-curvature="0" />
      <path
         d="M 111.414,86.586 C 111.789,86.211 89.444,86 80,86 c -1.103,0 -2,0.897 -2,2 0,9.444 0.211,31.789 0.586,31.414 z"
         id="path94"
         inkscape:connector-curvature="0"
         style="opacity:0.49300005;filter:url(#j)" />
      <path
         d="M 111.414,86.586 C 111.653,86.347 89.807,87 80,87 c -0.553,0 -1,0.447 -1,1 0,9.807 -0.653,31.653 -0.414,31.414 z"
         id="path96"
         style="opacity:0.1;fill:url(#linearGradient991);filter:url(#i)"
         inkscape:connector-curvature="0" />
      <path
         d="m 78.586,119.414 c 0,0 11.914,-9.914 17.414,-15.414 5.5,-5.5 15.414,-17.414 15.414,-17.414 0,0 -21.164,1.414 -31.414,1.414 0,10.25 -1.414,31.414 -1.414,31.414 z"
         id="path98"
         style="fill:url(#linearGradient993)"
         inkscape:connector-curvature="0" />
    </g>
  </g>
  <g
     transform="matrix(.25 0 0 .25 1 16.000026)"
     id="g146">
    <path
       d="m23 9 .04082 57.931031h34.251177c.53 0 1.046457-.203604 1.414-.586l17.468004-18.173901c.367542-.382395.589522-.884012.586-1.414v-37.7571301z"
       filter="url(#f)"
       opacity=".306849"
       transform="matrix(1.0416667 0 0 1.0357143 -21.958333 -7.321534)"
       id="path126" />
    <path
       d="m24.919999 10.931136v54.068965l31.795998-.0001c.53 0 1.039-.211 1.414-.586l16.124004-17.111837c.375-.375.586-.884.586-1.414v-34.957028z"
       filter="url(#g)"
       opacity=".89589"
       transform="matrix(1.0416667 0 0 1.0357143 -21.958333 -7.321534)"
       id="path128" />
    <path
       d="m23 9.9655172.04082 56.9655138h34.251181c.53 0 1.046457-.203604 1.414-.586l17.468004-18.173901c.367542-.382395.589615-.884013.586-1.414v-36.7916129z"
       filter="url(#f)"
       opacity=".306849"
       transform="matrix(1.0416667 0 0 1.0357143 -21.958333 -7.321534)"
       id="path130" />
    <path
       d="m4.0000019 4.0000001-.0000002 55.9999959h33.1719963c.53 0 1.04805-.202163 1.414-.586l16.828002-17.650541c.365949-.383837.586-.884.586-1.414v-36.349455z"
       fill="url(#a)"
       id="path132" />
    <path
       d="m7.6787249 6.7000001c-.539276 0-.978723.440836-.978723.981818l-.7000002 49.3363579c0 .54197.439447.98182.978723.98182h29.9130183c.257404 0 .509915-.10407.691957-.28767l16.12953-17.053671c.18303-.1836.28677-.435927.28677-.694145v-32.982692c0-.540982-.43847-.981818-.97872-.981818z"
       fill="url(#b)"
       id="path134" />
    <g
       transform="matrix(.57284286 -.01669599 .01669599 .57284286 -9.593249 -7.157048)"
       id="g144">
      <path
         d="m111.414 86.586c.25-.25-26.379-1.586-31.414-1.586-1.654 0-3 1.346-3 3 0 5.035 1.336 31.664 1.586 31.414z"
         fill="url(#c)"
         filter="url(#h)"
         opacity=".1"
         id="path136" />
      <path
         d="m111.414 86.586c.375-.375-21.97-.586-31.414-.586-1.103 0-2 .897-2 2 0 9.444.211 31.789.586 31.414z"
         filter="url(#j)"
         opacity=".493"
         id="path138" />
      <path
         d="m111.414 86.586c.239-.239-21.607.414-31.414.414-.553 0-1 .447-1 1 0 9.807-.653 31.653-.414 31.414z"
         fill="url(#d)"
         filter="url(#i)"
         opacity=".1"
         id="path140" />
      <path
         d="m78.586 119.414s11.914-9.914 17.414-15.414 15.414-17.414 15.414-17.414-21.164 1.414-31.414 1.414c0 10.25-1.414 31.414-1.414 31.414z"
         fill="url(#e)"
         id="path142" />
    </g>
  </g>
  <g
     transform="matrix(.25 0 0 .25 16 16.000026)"
     id="g168">
    <path
       d="m23 9 .04082 57.931031h34.251177c.53 0 1.046457-.203604 1.414-.586l17.468004-18.173901c.367542-.382395.589522-.884012.586-1.414v-37.7571301z"
       filter="url(#f)"
       opacity=".306849"
       transform="matrix(1.0416667 0 0 1.0357143 -21.958333 -7.321534)"
       id="path148" />
    <path
       d="m24.919999 10.931136v54.068965l31.795998-.0001c.53 0 1.039-.211 1.414-.586l16.124004-17.111837c.375-.375.586-.884.586-1.414v-34.957028z"
       filter="url(#g)"
       opacity=".89589"
       transform="matrix(1.0416667 0 0 1.0357143 -21.958333 -7.321534)"
       id="path150" />
    <path
       d="m23 9.9655172.04082 56.9655138h34.251181c.53 0 1.046457-.203604 1.414-.586l17.468004-18.173901c.367542-.382395.589615-.884013.586-1.414v-36.7916129z"
       filter="url(#f)"
       opacity=".306849"
       transform="matrix(1.0416667 0 0 1.0357143 -21.958333 -7.321534)"
       id="path152" />
    <path
       d="m4.0000019 4.0000001-.0000002 55.9999959h33.1719963c.53 0 1.04805-.202163 1.414-.586l16.828002-17.650541c.365949-.383837.586-.884.586-1.414v-36.349455z"
       fill="url(#a)"
       id="path154" />
    <path
       d="m7.6787249 6.7000001c-.539276 0-.978723.440836-.978723.981818l-.7000002 49.3363579c0 .54197.439447.98182.978723.98182h29.9130183c.257404 0 .509915-.10407.691957-.28767l16.12953-17.053671c.18303-.1836.28677-.435927.28677-.694145v-32.982692c0-.540982-.43847-.981818-.97872-.981818z"
       fill="url(#b)"
       id="path156" />
    <g
       transform="matrix(.57284286 -.01669599 .01669599 .57284286 -9.593249 -7.157048)"
       id="g166">
      <path
         d="m111.414 86.586c.25-.25-26.379-1.586-31.414-1.586-1.654 0-3 1.346-3 3 0 5.035 1.336 31.664 1.586 31.414z"
         fill="url(#c)"
         filter="url(#h)"
         opacity=".1"
         id="path158" />
      <path
         d="m111.414 86.586c.375-.375-21.97-.586-31.414-.586-1.103 0-2 .897-2 2 0 9.444.211 31.789.586 31.414z"
         filter="url(#j)"
         opacity=".493"
         id="path160" />
      <path
         d="m111.414 86.586c.239-.239-21.607.414-31.414.414-.553 0-1 .447-1 1 0 9.807-.653 31.653-.414 31.414z"
         fill="url(#d)"
         filter="url(#i)"
         opacity=".1"
         id="path162" />
      <path
         d="m78.586 119.414s11.914-9.914 17.414-15.414 15.414-17.414 15.414-17.414-21.164 1.414-31.414 1.414c0 10.25-1.414 31.414-1.414 31.414z"
         fill="url(#e)"
         id="path164" />
    </g>
  </g>
</svg>
