<?xml version="1.0" encoding="UTF-8" standalone="no"?>
<!-- Created with Inkscape (http://www.inkscape.org/) -->

<svg
   xmlns:dc="http://purl.org/dc/elements/1.1/"
   xmlns:cc="http://creativecommons.org/ns#"
   xmlns:rdf="http://www.w3.org/1999/02/22-rdf-syntax-ns#"
   xmlns:svg="http://www.w3.org/2000/svg"
   xmlns="http://www.w3.org/2000/svg"
   xmlns:xlink="http://www.w3.org/1999/xlink"
   version="1.0"
   width="16"
   height="16"
   viewBox="0 0 17.25 13.875"
   id="Livello_2"
   xml:space="preserve"
   style="overflow:visible"><metadata
   id="metadata366"><rdf:RDF><cc:Work
       rdf:about=""><dc:format>image/svg+xml</dc:format><dc:type
         rdf:resource="http://purl.org/dc/dcmitype/StillImage" /><dc:title></dc:title></cc:Work></rdf:RDF></metadata><defs
   id="defs364"><linearGradient
   id="linearGradient7671"><stop
     id="stop7673"
     style="stop-color:#7b4100;stop-opacity:0"
     offset="0" /><stop
     id="stop7679"
     style="stop-color:#984f00;stop-opacity:1"
     offset="0.03529412" /><stop
     id="stop7675"
     style="stop-color:#000000;stop-opacity:0"
     offset="1" /></linearGradient><linearGradient
   id="linearGradient7661"><stop
     id="stop7663"
     style="stop-color:#bb8000;stop-opacity:1"
     offset="0" /><stop
     id="stop7665"
     style="stop-color:#e9a800;stop-opacity:0"
     offset="1" /></linearGradient><radialGradient
   cx="68.742203"
   cy="72.860802"
   r="44.665298"
   id="radialGradient6504"
   gradientUnits="userSpaceOnUse"
   gradientTransform="matrix(1,0,0,1.0137,0,-0.6735)">
		<stop
   id="stop6506"
   style="stop-color:#d5a200;stop-opacity:1"
   offset="0" /><stop
   id="stop6508"
   style="stop-color:#fff309;stop-opacity:1"
   offset="0.5972178" />
		<stop
   id="stop6510"
   style="stop-color:#ffd83a;stop-opacity:1"
   offset="0.85210001" />
	</radialGradient><linearGradient
   id="linearGradient6111"><stop
     id="stop6113"
     style="stop-color:#ffffff;stop-opacity:1"
     offset="0" /><stop
     id="stop6115"
     style="stop-color:#ffffff;stop-opacity:0"
     offset="1" /></linearGradient><linearGradient
   id="linearGradient4918"><stop
     id="stop4920"
     style="stop-color:#5f2901;stop-opacity:1"
     offset="0" /><stop
     id="stop4922"
     style="stop-color:#933f02;stop-opacity:0"
     offset="1" /></linearGradient><linearGradient
   id="linearGradient3732"><stop
     id="stop3734"
     style="stop-color:#ffffff;stop-opacity:0"
     offset="0" /><stop
     id="stop3744"
     style="stop-color:#ffffff;stop-opacity:1"
     offset="0.5" /><stop
     id="stop3736"
     style="stop-color:#ffffff;stop-opacity:0"
     offset="1" /></linearGradient><radialGradient
   cx="59.8853"
   cy="5.9165001"
   r="80.669502"
   id="radialGradient3716"
   gradientUnits="userSpaceOnUse"
   gradientTransform="matrix(1,0,0,1.0137,0,-0.6735)">
		<stop
   id="stop3718"
   style="stop-color:#ffdd00;stop-opacity:1"
   offset="0" />
		<stop
   id="stop3720"
   style="stop-color:#fedb00;stop-opacity:1"
   offset="0.42250001" />
		<stop
   id="stop3722"
   style="stop-color:#fad400;stop-opacity:1"
   offset="0.5747" />
		<stop
   id="stop3724"
   style="stop-color:#f3c900;stop-opacity:1"
   offset="0.68309999" />
		<stop
   id="stop3726"
   style="stop-color:#e9b800;stop-opacity:1"
   offset="0.77020001" />
		<stop
   id="stop3728"
   style="stop-color:#e3ad00;stop-opacity:1"
   offset="0.8107" />
		<stop
   id="stop3730"
   style="stop-color:#f7b100;stop-opacity:1"
   offset="1" />
	</radialGradient><linearGradient
   id="linearGradient2932"><stop
     id="stop2934"
     style="stop-color:#ffffff;stop-opacity:1"
     offset="0" /><stop
     id="stop2936"
     style="stop-color:#ffffff;stop-opacity:0"
     offset="1" /></linearGradient>
		<defs
   id="defs295">
			<path
   d="m 121.957,52.915 c -0.053,0.147 -0.11,0.277 -0.18,0.372 -0.491,0.668 -3.149,2.229 -6.93,4.12 -4.133,2.28 -8.752,4.335 -13.775,6.126 -4.245,1.68 -8.549,3.185 -12.272,4.167 -12.515,3.3 -26.166,5.208 -31.662,5.208 -2.257,0 -29.249,-7.783 -30.587,-8.722 -0.095,0 -2.151,1.454 -1.018,5.267 0.018,0.114 0.038,0.219 0.062,0.306 0.455,1.619 3.115,5.916 9.439,8.115 6.324,2.2 21.518,4.238 27.122,4.238 5.604,0 18.351,-0.526 26.883,-3.027 8.532,-2.5 23.609,-9.152 31.065,-13.081 6.844,-3.367 6.654,-7.052 4.907,-15.475 -0.966,0.813 -1.985,1.609 -3.054,2.386 z"
   id="XMLID_24_" />
		</defs>
		<clipPath
   id="XMLID_47_">
			<use
   id="use299"
   x="0"
   y="0"
   width="138"
   height="111"
   xlink:href="#XMLID_24_" />
		</clipPath>
		
	<radialGradient
   cx="59.8853"
   cy="5.9165001"
   r="80.669502"
   id="radialGradient3704"
   xlink:href="#XMLID_39_"
   gradientUnits="userSpaceOnUse"
   gradientTransform="matrix(1,0,0,1.0137,0,-0.6735)" /><radialGradient
   cx="59.8853"
   cy="5.9165001"
   r="80.669502"
   id="radialGradient3708"
   xlink:href="#XMLID_39_"
   gradientUnits="userSpaceOnUse"
   gradientTransform="matrix(1,0,0,1.0137,0,-0.6735)" /><linearGradient
   x1="40.404991"
   y1="35.540894"
   x2="66.783089"
   y2="12.96001"
   id="linearGradient3738"
   xlink:href="#linearGradient3732"
   gradientUnits="userSpaceOnUse" /><linearGradient
   x1="40.404991"
   y1="35.540894"
   x2="74.400734"
   y2="-3.3635197"
   id="linearGradient3742"
   xlink:href="#linearGradient3732"
   gradientUnits="userSpaceOnUse"
   gradientTransform="translate(-2,0)" />
		<linearGradient
   x1="18.430201"
   y1="71.058098"
   x2="16.104601"
   y2="66.162399"
   id="XMLID_32_"
   gradientUnits="userSpaceOnUse">
			<stop
   id="stop50"
   style="stop-color:#c2a800;stop-opacity:1"
   offset="0" />
			
			<stop
   id="stop54"
   style="stop-color:#c8aa00;stop-opacity:1"
   offset="0.5747" />
			
			
			<stop
   id="stop60"
   style="stop-color:#c29400;stop-opacity:1"
   offset="1" />
			
		</linearGradient>
		
		<linearGradient
   x1="13.6401"
   y1="73.435997"
   x2="11.3575"
   y2="68.630798"
   id="XMLID_33_"
   gradientUnits="userSpaceOnUse"
   gradientTransform="translate(-10,0)">
			<stop
   id="stop67"
   style="stop-color:#ffdd00;stop-opacity:1"
   offset="0" />
			<stop
   id="stop69"
   style="stop-color:#fedb00;stop-opacity:1"
   offset="0.42250001" />
			<stop
   id="stop71"
   style="stop-color:#fad400;stop-opacity:1"
   offset="0.5747" />
			<stop
   id="stop73"
   style="stop-color:#f3c900;stop-opacity:1"
   offset="0.68309999" />
			<stop
   id="stop75"
   style="stop-color:#e9b800;stop-opacity:1"
   offset="0.77020001" />
			<stop
   id="stop77"
   style="stop-color:#e3ad00;stop-opacity:1"
   offset="0.8107" />
			<stop
   id="stop79"
   style="stop-color:#f7b100;stop-opacity:1"
   offset="1" />
		</linearGradient>
		
	<linearGradient
   x1="109.125"
   y1="69.03125"
   x2="79.46875"
   y2="83.03125"
   id="linearGradient4924"
   xlink:href="#linearGradient4918"
   gradientUnits="userSpaceOnUse" /><filter
   x="-0.045266099"
   y="-0.17586465"
   width="1.0905322"
   height="1.3517293"
   color-interpolation-filters="sRGB"
   id="filter5311"><feGaussianBlur
     id="feGaussianBlur5313"
     stdDeviation="1.8969934" /></filter><linearGradient
   x1="20.070312"
   y1="76.501938"
   x2="28.765625"
   y2="87.753654"
   id="linearGradient6117"
   xlink:href="#linearGradient6111"
   gradientUnits="userSpaceOnUse"
   gradientTransform="matrix(1,0,0,0.9435626,0,4.1481482)" /><radialGradient
   cx="63.690815"
   cy="129.9839"
   r="44.665298"
   fx="63.690815"
   fy="129.9839"
   id="radialGradient6502"
   xlink:href="#radialGradient6504"
   gradientUnits="userSpaceOnUse"
   gradientTransform="matrix(0.1702063,1.3018233,-1.7022199,0.2225561,220.91281,-36.659959)" /><linearGradient
   x1="20.534103"
   y1="69.43293"
   x2="22.5849"
   y2="77.128242"
   id="linearGradient7659"
   xlink:href="#linearGradient7661"
   gradientUnits="userSpaceOnUse" /><linearGradient
   x1="25.2341"
   y1="65.934502"
   x2="89.399902"
   y2="65.934502"
   id="linearGradient7677"
   xlink:href="#linearGradient7671"
   gradientUnits="userSpaceOnUse" /><filter
   x="-0.036112975"
   y="-0.1772278"
   width="1.072226"
   height="1.3544556"
   color-interpolation-filters="sRGB"
   id="filter7681"><feGaussianBlur
     id="feGaussianBlur7683"
     stdDeviation="0.9655075" /></filter><radialGradient
   cx="59.8853"
   cy="5.9165001"
   r="80.669502"
   id="radialGradient3195"
   xlink:href="#XMLID_39_"
   gradientUnits="userSpaceOnUse"
   gradientTransform="matrix(1,0,0,1.0137,0,-0.6735)" /><linearGradient
   x1="25.2341"
   y1="65.934502"
   x2="89.399902"
   y2="65.934502"
   id="linearGradient3197"
   xlink:href="#linearGradient7671"
   gradientUnits="userSpaceOnUse" />
	<linearGradient
   x1="94.655296"
   y1="80.356003"
   x2="99.314499"
   y2="80.356003"
   id="XMLID_29_"
   gradientUnits="userSpaceOnUse">
		<stop
   id="stop19"
   style="stop-color:#e39700;stop-opacity:1"
   offset="0" />
		<stop
   id="stop21"
   style="stop-color:#e49900;stop-opacity:1"
   offset="0.53039998" />
		<stop
   id="stop23"
   style="stop-color:#e6a000;stop-opacity:1"
   offset="0.72140002" />
		<stop
   id="stop25"
   style="stop-color:#eaab00;stop-opacity:1"
   offset="0.85750002" />
		<stop
   id="stop27"
   style="stop-color:#f1bc00;stop-opacity:1"
   offset="0.96679997" />
		<stop
   id="stop29"
   style="stop-color:#f3c300;stop-opacity:1"
   offset="1" />
	</linearGradient>
	
	
		<radialGradient
   cx="59.8862"
   cy="94.0933"
   r="42.1702"
   fx="63.829102"
   fy="63.6255"
   id="XMLID_30_"
   gradientUnits="userSpaceOnUse"
   gradientTransform="matrix(1,0,0,1.0137,0,-0.6735)">
		<stop
   id="stop34"
   style="stop-color:#ffff00;stop-opacity:1"
   offset="0" />
		<stop
   id="stop36"
   style="stop-color:#ffcc00;stop-opacity:1"
   offset="1" />
	</radialGradient>
	
	
		<radialGradient
   cx="68.742203"
   cy="72.860802"
   r="44.665298"
   id="XMLID_31_"
   gradientUnits="userSpaceOnUse"
   gradientTransform="matrix(1,0,0,1.0137,0,-0.6735)">
		<stop
   id="stop41"
   style="stop-color:#ffff00;stop-opacity:1"
   offset="0" /><stop
   id="stop6500"
   style="stop-color:#ffb800;stop-opacity:1"
   offset="0.42605001" />
		<stop
   id="stop43"
   style="stop-color:#cfa500;stop-opacity:1"
   offset="0.85210001" />
	</radialGradient>
	
	
	<linearGradient
   x1="22.309099"
   y1="87.141098"
   x2="23.7612"
   y2="64.996399"
   id="XMLID_34_"
   gradientUnits="userSpaceOnUse">
		<stop
   id="stop84"
   style="stop-color:#ffffff;stop-opacity:1"
   offset="0.0533" />
		<stop
   id="stop86"
   style="stop-color:#fefefd;stop-opacity:1"
   offset="0.29750001" />
		<stop
   id="stop88"
   style="stop-color:#fbf9f4;stop-opacity:1"
   offset="0.43970001" />
		<stop
   id="stop90"
   style="stop-color:#f6f0e6;stop-opacity:1"
   offset="0.5557" />
		<stop
   id="stop92"
   style="stop-color:#eee5d2;stop-opacity:1"
   offset="0.65750003" />
		<stop
   id="stop94"
   style="stop-color:#e5d6b8;stop-opacity:1"
   offset="0.75010002" />
		<stop
   id="stop96"
   style="stop-color:#d9c398;stop-opacity:1"
   offset="0.83600003" />
		<stop
   id="stop98"
   style="stop-color:#cbad73;stop-opacity:1"
   offset="0.91530001" />
		<stop
   id="stop100"
   style="stop-color:#c7a769;stop-opacity:1"
   offset="0.93489999" />
	</linearGradient>
	
	
		<radialGradient
   cx="75.134804"
   cy="42.876999"
   r="41.6119"
   fx="77.449898"
   fy="21.688801"
   id="XMLID_35_"
   gradientUnits="userSpaceOnUse"
   gradientTransform="matrix(1,0,0,1.0137,0,-0.6735)">
		<stop
   id="stop105"
   style="stop-color:#ffdd00;stop-opacity:1"
   offset="0.3136" />
		<stop
   id="stop107"
   style="stop-color:#feda03;stop-opacity:1"
   offset="0.50419998" />
		<stop
   id="stop109"
   style="stop-color:#fbd10c;stop-opacity:1"
   offset="0.64349997" />
		<stop
   id="stop111"
   style="stop-color:#f6c11b;stop-opacity:1"
   offset="0.76599997" />
		<stop
   id="stop113"
   style="stop-color:#f0ae2d;stop-opacity:1"
   offset="0.86390001" />
	</radialGradient>
	
	
		<radialGradient
   cx="67.054703"
   cy="51.438999"
   r="61.9603"
   id="XMLID_36_"
   gradientUnits="userSpaceOnUse"
   gradientTransform="matrix(1,0,0,1.0137,0,-0.6735)">
		<stop
   id="stop118"
   style="stop-color:#d5a340;stop-opacity:0"
   offset="0.54439998" /><stop
   id="stop3119"
   style="stop-color:#a17620;stop-opacity:0.1329114"
   offset="0.77219999" />
		
		
		
		
		
		
		<stop
   id="stop132"
   style="stop-color:#6e5116;stop-opacity:1"
   offset="1" />
	</radialGradient>
	
	<linearGradient
   x1="40.8867"
   y1="46.2397"
   x2="26.0222"
   y2="54.5784"
   id="XMLID_37_"
   gradientUnits="userSpaceOnUse">
		<stop
   id="stop137"
   style="stop-color:#ad7d2e;stop-opacity:0"
   offset="0.2367" />
		<stop
   id="stop139"
   style="stop-color:#c8881d;stop-opacity:1"
   offset="1" />
	</linearGradient>
	
	<linearGradient
   x1="25.459"
   y1="69.893997"
   x2="126.0381"
   y2="69.893997"
   id="XMLID_38_"
   gradientUnits="userSpaceOnUse">
		<stop
   id="stop144"
   style="stop-color:#ffffff;stop-opacity:0"
   offset="0.2367" />
		<stop
   id="stop146"
   style="stop-color:#ffffff;stop-opacity:1"
   offset="1" />
	</linearGradient>
	
	
		<radialGradient
   cx="59.8853"
   cy="5.9165001"
   r="80.669502"
   id="XMLID_39_"
   gradientUnits="userSpaceOnUse"
   gradientTransform="matrix(1,0,0,1.0137,0,-0.6735)">
		<stop
   id="stop151"
   style="stop-color:#ffdd00;stop-opacity:1"
   offset="0" />
		<stop
   id="stop153"
   style="stop-color:#fedb00;stop-opacity:1"
   offset="0.42250001" />
		<stop
   id="stop155"
   style="stop-color:#fad400;stop-opacity:1"
   offset="0.5747" />
		<stop
   id="stop157"
   style="stop-color:#f3c900;stop-opacity:1"
   offset="0.68309999" />
		<stop
   id="stop159"
   style="stop-color:#e9b800;stop-opacity:1"
   offset="0.77020001" />
		<stop
   id="stop161"
   style="stop-color:#e3ad00;stop-opacity:1"
   offset="0.8107" />
		<stop
   id="stop163"
   style="stop-color:#f7b100;stop-opacity:1"
   offset="1" />
	</radialGradient>
	
	
	<linearGradient
   x1="112.5645"
   y1="55.8013"
   x2="123.808"
   y2="50.360901"
   id="XMLID_41_"
   gradientUnits="userSpaceOnUse">
		<stop
   id="stop185"
   style="stop-color:#c7a769;stop-opacity:0"
   offset="0" /><stop
   id="stop3746"
   style="stop-color:#bd9a55;stop-opacity:0"
   offset="0.69292587" />
		
		
		<stop
   id="stop191"
   style="stop-color:#927336;stop-opacity:1"
   offset="0.93489999" />
	</linearGradient>
	
	<linearGradient
   x1="73.526398"
   y1="37.004734"
   x2="76.923401"
   y2="65.039497"
   id="XMLID_42_"
   gradientUnits="userSpaceOnUse">
		<stop
   id="stop196"
   style="stop-color:#ffff00;stop-opacity:1"
   offset="0" />
		
		
		
		
		
		
		
		
		<stop
   id="stop214"
   style="stop-color:#ffff00;stop-opacity:0"
   offset="1" />
	</linearGradient>
	
	<linearGradient
   x1="26.143101"
   y1="60.4897"
   x2="29.2798"
   y2="60.4897"
   id="XMLID_43_"
   gradientUnits="userSpaceOnUse">
		<stop
   id="stop219"
   style="stop-color:#ffff00;stop-opacity:1"
   offset="0" />
		
		
		
		
		
		
		
		
		<stop
   id="stop237"
   style="stop-color:#ffff00;stop-opacity:0.03797468"
   offset="1" />
	</linearGradient>
	
	
	
	
	<linearGradient
   x1="9.9033003"
   y1="76.273903"
   x2="128.7402"
   y2="76.273903"
   id="XMLID_49_"
   gradientUnits="userSpaceOnUse">
		<stop
   id="stop317"
   style="stop-color:#e39700;stop-opacity:1"
   offset="0" />
		<stop
   id="stop319"
   style="stop-color:#e49900;stop-opacity:1"
   offset="0.2025" />
		<stop
   id="stop321"
   style="stop-color:#e8a000;stop-opacity:1"
   offset="0.2755" />
		<stop
   id="stop323"
   style="stop-color:#eeab00;stop-opacity:1"
   offset="0.32749999" />
		<stop
   id="stop325"
   style="stop-color:#f7bc00;stop-opacity:1"
   offset="0.36930001" />
		<stop
   id="stop327"
   style="stop-color:#ffcc00;stop-opacity:1"
   offset="0.3964" />
		<stop
   id="stop329"
   style="stop-color:#fdc900;stop-opacity:1"
   offset="0.49439999" />
		<stop
   id="stop331"
   style="stop-color:#f8be00;stop-opacity:1"
   offset="0.58020002" />
		<stop
   id="stop333"
   style="stop-color:#eeac00;stop-opacity:1"
   offset="0.66109997" />
		<stop
   id="stop335"
   style="stop-color:#bb7d00;stop-opacity:1"
   offset="0.72780001" />
		<stop
   id="stop337"
   style="stop-color:#bb7e00;stop-opacity:1"
   offset="0.87220001" />
		<stop
   id="stop339"
   style="stop-color:#d59400;stop-opacity:1"
   offset="0.9242" />
		<stop
   id="stop341"
   style="stop-color:#eaab00;stop-opacity:1"
   offset="0.9612" />
		<stop
   id="stop343"
   style="stop-color:#f1bc00;stop-opacity:1"
   offset="0.991" />
		<stop
   id="stop345"
   style="stop-color:#f3c300;stop-opacity:1"
   offset="1" />
	</linearGradient>
	
	
	
<linearGradient
   x1="9.9033003"
   y1="76.273903"
   x2="128.7402"
   y2="76.273903"
   id="linearGradient3282"
   xlink:href="#XMLID_49_"
   gradientUnits="userSpaceOnUse" /><linearGradient
   x1="26.143101"
   y1="60.4897"
   x2="29.2798"
   y2="60.4897"
   id="linearGradient3315"
   xlink:href="#XMLID_43_"
   gradientUnits="userSpaceOnUse" /><linearGradient
   x1="112.5645"
   y1="55.8013"
   x2="123.808"
   y2="50.360901"
   id="linearGradient3319"
   xlink:href="#XMLID_41_"
   gradientUnits="userSpaceOnUse" /><radialGradient
   cx="59.8853"
   cy="5.9165001"
   r="80.669502"
   id="radialGradient3327"
   xlink:href="#XMLID_39_"
   gradientUnits="userSpaceOnUse"
   gradientTransform="matrix(1,0,0,1.0137,0,-0.6735)" /><linearGradient
   x1="25.459"
   y1="69.893997"
   x2="126.0381"
   y2="69.893997"
   id="linearGradient3330"
   xlink:href="#XMLID_38_"
   gradientUnits="userSpaceOnUse" /><linearGradient
   x1="40.8867"
   y1="46.2397"
   x2="26.0222"
   y2="54.5784"
   id="linearGradient3333"
   xlink:href="#XMLID_37_"
   gradientUnits="userSpaceOnUse" /><radialGradient
   cx="67.054703"
   cy="51.438999"
   r="61.9603"
   id="radialGradient3336"
   xlink:href="#XMLID_36_"
   gradientUnits="userSpaceOnUse"
   gradientTransform="matrix(1,0,0,1.0137,0,-0.6735)" /><radialGradient
   cx="75.134804"
   cy="42.876999"
   r="41.6119"
   fx="77.449898"
   fy="21.688801"
   id="radialGradient3339"
   xlink:href="#XMLID_35_"
   gradientUnits="userSpaceOnUse"
   gradientTransform="matrix(1,0,0,1.0137,0,-0.6735)" /><linearGradient
   x1="13.6401"
   y1="73.435997"
   x2="11.3575"
   y2="68.630798"
   id="linearGradient3342"
   xlink:href="#XMLID_33_"
   gradientUnits="userSpaceOnUse"
   gradientTransform="translate(-10,0)" /><linearGradient
   x1="18.430201"
   y1="71.058098"
   x2="16.104601"
   y2="66.162399"
   id="linearGradient3345"
   xlink:href="#XMLID_32_"
   gradientUnits="userSpaceOnUse" /><linearGradient
   x1="20.070312"
   y1="76.501938"
   x2="28.765625"
   y2="87.753654"
   id="linearGradient3348"
   xlink:href="#linearGradient6111"
   gradientUnits="userSpaceOnUse"
   gradientTransform="matrix(1,0,0,0.9435626,0,4.1481482)" /><linearGradient
   x1="20.534103"
   y1="69.43293"
   x2="22.5849"
   y2="77.128242"
   id="linearGradient3351"
   xlink:href="#linearGradient7661"
   gradientUnits="userSpaceOnUse" /><radialGradient
   cx="63.690815"
   cy="129.9839"
   r="44.665298"
   fx="63.690815"
   fy="129.9839"
   id="radialGradient3354"
   xlink:href="#radialGradient6504"
   gradientUnits="userSpaceOnUse"
   gradientTransform="matrix(0.1702063,1.3018233,-1.7022199,0.2225561,220.91281,-36.659959)" />
		
		
		
		
	<linearGradient
   x1="25.2341"
   y1="65.934502"
   x2="89.399902"
   y2="65.934502"
   id="linearGradient3361"
   xlink:href="#linearGradient7671"
   gradientUnits="userSpaceOnUse" /><linearGradient
   x1="25.2341"
   y1="65.934502"
   x2="89.399902"
   y2="65.934502"
   id="linearGradient3363"
   xlink:href="#linearGradient7671"
   gradientUnits="userSpaceOnUse" />
		
	<linearGradient
   x1="25.2341"
   y1="65.934502"
   x2="89.399902"
   y2="65.934502"
   id="linearGradient3366"
   xlink:href="#linearGradient7671"
   gradientUnits="userSpaceOnUse"
   gradientTransform="translate(0,10)" /><linearGradient
   x1="25.459"
   y1="69.167503"
   x2="126.0381"
   y2="69.167503"
   id="linearGradient3368"
   xlink:href="#XMLID_48_"
   gradientUnits="userSpaceOnUse" />
			<linearGradient
   x1="25.459"
   y1="69.167503"
   x2="126.0381"
   y2="69.167503"
   id="XMLID_48_"
   gradientUnits="userSpaceOnUse">
				<stop
   id="stop304"
   style="stop-color:#d68e00;stop-opacity:1"
   offset="0" />
				<stop
   id="stop306"
   style="stop-color:#e9ab00;stop-opacity:1"
   offset="0.0874" />
				<stop
   id="stop308"
   style="stop-color:#f9c300;stop-opacity:1"
   offset="0.1798" />
				<stop
   id="stop310"
   style="stop-color:#ffcc00;stop-opacity:1"
   offset="0.2367" />
				<stop
   id="stop312"
   style="stop-color:#b87a00;stop-opacity:1"
   offset="1" />
			</linearGradient>
			
		<linearGradient
   x1="60.554699"
   y1="36.130402"
   x2="28.4592"
   y2="55.264198"
   id="linearGradient3377"
   xlink:href="#XMLID_46_"
   gradientUnits="userSpaceOnUse" />
		<linearGradient
   x1="60.554699"
   y1="36.130402"
   x2="28.4592"
   y2="55.264198"
   id="XMLID_46_"
   gradientUnits="userSpaceOnUse">
			<stop
   id="stop269"
   style="stop-color:#ffffff;stop-opacity:0"
   offset="0" />
			
			
			
			
			
			
			
			<stop
   id="stop285"
   style="stop-color:#cca300;stop-opacity:1"
   offset="0.69090003" />
			
			<stop
   id="stop289"
   style="stop-color:#ffea00;stop-opacity:0"
   offset="1" />
		</linearGradient>
		
	<radialGradient
   cx="37.662601"
   cy="53.589401"
   r="87.812599"
   id="radialGradient3384"
   xlink:href="#XMLID_45_"
   gradientUnits="userSpaceOnUse"
   gradientTransform="matrix(1,0,0,1.0137,0,-0.6735)" />
		<defs
   id="defs243">
			<path
   d="m 56.301,77.631 c 5.605,0 55.63,-13.149 63.085,-17.077 9.376,-4.615 6.272,-4.36 3.327,-21.532 -0.419,-1.632 -1.755,-1.117 -1.755,-1.117 0,0 2.222,13.475 0.818,15.382 C 120.373,55.194 101.315,64.399 88.8,67.7 76.285,71 62.634,72.908 57.138,72.908 c -5.496,0 -8.304,-3.028 -8.244,-7.873 0.06,-4.845 2.868,-20.59 3.704,-24.344 0.836,-3.754 2.434,-8.16 9.081,-14.897 6.647,-6.737 22.342,-17.836 34.41,-14.928 L 91.429,7.505 52.24,15.861 c 0,0 -13.144,10.538 -14.936,29.795 -1.792,19.257 13.393,31.975 18.997,31.975 z"
   id="XMLID_20_" />
		</defs>
		<clipPath
   id="XMLID_44_">
			<use
   id="use247"
   x="0"
   y="0"
   width="138"
   height="111"
   xlink:href="#XMLID_20_" />
		</clipPath>
		
	<linearGradient
   x1="79.763702"
   y1="-2.6694"
   x2="79.763702"
   y2="12.5914"
   id="linearGradient3399"
   xlink:href="#XMLID_40_"
   gradientUnits="userSpaceOnUse" />
		<linearGradient
   x1="79.763702"
   y1="-2.6694"
   x2="79.763702"
   y2="12.5914"
   id="XMLID_40_"
   gradientUnits="userSpaceOnUse">
			<stop
   id="stop170"
   style="stop-color:#cf9d00;stop-opacity:1"
   offset="0.1183" />
			
			
			
			
			<stop
   id="stop180"
   style="stop-color:#cf9d00;stop-opacity:0"
   offset="1" />
		</linearGradient>
		
	<linearGradient
   x1="79.763702"
   y1="-2.6694"
   x2="79.763702"
   y2="12.5914"
   id="linearGradient3405"
   xlink:href="#XMLID_40_"
   gradientUnits="userSpaceOnUse" /><linearGradient
   x1="109.125"
   y1="69.03125"
   x2="79.46875"
   y2="83.03125"
   id="linearGradient4206"
   xlink:href="#linearGradient4918"
   gradientUnits="userSpaceOnUse"
   gradientTransform="translate(-5.1458591,6.8611455)" /><linearGradient
   x1="9.9033003"
   y1="76.273903"
   x2="128.7402"
   y2="76.273903"
   id="linearGradient4208"
   xlink:href="#XMLID_49_"
   gradientUnits="userSpaceOnUse"
   gradientTransform="translate(-5.1458591,6.8611455)" /><linearGradient
   x1="25.2341"
   y1="65.934502"
   x2="89.399902"
   y2="65.934502"
   id="linearGradient4210"
   xlink:href="#linearGradient7671"
   gradientUnits="userSpaceOnUse"
   gradientTransform="translate(-5.1458591,16.861146)" /><linearGradient
   x1="25.459"
   y1="69.167503"
   x2="126.0381"
   y2="69.167503"
   id="linearGradient4212"
   xlink:href="#XMLID_48_"
   gradientUnits="userSpaceOnUse"
   gradientTransform="translate(-5.1458591,6.8611455)" /><linearGradient
   x1="26.143101"
   y1="60.4897"
   x2="29.2798"
   y2="60.4897"
   id="linearGradient4214"
   xlink:href="#XMLID_43_"
   gradientUnits="userSpaceOnUse"
   gradientTransform="translate(-5.1458591,6.8611455)" /><linearGradient
   x1="25.459"
   y1="69.893997"
   x2="126.0381"
   y2="69.893997"
   id="linearGradient4216"
   xlink:href="#XMLID_38_"
   gradientUnits="userSpaceOnUse"
   gradientTransform="translate(-5.1458591,6.8611455)" /><linearGradient
   x1="13.6401"
   y1="73.435997"
   x2="11.3575"
   y2="68.630798"
   id="linearGradient4218"
   xlink:href="#XMLID_33_"
   gradientUnits="userSpaceOnUse"
   gradientTransform="translate(-15.14586,6.8611455)" /><linearGradient
   x1="18.430201"
   y1="71.058098"
   x2="16.104601"
   y2="66.162399"
   id="linearGradient4220"
   xlink:href="#XMLID_32_"
   gradientUnits="userSpaceOnUse"
   gradientTransform="translate(-5.1458591,6.8611455)" /><linearGradient
   x1="20.070312"
   y1="76.501938"
   x2="28.765625"
   y2="87.753654"
   id="linearGradient4222"
   xlink:href="#linearGradient6111"
   gradientUnits="userSpaceOnUse"
   gradientTransform="matrix(1,0,0,0.9435626,-5.1458591,11.009294)" /><linearGradient
   x1="20.534103"
   y1="69.43293"
   x2="22.5849"
   y2="77.128242"
   id="linearGradient4224"
   xlink:href="#linearGradient7661"
   gradientUnits="userSpaceOnUse"
   gradientTransform="translate(-5.1458591,6.8611455)" /><radialGradient
   cx="63.690815"
   cy="129.9839"
   r="44.665298"
   fx="63.690815"
   fy="129.9839"
   id="radialGradient4226"
   xlink:href="#radialGradient6504"
   gradientUnits="userSpaceOnUse"
   gradientTransform="matrix(0.1702063,1.3018233,-1.7022199,0.2225561,215.76695,-29.798813)" /><linearGradient
   x1="94.655296"
   y1="80.356003"
   x2="99.314499"
   y2="80.356003"
   id="linearGradient4228"
   xlink:href="#XMLID_29_"
   gradientUnits="userSpaceOnUse" /><linearGradient
   x1="25.2341"
   y1="65.934502"
   x2="89.399902"
   y2="65.934502"
   id="linearGradient4232"
   xlink:href="#linearGradient7671"
   gradientUnits="userSpaceOnUse"
   gradientTransform="translate(-31.065742,50.404524)" /><radialGradient
   cx="37.662601"
   cy="53.589401"
   r="87.812599"
   id="radialGradient4234"
   xlink:href="#XMLID_45_"
   gradientUnits="userSpaceOnUse"
   gradientTransform="matrix(1,0,0,1.0137,0,-0.6735)" />
			
				<radialGradient
   cx="37.662601"
   cy="53.589401"
   r="87.812599"
   id="XMLID_45_"
   gradientUnits="userSpaceOnUse"
   gradientTransform="matrix(1,0,0,1.0137,0,-0.6735)">
				<stop
   id="stop252"
   style="stop-color:#ffff00;stop-opacity:1"
   offset="0.0473" />
				<stop
   id="stop254"
   style="stop-color:#fffe7e;stop-opacity:1"
   offset="0.48469999" />
				<stop
   id="stop256"
   style="stop-color:#fffecf;stop-opacity:1"
   offset="0.67820001" />
				<stop
   id="stop258"
   style="stop-color:#ffe900;stop-opacity:1"
   offset="0.82359999" />
				<stop
   id="stop260"
   style="stop-color:#ffd700;stop-opacity:1"
   offset="0.94419998" />
				<stop
   id="stop262"
   style="stop-color:#ffcc00;stop-opacity:1"
   offset="1" />
			</radialGradient>
			
		<radialGradient
   cx="75.134804"
   cy="42.876999"
   r="41.6119"
   fx="77.449898"
   fy="21.688801"
   id="radialGradient4244"
   xlink:href="#XMLID_35_"
   gradientUnits="userSpaceOnUse"
   gradientTransform="matrix(0.92753623,0,0,0.94024348,0,11.897043)" /><radialGradient
   cx="63.690815"
   cy="129.9839"
   r="44.665298"
   fx="63.690815"
   fy="129.9839"
   id="radialGradient4251"
   xlink:href="#radialGradient6504"
   gradientUnits="userSpaceOnUse"
   gradientTransform="matrix(0.15787251,1.2074883,-1.5788706,0.20642885,200.13166,-15.11774)" /><radialGradient
   cx="59.8853"
   cy="5.9165001"
   r="80.669502"
   id="radialGradient5354"
   xlink:href="#XMLID_39_-6"
   gradientUnits="userSpaceOnUse"
   gradientTransform="matrix(1,0,0,1.0137,35.578125,12.803062)" /><radialGradient
   cx="59.8853"
   cy="5.9165001"
   r="80.669502"
   id="XMLID_39_-6"
   gradientUnits="userSpaceOnUse"
   gradientTransform="matrix(1,0,0,1.0137,0,-0.6735)"><stop
     id="stop151-2"
     style="stop-color:#ffdd00;stop-opacity:1"
     offset="0" /><stop
     id="stop153-3"
     style="stop-color:#fedb00;stop-opacity:1"
     offset="0.42250001" /><stop
     id="stop155-9"
     style="stop-color:#fad400;stop-opacity:1"
     offset="0.5747" /><stop
     id="stop157-3"
     style="stop-color:#f3c900;stop-opacity:1"
     offset="0.68309999" /><stop
     id="stop159-8"
     style="stop-color:#e9b800;stop-opacity:1"
     offset="0.77020001" /><stop
     id="stop161-7"
     style="stop-color:#e3ad00;stop-opacity:1"
     offset="0.8107" /><stop
     id="stop163-8"
     style="stop-color:#f7b100;stop-opacity:1"
     offset="1" /></radialGradient></defs>
<filter
   color-interpolation-filters="sRGB"
   id="AI_Sfocatura_4">
	<feGaussianBlur
   id="feGaussianBlur4"
   stdDeviation="4" />
</filter>
<filter
   color-interpolation-filters="sRGB"
   id="AI_Sfocatura_3">
	<feGaussianBlur
   id="feGaussianBlur7"
   stdDeviation="3" />
</filter>
<filter
   color-interpolation-filters="sRGB"
   id="AI_Sfocatura_2">
	<feGaussianBlur
   id="feGaussianBlur10"
   stdDeviation="2" />
</filter>

<path
   d="M 2.8853868,8.7934967 C 2.8139175,8.8774755 2.3095494,9.4729789 2.1204064,9.7826958 1.9488103,9.9565105 0.93336769,10.701552 0.93336769,10.701552 0.16934045,11.302204 1.1224146,11.884194 1.1224146,11.884194 l 1.0771278,0.584727 c 3.539188,1.548803 7.6058404,-0.127497 7.6058404,-0.127497 0,0 0.9028902,-0.359815 2.6334672,-1.134281 1.730578,-0.774598 2.777295,-1.027828 3.55672,-1.6442691 0.161929,-0.128026 0.246862,-0.2748031 0.281372,-0.4264543 a 0.61337919,0.61337919 0 0 1 -0.04396,0.03077 c -0.01152,0.00614 -0.02356,0.01149 -0.03517,0.017585 a 0.61337919,0.61337919 0 0 1 -0.0088,0.00879 0.61337919,0.61337919 0 0 1 -0.0088,0.00443 c 0.0037,-0.00187 -0.02194,0.010449 -0.05276,0.026378 -0.0036,0.00187 -0.0096,0.00692 -0.01319,0.00879 -1.025139,0.5390726 -2.951262,1.3927804 -4.154634,1.7453864 -1.249129,0.36616 -2.909787,0.422059 -3.6798201,0.422059 -0.8804894,0 -2.7396257,-0.240635 -3.7413702,-0.589123 C 4.0338089,10.636014 3.6594996,10.366146 3.3997789,10.099269 3.140058,9.8323918 2.9960289,9.6071964 2.9205669,9.3386845 2.8631371,9.1343346 2.8785658,9.0376884 2.8809991,8.8990404 c 5.873e-4,-0.033958 0.00327,-0.07052 0.00439,-0.105515 z"
   id="path45"
   style="fill:#bebebe;fill-opacity:1" /><path
   d="m 0.83404239,12.438141 0.0585905,0.03197 c 0.0117445,0.0051 0.0236189,0.0098 0.0353634,0.01488 l -0.0939538,-0.04685 z"
   id="path81"
   style="fill:#bebebe;fill-opacity:1" /><path
   d="M 11.1875,3.34375 C 10.744746,3.3597194 10.229752,3.549292 9.71875,3.8125 9.0262567,4.1691911 8.3546733,4.6717748 8,5.03125 7.251497,5.7898876 7.1206179,6.1924492 7.03125,6.59375 6.9866609,6.793974 6.8821133,7.4001855 6.78125,8 6.6803867,8.5998145 6.5960578,9.2199053 6.59375,9.40625 c -0.0022,0.1773407 0.051539,0.2716512 0.09375,0.3125 0.042211,0.040849 0.1157189,0.09375 0.34375,0.09375 0.5313843,0 2.2122602,-0.2360039 3.6875,-0.625 0.699869,-0.1845999 1.638064,-0.5839671 2.40625,-0.9375 0.384093,-0.1767665 0.752759,-0.301562 1,-0.4375 0.09999,-0.054975 0.156779,-0.1175639 0.21875,-0.15625 0.001,-0.024266 2.6e-5,-0.032182 0,-0.0625 C 14.343618,7.4421592 14.332986,7.2069155 14.3125,7 14.271528,6.586169 14.1875,6.1875 14.1875,6.1875 a 0.57466763,0.57466763 0 0 1 0.40625,-0.625 c 0,0 0.02577,0.00133 0.03125,0 -0.07752,-0.2395618 -0.16667,-0.487661 -0.28125,-0.71875 a 0.57466763,0.57466763 0 0 1 -0.6875,-0.125 c 0,0 -0.75722,-0.8966864 -2.03125,-1.3125 -0.0096,-0.00312 -0.02162,0.00307 -0.03125,0 -0.12898,-0.028282 -0.258665,-0.067823 -0.40625,-0.0625 z"
   transform="matrix(1.078125,0,0,1.078125,0,-1.6875)"
   id="path115"
   style="fill:#bebebe;fill-opacity:1" /><path
   d="m 16.260347,8.7089573 c -0.0428,0.1431485 -0.126576,0.2802953 -0.269073,0.4024355 -0.79117,0.6779033 -1.851413,1.0508472 -3.607827,1.9024342 -1.756415,0.851848 -2.6742914,1.156676 -2.6742914,1.156676 0,0 -4.1300538,1.84254 -7.7220911,0.139104 L 0.89524286,11.666415 c 0,0 -0.0442369,-0.02962 -0.10595906,-0.08208 0.14197467,0.18321 0.3326226,0.300913 0.3326226,0.300913 l 1.0757712,0.584732 c 3.5391885,1.548803 7.6085634,-0.126577 7.6085634,-0.126577 0,0 0.904306,-0.363419 2.634883,-1.137884 1.730577,-0.774598 2.775292,-1.02736 3.554717,-1.6438013 0.312788,-0.2470204 0.341626,-0.5628097 0.264506,-0.8527614 z"
   id="path347"
   style="fill:#bebebe;fill-opacity:1" />
<path
   d="m 3.7777285,7.3121127 c -0.00851,0.069649 -0.1831562,0.1989975 -0.2323818,0.4324267 -0.049225,0.2334291 -0.1534375,1.1200151 -0.093869,1.3319735 0.059568,0.2119588 0.4078137,0.7745184 1.2357478,1.0624101 0.8279339,0.288024 2.8171225,0.554837 3.5507945,0.554837 0.7336728,0 2.402502,-0.06886 3.519505,-0.396293 1.117003,-0.3272985 3.090875,-1.1981741 4.067009,-1.7125563 1.227369,-0.6038001 0.727256,-1.2843189 0.341568,-3.532335 -0.05485,-0.2136602 -0.229763,-0.1462369 -0.229763,-0.1462369 0,0 0.290903,1.7641382 0.107092,2.0138015 -0.183681,0.2495323 -2.678742,1.4546449 -4.317197,1.8868098 -1.638456,0.4320335 -3.425635,0.681828 -4.1451677,0.681828 -0.7195329,0 -1.0871543,-0.3964242 -1.0792992,-1.0307283 C 6.5096226,7.8237457 6.8772441,5.7624205 6.9866927,5.2709493 7.0961412,4.779478 7.3053503,4.2026474 8.1755713,3.3206437 9.0457929,2.4386399 11.100572,0.98556614 12.680506,1.3662797 14.260309,1.8696645 15.19887,3.003426 15.19887,3.003426 c 0,0 -1.470356,-2.37854273 -4.317195,-2.37854273 -1.7675423,0 -3.9418514,1.39533853 -3.9418514,1.39533853 0,0 -2.2837572,1.0465692 -2.5184956,3.5676832 C 4.1867206,8.1091498 3.7692187,8.2395455 3.7406783,8.0933086 3.712007,7.9469408 3.7863691,7.2424638 3.7777285,7.3121127 z"
   id="path165"
   style="fill:#bebebe;fill-opacity:1;overflow:visible" /></svg>
