<?xml version="1.0" encoding="UTF-8" standalone="no"?>
<!-- Created with Inkscape (http://www.inkscape.org/) -->

<svg
   xmlns:dc="http://purl.org/dc/elements/1.1/"
   xmlns:cc="http://creativecommons.org/ns#"
   xmlns:rdf="http://www.w3.org/1999/02/22-rdf-syntax-ns#"
   xmlns:svg="http://www.w3.org/2000/svg"
   xmlns="http://www.w3.org/2000/svg"
   xmlns:sodipodi="http://sodipodi.sourceforge.net/DTD/sodipodi-0.dtd"
   xmlns:inkscape="http://www.inkscape.org/namespaces/inkscape"
   version="1.1"
   width="16"
   height="16"
   id="svg3021"
   inkscape:version="0.48.3.1 r9886"
   sodipodi:docname="folder-videos-symbolic.svg">
  <sodipodi:namedview
     pagecolor="#ffffff"
     bordercolor="#666666"
     borderopacity="1"
     objecttolerance="10"
     gridtolerance="10"
     guidetolerance="10"
     inkscape:pageopacity="0"
     inkscape:pageshadow="2"
     inkscape:window-width="1366"
     inkscape:window-height="711"
     id="namedview7"
     showgrid="false"
     inkscape:zoom="20.85965"
     inkscape:cx="13.03101"
     inkscape:cy="9.9121314"
     inkscape:window-x="0"
     inkscape:window-y="0"
     inkscape:window-maximized="1"
     inkscape:current-layer="svg3021" />
  <defs
     id="defs3023" />
  <metadata
     id="metadata3026">
    <rdf:RDF>
      <cc:Work
         rdf:about="">
        <dc:format>image/svg+xml</dc:format>
        <dc:type
           rdf:resource="http://purl.org/dc/dcmitype/StillImage" />
        <dc:title></dc:title>
      </cc:Work>
    </rdf:RDF>
  </metadata>
  <g
     id="g3005">
    <path
       id="rect3032"
       d="M 1.75 0 C 1.3345 0 1 0.3345 1 0.75 L 1 14.25 C 1 14.6655 1.3345 15 1.75 15 L 4.375 15 C 4.3532635 14.95651 4.3332806 14.909704 4.3125 14.84375 C 4.2599085 14.679683 4.2598175 14.625292 4.25 14.5625 C 4.2335581 14.458622 4.2138765 14.368422 4.21875 14.3125 C 4.2197247 14.301315 4.2493347 14.289803 4.25 14.28125 C 4.25 14.264278 4.2495821 14.267115 4.25 14.25 C 4.2525649 14.244007 4.2497301 14.219157 4.25 14.21875 C 4.2532318 14.131137 4.267518 14.026021 4.28125 13.9375 C 4.1225088 13.8539 4 13.692549 4 13.5 L 4 8.5 C 4 8.223 4.223 8 4.5 8 L 7.25 8 L 7.25 7.28125 L 7.25 7 L 4.5 7 C 4.223 7 4 6.777 4 6.5 L 4 1.5 C 4 1.223 4.223 1 4.5 1 L 11.5 1 C 11.777 1 12 1.223 12 1.5 L 12 3.21875 L 13 3.09375 L 13 3 L 13.84375 3 L 14.65625 2.90625 C 14.662849 2.9054786 14.680883 2.9068465 14.6875 2.90625 C 14.694117 2.9056535 14.680869 2.8754214 14.6875 2.875 C 14.694131 2.8745786 14.712111 2.8752459 14.71875 2.875 C 14.725389 2.8747541 14.774606 2.8750702 14.78125 2.875 C 14.787894 2.8749298 14.805856 2.8748945 14.8125 2.875 C 14.819144 2.8751055 14.837112 2.8747189 14.84375 2.875 C 14.850388 2.8752811 14.868372 2.8745434 14.875 2.875 C 14.881628 2.8754566 14.868386 2.9056184 14.875 2.90625 C 14.881614 2.9068816 14.899655 2.9054437 14.90625 2.90625 C 14.912845 2.9070563 14.930929 2.9052696 14.9375 2.90625 C 14.944071 2.9072304 14.962207 2.9050962 14.96875 2.90625 C 14.975293 2.9074038 14.993489 2.9049236 15 2.90625 L 15 0.75 C 15 0.3345 14.6655 0 14.25 0 L 1.75 0 z M 2 1 L 3 1 L 3 2 L 2 2 L 2 1 z M 13 1 L 14 1 L 14 2 L 13 2 L 13 1 z M 2 3 L 3 3 L 3 4 L 2 4 L 2 3 z M 2 5 L 3 5 L 3 6 L 2 6 L 2 5 z M 2 7 L 3 7 L 3 8 L 2 8 L 2 7 z M 12.96875 7.78125 L 11.125 8 L 11.5 8 C 11.777 8 12 8.223 12 8.5 L 12 11.15625 C 12.237556 11.080926 12.481463 11.021214 12.75 11 C 12.857131 10.991536 12.904479 11.013441 12.96875 11.03125 L 12.96875 7.78125 z M 2 9 L 3 9 L 3 10 L 2 10 L 2 9 z M 2 11 L 3 11 L 3 12 L 2 12 L 2 11 z M 2 13 L 3 13 L 3 14 L 2 14 L 2 13 z M 9.9375 14 L 9.9375 14.03125 L 9.9375 14.09375 C 9.9381781 14.102957 9.9371608 14.115774 9.9375 14.125 C 9.937839 14.134226 9.9375 14.178268 9.9375 14.1875 C 9.9375 14.196732 9.937839 14.209524 9.9375 14.21875 C 9.9371608 14.227976 9.9381781 14.240793 9.9375 14.25 C 9.9370176 14.252972 9.9558162 14.398766 9.90625 14.5625 C 9.8681746 14.688348 9.795044 14.772125 9.75 14.84375 C 9.704956 14.915375 9.6901383 14.964259 9.6875 14.96875 C 9.6794844 14.982393 9.6646759 14.986847 9.65625 15 L 10.8125 15 C 10.477758 14.761298 10.205652 14.423166 10.0625 14 L 9.9375 14 z M 14.8125 14.71875 C 14.747884 14.772659 14.695661 14.828671 14.625 14.875 C 14.695293 14.832115 14.76004 14.781675 14.8125 14.71875 z "
       style="color:#bebebe;fill:#bebebe;fill-opacity:1;fill-rule:nonzero;stroke:none;stroke-width:1;marker:none;visibility:visible;display:inline;overflow:visible;enable-background:accumulate" />
    <path
       sodipodi:nodetypes="ccccccccsscscccccccccsccsccscsccssccccccscccccccccccsscsscssccccc"
       inkscape:connector-curvature="0"
       id="path4932"
       d="m 14.793004,3.9294165 -6.4958661,0.7266195 0,1.0708072 0,0.6774498 0,0.8959814 0,5.7583206 0.0601,0.109266 c -0.042905,-0.02326 -0.084502,-0.04539 -0.1311194,-0.06556 -0.044411,-0.01942 -0.089028,-0.03273 -0.1365827,-0.04917 -0.095106,-0.03287 -0.1943534,-0.06196 -0.3004812,-0.08195 -0.1061278,-0.01999 -0.2181874,-0.03242 -0.3332613,-0.03824 -0.1150394,-0.0058 -0.2331704,-0.0042 -0.3551149,0.0055 -0.034256,0.0027 -0.070002,0.0071 -0.1038026,0.01093 -0.016472,0.0019 -0.032809,0.0033 -0.049172,0.0055 -0.012417,0.0017 -0.025894,0.0037 -0.038244,0.0055 -0.1212715,0.01788 -0.2419289,0.04452 -0.355115,0.07649 -0.1146801,0.03235 -0.2239762,0.06969 -0.327798,0.114729 -0.052016,0.02257 -0.1041282,0.04561 -0.1529723,0.07102 -0.048735,0.02535 -0.096797,0.05399 -0.1420458,0.08195 -0.089212,0.05537 -0.1719933,0.116092 -0.2458483,0.18029 -0.037352,0.03251 -0.07086,0.06389 -0.1038034,0.09834 -0.034046,0.03537 -0.06381,0.0721 -0.092876,0.109266 -0.046346,0.05926 -0.087608,0.122711 -0.1201922,0.185752 -0.00656,0.01284 -0.015892,0.02527 -0.021856,0.03824 -0.055053,0.118159 -0.081948,0.240405 -0.081948,0.366041 0,0.04138 0.00463,0.08038 0.010928,0.120193 0.00623,0.03982 0.015109,0.07665 0.027316,0.114729 0.012535,0.03978 0.025003,0.07704 0.043704,0.11473 0.035863,0.07226 0.085401,0.138638 0.1420458,0.202142 0.028326,0.03175 0.059823,0.06358 0.092876,0.09288 0.066107,0.05859 0.1408521,0.110728 0.2239955,0.158436 0.041458,0.0239 0.080408,0.04465 0.1256554,0.06556 0.2281598,0.106144 0.4964616,0.174643 0.797642,0.191215 0.1192878,0.0066 0.2451635,0.0045 0.3715045,-0.0055 0.4128883,-0.03262 0.7931354,-0.151297 1.0981241,-0.327798 0.087224,-0.05022 0.1663627,-0.105332 0.2403852,-0.163899 0.035897,-0.02854 0.071356,-0.06264 0.1038025,-0.09288 0.017137,-0.01598 0.033054,-0.03275 0.049172,-0.04917 0.015227,-0.01551 0.034871,-0.02784 0.049172,-0.0437 8.413e-4,-0.001 -8.412e-4,-0.0044 0,-0.0055 0.058779,-0.06561 0.1058326,-0.131205 0.1475099,-0.202142 0.041676,-0.07094 0.075723,-0.143779 0.098339,-0.218533 0.011315,-0.03738 0.021141,-0.07668 0.027316,-0.114728 l 0.010928,-0.09834 0.010928,-0.51355 0.1092658,-6.288262 0,-0.043704 0.1912155,-0.021856 4.74761,-0.5681833 0,4.9552153 0,0.191215 -0.0055,0.469844 c -0.312435,-0.138043 -0.706179,-0.203349 -1.136368,-0.169362 -0.471961,0.03729 -0.899565,0.192234 -1.223779,0.409748 -0.03154,0.02116 -0.0634,0.04317 -0.09288,0.06556 -0.353181,0.246414 -0.573648,0.569816 -0.573648,0.912372 0,0.662034 0.824935,1.134272 1.835671,1.054417 0.470001,-0.03713 0.895633,-0.191981 1.218316,-0.409747 0.01479,-0.0092 0.02931,-0.01788 0.0437,-0.02732 0.38198,-0.250443 0.622817,-0.591748 0.622817,-0.950615 0,-0.05024 -0.0072,-0.09415 -0.01638,-0.142046 l 0.03278,-0.02186 0.07102,-5.9713896 0.01638,-1.6389913 z"
       style="fill:#bebebe;fill-opacity:1;stroke:none" />
  </g>
</svg>
