<svg height="64" viewBox="0 0 16.933333 16.933334" width="64" xmlns="http://www.w3.org/2000/svg" xmlns:xlink="http://www.w3.org/1999/xlink"><filter id="a" color-interpolation-filters="sRGB" height="1.048" width="1.048" x="-.024" y="-.024"><feGaussianBlur stdDeviation="2.1770482"/></filter><linearGradient id="b" gradientUnits="userSpaceOnUse" x1="303.7977" x2="73.500549" xlink:href="#c" y1="512.95911" y2="530.10199"/><linearGradient id="c"><stop offset="0" stop-color="#8c8c8b" stop-opacity=".537255"/><stop offset="1" stop-color="#5b6f4c" stop-opacity="0"/></linearGradient><linearGradient id="d" gradientUnits="userSpaceOnUse" x1="160.65572" x2="236.85242" xlink:href="#c" y1="169.00987" y2="169.00987"/><radialGradient id="e" cx="-291.85776" cy="340.35464" gradientTransform="matrix(2.9323984 -.62672544 .15746902 .73678503 510.39014 -93.870698)" gradientUnits="userSpaceOnUse" r="9.755338"><stop offset="0" stop-color="#242b2d"/><stop offset="1" stop-color="#242b2d" stop-opacity="0"/></radialGradient><linearGradient id="f" gradientUnits="userSpaceOnUse" x1="-3.125017" x2="34.128284" y1="420.43021" y2="420.43021"><stop offset="0" stop-color="#e72c00"/><stop offset=".8035748" stop-color="#b62200"/><stop offset="1" stop-color="#fd3100"/></linearGradient><linearGradient id="g" gradientUnits="userSpaceOnUse" x1="2.13619875382" x2="28.86707294622" y1="415.66771003865" y2="415.66771003865"><stop offset="0" stop-color="#921901"/><stop offset="1" stop-color="#fd330b"/></linearGradient><linearGradient id="h" gradientUnits="userSpaceOnUse" x1="13.623913" x2="33.211216" y1="1353.2048" y2="1381.4191"><stop offset="0" stop-color="#fffdfd"/><stop offset="1" stop-color="#eea2a0" stop-opacity="0"/></linearGradient><radialGradient id="i" cx="93.60704" cy="1441.4597" gradientTransform="matrix(1.177087 -.44271758 .45829215 1.2184963 -677.18626 -272.18727)" gradientUnits="userSpaceOnUse" r="16.134117"><stop offset="0" stop-color="#fef9f9"/><stop offset="1" stop-color="#f5c7c6" stop-opacity="0"/></radialGradient><filter id="j" color-interpolation-filters="sRGB" height="1.048" width="1.048" x="-.024" y="-.024"><feGaussianBlur stdDeviation=".21759741"/></filter><path d="m.00000048-.00000003919h16.93333312v16.93333312h-16.93333312z" fill="#fff" fill-opacity=".033088"/><g transform="matrix(.0661458325 0 0 .0661458325 .00000048 -2.81263725376)"><path d="m20.216665 83.439862-.000001 195.934328 65.424844-10.88523 76.328982 10.88523 76.32897-21.77047v-195.934342l-1.46167-1.483035-74.8673 23.253517-76.328981-10.88524z" fill="#ab9861"/><path d="m19.147587 83.439862-.000001 195.934328 65.311451-10.88523 76.196683 10.88523 76.19669-21.77047v-195.934342l-76.19669 21.770482-76.196682-10.88524z" fill="#a1a1a1" filter="url(#a)"/><path d="m19.147587 81.927957-.000001 195.934333 65.311451-10.88523 76.196683 10.88523 76.19669-21.77047v-195.934347l-76.19669 21.770482-76.196682-10.88524z" fill="#fff"/><path d="m319.21484 113.54688-246.845699 41.14062v232.31055l246.845699-75.89844zm0 290.54687-246.845699 75.89844v415.23633l246.845699-41.14258z" fill="#8ece5f" transform="matrix(.26458333 0 0 .26458333 0 41)"/><path d="m319.21484 311.09961-246.845699 75.89844v92.99414l246.845699-75.89844z" fill="#fff" transform="matrix(.26458333 0 0 .26458333 0 41)"/><path d="m160.65572 277.86229 76.19669-21.77047v-195.934347l-76.19669 21.770482z" fill="#e5dfce"/><path d="m84.459037 266.97706 76.196683 10.88523v-195.934335l-76.196682-10.88524z" fill="#e9e3d3"/><g transform="matrix(.26458333 0 0 .26458333 0 41)"><path d="m263.56836 421.20312-191.199219 58.78907v415.23633l246.845699-41.14258v-299.47656z" fill="#e9e3d3"/><path d="m319.21484 252.16797v302.44141l96.3125 313.23632 97.26758 13.89453z" fill="#fff"/><path d="m258.28125 123.70312-78.59726 12.95784 139.53085 417.94842v-302.44141z" fill="#fff"/><path d="m607.20312 240.54883-287.98828 70.55078v92.99414l287.98828-70.55078z" fill="#fff"/><path d="m895.18945 134-287.98633 106.54883v92.99414l287.98633-106.54883z" fill="#fff"/><path d="m319.21484 113.54688v138.62109l16.85157 54.80273 271.13671-66.42187v-85.86133z" fill="#a4d77e"/><path d="m895.18945 72.40625-287.98633 82.28125v85.86133l287.98633-106.54883z" fill="#96d16a"/><path d="m273.16481 418.17266-200.795669 61.81953v415.23633l246.845699-41.14258 96.3125 13.75976-96.3125-313.23632z" fill="#4ac7fd"/><path d="m319.21484 554.60938v299.47656l96.3125 13.75976z" fill="#72d3fd"/><path d="m895.18945 502-287.98633 106.55078v12.99414l41.3125-15.28515 92.74219 250.66601 11.75391-3.35742-93.06641-251.53711 235.24414-87.03516z" fill="#fff"/></g><path d="m132.51181 185.47967c-1.78173.003-3.56448.0233-5.34955.0587-14.28052.28235-28.702125 1.51994-43.744097 2.64711-.119929.009-.239258.0233-.3576.0418l-63.912895 9.72775v19.22345c.246647.001.492877-.0167.735356-.0536l65.161914-10.24586c21.350802-.46706 31.512752-3.00768 69.482582.52782 8.24584 1.59452 10.22023 2.6186 14.15779 3.90401 3.98182 1.29986 9.37473 2.59496 23.17223 4.28458.26431.0326.53203.0427.79891.0304 23.35702-1.09074 34.04611-5.22951 44.19576-7.79788v-21.93344c-.54281-.001-1.0799.0905-1.57665.26918-6.47286 2.34684-19.0385 7.49327-40.33036 8.7721-8.03462.0127-13.23276-1.15645-18.12499-2.70449-4.92406-1.55812-9.62067-3.62164-15.97267-5.03602-.13509-.0299-.27206-.0538-.41031-.0717-6.36512-.82749-12.69436-1.29814-19.02312-1.50836-2.96659-.0985-5.93277-.14076-8.9023-.13544z" fill="#f6b532"/><path d="m236.85221 189.06267c-6.25358 2.26733-19.7047 7.7439-41.74526 9.04888-17.22826.0602-23.52001-5.23713-35.28002-7.8557-24.78513-3.22215-49.25797-.91985-76.054268 1.08813l-64.529392 9.82268-.0956 1.31132v11.53231l65.411511-10.28384c21.347609-.43491 31.893939-3.0809 70.657179.54681 17.46161 3.34598 9.89463 4.84009 37.21789 8.18606 23.70531-1.10701 33.45682-5.29975 44.41796-7.94978z" fill="#fee333"/><path d="m895.13477 72.515625-.59375.183594.20117 61.232421c.77705.33303 3.33755 1.02423 5.91797 1.69336v-57.503906z" fill="#71ba3a" transform="matrix(.26458333 0 0 .26458333 0 41)"/><path d="m319.21484 113.54688-246.845699 41.14062v342.31055l246.845699-75.89844zm0 290.54687-246.845699 75.89844v415.23633l246.845699-41.14258z" fill="url(#b)" transform="matrix(.26458333 0 0 .26458333 0 41)"/><path d="m160.65572 277.86229 76.19669-21.77047v-195.934347l-76.19669 21.770482z" fill="url(#d)"/><g transform="matrix(-2.3887765 0 0 2.3887765 221.33606 -843.32476)"><path d="m-260.17835 336.63267c.00001 4.05925-19.6409 5.38156-25.02863 5.38156s-9.9429.19971-9.94289-3.85954c0-4.05924 4.36762-7.34991 9.75534-7.34991s25.21618 1.76865 25.21618 5.82789z" fill="url(#e)" transform="matrix(.73276552 -.68048122 .68048122 .73276552 0 0)"/><path d="m34.128286 415.66769c.000002 5.41145-2.127962 9.52956-4.934211 13.68704l-13.69244 20.28545-13.1143487-19.77323c-2.91605218-4.39669-5.5123059-8.51009-5.5123035-14.19926.0000044-10.28722 8.3394371-18.62665 18.6266522-18.62665 10.287215 0 18.626647 8.33944 18.626651 18.62665z" fill="url(#f)"/><circle cx="15.501635" cy="415.66769" fill="url(#g)" r="13.365436"/><circle cx="15.501635" cy="415.66769" fill="#242b2d" r="11.541328"/><path d="m39.119141 1354.8262a56.624433 44.417436 49.535329 0 0 -21.337891 7.3476 56.624433 44.417436 49.535329 0 0 -14.0410156 41.5938 56.257804 56.257804 0 0 1 54.8476566-43.959 56.257804 56.257804 0 0 1 4.980468.25 56.624433 44.417436 49.535329 0 0 -24.449218-5.2324z" fill="url(#h)" transform="matrix(.26458333 0 0 .26458333 0 41)"/><path d="m102.20898 1416.0664c-.001 19.5679-13.033276 36.7405-31.878902 42.0078 6.648274-.8005 12.702227-3.1746 17.75-6.9609 8.236621-7.9349 16.414842-15.9318 14.128902-35.0469z" fill="url(#i)" transform="matrix(.26458333 0 0 .26458333 0 41)"/><circle cx="15.501635" cy="415.66769" fill="#374346" filter="url(#j)" r="10.87987"/></g></g></svg>