<?xml version="1.0" encoding="UTF-8" standalone="no"?>
<!-- Created with Inkscape (http://www.inkscape.org/) -->

<svg
   xmlns:dc="http://purl.org/dc/elements/1.1/"
   xmlns:cc="http://creativecommons.org/ns#"
   xmlns:rdf="http://www.w3.org/1999/02/22-rdf-syntax-ns#"
   xmlns:svg="http://www.w3.org/2000/svg"
   xmlns="http://www.w3.org/2000/svg"
   xmlns:sodipodi="http://sodipodi.sourceforge.net/DTD/sodipodi-0.dtd"
   xmlns:inkscape="http://www.inkscape.org/namespaces/inkscape"
   id="svg7384"
   height="16.072"
   width="16"
   version="1.1"
   inkscape:version="0.48.3.1 r9886"
   sodipodi:docname="alarm-symbolic.svg">
  <defs
     id="defs13" />
  <sodipodi:namedview
     pagecolor="#ffffff"
     bordercolor="#666666"
     borderopacity="1"
     objecttolerance="10"
     gridtolerance="10"
     guidetolerance="10"
     inkscape:pageopacity="0"
     inkscape:pageshadow="2"
     inkscape:window-width="1366"
     inkscape:window-height="711"
     id="namedview11"
     showgrid="false"
     inkscape:zoom="14.683922"
     inkscape:cx="8.7737748"
     inkscape:cy="11.707075"
     inkscape:window-x="0"
     inkscape:window-y="0"
     inkscape:window-maximized="1"
     inkscape:current-layer="svg7384" />
  <metadata
     id="metadata90">
    <rdf:RDF>
      <cc:Work
         rdf:about="">
        <dc:format>image/svg+xml</dc:format>
        <dc:type
           rdf:resource="http://purl.org/dc/dcmitype/StillImage" />
        <dc:title>Gnome Symbolic Icon Theme</dc:title>
      </cc:Work>
    </rdf:RDF>
  </metadata>
  <title
     id="title9167">Gnome Symbolic Icon Theme</title>
  <g
     id="g3794"
     style="opacity:0.35">
    <path
       id="path59045"
       style="text-indent:0;text-transform:none;block-progression:tb;color:#000000;fill:#bebebe"
       d="M 7.41,6 A 0.50005,0.50005 0 0 0 7,6.5 V 9 H 5.5 a 0.50005,0.50005 0 1 0 0,1 h 2 A 0.50005,0.50005 0 0 0 8,9.5 v -3 A 0.50005,0.50005 0 0 0 7.40625,6 z"
       inkscape:connector-curvature="0" />
    <path
       id="path59049"
       d="M 7.46875 3.0625 C 3.90865 3.0625 1.03125 5.97115 1.03125 9.53125 C 1.03125 13.09135 3.90865 16 7.46875 16 C 8.358775 16 9.1949047 15.828833 9.96875 15.5 A 1.1335515 1.1335515 0 0 1 9.875 15.03125 L 9.875 13.625 A 1.1335515 1.1335515 0 0 1 9.90625 13.3125 C 9.2078201 13.759334 8.3629485 14.03125 7.46875 14.03125 C 4.98015 14.03125 3 12.01985 3 9.53125 C 3 7.04265 4.98005 5.03125 7.46875 5.03125 C 9.7428912 5.03125 11.60106 6.7188741 11.90625 8.90625 L 12.375 8.90625 A 1.1335515 1.1335515 0 0 1 13.15625 9.21875 L 13.46875 9.53125 L 13.78125 9.21875 A 1.1335515 1.1335515 0 0 1 13.90625 9.09375 C 13.677049 5.7375757 10.880345 3.0625 7.46875 3.0625 z "
       style="text-indent:0;text-transform:none;block-progression:tb;color:#000000;fill:#bebebe" />
    <path
       id="path59561"
       style="color:#000000;fill:#bebebe"
       d="M 4.28,1 C 2.4738,1 0.9988,2.4751 0.9988,4.2812 c 0,0.40491 0.0842,0.76711 0.21875,1.125 1.206,-1.8223 3.184,-3.1023 5.4688,-3.3438 -0.6,-0.65 -1.46,-1.06 -2.41,-1.06 z m 6.4375,0 C 9.76485,1 8.909,1.41251 8.3113,2.0625 c 2.2873,0.25122 4.2705,1.541 5.4688,3.375 0.14145,-0.3658 0.21875,-0.74054 0.21875,-1.1562 0,-1.8062 -1.4751,-3.2812 -3.2812,-3.2812 z"
       inkscape:connector-curvature="0" />
    <path
       id="path59570"
       style="text-indent:0;text-transform:none;block-progression:tb;color:#000000;fill:#bebebe"
       d="m 3.91,12.91 a 1.0001,1.0001 0 0 0 -0.46875,0.28125 l -1.125,1.0938 a 1.0001,1.0001 0 1 0 1.375,1.4375 l 1.125,-1.0938 A 1.0001,1.0001 0 0 0 3.91,12.90995 z"
       inkscape:connector-curvature="0" />
  </g>
  <path
     inkscape:connector-curvature="0"
     id="path3761-2-3-5-4-8-9-8-0-1-6"
     style="color:#bebebe;fill:#bebebe"
     d="m 11,10.036 h 1.375 L 13.5,11.1298 14.5938,10.036 H 16 v 1.4688 L 14.9062,12.5673 16,13.6298 V 15.036 H 14.5625 L 13.5,13.9735 12.4375,15.036 H 11 V 13.6298 L 12.0625,12.5673 11,11.5048 V 10.036 z" />
</svg>
