<?xml version="1.0" encoding="UTF-8" standalone="no"?>
<!-- Created with Inkscape (http://www.inkscape.org/) -->

<svg
   xmlns:dc="http://purl.org/dc/elements/1.1/"
   xmlns:cc="http://creativecommons.org/ns#"
   xmlns:rdf="http://www.w3.org/1999/02/22-rdf-syntax-ns#"
   xmlns:svg="http://www.w3.org/2000/svg"
   xmlns="http://www.w3.org/2000/svg"
   xmlns:sodipodi="http://sodipodi.sourceforge.net/DTD/sodipodi-0.dtd"
   xmlns:inkscape="http://www.inkscape.org/namespaces/inkscape"
   version="1.1"
   id="svg2"
   width="24"
   height="24"
   viewBox="0 0 24 24"
   sodipodi:docname="battery-full-symbolic.svg"
   inkscape:version="0.92.2 (unknown)"
   inkscape:export-filename="/usr/share/icons/Karasa Jaga/24x24/status/gpm-battery-100-charging.png"
   inkscape:export-xdpi="96"
   inkscape:export-ydpi="96">
  <metadata
     id="metadata8">
    <rdf:RDF>
      <cc:Work
         rdf:about="">
        <dc:format>image/svg+xml</dc:format>
        <dc:type
           rdf:resource="http://purl.org/dc/dcmitype/StillImage" />
        <dc:title></dc:title>
      </cc:Work>
    </rdf:RDF>
  </metadata>
  <defs
     id="defs6" />
  <sodipodi:namedview
     pagecolor="#ffffff"
     bordercolor="#666666"
     borderopacity="1"
     objecttolerance="10"
     gridtolerance="10"
     guidetolerance="10"
     inkscape:pageopacity="0"
     inkscape:pageshadow="2"
     inkscape:window-width="1364"
     inkscape:window-height="704"
     id="namedview4"
     showgrid="false"
     inkscape:zoom="4.9375"
     inkscape:cx="2.6010417"
     inkscape:cy="7.4726739"
     inkscape:window-x="0"
     inkscape:window-y="0"
     inkscape:window-maximized="0"
     inkscape:current-layer="svg2"
     inkscape:snap-global="true"
     showguides="false">
    <inkscape:grid
       type="xygrid"
       id="grid3703" />
  </sodipodi:namedview>
  <path
     inkscape:connector-curvature="0"
     style="opacity:1;fill:#bebebe;fill-opacity:1;stroke:none;stroke-width:0.65779859"
     d="m 10.509766,2.7140471 v 1.3457031 c 0.977338,0.261605 1.968019,0.2949202 2.980468,0 V 2.7140471 c -0.993843,0.2390723 -1.986625,0.2249557 -2.980468,0 z m -1.3476568,1.375 A 1.1342983,1.1342983 0 0 0 8.0019529,5.2238128 v 2.5859374 0.4003907 2.5859371 0.402344 2.583984 0.402344 2.583985 0.402343 2.583985 a 1.1342983,1.1342983 0 0 0 0.8417969,1.095703 c 2.0394852,0.545911 4.1779342,0.622837 6.3359382,-0.0059 a 1.1342983,1.1342983 0 0 0 0.818359,-1.089843 V 17.171078 16.768735 14.18475 13.782406 11.198422 10.796078 8.2101409 7.8097502 5.2238128 A 1.1342983,1.1342983 0 0 0 14.597656,4.1202971 C 12.865044,4.537083 11.147539,4.5169044 9.3867186,4.118344 A 1.1342983,1.1342983 0 0 0 9.1621092,4.0890471 Z m -0.025391,1.1347657 c 1.9094878,0.4322112 3.8170758,0.4593337 5.7265628,0 v 2.5859374 0.4003907 2.5859371 0.402344 2.583984 0.402344 2.583985 0.402343 2.583985 c -1.945236,0.566636 -3.848786,0.502626 -5.7265628,0 V 17.171078 16.768735 14.18475 13.782406 11.198422 10.796078 8.2101409 7.8097502 Z"
     id="path9846" />
  <path
     sodipodi:nodetypes="ccccc"
     style="opacity:1;fill:#95e300;fill-opacity:1;stroke:none;stroke-width:0.62490869"
     d="m 9.2789817,8.285759 c 1.8140123,0.4106008 3.6280243,0.4363669 5.4420363,0 v 2.455945 c -1.847974,0.538303 -3.658149,0.477495 -5.4420363,0 z"
     id="path9824"
     inkscape:connector-curvature="0" />
  <path
     inkscape:connector-curvature="0"
     id="rect6102"
     d="m 9.2789817,17.245369 c 1.8140123,0.410601 3.6280243,0.436368 5.4420363,0 v 2.455945 c -1.847974,0.538304 -3.658149,0.477495 -5.4420363,0 z"
     style="opacity:1;fill:#95e300;fill-opacity:1;stroke:none;stroke-width:0.62490869"
     sodipodi:nodetypes="ccccc" />
  <path
     inkscape:connector-curvature="0"
     id="path9826"
     d="m 9.2789817,14.258832 c 1.8140123,0.410602 3.6280243,0.436367 5.4420363,0 v 2.455945 c -1.847974,0.538304 -3.658149,0.477496 -5.4420363,0 z"
     style="opacity:1;fill:#95e300;fill-opacity:1;stroke:none;stroke-width:0.62490869"
     sodipodi:nodetypes="ccccc" />
  <path
     inkscape:connector-curvature="0"
     id="path9828"
     d="m 9.2789817,5.2992221 c 1.8140123,0.4106007 3.6280243,0.436367 5.4420363,0 v 2.4559451 c -1.847974,0.5383036 -3.658149,0.4774947 -5.4420363,0 z"
     style="opacity:1;fill:#95e300;fill-opacity:1;stroke:none;stroke-width:0.62490869"
     sodipodi:nodetypes="ccccc" />
  <path
     inkscape:connector-curvature="0"
     id="path9822"
     d="m 9.2789817,11.272295 c 1.8140123,0.410601 3.6280243,0.436368 5.4420363,0 v 2.455946 c -1.847974,0.538304 -3.658149,0.477494 -5.4420363,0 z"
     style="opacity:1;fill:#95e300;fill-opacity:1;stroke:none;stroke-width:0.62490869"
     sodipodi:nodetypes="ccccc" />
</svg>
