<?xml version="1.0" encoding="UTF-8" standalone="no"?>
<!-- Created with Inkscape (http://www.inkscape.org/) -->

<svg
   xmlns:dc="http://purl.org/dc/elements/1.1/"
   xmlns:cc="http://creativecommons.org/ns#"
   xmlns:rdf="http://www.w3.org/1999/02/22-rdf-syntax-ns#"
   xmlns:svg="http://www.w3.org/2000/svg"
   xmlns="http://www.w3.org/2000/svg"
   xmlns:sodipodi="http://sodipodi.sourceforge.net/DTD/sodipodi-0.dtd"
   xmlns:inkscape="http://www.inkscape.org/namespaces/inkscape"
   id="svg7384"
   height="16"
   width="16"
   version="1.1"
   inkscape:version="0.48.3.1 r9886"
   sodipodi:docname="changes-prevent-symbolic.svg">
  <defs
     id="defs10692" />
  <sodipodi:namedview
     pagecolor="#ffffff"
     bordercolor="#666666"
     borderopacity="1"
     objecttolerance="10"
     gridtolerance="10"
     guidetolerance="10"
     inkscape:pageopacity="0"
     inkscape:pageshadow="2"
     inkscape:window-width="1366"
     inkscape:window-height="714"
     id="namedview10690"
     showgrid="false"
     inkscape:zoom="32"
     inkscape:cx="12.954577"
     inkscape:cy="13.430625"
     inkscape:window-x="0"
     inkscape:window-y="22"
     inkscape:window-maximized="1"
     inkscape:current-layer="svg7384" />
  <metadata
     id="metadata90">
    <rdf:RDF>
      <cc:Work
         rdf:about="">
        <dc:format>image/svg+xml</dc:format>
        <dc:type
           rdf:resource="http://purl.org/dc/dcmitype/StillImage" />
        <dc:title>Gnome Symbolic Icon Theme</dc:title>
      </cc:Work>
    </rdf:RDF>
  </metadata>
  <title
     id="title9167">Gnome Symbolic Icon Theme</title>
  <path
     style="color:#bebebe;fill:#bebebe"
     d="M 6.9375 0.03125 C 5.1673567 0.03125 3.6840007 1.3865537 3.6875 3.03125 L 3.6875 4.8125 L 5.84375 4.8125 L 5.84375 3.03125 C 5.84253 2.4599512 6.3226262 2.03125 6.9375 2.03125 L 9.0625 2.03125 C 9.6773738 2.03125 10.155035 2.4599512 10.15625 3.03125 L 10.15625 7 L 7.125 7 L 5.84375 7 L 3.6875 7 L 3.3125 7 L 3 7 C 2.446 7 2 7.446 2 8 L 2 8.53125 L 2 16 L 14 16 L 14 8.53125 L 14 8 C 14 7.446 13.554 7 13 7 L 12.3125 7 L 12.3125 3.03125 C 12.309026 1.3865537 10.832644 0.03125 9.0625 0.03125 L 6.9375 0.03125 z "
     id="rect4063" />
</svg>
