<?xml version="1.0" encoding="UTF-8" standalone="no"?>
<!-- Created with Inkscape (http://www.inkscape.org/) -->

<svg
   xmlns:dc="http://purl.org/dc/elements/1.1/"
   xmlns:cc="http://creativecommons.org/ns#"
   xmlns:rdf="http://www.w3.org/1999/02/22-rdf-syntax-ns#"
   xmlns:svg="http://www.w3.org/2000/svg"
   xmlns="http://www.w3.org/2000/svg"
   version="1.1"
   width="16"
   height="16"
   id="svg12722">
  <defs
     id="defs12724">
    <linearGradient
       x1="15"
       y1="2"
       x2="15"
       y2="21"
       id="linearGradient3696"
       gradientUnits="userSpaceOnUse">
      <stop
         id="stop3700"
         style="stop-color:#eeeeec;stop-opacity:1"
         offset="0" />
      <stop
         id="stop3702"
         style="stop-color:#babdb6;stop-opacity:1"
         offset="0.79220003" />
      <stop
         id="stop3704"
         style="stop-color:#a1a59b;stop-opacity:1"
         offset="1" />
    </linearGradient>
    <linearGradient
       x1="22.146999"
       y1="15.722"
       x2="22.402"
       y2="34.612"
       id="linearGradient4117"
       gradientUnits="userSpaceOnUse">
      <stop
         id="stop4113"
         style="stop-color:#ffffff;stop-opacity:1"
         offset="0" />
      <stop
         id="stop4115"
         style="stop-color:#ffffff;stop-opacity:0"
         offset="1" />
    </linearGradient>
    <linearGradient
       id="linearGradient5841">
      <stop
         id="stop5843"
         style="stop-color:#37e700;stop-opacity:1"
         offset="0" />
      <stop
         id="stop5849"
         style="stop-color:#3dfe00;stop-opacity:1"
         offset="0.5" />
      <stop
         id="stop5845"
         style="stop-color:#2aad00;stop-opacity:1"
         offset="1" />
    </linearGradient>
  </defs>
  <metadata
     id="metadata12727">
    <rdf:RDF>
      <cc:Work
         rdf:about="">
        <dc:format>image/svg+xml</dc:format>
        <dc:type
           rdf:resource="http://purl.org/dc/dcmitype/StillImage" />
        <dc:title></dc:title>
      </cc:Work>
    </rdf:RDF>
  </metadata>
  <g
     id="layer1">
    <path
       d="M 7.93442,1.2466649 C 7.5368851,1.2683177 7.1795804,1.4878375 6.9810883,1.8326583 L 0.51329319,12.997145 c -0.21014264,0.363812 -0.21042265,0.808331 0,1.171987 0.21041776,0.363653 0.59851811,0.586408 1.01892841,0.585994 l 12.9355874,0 c 0.420412,5.59e-4 0.808515,-0.222341 1.01893,-0.585994 0.210415,-0.363656 0.210064,-0.808175 0,-1.171987 L 9.0189454,1.8326583 C 8.797529,1.4479864 8.3778795,1.2222955 7.93442,1.2466649 z m -1.0233017,2.829387 2.1777971,0 0,6.4021961 -2.1777971,0 0,-6.4021961 z m 1.0888976,7.3861401 c 0.3036192,2e-6 0.5628189,0.06982 0.7740365,0.209908 0.2112121,0.140078 0.3148594,0.629522 0.314863,0.830886 -3.6e-6,0.192611 -0.1036545,0.677679 -0.314863,0.826514 -0.2112176,0.140078 -0.4704173,0.209908 -0.7740365,0.209908 -0.3036209,0 -0.5628224,-0.06982 -0.7740364,-0.209908 -0.2112139,-0.148826 -0.314863,-0.633903 -0.3148612,-0.826514 -1.8e-6,-0.201364 0.1036545,-0.690805 0.3148612,-0.830886 0.211214,-0.140077 0.4704155,-0.209906 0.7740364,-0.209908 z"
       id="path4137"
       style="fill:#ff7b1d;fill-opacity:1;fill-rule:evenodd;stroke:none" />
  </g>
</svg>
