<?xml version="1.0" encoding="UTF-8" standalone="no"?>
<!-- Created with Inkscape (http://www.inkscape.org/) -->

<svg
   xmlns:dc="http://purl.org/dc/elements/1.1/"
   xmlns:cc="http://creativecommons.org/ns#"
   xmlns:rdf="http://www.w3.org/1999/02/22-rdf-syntax-ns#"
   xmlns:svg="http://www.w3.org/2000/svg"
   xmlns="http://www.w3.org/2000/svg"
   xmlns:xlink="http://www.w3.org/1999/xlink"
   xmlns:sodipodi="http://sodipodi.sourceforge.net/DTD/sodipodi-0.dtd"
   xmlns:inkscape="http://www.inkscape.org/namespaces/inkscape"
   width="16"
   height="16"
   id="svg2"
   version="1.1"
   inkscape:version="0.48.3.1 r9886"
   sodipodi:docname="display-brightness-symbolic.svg">
  <defs
     id="defs4">
    <linearGradient
       inkscape:collect="always"
       xlink:href="#linearGradient3534"
       id="linearGradient3107"
       gradientUnits="userSpaceOnUse"
       gradientTransform="matrix(1.0134847,0,0,1.0134847,-0.9034752,-1.7799914)"
       x1="34.847366"
       y1="68.569542"
       x2="99.877167"
       y2="68.569542" />
    <linearGradient
       id="linearGradient3534"
       inkscape:collect="always">
      <stop
         id="stop3536"
         offset="0"
         style="stop-color:#e3e3e3;stop-opacity:1;" />
      <stop
         id="stop3538"
         offset="1"
         style="stop-color:#f2f2f2;stop-opacity:1" />
    </linearGradient>
  </defs>
  <sodipodi:namedview
     id="base"
     pagecolor="#ffffff"
     bordercolor="#666666"
     borderopacity="1.0"
     inkscape:pageopacity="0.0"
     inkscape:pageshadow="2"
     inkscape:zoom="11"
     inkscape:cx="-6.0797958"
     inkscape:cy="7.8854284"
     inkscape:current-layer="layer1"
     showgrid="true"
     inkscape:document-units="px"
     inkscape:grid-bbox="true"
     inkscape:window-width="1366"
     inkscape:window-height="696"
     inkscape:window-x="0"
     inkscape:window-y="0"
     inkscape:window-maximized="1" />
  <metadata
     id="metadata7">
    <rdf:RDF>
      <cc:Work
         rdf:about="">
        <dc:format>image/svg+xml</dc:format>
        <dc:type
           rdf:resource="http://purl.org/dc/dcmitype/StillImage" />
        <dc:title />
      </cc:Work>
    </rdf:RDF>
  </metadata>
  <g
     id="layer1"
     inkscape:label="Layer 1"
     inkscape:groupmode="layer"
     transform="translate(0,-48)">
    <g
       id="g25714">
      <path
         inkscape:connector-curvature="0"
         id="path4583"
         d="m 7.9999995,52.299537 c -1.8952462,0 -3.4423128,1.525142 -3.4423128,3.420388 -4e-7,0.636377 0.1802323,1.242898 0.4823622,1.754045 0.00718,0.01214 0.014606,0.03181 0.021925,0.04384 0.4168679,0.767792 1.1728166,1.718673 1.293608,2.631066 0.052364,0.265915 0.055155,0.431092 0.1754045,0.526213 l 0.3288833,0 c 0.3069752,0.04147 0.7065474,0.07776 1.0305014,0.0877 0.035115,0 0.07085,6.3e-4 0.1096277,0 0.038778,6.31e-4 0.074511,0 0.1096277,0 0.307423,-0.0094 0.6866405,-0.04964 0.98665,-0.0877 l 0.3727346,0 c 0.1212114,-0.09496 0.144768,-0.259295 0.1973302,-0.526213 0.1257523,-0.949873 0.911295,-1.935226 1.315534,-2.718769 0.281548,-0.498118 0.460437,-1.097565 0.460437,-1.710195 0,-1.895245 -1.547067,-3.420387 -3.4423137,-3.420387 z m 0,1.030503 c 1.3396652,-10e-7 2.4118105,1.058208 2.4118105,2.389885 0,0.411029 -0.13,0.85404 -0.328883,1.205907 a 1.035709,1.035709 0 0 0 -0.02192,0.02193 c -0.2855523,0.55349 -1.008702,1.506882 -1.2936083,2.718769 -0.231202,0.02601 -0.470931,0.05911 -0.6577666,0.06577 -0.00616,2.2e-4 -0.015902,-1.86e-4 -0.021925,0 -0.028749,1.03e-4 -0.052906,2.09e-4 -0.065777,0 a 1.035709,1.035709 0 0 0 -0.043852,0 c -0.012888,2.09e-4 -0.037029,1.03e-4 -0.065777,0 -0.00959,-3.5e-5 -0.010048,0 -0.021925,0 -0.1919869,-0.0066 -0.4179921,-0.04286 -0.6358412,-0.06577 -0.2718843,-1.140638 -0.9343564,-2.023441 -1.2497569,-2.587217 3.68e-4,-0.0018 -0.011813,-0.04698 -0.021925,-0.06578 a 1.035709,1.035709 0 0 0 -0.043852,-0.04384 c -0.00556,-0.0096 0.00647,-0.01101 0,-0.02193 -0.2113317,-0.357525 -0.3508099,-0.78698 -0.3508096,-1.227824 0,-1.331679 1.0721462,-2.389886 2.4118115,-2.389886 z"
         style="fill:#bebebe;fill-opacity:1;stroke:none" />
      <g
         transform="matrix(0.12341371,0,0,0.12341371,47.459579,52.939291)"
         id="Livello_1"
         style="display:inline;enable-background:new" />
      <g
         transform="matrix(0.12341371,0,0,0.12341371,54.370747,55.085368)"
         id="g3290"
         style="display:inline;enable-background:new" />
      <g
         transform="matrix(0.02414677,0,0,0.02414677,42.294755,50.089402)"
         id="g7148"
         style="display:inline;enable-background:new" />
      <g
         transform="matrix(0.01645516,0,0,0.01645516,39.164861,60.775503)"
         id="g7555"
         style="display:inline;enable-background:new" />
      <g
         transform="matrix(0.13164129,0,0,0.13164129,47.130345,52.689443)"
         id="g9283"
         style="display:inline;enable-background:new" />
      <g
         transform="matrix(0.02211471,0,0,0.02211471,16.213059,58.650555)"
         style="display:inline;enable-background:new"
         id="g3680">
        <g
           transform="translate(-0.477829,0)"
           id="g3700" />
      </g>
      <g
         transform="matrix(0.01604467,0,0,0.01604467,16.128296,61.900895)"
         style="display:inline;enable-background:new"
         id="g3732">
        <g
           transform="translate(-0.477829,0)"
           id="g3750" />
      </g>
      <g
         id="g3863"
         style="display:inline;enable-background:new"
         transform="matrix(0.12341371,0,0,0.12341371,-0.31564561,47.69482)" />
      <g
         transform="matrix(0.0822758,0,0,0.0822758,5.1968348,54.153471)"
         style="display:inline;enable-background:new"
         id="g3882" />
      <rect
         y="61.059795"
         x="6.5329804"
         height="0.9567517"
         width="3.0297139"
         id="rect6520"
         style="fill:#bebebe;fill-opacity:1;stroke:none" />
      <rect
         style="fill:#bebebe;fill-opacity:1;stroke:none"
         id="rect6522"
         width="2.168637"
         height="0.9567517"
         x="6.9156804"
         y="62.463036" />
      <g
         transform="matrix(0.88123208,0,0,0.88123208,-24.845923,15.253841)"
         id="g6588">
        <path
           inkscape:connector-curvature="0"
           style="color:#bebebe;fill:#bebebe;enable-background:new"
           d="m 29.834976,44.818432 1.8473,0 c 0.311625,0 0.5625,0.250875 0.5625,0.5625 l 0,0.875 c 0,0.311625 -0.250875,0.5625 -0.5625,0.5625 l -1.8473,0 c -0.311625,0 -0.5625,-0.250875 -0.5625,-0.5625 l 0,-0.875 c 0,-0.311625 0.250875,-0.5625 0.5625,-0.5625 z"
           id="rect4906-43-6" />
        <path
           inkscape:connector-curvature="0"
           style="color:#bebebe;fill:#bebebe;enable-background:new"
           d="m 42.818977,44.818432 1.8915,0 c 0.311625,0 0.5625,0.250875 0.5625,0.5625 l 0,0.875 c 0,0.311625 -0.250875,0.5625 -0.5625,0.5625 l -1.8915,0 c -0.311625,0 -0.5625,-0.250875 -0.5625,-0.5625 l 0,-0.875 c 0,-0.311625 0.250875,-0.5625 0.5625,-0.5625 z"
           id="rect4906-4-6-6" />
        <path
           inkscape:connector-curvature="0"
           transform="matrix(0.70710678,-0.70710678,0.70710678,0.70710678,0,0)"
           style="color:#bebebe;fill:#bebebe;enable-background:new"
           d="m -13.483558,57.75605 1.847309,0 c 0.311626,0 0.562502,0.250876 0.562502,0.562503 l 0,0.875004 c 0,0.311626 -0.250876,0.562502 -0.562502,0.562502 l -1.847309,0 c -0.311626,0 -0.562503,-0.250876 -0.562503,-0.562502 l 0,-0.875004 c 0,-0.311627 0.250877,-0.562503 0.562503,-0.562503 z"
           id="rect33241" />
        <path
           inkscape:connector-curvature="0"
           transform="matrix(0.70710678,-0.70710678,0.70710678,0.70710678,0,0)"
           style="color:#bebebe;fill:#bebebe;enable-background:new"
           d="m -0.49949819,57.75605 1.89150869,0 c 0.3116264,0 0.5625026,0.250876 0.5625026,0.562503 l 0,0.875004 c 0,0.311626 -0.2508762,0.562502 -0.5625026,0.562502 l -1.89150869,0 c -0.31162642,0 -0.56250261,-0.250876 -0.56250261,-0.562502 l 0,-0.875004 c 0,-0.311627 0.25087619,-0.562503 0.56250261,-0.562503 z"
           id="rect33243" />
        <path
           inkscape:connector-curvature="0"
           transform="matrix(0,-1,1,0,0,0)"
           style="color:#bebebe;fill:#bebebe;enable-background:new"
           d="m -40.271931,36.27248 1.8915,0 c 0.311625,0 0.5625,0.250875 0.5625,0.5625 l 0,0.875 c 0,0.311625 -0.250875,0.5625 -0.5625,0.5625 l -1.8915,0 c -0.311625,0 -0.5625,-0.250875 -0.5625,-0.5625 l 0,-0.875 c 0,-0.311625 0.250875,-0.5625 0.5625,-0.5625 z"
           id="rect33249" />
        <path
           inkscape:connector-curvature="0"
           transform="matrix(-0.70710678,-0.70710678,0.70710678,-0.70710678,0,0)"
           style="color:#bebebe;fill:#bebebe;enable-background:new"
           d="m -66.192685,-7.0431161 1.847308,0 c 0.311627,0 0.562503,0.2508762 0.562503,0.5625026 l 0,0.8750039 c 0,0.3116264 -0.250876,0.5625026 -0.562503,0.5625026 l -1.847308,0 c -0.311627,0 -0.562503,-0.2508762 -0.562503,-0.5625026 l 0,-0.8750039 c 0,-0.3116264 0.250876,-0.5625026 0.562503,-0.5625026 z"
           id="rect33253" />
        <path
           inkscape:connector-curvature="0"
           transform="matrix(-0.70710678,-0.70710678,0.70710678,-0.70710678,0,0)"
           style="color:#bebebe;fill:#bebebe;enable-background:new"
           d="m -53.208623,-7.0431161 1.891508,0 c 0.311627,0 0.562503,0.2508762 0.562503,0.5625026 l 0,0.8750039 c 0,0.3116264 -0.250876,0.5625026 -0.562503,0.5625026 l -1.891508,0 c -0.311627,0 -0.562503,-0.2508762 -0.562503,-0.5625026 l 0,-0.8750039 c 0,-0.3116264 0.250876,-0.5625026 0.562503,-0.5625026 z"
           id="rect33255" />
      </g>
    </g>
  </g>
</svg>
