<?xml version="1.0" encoding="UTF-8" standalone="no"?>
<!-- Created with Inkscape (http://www.inkscape.org/) -->

<svg
   xmlns:dc="http://purl.org/dc/elements/1.1/"
   xmlns:cc="http://creativecommons.org/ns#"
   xmlns:rdf="http://www.w3.org/1999/02/22-rdf-syntax-ns#"
   xmlns:svg="http://www.w3.org/2000/svg"
   xmlns="http://www.w3.org/2000/svg"
   xmlns:sodipodi="http://sodipodi.sourceforge.net/DTD/sodipodi-0.dtd"
   xmlns:inkscape="http://www.inkscape.org/namespaces/inkscape"
   width="16px"
   height="16px"
   id="svg3112"
   version="1.1"
   inkscape:version="0.48.3.1 r9886"
   sodipodi:docname="Dokumen baru 3">
  <defs
     id="defs3114" />
  <sodipodi:namedview
     id="base"
     pagecolor="#ffffff"
     bordercolor="#666666"
     borderopacity="1.0"
     inkscape:pageopacity="0.0"
     inkscape:pageshadow="2"
     inkscape:zoom="32"
     inkscape:cx="7.7992871"
     inkscape:cy="6.7648777"
     inkscape:current-layer="layer1"
     showgrid="false"
     inkscape:grid-bbox="true"
     inkscape:document-units="px"
     inkscape:window-width="1366"
     inkscape:window-height="696"
     inkscape:window-x="0"
     inkscape:window-y="0"
     inkscape:window-maximized="1">
    <inkscape:grid
       type="xygrid"
       id="grid3145" />
  </sodipodi:namedview>
  <metadata
     id="metadata3117">
    <rdf:RDF>
      <cc:Work
         rdf:about="">
        <dc:format>image/svg+xml</dc:format>
        <dc:type
           rdf:resource="http://purl.org/dc/dcmitype/StillImage" />
        <dc:title></dc:title>
      </cc:Work>
    </rdf:RDF>
  </metadata>
  <g
     id="layer1"
     inkscape:label="Layer 1"
     inkscape:groupmode="layer">
    <path
       style="fill:#bebebe;fill-opacity:1;stroke:none"
       d="M 0.90625 3.5 L 0.90625 3.90625 L 0.90625 3.96875 L 7.34375 8.125 L 7.65625 8.3125 L 8 8.53125 L 8.34375 8.3125 L 8.65625 8.125 L 15.09375 3.96875 L 15.09375 3.90625 L 15.09375 3.5 L 14.625 3.5 L 11.125 3.5 L 9.1875 3.5 L 6.8125 3.5 L 4.65625 3.5 L 1.375 3.5 L 0.90625 3.5 z M 0.90625 4.4375 L 0.90625 5.5625 L 0.90625 11.625 L 4.65625 8.90625 L 6.0625 7.90625 L 0.90625 4.4375 z M 15.09375 4.4375 L 9.9375 7.90625 L 11.34375 8.90625 L 15.09375 11.625 L 15.09375 5.5625 L 15.09375 4.4375 z M 6.65625 8.3125 L 6.5 8.40625 L 6.375 8.5 L 4.90625 9.46875 L 0.90625 12.15625 L 0.90625 12.5 L 15.09375 12.5 L 15.09375 12.15625 L 11.09375 9.46875 L 9.625 8.5 L 9.5 8.40625 L 9.34375 8.3125 L 8.15625 9.0625 L 8.03125 9.15625 L 7.96875 9.15625 L 7.84375 9.0625 L 6.65625 8.3125 z "
       id="rect2987" />
  </g>
</svg>
