<?xml version="1.0" encoding="UTF-8" standalone="no"?>
<!-- Created with Inkscape (http://www.inkscape.org/) -->

<svg
   xmlns:dc="http://purl.org/dc/elements/1.1/"
   xmlns:cc="http://creativecommons.org/ns#"
   xmlns:rdf="http://www.w3.org/1999/02/22-rdf-syntax-ns#"
   xmlns:svg="http://www.w3.org/2000/svg"
   xmlns="http://www.w3.org/2000/svg"
   xmlns:sodipodi="http://sodipodi.sourceforge.net/DTD/sodipodi-0.dtd"
   xmlns:inkscape="http://www.inkscape.org/namespaces/inkscape"
   width="16px"
   height="16px"
   id="svg3112"
   version="1.1"
   inkscape:version="0.92.2 (unknown)"
   sodipodi:docname="mail-mark-important-symbolic.svg">
  <defs
     id="defs3114" />
  <sodipodi:namedview
     id="base"
     pagecolor="#ffffff"
     bordercolor="#666666"
     borderopacity="1.0"
     inkscape:pageopacity="0.0"
     inkscape:pageshadow="2"
     inkscape:zoom="22.627417"
     inkscape:cx="3.4304574"
     inkscape:cy="5.7503828"
     inkscape:current-layer="layer1"
     showgrid="false"
     inkscape:grid-bbox="true"
     inkscape:document-units="px"
     inkscape:window-width="1366"
     inkscape:window-height="706"
     inkscape:window-x="0"
     inkscape:window-y="0"
     inkscape:window-maximized="1"
     inkscape:snap-global="false">
    <inkscape:grid
       type="xygrid"
       id="grid3145" />
  </sodipodi:namedview>
  <metadata
     id="metadata3117">
    <rdf:RDF>
      <cc:Work
         rdf:about="">
        <dc:format>image/svg+xml</dc:format>
        <dc:type
           rdf:resource="http://purl.org/dc/dcmitype/StillImage" />
        <dc:title />
      </cc:Work>
    </rdf:RDF>
  </metadata>
  <g
     id="layer1"
     inkscape:label="Layer 1"
     inkscape:groupmode="layer">
    <g
       id="g853">
      <path
         inkscape:connector-curvature="0"
         d="m 11.557012,8.3052296 c -0.219488,0.011955 -0.416764,0.1331568 -0.526356,0.3235402 L 7.4596407,14.792935 c -0.1160245,0.200869 -0.1161791,0.446298 0,0.647081 0.1161764,0.200781 0.3304554,0.323769 0.5625734,0.32354 h 7.1420299 c 0.232119,3.09e-4 0.446399,-0.122759 0.562574,-0.32354 0.116175,-0.200783 0.115981,-0.446212 0,-0.647081 L 12.155803,8.6287698 C 12.033554,8.4163837 11.801856,8.2917747 11.557012,8.3052296 Z m -0.564988,1.5621685 h 1.202411 v 3.5347969 h -1.202411 z m 0.601205,4.0780549 c 0.167635,10e-7 0.310745,0.03855 0.427363,0.115895 0.116615,0.07734 0.173841,0.347573 0.173843,0.458751 -2e-6,0.106345 -0.05723,0.374162 -0.173843,0.456337 -0.116618,0.07734 -0.259728,0.115895 -0.427363,0.115895 -0.167636,0 -0.310747,-0.03855 -0.427363,-0.115895 -0.116616,-0.08217 -0.173843,-0.349992 -0.173842,-0.456337 -1e-6,-0.111178 0.05723,-0.381409 0.173842,-0.458751 0.116616,-0.07734 0.259727,-0.115894 0.427363,-0.115895 z"
         id="path4137"
         style="fill:#ff7b1d;fill-opacity:1;fill-rule:evenodd;stroke:none" />
      <g
         id="g845">
        <path
           style="fill:#bebebe;fill-opacity:1;stroke:none"
           d="M 15.09375 4.4375 L 9.9375 7.90625 L 10.259766 8.1347656 C 10.526468 7.7011258 10.99172 7.4127697 11.505859 7.3847656 C 11.529722 7.3834543 11.552413 7.3908438 11.576172 7.390625 L 14.607422 5.3515625 L 14.607422 5.5625 L 14.607422 10.671875 L 14.255859 10.416016 L 14.855469 11.453125 L 15.09375 11.625 L 15.09375 5.5625 L 15.09375 4.4375 z "
           id="rect2987-7" />
        <path
           style="fill:#bebebe;fill-opacity:1;stroke:none"
           d="M 6.65625 8.3125 L 6.5 8.40625 L 6.375 8.5 L 4.90625 9.46875 L 0.90625 12.15625 L 0.90625 12.5 L 7.7226562 12.5 L 7.9960938 12.027344 L 1.9453125 12.027344 L 5.1679688 9.8632812 L 6.6347656 8.8945312 A 0.47347348 0.47347348 0 0 0 6.6582031 8.8789062 L 6.6621094 8.8769531 L 7.5742188 9.453125 L 7.6855469 9.5351562 A 0.47347348 0.47347348 0 0 0 7.96875 9.6289062 L 8.03125 9.6289062 A 0.47347348 0.47347348 0 0 0 8.3144531 9.5351562 L 8.4257812 9.453125 L 9.3378906 8.8769531 L 9.3417969 8.8789062 A 0.47347348 0.47347348 0 0 0 9.3652344 8.8945312 L 9.6894531 9.1074219 L 9.9257812 8.6992188 L 9.625 8.5 L 9.5 8.40625 L 9.34375 8.3125 L 8.15625 9.0625 L 8.03125 9.15625 L 7.96875 9.15625 L 7.84375 9.0625 L 6.65625 8.3125 z "
           id="path814" />
        <path
           style="fill:#bebebe;fill-opacity:1;stroke:none"
           d="m 0.90625,4.4375 v 1.125 6.0625 l 3.75,-2.71875 1.40625,-1 z M 1.3476562,5.2675781 5.2871094,7.9160156 4.4003906,8.546875 a 0.44198593,0.44198593 0 0 0 -0.00391,0.00195 L 1.3476562,10.759766 V 5.5625 Z"
           id="path816"
           inkscape:connector-curvature="0" />
        <path
           style="fill:#bebebe;fill-opacity:1;stroke:none"
           d="m 0.90625,3.5 v 0.40625 0.0625 L 7.34375,8.125 7.65625,8.3125 8,8.53125 8.34375,8.3125 8.65625,8.125 15.09375,3.96875 V 3.90625 3.5 H 14.625 11.125 9.1875 6.8125 4.65625 1.375 Z M 1.8320312,3.9863281 H 4.65625 6.8125 9.1875 11.125 14.167969 L 8.3984375,7.7128906 8.09375,7.8964844 a 0.48618451,0.48618451 0 0 0 -0.011719,0.00586 L 8,7.9550781 7.9179688,7.9023438 A 0.48618451,0.48618451 0 0 0 7.90625,7.8964844 L 7.6015625,7.7128906 Z"
           id="path818"
           inkscape:connector-curvature="0" />
      </g>
    </g>
  </g>
</svg>
