<?xml version="1.0" encoding="UTF-8" standalone="no"?>
<!-- Created with Inkscape (http://www.inkscape.org/) -->

<svg
   xmlns:dc="http://purl.org/dc/elements/1.1/"
   xmlns:cc="http://creativecommons.org/ns#"
   xmlns:rdf="http://www.w3.org/1999/02/22-rdf-syntax-ns#"
   xmlns:svg="http://www.w3.org/2000/svg"
   xmlns="http://www.w3.org/2000/svg"
   xmlns:xlink="http://www.w3.org/1999/xlink"
   xmlns:sodipodi="http://sodipodi.sourceforge.net/DTD/sodipodi-0.dtd"
   xmlns:inkscape="http://www.inkscape.org/namespaces/inkscape"
   width="16"
   height="16"
   id="svg2"
   sodipodi:version="0.32"
   inkscape:version="0.92.2 (unknown)"
   version="1.0"
   sodipodi:docname="network-wireless-no-route-symbolic.svg"
   inkscape:output_extension="org.inkscape.output.svg.inkscape">
  <defs
     id="defs4">
    <linearGradient
       id="linearGradient3171"
       inkscape:collect="always">
      <stop
         id="stop3173"
         offset="0"
         style="stop-color:#000000;stop-opacity:1;" />
      <stop
         id="stop3175"
         offset="1"
         style="stop-color:#000000;stop-opacity:0;" />
    </linearGradient>
    <linearGradient
       inkscape:collect="always"
       xlink:href="#linearGradient3171"
       id="linearGradient3342"
       gradientUnits="userSpaceOnUse"
       x1="4.9375"
       y1="11"
       x2="8"
       y2="11" />
    <linearGradient
       id="linearGradient3266"
       inkscape:collect="always">
      <stop
         id="stop3268"
         offset="0"
         style="stop-color:#505050;stop-opacity:1;" />
      <stop
         id="stop3270"
         offset="1"
         style="stop-color:#505050;stop-opacity:0;" />
    </linearGradient>
    <linearGradient
       inkscape:collect="always"
       xlink:href="#linearGradient3266"
       id="linearGradient3340"
       gradientUnits="userSpaceOnUse"
       gradientTransform="translate(2,0)"
       x1="3.8890872"
       y1="15.656685"
       x2="4.3288512"
       y2="12.842732" />
    <linearGradient
       inkscape:collect="always"
       xlink:href="#linearGradient3242"
       id="linearGradient3338"
       gradientUnits="userSpaceOnUse"
       x1="3.5"
       y1="14.03125"
       x2="3.5"
       y2="7.9958577" />
    <linearGradient
       id="linearGradient3242">
      <stop
         id="stop3244"
         offset="0"
         style="stop-color:#505050;stop-opacity:1;" />
      <stop
         style="stop-color:#a7a7a7;stop-opacity:1;"
         offset="0.5"
         id="stop3260" />
      <stop
         style="stop-color:#ffffff;stop-opacity:1;"
         offset="0.69999999"
         id="stop3250" />
      <stop
         id="stop3246"
         offset="1"
         style="stop-color:#c8c8c8;stop-opacity:1;" />
    </linearGradient>
    <linearGradient
       inkscape:collect="always"
       xlink:href="#linearGradient3242"
       id="linearGradient3336"
       gradientUnits="userSpaceOnUse"
       x1="7.6126604"
       y1="14.756505"
       x2="5.5251265"
       y2="7.243495" />
    <inkscape:perspective
       sodipodi:type="inkscape:persp3d"
       inkscape:vp_x="0 : 11 : 1"
       inkscape:vp_y="0 : 1000 : 0"
       inkscape:vp_z="22 : 11 : 1"
       inkscape:persp3d-origin="11 : 7.3333333 : 1"
       id="perspective23" />
    <linearGradient
       id="ShadowGradient">
      <stop
         style="stop-color:#000000;stop-opacity:1;"
         offset="0"
         id="stop3393" />
      <stop
         style="stop-color:#000000;stop-opacity:0;"
         offset="1"
         id="stop3395" />
    </linearGradient>
    <linearGradient
       id="StandardGradient">
      <stop
         style="stop-color:#000000;stop-opacity:1;"
         offset="0"
         id="stop3389" />
      <stop
         style="stop-color:#646464;stop-opacity:1;"
         offset="1"
         id="stop3391" />
    </linearGradient>
    <linearGradient
       inkscape:collect="always"
       xlink:href="#StandardGradient"
       id="linearGradient3381"
       x1="9.9375"
       y1="3"
       x2="9.9375"
       y2="19.017569"
       gradientUnits="userSpaceOnUse" />
    <linearGradient
       inkscape:collect="always"
       xlink:href="#StandardGradient"
       id="linearGradient3782"
       x1="9.75"
       y1="5"
       x2="9.75"
       y2="19.055693"
       gradientUnits="userSpaceOnUse"
       gradientTransform="translate(0,-1)" />
    <linearGradient
       inkscape:collect="always"
       xlink:href="#StandardGradient"
       id="linearGradient2400"
       gradientUnits="userSpaceOnUse"
       gradientTransform="translate(-9,10)"
       x1="9.75"
       y1="5"
       x2="9.75"
       y2="19.055693" />
    <linearGradient
       inkscape:collect="always"
       xlink:href="#StandardGradient"
       id="linearGradient3174"
       gradientUnits="userSpaceOnUse"
       gradientTransform="matrix(0.7071068,0.7071068,-0.7071068,0.7071068,0.8856249,4.1536343)"
       x1="9.75"
       y1="5"
       x2="9.75"
       y2="19.055693" />
    <linearGradient
       inkscape:collect="always"
       xlink:href="#StandardGradient"
       id="linearGradient3178"
       gradientUnits="userSpaceOnUse"
       gradientTransform="matrix(0,1,-1,0,12.009822,7.0098219)"
       x1="9.75"
       y1="5"
       x2="9.75"
       y2="19.055693" />
    <linearGradient
       inkscape:collect="always"
       xlink:href="#StandardGradient"
       id="linearGradient3182"
       gradientUnits="userSpaceOnUse"
       gradientTransform="matrix(-0.7071068,0.7071068,-0.7071068,-0.7071068,17.856188,16.895447)"
       x1="9.75"
       y1="5"
       x2="9.75"
       y2="19.055693" />
    <linearGradient
       inkscape:collect="always"
       xlink:href="#StandardGradient"
       id="linearGradient3186"
       gradientUnits="userSpaceOnUse"
       gradientTransform="matrix(-1,0,0,-1,15,28.019644)"
       x1="9.75"
       y1="5"
       x2="9.75"
       y2="19.055693" />
    <linearGradient
       inkscape:collect="always"
       xlink:href="#StandardGradient"
       id="linearGradient3190"
       gradientUnits="userSpaceOnUse"
       gradientTransform="matrix(-0.7071068,-0.7071068,0.7071068,-0.7071068,5.1143752,33.866009)"
       x1="9.75"
       y1="5"
       x2="9.75"
       y2="19.055693" />
    <linearGradient
       inkscape:collect="always"
       xlink:href="#StandardGradient"
       id="linearGradient3194"
       gradientUnits="userSpaceOnUse"
       gradientTransform="matrix(0,-1,1,0,-6.0098215,31.009821)"
       x1="9.75"
       y1="5"
       x2="9.75"
       y2="19.055693" />
    <linearGradient
       inkscape:collect="always"
       xlink:href="#StandardGradient"
       id="linearGradient3198"
       gradientUnits="userSpaceOnUse"
       gradientTransform="matrix(0.7071068,-0.7071068,0.7071068,0.7071068,-11.856186,21.124197)"
       x1="9.75"
       y1="5"
       x2="9.75"
       y2="19.055693" />
    <linearGradient
       inkscape:collect="always"
       xlink:href="#StandardGradient"
       id="linearGradient3224"
       gradientUnits="userSpaceOnUse"
       gradientTransform="matrix(0.7071068,0.7071068,-0.7071068,0.7071068,11.292893,-6.263456)"
       x1="9.75"
       y1="5"
       x2="9.75"
       y2="19.055693" />
    <linearGradient
       inkscape:collect="always"
       xlink:href="#StandardGradient"
       id="linearGradient2407"
       gradientUnits="userSpaceOnUse"
       gradientTransform="translate(-22,-5)"
       x1="9.75"
       y1="5"
       x2="9.75"
       y2="19.055693" />
    <linearGradient
       inkscape:collect="always"
       xlink:href="#StandardGradient"
       id="linearGradient3228"
       x1="6.7010484"
       y1="1"
       x2="6.7010484"
       y2="15.001111"
       gradientUnits="userSpaceOnUse" />
    <linearGradient
       inkscape:collect="always"
       xlink:href="#linearGradient3171"
       id="linearGradient2630"
       gradientUnits="userSpaceOnUse"
       x1="4.9375"
       y1="11"
       x2="8"
       y2="11"
       gradientTransform="translate(4.8043455e-2,-1.0546018)" />
    <linearGradient
       inkscape:collect="always"
       xlink:href="#linearGradient3266"
       id="linearGradient2633"
       gradientUnits="userSpaceOnUse"
       gradientTransform="translate(2.0480435,-1.0546018)"
       x1="3.8890872"
       y1="15.656685"
       x2="4.3288512"
       y2="12.842732" />
    <linearGradient
       inkscape:collect="always"
       xlink:href="#linearGradient3242"
       id="linearGradient2636"
       gradientUnits="userSpaceOnUse"
       x1="3.5"
       y1="14.03125"
       x2="3.5"
       y2="7.9958577"
       gradientTransform="translate(4.8043455e-2,-1.0546018)" />
    <linearGradient
       inkscape:collect="always"
       xlink:href="#linearGradient3242"
       id="linearGradient2639"
       gradientUnits="userSpaceOnUse"
       x1="7.6126604"
       y1="14.756505"
       x2="5.5251265"
       y2="7.243495"
       gradientTransform="translate(4.8043455e-2,-1.0546018)" />
    <linearGradient
       inkscape:collect="always"
       xlink:href="#linearGradient3242"
       id="linearGradient2641"
       gradientUnits="userSpaceOnUse"
       gradientTransform="translate(-2,-2.9999999)"
       x1="7.6126604"
       y1="14.756505"
       x2="5.5251265"
       y2="7.243495" />
    <linearGradient
       inkscape:collect="always"
       xlink:href="#StandardGradient"
       id="linearGradient3421"
       x1="8.4375"
       y1="1"
       x2="8.4375"
       y2="15.007554"
       gradientUnits="userSpaceOnUse" />
    <linearGradient
       inkscape:collect="always"
       xlink:href="#StandardGradient"
       id="linearGradient2433"
       gradientUnits="userSpaceOnUse"
       x1="8.4375"
       y1="1"
       x2="8.4375"
       y2="15.007554"
       gradientTransform="matrix(1.2397314,0,0,1,-2.1450456,0)" />
    <linearGradient
       inkscape:collect="always"
       xlink:href="#StandardGradient"
       id="linearGradient2435"
       gradientUnits="userSpaceOnUse"
       x1="8.4375"
       y1="1"
       x2="8.4375"
       y2="15.007554"
       gradientTransform="matrix(1.3065009,0,0,1,-3.6644889,0)" />
    <linearGradient
       inkscape:collect="always"
       xlink:href="#StandardGradient"
       id="linearGradient2437"
       gradientUnits="userSpaceOnUse"
       x1="8.4375"
       y1="1"
       x2="8.4375"
       y2="15.007554"
       gradientTransform="matrix(1.315615,0,0,1,-4.7200494,0)" />
    <inkscape:perspective
       id="perspective2849"
       inkscape:persp3d-origin="0.5 : 0.33333333 : 1"
       inkscape:vp_z="1 : 0.5 : 1"
       inkscape:vp_y="0 : 1000 : 0"
       inkscape:vp_x="0 : 0.5 : 1"
       sodipodi:type="inkscape:persp3d" />
    <linearGradient
       inkscape:collect="always"
       xlink:href="#StandardGradient"
       id="linearGradient2898"
       gradientUnits="userSpaceOnUse"
       x1="8.4375"
       y1="1"
       x2="8.4375"
       y2="15.007554" />
    <inkscape:perspective
       id="perspective2917"
       inkscape:persp3d-origin="0.5 : 0.33333333 : 1"
       inkscape:vp_z="1 : 0.5 : 1"
       inkscape:vp_y="0 : 1000 : 0"
       inkscape:vp_x="0 : 0.5 : 1"
       sodipodi:type="inkscape:persp3d" />
    <linearGradient
       inkscape:collect="always"
       xlink:href="#linearGradient4081"
       id="linearGradient3538"
       gradientUnits="userSpaceOnUse"
       gradientTransform="translate(1,0)"
       x1="16.5"
       y1="19.542921"
       x2="16.5"
       y2="2.5" />
    <linearGradient
       id="linearGradient4081">
      <stop
         style="stop-color:#aaaaaa;stop-opacity:1;"
         offset="0"
         id="stop4083" />
      <stop
         style="stop-color:#f0f0f0;stop-opacity:1;"
         offset="1"
         id="stop4085" />
    </linearGradient>
    <linearGradient
       inkscape:collect="always"
       xlink:href="#linearGradient4081"
       id="linearGradient3542"
       gradientUnits="userSpaceOnUse"
       gradientTransform="translate(-4,-3)"
       x1="10.50519"
       y1="15.28125"
       x2="10.50519"
       y2="6.7458849" />
    <linearGradient
       id="linearGradient2926">
      <stop
         style="stop-color:#aaaaaa;stop-opacity:1;"
         offset="0"
         id="stop2928" />
      <stop
         style="stop-color:#f0f0f0;stop-opacity:1;"
         offset="1"
         id="stop2930" />
    </linearGradient>
    <linearGradient
       inkscape:collect="always"
       xlink:href="#linearGradient4081"
       id="linearGradient3540"
       gradientUnits="userSpaceOnUse"
       gradientTransform="translate(-4,-3)"
       x1="14.524625"
       y1="17.41902"
       x2="14.524625"
       y2="4.625" />
    <linearGradient
       id="linearGradient2933">
      <stop
         style="stop-color:#aaaaaa;stop-opacity:1;"
         offset="0"
         id="stop2935" />
      <stop
         style="stop-color:#f0f0f0;stop-opacity:1;"
         offset="1"
         id="stop2937" />
    </linearGradient>
    <linearGradient
       y2="2.5"
       x2="16.5"
       y1="19.542921"
       x1="16.5"
       gradientTransform="translate(-4,-3)"
       gradientUnits="userSpaceOnUse"
       id="linearGradient2942"
       xlink:href="#linearGradient4081"
       inkscape:collect="always" />
    <linearGradient
       inkscape:collect="always"
       xlink:href="#linearGradient4081"
       id="linearGradient2945"
       gradientUnits="userSpaceOnUse"
       gradientTransform="translate(-4,-3)"
       x1="16.5"
       y1="19.542921"
       x2="16.5"
       y2="2.5" />
    <linearGradient
       inkscape:collect="always"
       xlink:href="#linearGradient4081"
       id="linearGradient2948"
       gradientUnits="userSpaceOnUse"
       gradientTransform="matrix(1,0,0,0.94352368,-4,-2.3752307)"
       x1="16.5"
       y1="19.542921"
       x2="16.5"
       y2="2.5" />
    <linearGradient
       inkscape:collect="always"
       xlink:href="#StandardGradient"
       id="linearGradient2950"
       gradientUnits="userSpaceOnUse"
       x1="8.4375"
       y1="1"
       x2="8.4375"
       y2="15.007554" />
    <linearGradient
       inkscape:collect="always"
       xlink:href="#StandardGradient"
       id="linearGradient3729"
       gradientUnits="userSpaceOnUse"
       x1="8.4375"
       y1="1"
       x2="8.4375"
       y2="15.007554"
       gradientTransform="translate(0,1)" />
    <linearGradient
       inkscape:collect="always"
       xlink:href="#StandardGradient"
       id="linearGradient3731"
       gradientUnits="userSpaceOnUse"
       x1="8.4375"
       y1="1"
       x2="8.4375"
       y2="15.007554" />
    <inkscape:perspective
       id="perspective3777"
       inkscape:persp3d-origin="0.5 : 0.33333333 : 1"
       inkscape:vp_z="1 : 0.5 : 1"
       inkscape:vp_y="0 : 1000 : 0"
       inkscape:vp_x="0 : 0.5 : 1"
       sodipodi:type="inkscape:persp3d" />
    <linearGradient
       id="StandardGradient-1"
       gradientTransform="scale(1.1467263,0.8720476)"
       x1="7.1904788"
       y1="6.9551144"
       x2="7.1904788"
       y2="18.319494"
       gradientUnits="userSpaceOnUse">
      <stop
         style="stop-color:#000000;stop-opacity:0.86274511;"
         offset="0"
         id="stop3280" />
      <stop
         style="stop-color:#000000;stop-opacity:0.47058824;"
         offset="1"
         id="stop3282" />
    </linearGradient>
    <linearGradient
       y2="18.319494"
       x2="7.1904788"
       y1="6.9551144"
       x1="7.1904788"
       gradientTransform="matrix(1.1467263,0,0,0.8720476,2.5196744,8.5383193)"
       gradientUnits="userSpaceOnUse"
       id="linearGradient3785"
       xlink:href="#StandardGradient-1"
       inkscape:collect="always" />
    <linearGradient
       inkscape:collect="always"
       xlink:href="#StandardGradient-1"
       id="linearGradient3804"
       gradientUnits="userSpaceOnUse"
       x1="8.4375"
       y1="1"
       x2="8.4375"
       y2="15.007554" />
    <linearGradient
       inkscape:collect="always"
       xlink:href="#StandardGradient-1"
       id="linearGradient3808"
       gradientUnits="userSpaceOnUse"
       x1="8.4375"
       y1="1"
       x2="8.4375"
       y2="15.007554"
       gradientTransform="translate(0,1)" />
    <linearGradient
       inkscape:collect="always"
       xlink:href="#StandardGradient-1"
       id="linearGradient3812"
       gradientUnits="userSpaceOnUse"
       x1="8.4375"
       y1="1"
       x2="8.4375"
       y2="15.007554" />
    <linearGradient
       inkscape:collect="always"
       xlink:href="#StandardGradient-1"
       id="linearGradient3817"
       gradientUnits="userSpaceOnUse"
       x1="8.4375"
       y1="1"
       x2="8.4375"
       y2="15.007554"
       gradientTransform="translate(-20,0)" />
    <clipPath
       clipPathUnits="userSpaceOnUse"
       id="clipPath3824">
      <path
         style="fill:#ff00ff;fill-opacity:1;stroke:none;display:inline"
         d="m -20,0 0,16 16,0 0,-16 -16,0 z M -7.625,1 C -5.995915,2.9288438 -5,5.3432918 -5,8 c 1e-6,2.708425 -1.032388,5.178784 -2.71875,7.125 l -1.5,-1.25 c 1.364366,-1.613056 2.1875,-3.651801 2.1875,-5.875 0,-2.1639699 -0.76332,-4.1574263 -2.0625,-5.75 L -7.625,1 z M -9.8125,2.84375 C -8.662551,4.2737473 -8,6.0683029 -8,8 c 0,1.9878056 -0.722863,3.803569 -1.9375,5.25 l -1.5,-1.28125 C -10.539955,10.861821 -10,9.5005507 -10,8 -10,6.5562172 -10.506676,5.24065 -11.34375,4.15625 l 1.53125,-1.3125 z m -5.1875,1.125 0,8 L -17,10 -18.5,10 C -18.777,10 -19,9.777 -19,9.5 l 0,-3 C -19,6.223 -18.777,6 -18.5,6 l 1.5,0 2,-2.03125 z M -12.0625,4.75 C -11.393055,5.6663669 -11,6.8041149 -11,8 c 0,1.2594208 -0.420217,2.432325 -1.15625,3.375 L -13.6875,10.0625 C -13.263995,9.4700266 -13,8.7691247 -13,8 -13,7.2815285 -13.219346,6.6300346 -13.59375,6.0625 L -12.0625,4.75 z"
         id="path3826" />
    </clipPath>
    <inkscape:perspective
       id="perspective2945"
       inkscape:persp3d-origin="0.5 : 0.33333333 : 1"
       inkscape:vp_z="1 : 0.5 : 1"
       inkscape:vp_y="0 : 1000 : 0"
       inkscape:vp_x="0 : 0.5 : 1"
       sodipodi:type="inkscape:persp3d" />
    <linearGradient
       inkscape:collect="always"
       xlink:href="#StandardGradient-6"
       id="linearGradient3750"
       x1="11"
       y1="3"
       x2="11"
       y2="20.117243"
       gradientUnits="userSpaceOnUse" />
    <linearGradient
       id="StandardGradient-6"
       gradientTransform="matrix(0.9984539,0,0,0.9984539,-0.0459776,0.05767558)"
       x1="10.710332"
       y1="1.9963325"
       x2="10.710332"
       y2="18.974037"
       gradientUnits="userSpaceOnUse">
      <stop
         style="stop-color:#000000;stop-opacity:0.86274511;"
         offset="0"
         id="stop3277" />
      <stop
         style="stop-color:#000000;stop-opacity:0.47058824;"
         offset="1"
         id="stop3279" />
    </linearGradient>
    <linearGradient
       gradientTransform="matrix(0.77744586,0,0,0.77121526,-0.55489171,-1.3761043)"
       y2="20.117243"
       x2="11"
       y1="3"
       x1="11"
       gradientUnits="userSpaceOnUse"
       id="linearGradient2954"
       xlink:href="#StandardGradient-6"
       inkscape:collect="always" />
    <linearGradient
       inkscape:collect="always"
       xlink:href="#StandardGradient-6"
       id="linearGradient2953"
       gradientUnits="userSpaceOnUse"
       gradientTransform="matrix(0.77744586,0,0,0.77121526,-0.55489171,-0.3761043)"
       x1="11"
       y1="3"
       x2="11"
       y2="20.117243" />
    <linearGradient
       inkscape:collect="always"
       xlink:href="#StandardGradient-6"
       id="linearGradient2955"
       gradientUnits="userSpaceOnUse"
       gradientTransform="matrix(0.77744586,0,0,0.77121526,-0.55489171,-1.3761043)"
       x1="11"
       y1="3"
       x2="11"
       y2="20.117243" />
    <linearGradient
       inkscape:collect="always"
       xlink:href="#StandardGradient-6"
       id="linearGradient3732"
       gradientUnits="userSpaceOnUse"
       gradientTransform="matrix(0.77744586,0,0,0.77121526,-0.55489171,-0.3761043)"
       x1="11"
       y1="3"
       x2="11"
       y2="20.117243" />
    <linearGradient
       inkscape:collect="always"
       xlink:href="#StandardGradient-6"
       id="linearGradient3736"
       gradientUnits="userSpaceOnUse"
       gradientTransform="matrix(0.77744586,0,0,0.77121526,-0.55489171,-1.3761043)"
       x1="11"
       y1="3"
       x2="11"
       y2="20.117243" />
    <linearGradient
       inkscape:collect="always"
       xlink:href="#StandardGradient-6"
       id="linearGradient3741"
       gradientUnits="userSpaceOnUse"
       gradientTransform="matrix(0.77744586,0,0,0.77121526,-20.554892,-1.3761043)"
       x1="11"
       y1="3"
       x2="11"
       y2="20.117243" />
    <clipPath
       clipPathUnits="userSpaceOnUse"
       id="clipPath3748">
      <path
         style="fill:#ff00ff;fill-opacity:1;stroke:none;display:inline"
         d="m -20,0 0,16 16,0 0,-16 -16,0 z M -15.5,1.46875 -12,3.9375 -8.5,1.46875 -5,3.9375 -8.5,6.625 -5,8.96875 -12,14 -19,8.96875 -15.5,6.625 -19,3.9375 -15.5,1.46875 z"
         id="path3750" />
    </clipPath>
    <inkscape:perspective
       id="perspective2966"
       inkscape:persp3d-origin="0.5 : 0.33333333 : 1"
       inkscape:vp_z="1 : 0.5 : 1"
       inkscape:vp_y="0 : 1000 : 0"
       inkscape:vp_x="0 : 0.5 : 1"
       sodipodi:type="inkscape:persp3d" />
    <linearGradient
       inkscape:collect="always"
       xlink:href="#StandardGradient-6"
       id="linearGradient3752"
       x1="10.973592"
       y1="1.0816979"
       x2="10.973592"
       y2="8.9478464"
       gradientUnits="userSpaceOnUse" />
    <linearGradient
       inkscape:collect="always"
       xlink:href="#StandardGradient-6"
       id="linearGradient3754"
       x1="3.8554573"
       y1="7.1189685"
       x2="3.8554573"
       y2="15.007722"
       gradientUnits="userSpaceOnUse" />
    <linearGradient
       inkscape:collect="always"
       xlink:href="#StandardGradient-6"
       id="linearGradient3760"
       gradientUnits="userSpaceOnUse"
       x1="3.8554573"
       y1="7.1189685"
       x2="3.8554573"
       y2="15.007722" />
    <linearGradient
       inkscape:collect="always"
       xlink:href="#StandardGradient-6"
       id="linearGradient3765"
       gradientUnits="userSpaceOnUse"
       x1="3.8554573"
       y1="7.1189685"
       x2="3.8554573"
       y2="15.007722"
       gradientTransform="translate(0,1)" />
    <linearGradient
       inkscape:collect="always"
       xlink:href="#StandardGradient-6"
       id="linearGradient3771"
       gradientUnits="userSpaceOnUse"
       x1="3.8554573"
       y1="7.1189685"
       x2="3.8554573"
       y2="15.007722" />
    <linearGradient
       inkscape:collect="always"
       xlink:href="#StandardGradient-6"
       id="linearGradient3773"
       gradientUnits="userSpaceOnUse"
       gradientTransform="translate(0,1)"
       x1="3.8554573"
       y1="7.1189685"
       x2="3.8554573"
       y2="15.007722" />
    <linearGradient
       inkscape:collect="always"
       xlink:href="#StandardGradient-6"
       id="linearGradient3778"
       gradientUnits="userSpaceOnUse"
       x1="3.8554573"
       y1="7.1189685"
       x2="3.8554573"
       y2="15.007722" />
    <linearGradient
       inkscape:collect="always"
       xlink:href="#StandardGradient-6"
       id="linearGradient3790"
       gradientUnits="userSpaceOnUse"
       x1="3.8554573"
       y1="7.1189685"
       x2="3.8554573"
       y2="15.007722"
       gradientTransform="translate(0.01442091,-0.014421)" />
    <linearGradient
       inkscape:collect="always"
       xlink:href="#StandardGradient-6"
       id="linearGradient3796"
       gradientUnits="userSpaceOnUse"
       gradientTransform="translate(-19.985579,-0.014421)"
       x1="3.8554573"
       y1="7.1189685"
       x2="3.8554573"
       y2="15.007722" />
    <linearGradient
       inkscape:collect="always"
       xlink:href="#StandardGradient-6"
       id="linearGradient3798"
       gradientUnits="userSpaceOnUse"
       x1="10.973592"
       y1="1.0816979"
       x2="10.973592"
       y2="8.9478464"
       gradientTransform="translate(-20,0)" />
    <clipPath
       clipPathUnits="userSpaceOnUse"
       id="clipPath3806">
      <path
         style="fill:#ff00ff;fill-opacity:1;stroke:none;display:inline"
         d="m -20,0 0,16 16,0 0,-16 -16,0 z m 14.28125,1 c 0.1826931,0 0.3653865,0.084136 0.5,0.21875 0.269228,0.269228 0.269228,0.730773 0,1 L -8.03125,5 l 0,1.53125 a 0.52760556,0.52613824 0 0 1 -0.15625,0.375 L -10.15625,8.875 a 0.52760556,0.52613824 0 0 1 -0.0625,0.03125 l -2.6875,-2.6875 a 0.52760556,0.52613824 0 0 1 0,-0.03125 0.52760556,0.52613824 0 0 1 0.03125,-0.03125 l 1.96875,-1.96875 a 0.52760556,0.52613824 0 0 1 0.375,-0.15625 l 1.53125,0 2.78125,-2.8125 C -6.084136,1.084136 -5.9014431,1 -5.71875,1 z m -8.125,6.125 a 0.52760556,0.52613824 0 0 1 0.03125,0 l 2.6875,2.6875 a 0.52760556,0.52613824 0 0 1 0,0.03125 0.52760556,0.52613824 0 0 1 -0.03125,0.03125 L -13.125,11.84375 A 0.52760556,0.52613824 0 0 1 -13.5,12 l -1.53125,0 -2.78125,2.8125 c -0.269228,0.269228 -0.730772,0.269228 -1,0 -0.269228,-0.269228 -0.269228,-0.730773 0,-1 L -16,11.03125 -16,9.5 a 0.52760556,0.52613824 0 0 1 0.15625,-0.375 L -13.875,7.15625 A 0.52760556,0.52613824 0 0 1 -13.84375,7.125 z"
         id="path3808" />
    </clipPath>
  </defs>
  <sodipodi:namedview
     id="base"
     pagecolor="#ffffff"
     bordercolor="#e7e7e7"
     borderopacity="1"
     inkscape:pageopacity="0.0"
     inkscape:pageshadow="2"
     inkscape:zoom="11.281592"
     inkscape:cx="15.014647"
     inkscape:cy="-0.68538089"
     inkscape:document-units="px"
     inkscape:current-layer="layer1"
     showgrid="false"
     inkscape:showpageshadow="false"
     showguides="false"
     inkscape:guide-bbox="true"
     inkscape:window-width="1366"
     inkscape:window-height="706"
     inkscape:window-x="0"
     inkscape:window-y="0"
     inkscape:window-maximized="1"
     inkscape:snap-global="true">
    <sodipodi:guide
       orientation="1,0"
       position="0,112"
       id="guide2383"
       inkscape:locked="false" />
    <sodipodi:guide
       orientation="0,1"
       position="78.156291,0"
       id="guide2389"
       inkscape:locked="false" />
    <inkscape:grid
       type="xygrid"
       id="grid3672"
       visible="true"
       enabled="true" />
    <sodipodi:guide
       orientation="1,0"
       position="22.008699,4.1542523"
       id="guide2950"
       inkscape:locked="false" />
    <sodipodi:guide
       orientation="0,1"
       position="11.22532,22.008699"
       id="guide2952"
       inkscape:locked="false" />
  </sodipodi:namedview>
  <metadata
     id="metadata7">
    <rdf:RDF>
      <cc:Work
         rdf:about="">
        <dc:format>image/svg+xml</dc:format>
        <dc:type
           rdf:resource="http://purl.org/dc/dcmitype/StillImage" />
        <dc:title></dc:title>
      </cc:Work>
    </rdf:RDF>
  </metadata>
  <g
     inkscape:label="Calque 1"
     inkscape:groupmode="layer"
     id="layer1">
    <g
       id="g1053">
      <g
         id="g1034">
        <path
           id="path2704"
           d="M 13.076172 1.0996094 L 13.068359 1.1074219 C 12.279276 1.0953599 11.491872 1.1603295 10.720703 1.3046875 L 10.710938 1.3144531 C 9.9433442 1.4592409 9.1812641 1.6760499 8.4589844 1.9648438 L 8.4492188 1.9765625 L 8.4414062 1.984375 C 7.718284 2.2749208 7.0191941 2.6249773 6.3671875 3.0488281 C 6.3536755 3.0575181 6.3518836 3.0772575 6.3378906 3.0859375 L 6.3300781 3.0859375 C 5.6781676 3.50991 5.0594518 4.0093946 4.5097656 4.5585938 C 3.969806 5.0990598 3.5083393 5.7000503 3.0878906 6.3378906 C 3.0787206 6.3513976 3.0594632 6.3531925 3.0507812 6.3671875 C 2.6269189 7.0191713 2.2749203 7.7182916 1.984375 8.4414062 L 1.9765625 8.4492188 L 1.9648438 8.4609375 C 1.6760342 9.1832247 1.4611942 9.9433953 1.3164062 10.710938 L 1.3066406 10.720703 C 1.1623306 11.491897 1.0953599 12.279227 1.1074219 13.068359 L 1.0996094 13.078125 C 1.1002954 13.123385 1.1062019 13.167682 1.1074219 13.212891 L 2.3945312 13.220703 C 2.3933612 13.178073 2.3854256 13.136425 2.3847656 13.09375 L 2.3945312 13.085938 C 2.3837483 12.380539 2.4432683 11.675692 2.5722656 10.986328 L 2.5800781 10.978516 C 2.7094977 10.29242 2.9019887 9.610492 3.1601562 8.9648438 L 3.1699219 8.9570312 L 3.1777344 8.9492188 C 3.4363587 8.3055401 3.7501915 7.6822785 4.1269531 7.1015625 A 0.91929163 0.91929163 0 0 1 4.1171875 7.0195312 C 3.9974603 4.8821 5.7107905 3.1677595 7.796875 3.0507812 C 8.1954901 3.028453 8.5795333 3.0839439 8.9511719 3.1757812 L 8.9570312 3.1699219 L 8.9648438 3.1601562 C 9.6104774 2.902014 10.292417 2.7095071 10.978516 2.5800781 L 10.986328 2.5703125 C 11.675633 2.4412727 12.38055 2.3817962 13.085938 2.3925781 L 13.09375 2.3847656 C 13.12638 2.3852602 13.156843 2.3917781 13.189453 2.3925781 L 13.177734 1.1054688 C 13.144234 1.1046665 13.11164 1.1001194 13.078125 1.0996094 L 13.076172 1.0996094 z "
           style="opacity:0.95;fill:#bdbdbd;fill-opacity:0.34901961;stroke:none;stroke-width:15.76818085;stroke-opacity:1" />
        <path
           id="path2706"
           d="M 13.201172 3.4277344 C 12.241317 3.4465406 11.297759 3.5879367 10.396484 3.8652344 C 10.823744 4.1890871 11.183097 4.5927051 11.449219 5.0625 C 11.523229 5.0451553 11.595303 5.0211712 11.669922 5.0058594 L 11.671875 5.0039062 C 11.755315 4.9868192 11.839788 4.9756005 11.923828 4.9609375 C 11.930228 4.9598975 11.937039 4.9581212 11.943359 4.9570312 C 12.07566 4.9342422 12.208207 4.9131894 12.341797 4.8964844 C 12.345797 4.8959837 12.349506 4.8950412 12.353516 4.8945312 C 12.454969 4.8820483 12.558081 4.8723063 12.660156 4.8632812 C 12.79055 4.8517902 12.919498 4.8416145 13.050781 4.8359375 C 13.105691 4.8335375 13.161688 4.8334713 13.216797 4.8320312 L 13.201172 3.4277344 z M 5.0527344 7.8886719 C 4.5650245 8.6338384 4.1691352 9.4324994 3.8964844 10.277344 C 3.7771456 10.647155 3.6796792 11.025408 3.6035156 11.408203 C 3.4868487 11.99488 3.4236933 12.59461 3.4121094 13.201172 L 4.8320312 13.216797 C 4.8334412 13.161687 4.8335275 13.105694 4.8359375 13.050781 C 4.8416175 12.919496 4.8517912 12.790552 4.8632812 12.660156 C 4.8723012 12.55808 4.8820443 12.45497 4.8945312 12.353516 C 4.8950319 12.349416 4.8959844 12.345807 4.8964844 12.341797 C 4.9131904 12.208211 4.9342422 12.07566 4.9570312 11.943359 C 4.9581212 11.936959 4.9579144 11.930148 4.9589844 11.923828 C 4.9736484 11.839788 4.9868173 11.755313 5.0039062 11.671875 L 5.0058594 11.669922 C 5.0634674 11.389108 5.1360013 11.112615 5.2207031 10.839844 C 5.2412441 10.773644 5.2650004 10.708217 5.2871094 10.642578 C 5.3791544 10.369506 5.478896 10.098211 5.5976562 9.8359375 C 5.6010763 9.8283575 5.6019987 9.8220121 5.6054688 9.8144531 L 5.6074219 9.8125 C 5.6970439 9.6160463 5.8043853 9.4289018 5.9101562 9.2402344 C 5.9194962 9.2232984 5.928046 9.2063371 5.9375 9.1894531 L 5.9375 9.1875 C 6.0250117 9.031442 6.1183121 8.8777365 6.2148438 8.7265625 C 6.3314823 8.5460352 6.4494673 8.3672692 6.5800781 8.1953125 C 6.6383856 8.1173472 6.70251 8.0428714 6.7636719 7.9667969 C 6.7854502 7.940067 6.8100897 7.9152605 6.8320312 7.8886719 L 5.0527344 7.8886719 z "
           style="opacity:0.95;fill:#bebebe;fill-opacity:0.34901961;stroke:none;stroke-width:15.76818085;stroke-opacity:1" />
        <path
           id="path2708"
           d="M 13.230469 6.1230469 C 12.770978 6.1093362 12.319351 6.155872 11.873047 6.2285156 C 11.904825 6.3943876 11.943431 6.5573455 11.953125 6.7304688 A 0.91929163 0.91929163 0 0 1 11.955078 6.78125 C 11.955058 7.0695937 11.932114 7.3409223 11.894531 7.6035156 C 11.912954 7.5996874 11.93075 7.5934851 11.949219 7.5898438 C 12.125358 7.5551497 12.304472 7.5356401 12.484375 7.5175781 C 12.522875 7.5137481 12.561003 7.5050031 12.599609 7.5019531 C 12.600609 7.5019929 12.602416 7.5 12.603516 7.5 C 12.81572 7.483347 13.029016 7.4808293 13.244141 7.4882812 L 13.230469 6.1230469 z M 8.1992188 9.5878906 C 8.1937218 9.6003916 8.1795806 9.6311301 8.1796875 9.6308594 C 8.1797315 9.6307494 8.1698294 9.665063 8.1621094 9.6875 C 8.1755104 9.650221 8.1940687 9.5990556 8.1992188 9.5878906 z M 6.4453125 10.9375 C 6.2607217 11.536491 6.1600192 12.159689 6.140625 12.796875 C 6.204812 12.230529 6.5552807 11.789548 7.0175781 11.474609 C 6.7932889 11.326607 6.6000675 11.14547 6.4453125 10.9375 z M 6.1289062 13.097656 C 6.1294144 13.142225 6.121714 13.185825 6.1230469 13.230469 L 6.1425781 13.230469 C 6.1363404 13.18651 6.1320339 13.142451 6.1289062 13.097656 z "
           style="opacity:0.95;fill:#bebebe;fill-opacity:0.34901961;stroke:none;stroke-width:15.76818085;stroke-opacity:1" />
        <path
           id="path2710"
           d="M 13.257812 8.8671875 C 13.210302 8.8665464 13.164522 8.8692806 13.117188 8.8691406 C 13.056228 8.8689953 12.99427 8.8686737 12.933594 8.8710938 C 12.710451 8.8796738 12.488204 8.9010324 12.271484 8.9433594 C 11.946325 9.0068564 11.632189 9.1062254 11.332031 9.2421875 C 11.330531 9.2428214 11.327672 9.2435606 11.326172 9.2441406 C 11.306822 9.2529206 11.288741 9.2663126 11.269531 9.2753906 C 11.216997 9.300122 11.167036 9.3291723 11.115234 9.3554688 C 10.808796 9.711186 10.43711 10.023086 9.9960938 10.357422 A 0.91929163 0.91929163 0 0 0 9.9941406 10.359375 C 9.8124562 10.496059 9.6485359 10.682909 9.7851562 10.511719 C 9.7687372 10.532359 9.7555059 10.547829 9.7324219 10.574219 C 9.7241339 10.583699 9.7076802 10.600428 9.6914062 10.617188 C 9.5815848 10.897791 9.4505266 11.129949 9.25 11.318359 C 9.2485171 11.321256 9.2454917 11.323196 9.2441406 11.326172 C 9.2435132 11.327672 9.2448061 11.328578 9.2441406 11.330078 C 9.2104494 11.404457 9.1856126 11.482325 9.15625 11.558594 C 9.6116689 11.900243 9.9550781 12.361776 9.9550781 12.96875 C 9.9550781 13.071802 9.9399786 13.170575 9.9238281 13.269531 L 10.21875 13.273438 C 10.21715 13.228817 10.209054 13.183311 10.208984 13.138672 C 10.208748 13.103002 10.209837 13.066771 10.210938 13.03125 C 10.216337 12.873119 10.230176 12.713932 10.259766 12.560547 C 10.277006 12.471337 10.300852 12.385771 10.326172 12.298828 C 10.332672 12.276098 10.33664 12.251036 10.34375 12.228516 L 10.34375 12.226562 L 10.345703 12.224609 C 10.350803 12.208669 10.357961 12.195498 10.363281 12.179688 C 10.426481 11.99373 10.508093 11.81442 10.607422 11.644531 C 10.615822 11.630151 10.620306 11.613869 10.628906 11.599609 C 10.687296 11.503089 10.752518 11.410011 10.822266 11.320312 C 10.893836 11.228692 10.967661 11.139973 11.050781 11.056641 C 11.133761 10.973891 11.223011 10.897386 11.314453 10.826172 C 11.314453 10.826172 11.316406 10.824219 11.316406 10.824219 C 11.407316 10.753279 11.503628 10.688161 11.601562 10.628906 C 11.615823 10.620306 11.630131 10.613829 11.644531 10.605469 C 11.814426 10.506139 11.995685 10.426479 12.181641 10.363281 C 12.197491 10.357981 12.210653 10.34881 12.226562 10.34375 L 12.228516 10.34375 L 12.230469 10.34375 C 12.252989 10.33655 12.276098 10.332702 12.298828 10.326172 C 12.385768 10.300852 12.475241 10.275062 12.564453 10.257812 C 12.717838 10.228212 12.87312 10.216318 13.03125 10.210938 C 13.06677 10.209838 13.104963 10.206931 13.140625 10.207031 C 13.184465 10.207098 13.227658 10.21735 13.271484 10.21875 L 13.257812 8.8671875 z "
           style="opacity:0.95;fill:#bebebe;fill-opacity:0.34901961;stroke:none;stroke-width:15.76818085;stroke-opacity:1" />
        <path
           style="opacity:0.95;fill:#bebebe;fill-opacity:0.34901961;stroke:none;stroke-width:15.76818085;stroke-opacity:1"
           d="m 13.206038,11.552626 -0.0013,0.0013 c -0.108935,-0.0017 -0.217458,0.0074 -0.323914,0.02732 l -0.0013,0.0013 c -0.105954,0.01999 -0.211197,0.04989 -0.310904,0.08976 l -0.0013,0.0013 -0.0013,0.0013 c -0.09982,0.04011 -0.196182,0.08849 -0.286188,0.146997 -0.0019,0.0012 -0.0021,0.004 -0.0039,0.0052 h -0.0013 c -0.08999,0.05852 -0.175185,0.12712 -0.251065,0.202934 -0.07455,0.07461 -0.138389,0.157811 -0.196429,0.245861 -0.0013,0.0019 -0.004,0.0021 -0.0052,0.0039 -0.05852,0.09 -0.106889,0.186366 -0.146998,0.286189 l -0.0013,0.0013 -0.0013,0.0013 c -0.03987,0.09971 -0.06976,0.204951 -0.08976,0.310906 l -0.0013,0.0013 c -0.01992,0.106459 -0.02898,0.214979 -0.02733,0.323914 l -0.0013,0.0013 c 0.0017,0.109301 0.01447,0.217851 0.03772,0.325214 0.04651,0.214725 0.13555,0.422412 0.258871,0.606198 0.06165,0.0919 0.13098,0.17661 0.209437,0.254968 0.0784,0.07832 0.16435,0.149081 0.256269,0.21074 0.183843,0.123307 0.391521,0.212293 0.606198,0.258869 0.10734,0.02328 0.215991,0.03743 0.325213,0.03902 l 0.0013,-0.0013 c 0.21899,0.0029 0.436341,-0.04099 0.637419,-0.122281 0.09945,-0.0402 0.195466,-0.08848 0.284888,-0.146996 0.09021,-0.05892 0.174867,-0.126936 0.251065,-0.202934 l 0.0039,-0.0039 0.0039,-0.0039 c 0.074,-0.07421 0.138581,-0.155747 0.196429,-0.24326 0.0016,-0.0023 0.0036,-0.0041 0.0052,-0.0066 0.05852,-0.08942 0.106789,-0.185443 0.146998,-0.284886 0.08129,-0.20108 0.125302,-0.41843 0.12228,-0.637419 l 0.0013,-0.0013 c -0.0016,-0.109223 -0.01575,-0.217875 -0.03902,-0.325213 -0.04657,-0.214679 -0.135562,-0.422354 -0.25887,-0.606199 -0.06165,-0.09192 -0.132418,-0.17788 -0.210739,-0.256269 -0.07836,-0.07845 -0.163075,-0.147778 -0.254968,-0.209439 -0.183785,-0.123321 -0.391473,-0.212358 -0.606198,-0.25887 -0.107365,-0.02326 -0.215912,-0.03608 -0.325214,-0.03772 z"
           id="path2712"
           inkscape:connector-curvature="0"
           sodipodi:nodetypes="cccccccccccccccccccccccccccccccccccccccccccc" />
      </g>
      <path
         inkscape:connector-curvature="0"
         style="color:#bebebe;display:inline;overflow:visible;visibility:visible;fill:#bebebe;fill-opacity:1;stroke:none;stroke-width:2;marker:none"
         id="path19592-2-4-0"
         d="m 7.84821,3.96875 c 1.64243,-0.092 3.0955,1.17008 3.1875,2.8125 -10e-5,1.40136 -0.37771,1.92177 -1.59375,2.84375 -0.19093,0.14364 -0.3256,0.2506 -0.375,0.3125 -0.0494,0.0621 -0.0312,0.0332 -0.0312,0.0312 0.007,0.52831 -0.47163,1 -1,1 -0.52837,0 -1.007,-0.47169 -1,-1 0,-0.50239 0.22424,-0.94342 0.46875,-1.25 0.24451,-0.30663 0.4913,-0.51638 0.71875,-0.6875 0.20405,-0.16056 0.46083,-0.38454 0.6875,-0.65625 0.0935,-0.1121 0.129,-0.30766 0.125,-0.4375 V 6.90625 C 9.00416,6.34301 8.5365,5.93715 7.97326,5.96875 c -0.56324,0.0316 -0.9691,0.43676 -0.9375,1 h -2 c -0.092,-1.64243 1.17007,-2.9079 2.8125,-3 z m 0.1875,8 c 0.55228,0 1,0.44772 1,1 0,0.55228 -0.44772,1 -1,1 -0.55228,0 -1,-0.44772 -1,-1 0,-0.55228 0.44772,-1 1,-1 z" />
    </g>
  </g>
</svg>
