<?xml version="1.0" encoding="UTF-8" standalone="no"?>
<!-- Created with Inkscape (http://www.inkscape.org/) -->

<svg
   xmlns:dc="http://purl.org/dc/elements/1.1/"
   xmlns:cc="http://creativecommons.org/ns#"
   xmlns:rdf="http://www.w3.org/1999/02/22-rdf-syntax-ns#"
   xmlns:svg="http://www.w3.org/2000/svg"
   xmlns="http://www.w3.org/2000/svg"
   xmlns:xlink="http://www.w3.org/1999/xlink"
   xmlns:sodipodi="http://sodipodi.sourceforge.net/DTD/sodipodi-0.dtd"
   xmlns:inkscape="http://www.inkscape.org/namespaces/inkscape"
   width="16"
   height="16"
   id="svg3754"
   version="1.1"
   inkscape:version="0.48.3.1 r9886"
   sodipodi:docname="network-idle-symbolic.svg"
   inkscape:export-filename="/usr/share/icons/Karasa Jaga/24x24/status/network-error.png"
   inkscape:export-xdpi="90"
   inkscape:export-ydpi="90">
  <defs
     id="defs3756">
    <linearGradient
       inkscape:collect="always"
       id="linearGradient31755">
      <stop
         style="stop-color:#ffffff;stop-opacity:1;"
         offset="0"
         id="stop31757" />
      <stop
         style="stop-color:#ffffff;stop-opacity:0;"
         offset="1"
         id="stop31759" />
    </linearGradient>
    <linearGradient
       inkscape:collect="always"
       xlink:href="#linearGradient31755"
       id="linearGradient31768"
       gradientUnits="userSpaceOnUse"
       x1="8.5924969"
       y1="1025.8176"
       x2="16.716539"
       y2="1042.1121"
       gradientTransform="translate(4.6330676,-7.8953025)" />
    <linearGradient
       id="linearGradient4978">
      <stop
         style="stop-color:#ffffff;stop-opacity:1;"
         offset="0"
         id="stop4980" />
      <stop
         style="stop-color:#ffffff;stop-opacity:0.74374998;"
         offset="1"
         id="stop4982" />
    </linearGradient>
  </defs>
  <sodipodi:namedview
     id="base"
     pagecolor="#ffffff"
     bordercolor="#666666"
     borderopacity="1.0"
     inkscape:pageopacity="0"
     inkscape:pageshadow="2"
     inkscape:zoom="20.375"
     inkscape:cx="9.127272"
     inkscape:cy="11.460964"
     inkscape:document-units="px"
     inkscape:current-layer="layer1"
     showgrid="false"
     inkscape:window-width="1366"
     inkscape:window-height="696"
     inkscape:window-x="0"
     inkscape:window-y="0"
     inkscape:window-maximized="1" />
  <metadata
     id="metadata3759">
    <rdf:RDF>
      <cc:Work
         rdf:about="">
        <dc:format>image/svg+xml</dc:format>
        <dc:type
           rdf:resource="http://purl.org/dc/dcmitype/StillImage" />
        <dc:title></dc:title>
      </cc:Work>
    </rdf:RDF>
  </metadata>
  <g
     inkscape:label="Layer 1"
     inkscape:groupmode="layer"
     id="layer1"
     transform="translate(0,-1036.3622)">
    <path
       style="opacity:0.35;fill:#bebebe;fill-opacity:1;stroke:none"
       d="m 3.7502521,1037.4665 c -7.765e-4,0.01 -7.765e-4,0.021 0,0.031 -0.020678,0 -0.041822,0 -0.0625,0 -7.765e-4,0.01 -7.765e-4,0.021 0,0.031 -0.00444,0 0.00692,0.025 0,0.031 -0.010377,0.01 -0.018383,0.016 -0.03125,0.031 -0.042584,0.045 -0.075579,0.099 -0.09375,0.1562 -0.011477,0.01 -0.021971,0.02 -0.03125,0.031 -0.0047,0.03 -0.00235,0.062 0,0.094 7.836e-4,0.011 -0.00157,0.021 0,0.031 l 0,2.5 1.8125,0 0,-1.4688 8.2187499,0 0,5.2813 -0.375,0 0,1.5312 1.78125,0 0.03125,0 0.0625,0 c 0.0104,8e-4 0.02085,8e-4 0.03125,0 0.01148,-0.01 0.02197,-0.02 0.03125,-0.031 0.0104,7e-4 0.02085,7e-4 0.03125,0 0.01148,-0.01 0.02197,-0.02 0.03125,-0.031 0.0104,8e-4 0.02085,8e-4 0.03125,0 0.0044,0 -0.0068,-0.025 0,-0.031 0.02023,-0.017 0.01749,-0.015 0.03125,-0.031 0.06756,-0.078 0.08334,-0.1546 0.09375,-0.1875 0.01148,-0.01 0.02197,-0.02 0.03125,-0.031 0.0048,-0.03 0.0024,-0.061 0,-0.094 -7.98e-4,-0.011 0.0016,-0.021 0,-0.031 l 0,-7.375 0,-0.031 c 0.0032,-0.02 0,-0.041 0,-0.063 0,-0.022 0.0032,-0.043 0,-0.063 -0.0093,-0.012 -0.01977,-0.022 -0.03125,-0.031 -0.0068,-0.022 -0.01745,-0.044 -0.03125,-0.063 -0.0091,-0.011 -0.02069,-0.021 -0.03125,-0.031 -0.0093,-0.011 -0.02031,-0.021 -0.03125,-0.031 -0.04596,-0.043 -0.0989,-0.076 -0.15625,-0.094 -0.0093,-0.012 -0.01977,-0.022 -0.03125,-0.031 -0.0104,-8e-4 -0.02085,-8e-4 -0.03125,0 l -0.0625,0 -10.9999999,0 c -0.00688,-6e-4 -0.023826,2e-4 -0.03125,0 -0.00742,-2e-4 -0.023826,-2e-4 -0.03125,0 l -0.03125,0 -0.03125,0 c -0.010397,-8e-4 -0.020853,-8e-4 -0.03125,0 -0.020678,0 -0.041822,0 -0.0625,0 z m 9.4374999,9.125 0,1 0.25,0 0.03125,0 c 0.0074,2e-4 0.02383,2e-4 0.03125,0 0.0074,-2e-4 0.02437,6e-4 0.03125,0 l 0.03125,0 c 0.0104,7e-4 0.02085,7e-4 0.03125,0 0.01148,-0.01 0.02197,-0.02 0.03125,-0.031 0.0104,8e-4 0.02085,8e-4 0.03125,0 0.01148,-0.01 0.02197,-0.02 0.03125,-0.031 0.0104,7e-4 0.02085,7e-4 0.03125,0 0.01112,-0.01 0.0098,-0.035 0.03125,-0.063 0.014,-0.013 0.03983,-0.034 0.0625,-0.063 0.06022,-0.071 0.09375,-0.1646 0.09375,-0.25 0,-0.2306 -0.152126,-0.3933 -0.28125,-0.4688 -0.119777,-0.07 -0.192732,-0.046 -0.25,-0.063 -0.04856,-0.014 -0.131852,-0.016 -0.1875,-0.031 z"
       id="path4540"
       inkscape:connector-curvature="0"
       sodipodi:nodetypes="cccccccccccccccccccccccccccccccccsccccccccccccccccccccccccccccccsccc" />
    <path
       style="opacity:0.35;fill:#bebebe;fill-opacity:1;stroke:none"
       d="m 0.9065021,1041.1355 a 0.20980073,0.20980073 0 0 0 -0.0625,0.031 0.20980073,0.20980073 0 0 0 -0.0625,0.031 c -0.004443,0 0.006918,0.025 0,0.031 -0.0103772,0.01 -0.018383,0.016 -0.03125,0.031 -0.0425836,0.045 -0.0755785,0.099 -0.09375,0.1563 a 0.20980073,0.20980073 0 0 0 -0.03125,0.032 c -0.004702,0.03 -0.002351,0.062 0,0.094 7.8364e-4,0.011 -0.001567,0.021 0,0.031 l 0,7.375 0,0.031 c -3.3566e-4,0.014 -0.001007,0.049 0,0.063 -0.001331,0.027 -0.006653,0.051 0,0.094 a 0.20980073,0.20980073 0 0 0 0.03125,0.031 0.20980073,0.20980073 0 0 0 0.03125,0.062 c 0.008922,0.011 0.0208831,0.021 0.03125,0.031 0.009365,0.011 0.0202815,0.021 0.03125,0.031 0.0460676,0.043 0.0991474,0.076 0.15625,0.094 a 0.20980073,0.20980073 0 0 0 0.03125,0.031 0.20980073,0.20980073 0 0 0 0.03125,0 l 0.0625,0 4.15625,0 0,0.5937 c -0.6979806,0.024 -1.370865,0.066 -1.84375,0.125 -0.2878207,0.036 -0.5292962,0.1024 -0.71875,0.1563 -0.069092,0.019 -0.1222778,0 -0.21875,0.062 -0.052454,0.031 -0.1276385,0.083 -0.1875,0.1563 -0.059861,0.074 -0.125,0.182 -0.125,0.3125 0,0.069 0.023597,0.1596 0.09375,0.25 0.022675,0.03 0.043247,0.044 0.0625,0.063 0.00891,0.011 0.020886,0.021 0.03125,0.031 0.00668,0 -0.00785,0.026 0,0.031 0.00524,0 0.026152,0 0.03125,0 a 0.20980073,0.20980073 0 0 0 0.03125,0.031 0.20980073,0.20980073 0 0 0 0.0625,0.031 0.20980073,0.20980073 0 0 0 0.03125,0 l 0.0625,0 0.03125,0 c 0.00742,2e-4 0.023826,2e-4 0.03125,0 0.00742,-2e-4 0.024366,6e-4 0.03125,0 l 7.9374999,0 0.03125,0 c 0.0074,2e-4 0.02383,2e-4 0.03125,0 0.0074,-2e-4 0.02437,6e-4 0.03125,0 l 0.03125,0 a 0.20980073,0.20980073 0 0 0 0.03125,0 0.20980073,0.20980073 0 0 0 0.0625,-0.031 0.20980073,0.20980073 0 0 0 0.0625,-0.031 c 0.01112,-0.01 0.0098,-0.036 0.03125,-0.063 0.014,-0.013 0.03983,-0.035 0.0625,-0.063 0.06022,-0.071 0.09375,-0.1646 0.09375,-0.25 0,-0.2306 -0.152126,-0.3933 -0.28125,-0.4688 -0.119777,-0.07 -0.192732,-0.046 -0.25,-0.062 -0.188121,-0.053 -0.430546,-0.1208 -0.7187499,-0.1563 -0.4722118,-0.059 -1.1448521,-0.1008 -1.84375,-0.125 l 0,-0.5937 4.1562499,0 c 0.01958,0 0.01167,0 0.03125,0 l 0.0625,0 a 0.20980073,0.20980073 0 0 0 0.03125,0 0.20980073,0.20980073 0 0 0 0.0625,-0.031 0.20980073,0.20980073 0 0 0 0.0625,-0.031 c 0.0044,0 -0.0068,-0.025 0,-0.031 0.02023,-0.017 0.01749,-0.015 0.03125,-0.031 0.06756,-0.078 0.08334,-0.1547 0.09375,-0.1876 a 0.20980073,0.20980073 0 0 0 0.03125,-0.031 c 0.0048,-0.03 0.0024,-0.061 0,-0.094 -7.98e-4,-0.011 0.0016,-0.021 0,-0.031 l 0,-7.375 0,-0.031 c 0.0032,-0.02 0,-0.041 0,-0.063 0,-0.022 0.0032,-0.042 0,-0.062 a 0.20980073,0.20980073 0 0 0 -0.03125,-0.031 0.20980073,0.20980073 0 0 0 -0.03125,-0.063 c -0.0091,-0.011 -0.02069,-0.021 -0.03125,-0.031 -0.0093,-0.011 -0.02031,-0.021 -0.03125,-0.031 -0.04596,-0.043 -0.0989,-0.076 -0.15625,-0.094 a 0.20980073,0.20980073 0 0 0 -0.03125,-0.031 0.20980073,0.20980073 0 0 0 -0.03125,0 l -0.0625,0 -10.9999999,0 c -0.00688,-6e-4 -0.023826,2e-4 -0.03125,0 -0.00742,-2e-4 -0.023826,-2e-4 -0.03125,0 l -0.03125,0 -0.03125,0 a 0.20980073,0.20980073 0 0 0 -0.03125,0 z m 1.53125,1.4687 8.2187499,0 0,5.2813 -8.2187499,0 0,-5.2813 z"
       id="path4537"
       inkscape:connector-curvature="0" />
  </g>
</svg>
