<?xml version="1.0" encoding="UTF-8" standalone="no"?>
<!-- Created with Inkscape (http://www.inkscape.org/) -->

<svg
   xmlns:dc="http://purl.org/dc/elements/1.1/"
   xmlns:cc="http://creativecommons.org/ns#"
   xmlns:rdf="http://www.w3.org/1999/02/22-rdf-syntax-ns#"
   xmlns:svg="http://www.w3.org/2000/svg"
   xmlns="http://www.w3.org/2000/svg"
   xmlns:xlink="http://www.w3.org/1999/xlink"
   xmlns:sodipodi="http://sodipodi.sourceforge.net/DTD/sodipodi-0.dtd"
   xmlns:inkscape="http://www.inkscape.org/namespaces/inkscape"
   width="16"
   height="16"
   id="svg3754"
   version="1.1"
   inkscape:version="0.48.3.1 r9886"
   sodipodi:docname="network-offline-symbolic.svg"
   inkscape:export-filename="/usr/share/icons/Karasa Jaga/24x24/status/network-error.png"
   inkscape:export-xdpi="90"
   inkscape:export-ydpi="90">
  <defs
     id="defs3756">
    <linearGradient
       inkscape:collect="always"
       id="linearGradient31755">
      <stop
         style="stop-color:#ffffff;stop-opacity:1;"
         offset="0"
         id="stop31757" />
      <stop
         style="stop-color:#ffffff;stop-opacity:0;"
         offset="1"
         id="stop31759" />
    </linearGradient>
    <linearGradient
       inkscape:collect="always"
       xlink:href="#linearGradient31755"
       id="linearGradient31768"
       gradientUnits="userSpaceOnUse"
       x1="8.5924969"
       y1="1025.8176"
       x2="16.716539"
       y2="1042.1121"
       gradientTransform="translate(4.6330676,-7.8953025)" />
    <linearGradient
       id="linearGradient4978">
      <stop
         style="stop-color:#ffffff;stop-opacity:1;"
         offset="0"
         id="stop4980" />
      <stop
         style="stop-color:#ffffff;stop-opacity:0.74374998;"
         offset="1"
         id="stop4982" />
    </linearGradient>
  </defs>
  <sodipodi:namedview
     id="base"
     pagecolor="#ffffff"
     bordercolor="#666666"
     borderopacity="1.0"
     inkscape:pageopacity="0"
     inkscape:pageshadow="2"
     inkscape:zoom="10.1875"
     inkscape:cx="1.1567091"
     inkscape:cy="3.8418857"
     inkscape:document-units="px"
     inkscape:current-layer="layer1"
     showgrid="false"
     inkscape:window-width="1366"
     inkscape:window-height="711"
     inkscape:window-x="0"
     inkscape:window-y="25"
     inkscape:window-maximized="1" />
  <metadata
     id="metadata3759">
    <rdf:RDF>
      <cc:Work
         rdf:about="">
        <dc:format>image/svg+xml</dc:format>
        <dc:type
           rdf:resource="http://purl.org/dc/dcmitype/StillImage" />
        <dc:title />
      </cc:Work>
    </rdf:RDF>
  </metadata>
  <g
     inkscape:label="Layer 1"
     inkscape:groupmode="layer"
     id="layer1"
     transform="translate(0,-1036.3622)">
    <path
       style="opacity:0.35;fill:#bebebe;fill-opacity:1;stroke:none"
       d="M 3.75 1.09375 C 3.7492235 1.10375 3.7492235 1.115 3.75 1.125 L 3.6875 1.125 C 3.6867235 1.135 3.6867235 1.14625 3.6875 1.15625 C 3.68306 1.15625 3.69442 1.1815 3.6875 1.1875 C 3.677123 1.1975 3.669117 1.20375 3.65625 1.21875 C 3.613666 1.26375 3.580671 1.3178 3.5625 1.375 C 3.551023 1.385 3.540529 1.39525 3.53125 1.40625 C 3.52655 1.43625 3.5289 1.468 3.53125 1.5 C 3.5320336 1.511 3.52968 1.52125 3.53125 1.53125 L 3.53125 4.03125 L 5.34375 4.03125 L 5.34375 2.5625 L 13.5625 2.5625 L 13.5625 7.84375 L 13.1875 7.84375 L 13.1875 8.75 L 13.21875 8.75 L 13.28125 8.75 L 13.3125 8.75 L 13.34375 8.75 L 14.71875 8.75 L 14.78125 8.75 L 14.8125 8.75 L 14.84375 8.75 L 14.9375 8.78125 L 14.96875 8.78125 C 14.96901 8.78135 14.9946 8.78125 15 8.78125 L 15.03125 8.78125 C 15.03725 8.78425 15.02335 8.8125 15.03125 8.8125 C 15.04583 8.8175 15.04511 8.83375 15.0625 8.84375 L 15.09375 8.84375 C 15.1225 8.85475 15.14371 8.875 15.15625 8.875 L 15.1875 8.875 L 15.21875 8.90625 L 15.25 8.90625 C 15.26337 8.91125 15.27445 8.9375 15.28125 8.9375 L 15.3125 8.9375 C 15.32544 8.9475 15.33272 8.9375 15.34375 8.9375 C 15.35447 8.9419 15.364286 8.932076 15.375 8.9375 C 15.374202 8.9265 15.3766 8.91625 15.375 8.90625 L 15.375 1.53125 L 15.375 1.5 C 15.3782 1.48 15.375 1.4595 15.375 1.4375 C 15.375 1.4155 15.3782 1.395 15.375 1.375 C 15.3657 1.363 15.35523 1.35275 15.34375 1.34375 C 15.33695 1.32175 15.3263 1.30025 15.3125 1.28125 C 15.3034 1.27025 15.29181 1.26 15.28125 1.25 C 15.27195 1.239 15.26094 1.22875 15.25 1.21875 C 15.20404 1.17575 15.1511 1.143 15.09375 1.125 C 15.08445 1.113 15.07398 1.10275 15.0625 1.09375 C 15.0521 1.09295 15.04165 1.09295 15.03125 1.09375 L 14.96875 1.09375 L 3.96875 1.09375 C 3.96187 1.09315 3.944924 1.09395 3.9375 1.09375 C 3.93008 1.09355 3.913674 1.09355 3.90625 1.09375 L 3.875 1.09375 L 3.84375 1.09375 C 3.833353 1.09295 3.822897 1.09295 3.8125 1.09375 L 3.75 1.09375 z "
       transform="translate(0,1036.3622)"
       id="path4540" />
    <path
       style="opacity:0.35;fill:#bebebe;fill-opacity:1;stroke:none"
       d="M 0.875 4.78125 A 0.20980073 0.20980073 0 0 0 0.84375 4.8125 A 0.20980073 0.20980073 0 0 0 0.8125 4.8125 A 0.20980073 0.20980073 0 0 0 0.78125 4.84375 C 0.776807 4.84375 0.788168 4.869 0.78125 4.875 C 0.7708728 4.885 0.762867 4.89125 0.75 4.90625 C 0.7074164 4.95125 0.6744215 5.0052 0.65625 5.0625 A 0.20980073 0.20980073 0 0 0 0.625 5.09375 C 0.620298 5.12375 0.622649 5.1555 0.625 5.1875 C 0.62578364 5.1985 0.623433 5.20875 0.625 5.21875 L 0.625 12.59375 L 0.625 12.625 C 0.62466434 12.639 0.623993 12.6735 0.625 12.6875 C 0.623669 12.7145 0.618347 12.73825 0.625 12.78125 A 0.20980073 0.20980073 0 0 0 0.65625 12.8125 A 0.20980073 0.20980073 0 0 0 0.6875 12.875 C 0.696422 12.886 0.7083831 12.89625 0.71875 12.90625 C 0.728115 12.91725 0.7390315 12.9275 0.75 12.9375 C 0.7960676 12.9805 0.8491474 13.01325 0.90625 13.03125 A 0.20980073 0.20980073 0 0 0 0.9375 13.0625 A 0.20980073 0.20980073 0 0 0 0.96875 13.0625 L 1.03125 13.0625 L 5.1875 13.0625 L 5.1875 13.65625 C 4.4895194 13.68025 3.816635 13.72225 3.34375 13.78125 C 3.0559293 13.81725 2.8144538 13.8836 2.625 13.9375 C 2.555908 13.9565 2.5027222 13.938 2.40625 14 C 2.353796 14.031 2.2786115 14.08295 2.21875 14.15625 C 2.158889 14.23025 2.09375 14.33825 2.09375 14.46875 C 2.09375 14.53775 2.117347 14.62835 2.1875 14.71875 C 2.210175 14.74875 2.230747 14.76225 2.25 14.78125 C 2.25891 14.79225 2.270886 14.8025 2.28125 14.8125 C 2.28793 14.8125 2.2734 14.83875 2.28125 14.84375 L 2.3125 14.84375 A 0.20980073 0.20980073 0 0 0 2.34375 14.875 A 0.20980073 0.20980073 0 0 0 2.375 14.875 A 0.20980073 0.20980073 0 0 0 2.40625 14.90625 A 0.20980073 0.20980073 0 0 0 2.4375 14.90625 L 2.5 14.90625 L 2.53125 14.90625 C 2.53867 14.90645 2.555076 14.90645 2.5625 14.90625 C 2.56992 14.90605 2.586866 14.90685 2.59375 14.90625 L 8.59375 14.90625 L 8.59375 14.84375 L 8.59375 13.6875 C 8.3498059 13.673631 8.1664631 13.66526 7.90625 13.65625 L 7.90625 13.0625 L 8.625 13.0625 A 0.31043865 0.31043865 0 0 1 8.625 13.03125 A 0.31043865 0.31043865 0 0 1 8.65625 13.03125 A 0.31043865 0.31043865 0 0 1 8.65625 13 L 8.6875 13 C 8.69005 12.99 8.684 12.98275 8.6875 12.96875 C 8.69528 12.95375 8.687476 12.9376 8.6875 12.9375 C 8.6909 12.9245 8.68527 12.91625 8.6875 12.90625 A 0.31043865 0.31043865 0 0 1 8.6875 12.875 C 8.689934 12.875 8.7151 12.885 8.71875 12.875 A 0.31043865 0.31043865 0 0 1 8.71875 12.84375 A 0.31043865 0.31043865 0 0 1 8.75 12.84375 A 0.31043865 0.31043865 0 0 1 8.75 12.8125 C 8.75 12.8125 8.74243 12.79125 8.75 12.78125 L 8.78125 12.78125 C 8.78344 12.77425 8.78125 12.75 8.78125 12.75 A 0.31043865 0.31043865 0 0 1 8.8125 12.71875 C 8.8125 12.71875 8.80656 12.6975 8.8125 12.6875 L 8.84375 12.6875 C 8.84648 12.6855 8.83991 12.65625 8.84375 12.65625 L 8.875 12.65625 C 8.87622 12.65525 8.87371 12.625 8.875 12.625 L 8.90625 12.625 L 9.15625 12.375 L 8.90625 12.125 L 8.875 12.125 C 8.87371 12.124 8.87622 12.09375 8.875 12.09375 L 8.84375 12.09375 C 8.83985 12.08975 8.84652 12.0625 8.84375 12.0625 L 8.8125 12.0625 C 8.80854 12.0585 8.81551 12.03125 8.8125 12.03125 C 8.81099 12.03025 8.82164 12.011 8.8125 12 L 8.78125 12 C 8.77723 11.996 8.78452 11.96875 8.78125 11.96875 C 8.78125 11.96875 8.75781 11.97875 8.75 11.96875 C 8.747113 11.96575 8.736913 11.916 8.71875 11.875 C 8.710087 11.861 8.6875 11.84375 8.6875 11.84375 C 8.6819 11.83075 8.69266 11.8245 8.6875 11.8125 C 8.68234 11.8015 8.69172 11.79125 8.6875 11.78125 C 8.687508 11.78135 8.65917 11.79225 8.65625 11.78125 C 8.6559575 11.78125 8.6598 11.76 8.65625 11.75 C 8.6527 11.74 8.66019 11.72975 8.65625 11.71875 C 8.65065 11.70975 8.6615362 11.691125 8.65625 11.6875 C 8.6509638 11.683875 8.629505 11.695 8.625 11.6875 C 8.615991 11.6725 8.59375 11.65625 8.59375 11.65625 A 0.31043865 0.31043865 0 0 1 8.59375 11.59375 A 0.31043865 0.31043865 0 0 1 8.59375 11.53125 L 2.4375 11.53125 L 2.4375 6.25 L 10.65625 6.25 L 10.65625 8.75 L 11.0625 8.75 L 11.09375 8.75 C 11.1179 8.7495 11.124943 8.75 11.125 8.75 L 11.15625 8.75 L 11.1875 8.75 L 11.21875 8.75 L 11.3125 8.78125 L 11.34375 8.78125 L 11.375 8.78125 C 11.37526 8.78135 11.40075 8.78125 11.40625 8.78125 L 11.46875 8.8125 L 11.53125 8.84375 C 11.56537 8.85675 11.58514 8.859 11.625 8.875 C 11.63766 8.885 11.6433 8.865 11.65625 8.875 C 11.66962 8.88 11.6807 8.90625 11.6875 8.90625 L 11.71875 8.90625 C 11.73211 8.91125 11.7432 8.9375 11.75 8.9375 L 11.78125 8.9375 L 11.8125 8.9375 C 11.8204 8.9455 11.812454 8.96865 11.8125 8.96875 L 11.84375 8.96875 C 11.85165 8.97675 11.843706 8.9999 11.84375 9 L 11.875 9 C 11.8763 9.001 11.8738 9.03125 11.875 9.03125 L 12.1875 9.34375 L 12.46875 9.0625 L 12.46875 5.21875 L 12.46875 5.1875 C 12.47195 5.1675 12.46875 5.147 12.46875 5.125 C 12.46875 5.103 12.47195 5.0825 12.46875 5.0625 A 0.20980073 0.20980073 0 0 0 12.4375 5.03125 A 0.20980073 0.20980073 0 0 0 12.40625 4.96875 C 12.39715 4.95775 12.38556 4.9475 12.375 4.9375 C 12.3657 4.9265 12.35469 4.91625 12.34375 4.90625 C 12.29779 4.86325 12.24485 4.8305 12.1875 4.8125 A 0.20980073 0.20980073 0 0 0 12.15625 4.78125 A 0.20980073 0.20980073 0 0 0 12.125 4.78125 L 12.0625 4.78125 L 1.0625 4.78125 C 1.05562 4.78065 1.038674 4.78145 1.03125 4.78125 C 1.02383 4.78105 1.007424 4.78105 1 4.78125 L 0.96875 4.78125 L 0.9375 4.78125 A 0.20980073 0.20980073 0 0 0 0.90625 4.78125 A 0.20980073 0.20980073 0 0 0 0.875 4.78125 z M 8.65625 11.6875 L 8.9375 11.625 L 8.625 11.625 C 8.630645 11.637 8.643352 11.6585 8.65625 11.6875 z M 8.71875 11.8125 C 8.722203 11.8235 8.74413 11.82475 8.75 11.84375 L 8.78125 11.8125 L 8.71875 11.8125 z "
       transform="translate(0,1036.3622)"
       id="path4537" />
    <path
       inkscape:connector-curvature="0"
       id="path3761-2-3-5-4-8-9-8-0"
       style="color:#bebebe;fill:#bebebe"
       d="m 9.7337917,1046.2207 h 1.3750003 l 1.125,1.0938 1.0938,-1.0938 h 1.4062 v 1.4688 l -1.0938,1.0625 1.0938,1.0625 v 1.4062 h -1.4375 l -1.0625,-1.0625 -1.0625,1.0625 H 9.7337917 v -1.4062 l 1.0625003,-1.0625 -1.0625003,-1.0625 v -1.4688 z" />
  </g>
</svg>
