<?xml version="1.0" encoding="UTF-8" standalone="no"?>
<!-- Created with Inkscape (http://www.inkscape.org/) -->

<svg
   xmlns:dc="http://purl.org/dc/elements/1.1/"
   xmlns:cc="http://creativecommons.org/ns#"
   xmlns:rdf="http://www.w3.org/1999/02/22-rdf-syntax-ns#"
   xmlns:svg="http://www.w3.org/2000/svg"
   xmlns="http://www.w3.org/2000/svg"
   xmlns:xlink="http://www.w3.org/1999/xlink"
   xmlns:sodipodi="http://sodipodi.sourceforge.net/DTD/sodipodi-0.dtd"
   xmlns:inkscape="http://www.inkscape.org/namespaces/inkscape"
   id="svg7384"
   height="16"
   width="16"
   version="1.1"
   inkscape:version="0.48.4 r9939"
   sodipodi:docname="network-wireless-signal-weak-symbolic.svg">
  <sodipodi:namedview
     pagecolor="#ffffff"
     bordercolor="#666666"
     borderopacity="1"
     objecttolerance="10"
     gridtolerance="10"
     guidetolerance="10"
     inkscape:pageopacity="0"
     inkscape:pageshadow="2"
     inkscape:window-width="1364"
     inkscape:window-height="703"
     id="namedview17"
     showgrid="false"
     inkscape:zoom="13.41984"
     inkscape:cx="16.310651"
     inkscape:cy="11.342393"
     inkscape:window-x="0"
     inkscape:window-y="0"
     inkscape:window-maximized="1"
     inkscape:current-layer="svg7384" />
  <metadata
     id="metadata90">
    <rdf:RDF>
      <cc:Work
         rdf:about="">
        <dc:format>image/svg+xml</dc:format>
        <dc:type
           rdf:resource="http://purl.org/dc/dcmitype/StillImage" />
        <dc:title>Gnome Symbolic Icon Theme</dc:title>
      </cc:Work>
    </rdf:RDF>
  </metadata>
  <title
     id="title9167">Gnome Symbolic Icon Theme</title>
  <defs
     id="defs7386">
    <clipPath
       id="clipPath6279-6-1-4-5"
       clipPathUnits="userSpaceOnUse">
      <rect
         id="rect6281-3-0-3-5"
         style="color:#bebebe;fill:#bebebe"
         height="6.375"
         width="3.825"
         y="220.75"
         x="26.85" />
    </clipPath>
    <clipPath
       id="clipPath6265-33-6-5-1-3"
       clipPathUnits="userSpaceOnUse">
      <rect
         id="rect6267-6-9-1-4-8"
         style="color:#bebebe;fill:#bebebe"
         height="5.2159"
         width="2.8977"
         y="221.33"
         x="26.966" />
    </clipPath>
    <clipPath
       id="clipPath6259-6-8-2-1-6-6"
       clipPathUnits="userSpaceOnUse">
      <rect
         id="rect6261-4-9-2-0-9-0"
         style="color:#bebebe;fill:#bebebe"
         height="4.8735"
         width="1.8763"
         y="221.5"
         x="26.999" />
    </clipPath>
    <linearGradient
       inkscape:collect="always"
       xlink:href="#linearGradient3864"
       id="linearGradient3880"
       gradientUnits="userSpaceOnUse"
       x1="125.53125"
       y1="11.579919"
       x2="125.53125"
       y2="64" />
    <linearGradient
       inkscape:collect="always"
       id="linearGradient3864">
      <stop
         style="stop-color:#ffffff;stop-opacity:1;"
         offset="0"
         id="stop3866" />
      <stop
         style="stop-color:#ffffff;stop-opacity:0;"
         offset="1"
         id="stop3868" />
    </linearGradient>
  </defs>
  <g
     id="g9878">
    <path
       id="path3878"
       d="m 7.9999969,1.4122275 c -2.80928,1e-7 -5.6196291,1.0718647 -7.76303746,3.2152732 L 1.2746515,5.6651928 c 3.7145673,-3.7145674 9.7352865,-3.7132195 13.4506905,0 6.29e-4,6.792e-4 0.0033,-6.792e-4 0.0039,0 L 15.763041,4.6275007 C 13.619625,2.4840924 10.809277,1.4122274 7.9999969,1.4122275 z"
       style="fill:#bdbdbd;fill-opacity:0.34901962;stroke:none"
       inkscape:connector-curvature="0" />
    <path
       id="path3876"
       d="m 7.9999969,4.3405631 c -2.0601389,0 -4.1197509,0.7865582 -5.6915839,2.3583912 l 1.0337614,1.0337614 c 2.5720903,-2.5720904 6.7435546,-2.5720902 9.3156446,0 L 13.691581,6.6989543 C 12.119748,5.1271213 10.060136,4.3405631 7.9999969,4.3405631 z"
       style="fill:#bdbdbd;fill-opacity:0.34901962;stroke:none"
       inkscape:connector-curvature="0" />
    <path
       id="path3874"
       d="m 7.9999969,7.2688988 c -1.3109975,0 -2.6198729,0.5012516 -3.6201304,1.501509 L 5.413628,9.8041693 c 1.4289392,-1.4289394 3.7437985,-1.4289393 5.172738,0 L 11.624058,8.7704078 C 10.6238,7.7701504 9.3109944,7.2688988 7.9999969,7.2688988 z"
       style="fill:#bebebe;fill-opacity:1;stroke:none"
       inkscape:connector-curvature="0" />
    <path
       id="path3035"
       d="m 7.9999969,10.197234 c -1.2124953,0 -2.1933037,0.980809 -2.1933037,2.193304 0,1.212495 0.9808084,2.197235 2.1933037,2.197235 1.2124953,0 2.1972341,-0.98474 2.1972341,-2.197235 0,-1.212495 -0.9847388,-2.193304 -2.1972341,-2.193304 z"
       style="fill:#bebebe;fill-opacity:1;stroke:none"
       inkscape:connector-curvature="0" />
  </g>
</svg>
