<?xml version="1.0" encoding="UTF-8" standalone="no"?>
<!-- Created with Inkscape (http://www.inkscape.org/) -->

<svg
   xmlns:dc="http://purl.org/dc/elements/1.1/"
   xmlns:cc="http://creativecommons.org/ns#"
   xmlns:rdf="http://www.w3.org/1999/02/22-rdf-syntax-ns#"
   xmlns:svg="http://www.w3.org/2000/svg"
   xmlns="http://www.w3.org/2000/svg"
   xmlns:sodipodi="http://sodipodi.sourceforge.net/DTD/sodipodi-0.dtd"
   xmlns:inkscape="http://www.inkscape.org/namespaces/inkscape"
   id="svg7384"
   height="16"
   width="16"
   version="1.1"
   inkscape:version="0.48.4 r9939"
   sodipodi:docname="network-wireless-encrypted-symbolic.svgz">
  <defs
     id="defs10" />
  <sodipodi:namedview
     pagecolor="#ffffff"
     bordercolor="#666666"
     borderopacity="1"
     objecttolerance="10"
     gridtolerance="10"
     guidetolerance="10"
     inkscape:pageopacity="0"
     inkscape:pageshadow="2"
     inkscape:window-width="1364"
     inkscape:window-height="703"
     id="namedview8"
     showgrid="false"
     inkscape:zoom="14.75"
     inkscape:cx="-2.3728814"
     inkscape:cy="8"
     inkscape:window-x="0"
     inkscape:window-y="0"
     inkscape:window-maximized="1"
     inkscape:current-layer="svg7384" />
  <metadata
     id="metadata90">
    <rdf:RDF>
      <cc:Work
         rdf:about="">
        <dc:format>image/svg+xml</dc:format>
        <dc:type
           rdf:resource="http://purl.org/dc/dcmitype/StillImage" />
        <dc:title>Gnome Symbolic Icon Theme</dc:title>
      </cc:Work>
    </rdf:RDF>
  </metadata>
  <title
     id="title9167">Gnome Symbolic Icon Theme</title>
  <path
     style="fill:#bebebe;fill-opacity:1;fill-rule:evenodd;stroke:none"
     d="m 8.0000006,1.0416974 c -2.068451,0 -3.7490592,1.6423222 -3.8219753,3.6930538 -0.014081,0.069477 -0.020366,0.1369856 -0.020366,0.2103997 l 0,0.9096865 -0.4073153,0 c -0.5160271,0 -0.9368251,0.4139675 -0.9368251,0.9300664 l 0,7.2434482 c 0,0.515983 0.4207981,0.929951 0.9368251,0.929951 l 8.5061011,0 c 0.516027,0 0.930036,-0.413968 0.930036,-0.929951 l 0,-7.2434482 c 0,-0.5160989 -0.414009,-0.9300664 -0.930036,-0.9300664 l -0.414103,0 0,-0.9096865 c 0,-0.072951 -0.0063,-0.14127 -0.02037,-0.2103997 C 11.749057,2.6840196 10.068449,1.0416974 7.9999978,1.0416974 z m 0,2.0840806 c 0.9636241,0 1.7040283,0.7315935 1.7378785,1.683661 a 2.0874334,2.0874334 0 0 0 0.020364,0.2172317 l 0,0.8281667 -3.5164886,0 0,-0.8010707 A 2.0874334,2.0874334 0 0 0 6.262118,4.809439 C 6.2959684,3.8573715 7.0363722,3.125778 7.9999964,3.125778 z"
     id="rect2987"
     inkscape:connector-curvature="0" />
</svg>
