<?xml version="1.0" encoding="UTF-8" standalone="no"?>
<!-- Created with Inkscape (http://www.inkscape.org/) -->

<svg
   xmlns:dc="http://purl.org/dc/elements/1.1/"
   xmlns:cc="http://creativecommons.org/ns#"
   xmlns:rdf="http://www.w3.org/1999/02/22-rdf-syntax-ns#"
   xmlns:svg="http://www.w3.org/2000/svg"
   xmlns="http://www.w3.org/2000/svg"
   xmlns:xlink="http://www.w3.org/1999/xlink"
   xmlns:sodipodi="http://sodipodi.sourceforge.net/DTD/sodipodi-0.dtd"
   xmlns:inkscape="http://www.inkscape.org/namespaces/inkscape"
   id="svg7384"
   height="16"
   width="16"
   version="1.1"
   inkscape:version="0.48.4 r9939"
   sodipodi:docname="network-wired-symbolic.svg">
  <defs
     id="defs12">
    <linearGradient
       id="linearGradient4978">
      <stop
         id="stop4980"
         offset="0"
         style="stop-color:#ffffff;stop-opacity:1;" />
      <stop
         id="stop4982"
         offset="1"
         style="stop-color:#ffffff;stop-opacity:0.74374998;" />
    </linearGradient>
    <linearGradient
       gradientTransform="translate(4.6330676,-7.8953025)"
       y2="1042.1121"
       x2="16.716539"
       y1="1025.8176"
       x1="8.5924969"
       gradientUnits="userSpaceOnUse"
       id="linearGradient31768"
       xlink:href="#linearGradient31755"
       inkscape:collect="always" />
    <linearGradient
       id="linearGradient31755"
       inkscape:collect="always">
      <stop
         id="stop31757"
         offset="0"
         style="stop-color:#ffffff;stop-opacity:1;" />
      <stop
         id="stop31759"
         offset="1"
         style="stop-color:#ffffff;stop-opacity:0;" />
    </linearGradient>
  </defs>
  <sodipodi:namedview
     pagecolor="#ffffff"
     bordercolor="#666666"
     borderopacity="1"
     objecttolerance="10"
     gridtolerance="10"
     guidetolerance="10"
     inkscape:pageopacity="0"
     inkscape:pageshadow="2"
     inkscape:window-width="1366"
     inkscape:window-height="713"
     id="namedview10"
     showgrid="false"
     inkscape:zoom="14.75"
     inkscape:cx="-13.796885"
     inkscape:cy="9.0169492"
     inkscape:window-x="0"
     inkscape:window-y="24"
     inkscape:window-maximized="1"
     inkscape:current-layer="svg7384" />
  <metadata
     id="metadata90">
    <rdf:RDF>
      <cc:Work
         rdf:about="">
        <dc:format>image/svg+xml</dc:format>
        <dc:type
           rdf:resource="http://purl.org/dc/dcmitype/StillImage" />
        <dc:title>Gnome Symbolic Icon Theme</dc:title>
      </cc:Work>
    </rdf:RDF>
  </metadata>
  <title
     id="title9167">Gnome Symbolic Icon Theme</title>
  <g
     id="g3065">
    <path
       id="path12679"
       style="text-indent:0;text-transform:none;block-progression:tb;color:#bebebe;fill:#bebebe"
       d="m 7,9 v 4 H 9 V 9 H 7 z"
       inkscape:connector-curvature="0" />
    <path
       id="path12681"
       style="text-indent:0;text-transform:none;block-progression:tb;color:#bebebe;fill:#bebebe"
       d="m 2,13 v 2 H 14 V 13 H 2 z"
       inkscape:connector-curvature="0" />
    <path
       inkscape:connector-curvature="0"
       id="path4537"
       d="m 2.3596339,0.90885593 a 0.20980073,0.20980073 0 0 0 -0.0625,0.031 0.20980073,0.20980073 0 0 0 -0.0625,0.031 c -0.0044,0 0.0069,0.025 0,0.031 -0.01038,0.01 -0.01838,0.016 -0.03125,0.031 -0.04258,0.045 -0.07558,0.099 -0.09375,0.1563 a 0.20980073,0.20980073 0 0 0 -0.03125,0.032 c -0.0047,0.03 -0.0024,0.062 0,0.094 7.84e-4,0.011 -0.0016,0.021 0,0.031 l 0,7.375 0,0.031 c -3.36e-4,0.014 -10e-4,0.049 0,0.063 -0.0013,0.027 -0.0067,0.051 0,0.094 a 0.20980073,0.20980073 0 0 0 0.03125,0.031 0.20980073,0.20980073 0 0 0 0.03125,0.062 c 0.0089,0.011 0.02088,0.021 0.03125,0.031 0.0094,0.011 0.02028,0.021 0.03125,0.031 0.04607,0.043 0.09915,0.076 0.15625,0.094 a 0.20980073,0.20980073 0 0 0 0.03125,0.031 0.20980073,0.20980073 0 0 0 0.03125,0 l 0.0625,0 4.15625,0 0,0.5937 c -0.697981,0.024 -1.370865,0.066 -1.84375,0.125 -0.287821,0.036 -0.529296,0.1024001 -0.71875,0.1563001 -0.06909,0.019 -0.122278,0 -0.21875,0.062 -0.05245,0.031 -0.127638,0.083 -0.1875,0.1563 -0.05986,0.074 -0.125,0.182 -0.125,0.3125 0,0.069 0.0236,0.1596 0.09375,0.25 0.02267,0.03 0.04325,0.044 0.0625,0.063 0.0089,0.011 0.02089,0.021 0.03125,0.031 0.0067,0 -0.0079,0.026 0,0.031 0.0052,0 0.02615,0 0.03125,0 a 0.20980073,0.20980073 0 0 0 0.03125,0.031 0.20980073,0.20980073 0 0 0 0.0625,0.031 0.20980073,0.20980073 0 0 0 0.03125,0 l 0.0625,0 0.03125,0 c 0.0074,2e-4 0.02383,2e-4 0.03125,0 0.0074,-2e-4 0.02437,6e-4 0.03125,0 l 7.9374991,0 0.03125,0 c 0.0074,2e-4 0.02383,2e-4 0.03125,0 0.0074,-2e-4 0.02437,6e-4 0.03125,0 l 0.03125,0 a 0.20980073,0.20980073 0 0 0 0.03125,0 0.20980073,0.20980073 0 0 0 0.0625,-0.031 0.20980073,0.20980073 0 0 0 0.0625,-0.031 c 0.01112,-0.01 0.0098,-0.036 0.03125,-0.063 0.014,-0.013 0.03983,-0.035 0.0625,-0.063 0.06022,-0.071 0.09375,-0.1646 0.09375,-0.25 0,-0.2306 -0.152126,-0.3933 -0.28125,-0.4688 -0.119777,-0.07 -0.192732,-0.046 -0.25,-0.062 -0.188121,-0.053 -0.430546,-0.1208001 -0.71875,-0.1563001 -0.472212,-0.059 -1.144852,-0.1008 -1.8437491,-0.125 l 0,-0.5937 4.1562491,0 c 0.01958,0 0.01167,0 0.03125,0 l 0.0625,0 a 0.20980073,0.20980073 0 0 0 0.03125,0 0.20980073,0.20980073 0 0 0 0.0625,-0.031 0.20980073,0.20980073 0 0 0 0.0625,-0.031 c 0.0044,0 -0.0068,-0.025 0,-0.031 0.02023,-0.017 0.01749,-0.015 0.03125,-0.031 0.06756,-0.078 0.08334,-0.1547 0.09375,-0.1876 a 0.20980073,0.20980073 0 0 0 0.03125,-0.031 c 0.0048,-0.03 0.0024,-0.061 0,-0.094 -7.98e-4,-0.011 0.0016,-0.021 0,-0.031 l 0,-7.375 0,-0.031 c 0.0032,-0.02 0,-0.041 0,-0.063 0,-0.022 0.0032,-0.042 0,-0.062 a 0.20980073,0.20980073 0 0 0 -0.03125,-0.031 0.20980073,0.20980073 0 0 0 -0.03125,-0.063 c -0.0091,-0.011 -0.02069,-0.021 -0.03125,-0.031 -0.0093,-0.011 -0.02031,-0.021 -0.03125,-0.031 -0.04596,-0.043 -0.0989,-0.076 -0.15625,-0.094 a 0.20980073,0.20980073 0 0 0 -0.03125,-0.031 0.20980073,0.20980073 0 0 0 -0.03125,0 l -0.0625,0 -10.9999991,0 c -0.0069,-6e-4 -0.02383,2e-4 -0.03125,0 -0.0074,-2e-4 -0.02383,-2e-4 -0.03125,0 l -0.03125,0 -0.03125,0 a 0.20980073,0.20980073 0 0 0 -0.03125,0 z m 1.53125,1.46869997 8.2187491,0 0,5.2813 -8.2187491,0 0,-5.2813 z"
       style="fill:#bebebe;fill-opacity:1;stroke:none" />
  </g>
</svg>
