<?xml version="1.0" encoding="UTF-8" standalone="no"?>
<!-- Created with Inkscape (http://www.inkscape.org/) -->

<svg
   xmlns:dc="http://purl.org/dc/elements/1.1/"
   xmlns:cc="http://creativecommons.org/ns#"
   xmlns:rdf="http://www.w3.org/1999/02/22-rdf-syntax-ns#"
   xmlns:svg="http://www.w3.org/2000/svg"
   xmlns="http://www.w3.org/2000/svg"
   xmlns:xlink="http://www.w3.org/1999/xlink"
   xmlns:sodipodi="http://sodipodi.sourceforge.net/DTD/sodipodi-0.dtd"
   xmlns:inkscape="http://www.inkscape.org/namespaces/inkscape"
   id="svg7384"
   height="16"
   width="16"
   version="1.1"
   inkscape:version="0.92.2 (unknown)"
   sodipodi:docname="network-wireless-signal-none-symbolic.svg">
  <sodipodi:namedview
     pagecolor="#ffffff"
     bordercolor="#666666"
     borderopacity="1"
     objecttolerance="10"
     gridtolerance="10"
     guidetolerance="10"
     inkscape:pageopacity="0"
     inkscape:pageshadow="2"
     inkscape:window-width="1366"
     inkscape:window-height="711"
     id="namedview17"
     showgrid="false"
     inkscape:zoom="26.83968"
     inkscape:cx="-3.6340082"
     inkscape:cy="5.3446636"
     inkscape:window-x="0"
     inkscape:window-y="0"
     inkscape:window-maximized="1"
     inkscape:current-layer="svg7384"
     inkscape:snap-page="false" />
  <metadata
     id="metadata90">
    <rdf:RDF>
      <cc:Work
         rdf:about="">
        <dc:format>image/svg+xml</dc:format>
        <dc:type
           rdf:resource="http://purl.org/dc/dcmitype/StillImage" />
        <dc:title>Gnome Symbolic Icon Theme</dc:title>
      </cc:Work>
    </rdf:RDF>
  </metadata>
  <title
     id="title9167">Gnome Symbolic Icon Theme</title>
  <defs
     id="defs7386">
    <clipPath
       id="clipPath6279-6-1-4-5"
       clipPathUnits="userSpaceOnUse">
      <rect
         id="rect6281-3-0-3-5"
         style="color:#bebebe;fill:#bebebe"
         height="6.375"
         width="3.825"
         y="220.75"
         x="26.85" />
    </clipPath>
    <clipPath
       id="clipPath6265-33-6-5-1-3"
       clipPathUnits="userSpaceOnUse">
      <rect
         id="rect6267-6-9-1-4-8"
         style="color:#bebebe;fill:#bebebe"
         height="5.2159"
         width="2.8977"
         y="221.33"
         x="26.966" />
    </clipPath>
    <clipPath
       id="clipPath6259-6-8-2-1-6-6"
       clipPathUnits="userSpaceOnUse">
      <rect
         id="rect6261-4-9-2-0-9-0"
         style="color:#bebebe;fill:#bebebe"
         height="4.8735"
         width="1.8763"
         y="221.5"
         x="26.999" />
    </clipPath>
    <linearGradient
       inkscape:collect="always"
       xlink:href="#linearGradient3864"
       id="linearGradient3880"
       gradientUnits="userSpaceOnUse"
       x1="125.53125"
       y1="11.579919"
       x2="125.53125"
       y2="64" />
    <linearGradient
       inkscape:collect="always"
       id="linearGradient3864">
      <stop
         style="stop-color:#ffffff;stop-opacity:1;"
         offset="0"
         id="stop3866" />
      <stop
         style="stop-color:#ffffff;stop-opacity:0;"
         offset="1"
         id="stop3868" />
    </linearGradient>
  </defs>
  <path
     style="opacity:0.95;fill:#bdbdbd;fill-opacity:0.34901962;stroke:none;stroke-width:15.76818085;stroke-opacity:1"
     d="m 13.075946,1.0989529 -0.0078,0.00781 c -0.789083,-0.012062 -1.575539,0.053372 -2.346708,0.19773 l -0.0104,0.010407 C 9.9434447,1.4596877 9.1814856,1.6765287 8.4592059,1.9653226 l -0.00911,0.010407 -0.00911,0.00911 C 7.7178637,2.2753854 7.0194362,2.6250839 6.3674296,3.0489347 c -0.013512,0.00869 -0.014626,0.029044 -0.028619,0.037724 h -0.0091 C 5.6778001,3.5106312 5.0595,4.0087278 4.5098138,4.5579269 3.9698542,5.098393 3.5084277,5.6996565 3.087979,6.3374968 3.078809,6.3510038 3.058937,6.3534218 3.050255,6.3674168 2.6263927,7.0194006 2.2753997,7.7178651 1.9848544,8.4409798 l -0.00911,0.00911 -0.010407,0.010408 C 1.6765278,9.182785 1.4610022,9.9434337 1.3162143,10.710976 l -0.010407,0.0104 c -0.14431,0.771194 -0.209792,1.557611 -0.19773,2.346743 l -0.00911,0.0091 c 6.86e-4,0.04526 0.00789,0.09008 0.00911,0.135289 l 1.2865459,0.0078 c -0.00117,-0.04263 -0.00845,-0.08481 -0.00911,-0.127485 l 0.00911,-0.0078 c -0.010783,-0.705399 0.047919,-1.408917 0.1769163,-2.098281 l 0.00781,-0.0078 C 2.7087691,10.292846 2.9026592,9.6108694 3.1608268,8.9652211 l 0.00911,-0.00781 0.00781,-0.00911 C 3.4374558,8.301923 3.7510793,7.6773936 4.1299659,7.0945903 4.1377309,7.0820815 4.1555921,7.0806498 4.1637882,7.0685746 4.5396213,6.4984178 4.9520566,5.9607493 5.4347216,5.4776316 5.9260812,4.9867074 6.4780483,4.5414516 7.060791,4.162467 h 0.00911 C 7.082412,4.154707 7.082535,4.136411 7.09462,4.128645 7.6774404,3.7497684 8.3019365,3.43744 8.9483362,3.1777196 l 0.00911,-0.00781 0.00781,-0.00911 C 9.6108898,2.9026573 10.292876,2.7087544 10.978975,2.5793254 l 0.0078,-0.00911 C 11.67608,2.4411756 12.379632,2.3825173 13.085019,2.3932992 l 0.0078,-0.00781 c 0.03263,4.946e-4 0.06495,0.00571 0.09756,0.00651 l -0.01304,-1.2865428 c -0.0335,-8.023e-4 -0.06665,-0.00599 -0.100165,-0.0065 z"
     id="path2704"
     inkscape:connector-curvature="0"
     sodipodi:nodetypes="cccccccccccccccccccccccccccccccccccccccccccccc" />
  <path
     inkscape:connector-curvature="0"
     id="path2706"
     d="M 13.202128,3.4274837 C 12.200318,3.4471119 11.212977,3.5961914 10.276505,3.8983933 9.1670665,4.2564349 8.1243785,4.8071508 7.1986814,5.5322675 6.8901161,5.7739724 6.5948196,6.0339746 6.3140998,6.3140814 l -0.0013,0.0013 C 5.1923676,7.4382648 4.3744986,8.7985376 3.8971107,10.277787 3.7777719,10.647598 3.6792811,11.025436 3.6031175,11.408231 3.4864506,11.994908 3.4234756,12.594248 3.4118917,13.20081 l 1.419233,0.01562 c 0.00141,-0.05511 0.0028,-0.110295 0.00521,-0.165208 0.00568,-0.131285 0.015828,-0.261162 0.027318,-0.391558 0.00902,-0.102076 0.017434,-0.204248 0.029921,-0.305702 5.007e-4,-0.0041 0.0021,-0.0077 0.0026,-0.01171 0.016706,-0.133586 0.038351,-0.267061 0.06114,-0.399362 0.00109,-0.0064 0.00153,-0.01188 0.0026,-0.0182 0.014664,-0.08404 0.02714,-0.170228 0.044229,-0.253666 l 0.0013,-0.0013 c 0.057608,-0.280814 0.1299394,-0.557174 0.2146412,-0.829945 0.020541,-0.0662 0.044235,-0.132092 0.066344,-0.197731 0.092045,-0.273072 0.1921442,-0.542954 0.3109044,-0.8052278 0.00342,-0.00758 0.00564,-0.014547 0.00911,-0.022106 l 0.0013,-0.00129 C 5.6973648,9.6169705 5.805066,9.4283838 5.910837,9.2397164 5.920177,9.2227804 5.9274,9.2058674 5.936854,9.1889834 l 0.0013,-0.0013 C 6.0256657,9.0316254 6.1174077,8.8784407 6.2139394,8.7272667 6.330578,8.5467394 6.45017,8.3671735 6.5807808,8.1952168 6.6390883,8.1172515 6.7030395,8.0423406 6.7642014,7.9662661 6.9427143,7.7471664 7.1258674,7.5322943 7.3274712,7.3301482 l 0.0013,-0.0026 C 7.5309197,7.1259467 7.74709,6.9427885 7.9661912,6.7642755 8.042268,6.7031129 8.1171773,6.6391633 8.195142,6.580855 8.3670991,6.4502437 8.5466773,6.3319559 8.7271916,6.2153146 8.8783649,6.1187827 9.0314702,6.0257319 9.1876943,5.9382325 l 0.0013,-0.0013 c 0.016887,-0.00945 0.033793,-0.016679 0.050735,-0.02602 0.1886653,-0.1057698 0.3772522,-0.213471 0.5736751,-0.303098 l 0.00129,-0.0013 c 0.00758,-0.00346 0.014565,-0.0057 0.022106,-0.00911 0.2622756,-0.11876 0.5334576,-0.2201593 0.8065316,-0.3122051 0.06564,-0.022109 0.130241,-0.044503 0.196429,-0.065043 0.27277,-0.084701 0.549151,-0.1570218 0.829945,-0.2146412 l 0.0013,-0.0013 c 0.08344,-0.017087 0.169627,-0.029566 0.253667,-0.044229 0.0064,-0.00104 0.01188,-0.00151 0.0182,-0.0026 0.132301,-0.022789 0.265772,-0.044435 0.399362,-0.06114 0.004,-5.007e-4 0.0077,-0.00209 0.01171,-0.0026 0.101453,-0.012483 0.203626,-0.020896 0.305701,-0.029921 0.130394,-0.011491 0.260272,-0.021641 0.391555,-0.027318 0.05491,-0.0024 0.110101,-0.00377 0.16521,-0.00521 z"
     style="opacity:0.95;fill:#bebebe;fill-opacity:0.34901962;stroke:none;stroke-width:15.76818085;stroke-opacity:1"
     sodipodi:nodetypes="ccscccccccccccccccccccccccccccccccccccccccccccccccc" />
  <path
     style="opacity:0.95;fill:#bebebe;fill-opacity:0.34901962;stroke:none;stroke-width:15.76818085;stroke-opacity:1"
     d="M 13.230748,6.1228558 C 11.870613,6.0822711 10.541313,6.4261953 9.4023337,7.1180096 9.1729804,7.2573191 8.9505508,7.4094045 8.7375969,7.575911 l -0.0013,0.0013 -0.0013,0.00123 c -0.00181,0.00138 -0.0034,0.00383 -0.00521,0.00521 C 8.5164986,7.7504869 8.3122572,7.9327337 8.1183886,8.1261013 7.926374,8.3187383 7.7485457,8.5192624 7.5824366,8.7309992 c -0.00138,0.00181 -0.00246,0.00209 -0.0039,0.0039 l -0.0026,0.0026 -0.0013,0.0013 C 7.4082229,8.9516667 7.2560379,9.1741896 7.1167292,9.4035422 6.4249524,10.542483 6.0822693,11.870544 6.122876,13.230659 l 1.3660054,0.01296 c -0.00745,-0.215125 -0.00491,-0.429117 0.011709,-0.641323 8.24e-5,-0.0011 0.0013,-0.0028 0.0013,-0.0039 0.00304,-0.03859 0.011753,-0.07597 0.015613,-0.114475 0.018056,-0.179902 0.039457,-0.359815 0.074148,-0.535951 0.08446,-0.428385 0.2179937,-0.843216 0.3980613,-1.238416 0.053631,-0.117713 0.119012,-0.23221 0.1808187,-0.346027 0.041531,-0.0764 0.077131,-0.154458 0.122281,-0.22895 0.073261,-0.120841 0.1580312,-0.2353139 0.2419588,-0.3499294 0.00144,-0.00207 0.0013,-0.00448 0.0026,-0.00655 C 8.6100133,9.6770026 8.6879946,9.5802238 8.7663242,9.482845 8.8725406,9.3543641 8.9780075,9.2259877 9.0967418,9.1068962 l 0.0026,-0.0026 C 9.2204456,8.983561 9.3524519,8.8740718 9.4830932,8.7660745 9.5804677,8.687738 9.6772458,8.6097578 9.7783879,8.5371238 c 0.00215,-0.0013 0.00448,-0.00123 0.00655,-0.0026 0.1146113,-0.083933 0.2290891,-0.1673971 0.3499301,-0.2406588 0.07449,-0.045152 0.152547,-0.08205 0.22895,-0.1235814 0.11381,-0.061813 0.22831,-0.1271918 0.346028,-0.1808185 0.3952,-0.1800683 0.811329,-0.3149008 1.239714,-0.3993625 0.176139,-0.034694 0.354749,-0.054787 0.534652,-0.072849 0.0385,-0.00383 0.07587,-0.012563 0.114476,-0.015613 0.001,3.98e-5 0.0028,-0.0013 0.0039,-0.0013 0.212204,-0.016653 0.426197,-0.019162 0.641322,-0.01171 z"
     id="path2708"
     inkscape:connector-curvature="0"
     sodipodi:nodetypes="cccccccccccccccccccccccccccccccccccccc" />
  <path
     inkscape:connector-curvature="0"
     id="path2710"
     d="m 13.258078,8.8676609 c -0.04751,-6.411e-4 -0.09446,0.00144 -0.141794,0.0013 -0.06096,-1.453e-4 -0.121444,1.799e-4 -0.18212,0.0026 -0.223143,0.00858 -0.445415,0.029222 -0.662135,0.071549 -0.325159,0.063497 -0.640361,0.1632345 -0.940519,0.2991966 -0.0015,6.339e-4 -0.0037,0.00202 -0.0052,0.0026 -0.01935,0.00878 -0.03672,0.020838 -0.05593,0.029916 -0.13069,0.061524 -0.259875,0.1266092 -0.383752,0.2016324 -0.05914,0.03575 -0.114319,0.078498 -0.171713,0.1170771 -0.03725,0.024937 -0.07408,0.050596 -0.110573,0.076751 -0.04175,0.030097 -0.08544,0.054079 -0.126184,0.085856 -7.22e-4,5.972e-4 -0.0018,0.00198 -0.0027,0.00267 -0.0018,0.00138 -0.0034,0.00379 -0.0052,0.00517 l -0.0013,0.00129 c -0.130584,0.1020658 -0.25579,0.2135082 -0.374646,0.331718 l -0.0027,0.0027 -0.0013,0.0013 c -0.1166051,0.11726 -0.2255843,0.240784 -0.326516,0.369444 -0.00138,0.0018 -0.00379,0.0034 -0.00517,0.0052 -6.506e-4,7.95e-4 -0.00207,0.0019 -0.00267,0.0027 -0.03181,0.04071 -0.055764,0.08444 -0.085858,0.126182 -0.026151,0.0365 -0.05181,0.07333 -0.07675,0.110573 -0.038576,0.05739 -0.081325,0.112583 -0.1170771,0.171714 -0.075025,0.123873 -0.1401091,0.253063 -0.2016324,0.383751 -0.00909,0.01921 -0.021134,0.0366 -0.029916,0.05594 -6.274e-4,0.0015 -6.345e-4,0.0024 -0.0013,0.0039 -0.1359614,0.300157 -0.2370004,0.616658 -0.300497,0.941819 -0.042326,0.21672 -0.061784,0.437857 -0.070248,0.660833 -0.00239,0.06069 -0.00275,0.121151 -0.0026,0.182121 1.944e-4,0.04774 -0.00333,0.09517 -0.0026,0.143094 l 1.3515875,0.01431 c -0.0016,-0.04462 -0.01033,-0.08935 -0.0104,-0.133989 -2.36e-4,-0.03567 0.0016,-0.07245 0.0027,-0.107971 0.0054,-0.158131 0.01854,-0.316224 0.04813,-0.469609 0.01724,-0.08921 0.04232,-0.175829 0.06764,-0.262772 0.0065,-0.02273 0.0098,-0.04643 0.01691,-0.06895 v -0.0027 l 0.0013,-0.0013 c 0.0051,-0.01594 0.01289,-0.02972 0.01821,-0.04553 0.0632,-0.185957 0.143931,-0.366063 0.24326,-0.535952 0.0084,-0.01438 0.01351,-0.02998 0.02211,-0.04424 0.05839,-0.09652 0.122778,-0.189984 0.192526,-0.279682 0.07157,-0.09162 0.147131,-0.179442 0.230251,-0.262774 0.08298,-0.08275 0.171331,-0.160338 0.262773,-0.231552 8.49e-4,-6.65e-4 0.0017,-5.86e-4 0.0027,-0.0013 0.09091,-0.07094 0.185653,-0.135873 0.283587,-0.195128 0.01426,-0.0086 0.02983,-0.01506 0.04423,-0.02342 0.169895,-0.09933 0.349998,-0.180062 0.535954,-0.24326 0.01585,-0.0053 0.02962,-0.01314 0.04553,-0.0182 l 0.0013,-0.0013 h 0.0027 c 0.02252,-0.0072 0.04622,-0.01038 0.06895,-0.01691 0.08694,-0.02532 0.174861,-0.05169 0.264073,-0.06894 0.153385,-0.0296 0.310177,-0.04145 0.468307,-0.04683 0.03552,-0.0011 0.07231,-0.0028 0.107972,-0.0027 0.04384,6.7e-5 0.08756,0.009 0.131386,0.0104 z"
     style="opacity:0.95;fill:#bebebe;fill-opacity:0.34901962;stroke:none;stroke-width:15.76818085;stroke-opacity:1"
     sodipodi:nodetypes="cccccccccccsccccccccccccccccccccccccccccccccccccccccccccc" />
  <path
     style="opacity:0.95;fill:#bebebe;fill-opacity:0.34901962;stroke:none;stroke-width:15.76818085;stroke-opacity:1"
     d="m 13.206038,11.552626 -0.0013,0.0013 c -0.108935,-0.0017 -0.217458,0.0074 -0.323914,0.02732 l -0.0013,0.0013 c -0.105954,0.01999 -0.211197,0.04989 -0.310904,0.08976 l -0.0013,0.0013 -0.0013,0.0013 c -0.09982,0.04011 -0.196182,0.08849 -0.286188,0.146997 -0.0019,0.0012 -0.0021,0.004 -0.0039,0.0052 h -0.0013 c -0.08999,0.05852 -0.175185,0.12712 -0.251065,0.202934 -0.07455,0.07461 -0.138389,0.157811 -0.196429,0.245861 -0.0013,0.0019 -0.004,0.0021 -0.0052,0.0039 -0.05852,0.09 -0.106889,0.186366 -0.146998,0.286189 l -0.0013,0.0013 -0.0013,0.0013 c -0.03987,0.09971 -0.06976,0.204951 -0.08976,0.310906 l -0.0013,0.0013 c -0.01992,0.106459 -0.02898,0.214979 -0.02733,0.323914 l -0.0013,0.0013 c 0.0017,0.109301 0.01447,0.217851 0.03772,0.325214 0.04651,0.214725 0.13555,0.422412 0.258871,0.606198 0.06165,0.0919 0.13098,0.17661 0.209437,0.254968 0.0784,0.07832 0.16435,0.149081 0.256269,0.21074 0.183843,0.123307 0.391521,0.212293 0.606198,0.258869 0.10734,0.02328 0.215991,0.03743 0.325213,0.03902 l 0.0013,-0.0013 c 0.21899,0.0029 0.436341,-0.04099 0.637419,-0.122281 0.09945,-0.0402 0.195466,-0.08848 0.284888,-0.146996 0.09021,-0.05892 0.174867,-0.126936 0.251065,-0.202934 l 0.0039,-0.0039 0.0039,-0.0039 c 0.074,-0.07421 0.138581,-0.155747 0.196429,-0.24326 0.0016,-0.0023 0.0036,-0.0041 0.0052,-0.0066 0.05852,-0.08942 0.106789,-0.185443 0.146998,-0.284886 0.08129,-0.20108 0.125302,-0.41843 0.12228,-0.637419 l 0.0013,-0.0013 c -0.0016,-0.109223 -0.01575,-0.217875 -0.03902,-0.325213 -0.04657,-0.214679 -0.135562,-0.422354 -0.25887,-0.606199 -0.06165,-0.09192 -0.132418,-0.17788 -0.210739,-0.256269 -0.07836,-0.07845 -0.163075,-0.147778 -0.254968,-0.209439 -0.183785,-0.123321 -0.391473,-0.212358 -0.606198,-0.25887 -0.107365,-0.02326 -0.215912,-0.03608 -0.325214,-0.03772 z"
     id="path2712"
     inkscape:connector-curvature="0"
     sodipodi:nodetypes="cccccccccccccccccccccccccccccccccccccccccccc" />
</svg>
