<?xml version="1.0" encoding="UTF-8" standalone="no"?>
<!-- Created with Inkscape (http://www.inkscape.org/) -->

<svg
   xmlns:dc="http://purl.org/dc/elements/1.1/"
   xmlns:cc="http://creativecommons.org/ns#"
   xmlns:rdf="http://www.w3.org/1999/02/22-rdf-syntax-ns#"
   xmlns:svg="http://www.w3.org/2000/svg"
   xmlns="http://www.w3.org/2000/svg"
   xmlns:xlink="http://www.w3.org/1999/xlink"
   xmlns:sodipodi="http://sodipodi.sourceforge.net/DTD/sodipodi-0.dtd"
   xmlns:inkscape="http://www.inkscape.org/namespaces/inkscape"
   id="svg7384"
   height="16"
   width="16"
   version="1.1"
   inkscape:version="0.92.2 (unknown)"
   sodipodi:docname="network-wireless-acquiring-symbolic.svg">
  <sodipodi:namedview
     pagecolor="#ffffff"
     bordercolor="#666666"
     borderopacity="1"
     objecttolerance="10"
     gridtolerance="10"
     guidetolerance="10"
     inkscape:pageopacity="0"
     inkscape:pageshadow="2"
     inkscape:window-width="1366"
     inkscape:window-height="716"
     id="namedview17"
     showgrid="false"
     inkscape:zoom="9.4892599"
     inkscape:cx="-1.8057605"
     inkscape:cy="-1.8047028"
     inkscape:window-x="0"
     inkscape:window-y="27"
     inkscape:window-maximized="1"
     inkscape:current-layer="svg7384"
     inkscape:snap-page="false" />
  <metadata
     id="metadata90">
    <rdf:RDF>
      <cc:Work
         rdf:about="">
        <dc:format>image/svg+xml</dc:format>
        <dc:type
           rdf:resource="http://purl.org/dc/dcmitype/StillImage" />
        <dc:title>Gnome Symbolic Icon Theme</dc:title>
      </cc:Work>
    </rdf:RDF>
  </metadata>
  <title
     id="title9167">Gnome Symbolic Icon Theme</title>
  <defs
     id="defs7386">
    <clipPath
       id="clipPath6279-6-1-4-5"
       clipPathUnits="userSpaceOnUse">
      <rect
         id="rect6281-3-0-3-5"
         style="color:#bebebe;fill:#bebebe"
         height="6.375"
         width="3.825"
         y="220.75"
         x="26.85" />
    </clipPath>
    <clipPath
       id="clipPath6265-33-6-5-1-3"
       clipPathUnits="userSpaceOnUse">
      <rect
         id="rect6267-6-9-1-4-8"
         style="color:#bebebe;fill:#bebebe"
         height="5.2159"
         width="2.8977"
         y="221.33"
         x="26.966" />
    </clipPath>
    <clipPath
       id="clipPath6259-6-8-2-1-6-6"
       clipPathUnits="userSpaceOnUse">
      <rect
         id="rect6261-4-9-2-0-9-0"
         style="color:#bebebe;fill:#bebebe"
         height="4.8735"
         width="1.8763"
         y="221.5"
         x="26.999" />
    </clipPath>
    <linearGradient
       inkscape:collect="always"
       xlink:href="#linearGradient3864"
       id="linearGradient3880"
       gradientUnits="userSpaceOnUse"
       x1="125.53125"
       y1="11.579919"
       x2="125.53125"
       y2="64" />
    <linearGradient
       inkscape:collect="always"
       id="linearGradient3864">
      <stop
         style="stop-color:#ffffff;stop-opacity:1;"
         offset="0"
         id="stop3866" />
      <stop
         style="stop-color:#ffffff;stop-opacity:0;"
         offset="1"
         id="stop3868" />
    </linearGradient>
  </defs>
  <path
     style="opacity:0.95;fill:#bdbdbd;fill-opacity:0.34901962;stroke:none;stroke-width:15.76818085;stroke-opacity:1"
     d="M 13.076172 1.0996094 L 13.068359 1.1074219 C 12.279276 1.0953599 11.491872 1.1603295 10.720703 1.3046875 L 10.710938 1.3144531 C 9.9433442 1.4592409 9.1812641 1.6760499 8.4589844 1.9648438 L 8.4492188 1.9765625 L 8.4414062 1.984375 C 7.718284 2.2749208 7.0191941 2.6249773 6.3671875 3.0488281 C 6.3536755 3.0575181 6.3518836 3.0772575 6.3378906 3.0859375 L 6.3300781 3.0859375 C 5.6781676 3.50991 5.0594518 4.0093946 4.5097656 4.5585938 C 4.1755027 4.8931702 3.8786838 5.2573839 3.5957031 5.6328125 A 2.2809732 2.2809732 0 0 1 4.0664062 5.5976562 A 2.2809732 2.2809732 0 0 1 5.0839844 5.875 C 5.2006542 5.7422978 5.3099601 5.6042201 5.4355469 5.4785156 C 5.9269065 4.9875914 6.4778042 4.541094 7.0605469 4.1621094 L 7.0703125 4.1621094 C 7.0828235 4.1543494 7.081665 4.1366723 7.09375 4.1289062 C 7.6765704 3.7500297 8.3028191 3.4374548 8.9492188 3.1777344 L 8.9570312 3.1699219 L 8.9648438 3.1601562 C 9.6104774 2.902014 10.292417 2.7095071 10.978516 2.5800781 L 10.986328 2.5703125 C 11.675633 2.4412727 12.38055 2.3817962 13.085938 2.3925781 L 13.09375 2.3847656 C 13.12638 2.3852602 13.156843 2.3917781 13.189453 2.3925781 L 13.177734 1.1054688 C 13.144234 1.1046665 13.11164 1.1001194 13.078125 1.0996094 L 13.076172 1.0996094 z M 1.8789062 8.7128906 C 1.6376829 9.3604118 1.4447289 10.03068 1.3164062 10.710938 L 1.3066406 10.720703 C 1.1623306 11.491897 1.0953599 12.279227 1.1074219 13.068359 L 1.0996094 13.078125 C 1.1002954 13.123385 1.1062019 13.167682 1.1074219 13.212891 L 2.3945312 13.220703 C 2.3933612 13.178073 2.3854256 13.136425 2.3847656 13.09375 L 2.3945312 13.085938 C 2.3837483 12.380539 2.4432683 11.675692 2.5722656 10.986328 L 2.5800781 10.978516 C 2.6518044 10.598271 2.7480768 10.22184 2.859375 9.8496094 A 2.2809732 2.2809732 0 0 1 1.8789062 8.7128906 z "
     id="path2704" />
  <path
     style="opacity:0.95;fill:#bebebe;fill-opacity:0.34901962;stroke:none;stroke-width:15.76818085;stroke-opacity:1"
     d="M 13.201172 3.4277344 C 12.199362 3.4473626 11.213816 3.5962356 10.277344 3.8984375 C 9.1679053 4.2564791 8.1249158 4.8080864 7.1992188 5.5332031 C 6.8906535 5.774908 6.5951729 6.0343463 6.3144531 6.3144531 L 6.3125 6.3144531 C 6.1853877 6.4418435 6.0762998 6.5834686 5.9570312 6.7167969 A 2.2809732 2.2809732 0 0 1 5.9980469 6.7832031 A 2.2809732 2.2809732 0 0 1 9.1875 5.9375 A 2.2809732 2.2809732 0 0 1 9.1894531 5.9375 C 9.2063401 5.92805 9.2232924 5.9194973 9.2402344 5.9101562 C 9.4288997 5.8043864 9.6160771 5.6970489 9.8125 5.6074219 L 9.8144531 5.6074219 C 9.8220331 5.6039619 9.8283965 5.6010662 9.8359375 5.5976562 C 10.098213 5.4788963 10.369504 5.3772021 10.642578 5.2851562 C 10.708218 5.2630472 10.773656 5.2412431 10.839844 5.2207031 C 11.112614 5.1360021 11.389128 5.0634788 11.669922 5.0058594 L 11.671875 5.0039062 C 11.755315 4.9868192 11.839788 4.9756005 11.923828 4.9609375 C 11.930228 4.9598975 11.937039 4.9581213 11.943359 4.9570312 C 12.07566 4.9342422 12.208207 4.9131894 12.341797 4.8964844 C 12.345797 4.8959837 12.349506 4.8950413 12.353516 4.8945312 C 12.454969 4.8820483 12.558081 4.8723063 12.660156 4.8632812 C 12.79055 4.8517902 12.919498 4.8416145 13.050781 4.8359375 C 13.105691 4.8335375 13.161688 4.8334712 13.216797 4.8320312 L 13.201172 3.4277344 z M 6.0019531 8.9707031 A 2.2809732 2.2809732 0 0 1 3.9433594 10.154297 C 3.9293051 10.195965 3.9099942 10.235482 3.8964844 10.277344 C 3.7771456 10.647155 3.6796792 11.025408 3.6035156 11.408203 C 3.4868487 11.99488 3.4236933 12.59461 3.4121094 13.201172 L 4.8320312 13.216797 C 4.8334412 13.161687 4.8335275 13.105694 4.8359375 13.050781 C 4.8416175 12.919496 4.8517912 12.790552 4.8632812 12.660156 C 4.8723012 12.55808 4.8820443 12.45497 4.8945312 12.353516 C 4.8950319 12.349416 4.8959844 12.345807 4.8964844 12.341797 C 4.9131904 12.208211 4.9342422 12.07566 4.9570312 11.943359 C 4.9581212 11.936959 4.9579144 11.930148 4.9589844 11.923828 C 4.9736484 11.839788 4.9868173 11.755313 5.0039062 11.671875 L 5.0058594 11.669922 C 5.0634674 11.389108 5.1360013 11.112615 5.2207031 10.839844 C 5.2412441 10.773644 5.2650004 10.708217 5.2871094 10.642578 C 5.3791544 10.369506 5.478896 10.098211 5.5976562 9.8359375 C 5.6010763 9.8283575 5.6019987 9.8220121 5.6054688 9.8144531 L 5.6074219 9.8125 C 5.6970444 9.6160463 5.8043853 9.4289018 5.9101562 9.2402344 C 5.9194962 9.2232984 5.928046 9.2063371 5.9375 9.1894531 L 5.9375 9.1875 C 5.9682871 9.1325979 6.0032976 9.0796191 6.0351562 9.0253906 A 2.2809732 2.2809732 0 0 1 6.0019531 8.9707031 z "
     id="path2706" />
  <path
     style="opacity:0.95;fill:#bebebe;fill-opacity:0.34901962;stroke:none;stroke-width:15.76818085;stroke-opacity:1"
     d="M 6.8847656 9.859375 C 6.360306 10.892248 6.0876496 12.044842 6.1230469 13.230469 L 7.4882812 13.244141 C 7.4808312 13.029016 7.483381 12.813769 7.5 12.601562 C 7.5000824 12.600463 7.5019531 12.598756 7.5019531 12.597656 C 7.5049931 12.559066 7.5137181 12.52288 7.5175781 12.484375 C 7.5356341 12.304473 7.5571059 12.123402 7.5917969 11.947266 C 7.6762569 11.518881 7.8101668 11.104184 7.9902344 10.708984 C 8.0438654 10.591271 8.1081152 10.477098 8.1699219 10.363281 C 8.2114529 10.286881 8.2478187 10.209258 8.2929688 10.134766 A 2.2809732 2.2809732 0 0 1 6.8847656 9.859375 z "
     id="path2708" />
  <path
     style="opacity:0.95;fill:#bebebe;fill-opacity:0.34901962;stroke:none;stroke-width:15.76818085;stroke-opacity:1"
     d="M 10.601562 9.671875 C 10.560493 9.7012225 10.51853 9.7246513 10.478516 9.7558594 C 10.477794 9.7564566 10.475509 9.7590756 10.474609 9.7597656 C 10.472809 9.7611456 10.472503 9.7622919 10.470703 9.7636719 L 10.46875 9.765625 C 10.338166 9.8676908 10.212606 9.9794464 10.09375 10.097656 L 10.091797 10.099609 L 10.089844 10.101562 C 9.9732387 10.218822 9.8646036 10.342043 9.7636719 10.470703 C 9.7622919 10.472503 9.7591925 10.474762 9.7578125 10.476562 C 9.7578125 10.476562 9.7558594 10.478516 9.7558594 10.478516 C 9.7240494 10.519226 9.7000159 10.563727 9.6699219 10.605469 C 9.6437709 10.641969 9.61869 10.677601 9.59375 10.714844 C 9.555174 10.772234 9.5123146 10.827588 9.4765625 10.886719 C 9.4015375 11.010592 9.3369139 11.140796 9.2753906 11.271484 C 9.2663006 11.290694 9.2529226 11.306832 9.2441406 11.326172 C 9.2435132 11.327672 9.2448061 11.328578 9.2441406 11.330078 C 9.1081792 11.630235 9.006856 11.946323 8.9433594 12.271484 C 8.9010334 12.488204 8.8815109 12.710618 8.8730469 12.933594 C 8.8706569 12.994284 8.8689906 13.054264 8.8691406 13.115234 C 8.869335 13.162974 8.8664575 13.209888 8.8671875 13.257812 L 10.21875 13.273438 C 10.21715 13.228817 10.209054 13.183311 10.208984 13.138672 C 10.208748 13.103002 10.209837 13.066771 10.210938 13.03125 C 10.216337 12.873119 10.230176 12.713932 10.259766 12.560547 C 10.277006 12.471337 10.300852 12.385771 10.326172 12.298828 C 10.332672 12.276098 10.33664 12.251036 10.34375 12.228516 L 10.34375 12.226562 L 10.345703 12.224609 C 10.350803 12.208669 10.357961 12.195498 10.363281 12.179688 C 10.426481 11.99373 10.508093 11.81442 10.607422 11.644531 C 10.615822 11.630151 10.620306 11.613869 10.628906 11.599609 C 10.687296 11.503089 10.752518 11.41001 10.822266 11.320312 C 10.893836 11.228692 10.967661 11.139973 11.050781 11.056641 C 11.133761 10.973891 11.223011 10.897386 11.314453 10.826172 C 11.314453 10.826172 11.316406 10.824219 11.316406 10.824219 C 11.407316 10.753279 11.503628 10.688161 11.601562 10.628906 C 11.615823 10.620306 11.630131 10.613829 11.644531 10.605469 C 11.814426 10.506139 11.995685 10.426479 12.181641 10.363281 C 12.197491 10.357981 12.210653 10.34881 12.226562 10.34375 L 12.228516 10.34375 L 12.230469 10.34375 C 12.252989 10.33655 12.276098 10.332702 12.298828 10.326172 C 12.385768 10.300852 12.475241 10.275063 12.564453 10.257812 C 12.717838 10.228212 12.87312 10.216318 13.03125 10.210938 C 13.06677 10.209838 13.104963 10.206931 13.140625 10.207031 C 13.184465 10.207098 13.227658 10.21735 13.271484 10.21875 L 13.267578 9.7636719 A 2.2809732 2.2809732 0 0 1 10.601562 9.671875 z "
     id="path2710" />
  <path
     style="opacity:0.95;fill:#bebebe;fill-opacity:0.34901962;stroke:none;stroke-width:15.76818085;stroke-opacity:1"
     d="m 13.206038,11.552626 -0.0013,0.0013 c -0.108935,-0.0017 -0.217458,0.0074 -0.323914,0.02732 l -0.0013,0.0013 c -0.105954,0.01999 -0.211197,0.04989 -0.310904,0.08976 l -0.0013,0.0013 -0.0013,0.0013 c -0.09982,0.04011 -0.196182,0.08849 -0.286188,0.146997 -0.0019,0.0012 -0.0021,0.004 -0.0039,0.0052 h -0.0013 c -0.08999,0.05852 -0.175185,0.12712 -0.251065,0.202934 -0.07455,0.07461 -0.138389,0.157811 -0.196429,0.245861 -0.0013,0.0019 -0.004,0.0021 -0.0052,0.0039 -0.05852,0.09 -0.106889,0.186366 -0.146998,0.286189 l -0.0013,0.0013 -0.0013,0.0013 c -0.03987,0.09971 -0.06976,0.204951 -0.08976,0.310906 l -0.0013,0.0013 c -0.01992,0.106459 -0.02898,0.214979 -0.02733,0.323914 l -0.0013,0.0013 c 0.0017,0.109301 0.01447,0.217851 0.03772,0.325214 0.04651,0.214725 0.13555,0.422412 0.258871,0.606198 0.06165,0.0919 0.13098,0.17661 0.209437,0.254968 0.0784,0.07832 0.16435,0.149081 0.256269,0.21074 0.183843,0.123307 0.391521,0.212293 0.606198,0.258869 0.10734,0.02328 0.215991,0.03743 0.325213,0.03902 l 0.0013,-0.0013 c 0.21899,0.0029 0.436341,-0.04099 0.637419,-0.122281 0.09945,-0.0402 0.195466,-0.08848 0.284888,-0.146996 0.09021,-0.05892 0.174867,-0.126936 0.251065,-0.202934 l 0.0039,-0.0039 0.0039,-0.0039 c 0.074,-0.07421 0.138581,-0.155747 0.196429,-0.24326 0.0016,-0.0023 0.0036,-0.0041 0.0052,-0.0066 0.05852,-0.08942 0.106789,-0.185443 0.146998,-0.284886 0.08129,-0.20108 0.125302,-0.41843 0.12228,-0.637419 l 0.0013,-0.0013 c -0.0016,-0.109223 -0.01575,-0.217875 -0.03902,-0.325213 -0.04657,-0.214679 -0.135562,-0.422354 -0.25887,-0.606199 -0.06165,-0.09192 -0.132418,-0.17788 -0.210739,-0.256269 -0.07836,-0.07845 -0.163075,-0.147778 -0.254968,-0.209439 -0.183785,-0.123321 -0.391473,-0.212358 -0.606198,-0.25887 -0.107365,-0.02326 -0.215912,-0.03608 -0.325214,-0.03772 z"
     id="path2712"
     inkscape:connector-curvature="0"
     sodipodi:nodetypes="cccccccccccccccccccccccccccccccccccccccccccc" />
  <path
     inkscape:connector-curvature="0"
     d="m 5.275,7.8776977 a 1.275,1.275 0 0 1 -2.55,0 1.275,1.275 0 1 1 2.55,0 z"
     style="fill:#bebebe;stroke-width:0.85000002"
     id="path4955" />
  <path
     inkscape:connector-curvature="0"
     d="m 9.275,7.8776977 a 1.275,1.275 0 0 1 -2.55,0 1.275,1.275 0 1 1 2.55,0 z"
     style="fill:#bebebe;stroke-width:0.85000002"
     id="path4957" />
  <path
     inkscape:connector-curvature="0"
     d="m 13.275,7.8776977 a 1.275,1.275 0 0 1 -2.55,0 1.275,1.275 0 1 1 2.55,0 z"
     style="fill:#bebebe;stroke-width:0.85000002"
     id="path4959" />
</svg>
