<?xml version="1.0" encoding="UTF-8" standalone="no"?>
<!-- Created with Inkscape (http://www.inkscape.org/) -->

<svg
   xmlns:dc="http://purl.org/dc/elements/1.1/"
   xmlns:cc="http://creativecommons.org/ns#"
   xmlns:rdf="http://www.w3.org/1999/02/22-rdf-syntax-ns#"
   xmlns:svg="http://www.w3.org/2000/svg"
   xmlns="http://www.w3.org/2000/svg"
   xmlns:sodipodi="http://sodipodi.sourceforge.net/DTD/sodipodi-0.dtd"
   xmlns:inkscape="http://www.inkscape.org/namespaces/inkscape"
   id="svg7854"
   height="16"
   width="16"
   version="1.0"
   inkscape:version="0.48.3.1 r9886"
   sodipodi:docname="printer-symbolic.svg"
   inkscape:export-filename="/usr/share/icons/Karasa Jaga/scalable/status/media-playlist-repeat.png"
   inkscape:export-xdpi="90"
   inkscape:export-ydpi="90">
  <metadata
     id="metadata5314">
    <rdf:RDF>
      <cc:Work
         rdf:about="">
        <dc:format>image/svg+xml</dc:format>
        <dc:type
           rdf:resource="http://purl.org/dc/dcmitype/StillImage" />
        <dc:title></dc:title>
      </cc:Work>
    </rdf:RDF>
  </metadata>
  <sodipodi:namedview
     pagecolor="#ffffff"
     bordercolor="#666666"
     borderopacity="1"
     objecttolerance="10"
     gridtolerance="10"
     guidetolerance="10"
     inkscape:pageopacity="0"
     inkscape:pageshadow="2"
     inkscape:window-width="1366"
     inkscape:window-height="696"
     id="namedview5312"
     showgrid="false"
     inkscape:zoom="6.9532167"
     inkscape:cx="-18.934123"
     inkscape:cy="-3.0738384"
     inkscape:window-x="0"
     inkscape:window-y="0"
     inkscape:window-maximized="1"
     inkscape:current-layer="svg7854" />
  <defs
     id="defs7856">
    <linearGradient
       id="linearGradient5841">
      <stop
         style="stop-color:#37e700;stop-opacity:1;"
         offset="0"
         id="stop5843" />
      <stop
         id="stop5849"
         offset="0.5"
         style="stop-color:#3dfe00;stop-opacity:1;" />
      <stop
         style="stop-color:#2aad00;stop-opacity:1;"
         offset="1"
         id="stop5845" />
    </linearGradient>
    <linearGradient
       id="linearGradient4117"
       y2="34.612"
       gradientUnits="userSpaceOnUse"
       x2="22.402"
       y1="15.722"
       x1="22.146999">
      <stop
         id="stop4113"
         style="stop-color:#fff"
         offset="0" />
      <stop
         id="stop4115"
         style="stop-color:#fff;stop-opacity:0"
         offset="1" />
    </linearGradient>
    <linearGradient
       id="linearGradient3696"
       y2="21"
       gradientUnits="userSpaceOnUse"
       x2="15"
       y1="2"
       x1="15">
      <stop
         id="stop3700"
         style="stop-color:#eeeeec"
         offset="0" />
      <stop
         id="stop3702"
         style="stop-color:#babdb6"
         offset=".79220" />
      <stop
         id="stop3704"
         style="stop-color:#a1a59b"
         offset="1" />
    </linearGradient>
  </defs>
  <rect
     x="4.4685917"
     y="1.2387612"
     width="7.0313687"
     height="4.9664774"
     id="rect363"
     style="fill:#bebebe;fill-opacity:1" />
  <path
     style="fill:#bebebe;fill-opacity:1"
     d="M 2.65625 5.75 L 2.53125 6.09375 L 2.0625 6.09375 C 1.6330306 6.5460147 1.4272201 6.9852338 1.25 7.4375 C 1.0874352 9.5104246 1.0874352 10.39594 1.25 12.46875 L 1.46875 12.46875 L 3.28125 12.46875 L 3.28125 11.1875 C 3.28125 11.12209 3.294072 11.058097 3.3125 11 L 3.3125 10.90625 C 3.3125 10.641398 3.541598 10.40625 3.8125 10.40625 L 12.15625 10.40625 C 12.42715 10.40625 12.65625 10.641398 12.65625 10.90625 L 12.65625 11 C 12.67475 11.05809 12.6875 11.122041 12.6875 11.1875 L 12.6875 12.46875 L 14.5 12.46875 L 14.71875 12.46875 C 14.881427 10.39594 14.881427 9.5104246 14.71875 7.4375 C 14.510663 7.011924 14.381676 6.6399644 13.90625 6.09375 L 13.4375 6.09375 L 13.3125 5.75 L 12.25 5.75 L 12.34375 6.09375 L 11.9375 6.09375 L 11.9375 7 L 4.03125 7 L 4.03125 6.09375 L 3.59375 6.09375 L 3.65625 5.75 L 2.65625 5.75 z M 13.375 9.53125 C 13.613663 9.53125 13.78125 9.7303969 13.78125 9.96875 C 13.78125 10.207417 13.613663 10.40625 13.375 10.40625 C 13.13649 10.40625 12.9375 10.207417 12.9375 9.96875 C 12.9375 9.7303969 13.13649 9.5314095 13.375 9.53125 z M 13.3125 10.6875 C 13.486937 10.6875 13.625 10.825677 13.625 11 C 13.625 11.174551 13.486939 11.34375 13.3125 11.34375 C 13.138064 11.34375 13 11.174551 13 11 C 13 10.825677 13.138064 10.687385 13.3125 10.6875 z M 1.1875 12.5 L 1.375 13.34375 C 1.387532 13.42273 1.4336381 13.430579 1.5 13.4375 L 3.4375 13.40625 L 3.40625 12.53125 L 1.1875 12.5 z M 14.875 12.5 L 12.625 12.53125 L 12.59375 13.40625 L 14.53125 13.4375 C 14.59761 13.4305 14.674982 13.422734 14.6875 13.34375 L 14.875 12.5 z "
     id="polygon76" />
  <path
     style="fill:#bebebe;fill-opacity:1"
     d="M 4.78125 11.3125 L 4.34375 15.53125 L 11.625 15.53125 L 11.1875 11.3125 L 4.78125 11.3125 z M 6.96875 12 L 9 12 L 9 13 L 11 13 L 8.03125 15 L 5 13 L 7 13 L 6.96875 12 z "
     id="rect4186" />
</svg>
