<?xml version="1.0" encoding="UTF-8" standalone="no"?>
<!-- Created with Inkscape (http://www.inkscape.org/) -->

<svg
   xmlns:dc="http://purl.org/dc/elements/1.1/"
   xmlns:cc="http://creativecommons.org/ns#"
   xmlns:rdf="http://www.w3.org/1999/02/22-rdf-syntax-ns#"
   xmlns:svg="http://www.w3.org/2000/svg"
   xmlns="http://www.w3.org/2000/svg"
   version="1.0"
   width="16"
   height="16"
   id="svg7854">
  <metadata
     id="metadata5314">
    <rdf:RDF>
      <cc:Work
         rdf:about="">
        <dc:format>image/svg+xml</dc:format>
        <dc:type
           rdf:resource="http://purl.org/dc/dcmitype/StillImage" />
        <dc:title></dc:title>
      </cc:Work>
    </rdf:RDF>
  </metadata>
  <defs
     id="defs7856">
    <linearGradient
       id="linearGradient5841">
      <stop
         id="stop5843"
         style="stop-color:#37e700;stop-opacity:1"
         offset="0" />
      <stop
         id="stop5849"
         style="stop-color:#3dfe00;stop-opacity:1"
         offset="0.5" />
      <stop
         id="stop5845"
         style="stop-color:#2aad00;stop-opacity:1"
         offset="1" />
    </linearGradient>
    <linearGradient
       x1="22.146999"
       y1="15.722"
       x2="22.402"
       y2="34.612"
       id="linearGradient4117"
       gradientUnits="userSpaceOnUse">
      <stop
         id="stop4113"
         style="stop-color:#ffffff;stop-opacity:1"
         offset="0" />
      <stop
         id="stop4115"
         style="stop-color:#ffffff;stop-opacity:0"
         offset="1" />
    </linearGradient>
    <linearGradient
       x1="15"
       y1="2"
       x2="15"
       y2="21"
       id="linearGradient3696"
       gradientUnits="userSpaceOnUse">
      <stop
         id="stop3700"
         style="stop-color:#eeeeec;stop-opacity:1"
         offset="0" />
      <stop
         id="stop3702"
         style="stop-color:#babdb6;stop-opacity:1"
         offset="0.79220003" />
      <stop
         id="stop3704"
         style="stop-color:#a1a59b;stop-opacity:1"
         offset="1" />
    </linearGradient>
  </defs>
  <rect
     width="7.0313687"
     height="4.9664774"
     x="4.4685917"
     y="1.2387612"
     id="rect363"
     style="fill:#bebebe;fill-opacity:1" />
  <path
     d="m 2.65625,5.75 -0.125,0.34375 -0.46875,0 C 1.6330306,6.5460147 1.4272201,6.9852338 1.25,7.4375 c -0.1625648,2.0729246 -0.1625648,2.95844 0,5.03125 l 0.21875,0 1.8125,0 0,-1.28125 c 0,-0.06541 0.012822,-0.129403 0.03125,-0.1875 l 0,-0.09375 c 0,-0.264852 0.229098,-0.5 0.5,-0.5 l 5.21875,0 1.28125,-2.1875 C 10.57137,7.7690403 11.065943,7.5253442 11.53125,7.5 12.056163,7.4711545 12.597213,7.7361437 12.875,8.21875 l 1.90625,3.3125 C 14.8702,10.090237 14.853701,9.1571215 14.71875,7.4375 14.510663,7.011924 14.381676,6.6399644 13.90625,6.09375 l -0.46875,0 -0.125,-0.34375 -1.0625,0 0.09375,0.34375 -0.40625,0 0,0.90625 -7.90625,0 0,-0.90625 -0.4375,0 0.0625,-0.34375 -1,0 z M 1.1875,12.5 1.375,13.34375 c 0.012532,0.07898 0.058638,0.08683 0.125,0.09375 L 3.4375,13.40625 3.40625,12.53125 1.1875,12.5 z"
     id="polygon76"
     style="fill:#bebebe;fill-opacity:1" />
  <path
     d="m 4.78125,11.3125 -0.4375,4.21875 2.25,0 C 6.4836559,15.153229 6.5455303,14.728991 6.75,14.375 l 1.78125,-3.0625 -3.75,0 z M 11.5,14.34375 c -0.06441,0.05695 -0.05805,0.09917 -0.0625,0.125 -0.0018,0.01066 -0.06311,0.02815 -0.0625,0.03125 -3.9e-4,-0.0015 0.03295,0.02935 0.03125,0.03125 -0.0017,0.0019 0.03199,0.02575 0.03125,0.03125 -4.23e-4,0.0032 -4.73e-4,0.02685 0,0.03125 0.0033,0.03069 -0.01714,0.04321 0.09375,0.125 L 11.5,14.34375 z"
     id="rect4186"
     style="fill:#bebebe;fill-opacity:1" />
  <path
     d="m 11.557012,8.3052296 c -0.219488,0.011955 -0.416764,0.1331568 -0.526356,0.3235402 L 7.4596407,14.792935 c -0.1160245,0.200869 -0.1161791,0.446298 0,0.647081 0.1161764,0.200781 0.3304554,0.323769 0.5625734,0.32354 l 7.1420299,0 c 0.232119,3.09e-4 0.446399,-0.122759 0.562574,-0.32354 0.116175,-0.200783 0.115981,-0.446212 0,-0.647081 L 12.155803,8.6287698 C 12.033554,8.4163837 11.801856,8.2917747 11.557012,8.3052296 z m -0.564988,1.5621685 1.202411,0 0,3.5347969 -1.202411,0 0,-3.5347969 z m 0.601205,4.0780549 c 0.167635,10e-7 0.310745,0.03855 0.427363,0.115895 0.116615,0.07734 0.173841,0.347573 0.173843,0.458751 -2e-6,0.106345 -0.05723,0.374162 -0.173843,0.456337 -0.116618,0.07734 -0.259728,0.115895 -0.427363,0.115895 -0.167636,0 -0.310747,-0.03855 -0.427363,-0.115895 -0.116616,-0.08217 -0.173843,-0.349992 -0.173842,-0.456337 -1e-6,-0.111178 0.05723,-0.381409 0.173842,-0.458751 0.116616,-0.07734 0.259727,-0.115894 0.427363,-0.115895 z"
     id="path4137"
     style="fill:#ff7b1d;fill-opacity:1;fill-rule:evenodd;stroke:none" />
</svg>
