<?xml version="1.0" encoding="UTF-8" standalone="no"?>
<!-- Created with Inkscape (http://www.inkscape.org/) -->

<svg
   xmlns:dc="http://purl.org/dc/elements/1.1/"
   xmlns:cc="http://creativecommons.org/ns#"
   xmlns:rdf="http://www.w3.org/1999/02/22-rdf-syntax-ns#"
   xmlns:svg="http://www.w3.org/2000/svg"
   xmlns="http://www.w3.org/2000/svg"
   version="1.1"
   width="16"
   height="16"
   id="svg12722">
  <defs
     id="defs12724">
    <linearGradient
       x1="15"
       y1="2"
       x2="15"
       y2="21"
       id="linearGradient3696"
       gradientUnits="userSpaceOnUse">
      <stop
         id="stop3700"
         style="stop-color:#eeeeec;stop-opacity:1"
         offset="0" />
      <stop
         id="stop3702"
         style="stop-color:#babdb6;stop-opacity:1"
         offset="0.79220003" />
      <stop
         id="stop3704"
         style="stop-color:#a1a59b;stop-opacity:1"
         offset="1" />
    </linearGradient>
    <linearGradient
       x1="22.146999"
       y1="15.722"
       x2="22.402"
       y2="34.612"
       id="linearGradient4117"
       gradientUnits="userSpaceOnUse">
      <stop
         id="stop4113"
         style="stop-color:#ffffff;stop-opacity:1"
         offset="0" />
      <stop
         id="stop4115"
         style="stop-color:#ffffff;stop-opacity:0"
         offset="1" />
    </linearGradient>
    <linearGradient
       id="linearGradient5841">
      <stop
         id="stop5843"
         style="stop-color:#37e700;stop-opacity:1"
         offset="0" />
      <stop
         id="stop5849"
         style="stop-color:#3dfe00;stop-opacity:1"
         offset="0.5" />
      <stop
         id="stop5845"
         style="stop-color:#2aad00;stop-opacity:1"
         offset="1" />
    </linearGradient>
  </defs>
  <metadata
     id="metadata12727">
    <rdf:RDF>
      <cc:Work
         rdf:about="">
        <dc:format>image/svg+xml</dc:format>
        <dc:type
           rdf:resource="http://purl.org/dc/dcmitype/StillImage" />
        <dc:title></dc:title>
      </cc:Work>
    </rdf:RDF>
  </metadata>
  <g
     id="layer1">
    <path
       d="m 8,0.875 c -3.4883525,0 -6.3125,2.8241475 -6.3125,6.3125 0,3.488352 2.8241475,6.3125 6.3125,6.3125 0.6660129,0 1.3034737,-0.05891 1.90625,-0.25 l 3.375,2.125 -1.3125,-3.3125 C 13.379081,10.904108 14.3125,9.1550164 14.3125,7.1875 14.3125,3.6991475 11.488352,0.875 8,0.875 z m 0,1.4375 c 2.710227,0 4.875,2.1647723 4.875,4.875 0,1.511542 -0.711111,2.845361 -1.8125,3.75 a 1.4418393,1.4418393 0 0 0 -0.53125,1 1.4418393,1.4418393 0 0 0 -1.0625,-0.0625 C 9.0637208,12.003401 8.5809993,12.0625 8,12.0625 5.2897723,12.0625 3.125,9.8977272 3.125,7.1875 3.125,4.4772721 5.2897721,2.3125 8,2.3125 z"
       id="rect11261"
       style="color:#bebebe;fill:#bebebe" />
  </g>
</svg>
