<?xml version="1.0" encoding="UTF-8" standalone="no"?>
<svg
   xmlns:dc="http://purl.org/dc/elements/1.1/"
   xmlns:cc="http://creativecommons.org/ns#"
   xmlns:rdf="http://www.w3.org/1999/02/22-rdf-syntax-ns#"
   xmlns:svg="http://www.w3.org/2000/svg"
   xmlns="http://www.w3.org/2000/svg"
   xmlns:sodipodi="http://sodipodi.sourceforge.net/DTD/sodipodi-0.dtd"
   xmlns:inkscape="http://www.inkscape.org/namespaces/inkscape"
   height="16"
   width="16"
   version="1.1"
   id="svg10"
   sodipodi:docname="accessories-character-map-symbolic.svg"
   inkscape:version="0.92.4 (unknown)">
  <metadata
     id="metadata16">
    <rdf:RDF>
      <cc:Work
         rdf:about="">
        <dc:format>image/svg+xml</dc:format>
        <dc:type
           rdf:resource="http://purl.org/dc/dcmitype/StillImage" />
        <dc:title></dc:title>
      </cc:Work>
    </rdf:RDF>
  </metadata>
  <defs
     id="defs14" />
  <sodipodi:namedview
     pagecolor="#ffffff"
     bordercolor="#666666"
     borderopacity="1"
     objecttolerance="10"
     gridtolerance="10"
     guidetolerance="10"
     inkscape:pageopacity="0"
     inkscape:pageshadow="2"
     inkscape:window-width="1366"
     inkscape:window-height="706"
     id="namedview12"
     showgrid="true"
     inkscape:zoom="14.75"
     inkscape:cx="2.3457159"
     inkscape:cy="3.8704902"
     inkscape:window-x="0"
     inkscape:window-y="0"
     inkscape:window-maximized="1"
     inkscape:current-layer="svg10">
    <inkscape:grid
       type="xygrid"
       id="grid823" />
  </sodipodi:namedview>
  <path
     style="opacity:1;fill:#bebebe;fill-opacity:1;stroke:none;stroke-width:1;stroke-miterlimit:4;stroke-dasharray:none;stroke-opacity:1"
     d="M 2.5,1 C 1.669,1 1,1.446 1,2 v 12 c 0,0.554 0.669,1 1.5,1 h 11 C 14.331,15 15,14.554 15,14 V 2 C 15,1.446 14.331,1 13.5,1 Z m 2,1 h 7 C 12.331,2 13,2.446 13,3 v 9 c 0,0.554 -0.700974,0.771707 -1.5,1 -2.3333333,0.666667 -4.6666667,0.666667 -7,0 C 3.7009736,12.771707 3,12.554 3,12 V 3 C 3,2.446 3.669,2 4.5,2 Z"
     id="rect830"
     inkscape:connector-curvature="0"
     sodipodi:nodetypes="ssssssssssssssssss" />
  <path
     style="fill:#bebebe;stroke-width:0.31194767"
     inkscape:connector-curvature="0"
     id="path4"
     d="M 7.4671342,11.760956 7.424485,10.834861 H 7.375743 c -0.1706009,0.182783 -0.3371353,0.341194 -0.4996037,0.475233 -0.158415,0.129979 -0.3249494,0.237617 -0.4996037,0.322915 -0.1746617,0.0853 -0.3635361,0.148256 -0.5666237,0.188874 -0.2030939,0.04062 -0.4325865,0.06093 -0.6884783,0.06093 -0.2802677,0 -0.5300693,-0.04062 -0.7494055,-0.121855 -0.2193396,-0.07718 -0.4000903,-0.197 -0.5422527,-0.359473 C 3.6916726,11.234951 3.5982508,11.027799 3.54951,10.780027 3.5048291,10.528195 3.5149836,10.231683 3.5799735,9.8904886 3.7140124,9.2243528 4.0511431,8.7125642 4.5913664,8.3551211 5.1315858,7.9976849 5.8850524,7.8027176 6.8517685,7.7702192 L 7.9789232,7.7275701 8.0642216,7.3071719 C 8.1210816,7.0350347 8.1373288,6.807573 8.1129635,6.6247863 8.0926494,6.4420097 8.0378143,6.2957845 7.9484596,6.1861099 7.8590943,6.0723847 7.735209,5.9911482 7.5768032,5.9424008 7.4224493,5.8936649 7.2396676,5.869294 7.0284576,5.8692881 6.6913226,5.869294 6.3684084,5.9180358 6.0597138,6.0155135 5.7510125,6.1130028 5.4484073,6.2307955 5.1518974,6.3688916 L 4.9264664,5.5341879 C 5.2595329,5.3717215 5.6230654,5.2336198 6.0170648,5.1198824 6.4110574,5.0061582 6.8111461,4.9492929 7.2173322,4.949286 c 0.4143005,6.9e-6 0.7636166,0.042656 1.0479494,0.1279472 0.2843213,0.081243 0.507721,0.2132522 0.6701999,0.3960276 0.1624664,0.1787261 0.2640116,0.4082185 0.3046366,0.6884782 0.040612,0.2802707 0.020302,0.6194323 -0.060928,1.0174857 L 8.2652816,11.760956 H 7.4671341 M 5.5844811,10.98718 c 0.2477678,0 0.485384,-0.03859 0.7128493,-0.115762 0.2274579,-0.07717 0.4325795,-0.192935 0.6153655,-0.347286 C 7.0995351,10.365723 7.2599768,10.168725 7.3940214,9.9331377 7.5321183,9.6934924 7.6336637,9.4132272 7.6986578,9.0923412 L 7.8144196,8.489161 6.9370668,8.5318102 C 6.5674374,8.5480595 6.2526467,8.5886789 5.9926939,8.6536647 5.7327344,8.7186569 5.5154273,8.8100479 5.340772,8.9278374 5.1701731,9.0415711 5.0361332,9.1817038 4.938652,9.3482358 4.8411661,9.5107108 4.7721153,9.6955234 4.7314992,9.902674 c -0.073115,0.373689 -0.030466,0.647861 0.1279473,0.822518 0.1624704,0.174659 0.4041484,0.261988 0.7250346,0.261988" />
  <path
     style="fill:#bebebe;stroke-width:0.94755346"
     inkscape:connector-curvature="0"
     id="path6"
     d="M 6.2574656,2.8401501 7.5101634,4.4782932 8.3774155,4.574655 7.5101634,2.7759095 Z" />
</svg>
