<svg height="16" width="16" xmlns="http://www.w3.org/2000/svg"><g fill="#bebebe"><path d="m2.5 1c-.831 0-1.5.446-1.5 1v12c0 .554.669 1 1.5 1h11c.831 0 1.5-.446 1.5-1v-12c0-.554-.669-1-1.5-1zm2 1h7c.831 0 1.5.446 1.5 1v9c0 .554-.700974.771707-1.5 1-2.3333333.666667-4.6666667.666667-7 0-.7990264-.228293-1.5-.446-1.5-1v-9c0-.554.669-1 1.5-1z"/><path d="m7.4671342 11.760956-.0426492-.926095h-.048742c-.1706009.182783-.3371353.341194-.4996037.475233-.158415.129979-.3249494.237617-.4996037.322915-.1746617.0853-.3635361.148256-.5666237.188874-.2030939.04062-.4325865.06093-.6884783.06093-.2802677 0-.5300693-.04062-.7494055-.121855-.2193396-.07718-.4000903-.197-.5422527-.359473-.1381028-.166534-.2315246-.373686-.2802654-.621458-.0446809-.251832-.0345264-.548344.0304635-.8895384.1340389-.6661358.4711696-1.1779244 1.0113929-1.5353675.5402194-.3574362 1.293686-.5524035 2.2604021-.5849019l1.1271547-.0426491.0852984-.4203982c.05686-.2721372.0731072-.4995989.0487419-.6823856-.0203141-.1827766-.0751492-.3290018-.1645039-.4386764-.0893653-.1137252-.2132506-.1949617-.3716564-.2437091-.1543539-.0487359-.3371356-.0731068-.5483456-.0731127-.337135.0000059-.6600492.0487477-.9687438.1462254-.3087013.0974893-.6113065.215282-.9078164.3533781l-.225431-.8347037c.3330665-.1624664.696599-.3005681 1.0905984-.4143055.3939926-.1137242.7940813-.1705895 1.2002674-.1705964.4143005.0000069.7636166.042656 1.0479494.1279472.2843213.081243.507721.2132522.6701999.3960276.1624664.1787261.2640116.4082185.3046366.6884782.040612.2802707.020302.6194323-.060928 1.0174857l-.9139085 4.5817313h-.7981475m-1.882653-.773776c.2477678 0 .485384-.03859.7128493-.115762.2274579-.07717.4325795-.192935.6153655-.347286.1868392-.158409.3472809-.355407.4813255-.5909943.1380969-.2396453.2396423-.5199105.3046364-.8407965l.1157618-.6031802-.8773528.0426492c-.3696294.0162493-.6844201.0568687-.9443729.1218545-.2599595.0649922-.4772666.1563832-.6519219.2741727-.1705989.1137337-.3046388.2538664-.40212.4203984-.0974859.162475-.1665367.3472876-.2071528.5544382-.073115.373689-.030466.647861.1279473.822518.1624704.174659.4041484.261988.7250346.261988" stroke-width=".311948"/><path d="m6.2574656 2.8401501 1.2526978 1.6381431.8672521.0963618-.8672521-1.7987455z" stroke-width=".947553"/></g></svg>