<svg height="16" width="16" xmlns="http://www.w3.org/2000/svg"><g fill="#bebebe"><path d="m11.207244.45971509-10.1593581 2.22563271 2.4874719 12.4373592 10.0022552-2.382736-.288023-3.4824607-.60223-2.5398397-1.021173 1.518667.261839 1.3091958.183287 2.0423456-1.754322.523678-5.6819088 1.230644-1.9899775-9.7666001 7.6718863-1.5710349.549862 2.6969432.994989-1.3877475z"/><path d="m13.907249 1.574547-5.9448273 8.435228-.401678 1.847717 1.4460392-1.044362 5.9164251-8.6478316c-.29098-.6259703-.650523-.634884-1.015959-.5907514z"/><rect height="1.257059" opacity=".780992" rx="1.035225" ry="1.15469" transform="matrix(.96783294 -.25159372 .25159372 .96783294 0 0)" width="7.246572" x="1.858155" y="5.622566"/><path d="m9.4375 5.5625c-.1144663-.0030192-.2518093-.0007741-.375.03125l-4.4375 1.15625c-.4927628.1280965-.8063562.5067455-.71875.84375s.5384872.5030965 1.03125.375l4.4375-1.15625.6875-.96875c-.1137119-.176007-.3449978-.2738646-.625-.28125z" opacity=".780992"/><path d="m8.78125 7.65625-3.59375.9375c-.5324104.1384031-.9001062.5067455-.8125.84375s.5925896.5134031 1.125.375l2.15625-.5625z" opacity=".780992"/><path d="m7.25 10.1875-1.84375.5c-.3624922.094232-.5876062.412996-.5.75s.4500078.531732.8125.4375l1.21875-.3125z" opacity=".780992"/></g></svg>