<svg height="16" width="16" xmlns="http://www.w3.org/2000/svg"><g fill="#bebebe" transform="matrix(.94755343 0 0 .94755343 -33.218574 8.621832)"><path d="m37.75-8.34375c-.879054 0-1.5625.7806431-1.5625 1.71875v11.9375c0 .9381069.683446 1.71875 1.5625 1.71875h11.5c.879054 0 1.5625-.7806431 1.5625-1.71875v-11.9375c0-.9381069-.683446-1.71875-1.5625-1.71875zm.75 1.8125h10.34375c.03763 0 .108528.053822.1875.1875.07897.1336777.15625.3329637.15625.5625v9.65625c-1.53281.5374265-3.305497.84375-5.1875.84375-2.156734 0-4.136761-.4335618-5.8125-1.125v-9.375c0-.2339304.05239-.4295685.125-.5625s.149872-.1875.1875-.1875z" opacity=".780992"/><path d="m8.2340441-1.4915254-.1367188-2.96875h-.15625c-.5468896.5859399-1.0807433 1.0937519-1.6015625 1.5234375-.5078256.4166677-1.0416792.7617194-1.6015625 1.0351562-.5599072.2734377-1.1653754.4752604-1.8164062.6054688-.6510512.130208-1.3867276.1953121-2.20703127.1953125-.89844458-.0000004-1.69922502-.1302086-2.40234373-.390625-.7031299-.2473956-1.2825564-.6315098-1.7382813-1.1523438-.4427117-.5338524-.7421906-1.1979143-.8984375-1.9921875-.1432319-.8072877-.1106799-1.7578076.097656-2.8515625.429684-2.1354085 1.5104121-3.7760318 3.24218748-4.9218748 1.73176283-1.145821 4.14712502-1.770821 7.24609372-1.875l3.6132813-.136719.2734382-1.347656c.182274-.872381.234357-1.601547.15625-2.1875-.06512-.585921-.240903-1.05467-.5273445-1.40625-.2864751-.364565-.6836101-.624982-1.1914062-.78125-.494807-.156231-1.080744-.234356-1.7578125-.234375-1.0807422.000019-2.1158974.156269-3.1054688.46875-.9895933.312518-1.9596444.690122-2.91015622 1.132812l-.72265625-2.675781c1.06769987-.520813 2.23306337-.963521 3.49609377-1.328125 1.2630087-.364562 2.5455595-.546853 3.8476562-.546875 1.328109.000022 2.4478996.136741 3.3593755.410156.911439.260438 1.627584.683615 2.148437 1.269532.520813.572936.846333 1.308612.976563 2.207031.130187.898454.06508 1.985693-.195313 3.261719l-2.929687 14.6874996h-2.5585942m-6.035156-2.4804688c.7942606.0000025 1.5559786-.1236953 2.2851563-.3710937.7291542-.2473927 1.3867056-.6184861 1.9726562-1.1132813.598944-.507808 1.1132665-1.1393178 1.5429688-1.8945312.4426926-.7682226.7682131-1.6666592.9765625-2.6953126l.3710937-1.933594-2.8125.136719c-1.1849084.05209-2.194022.182302-3.0273437.390625-.8333433.208343-1.5299572.501312-2.0898438.878906-.5468831.364592-.97657017.8138107-1.28906247 1.3476566-.31250708.5208405-.53386102 1.1132879-.6640625 1.7773437-.23438149 1.1979215-.0976629 2.0768268.41015625 2.6367188.52082568.5598986 1.29556452.8398462 2.32421872.8398437" transform="matrix(.32921382 0 0 .32921382 40.226879 3.803904)"/><path d="m41.661017-6.1016949 1.322034 1.7288135.915254.1016953-.915254-1.898305z"/></g></svg>