<svg height="16" viewBox="0 0 4.2333332 4.2333335" width="16" xmlns="http://www.w3.org/2000/svg"><g fill="#bebebe" transform="translate(0 -292.76665)"><path d="m1.1354197 292.99778c-.23277832-.004-.6404712.24811-.6404712.68504v2.67703c0 .23282.19169401.42451.42450451.42451h2.56400719c.3056433.008.2536415-.2685.2536415-.2685l-2.5364145.007c-.62015962.002-.56627643-.81278-.010082-.81346l2.5560477-.003-.1947415-2.66589zm1.3913135.56565h.2780504v.56034c.064056-.0793.1481693-.11886.2525803-.11886.1268303 0 .2259413.0491.2976838.14805.072383.0983.1087791.23712.1087791.41601v.0165c0 .17619-.035555.31337-.1066567.4123-.071102.0983-.1702129.14752-.2976838.14752-.1127381 0-.2028325-.046-.2700911-.13743l-.012735.11726h-.249927zm-.9561964.0817h.2669072l.5237324 1.47992h-.3061738l-.097105-.30511h-.5056914l-.096044.30511h-.306174zm.1337189.37409-.1740468.55398h.3496855zm1.2830648.22446c-.088397 0-.1492278.038-.1825369.11461v.43406c.03395.0772.095092.11621.184129.11621.089678 0 .149046-.0471.1772304-.14062.013452-.0447.020164-.11279.020164-.20429 0-.11113-.017101-.19167-.05041-.2425-.033309-.0515-.082599-.0775-.1485766-.0775z"/><path d="m.62791555 295.71476h2.83856455c-.3216155.13372-.3519924.66794 0 .81505h-2.83856455z" opacity=".3"/></g></svg>