<svg height="16" width="16" xmlns="http://www.w3.org/2000/svg"><path d="m50.031 398c-.54216 0-1 .32904-1 .9375v14.125c0 .58636.37667.9375 1 .9375h13.031c.521 0 .938-.35.938-.94v-14.125c0-.54-.395-.94-.938-.94h-13.031zm.969 2.03h11.031v2.9688h-11.031v-2.97zm.188 3.97h1.625c.11 0 .187.08.187.19v1.625c0 .1-.077.18-.188.18h-1.625c-.11 0-.187-.08-.187-.19v-1.625c0-.1.077-.18.188-.18zm3 0h1.625c.11 0 .187.08.187.19v1.625c0 .1-.077.18-.188.18h-1.625c-.11 0-.187-.08-.187-.19v-1.625c0-.1.077-.18.188-.18zm3 0h1.625c.11 0 .187.08.187.19v1.625c0 .1-.077.18-.188.18h-1.625c-.11 0-.187-.08-.187-.19v-1.625c0-.1.077-.18.188-.18zm3 0h1.625c.11 0 .187.08.187.19v1.625c0 .1-.077.18-.188.18h-1.625c-.11 0-.187-.08-.187-.19v-1.625c0-.1.077-.18.188-.18zm-9 3h1.625c.11 0 .187.08.187.19v1.625c0 .1-.077.18-.188.18h-1.625c-.11 0-.187-.08-.187-.19v-1.625c0-.1.077-.18.188-.18zm3 0h1.625c.11 0 .187.08.187.19v1.625c0 .1-.077.18-.188.18h-1.625c-.11 0-.187-.08-.187-.19v-1.625c0-.1.077-.18.188-.18zm3 0h1.625c.11 0 .187.08.187.19v1.625c0 .1-.077.18-.188.18h-1.625c-.11 0-.187-.08-.187-.19v-1.625c0-.1.077-.18.188-.18zm3 0h1.625c.11 0 .187.08.187.19v1.625c0 .1-.077.18-.188.18h-1.625c-.11 0-.187-.08-.187-.19v-1.625c0-.1.077-.18.188-.18zm-9 3h1.625c.11 0 .187.08.187.19v1.625c0 .1-.077.18-.188.18h-1.625c-.11 0-.187-.08-.187-.19v-1.625c0-.1.077-.18.188-.18zm3 0h1.625c.11 0 .187.08.187.19v1.625c0 .1-.077.18-.188.18h-1.625c-.11 0-.187-.08-.187-.19v-1.625c0-.1.077-.18.188-.18zm3 0h1.625c.11 0 .187.08.187.19v1.625c0 .1-.077.18-.188.18h-1.625c-.11 0-.187-.08-.187-.19v-1.625c0-.1.077-.18.188-.18zm3 0h1.625c.11 0 .187.08.187.19v1.625c0 .1-.077.18-.188.18h-1.625c-.11 0-.187-.08-.187-.19v-1.625c0-.1.077-.18.188-.18z" fill="#bebebe" transform="matrix(.77807242 0 0 1 -35.973152 -397.9975)"/></svg>