<?xml version="1.0" encoding="UTF-8" standalone="no"?>
<!-- Created with Inkscape (http://www.inkscape.org/) -->

<svg
   xmlns:dc="http://purl.org/dc/elements/1.1/"
   xmlns:cc="http://creativecommons.org/ns#"
   xmlns:rdf="http://www.w3.org/1999/02/22-rdf-syntax-ns#"
   xmlns:svg="http://www.w3.org/2000/svg"
   xmlns="http://www.w3.org/2000/svg"
   xmlns:sodipodi="http://sodipodi.sourceforge.net/DTD/sodipodi-0.dtd"
   xmlns:inkscape="http://www.inkscape.org/namespaces/inkscape"
   width="16"
   height="16"
   viewBox="0 0 4.2333332 4.2333335"
   version="1.1"
   id="svg823"
   inkscape:version="0.92.2 (unknown)"
   sodipodi:docname="accessories-dictionary-symbolic.svg">
  <defs
     id="defs817" />
  <sodipodi:namedview
     id="base"
     pagecolor="#ffffff"
     bordercolor="#666666"
     borderopacity="1.0"
     inkscape:pageopacity="0.0"
     inkscape:pageshadow="2"
     inkscape:zoom="5.347495"
     inkscape:cx="22.173698"
     inkscape:cy="-8.3470287"
     inkscape:document-units="mm"
     inkscape:current-layer="layer1"
     showgrid="false"
     units="px"
     inkscape:window-width="1366"
     inkscape:window-height="716"
     inkscape:window-x="0"
     inkscape:window-y="27"
     inkscape:window-maximized="1" />
  <metadata
     id="metadata820">
    <rdf:RDF>
      <cc:Work
         rdf:about="">
        <dc:format>image/svg+xml</dc:format>
        <dc:type
           rdf:resource="http://purl.org/dc/dcmitype/StillImage" />
        <dc:title></dc:title>
      </cc:Work>
    </rdf:RDF>
  </metadata>
  <g
     inkscape:label="Layer 1"
     inkscape:groupmode="layer"
     id="layer1"
     transform="translate(0,-292.76665)">
    <path
       style="color:#000000;display:inline;overflow:visible;visibility:visible;fill:#bebebe;fill-opacity:1;stroke:none;stroke-width:0.2716828;marker:none;enable-background:new"
       d="m 1.1354197,292.99778 c -0.23277832,-0.004 -0.6404712,0.24811 -0.6404712,0.68504 v 2.67703 c 0,0.23282 0.19169401,0.42451 0.42450451,0.42451 H 3.4834602 c 0.3056433,0.008 0.2536415,-0.2685 0.2536415,-0.2685 l -2.5364145,0.007 c -0.62015962,0.002 -0.56627643,-0.81278 -0.010082,-0.81346 l 2.5560477,-0.003 -0.1947415,-2.66589 z m 1.3913135,0.56565 h 0.2780504 v 0.56034 c 0.064056,-0.0793 0.1481693,-0.11886 0.2525803,-0.11886 0.1268303,0 0.2259413,0.0491 0.2976838,0.14805 0.072383,0.0983 0.1087791,0.23712 0.1087791,0.41601 v 0.0165 c 0,0.17619 -0.035555,0.31337 -0.1066567,0.4123 -0.071102,0.0983 -0.1702129,0.14752 -0.2976838,0.14752 -0.1127381,0 -0.2028325,-0.046 -0.2700911,-0.13743 l -0.012735,0.11726 h -0.249927 z m -0.9561964,0.0817 H 1.837444 l 0.5237324,1.47992 H 2.0550026 l -0.097105,-0.30511 H 1.4522062 l -0.096044,0.30511 h -0.306174 z m 0.1337189,0.37409 -0.1740468,0.55398 h 0.3496855 z m 1.2830648,0.22446 c -0.088397,0 -0.1492278,0.038 -0.1825369,0.11461 v 0.43406 c 0.03395,0.0772 0.095092,0.11621 0.184129,0.11621 0.089678,0 0.149046,-0.0471 0.1772304,-0.14062 0.013452,-0.0447 0.020164,-0.11279 0.020164,-0.20429 0,-0.11113 -0.017101,-0.19167 -0.05041,-0.2425 -0.033309,-0.0515 -0.082599,-0.0775 -0.1485766,-0.0775 z"
       id="rect3993"
       inkscape:connector-curvature="0" />
    <g
       id="text3998"
       style="font-style:normal;font-variant:normal;font-weight:bold;font-stretch:normal;font-size:40px;line-height:125%;font-family:Cantarell;-inkscape-font-specification:'Cantarell Bold';text-align:start;letter-spacing:0px;word-spacing:0px;writing-mode:lr-tb;text-anchor:start;display:inline;fill:#000000;fill-opacity:1;stroke:none"
       transform="matrix(0.078499,0,0,0.078499,12.845743,298.39908)" />
    <path
       inkscape:connector-curvature="0"
       d="M 0.62791555,295.71476 H 3.4664801 c -0.3216155,0.13372 -0.3519924,0.66794 0,0.81505 H 0.62791555 Z"
       id="rect4006"
       sodipodi:nodetypes="ccccc"
       style="color:#000000;display:inline;overflow:visible;visibility:visible;opacity:0.3;fill:#bebebe;fill-opacity:1;fill-rule:nonzero;stroke:none;stroke-width:0.2716828;marker:none;enable-background:new" />
  </g>
</svg>
