<svg enable-background="new 0 0 32 32" height="16" viewBox="0 0 32 32" width="16" xmlns="http://www.w3.org/2000/svg" xmlns:xlink="http://www.w3.org/1999/xlink"><clipPath id="a"><circle cx="17.176" cy="16" r="11"/></clipPath><circle cx="17.176" cy="16" opacity=".7" r="11"/><g clip-path="url(#a)" fill="none" stroke="#f7f8f8" stroke-miterlimit="10"><path d="m27.43 9.313c-4.538-.327-9.69-.211-13.74 2.13-1.137.657-2.328 1.499-3.253 2.434-1.958 1.979-3.49 4.319-4.863 6.729"/><path d="m10.729 7.21c-.317 4.401-.205 9.399 2.066 13.326.638 1.103 1.453 2.258 2.36 3.155 1.92 1.9 4.189 3.386 6.526 4.717"/></g><path d="m17.176 6.833c5.766 0 10.487 4.438 10.955 10.084.024-.304.046-.607.046-.917 0-6.075-4.926-11-11.001-11-6.074 0-11 4.925-11 11 0 .31.021.613.046.917.466-5.646 5.189-10.084 10.954-10.084z"/><g fill="#fff"><path d="m16.741 13.396h3.303v3.303h-3.303z"/><path d="m21.255 13.396h3.303v3.303h-3.303z"/><path d="m21.255 17.8h3.303v3.303h-3.303z"/><path d="m16.741 17.8h3.303v3.303h-3.303z"/></g></svg>