<svg height="16" width="16" xmlns="http://www.w3.org/2000/svg"><g fill="#bebebe"><path d="m4.3125 7.0058594c-.4945342 0-.7747569.4190614-.8964844.8964844-.6899684 2.7060922-.3469847 5.1882482 0 7.1679682.085055.4853.4019503.89489.8964844.894532l10.788041-.0078c.494534-.000371.896484-.401844.896484-.894544v-7.1679687c0-.4926976-.401952-.8979019-.896484-.8964844l-2.725541.0078125h-5.375zm7.1875.9941406c1.932997 0 3.5 1.5670034 3.5 3.5 0 1.932997-1.567003 3.5-3.5 3.5-1.9329966 0-3.5-1.567003-3.5-3.5 0-1.9329966 1.5670034-3.5 3.5-3.5zm0 2c-.828427 0-1.5.671573-1.5 1.5s.671573 1.5 1.5 1.5 1.5-.671573 1.5-1.5-.671573-1.5-1.5-1.5z" stroke-width=".895879"/><path d="m2.043639.00055522c-1.19992001 0-2.043639.74706356-2.043639 1.94866348v9.8749993c0 .804789.4180697 1.474589 1.015625 1.835938-.005698-.05336-.015625-.105235-.015625-.160156v-11c0-.831.669-1.5 1.5-1.5h11c.831 0 1.5.669 1.5 1.5v3.5h1v-4.0546875c0-1.20159997-.756462-1.94475728-1.956361-1.94475728z"/></g></svg>