<svg height="16" width="16" xmlns="http://www.w3.org/2000/svg"><g fill="#bebebe"><path d="m85 342h-3c-.55201 0-.864125.46709-1 1-.770158 3.0206-.387312 5.79019 0 8 .09494.5417.44799 1 1 1h12c.55201 0 1-.45004 1-1v-8c0-.54996-.44799-1-1-1h-3zm5 1c2.2091 0 4 1.7909 4 4s-1.7909 4-4 4-4-1.7909-4-4 1.7909-4 4-4zm0 2c-1.1046 0-2 .89543-2 2s.89543 2 2 2 2-.89543 2-2-.89543-2-2-2z" transform="matrix(.84733544 0 0 .84733544 -64.538077 -282.29656)"/><path d="m14.053822-.05382857c1.1999 0 2 .7984 2 1.99999997v4h-2v-3.75c0-.1238-.0566-.25-.1875-.25h-11.6250001c-.1309 0-.1875.1262-.1875.25v11.7499996c-1.19989997 0-2-.9234-2-2.125v-9.8749996c0-1.20159997.80008003-1.99999997 2-1.99999997z"/></g></svg>