<svg height="16" width="16" xmlns="http://www.w3.org/2000/svg"><g fill="#bebebe" transform="matrix(.69424919 0 0 .69424919 -.33099 -.33099)"><path d="m12 .7109375a11.289739 11.289739 0 0 0 -11.2890625 11.2890625 11.289739 11.289739 0 0 0 11.2890625 11.289062 11.289739 11.289739 0 0 0 11.289062-11.289062 11.289739 11.289739 0 0 0 -11.289062-11.2890625zm0 1.796875a9.4920092 9.4920092 0 0 1 9.492188 9.4921875 9.4920092 9.4920092 0 0 1 -9.492188 9.492188 9.4920092 9.4920092 0 0 1 -9.4921875-9.492188 9.4920092 9.4920092 0 0 1 9.4921875-9.4921875z"/><path d="m12.002356 3.9298455a8 8.0701549 0 1 0 0 16.1403095 8 8.0701549 0 0 0 0-16.1403095zm.374557 4.4038231c1.810688.06487 2.882499 1.223845 3.000687 2.9124634.133154 1.90371-.463536 2.396262-.209732 2.778803.529963.79881-.216548 1.010706-.714776 1.401025-.309904.242766-.90776.128892-1.2045-.216599-.901688-.493255-.55997.4539-2.422209.458028-.9680669-.03751-1.8503069-.698112-2.1010089-1.589096-.384477-1.366337.178388-2.37207 1.7486399-2.84801.454177-.137656 1.354491-.05875 1.750752-.332823.374254-.258843.234507-.632464-.225052-.680966-.659082-.06956-1.686743.21505-2.2948899.100904-.488172-.09161-.637119-.9757994-.318559-1.3550644.521284-.6206841 1.8632799-.594006 2.6187319-.627079v.00054c.127219-.0055.251204-.0065.371916-.0021zm-.245127 4.0810394c-.419411 0-.761793.297019-.761793.665646 0 .368626.342382.665645.761793.665645.419414 0 .753871-.297019.753871-.665645 0-.368627-.334457-.665646-.753871-.665646z"/></g></svg>