<svg height="16" width="16" xmlns="http://www.w3.org/2000/svg"><g fill="#bebebe" transform="matrix(1.00000000452 0 0 1.00000000452 .00000024382 .00000024382)"><path d="m8 0a8.0000001 8.0000001 0 0 0 -8 8 8.0000001 8.0000001 0 0 0 8 8 8.0000001 8.0000001 0 0 0 8-8 8.0000001 8.0000001 0 0 0 -8-8zm0 1c3.865993 0 7 3.1340068 7 7 0 3.865993-3.134007 7-7 7-3.8659932 0-7-3.134007-7-7 0-3.8659932 3.1340068-7 7-7z"/><path d="m8 2a6.0000002 6.0000002 0 0 0 -6 6 6.0000002 6.0000002 0 0 0 6 6 6.0000002 6.0000002 0 0 0 6-6 6.0000002 6.0000002 0 0 0 -6-6zm.0039062 3.4550781v.0019531c.0883217-.0038183.1740083-.0050078.2578126-.0019531 1.2570686.045036 2.0019322.8491624 2.0839842 2.0214844.092442 1.3216491-.322687 1.6641087-.146484 1.9296875.367926.5545732-.1502.701678-.496094.972656-.2151506.16854-.629926.089466-.8359375-.15039-.6259962-.3424423-.3887827.315493-1.6816406.318359-.6720797-.026041-1.2849347-.484951-1.4589844-1.1035156-.2669228-.9485784.1246976-1.6480947 1.2148437-1.9785156.3153121-.0955676.9397399-.0401938 1.2148438-.2304688.2598255-.1797015.1627985-.4389838-.15625-.4726562-.4575671-.048292-1.1715445.1495582-1.59375.0703124-.338913-.0636001-.4418631-.6781018-.2207031-.9414062.361901-.4309094 1.2938874-.412586 1.8183593-.4355469zm.0878907 2.8320313c-.2911758 0-.5292969.2069716-.5292969.4628906 0 .2559183.2381211.4628906.5292969.4628906.2911778 0 .5234375-.2069723.5234375-.4628906 0-.255919-.2322597-.4628906-.5234375-.4628906z"/></g></svg>