<svg height="48" width="48" xmlns="http://www.w3.org/2000/svg" xmlns:xlink="http://www.w3.org/1999/xlink"><filter id="a"><feGaussianBlur stdDeviation="1.0971168"/></filter><linearGradient id="b"><stop offset="0" stop-color="#fff"/><stop offset="1" stop-color="#aeaeae"/></linearGradient><linearGradient id="c"><stop offset="0" stop-color="#fff"/><stop offset=".5" stop-color="#fff" stop-opacity=".608541"/><stop offset="1" stop-color="#fff" stop-opacity="0"/></linearGradient><linearGradient id="d" gradientTransform="matrix(.123298 0 0 .153457 76.21577 169.2063)" gradientUnits="userSpaceOnUse" x1="399.77466" x2="399.77466" y1="731.09662" y2="549.06134"><stop offset="0" stop-color="#cbcbcd"/><stop offset=".5" stop-color="#e0e0e2"/><stop offset="1" stop-color="#f2f2f2"/></linearGradient><linearGradient id="e" gradientTransform="matrix(.12333 0 0 .152975 161.5176 240.3719)" gradientUnits="userSpaceOnUse" x1="297.94482" x2="168.35521" y1="723.46216" y2="435.02948"><stop offset="0" stop-color="#dededf"/><stop offset="1" stop-color="#bbbcbe" stop-opacity="0"/></linearGradient><linearGradient id="f" gradientTransform="matrix(.12333 0 0 .152975 170.8559 239.269)" gradientUnits="userSpaceOnUse" x1="-556.60114" x2="-556.60114" y1="-.209811" y2="855.81775"><stop offset="0" stop-color="#fff"/><stop offset=".81364954" stop-color="#fff"/><stop offset=".82474351" stop-color="#b1b1b1"/><stop offset="1" stop-color="#636363"/></linearGradient><linearGradient id="g" gradientUnits="userSpaceOnUse" x1="202.44987" x2="202.44987" xlink:href="#b" y1="335.07404" y2="276.20297"/><radialGradient id="h" cx="1055.3002" cy="-478.60516" gradientTransform="matrix(.7700573 0 0 .7839903 -696.64146 419.24974)" gradientUnits="userSpaceOnUse" r="5.060289"><stop offset="0"/><stop offset="1" stop-opacity="0"/></radialGradient><radialGradient id="i" cx="1055.3002" cy="-478.60516" fx="1055.3754" fy="-480.427" gradientTransform="matrix(1.0360261 -.02666699 .01539796 .6200625 -969.94893 367.97469)" gradientUnits="userSpaceOnUse" r="5.060289" xlink:href="#c"/><radialGradient id="j" cx="1055.3002" cy="-478.60516" fx="1055.1852" fy="-476.07501" gradientTransform="matrix(.6775104 0 0 .6897691 -598.93997 374.1823)" gradientUnits="userSpaceOnUse" r="5.060289"><stop offset="0" stop-color="#e7e7e7"/><stop offset="1" stop-color="#dbdbdb"/></radialGradient><radialGradient id="k" cx="1055.3002" cy="-478.60516" fx="1055.3754" fy="-480.427" gradientTransform="matrix(.9755103 -.0251103 .01449854 .5838665 -906.51728 348.7922)" gradientUnits="userSpaceOnUse" r="5.060289" xlink:href="#c"/><radialGradient id="l" cx="1055.3002" cy="-478.60516" fx="1055.1852" fy="-476.07501" gradientTransform="matrix(.6775104 0 0 .6897691 -598.93997 374.1823)" gradientUnits="userSpaceOnUse" r="5.060289"><stop offset="0" stop-color="#fff"/><stop offset=".0626" stop-color="#e6f9ff"/><stop offset=".1386" stop-color="#cef2ff"/><stop offset=".1854" stop-color="#c5f0ff"/><stop offset="1" stop-color="#1d74d9"/></radialGradient><radialGradient id="m" cx="1055.3002" cy="-478.60516" fx="1055.1852" fy="-476.07501" gradientTransform="matrix(.6775104 0 0 .6897691 -598.93997 374.1823)" gradientUnits="userSpaceOnUse" r="5.060289" xlink:href="#b"/><radialGradient id="n" cx="1055.3002" cy="-478.60516" fx="1055.1852" fy="-476.07501" gradientTransform="matrix(.6775104 0 0 .6897691 -598.93997 374.1823)" gradientUnits="userSpaceOnUse" r="5.060289"><stop offset="0" stop-color="#f8f8f8"/><stop offset="1" stop-color="#a4a4a4"/></radialGradient><g transform="matrix(.33638654 0 0 .3543255 -24.550895 -82.583395)"><rect height="93.43602" rx="2.607015" ry="2.535507" style="opacity:.688119;fill:none;stroke:#000;stroke-width:1.893139;stroke-linecap:round;stroke-linejoin:round;stroke-dashoffset:4;filter:url(#a)" width="120.32997" x="84.165688" y="254.08844"/><rect fill="url(#d)" height="93.773827" rx="2.068033" ry="2.102477" width="120.12793" x="84.110901" y="253.53488"/><rect height="93.156235" rx="2.607015" ry="2.535507" style="stroke-width:1.180621;stroke-linecap:round;stroke-linejoin:round;stroke-dashoffset:4;fill:url(#e);stroke:url(#f)" width="119.95078" x="84.312439" y="253.76636"/><rect fill="url(#g)" height="69.020561" rx="1.312757" width="116.32249" x="86.127388" y="276.20297"/><rect fill="#fff" height="67.484138" rx=".651855" width="114.82265" x="86.917503" y="277.08655"/></g><g transform="matrix(.40759709 0 0 .40759709 -6.176329 -8.113709)"><path d="m119.897 44.027912c0 2.191042-1.74462 3.967225-3.89669 3.967225-2.15208 0-3.89673-1.776183-3.89673-3.967225 0-2.19104 1.74465-3.967225 3.89673-3.967225 2.15207 0 3.89669 1.776185 3.89669 3.967225z" fill="url(#h)"/><path d="m118.75107 43.067917c0 1.294788-1.23162 2.344422-2.75089 2.344422-1.51926 0-2.75088-1.049634-2.75088-2.344422 0-1.294791 1.23162-2.344422 2.75088-2.344422 1.51927 0 2.75089 1.049631 2.75089 2.344422z" fill="url(#i)" opacity=".478814"/><path d="m119.46529 44.055251c0 1.927718-1.53496 3.490438-3.4284 3.490438-1.89343 0-3.42841-1.56272-3.42841-3.490438s1.53498-3.49044 3.42841-3.49044c1.89344 0 3.4284 1.562722 3.4284 3.49044z" fill="url(#j)"/><path d="m118.58992 42.851892c0 1.219206-1.15968 2.207565-2.5902 2.207565-1.43053 0-2.59021-.988359-2.59021-2.207565s1.15968-2.207565 2.59021-2.207565c1.43052 0 2.5902.988359 2.5902 2.207565z" fill="url(#k)" opacity=".478814"/></g><g transform="matrix(.40759709 0 0 .40759709 -11.597371 -8.113709)"><path d="m119.897 44.027912c0 2.191042-1.74462 3.967225-3.89669 3.967225-2.15208 0-3.89673-1.776183-3.89673-3.967225 0-2.19104 1.74465-3.967225 3.89673-3.967225 2.15207 0 3.89669 1.776185 3.89669 3.967225z" fill="url(#h)"/><path d="m118.75107 43.067917c0 1.294788-1.23162 2.344422-2.75089 2.344422-1.51926 0-2.75088-1.049634-2.75088-2.344422 0-1.294791 1.23162-2.344422 2.75088-2.344422 1.51927 0 2.75089 1.049631 2.75089 2.344422z" fill="url(#i)" opacity=".478814"/><path d="m119.46529 44.055251c0 1.927718-1.53496 3.490438-3.4284 3.490438-1.89343 0-3.42841-1.56272-3.42841-3.490438s1.53498-3.49044 3.42841-3.49044c1.89344 0 3.4284 1.562722 3.4284 3.49044z" fill="url(#j)"/><path d="m118.58992 42.851892c0 1.219206-1.15968 2.207565-2.5902 2.207565-1.43053 0-2.59021-.988359-2.59021-2.207565s1.15968-2.207565 2.59021-2.207565c1.43052 0 2.5902.988359 2.5902 2.207565z" fill="url(#k)" opacity=".478814"/></g><g transform="matrix(.40759709 0 0 .40759709 -17.018412 -8.113709)"><path d="m119.897 44.027912c0 2.191042-1.74462 3.967225-3.89669 3.967225-2.15208 0-3.89673-1.776183-3.89673-3.967225 0-2.19104 1.74465-3.967225 3.89673-3.967225 2.15207 0 3.89669 1.776185 3.89669 3.967225z" fill="url(#h)"/><path d="m118.75107 43.067917c0 1.294788-1.23162 2.344422-2.75089 2.344422-1.51926 0-2.75088-1.049634-2.75088-2.344422 0-1.294791 1.23162-2.344422 2.75088-2.344422 1.51927 0 2.75089 1.049631 2.75089 2.344422z" fill="url(#i)" opacity=".478814"/><path d="m119.46529 44.055251c0 1.927718-1.53496 3.490438-3.4284 3.490438-1.89343 0-3.42841-1.56272-3.42841-3.490438s1.53498-3.49044 3.42841-3.49044c1.89344 0 3.4284 1.562722 3.4284 3.49044z" fill="url(#j)"/><path d="m118.58992 42.851892c0 1.219206-1.15968 2.207565-2.5902 2.207565-1.43053 0-2.59021-.988359-2.59021-2.207565s1.15968-2.207565 2.59021-2.207565c1.43052 0 2.5902.988359 2.5902 2.207565z" fill="url(#k)" opacity=".478814"/></g><g transform="matrix(.40759709 0 0 .40759709 -40.985116 -8.113709)"><path d="m119.897 44.027912c0 2.191042-1.74462 3.967225-3.89669 3.967225-2.15208 0-3.89673-1.776183-3.89673-3.967225 0-2.19104 1.74465-3.967225 3.89673-3.967225 2.15207 0 3.89669 1.776185 3.89669 3.967225z" fill="url(#h)"/><path d="m118.75107 43.067917c0 1.294788-1.23162 2.344422-2.75089 2.344422-1.51926 0-2.75088-1.049634-2.75088-2.344422 0-1.294791 1.23162-2.344422 2.75088-2.344422 1.51927 0 2.75089 1.049631 2.75089 2.344422z" fill="url(#i)" opacity=".478814"/><path d="m119.46529 44.055251c0 1.927718-1.53496 3.490438-3.4284 3.490438-1.89343 0-3.42841-1.56272-3.42841-3.490438s1.53498-3.49044 3.42841-3.49044c1.89344 0 3.4284 1.562722 3.4284 3.49044z" fill="url(#j)"/><path d="m118.58992 42.851892c0 1.219206-1.15968 2.207565-2.5902 2.207565-1.43053 0-2.59021-.988359-2.59021-2.207565s1.15968-2.207565 2.59021-2.207565c1.43052 0 2.5902.988359 2.5902 2.207565z" fill="url(#k)" opacity=".478814"/></g><g transform="matrix(.47105498 0 0 .47105498 -13.537464 -10.907627)"><path d="m119.897 44.027912c0 2.191042-1.74462 3.967225-3.89669 3.967225-2.15208 0-3.89673-1.776183-3.89673-3.967225 0-2.19104 1.74465-3.967225 3.89673-3.967225 2.15207 0 3.89669 1.776185 3.89669 3.967225z" fill="url(#h)"/><path d="m118.75107 43.067917c0 1.294788-1.23162 2.344422-2.75089 2.344422-1.51926 0-2.75088-1.049634-2.75088-2.344422 0-1.294791 1.23162-2.344422 2.75088-2.344422 1.51927 0 2.75089 1.049631 2.75089 2.344422z" fill="url(#i)" opacity=".478814"/><path d="m119.46529 44.055251c0 1.927718-1.53496 3.490438-3.4284 3.490438-1.89343 0-3.42841-1.56272-3.42841-3.490438s1.53498-3.49044 3.42841-3.49044c1.89344 0 3.4284 1.562722 3.4284 3.49044z" fill="url(#l)"/><path d="m118.58992 42.851892c0 1.219206-1.15968 2.207565-2.5902 2.207565-1.43053 0-2.59021-.988359-2.59021-2.207565s1.15968-2.207565 2.59021-2.207565c1.43052 0 2.5902.988359 2.5902 2.207565z" fill="url(#k)" opacity=".478814"/></g><g transform="matrix(.47105498 0 0 .47105498 -18.9585 -10.907627)"><path d="m119.897 44.027912c0 2.191042-1.74462 3.967225-3.89669 3.967225-2.15208 0-3.89673-1.776183-3.89673-3.967225 0-2.19104 1.74465-3.967225 3.89673-3.967225 2.15207 0 3.89669 1.776185 3.89669 3.967225z" fill="url(#h)"/><path d="m118.75107 43.067917c0 1.294788-1.23162 2.344422-2.75089 2.344422-1.51926 0-2.75088-1.049634-2.75088-2.344422 0-1.294791 1.23162-2.344422 2.75088-2.344422 1.51927 0 2.75089 1.049631 2.75089 2.344422z" fill="url(#i)" opacity=".478814"/><path d="m119.46529 44.055251c0 1.927718-1.53496 3.490438-3.4284 3.490438-1.89343 0-3.42841-1.56272-3.42841-3.490438s1.53498-3.49044 3.42841-3.49044c1.89344 0 3.4284 1.562722 3.4284 3.49044z" fill="url(#m)"/><path d="m118.58992 42.851892c0 1.219206-1.15968 2.207565-2.5902 2.207565-1.43053 0-2.59021-.988359-2.59021-2.207565s1.15968-2.207565 2.59021-2.207565c1.43052 0 2.5902.988359 2.5902 2.207565z" fill="url(#k)" opacity=".478814"/></g><g transform="matrix(.47105498 0 0 .47105498 -24.379542 -10.907627)"><path d="m119.897 44.027912c0 2.191042-1.74462 3.967225-3.89669 3.967225-2.15208 0-3.89673-1.776183-3.89673-3.967225 0-2.19104 1.74465-3.967225 3.89673-3.967225 2.15207 0 3.89669 1.776185 3.89669 3.967225z" fill="url(#h)"/><path d="m118.75107 43.067917c0 1.294788-1.23162 2.344422-2.75089 2.344422-1.51926 0-2.75088-1.049634-2.75088-2.344422 0-1.294791 1.23162-2.344422 2.75088-2.344422 1.51927 0 2.75089 1.049631 2.75089 2.344422z" fill="url(#i)" opacity=".478814"/><path d="m119.46529 44.055251c0 1.927718-1.53496 3.490438-3.4284 3.490438-1.89343 0-3.42841-1.56272-3.42841-3.490438s1.53498-3.49044 3.42841-3.49044c1.89344 0 3.4284 1.562722 3.4284 3.49044z" fill="url(#m)"/><path d="m118.58992 42.851892c0 1.219206-1.15968 2.207565-2.5902 2.207565-1.43053 0-2.59021-.988359-2.59021-2.207565s1.15968-2.207565 2.59021-2.207565c1.43052 0 2.5902.988359 2.5902 2.207565z" fill="url(#k)" opacity=".478814"/></g><g transform="matrix(.47105498 0 0 .47105498 -48.346251 -10.907627)"><path d="m119.897 44.027912c0 2.191042-1.74462 3.967225-3.89669 3.967225-2.15208 0-3.89673-1.776183-3.89673-3.967225 0-2.19104 1.74465-3.967225 3.89673-3.967225 2.15207 0 3.89669 1.776185 3.89669 3.967225z" fill="url(#h)"/><path d="m118.75107 43.067917c0 1.294788-1.23162 2.344422-2.75089 2.344422-1.51926 0-2.75088-1.049634-2.75088-2.344422 0-1.294791 1.23162-2.344422 2.75088-2.344422 1.51927 0 2.75089 1.049631 2.75089 2.344422z" fill="url(#i)" opacity=".478814"/><path d="m119.46529 44.055251c0 1.927718-1.53496 3.490438-3.4284 3.490438-1.89343 0-3.42841-1.56272-3.42841-3.490438s1.53498-3.49044 3.42841-3.49044c1.89344 0 3.4284 1.562722 3.4284 3.49044z" fill="url(#n)"/><path d="m118.58992 42.851892c0 1.219206-1.15968 2.207565-2.5902 2.207565-1.43053 0-2.59021-.988359-2.59021-2.207565s1.15968-2.207565 2.59021-2.207565c1.43052 0 2.5902.988359 2.5902 2.207565z" fill="url(#k)" opacity=".478814"/></g></svg>