<svg height="16" width="16" xmlns="http://www.w3.org/2000/svg"><path d="m2.84375 0c-.8215224-.00137341-1.162371 1.045648-1.15625 1.3125l-.6875 11c.1531649-.670693.6175502-1.157078 1.1875-1.15625h3.6464844a5.6776972 5.6776972 0 0 1 .078125-.652344h-3.8007813l.2324219-8.7597654c.0530224-.7154511.2268404-.97988778.4707031-1.10546872h10.4199219c.2535.0240122.623621.42161652.558594 1.11718752l.050781 4.5800781a5.6776972 5.6776972 0 0 1 .861328.484375l-.298828-5.4140625c.02502-.3780782-.39306-1.37330616-1.40625-1.375zm5.0976562 1.3925781c-1.991767 0-3.59375 1.4559499-3.59375 3.25 0 1.6847081 1.3236661 2.6952622 3.1425782 2.84375a5.6776972 5.6776972 0 0 1 .0683594-.0625c-.2492003-.4365939-.2610504-.9748568.1289062-1.3613281.2371494-.2350166.6190782-.3732707.96875-.375.3262112-.00204.6252128.0884623.90625.28125.00566.00432-.00576.026927 0 .03125h.0625c.015551.00761.016563.022518.03125.03125l.0917969.0722656a5.6776972 5.6776972 0 0 1 1.3671871-.2617187c.254513-.3280798.419922-.6912723.419922-1.1992188 0-1.7940501-1.6019831-3.25-3.5937498-3.25zm0 2.0625c.7292261 0 1.3125.5306621 1.3125 1.1875 0 .6568375-.6809301.7949219-1.4101562.7949219-.729226 0-1.2148438-.1380844-1.2148438-.7949219 0-.6568379.5832741-1.1875 1.3125-1.1875zm.6523438 2.9824219c-.080077.011648-.210196.033408-.3125.09375-.1441144.1428639-.1701799.2579947-.1210938.3847656a5.6776972 5.6776972 0 0 1 .703125-.4414062c-.0647113-.031268-.1515556-.0542701-.2695312-.0371094zm-4.09375 2.71875c-.3918317 0-.71875.2720721-.71875.625 0 .352927.3269183.625.71875.625.3918221 0 .71875-.272073.71875-.625 0-.3529279-.3269279-.625-.71875-.625z" fill="#bebebe"/><path d="m2.5664062 11.779297c-.8098184-.0013-1.4375.692619-1.4375 1.525391v1.115234c0 .832771.6276816 1.524135 1.4375 1.52539l5.4140626.007813a5.6776972 5.6776972 0 0 1 -.9257813-.931641l-4.4765625-.007812c-.058017-.00009-.1464844-.030523-.1464844-.234375v-1.115235c0-.203853.0884682-.234465.1464844-.234374l2.2792969.003906 1.25 1.320312.0683593-1.302734a5.6776972 5.6776972 0 0 1 -.3378906-1.666016z" fill="#bebebe"/><circle cx="11.5" cy="-11.5" fill="#bfbfbf" fill-opacity=".29804" r="4.5" transform="scale(1 -1)"/><path d="m11.782 7c-2.0893-.12542-4.0622 1.2432-4.625 3.3438-.64324 2.4006.78689 4.8568 3.1875 5.5 2.4006.64324 4.8571-.78681 5.5-3.1875.0575-.2146.0999-.43805.12591-.65597l-4.4907-.00031.53048-4.9783c-.0751-.01-.1509-.017-.22816-.0217z" fill="#bebebe"/></svg>