<svg height="64" width="64" xmlns="http://www.w3.org/2000/svg"><path d="m56.76232 5.9539124c-1.761562-1.6721194-4.900865-1.902488-5.780447.6592308.312758-2.0053179 1.128253-4.8366588-1.777544-5.5722175-2.501454-.18293395-5.076862-.47018732-7.456791.7393147-1.998431 1.3678238-2.691359 4.4334143-5.597983 4.3311215-2.480003.7288731-4.641089 2.5524942-5.487386 5.0336731-.613884 2.39418-3.173764 3.280705-4.42149 5.299556-1.123586 2.255473-.435905 5.23453-2.722705 7.003142-2.532606 2.257358.08614 5.170873-.237831 7.813895-2.3866.963289-4.656864 3.434864-4.533845 6.13546-.593464 2.137712 2.190684 6.303749-.784631 7.019921-3.985945.394182-2.880158-4.450658-5.122593-6.122204-1.741429-2.926841-4.9232747 2.47232-2.332148.772842 2.117799.237951.235482 2.049613 1.306833 3.265354 1.878551 3.509819-2.5709558.740167-3.0697318-.953308-2.2131235-2.04013.194766-5.505471 2.3433308-7.050994 2.1346-1.765495 4.539372-3.202733 6.614146-5.064512 2.26852-2.403621 3.773622-5.572218 4.125224-8.860361.176464-3.207285-1.289009-5.947241 2.394463-6.161204 2.029266-1.497564 1.685848-.907623 3.466235-4.02858.878895-1.9383404-1.741522-2.5521408-3.089686-1.7311155-1.589454 1.4704895-3.854204 3.8714835-4.577294 6.4082625-.812275 2.932055.351233 6.272185-1.396416 8.933924-1.035107 2.665349-3.611631 3.913031-5.813284 5.417007-2.9881928 1.80909-5.9186901 4.069605-7.4968479 7.275267-1.1886648 2.659175.083807 5.637198 1.9545073 7.611081 2.3730117 1.295586-1.9359683 3.659137-.1297697 5.637839.6034945-.918432 1.5707144-2.470003 3.2388313-2.546077-.355527.452356-1.4312291 3.398422-2.8133154 3.548874-.7711059-1.836115-2.4677182.200386-.7001805.900487 2.4854451.611222 4.6090379-1.131495 6.2623869-2.75777 3.073923-1.74789-1.266479 1.264152-1.569194 2.202781-1.25336.786258-.128143 5.747527.544648 3.551349.709133-1.823264 2.169161-3.921705 4.629078-4.018511 2.519575-1.18761 1.415661 1.079712 1.911331 2.709417.116539 2.263575 3.270282 4.491114 1.670382 6.56485 1.041304 1.842826 3.968421-1.627622 2.840517-3.300747.753647-.550859 1.533472 2.339618.745804 3.134292.04919.842129-.34882 2.372323-1.43156 2.103189-1.563048-.04949 1.760818 1.491754 2.426173.01278 1.318378-.747382 1.832202-4.706915 2.908787-2.038429.264544 1.720711-1.29694 1.706022-1.65999 2.890451 3.060192 2.071134 2.598595-4.495583 5.382629-3.041094 4.278192-.355039 8.67474-2.938001 10.084097-7.170103 1.146033-2.367533.854021-5.765151 3.543829-7.097675 2.856572-1.013034 6.043089-1.946858 7.78255-4.664 1.286242-1.744773 2.389311-5.124688 2.264165-6.585378 0 0 1.727395-.799054 2.524102-1.420535-.01501-.528082.629621-1.026528.790388-1.629569.130146-.48817.234157-1.012528.3109-1.436354.243793.0099.989431-1.027163.546945-1.481133-.03182-.802718-2.889031-.916005-3.86093.827156-1.92626 2.11974-2.756106 5.023242-3.096115 7.789511-.523862 3.197629-3.858828 4.800936-6.684733 5.509296-3.120267.73394-5.157193 3.70411-5.602021 6.748294-.522226 2.99964-2.146365 6.094659-5.179265 7.141675-.238381-.647698-.78111-2.695406-2.322676-3.132547-1.843796-.944884-7.040165-2.826494-4.086683-5.261231 2.608028-.730464 5.839464-.882358 7.366952-3.516091 1.432595-.935046.26386-4.335162.996745-3.966784 2.352616-1.230974 5.126841-.298478 7.491177-1.440975 2.820409-1.054042 3.041416-4.53739 4.934152-6.487309 2.002746-1.433504 4.35627-2.630261 5.27032-5.110463.274972-2.804996 3.052885-3.708671 3.764701-6.130424-.171036-2.566975-.484783-5.039283 1.201201-7.268449-.395501-2.661234-.888881-5.5953526-2.637356-7.7788651-.053837-.0569061-.108252-.1123603-.165091-.1662823zm-21.332036 34.6197226c.02832.0244.05362.05211.081.07872.876059.851458.899443 2.535358.05066 3.76548-.848779 1.230125-2.247243 1.537939-3.123302.68648-.876061-.851459-.896528-2.538359-.04775-3.768483.822257-1.191682 2.160101-1.517137 3.039387-.762205zm-11.587653-7.831878c.671555.652697.477731 1.806034-.430706 2.58005-.908438.774014-2.186187.873864-2.857743.221166-.671557-.652698-.480732-1.80895.427705-2.582967.908438-.774014 2.189188-.870948 2.860744-.218249z" fill="#323232"/><g fill="#323232" transform="matrix(.09600156 .0933057 -.0933057 .09600156 41.686655 -8.727576)"><path d="m235.03384 315.82672c0 5.98806-3.44497 10.84234-7.69456 10.84234s-7.69456-4.85428-7.69456-10.84234c0-5.98805 3.44497-10.84233 7.69456-10.84233s7.69456 4.85428 7.69456 10.84233z" transform="matrix(-.91377946 0 -.21616289 .95698925 390.64775 33.117609)"/><path d="m235.03384 315.82672c0 5.98806-3.44497 10.84234-7.69456 10.84234s-7.69456-4.85428-7.69456-10.84234c0-5.98805 3.44497-10.84233 7.69456-10.84233s7.69456 4.85428 7.69456 10.84233z" transform="matrix(1 0 .23655915 1 -74.711701 0)"/></g><path d="m56.927274 6.1195278c1.748473 2.1835137 2.24297 5.1193232 2.638472 7.7805592-1.685985 2.229166-1.371825 4.699141-1.200789 7.266122-.711814 2.421754-3.489761 3.327366-3.764734 6.13236-.91405 2.480204-3.27004 3.676672-5.272787 5.110175-1.892714 1.94994-2.111075 5.43232-4.93148 6.486364-2.364339 1.142496-5.139529.209707-7.492145 1.440678-.732887-.368378.435543 3.034867-.997046 3.969918-1.527485 2.633737-4.760962 2.782825-7.368992 3.513287-2.953482 2.43474 2.24264 4.31669 4.086433 5.261574 1.54156.437135 2.086029 2.483635 2.324409 3.131331 3.032905-1.047009 4.658028-4.142698 5.180252-7.14234.444825-3.044187 2.482379-6.011106 5.602646-6.745045 2.825911-.708356 6.159065-2.310527 6.682921-5.508163.340013-2.766266 1.172059-5.673243 3.098324-7.792979.971904-1.743156 3.828007-1.62874 3.859832-.82602.643608.660314-1.22725 2.550917-.409689.665238-.681606-2.013158-3.638145.349021-3.928629 1.843274-.608917 1.090017-1.75488 3.171109-1.13506 3.043319-1.11497 1.932496-.615435 5.268825-2.823917 6.814368-2.155723 1.883231-5.340067 1.755998-7.508398 3.562465-2.05748 1.800456-2.639568 4.561791-3.452375 7.042091-.756183 2.553269-2.395967 5.036331-5.112353 5.717868-1.569585 1.167979-5.246275-.514864-5.550199.24222-.0052 3.843044 4.777077 1.447009 6.863995.690161 2.53613-1.348427 4.473926-3.672893 5.194841-6.48313.73601-2.471388 1.102349-5.746124 4.039937-6.581166 2.654258-.85663 5.500311-1.874308 7.057501-4.36141 1.691212-1.708338 1.038185-4.502945 2.593775-6.227331.125152 1.460696-.980068 4.840165-2.266311 6.584936-1.739467 2.717138-4.927097 3.65026-7.783666 4.663298-2.689817 1.332516-2.399131 4.731755-3.545167 7.099283-1.409363 4.232098-5.803871 6.816809-10.082063 7.171847-2.784035-1.454487-2.321327 5.107958-5.381522 3.036821.363058-1.184421 1.924184-1.165858 1.659638-2.886568-1.076584-2.668487-1.592016 1.287146-2.910397 2.034525-.665353 1.47897-3.988785-.05897-2.425737-.0094 1.082737.269128 1.481286-1.262482 1.432095-2.104614.787668-.794676.0094-3.683951-.74422-3.133093 1.127904 1.673126-1.798545 5.141758-2.839849 3.298931 1.599904-2.07373-1.55649-4.301367-1.673032-6.564943-.495671-1.629704.609638-3.896239-1.909936-2.708631-2.459917.0968-3.920405 2.196003-4.629536 4.019268-.672791 2.196177-1.798264-2.765759-.544905-3.552018.302716-.938627 4.641687-3.952289 1.567765-2.204397-1.653347 1.626233-3.7776165 3.369989-6.2630628 2.758769-1.7675377-.700102-.0689577-2.734364.7021505-.898248 1.3820863-.150451 2.4564253-3.099141 2.8119493-3.5515-1.6681141.076075-2.6347863 1.629456-3.2382808 2.547887-1.8061998-1.9787 2.5017072-4.343616.1286955-5.639202-1.8706969-1.973879-3.1435332-4.951592-1.9548673-7.610766 1.5781566-3.205663 4.5126791-5.465731 7.5008706-7.274823 2.201652-1.503976 4.776349-2.749824 5.811457-5.415173 1.747647-2.661738.585849-6.003074 1.398125-8.93513.72309-2.536778 2.986484-4.9387843 4.575937-6.4092762 1.348163-.8210252 3.968673-.2049172 3.089779 1.7334232.03429.986357-2.029001 3.863233-1.918515 2.216635 1.136503-.724499 1.072711-1.815339 1.516155-2.5095255.589183-1.5562948-2.478349-1.9526057-1.265726-.1797952-.790229-.3101811-.261415-1.7914026-1.193944-.7046742 1.868103 1.7730939-1.799011-.4626753-1.376438 1.6713769-2.5837 1.940892-3.478512 5.420619-3.042467 8.519748-.04805 3.191415-1.566709 6.201053-3.926188 8.300649-2.339094 1.851674-5.004924 3.210898-7.3267259 5.088303-2.8963065 2.004887-4.6182026 6.193501-2.8542437 9.455066 1.5373863 2.137429 3.4925168 4.301835 6.2707846 4.765385 1.421004.505257 3.631409.0094 1.179885-.852682-1.180166.20814-.728733-1.947465-2.05344-.853426.287041-1.059495-1.110783.130728-1.036156-.958304-.8083386.225808-.626671-.960658-1.1767087-.099765-.4230902-1.19198-1.6371189-1.991451-1.9886758-3.906534-.8474385-3.144114 2.3164126-5.232854 4.3002365-7.067563 2.168159-1.425802 4.320208-2.969196 6.157053-4.804351 2.335702-2.852191 3.666198-6.493597 3.496237-10.19974-.125782-.980773.04234-5.281867.871843-4.17509.688169.471455.545803.647131.256087.694161-1.015011 1.156876-.469992 3.768978-.75208 5.787669-.351603 3.288143-1.853613 6.457713-4.122137 8.861329-2.074773 1.86178-4.480955 3.297224-6.615557 5.062719-2.1485659 1.545522-4.5558121 5.01085-2.3426862 7.050976.4987772 1.693475 4.9485402 4.463103 3.0699882.953286-1.07135-1.215742.80961-3.02468-1.308188-3.26263-2.591127 1.699477.591249-3.701035 2.332676-.774193 2.242437 1.671545 1.138366 6.516824 5.124313 6.122641 2.975314-.716171.189178-4.883241.782643-7.020953-.123019-2.700596 2.147897-5.174502 4.534496-6.137792.323981-2.643021-2.292774-5.554478.239832-7.811835 2.286799-1.768613 1.598793-4.746961 2.722378-7.002435 1.247744-2.018833 3.804628-2.905131 4.418512-5.299308.846296-2.4811806 3.009865-4.3046458 5.489869-5.0335201 2.906623.1022916 3.599335-2.9626178 5.597764-4.3304428 2.379931-1.20950085 4.953358-.92344556 7.454811-.7405105 2.905796.7355588 2.093533 3.5663862 1.780774 5.5717064.907955-2.6443559 4.219961-2.3141556 5.942935-.4934938zm-1.28402-.2833475c-1.785506-1.8681981-3.345728.5955942-4.2841 1.3371623-1.213169.1022679.995977.9625762.766656 1.8052401.328889.4926405.857656 1.4596333.768504 2.2864503-1.527147-1.4804772.139532 1.027344-1.371714.422113.443847-1.303231-.38199-2.1890834-.25969-.63567-1.193898.980108.488424-2.1554147-1.240118-.766689-.395929.107379-2.318285-.4739371-1.364345-.9152523.357464-.2219052 2.096025 1.1913703 1.383511-.2023369-2.293336-.0965314 1.193231-.8910559-.294901-1.0222845-.881595.3964478-2.258299 1.1747292-1.822668.2166337-2.334497-.4151852 2.104571 2.328203-1.011541 2.04189-1.395252-1.3598567 1.675653-.172814.224724-1.131974-.711012-1.0246842-.338215-1.20127-1.223043-1.0485716-.411812-1.7554388 1.638431.2101841 2.658916-.2047283-.529309-.6139963-2.818977-.6741838-1.265066-.8852214.704835-.360713.733821-.0172217.480566-.7746552.972794.1157243.837942-.1486947 1.421412.5093569 1.425669-.6608738-.618111 1.41021 1.142991.1624437.217043-1.5986019 1.507665-4.9909909-1.603871-5.3457808-2.606492-.4211272-5.902043-.6638909-7.726681 1.7753353-1.348282 3.0179375-4.744971 2.7203216-7.058407 4.3222297-1.151126.8431716-2.283138 3.3034877-2.239431 3.7521827 1.614443-.891296-.19625.406543-.66301.770064.55943 1.503062-.438768-.548599-.723114 1.163367-2.461616 1.629865-4.431475 3.879429-4.468585 7.043932-.722721 1.924585 1.79101-.261033.741183 1.434093-1.446864-.500684-2.823038 2.084264-3.301374 3.415185-.86971 1.629351 1.266144 4.225212.781234 4.528101-.661782 1.802432.602667 1.07339 1.314468 1.426029-.862755.358149 1.239256 1.053152 1.468378 1.260575 2.74377-.132571-.894563 1.047041-1.68454.258994.431914.639857 3.149316.777487 1.524261.933478-.984977-.831824-.388108 2.972461-1.450942 1.319422 1.032966-1.256127-.371986-.645825-.620361.277005-.03691-.7611.496731-3.177769-.328139-1.041386-.627773 2.042688-4.675388 2.701633-4.284921.407584-.969898 1.961616-.3585 2.890475-.712004 4.062449.387845 1.335478.559922 2.376963 1.616861 2.415922-1.732689-.328933-.855199 2.834563-.14869.811394.5511.920513-1.786793 1.099385-.570859 2.5216-.364185.454443-1.265074-.44508-1.533606 1.020302.315775-1.144635-1.767247.740499-1.13605-.640256-.7479-.357028-.358671 2.083332-.833018.380818-.215634-1.461962-1.916182-1.129988-2.617091-.740579 1.031045-1.179132-.845657-3.715521-1.074927-5.603373-.582001.0047-2.689695-2.255518-3.1245984.0915 1.8144104-1.555914 2.7408094 1.279584 2.0690614 2.102875.811367 1.412958.747643.76997.660835 2.339531.386631 2.419448 3.455574 3.090275 4.872386 3.265444-.148673.585684 2.567363-1.108672 1.284858.264808.544961 1.142282-2.2544.821924-.226367-.05561-1.003803.52482-4.430049 1.57013-4.71159 2.965299-1.868456-.635727-1.036961 2.214791-2.189292 2.030235-.903386 1.703408.74616 1.642588.94668.164401.558449.321685 1.547015-2.244451 3.417582-1.943079 1.606084.144286 4.398193-1.89905 2.96334 1.078444-.111688 2.462348 1.614186 4.782084 2.570789 6.866028.447599.370868-.198874.391035.483107.786108-1.458533.145896-.660555 2.068461-.286697.4074 1.6091-.144353 1.201887-4.636622-.303839-5.066806.628087-.662492-.671527-1.158567.180722-1.367842.106541-1.584735.798173-3.058915-.927393-3.305767 1.44364-.366958 1.50665-.389973 2.010272 1.194401.789017 2.277037 1.739544 3.531351 3.49986 4.795763.984454 1.549404 2.574001 3.09091 1.956061 4.936892 1.2169.623902-2.135908 2.590175.07978 1.399128 2.102549-2.006945.904133-5.196786-.551843-7.218348-1.550995-1.816637-2.916478-5.034867-1.466484-6.946059 1.079089-.210048 1.07587.0013 2.39378-.500271.680467-.699361 1.480364-.172937 2.024099-.774454.846615 1.125532 1.288905-.974679 1.995473-.158866-.228246-.624211 2.506966-.534519.390495-.661998-2.446485-.456786-1.899626-3.71148-.487461-5.000579.68812-1.119958 4.187482-.293562 2.195977-1.562002-.34345.345582-1.217661-1.508493-1.415497-.36356-.882067-.172347-.667269-1.283091-1.011803-.229184-.7284.845728-1.148046.536788-.434372-.268945-1.137538.690626-3.099753.732287-.858985-.200586 1.766773-1.196191 4.887609-.466013 5.857444.647712-.6184 2.604084 3.340506.115311 1.413521-.695569 1.648011.09384 1.207007.687942.892127 1.216489 2.413453-.16161 5.488818.07225 6.910653-2.346585 1.391757-2.220472 2.209814-5.091116 4.871682-6.163524 2.711642-1.271815 3.306481-4.375971 4.560183-6.774154 1.545795-1.146883 3.131949-2.691877 2.243679-4.940193-1.202681-2.603677 2.403938-4.560328.976491-7.11667-.989088-2.0740624-.642802-4.8025935-3.101575-6.0144031zm-.543843.071212c-1.102465 1.2343773-1.294243-.7385817 0 0zm.331233.6621109c-.297245 1.3067805-.966525-.7511763 0 0zm-.702892.1103066c-.084669.6239811.753016.7713112-.578659.5753755-.357558-.1538718.482124-.9599535.578659-.5753755zm-6.491006-4.6270495c-.589915.851047-.630605-.8780151 0 0zm-.65805-.020137c.699249 1.8779079-1.187232-.8999996 0 0zm7.29107 6.0083025c-.53321 1.7580297-1.360598-1.6972757 0 0zm-6.362921-4.5795774c-.546618 1.0778922-.759825-.945757 0 0zm-.611315-.3963758c-.645887.9210222-.570449-.7795125 0 0zm-.718765-.3586686c-.204066 1.0359025-.88174-.6687423 0 0zm.900319 1.2536233c-.07715 1.0685436-.385611 2.2767767-.625804.9443324-.698738.5470995-1.570942.5901113-.625078-.4153882 2.330355-.3413537-2.421985-.4711717-.380339-1.0379623-.152671-.8550154 1.162465.8098766 1.631221.5090181zm6.335728 4.8846872c-.704865 1.2248815-1.655855-.2629895-.323985-.2382653l.323988.2382665.000001-.0000083zm.3179.9429194c-.607293 1.4131441-.549721-1.3270228 0 0zm-.665431-.052055c-.288708.7614258-.696953-.52486 0 0zm-5.692882-3.7750425c-.464265.9460804-.75009-.7481369 0 0zm6.377146 4.7485566c-.412002 1.006434-.747188-.67974 0 0zm-.623814-.322003c-.436963 1.375786-.902341-.996801 0 0zm-6.776848-4.4533093c-.02305 1.4759547-1.809526.8720578-2.248252.3554746.889293 1.3868361-2.677335-.064815-1.167041 1.0039744-.284829 1.0872679-1.630985 1.726038-.597825.247307-.814218-.7469435-.290173 1.1748862-1.409374.1700926-.499185.4968402 1.708072.940273-.280163.7941633-1.367931.085896-1.040397-1.2825544-.237317-.5348897.363098-.8777188 1.804882-.8771262 2.718475-1.8166544 1.142256.3587619.59513-1.3484172 1.675298-.2675729.988767.314441.923265-.070244 1.546199.0481zm-1.44333.2428369c-.05437.3862895.350602-.1710392 0 0zm8.862468 5.3671134c-.453527 1.075649-1.077169-.858968 0 0zm-8.834278-6.0900574c-.258883.8107772-.606071-.4632785 0 0zm8.68473 7.0153044c-.524412 1.313927-.925162-.862031 0 0zm-1.355849-.791593c.164629.773152.07013 2.197629-.04889 3.377277.07701 1.851722-1.664194.518015-.447556-.393837.196053-1.006679-1.271621 1.362439-.579234-.430858 1.178219-.616205.50852-1.62905-.27887-1.535458.471779-.742104 1.618239-.331889.869711-1.160592.139885-.05724.475497-.09823.484842.143466zm-7.500787-4.5958243c-.152422 2.1309857-2.734984-.8724166-.677857.3811962.375699.1251083.313873-.8120768.677857-.3811962zm-4.475521-3.0713319c-.236838 1.4647341-.753126-.759812 0 0zm16.318494 12.0050352c-.36779.91574-.588113-.634378 0 0zm-15.341304-11.1327095c-.8575 1.7971688-1.066028-.692377 0 0zm7.993819 5.9196535c-.381362.938985-1.441589-1.280321 0 0zm1.651395 1.509632c-.471183.751732-.562621-.739682 0 0zm-.523425-.368648c-.583567.647577-1.453074.445869.118917.894371-.688584.330568-2.249861-.0635-3.167075.704204 1.005291-.733078-.0024-2.183331-1.13957-1.859225.255534-.690734.09927-1.59955.807413-.51718.759692.09463.867009.978544 1.39528 1.543577.357925-.41833 1.688823-.952751 1.985035-.765747zm-.771047-.404876c-.826934 1.226453-1.74518-.356388-.692392-.304638.101772.440068.567966-.176996.692392.304638zm-1.748194-1.271769c-.09223.446707.786357.959652-.40794.72631-.668077-.164182.164204-1.1351806.40794-.72631zm8.306244 6.390816c-.327461 1.097373-.807252-.844087 0 0zm-10.843537-7.8982979c.113694.9028266-.992143-.42428 0 0zm-.780223-.4533185c-1.141727.8691044 2.204074 1.1590632-.05588 1.7581564-.04712-1.0093467-1.339777-1.1489572-.0845-2.0169343l.140384.2587755zm6.940811 5.0324024c-1.62118 2.098287-1.064322-.982356 0 0zm-11.242578-8.0641397c-.433979 1.0815525-.791062-.7820184 0 0zm3.089744 2.564501c.732048 1.3164336-1.463698.5035082-.09704-.212395zm-3.76115-2.5048529c-.426475 1.1634236-.846507-.5336326 0 0zm.538148.5342299c-.537898 1.0006576-.970411-.6489497 0 0zm16.199155 11.9441527c-.581102.867128-.401092-.851382 0 0zm-.648418-.501407c-.377324 1.224331-.869417-.827736 0 0zm-15.300556-10.6756319c-1.175022 1.5628365-.355856-1.1824583 0 0zm10.5312 7.7018279c-.449494-.194255-1.514871 1.912001-1.636462.484135 1.371192-.774664-.442343-1.812002 1.636462-.484135zm-1.276267-.88476c-.575022.585371-.395992-.792754 0 0zm-4.246791-2.998183c.431365 2.006068-1.194761-1.0639134 0 0zm-1.92266-1.3930784c-.503566.6693194-.629233-.890631 0 0zm-3.875574-2.8051601c-.268349.8517257-.744398-.5774423 0 0zm4.490759 3.3108378c-.415123.6801197-.4911-.7132851 0 0zm4.878267 3.7163407c.408032.687755.879305 1.519392-.246594.62562-.632468.272047-.708049.520791-1.141712.869773-.457772-.883524 1.356386-1.543596 1.388303-1.495395zm5.924669 4.382683c1.002191 1.399079-3.168827 2.104654-.410587.742122 1.032804-.999373-1.948353.458835-.347215-.766058.131816-.315635.650823-.332433.757802.02394zm-7.605974-5.285914c-.642514 1.032742-1.847669-.01634-.10202-.27651zm-1.346124-.976801c-.32028 1.039422-.736127-.629649 0 0zm9.677564 7.148604c-.496989.911682-.520521-.870415 0 0zm-10.917606-8.010884c-.09744.605713.554735 1.24712-.868552.38029.613519-.0825-.03647-1.2260553.868552-.38029zm-1.871951-1.3669378c-.64371 1.1332068-1.767099-1.42087-.138953-.1197435zm.653933.6258568c1.247475 2.359343-1.545491-.3440402 0 0zm7.355104 5.434788c-.702926 1.640611-2.097932.220729 0 0zm-11.672585-8.4559408c.566007 1.1369275-2.364526.042116-.308839-.2467357zm3.775632 3.1006465c-.564506.6870213-.448519-.7146471 0 0zm8.93057 6.6655463c.106871 1.797144-1.347022-.901583 0 0zm-6.367508-4.568985c-.317756 1.202253-.907505-.824786 0 0zm-3.573635-2.6365337c-.491336.9622937-.804629-.8401875 0 0zm9.080922 6.6586667c-.685203 1.248896-.730137-.682854 0 0zm-2.064017-1.424242c-.469939 1.131364-1.796122 2.110283-2.64601 1.858171.924247-.195695.964465-1.730586 1.617644-.972055.199289-.242392.625478-1.396499 1.028366-.886116zm-2.988067-2.161553c-.306051.93839-.661988-.576669 0 0zm-2.963641-1.946596c-.628937.620334-.260685-.7962005 0 0zm-1.933748-1.4752935c.153844 1.9553205-1.339536-1.0471103 0 0zm5.808858 4.3235945c.529214 1.495659-1.153689-.823537 0 0zm-7.875709-5.6355109c-.947529.921845-.372741-.9960848 0 0zm3.462511 2.5235209c-1.809614 1.610997-.620799-.5335916 0 0zm12.445952 9.077818c-.486677 1.169807-1.770725-.311999 0 0zm-10.557013-7.670645c-.38418.871602-.748058-.84894 0 0zm-.972387-.546313c-.876814.663859-2.285764.694763-1.004888-.348113.411006.971868.464111-.30714 1.004888.348113zm7.629704 5.748167c.390325 1.613629-1.981337 1.187319-.882419.621338 1.303574.03682-.583958-1.42084.882417-.621335zm-6.270349-4.658215c-.240617 1.195886-1.026583-.885528 0 0zm8.470746 6.266374c-.938819 1.525117-1.788279-.877021 0 0zm-7.97596-5.786339c-.236567.965689-.826193-.673006 0 0zm.724131.606055c-.444914.917267-.669184-.815369 0 0zm-4.463111-3.201492c-.822173.471524-1.276849.496577-.05658.9511-.555419-.131853-1.620943 1.092617-1.727333.02757.945546-.295798.180433-1.9275308 1.783904-.978672zm5.911957 4.33362c-.240115 1.08851-1.72891.360852-2.282941.358249.625664-.478785 1.412229-.686689 1.662832-.01334.258531-.06716.04693-.975081.620109-.344911zm-7.647599-5.5671013c-.529239.7845433 1.575297.3187459-.177662.8718099-.561688-1.4109596-2.336882 1.7357494-2.137181-.0884694.818875.5517038.324504-1.0911289 1.485774-.6336874-.611157-1.1297273.32778-.4047754.829069-.1496519zm11.924173 8.9185943c.620929 1.111603-2.630862 1.752147-.619552.116327.182018-.159656.633779-.855257.619552-.116327zm-2.167087-1.695168c1.195814.639915-.606925 2.083697-.638798.728857 1.146786.343702-1.279299-1.983934.638794-.728854zm-3.375287-2.132621c-.6275.879499-.608932-.861911 0 0zm-2.296108-1.636931c.997583 2.23474-1.965666-1.589518 0 0zm1.257983.969616c1.134112 1.879042-1.606024-.751128 0 0zm8.153983 5.999976c.311873 1.972914-2.490297-1.145915.000003-.000005zm-4.503866-2.726418c-.32853 1.008873-.706556-.913791 0 0zm-6.106854-4.482162c-1.153409 1.900146-.980577-.563971 0 0zm-2.603444-1.946503c-1.109935.07937-.887883 1.760256-1.94683 1.027553-1.78703.498755 1.225555-.866314.510954-.811002-.913433-.6403097 1.286308-.4798927 1.435876-.216551zm3.252609 2.576592c-.662735 1.136729-.968063-.847007 0 0zm.781101.745667c-.516484 1.043665-.932782-.83803 0 0zm.531358.42411c-.401818 1.49307-1.019257-.537624 0 0zm2.301973 1.73648c-.517101.748526-2.720105-.257261-.911107-.171657-.06441-.669305.722205.05057.911107.171657zm-11.516655-8.2722255c-.551051.9951004-.687241-.8881121 0 0zm16.142689 11.7704845c-.962827 2.56367-1.479437-.409519 0 0zm-11.659615-8.43921c-.405979.958855-.638122-.547629 0 0zm13.041661 9.689471c-.660108.218262-1.438446.108583-1.784684.893916-.336175-1.509508.796832-1.471107 1.784684-.893916zm-3.315695-2.441397c-.974307 2.213358-1.651237-.650241 0 0zm-8.214476-5.888494c-.740261.861961-1.16502-.99058-.000002.000002zm3.611315 2.603986c-.653176.970358-.634041-.818718 0 0zm3.799215 2.850271c-1.06826 1.145023-1.109567-.785602 0 0zm-1.066456-.79931c1.134741 1.224121-1.422811-.220779 0 0zm-4.688735-3.284292c.436609 1.550235-1.109606-.288173 0 0zm6.925157 5.147446c.422357 1.638782-1.035077-.429604 0 0zm-6.217743-4.409466c-.629025.757824-.570176-.80862 0 0zm-1.440802-.951842c-.324239 1.14248-.953734-.719258 0 0zm-.784963-.480513c-.448068.966743-.784831-.839711 0 0zm3.466951 2.557046c-.354978.801022-.692496-.640854 0 0zm-9.855541-7.047982c-.704751 1.964897-1.798275-1.5734174-.18039-.1916203l.180395.191625.000026-.0000366zm12.134743 8.899306c-.339599.793794-.540392-.573051 0 0zm.481349.360675c-.40144.762294-.510812-.537289 0 0zm-7.275666-5.201878c-.329235 1.187181-.873195-1.128814 0 0zm10.047419 7.278923c-.926883.654952-2.177125-.410127-.2611-.181293zm-4.636546-3.200764c-.508472 2.007154-.814288-1.11027 0 0zm-2.014132-1.539384c-.806832 1.214775-.78908.04469-.678984-.360717.189099.189056.568183.120957.678984.360717zm4.251925 3.270323c-.631576 1.189926-1.234693-1.048667 0 0zm-2.924048-2.050392c-.57945.718708-.422112-.779864 0 0zm-2.809119-2.067259c-.494923.912938-.580144-.819836 0 0zm-1.193203-.817075c-.275654 1.691966-.987781-.375816 0 0zm-5.897603-4.3304478c-.341419.9698073-.881329-.6351475 0 0zm4.208495 3.1438658c-.742143 1.419849-.944509-.806352 0 0zm-2.002857-1.44559c-.877652 1.146503-2.139135.451323-.393066-.154604l.285824.04932.107214.105325zm6.936279 5.125229c-.540018 1.062901-1.411778-1.204131 0 0zm-2.768099-1.985034c-.360264.97072-.687242-.817501 0 0zm5.04495 3.706931c-.542834 1.231398-1.838552-1.136498 0 0zm-6.650493-4.658863c-.34259 1.049377-.78798-.618483 0 0zm10.162979 7.466636c-.719133.93124-.774735-.671813 0 0zm-1.970815-1.44654c-1.103804 1.460601-1.092848-.685327 0 0zm.56151.476659c-.995455 2.136825-.902515-.775216 0 0zm2.056891 1.622131c-.342594 2.190314-1.841385-1.588329 0 0zm-6.155511-4.337658c-.05237 1.606392-1.730924-1.645119 0 0zm-9.423204-6.8565245c-1.003419.3967158.702404 2.3702415-.986459.9367495-1.13899-.466222.422509-.364822.06647-1.1688579.258778.1898355.802021-.117908.919999.2321108zm5.098485 3.7443405c-.76453 1.203044-1.096318-.815042 0 0zm6.701474 4.94638c.439214 1.154572-1.064732 1.945857-.350892.294592-1.181655-.236723-.05518-1.033133.350892-.294592zm-8.766512-6.288488c-1.230538 1.31126-1.242827-.699223 0 0zm7.041731 5.207183c.138932 1.332761-1.32323-1.014097 0 0zm-3.243679-2.290509c-1.018158.932649-1.086236-1.310289 0 0zm-.83735-.634523c-.710891.850643-.569538-.994315 0 0zm-1.853463-1.346771c-.417688 1.087592-.82876-.969663 0 0zm9.557898 7.062743c.317893 1.422586 2.388631 1.84543.508512 3.29623.634076 1.393436-1.144138-.511981-1.069795.548669 1.987195.707308-.865207 1.012974-.797866.365098-2.201544.222924 1.332648 1.098506-.998985.884486-.148615.539221 1.178229.108512 1.030628.970906-.430512-1.595267 2.408206-1.076719.89672.05213-.05132-1.50055-1.380922 1.715522-2.274233.160896 2.269453-.587235-1.474367-.198003.204988-1.597209-.289126-1.031512 2.984285-1.254244.790324-1.551826-.541647-1.556974 2.666512.810628.9047-.727001.378815-1.69139 1.746472-.125699.489911-.13572 1.793307.912698.692169-2.061052-.76331-1.62048-.731689-.872471 1.210674.238631.920861-.859943l.144572.03749.01296.176293zm-.0096 3.099025c-.0031.32203.305331-.102398 0 0zm-3.038998-5.352006c-.02552.960382-.804663-.46909 0 0zm-2.80951-1.9406c-.826707 1.66695-.731649-.882652 0 0zm-5.802961-4.176396c-.126065 1.12065-1.901929 1.290809-.464015.216916-1.057133-.588103.03233-.701434.464015-.216916zm5.111887 3.949611c-.28071.934147-.716659-.545445 0 0zm-1.685113-.95054c-.569168.794805-.517979-.800501 0 0zm6.925099 5.118751c-.925923.933454-.348247-.970823 0 0zm-4.26481-3.142776c.0085 1.975137-2.115922.389935-.896502.292657.06964 1.195745.712895-1.063475.896502-.292657zm-3.236957-2.394547c-.455291 1.147897-1.440957-1.024019 0 0zm-1.947595-1.362348c-.542392 1.115889-.937854-.84984 0 0zm12.875199 9.437286c-.682161 1.428516-.866315-1.001259 0 0zm-5.070762-3.679325c-.372939.696473-.444298-.635646 0 0zm-.551165-.415248c-.09386 2.532625-1.22169-.992383 0 0zm-6.550042-4.707313c-.601067.878155-.702798-.970495 0 0zm-2.922243-2.134938c-1.008714 2.132727-.755694-.951613 0 0zm16.754548 12.162866c-.215435 1.27302-1.097643-.680143 0 0zm-8.063328-5.859998c-.756733.905175-1.209044-.932991 0 0zm-3.449371-2.44953c.932164 1.546227-1.32421-.449898 0 0zm-4.946605-3.304782c-.468278.767099-.503462-.673366 0 0zm16.856321 12.367286c-.366976 1.034739-.848863-.867 0 0zm-6.819093-5.043257c-.983924 1.585706.144473.984404.885828 1.145223-.578946 1.160244-2.615624-.03199-1.276623-1.232708.107899-.03548.355823-.09645.390759.08752zm-7.16991-5.106874c-.453596.960913-.592915-.837494 0 0zm3.028417 2.226565c-1.324268 1.08322-.749211-1.041456 0 0zm-4.820862-3.532822c-.480454.965356-.741632-.767422 0 0zm11.471763 8.393663c-1.228538.99246-.673305-.903097 0 0zm-4.08227-2.898029c-.942306.954458-1.670732-.933815 0 0zm-4.480351-3.113851c-.158298 1.421104-1.113777-1.203895 0 0zm3.318211 2.526565c-.673346.936268-.566696-.901762 0 0zm-5.639229-4.059208c-.707233 1.181025-.781249-.98745 0 0zm-2.889621-2.008758c-.408268 1.072501-.83517-.708001 0 0zm-.666689-.432966c-.69474 1.126772-1.602345 1.159936-.883351.08518-.394666-.915607.652693-.573154.883351-.08518zm17.673181 12.87326c.644617 1.245034-2.626609.01478-1.101997-.388342.333223-.4602.638366.399502 1.101997.388342zm-4.128993-2.962685c-.44251.787327-.817657-.824753 0 0zm5.209217 3.875002c-.800424 1.301255-1.030135-.817239 0 0zm-12.317987-8.972923c-.792523 1.436437-.94739-.884622 0 0zm-2.394779-1.679846c-.615598 1.167772-1.107621-.70285 0 0zm-1.838743-1.31049c-1.432225 1.404881-1.476325-.454556 0 0zm-.904733-.603264c-.476617.575559-.992028 1.927147-.846206.484882.523728-.184467-.240606-1.491824.846206-.484882zm3.59318 2.651683c-.505945 1.069961-.753627-.840281 0 0zm-2.111882-1.352418c-.841352 1.960916-.865183-.849941 0 0zm7.362298 5.400545c.14816 2.210057-1.073963-.826174 0 0zm3.50793 2.55692c-.722806.531383-2.084889.850835-.528552-.163249.142282.07681.48595-.105407.528552.163249zm2.333538 1.817474c-.546523 1.193979-.632843-.835513 0 0zm-3.350655-2.297432c-.191096 1.774884-2.293715-.46374-.405899.352899-.0078-.317653.156448-1.081378.405899-.352899zm-5.117498-3.748626c-.412774.967427-.660197-.819496 0 0zm-3.401695-2.497581c-.600558 1.003838-.624808-.841333 0 0zm5.27672 3.980529c-.368763.974893-.733026-.88318 0 0zm-.709311-.480967c-.457703 1.136404-.937658-1.008395 0 0zm2.12965 1.559136c-.432379 1.18079-.958761-.792189 0 0zm-5.91881-4.274555c-.42572.485813-1.66757.779676-.682274-.261445.227081.51653.447707-.208328.682274.261445zm-4.603162-3.284509c-.535525 1.058028-.752439-.804213 0 0zm5.80031 4.32793c-.379582 1.115609-.938595-.79369 0 0zm-.677323-.386795c-.446539 1.046561-.830524-.983206 0 0zm12.059243 8.863187c-.452963 1.18828-.957358-.855662 0 0zm-14.407612-10.405186c-.285746.944912-.682841-.61896 0 0zm3.847121 2.834174c-.345653.95108-.834386-.808487 0 0zm1.082058 1.015229c-.860915.679399-1.087303-1.243634 0 0zm-5.759145-4.166039c.567556 1.516382-2.196119.967983-.252477.468298-.401158-.308038-.146167-1.09182.252477-.468298zm14.42851 10.605839c-.5875 1.102095-1.582468-.479916-.05519-.199268zm-5.73458-4.257453c.491861 1.331996-2.743933-.715311-.225504-.251384zm5.106714 3.730386c-.416162 1.02446-.822783-.808237 0 0zm-9.735034-7.06419c-.118612 1.048166-.905518-.425807 0 0zm-2.647729-1.910051c-.515806 1.486993-2.205539-.836611-.378026-.01316.02966-.239049.383742-.20315.378026.01316zm-2.340152-1.633575c.171447 1.511419-.868876.618756-.206676-.238845zm-1.223463-.855207c-.716205.912644-.584148-.962916 0 0zm8.723094 6.3979c-1.181767 1.198874-1.874474-.841576 0 0zm.725796.702287c-.185571 1.232758-1.179724-.813746 0 0zm-2.592686-1.886689c-.512126.277968.0099 1.57728-1.003735 1.589698-.417922.489271-1.199467-1.190047-1.673307.419277-1.919318-.501181-.648877 1.786811-2.237727 1.521417.531073-.410455.378775-.588153.473436-1.277122.598281-.669509 1.742943-.657307 2.471273-1.248334.500053-.829032.544149-.149394.846369.01297 1.293041.420306-.569071-1.574611 1.123687-1.017905zm8.455535 6.23017c-.543451.884428-.579132-.807661 0 0zm-10.933406-7.983389c.07933 1.727695-1.043308-.574076 0 0zm1.146711.907896c-.0952 2.561361-1.111531-.689608 0 0zm6.471435 4.942603c.512041.969156.393142 1.625623-.445918.791895.182132.568999-.261461 2.380726-.721333 1.151887.457994-.411323.611794-2.88332 1.167251-1.943782zm-11.632165-8.425018c.548572 1.29055.088 1.856084-.406742.512912-1.517765.959288.371405-1.205371.406742-.512912zm-1.04107-.572558c-.653906 1.108454-.272545 1.773802-.93401 1.634965-2.001729 1.985113-.900978-.462836.19968-.856588.270942-.168873.251408-1.573047.73433-.778377zm5.399022 3.994076c-.29518.979924-.669157-.650739 0 0zm6.419815 4.707396c.159367.526821-.595083 1.167233-.55349 1.882912-.676635-.208944-.02561-.845244-.994337-1.307638.2201-.219685 1.244028.178659 1.096465-.903977l.226238.08409.225148.24457zm-2.465233-1.806786c-.366083 2.597011-1.659719.321972 0 0zm1.605826 1.409214c-.862591.908971-1.277823-1.370444-.000006.000006zm-6.312828-4.467889c-.924682 1.2449-1.11683-.985868 0 0zm-1.778846-1.184092c-.468169 1.007482-.780226-.89334 0 0zm5.180743 3.797996c-.984128 1.395366-1.251626-.783579 0 0zm-4.173405-2.981308c-1.156512.591555-.943683-1.143475 0 0zm-6.527439-4.622207c1.521109 1.866818-2.919116 1.659498-.682365.947493 1.329275.28061-.650185-1.656957.682365-.947493zm8.134365 5.999043c-.794933 2.111807-1.668532.381433 0 0zm2.826487 2.389338c-.665209.85262-.535046-.826137 0 0zm-6.38612-4.602496c-.897536 1.325253-1.424857-.793275 0 0zm.797099.672579c1.575512 1.595136-1.545204-.486285 0 0zm7.188811 5.241744c-.389869.866061-.610397-.801762 0 0zm-5.250673-3.595592c-.439147 1.066876-.7137-.674598 0 0zm-3.799944-2.783507c-1.091617 3.840191-1.047855-1.298996 0 0zm2.877542 2.264802c1.25498.876485-1.594063.282703-1.192904-.302858.334607.462226.994211-.197827 1.192904.302858zm6.228248 4.64574c-1.104928 1.602843-1.167995-.189141 0 0zm-1.776786-1.307174c-.661542 1.883696-1.182771-.438397 0 0zm1.036867.827721c-1.38696 2.35575-1.418372-.19048 0 0zm-2.315033-1.47734c-.386432.689844-.524757-.668174 0 0zm-4.943444-3.423004c-.03056 1.485487-.884729-1.111806 0 0zm-2.068599-1.518152c-.518095.955972-.608863-.800478 0 0zm10.444952 7.889291c.103803 1.490894-1.484434-1.164024 0 0zm-3.316851-2.276735c-.894229 1.499101-1.060652-1.578413 0 0zm-3.076184-2.415263c-1.560695 1.700053-1.199128-.354456 0 0zm2.179728 1.644097c-1.217715.981587-1.300053-.548951 0 0zm1.996639 1.684607c-.344995.939006-.684397-.497462 0 0zm-8.972599-6.358824c1.329084.473682-1.147301 1.121646-.841684.274907.411227.484764.560624-1.243705.841684-.274907zm11.914022 8.637904c-.613767.754286-.420798-.815247 0 0zm-6.900573-4.972327c-.74189.901521-.565501-1.01995 0 0zm-1.182106-.866574c-.406144 1.004097-.654862-.675978 0 0zm-.548166-.425024c-.460369 1.221648-.833941-.854472 0 0zm-5.133746-3.759021c-.531435 1.259578-.986683-.924705 0 0zm14.390081 10.662378c-.200552 1.866409-1.640312-1.334774 0 0zm2.448585 1.899582c-1.274194 1.023543-.648328-1.099498 0 0zm-13.074041-9.531375c1.09903 1.30577.03595.820058-.507786-.03623-.03921-.305713.535322-.263975.507786.03623zm6.151872 4.566121c-.429076 1.060816-.805428-.934822 0 0zm4.891659 3.765964c-.897422 1.130586 2.488186 1.282031 1.038404 2.66953-.542308-.998514-1.548429-.06685-.429321.728375-1.479349.710137-1.049208-1.569036-1.155224-2.625823-.329116-.362853.485867-1.763682.546139-.772084zm-.02936 1.323927c-1.103109.743782 1.588241.376506 0 0zm-6.041036-5.88045c-.100946 1.418992-1.28654.661988-1.811194-.271611.722221.24455.848623.727035 1.811194.271611zm4.046124 3.106933c-.693666 1.437632-.752943-.608281 0 0zm.407234.521802c-.74938 1.390682-.408049-.94787 0 0zm-1.56236-1.130036c-.636426.954458-.631188-.947685 0 0zm-1.149353-.878275c-.386055 1.047739-.830318-.786903 0 0zm-8.433496-6.005951c-.632651.791921-.471073-.792888 0 0zm.548399.490234c.991029 1.003594-.890721.153441-1.244427.377252.350054-.171574.941853-1.147355 1.244427-.377252zm6.716826 4.886365c-.420325.884637-.752493-.808315 0 0zm-5.499228-3.987214c-1.099639 1.602423-1.073892-.582704 0 0zm1.017852.829077c-.854574 1.241977-.981114-1.01157 0 0zm7.152549 5.194612c-1.053696 1.361378-1.473863.03855 0 0zm-5.840185-3.977625c-.457807.92839-.60683-.724733 0 0zm4.764209 3.51482c-.104546 2.067731-1.007475-.628548 0 0zm-5.556644-3.947732c-.583192 1.135196-.75304-.880334 0 0zm8.023202 5.860502c-.528675 1.234343-.837756-.711599 0 0zm-4.556329-3.175846c-.526691 1.560957-.935052-.634534 0 0zm5.080148 3.74446c-.497495 1.096216-.856399-.830539 0 0zm-4.448045-3.003364c-.457422 1.266207-.960771-.933604 0 0zm-9.097441-6.657867c-.776997 1.658472 1.993665.04256.15514 1.326422.328851 1.271929-.874969-1.160356-.812958.781321-.831464-.198077-.661287-1.135613.152356-1.246262.145588-.321537-.535793-1.666008.50546-.861482zm13.769677 10.138854c-.240992 1.432466-2.504651 1.250453 0 0zm-1.90581-1.375009c.879257 1.231497-1.61455 2.116454-.239475.640813-.152637-.269747-.400693-1.360778.239475-.640813zm-4.667881-3.216806c-.807669 1.122195-1.714134-.662619-.529672-.03776.0542-.275596.579318-.301656.529672.03776zm5.681131 4.439289c-.748262.571851-.259154-.860863 0 0zm-8.641721-6.208546c-.612016 1.178859-.737064-1.039715 0 0zm5.721668 4.231977c-.598857.959771-.615954-.96673 0 0zm1.21705.956784c-.07456 1.552697-1.082868-.907378 0 0zm-3.694402-2.695709c-.428446 1.085472-1.159948-.592478 0 0zm-2.757208-1.948432c-.435635.841051-.596816-.819531 0 0zm4.52454 3.381259c-.743959 1.891455-.71069-1.264484 0 0zm-1.201301-.905331c-.75419.726119-.471722-.863156 0 0zm-6.871949-5.019664c-.637571 1.331523-.829359-.736869 0 0zm1.351696 1.118192c-.603787 1.073605-.78918-.981404 0 0zm11.195671 8.416522c-.437165.464361-.29779-.564073 0 0zm-1.351125-.977456c.26308 1.752329-3.267837 1.222474-1.5771.133684.509248 1.934003.913534-.55599 1.5771-.133684zm-13.124446-9.550369c-.193489.703582-.500955-.532846 0 0zm10.6508 7.81321c-.486879 1.037105-.793769-.770548 0 0zm-6.814907-4.853739c-.501934 1.113478-1.001359-.910509 0 0zm-1.750375-1.244008c-.448294.989924-.907269-.75689 0 0zm6.528582 4.884685c-.327976 1.43225-1.837086-1.285381 0 0zm-1.071851-.598062c-.817348.994878-2.078071.311501-.311195-.262063l.180404.05019.130789.211871zm-2.691857-1.981794c-1.192329 1.120031-1.151739-.862808 0 0zm9.127039 6.808493c.856748 1.589897-1.163327-.153764.0039-.122752zm-11.249135-8.252325c-.527006 1.081006-.77769-.814433 0 0zm8.683885 6.603486c-.703726 1.45298-.453279-1.339149 0 0zm-9.321067-6.973676c-.06271.983777-1.009287-.381021 0 0zm8.577783 6.313566c-.311788.922394-.649667-.57396 0 0zm-.579156-.338224c-.774955.960913-.530071-.965523 0 0zm-9.290852-6.748786c-1.216207 1.66143-.941273-.600767 0 0zm5.133886 3.881828c-.483952 1.205245-.815663-.968113 0 0zm-1.164337-.653214c-.462527.915775-.82647-.673012 0 0zm-1.119227-.765052c-.356259.996216-.689163-.824767 0 0zm3.771852 2.834517c-.374089 1.133653-.889744-.787643 0 0zm-2.157838-1.589429c-.563118 1.12347-.667602-.798052 0 0zm9.16745 6.749665c-1.042358 1.204999-3.088104-.18165-.733493.02942.163272-.07662.605374-.322604.733493-.02942zm-.975106-.648273c-.762986.870353-1.250845-1.064235.000004.000003zm-14.161757-10.205244c.446085 1.594308-.483736 1.336289-.40206-.01445.06489-.108796.380738-.187637.40206.01445zm9.68514 7.175828c-.654227.987681-.684033-1.051312 0 0zm-6.220132-4.485054c.369671 1.503306-1.371809-.919465 0 0zm12.330806 9.033095c-.821612 1.0394-1.241948-1.476828 0 0zm-7.363717-5.290847c-.570206 1.157077-.900762-.77129 0 0zm2.953862 2.257398c-.724929.963752-1.005402-.987703 0 0zm-9.542841-6.89962c-.983916.723407-1.801601-.831017 0 0zm15.695612 11.683705c-.633726 1.095428-1.274877-1.055886 0 0zm-10.308626-7.259623c-.03139 1.328243-1.033582-.993528.000002-.000007zm-5.078271-3.740093c-.616135 1.057095-1.667923-1.024604 0 0zm10.777833 7.866219c-.240769 1.983202-1.211959 1.664221-.49149.146176-1.278619-.165907.0508-.87396.49149-.146176zm1.863054 1.439464c-.782522.628897-1.518462-.806493 0 0zm-9.347169-6.777725c-.70055 1.173282-.816538-1.00862 0 0zm-1.397516-1.036835c-.428172 1.244487-.951576-.811886 0 0zm11.078608 8.145573c.107592 1.395472-1.916455.165533-2.310822-.08766.955756-.86873 1.357212.618476 2.310822.08766zm1.284931 1.162102c.122825 1.591567-1.374351-.919719 0 0zm-7.351502-5.215301c-.428766 1.251255-.945054-.90798 0 0zm-6.126641-4.450934c-.557233 1.176622-.852583-.849876 0 0zm-2.601702-1.806805c-.558565.911226-2.189925-.739988-.952571-.643354.06893.689448.801339.248734.952571.643354zm5.539996 4.095228c-.209031 1.151851-1.024821-.56305 0 0zm5.87956 4.513254c-.307511 1.147922-1.856035-.622038 0 0zm-5.025138-3.562566c.398479 1.45886-1.227237-.811177 0 0zm-4.860786-3.427299c-1.342919 1.777275-1.122321-.770942 0 0zm14.798572 10.944513c-.527584 2.225168-1.660972-1.176582 0 0zm-15.891777-11.565745c-1.266106 1.507632-1.094178-.92428 0 0zm14.792873 10.89089c-1.011514 1.009966-.766325-1.110248 0 0zm-3.464135-2.598905c-1.131524 1.107515-1.157435-.75687 0 0zm-4.790512-3.345953c-.551055.9951-.687236-.888116 0 0zm2.041382 1.617518c-1.168895 1.587009-1.408895-.663564 0 0zm-1.040454-.731108c-.38954 1.230315-1.04348-.844461 0 0zm6.25345 4.603245c-1.373021 1.213354-.952508 1.530839-.02626 2.04436-1.166728-.02552-2.306079-.107284-2.215311 1.390858-2.428507.369538-.02249-.994088-.243244-1.896308.04469-.644433 2.180008 1.233127.804468-.534303-.793176.33332-2.679508-1.176438-.52566-1.027491-.588659 1.587051.542416-.258543 1.044942.765783-.131737-.373676-1.173302-1.366666.07631-1.186214-.02036 1.166376.7938-.153479 1.084758.443318zm-2.709354 2.851786c-.357807.63852.688939.03946 0 0zm-12.363137-13.712971c-.900626.950901-2.334695-.812241 0 0zm10.737322 7.93801c-.714095 1.203411-.868704-1.117838 0 0zm-6.412485-4.679174c.640592 1.73938-1.356277-.733265 0 0zm2.899623 2.443471c.02259 1.827613-.932884-.553141 0 0zm8.921905 6.643979c-.260784 1.138591-.66949-.893215 0 0zm-3.026107-2.23905c-.605939.947511-.599058-.946559 0 0zm-2.059326-1.354065c-.513512 1.310948-1.017082-1.053226 0 0zm1.381943 1.04173c-.08929 1.515743-2.040083-.245512-.461417.283771-.05522-.386126.239638-.859594.461417-.283771zm2.91741 2.09771c1.005428 1.395395-1.171376.39058-.333278-.250736zm-13.869078-9.999905c-.41246 1.202319-1.105912-1.010809 0 0zm3.460174 2.56418c-.719409 1.308778-.8526-1.140233 0 0zm-4.445531-3.245734c-.442475.980521-.790938-.785024 0 0zm11.106309 8.129477c-.356983 1.109119-.897756-.709885 0 0zm-11.895073-8.551447c-1.298742.04961.0373 1.408086-.941425 1.590422-.09394-.884248-.728407-2.742226.941425-1.590422zm9.722582 7.334586c-.797833.989719-.784263-.894086 0 0zm-2.863667-2.099469c-.275244 1.101397-.853473-.767715 0 0zm9.933237 7.294478c-1.318462 1.120923-1.188364-.998735 0 0zm-12.454448-8.900491c-.515847 1.056399-.691252-.899369 0 0zm3.804143 2.829264c-.45592 1.29897-.943164-.786527 0 0zm-7.435357-5.371656c-1.372814.713022-1.114179-1.238342 0 0zm9.213804 6.829544c-.43767 1.141469-.919527-.920586 0 0zm-2.585349-1.777724c-.65968 1.964299-.904373-.731262 0 0zm-4.024833-2.9749c-.804543.250937-1.267518 1.339265-1.040032-.302766.355424.2797.786773-.12784 1.040032.302766zm7.931296 6.207295c-.503187 1.054968-.701276-.988351 0 0zm-10.377818-7.520912c-.464486.891084-1.326963-.892579-.121258-.148962zm5.464953 4.069751c-.03307 1.211138-1.169225-.689253 0 0zm-5.029353-3.554499c-.572674 1.084102-.89255-.924486 0 0zm13.582983 10.075403c-.260567.901374-.878885-.646463 0 0zm-9.955424-7.188738c-.650678 1.092559-.757106-.946106 0 0zm6.354471 4.872774c-.450198.768367-.591791-.702461 0 0zm-2.149708-1.56615c-.693484 1.216747-.850733-1.116441 0 0zm-10.252563-7.339563c-.50859 2.097145-.970501-.840928 0 0zm8.151793 6.083466c-.726502.962406-.676374-.9094 0 0zm-8.753857-6.295506c-.23914.985228-.672763-.509597 0 0zm13.550742 9.962591c.861796.821465.91465 1.626576-.06631.801291-.198988-.405918-1.02863-1.602617.06631-.801291zm2.169376 1.611273c-.205335 1.008429-.846874-.657689 0 0zm-4.244497-2.934033c-.534495 1.1859-.904984-.927289 0 0zm-8.672101-6.060327c-.641916 1.337706-1.080642.267094-.08372-.151658l.08372.151663zm6.750869 5.003474c-.599593 1.140395-.949906-1.059179 0 0zm-.813997-.569092c-.42121 1.087668-1.130289-.969829 0 0zm-9.898285-7.192328c-.640675 1.105253-.776124-1.001636 0 0zm6.224306 4.52847c-.559957 1.179137-1.065366-.947088 0 0zm-2.870842-2.004484c-.405235.790216-.629498-.807887 0 0zm-1.165006-.67963c-.02422 1.635349-.312157.266625-1.142854.678722-.247831-.455536 1.022082-1.074746 1.142854-.678722zm10.836325 7.958924c-.594964 1.157798-.973635-.917012 0 0zm-5.116283-3.659948c-.437375 1.033251-.793517-.75971 0 0zm-8.710664-6.28359c-.40197.804138-.491559-.766393 0 0zm5.907486 4.392219c-.533301 1.075021-.811939-.852446 0 0zm3.268058 2.415734c-1.502131 2.395237-.644696-.933115 0 0zm6.154332 4.578198c-1.000971.790927-.570018 1.461043.432258 1.865597.391044.457493-.93363.31088-.745822 1.213665-.392493.02779-3.148941-.121098-2.206564-.573043 1.645009.455401 1.109191-.08014 2.18297-.628005-1.622285-.323806-.778582-1.68639.337158-1.878214zm-3.557683-2.495774c-.896549.934985-.543912-1.082958 0 0zm-9.717199-7.060749c-.96161.721188-.846059-1.335171 0 0zm12.581103 9.168775c-1.066995.0172-.161146.783776-.957574 1.22326-.05279-1.112006-.654165-1.72886.957574-1.22326zm-6.885607-5.048368c-.629621 1.114848-1.006538-1.011341 0 0zm7.739578 6.09564c-.243132 1.071622-.858721-.67114 0 0zm-15.840217-11.389419c-.587148.895817-.616177-.809786 0 0zm6.313926 4.802533c-.914708.899912-.448561-1.068931 0 0zm-2.715733-1.936746c-.426907.911389-1.328406 1.287764-1.168102.14381 1.01727.814608.331284-.967158 1.168102-.14381zm-2.83566-1.819432c-.591734 1.11781-.85551-.953606 0 0zm1.151103.899687c-.109515 1.491251-1.933638-.724375 0 0zm-1.874829-1.339462c-.944068 2.178908-1.25689-.676309 0 0zm9.639432 7.031426c-.495811 1.030377-.970939-.927378 0 0zm2.951834 2.18616c-.244151 1.289504-1.09926-.73506 0 0zm-1.836715-1.300693c-.471087 1.235041-.963769-.953973 0 0zm-5.553634-3.753885c-.543337 1.223589-1.048249-.995225 0 0zm7.755157 5.647129c-.537751 1.152804-.801653-.807832 0 0zm-11.368655-7.640873c-.939738 1.121107-1.155954-.812696 0 0zm5.982538 4.473962c-.905504.899555-.617558-1.146824 0 0zm-7.30811-5.153165c-.642732 1.199412-.950993-.98822 0 0zm8.471135 6.208358c-.384387 1.229663-1.062754-.922856 0 0zm4.302314 3.291788c-.557843 1.091155-.931514-1.027263 0 0zm-1.401855-.85411c-.352623 1.135079-1.002616-.788918 0 0zm-5.234127-3.742983c-.36288 1.172188-1.014784-.790037 0 0zm7.751164 5.670809c-1.37673 1.21832-1.274485-.670642 0 0zm-12.779906-9.138324c-.02455 2.027886-1.720896-.748965-.656435.03176.166209 1.231936.255793-.83484.656435-.03176zm8.102101 5.929637c-.357743 1.305987-1.120128-1.027162 0 0zm-4.585063-3.196786c-.432098 1.084593-.709055-.734492 0 0zm-2.597211-1.739902c-.254067 1.130324-.994645-.684697 0 0zm7.798475 6.240857c-.628768 1.226821-.843898-1.079104 0 0zm-2.197489-1.460729c-.679175 1.379408-.802765-1.028621 0 0zm-.822614-.624237c-.259028 1.259411-1.06619-.765767 0 0zm3.65423 2.752332c-.411063 1.142792-.82621-.846974 0 0zm-5.53883-3.904132c-.520654 1.123306-.842963-.955501 0 0zm-3.236227-2.408405c-.423613 1.117414-1.023368-.768533 0 0zm12.595104 9.390128c-1.137537.685421-2.360124.416281-2.670742-.757731-.02922-.90705.954791 1.111681 2.052407.266719.195085.15338.543602.213278.618333.491015zm-2.173693-1.62823c-.476924.900603-.831875-.960756 0 0zm-11.270089-8.152256c.462563 1.214811-1.171764-.34444 0 0zm10.209021 7.622286c-.565932 1.240058-.908315-.920255 0 0zm-10.898344-7.865978c.409125 1.584552-1.011366-.746236 0 0zm8.629035 6.556214c-.620116 1.253304-.900488-1.082301 0 0zm-9.078533-5.855755c-.889278.809765-.519009-.969129 0 0zm.732865.67994c-.613969 1.082337-.906122-1.008081 0 0zm5.001808 3.640175c-.657108 1.105077-.98936-.913677 0 0zm4.961999 4.062451c-.135917 1.796017-1.020105-1.024132 0 0zm-3.809647-2.759821c-.212833 1.167631-.915504-.642884 0 0zm-7.140798-5.027286c-1.209839.75876-1.023481-1.240027 0 0zm9.603487 7.056333c-.747519 1.110149-.758997-1.14768 0 0zm-1.584541-1.095213c-.221267 1.076967-.930866-.694643 0 0zm3.856814 3.367153c.971313 1.096658-.356314.643734-.508276 1.57886-.08989-.253211-.216518-2.675905.508276-1.57886zm-1.917986-1.34629c-.459925 1.248594-.929266-1.111778 0 0zm-6.066499-4.483658c-.493247 1.090661-.914289-.857998 0 0zm-3.743053-2.606504c-.395295.779101-2.627505-1.201254-.497631-.244525.104109.187083.444224-.04919.497631.244525zm10.357322 7.887414c-.36749.948356-.783735-.7637 0 0zm-9.966374-7.181547c-.241994.78165-.571157-.45555 0 0zm2.947212 2.592915c-.646761 1.25212-.844457-.855228 0 0zm4.341305 3.214385c-.215323 1.403426-1.294632-1.162247 0 0zm-6.338043-4.363976c-.612569 1.16499-1.546704-1.299746 0 0zm5.223289 3.826014c-.459655 1.161222-.923052-.853692 0 0zm-.813617-.441075c-.458306 1.033455-.880348-.842951 0 0zm-5.282856-3.751096c-.652817.858263-.53503-.861492 0 0zm4.429744 3.43249c-.514371 1.196096-.916403-.9999 0 0zm-1.738983-1.228303c-.432649 1.06389-.995878-.727151 0 0zm-.0396.696594c-.208597 1.305553-1.096884-.774154 0 0zm-1.107016-.721441c-.472265 1.018498-.874185-.830526 0 0zm3.832651 2.883026c-.609476 1.133097-.995006-1.106384 0 0zm-2.792467-1.08734c-.554154 1.029991-.844901-1.023651 0 0zm5.778843 4.187891c-.163875.739644-.627951-.489432 0 0zm-.731496-.501948c.08738 1.783144-1.072511-.615058 0 0zm-6.298493-4.534807c-.786023.92234-2.264929-.903443-.535796-.123582.152341-.159453.513172-.145977.535796.123582zm5.697733 4.697295c-.891159 1.507194-2.643179.421771 0 0zm-.925558-.363758c-.715156 1.329945-.763765-.61508 0 0zm-3.499187-2.494895c-.0032 1.873405-1.217035-.931234 0 0zm1.026107.967039c-.646401 1.081497-.968639-.929751 0 0zm-2.829987-1.900671c.338531.935142.596237 1.041108.783452 2.211988 1.869774.986934-.890292 1.138201-.610327.218988-1.834427-.175768-.241588-.502693-.08866-1.059026-1.711121.06409.201419-.68831-.885372-1.425688-.05462-.660729.65337-.233449.800905.05374zm-1.02616.177953c-1.112583 1.121559.09228-1.117242 0 0zm3.44856 2.577093c-1.017389 1.16681-.783177-.905445 0 0zm1.239035.979818c-.602284 1.371771-1.687367-.341632 0 0zm.823763.838802c-.760603.741849-.495192-.930862 0 0zm-5.61298-3.686593c.387716 2.078855-1.455168.764554-.07993-.147175l.07993.147184zm5.933126 4.341801c-.279823.867031-.600556-.50967 0 0zm-2.426743-1.756099c-.550299.9503-1.110108-.786506 0 0zm1.940194 1.617451c-.886319.704349-1.133739-1.393196.000001.000002zm-2.782599-1.522488c-.871799.993201-.81289-1.06654 0 0zm2.75005 2.255289c-.42311.822799-.817179-.758726 0 0zm-6.163033-4.456708c-.30516.969268-.702217-.679536 0 0zm4.463903 3.643878c-.60751 1.243939-.981083-.959952 0 0zm-2.363969-1.619418c-.555754.851255-2.34943-1.517438-.279516-.311962l.27952.311964zm3.884643 3.053779c-.408568.865292-.738393-.678598 0 0zm-.509853-.263519c-.415086 1.023164-.783187-.840252 0 0zm-4.929637-3.636026c-.409366.670046-.601561-.682936 0 0zm-.225404.410776c-.921319 1.814144-1.229664-.762283 0 0zm3.84286 3.222656c-.893936.983476-.626069-1.086957 0 0zm-2.221941-1.676092c-.69654.984149-2.461025-1.2652-1.269492-.623281-.06909.477738 1.113849.210348 1.269492.623281zm-1.934477-.217193c-1.097386 1.538819-.835372-1.026448 0 0zm1.070964.889192c-.349788 1.148784-1.060065-.68857 0 0zm-6.158636-4.348681c-.526575.583977-.165132-.562397 0 0zm8.944199 6.954323c-.40696 1.331854-.919004-.822137 0 0zm-9.075175-6.477697c.182386 1.728721-.975472-.955649 0 0zm9.328727 7.186662c.276399 1.358287-1.258542-.661162 0 0zm-5.189095-3.533741c-.452359 1.154086-.935511-.875711 0 0zm-4.558755-3.083663c-.275017.55598-.386364-.595764 0 0zm11.66383 8.939441c-.359959.93659-.723296-.656418 0 0zm-8.026337-5.37157c-.533752 1.164069-.891239-.981911 0 0zm-3.654201-2.34281c-.339921.462907-.37819-.452983 0 0zm.320351.46266c-.429977.901021-.615837-.657422 0 0zm2.395341 3.005901c-.410619.88235-.733662-.791972 0 0zm2.313665 2.231443c-.850962.853125-.765878-1.087535 0 0zm-.668261-.561021c-1.100525.817819-1.693552-.758765 0 0zm2.486797 1.919201c.500279 1.487405-1.493815-.729236 0 0zm-1.377219-.937696c2.189869 1.744654-2.041925-.440303 0 0zm-3.578349-2.503688c-.527031 1.439719-.820038-1.268683 0 0zm6.515877 4.966944c-.909255.766335-1.75608-1.219819-.395809-.215258l.289428.05851zm-5.365898-3.695092c-.445357.936858-.67902-.784096 0 0zm4.008112 3.198165c-.497156 1.088835-.824926-.864457 0 0zm-6.327424-4.65494c-.435998.758746-.571356-.525024 0 0zm4.186994 3.17c-.657462.756191-1.465748-1.177908-.000003.000004zm-2.56322-1.841935c-.844791 1.315285-1.956392-.389471 0 0zm3.292087 2.481388c-.40919 1.005947-.835551-.950173 0 0zm-1.754046-1.212247c-.894499.885268-1.081816-1.072885 0 0zm-1.036601-.3007c-.875985 1.012886-1.780191-1.038533 0 0zm2.249486 1.96964c-.926421.928376-.959784-1.114672 0 0zm.50458.518608c.849497 2.416003-1.508824-.872502 0 0zm-1.82036-1.243974c-.363355 1.109218-1.011171-.957082 0 0zm-.782002-.443125c-.568246 1.100912-.935014-.893778 0 0zm-2.168946-1.576009c-.291131.94258-.806544-.813639 0 0zm.691907.774433c-.644952 2.246963-1.032113-.478342 0 0zm.666339.700037c-.466024.992915-.897984-.762828 0 0zm2.770218 2.137544c.282916 1.202319-1.161613-.486629 0 0zm-1.736815-.849814c-.744946 1.157805-.856213-1.065558 0 0zm-.767672-.47173c-.428731.999334-.698725-.77301 0 0zm1.579255 1.297118c-.518928 1.563214-.943441-1.384953 0 0zm-2.327678-1.527603c-.459321.993148-.816075-.859281 0 0zm2.863276 2.610402c.569575 1.79003-1.265634-.766938 0 0zm-11.50867-8.299425c.403791 1.993623-.773829-.55176 0 0zm6.97834 6.738164c1.16462.97263.784345 2.021149-.308456.379778-.458883-.326676.202169-1.158601.308456-.379778zm3.155097 2.3098c-.328829.845738-.618482-.808082 0 0zm-9.535555-6.135683c.230081 1.660334-.903313-.146335 0 0zm6.096981 4.65788c.702632 1.712687-.95649-.765043 0 0zm-3.30128-2.390518c-.229611 1.740418-.317611-.661689-1.128122.440751.167527-1.043291-.72043-1.564124 1.128122-.440751zm-2.096796-1.467988c-.606754 1.35436-.841918-1.122126 0 0zm6.037369 4.597794c-.375194.542032-.385934-.625222 0 0zm-.960795.680126c-.420267.706611-.425217-.61981 0 0zm2.54353 1.926128c-.303302.698153-.482378-.564517 0 0zm-.505036-.200335c.24367 2.088851-1.065449-1.139148 0 0zm-3.875698-2.561016c-.418561.93398-.713799-.71996 0 0zm4.111311 3.523243c-.479525.894333-.70236-.881985 0 0zm-5.007547-2.997458c-.422396.983558-.741754-.682571 0 0zm4.746673 4.134249c-.400642.917273-.668028-.745924 0 0zm-5.298488-3.872387c-.307801.76455-.585792-.533096 0 0zm3.673315 3.749488c-.207699 1.089277-.560663-.962114.000005.000002zm-4.849223-3.139697c-.39211.553475-.305907-.614162 0 0zm7.263106 5.774663c-.790055.303703.111287-.755823 0 0zm-8.434316-5.009237c-.308458.788035-.722615-.784971 0 0zm-.57806.444895c-.06447.986152-.935641-.547915 0 0zm37.887023-42.31027c-.884064.5807887 1.579415.6098768 0 0zm-.561306-.4342896c-.632324.5637795.683702.3105458 0 0zm1.410683 1.4557254c-1.136997.3293811.443685 1.1636722.103283.2571313.411604.036663.07503-.3312543-.103283-.2571313zm-2.653247-1.8768915c-2.152654-.7875403 1.581166 1.9758391 0 0zm1.329366 1.3878501c-.818144.7147451 1.747467.6138003 0 0zm-19.112548 1.7322086c-.400033.76038.592996-.197778 0 0zm4.129212 27.861148c.226484 1.087647 1.517919 1.862147.638129.355573-.158311-.03204-.408363-.59462-.638129-.355573zm-.730587-.46728c-1.42485.174042 1.460594.9846 0 0zm-1.402496-.234703c-.822837.440182.780418.184296 0 0zm-8.373844-5.595541c-.23763 1.190154.882452-.05183 0 0zm-.54433-.05026c-.227297.56049.486318.01395 0 0zm11.5855 8.821558c-.171946 1.356868.898316-.107332 0 0zm-12.245586-8.967386c-.575995 1.036889 1.05379.112042 0 0zm.532303.622109c-.325952 1.397661 1.158937-.08343 0 0zm10.242461 7.823866c-2.759359-.50813-3.88994 5.475686-.725547 4.684199 1.420966-1.400544-.399179 1.601857 1.066598-.215071 1.474317-1.221189 1.663871-3.750282-.341051-4.469128zm.76125.914295c1.29801 1.844617-2.461077 4.865078-2.677626 2.068259.0022-1.140912 1.483971-3.1403 2.677626-2.068259zm-.906761.130762c-1.047383.234062-2.004106 3.197954-.454258 1.399283.2887.961482-.517788 2.169412.676394.52789.264265-.537574.67073-1.740224-.222133-1.927175zm-9.171497-7.783225c-.253957.548887.722297-.0089 0 0zm-2.407408-1.340987c-1.131002-.207227-2.126277 1.406368-.04079.753791 2.232503 2.076186-4.636587 2.300598-1.057007 2.760116 1.760536-.233336 3.491526-2.682465 1.097801-3.513907zm-.524786 1.029083c-1.077188-.05438-2.410996 1.559746-.652582.774899-1.885989 2.159932 2.226575-.196822.652582-.774899zm4.464428 14.97729c-.993167.328529-.750718 2.19921.03348 2.118386-1.932825 1.125411 1.669801 3.096283 3.123545 3.307879 1.463311-.226554 3.657397 2.544707 4.288105 1.428217-1.269795-1.736014-3.341722-2.487179-4.965501-3.004788-.501235-1.011867-.937209-.695106-.475656-.03409-1.039261.01133-.648982-1.569803-1.823039-1.887266.41203-.330515.400595-1.814765-.180928-1.928338zm.09322.646256c.349684 2.304577-1.132037-.962574 0 0zm.769183 2.35712c-.436108.961395-2.570514-1.587445 0 0zm-.469339.524866c-.500455.750917-.494633-.868261 0 0zm6.826992 4.331481c-.05757.769845.718894-.309079 0 0zm-2.070376-1.067928c-1.561264-.64234-3.535636-1.314308-4.775834-1.860711 1.2848 2.310712 3.447278 3.920337 6.283072 3.422347 1.023239-.135422-1.157031-1.752421-1.507239-1.561635zm-14.11179-10.18755c.04711.276336.357352-.07362 0 0zm-1.599996 2.025248c-2.014731.456423-2.801833 1.26201-4.14276.217101-.809414-.116444.789194 1.780643-.771449.710973-.430337-1.661678-.648009 3.13176-.775992.636622-.7858555.28689-1.0628856 2.554144-2.508821 2.61142.5083182 1.033996 4.049927-1.781275 5.353963-2.770778.561409-.643442 3.481566-.465575 2.845059-1.405338zm-4.641339 1.377039c-1.004195.60292-.459305-.676295 0 0zm-1.334892 1.470911c-.2915713.830228-.7903308-.614742 0 0zm-.7449158.840787c-.1332977.358438-.3717106-.268304 0 0zm12.7279088.973968c-.606682 3.241615 2.280669 6.354431 5.298166 6.886501-.984101-2.02946-2.168696-2.659495-3.459915-3.965811-.777088-.508427-.968767-2.443349-1.838251-2.92069zm-11.433787-4.970065c-1.2408917-.292532-2.7157475-1.438076-1.3110498-.078034-.6602341-.099861-2.7726667-.428226-1.0469462.464677-1.103229-.563476-1.3618109 2.702168-.143069.605665.1407224-.747871 3.43774-.516783 2.501065-.992308zm14.984472 11.726373c-1.788969-1.217383-.991379-.156111-.96825 1.007741.07266.932914-.945145 1.832337-.739183 2.707404.72009-.765265 2.973382-2.725092 1.707401-3.715176zm-.01902.407692c-.357565 1.106112-1.133003-1.019594 0 0zm-13.793914-7.538025c-.0076.499481.353135-.237978 0 0zm14.88444 11.108116c-.909765.330642 1.093943.552612 0 0zm-19.6682348-13.578527c-.1864077.820584.6136033.005 0 0zm4.2696508 4.821544c-.169012 1.163013.742556-.06232 0 0zm-4.9312328-3.148744c.071743 1.146693 1.5376826 1.024439.1432897-.03627zm51.8746878-21.651293c-.178937 1.240059-1.164134-1.230634 0 0zm-.811973.01039c-.272646 1.115005-.93714-.879369 0 0zm1.463711 1.183159c1.129782 2.273408-2.372454-.727332-.279601-.03415l.154832-.04583.124769.07998-.000004.000005zm-1.358747-.448652c-.339151 1.326798-1.267305-.825446 0 0zm-1.032559-.06182c-.648821.958104-.706042-.951254 0 0zm2.080191 1.565832c-.22877 1.053189-1.214031-1.141916 0 0zm-1.398596-.64364c-.88281 1.291556-1.042433-1.136891 0 0zm-1.189591-.474722c-.404604.744775-.632756-.68911 0 0zm2.073308 1.657686c1.856802 1.859819-1.856101-.308161 0 0zm-.625494-.324798c-.353566 1.252129-1.076759-.840773 0 0zm-30.813846-22.2290605c-.391941.949605-.65136-.8000063 0 0zm29.465855 21.6249045c-.507439 1.258071-1.051676-.919431 0 0zm-29.152927-20.6623932c-.402357 1.0785202-.883993-.8266096 0 0zm30.099501 21.9285522c-.440478.880309-.656554-.762936 0 0zm.478021.379745c.810095 2.021919-2.753399-.291562-.415713.09385.100852-.191786.264421-.34773.415713-.09385zm-1.123066-.611935c-.651931 1.48768-1.261565-.87107 0 0zm-30.310003-21.301339c-.605816 1.47045-1.092519-1.272434 0 0zm29.039078 21.350421c-.253013 1.008232-.896143-.621735 0 0zm.91545 1.290133c1.453825.805267-1.559821 1.993742.04987.441569-.984125.04178-.890781-1.469076-.04987-.441569zm-.960322-.617986c-.461224 1.1759-1.021076-.822538 0 0zm-30.220025-21.824194c-.651719 1.046196-1.562553.550139-.690271-.100214-.463712-.6032771.67803-.333601.690271.100214zm1.177734.994411c-.417188 1.212464-.714217-.977558 0 0zm-.633605-.181246c-.308394 1.154467-.987082-.807895 0 0zm29.809238 21.927522c-.411492 1.077573-.85945-.772668 0 0zm-.834588-.282425c-.304058.83097-.554928-.631605 0 0zm-29.150622-20.877387c.84459 1.421467-2.055979-1.151364 0 0zm-.789641-.24705c-.640123.961566-.587591-.948632 0 0zm-.875166-.444548c-.756371.9677-.507776-1.044635 0 0zm1.387647 1.397501c1.699015 2.419627-1.858769-.747756 0 0zm-.912104-.329084c-.48687 1.822016-.979509-.725916 0 0zm-.702383-.328441c-.622777 1.843387-1.225637-.417483 0 0zm1.25673 1.553721c-.550748 1.546315-2.998557 1.027537-.617418.155624.04601-.177647.497487-.43531.617418-.155624zm-.976426-.144028c-1.443671 1.2782-1.2997-.490509 0 0z" fill="#387a1d"/></svg>