<svg height="96" width="96" xmlns="http://www.w3.org/2000/svg" xmlns:xlink="http://www.w3.org/1999/xlink"><linearGradient id="a"><stop offset="0" stop-color="#fff"/><stop offset="1" stop-color="#fff" stop-opacity="0"/></linearGradient><linearGradient id="b" gradientUnits="userSpaceOnUse" x1="36.357143" x2="36.357143" xlink:href="#a" y1="6" y2="63.893143"/><filter id="c" color-interpolation-filters="sRGB" height="1.384" width="1.384" x="-.192" y="-.192"><feGaussianBlur stdDeviation="5.28"/></filter><radialGradient id="d" cx="48" cy="90.171875" gradientTransform="matrix(1.1573129 0 0 .99590774 -7.551021 .197132)" gradientUnits="userSpaceOnUse" r="42" xlink:href="#a"/><clipPath id="e"><rect height="84" rx="6" width="84" x="6" y="6"/></clipPath><linearGradient id="f" gradientUnits="userSpaceOnUse" x1="48" x2="48" y1="90" y2="5.987717"><stop offset="0" stop-color="#2d2d2d"/><stop offset="1" stop-color="#6b6b6b"/></linearGradient><linearGradient id="g" gradientTransform="matrix(1.0058652 0 0 .994169 100 0)" gradientUnits="userSpaceOnUse" x1="45.447727" x2="45.447727" y1="92.539597" y2="7.01654"><stop offset="0"/><stop offset="1" stop-opacity=".588235"/></linearGradient><linearGradient id="h" gradientTransform="matrix(1.0238095 0 0 1.0119048 -1.142857 -98.071429)" gradientUnits="userSpaceOnUse" x1="32.251034" x2="32.251034" xlink:href="#g" y1="6.131708" y2="90.238609"/><linearGradient id="i" gradientTransform="translate(0 -97)" gradientUnits="userSpaceOnUse" x1="32.251034" x2="32.251034" xlink:href="#g" y1="6.131708" y2="90.238609"/><radialGradient id="j" cx="47.745693" cy="48.001015" gradientUnits="userSpaceOnUse" r="16.254307"><stop offset="0" stop-color="#ee8a0c"/><stop offset=".33020937" stop-color="#ca0005"/><stop offset=".77064335" stop-color="#530111"/><stop offset="1"/></radialGradient><radialGradient id="k" cx="48" cy="47.876076" gradientTransform="matrix(1 0 0 .92307692 0 3.8067)" gradientUnits="userSpaceOnUse" r="26"><stop offset="0" stop-color="#fff814"/><stop offset=".5" stop-color="#ffc516"/><stop offset="1" stop-color="#da8600" stop-opacity=".666667"/></radialGradient><radialGradient id="l" cx="47.745693" cy="48.001015" gradientUnits="userSpaceOnUse" r="16.254307"><stop offset="0" stop-opacity="0"/><stop offset=".69999999" stop-color="#ca0000" stop-opacity="0"/><stop offset=".80000001" stop-color="#6b0000" stop-opacity=".124031"/><stop offset="1"/></radialGradient><radialGradient id="m" cx="48" cy="13.639534" gradientTransform="matrix(1.5168195 0 0 .91009166 -24.807334 10.786774)" gradientUnits="userSpaceOnUse" r="27.25"><stop offset="0" stop-color="#fff"/><stop offset=".5" stop-color="#fff" stop-opacity=".356589"/><stop offset="1" stop-color="#fff" stop-opacity="0"/></radialGradient><linearGradient id="n" gradientUnits="userSpaceOnUse" x1="31.491386" x2="64" xlink:href="#a" y1="48.001015" y2="48.001015"/><g fill="url(#h)"><path d="m12-95.03125c-5.5110903 0-10.03125 4.52016-10.03125 10.03125v71c0 5.5110902 4.5201598 10.03125 10.03125 10.03125h72c5.51109 0 10.03125-4.5201597 10.03125-10.03125v-71c0-5.51109-4.52016-10.03125-10.03125-10.03125z" opacity=".08" transform="scale(1 -1)"/><path d="m12-94.03125c-4.971633 0-9.03125 4.059617-9.03125 9.03125v71c0 4.9716329 4.0596171 9.03125 9.03125 9.03125h72c4.971633 0 9.03125-4.059617 9.03125-9.03125v-71c0-4.971633-4.059617-9.03125-9.03125-9.03125z" opacity=".1" transform="scale(1 -1)"/><path d="m12-93c-4.4091333 0-8 3.590867-8 8v71c0 4.4091333 3.5908667 8 8 8h72c4.409133 0 8-3.5908667 8-8v-71c0-4.409133-3.590867-8-8-8z" opacity=".2" transform="scale(1 -1)"/><rect height="85" opacity=".3" rx="7" transform="scale(1 -1)" width="86" x="5" y="-92"/></g><rect fill="url(#i)" height="84" opacity=".45" rx="6" transform="scale(1 -1)" width="84" x="6" y="-91"/><rect fill="url(#f)" height="84" rx="6" width="84" x="6" y="6"/><path d="m12 6c-3.324 0-6 2.676-6 6v2 68 2c0 .334721.04135.6507.09375.96875.0487.295596.09704.596915.1875.875.00988.03038.020892.0636.03125.09375.098865.287771.2348802.547452.375.8125.1445918.273507.3156161.535615.5.78125s.3737765.473472.59375.6875c.439947.428056.94291.814526 1.5 1.09375.278545.139612.5734731.246947.875.34375-.2562018-.100222-.4867109-.236272-.71875-.375-.00741-.0044-.023866.0045-.03125 0-.031933-.0193-.062293-.04251-.09375-.0625-.120395-.0767-.2310226-.163513-.34375-.25-.1061728-.0808-.2132809-.161112-.3125-.25-.1779299-.161433-.3474596-.345388-.5-.53125-.1075789-.130255-.2183939-.265285-.3125-.40625-.025089-.03838-.038446-.08587-.0625-.125-.064763-.103032-.1302275-.204517-.1875-.3125-.1010083-.194706-.2056748-.415701-.28125-.625-.00796-.02181-.023589-.04055-.03125-.0625-.0318251-.09195-.0358045-.186831-.0625-.28125-.0303323-.106618-.0703894-.203031-.09375-.3125-.0728786-.341512-.125-.698205-.125-1.0625v-2-68-2c0-2.781848 2.2181517-5 5-5h2 68 2c2.781848 0 5 2.218152 5 5v2 68 2c0 .364295-.05212.720988-.125 1.0625-.04415.206893-.08838.397658-.15625.59375-.0077.02195-.0233.04069-.03125.0625-.06274.173739-.138383.367449-.21875.53125-.04158.0828-.07904.169954-.125.25-.0546.09721-.126774.18835-.1875.28125-.09411.140965-.204921.275995-.3125.40625-.143174.17445-.303141.346998-.46875.5-.01117.0102-.01998.02115-.03125.03125-.138386.125556-.285091.234436-.4375.34375-.102571.07315-.204318.153364-.3125.21875-.0074.0045-.02384-.0044-.03125 0-.232039.138728-.462548.274778-.71875.375.301527-.0968.596455-.204138.875-.34375.55709-.279224 1.060053-.665694 1.5-1.09375.219973-.214028.409366-.441865.59375-.6875s.355408-.507743.5-.78125c.14012-.265048.276135-.524729.375-.8125.01041-.03078.02133-.06274.03125-.09375.09046-.278085.1388-.579404.1875-.875.0524-.31805.09375-.634029.09375-.96875v-2-68-2c0-3.324-2.676-6-6-6z" fill="url(#b)" opacity=".3"/><path d="m12 90c-3.324 0-6-2.676-6-6v-2-68-2c0-.334721.04135-.6507.09375-.96875.0487-.295596.09704-.596915.1875-.875.00988-.03038.020892-.0636.03125-.09375.098865-.287771.2348802-.547452.375-.8125.1445918-.273507.3156161-.535615.5-.78125s.3737765-.473472.59375-.6875c.439947-.428056.94291-.814526 1.5-1.09375.278545-.139612.5734731-.246947.875-.34375-.2562018.100222-.4867109.236272-.71875.375-.00741.0044-.023866-.0045-.03125 0-.031933.0193-.062293.04251-.09375.0625-.120395.0767-.2310226.163513-.34375.25-.1061728.0808-.2132809.161112-.3125.25-.1779299.161433-.3474596.345388-.5.53125-.1075789.130255-.2183939.265285-.3125.40625-.025089.03838-.038446.08587-.0625.125-.064763.103032-.1302275.204517-.1875.3125-.1010083.194706-.2056748.415701-.28125.625-.00796.02181-.023589.04055-.03125.0625-.0318251.09195-.0358045.186831-.0625.28125-.0303323.106618-.0703894.203031-.09375.3125-.0728786.341512-.125.698205-.125 1.0625v2 68 2c0 2.781848 2.2181517 5 5 5h2 68 2c2.781848 0 5-2.218152 5-5v-2-68-2c0-.364295-.05212-.720988-.125-1.0625-.04415-.206893-.08838-.397658-.15625-.59375-.0077-.02195-.0233-.04069-.03125-.0625-.06274-.173739-.138383-.367449-.21875-.53125-.04158-.0828-.07904-.169954-.125-.25-.0546-.09721-.126774-.18835-.1875-.28125-.09411-.140965-.204921-.275995-.3125-.40625-.143174-.17445-.303141-.346998-.46875-.5-.01117-.0102-.01998-.02115-.03125-.03125-.138386-.125556-.285091-.234436-.4375-.34375-.102571-.07315-.204318-.153364-.3125-.21875-.0074-.0045-.02384.0044-.03125 0-.232039-.138728-.462548-.274778-.71875-.375.301527.0968.596455.204138.875.34375.55709.279224 1.060053.665694 1.5 1.09375.219973.214028.409366.441865.59375.6875s.355408.507743.5.78125c.14012.265048.276135.524729.375.8125.01041.03078.02133.06274.03125.09375.09046.278085.1388.579404.1875.875.0524.31805.09375.634029.09375.96875v2 68 2c0 3.324-2.676 6-6 6z" fill="url(#d)" opacity=".2"/><path d="m64 48.001015a16.254307 16.254307 0 1 1 -32.508614 0 16.254307 16.254307 0 1 1 32.508614 0z" fill="url(#n)" opacity=".2" transform="matrix(0 -2.0302312 2.0302312 0 -49.453158 144.9348)"/><rect height="66" rx="12" style="opacity:.1;fill:#f00;stroke:#fff;stroke-width:.5;stroke-linecap:round;clip-path:url(#e);filter:url(#c)" width="66" x="15" y="15"/><path d="m64 48.001015a16.254307 16.254307 0 1 1 -32.508614 0 16.254307 16.254307 0 1 1 32.508614 0z" fill="url(#j)" transform="matrix(1.9071868 0 0 1.9071868 -43.059956 -43.546902)"/><path d="m34.71875 23.46875c.006-.000893-.193416.064-.1875.0625.0059-.0015-.224485.06459-.21875.0625.0057-.0021-.192996.06515-.1875.0625.0047-.0023-.08805.07376-.125.09375-.0064.0034-.03202.00047-.03125 0v.03125c-8.641166 5.007321-13.96875 14.232675-13.96875 24.21875-.000038-.0059.00061.193356 0 .1875-.00061-.0059.03243.224519.03125.21875-.0012-.0058.06423.193127.0625.1875-.0017-.0056.06477.192932.0625.1875-.0023-.0054.09654.161435.09375.15625-.0028-.0052.09703.19239.09375.1875-.0033-.0049.128739.160798.125.15625-.0037-.0045.129163.129163.125.125-.0042-.0042.129548.128739.125.125-.0045-.0037.16114.128279.15625.125-.0049-.0033.192685.09654.1875.09375-.0052-.0028.161682.09602.15625.09375-.0054-.0023.193127.06423.1875.0625-.0056-.0017.193269.06368.1875.0625-.0058-.0012.224606.03186.21875.03125-.0059-.00061.193387.000038.1875 0h18c-.0059.000038.193356-.00061.1875 0-.0059.00061.224519-.03243.21875-.03125-.0058.0012.193127-.06423.1875-.0625-.0056.0017.192932-.06477.1875-.0625-.0054.0023.161435-.09654.15625-.09375-.0052.0028.19239-.09703.1875-.09375-.0049.0033.160798-.128739.15625-.125-.0011.000935.01758-.0188.03125-.03125.311881 1.368001.919883 2.59443 1.90625 3.53125-.02515.01134-.0961.06363-.09375.0625.0029-.0014-.09661.03282-.09375.03125.0029-.0016-.09652.06422-.09375.0625.0028-.0017-.09642.06437-.09375.0625.0027-.0019-.06507.06451-.0625.0625.0026-.002-.0962.06465-.09375.0625.0025-.0021-.09609.09603-.09375.09375.0023-.0023-.06471.0649-.0625.0625.0022-.0024-.06458.09626-.0625.09375.0021-.0025-.06444.09637-.0625.09375.0019-.0026-.06429.06522-.0625.0625.0018-.0027-.06415.09657-.0625.09375a1.0936745 1.0936745 0 0 0 0 .03125l-9 15.59375v.03125c-.01763.03343-.09594.160895-.09375.15625.0025-.0054-.06449.161832-.0625.15625.002-.0056-.06394.19325-.0625.1875.0014-.0058-.03212.224613-.03125.21875.000869-.0059-.03154.19342-.03125.1875.000291-.0059.00029.19342 0 .1875-.00029-.0059.03212.193363.03125.1875-.000868-.0059.03269.2245.03125.21875-.0014-.0058.06449.193082.0625.1875-.002-.0056.06503.16161.0625.15625-.0025-.0054.09679.192587.09375.1875-.003-.0051.09728.161015.09375.15625-.0035-.0048.128975.160647.125.15625-.004-.0044.160636.128986.15625.125-.0044-.004.161006.128538.15625.125-.0048-.0035.161329.128056.15625.125a1.0936745 1.0936745 0 0 0 .03125 0c8.663159 5.001679 19.336841 5.001678 28 0a1.0936745 1.0936745 0 0 0 .03125 0c-.0051.0031.161006-.128538.15625-.125-.0048.0035.160636-.128986.15625-.125-.0044.004.160225-.129397.15625-.125-.004.0044.128526-.161015.125-.15625-.0035.0048.09679-.161337.09375-.15625-.003.0051.09628-.19286.09375-.1875-.0025.0054.06449-.161832.0625-.15625-.002.0056.06394-.19325.0625-.1875-.0014.0058.03212-.224613.03125-.21875-.000868.0059.03154-.19342.03125-.1875-.00029.0059-.000291-.19342 0-.1875.000291.0059-.03212-.193363-.03125-.1875.000869.0059-.03269-.2245-.03125-.21875.0014.0058-.06449-.193082-.0625-.1875.002.0056-.06503-.16161-.0625-.15625.0022.0046-.07612-.122822-.09375-.15625v-.03125l-9-15.59375a1.0936745 1.0936745 0 0 0 0-.03125c.0031.0051-.128538-.161006-.125-.15625.0035.0048-.128986-.160636-.125-.15625.004.0044-.129397-.160225-.125-.15625.0044.004-.161015-.128526-.15625-.125.0048.0035-.161337-.09679-.15625-.09375.0051.003-.19286-.09628-.1875-.09375.0031.0015-.04065-.0093-.09375-.03125 1.002734-.940715 1.622286-2.17988 1.9375-3.5625.01367.01245.03239.03218.03125.03125-.0045-.0037.16114.128279.15625.125-.0049-.0033.192685.09654.1875.09375-.0052-.0028.161682.09602.15625.09375-.0054-.0023.193127.06423.1875.0625-.0056-.0017.193269.06368.1875.0625-.0058-.0012.224606.03186.21875.03125-.0059-.00061.193387.000038.1875 0h18c-.0059.000038.193356-.00061.1875 0-.0059.00061.224519-.03243.21875-.03125-.0058.0012.193127-.06423.1875-.0625-.0056.0017.192932-.06477.1875-.0625-.0054.0023.161435-.09654.15625-.09375-.0052.0028.19239-.09703.1875-.09375-.0049.0033.160798-.128739.15625-.125-.0045.0037.129163-.129163.125-.125-.0042.0042.128739-.129548.125-.125-.0037.0045.128279-.16114.125-.15625-.0033.0049.09654-.192685.09375-.1875-.0028.0052.09602-.161682.09375-.15625-.0023.0054.06423-.193127.0625-.1875-.0017.0056.06368-.193269.0625-.1875-.0012.0058.03186-.224606.03125-.21875-.00061.0059.000038-.193387 0-.1875 0-9.986075-5.327584-19.211429-13.96875-24.21875-.0056-.0032.0056-.02801 0-.03125.000675.000418-.02565.0031-.03125 0-.03249-.018-.129113-.09581-.125-.09375.0048.0024-.161269-.06448-.15625-.0625.005.002-.161425-.06403-.15625-.0625.0052.0015-.19279-.03231-.1875-.03125.0053.0011-.161614-.03183-.15625-.03125.0054.000582-.192894-.000102-.1875 0 .0054.000102-.192882.000379-.1875 0 .0054-.000379-.192827.000857-.1875 0a1.0936745 1.0936745 0 0 0 0 .03125c.0032-.000581-.128173.000754-.125 0 .0032-.000754-.09688.03217-.09375.03125.0031-.000924-.09682.03234-.09375.03125.0031-.0011-.09676.03251-.09375.03125.003-.0013-.127938.06392-.125.0625.0029-.0014-.09661.03282-.09375.03125.0029-.0016-.09652.06422-.09375.0625.0028-.0017-.09642.06437-.09375.0625.0027-.0019-.06507.06451-.0625.0625.0026-.002-.0962.06465-.09375.0625.0025-.0021-.09609.09603-.09375.09375.0023-.0023-.06471.0649-.0625.0625.0022-.0024-.06458.09626-.0625.09375.0021-.0025-.06444.09637-.0625.09375.0019-.0026-.06429.06522-.0625.0625.0018-.0027-.06415.09657-.0625.09375a1.0936745 1.0936745 0 0 0 0 .03125l-9 15.59375c.000406-.000678.0027.02611 0 .03125-.01763.03343-.09594.160895-.09375.15625.0025-.0054-.06449.161832-.0625.15625.002-.0056-.06394.19325-.0625.1875.0014-.0057-.03212.224613-.03125.21875.000869-.0059-.03154.19342-.03125.1875.000291-.0059.00029.19342 0 .1875-.00029-.0059.03212.193363.03125.1875-.000122-.000821-.0013.02498 0 .03125-.653402-.203358-1.313417-.40625-2.03125-.40625s-1.377848.202892-2.03125.40625c.0013-.0063.000122-.03207 0-.03125-.000868.0059.03154-.19342.03125-.1875-.00029.0059-.000291-.19342 0-.1875.000291.0059-.03212-.193363-.03125-.1875.000869.0059-.03269-.2245-.03125-.21875.0014.0057-.06449-.193082-.0625-.1875.002.0056-.06503-.16161-.0625-.15625.0022.0046-.07612-.122822-.09375-.15625v-.03125l-9-15.59375a1.0936745 1.0936745 0 0 0 0-.03125c.0023.0038-.06503-.12862-.0625-.125.0025.0036-.09654-.128426-.09375-.125.0028.0034-.09678-.09696-.09375-.09375.003.0032-.128256-.09673-.125-.09375.0033.003-.09721-.09649-.09375-.09375.0035.0027-.128655-.09623-.125-.09375.0037.0025-.128826-.09596-.125-.09375.0038.0022-.128977-.06442-.125-.0625.004.0019-.129107-.06413-.125-.0625.0041.0016-.160464-.03257-.15625-.03125.0042.0013-.129299-.06351-.125-.0625.0043.001-.160611-.000693-.15625 0 .0044.000693-.16065-.03162-.15625-.03125.0044.000373-.129416-.000051-.125 0 .0044.000051-.160658.000271-.15625 0 .0044-.000271-.160626.000592-.15625 0z" fill="#ffcb16" opacity=".15"/><path d="m35 25.46875c-8.044427 4.644452-13 13.242346-13 22.53125h18c0-2.956988 1.614327-5.52159 4-6.90625zm26 0-9 15.625c2.385673 1.38466 4 3.949262 4 6.90625h18c0-9.288904-4.955573-17.886798-13-22.53125zm-13 17.53125c-2.761425 0-5 2.238575-5 5s2.238575 5 5 5 5-2.238575 5-5-2.238575-5-5-5zm-4 11.90625-9 15.625c8.044427 4.644453 17.955573 4.644452 26 0l-9-15.625c-1.178958.684275-2.538709 1.09375-4 1.09375s-2.821042-.409475-4-1.09375z" fill="url(#k)"/><g fill="#f00"><path d="m64 48.001015a16.254307 16.254307 0 1 1 -32.508614 0 16.254307 16.254307 0 1 1 32.508614 0z" opacity=".3" transform="matrix(1.8456648 0 0 1.8456648 -120.12254 -40.593781)"/><path d="m64 48.001015a16.254307 16.254307 0 1 1 -32.508614 0 16.254307 16.254307 0 1 1 32.508614 0z" opacity=".3" transform="matrix(.30761091 0 0 .30761091 -46.687095 33.234366)"/><path d="m64 48.001015a16.254307 16.254307 0 1 1 -32.508614 0 16.254307 16.254307 0 1 1 32.508614 0z" opacity=".3" transform="matrix(.49217736 0 0 .49217736 -55.499348 24.374989)"/></g><g fill="#0ff"><path d="m64 48.001015a16.254307 16.254307 0 0 1 -8.127154 14.076643l-8.127153-14.076643z" opacity=".3" transform="matrix(.7997879 -1.3852733 1.3852733 .7997879 -136.68095 75.750207)"/><path d="m64 48.001015a16.254307 16.254307 0 0 1 -8.127154 14.076643l-8.127153-14.076643z" opacity=".3" transform="matrix(-1.5995758 .00000001 -.00000001 -1.5995758 44.37286 124.78127)"/><path d="m64 48.001015a16.254307 16.254307 0 0 1 -8.127154 14.076643l-8.127153-14.076643z" opacity=".3" transform="matrix(.79978791 1.3852733 -1.3852733 .79978791 -3.6919 -56.531461)"/></g><path d="m34.875 24.5625a.91216834.91216834 0 0 0 -.34375.125c-8.326075 4.807061-13.4375 13.699204-13.4375 23.3125a.91216834.91216834 0 0 0 .90625.90625h18a.91216834.91216834 0 0 0 .90625-.90625c0-2.625031 1.445208-4.89611 3.5625-6.125a.91216834.91216834 0 0 0 .3125-1.25l-9-15.625a.91216834.91216834 0 0 0 -.90625-.4375zm25.96875 0a.91216834.91216834 0 0 0 -.625.4375l-9 15.625a.91216834.91216834 0 0 0 .3125 1.25c2.117292 1.22889 3.5625 3.499969 3.5625 6.125a.91216834.91216834 0 0 0 .90625.90625h18a.91216834.91216834 0 0 0 .90625-.90625c0-9.613296-5.111425-18.505439-13.4375-23.3125a.91216834.91216834 0 0 0 -.625-.125zm-12.84375 17.53125c-3.254348 0-5.90625 2.651902-5.90625 5.90625s2.651902 5.90625 5.90625 5.90625 5.90625-2.651902 5.90625-5.90625-2.651902-5.90625-5.90625-5.90625zm-4.15625 11.90625a.91216834.91216834 0 0 0 -.625.4375l-9 15.625a.91216834.91216834 0 0 0 .3125 1.25c8.325358 4.806649 18.612142 4.806648 26.9375 0a.91216834.91216834 0 0 0 .3125-1.25l-9-15.625a.91216834.91216834 0 0 0 -1.25-.3125c-1.052255.610736-2.240344.96875-3.53125.96875s-2.478995-.358014-3.53125-.96875a.91216834.91216834 0 0 0 -.625-.125z" fill="#ffcb16" opacity=".3"/><path d="m64 48.001015a16.254307 16.254307 0 1 1 -32.508614 0 16.254307 16.254307 0 1 1 32.508614 0z" fill="url(#l)" transform="matrix(1.9071868 0 0 1.9071868 -43.059956 -43.546902)"/><path d="m48 19.066667c-13.669174 0-25.131717 9.473383-28.158331 22.216666 7.380101-4.807928 17.281335-7.75 28.158331-7.75s20.77823 2.942072 28.158332 7.75c-3.026615-12.743283-14.489158-22.216666-28.158332-22.216666z" fill="url(#m)" opacity=".8"/></svg>