<svg height="16" width="16" xmlns="http://www.w3.org/2000/svg"><g fill-rule="evenodd"><rect fill="#fff" height="6.000001" opacity=".6" rx=".828693" ry=".828692" width="6.000001" x="8" y=".999999"/><path d="m6.71875 4.9999994c-.3900601-.0000001-.71875.2633166-.71875.625v2.875c0 .3616836.7661902.5 1.15625.5h1.40625c-.5440295-.0000001-.5219786.4017971-.5219786.90625v5.1874996c.0000002.504454-.022052.90625.5219786.90625h1.826407c.478278 0 .521685-.58081.611093-1 .06799.430976.124517 1 .609675 1h1.861693c.533765 0 .528632-.380065.528632-.875v-5.2499996c0-.4949351-.02279-.875-.556555-.875h1.837805c.390062-.0000001.718751-.1383163.71875-.5v-2.875c0-.3616835-.328689-.625-.71875-.625h-.28125v2.15625c0 .4590956-.481622.84375-1.09375.84375h-5.8125c-.6121274 0-1.09375-.3846544-1.09375-.84375v-2.15625z" fill="#fff" opacity=".6"/><path d="m6.71875 4c-.3900601-.0000001-.71875.2633166-.71875.625v2.875c0 .3616836.7661902.5 1.15625.5h1.40625c-.5440295-.0000001-.5219786.4017971-.5219786.90625v5.1875c.0000002.504454-.0220518.90625.5219786.90625h1.826407c.478278 0 .521685-.58081.611093-1 .06799.430976.124517 1 .609675 1h1.861693c.533765 0 .528632-.380065.528632-.875v-5.25c0-.4949351-.02279-.875-.556555-.875h1.837805c.390062-.0000001.718751-.1383163.71875-.5v-2.875c0-.3616835-.328689-.625-.71875-.625h-.28125v2.15625c0 .4590956-.481622.84375-1.09375.84375h-5.8125c-.6121274 0-1.09375-.3846544-1.09375-.84375v-2.15625z" fill="#bebebe"/></g><g fill="#fff" opacity=".6" transform="translate(0 .999999)"><path d="m2.09375 3c-.9716366.0920443-1.86729081.6159904-2.09375 1.625l.03125 4.375h1.96875v3.5h1v-3.5h2v-4.375c-.2787722-1.151612-1.6570029-1.7433427-2.90625-1.625z" fill="#fff" fill-rule="evenodd"/><path d="m16.38255 38.400002a5.043223 3.1168831 0 1 1 -10.086446 0 5.043223 3.1168831 0 1 1 10.086446 0z" fill="none" stroke="#fff" stroke-width="3.237195" transform="matrix(.2974289 0 0 .3208332 -.872643 1.180006)"/></g><g fill="#bebebe"><g><path d="m2.09375 3c-.9716366.0920443-1.86729081.6159904-2.09375 1.625l.03125 4.375h1.96875v3.5h1v-3.5h2v-4.375c-.2787722-1.151612-1.6570029-1.7433427-2.90625-1.625z" fill-rule="evenodd"/><path d="m16.38255 38.400002a5.043223 3.1168831 0 1 1 -10.086446 0 5.043223 3.1168831 0 1 1 10.086446 0z" transform="matrix(.2974289 0 0 .3208332 -.872643 1.180006)"/></g><rect fill-rule="evenodd" height="6.000001" rx=".828693" ry=".828692" width="6.000001" x="8"/></g></svg>