<svg height="16" width="16" xmlns="http://www.w3.org/2000/svg"><g fill="#bebebe"><path d="m8.0859375.54882812a6.0403695 7.7661901 84.762524 0 0 -.7753906.0390625 6.0403695 7.7661901 84.762524 0 0 -7.18164065 6.72460938 6.0403695 7.7661901 84.762524 0 0 3.42382815 4.46875c-.4028332 1.26086-.8630186 2.475722-1.6875 3.574219 1.7912102-.729344 3.9163182-1.180993 5.1835937-2.710938a6.0403695 7.7661901 84.762524 0 0 1.3652344-.02539 6.0403695 7.7661901 84.762524 0 0 7.1816405-6.7246098 6.0403695 7.7661901 84.762524 0 0 -7.5097655-5.34570308zm.0136719 1.24804688a1.2489209 1.2489209 0 0 0 .0039062 0c1.660507-.0223975 3.2742444.4634336 4.3984374 1.2636719s1.750104 1.8668694 1.849609 2.9492187c.10543 1.1556476-.386814 2.4058798-1.484374 3.4335938-1.098154 1.0282676-2.794931 1.7691326-4.5664068 1.9316406-.396627.034518-.7955139.041402-1.1894531.021484a1.2489209 1.2489209 0 0 0 -1.0234375.451172c-.4032304.486809-1.0423625.824714-1.7421875 1.146485.0991954-.279104.3087147-.557314.3964844-.832032a1.2489209 1.2489209 0 0 0 -.6445313-1.503906c-1.6414809-.7972304-2.5991606-2.1215192-2.7246093-3.4589842-.1061299-1.1561682.3862222-2.4072793 1.484375-3.4355469 1.0977551-1.0278953 2.7936726-1.7687733 4.5644531-1.9316407.2257417-.0202043.4517794-.0325972.6777344-.0351562z"/><path d="m6.1644239 3.868726c-.346479 0-.6278386.3971078-.6278386.8632779v.8240381c0 .4661826.2813596.824038.6278386.824038.3464664 0 .6278385-.3578554.6278385-.824038v-.8240381c0-.4661701-.2813721-.8632779-.6278385-.8632779zm3.767031 0c-.3464789 0-.6278385.3971078-.6278385.8632779v.8240381c0 .4661826.2825148.824038.6278385.824038.3453231 0 .6278381-.3578554.6278381-.824038v-.8240381c0-.4661701-.281372-.8632779-.6278381-.8632779zm-5.6505466 2.7608445v1.0258128c0 .4528348.80622 2.0404756 3.7277912 2.0404756 3.1333035 0 3.8062705-1.4613699 3.8062705-2.0404756v-.9703245c-.594111 1.0095016-1.349715 1.6441333-3.8062705 1.6441333-2.5253172 0-3.1892815-.7859408-3.7277912-1.6996216z"/></g></svg>