<svg height="16" width="16" xmlns="http://www.w3.org/2000/svg"><path d="m.07485274 2.1228532.58060855 10.8555918 4.88926301-.2615c-.2301438-.33661-.4250728-.697013-.5804195-1.080077l-3.1578501.168897-.4620917-8.639692 12.226052-.6539073.126467 2.3645272c.495258.3663499.926733.8152038 1.284273 1.3192422l-.259746-4.8564491z" fill="#bbbdb6" fill-opacity=".878431"/><g fill="#bebebe"><path d="m10.053409 5.0502699c-2.4450927.1307751-4.340114 2.2407981-4.2093811 4.6851005.1307328 2.4443026 2.2400074 4.3401566 4.6851001 4.2093816.866837-.04637 1.649244-.362289 2.309163-.83586l1.366489 1.227736c.361116.418585 1.092318.434067 1.470877.03115.378509-.402909.317439-1.131672-.122812-1.466013l-1.399075-1.257018c.402407-.708814.631296-1.515563.584786-2.3851465-.130733-2.4443037-2.240007-4.3401579-4.6851-4.2093827zm.08754 1.6367824c1.572051-.084081 2.876721 1.0885858 2.960776 2.6601426.03979.7441111-.205552 1.4302531-.638796 1.9544271-.07949.06471-.148749.141853-.204623.227747-.145064.141062-.30153.258363-.475968.366149l-.03084.0017c-.386177.233246-.823653.384745-1.309875.41075-1.5720409.08403-2.9075459-1.086988-2.9916002-2.6585431-.0840543-1.5715563 1.118926-2.878344 2.6909762-2.9624246z" stroke-width=".989688"/><path d="m5.9853528 4.4877424c-.1371679.01045-.2619873.087032-.327569.209159l-2.8166404 5.2455356c-.069763.129905-.055172.244462.012896.34968.068069.105223.1991391.188731.3657951.179818l1.3801117-.07381c-.030917-.194576-.051945-.392127-.062681-.5928578-.00258-.048208.00145-.095248.0000813-.1432495l-.4478124.02395a.13780955.11344796 86.938467 0 1 -.1025936-.2171283l.7059872-1.3134167c.2990668-1.2314304 1.000365-2.3161235 1.95937-3.1052057l-.306249-.4056132c-.0845519-.1117957-.2235284-.1673197-.3606959-.1568614zm4.7140062 3.5554886.818808 1.0131248a.13780955.11344796 86.938467 0 1 -.07447.2362726l-2.6810878.1433969c-.00155.047921-.00851.094288-.00587.1435593.011488.2147881.062818.4121157.1456805.5884174l2.8046183-.150004c.06562-.1830244.09955-.3827098.08787-.6009094-.038028-.7110774-.469665-1.2223153-1.095549-1.3738576z" opacity=".48" stroke-width="1.024045"/></g></svg>