<svg height="16" width="16" xmlns="http://www.w3.org/2000/svg"><path d="m2.875 1c-1.0341288 0-1.875.8408712-1.875 1.875v10.25c0 1.034129.8408712 1.875 1.875 1.875h10.25c1.034129 0 1.875-.840871 1.875-1.875v-10.25c0-1.0341288-.840871-1.875-1.875-1.875zm8.1875 2.03125c.286876.0153942.606058.0642826.9375.09375v1.875c-1-.2975824-1.51604-.2574754-1.71875 0-.202709.2574754-.281253.5065358-.28125 1h2v2h-2v5h-2v-5h-2v-2h2v-.5c-.0000009-.9500404.2807034-1.3062156.8125-1.78125.7163404-.6299437 1.389371-.7336827 2.25-.6875z" fill="#bebebe"/></svg>