<svg height="16.03" width="16.054" xmlns="http://www.w3.org/2000/svg"><g fill="#bebebe"><rect height="6.054421" rx=".356142" ry="1.195057" width="13.635166" x="1.209417" y="8.82429"/><path d="m2.5335915 4.558341c-.2541152 0-.459306.2639563-.459306.5937874v.11793 1.2351606 1.8165344h2.3917013v-1.8165344-1.2351606-.11793c0-.3298311-.2051908-.5937874-.4593059-.5937874z"/><path d="m12.047321 4.558341c-.254116 0-.459306.2639563-.459306.5937874v.11793 1.2351606 1.8165344h2.391701v-1.8165344-1.2351606-.11793c0-.3298311-.205191-.5937874-.459306-.5937874z"/><path d="m6.0839844 1.1503906v5.2910156h3.8847656v-5.2910156zm.9160156 1.2539063h2.0546875v1.9140625h-2.0546875z"/><path d="m5.207793-8.321754h5.638414v2.186579h-5.638414z" transform="scale(1 -1)"/></g></svg>