<svg height="16" width="16" xmlns="http://www.w3.org/2000/svg"><g fill-rule="evenodd" transform="translate(-13.288136 -31.186441)"><path d="m17.788136 35.186441c-2.484 0-4.5 2.016-4.5 4.5s2.016 4.5 4.5 4.5c1.154835 0 2.203025-.440323 3-1.15625-.917284-.824001-1.5-2.014585-1.5-3.34375s.582716-2.519749 1.5-3.34375c-.796975-.715927-1.845165-1.15625-3-1.15625z" fill="#fff" opacity=".6"/><path d="m29.288136 39.686441a4.5 4.5 0 0 1 -9 0 4.5 4.5 0 1 1 9 0z" fill="#fff" opacity=".6"/><g fill="#999"><path d="m17.788136 34.186441c-2.484 0-4.5 2.016-4.5 4.5s2.016 4.5 4.5 4.5c1.154835 0 2.112384-.349682 2.909359-1.065609-.917283-.824001-1.409359-2.105226-1.409359-3.434391s.446755-2.610389 1.364039-3.434391c-.796975-.715927-1.709204-1.065609-2.864039-1.065609z"/><path d="m29.288136 38.686441a4.5 4.5 0 0 1 -9 0 4.5 4.5 0 1 1 9 0z"/></g></g></svg>