<svg height="16" width="16" xmlns="http://www.w3.org/2000/svg"><g fill-rule="evenodd" transform="translate(5.016949 -29.152543)"><path d="m-2.1419491 30.923729c-1.0341288 0-1.875.840871-1.875 1.875v10.25c0 1.034129.8408712 1.875 1.875 1.875h10.25c1.034129 0 1.875-.840871 1.875-1.875v-10.25c0-1.034129-.840871-1.875-1.875-1.875zm4.59375 2.03125c.1953154-.01307.3785928-.01155.59375 0 .286876.01539.606058.06428.9375.09375v1.875c-1-.297582-1.51604-.257475-1.71875 0-.202709.257475-.281253.506536-.28125 1h2v-.5c-.0000009-.95004.2807034-1.306216.8125-1.78125.71634-.629944 1.389371-.733683 2.25-.6875.286876.01539.606058.06428.9375.09375v1.875c-1-.297582-1.51604-.257475-1.71875 0-.202709.257475-.281253.506536-.28125 1h2v2h-2v5h-2v-5h-2v5h-2v-5h-2v-2h2v-.5c.0000001-.95004.280704-1.306216.8125-1.78125.5372558-.472458 1.0703039-.648278 1.65625-.6875z" fill="#fff" opacity=".6"/><path d="m-2.1419491 29.923729c-1.0341288 0-1.875.840871-1.875 1.875v10.25c0 1.034129.8408712 1.875 1.875 1.875h10.25c1.034129 0 1.875-.840871 1.875-1.875v-10.25c0-1.034129-.840871-1.875-1.875-1.875zm4.59375 2.03125c.1953154-.01307.3785928-.01155.59375 0 .286876.01539.606058.06428.9375.09375v1.875c-1-.297582-1.51604-.257475-1.71875 0-.202709.257475-.281253.506536-.28125 1h2v-.5c-.0000009-.95004.2807034-1.306216.8125-1.78125.71634-.629944 1.389371-.733683 2.25-.6875.286876.01539.606058.06428.9375.09375v1.875c-1-.297582-1.51604-.257475-1.71875 0-.202709.257475-.281253.506536-.28125 1h2v2h-2v5h-2v-5h-2v5h-2v-5h-2v-2h2v-.5c.0000001-.95004.280704-1.306216.8125-1.78125.5372558-.472458 1.0703039-.648278 1.65625-.6875z" fill="#999"/></g></svg>