<svg height="16" width="16" xmlns="http://www.w3.org/2000/svg"><g fill="#bebebe"><path d="m4.3125.65625v1.4375h3.375v-1.4375zm-3.3125 1.15625v.90625 10.90625.90625c2.9086155.817632 5.8842483 1.132331 9.03125.28125-.6701585-.140425-1.3229335-.254568-2-.46875-.6019374-.190416-1.1773443-.562849-1.71875-1.0625-1.1666665-.003032-2.3333333-.241476-3.5-.5625v-1.21875a1.283108 1.283108 0 0 1 -.09375-.5v-2a1.283108 1.283108 0 0 1 .09375-.46875v-4.65625c2.1157908.4490195 4.2591635.5957892 6.375 0v1.46875c.6431384-.1157896 1.248687-.2160261 1.8125-.375v-2.25-.90625c-3.2128278.9640521-6.5548087.8948915-10 0z"/><path d="m4 9h2c.900464-2.7525753 3.502212-2.0008848 6-3v1h2.425733c1.000606.6666667.94528 1.3333333 0 2h-2.425733v2h2.425733c1 0 1 2 0 2h-2.425733v1c-2.853521-.927818-4.705913-.411825-6-3h-2z" fill-rule="evenodd"/></g></svg>