<svg height="16" width="16.000002" xmlns="http://www.w3.org/2000/svg"><path d="m464.96895-144.96875c-1.08949 0-1.96875.87926-1.96875 1.96875v12c0 1.08949.87926 1.96875 1.96875 1.96875h12.0625c1.08949 0 1.96875-.87926 1.96875-1.96875v-12c0-1.08949-.87926-1.96875-1.96875-1.96875zm0 1h12.0625c.55278 0 .96875.41597.96875.96875v11.03125c0 .55278-.41597.96875-.96875.96875h-12.0625c-.55278 0-.96875-.41597-.96875-.96875v-11.03125c0-.60207.35439-.96875.96875-.96875zm3.0312 4.96875v1h-1c-.54535 0-1 .45465-1 1v1c0 .54535.45465 1 1 1h.1875.8125 1 .65625.34375c.54535 0 1-.45465 1-1v-1c0-.54535-.45465-1-1-1h-1v-1zm6-3c-1.65093 0-3 1.34907-3 3s1.34907 3 3 3 3-1.34907 3-3-1.34907-3-3-3zm0 1c1.11049 0 2 .88951 2 2s-.88951 2-2 2-2-.88951-2-2 .88951-2 2-2zm-7 4h3v1h-3zm1 3v2h1v-2z" fill="#bebebe" transform="translate(-463.0002 145)"/></svg>