<svg height="16" width="16" xmlns="http://www.w3.org/2000/svg"><path d="m1.140625 1.0507812c-.0309882.0291239-.0607197.0588558-.0898438.0898438v13.707031c.0308316.033112.0569013.070551.0898438.101563h13.71875c.030988-.029124.06072-.058856.089844-.089844v-13.7070312c-.030832-.0331118-.056901-.0705512-.089844-.1015626zm1.359375 1.4492188h1.5 1.5v3h-3v-1.5zm4 0h3v1.5625 1.4375h-1.4375-1.5625zm4 0h.5625 2.4375v2.46875.53125h-.53125-2.46875v-2.4375zm-8 4h3v1.53125 1.46875h-1.46875-1.53125zm4 0h.5625 2.4375v2.4375.5625h-.5625-2.4375v-2.4375zm4 0h1.46875 1.53125v3h-3v-1.53125zm-8 4h.53125 2.46875v2.4375.5625h-.5625-2.4375v-2.46875zm4 0h1.4375 1.5625v3h-3v-1.5625zm4 0h3v1.5 1.5h-1.5-1.5z" fill="#bebebe"/></svg>