<svg height="16" viewBox="0 0 4.2333332 4.2333335" width="16" xmlns="http://www.w3.org/2000/svg"><g fill="#bebebe" transform="translate(0 -292.76665)"><path d="m1.4335561 292.87564c.0001287.00081.0003375.001.000486.002.00504.0331.00926.0566.013744.0826.00251.0157.00553.0353.00774.0487.0001486.00094.0005131.002.0008371.004.00166.0105.00285.019.00419.0281.0008775.006.002.0132.00273.0191.000297.002.000405.005.000702.007.0007155.007.00101.0125.00146.0186.0004456.007.00131.014.00139.0205.0000308.001-.0002159.004-.0002159.005-.0000152.008-.0006616.0159-.00132.0236-.0003376.004-.0003106.007-.0007021.009-.0000928.00081.0000428.001 0 .002-.000918.007-.00301.0139-.00454.0209-.00136.006-.00264.0119-.00454.0182-.000945.004-.00197.007-.00292.009-.0007426.002-.00185.005-.00266.007-.039262.007-.073609.012-.1213217.0209-.3265936.11915-.37514256.39077-.44663716.56831-.10786301.26785-.0907068.29299-.28868853.46993-.0740013.1478-.0504453.27754.040115.27704.018372.00068.0337919.005.0471613.009l-.004604-.004s.13619968-.0546.17643626-.12237c.0402361-.0677.0444401.0212.0444401.0212-.0310023.10703-.14601819.12885-.14246056.16018.0381403.0366.0776099.0629.19750534-.006.17126285-.15162.35588815-.28055.52303015-.30292.1098626-.0147.1789235-.0435.2485735-.19806.1231952-.0687.2155451.43462.066068.57996-.3030834.43732-.3638259.61244-.3638259 1.04606 0 .005.0009991.0105.00132.0156-.00367.0122-.00516.0237-.00516.0363 0 .085.087005.16196.2304345.22137.015061.006.030331.0136.046603.0194.1503834.059.3480696.0909.5527499.0958.00474.00011.00956-.00009.014302 0 .02932.00094.059256.001.0893.001.5155187 0 .9333894-.15135.9333893-.33787 0-.006-.0004456-.0117-.00125-.0168.00815-.0219.012875-.0447.014232-.0686.044801-.77696-.3362031-2.39581-1.369701-2.53227-.020386 0-.038931.00067-.058114.00094-.00473-.0105-.00944-.0207-.014651-.0304-.00281-.005-.00599-.0105-.00893-.0153-.00532-.009-.010527-.0187-.016325-.0276-.00421-.007-.00898-.0129-.013463-.0192-.00504-.007-.00988-.0145-.015278-.0215-.0056-.007-.011795-.0145-.01779-.0218-.00496-.006-.00969-.012-.01493-.0179-.00642-.007-.0135-.0146-.020372-.0219-.00563-.006-.011089-.0119-.017023-.0179-.00669-.007-.013975-.0136-.021069-.0203-.00696-.007-.013775-.0135-.021139-.0201-.00613-.006-.01277-.0117-.019186-.0172-.00714-.006-.013841-.0126-.021349-.0191-.00204-.002-.00409-.004-.00614-.005-.0008236-.00067-.00154-.001-.00237-.002-.00107-.001-.00195-.002-.00313-.004.0001286.00081.0003376.001.000486.002.00504.0331.00926.0566.013743.0826.00251.0157.00553.0353.00774.0487.0001484.00095.0005129.002.0008369.004.00166.0105.00285.0189.00419.0281.0008775.006.002.0132.00273.0191.000297.002.0004049.005.0007019.007.0007157.007.00101.0125.00146.0186.000459.007.00131.014.00139.0206.0000238.001-.000216.002-.000216.004.0000104.008-.0006345.0165-.00132.0247-.0003376.004-.0003106.007-.0007021.009-.0000928.00081.0000428.001 0 .002-.000621.005-.00216.009-.00306.0143-.00533-.0117-.010691-.0234-.016604-.0345-.00281-.006-.00599-.0105-.00893-.0153-.00532-.009-.010528-.0187-.016325-.0276-.00421-.007-.00898-.0129-.013465-.0192-.00504-.007-.00988-.0145-.015277-.0215-.00575-.007-.012166-.015-.018348-.0223-.0048-.006-.00938-.0117-.014441-.0173-.00625-.007-.013083-.0142-.019744-.0212-.00584-.006-.011487-.0124-.017651-.0186-.00667-.007-.013928-.0136-.020999-.0204-.00696-.007-.013775-.0134-.021139-.0201-.00613-.006-.01277-.0117-.019186-.0172-.00715-.006-.013841-.0126-.021349-.0191-.00204-.002-.00409-.004-.00614-.005-.0008235-.00067-.00154-.001-.00237-.002-.00107-.001-.00195-.002-.00313-.004zm-.1388328.72996c-.029128.0739-.017675.11323-.067812.16932-.058565.0526-.09968.031-.1526464.0286.035178-.063.00319-.10153.055045-.16199.060089-.0406.1254293-.0177.1654134-.0359zm-.63786368.69639a.06353135.06353135 0 0 1 .0635562.0635.06353135.06353135 0 0 1 -.0635562.0635.06353135.06353135 0 0 1 -.0634864-.0635.06353135.06353135 0 0 1 .0634864-.0635z" fill-rule="evenodd"/><path d="m1.1878429 295.85888a1.3286731.69861318 0 0 0 -.1612275.33348 1.3286731.69861318 0 0 0 1.328679.69863 1.3286731.69861318 0 0 0 1.3286789-.69863 1.3286731.69861318 0 0 0 -.1609484-.33188 1.1985081.57365895 0 0 1 .030766.12592 1.1985081.57365895 0 0 1 -1.1984971.57368 1.1985081.57365895 0 0 1 -1.198497-.57368 1.1985081.57365895 0 0 1 .031046-.12752z"/><path d="m3.1318513 295.58387a.96535572.36686711 0 0 1 .1887847.21717.96535572.36686711 0 0 1 -.9653416.36689.96535572.36686711 0 0 1 -.9653417-.36689.96535572.36686711 0 0 1 .1654134-.20511 1.0801256.48888968 0 0 0 -.2801772.3277 1.0801256.48888968 0 0 0 1.0801055.48883 1.0801256.48888968 0 0 0 1.0801054-.48883 1.0801256.48888968 0 0 0 -.3035485-.33976z"/></g></svg>