<svg height="16" width="16" xmlns="http://www.w3.org/2000/svg"><path d="m2 2c-1.108 0-2 .892-2 2v10c0 1.108.892 2 2 2h12c1.108 0 2-.892 2-2v-10c0-1.108-.892-2-2-2zm6.5625 2c.134251.0233656.218751.1134665.21875.34375v1.46875c.299919.077419.645256.22389.90625.375l1.0625-.96875c.335981-.419071.585882-.122791.90625.25.300156.349272.450602.4555809.125.78125l-.9375 1.0625c.158474.262819.295269.63367.375.9375h1.40625c.460469 0 .375.289435.375.75 0 .460567.02297.78125-.4375.78125h-1.34375c-.079884.305823-.216043.642624-.375.90625l1 1.0625c.371282.325669.069581.528902-.25.875-.325838.352876-.571623.527051-.90625.15625l-1-.9375c-.260993.151108-.606331.266331-.90625.34375l.03125 1.4375c0 .460566-.352029.375-.8125.375-.460472 0-.75.054317-.75-.40625l.03125-1.40625c-.299918-.077419-.67651-.192642-.9375-.34375l-1 .96875c-.325603.325668-.5241113.079489-.875-.21875-.348898-.296545-.6153081-.53094-.25-.90625l.9375-1c-.158475-.262821-.2952703-.602425-.375-.90625h-1.40625c-.460471 0-.34375-.320683-.34375-.78125 0-.460565-.1479719-.75.3125-.75h1.4375c.079884-.305826.2160411-.673874.375-.9375l-.9375-1.03125c-.270911-.265716-.166449-.4111272.25-.8125.184284-.177613.2875367-.3124997.5-.3125.212465 0 .2434474-.037836.40625.125l.96875.90625c.260991-.15111.606332-.2975829.90625-.375v-1.4375c0-.460567.289528-.3437498.75-.34375.230236 0 .428249-.0546156.5625-.03125zm-.5625 3.46875c-.847034 0-1.53125.684042-1.53125 1.53125s.684216 1.53125 1.53125 1.53125c.847032 0 1.53125-.684042 1.53125-1.53125s-.684219-1.53125-1.53125-1.53125z" fill="#fff" opacity=".6"/><path d="m2 1c-1.108 0-2 .892-2 2v10c0 1.108.892 2 2 2h12c1.108 0 2-.892 2-2v-10c0-1.108-.892-2-2-2zm6.5625 2c.134251.0233656.218751.1134665.21875.34375v1.46875c.299919.077419.645256.2238897.90625.375l1.0625-.96875c.335981-.419071.585882-.122791.90625.25.300156.349272.450602.4555809.125.78125l-.9375 1.0625c.158474.262819.295269.63367.375.9375h1.40625c.460469 0 .375.289435.375.75 0 .460567.02297.78125-.4375.78125h-1.34375c-.079884.305823-.216043.642624-.375.90625l1 1.0625c.371282.325669.069581.528902-.25.875-.325838.352876-.571623.527051-.90625.15625l-1-.9375c-.260993.151108-.606331.266331-.90625.34375l.03125 1.4375c0 .460566-.352029.375-.8125.375-.460472 0-.75.054317-.75-.40625l.03125-1.40625c-.299918-.077419-.67651-.192642-.9375-.34375l-1 .96875c-.325603.325668-.5241113.079489-.875-.21875-.348898-.296545-.6153081-.53094-.25-.90625l.9375-1c-.158475-.262821-.2952703-.602425-.375-.90625h-1.40625c-.460471 0-.34375-.320683-.34375-.78125 0-.460565-.1479719-.75.3125-.75h1.4375c.079884-.305826.2160411-.673874.375-.9375l-.9375-1.03125c-.270911-.265716-.166449-.4111272.25-.8125.184284-.177613.2875367-.3124997.5-.3125.212465 0 .2434474-.037836.40625.125l.96875.90625c.260991-.15111.606332-.2975829.90625-.375v-1.4375c0-.460567.289528-.3437498.75-.34375.230236 0 .428249-.0546156.5625-.03125zm-.5625 3.46875c-.847034 0-1.53125.684042-1.53125 1.53125s.684216 1.53125 1.53125 1.53125c.847032 0 1.53125-.684042 1.53125-1.53125s-.684219-1.53125-1.53125-1.53125z" fill="#bebebe"/></svg>