<svg height="16" width="16" xmlns="http://www.w3.org/2000/svg"><g fill="#bebebe"><path d="m2.84375 0c-.8215224-.00137341-1.162371 1.045648-1.15625 1.3125l-.6875 11c.1531649-.670693.6175502-1.157078 1.1875-1.15625h3.9667969c-.0439152-.210953-.0520583-.432507-.0664063-.652344h-3.9765625l.2324219-8.7597654c.0530224-.7154511.2268404-.97988778.4707031-1.10546872h10.4199219c.2535.0240122.623621.42161652.558594 1.11718752l.052734 4.8925781c.348879.3018203.656967.6452217.90625 1.0351563l-.345703-6.2773438c.02502-.3780782-.39306-1.37330616-1.40625-1.375zm5.0976562 1.3925781c-1.991767 0-3.59375 1.4559499-3.59375 3.25 0 1.5257467 1.0852468 2.5000283 2.640625 2.78125.1278744-.1733471.2604376-.3436766.4101563-.4980469-.0336511-.3061481.0395375-.6159864.2890625-.8632812.2371494-.2350166.6190782-.3732707.96875-.375.1822065-.0011394.3546446.0354485.5214844.09375.5027895-.1843389 1.0380556-.3007812 1.6015626-.3007812.179661-.0000001.350712.0328069.525391.0527343.135742-.25416.230468-.5315541.230468-.890625 0-1.7940501-1.6019831-3.25-3.5937498-3.25zm0 2.0625c.7292261 0 1.3125.5306621 1.3125 1.1875 0 .6568375-.6809301.7949219-1.4101562.7949219-.729226 0-1.2148438-.1380844-1.2148438-.7949219 0-.6568379.5832741-1.1875 1.3125-1.1875zm-3.4414062 5.7011719c-.3918317 0-.71875.2720721-.71875.625 0 .352927.3269183.625.71875.625.3918221 0 .71875-.272073.71875-.625 0-.3529279-.3269279-.625-.71875-.625zm6.279297.2480469c-.138382 0-.259979.0405271-.371094.0976562.049664.051393.093855.1048282.154297.1542969.287142.2350814.646647.318615.962891.2714844-.1086-.3093852-.390599-.5234375-.746094-.5234375zm-.740235 1.0996091c.113798.296252.392675.496094.740235.496094.347561 0 .627851-.200087.742187-.496094z"/><path d="m2.5664062 11.779297c-.8098184-.0013-1.4375.692619-1.4375 1.525391v1.115234c0 .832771.6276816 1.524135 1.4375 1.52539l10.7031248.017579-.888672-.933594-9.802734-.015625c-.058017-.00009-.1464844-.030523-.1464844-.234375v-1.115235c0-.203853.0884682-.234465.1464844-.234374l2.2792969.003906 1.25 1.320312.0683593-1.318359 1.1875.001953c-.446001-.470615-.7874906-1.032445-1.0117187-1.652344z"/><g fill-rule="evenodd" transform="matrix(.68203656 0 0 .68203656 6.687614 6.110079)"><path d="m13.054688 11.933594c-.036815.014723-.07224.035282-.103516.060547l-.621094.421875c-.094536.059779-.160017.156485-.179687.263672-.019671.107186.008409.211641.078125.287109l2.886718 3.033203h.884766v-1.443359l-2.619141-2.529297c-.079879-.087743-.203178-.122905-.326171-.09375z" transform="matrix(1.4661971 0 0 1.4661971 -9.80536 -8.95858)"/><path d="m6 1c-2.7548301 0-5 2.2451694-5 5 0 2.7548303 2.2451699 5 5 5 2.75483 0 5-2.2451697 5-5 0-2.7548306-2.24517-5-5-5zm0 1.90625c1.7079289 0 3.09375 1.3858207 3.09375 3.09375 0 1.7079291-1.3858211 3.09375-3.09375 3.09375-1.707929 0-3.09375-1.3858209-3.09375-3.09375 0-1.7079293 1.385821-3.09375 3.09375-3.09375z"/></g></g></svg>