<svg height="16" width="16" xmlns="http://www.w3.org/2000/svg"><g fill="#bebebe"><path d="m13.744141 1.1367188-13.21484412 1.1875c-.33102963.0294829-.55298559.290865-.52734375.5878906l.54492187 6.2050781v-5.4003906a.96062604.96062604 0 0 0 0-.0019531c.00118983-.8201711.736227-1.4989902 1.5351562-1.5l12.4042968-.0234376-.050781-.5742187c-.027467-.2968653-.360421-.5104196-.691406-.4804687z"/><g transform="translate(-.000001)"><path d="m2.0847011 3.1756305c-.3323397.00042-.575794.24213-.5762265.54026v11.7441295c.000243.29889.264545.54071.5977252.53982l13.2679002.00016c.333179-.00042.626656-.26956.6259-.56845v-11.7441295c-.0014-.29813-.31506-.53877-.647397-.53788zm.5385062.82439h12.2620597l.027211 10.9999995h-12.2620601z"/><path d="m3.73794 5.0000216 10.032594.0000032.000017 6.9999982-10.0325945-.000003z"/><path d="m13.770534 13.000021h-10.032594v.999999h10.032594z"/></g></g></svg>