<svg height="16" width="16" xmlns="http://www.w3.org/2000/svg"><g fill="#bebebe"><path d="m3 3c-.554 0-1 .446-1 1v11c0 .554.446 1 1 1h12c.554 0 1-.446 1-1v-11c0-.554-.446-1-1-1zm0 1h12v11h-12z" fill="#bebebe"/><path d="m14.206966.92836345-13.21484456 1.18749995c-.33102965.0294829-.55298561.290865-.52734377.5878906l.54492183 6.2050781v-5.4003906a.96062604.96062604 0 0 0 0-.00195c.00119-.8201711.736227-1.4989902 1.5351562-1.5l12.4042973-.0234407-.050781-.5742187c-.027467-.2968653-.360421-.51041955-.691406-.48046865z"/><path d="m4 5h10v7h-10z" fill="#bebebe"/><path d="m14 13.000001-10-.000001v.999999l10 .000001z"/></g></svg>