<svg height="16" width="16" xmlns="http://www.w3.org/2000/svg"><g fill="#bebebe"><path d="m8 0a8 8 0 0 0 -8 8 8 8 0 0 0 8 8 8 8 0 0 0 8-8 8 8 0 0 0 -8-8zm0 1a7 7 0 0 1 7 7 7 7 0 0 1 -7 7 7 7 0 0 1 -7-7 7 7 0 0 1 7-7z"/><path d="m9 2.0859375v3.0898437a3 3 0 0 1 1.826172 1.8242188h3.083984a6 6 0 0 0 -4.910156-4.9140625zm-2 .0039063a6 6 0 0 0 -4.9140625 4.9101562h3.0898437a3 3 0 0 1 1.8242188-1.8261719zm-4.9101562 6.9101562a6 6 0 0 0 4.9101562 4.914062v-3.089843a3 3 0 0 1 -1.8261719-1.824219zm8.7343752 0a3 3 0 0 1 -1.824219 1.826172v3.083984a6 6 0 0 0 4.914062-4.910156z"/><path d="m8 6a2 2 0 0 0 -2 2 2 2 0 0 0 2 2 2 2 0 0 0 2-2 2 2 0 0 0 -2-2zm0 1a1 1 0 0 1 1 1 1 1 0 0 1 -1 1 1 1 0 0 1 -1-1 1 1 0 0 1 1-1z"/></g></svg>