<svg height="16" width="16" xmlns="http://www.w3.org/2000/svg"><g transform="matrix(.34198492 0 0 .34198492 -.207763 -.304082)"><path d="m7.8769531.91210938c-.4441101-.00089772-.8824419.16007452-1.2011719.48632812l-5.3027343 5.4277344c-1.79165902 2.2184562 1.2191145 1.9584864 2.5097656 2.5976562.4630476.4733072-1.7755476.8232259-1.3125 1.2968749.4630476.473307 2.7999403.911459 3.2636719 1.384766.4630476.473307-.9474226.975911-.484375 1.449219.4630476.473307 1.5339718.024887 1.734375 1.117187.1429497.780752 1.9286209.334824 2.8027344-.304687.4630472-.47365-.8849226-.429379-.421875-.902344 1.1514632-1.177454 2.2232212-.427574 2.6171872-1.607422.19459-.583084-1.6942-.897787-1.230469-1.371094 1.332032-.7780156 5.936553-1.2838082 3.751954-3.4687499l-5.4980472-5.6191406c-.3360002-.3226628-.7844055-.48543041-1.2285157-.48632812zm-.0097656 1.35742182c.2193456.0011828.4383942.0827495.5957031.2421876l1.4511719 1.4726562c.1376755.1405134.1357105.4138877.0585937.4921875l-.7207031-.5761719-.1425781.8535156-.6015625-.3183593-.9628906.609375-.3203125-1.2832031-.5175782.8964843h-.7910156c-.322661 0-.3616873-.4097966-.0683594-.703125.5121416-.5528289 1.1005726-1.1166769 1.4199219-1.4433593.1606209-.1641692.3802638-.2433703.5996094-.2421876zm5.8710935 8.9394528c-.431157.014834-.855355.23532-.972656.648438 0 .269142 1.982422.446715 1.982422-.0625-.14124-.408843-.578608-.600771-1.009766-.585938zm-9.0117185 1.169922c-.6362843-.048588-1.4541896.425649-.8945313.910156.4695453.406279 1.194607-.100957 1.4121094-.667968-.113881-.151158-.3054833-.225992-.5175781-.242188zm7.7910155.03125c-.605313.543072.067299 1.095017.664063.744141.133032-.135084-.003006-.609399-.664063-.744141z" fill="#bebebe" stroke-width=".341985" transform="matrix(2.9241055 0 0 2.9241055 .607521 .889166)"/><path d="m16.416 29.306c.414.257 6.681 1.53 8.213 1.784.531.112.155.659-.577 1.028-1.651.44-9.656-2.812-7.636-2.812z" fill="#fff"/></g></svg>