<svg height="16" width="16" xmlns="http://www.w3.org/2000/svg"><path d="m4.5 0c-2.484351 0-4.5 2.0156486-4.5 4.5 0 1.48121.738589 2.773621 1.84375 3.59375-.475145.609204-1.049464 1.0947504-1.6875 1.46875.59780212.2878097 1.2508013.3664388 1.8652344.2578125.3384341-2.7205939 2.6701218-4.8457031 5.4785156-4.8457031h4c.495586 0 .973833.0734093 1.431641.1972656.033393-.2209585.068359-.4416338.068359-.671875 0-2.4843514-2.015649-4.5-4.5-4.5zm3 6c-2.4843514 0-4.5 2.015649-4.5 4.5s2.0156486 4.5 4.5 4.5h4c.278759 0 .547729-.04518.8125-.09375.87729.973397 2.319415 1.239684 3.53125.65625-.638036-.374-1.212355-.859546-1.6875-1.46875 1.105161-.820129 1.84375-2.11254 1.84375-3.59375 0-2.484351-2.015649-4.5-4.5-4.5z" fill="#bebebe"/></svg>