<svg height="16" width="16" xmlns="http://www.w3.org/2000/svg"><path d="m2.5 1c-.831 0-1.5.669-1.5 1.5v11c0 .831.669 1.5 1.5 1.5h11c.831 0 1.5-.669 1.5-1.5v-11c0-.831-.669-1.5-1.5-1.5zm1.5 3.0234375h.6660156c4.050088 0 7.3339844 3.2838954 7.3339844 7.3339845v.666016h-1.333984s0-.299248 0-.666016c0-3.3137131-2.6862884-6.0000001-6.0000004-6.0000001-.364352 0-.6660156.017382-.6660156 0zm0 2.6660156h.6660156c2.577336 0 4.6679688 2.0906318 4.6679688 4.6679689v.666016h-1.3339844v-.666016c0-1.8409536-1.4930324-3.3339845-3.3339844-3.3339845h-.6660156zm1.3339844 2.6679688c.736376 0 1.3320312.5956547 1.3320312 1.3320311 0 .736384-.5956552 1.333985-1.3320312 1.333985-.736384 0-1.3339844-.597601-1.3339844-1.333985 0-.7363764.5976004-1.3320311 1.3339844-1.3320311z" fill="#bebebe"/></svg>