<svg enable-background="new" height="16" width="16.000429" xmlns="http://www.w3.org/2000/svg"><g fill="#bebebe" transform="translate(-256 -99.996704)"><path d="m258.23264 100.08655v15.82031h11.53515v-9.75977l-6.06054-6.06054zm7.16211 0 4.37304 4.37304v-4.37304zm-5.57032.73633h3.68164l5.4668 5.46679v8.88086h-9.14844z"/><g transform="matrix(1.2209702 0 0 1 -56.796244 1.281631)"><path d="m261.03127 108.71391v.951c2.10295 1.09462 4 0 4 0v-.951s-2.05961 1.05726-4 0z"/><ellipse cx="263.03128" cy="106.9967" rx="2.000002" ry="1"/><path d="m261.03127 110.71391v.951c2.10295 1.09462 4 0 4 0v-.951s-2.05961 1.05726-4 0z"/></g></g></svg>