<svg enable-background="new" height="16" width="16.000429" xmlns="http://www.w3.org/2000/svg"><g fill="#bebebe" transform="translate(-256 -99.996704)"><path d="m258.23264 100.08655v15.82031h11.53515v-9.75977l-6.06054-6.06054zm7.16211 0 4.37304 4.37304v-4.37304zm-5.57032.73633h3.68164l5.4668 5.46679v8.88086h-9.14844z"/><path d="m6.0410156 7.4570312v1.1191407.7832031l.9511719 1.044922.00195.002.00195.0059.00391.0059v.0059l-.00195.0098-.00195.0059-.00195.0059-.00195.002-.9511719 1.046875v.783203 1.117187h4.5781154v-1.086268h-3.5644535-.00586l-.00586-.002-.00586-.0039-.00195-.002-.00195-.002-.00391-.0039-.00391-.0059-.00195-.0059v-.0059l.00195-.0098.00195-.0059.00195-.002.00195-.0039.7148438-.785156.593745-.87135-.5937269-1.2161755-.7148494-.7851563-.00195-.00195-.00195-.00586-.00391-.00586v-.00586l.00195-.00977.00195-.00586.00195-.00586.00195-.00195.00586-.00391.00195-.00195.00586-.00195.00586-.00195h.00391 3.564461v-1.087895z" transform="translate(256 99.996704)"/></g></svg>