<svg enable-background="new" height="16" width="16.000429" xmlns="http://www.w3.org/2000/svg"><g fill="#bebebe" transform="translate(-256 -99.996704)"><path d="m258.23264 100.08655v15.82031h11.53515v-9.75977l-6.06054-6.06054zm7.16211 0 4.37304 4.37304v-4.37304zm-5.57032.73633h3.68164l5.4668 5.46679v8.88086h-9.14844z"/><path d="m261.25086 108.20473c-.25252 0-.45581.223-.45581.5v4c0 .277.20329.5.45581.5h6.38128c.25251 0 .4558-.223.4558-.5v-4c0-.277-.20329-.5-.4558-.5zm.91161 1c.25173 0 .4558.22386.4558.5s-.20407.5-.4558.5-.45581-.22386-.45581-.5.20408-.5.45581-.5zm1.82322 0h2.73484c.25251 0 .4558.223.4558.5s-.20329.5-.4558.5h-2.73484c-.25252 0-.45581-.223-.45581-.5s.20329-.5.45581-.5zm-1.82322 2c.25173 0 .4558.22386.4558.5s-.20407.5-.4558.5-.45581-.22386-.45581-.5.20408-.5.45581-.5zm1.82322 0h2.73484c.25251 0 .4558.223.4558.5s-.20329.5-.4558.5h-2.73484c-.25252 0-.45581-.223-.45581-.5s.20329-.5.45581-.5z"/></g></svg>