<svg enable-background="new" height="16" width="16.000429" xmlns="http://www.w3.org/2000/svg"><g fill="#bebebe" transform="translate(-256 -99.996704)"><path d="m1 0v16h13v-9.9394531l-6.0605468-6.0605469zm8.6269532 0 4.3730468 4.3730468v-4.3730468zm-6.6269532 1h4.6464845l5.3535155 5.1191408v8.8808592h-10z" transform="translate(256 99.996704)"/><path d="m263.44141 107.20703c-.85964-.008-1.57894.19324-2.36719.72852-.0377.0245-.0596.0684-.0566.11328l.043.66211c.003.0397.0251.0782.0586.0996s.0762.026.11328.0117c.31979-.1248.51867-.28341.75196-.41211.2315-.12773.5071-.23675 1.01562-.28516.31918.0279.47001.10634.54883.20117.0793.0954.10374.23405.11523.41211.0351.54455-.16678 1.1185-.34375 1.65039-.17686.53158-.34374 1.03563-.13672 1.45508.10627.21533.25735.54547.5918.78711.33473.24184.84403.38269 1.63867.26172.001-.00005.003.00008.004 0a.07106943.07106943 0 0 0 .0137-.002c.75927-.22579 1.31367-.4952 1.73828-.96093.4245-.46562.71282-1.11395.97656-2.08594.01-.0357.003-.0769-.0176-.10742-.16604-.25462-.4655-.32066-.63672-.43164h-.002c-.0356-.024-.0838-.0292-.12304-.0117-.0399.0177-.0688.0583-.0742.10156-.17321 1.36363-1.03552 2.23181-1.69141 2.49414-.21974.0879-.49571.13659-.74023.12305-.24428-.0135-.44967-.0927-.54883-.20899a.07106943.07106943 0 0 0 -.002-.002c-.0192-.0209-.0462-.0345-.0742-.0391-.00057-.00009.007.003.01.004.002.00084.005.001.006.002-.001-.0008-.002-.003-.006-.006-.008-.008-.0209-.0218-.0332-.043-.0264-.0454-.0556-.11769-.0762-.20117-.0416-.16843-.0536-.38867-.0117-.56446.1836-.7701.41213-1.44406.5332-2.15429l.002-.008c.001-.006.002-.0132.002-.0195a.07106943.07106943 0 0 0 0-.006c-.0238-.62095-.14783-.99177-.37109-1.21874-.22132-.22499-.51496-.28396-.82032-.33594l-.008-.002c-.005-.001-.009-.001-.0137-.002a.07106943.07106943 0 0 0 -.008 0z" fill="#bebebe" transform="translate(.041641 -.212839)"/></g></svg>