<svg enable-background="new" height="16" width="16.000429" xmlns="http://www.w3.org/2000/svg"><g fill="#bebebe"><path d="m1 0v16h13v-9.9394531l-6.0605468-6.0605469zm8.6269532 0 4.3730468 4.3730468v-4.3730468zm-6.6269532 1h4.6464845l5.3535155 5.1191408v8.8808592h-10z"/><path d="m11.539062 8-6.0878901.0058594c-.25252.00025-.4550781.223-.4550781.5v3.9999996c0 .277.2025581.50025.4550781.5l6.0878901-.005859c.25251-.00025.455079-.223.455079-.5v-4c0-.277-.202568-.50025-.455079-.5zm-5.039062 1a.5.5 0 0 1 .5.5.5.5 0 0 1 -.5.5.5.5 0 0 1 -.5-.5.5.5 0 0 1 .5-.5zm2 0h2c.277 0 .5.223.5.5s-.223.5-.5.5h-2c-.277 0-.5-.223-.5-.5s.223-.5.5-.5zm-2 2a.5.5 0 0 1 .5.5.5.5 0 0 1 -.5.5.5.5 0 0 1 -.5-.5.5.5 0 0 1 .5-.5zm2 0h2c.277 0 .5.223.5.5s-.223.5-.5.5h-2c-.277 0-.5-.223-.5-.5s.223-.5.5-.5z"/></g></svg>