<svg enable-background="new" height="16" width="16.000429" xmlns="http://www.w3.org/2000/svg"><g fill="#bebebe" transform="translate(-256 -99.996704)"><path d="m1 0v16h13v-9.9394531l-6.0605468-6.0605469zm8.6269532 0 4.3730468 4.3730468v-4.3730468zm-6.6269532 1h4.6464845l5.3535155 5.1191408v8.8808592h-10z" transform="translate(256 99.996704)"/><g transform="matrix(1.2500027 0 0 1.0237782 -64.289815 -1.532297)"><path d="m261.03128 108.93864v.951c2.10295 1.09462 4 0 4 0v-.951s-2.05961 1.05726-4 0z"/><path d="m265.03128 106.9967a2.0000019 1 0 0 1 -2 1 2.0000019 1 0 0 1 -2-1 2.0000019 1 0 0 1 2-1 2.0000019 1 0 0 1 2 1z"/><path d="m261.03128 110.89218v.951c2.10295 1.09462 4 0 4 0v-.951s-2.05961 1.05726-4 0z"/></g></g></svg>