<svg enable-background="new" height="16" width="16.000429" xmlns="http://www.w3.org/2000/svg"><g fill="#bebebe" transform="translate(-256 -99.996704)"><path d="m258.23264 100.08655v15.82031h11.53515v-9.75977l-6.06054-6.06054zm7.16211 0 4.37304 4.37304v-4.37304zm-5.57032.73633h3.68164l5.4668 5.46679v8.88086h-9.14844z"/><path d="m261.18548 108.51847.0442.66291c.60399-.2357.7491-.60907 1.81196-.70711.69109.0567.76744.36569.79122.73431.0749 1.16148-.84444 2.34399-.49306 3.05593.21585.43734.5525 1.21503 2.09756.97982 1.49808-.44549 2.10406-1.03275 2.62678-2.95902-.13053-.20217-.40149-.26542-.60309-.39683-.17835 1.40994-1.06004 2.31246-1.76934 2.59615-.47787.19114-1.16561.19568-1.43474-.12003-.15403-.0255-.31098-.55771-.21411-.96398.18591-.77976.41603-1.45302.53452-2.15295-.0464-1.21172-.48304-1.33267-1.09381-1.43632-.83948-.008-1.52704.18351-2.29809.70712z"/></g></svg>