<svg height="16" viewBox="0 0 4.2333332 4.2333332" width="16" xmlns="http://www.w3.org/2000/svg"><g fill="#bebebe" transform="translate(0 -292.76667)"><ellipse cx="2.116667" cy="294.35895" rx=".233324" ry=".227467"/><path d="m2.1166667 292.76667c-.8793918 0-1.59227699.71287-1.59227699 1.59227 0 .87939.71288519 1.59227 1.59227699 1.59227.8793917 0 1.5922769-.71288 1.5922769-1.59227 0-.8794-.7128852-1.59227-1.5922769-1.59227zm0 .90988c.3773924 0 .6824044.30552.6824044.68239 0 .37688-.305012.68242-.6824044.68242s-.6824044-.30554-.6824044-.68242c0-.37687.305012-.68239.6824044-.68239z"/><g transform="matrix(.26458333 0 0 .26458333 0 292.76667)"><path d="m7.3378906 12.886719v2.867187c0 .109799.1191853.199219.2675782.199219h.6777343c.1483929 0 .2675781-.08942.2675781-.199219v-2.861328c-.1823252.013799-.3649233.027344-.5507812.027344-.2234306 0-.4438575-.013335-.6621094-.033203z"/><path d="m4.84375 12.185547-3.0195312 2.703125c-.1343752.120243-.1634079.305433-.0644532.416016l.5273438.589843c.0989547.110582.2874998.102665.421875-.017578l3.4667968-3.103515c.026019-.023283.0289508-.054854.046875-.082032-.4815383-.122145-.9414587-.292385-1.3789062-.505859z"/><path d="m11.15625 12.185547c-.437447.213474-.897368.383714-1.3789062.505859.0179242.027178.020856.058749.046875.082032l3.4667972 3.103515c.134375.120243.32292.12816.421875.017578l.527343-.589843c.098955-.110583.069922-.295773-.064453-.416016z"/></g></g></svg>