<svg height="16" width="16" xmlns="http://www.w3.org/2000/svg"><g fill="#bebebe"><path d="m8 0c-4.4183 0-8 3.5817-8 8s3.5817 8 8 8 8-3.5817 8-8-3.5817-8-8-8zm0 1.1503906c3.782868 0 6.849609 3.0667419 6.849609 6.8496094 0 3.782868-3.066741 6.849609-6.849609 6.849609-3.7828675 0-6.8496094-3.066741-6.8496094-6.849609 0-3.7828675 3.0667419-6.8496094 6.8496094-6.8496094z"/><path d="m7.7206655 2.2465134c.1583287-.032398.245 0 .2793345 0 .7853515 0 1.4525397.6292364 1.4525397 1.4246062 0 .5747031-.3487828 1.0794644-.8380037 1.3128724h3.491682c.186089-.00234.337545.1491128.335201.3352014v.8380037c.0023.1860886-.149112.3375449-.335201.3352014h-2.5419445l.300542 2.7374348 1.6994585 4.2179957c.0023.186088-.149113.337545-.335202.335201h-.642469c-.186089.0023-.337545-.149113-.335202-.335201l-1.9999999-4.1900185h-.5028022l-2 4.1900185c.00234.186088-.1491128.337545-.3352015.335201h-.6424694c-.1860887.002324-.3375449-.149113-.3352015-.335201l1.7319035-4.4038094.2680965-2.5516211h-2.5419444c-.1860886.0023435-.3375449-.1491128-.3352014-.3352014v-.8380037c-.0023435-.1860886.1491128-.3375449.3352014-.3352014h3.4916819c-.4892209-.233408-.8380036-.7381693-.8380036-1.3128724 0-.6966945.5150592-1.2899301 1.1732051-1.4246062z" stroke-width=".893871"/></g></svg>