<svg height="16" width="16" xmlns="http://www.w3.org/2000/svg"><path d="m.81640625 4.9648437c-.4958396-.00122-.84435935.425828-.84375.9453125l.00721663 6.1523438c.00060935.519485.33678602.9375.83262712.9375h14.3125c.495842 0 .875-.418015.875-.9375v-6.15625c0-.5194849-.379159-.9050317-.875-.90625zm.18359375 1.0351563h2v1h-2zm3 0h2v1h-2zm3 0h2v1h-2zm3 0h2v1h-2zm3 0h2v1h-2zm-11 2h3v1h-3zm4 0h1v1h-1zm2 0h2v1h-2zm3 0h2v1h-2zm2.5 0h1.5v1h-1.5zm-12.5 2h2v1h-2zm3 0h1v1h-1zm2 0h6v1h-6zm7 0h2v1h-2z" fill="#bebebe"/></svg>