<svg height="16" width="16" xmlns="http://www.w3.org/2000/svg"><g fill="#bebebe" transform="translate(-.118644 -.084746)"><path d="m3.7991772 1.173578h-.7569082q-1.177413 0-1.5839008.3223868-.3924709.3223869-.64477366 1.4717661h-.33640368l.08410094-2.38285938h7.9054864l.084101 2.38285938h-.3364037q-.2382859-1.1633961-.6447737-1.4717661-.392471-.3223868-1.5839007-.3223868h-.7569082v7.1625948q0 .7709249.2382859.995194.2382859.2242693 1.1073288.2663203v.266319h-4.0929115v-.266319q.8690429-.056065 1.093312-.2803371.2242691-.2382858.2242691-1.1353622z"/><path d="m7.2851424 3.9491391h-.7569083q-1.1774129 0-1.5839005.3223869-.3924711.3223869-.6447738 1.4717661h-.3364036l.084101-2.3828594h7.9054868l.0841 2.3828594h-.336402q-.238286-1.163396-.644774-1.4717661-.392471-.3223869-1.5839017-.3223869h-.7569082v7.1625949q0 .770925.2382858.995194.2382861.224269 1.1073291.26632v.266319h-4.0929117v-.266319q.8690428-.05606 1.0933119-.280337.2242692-.238286.2242692-1.135362z"/><path d="m14.820972 12.346735h-.322387q-.126151-.855026-.406488-1.093312-.280336-.252303-1.135362-.252303h-2.032439v2.915499q0 .855027.224269 1.107329.238286.252303 1.051262.294354v.266319h-3.9247092v-.266319q.7989587-.05607 1.009211-.294354.2102523-.252302.2102523-1.121346v-6.0692834q0-.7428914-.2242691-.9671606-.2242691-.2382859-.9951942-.2943532v-.2663196h7.4429302l.04205 2.0044052h-.350419q-.182219-.9391268-.560674-1.2054464-.378453-.2663196-1.569883-.2663196h-1.906287q-.280337 0-.364438.098118-.0841.084101-.0841.3784541v3.1117345h2.032439q.841009 0 1.121345-.238286.294354-.2523031.420505-1.0933123h.322387z"/></g></svg>