<svg height="16" width="16" xmlns="http://www.w3.org/2000/svg"><g fill="#bebebe"><g transform="matrix(.12764382 0 0 .12764382 8.828257 5.675468)"><path d="m2.9160156 6-.1484375.0644531-.6347656 1.0703125c.0631465-.0890735.1630162-.150518.2753906-.1347656 3.3538665.4701362 7.9469149.360678 11.3007809-.0351562.112148-.013236.208383.049154.271485.1367187l-.744141-1.0371094c-.011947-.0452823-.076864-.0596322-.15625-.0644531zm10.7343754 1.8847656c-3.374567 0-7.946915.4784112-11.3007816.035156-.023658-.00313-.045989-.00261-.068359 0-.1565942.0182593-.2751445.16851-.2753906.3261722l-.0058598 3.7539062-.00273 3.417982c-.0001439.180186.1535574.308511.34375.326172 1.6971998.157598 3.9304346.265919 5.65898.255846 1.7442664-.01017 3.983603-.140116 5.6418-.289049.19025-.01709.349182-.148022.34375-.328125l.01445-3.382826-.00585-3.7871094c-.000278-.1801854-.152783-.328125-.34375-.328125zm-5.650391 1.1152344c1.6568542 0 3 1.343146 3 3s-1.3431458 3-3 3-3-1.343146-3-3 1.3431458-3 3-3z" stroke-width=".127644" transform="matrix(7.8343002 0 0 7.8343002 -69.163216 -44.463318)"/><circle cx="-6.488815" cy="49.548283" fill="#bebebe" r="15.6686"/></g><path d="m8 0c-1.9329966 0-3 1.5670034-3 3.5v2.5h1v-2.5c0-1.3807119.6192881-2.5 2-2.5s2 1.1192881 2 2.5v2.5h1v-2.5c0-1.9329966-1.0670034-3.5-3-3.5z"/></g></svg>