<svg height="16" width="16" xmlns="http://www.w3.org/2000/svg"><g fill="#bebebe" fill-opacity=".9983"><path d="m7.0625.125c-3.5196452 0-6.375 2.8553548-6.375 6.375 0 1.9799356.8985456 3.738805 2.3125 4.908203v-5.408203h.027344c-.0084528-.0511067-.027344-.0982301-.027344-.1523438v-1.6953124c0-.6385085.5138353-1.1523438 1.1523438-1.1523438h8.1953122c-1.140159-1.7166659-3.0714937-2.875-5.285156-2.875zm6.09375 6.8125c-.100384.0283756-.198883.0625-.308594.0625h-5.847656v3h5.5c.343086-.6004932.48535-1.308076.65625-1.875z"/><path d="m5.1249999 4c-.3963351 0-1.1249999.603665-1.1249999 1v6c0 .396335.7110868 1 1.1074219 1h9.8750001c.396335 0 1.017578-.603665 1.017578-1v-6c0-.396335-.603665-1-1-1zm-.1249999 1h10v6h-10z"/><path d="m5 13c-.396335-.000098-1 .197629-1 .5v1.525835c0 .302371.6349154.971124 1.03125.971694l1.71875.002471c.435622-.186242.3609145-.938657.53125-1.403968.079332-.279943.1796731-.53399.4375-.643712l2.28125.04768h.15625l2.25-.04768c.257827.109722.35817.363769.4375.643712.170335.465311.09563 1.217726.53125 1.403968h1.625c.396335 0 .986328-.620976.986328-.923347v-1.525835c0-.302371-.621243-.548249-1.017578-.548347z"/></g></svg>