<svg height="16" width="16" xmlns="http://www.w3.org/2000/svg"><path d="m904.5 461a2.5 2.5 0 0 0 -2.5 2.5 2.5 2.5 0 0 0 .05.482l-4.845 2.694a2.5 2.5 0 0 0 -1.705-.676 2.5 2.5 0 0 0 -2.5 2.5 2.5 2.5 0 0 0 2.5 2.5 2.5 2.5 0 0 0 1.717-.684l4.834 2.688a2.5 2.5 0 0 0 -.051.496 2.5 2.5 0 0 0 2.5 2.5 2.5 2.5 0 0 0 2.5-2.5 2.5 2.5 0 0 0 -2.5-2.5 2.5 2.5 0 0 0 -1.72.688l-4.834-2.688a2.5 2.5 0 0 0 .053-.5 2.5 2.5 0 0 0 -.057-.514l4.828-2.683a2.5 2.5 0 0 0 1.729.697 2.5 2.5 0 0 0 2.5-2.5 2.5 2.5 0 0 0 -2.5-2.5z" fill="#bebebe" fill-rule="evenodd" transform="translate(-892 -460)"/></svg>