<svg height="16" viewBox="0 0 16 16" width="16" xmlns="http://www.w3.org/2000/svg"><g fill="#bebebe"><path d="m7 0c-.5143992 0-1 .46997569-1 .984375v.515625l-2.0683594.34375c-.5074315.0843791-.9297523.4152881-.9296875.9296875l.0019531 6.0351563a1.0166077 1.0166077 0 0 1 .9960938-.8242188h.0058594v-4.7675781c-.0000352-.2571996.2170408-.5337306.4648437-.4648438 2.1665432.6022783 4.9213475.7118765 7.0878909.0332031.245439-.076884.462855.2076442.46289.4648438v1.7363281a1.0166077 1.0166077 0 0 1 .976563.8320313v-3.0332032c-.000065-.5143993-.462165-.9277343-.976563-.9277343l-2.021484-.3574219v-.515625c0-.51439931-.4856009-.984375-1-.984375zm.4648438 1.0351562h1.0703124c.2571996 0 .4648438.2076442.4648438.4648438v.5h-2v-.5c0-.2571996.2076442-.4648438.4648438-.4648438zm-2.2128907 2.6171876c-.1244355-.0324614-.232442.1038219-.2324219.2324218v4.0996094h.4882813c.657939-1.1274312 1.630735-1.8620577 2.6367187-2.125.9977459-.260789 1.9683068-.3582979 2.8632808-.6074219v-1.3144531c0-.1285999-.112372-.2833306-.230468-.2324219-1.9413757.8369088-3.9411837.3605346-5.5253909-.0527343zm-2.2480469 7.5488282v3.285156c.0000649.514399.7747871.797789 1.2675782.945313 2.1725382.650381 4.9388296.718387 7.7519536-.003907.498236-.127929.976627-.413335.976562-.927734v-.328125a1.0166077 1.0166077 0 0 1 -1.314453.794922c-.373011-.121284-.727258-.212496-1.074219-.292969-2.0442463.373972-4.3624585.534051-6.1386718-.207031-.2373681-.09904-.720444-.493467-.4648437-.464844v-1.986328h-.0078125a1.0166077 1.0166077 0 0 1 -.9960938-.814453zm2.0175782.814453v1.261719c0 .1286.1082785.192328.2304687.232422 1.0069704.330406 1.8806905.46871 2.6523438.49414-.8810634-.335275-1.7078771-.998613-2.3769531-1.988281z"/><path d="m4 9h2c.900464-2.7525753 3.502212-2.0008848 6-3v1h2.425733c1.000606.6666667.94528 1.3333333 0 2h-2.425733v2h2.425733c1 0 1 2 0 2h-2.425733v1c-2.853521-.927818-4.705913-.411825-6-3h-2z" fill-rule="evenodd"/></g></svg>