<svg height="16" viewBox="0 0 16 16" width="16" xmlns="http://www.w3.org/2000/svg"><g fill="#bebebe"><g transform="translate(-183 -669)"><path d="m9 6c-1.0907 0-2 .9093-2 2v3c0 1.0907.9093 2 2 2h5c1.0907 0 2-.9093 2-2v-3c0-1.0907-.9093-2-2-2zm-1 1h7v5h-7z" transform="translate(183 669)"/><path d="m194.5 684c-2.5 0-2.5-.5-2.5-.5 0-.5.5-.5.5-.5h4c.5 0 .5.5.5.5s0 .5-2.5.5z"/><path d="m3 1v1h5v-1zm-1 2c-.554 0-1 .446-1 1v2c0 .554.446 1 1 1v-1h4.7753906c.54839-.6101 1.3359094-1 2.2246094-1h1v-1c0-.554-.446-1-1-1h-6zm1 4v3h3v-1h-2v-1h2c0-.35292.0707006-.68601.1816406-1z" transform="translate(183 669)"/></g><path d="m3 1v2h1v-1h3v1h1v-2z"/></g></svg>