<svg height="16" width="16" xmlns="http://www.w3.org/2000/svg"><g fill="#bebebe" transform="matrix(.96091185 -.25294325 .25294325 .96091185 -1.31397 2.952359)"><path d="m.85345716 5.1380989-1.62784348 4.4217446 1.2104077.6400355c1.34687412.71277 2.90361392.894738 4.41929422 1.023186l1.6632221.07402c1.9996904-.06131 3.5717403.481391 4.5629763.979647 1.182098.648842 1.020945.709537 2.351152 1.550018l.531186.15239.90563-4.6848885c-2.022907-1.7218716-4.821923-2.1229071-7.1013507-2.4164625l-2.1160365-.1523895c-1.8421568-.3833356-3.4060627-1.0509331-4.2674515-1.3608935zm.46587564.4136345-.013062-.00436c.0043.0016.00866.00306.013062.00436.8574522.3085438 2.4387995.9792858 4.2935754 1.3652475.0086.00204.017332.00349.026124.00436l2.1029745.1523895h.013062c2.2407401.2887519 4.6684793.8991303 6.6244753 2.5075476l-.554808 2.942695-.184465.782796c-.625178-.396943-.545773-.29216-.815132-.49027-.276348-.203249-.443704-.47042-1.040346-.797912-.938663-.49655-1.9356176-.825196-2.9602356-1.027781-1.2224183-.241693-2.4842123-.303956-3.7333731-.257846-1.5085476-.128051-2.9506255-.287501-4.25170748-.9760384l-.90886308-.4492699z"/><path d="m2.3906838.92289513-1.59003595 4.34932097 1.11137425.3559793c.8613888.3099604 1.8979159.7138685 3.7400727 1.0972041l2.1160365.1523895c.737643.094997 1.5265413.2025122 2.3293827.3613807.0014.0001533.08239.051763.08379.051916 1.332264.1505808 2.496555.8490225 3.23998 1.222715.669277.3673597.497742.05424.612279.1665378.240925.152512.476257.318922.700992.500708.06113.0395.08936.07025.117558.09578l.01742.01742.855367-3.9286812c-1.1975-1.2169289-2.752365-1.800353-3.924979-2.0449816l-3.3310682-.458802c-1.7887225-.0894473-2.4165573-.3675146-3.2779461-.677475z"/></g></svg>