<svg height="16" width="16" xmlns="http://www.w3.org/2000/svg"><g fill="#bebebe"><path d="m5.5909202 1.4491525c-.83194 0-1.5017.6690001-1.5017 1.5000001v4c0 .831.66976 1.5 1.5016999 1.5h4.0046c.8319499 0 1.5016999-.669 1.5016999-1.5v-4c0-.831-.66976-1.5000001-1.5016999-1.5000001zm.0626 1.0000001c1.2931.1279 2.5863.12207 3.8794 0 .3019699-.0285.5631398.25953.5631398.5625v2.875c0 .30297-.2620799.52562-.5631398.5625-1.2547.1537-2.5415001.17922-3.8794001 0-.30063-.0403-.56314-.25953-.56314-.5625v-2.875c0-.30297.2613001-.59235.56314-.5625z"/><path d="m2.4672758 7.8728814c-.83194 0-1.5016999.669-1.5016999 1.5v3.0000006c0 .831.6697599 1.5 1.5016999 1.5h4.0046c.83195 0 1.5017-.669 1.5017-1.5v-3.0000006c0-.831-.66976-1.5-1.5017-1.5zm.0626 1c1.692.19941 2.848.13085 3.8794 0 .3009-.0382.56314.25953.56314.5625v2.8750006c0 .30297-.26231.5238-.56314.5625-1.215.1563-2.4979.17677-3.8794 0-.30087-.0385-.56314-.25953-.56314-.5625v-2.8750006c0-.30297.2619-.598.56314-.5625z"/><path d="m9.5281234 7.5508475c-.83194 0-1.5017.669-1.5017 1.5v4.0000005c0 .830999.66976 1.5 1.5017 1.5h4.0046006c.83195 0 1.5017-.669001 1.5017-1.5v-4.0000005c0-.831-.66976-1.5-1.5017-1.5zm.0626 1c1.2931006.1279 2.5863006.12207 3.8794006 0 .30197-.0285.56314.25953.56314.5625v2.8750005c0 .30297-.26208.52562-.56314.5625-1.2547.1537-2.5415.17922-3.8794006 0-.30063-.0403-.56314-.25953-.56314-.5625v-2.8750005c0-.30297.2613-.59235.56314-.5625z"/></g></svg>