<svg height="16" width="16" xmlns="http://www.w3.org/2000/svg" xmlns:xlink="http://www.w3.org/1999/xlink"><filter id="a" color-interpolation-filters="sRGB"><feBlend in2="BackgroundImage" mode="darken"/></filter><g fill="#bebebe"><path d="m6 13v1h-6v1h6v1h4v-1h6v-1h-6v-1zm1 1h2v1h-2z"/><g enable-background="new" transform="matrix(.80221327 0 0 .80221327 -657.034961 215.79537)"><g filter="url(#a)"/><path d="m829.0002-269c-4.41828 0-8 3.58172-8 8s3.58172 8 8 8 8-3.58172 8-8-3.58172-8-8-8zm.5625 1.03125c1.26633.10061 2.41944.53383 3.40625 1.21875-.0267.0923-.18905-.0356-.28125-.0625-.11705-.0341-.22199-.11868-.34375-.125-.17156-.009-.34369.0537-.5.125-.11569.0528-.25378.10597-.3125.21875-.0289.0554.0299.1326 0 .1875-.1008.18528-.45385.14754-.53125.34375-.063.15981-.0374.44394.125.5.11227.0387.16308-.23067.28125-.21875.0956.01.11347.15757.1875.21875.0647.0535.1403.15497.21875.125.12308-.047.12214-.24327.125-.375.002-.0758-.0664-.14301-.0625-.21875.003-.056.0304-.11025.0625-.15625.0802-.11493.18166-.23104.3125-.28125.0389-.0149.10164-.0345.125 0 .0629.0929-.10378.20233-.125.3125-.0177.0921-.0715.22065 0 .28125.0967.0819.32601-.17937.375-.0625.0548.13066-.26733.13069-.34375.25-.0286.0447-.004.1105-.0312.15625-.0901.15279-.23385.30198-.40625.34375-.13507.0327-.31973.015-.40625-.0937-.0519-.0652.0735-.21068 0-.25-.0662-.0354-.1661.053-.1875.125-.0226.076.13742.15252.0937.21875-.0573.087-.22272-.0528-.3125 0-.0924.0544-.095.19321-.15625.28125-.0549.0788-.10386.17156-.1875.21875-.11037.0623-.33633-.0582-.375.0625-.0315.0982.16646.12987.21875.21875.0385.0654.10817.15821.0625.21875-.0565.0748-.19041-.0232-.28125 0-.12647.0322-.27712.0753-.34375.1875-.0957.16123-.13258.42992 0 .5625.0368.0368.10813-.0199.15625 0 .068.0282.0838.14311.15625.15625.12385.0225.25828-.0639.34375-.15625.0828-.0895.0483-.24898.125-.34375.0618-.0764.19222-.0768.25-.15625.0252-.0347.00061-.0949.0312-.125.0992-.0974.27401-.13649.40625-.0937.10537.034.13112.1823.21875.25.0737.057.22246.036.25.125.0317.10246-.22293.19725-.15625.28125.0471.0594.16151-.0128.21875-.0625.0774-.0673.14107-.17992.125-.28125-.022-.13841-.33827-.18448-.28125-.3125.0169-.0381.086-.0147.125 0 .10365.0389.19453.12291.25.21875.0532.0919.0183.21591.0625.3125.0494.10799.1038.31112.21875.28125.13261-.0344-.0182-.29553.0625-.40625.0274-.0376.0797-.0734.125-.0625.18834.0455.17415.37506.34375.46875.12798.0707.29995-.0183.4375.0312.0843.0304.2005.0685.21875.15625.0124.0595-.0548.10965-.0937.15625-.071.085-.14635.1798-.25.21875-.10726.0403-.23065.0183-.34375 0-.16258-.0264-.30471-.14146-.46875-.15625-.0734-.007-.15287-.002-.21875.0312-.0791.0395-.0991.1875-.1875.1875-.2357 0-.29614-.38169-.5-.5-.10272-.0596-.22528-.0853-.34375-.0937-.16754-.0119-.33514.0304-.5.0625-.15872.0309-.33261.0377-.46875.125-.33012.21161-.55104.56836-.75.90625-.13054.22169-.33393.46693-.28125.71875.0121.0577.11919.0664.125.125.0148.1495-.23626.2254-.25.375-.0218.237.15417.45502.28125.65625.18523.2933.34177.75294.6875.78125.14755.0121.19652-.29679.34375-.28125.0663.007.0594.14405.125.15625.14227.0265.23148-.23732.375-.21875.0584.008.0706.10245.125.125.10586.0439.23941-.0473.34375 0 .10083.0458.19456.14194.21875.25.0331.148-.15872.28963-.125.4375.0279.1223.2091.16267.25.28125.0545.15787-.0698.33751-.0312.5.0334.14081.21409.23036.21875.375.004.1164-.12693.19979-.15625.3125-.0578.22201-.0675.46097-.0312.6875.051.31903.26587.59269.34375.90625.0405.16301.0521.33236.0625.5.005.0832-.0589.19107 0 .25.0442.0442.12727.0167.1875 0 .11707-.0324.19543-.15507.3125-.1875.11043-.0306.23986.0483.34375 0 .2346-.10914.44586-.34073.5-.59375.0159-.0742-.0848-.14628-.0625-.21875.0479-.1555.36763-.14995.375-.3125.006-.13245-.28858-.14887-.28125-.28125.007-.13319.20298-.17385.3125-.25.0997-.0693.22103-.10756.3125-.1875.0502-.0439.11147-.0909.125-.15625.0241-.1163-.078-.22603-.0937-.34375-.0387-.28909-.0636-.59036 0-.875.0427-.191.14171-.36823.25-.53125.0775-.11674.20603-.19425.28125-.3125.15783-.24813.28529-.52429.34375-.8125.0145-.0715.0549-.17072 0-.21875-.1186-.10384-.39557.20212-.46875.0625-.0719-.13716.19676-.24087.3125-.34375.13395-.11906.30422-.19269.4375-.3125.0933-.0838.20542-.164.25-.28125.0333-.0876.0198-.18962 0-.28125-.0267-.12301-.0312-.32903-.15625-.34375-.11795-.0139-.10001.28367-.21875.28125-.0896-.002-.0936-.15466-.15625-.21875-.0728-.0745-.20342-.0943-.25-.1875-.0559-.1118-.1167-.33022 0-.375.13084-.0502.15055.26193.28125.3125.0976.0378.21322-.0645.3125-.0312.17477.0585.22272.39174.40625.375.0415-.004.0685-.0664.0937-.0937.03.30806.0221.45806.0937 1 0 3.62437-2.75146 6.61028-6.28125 6.96875-.2357.0145-.47083.0312-.71875.0312-1.13428 0-2.20866-.2711-3.15625-.75-.0106-.051.11303-.0431.125-.0937.0107-.0453-.07-.079-.0625-.125.0165-.10179.16646-.12987.21875-.21875.0385-.0654.009-.16545.0625-.21875.0845-.0835.25638-.0133.34375-.0937.17939-.16517.25387-.44368.25-.6875-.00089-.0561-.0661-.10027-.0625-.15625.007-.10703.0706-.21675.15625-.28125.11103-.0836.30072-.003.40625-.0937.12778-.10951.15981-.30276.1875-.46875.0343-.20575-.0899-.42483-.0312-.625.0504-.17198.25176-.26889.3125-.4375.0495-.13755.10237-.30976.0312-.4375-.22892-.41117-.92055-.32021-1.25-.65625-.11414-.11643-.0916-.33548-.21875-.4375-.10051-.0806-.27834-.009-.375-.0937-.15092-.13302-.046-.45945-.21875-.5625-.14426-.086-.33743.10474-.5.0625-.18753-.0487-.27533-.35519-.46875-.34375-.21336.0126-.38357.24148-.46875.4375-.008.0191.0166.05 0 .0625-.12108.0913-.32955-.0185-.4375-.125-.0774-.0764-.078-.2049-.0937-.3125-.0151-.10306.0772-.2426 0-.3125-.0776-.0702-.24006.10682-.3125.0312-.15292-.15951.23853-.48932.0937-.65625-.041-.0472-.1316-.0279-.1875 0-.0932.0466-.10753.18326-.1875.25-.0537.0448-.1177.0971-.1875.0937-.0982-.005-.19814-.0728-.25-.15625-.0553-.0889-.0304-.20782-.0312-.3125-.001-.12543-.0315-.26641.0312-.375.0824-.14259.24904-.23214.40625-.28125.0994-.0311.228.0609.3125 0 .0534-.0385.005-.1558.0625-.1875.11295-.062.26618.0248.375.0937.12504.0793.1394.38615.28125.34375.19068-.057-.0323-.41879.0625-.59375.10233-.1888.37784-.22964.5-.40625.0937-.13546.0441-.34811.15625-.46875.0922-.0992.26738-.074.375-.15625.0944-.0721.11772-.21881.21875-.28125.13555-.0838.33907-.001.46875-.0937.11777-.0841.29083-.24951.21875-.375-.11414-.19872-.64142.22449-.6875 0-.0319-.15542.28208-.1556.4375-.1875.10204-.0209.21008.019.3125 0 .14265-.0265.28074-.22903.40625-.15625.11852.0687-.0713.37666.0625.40625.11001.0243.20781-.17042.1875-.28125-.0162-.0881-.19355-.0703-.21875-.15625-.0158-.0538.0738-.1013.0625-.15625-.0148-.0722-.0908-.12255-.15625-.15625-.0563-.029-.15482.023-.1875-.0312-.034-.0564.0686-.1219.0625-.1875-.01-.10679-.0552-.24532-.15625-.28125-.10571-.0376-.22798.19878-.3125.125-.0647-.0565.0959-.17084.0625-.25-.0562-.13335-.23584-.25845-.375-.21875-.19268.055-.25235.33298-.28125.53125-.008.0526.0557.10908.0312.15625-.0472.0911-.20819.053-.28125.125-.10621.10471-.0397.42612-.1875.40625-.12559-.0169.018-.27715-.0625-.375-.11311-.13744-.37649-.0593-.5-.1875-.0686-.0712-.12902-.18894-.0937-.28125.0899-.23535.45603-.22207.65625-.375.10536-.0805.22501-.16118.28125-.28125.0488-.10419.0833-.24116.0312-.34375-.0275-.0542-.0977-.0775-.15625-.0937-.0201-.006-.0567.02-.0625 0-.003-.0106.001-.0206 0-.0312.22269-.15367.44715-.27874.6875-.40625.0274.015.0131.0654 0 .0937-.0401.0872-.16229.10981-.21875.1875-.0796.10954-.23137.26233-.15625.375.0578.0867.22688.0593.3125 0 .0731-.0507.0582-.16842.0937-.25-.006.11861.16891.18021.28125.21875.0788.027.19107.0589.25 0 .0589-.0589.0454-.18013 0-.25-.0559-.086-.17891-.13219-.28125-.125-.049.003-.10663.005-.15625.0312.0886-.0992.18641-.19632.3125-.21875.10707-.019.21498.0456.3125.0937.2074.10236.33155.41866.5625.40625.13994-.008.33925-.14368.3125-.28125-.0233-.11968-.25618-.0402-.34375-.125-.0806-.0781-.0357-.24456-.125-.3125-.15013-.11424-.43668.0781-.5625-.0625-.007-.008 0-.0208 0-.0312s-.007-.0239 0-.0312c.009-.004.0222.004.0312 0 .065.0106.12338.0776.1875.0625.0717-.0169.0917-.12081.15625-.15625.0842-.0462.18984-.033.28125-.0625.0377-.0122.0853-.0651.125-.0937.0198-.0143.0458-.0274.0625-.0312.0167-.004.0201.0148.0312.0312.0495.0732-.19479.0994-.1875.1875.0222.26791.53324.22972.65625.46875.0429.0834.0333.19362 0 .28125-.0446.11725-.23355.1569-.25.28125-.0336.254.10068.60648.34375.6875.0884.0295.18164-.0617.25-.125.1337-.12381.14174-.35153.28125-.46875.33325-.28.88151-.74392 1.21875-.46875.0491.0401-.0564.12936-.0312.1875.0299.0689.1124.12653.1875.125.14165-.003.32628-.1094.34375-.25.01-.0807-.0766-.17084-.15625-.1875-.0912-.0191-.15803.13992-.25.125-.0145-.002-.0281-.0169-.0312-.0312-.0717-.32504.4841-.63569.34375-.9375-.0514-.11055-.38512-.0103-.34375-.125zm-4.75 1.375c.0445.0341-.0188.12108-.0625.15625-.0494.0397-.16257.0895-.1875.0312.0808-.0667.16625-.12446.25-.1875zm8.4375.0312c.0649.0498.12447.10423.1875.15625.009.12508-.12457.28029-.25.28125-.16957.001-.41203-.21978-.34375-.375.0461-.10488.23789.0439.34375 0 .0272-.0113.0331-.0612.0625-.0625zm-2.9375.375c-.0349-.001-.0717.009-.0937.0312-.0442.0442-.0207.12852 0 .1875.0221.0629.10292.0933.125.15625.031.0885.007.18777 0 .28125-.0105.13661-.16152.31156-.0625.40625.0768.0734.21722-.0155.3125-.0625.0993-.049.24632-.10808.25-.21875.003-.10306-.16155-.13295-.21875-.21875-.10623-.15934-.0596-.42469-.21875-.53125-.026-.0174-.0589-.0301-.0937-.0312zm-.46875.4375c-.0348.0121-.0756.035-.0937.0625-.0691.10472-.0794.31594.0312.375.0946.0505.24724-.0545.28125-.15625.0325-.0973-.0311-.23985-.125-.28125-.0301-.0133-.0589-.0121-.0937 0zm3.75 3.34375c.14642.0219.20178.21884.28125.34375.15506.24372.21593.54013.375.78125.061.0924.20217.14052.21875.25.0154.10144-.14036.17981-.125.28125.0166.10948.26451.14916.21875.25-.0387.0854-.20387.0529-.28125 0-.33209-.22717-.22896-.7809-.4375-1.125-.0574-.0947-.16667-.15228-.21875-.25-.0761-.1427-.18213-.31747-.125-.46875.0133-.0351.0566-.0681.0937-.0625zm-11.5625.90625c.15023-.0329.11207.29546.21875.40625.1425.14799.34213.23224.53125.3125.17914.076.40361.0439.5625.15625.10382.0734.13033.22113.21875.3125.10866.11228.22077.25622.375.28125.065.0106.12201-.0697.1875-.0625.0604.007.12632.0409.15625.0937.005.009.002.021 0 .0312-.0316.20513-.0948.40806-.1875.59375-.04.0802-.13953.13072-.15625.21875-.008.0422.0316.082.0312.125-.001.1617-.14488.30827-.125.46875.0395.3193.2706.59027.46875.84375.13163.16839.32456.27973.46875.4375.0801.0877.18289.16803.21875.28125.0661.20878-.0725.44117-.0312.65625.0237.12361.14349.21853.15625.34375.0238.2338-.13004.45396-.15625.6875-.001.0104.0101.0288 0 .0312-1.6059-1.13822-2.728-2.9371-2.9375-5-.0239-.23532-.0312-.47713-.0312-.71875 0-.16823.0196-.33474.0312-.5z"/></g></g></svg>