<svg height="16" width="16" xmlns="http://www.w3.org/2000/svg"><g fill="#bebebe"><path d="m8 .875c-3.9381975 0-7.125 3.1868025-7.125 7.125 0 3.938198 3.1868025 7.125 7.125 7.125 3.938198 0 7.125-3.186802 7.125-7.125 0-3.9381975-3.186802-7.125-7.125-7.125zm-.53125 1.90625c.1758596-.0178712.3506918 0 .53125 0 .1805583 0 .3553904-.0178712.53125 0 .3517193.0357423.7035943.1167921 1.03125.21875.491484.1529369.957418.3740868 1.375.65625.556776.3762177 1.030032.8494741 1.40625 1.40625.282163.4175819.503313.8835164.65625 1.375.101958.3276557.183008.6795308.21875 1.03125.017871.1758596 0 .3506918 0 .53125 0 .1805583.017871.3554167 0 .53125-.035742.3516667-.116792.703731-.21875 1.03125-.152937.491278-.374087.957734-.65625 1.375-.376218.556355-.849474 1.030453-1.40625 1.40625-.417582.281848-.883516.503518-1.375.65625-.3276557.101821-.6795307.18306-1.03125.21875-.1758596.017845-.3506917 0-.53125 0-.1805582 0-.3553904.017845-.53125 0-.3517192-.03569-.7035943-.116929-1.03125-.21875-.4914836-.152732-.9574181-.374402-1.375-.65625-.5567759-.375797-1.0300323-.849895-1.40625-1.40625-.2821632-.417266-.5033131-.883722-.65625-1.375-.1019579-.327519-.1830077-.6795833-.21875-1.03125-.0178712-.1758333 0-.3506917 0-.53125 0-.1805582-.0178712-.3553904 0-.53125.0357423-.3517192.1167921-.7035943.21875-1.03125.1529369-.4914836.3740868-.9574181.65625-1.375.3762177-.5567759.8494741-1.0300323 1.40625-1.40625.4175819-.2821632.8835164-.5033131 1.375-.65625.3276557-.1019579.6795308-.1830077 1.03125-.21875z"/><path d="m7.9820431 3.1462478c-.7007366 0-1.3754969.8284498-1.3754991 1.5981648l.1077414.1687949c.0000001-.048107.00287-.096871.00718-.1436552v2.7330413c-.00109-.023749-.00359-.047774-.00359-.071828v.122107c0 .7697116.5670221 1.3898646 1.2677577 1.3898646.5775063-.0000004 1.0609452-.4227545 1.2138869-1.0019954.010015-.035465.017689-.071112.02514-.1077415.00155-.00833.00218-.016756.00359-.02514.0067-.036067.013845-.074297.017957-.1113329.0002183-.00234-.0002069-.00484 0-.00718.00483-.045438.00641-.089786.00718-.1364725v-.02514-2.6252999l.1005587-.1580208c0-.7697128-.671171-1.5981648-1.3719077-1.5981648zm-.064645 6.8739042c-.6435738 0-1.1653539.553485-1.1707904 1.242618.000036.0012-.0000392.0024 0 .0036-.0000126.0024 0 .0048 0 .0072-.000015.0082 0 .01688 0 .02514v.01077.02514c0 .0086-.0001609.01653 0 .02514.00124.03366.00352.06764.00718.100559.00401.03599.00757.07276.014365.107742.00105.0059.00247.01207.00359.01796.1095426.572254.5831677 1.001996 1.1492421 1.001996h.1939346c.6469384 0 1.167199-.559248 1.167199-1.253392v-.03591c0-.01181.0002988-.02419 0-.03591-.0004252.01446-.00271.02876-.00359.0431v-.03232c0-.694143-.5202592-1.253391-1.167199-1.253392h-.1939346z"/></g></svg>