<svg height="16" width="16" xmlns="http://www.w3.org/2000/svg"><g fill="#bebebe"><path d="m8.00001.51339c-4.13029 0-7.48661 3.35631-7.48661 7.48661 0 4.13029 3.35632 7.48661 7.48661 7.48661s7.4866-3.35632 7.4866-7.48661c0-4.1303-3.35631-7.48661-7.4866-7.48661zm0 1.97322c3.04941 0 5.51339 2.46398 5.51339 5.51339s-2.46398 5.51339-5.51339 5.51339-5.5134-2.46398-5.5134-5.51339 2.46399-5.51339 5.5134-5.51339z"/><path d="m11.134731 4.46875c.34108.090279.473004.5991255.21875.84375l-3.0937504 3.0625c-.020072.011839-.040974.022273-.0625.0312-.020072.011839-.040974.022273-.0625.0312-.020072.011839-.040974.022273-.0625.0312-.010397.0003245-.020803.0003245-.0312 0-.020072.011839-.040974.022273-.0625.0312-.031142.00293-.062558.00293-.0937 0h-.15625l-2.6470413-1.3146616c-.2641564.00374-.3931802-.3351556-.3187611-.58864.07756-.2641827.2651247-.2599758.529281-.25624l2.4052714 1.1595416 2.9687504-2.875c.115174-.1281048.299748-.1896294.46875-.15625z"/></g></svg>