<svg height="15.997" width="16.002" xmlns="http://www.w3.org/2000/svg"><path d="m9.3632812 2.1796875c-1.5159999 0-2.8275156.8868281-3.4785156 2.1738281a2.667 2.667 0 0 0 -1.4570312-.4335937c-1.505 0-2.7246094 1.24425-2.7246094 2.78125 0 .245.0396563.4800312.0976562.7070312a4.196 4.196 0 0 0 -1.79882807 3.4667969c0 2.312 1.82293747 4.173828 4.08593747 4.173828h7.8300784c2.263 0 4.083984-1.861828 4.083984-4.173828 0-1.846-1.167109-3.4020781-2.787109-3.9550781.044-.24.064453-.4872344.064453-.7402344 0-2.209-1.754016-4-3.9160158-4zm0 1.0449219c1.5850998 0 2.8710938 1.2990781 2.8710938 2.9550781 0 .19684-.015275.3786313-.046875.5507813a1.0447885 1.0447885 0 0 0 .689453 1.1757812c1.1974.40876 2.080078 1.56307 2.080078 2.96875 0 1.76288-1.351015 3.128906-3.041015 3.128906h-7.8281254c-1.69001 0-3.0410156-1.366036-3.0410156-3.128906a1.0447885 1.0447885 0 0 0 0-.005859c-.00555-1.0170004.5168425-2.022506 1.3515625-2.603516a1.0447885 1.0447885 0 0 0 .4140625-1.1152344c-.04346-.17009-.0644531-.3169587-.0644531-.4492187 0-.98367.7503243-1.7372213 1.6777343-1.7382813h.0019532c.31205.0008.6236656.094715.8847656.265625a1.0447885 1.0447885 0 0 0 1.5039062-.4042968c.4831701-.9552 1.438375-1.5996094 2.546875-1.5996094z" fill="#bebebe"/></svg>