<svg height="16" width="16" xmlns="http://www.w3.org/2000/svg"><g fill="#bebebe" transform="matrix(.12764382 0 0 .12764382 8.709613 5.611546)"><path d="m-40.543697 1.4359437c-.621939.03776-1.062621.145245-1.15625.5-1.756402 4.308809-4.087214 7.725347-5.4375 12.7500003.494709-.697829 1.275875-1.185909 2.15625-1.0625 26.275197 3.683188 52.568553 3.101084 78.84375 0 .8786-.103693 1.63064.376493 2.125 1.0625-1.34684-5.0232903-3.58766-8.4418983-5.34375-12.7500003-.0936-.354755-.596814-.462232-1.21875-.5-9.759366 0-19.459391.5-29.21875003.5l-5.03124997-.15625v-.0625l-.75.03125-.75-.03125v.0625l-5.03125.15625c-9.75936 0-19.42814-.5-29.1875-.5zm-4.96875 15.8750003c-1.226806.14305-2.15625 1.327326-2.15625 2.5625v53.75c0 1.41163 1.197474 2.42414 2.6875 2.5625 26.713697 2.48057 52.979207 2.32305 78.84375 0 1.49048-.13386 2.6875-1.15087 2.6875-2.5625v-53.75c0-1.411628-1.20058-2.727957-2.6875-2.5625-26.275199 2.923773-52.568552 3.472592-78.84375 0-.185342-.0245-.355992-.02044-.53125 0zm39.9375 7.34375c12.477986 0 22.59375 10.115764 22.59375 22.59375 0 12.47799-10.115764 22.59375-22.59375 22.59375s-22.59375-10.11576-22.59375-22.59375c0-12.477986 10.115764-22.59375 22.59375-22.59375z"/><path d="m-5.637447-40.564056c-2.173386 0-4.138982.231493-5.6875.59375-1.319053.202587-2.615554.446362-3.90625.78125-2.587807.77511-5.938608 2.458907-8 4.03125-1.089515.831038-2.324217 1.8782-3.53125 3-.817153.343857-1.663579 1.03236-2.34375 1.96875-.235705.324495-.398168.665432-.5625 1-.666017.762559-1.266648 1.487446-1.71875 2.1875-1.076004 1.666139-2.174046 3.820101-3.0625 5.9375-.0065.01243-.02479.01882-.03125.03125-.0511.122142-.106724.253082-.15625.375-.646645 1.284271-1.201728 2.555475-1.46875 3.6875-1.797643 7.6210977-1.75 25.3437497-1.75 25.3437497.289698.07444.563258.12474.84375.1875.000515.01506-.000421.112473 0 .125 2.975957.401535 5.740331.956132 10.5625-.0625-.000293-.0144.000292-.04785 0-.0625.322385-.0603.643712-.09102.96875-.15625-.07656-2.86946-.25293-14.080533.1875-19.7187497.569926-9.317083 6.753275-19.414474 19.65625-19.4375 12.420027.753885 20.313479 8.120705 20.25 19.21875.519262 6.4440867-.01368 16.7494647-.15625 19.7499997.202224.0504.434197.10454.65625.15625-.0025.04595.0023.143648 0 .1875 1.119578.197956 2.407168.366288 3.84375.4375 2.037206.193948 4.309668.162399 6.5625-.46875.105869-.02135.205707-.03964.3125-.0625.000108-.0032-.000117-.02787 0-.03125.317401-.09673.622871-.190809.9375-.3125 0 0 .04764-17.691402-1.75-25.3124997-.78007-3.307061-2.864747-7.018278-4.75-9.9375-.494023-.764969-1.224472-1.597081-2.0625-2.4375-1.844657-2.04451-4.189167-4.14101-6.09375-5.59375-2.061391-1.572343-5.412195-3.25614-8-4.03125-1.558094-.421344-3.15294303-.728527-4.75000003-.9375-1.42532997-.270298-3.15041697-.4375-4.99999997-.4375z" fill-rule="evenodd"/><path d="m-6.10363 25.972811v7.059812c.178999-.0067.347798-.02113.528429-.02113.182483 0 .368749.01433.549566.02113v-7.038674c-.182511-.0046-.365939-.02113-.549566-.02113-.179892 0-.349607-.0044-.528429 0zm-4.438803.591841c-.177486.0428-.372196.0793-.549565.126822-.173762.04656-.314582.07623-.486155.126824l1.458463 5.43225c.341419-.10381.688037-.194403 1.03572-.274783zm9.97673897 0-1.45846397 5.411113c.347582.08081.694428.19169 1.03571997.29592l1.437327-5.43225c-.175103-.05169-.351058-.100436-.528429-.147961-.173762-.04655-.31227-.08485-.486154-.126822zm5.17860403 1.986893-2.811242 4.861545c.314822.168018.627348.360555.930034.549568l2.790106-4.861546c-.155761-.09524-.32713-.204107-.486155-.295921-.155791-.08995-.265647-.168101-.422743-.253646zm-20.333947.02114c-.160362.08727-.327128.161832-.486154.253646-.155788.08995-.291249.160368-.443881.253646l2.811243 4.861546c.302916-.188635.615002-.3608.930035-.528429zm-4.481078 3.255123c-.132307.125802-.271761.229487-.401606.359332-.127201.127202-.257178.250867-.380468.380468l4.988369 4.988369c.121836-.131305.231606-.252744.359331-.380468.129036-.129035.268934-.257427.401607-.38047l-4.967233-4.967236zm29.296102 0-4.988369 4.988369c.131305.121836.252744.231606.380469.359332.129034.129034.257427.268932.380469.401605l4.967232-4.988373c-.125803-.132307-.250624-.271761-.380469-.401606-.127202-.127202-.229729-.236041-.359332-.359331zm-32.804871 4.31198c-.09524.155761-.182969.327129-.274782.486154-.08994.155792-.1681.286784-.253645.443882l4.861546 2.790103c.168016-.314822.339417-.627347.528429-.930034zm36.271364 0-4.861546 2.811241c.188637.302919.38194.615002.549566.930036l4.861547-2.811241c-.08558-.157088-.184837-.309228-.274782-.465017-.09178-.159048-.179527-.309272-.274785-.465018zm-38.511902 5.072918c-.05169.175105-.12157.35106-.169097.52843-.04656.173761-.08485.333407-.126823.507292l5.432251 1.437326c.08081-.347581.170552-.694427.274782-1.03572zm40.752443 0-5.411114 1.458464c.103811.34142.194405.688039.274783 1.035722l5.432251-1.458469c-.042-.173884-.08026-.333531-.126824-.507292-.04749-.177383-.117397-.353335-.169096-.528429zm-41.640204 5.474524c-.0044.178823 0 .348539 0 .52843 0 .183627.01652.367054.02114.549566h7.038675c-.0068-.180817-.02114-.367083-.02114-.549566 0-.18063.01447-.34943.02114-.52843h-7.059811zm35.468153 0c.0067.179.02113.3478.02113.52843 0 .182483-.01433.368749-.02113.549566h7.038674c.0046-.182512.02113-.365939.02113-.549566 0-.179891.0044-.349607 0-.52843h-7.059811zm-29.465199 4.058336-5.411113 1.479601c.0428.177486.100437.351059.147961.528429.04655.173759.07622.314579.126822.486154l5.43225-1.458464c-.103808-.341419-.21554-.688037-.29592-1.03572zm30.500919.02113c-.08081.347582-.170551.694429-.274783 1.03572l5.43225 1.458465c.05057-.17159.101397-.354668.14796-.528429.04757-.177363.08405-.350944.126824-.528429l-5.432251-1.437325zm-29.063593 3.804692-4.840408 2.832376c.08727.16037.161831.32713.253645.48615.08995.15579.160368.27011.253646.42275l4.882684-2.811242c-.188637-.302924-.381938-.615008-.549567-.930035zm27.647403.02109c-.168015.314826-.360552.62735-.549566.930034l4.861546 2.811242c.09325-.15266.18484-.30923.274785-.46502.09184-.15901.18753-.32579.274782-.48615l-4.861547-2.790107zm-3.381944 2.282806c-.123042.13267-.251435.29371-.380469.42275-.127725.12772-.249182.21633-.380469.33819l4.988369 5.00951c.129603-.12329.23213-.25326.359332-.38047.129845-.12985.254685-.26928.380469-.40161zm-20.862376.0212-4.988369 4.98837c.12329.12961.253267.25327.380468.38047.129845.12985.269279.25468.401606.38048l4.967233-4.98838c-.132673-.12304-.272571-.2303-.401607-.35933-.127725-.12773-.237475-.27032-.359331-.40161zm2.134853 3.61445-2.811242 4.86155c.152631.0932.309227.18483.465018.27479.159026.0918.325782.16639.486154.25364l2.790105-4.86154c-.314824-.16803-.627348-.33942-.930035-.52844zm16.571532 0c-.302918.18865-.615002.36081-.930035.52844l2.811242 4.88268c.157089-.0856.309229-.18483.465018-.27478.15905-.0918.309271-.20066.465018-.29592zm-8.814195.93004v7.05982c.178822.004.348537 0 .528429 0 .183627 0 .367055-.0165.549566-.021v-7.03867c-.180817.006-.367083.021-.549566.021-.180631 0-.34943-.0144-.528429-.021zm-4.037198.76094-1.458464 5.43225c.171576.0506.354669.0803.528429.12683.177372.0475.35094.084.52843.12681l1.437327-5.4111c-.347582-.0808-.694429-.17057-1.035722-.27479zm9.131253 0c-.341418.10378-.688037.1944-1.035721.27479l1.45846497 5.43225c.173884-.0421.354668-.10143.528428-.14796.177382-.0475.353336-.0963.52843-.14797l-1.47960197-5.41112z" opacity=".772727"/><path d="m-5.574947 35.998444c-6.196134 0-11.21875 5.053864-11.21875 11.25 0 6.196133 5.022616 11.1875 11.21875 11.1875 6.19613497 0 11.21875-4.991367 11.21875-11.1875 0-6.196136-5.02261503-11.25-11.21875-11.25z"/></g></svg>