<svg height="16" width="16" xmlns="http://www.w3.org/2000/svg"><path d="m4.7973415.92988122c-.4765026 0-.8108276.38249858-.8070199.85898648l.0096784 1.2111323h-2l-.00968 12.070119h12l.00968-12.070119h-2l-.0097-1.2111323c-.003816-.4764877-.344177-.788674-.820679-.788674h-.860562c-.476502 0-.8664507.3145657-.8187374.788674l.0096784 1.2111323h-3l-.0096784-1.2111323c-.0038077-.4764879-.3111603-.85898648-.787663-.85898648zm0 .56164498h.905317c.1793368 0 .3123013.1186294.2973415.2973415v2.2111323h-1.5v-2.2111323c0-.1793371.1180047-.2973415.2973415-.2973415zm5.5156235.00391h.860562c.179336 0 .326473.1140982.326473.2934353v2.2111285h-1.5l.01172-2.2111323c-.0018-.1514514.02626-.2855143.301245-.2934353zm-5.812965 3.0045638h1.5l-.00391.2026586c-.0034594.1793033-.1180009.2973414-.2973377.2973414h-.905317c-.1793367 0-.2973414-.1180047-.2973414-.2973414zm5.5 0h1.5v.1909398c0 .179337-.15104.2973414-.330376.2973414h-.872281c-.179336 0-.297341-.1180047-.297341-.2973414zm-7 2.0003879 2-.0003879-.00525 2.4867071-2 .0003879zm2.6047497.012905 2.3952503-.0132929-.005248 2.4867071-2.3952503.0132929zm2.8952503-.0132929 1.928289.0132929-.005248 2.4867071-1.928289-.0132929zm2.5.0003879 2.005248.045943-.005248 2.4536691-2.005248-.045943zm-8.005248 2.9867071 2-.0003879v1.9669619l-2 .000388zm2.6047497.012905 2.3952503-.0132929v1.9669619l-2.3952503.01329zm2.8952503-.0132929 1.928289.0132929v1.966962l-1.928289-.01329zm2.5-.03265 2.005248.0459429v2l-2.005248-.04594zm-7.994752 2.5459429 2-.000388v2l-2 .000388zm2.6047497.0129 2.3952503-.013293v2l-2.3952503.013293zm2.8952503-.013293 1.928289.013293v2l-1.928289-.013293zm2.5-.03264 2.005248.04594v2.033033l-2.005248-.04594z" fill="#bebebe"/></svg>