<svg height="16" width="16" xmlns="http://www.w3.org/2000/svg"><g fill="#bebebe"><path d="m8 2.9905c-1.9271 0-3.5 1.5729-3.5 3.5s1.5729 3.5 3.5 3.5 3.5-1.5729 3.5-3.5-1.5729-3.5-3.5-3.5zm0 1c1.3866 0 2.5 1.1134 2.5 2.5s-1.1134 2.5-2.5 2.5-2.5-1.1134-2.5-2.5 1.1134-2.5 2.5-2.5z"/><path d="m9.5 6.50045c0 .82845-.67155 1.5-1.5 1.5s-1.5-.67155-1.5-1.5.67155-1.5 1.5-1.5 1.5.67155 1.5 1.5z"/><circle cx="8" cy="12" r="2"/><path d="m3.5 0c-.831 0-1.5.669-1.5 1.5v13c0 .831.669 1.5 1.5 1.5h9c.831 0 1.5-.669 1.5-1.5v-13c0-.831-.669-1.5-1.5-1.5zm.5 1h8c.554 0 1 .446 1 1v12c0 .554-.446 1-1 1h-8c-.554 0-1-.446-1-1v-12c0-.554.446-1 1-1z"/></g></svg>