<svg height="16" width="16" xmlns="http://www.w3.org/2000/svg"><path d="m3.8046875.00195313c-.8582373 0-1.5488281.52628043-1.5488281 1.18164067v13.6328122c0 .65536.6905908 1.181641 1.5488281 1.181641h8.3906245c.858238 0 1.548829-.526281 1.548829-1.181641v-13.6328122c0-.65536024-.690591-1.18164067-1.548829-1.18164067zm0 1.12890627h8.3906245c.198425 0 .353439.0685353.41211.1132812.009158.0069848.003382.0006962.007812.0039063v-.0644531c0 .0580207.023954.0818077 0 .0644531v13.5039061c.023954-.017354 0 .006432 0 .064453v-.064453c-.00443.00321.001346-.003078-.007812.003906-.058671.044746-.213685.113282-.41211.113282h-8.3906245c-.198423 0-.3534386-.068536-.4121094-.113282-.0091583-.006984-.0033817-.000696-.0078125-.003906v.064453c0-.058021-.0239536-.081807 0-.064453v-13.5039061c-.0239536.0173545 0-.0064325 0-.0644531v.0644531c.0044307-.0032101-.0013458.0030785.0078125-.0039063.0586707-.0447459.2136861-.1132812.4121094-.1132812z" fill="#bbbdb6" fill-opacity=".878431"/><g fill="#babdb6"><path d="m8 2.9905c-1.9271 0-3.5 1.5729-3.5 3.5s1.5729 3.5 3.5 3.5 3.5-1.5729 3.5-3.5-1.5729-3.5-3.5-3.5zm0 1c1.3866 0 2.5 1.1134 2.5 2.5s-1.1134 2.5-2.5 2.5-2.5-1.1134-2.5-2.5 1.1134-2.5 2.5-2.5z"/><path d="m9.5 6.50045c0 .82845-.67155 1.5-1.5 1.5s-1.5-.67155-1.5-1.5.67155-1.5 1.5-1.5 1.5.67155 1.5 1.5z"/><path d="m9.5 11.90723c0 .82845-.67155 1.5-1.5 1.5s-1.5-.67155-1.5-1.5.67155-1.5 1.5-1.5 1.5.67155 1.5 1.5z"/></g></svg>