<svg height="16" width="16" xmlns="http://www.w3.org/2000/svg"><g fill="#bebebe" transform="translate(-.319263 .502248)"><path d="m3.0474405.89575773c-.0511101-.59956417-1.8626393-.32917738-1.7957807.20131337l1.7313911 13.3436069 1.8305085-.258455z"/><path d="m8.0996094 1.796875c-1.8331097-.0650266-2.9745491.8629406-4.5742188 1.6347656l.6933594 5.3769532c1.4335177-.5451281 2.7010197-1.5093852 3.9316406-2.3007813.2396972 0 2.5410154.3844037 2.5410154.048828 0-.3355761-.9589841-4.4121093-.9589841-4.4121094zm-.064453.921875.9375.1992188c.081841.3501628.1740572.7394888.3476563 1.5078124.1061477.4697939.206884.9263529.2910156 1.3222657-.00799-.000694-.011526.0007162-.019531 0-.2831082-.025329-.5842994-.0631683-.8320317-.09375s-.3050425-.0605469-.609375-.0605469a.91450424.91450424 0 0 0 -.4941406.1445312c-.9172056.589843-1.8084402 1.1025294-2.7070312 1.59375l-.4355469-3.3808593c1.2949828-.6787036 2.2381515-1.2671301 3.5214845-1.2324219z"/><path d="m15.388672 1.90625c-1.659365.9594639-3.309351 1.1624471-5.177734 1.1015625l.675781 3.1542969c1.855891-.8465389 3.372341-2.943554 4.501953-4.2558594zm-2.44336 1.671875c-.498086.5329598-1.035159.8862181-1.572265 1.2714844l-.246094-1.1523438c.609926-.014656 1.224486-.010244 1.818359-.1191406z"/></g></svg>