<svg enable-background="new" height="16" width="16.000429" xmlns="http://www.w3.org/2000/svg"><g fill="#ccc" transform="translate(-256 -99.996704)"><path d="m256.45934 103.22887v9.60812h6.30532c-.0622-.30576-.0954-.62226-.10075-.9451h-5.17283v-7.71793h11.34919v2.58742c.35975.0732.70351.18854 1.03174.3325v-3.86501z"/><path d="m258.22257 101.63289-.2539.84434h3.06702z"/><path d="m258.42811 104.96591v6.13404h4.28618c.0284-.20692.0827-.40421.13501-.60252h-3.69171c2.55012-.9329 2.21615-1.77751 3.41967-2.80506.5565-.47515 1.0189.19887 1.50933.56827.93789-.98465 2.25484-1.60404 3.72193-1.60404.032 0 .0629.003.0947.004v-1.69472z"/><path d="m267.80897 107.61378c-2.31476 0-4.19146 1.8767-4.19146 4.19146 0 2.31475 1.8767 4.19146 4.19146 4.19146 2.31475 0 4.19146-1.87671 4.19146-4.19146 0-2.31476-1.87671-4.19146-4.19146-4.19146zm0 .61259c1.97642 0 3.57886 1.60244 3.57886 3.57887 0 1.97642-1.60244 3.57886-3.57886 3.57886-1.97643 0-3.57887-1.60244-3.57887-3.57886 0-1.97643 1.60244-3.57887 3.57887-3.57887zm0 1.19296c-1.31762 0-2.38591 1.06829-2.38591 2.38591 0 1.31761 1.06829 2.38591 2.38591 2.38591 1.31761 0 2.38591-1.0683 2.38591-2.38591 0-1.31762-1.0683-2.38591-2.38591-2.38591zm-.48363.41915a.99950241.99950241 0 0 1 .9995.9995.99950241.99950241 0 0 1 -.9995.9995.99950241.99950241 0 0 1 -.9995-.9995.99950241.99950241 0 0 1 .9995-.9995z"/></g></svg>