<svg enable-background="new" height="16" width="16.000429" xmlns="http://www.w3.org/2000/svg"><g fill="#ccc" transform="translate(-256 -99.996704)"><path d="m256 102.9967v10h6.30532c-.0622-.30576-.12714-.67716-.13249-1h-5.17283v-8h11v2.5c.35975.0732.67177.35604 1 .5v-4z" fill="#bebebe"/><path d="m258.2539 101.15236-.2539.84434h3.06702z"/><g fill="#bebebe"><path d="m258 104.9967v6h4.28618c.0284-.20692.0827-.40421.13501-.60252h-3.69171c2.55012-.9329 2.21615-1.64347 3.41967-2.67102.5565-.47515 1.0189.19887 1.50933.56827.93789-.98465 1.77973-1.60401 3.24682-1.60401.032 0 .0629.003.0947.004v-1.69472z"/><path d="m12 8a4 4 0 0 0 -4 4 4 4 0 0 0 4 4 4 4 0 0 0 4-4 4 4 0 0 0 -4-4zm0 1a3 3 0 0 1 3 3 3 3 0 0 1 -3 3 3 3 0 0 1 -3-3 3 3 0 0 1 3-3z" transform="translate(256 99.996704)"/><path d="m12 10a2 2 0 0 0 -2 2 2 2 0 0 0 2 2 2 2 0 0 0 2-2 2 2 0 0 0 -2-2zm-.5 1a.5.5 0 0 1 .5.5.5.5 0 0 1 -.5.5.5.5 0 0 1 -.5-.5.5.5 0 0 1 .5-.5z" transform="translate(256 99.996704)"/></g></g></svg>