<svg height="16" width="16" xmlns="http://www.w3.org/2000/svg"><path d="m14.469 6.875c-1.473 0-2.766.7898-3.469 1.9688v7.1562h7.625.281v-.031c1.174-.143 2.094-1.132 2.094-2.344 0-1.31-1.065-2.375-2.375-2.375-.044 0-.081.029-.125.031.01-.115.031-.226.031-.343 0-2.2309-1.832-4.063-4.062-4.063zm-5.469 2.0312v7.0938h1v-6.9688c-.2863-.0854-.5927-.125-.9062-.125-.0313 0-.0628-.0008-.0938 0zm-1 .1876c-.3794.1349-.7041.3345-1 .5937v6.3125h1zm-2.625 2.1562c-.1316 0-.2492.042-.375.062v4.657c.1024.016.2063.028.3125.031.0213.001.041 0 .0625 0h.625v-4.625c-.2054-.058-.401-.125-.625-.125zm-1.375.438c-.6009.431-1 1.142-1 1.937 0 .789.4055 1.474 1 1.906z" fill="#bebebe" transform="matrix(.85141193 0 0 .85141193 -2.216943 -1.738188)"/></svg>