<svg height="16" width="16" xmlns="http://www.w3.org/2000/svg"><path d="m.38351057.28375012c-.0344086.0323385-.0674217.0653521-.0997605.0997605v15.21996638c.0342347.03677.0631819.07834.0997605.112773h15.23297843c.03441-.03234.06742-.06535.09976-.09976v-15.21996715c-.03424-.0367666-.06318-.0783384-.09976-.11277273zm1.50941813 1.60917858h1.6655649 1.6655649v3.3311298h-3.3311298v-1.6655649zm4.4415064 0h3.3311298v1.7349635 1.5961663h-1.5961664-1.7349634zm4.4415059 0h.624587 2.706543v2.7412423.5898875h-.589887-2.741243v-2.7065429zm-8.8830123 4.4415064h3.3311298v1.7002642 1.6308656h-1.6308656-1.7002642zm4.4415064 0h.6245868 2.706543v2.7065429.6245869h-.6245869-2.7065429v-2.706543zm4.4415059 0h1.630866 1.700264v3.3311298h-3.33113v-1.7002642zm-8.8830123 4.4415059h.5898876 2.7412422v2.706543.624587h-.6245868-2.706543v-2.741242zm4.4415064 0h1.5961664 1.7349634v3.33113h-3.3311298v-1.734963zm4.4415059 0h3.33113v1.665565 1.665565h-1.665565-1.665565z" fill="#bebebe"/></svg>