<svg height="16" width="16" xmlns="http://www.w3.org/2000/svg"><g fill="#bebebe" transform="translate(.132812 .121094)"><path d="m1.867188 2.878906v12h12v-12zm1 1h10l.06445 10.06836-10.06445.05664z"/><path d="m1.867188 6.878906v7.902344l12 .09766v-8.000004zm1 1h10v6h-10z"/><path d="m1.867188 2.878906 1-2h10l1 2z"/><path d="m5.7188166 9.875906.00781.724267.7421876.978858 1.5820312-.0088 1.5820312.0088.7421874-.978858.0078-.724267-.8281244 1.003-1.5039062.02853-1.5039062-.02853z"/><path d="m3.867188 8.878906v4h8l.00004-4zm1 1h6v2h-6z"/><path d="m3.5507812 4.3984375-.4765624 2.5742187 8.6074222.0039063-7.8945316-.0078125.2578125-2.5644531h7.9101561l.259766 2.5722656h.714844l-.480469-2.578125z"/><path d="m4.867188 4.878906h6v1h-6z"/></g></svg>