<svg height="16" width="16.002" xmlns="http://www.w3.org/2000/svg"><g fill="#bebebe"><g fill-rule="evenodd" transform="translate(-932 -523.948)"><path d="m933 532v6.948s0 1 1 1h12c1 0 1-1 1-1v-6.948h-1v6.948h-12v-6.948z"/><path d="m933 534.948v-6s0-1 1-1h12c1 0 1 1 1 1v6h-1v-6h-12v6z"/></g><path d="m8 0c-1.4642665-.00046099-2.7559556 1.0562137-3 2.5v1.5h1v-1.5h.0253906c.2277286-.8819932 1.063692-1.4986799 1.9746094-1.5.9116448.0004307 1.7545108.6173036 1.9824219 1.5h.0175781v1.5h1v-1.5c-.243674-1.4416044-1.5379486-2.49760439-3-2.5z"/><path d="m8 6a4 4 0 0 0 -4 4 4 4 0 0 0 4 4 4 4 0 0 0 4-4 4 4 0 0 0 -4-4zm-1 1h2v4h2l-3 2-3-2h2z"/></g></svg>