<svg height="16" width="16" xmlns="http://www.w3.org/2000/svg"><g fill="#bebebe"><path d="m5.6347656 4.4492188c-.8919432 0-1.5950272.3419466-1.9472656.6601562-.3904491.3522397-.6796875.7574144-.6796875 1.515625 0 .5379117.044922.8549599.044922 1.0507812 0 .2191049-.2092993.2435047-.2558594.4882813-.066269.3432844.04571 1.1245794.2558594 1.515625.1295528.2394035.4034123.3450235.5878906.5605465.1886572.219702.3828125.672306.3828125.964844 0 .438807-.4995905 1.168199-1.5742191 1.703126-1.47164621.733733-2.19531262 1.070302-2.19531262 2.091796h10.74609412c0-1.021494-.723668-1.358063-2.1953129-2.091796-1.0740321-.535525-1.5585933-1.264916-1.5585933-1.703126-.0000001-.292537.1947527-.745142.3828124-.964844.1832841-.215523.4583382-.321143.5878907-.5605465.2107452-.3910457.3240805-1.1723407.2578125-1.515625-.0465672-.2441797-.2578125-.2685791-.2578125-.4882813 0-.1958211.044922-.5134666.044922-1.0507812 0-.7582107-.2802655-1.1991798-.5859376-1.4433594-.2268658-.1814927-.4934268-.2196636-.6582032-.2441406-.00117-.00179-.00331-.00271-.00391-.00391l-.029297-.039063-.00586.00195c-.1325332-.1426796-.3943795-.3255941-.7812455-.3984301-.1689565-.032239-.3738438-.0488281-.5625-.0488281zm1.3496094.4453124.0371094-.0234374c.0704483-.0400001.1590827-.0585938.2695312-.0585938v-.1386719c-.093135 0-.1744557.012034-.2460937.037109-.018504-.076418-.057159-.151288-.1132813-.21875l-.1054687.087891c.060892.072836.09375.1554059.09375.2324219zm-.8339844.46875c.0001336.0002698.1498328.2048111.1835938.25.0013.00131.0026.00261.00391.00391.2575424.2293801.6179446.3038434.9453087.1953088l-.3085937.1015625c.028541.00843.1023362.025234.097656.021484h.00195c.0878251.0701549.2226596.1689736.2226596.6894535 0 .4835452-.044922.707422-.044922 1.0507812 0 .3164991.1630713.5089815.2753907.6699219v.00195c-.0120829-.0625886.0053742.1877754-.0292968.4023469-.0346716.2145715-.1185192.4497586-.1308594.4726562.0829183-.155158-.0850574-.0619262-.4707031.390625l-.00195.00195c-.3985932.4661128-.6132846.8702138-.6132844 1.5898468 0 .581856.2109266.813941.5566402 1.28711.3457138.473169.8545507.938965 1.5371094 1.279297.2389459.119134.2839155.164952.4726563.263672h-6.4414063c.1887409-.09872.2337103-.144538.4726563-.263672.6834912-.340227 1.190325-.807357 1.5351562-1.28125.3448313-.473893.5742191-.706796.5742191-1.285157 0-.718618-.2139155-1.124103-.6152343-1.5917968-.3881891-.4535149-.5528351-.5443148-.4707031-.390625-.0120779-.0224744-.0945293-.2560392-.1289063-.4707031s-.0174459-.4656879-.0292969-.4042969c.0000026-.0013.0000026-.00261 0-.00391.1111613-.160263.2734375-.3526472.2734375-.6679688 0-.3433592-.044922-.5665792-.044922-1.0507812 0-.5128687.068141-.5343297.3613282-.7988281.1334935-.1205971.6554004-.4121094 1.3007812-.4121094.132103 0 .2930984.014504.3808594.03125.0013.0000026.00261.0000026.00391 0 .1760453.033145.2708212.1277349.2519532.1074219l-.029297-.041016c.016642.022233.034237.043738.052734.064453.00651.00651.032552.031249.039063.037109-.02493-.029991-.098761-.1193507-.1132813-.1367187z" stroke-width="1.057703"/><path d="m11.142578.8046875c-1.5388814.12824007-1.9431193 1.1586638-2.1152342 2.578125l-.2636719.5957031a1.6497243 1.6497243 0 0 1 .0644531.0996094c.6009019.571538 1.0917969 1.4661382 1.0917969 2.5449219 0 .5469887-.0500753.796173-.0664063.859375.0909472.1661423.1885264.1765572.2304684.3964843.110791.5739253.03847.8826761-.03125 1.2890626-.069719.4063864-.1452648.8193079-.3984371 1.2890622-.0141.02606-.017516.042166-.03125.066407l.9902341.130859 3.4375-.197266 1.158203-.4628904.527344-.3300781-.033203-.6289063-1.916016-5.4199218-.033203-.5625c-.59182-1.2963669-1.05368-2.2688932-2.611328-2.2480469zm.039063.8027344c.575845-.0008492.809296.1178398 1.054687.375.233117.2442966.468113.720316.734375 1.2949219l.023438.3847656a.79395824.79395824 0 0 0 .044921.2167968l1.876954 5.3125.001953.046875-.070313.0449219-.970703.3886719-3.214844.1835938c.041382-.1774847.148302-.4039474.173829-.5527344.065498-.3817834.159633-.8845.027343-1.5722656-.033282-.1745182-.126242-.3292213-.205078-.453125.024266-.1790744.054688-.2863064.054688-.6542969 0-1.1184873-.465522-2.0185622-1.0488285-2.7148438l.0898437-.203125a.79395824.79395824 0 0 0 .0625-.2265625c.0798809-.6587899.2193518-1.1463747.4062498-1.4140625.181811-.260401.396476-.4030713.958985-.4570312z"/></g></svg>