<svg height="16" width="16" xmlns="http://www.w3.org/2000/svg"><g fill="#bebebe"><path d="m0 3.3893434v11.6106566l16 .0063v-11.612757zm1 1.6106566h14v9h-14z" stroke-width=".864488"/><path d="m16 1h-16v2.3893434l16 .0021zm-13.6185273.1397788h2.0765035l.8944293 1.1253852-.8944293 1.1232856h-2.0765035l.8923296-1.1232856zm4.299979 0h2.0765036l.8944293 1.1253852-.8944293 1.1232856h-2.0765036l.8923297-1.1232856zm4.2999793 0h2.076503l.894429 1.1253852-.894429 1.1232856h-2.076503l.89233-1.1232856z" stroke-width=".399196"/><path d="m12.162519 10.401537-8.0737997 2.971125 1.1490251-8.0761549z" fill-opacity=".943137" transform="matrix(.84955257 -.12086905 .12086905 .84955257 -.089923 2.13342)"/></g></svg>