<svg height="16" width="16" xmlns="http://www.w3.org/2000/svg"><path d="m10.693359 2.3105469c-1.5861995 0-2.8730465 1.2868467-2.8730465 2.8730469 0 .2250497.0252187.4440169.0742187.6542968-2.38714-.1198398-4.5033244-1.2622501-5.9199218-3-.24724.4242-.3886719.9169596-.3886719 1.4433594 0 .9965201.5066016 1.8755641 1.2773437 2.390625-.4708337-.01491-.913562-.144265-1.3007812-.359375-.000273.01197 0 .0230462 0 .0351562 0 1.39167.9907597 2.5524363 2.3046875 2.8164063-.2409818.06559-.4958584.1015625-.7578125.1015625-.1850873 0-.3656099-.0173213-.5410156-.0507812.3655046 1.1410002 1.4267162 1.9710402 2.6835937 1.9941402-.983003.77042-2.2206839 1.228516-3.5664062 1.228516-.231847 0-.4608326-.012452-.6855469-.039062 1.271102.815041 2.7803039 1.291015 4.4023438 1.291015 5.2831102 0 8.1718752-4.3782177 8.1718752-8.173828 0-.1244597-.002313-.2478936-.007813-.3710938.56126-.4049447 1.048524-.9102981 1.433594-1.4863281-.51506.22848-1.069461.3817322-1.650391.4511719.5929-.3555301 1.049192-.9171509 1.263672-1.5878906-.55503.3292098-1.169928.5685356-1.824219.6972656-.52388-.5581796-1.269563-.9082031-2.095703-.9082031zm0 1.109375c.5128 0 .964337.214688 1.28711.5585937a1.1094499 1.1094499 0 0 0 .263672.2050782 1.1094499 1.1094499 0 0 0 .261718.6425781 1.1094499 1.1094499 0 0 0 -.046875.3671875c.004646.1040635.00586.2115501.00586.3222656 0 1.6163731-.634727 3.4230289-1.828125 4.777344-1.1933986 1.354314-2.8992639 2.287109-5.2343752 2.287109-.1034618 0-.1946092-.038569-.296875-.042969.2733331-.159128.5827144-.261209.8300781-.455078a1.1094499 1.1094499 0 0 0 -.6640625-1.982422c-.2180228-.004007-.3855869-.1241882-.5761719-.1992184a1.1094499 1.1094499 0 0 0 -.609375-1.8242187c-.2827438-.0568037-.4923078-.2477123-.7089844-.421875a1.1094499 1.1094499 0 0 0 .1035157-1.9042969c-.1658982-.1108641-.155665-.3570428-.2753907-.515625 1.3640638.9256956 2.8868822 1.6231898 4.6347657 1.7109375a1.1094499 1.1094499 0 0 0 1.1347656-1.359375c-.0294637-.1264413-.0449219-.2601679-.0449219-.4023437 0-.9862131.77746-1.7636719 1.7636715-1.7636719z" fill="#bebebe"/></svg>