<svg height="16" width="16" xmlns="http://www.w3.org/2000/svg"><g fill="#777" transform="translate(0 -48)"><path d="m15.568367 55.444443c-.401767.10044-.935356.27307-1.600759.386065-.652863.112994-1.271192.169491-2.137476.169491-.7533 0-1.394891-.175506-1.909639-.388939-.514755-.225989-.9290672-.539862-1.2429378-.94162-.3138752-.401756-.5398637-.872566-.6779661-1.412429-.1381057-.552414-.2071563-1.161328-.2071563-1.826742v-5.499059h1.426843v5.122411c0 1.192721.2750829 2.046462.6517341 2.561211.3766441.514754 1.2560411.840912 2.1474461.840911.188318.000001.382919-.0063.583804-.01883.200872-.01255.389196-.02511.564972-.03767.175762-.02511.332698-.04394.470809-.0565.150652-.02511.512403-.05022.575185-.07533v-8.336203h1.426843v9.28572" transform="matrix(1.401696 0 0 1.3999991 -7.922622 -15.303655)"/><rect height="2" ry=".451667" width="3" x="7" y="49"/><rect height="2" ry=".451667" width="3" x="7" y="53"/><path d="m7.4375 9c-.2502233 0-.4375.1872767-.4375.4375v.5625c0 .552285.4477153 1 1 1h1.5625c.2502233 0 .4375-.187277.4375-.4375v-1.125c0-.2502233-.1872767-.4375-.4375-.4375h-1.5625z" transform="translate(0 48)"/></g></svg>