<svg height="16" width="16" xmlns="http://www.w3.org/2000/svg"><g fill="#bebebe" transform="translate(0 -48)"><path d="m2 51h9v2h-9z"/><path d="m5 59h9v2h-9z"/><path d="m2 7v2h5v-2zm7 0v2h5v-2z" transform="translate(0 48)"/><path d="m12 50c-1.104569 0-2 .895431-2 2s.895431 2 2 2 2-.895431 2-2-.895431-2-2-2zm0 1c.552285 0 1 .447715 1 1s-.447715 1-1 1-1-.447715-1-1 .447715-1 1-1z"/><path d="m4 58c-1.1045695 0-2 .895431-2 2s.8954305 2 2 2 2-.895431 2-2-.8954305-2-2-2zm0 1c.5522847 0 1 .447715 1 1s-.4477153 1-1 1-1-.447715-1-1 .4477153-1 1-1z"/><path d="m8 6c-1.1045695 0-2 .8954305-2 2s.8954305 2 2 2 2-.8954305 2-2-.8954305-2-2-2zm0 1c.5522847 0 1 .4477153 1 1s-.4477153 1-1 1-1-.4477153-1-1 .4477153-1 1-1z" transform="translate(0 48)"/></g></svg>