<svg height="24" width="24" xmlns="http://www.w3.org/2000/svg"><g fill="#777" transform="translate(0 -40)"><path d="m7 53.340659c0 .310817.3523966.659341.6666666.659341h2.6666664c.31427 0 .666667-.348524.666667-.659341 0-.659341 0-1.021977 0-1.681318 0-.310817-.352397-.65934-.666667-.65934-.6666663 0-1.9999997 0-2.6666664 0-.31427-.000001-.6666666.348523-.6666666.65934z"/><path d="m7 48.34066c0 .310816.3523966.65934.6666666.65934h2.6666664c.31427 0 .666667-.348524.666667-.65934 0-.659341 0-1.02198 0-1.681319 0-.310817-.352397-.659341-.666667-.659341-.6666663 0-1.9999997 0-2.6666664 0-.31427 0-.6666666.348524-.6666666.659341z"/><path d="m7 58.34066c0 .310817.3523966.65934.6666666.65934h2.6666664c.31427 0 .666667-.348523.666667-.65934 0-.659341 0-1.021979 0-1.681319 0-.310817-.352397-.65934-.666667-.65934-.6666663 0-1.9999997 0-2.6666664 0-.31427-.000001-.6666666.348523-.6666666.65934z"/><path d="m.99999994 53.340659c0 .310817.35239666.659341.66666666.659341h2.6666667c.31427 0 .6666667-.348524.6666667-.659341 0-.659341 0-1.021977 0-1.681318 0-.310817-.3523967-.659341-.6666667-.659341-.6666667 0-2 0-2.6666667 0-.31427 0-.66666666.348524-.66666666.659341z"/><path d="m.99999994 48.34066c0 .310816.35239666.65934.66666666.65934h2.6666667c.31427 0 .6666667-.348524.6666667-.65934 0-.659341 0-1.021979 0-1.681319 0-.310816-.3523967-.659341-.6666667-.659341-.6666667 0-2 0-2.6666667 0-.31427 0-.66666666.348525-.66666666.65934z"/><path d="m.99999994 58.34066c0 .310817.35239666.65934.66666666.65934h2.6666667c.31427 0 .6666667-.348523.6666667-.65934 0-.659341 0-1.021979 0-1.681319 0-.310817-.3523967-.659341-.6666667-.659341-.6666667 0-2 0-2.6666667 0-.31427 0-.66666663.348524-.66666663.659341 0 .65934-.00000003 1.021978-.00000003 1.681319z"/><path d="m13 53.340659c0 .310817.352397.659341.666667.659341h2.666666c.31427 0 .666667-.348524.666667-.659341 0-.659341 0-1.021977 0-1.681318 0-.310817-.352397-.65934-.666667-.65934-.666666 0-2 0-2.666666 0-.31427 0-.666667.348524-.666667.65934z"/><path d="m13 48.34066c0 .310816.352397.65934.666667.65934h2.666666c.31427 0 .666667-.348524.666667-.65934 0-.659341 0-1.02198 0-1.681319 0-.310817-.352397-.659341-.666667-.659341-.666666 0-2 0-2.666666 0-.31427 0-.666667.348525-.666667.659341z"/><path d="m19 48.34066c0 .310816.352397.65934.666667.65934h2.666666c.31427 0 .666667-.348524.666667-.65934 0-.659341 0-1.02198 0-1.681319 0-.310817-.352397-.659341-.666667-.659341-.666666 0-2 0-2.666666 0-.31427 0-.666667.348525-.666667.659341z"/></g></svg>