<svg height="16" width="16" xmlns="http://www.w3.org/2000/svg"><g fill="#bebebe" transform="matrix(1.0430588 0 0 1.0430588 -.344471 -.359188)"><path d="m12.890625 8.7734375a4.9188132 4.9188132 0 0 1 -4.8964845 4.4882815 4.9188132 4.9188132 0 0 1 -4.8554687-4.167969l-1.2714843-.1875a6.15625 6.15625 0 0 0 6.126953 5.59375 6.15625 6.15625 0 0 0 4.9550785-2.523438l1.15625 2.410157-.04297-5.058594a6.15625 6.15625 0 0 0 .04297-.3046875z"/><path d="m8.0078125 2.1835938a6.15625 6.15625 0 0 0 -4.9550781 2.5234374l-1.1562501-2.4101562.0429687 5.0585938a6.15625 6.15625 0 0 0 -.042969.3046874l1.2148438.25a4.9188132 4.9188132 0 0 1 4.8964847-4.4882812 4.9188132 4.9188132 0 0 1 4.8515625 4.1328125l1.273438.1855469a6.15625 6.15625 0 0 0 -6.1250005-5.5566406z"/><path d="m7.2695312 4.8867188c-.2361437.4312417-.4668002.8748703-.6894531 1.3300781-.215911.4491988-.4385696.9246329-.6679687 1.4277343-.1124384.2540636-.231779.5416314-.3476563.8125h-.6875c-.2472194 0-.4472656.1980931-.4472656.4453126 0 .2472193.2000462.4472656.4472656.4472656h.3085938c-.2252989.5446447-.4613651 1.1274386-.7109375 1.7636716h1.640625c.074213-.215643.1544647-.438388.2421875-.666015.094455-.227585.1857147-.4540592.2734375-.681641h2.7324218c.087696.2275818.1759492.454056.2636719.681641.094455.227588.1777337.450372.2519531.666015h1.6914058c-.249571-.636233-.485643-1.2190269-.710937-1.7636716h.263672c.247219 0 .447266-.2000462.447265-.4472656 0-.2472195-.200046-.4453126-.447265-.4453126h-.648438c-.11751-.2707371-.235776-.5585525-.351562-.8125-.2226677-.5031014-.4453197-.9785356-.6679689-1.4277343-.2226609-.4552079-.4483174-.8988363-.6777343-1.3300781zm.7167969 1.4101562c.040489.089859.094646.213386.1621094.3691406.067467.1557188.1466612.3354062.234375.5390625.094467.2036187.1917631.4282456.2929687.6738281.075851.1840496.1547323.380622.234375.578125h-1.8359374c.0796391-.197503.1585217-.3940754.234375-.578125.107949-.2455826.207208-.4702094.2949218-.6738281.0877228-.2036563.1649408-.3833437.2324219-.5390625.0674606-.1557153.1167081-.2792813.1503906-.3691406zm-1.9960937 2.4589844h2.3691406c.149908 0 .2714844.1196232.2714844.2695312v.109375c0 .1499081-.1215764.2695313-.2714844.2695313h-2.3691406c-.1499081 0-.2695313-.1196232-.2695313-.2695313v-.109375c0-.149908.1196232-.2695312.2695313-.2695312z"/></g></svg>