<svg height="16" width="16" xmlns="http://www.w3.org/2000/svg"><g fill="#bebebe" transform="matrix(1.1921979 0 0 1.1921979 -1.537584 -1.603276)"><path d="m8 0a7.9999998 7.9999998 0 0 0 -6.6875 3.625l-1.3125-2.625v5.5h.1484375a7.9999998 7.9999998 0 0 0 -.01171875.0546875l1.90234375.7617187c.339539-2.9924746 2.8775499-5.3188058 5.9609375-5.3183593 2.845189-.0004119 5.223835 1.9816614 5.841797 4.6386719l2.132812.8535156a7.9999998 7.9999998 0 0 0 -7.974609-7.4902344zm-8 8a7.9999998 7.9999998 0 0 0 8 8 7.9999998 7.9999998 0 0 0 6.685547-3.628906l1.314453 2.628906v-6l-.070312-.0273438-1.9375-.7753906c-.104608 3.2228094-2.74384 5.8051584-5.992188 5.8046874-3.0344638.00044-5.5369767-2.253996-5.9394531-5.1777342z" fill="#bebebe" transform="matrix(.83878692 0 0 .83878692 1.289705 1.344807)"/><path d="m25.733733 8.7734375a4.9188132 4.9188132 0 0 1 -4.896484 4.4882815 4.9188132 4.9188132 0 0 1 -4.855469-4.167969l-1.271484-.1875a6.15625 6.15625 0 0 0 6.126953 5.59375 6.15625 6.15625 0 0 0 4.955078-2.523438l1.15625 2.410157-.04297-5.058594a6.15625 6.15625 0 0 0 .04297-.3046875z"/><path d="m20.850921 2.1835938a6.15625 6.15625 0 0 0 -4.955078 2.5234374l-1.15625-2.4101562.04297 5.0585938a6.15625 6.15625 0 0 0 -.04297.3046874l1.214844.25a4.9188132 4.9188132 0 0 1 4.896485-4.4882812 4.9188132 4.9188132 0 0 1 4.851562 4.1328125l1.273438.1855469a6.15625 6.15625 0 0 0 -6.125-5.5566406z"/><path d="m7 4-1.5996094 4h-.4003906c-.5540001 0-1 .4460001-1 1 0 .4224249.2601348.7787829.6289062.9257812l-.6289062 1.5742188h1.9550781l.5449219-1.5h2.9492188l.5351562 1.5h2.015625l-.628906-1.5742188c.368771-.1469983.628906-.5033563.628906-.9257812 0-.5539999-.446-1-1-1h-.400391l-1.599609-4zm.984375 1.9042969.75 2.0957031h-1.5097656z" stroke-width="1.192198" transform="matrix(.83878692 0 0 .83878692 1.289705 1.344807)"/></g></svg>