<svg height="16" width="16" xmlns="http://www.w3.org/2000/svg"><g fill="#bebebe"><path d="m8.1757812 1.3339844c-.9436706 0-1.6878806.3625548-2.0605468.6992187-.413093.3726676-.71875.8013331-.71875 1.6035157 0 .5691076.046875.9041503.046875 1.1113281 0 .2318118-.2222241.2566528-.2714844.515625-.070112.363193.049148 1.1897915.2714844 1.6035156.137066.2532875.4259166.3657279.6210937.59375.1995982.2324435.40625.7119809.40625 1.0214844 0 .4642553-.519299 1.4418642-1.65625 2.0078121-1.5569932.776286-2.3222656 1.132156-2.3222656 2.212891l-.4785156 1.882813s3.4101669.038445 6.6347656.054687c-.1777323-.321876-.3184398-.663209-.4121094-1.027344-.0617839-.000349-.1081147.000368-.1699219 0-2.3694599-.01408-3.8244304-.032768-4.7363281-.042969l.15625-.615234c.021459-.082286.0326119-.166923.0332031-.251953 0-.298046-.0178035-.244583.2070313-.431641.2244975-.186776.764283-.472067 1.5449219-.861328.7237654-.360274 1.2612805-.855623 1.6269531-1.357422.3656726-.5017973.5996094-.9553982.5996094-1.5703121 0-.7664858-.2282177-1.1932596-.6542969-1.6894531-.4103968-.4794604-.5832067-.574993-.4960938-.4121094-.0124424-.023153-.1002677-.2713522-.1367187-.4980469-.03645-.2266947-.018298-.4909241-.03125-.4238281.0000025-.0013.0000025-.0026063 0-.0039063.11883-.1711666.2910156-.3729089.2910156-.7070312 0-.3620323-.046875-.5985938-.046875-1.1113281 0-.5413952.0695275-.5626941.3789063-.8417969.1402248-.1266781.6923297-.4335938 1.3730468-.4335938.1357301 0 .3031987.0146541.4003907.0332031.0013.0006501.0026062.001306.0039062.0019532.1873889.03528.2863919.133833.2636719.109375l-.0390625-.0546875c.020134.027752.0416451.0544781.0644531.0800781.007685.007938.0154975.0157475.0234375.0234375.00581.004623.0116681.0091819.0175781.0136719-.0309128-.037148-.1168799-.1407308-.125-.1503906-.0003399-.0004102-.00587-.0058759-.0058593-.0058594l-.0644531-.1074219c.0001449.0002924.1751534.2334847.2050781.2734375.2526397.2215228.597684.3054131.9238281.2246094l-.3027344.0761718c.0833858.0179172.1605038.0377802.1523438.03125v.0019532c.0922313.0736768.234375.17642.234375.7246094 0 .5096881-.0488281.742844-.0488282 1.1113281.0000003.3344851.1729918.5348967.2929688.7070312-.000002.0013-.000002.0026063 0 .0039063-.01318-.0682697.003537.1972365-.033203.4238281-.036739.2265916-.124039.4745099-.136719.4980469.087973-.1644872-.0881765-.0666412-.4960936.4121094l-.0019532.0019531c-.4223757.4938833-.6523437.9206892-.6523437 1.6875.0000002.4403354.1246853.7969165.3261719 1.1464843.2377063-.2744595.4993028-.5268857.796875-.7363281-.0609078-.1566702-.0957031-.2994819-.0957032-.4101562 0-.3095025.2072828-.7890409.4062498-1.0214844.193913-.2280221.484028-.3404625.621094-.59375.222968-.4137242.343548-1.2403227.273438-1.6035156-.049275-.2583407-.273438-.2831813-.273438-.515625 0-.2071776.048828-.5428526.048828-1.1113281 0-.8021828-.297694-1.2690033-.621094-1.5273438-.240018-.1920183-.5209796-.2319159-.6953121-.2578125-.00124-.0019-.0032763-.0026362-.0039063-.0039063l-.03125-.0429687-.0078125.0019531c-.1402248-.1509502-.4168696-.3428621-.8261719-.4199218-.1787551-.0341089-.3941526-.0527344-.59375-.0527344zm1.4277344.4707031.0390625-.0234375c.074534-.04232.1683024-.0625.2851563-.0625v-.1464844c-.098536 0-.1859262.0125325-.2617188.0390625-.019577-.0808505-.059764-.1610472-.1191406-.2324219l-.1113281.09375c.064424.077059.0996095.1646112.0996093.2460938z" stroke-width="1.119044"/><path d="m8 .71875c-4.0146525 0-7.28125 3.26655-7.28125 7.28125s3.2665975 7.28125 7.28125 7.28125c4.014653 0 7.28125-3.26655 7.28125-7.28125s-3.266597-7.28125-7.28125-7.28125zm-1.1875 2.53125h2.375v1.78125h-2.375zm-.8974842 2.9268499h.875 2.40625l-.0087658.9481501v5.53125h-2.40625v-5.53125h-.875z" transform="matrix(.47857714 0 0 .47857714 8.686743 8.686743)"/></g></svg>