<svg height="16" viewBox="0 0 16 16" width="16" xmlns="http://www.w3.org/2000/svg"><g fill="#bebebe"><path d="m1.2459261 8.4072611c.1114929-.016401.2237541-.025605.3362395-.031367.1051257-.00649.2077883-.032731.3128656-.043914.099771-.00413.1966549-.00918.2944471-.028777.098038-.019551.1979064-.025144.2975713-.028528.098634-.00242.1973092-.00208.2959652-.00198.034346.0000467.058159.00406.090227-.01015.011358-.00503.041308-.027535.030465-.021471-1.0973893.6135811-.7002764.4477078-.5225855.2784809.097317-.1055913.1455028-.2397876.1924149-.3727033.0803467-.2209529.1257927-.4528121.1739016-.682432.0575015-.2912012.1375961-.5771111.2085936-.8651546.0786263-.2725215.1201355-.5529715.161448-.832924.0249316-.2022152.0590192-.4030587.0799217-.6057603.017055-.1286343.039879-.2562802.05226-.3855063.0021-.046587.010318-.093433.00328-.1400352-.00287-.019032-.033922-.076573.010126.020412.7410503-.4492963.6121025-.5620921.5908015-.1683399-.00575.1577817-.00727.3150164.00748.4722806.015642.1447635.022338.2903238.048249.4337228.016112.1036502.035784.2061193.058451.308502.025939.098384.060244.1941491.08969.2914468.031118.094574.028881.1947976.044687.2918456.026681.077805.012451-.028507.047522-.017319.012705.00405.021301.01605.031953.024075.070873.1066334.028443.2379961.00693.3544784-.017912.1150411-.051416.2265951-.071038.3413135-.014894.097134-.016811.1955257-.018148.2935837-.0007403.098022-.0002938.1960478-.0001035.2940709.00169.00559.00645.022446.00507.016771-.066934-.2757186-.07392.00412-.6265956.2950485-.01154.00608.017161-.019677.024917-.030161.021734-.029383.04124-.060352.062113-.090354.2643959-.4047734-.011624-.1333618.7700523-.6001823.012455.010802.027681.019063.037365.032405.066888.092159.055473.2886562.059894.3976538.0002939.1758037.00788.3502265.029832.5246157.019073.1194818.066197.2308399.094166.34814.031405.1425806.070055.2833087.098922.426472.020209.1110879.0433.2219139.068348.3320355.2315834.077324.047168.014089-.6341741.3162426-.015148.00672.020289-.026644.026744-.041906.044395-.1049602.06711-.2250875.097794-.3343551.075422-.2558009.1332403-.5162306.202366-.7737249.0334178-.1407344.1014076-.2631789.1919133-.3741733.2460529-.2305635.5459492-.4296911.8743331-.5137148.098237-.019874.1988632-.020158.2986632-.020887.098635-.0000635.1972693.0006346.2959038.0009754.099903.00347.1978024.028902.2975271.039622.097301.00888.1950812.00955.2927062.010187.098242.0003055.1964856.0000408.2947281-.0000823.099269-.010157.1933236.010535.2901974.027062.1291915.011491.1833514.010542.2776844.1074175.069945.083533.091513.1871112.1039172.2922755.00858.099934.00745.20036.00715.3005642-.00889.1284514.05606.1289531.1650982.1471017.1392414.020223.2771471.015547.4156483-.00345.1201147-.0083.2358264-.035854.3533267-.059399.1004041-.018898.2026271-.022553.3044915-.024762.098374-.00135.1967622-.0008696.2951424-.0006815.1053853-.0001411.2107619.0009753.3161462.00104.107018-.0001175.2140357-.0003995.3210536-.0005406.099043-.0001162.1980846-.0001292.2971276-.000141.09919.00313.199284-.00844.297194.00941.0953.016008.190073.026844.275091.075373.08486.061084.146106.1477565.204218.233314.05927.091371.0771.1988895.103613.3024518.02871.094992.02782.1949164.04448.2917728.08833.2458129.598328-.213692-.627806.3483145-.01135.00521.01238-.022063.01531-.034209.008-.033228.01121-.1062343.01332-.1383297.000893-.1347395.0058-.2680875.02396-.4016235.02418-.1030558.04686-.2062769.06873-.3098631.02084-.099293.05438-.1951113.07856-.2934988.02924-.098007.05049-.1980521.07796-.2965137.02376-.099226.04835-.1981776.07661-.2962541.02945-.1008668.06282-.2001281.102475-.2974378.0451-.1002188.08936-.2009637.122212-.3059411.05204-.1632305.08282-.3323318.109176-.5013156.03713-.2451366.08015-.4893631.108007-.7357845.0248-.229853.07762-.4550845.123174-.6813308.02186-.1403876.0576-.2779815.07899-.4184289.06106-.3336827.04548-.1941838.684167-.4359953.01924-.00729.0088.040373.0099.060909.0016.027025-.0012.054127-.0018.08119-.01462.2562979-.03822.5118199-.05943.7676144-.01931.2723509-.04771.543854-.06385.8164516-.01372.2120453-.01663.4239337.01178.6347429.02167.1571369.06531.3103528.114794.4607275.03966.1028918.08232.2047792.117398.3093561.0405.096145.06662.1959582.08143.298973.0063.036252.0019.080714.02185.1139518.0095.015757.03414.0361.04493.051425.06426.1244911.09127.2632342.131323.3964568.04242.1483119.08449.2962387.136492.4415499.04021.1022428.06739.2090496.103945.3123609.02732.077312.07715.1433529.111383.2176587.03751.091511.04514.1902131.05015.2878614.0037.092431-.0027.1844585.01409.2757326.05802.1900399.480001-.1499753-.628779.3438779-.01465.0065.0084-.03102.01124-.0468.01194-.06509.02078-.130705.03196-.195922.04684-.2761825.06819-.555731.10603-.8331771.04577-.2732553.05706-.5499843.07671-.8257781.0076-.1808993.04784-.3574558.117767-.5240469.05218-.1034259.08996-.2129793.133339-.3201589.04069-.093064.06912-.1910393.09731-.2884795.02863-.1032366.03337-.2103872.03656-.3168169.0021-.1041619.0013-.2083518.000823-.3125253-.000352-.098634-.00047-.1972689-.000588-.2959036.0013-.099581-.0035-.1992975.0039-.2986546.01706-.095031.02764-.1908911.04025-.2865356.209434-.1322202.407602-.284252.628302-.3966608.02099-.010691.03337.033531.04715.052633.06258.086737.08326.2086851.11044.3093029.05808.2320332.09552.468608.120556.7062987.01332.2041275.04598.4061787.06905.6092681.01.1247488.02881.2495393.05525.3718984.01877.094047.04591.1850244.07389.2765341.03261.088524.06015.1786693.09642.2658219.03727.1048899.101973.1957243.162886.2877669.05079.088793.105268.1759691.139002.2729633.02399.076538.0836.087189.154842.09569.09281.0071.186024.0054.279026.00486.06575-.0004348.03286-.0002233.09868-.0006346 0 0-.584777.4253985-.584777.4253985-.0659.0003761-.03295.0002116-.09885.0004936-.09639.000033-.193634.00178-.2889-.015052-.09139-.023521-.163944-.066793-.194897-.1613159-.02854-.091904-.07943-.1745451-.125698-.258351-.0635-.095393-.131462-.1896134-.171226-.298023-.03918-.088916-.06724-.1815975-.102813-.2719081-.027-.093765-.05484-.186416-.0728-.2825731-.02945-.1251285-.04338-.2550482-.05463-.3828478-.01456-.2055179-.04065-.4098903-.05544-.6153635-.02438-.2330975-.06184-.4647477-.121141-.6917075-.01076-.034352-.04119-.1346858-.0564-.1722122-.0082-.020226-.01788-.039881-.02852-.05893-.0055-.00973-.0095-.022361-.01958-.027103-.0054-.00251-.0056.020722-.00047.017671.201143-.1217378.397066-.2519.5956-.37785-.03432.087472-.01825.1896366-.04704.2798763-.01644.09581-.0039.1939963-.0077.2908673.000047.098646.000117.197293.000234.2959395.000091.1050838.000353.2101779-.0016.3152491-.0026.1107656-.0034.2227146-.02753.3313636-.02533.1010454-.05741.2009199-.09373.2984093-.04942.106638-.08102.2206954-.137504.3242139-.0814.1578843-.126455.3316063-.142458.5084025-.02835.2768133-.03233.5562406-.07934.8312312-.04.2756895-.0627.5530656-.09667.8294686-.0095.071775-.01743.1144842-.01905.1845765-.000471.018353.01753.044987.0021.055031-.291146.1903118-.599123.6114668-.671252.3118088-.01919-.09488-.01728-.189501-.01736-.286084-.0032-.088564-.0065-.1787584-.03819-.2626514-.03463-.076578-.08949-.142782-.113961-.2240492-.03551-.1040652-.05987-.2121472-.09883-.3152969-.04908-.1472632-.09093-.2962928-.13291-.4456999-.04079-.1232629-.06525-.25377-.13153-.3667741-.05259-.05985-.08446-.117525-.08154-.2014262-.01129-.099305-.03356-.1957882-.0744-.2875546-.032992-.1056036-.076468-.2076845-.114607-.3114984-.047397-.1562061-.088015-.3150085-.110683-.4769017-.028993-.2158401-.033252-.432321-.013862-.6494449.01951-.2739777.05378-.5465733.0703-.8207457.01881-.2511465.04275-.5019355.04307-.75406-.000016-.022481.000822-.04498-.000048-.067445-.000412-.01077-.01308-.026636-.0038-.032111.209611-.1236231.429173-.2295408.643347-.34508.0058-.00312-.01424.00248-.01811.00779-.01178.016157-.02433.073582-.02822.088601-.02088.1445126-.06269.2839963-.08874.4274812-.04664.2256083-.108205.4486971-.131893.6785494-.02728.2462147-.07116.4897398-.103007.7353507-.02046.1694626-.04621.3397549-.09247.5042382-.02764.1079419-.06674.2126022-.117244.3120533-.03824.096435-.07913.1915164-.104313.2925649-.034.095389-.05509.1951767-.0776.2937368-.0274.097579-.04764.1966065-.0794.29299-.02039.1000812-.05616.1951326-.07809.2947825-.02811.1004358-.03649.2061639-.07352.3046477-.02062.1320646-.03604.2630953-.03145.3972925-.0011.046463.0019.1935926.000411.1944747-.396323.2448139-.596115.586835-.680153.2926908-.0187-.095277-.01355-.1942544-.04044-.2884958-.02418-.09541-.03856-.1955074-.09018-.2809613-.05197-.0753609-.107691-.1537124-.188731-.1997586-.0823703-.0340413-.1708229-.0439661-.2585174-.0564269-.0973214-.0049028-.1948418-.0012128-.2922565-.0023504-.0989185-.0000081-.197837-.0000172-.2967555-.0001292-.1064996-.0001411-.2129989-.0004231-.3194984-.0006346-.1060485-.0000409-.2120918.0008931-.3181406.000329-.097899-.0000823-.1958272-.0004583-.293689.00265-.099363.0043-.1987062.012058-.2960456.033685-.1170395.024314-.2349346.039928-.3538268.052455-.1432876.014972-.2875691.007-.4298528-.015423-.121562-.0306394-.2313432-.0851116-.2195829-.2291678.000517-.0978915.0019648-.1959039-.0036395-.2936853-.0076668-.0882119-.0183358-.1784251-.0794314-.2474937-.0758942-.066086-.157907-.0556642-.2532014-.0719238-.0941521-.0156452-.1876845-.0218862-.2832664-.0170835-.0984214.0001121-.1968472.0004114-.2952646-.0006581-.0992561-.0016228-.1986987-.0041071-.2972842-.0167611-.0972496-.0134048-.1938473-.0365445-.2926125-.0326026-.0983216-.0003878-.1966563-.0012895-.2949713.0002937-.0962187.0027841-.1937639.0064375-.2856635.0381542-.2235617.091095-.5793934.3220146.4857411-.2932463.091602-.0529125-.2149276.1169681-.122145.08527-.1043489.0948227-.1772891.2142082-.2193168.3490738-.0791139.2565292-.1444307.5164102-.2111865.7763721-.027379.1081334-.058083.2170003-.075429.3274026-.00322.020544.011519.05131-.00628.062073-.651348.3939555-.5524346.5634619-.6797361.3122033-.0150677-.1129576-.0444136-.2229296-.0600499-.3357114-.0249547-.1428646-.0642694-.2820961-.1004658-.4223877-.026677-.1206638-.0769814-.2341703-.0947156-.3570397-.0179784-.1771669-.0268025-.3538648-.0260351-.5320324-.0042884-.0854732-.0074241-.1713068-.0219051-.2558545-.0003408-.0019927-.0126727-.0641532-.0157889-.0611718-.00382.00365-.0009867.010527-.00148.015791.7176897-.436466.6800878-.5172417.4638625-.1408368-.0063985.0089285-.0732938.1196507-.0766434.1217471-.2163719.1354095-.5557861.5556435-.6875823.3370517-.0060438-.0100241-.0045666-.0229619-.00685-.0344428-.0001879-.0982916-.0005993-.1965839-.0003055-.2948757.0007638-.1013002.0016899-.2028884.0143513-.303554.017196-.1168593.0518256-.2289808.0737465-.3447074.0155614-.083657.038628-.172444.034475-.2555599-.0149257.0653094-.1321369-.0362775-.1149105-.079687-.0178311-.0944714-.0112592-.1926049-.0390426-.2857463-.0284311-.0994169-.0645776-.1963708-.0924061-.2960288-.0218712-.1038494-.0453133-.2066369-.0571722-.3123291-.0251734-.1465664-.0290657-.2944676-.0441877-.4423332-.0151178-.1583844-.0210425-.3165378-.0183644-.4757131-.0079781-.4175038-.0035666-.2217507.6292411-.6125611.069356.079356.065506.1498215.055065.2529426-.011879.1312057-.035356.2604958-.059719.3898945-.02069.2063806-.065394.4087317-.089726.6145916-.0448.2824034-.086362.5660061-.1649855.8415475-.0702728.286383-.1496184.5706931-.2056079.8603624-.0439816.2299523-.0859662.4618962-.1579342.6849535-.044246.1354506-.0822697.2769284-.1701497.3919591-.1834975.2691279-.5217244.4717136-.8496408.4610625-.098004.0001292-.1960616.0000759-.2939814.00469-.098019.00582-.195555.016368-.291914.035822-.098353.014983-.1979628.012408-.2965835.025681-.1044842.014582-.208001.038168-.3139661.039062-.11295738.00759-.22615598.01808-.33659015.04414 0 0 .58102585-.4399208.58102585-.4399208z"/><path d="m0 2v12h16v-12zm1 1h14v9h-14z" fill="#bebebe"/></g></svg>