<svg height="16" width="16" xmlns="http://www.w3.org/2000/svg"><g fill="#bebebe"><path d="m4 4 .0249292 1.4541142 2.2436286 1.1309777-2.2436286 1.2386901-.0498582 1.5618264 4.6368324-2.8005165z"/><path d="m2 2c-.554 0-1 .4602422-1 1.03125v9.9375c0 .571008.446 1.03125 1 1.03125h12c.554 0 1-.460242 1-1.03125v-9.9375c0-.5710078-.446-1.03125-1-1.03125zm1 1h10c.554 0 1 .4602433 1 1.03125v6.9375c0 .571007-.446 1.03125-1 1.03125h-10c-.554 0-1-.460243-1-1.03125v-6.9375c0-.5710067.446-1.03125 1-1.03125z" fill="#bebebe"/><rect height="1" rx="0" ry=".5" width="4" x="6" y="9"/></g></svg>