<svg height="16.004" width="16" xmlns="http://www.w3.org/2000/svg"><g fill="#bebebe"><path d="m8.0022309 4.85v10.38l2.3440001-2.2882 1.3394 2.7346c.32808.73962 2.0337.14492 1.5487-.84412l-1.3255-2.8393h2.9579l-6.8645001-7.1436z" display="block"/><path d="m8.8422309 1.06c3.8266001.46006 6.5788001 3.9578 6.0938001 7.7812-.13127 1.0347-.29377 1.3818-.29377 1.3818l-1.675-1.6318c.33104-2.7534-1.6216-5.2315-4.3750001-5.5625-2.7534-.33104-5.2315 1.6216-5.5625 4.375-.31355 2.608 1.3913 5.0249 3.9688 5.5312l-.0312 2s-.52086-.1059-.62354-.13097c-3.4156-.83385-5.70630004-4.1273-5.2827-7.6503.46006-3.8266 3.9547-6.5538 7.7812-6.0938z"/><path d="m11.892231 7.81v-.20574l.19826.0186c-.0165-.13095-.0329-.26167-.0496-.3926h.11578l.11556.14959.11578.0559.1653-.0932.0165-.20575-.0331-.22438-.24798-.18688h-.19826l-.0329-.11229-.24786.0559-.18183.2246-.0331-.37419-.31401-.26167-.11567-.28055-.23133-.0934-.1322-.18688-.29738-.0564-.14885-.22415h.44623l-.28094-.13095h-.19814l-.28106-.0937-.0331-.11186.0992-.0937.11567-.0375-.0331-.11208.0826-.16822.19837.0746-.0331-.14947.23134-.13096.18171.3177-.0165.11229.18171.075.11578.24302.0495-.22438.31402-.13095.0496-.16822-.41315-.24325-.18182-.16822-.0165-.20563.0991-.0562.13219-.0188.0826.20575s.1382.0271.17373.0358c.45378.41804 1.3707 1.3204 1.5837 3.024-.008.0395-.15441.26854-.15441.26854l-.347.20552-.347.0937m-3.9661001-4.3003.4298-.16833.49552.0561.61161.16822.11567.11229-.38008.26167v.14959l.14875.14959-.19846.39294-.13188-.075-.16561-.26168c-.2553-.0789-.4842-.16833-.72686-.28053l-.19846-.5048m-2.5292.34192.375.0937.21875.15625v.125l.375.25-.0937.34375-.21875-.15625-.125.15625-.15625.0937-.0937-.28125.0625-.15625-.0625-.0937-.21875-.1875h-.0937l.0937.21875v.1875c-.0892-.0242-.1588-.051-.25-.0625l.25.1875v.125l.3125.21875.28125-.0625v-.15625l.125.0625-.0625.15625h.21875l.125.21875.15625.15625.0937.0312v.1875l-.0312.15625h.0312v.53125l-.0625-.0312-.0937-.21875-.1875-.125-.0312-.0937-.28125-.0625-.15625.1875-.1875.0937.0937.1875-.15625-.0312-.0625-.21875.1875-.21875h-.0625l-.21875.15625-.0312.21875-.15625.21875-.0625-.3125-.0937-.0312c-.0959.0996-.1692.23163-.25.34375h-.28125l-.1875.125.0937.0937.15625.15625h.25l.34375-.0937h.1875l.125.15625.34375-.375.25-.0625.375.0625.15625.0937v2.4062l-.0312.0312-.25-.15625-.0937.0937h-.28125l-.125.15625.0937.3125-.1875.1875v.375l-.125.25.0937.25c.009.16159 0 .30714 0 .46875-.0795.21894-.14355.43575-.21875.65625l-.0625.34375v.1875h-.125l-.21875-.125h-.25l-.375-.4375.0312-.15625-.25-.21875.1875-.1875-.21875-.1875-.21875-.125-.0937-.125.0625-.25v-.59375l-.1875-.375-.1875-.25-.25-.5625v-.15625c.11654.0146.22972.0231.34375.0312.0722.005.14446 0 .21875 0 .12359-.25961.2183-.50966.3125-.78125l.15625-.1875.0937-.3125-.0625-.0625-.21875.25-.25.5625-.15625.15625.0625.21875-.15625.15625-.25-.25-.3125-.21875-.15625-.1875v-.21875c.0389-.0732.0547-.14545.0937-.21875l.15625.1875.125-.15625.1875-.125v-.28125l-.21875.21875-.21875-.0312c-.10166.0923-.19205.20751-.28125.3125l-.15625-.1875c0-.17463.19976-1.0204.625-1.75.42526-.72932 1.1562-1.4062 1.1562-1.4062l.0625.0937.21875.21875.25-.25h-.25l-.125-.125.46875-.0937.25-.0937z" opacity=".3"/></g></svg>